<svg width="237" height="132" viewBox="0 0 237 132" fill="none" xmlns="http://www.w3.org/2000/svg">
<path d="M50.7125 108.06C49.3889 108.487 47.9214 108.504 46.7169 107.809C44.5794 106.575 44.1412 105.154 44.5234 102.508V102.508C42.8798 103.056 42.063 104.953 43.0339 106.388C43.9977 107.812 45.0937 108.974 46.6267 110.246C47.9171 111.316 49.5696 111.855 51.2458 111.812C56.4406 111.679 59.0349 110.851 62.1257 108.72C61.1051 110.641 61.1618 111.76 61.9885 113.6C62.0605 113.76 62.2568 113.822 62.4077 113.731C64.0825 112.73 65.0039 111.892 66.2674 109.756C66.2154 114.032 66.9843 113.977 70.4091 114.933C67.5194 110.86 68.0525 109.221 70.1981 106.254C70.9958 105.151 72.1259 104.331 73.4053 103.866L78.5776 101.985C81.3342 100.982 84.3487 100.942 87.1313 101.869L104.173 107.55C104.307 107.435 104.442 107.326 104.578 107.223V104.508C104.578 103.403 105.474 102.508 106.578 102.508H108.791C109.896 102.508 110.791 103.403 110.791 104.508V105.614H111.826V103.472C111.826 102.368 110.931 101.472 109.826 101.472H105.543C104.438 101.472 103.543 102.368 103.543 103.472V106.65C98.7736 103.748 93.5321 101.584 86.7257 99.7769C82.8456 98.747 78.7534 99.0145 74.9328 100.247L50.7125 108.06Z" fill="url(#paint0_radial_692_1432)"/>
<path fill-rule="evenodd" clip-rule="evenodd" d="M118.039 111.827V108.721C115.458 105.74 114.163 105.799 111.826 105.614H110.791C108.063 105.589 106.222 105.979 104.578 107.223V107.685L104.173 107.55C103.27 108.327 102.409 109.382 101.472 110.791C94.4225 108.167 92.2419 105.859 84.6304 104.117C82.7927 103.696 80.8379 103.854 79.1733 104.739C77.1406 105.82 75.7478 107.075 74.4004 109.235C73.7976 110.201 73.7049 111.42 74.2146 112.438C75.0495 114.107 76.2498 115.417 79.1376 117.128C80.1186 117.709 81.3505 117.62 82.2784 116.957L86.28 114.099C87.2184 113.429 87.4128 112.09 86.6211 111.251C84.8302 109.354 83.7227 109.09 81.7989 109.756C83.0242 110.067 83.7473 110.456 84.396 111.688C84.7596 112.378 84.5518 113.216 84 113.767L82.2754 115.492C81.3706 116.397 79.9663 116.664 78.9055 115.948C77.3915 114.927 76.4781 113.802 75.4876 112.283C74.8937 111.372 74.8539 110.185 75.48 109.296C77.188 106.871 79.0763 106.022 82.8343 105.614C87.5138 105.758 93.9734 109.592 101.472 112.862C101.61 115.305 101.827 117.608 105.43 119.531C106.15 119.915 107.027 119.733 107.604 119.156L110.252 116.508C110.55 116.21 110.55 115.727 110.252 115.429V115.429C109.971 115.149 109.521 115.134 109.21 115.381C104.882 118.812 103.349 117.017 102.508 112.862C108.784 113.743 111.6 112.063 112.862 106.65H114.933L118.039 111.827ZM102.508 111.827C105.324 107.593 107.416 106.549 111.826 106.65C109.581 111.782 107.623 113.001 102.508 111.827Z" fill="url(#paint1_radial_692_1432)"/>
<path d="M118.039 114.933V111.827C116.112 115.763 116.189 118.074 110.791 119.075C111.96 121.038 112.806 121.636 114.933 121.146C115.324 125.201 115.717 127.472 118.039 131.5V125.287C116.703 121.107 116.952 118.865 118.039 114.933Z" fill="url(#paint2_radial_692_1432)"/>
<path d="M115.968 98.3662C116.06 94.792 116.696 93.3936 118.039 91.1182V105.614C115.722 100.811 114.342 99.4138 111.826 99.4015C113.364 97.8121 114.276 97.3638 115.968 98.3662Z" fill="url(#paint3_radial_692_1432)"/>
<path d="M185.366 108.06C186.689 108.487 188.157 108.504 189.361 107.809C191.499 106.575 191.937 105.154 191.555 102.508V102.508C193.198 103.056 194.015 104.953 193.044 106.388C192.08 107.812 190.984 108.974 189.451 110.246C188.161 111.316 186.509 111.855 184.832 111.812C179.637 111.679 177.043 110.851 173.952 108.72C174.973 110.641 174.916 111.76 174.09 113.6C174.018 113.76 173.821 113.822 173.67 113.731C171.996 112.73 171.074 111.892 169.811 109.756C169.863 114.032 169.094 113.977 165.669 114.933C168.559 110.86 168.026 109.221 165.88 106.254C165.082 105.151 163.952 104.331 162.673 103.866L157.5 101.985C154.744 100.982 151.729 100.942 148.947 101.869L131.905 107.55C131.771 107.435 131.636 107.326 131.5 107.223V104.508C131.5 103.403 130.604 102.508 129.5 102.508H127.287C126.183 102.508 125.287 103.403 125.287 104.508V105.614H124.252V103.472C124.252 102.368 125.147 101.472 126.252 101.472H130.535C131.64 101.472 132.535 102.368 132.535 103.472V106.65C137.304 103.748 142.546 101.584 149.352 99.7769C153.232 98.747 157.325 99.0145 161.145 100.247L185.366 108.06Z" fill="url(#paint4_radial_692_1432)"/>
<path fill-rule="evenodd" clip-rule="evenodd" d="M118.039 111.827V108.721C120.62 105.74 121.915 105.799 124.252 105.614H125.287C128.015 105.589 129.856 105.979 131.5 107.223V107.685L131.905 107.55C132.808 108.327 133.669 109.382 134.606 110.791C141.656 108.167 143.836 105.859 151.448 104.117C153.285 103.696 155.24 103.854 156.905 104.739C158.938 105.82 160.33 107.075 161.678 109.235C162.281 110.201 162.373 111.42 161.863 112.438C161.029 114.107 159.828 115.417 156.941 117.128C155.96 117.709 154.728 117.62 153.8 116.957L149.798 114.099C148.86 113.429 148.665 112.09 149.457 111.251C151.248 109.354 152.355 109.09 154.279 109.756C153.054 110.067 152.331 110.456 151.682 111.688C151.319 112.378 151.526 113.216 152.078 113.767L153.803 115.492C154.708 116.397 156.112 116.664 157.173 115.948C158.687 114.927 159.6 113.802 160.591 112.283C161.184 111.372 161.224 110.185 160.598 109.296C158.89 106.871 157.002 106.022 153.244 105.614C148.564 105.758 142.105 109.592 134.606 112.862C134.468 115.305 134.251 117.608 130.648 119.531C129.928 119.915 129.051 119.733 128.474 119.156L125.826 116.508C125.528 116.21 125.528 115.727 125.826 115.429V115.429C126.107 115.149 126.557 115.134 126.868 115.381C131.196 118.812 132.729 117.017 133.571 112.862C127.294 113.743 124.478 112.063 123.216 106.65H121.145L118.039 111.827ZM133.571 111.827C130.754 107.593 128.662 106.549 124.252 106.65C126.497 111.782 128.455 113.001 133.571 111.827Z" fill="url(#paint5_radial_692_1432)"/>
<path d="M118.039 114.933V111.827C119.967 115.763 119.889 118.074 125.287 119.075C124.119 121.038 123.273 121.636 121.145 121.146C120.754 125.201 120.361 127.472 118.039 131.5V125.287C119.375 121.107 119.126 118.865 118.039 114.933Z" fill="url(#paint6_radial_692_1432)"/>
<path d="M120.11 98.3662C120.019 94.792 119.382 93.3936 118.039 91.1182V105.614C120.356 100.811 121.736 99.4138 124.252 99.4015C122.714 97.8121 121.802 97.3638 120.11 98.3662Z" fill="url(#paint7_radial_692_1432)"/>
<path d="M79.7344 64.7305C79.7344 64.5586 79.5553 64.4512 79.1973 64.4082C78.8392 64.3652 78.3021 64.3366 77.5859 64.3223C76.8841 64.3079 76.1536 64.3008 75.3945 64.3008C75.0938 64.3008 74.6068 64.3223 73.9336 64.3652C73.2747 64.3939 72.4297 64.444 71.3984 64.5156C71.3125 64.5156 70.9258 65.0885 70.2383 66.2344C69.7799 66.9935 69.3145 67.8171 68.8418 68.7051C68.3835 69.5931 67.9967 70.4023 67.6816 71.1328C67.3809 71.849 67.2305 72.3503 67.2305 72.6367C67.2305 72.9232 67.3809 73.1667 67.6816 73.3672C67.9967 73.5677 68.3405 73.7181 68.7129 73.8184C69.0996 73.9186 69.3932 73.9688 69.5938 73.9688C69.651 73.9688 69.6797 74.0547 69.6797 74.2266C69.6797 74.556 69.6081 74.8568 69.4648 75.1289C68.1328 75.0573 67.123 75.0072 66.4355 74.9785C65.7624 74.9355 65.4115 74.9141 65.3828 74.9141C65.125 74.9141 64.7025 74.9284 64.1152 74.957C63.528 74.9857 62.9479 75.0143 62.375 75.043C61.8021 75.0859 61.401 75.1146 61.1719 75.1289C61.1146 75.0716 61.0859 74.957 61.0859 74.7852C61.0859 74.2409 61.1862 73.9688 61.3867 73.9688C61.7018 73.9688 62.1387 73.8828 62.6973 73.7109C63.2559 73.5391 63.6497 73.3242 63.8789 73.0664C64.5091 72.3646 65.3828 71.0182 66.5 69.0273L78.3594 47.7148C78.7891 46.9414 79.3477 46.5547 80.0352 46.5547C80.1641 46.5547 80.2786 46.5833 80.3789 46.6406L83.9453 69.3281C84.2318 71.1328 84.4036 72.1641 84.4609 72.4219C84.5182 72.7083 84.7116 72.9733 85.041 73.2168C85.3704 73.446 85.7214 73.6322 86.0938 73.7754C86.4805 73.9043 86.7669 73.9688 86.9531 73.9688C87.0104 73.9688 87.0391 74.0404 87.0391 74.1836C87.0391 74.5417 86.9674 74.8568 86.8242 75.1289C85.4922 75.0573 84.4538 75.0072 83.709 74.9785C82.9642 74.9355 82.513 74.9141 82.3555 74.9141C82.0833 74.9141 81.8184 74.9212 81.5605 74.9355C81.3171 74.9355 81.0736 74.9427 80.8301 74.957C80.3861 74.9857 79.8633 75.0143 79.2617 75.043C78.6745 75.0716 78.1732 75.1003 77.7578 75.1289C77.7292 75.1003 77.7148 75.0143 77.7148 74.8711C77.7148 74.2695 77.8151 73.9688 78.0156 73.9688C78.3021 73.9688 78.7031 73.8828 79.2188 73.7109C79.7344 73.5391 80.0638 73.3385 80.207 73.1094C80.4076 72.6654 80.5078 71.9922 80.5078 71.0898C80.5078 70.6029 80.25 68.4831 79.7344 64.7305ZM75.9531 62.1953C76.612 62.1953 77.2064 62.1882 77.7363 62.1738C78.2806 62.1595 78.7604 62.138 79.1758 62.1094C79.2904 62.1094 79.3477 62.0521 79.3477 61.9375C79.3477 61.7513 79.2546 61.0781 79.0684 59.918C78.9538 59.1159 78.8177 58.2064 78.6602 57.1895C78.5026 56.1725 78.3522 55.2201 78.209 54.332C78.0801 53.444 77.987 52.7995 77.9297 52.3984C74.4062 58.7721 72.6445 61.9948 72.6445 62.0664C72.6445 62.1237 72.6589 62.1523 72.6875 62.1523C73.0169 62.1667 73.4538 62.181 73.998 62.1953C74.5423 62.1953 75.194 62.1953 75.9531 62.1953ZM95.6328 56.3086C96.0911 56.3086 96.4492 56.5163 96.707 56.9316C96.9648 57.347 97.0938 57.8841 97.0938 58.543C97.0938 59.1732 97.0078 59.9323 96.8359 60.8203L96.0625 64.7734C96.3346 64.2865 96.9577 63.3984 97.9316 62.1094C98.5762 61.2643 99.321 60.3978 100.166 59.5098C101.025 58.6074 101.87 57.8483 102.701 57.2324C103.546 56.6165 104.255 56.3086 104.828 56.3086C106.26 56.3086 106.977 57.2539 106.977 59.1445C106.977 60.4766 106.776 62.0378 106.375 63.8281L104.957 70.4453C104.871 70.7891 104.828 71.1471 104.828 71.5195C104.828 72.2357 104.971 72.5938 105.258 72.5938C105.616 72.5938 106.046 72.3431 106.547 71.8418C107.048 71.3262 107.478 70.8893 107.836 70.5312L108.094 70.2305C108.151 70.2305 108.258 70.3665 108.416 70.6387C108.574 70.9108 108.652 71.1042 108.652 71.2188C108.409 71.6341 107.965 72.1641 107.32 72.8086C106.69 73.4531 106.003 74.026 105.258 74.5273C104.513 75.0143 103.84 75.2578 103.238 75.2578C102.78 75.2578 102.422 75.0501 102.164 74.6348C101.906 74.2194 101.777 73.6823 101.777 73.0234C101.777 72.5938 101.878 71.8346 102.078 70.7461L103.582 63.6562C103.783 62.6823 103.883 61.9089 103.883 61.3359C103.883 60.1042 103.611 59.4883 103.066 59.4883C102.594 59.4883 101.956 59.8464 101.154 60.5625C100.352 61.2643 99.5143 62.2025 98.6406 63.377C97.7812 64.5514 97.0007 65.862 96.2988 67.3086C95.597 68.7409 95.1029 70.1875 94.8164 71.6484L94.0859 75C93.6992 75.1146 93.2552 75.1719 92.7539 75.1719C92.2669 75.1719 91.7799 75.1146 91.293 75L93.8281 61.7656C93.9714 60.7773 94.043 60.2044 94.043 60.0469C94.043 59.3307 93.8997 58.9727 93.6133 58.9727C93.3698 58.9727 93.0046 59.2018 92.5176 59.6602C92.2884 59.8893 92.0378 60.14 91.7656 60.4121C91.5078 60.6842 91.3359 60.8776 91.25 60.9922C91.1927 60.9922 91.0853 60.8561 90.9277 60.584C90.7702 60.3118 90.6914 60.1185 90.6914 60.0039C90.9206 59.6172 91.3359 59.1374 91.9375 58.5645C92.5391 57.9772 93.1836 57.4544 93.8711 56.9961C94.5586 56.5378 95.1458 56.3086 95.6328 56.3086ZM122.273 56.3086C123.534 56.3086 124.486 56.8672 125.131 57.9844C125.775 59.1016 126.098 60.4193 126.098 61.9375C126.098 63.7708 125.79 65.4896 125.174 67.0938C124.572 68.6979 123.763 70.1159 122.746 71.3477C121.729 72.5651 120.605 73.5247 119.373 74.2266C118.156 74.9141 116.931 75.2578 115.699 75.2578C114.611 75.2578 113.63 74.8496 112.756 74.0332C111.882 73.2168 111.445 72.0495 111.445 70.5312C111.445 70.1016 111.488 69.6289 111.574 69.1133L115.141 50.9805C115.398 49.7917 115.527 49.0326 115.527 48.7031C115.527 48.1589 114.654 47.8867 112.906 47.8867C112.82 47.8867 112.777 47.8008 112.777 47.6289C112.777 47.2852 112.892 46.9987 113.121 46.7695C114.969 46.5977 116.773 46.1966 118.535 45.5664C118.707 45.6523 118.793 45.9245 118.793 46.3828C118.793 46.6979 118.607 47.7721 118.234 49.6055L115.699 61.9805C116.616 60.4622 117.576 59.2448 118.578 58.3281C119.38 57.612 120.068 57.0964 120.641 56.7812C121.214 56.4661 121.758 56.3086 122.273 56.3086ZM121.027 58.6719C120.426 58.6719 119.66 59.209 118.729 60.2832C118.113 60.9993 117.511 61.8229 116.924 62.7539C116.351 63.6849 115.857 64.6374 115.441 65.6113C115.026 66.571 114.74 67.4661 114.582 68.2969C114.267 69.8724 114.31 71.1328 114.711 72.0781C115.112 73.0234 115.814 73.4961 116.816 73.4961C117.891 73.4961 118.915 72.9447 119.889 71.8418C120.848 70.7389 121.593 69.3783 122.123 67.7598C122.653 66.1413 122.918 64.5443 122.918 62.9688C122.918 62.3099 122.882 61.651 122.811 60.9922C122.753 60.3333 122.589 59.7819 122.316 59.3379C122.059 58.8939 121.629 58.6719 121.027 58.6719ZM135.293 47.2422C135.723 47.2422 136.088 47.4141 136.389 47.7578C136.689 48.1016 136.84 48.5026 136.84 48.9609C136.84 49.6484 136.618 50.25 136.174 50.7656C135.73 51.2812 135.178 51.5391 134.52 51.5391C134.061 51.5391 133.703 51.36 133.445 51.002C133.188 50.6439 133.059 50.207 133.059 49.6914C133.059 49.0326 133.273 48.4596 133.703 47.9727C134.133 47.4857 134.663 47.2422 135.293 47.2422ZM134.047 56.3086C134.505 56.3086 134.863 56.5163 135.121 56.9316C135.379 57.347 135.508 57.8841 135.508 58.543C135.508 59.1302 135.422 59.8893 135.25 60.8203L133.359 70.4453C133.273 70.7891 133.23 71.1471 133.23 71.5195C133.23 72.2357 133.374 72.5938 133.66 72.5938C134.018 72.5938 134.448 72.3431 134.949 71.8418C135.451 71.3262 135.88 70.8893 136.238 70.5312L136.496 70.2305C136.553 70.2305 136.661 70.3665 136.818 70.6387C136.976 70.9108 137.055 71.1042 137.055 71.2188C136.811 71.6341 136.367 72.1641 135.723 72.8086C135.092 73.4531 134.405 74.026 133.66 74.5273C132.915 75.0143 132.242 75.2578 131.641 75.2578C131.182 75.2578 130.824 75.0501 130.566 74.6348C130.309 74.2194 130.18 73.6823 130.18 73.0234C130.18 72.5938 130.28 71.8346 130.48 70.7461L132.242 61.7656C132.385 60.9206 132.457 60.3477 132.457 60.0469C132.457 59.3307 132.314 58.9727 132.027 58.9727C131.855 58.9727 131.619 59.0872 131.318 59.3164C131.032 59.5456 130.753 59.8034 130.48 60.0898C130.208 60.362 130.008 60.5768 129.879 60.7344L129.664 60.9922C129.607 60.9922 129.499 60.8561 129.342 60.584C129.184 60.3118 129.105 60.1185 129.105 60.0039C129.335 59.6172 129.75 59.1374 130.352 58.5645C130.953 57.9772 131.598 57.4544 132.285 56.9961C132.973 56.5378 133.56 56.3086 134.047 56.3086ZM146.164 56.3086C147.023 56.3086 147.732 57.0391 148.291 58.5C148.864 59.9896 149.243 61.9017 149.43 64.2363C149.573 65.8118 149.673 67.1439 149.73 68.2324C149.802 69.321 149.845 70.2949 149.859 71.1543C149.888 72.0137 149.902 72.8945 149.902 73.7969C150.647 72.8802 151.406 71.7773 152.18 70.4883C152.953 69.1992 153.605 67.8743 154.135 66.5137C154.665 65.153 154.93 63.8997 154.93 62.7539C154.93 61.0781 154.572 59.5456 153.855 58.1562C154.228 56.9245 154.944 56.3086 156.004 56.3086C157.264 56.3086 157.895 57.4401 157.895 59.7031C157.895 62.8685 156.663 66.485 154.199 70.5527C152.967 72.5866 151.628 74.4772 150.182 76.2246C148.749 77.9863 147.303 79.526 145.842 80.8438C144.381 82.1615 142.999 83.1855 141.695 83.916C140.392 84.6465 139.26 85.0117 138.301 85.0117C137.556 85.0117 136.94 84.8398 136.453 84.4961C135.966 84.1523 135.723 83.737 135.723 83.25C135.723 82.3333 136.052 81.7031 136.711 81.3594C137.341 81.7318 138.301 81.918 139.59 81.918C141.982 81.918 144.044 80.6432 145.777 78.0938C146.436 77.1341 146.766 75.2148 146.766 72.3359C146.766 70.9323 146.73 69.5358 146.658 68.1465C146.587 66.7572 146.458 65.332 146.271 63.8711C146.171 63.0404 146.021 62.2526 145.82 61.5078C145.634 60.763 145.405 60.1543 145.133 59.6816C144.861 59.209 144.546 58.9727 144.188 58.9727C143.93 58.9727 143.543 59.2161 143.027 59.7031C142.512 60.1901 142.111 60.6198 141.824 60.9922C141.767 60.9922 141.66 60.8561 141.502 60.584C141.344 60.3118 141.266 60.1185 141.266 60.0039C141.352 59.7891 141.581 59.4811 141.953 59.0801C142.34 58.679 142.791 58.2637 143.307 57.834C143.822 57.4043 144.338 57.0462 144.854 56.7598C145.369 56.459 145.806 56.3086 146.164 56.3086ZM169.84 56.3086C171.53 56.3086 172.84 56.8958 173.771 58.0703C174.702 59.2448 175.168 60.8633 175.168 62.9258C175.168 64.401 174.882 65.8691 174.309 67.3301C173.736 68.7767 172.984 70.0944 172.053 71.2832C171.122 72.472 170.098 73.4245 168.98 74.1406C167.863 74.8568 166.76 75.2148 165.672 75.2148C163.953 75.2148 162.643 74.6562 161.74 73.5391C160.838 72.4219 160.387 70.832 160.387 68.7695C160.387 67.2799 160.666 65.8047 161.225 64.3438C161.798 62.8685 162.549 61.5293 163.48 60.3262C164.411 59.1087 165.428 58.1348 166.531 57.4043C167.648 56.6738 168.751 56.3086 169.84 56.3086ZM169.324 58.0703C168.608 58.0703 167.913 58.3854 167.24 59.0156C166.567 59.6315 165.958 60.4408 165.414 61.4434C164.87 62.446 164.44 63.5417 164.125 64.7305C163.81 65.9193 163.652 67.0794 163.652 68.2109C163.652 69.8724 163.917 71.1615 164.447 72.0781C164.977 72.9948 165.643 73.4531 166.445 73.4531C167.161 73.4531 167.842 73.1452 168.486 72.5293C169.145 71.8991 169.732 71.0827 170.248 70.0801C170.764 69.0632 171.165 67.9603 171.451 66.7715C171.752 65.5827 171.902 64.4154 171.902 63.2695C171.902 61.5794 171.673 60.2904 171.215 59.4023C170.757 58.5143 170.126 58.0703 169.324 58.0703Z" fill="white"/>
<path d="M0 14.4961C6.30012 20.0984 15.0791 19.1979 30.687 15.1421C32.2497 14.736 33.9168 14.9601 35.3059 15.7832L61.0905 31.063L35.3304 19.6141C33.9205 18.9874 32.3183 18.9353 30.8588 19.4358C12.5496 25.7159 4.73674 24.7283 0 14.4961Z" fill="url(#paint8_radial_692_1432)"/>
<path d="M16.5669 25.8858C22.7094 27.5488 34.4861 19.1752 43.5027 24.2129C35.7991 20.3448 24.9274 34.7378 16.5669 25.8858Z" fill="url(#paint9_radial_692_1432)"/>
<path d="M42.4528 34.1693C40.4746 32.9379 39.8039 31.791 39.5364 30.2054C39.314 28.8871 40.2138 27.6374 41.514 27.3262C46.4064 26.1551 49.6595 27.3172 54.8779 31.063C50.3759 26.3362 46.8249 25.2844 39.6469 25.78C38.7972 25.8387 38.0191 26.2751 37.5081 26.9564L36.1669 28.7446C35.6047 29.4943 35.6307 30.5432 36.2784 31.2205C38.4425 33.4837 39.9798 34.1156 42.4528 34.1693Z" fill="url(#paint10_radial_692_1432)"/>
<path d="M61.0905 28.9921C48.8725 19.5072 53.131 18.6378 60.0551 10.3543C56.6285 8.93238 54.8937 8.83857 52.8071 12.4252C51.2879 8.29387 49.7783 6.42726 45.559 4.14173C43.8524 8.52031 44.6321 10.6991 46.5945 14.4961C42.9378 12.0347 40.7471 11.3823 36.2402 13.4606C46.3046 17.727 45.2926 18.8748 61.0905 28.9921Z" fill="url(#paint11_radial_692_1432)"/>
<path d="M78.6929 22.7441C78.6929 22.1918 79.1406 21.7441 79.6929 21.7441H79.7638C80.3161 21.7441 80.7638 22.1918 80.7638 22.7441V25.9213C80.7638 26.4735 80.3161 26.9213 79.7638 26.9213H74.4803C73.3757 26.9213 72.4803 26.0258 72.4803 24.9213V19.6024C72.4803 18.4978 73.3757 17.6024 74.4803 17.6024H78.7281C80.6137 17.6024 82.4755 18.023 84.178 18.8337V18.8337C85.2965 19.3663 86.1249 20.3629 86.4441 21.5599L88.3399 28.6695C89.2063 31.9182 86.6836 35.0788 83.3237 34.9544L68.0679 34.3894C64.7776 34.2675 62.2002 31.5169 62.2923 28.2256L62.6948 13.8426C62.7856 10.5955 65.4441 8.01038 68.6924 8.01038H83.0387C86.0229 8.01038 88.8896 9.21712 90.915 11.4088C101.807 23.194 109.097 33.3225 115.395 32.2299C115.685 32.1796 115.968 32.3916 115.968 32.686V32.686C115.968 32.9325 115.766 33.1318 115.519 33.1285C109.37 33.045 105.37 32.4313 87.653 13.254C86.5367 12.0456 85.0793 11.1983 83.4735 10.8414L77.8584 9.59364C77.0431 9.41248 76.199 9.4035 75.3801 9.56728L71.091 10.4251C68.2865 10.986 66.2677 13.4485 66.2677 16.3086V27.0984C66.2677 29.8599 68.5063 32.0984 71.2677 32.0984H80.9055C83.1146 32.0984 84.9055 30.3076 84.9055 28.0984V22.6378C84.9055 20.4287 83.1146 18.6378 80.9055 18.6378H76.5512C75.4466 18.6378 74.5512 19.5332 74.5512 20.6378V24.8858C74.5512 25.4381 74.9989 25.8858 75.5512 25.8858H77.6929C78.2452 25.8858 78.6929 25.4381 78.6929 24.8858V22.7441Z" fill="url(#paint12_radial_692_1432)"/>
<path d="M104.412 33.0631C96.4743 29.9513 88.3242 12.4066 78.6929 13.4606C91.6665 19.2326 92.9183 31.4785 104.412 33.0631Z" fill="url(#paint13_radial_692_1432)"/>
<path d="M111.827 30.0276C106.485 21.6827 106.361 16.9143 110.791 8.28346C105.363 9.71409 97.6256 19.5114 111.827 30.0276Z" fill="url(#paint14_radial_692_1432)"/>
<path d="M118.039 10.3543C113.102 14.0549 110.405 23.2793 118.039 32.0984C106.33 25.6888 109.793 12.7713 118.039 0V10.3543Z" fill="url(#paint15_radial_692_1432)"/>
<path d="M236.079 14.4961C229.779 20.0984 221 19.1979 205.392 15.1421C203.829 14.736 202.162 14.9601 200.773 15.7832L174.989 31.063L200.749 19.6141C202.159 18.9874 203.761 18.9353 205.22 19.4358C223.529 25.7159 231.342 24.7283 236.079 14.4961Z" fill="url(#paint16_radial_692_1432)"/>
<path d="M219.512 25.8858C213.37 27.5488 201.593 19.1752 192.576 24.2129C200.28 20.3448 211.152 34.7378 219.512 25.8858Z" fill="url(#paint17_radial_692_1432)"/>
<path d="M193.626 34.1693C195.605 32.9379 196.275 31.791 196.543 30.2054C196.765 28.8871 195.865 27.6374 194.565 27.3262C189.673 26.1551 186.42 27.3172 181.201 31.063C185.703 26.3362 189.254 25.2844 196.432 25.78C197.282 25.8387 198.06 26.2751 198.571 26.9564L199.912 28.7446C200.474 29.4943 200.448 30.5432 199.801 31.2205C197.637 33.4837 196.099 34.1156 193.626 34.1693Z" fill="url(#paint18_radial_692_1432)"/>
<path d="M174.989 28.9921C187.207 19.5072 182.948 18.6378 176.024 10.3543C179.451 8.93238 181.185 8.83857 183.272 12.4252C184.791 8.29387 186.301 6.42726 190.52 4.14173C192.227 8.52031 191.447 10.6991 189.485 14.4961C193.141 12.0347 195.332 11.3823 199.839 13.4606C189.775 17.727 190.787 18.8748 174.989 28.9921Z" fill="url(#paint19_radial_692_1432)"/>
<path d="M157.386 22.7441C157.386 22.1918 156.938 21.7441 156.386 21.7441H156.315C155.763 21.7441 155.315 22.1918 155.315 22.7441V25.9213C155.315 26.4735 155.763 26.9213 156.315 26.9213H161.599C162.703 26.9213 163.599 26.0258 163.599 24.9213V19.6024C163.599 18.4978 162.703 17.6024 161.599 17.6024H157.351C155.465 17.6024 153.604 18.023 151.901 18.8337V18.8337C150.783 19.3663 149.954 20.3629 149.635 21.5599L147.739 28.6695C146.873 31.9182 149.396 35.0788 152.755 34.9544L168.011 34.3894C171.301 34.2675 173.879 31.5169 173.787 28.2256L173.384 13.8426C173.293 10.5955 170.635 8.01038 167.387 8.01038H153.04C150.056 8.01038 147.19 9.21712 145.164 11.4088C134.273 23.194 126.982 33.3225 120.684 32.2299C120.394 32.1796 120.111 32.3916 120.111 32.686V32.686C120.111 32.9325 120.313 33.1318 120.56 33.1285C126.709 33.045 130.709 32.4313 148.426 13.254C149.542 12.0456 151 11.1983 152.606 10.8414L158.221 9.59364C159.036 9.41248 159.88 9.4035 160.699 9.56728L164.988 10.4251C167.793 10.986 169.811 13.4485 169.811 16.3086V27.0984C169.811 29.8599 167.573 32.0984 164.811 32.0984H155.174C152.964 32.0984 151.174 30.3076 151.174 28.0984V22.6378C151.174 20.4287 152.964 18.6378 155.174 18.6378H159.528C160.633 18.6378 161.528 19.5332 161.528 20.6378V24.8858C161.528 25.4381 161.08 25.8858 160.528 25.8858H158.386C157.834 25.8858 157.386 25.4381 157.386 24.8858V22.7441Z" fill="url(#paint20_radial_692_1432)"/>
<path d="M131.667 33.0631C139.605 29.9513 147.755 12.4066 157.386 13.4606C144.413 19.2326 143.161 31.4785 131.667 33.0631Z" fill="url(#paint21_radial_692_1432)"/>
<path d="M124.252 30.0276C129.594 21.6827 129.718 16.9143 125.288 8.28346C130.716 9.71409 138.454 19.5114 124.252 30.0276Z" fill="url(#paint22_radial_692_1432)"/>
<path d="M118.04 10.3543C122.977 14.0549 125.674 23.2793 118.04 32.0984C129.75 25.6888 126.286 12.7713 118.04 0V10.3543Z" fill="url(#paint23_radial_692_1432)"/>
<defs>
<radialGradient id="paint0_radial_692_1432" cx="0" cy="0" r="1" gradientUnits="userSpaceOnUse" gradientTransform="translate(79.728 111.309) scale(38.311 20.1909)">
<stop stop-color="#E1E1E1"/>
<stop offset="1" stop-color="#FFF4DA"/>
</radialGradient>
<radialGradient id="paint1_radial_692_1432" cx="0" cy="0" r="1" gradientUnits="userSpaceOnUse" gradientTransform="translate(79.728 111.309) scale(38.311 20.1909)">
<stop stop-color="#E1E1E1"/>
<stop offset="1" stop-color="#FFF4DA"/>
</radialGradient>
<radialGradient id="paint2_radial_692_1432" cx="0" cy="0" r="1" gradientUnits="userSpaceOnUse" gradientTransform="translate(79.728 111.309) scale(38.311 20.1909)">
<stop stop-color="#E1E1E1"/>
<stop offset="1" stop-color="#FFF4DA"/>
</radialGradient>
<radialGradient id="paint3_radial_692_1432" cx="0" cy="0" r="1" gradientUnits="userSpaceOnUse" gradientTransform="translate(79.728 111.309) scale(38.311 20.1909)">
<stop stop-color="#E1E1E1"/>
<stop offset="1" stop-color="#FFF4DA"/>
</radialGradient>
<radialGradient id="paint4_radial_692_1432" cx="0" cy="0" r="1" gradientUnits="userSpaceOnUse" gradientTransform="translate(156.35 111.309) rotate(180) scale(38.311 20.1909)">
<stop stop-color="#E1E1E1"/>
<stop offset="1" stop-color="#FFF4DA"/>
</radialGradient>
<radialGradient id="paint5_radial_692_1432" cx="0" cy="0" r="1" gradientUnits="userSpaceOnUse" gradientTransform="translate(156.35 111.309) rotate(180) scale(38.311 20.1909)">
<stop stop-color="#E1E1E1"/>
<stop offset="1" stop-color="#FFF4DA"/>
</radialGradient>
<radialGradient id="paint6_radial_692_1432" cx="0" cy="0" r="1" gradientUnits="userSpaceOnUse" gradientTransform="translate(156.35 111.309) rotate(180) scale(38.311 20.1909)">
<stop stop-color="#E1E1E1"/>
<stop offset="1" stop-color="#FFF4DA"/>
</radialGradient>
<radialGradient id="paint7_radial_692_1432" cx="0" cy="0" r="1" gradientUnits="userSpaceOnUse" gradientTransform="translate(156.35 111.309) rotate(180) scale(38.311 20.1909)">
<stop stop-color="#E1E1E1"/>
<stop offset="1" stop-color="#FFF4DA"/>
</radialGradient>
<radialGradient id="paint8_radial_692_1432" cx="0" cy="0" r="1" gradientUnits="userSpaceOnUse" gradientTransform="translate(59.0197 17.6024) scale(59.0197 17.6024)">
<stop stop-color="#E1E1E1"/>
<stop offset="1" stop-color="#FFF4DA"/>
</radialGradient>
<radialGradient id="paint9_radial_692_1432" cx="0" cy="0" r="1" gradientUnits="userSpaceOnUse" gradientTransform="translate(59.0197 17.6024) scale(59.0197 17.6024)">
<stop stop-color="#E1E1E1"/>
<stop offset="1" stop-color="#FFF4DA"/>
</radialGradient>
<radialGradient id="paint10_radial_692_1432" cx="0" cy="0" r="1" gradientUnits="userSpaceOnUse" gradientTransform="translate(59.0197 17.6024) scale(59.0197 17.6024)">
<stop stop-color="#E1E1E1"/>
<stop offset="1" stop-color="#FFF4DA"/>
</radialGradient>
<radialGradient id="paint11_radial_692_1432" cx="0" cy="0" r="1" gradientUnits="userSpaceOnUse" gradientTransform="translate(59.0197 17.6024) scale(59.0197 17.6024)">
<stop stop-color="#E1E1E1"/>
<stop offset="1" stop-color="#FFF4DA"/>
</radialGradient>
<radialGradient id="paint12_radial_692_1432" cx="0" cy="0" r="1" gradientUnits="userSpaceOnUse" gradientTransform="translate(59.0197 17.6024) scale(59.0197 17.6024)">
<stop stop-color="#E1E1E1"/>
<stop offset="1" stop-color="#FFF4DA"/>
</radialGradient>
<radialGradient id="paint13_radial_692_1432" cx="0" cy="0" r="1" gradientUnits="userSpaceOnUse" gradientTransform="translate(59.0197 17.6024) scale(59.0197 17.6024)">
<stop stop-color="#E1E1E1"/>
<stop offset="1" stop-color="#FFF4DA"/>
</radialGradient>
<radialGradient id="paint14_radial_692_1432" cx="0" cy="0" r="1" gradientUnits="userSpaceOnUse" gradientTransform="translate(59.0197 17.6024) scale(59.0197 17.6024)">
<stop stop-color="#E1E1E1"/>
<stop offset="1" stop-color="#FFF4DA"/>
</radialGradient>
<radialGradient id="paint15_radial_692_1432" cx="0" cy="0" r="1" gradientUnits="userSpaceOnUse" gradientTransform="translate(59.0197 17.6024) scale(59.0197 17.6024)">
<stop stop-color="#E1E1E1"/>
<stop offset="1" stop-color="#FFF4DA"/>
</radialGradient>
<radialGradient id="paint16_radial_692_1432" cx="0" cy="0" r="1" gradientUnits="userSpaceOnUse" gradientTransform="translate(177.059 17.6024) rotate(180) scale(59.0197 17.6024)">
<stop stop-color="#E1E1E1"/>
<stop offset="1" stop-color="#FFF4DA"/>
</radialGradient>
<radialGradient id="paint17_radial_692_1432" cx="0" cy="0" r="1" gradientUnits="userSpaceOnUse" gradientTransform="translate(177.059 17.6024) rotate(180) scale(59.0197 17.6024)">
<stop stop-color="#E1E1E1"/>
<stop offset="1" stop-color="#FFF4DA"/>
</radialGradient>
<radialGradient id="paint18_radial_692_1432" cx="0" cy="0" r="1" gradientUnits="userSpaceOnUse" gradientTransform="translate(177.059 17.6024) rotate(180) scale(59.0197 17.6024)">
<stop stop-color="#E1E1E1"/>
<stop offset="1" stop-color="#FFF4DA"/>
</radialGradient>
<radialGradient id="paint19_radial_692_1432" cx="0" cy="0" r="1" gradientUnits="userSpaceOnUse" gradientTransform="translate(177.059 17.6024) rotate(180) scale(59.0197 17.6024)">
<stop stop-color="#E1E1E1"/>
<stop offset="1" stop-color="#FFF4DA"/>
</radialGradient>
<radialGradient id="paint20_radial_692_1432" cx="0" cy="0" r="1" gradientUnits="userSpaceOnUse" gradientTransform="translate(177.059 17.6024) rotate(180) scale(59.0197 17.6024)">
<stop stop-color="#E1E1E1"/>
<stop offset="1" stop-color="#FFF4DA"/>
</radialGradient>
<radialGradient id="paint21_radial_692_1432" cx="0" cy="0" r="1" gradientUnits="userSpaceOnUse" gradientTransform="translate(177.059 17.6024) rotate(180) scale(59.0197 17.6024)">
<stop stop-color="#E1E1E1"/>
<stop offset="1" stop-color="#FFF4DA"/>
</radialGradient>
<radialGradient id="paint22_radial_692_1432" cx="0" cy="0" r="1" gradientUnits="userSpaceOnUse" gradientTransform="translate(177.059 17.6024) rotate(180) scale(59.0197 17.6024)">
<stop stop-color="#E1E1E1"/>
<stop offset="1" stop-color="#FFF4DA"/>
</radialGradient>
<radialGradient id="paint23_radial_692_1432" cx="0" cy="0" r="1" gradientUnits="userSpaceOnUse" gradientTransform="translate(177.059 17.6024) rotate(180) scale(59.0197 17.6024)">
<stop stop-color="#E1E1E1"/>
<stop offset="1" stop-color="#FFF4DA"/>
</radialGradient>
</defs>
</svg>
