<svg width="237" height="132" viewBox="0 0 237 132" fill="none" xmlns="http://www.w3.org/2000/svg">
<path d="M50.7125 108.06C49.3889 108.487 47.9214 108.504 46.7169 107.809C44.5794 106.575 44.1412 105.154 44.5234 102.508V102.508C42.8798 103.056 42.063 104.953 43.0339 106.388C43.9977 107.812 45.0937 108.974 46.6267 110.246C47.9171 111.316 49.5696 111.855 51.2458 111.812C56.4406 111.679 59.0349 110.851 62.1257 108.72C61.1051 110.641 61.1618 111.76 61.9885 113.6C62.0605 113.76 62.2568 113.822 62.4077 113.731C64.0825 112.73 65.0039 111.892 66.2674 109.756C66.2154 114.032 66.9843 113.977 70.4091 114.933C67.5194 110.86 68.0525 109.221 70.1981 106.254C70.9958 105.151 72.1259 104.331 73.4053 103.866L78.5776 101.985C81.3342 100.982 84.3487 100.942 87.1313 101.869L104.173 107.55C104.307 107.435 104.442 107.326 104.578 107.223V104.508C104.578 103.403 105.474 102.508 106.578 102.508H108.791C109.896 102.508 110.791 103.403 110.791 104.508V105.614H111.826V103.472C111.826 102.368 110.931 101.472 109.826 101.472H105.543C104.438 101.472 103.543 102.368 103.543 103.472V106.65C98.7736 103.748 93.5321 101.584 86.7257 99.7769C82.8456 98.747 78.7534 99.0145 74.9328 100.247L50.7125 108.06Z" fill="url(#paint0_radial_692_222)"/>
<path fill-rule="evenodd" clip-rule="evenodd" d="M118.039 111.827V108.721C115.458 105.74 114.163 105.799 111.826 105.614H110.791C108.063 105.589 106.222 105.979 104.578 107.223V107.685L104.173 107.55C103.27 108.327 102.409 109.382 101.472 110.791C94.4225 108.167 92.2419 105.859 84.6304 104.117C82.7927 103.696 80.8379 103.854 79.1733 104.739C77.1406 105.82 75.7478 107.075 74.4004 109.235C73.7976 110.201 73.7049 111.42 74.2146 112.438C75.0495 114.107 76.2498 115.417 79.1376 117.128C80.1186 117.709 81.3505 117.62 82.2784 116.957L86.28 114.099C87.2184 113.429 87.4128 112.09 86.6211 111.251C84.8302 109.354 83.7227 109.09 81.7989 109.756C83.0242 110.067 83.7473 110.456 84.396 111.688C84.7596 112.378 84.5518 113.216 84 113.767L82.2754 115.492C81.3706 116.397 79.9663 116.664 78.9055 115.948C77.3915 114.927 76.4781 113.802 75.4876 112.283C74.8937 111.372 74.8539 110.185 75.48 109.296C77.188 106.871 79.0763 106.022 82.8343 105.614C87.5138 105.758 93.9734 109.592 101.472 112.862C101.61 115.305 101.827 117.608 105.43 119.531C106.15 119.915 107.027 119.733 107.604 119.156L110.252 116.508C110.55 116.21 110.55 115.727 110.252 115.429V115.429C109.971 115.149 109.521 115.134 109.21 115.381C104.882 118.812 103.349 117.017 102.508 112.862C108.784 113.743 111.6 112.063 112.862 106.65H114.933L118.039 111.827ZM102.508 111.827C105.324 107.593 107.416 106.549 111.826 106.65C109.581 111.782 107.623 113.001 102.508 111.827Z" fill="url(#paint1_radial_692_222)"/>
<path d="M118.039 114.933V111.827C116.112 115.763 116.189 118.074 110.791 119.075C111.96 121.038 112.806 121.636 114.933 121.146C115.324 125.201 115.717 127.472 118.039 131.5V125.287C116.703 121.107 116.952 118.865 118.039 114.933Z" fill="url(#paint2_radial_692_222)"/>
<path d="M115.968 98.3662C116.06 94.792 116.696 93.3936 118.039 91.1182V105.614C115.722 100.811 114.342 99.4138 111.826 99.4015C113.364 97.8121 114.276 97.3638 115.968 98.3662Z" fill="url(#paint3_radial_692_222)"/>
<path d="M185.366 108.06C186.689 108.487 188.157 108.504 189.361 107.809C191.499 106.575 191.937 105.154 191.555 102.508V102.508C193.198 103.056 194.015 104.953 193.044 106.388C192.08 107.812 190.984 108.974 189.451 110.246C188.161 111.316 186.509 111.855 184.832 111.812C179.637 111.679 177.043 110.851 173.952 108.72C174.973 110.641 174.916 111.76 174.09 113.6C174.018 113.76 173.821 113.822 173.67 113.731C171.996 112.73 171.074 111.892 169.811 109.756C169.863 114.032 169.094 113.977 165.669 114.933C168.559 110.86 168.026 109.221 165.88 106.254C165.082 105.151 163.952 104.331 162.673 103.866L157.5 101.985C154.744 100.982 151.729 100.942 148.947 101.869L131.905 107.55C131.771 107.435 131.636 107.326 131.5 107.223V104.508C131.5 103.403 130.604 102.508 129.5 102.508H127.287C126.183 102.508 125.287 103.403 125.287 104.508V105.614H124.252V103.472C124.252 102.368 125.147 101.472 126.252 101.472H130.535C131.64 101.472 132.535 102.368 132.535 103.472V106.65C137.304 103.748 142.546 101.584 149.352 99.7769C153.232 98.747 157.325 99.0145 161.145 100.247L185.366 108.06Z" fill="url(#paint4_radial_692_222)"/>
<path fill-rule="evenodd" clip-rule="evenodd" d="M118.039 111.827V108.721C120.62 105.74 121.915 105.799 124.252 105.614H125.287C128.015 105.589 129.856 105.979 131.5 107.223V107.685L131.905 107.55C132.808 108.327 133.669 109.382 134.606 110.791C141.656 108.167 143.836 105.859 151.448 104.117C153.285 103.696 155.24 103.854 156.905 104.739C158.938 105.82 160.33 107.075 161.678 109.235C162.281 110.201 162.373 111.42 161.863 112.438C161.029 114.107 159.828 115.417 156.941 117.128C155.96 117.709 154.728 117.62 153.8 116.957L149.798 114.099C148.86 113.429 148.665 112.09 149.457 111.251C151.248 109.354 152.355 109.09 154.279 109.756C153.054 110.067 152.331 110.456 151.682 111.688C151.319 112.378 151.526 113.216 152.078 113.767L153.803 115.492C154.708 116.397 156.112 116.664 157.173 115.948C158.687 114.927 159.6 113.802 160.591 112.283C161.184 111.372 161.224 110.185 160.598 109.296C158.89 106.871 157.002 106.022 153.244 105.614C148.564 105.758 142.105 109.592 134.606 112.862C134.468 115.305 134.251 117.608 130.648 119.531C129.928 119.915 129.051 119.733 128.474 119.156L125.826 116.508C125.528 116.21 125.528 115.727 125.826 115.429V115.429C126.107 115.149 126.557 115.134 126.868 115.381C131.196 118.812 132.729 117.017 133.571 112.862C127.294 113.743 124.478 112.063 123.216 106.65H121.145L118.039 111.827ZM133.571 111.827C130.754 107.593 128.662 106.549 124.252 106.65C126.497 111.782 128.455 113.001 133.571 111.827Z" fill="url(#paint5_radial_692_222)"/>
<path d="M118.039 114.933V111.827C119.967 115.763 119.889 118.074 125.287 119.075C124.119 121.038 123.273 121.636 121.145 121.146C120.754 125.201 120.361 127.472 118.039 131.5V125.287C119.375 121.107 119.126 118.865 118.039 114.933Z" fill="url(#paint6_radial_692_222)"/>
<path d="M120.11 98.3662C120.019 94.792 119.382 93.3936 118.039 91.1182V105.614C120.356 100.811 121.736 99.4138 124.252 99.4015C122.714 97.8121 121.802 97.3638 120.11 98.3662Z" fill="url(#paint7_radial_692_222)"/>
<path d="M84.7344 64.7305C84.7344 64.5586 84.5553 64.4512 84.1973 64.4082C83.8392 64.3652 83.3021 64.3366 82.5859 64.3223C81.8841 64.3079 81.1536 64.3008 80.3945 64.3008C80.0938 64.3008 79.6068 64.3223 78.9336 64.3652C78.2747 64.3939 77.4297 64.444 76.3984 64.5156C76.3125 64.5156 75.9258 65.0885 75.2383 66.2344C74.7799 66.9935 74.3145 67.8171 73.8418 68.7051C73.3835 69.5931 72.9967 70.4023 72.6816 71.1328C72.3809 71.849 72.2305 72.3503 72.2305 72.6367C72.2305 72.9232 72.3809 73.1667 72.6816 73.3672C72.9967 73.5677 73.3405 73.7181 73.7129 73.8184C74.0996 73.9186 74.3932 73.9688 74.5938 73.9688C74.651 73.9688 74.6797 74.0547 74.6797 74.2266C74.6797 74.556 74.6081 74.8568 74.4648 75.1289C73.1328 75.0573 72.123 75.0072 71.4355 74.9785C70.7624 74.9355 70.4115 74.9141 70.3828 74.9141C70.125 74.9141 69.7025 74.9284 69.1152 74.957C68.528 74.9857 67.9479 75.0143 67.375 75.043C66.8021 75.0859 66.401 75.1146 66.1719 75.1289C66.1146 75.0716 66.0859 74.957 66.0859 74.7852C66.0859 74.2409 66.1862 73.9688 66.3867 73.9688C66.7018 73.9688 67.1387 73.8828 67.6973 73.7109C68.2559 73.5391 68.6497 73.3242 68.8789 73.0664C69.5091 72.3646 70.3828 71.0182 71.5 69.0273L83.3594 47.7148C83.7891 46.9414 84.3477 46.5547 85.0352 46.5547C85.1641 46.5547 85.2786 46.5833 85.3789 46.6406L88.9453 69.3281C89.2318 71.1328 89.4036 72.1641 89.4609 72.4219C89.5182 72.7083 89.7116 72.9733 90.041 73.2168C90.3704 73.446 90.7214 73.6322 91.0938 73.7754C91.4805 73.9043 91.7669 73.9688 91.9531 73.9688C92.0104 73.9688 92.0391 74.0404 92.0391 74.1836C92.0391 74.5417 91.9674 74.8568 91.8242 75.1289C90.4922 75.0573 89.4538 75.0072 88.709 74.9785C87.9642 74.9355 87.513 74.9141 87.3555 74.9141C87.0833 74.9141 86.8184 74.9212 86.5605 74.9355C86.3171 74.9355 86.0736 74.9427 85.8301 74.957C85.3861 74.9857 84.8633 75.0143 84.2617 75.043C83.6745 75.0716 83.1732 75.1003 82.7578 75.1289C82.7292 75.1003 82.7148 75.0143 82.7148 74.8711C82.7148 74.2695 82.8151 73.9688 83.0156 73.9688C83.3021 73.9688 83.7031 73.8828 84.2188 73.7109C84.7344 73.5391 85.0638 73.3385 85.207 73.1094C85.4076 72.6654 85.5078 71.9922 85.5078 71.0898C85.5078 70.6029 85.25 68.4831 84.7344 64.7305ZM80.9531 62.1953C81.612 62.1953 82.2064 62.1882 82.7363 62.1738C83.2806 62.1595 83.7604 62.138 84.1758 62.1094C84.2904 62.1094 84.3477 62.0521 84.3477 61.9375C84.3477 61.7513 84.2546 61.0781 84.0684 59.918C83.9538 59.1159 83.8177 58.2064 83.6602 57.1895C83.5026 56.1725 83.3522 55.2201 83.209 54.332C83.0801 53.444 82.987 52.7995 82.9297 52.3984C79.4062 58.7721 77.6445 61.9948 77.6445 62.0664C77.6445 62.1237 77.6589 62.1523 77.6875 62.1523C78.0169 62.1667 78.4538 62.181 78.998 62.1953C79.5423 62.1953 80.194 62.1953 80.9531 62.1953ZM100.633 56.3086C101.091 56.3086 101.449 56.5163 101.707 56.9316C101.965 57.347 102.094 57.8841 102.094 58.543C102.094 59.1732 102.008 59.9323 101.836 60.8203L101.062 64.7734C101.335 64.2865 101.958 63.3984 102.932 62.1094C103.576 61.2643 104.321 60.3978 105.166 59.5098C106.025 58.6074 106.87 57.8483 107.701 57.2324C108.546 56.6165 109.255 56.3086 109.828 56.3086C111.26 56.3086 111.977 57.2539 111.977 59.1445C111.977 60.4766 111.776 62.0378 111.375 63.8281L109.957 70.4453C109.871 70.7891 109.828 71.1471 109.828 71.5195C109.828 72.2357 109.971 72.5938 110.258 72.5938C110.616 72.5938 111.046 72.3431 111.547 71.8418C112.048 71.3262 112.478 70.8893 112.836 70.5312L113.094 70.2305C113.151 70.2305 113.258 70.3665 113.416 70.6387C113.574 70.9108 113.652 71.1042 113.652 71.2188C113.409 71.6341 112.965 72.1641 112.32 72.8086C111.69 73.4531 111.003 74.026 110.258 74.5273C109.513 75.0143 108.84 75.2578 108.238 75.2578C107.78 75.2578 107.422 75.0501 107.164 74.6348C106.906 74.2194 106.777 73.6823 106.777 73.0234C106.777 72.5938 106.878 71.8346 107.078 70.7461L108.582 63.6562C108.783 62.6823 108.883 61.9089 108.883 61.3359C108.883 60.1042 108.611 59.4883 108.066 59.4883C107.594 59.4883 106.956 59.8464 106.154 60.5625C105.352 61.2643 104.514 62.2025 103.641 63.377C102.781 64.5514 102.001 65.862 101.299 67.3086C100.597 68.7409 100.103 70.1875 99.8164 71.6484L99.0859 75C98.6992 75.1146 98.2552 75.1719 97.7539 75.1719C97.2669 75.1719 96.7799 75.1146 96.293 75L98.8281 61.7656C98.9714 60.7773 99.043 60.2044 99.043 60.0469C99.043 59.3307 98.8997 58.9727 98.6133 58.9727C98.3698 58.9727 98.0046 59.2018 97.5176 59.6602C97.2884 59.8893 97.0378 60.14 96.7656 60.4121C96.5078 60.6842 96.3359 60.8776 96.25 60.9922C96.1927 60.9922 96.0853 60.8561 95.9277 60.584C95.7702 60.3118 95.6914 60.1185 95.6914 60.0039C95.9206 59.6172 96.3359 59.1374 96.9375 58.5645C97.5391 57.9772 98.1836 57.4544 98.8711 56.9961C99.5586 56.5378 100.146 56.3086 100.633 56.3086ZM120.352 44.068C120.088 45.0947 119.75 46.2093 119.34 47.412C118.929 48.6147 118.474 49.8173 117.976 51.02C117.506 52.1933 117.037 53.308 116.568 54.364H113.708C113.913 53.5427 114.118 52.6627 114.324 51.724C114.558 50.7853 114.764 49.8467 114.94 48.908C115.145 47.94 115.321 47.0013 115.468 46.092C115.644 45.1827 115.79 44.3467 115.908 43.584H120.044L120.352 44.068ZM133.246 56.3086C134.936 56.3086 136.247 56.8958 137.178 58.0703C138.109 59.2448 138.574 60.8633 138.574 62.9258C138.574 64.401 138.288 65.8691 137.715 67.3301C137.142 68.7767 136.39 70.0944 135.459 71.2832C134.528 72.472 133.504 73.4245 132.387 74.1406C131.27 74.8568 130.167 75.2148 129.078 75.2148C127.359 75.2148 126.049 74.6562 125.146 73.5391C124.244 72.4219 123.793 70.832 123.793 68.7695C123.793 67.2799 124.072 65.8047 124.631 64.3438C125.204 62.8685 125.956 61.5293 126.887 60.3262C127.818 59.1087 128.835 58.1348 129.938 57.4043C131.055 56.6738 132.158 56.3086 133.246 56.3086ZM132.73 58.0703C132.014 58.0703 131.32 58.3854 130.646 59.0156C129.973 59.6315 129.365 60.4408 128.82 61.4434C128.276 62.446 127.846 63.5417 127.531 64.7305C127.216 65.9193 127.059 67.0794 127.059 68.2109C127.059 69.8724 127.324 71.1615 127.854 72.0781C128.383 72.9948 129.049 73.4531 129.852 73.4531C130.568 73.4531 131.248 73.1452 131.893 72.5293C132.551 71.8991 133.139 71.0827 133.654 70.0801C134.17 69.0632 134.571 67.9603 134.857 66.7715C135.158 65.5827 135.309 64.4154 135.309 63.2695C135.309 61.5794 135.079 60.2904 134.621 59.4023C134.163 58.5143 133.533 58.0703 132.73 58.0703ZM155.547 56.3086C156.32 56.3086 156.915 56.5378 157.33 56.9961C157.745 57.4544 157.996 57.9342 158.082 58.4355C158.168 58.9368 158.211 59.5885 158.211 60.3906C158.211 60.9206 158.01 62.1953 157.609 64.2148C158.082 63.3984 158.669 62.5319 159.371 61.6152C160.073 60.6986 160.811 59.8392 161.584 59.0371C162.357 58.235 163.102 57.5833 163.818 57.082C164.535 56.5664 165.143 56.3086 165.645 56.3086C166.59 56.3086 167.234 56.5449 167.578 57.0176C167.922 57.4902 168.094 58.1992 168.094 59.1445C168.094 60.4766 167.893 62.0378 167.492 63.8281L166.074 70.4453C165.988 70.7891 165.945 71.1471 165.945 71.5195C165.945 72.2357 166.089 72.5938 166.375 72.5938C166.733 72.5938 167.163 72.3431 167.664 71.8418C168.165 71.3262 168.595 70.8893 168.953 70.5312L169.211 70.2305C169.268 70.2305 169.376 70.3665 169.533 70.6387C169.691 70.9108 169.77 71.1042 169.77 71.2188C169.526 71.6341 169.082 72.1641 168.438 72.8086C167.807 73.4531 167.12 74.026 166.375 74.5273C165.63 75.0143 164.957 75.2578 164.355 75.2578C163.897 75.2578 163.539 75.0501 163.281 74.6348C163.023 74.2194 162.895 73.6823 162.895 73.0234C162.895 72.5938 162.995 71.8346 163.195 70.7461L164.699 63.6562C164.9 62.6823 165 61.9089 165 61.3359C165 60.8346 164.957 60.4049 164.871 60.0469C164.799 59.6745 164.57 59.4883 164.184 59.4883C163.697 59.4883 163.059 59.832 162.271 60.5195C161.498 61.207 160.696 62.1165 159.865 63.248C159.035 64.3652 158.29 65.597 157.631 66.9434C156.972 68.2754 156.521 69.6003 156.277 70.918L155.504 75H152.625L155.031 62.7969C155.146 62.1523 155.203 61.6081 155.203 61.1641C155.203 60.0469 154.917 59.4883 154.344 59.4883C153.842 59.4883 153.205 59.8678 152.432 60.627C151.658 61.3861 150.863 62.3672 150.047 63.5703C149.23 64.7734 148.5 66.0553 147.855 67.416C147.211 68.7624 146.767 70.0299 146.523 71.2188L145.75 75C144.948 75.1146 144.461 75.1719 144.289 75.1719C144.146 75.1719 143.673 75.1146 142.871 75L145.449 61.7656C145.592 60.7773 145.664 60.2044 145.664 60.0469C145.664 59.3307 145.521 58.9727 145.234 58.9727C144.991 58.9727 144.626 59.2018 144.139 59.6602C143.91 59.8893 143.659 60.14 143.387 60.4121C143.129 60.6842 142.957 60.8776 142.871 60.9922C142.814 60.9922 142.706 60.8561 142.549 60.584C142.391 60.3118 142.312 60.1185 142.312 60.0039C142.542 59.6172 142.957 59.1374 143.559 58.5645C144.16 57.9772 144.805 57.4544 145.492 56.9961C146.18 56.5378 146.767 56.3086 147.254 56.3086C147.712 56.3086 148.07 56.5163 148.328 56.9316C148.586 57.347 148.715 57.8841 148.715 58.543C148.715 59.1732 148.629 59.9323 148.457 60.8203L147.684 64.8164C148.214 63.8997 148.822 62.9473 149.51 61.959C150.212 60.9707 150.928 60.0469 151.658 59.1875C152.403 58.3281 153.112 57.6335 153.785 57.1035C154.458 56.5736 155.046 56.3086 155.547 56.3086Z" fill="white"/>
<path d="M0 14.4961C6.30012 20.0984 15.0791 19.1979 30.687 15.1421C32.2497 14.736 33.9168 14.9601 35.3059 15.7832L61.0905 31.063L35.3304 19.6141C33.9205 18.9874 32.3183 18.9353 30.8588 19.4358C12.5496 25.7159 4.73674 24.7283 0 14.4961Z" fill="url(#paint8_radial_692_222)"/>
<path d="M16.5669 25.8858C22.7094 27.5488 34.4861 19.1752 43.5027 24.2129C35.7991 20.3448 24.9274 34.7378 16.5669 25.8858Z" fill="url(#paint9_radial_692_222)"/>
<path d="M42.4528 34.1693C40.4746 32.9379 39.8039 31.791 39.5364 30.2054C39.314 28.8871 40.2138 27.6374 41.514 27.3262C46.4064 26.1551 49.6595 27.3172 54.8779 31.063C50.3759 26.3362 46.8249 25.2844 39.6469 25.78C38.7972 25.8387 38.0191 26.2751 37.5081 26.9564L36.1669 28.7446C35.6047 29.4943 35.6307 30.5432 36.2784 31.2205C38.4425 33.4837 39.9798 34.1156 42.4528 34.1693Z" fill="url(#paint10_radial_692_222)"/>
<path d="M61.0905 28.9921C48.8725 19.5072 53.131 18.6378 60.0551 10.3543C56.6285 8.93238 54.8937 8.83857 52.8071 12.4252C51.2879 8.29387 49.7783 6.42726 45.559 4.14173C43.8524 8.52031 44.6321 10.6991 46.5945 14.4961C42.9378 12.0347 40.7471 11.3823 36.2402 13.4606C46.3046 17.727 45.2926 18.8748 61.0905 28.9921Z" fill="url(#paint11_radial_692_222)"/>
<path d="M78.6929 22.7441C78.6929 22.1918 79.1406 21.7441 79.6929 21.7441H79.7638C80.3161 21.7441 80.7638 22.1918 80.7638 22.7441V25.9213C80.7638 26.4735 80.3161 26.9213 79.7638 26.9213H74.4803C73.3757 26.9213 72.4803 26.0258 72.4803 24.9213V19.6024C72.4803 18.4978 73.3757 17.6024 74.4803 17.6024H78.7281C80.6137 17.6024 82.4755 18.023 84.178 18.8337V18.8337C85.2965 19.3663 86.1249 20.3629 86.4441 21.5599L88.3399 28.6695C89.2063 31.9182 86.6836 35.0788 83.3237 34.9544L68.0679 34.3894C64.7776 34.2675 62.2002 31.5169 62.2923 28.2256L62.6948 13.8426C62.7856 10.5955 65.4441 8.01038 68.6924 8.01038H83.0387C86.0229 8.01038 88.8896 9.21712 90.915 11.4088C101.807 23.194 109.097 33.3225 115.395 32.2299C115.685 32.1796 115.968 32.3916 115.968 32.686V32.686C115.968 32.9325 115.766 33.1318 115.519 33.1285C109.37 33.045 105.37 32.4313 87.653 13.254C86.5367 12.0456 85.0793 11.1983 83.4735 10.8414L77.8584 9.59364C77.0431 9.41248 76.199 9.4035 75.3801 9.56728L71.091 10.4251C68.2865 10.986 66.2677 13.4485 66.2677 16.3086V27.0984C66.2677 29.8599 68.5063 32.0984 71.2677 32.0984H80.9055C83.1146 32.0984 84.9055 30.3076 84.9055 28.0984V22.6378C84.9055 20.4287 83.1146 18.6378 80.9055 18.6378H76.5512C75.4466 18.6378 74.5512 19.5332 74.5512 20.6378V24.8858C74.5512 25.4381 74.9989 25.8858 75.5512 25.8858H77.6929C78.2452 25.8858 78.6929 25.4381 78.6929 24.8858V22.7441Z" fill="url(#paint12_radial_692_222)"/>
<path d="M104.412 33.0631C96.4743 29.9513 88.3242 12.4066 78.6929 13.4606C91.6665 19.2326 92.9183 31.4785 104.412 33.0631Z" fill="url(#paint13_radial_692_222)"/>
<path d="M111.827 30.0276C106.485 21.6827 106.361 16.9143 110.791 8.28346C105.363 9.71409 97.6256 19.5114 111.827 30.0276Z" fill="url(#paint14_radial_692_222)"/>
<path d="M118.039 10.3543C113.102 14.0549 110.405 23.2793 118.039 32.0984C106.33 25.6888 109.793 12.7713 118.039 0V10.3543Z" fill="url(#paint15_radial_692_222)"/>
<path d="M236.079 14.4961C229.779 20.0984 221 19.1979 205.392 15.1421C203.829 14.736 202.162 14.9601 200.773 15.7832L174.989 31.063L200.749 19.6141C202.159 18.9874 203.761 18.9353 205.22 19.4358C223.529 25.7159 231.342 24.7283 236.079 14.4961Z" fill="url(#paint16_radial_692_222)"/>
<path d="M219.512 25.8858C213.37 27.5488 201.593 19.1752 192.576 24.2129C200.28 20.3448 211.152 34.7378 219.512 25.8858Z" fill="url(#paint17_radial_692_222)"/>
<path d="M193.626 34.1693C195.605 32.9379 196.275 31.791 196.543 30.2054C196.765 28.8871 195.865 27.6374 194.565 27.3262C189.673 26.1551 186.42 27.3172 181.201 31.063C185.703 26.3362 189.254 25.2844 196.432 25.78C197.282 25.8387 198.06 26.2751 198.571 26.9564L199.912 28.7446C200.474 29.4943 200.448 30.5432 199.801 31.2205C197.637 33.4837 196.099 34.1156 193.626 34.1693Z" fill="url(#paint18_radial_692_222)"/>
<path d="M174.989 28.9921C187.207 19.5072 182.948 18.6378 176.024 10.3543C179.451 8.93238 181.185 8.83857 183.272 12.4252C184.791 8.29387 186.301 6.42726 190.52 4.14173C192.227 8.52031 191.447 10.6991 189.485 14.4961C193.141 12.0347 195.332 11.3823 199.839 13.4606C189.775 17.727 190.787 18.8748 174.989 28.9921Z" fill="url(#paint19_radial_692_222)"/>
<path d="M157.386 22.7441C157.386 22.1918 156.938 21.7441 156.386 21.7441H156.315C155.763 21.7441 155.315 22.1918 155.315 22.7441V25.9213C155.315 26.4735 155.763 26.9213 156.315 26.9213H161.599C162.703 26.9213 163.599 26.0258 163.599 24.9213V19.6024C163.599 18.4978 162.703 17.6024 161.599 17.6024H157.351C155.465 17.6024 153.604 18.023 151.901 18.8337V18.8337C150.783 19.3663 149.954 20.3629 149.635 21.5599L147.739 28.6695C146.873 31.9182 149.396 35.0788 152.755 34.9544L168.011 34.3894C171.301 34.2675 173.879 31.5169 173.787 28.2256L173.384 13.8426C173.293 10.5955 170.635 8.01038 167.387 8.01038H153.04C150.056 8.01038 147.19 9.21712 145.164 11.4088C134.273 23.194 126.982 33.3225 120.684 32.2299C120.394 32.1796 120.111 32.3916 120.111 32.686V32.686C120.111 32.9325 120.313 33.1318 120.56 33.1285C126.709 33.045 130.709 32.4313 148.426 13.254C149.542 12.0456 151 11.1983 152.606 10.8414L158.221 9.59364C159.036 9.41248 159.88 9.4035 160.699 9.56728L164.988 10.4251C167.793 10.986 169.811 13.4485 169.811 16.3086V27.0984C169.811 29.8599 167.573 32.0984 164.811 32.0984H155.174C152.964 32.0984 151.174 30.3076 151.174 28.0984V22.6378C151.174 20.4287 152.964 18.6378 155.174 18.6378H159.528C160.633 18.6378 161.528 19.5332 161.528 20.6378V24.8858C161.528 25.4381 161.08 25.8858 160.528 25.8858H158.386C157.834 25.8858 157.386 25.4381 157.386 24.8858V22.7441Z" fill="url(#paint20_radial_692_222)"/>
<path d="M131.667 33.0631C139.605 29.9513 147.755 12.4066 157.386 13.4606C144.413 19.2326 143.161 31.4785 131.667 33.0631Z" fill="url(#paint21_radial_692_222)"/>
<path d="M124.252 30.0276C129.594 21.6827 129.718 16.9143 125.288 8.28346C130.716 9.71409 138.454 19.5114 124.252 30.0276Z" fill="url(#paint22_radial_692_222)"/>
<path d="M118.04 10.3543C122.977 14.0549 125.674 23.2793 118.04 32.0984C129.75 25.6888 126.286 12.7713 118.04 0V10.3543Z" fill="url(#paint23_radial_692_222)"/>
<defs>
<radialGradient id="paint0_radial_692_222" cx="0" cy="0" r="1" gradientUnits="userSpaceOnUse" gradientTransform="translate(79.728 111.309) scale(38.311 20.1909)">
<stop stop-color="#E1E1E1"/>
<stop offset="1" stop-color="#FFF4DA"/>
</radialGradient>
<radialGradient id="paint1_radial_692_222" cx="0" cy="0" r="1" gradientUnits="userSpaceOnUse" gradientTransform="translate(79.728 111.309) scale(38.311 20.1909)">
<stop stop-color="#E1E1E1"/>
<stop offset="1" stop-color="#FFF4DA"/>
</radialGradient>
<radialGradient id="paint2_radial_692_222" cx="0" cy="0" r="1" gradientUnits="userSpaceOnUse" gradientTransform="translate(79.728 111.309) scale(38.311 20.1909)">
<stop stop-color="#E1E1E1"/>
<stop offset="1" stop-color="#FFF4DA"/>
</radialGradient>
<radialGradient id="paint3_radial_692_222" cx="0" cy="0" r="1" gradientUnits="userSpaceOnUse" gradientTransform="translate(79.728 111.309) scale(38.311 20.1909)">
<stop stop-color="#E1E1E1"/>
<stop offset="1" stop-color="#FFF4DA"/>
</radialGradient>
<radialGradient id="paint4_radial_692_222" cx="0" cy="0" r="1" gradientUnits="userSpaceOnUse" gradientTransform="translate(156.35 111.309) rotate(180) scale(38.311 20.1909)">
<stop stop-color="#E1E1E1"/>
<stop offset="1" stop-color="#FFF4DA"/>
</radialGradient>
<radialGradient id="paint5_radial_692_222" cx="0" cy="0" r="1" gradientUnits="userSpaceOnUse" gradientTransform="translate(156.35 111.309) rotate(180) scale(38.311 20.1909)">
<stop stop-color="#E1E1E1"/>
<stop offset="1" stop-color="#FFF4DA"/>
</radialGradient>
<radialGradient id="paint6_radial_692_222" cx="0" cy="0" r="1" gradientUnits="userSpaceOnUse" gradientTransform="translate(156.35 111.309) rotate(180) scale(38.311 20.1909)">
<stop stop-color="#E1E1E1"/>
<stop offset="1" stop-color="#FFF4DA"/>
</radialGradient>
<radialGradient id="paint7_radial_692_222" cx="0" cy="0" r="1" gradientUnits="userSpaceOnUse" gradientTransform="translate(156.35 111.309) rotate(180) scale(38.311 20.1909)">
<stop stop-color="#E1E1E1"/>
<stop offset="1" stop-color="#FFF4DA"/>
</radialGradient>
<radialGradient id="paint8_radial_692_222" cx="0" cy="0" r="1" gradientUnits="userSpaceOnUse" gradientTransform="translate(59.0197 17.6024) scale(59.0197 17.6024)">
<stop stop-color="#E1E1E1"/>
<stop offset="1" stop-color="#FFF4DA"/>
</radialGradient>
<radialGradient id="paint9_radial_692_222" cx="0" cy="0" r="1" gradientUnits="userSpaceOnUse" gradientTransform="translate(59.0197 17.6024) scale(59.0197 17.6024)">
<stop stop-color="#E1E1E1"/>
<stop offset="1" stop-color="#FFF4DA"/>
</radialGradient>
<radialGradient id="paint10_radial_692_222" cx="0" cy="0" r="1" gradientUnits="userSpaceOnUse" gradientTransform="translate(59.0197 17.6024) scale(59.0197 17.6024)">
<stop stop-color="#E1E1E1"/>
<stop offset="1" stop-color="#FFF4DA"/>
</radialGradient>
<radialGradient id="paint11_radial_692_222" cx="0" cy="0" r="1" gradientUnits="userSpaceOnUse" gradientTransform="translate(59.0197 17.6024) scale(59.0197 17.6024)">
<stop stop-color="#E1E1E1"/>
<stop offset="1" stop-color="#FFF4DA"/>
</radialGradient>
<radialGradient id="paint12_radial_692_222" cx="0" cy="0" r="1" gradientUnits="userSpaceOnUse" gradientTransform="translate(59.0197 17.6024) scale(59.0197 17.6024)">
<stop stop-color="#E1E1E1"/>
<stop offset="1" stop-color="#FFF4DA"/>
</radialGradient>
<radialGradient id="paint13_radial_692_222" cx="0" cy="0" r="1" gradientUnits="userSpaceOnUse" gradientTransform="translate(59.0197 17.6024) scale(59.0197 17.6024)">
<stop stop-color="#E1E1E1"/>
<stop offset="1" stop-color="#FFF4DA"/>
</radialGradient>
<radialGradient id="paint14_radial_692_222" cx="0" cy="0" r="1" gradientUnits="userSpaceOnUse" gradientTransform="translate(59.0197 17.6024) scale(59.0197 17.6024)">
<stop stop-color="#E1E1E1"/>
<stop offset="1" stop-color="#FFF4DA"/>
</radialGradient>
<radialGradient id="paint15_radial_692_222" cx="0" cy="0" r="1" gradientUnits="userSpaceOnUse" gradientTransform="translate(59.0197 17.6024) scale(59.0197 17.6024)">
<stop stop-color="#E1E1E1"/>
<stop offset="1" stop-color="#FFF4DA"/>
</radialGradient>
<radialGradient id="paint16_radial_692_222" cx="0" cy="0" r="1" gradientUnits="userSpaceOnUse" gradientTransform="translate(177.059 17.6024) rotate(180) scale(59.0197 17.6024)">
<stop stop-color="#E1E1E1"/>
<stop offset="1" stop-color="#FFF4DA"/>
</radialGradient>
<radialGradient id="paint17_radial_692_222" cx="0" cy="0" r="1" gradientUnits="userSpaceOnUse" gradientTransform="translate(177.059 17.6024) rotate(180) scale(59.0197 17.6024)">
<stop stop-color="#E1E1E1"/>
<stop offset="1" stop-color="#FFF4DA"/>
</radialGradient>
<radialGradient id="paint18_radial_692_222" cx="0" cy="0" r="1" gradientUnits="userSpaceOnUse" gradientTransform="translate(177.059 17.6024) rotate(180) scale(59.0197 17.6024)">
<stop stop-color="#E1E1E1"/>
<stop offset="1" stop-color="#FFF4DA"/>
</radialGradient>
<radialGradient id="paint19_radial_692_222" cx="0" cy="0" r="1" gradientUnits="userSpaceOnUse" gradientTransform="translate(177.059 17.6024) rotate(180) scale(59.0197 17.6024)">
<stop stop-color="#E1E1E1"/>
<stop offset="1" stop-color="#FFF4DA"/>
</radialGradient>
<radialGradient id="paint20_radial_692_222" cx="0" cy="0" r="1" gradientUnits="userSpaceOnUse" gradientTransform="translate(177.059 17.6024) rotate(180) scale(59.0197 17.6024)">
<stop stop-color="#E1E1E1"/>
<stop offset="1" stop-color="#FFF4DA"/>
</radialGradient>
<radialGradient id="paint21_radial_692_222" cx="0" cy="0" r="1" gradientUnits="userSpaceOnUse" gradientTransform="translate(177.059 17.6024) rotate(180) scale(59.0197 17.6024)">
<stop stop-color="#E1E1E1"/>
<stop offset="1" stop-color="#FFF4DA"/>
</radialGradient>
<radialGradient id="paint22_radial_692_222" cx="0" cy="0" r="1" gradientUnits="userSpaceOnUse" gradientTransform="translate(177.059 17.6024) rotate(180) scale(59.0197 17.6024)">
<stop stop-color="#E1E1E1"/>
<stop offset="1" stop-color="#FFF4DA"/>
</radialGradient>
<radialGradient id="paint23_radial_692_222" cx="0" cy="0" r="1" gradientUnits="userSpaceOnUse" gradientTransform="translate(177.059 17.6024) rotate(180) scale(59.0197 17.6024)">
<stop stop-color="#E1E1E1"/>
<stop offset="1" stop-color="#FFF4DA"/>
</radialGradient>
</defs>
</svg>
