<svg width="237" height="132" viewBox="0 0 237 132" fill="none" xmlns="http://www.w3.org/2000/svg">
<path d="M50.713 108.06C49.3894 108.487 47.9219 108.504 46.7174 107.809C44.5799 106.575 44.1417 105.154 44.5239 102.508V102.508C42.8803 103.056 42.0634 104.953 43.0344 106.388C43.9981 107.812 45.0942 108.974 46.6272 110.246C47.9176 111.316 49.57 111.855 51.2463 111.812C56.4411 111.679 59.0354 110.851 62.1261 108.72C61.1055 110.641 61.1623 111.76 61.9889 113.6C62.061 113.76 62.2573 113.822 62.4081 113.731C64.083 112.73 65.0044 111.892 66.2679 109.756C66.2159 114.032 66.9848 113.977 70.4096 114.933C67.5199 110.86 68.053 109.221 70.1985 106.254C70.9963 105.151 72.1264 104.331 73.4058 103.866L78.5781 101.985C81.3347 100.982 84.3491 100.942 87.1317 101.869L104.174 107.55C104.308 107.435 104.443 107.326 104.579 107.223V104.508C104.579 103.403 105.474 102.508 106.579 102.508H108.791C109.896 102.508 110.791 103.403 110.791 104.508V105.614H111.827V103.472C111.827 102.368 110.931 101.472 109.827 101.472H105.543C104.439 101.472 103.543 102.368 103.543 103.472V106.65C98.7741 103.748 93.5326 101.584 86.7262 99.7769C82.8461 98.747 78.7539 99.0145 74.9333 100.247L50.713 108.06Z" fill="url(#paint0_radial_692_2082)"/>
<path fill-rule="evenodd" clip-rule="evenodd" d="M118.04 111.827V108.721C115.458 105.74 114.164 105.799 111.827 105.614H110.791C108.063 105.589 106.223 105.979 104.579 107.223V107.685L104.174 107.55C103.27 108.327 102.41 109.382 101.473 110.791C94.423 108.167 92.2423 105.859 84.6309 104.117C82.7932 103.696 80.8384 103.854 79.1738 104.739C77.1411 105.82 75.7483 107.075 74.4009 109.235C73.7981 110.201 73.7054 111.42 74.2151 112.438C75.05 114.107 76.2503 115.417 79.1381 117.128C80.1191 117.709 81.351 117.62 82.2789 116.957L86.2804 114.099C87.2189 113.429 87.4133 112.09 86.6216 111.251C84.8307 109.354 83.7232 109.09 81.7994 109.756C83.0247 110.067 83.7478 110.456 84.3965 111.688C84.7601 112.378 84.5523 113.216 84.0005 113.767L82.2759 115.492C81.3711 116.397 79.9668 116.664 78.906 115.948C77.392 114.927 76.4786 113.802 75.488 112.283C74.8942 111.372 74.8544 110.185 75.4804 109.296C77.1885 106.871 79.0768 106.022 82.8348 105.614C87.5143 105.758 93.9739 109.592 101.473 112.862C101.611 115.305 101.827 117.608 105.431 119.531C106.15 119.915 107.027 119.733 107.604 119.156L110.252 116.508C110.55 116.21 110.55 115.727 110.252 115.429V115.429C109.972 115.149 109.522 115.134 109.211 115.381C104.883 118.812 103.35 117.017 102.508 112.862C108.785 113.743 111.601 112.063 112.862 106.65H114.933L118.04 111.827ZM102.508 111.827C105.324 107.593 107.417 106.549 111.827 106.65C109.582 111.782 107.624 113.001 102.508 111.827Z" fill="url(#paint1_radial_692_2082)"/>
<path d="M118.04 114.933V111.827C116.112 115.763 116.189 118.074 110.791 119.075C111.96 121.038 112.806 121.636 114.933 121.146C115.325 125.201 115.718 127.472 118.04 131.5V125.287C116.703 121.107 116.953 118.865 118.04 114.933Z" fill="url(#paint2_radial_692_2082)"/>
<path d="M115.969 98.3662C116.06 94.792 116.696 93.3936 118.04 91.1182V105.614C115.723 100.811 114.342 99.4138 111.827 99.4015C113.365 97.8121 114.277 97.3638 115.969 98.3662Z" fill="url(#paint3_radial_692_2082)"/>
<path d="M185.366 108.06C186.69 108.487 188.157 108.504 189.362 107.809C191.499 106.575 191.937 105.154 191.555 102.508V102.508C193.199 103.056 194.016 104.953 193.045 106.388C192.081 107.812 190.985 108.974 189.452 110.246C188.161 111.316 186.509 111.855 184.833 111.812C179.638 111.679 177.044 110.851 173.953 108.72C174.974 110.641 174.917 111.76 174.09 113.6C174.018 113.76 173.822 113.822 173.671 113.731C171.996 112.73 171.075 111.892 169.811 109.756C169.863 114.032 169.094 113.977 165.669 114.933C168.559 110.86 168.026 109.221 165.881 106.254C165.083 105.151 163.953 104.331 162.673 103.866L157.501 101.985C154.744 100.982 151.73 100.942 148.947 101.869L131.905 107.55C131.771 107.435 131.636 107.326 131.5 107.223V104.508C131.5 103.403 130.605 102.508 129.5 102.508H127.288C126.183 102.508 125.288 103.403 125.288 104.508V105.614H124.252V103.472C124.252 102.368 125.148 101.472 126.252 101.472H130.536C131.64 101.472 132.536 102.368 132.536 103.472V106.65C137.305 103.748 142.547 101.584 149.353 99.7769C153.233 98.747 157.325 99.0145 161.146 100.247L185.366 108.06Z" fill="url(#paint4_radial_692_2082)"/>
<path fill-rule="evenodd" clip-rule="evenodd" d="M118.04 111.827V108.721C120.621 105.74 121.915 105.799 124.252 105.614H125.288C128.016 105.589 129.856 105.979 131.5 107.223V107.685L131.905 107.55C132.809 108.327 133.669 109.382 134.607 110.791C141.656 108.167 143.837 105.859 151.448 104.117C153.286 103.696 155.241 103.854 156.905 104.739C158.938 105.82 160.331 107.075 161.678 109.235C162.281 110.201 162.374 111.42 161.864 112.438C161.029 114.107 159.829 115.417 156.941 117.128C155.96 117.709 154.728 117.62 153.8 116.957L149.799 114.099C148.86 113.429 148.666 112.09 149.457 111.251C151.248 109.354 152.356 109.09 154.28 109.756C153.054 110.067 152.331 110.456 151.683 111.688C151.319 112.378 151.527 113.216 152.079 113.767L153.803 115.492C154.708 116.397 156.112 116.664 157.173 115.948C158.687 114.927 159.601 113.802 160.591 112.283C161.185 111.372 161.225 110.185 160.599 109.296C158.891 106.871 157.002 106.022 153.244 105.614C148.565 105.758 142.105 109.592 134.607 112.862C134.468 115.305 134.252 117.608 130.648 119.531C129.929 119.915 129.052 119.733 128.475 119.156L125.827 116.508C125.529 116.21 125.529 115.727 125.827 115.429V115.429C126.107 115.149 126.557 115.134 126.868 115.381C131.196 118.812 132.729 117.017 133.571 112.862C127.294 113.743 124.479 112.063 123.217 106.65H121.146L118.04 111.827ZM133.571 111.827C130.755 107.593 128.662 106.549 124.252 106.65C126.497 111.782 128.455 113.001 133.571 111.827Z" fill="url(#paint5_radial_692_2082)"/>
<path d="M118.04 114.933V111.827C119.967 115.763 119.89 118.074 125.288 119.075C124.119 121.038 123.273 121.636 121.146 121.146C120.755 125.201 120.362 127.472 118.04 131.5V125.287C119.376 121.107 119.126 118.865 118.04 114.933Z" fill="url(#paint6_radial_692_2082)"/>
<path d="M120.11 98.3662C120.019 94.792 119.383 93.3936 118.04 91.1182V105.614C120.356 100.811 121.737 99.4138 124.252 99.4015C122.714 97.8121 121.802 97.3638 120.11 98.3662Z" fill="url(#paint7_radial_692_2082)"/>
<path d="M74.1172 65.7617C74.1172 67.3229 73.6302 68.8125 72.6562 70.2305C71.6966 71.6341 70.3288 72.7799 68.5527 73.668C66.791 74.556 64.6927 75 62.2578 75H56.8008L52.0742 75.1289C52.0456 75.1003 52.0312 74.9714 52.0312 74.7422C52.0312 74.1693 52.1315 73.8828 52.332 73.8828C52.5612 73.8828 52.8835 73.8398 53.2988 73.7539C53.7142 73.6536 54.1009 73.5319 54.459 73.3887C54.8314 73.2311 55.0534 73.0664 55.125 72.8945C55.526 72.0781 55.8984 70.7461 56.2422 68.8984L59.3359 52.9141C59.651 51.3242 59.8086 49.9922 59.8086 48.918C59.8086 48.7747 59.651 48.6243 59.3359 48.4668C59.0208 48.3092 58.6699 48.1732 58.2832 48.0586C57.9108 47.944 57.6172 47.8867 57.4023 47.8867C57.3451 47.8867 57.3164 47.8294 57.3164 47.7148C57.3164 47.2565 57.4167 46.9271 57.6172 46.7266C58.276 46.7552 58.985 46.7767 59.7441 46.791C60.5176 46.8053 61.3411 46.8125 62.2148 46.8125C62.888 46.8125 63.4967 46.8125 64.041 46.8125C64.5996 46.8125 65.0938 46.8053 65.5234 46.791C65.9531 46.7767 66.3613 46.7695 66.748 46.7695C67.1348 46.7695 67.5 46.7695 67.8438 46.7695C68.6458 46.7695 69.4408 46.8626 70.2285 47.0488C71.0163 47.235 71.7754 47.5286 72.5059 47.9297C73.2363 48.3307 73.8307 48.9108 74.2891 49.6699C74.7474 50.429 74.9766 51.3099 74.9766 52.3125C74.9766 52.9714 74.8763 53.6374 74.6758 54.3105C74.4753 54.9551 74.2174 55.5065 73.9023 55.9648C73.5872 56.4232 73.2292 56.8529 72.8281 57.2539C72.3411 57.7409 71.8112 58.1777 71.2383 58.5645C70.6654 58.9368 70.1927 59.2018 69.8203 59.3594L69.5625 59.4883C70.1354 59.5742 70.7728 59.9108 71.4746 60.498C72.1908 61.0853 72.8066 61.8372 73.3223 62.7539C73.8522 63.6706 74.1172 64.6732 74.1172 65.7617ZM71.3242 52.8281C71.3242 49.9635 69.849 48.5312 66.8984 48.5312C64.8216 48.5312 63.7474 48.7174 63.6758 49.0898L61.7422 58.4141C61.6992 58.5859 61.821 58.7148 62.1074 58.8008C62.4082 58.8724 62.7663 58.9225 63.1816 58.9512C63.597 58.9655 63.9622 58.9727 64.2773 58.9727C65.194 58.9727 65.9818 58.9154 66.6406 58.8008C67.2995 58.6862 68.0299 58.4427 68.832 58.0703C70.4935 57.2969 71.3242 55.5495 71.3242 52.8281ZM70.25 65.9336C70.25 64.4154 69.7773 63.1764 68.832 62.2168C67.8867 61.2572 66.3685 60.7773 64.2773 60.7773C62.2435 60.7773 61.1836 60.9922 61.0977 61.4219L59.4648 70.0156C59.3216 70.832 59.25 71.5195 59.25 72.0781C59.25 72.6081 59.472 72.9375 59.916 73.0664C60.36 73.181 60.9974 73.2383 61.8281 73.2383C63.819 73.2383 65.2083 73.0521 65.9961 72.6797C67.1706 72.1354 68.1732 71.2617 69.0039 70.0586C69.8346 68.8555 70.25 67.4805 70.25 65.9336ZM88.7695 56.3086C89.8294 56.3086 90.875 56.4948 91.9062 56.8672L89.2852 70.4453C89.1992 70.7891 89.1562 71.1471 89.1562 71.5195C89.1562 72.2357 89.2995 72.5938 89.5859 72.5938C89.944 72.5938 90.3737 72.3431 90.875 71.8418C91.3763 71.3262 91.806 70.8893 92.1641 70.5312L92.4219 70.2305C92.4792 70.2305 92.5866 70.3665 92.7441 70.6387C92.9017 70.9108 92.9805 71.1042 92.9805 71.2188C92.737 71.6341 92.293 72.1641 91.6484 72.8086C91.0182 73.4531 90.3307 74.026 89.5859 74.5273C88.8411 75.0143 88.168 75.2578 87.5664 75.2578C87.1081 75.2578 86.75 75.0501 86.4922 74.6348C86.2344 74.2194 86.1055 73.6823 86.1055 73.0234C86.1055 72.5794 86.2057 71.8203 86.4062 70.7461L86.5566 69.9941C86.5996 69.7936 86.6211 69.6719 86.6211 69.6289C86.3919 70.0586 86.0625 70.5885 85.6328 71.2188C85.2031 71.8346 84.709 72.4505 84.1504 73.0664C83.5918 73.6823 83.0046 74.1979 82.3887 74.6133C81.7728 75.0143 81.1641 75.2148 80.5625 75.2148C79.3021 75.2148 78.3066 74.6491 77.5762 73.5176C76.8457 72.3861 76.4805 71.0182 76.4805 69.4141C76.4805 67.3659 77.0892 65.3249 78.3066 63.291C79.123 61.916 80.097 60.7057 81.2285 59.6602C82.3743 58.6146 83.599 57.7982 84.9023 57.2109C86.2057 56.6094 87.4948 56.3086 88.7695 56.3086ZM86.9648 58.2852C86.1198 58.2852 85.2676 58.5859 84.4082 59.1875C83.5488 59.7747 82.7611 60.5697 82.0449 61.5723C81.3288 62.5605 80.7487 63.6634 80.3047 64.8809C79.875 66.084 79.6602 67.2943 79.6602 68.5117C79.6602 71.319 80.3906 72.7227 81.8516 72.7227C82.3672 72.7227 82.9258 72.4362 83.5273 71.8633C84.1289 71.2904 84.7233 70.5312 85.3105 69.5859C85.8978 68.6406 86.4134 67.6165 86.8574 66.5137C87.3158 65.3965 87.6523 64.3008 87.8672 63.2266L88.7266 58.8438C88.3828 58.4714 87.7956 58.2852 86.9648 58.2852ZM100.973 56.3086C101.832 56.3086 102.541 57.0391 103.1 58.5C103.673 59.9896 104.052 61.9017 104.238 64.2363C104.382 65.8118 104.482 67.1439 104.539 68.2324C104.611 69.321 104.654 70.2949 104.668 71.1543C104.697 72.0137 104.711 72.8945 104.711 73.7969C105.456 72.8802 106.215 71.7773 106.988 70.4883C107.762 69.1992 108.413 67.8743 108.943 66.5137C109.473 65.153 109.738 63.8997 109.738 62.7539C109.738 61.0781 109.38 59.5456 108.664 58.1562C109.036 56.9245 109.753 56.3086 110.812 56.3086C112.073 56.3086 112.703 57.4401 112.703 59.7031C112.703 62.8685 111.471 66.485 109.008 70.5527C107.776 72.5866 106.437 74.4772 104.99 76.2246C103.558 77.9863 102.111 79.526 100.65 80.8438C99.1895 82.1615 97.8073 83.1855 96.5039 83.916C95.2005 84.6465 94.069 85.0117 93.1094 85.0117C92.3646 85.0117 91.7487 84.8398 91.2617 84.4961C90.7747 84.1523 90.5312 83.737 90.5312 83.25C90.5312 82.3333 90.8607 81.7031 91.5195 81.3594C92.1497 81.7318 93.1094 81.918 94.3984 81.918C96.7904 81.918 98.8529 80.6432 100.586 78.0938C101.245 77.1341 101.574 75.2148 101.574 72.3359C101.574 70.9323 101.538 69.5358 101.467 68.1465C101.395 66.7572 101.266 65.332 101.08 63.8711C100.98 63.0404 100.829 62.2526 100.629 61.5078C100.443 60.763 100.214 60.1543 99.9414 59.6816C99.6693 59.209 99.3542 58.9727 98.9961 58.9727C98.7383 58.9727 98.3516 59.2161 97.8359 59.7031C97.3203 60.1901 96.9193 60.6198 96.6328 60.9922C96.5755 60.9922 96.4681 60.8561 96.3105 60.584C96.153 60.3118 96.0742 60.1185 96.0742 60.0039C96.1602 59.7891 96.3893 59.4811 96.7617 59.0801C97.1484 58.679 97.5996 58.2637 98.1152 57.834C98.6309 57.4043 99.1465 57.0462 99.6621 56.7598C100.178 56.459 100.615 56.3086 100.973 56.3086ZM121.555 56.3086C122.414 56.3086 123.123 57.0391 123.682 58.5C124.255 59.9896 124.634 61.9017 124.82 64.2363C124.964 65.8118 125.064 67.1439 125.121 68.2324C125.193 69.321 125.236 70.2949 125.25 71.1543C125.279 72.0137 125.293 72.8945 125.293 73.7969C126.038 72.8802 126.797 71.7773 127.57 70.4883C128.344 69.1992 128.995 67.8743 129.525 66.5137C130.055 65.153 130.32 63.8997 130.32 62.7539C130.32 61.0781 129.962 59.5456 129.246 58.1562C129.618 56.9245 130.335 56.3086 131.395 56.3086C132.655 56.3086 133.285 57.4401 133.285 59.7031C133.285 62.8685 132.053 66.485 129.59 70.5527C128.358 72.5866 127.019 74.4772 125.572 76.2246C124.14 77.9863 122.693 79.526 121.232 80.8438C119.771 82.1615 118.389 83.1855 117.086 83.916C115.783 84.6465 114.651 85.0117 113.691 85.0117C112.947 85.0117 112.331 84.8398 111.844 84.4961C111.357 84.1523 111.113 83.737 111.113 83.25C111.113 82.3333 111.443 81.7031 112.102 81.3594C112.732 81.7318 113.691 81.918 114.98 81.918C117.372 81.918 119.435 80.6432 121.168 78.0938C121.827 77.1341 122.156 75.2148 122.156 72.3359C122.156 70.9323 122.12 69.5358 122.049 68.1465C121.977 66.7572 121.848 65.332 121.662 63.8711C121.562 63.0404 121.411 62.2526 121.211 61.5078C121.025 60.763 120.796 60.1543 120.523 59.6816C120.251 59.209 119.936 58.9727 119.578 58.9727C119.32 58.9727 118.934 59.2161 118.418 59.7031C117.902 60.1901 117.501 60.6198 117.215 60.9922C117.158 60.9922 117.05 60.8561 116.893 60.584C116.735 60.3118 116.656 60.1185 116.656 60.0039C116.742 59.7891 116.971 59.4811 117.344 59.0801C117.73 58.679 118.182 58.2637 118.697 57.834C119.213 57.4043 119.729 57.0462 120.244 56.7598C120.76 56.459 121.197 56.3086 121.555 56.3086ZM143.039 47.2422C143.469 47.2422 143.834 47.4141 144.135 47.7578C144.436 48.1016 144.586 48.5026 144.586 48.9609C144.586 49.6484 144.364 50.25 143.92 50.7656C143.476 51.2812 142.924 51.5391 142.266 51.5391C141.807 51.5391 141.449 51.36 141.191 51.002C140.934 50.6439 140.805 50.207 140.805 49.6914C140.805 49.0326 141.02 48.4596 141.449 47.9727C141.879 47.4857 142.409 47.2422 143.039 47.2422ZM141.793 56.3086C142.251 56.3086 142.609 56.5163 142.867 56.9316C143.125 57.347 143.254 57.8841 143.254 58.543C143.254 59.1302 143.168 59.8893 142.996 60.8203L141.105 70.4453C141.02 70.7891 140.977 71.1471 140.977 71.5195C140.977 72.2357 141.12 72.5938 141.406 72.5938C141.764 72.5938 142.194 72.3431 142.695 71.8418C143.197 71.3262 143.626 70.8893 143.984 70.5312L144.242 70.2305C144.299 70.2305 144.407 70.3665 144.564 70.6387C144.722 70.9108 144.801 71.1042 144.801 71.2188C144.557 71.6341 144.113 72.1641 143.469 72.8086C142.839 73.4531 142.151 74.026 141.406 74.5273C140.661 75.0143 139.988 75.2578 139.387 75.2578C138.928 75.2578 138.57 75.0501 138.312 74.6348C138.055 74.2194 137.926 73.6823 137.926 73.0234C137.926 72.5938 138.026 71.8346 138.227 70.7461L139.988 61.7656C140.132 60.9206 140.203 60.3477 140.203 60.0469C140.203 59.3307 140.06 58.9727 139.773 58.9727C139.602 58.9727 139.365 59.0872 139.064 59.3164C138.778 59.5456 138.499 59.8034 138.227 60.0898C137.954 60.362 137.754 60.5768 137.625 60.7344L137.41 60.9922C137.353 60.9922 137.245 60.8561 137.088 60.584C136.93 60.3118 136.852 60.1185 136.852 60.0039C137.081 59.6172 137.496 59.1374 138.098 58.5645C138.699 57.9772 139.344 57.4544 140.031 56.9961C140.719 56.5378 141.306 56.3086 141.793 56.3086ZM153.223 56.3086C153.681 56.3086 154.039 56.5163 154.297 56.9316C154.555 57.347 154.684 57.8841 154.684 58.543C154.684 59.1732 154.598 59.9323 154.426 60.8203L153.652 64.7734C153.924 64.2865 154.548 63.3984 155.521 62.1094C156.166 61.2643 156.911 60.3978 157.756 59.5098C158.615 58.6074 159.46 57.8483 160.291 57.2324C161.136 56.6165 161.845 56.3086 162.418 56.3086C163.85 56.3086 164.566 57.2539 164.566 59.1445C164.566 60.4766 164.366 62.0378 163.965 63.8281L162.547 70.4453C162.461 70.7891 162.418 71.1471 162.418 71.5195C162.418 72.2357 162.561 72.5938 162.848 72.5938C163.206 72.5938 163.635 72.3431 164.137 71.8418C164.638 71.3262 165.068 70.8893 165.426 70.5312L165.684 70.2305C165.741 70.2305 165.848 70.3665 166.006 70.6387C166.163 70.9108 166.242 71.1042 166.242 71.2188C165.999 71.6341 165.555 72.1641 164.91 72.8086C164.28 73.4531 163.592 74.026 162.848 74.5273C162.103 75.0143 161.43 75.2578 160.828 75.2578C160.37 75.2578 160.012 75.0501 159.754 74.6348C159.496 74.2194 159.367 73.6823 159.367 73.0234C159.367 72.5938 159.467 71.8346 159.668 70.7461L161.172 63.6562C161.372 62.6823 161.473 61.9089 161.473 61.3359C161.473 60.1042 161.201 59.4883 160.656 59.4883C160.184 59.4883 159.546 59.8464 158.744 60.5625C157.942 61.2643 157.104 62.2025 156.23 63.377C155.371 64.5514 154.59 65.862 153.889 67.3086C153.187 68.7409 152.693 70.1875 152.406 71.6484L151.676 75C151.289 75.1146 150.845 75.1719 150.344 75.1719C149.857 75.1719 149.37 75.1146 148.883 75L151.418 61.7656C151.561 60.7773 151.633 60.2044 151.633 60.0469C151.633 59.3307 151.49 58.9727 151.203 58.9727C150.96 58.9727 150.594 59.2018 150.107 59.6602C149.878 59.8893 149.628 60.14 149.355 60.4121C149.098 60.6842 148.926 60.8776 148.84 60.9922C148.783 60.9922 148.675 60.8561 148.518 60.584C148.36 60.3118 148.281 60.1185 148.281 60.0039C148.51 59.6172 148.926 59.1374 149.527 58.5645C150.129 57.9772 150.773 57.4544 151.461 56.9961C152.148 56.5378 152.736 56.3086 153.223 56.3086ZM180.852 56.3086C181.911 56.3086 182.957 56.4948 183.988 56.8672L181.367 70.4453C181.281 70.7891 181.238 71.1471 181.238 71.5195C181.238 72.2357 181.382 72.5938 181.668 72.5938C182.026 72.5938 182.456 72.3431 182.957 71.8418C183.458 71.3262 183.888 70.8893 184.246 70.5312L184.504 70.2305C184.561 70.2305 184.669 70.3665 184.826 70.6387C184.984 70.9108 185.062 71.1042 185.062 71.2188C184.819 71.6341 184.375 72.1641 183.73 72.8086C183.1 73.4531 182.413 74.026 181.668 74.5273C180.923 75.0143 180.25 75.2578 179.648 75.2578C179.19 75.2578 178.832 75.0501 178.574 74.6348C178.316 74.2194 178.188 73.6823 178.188 73.0234C178.188 72.5794 178.288 71.8203 178.488 70.7461L178.639 69.9941C178.682 69.7936 178.703 69.6719 178.703 69.6289C178.474 70.0586 178.145 70.5885 177.715 71.2188C177.285 71.8346 176.791 72.4505 176.232 73.0664C175.674 73.6823 175.087 74.1979 174.471 74.6133C173.855 75.0143 173.246 75.2148 172.645 75.2148C171.384 75.2148 170.389 74.6491 169.658 73.5176C168.928 72.3861 168.562 71.0182 168.562 69.4141C168.562 67.3659 169.171 65.3249 170.389 63.291C171.205 61.916 172.179 60.7057 173.311 59.6602C174.456 58.6146 175.681 57.7982 176.984 57.2109C178.288 56.6094 179.577 56.3086 180.852 56.3086ZM179.047 58.2852C178.202 58.2852 177.35 58.5859 176.49 59.1875C175.631 59.7747 174.843 60.5697 174.127 61.5723C173.411 62.5605 172.831 63.6634 172.387 64.8809C171.957 66.084 171.742 67.2943 171.742 68.5117C171.742 71.319 172.473 72.7227 173.934 72.7227C174.449 72.7227 175.008 72.4362 175.609 71.8633C176.211 71.2904 176.805 70.5312 177.393 69.5859C177.98 68.6406 178.495 67.6165 178.939 66.5137C179.398 65.3965 179.734 64.3008 179.949 63.2266L180.809 58.8438C180.465 58.4714 179.878 58.2852 179.047 58.2852Z" fill="white"/>
<path d="M0 14.4961C6.30012 20.0984 15.0791 19.1979 30.687 15.1421C32.2497 14.736 33.9168 14.9601 35.3059 15.7832L61.0905 31.063L35.3304 19.6141C33.9205 18.9874 32.3183 18.9353 30.8588 19.4358C12.5496 25.7159 4.73674 24.7283 0 14.4961Z" fill="url(#paint8_radial_692_2082)"/>
<path d="M16.5669 25.8858C22.7094 27.5488 34.4861 19.1752 43.5027 24.2129C35.7991 20.3448 24.9274 34.7378 16.5669 25.8858Z" fill="url(#paint9_radial_692_2082)"/>
<path d="M42.4528 34.1693C40.4746 32.9379 39.8039 31.791 39.5364 30.2054C39.314 28.8871 40.2138 27.6374 41.514 27.3262C46.4064 26.1551 49.6595 27.3172 54.8779 31.063C50.3759 26.3362 46.8249 25.2844 39.6469 25.78C38.7972 25.8387 38.0191 26.2751 37.5081 26.9564L36.1669 28.7446C35.6047 29.4943 35.6307 30.5432 36.2784 31.2205C38.4425 33.4837 39.9798 34.1156 42.4528 34.1693Z" fill="url(#paint10_radial_692_2082)"/>
<path d="M61.0905 28.9921C48.8725 19.5072 53.131 18.6378 60.0551 10.3543C56.6285 8.93238 54.8937 8.83857 52.8071 12.4252C51.2879 8.29387 49.7783 6.42726 45.559 4.14173C43.8524 8.52031 44.6321 10.6991 46.5945 14.4961C42.9378 12.0347 40.7471 11.3823 36.2402 13.4606C46.3046 17.727 45.2926 18.8748 61.0905 28.9921Z" fill="url(#paint11_radial_692_2082)"/>
<path d="M78.6929 22.7441C78.6929 22.1918 79.1406 21.7441 79.6929 21.7441H79.7638C80.3161 21.7441 80.7638 22.1918 80.7638 22.7441V25.9213C80.7638 26.4735 80.3161 26.9213 79.7638 26.9213H74.4803C73.3757 26.9213 72.4803 26.0258 72.4803 24.9213V19.6024C72.4803 18.4978 73.3757 17.6024 74.4803 17.6024H78.7281C80.6137 17.6024 82.4755 18.023 84.178 18.8337V18.8337C85.2965 19.3663 86.1249 20.3629 86.4441 21.5599L88.3399 28.6695C89.2063 31.9182 86.6836 35.0788 83.3237 34.9544L68.0679 34.3894C64.7776 34.2675 62.2002 31.5169 62.2923 28.2256L62.6948 13.8426C62.7856 10.5955 65.4441 8.01038 68.6924 8.01038H83.0387C86.0229 8.01038 88.8896 9.21712 90.915 11.4088C101.807 23.194 109.097 33.3225 115.395 32.2299C115.685 32.1796 115.968 32.3916 115.968 32.686V32.686C115.968 32.9325 115.766 33.1318 115.519 33.1285C109.37 33.045 105.37 32.4313 87.653 13.254C86.5367 12.0456 85.0793 11.1983 83.4735 10.8414L77.8584 9.59364C77.0431 9.41248 76.199 9.4035 75.3801 9.56728L71.091 10.4251C68.2865 10.986 66.2677 13.4485 66.2677 16.3086V27.0984C66.2677 29.8599 68.5063 32.0984 71.2677 32.0984H80.9055C83.1146 32.0984 84.9055 30.3076 84.9055 28.0984V22.6378C84.9055 20.4287 83.1146 18.6378 80.9055 18.6378H76.5512C75.4466 18.6378 74.5512 19.5332 74.5512 20.6378V24.8858C74.5512 25.4381 74.9989 25.8858 75.5512 25.8858H77.6929C78.2452 25.8858 78.6929 25.4381 78.6929 24.8858V22.7441Z" fill="url(#paint12_radial_692_2082)"/>
<path d="M104.412 33.0631C96.4743 29.9513 88.3242 12.4066 78.6929 13.4606C91.6665 19.2326 92.9183 31.4785 104.412 33.0631Z" fill="url(#paint13_radial_692_2082)"/>
<path d="M111.827 30.0276C106.485 21.6827 106.361 16.9143 110.791 8.28346C105.363 9.71409 97.6256 19.5114 111.827 30.0276Z" fill="url(#paint14_radial_692_2082)"/>
<path d="M118.039 10.3543C113.102 14.0549 110.405 23.2793 118.039 32.0984C106.33 25.6888 109.793 12.7713 118.039 0V10.3543Z" fill="url(#paint15_radial_692_2082)"/>
<path d="M236.079 14.4961C229.778 20.0984 221 19.1979 205.392 15.1421C203.829 14.736 202.162 14.9601 200.773 15.7832L174.988 31.063L200.748 19.6141C202.158 18.9874 203.76 18.9353 205.22 19.4358C223.529 25.7159 231.342 24.7283 236.079 14.4961Z" fill="url(#paint16_radial_692_2082)"/>
<path d="M219.512 25.8858C213.369 27.5488 201.593 19.1752 192.576 24.2129C200.279 20.3448 211.151 34.7378 219.512 25.8858Z" fill="url(#paint17_radial_692_2082)"/>
<path d="M193.626 34.1693C195.604 32.9379 196.275 31.791 196.542 30.2054C196.765 28.8871 195.865 27.6374 194.565 27.3262C189.672 26.1551 186.419 27.3172 181.201 31.063C185.703 26.3362 189.254 25.2844 196.432 25.78C197.281 25.8387 198.06 26.2751 198.571 26.9564L199.912 28.7446C200.474 29.4943 200.448 30.5432 199.8 31.2205C197.636 33.4837 196.099 34.1156 193.626 34.1693Z" fill="url(#paint18_radial_692_2082)"/>
<path d="M174.988 28.9921C187.206 19.5072 182.948 18.6378 176.024 10.3543C179.45 8.93238 181.185 8.83857 183.272 12.4252C184.791 8.29387 186.3 6.42726 190.52 4.14173C192.226 8.52031 191.446 10.6991 189.484 14.4961C193.141 12.0347 195.331 11.3823 199.838 13.4606C189.774 17.727 190.786 18.8748 174.988 28.9921Z" fill="url(#paint19_radial_692_2082)"/>
<path d="M157.386 22.7441C157.386 22.1918 156.938 21.7441 156.386 21.7441H156.315C155.763 21.7441 155.315 22.1918 155.315 22.7441V25.9213C155.315 26.4735 155.763 26.9213 156.315 26.9213H161.598C162.703 26.9213 163.598 26.0258 163.598 24.9213V19.6024C163.598 18.4978 162.703 17.6024 161.598 17.6024H157.351C155.465 17.6024 153.603 18.023 151.901 18.8337V18.8337C150.782 19.3663 149.954 20.3629 149.635 21.5599L147.739 28.6695C146.872 31.9182 149.395 35.0788 152.755 34.9544L168.011 34.3894C171.301 34.2675 173.878 31.5169 173.786 28.2256L173.384 13.8426C173.293 10.5955 170.635 8.01038 167.386 8.01038H153.04C150.056 8.01038 147.189 9.21712 145.164 11.4088C134.272 23.194 126.982 33.3225 120.683 32.2299C120.393 32.1796 120.11 32.3916 120.11 32.686V32.686C120.11 32.9325 120.313 33.1318 120.559 33.1285C126.708 33.045 130.709 32.4313 148.426 13.254C149.542 12.0456 150.999 11.1983 152.605 10.8414L158.22 9.59364C159.035 9.41248 159.88 9.4035 160.698 9.56728L164.988 10.4251C167.792 10.986 169.811 13.4485 169.811 16.3086V27.0984C169.811 29.8599 167.572 32.0984 164.811 32.0984H155.173C152.964 32.0984 151.173 30.3076 151.173 28.0984V22.6378C151.173 20.4287 152.964 18.6378 155.173 18.6378H159.527C160.632 18.6378 161.527 19.5332 161.527 20.6378V24.8858C161.527 25.4381 161.08 25.8858 160.527 25.8858H158.386C157.833 25.8858 157.386 25.4381 157.386 24.8858V22.7441Z" fill="url(#paint20_radial_692_2082)"/>
<path d="M131.666 33.0631C139.604 29.9513 147.754 12.4066 157.386 13.4606C144.412 19.2326 143.16 31.4785 131.666 33.0631Z" fill="url(#paint21_radial_692_2082)"/>
<path d="M124.252 30.0276C129.594 21.6827 129.718 16.9143 125.287 8.28346C130.716 9.71409 138.453 19.5114 124.252 30.0276Z" fill="url(#paint22_radial_692_2082)"/>
<path d="M118.039 10.3543C122.976 14.0549 125.673 23.2793 118.039 32.0984C129.749 25.6888 126.286 12.7713 118.039 0V10.3543Z" fill="url(#paint23_radial_692_2082)"/>
<defs>
<radialGradient id="paint0_radial_692_2082" cx="0" cy="0" r="1" gradientUnits="userSpaceOnUse" gradientTransform="translate(79.7285 111.309) scale(38.311 20.1909)">
<stop stop-color="#E1E1E1"/>
<stop offset="1" stop-color="#FFF4DA"/>
</radialGradient>
<radialGradient id="paint1_radial_692_2082" cx="0" cy="0" r="1" gradientUnits="userSpaceOnUse" gradientTransform="translate(79.7285 111.309) scale(38.311 20.1909)">
<stop stop-color="#E1E1E1"/>
<stop offset="1" stop-color="#FFF4DA"/>
</radialGradient>
<radialGradient id="paint2_radial_692_2082" cx="0" cy="0" r="1" gradientUnits="userSpaceOnUse" gradientTransform="translate(79.7285 111.309) scale(38.311 20.1909)">
<stop stop-color="#E1E1E1"/>
<stop offset="1" stop-color="#FFF4DA"/>
</radialGradient>
<radialGradient id="paint3_radial_692_2082" cx="0" cy="0" r="1" gradientUnits="userSpaceOnUse" gradientTransform="translate(79.7285 111.309) scale(38.311 20.1909)">
<stop stop-color="#E1E1E1"/>
<stop offset="1" stop-color="#FFF4DA"/>
</radialGradient>
<radialGradient id="paint4_radial_692_2082" cx="0" cy="0" r="1" gradientUnits="userSpaceOnUse" gradientTransform="translate(156.351 111.309) rotate(180) scale(38.311 20.1909)">
<stop stop-color="#E1E1E1"/>
<stop offset="1" stop-color="#FFF4DA"/>
</radialGradient>
<radialGradient id="paint5_radial_692_2082" cx="0" cy="0" r="1" gradientUnits="userSpaceOnUse" gradientTransform="translate(156.351 111.309) rotate(180) scale(38.311 20.1909)">
<stop stop-color="#E1E1E1"/>
<stop offset="1" stop-color="#FFF4DA"/>
</radialGradient>
<radialGradient id="paint6_radial_692_2082" cx="0" cy="0" r="1" gradientUnits="userSpaceOnUse" gradientTransform="translate(156.351 111.309) rotate(180) scale(38.311 20.1909)">
<stop stop-color="#E1E1E1"/>
<stop offset="1" stop-color="#FFF4DA"/>
</radialGradient>
<radialGradient id="paint7_radial_692_2082" cx="0" cy="0" r="1" gradientUnits="userSpaceOnUse" gradientTransform="translate(156.351 111.309) rotate(180) scale(38.311 20.1909)">
<stop stop-color="#E1E1E1"/>
<stop offset="1" stop-color="#FFF4DA"/>
</radialGradient>
<radialGradient id="paint8_radial_692_2082" cx="0" cy="0" r="1" gradientUnits="userSpaceOnUse" gradientTransform="translate(59.0197 17.6024) scale(59.0197 17.6024)">
<stop stop-color="#E1E1E1"/>
<stop offset="1" stop-color="#FFF4DA"/>
</radialGradient>
<radialGradient id="paint9_radial_692_2082" cx="0" cy="0" r="1" gradientUnits="userSpaceOnUse" gradientTransform="translate(59.0197 17.6024) scale(59.0197 17.6024)">
<stop stop-color="#E1E1E1"/>
<stop offset="1" stop-color="#FFF4DA"/>
</radialGradient>
<radialGradient id="paint10_radial_692_2082" cx="0" cy="0" r="1" gradientUnits="userSpaceOnUse" gradientTransform="translate(59.0197 17.6024) scale(59.0197 17.6024)">
<stop stop-color="#E1E1E1"/>
<stop offset="1" stop-color="#FFF4DA"/>
</radialGradient>
<radialGradient id="paint11_radial_692_2082" cx="0" cy="0" r="1" gradientUnits="userSpaceOnUse" gradientTransform="translate(59.0197 17.6024) scale(59.0197 17.6024)">
<stop stop-color="#E1E1E1"/>
<stop offset="1" stop-color="#FFF4DA"/>
</radialGradient>
<radialGradient id="paint12_radial_692_2082" cx="0" cy="0" r="1" gradientUnits="userSpaceOnUse" gradientTransform="translate(59.0197 17.6024) scale(59.0197 17.6024)">
<stop stop-color="#E1E1E1"/>
<stop offset="1" stop-color="#FFF4DA"/>
</radialGradient>
<radialGradient id="paint13_radial_692_2082" cx="0" cy="0" r="1" gradientUnits="userSpaceOnUse" gradientTransform="translate(59.0197 17.6024) scale(59.0197 17.6024)">
<stop stop-color="#E1E1E1"/>
<stop offset="1" stop-color="#FFF4DA"/>
</radialGradient>
<radialGradient id="paint14_radial_692_2082" cx="0" cy="0" r="1" gradientUnits="userSpaceOnUse" gradientTransform="translate(59.0197 17.6024) scale(59.0197 17.6024)">
<stop stop-color="#E1E1E1"/>
<stop offset="1" stop-color="#FFF4DA"/>
</radialGradient>
<radialGradient id="paint15_radial_692_2082" cx="0" cy="0" r="1" gradientUnits="userSpaceOnUse" gradientTransform="translate(59.0197 17.6024) scale(59.0197 17.6024)">
<stop stop-color="#E1E1E1"/>
<stop offset="1" stop-color="#FFF4DA"/>
</radialGradient>
<radialGradient id="paint16_radial_692_2082" cx="0" cy="0" r="1" gradientUnits="userSpaceOnUse" gradientTransform="translate(177.059 17.6024) rotate(180) scale(59.0197 17.6024)">
<stop stop-color="#E1E1E1"/>
<stop offset="1" stop-color="#FFF4DA"/>
</radialGradient>
<radialGradient id="paint17_radial_692_2082" cx="0" cy="0" r="1" gradientUnits="userSpaceOnUse" gradientTransform="translate(177.059 17.6024) rotate(180) scale(59.0197 17.6024)">
<stop stop-color="#E1E1E1"/>
<stop offset="1" stop-color="#FFF4DA"/>
</radialGradient>
<radialGradient id="paint18_radial_692_2082" cx="0" cy="0" r="1" gradientUnits="userSpaceOnUse" gradientTransform="translate(177.059 17.6024) rotate(180) scale(59.0197 17.6024)">
<stop stop-color="#E1E1E1"/>
<stop offset="1" stop-color="#FFF4DA"/>
</radialGradient>
<radialGradient id="paint19_radial_692_2082" cx="0" cy="0" r="1" gradientUnits="userSpaceOnUse" gradientTransform="translate(177.059 17.6024) rotate(180) scale(59.0197 17.6024)">
<stop stop-color="#E1E1E1"/>
<stop offset="1" stop-color="#FFF4DA"/>
</radialGradient>
<radialGradient id="paint20_radial_692_2082" cx="0" cy="0" r="1" gradientUnits="userSpaceOnUse" gradientTransform="translate(177.059 17.6024) rotate(180) scale(59.0197 17.6024)">
<stop stop-color="#E1E1E1"/>
<stop offset="1" stop-color="#FFF4DA"/>
</radialGradient>
<radialGradient id="paint21_radial_692_2082" cx="0" cy="0" r="1" gradientUnits="userSpaceOnUse" gradientTransform="translate(177.059 17.6024) rotate(180) scale(59.0197 17.6024)">
<stop stop-color="#E1E1E1"/>
<stop offset="1" stop-color="#FFF4DA"/>
</radialGradient>
<radialGradient id="paint22_radial_692_2082" cx="0" cy="0" r="1" gradientUnits="userSpaceOnUse" gradientTransform="translate(177.059 17.6024) rotate(180) scale(59.0197 17.6024)">
<stop stop-color="#E1E1E1"/>
<stop offset="1" stop-color="#FFF4DA"/>
</radialGradient>
<radialGradient id="paint23_radial_692_2082" cx="0" cy="0" r="1" gradientUnits="userSpaceOnUse" gradientTransform="translate(177.059 17.6024) rotate(180) scale(59.0197 17.6024)">
<stop stop-color="#E1E1E1"/>
<stop offset="1" stop-color="#FFF4DA"/>
</radialGradient>
</defs>
</svg>
