<svg width="237" height="132" viewBox="0 0 237 132" fill="none" xmlns="http://www.w3.org/2000/svg">
<path d="M50.713 108.06C49.3894 108.487 47.9219 108.504 46.7174 107.809C44.5799 106.575 44.1417 105.154 44.5239 102.508V102.508C42.8803 103.056 42.0634 104.953 43.0344 106.388C43.9981 107.812 45.0942 108.974 46.6272 110.246C47.9176 111.316 49.57 111.855 51.2463 111.812C56.4411 111.679 59.0354 110.851 62.1261 108.72C61.1055 110.641 61.1623 111.76 61.9889 113.6C62.061 113.76 62.2573 113.822 62.4081 113.731C64.083 112.73 65.0044 111.892 66.2679 109.756C66.2159 114.032 66.9848 113.977 70.4096 114.933C67.5199 110.86 68.053 109.221 70.1985 106.254C70.9963 105.151 72.1264 104.331 73.4058 103.866L78.5781 101.985C81.3347 100.982 84.3491 100.942 87.1317 101.869L104.174 107.55C104.308 107.435 104.443 107.326 104.579 107.223V104.508C104.579 103.403 105.474 102.508 106.579 102.508H108.791C109.896 102.508 110.791 103.403 110.791 104.508V105.614H111.827V103.472C111.827 102.368 110.931 101.472 109.827 101.472H105.543C104.439 101.472 103.543 102.368 103.543 103.472V106.65C98.7741 103.748 93.5326 101.584 86.7262 99.7769C82.8461 98.747 78.7539 99.0145 74.9333 100.247L50.713 108.06Z" fill="url(#paint0_radial_692_2202)"/>
<path fill-rule="evenodd" clip-rule="evenodd" d="M118.04 111.827V108.721C115.458 105.74 114.164 105.799 111.827 105.614H110.791C108.063 105.589 106.223 105.979 104.579 107.223V107.685L104.174 107.55C103.27 108.327 102.41 109.382 101.473 110.791C94.423 108.167 92.2423 105.859 84.6309 104.117C82.7932 103.696 80.8384 103.854 79.1738 104.739C77.1411 105.82 75.7483 107.075 74.4009 109.235C73.7981 110.201 73.7054 111.42 74.2151 112.438C75.05 114.107 76.2503 115.417 79.1381 117.128C80.1191 117.709 81.351 117.62 82.2789 116.957L86.2804 114.099C87.2189 113.429 87.4133 112.09 86.6216 111.251C84.8307 109.354 83.7232 109.09 81.7994 109.756C83.0247 110.067 83.7478 110.456 84.3965 111.688C84.7601 112.378 84.5523 113.216 84.0005 113.767L82.2759 115.492C81.3711 116.397 79.9668 116.664 78.906 115.948C77.392 114.927 76.4786 113.802 75.488 112.283C74.8942 111.372 74.8544 110.185 75.4804 109.296C77.1885 106.871 79.0768 106.022 82.8348 105.614C87.5143 105.758 93.9739 109.592 101.473 112.862C101.611 115.305 101.827 117.608 105.431 119.531C106.15 119.915 107.027 119.733 107.604 119.156L110.252 116.508C110.55 116.21 110.55 115.727 110.252 115.429V115.429C109.972 115.149 109.522 115.134 109.211 115.381C104.883 118.812 103.35 117.017 102.508 112.862C108.785 113.743 111.601 112.063 112.862 106.65H114.933L118.04 111.827ZM102.508 111.827C105.324 107.593 107.417 106.549 111.827 106.65C109.582 111.782 107.624 113.001 102.508 111.827Z" fill="url(#paint1_radial_692_2202)"/>
<path d="M118.04 114.933V111.827C116.112 115.763 116.189 118.074 110.791 119.075C111.96 121.038 112.806 121.636 114.933 121.146C115.325 125.201 115.718 127.472 118.04 131.5V125.287C116.703 121.107 116.953 118.865 118.04 114.933Z" fill="url(#paint2_radial_692_2202)"/>
<path d="M115.969 98.3662C116.06 94.792 116.696 93.3936 118.04 91.1182V105.614C115.723 100.811 114.342 99.4138 111.827 99.4015C113.365 97.8121 114.277 97.3638 115.969 98.3662Z" fill="url(#paint3_radial_692_2202)"/>
<path d="M185.366 108.06C186.69 108.487 188.157 108.504 189.362 107.809C191.499 106.575 191.937 105.154 191.555 102.508V102.508C193.199 103.056 194.016 104.953 193.045 106.388C192.081 107.812 190.985 108.974 189.452 110.246C188.161 111.316 186.509 111.855 184.833 111.812C179.638 111.679 177.044 110.851 173.953 108.72C174.974 110.641 174.917 111.76 174.09 113.6C174.018 113.76 173.822 113.822 173.671 113.731C171.996 112.73 171.075 111.892 169.811 109.756C169.863 114.032 169.094 113.977 165.669 114.933C168.559 110.86 168.026 109.221 165.881 106.254C165.083 105.151 163.953 104.331 162.673 103.866L157.501 101.985C154.744 100.982 151.73 100.942 148.947 101.869L131.905 107.55C131.771 107.435 131.636 107.326 131.5 107.223V104.508C131.5 103.403 130.605 102.508 129.5 102.508H127.288C126.183 102.508 125.288 103.403 125.288 104.508V105.614H124.252V103.472C124.252 102.368 125.148 101.472 126.252 101.472H130.536C131.64 101.472 132.536 102.368 132.536 103.472V106.65C137.305 103.748 142.547 101.584 149.353 99.7769C153.233 98.747 157.325 99.0145 161.146 100.247L185.366 108.06Z" fill="url(#paint4_radial_692_2202)"/>
<path fill-rule="evenodd" clip-rule="evenodd" d="M118.04 111.827V108.721C120.621 105.74 121.915 105.799 124.252 105.614H125.288C128.016 105.589 129.856 105.979 131.5 107.223V107.685L131.905 107.55C132.809 108.327 133.669 109.382 134.607 110.791C141.656 108.167 143.837 105.859 151.448 104.117C153.286 103.696 155.241 103.854 156.905 104.739C158.938 105.82 160.331 107.075 161.678 109.235C162.281 110.201 162.374 111.42 161.864 112.438C161.029 114.107 159.829 115.417 156.941 117.128C155.96 117.709 154.728 117.62 153.8 116.957L149.799 114.099C148.86 113.429 148.666 112.09 149.457 111.251C151.248 109.354 152.356 109.09 154.28 109.756C153.054 110.067 152.331 110.456 151.683 111.688C151.319 112.378 151.527 113.216 152.079 113.767L153.803 115.492C154.708 116.397 156.112 116.664 157.173 115.948C158.687 114.927 159.601 113.802 160.591 112.283C161.185 111.372 161.225 110.185 160.599 109.296C158.891 106.871 157.002 106.022 153.244 105.614C148.565 105.758 142.105 109.592 134.607 112.862C134.468 115.305 134.252 117.608 130.648 119.531C129.929 119.915 129.052 119.733 128.475 119.156L125.827 116.508C125.529 116.21 125.529 115.727 125.827 115.429V115.429C126.107 115.149 126.557 115.134 126.868 115.381C131.196 118.812 132.729 117.017 133.571 112.862C127.294 113.743 124.479 112.063 123.217 106.65H121.146L118.04 111.827ZM133.571 111.827C130.755 107.593 128.662 106.549 124.252 106.65C126.497 111.782 128.455 113.001 133.571 111.827Z" fill="url(#paint5_radial_692_2202)"/>
<path d="M118.04 114.933V111.827C119.967 115.763 119.89 118.074 125.288 119.075C124.119 121.038 123.273 121.636 121.146 121.146C120.755 125.201 120.362 127.472 118.04 131.5V125.287C119.376 121.107 119.126 118.865 118.04 114.933Z" fill="url(#paint6_radial_692_2202)"/>
<path d="M120.11 98.3662C120.019 94.792 119.383 93.3936 118.04 91.1182V105.614C120.356 100.811 121.737 99.4138 124.252 99.4015C122.714 97.8121 121.802 97.3638 120.11 98.3662Z" fill="url(#paint7_radial_692_2202)"/>
<path d="M80.8438 74.9141C80.8438 74.9141 80.4427 74.9355 79.6406 74.9785C78.8529 75.0072 77.6641 75.0573 76.0742 75.1289C76.0456 75.1003 76.0312 74.9857 76.0312 74.7852C76.0312 74.2409 76.1029 73.9688 76.2461 73.9688C76.4609 73.9688 76.7832 73.9186 77.2129 73.8184C77.6426 73.7038 78.0508 73.5677 78.4375 73.4102C78.8242 73.2383 79.0534 73.0664 79.125 72.8945C79.526 72.0781 79.8984 70.7461 80.2422 68.8984L83.3359 52.9141C83.7083 50.8229 83.8659 49.4909 83.8086 48.918C83.7943 48.7604 83.6296 48.6029 83.3145 48.4453C82.9993 48.2878 82.6556 48.1589 82.2832 48.0586C81.9108 47.944 81.6172 47.8867 81.4023 47.8867C81.3451 47.8867 81.3164 47.8294 81.3164 47.7148C81.3164 47.2565 81.4167 46.9271 81.6172 46.7266C82.276 46.7552 82.985 46.7767 83.7441 46.791C84.5176 46.8053 85.3411 46.8125 86.2148 46.8125C86.7878 46.8125 87.5684 46.7982 88.5566 46.7695C89.5592 46.7409 90.7695 46.6979 92.1875 46.6406C93.6055 46.5833 94.8587 46.5404 95.9473 46.5117C97.0358 46.4831 97.9596 46.4688 98.7188 46.4688C98.7044 46.6693 98.6901 46.9128 98.6758 47.1992C98.6758 47.4714 98.6758 47.7865 98.6758 48.1445C98.6758 48.388 98.6758 48.6888 98.6758 49.0469C98.6901 49.3906 98.7044 49.7917 98.7188 50.25C98.7331 50.7083 98.7402 51.1094 98.7402 51.4531C98.7546 51.7969 98.7617 52.0833 98.7617 52.3125C98.6185 52.4557 98.3607 52.5273 97.9883 52.5273C97.6445 52.5273 97.4727 52.4271 97.4727 52.2266C97.3867 50.6224 97.0143 49.6055 96.3555 49.1758C95.6966 48.7461 94.651 48.5312 93.2188 48.5312H90.8984C88.8789 48.5312 87.7904 48.7174 87.6328 49.0898C87.3177 49.9492 87.0599 50.9089 86.8594 51.9688L85.4844 59.4883C85.4844 59.6602 85.6562 59.7604 86 59.7891C86.3438 59.8177 86.7018 59.832 87.0742 59.832H89.0078C89.9531 59.832 90.6979 59.8105 91.2422 59.7676C91.7865 59.7246 92.2161 59.61 92.5312 59.4238C92.8464 59.2376 93.1185 58.9368 93.3477 58.5215C93.5911 58.1061 93.8776 57.526 94.207 56.7812C94.293 56.5807 94.4935 56.4805 94.8086 56.4805C95.1523 56.4805 95.3672 56.5521 95.4531 56.6953L93.8633 64.9453C93.6771 65.0599 93.4766 65.1172 93.2617 65.1172C92.875 65.1172 92.6745 65.0026 92.6602 64.7734C92.6458 64.043 92.5885 63.4629 92.4883 63.0332C92.431 62.7611 92.3809 62.5677 92.3379 62.4531C92.2949 62.3385 92.1875 62.2096 92.0156 62.0664C91.7435 61.8372 90.3542 61.7227 87.8477 61.7227C85.9714 61.7227 84.9974 61.8516 84.9258 62.1094L83.4648 69.5C83.2357 70.6029 83.1211 71.7344 83.1211 72.8945C83.1211 73.1237 83.3646 73.3314 83.8516 73.5176C84.3385 73.7038 84.8255 73.8255 85.3125 73.8828L86.043 73.9688C86.1003 73.9688 86.1289 74.0833 86.1289 74.3125C86.1289 74.6849 86.043 74.957 85.8711 75.1289C84.5391 75.0573 83.4505 75.0072 82.6055 74.9785C81.7747 74.9355 81.1875 74.9141 80.8438 74.9141ZM109.934 56.3086C110.993 56.3086 112.039 56.4948 113.07 56.8672L110.449 70.4453C110.363 70.7891 110.32 71.1471 110.32 71.5195C110.32 72.2357 110.464 72.5938 110.75 72.5938C111.108 72.5938 111.538 72.3431 112.039 71.8418C112.54 71.3262 112.97 70.8893 113.328 70.5312L113.586 70.2305C113.643 70.2305 113.751 70.3665 113.908 70.6387C114.066 70.9108 114.145 71.1042 114.145 71.2188C113.901 71.6341 113.457 72.1641 112.812 72.8086C112.182 73.4531 111.495 74.026 110.75 74.5273C110.005 75.0143 109.332 75.2578 108.73 75.2578C108.272 75.2578 107.914 75.0501 107.656 74.6348C107.398 74.2194 107.27 73.6823 107.27 73.0234C107.27 72.5794 107.37 71.8203 107.57 70.7461L107.721 69.9941C107.764 69.7936 107.785 69.6719 107.785 69.6289C107.556 70.0586 107.227 70.5885 106.797 71.2188C106.367 71.8346 105.873 72.4505 105.314 73.0664C104.756 73.6823 104.169 74.1979 103.553 74.6133C102.937 75.0143 102.328 75.2148 101.727 75.2148C100.466 75.2148 99.4707 74.6491 98.7402 73.5176C98.0098 72.3861 97.6445 71.0182 97.6445 69.4141C97.6445 67.3659 98.2533 65.3249 99.4707 63.291C100.287 61.916 101.261 60.7057 102.393 59.6602C103.538 58.6146 104.763 57.7982 106.066 57.2109C107.37 56.6094 108.659 56.3086 109.934 56.3086ZM108.129 58.2852C107.284 58.2852 106.432 58.5859 105.572 59.1875C104.713 59.7747 103.925 60.5697 103.209 61.5723C102.493 62.5605 101.913 63.6634 101.469 64.8809C101.039 66.084 100.824 67.2943 100.824 68.5117C100.824 71.319 101.555 72.7227 103.016 72.7227C103.531 72.7227 104.09 72.4362 104.691 71.8633C105.293 71.2904 105.887 70.5312 106.475 69.5859C107.062 68.6406 107.577 67.6165 108.021 66.5137C108.48 65.3965 108.816 64.3008 109.031 63.2266L109.891 58.8438C109.547 58.4714 108.96 58.2852 108.129 58.2852ZM117.754 70.7461L121.793 49.9062C121.879 49.4766 121.922 49.0755 121.922 48.7031C121.922 48.1589 121.048 47.8867 119.301 47.8867C119.215 47.8867 119.172 47.8008 119.172 47.6289C119.172 47.2852 119.286 46.9987 119.516 46.7695C121.435 46.5977 123.268 46.1966 125.016 45.5664C125.188 45.6523 125.273 45.9245 125.273 46.3828C125.273 46.6979 125.087 47.7721 124.715 49.6055L120.633 70.4453C120.547 70.7891 120.504 71.1471 120.504 71.5195C120.504 72.2357 120.647 72.5938 120.934 72.5938C121.105 72.5938 121.313 72.515 121.557 72.3574C121.8 72.1999 122.051 72.0065 122.309 71.7773C122.566 71.5482 122.86 71.2546 123.189 70.8965C123.519 70.5241 123.712 70.3021 123.77 70.2305C123.855 70.2305 123.97 70.3665 124.113 70.6387C124.257 70.9108 124.328 71.1042 124.328 71.2188C124.085 71.6341 123.641 72.1641 122.996 72.8086C122.366 73.4531 121.678 74.026 120.934 74.5273C120.189 75.0143 119.516 75.2578 118.914 75.2578C118.484 75.2578 118.133 75.0501 117.861 74.6348C117.589 74.2194 117.453 73.6823 117.453 73.0234C117.453 72.5794 117.553 71.8203 117.754 70.7461ZM139.496 56.3086C140.556 56.3086 141.602 56.4948 142.633 56.8672L140.012 70.4453C139.926 70.7891 139.883 71.1471 139.883 71.5195C139.883 72.2357 140.026 72.5938 140.312 72.5938C140.671 72.5938 141.1 72.3431 141.602 71.8418C142.103 71.3262 142.533 70.8893 142.891 70.5312L143.148 70.2305C143.206 70.2305 143.313 70.3665 143.471 70.6387C143.628 70.9108 143.707 71.1042 143.707 71.2188C143.464 71.6341 143.02 72.1641 142.375 72.8086C141.745 73.4531 141.057 74.026 140.312 74.5273C139.568 75.0143 138.895 75.2578 138.293 75.2578C137.835 75.2578 137.477 75.0501 137.219 74.6348C136.961 74.2194 136.832 73.6823 136.832 73.0234C136.832 72.5794 136.932 71.8203 137.133 70.7461L137.283 69.9941C137.326 69.7936 137.348 69.6719 137.348 69.6289C137.118 70.0586 136.789 70.5885 136.359 71.2188C135.93 71.8346 135.436 72.4505 134.877 73.0664C134.318 73.6823 133.731 74.1979 133.115 74.6133C132.499 75.0143 131.891 75.2148 131.289 75.2148C130.029 75.2148 129.033 74.6491 128.303 73.5176C127.572 72.3861 127.207 71.0182 127.207 69.4141C127.207 67.3659 127.816 65.3249 129.033 63.291C129.85 61.916 130.824 60.7057 131.955 59.6602C133.101 58.6146 134.326 57.7982 135.629 57.2109C136.932 56.6094 138.221 56.3086 139.496 56.3086ZM137.691 58.2852C136.846 58.2852 135.994 58.5859 135.135 59.1875C134.275 59.7747 133.488 60.5697 132.771 61.5723C132.055 62.5605 131.475 63.6634 131.031 64.8809C130.602 66.084 130.387 67.2943 130.387 68.5117C130.387 71.319 131.117 72.7227 132.578 72.7227C133.094 72.7227 133.652 72.4362 134.254 71.8633C134.855 71.2904 135.45 70.5312 136.037 69.5859C136.624 68.6406 137.14 67.6165 137.584 66.5137C138.042 65.3965 138.379 64.3008 138.594 63.2266L139.453 58.8438C139.109 58.4714 138.522 58.2852 137.691 58.2852ZM159.004 56.3086C160.264 56.3086 161.41 56.4948 162.441 56.8672L159.82 70.4453L157.887 81.3164C157.829 81.7174 157.801 82.0182 157.801 82.2188C157.801 82.6914 157.951 83.0208 158.252 83.207C158.567 83.4076 159.076 83.5078 159.777 83.5078C159.835 83.5078 159.863 83.5938 159.863 83.7656C159.863 84.224 159.792 84.5677 159.648 84.7969C159.548 84.7969 159.426 84.7969 159.283 84.7969C159.14 84.7969 158.968 84.7897 158.768 84.7754C158.581 84.7611 158.417 84.7539 158.273 84.7539C158.13 84.7539 158.016 84.7539 157.93 84.7539C155.839 84.7539 153.762 84.8685 151.699 85.0977C151.699 85.026 151.692 84.9473 151.678 84.8613C151.663 84.7754 151.656 84.6823 151.656 84.582C151.656 84.0664 151.728 83.8086 151.871 83.8086C152.129 83.8086 152.408 83.7871 152.709 83.7441C153.01 83.7012 153.425 83.472 153.955 83.0566C154.485 82.6413 154.822 82.0612 154.965 81.3164L157.156 69.6289C156.956 69.9727 156.727 70.3307 156.469 70.7031C156.225 71.0612 155.953 71.4264 155.652 71.7988C155.251 72.3001 154.764 72.8158 154.191 73.3457C153.618 73.8757 153.031 74.3197 152.43 74.6777C151.842 75.0358 151.298 75.2148 150.797 75.2148C149.536 75.2148 148.534 74.6491 147.789 73.5176C147.044 72.3861 146.672 71.0182 146.672 69.4141C146.672 67.3802 147.288 65.3392 148.52 63.291C149.35 61.916 150.331 60.7057 151.463 59.6602C152.609 58.6146 153.833 57.7982 155.137 57.2109C156.44 56.6094 157.729 56.3086 159.004 56.3086ZM157.156 58.2852C156.225 58.2852 155.323 58.5788 154.449 59.166C153.576 59.7533 152.795 60.5267 152.107 61.4863C151.42 62.446 150.868 63.513 150.453 64.6875C150.052 65.8477 149.852 67.0078 149.852 68.168C149.852 71.2044 150.596 72.7227 152.086 72.7227C152.616 72.7227 153.196 72.4362 153.826 71.8633C154.471 71.276 155.101 70.5098 155.717 69.5645C156.333 68.6191 156.877 67.5951 157.35 66.4922C157.837 65.375 158.188 64.2865 158.402 63.2266L159.262 58.8438C158.918 58.4714 158.216 58.2852 157.156 58.2852Z" fill="white"/>
<path d="M0 14.4961C6.30012 20.0984 15.0791 19.1979 30.687 15.1421C32.2497 14.736 33.9168 14.9601 35.3059 15.7832L61.0905 31.063L35.3304 19.6141C33.9205 18.9874 32.3183 18.9353 30.8588 19.4358C12.5496 25.7159 4.73674 24.7283 0 14.4961Z" fill="url(#paint8_radial_692_2202)"/>
<path d="M16.5669 25.8858C22.7094 27.5488 34.4861 19.1752 43.5027 24.2129C35.7991 20.3448 24.9274 34.7378 16.5669 25.8858Z" fill="url(#paint9_radial_692_2202)"/>
<path d="M42.4528 34.1693C40.4746 32.9379 39.8039 31.791 39.5364 30.2054C39.314 28.8871 40.2138 27.6374 41.514 27.3262C46.4064 26.1551 49.6595 27.3172 54.8779 31.063C50.3759 26.3362 46.8249 25.2844 39.6469 25.78C38.7972 25.8387 38.0191 26.2751 37.5081 26.9564L36.1669 28.7446C35.6047 29.4943 35.6307 30.5432 36.2784 31.2205C38.4425 33.4837 39.9798 34.1156 42.4528 34.1693Z" fill="url(#paint10_radial_692_2202)"/>
<path d="M61.0905 28.9921C48.8725 19.5072 53.131 18.6378 60.0551 10.3543C56.6285 8.93238 54.8937 8.83857 52.8071 12.4252C51.2879 8.29387 49.7783 6.42726 45.559 4.14173C43.8524 8.52031 44.6321 10.6991 46.5945 14.4961C42.9378 12.0347 40.7471 11.3823 36.2402 13.4606C46.3046 17.727 45.2926 18.8748 61.0905 28.9921Z" fill="url(#paint11_radial_692_2202)"/>
<path d="M78.6929 22.7441C78.6929 22.1918 79.1406 21.7441 79.6929 21.7441H79.7638C80.3161 21.7441 80.7638 22.1918 80.7638 22.7441V25.9213C80.7638 26.4735 80.3161 26.9213 79.7638 26.9213H74.4803C73.3757 26.9213 72.4803 26.0258 72.4803 24.9213V19.6024C72.4803 18.4978 73.3757 17.6024 74.4803 17.6024H78.7281C80.6137 17.6024 82.4755 18.023 84.178 18.8337V18.8337C85.2965 19.3663 86.1249 20.3629 86.4441 21.5599L88.3399 28.6695C89.2063 31.9182 86.6836 35.0788 83.3237 34.9544L68.0679 34.3894C64.7776 34.2675 62.2002 31.5169 62.2923 28.2256L62.6948 13.8426C62.7856 10.5955 65.4441 8.01038 68.6924 8.01038H83.0387C86.0229 8.01038 88.8896 9.21712 90.915 11.4088C101.807 23.194 109.097 33.3225 115.395 32.2299C115.685 32.1796 115.968 32.3916 115.968 32.686V32.686C115.968 32.9325 115.766 33.1318 115.519 33.1285C109.37 33.045 105.37 32.4313 87.653 13.254C86.5367 12.0456 85.0793 11.1983 83.4735 10.8414L77.8584 9.59364C77.0431 9.41248 76.199 9.4035 75.3801 9.56728L71.091 10.4251C68.2865 10.986 66.2677 13.4485 66.2677 16.3086V27.0984C66.2677 29.8599 68.5063 32.0984 71.2677 32.0984H80.9055C83.1146 32.0984 84.9055 30.3076 84.9055 28.0984V22.6378C84.9055 20.4287 83.1146 18.6378 80.9055 18.6378H76.5512C75.4466 18.6378 74.5512 19.5332 74.5512 20.6378V24.8858C74.5512 25.4381 74.9989 25.8858 75.5512 25.8858H77.6929C78.2452 25.8858 78.6929 25.4381 78.6929 24.8858V22.7441Z" fill="url(#paint12_radial_692_2202)"/>
<path d="M104.412 33.0631C96.4743 29.9513 88.3242 12.4066 78.6929 13.4606C91.6665 19.2326 92.9183 31.4785 104.412 33.0631Z" fill="url(#paint13_radial_692_2202)"/>
<path d="M111.827 30.0276C106.485 21.6827 106.361 16.9143 110.791 8.28346C105.363 9.71409 97.6256 19.5114 111.827 30.0276Z" fill="url(#paint14_radial_692_2202)"/>
<path d="M118.039 10.3543C113.102 14.0549 110.405 23.2793 118.039 32.0984C106.33 25.6888 109.793 12.7713 118.039 0V10.3543Z" fill="url(#paint15_radial_692_2202)"/>
<path d="M236.079 14.4961C229.778 20.0984 221 19.1979 205.392 15.1421C203.829 14.736 202.162 14.9601 200.773 15.7832L174.988 31.063L200.748 19.6141C202.158 18.9874 203.76 18.9353 205.22 19.4358C223.529 25.7159 231.342 24.7283 236.079 14.4961Z" fill="url(#paint16_radial_692_2202)"/>
<path d="M219.512 25.8858C213.369 27.5488 201.593 19.1752 192.576 24.2129C200.279 20.3448 211.151 34.7378 219.512 25.8858Z" fill="url(#paint17_radial_692_2202)"/>
<path d="M193.626 34.1693C195.604 32.9379 196.275 31.791 196.542 30.2054C196.765 28.8871 195.865 27.6374 194.565 27.3262C189.672 26.1551 186.419 27.3172 181.201 31.063C185.703 26.3362 189.254 25.2844 196.432 25.78C197.281 25.8387 198.06 26.2751 198.571 26.9564L199.912 28.7446C200.474 29.4943 200.448 30.5432 199.8 31.2205C197.636 33.4837 196.099 34.1156 193.626 34.1693Z" fill="url(#paint18_radial_692_2202)"/>
<path d="M174.988 28.9921C187.206 19.5072 182.948 18.6378 176.024 10.3543C179.45 8.93238 181.185 8.83857 183.272 12.4252C184.791 8.29387 186.3 6.42726 190.52 4.14173C192.226 8.52031 191.446 10.6991 189.484 14.4961C193.141 12.0347 195.331 11.3823 199.838 13.4606C189.774 17.727 190.786 18.8748 174.988 28.9921Z" fill="url(#paint19_radial_692_2202)"/>
<path d="M157.386 22.7441C157.386 22.1918 156.938 21.7441 156.386 21.7441H156.315C155.763 21.7441 155.315 22.1918 155.315 22.7441V25.9213C155.315 26.4735 155.763 26.9213 156.315 26.9213H161.598C162.703 26.9213 163.598 26.0258 163.598 24.9213V19.6024C163.598 18.4978 162.703 17.6024 161.598 17.6024H157.351C155.465 17.6024 153.603 18.023 151.901 18.8337V18.8337C150.782 19.3663 149.954 20.3629 149.635 21.5599L147.739 28.6695C146.872 31.9182 149.395 35.0788 152.755 34.9544L168.011 34.3894C171.301 34.2675 173.878 31.5169 173.786 28.2256L173.384 13.8426C173.293 10.5955 170.635 8.01038 167.386 8.01038H153.04C150.056 8.01038 147.189 9.21712 145.164 11.4088C134.272 23.194 126.982 33.3225 120.683 32.2299C120.393 32.1796 120.11 32.3916 120.11 32.686V32.686C120.11 32.9325 120.313 33.1318 120.559 33.1285C126.708 33.045 130.709 32.4313 148.426 13.254C149.542 12.0456 150.999 11.1983 152.605 10.8414L158.22 9.59364C159.035 9.41248 159.88 9.4035 160.698 9.56728L164.988 10.4251C167.792 10.986 169.811 13.4485 169.811 16.3086V27.0984C169.811 29.8599 167.572 32.0984 164.811 32.0984H155.173C152.964 32.0984 151.173 30.3076 151.173 28.0984V22.6378C151.173 20.4287 152.964 18.6378 155.173 18.6378H159.527C160.632 18.6378 161.527 19.5332 161.527 20.6378V24.8858C161.527 25.4381 161.08 25.8858 160.527 25.8858H158.386C157.833 25.8858 157.386 25.4381 157.386 24.8858V22.7441Z" fill="url(#paint20_radial_692_2202)"/>
<path d="M131.666 33.0631C139.604 29.9513 147.754 12.4066 157.386 13.4606C144.412 19.2326 143.16 31.4785 131.666 33.0631Z" fill="url(#paint21_radial_692_2202)"/>
<path d="M124.252 30.0276C129.594 21.6827 129.718 16.9143 125.287 8.28346C130.716 9.71409 138.453 19.5114 124.252 30.0276Z" fill="url(#paint22_radial_692_2202)"/>
<path d="M118.039 10.3543C122.976 14.0549 125.673 23.2793 118.039 32.0984C129.749 25.6888 126.286 12.7713 118.039 0V10.3543Z" fill="url(#paint23_radial_692_2202)"/>
<defs>
<radialGradient id="paint0_radial_692_2202" cx="0" cy="0" r="1" gradientUnits="userSpaceOnUse" gradientTransform="translate(79.7285 111.309) scale(38.311 20.1909)">
<stop stop-color="#E1E1E1"/>
<stop offset="1" stop-color="#FFF4DA"/>
</radialGradient>
<radialGradient id="paint1_radial_692_2202" cx="0" cy="0" r="1" gradientUnits="userSpaceOnUse" gradientTransform="translate(79.7285 111.309) scale(38.311 20.1909)">
<stop stop-color="#E1E1E1"/>
<stop offset="1" stop-color="#FFF4DA"/>
</radialGradient>
<radialGradient id="paint2_radial_692_2202" cx="0" cy="0" r="1" gradientUnits="userSpaceOnUse" gradientTransform="translate(79.7285 111.309) scale(38.311 20.1909)">
<stop stop-color="#E1E1E1"/>
<stop offset="1" stop-color="#FFF4DA"/>
</radialGradient>
<radialGradient id="paint3_radial_692_2202" cx="0" cy="0" r="1" gradientUnits="userSpaceOnUse" gradientTransform="translate(79.7285 111.309) scale(38.311 20.1909)">
<stop stop-color="#E1E1E1"/>
<stop offset="1" stop-color="#FFF4DA"/>
</radialGradient>
<radialGradient id="paint4_radial_692_2202" cx="0" cy="0" r="1" gradientUnits="userSpaceOnUse" gradientTransform="translate(156.351 111.309) rotate(180) scale(38.311 20.1909)">
<stop stop-color="#E1E1E1"/>
<stop offset="1" stop-color="#FFF4DA"/>
</radialGradient>
<radialGradient id="paint5_radial_692_2202" cx="0" cy="0" r="1" gradientUnits="userSpaceOnUse" gradientTransform="translate(156.351 111.309) rotate(180) scale(38.311 20.1909)">
<stop stop-color="#E1E1E1"/>
<stop offset="1" stop-color="#FFF4DA"/>
</radialGradient>
<radialGradient id="paint6_radial_692_2202" cx="0" cy="0" r="1" gradientUnits="userSpaceOnUse" gradientTransform="translate(156.351 111.309) rotate(180) scale(38.311 20.1909)">
<stop stop-color="#E1E1E1"/>
<stop offset="1" stop-color="#FFF4DA"/>
</radialGradient>
<radialGradient id="paint7_radial_692_2202" cx="0" cy="0" r="1" gradientUnits="userSpaceOnUse" gradientTransform="translate(156.351 111.309) rotate(180) scale(38.311 20.1909)">
<stop stop-color="#E1E1E1"/>
<stop offset="1" stop-color="#FFF4DA"/>
</radialGradient>
<radialGradient id="paint8_radial_692_2202" cx="0" cy="0" r="1" gradientUnits="userSpaceOnUse" gradientTransform="translate(59.0197 17.6024) scale(59.0197 17.6024)">
<stop stop-color="#E1E1E1"/>
<stop offset="1" stop-color="#FFF4DA"/>
</radialGradient>
<radialGradient id="paint9_radial_692_2202" cx="0" cy="0" r="1" gradientUnits="userSpaceOnUse" gradientTransform="translate(59.0197 17.6024) scale(59.0197 17.6024)">
<stop stop-color="#E1E1E1"/>
<stop offset="1" stop-color="#FFF4DA"/>
</radialGradient>
<radialGradient id="paint10_radial_692_2202" cx="0" cy="0" r="1" gradientUnits="userSpaceOnUse" gradientTransform="translate(59.0197 17.6024) scale(59.0197 17.6024)">
<stop stop-color="#E1E1E1"/>
<stop offset="1" stop-color="#FFF4DA"/>
</radialGradient>
<radialGradient id="paint11_radial_692_2202" cx="0" cy="0" r="1" gradientUnits="userSpaceOnUse" gradientTransform="translate(59.0197 17.6024) scale(59.0197 17.6024)">
<stop stop-color="#E1E1E1"/>
<stop offset="1" stop-color="#FFF4DA"/>
</radialGradient>
<radialGradient id="paint12_radial_692_2202" cx="0" cy="0" r="1" gradientUnits="userSpaceOnUse" gradientTransform="translate(59.0197 17.6024) scale(59.0197 17.6024)">
<stop stop-color="#E1E1E1"/>
<stop offset="1" stop-color="#FFF4DA"/>
</radialGradient>
<radialGradient id="paint13_radial_692_2202" cx="0" cy="0" r="1" gradientUnits="userSpaceOnUse" gradientTransform="translate(59.0197 17.6024) scale(59.0197 17.6024)">
<stop stop-color="#E1E1E1"/>
<stop offset="1" stop-color="#FFF4DA"/>
</radialGradient>
<radialGradient id="paint14_radial_692_2202" cx="0" cy="0" r="1" gradientUnits="userSpaceOnUse" gradientTransform="translate(59.0197 17.6024) scale(59.0197 17.6024)">
<stop stop-color="#E1E1E1"/>
<stop offset="1" stop-color="#FFF4DA"/>
</radialGradient>
<radialGradient id="paint15_radial_692_2202" cx="0" cy="0" r="1" gradientUnits="userSpaceOnUse" gradientTransform="translate(59.0197 17.6024) scale(59.0197 17.6024)">
<stop stop-color="#E1E1E1"/>
<stop offset="1" stop-color="#FFF4DA"/>
</radialGradient>
<radialGradient id="paint16_radial_692_2202" cx="0" cy="0" r="1" gradientUnits="userSpaceOnUse" gradientTransform="translate(177.059 17.6024) rotate(180) scale(59.0197 17.6024)">
<stop stop-color="#E1E1E1"/>
<stop offset="1" stop-color="#FFF4DA"/>
</radialGradient>
<radialGradient id="paint17_radial_692_2202" cx="0" cy="0" r="1" gradientUnits="userSpaceOnUse" gradientTransform="translate(177.059 17.6024) rotate(180) scale(59.0197 17.6024)">
<stop stop-color="#E1E1E1"/>
<stop offset="1" stop-color="#FFF4DA"/>
</radialGradient>
<radialGradient id="paint18_radial_692_2202" cx="0" cy="0" r="1" gradientUnits="userSpaceOnUse" gradientTransform="translate(177.059 17.6024) rotate(180) scale(59.0197 17.6024)">
<stop stop-color="#E1E1E1"/>
<stop offset="1" stop-color="#FFF4DA"/>
</radialGradient>
<radialGradient id="paint19_radial_692_2202" cx="0" cy="0" r="1" gradientUnits="userSpaceOnUse" gradientTransform="translate(177.059 17.6024) rotate(180) scale(59.0197 17.6024)">
<stop stop-color="#E1E1E1"/>
<stop offset="1" stop-color="#FFF4DA"/>
</radialGradient>
<radialGradient id="paint20_radial_692_2202" cx="0" cy="0" r="1" gradientUnits="userSpaceOnUse" gradientTransform="translate(177.059 17.6024) rotate(180) scale(59.0197 17.6024)">
<stop stop-color="#E1E1E1"/>
<stop offset="1" stop-color="#FFF4DA"/>
</radialGradient>
<radialGradient id="paint21_radial_692_2202" cx="0" cy="0" r="1" gradientUnits="userSpaceOnUse" gradientTransform="translate(177.059 17.6024) rotate(180) scale(59.0197 17.6024)">
<stop stop-color="#E1E1E1"/>
<stop offset="1" stop-color="#FFF4DA"/>
</radialGradient>
<radialGradient id="paint22_radial_692_2202" cx="0" cy="0" r="1" gradientUnits="userSpaceOnUse" gradientTransform="translate(177.059 17.6024) rotate(180) scale(59.0197 17.6024)">
<stop stop-color="#E1E1E1"/>
<stop offset="1" stop-color="#FFF4DA"/>
</radialGradient>
<radialGradient id="paint23_radial_692_2202" cx="0" cy="0" r="1" gradientUnits="userSpaceOnUse" gradientTransform="translate(177.059 17.6024) rotate(180) scale(59.0197 17.6024)">
<stop stop-color="#E1E1E1"/>
<stop offset="1" stop-color="#FFF4DA"/>
</radialGradient>
</defs>
</svg>
