<svg width="237" height="132" viewBox="0 0 237 132" fill="none" xmlns="http://www.w3.org/2000/svg">
<path d="M50.713 108.06C49.3894 108.487 47.9219 108.504 46.7174 107.809C44.5799 106.575 44.1417 105.154 44.5239 102.508V102.508C42.8803 103.056 42.0634 104.953 43.0344 106.388C43.9981 107.812 45.0942 108.974 46.6272 110.246C47.9176 111.316 49.57 111.855 51.2463 111.812C56.4411 111.679 59.0354 110.851 62.1261 108.72C61.1055 110.641 61.1623 111.76 61.9889 113.6C62.061 113.76 62.2573 113.822 62.4081 113.731C64.083 112.73 65.0044 111.892 66.2679 109.756C66.2159 114.032 66.9848 113.977 70.4096 114.933C67.5199 110.86 68.053 109.221 70.1985 106.254C70.9963 105.151 72.1264 104.331 73.4058 103.866L78.5781 101.985C81.3347 100.982 84.3491 100.942 87.1317 101.869L104.174 107.55C104.308 107.435 104.443 107.326 104.579 107.223V104.508C104.579 103.403 105.474 102.508 106.579 102.508H108.791C109.896 102.508 110.791 103.403 110.791 104.508V105.614H111.827V103.472C111.827 102.368 110.931 101.472 109.827 101.472H105.543C104.439 101.472 103.543 102.368 103.543 103.472V106.65C98.7741 103.748 93.5326 101.584 86.7262 99.7769C82.8461 98.747 78.7539 99.0145 74.9333 100.247L50.713 108.06Z" fill="url(#paint0_radial_692_1544)"/>
<path fill-rule="evenodd" clip-rule="evenodd" d="M118.04 111.827V108.721C115.458 105.74 114.164 105.799 111.827 105.614H110.791C108.063 105.589 106.223 105.979 104.579 107.223V107.685L104.174 107.55C103.27 108.327 102.41 109.382 101.473 110.791C94.423 108.167 92.2423 105.859 84.6309 104.117C82.7932 103.696 80.8384 103.854 79.1738 104.739C77.1411 105.82 75.7483 107.075 74.4009 109.235C73.7981 110.201 73.7054 111.42 74.2151 112.438C75.05 114.107 76.2503 115.417 79.1381 117.128C80.1191 117.709 81.351 117.62 82.2789 116.957L86.2804 114.099C87.2189 113.429 87.4133 112.09 86.6216 111.251C84.8307 109.354 83.7232 109.09 81.7994 109.756C83.0247 110.067 83.7478 110.456 84.3965 111.688C84.7601 112.378 84.5523 113.216 84.0005 113.767L82.2759 115.492C81.3711 116.397 79.9668 116.664 78.906 115.948C77.392 114.927 76.4786 113.802 75.488 112.283C74.8942 111.372 74.8544 110.185 75.4804 109.296C77.1885 106.871 79.0768 106.022 82.8348 105.614C87.5143 105.758 93.9739 109.592 101.473 112.862C101.611 115.305 101.827 117.608 105.431 119.531C106.15 119.915 107.027 119.733 107.604 119.156L110.252 116.508C110.55 116.21 110.55 115.727 110.252 115.429V115.429C109.972 115.149 109.522 115.134 109.211 115.381C104.883 118.812 103.35 117.017 102.508 112.862C108.785 113.743 111.601 112.063 112.862 106.65H114.933L118.04 111.827ZM102.508 111.827C105.324 107.593 107.417 106.549 111.827 106.65C109.582 111.782 107.624 113.001 102.508 111.827Z" fill="url(#paint1_radial_692_1544)"/>
<path d="M118.04 114.933V111.827C116.112 115.763 116.189 118.074 110.791 119.075C111.96 121.038 112.806 121.636 114.933 121.146C115.325 125.201 115.718 127.472 118.04 131.5V125.287C116.703 121.107 116.953 118.865 118.04 114.933Z" fill="url(#paint2_radial_692_1544)"/>
<path d="M115.969 98.3662C116.06 94.792 116.696 93.3936 118.04 91.1182V105.614C115.723 100.811 114.342 99.4138 111.827 99.4015C113.365 97.8121 114.277 97.3638 115.969 98.3662Z" fill="url(#paint3_radial_692_1544)"/>
<path d="M185.366 108.06C186.69 108.487 188.157 108.504 189.362 107.809C191.499 106.575 191.937 105.154 191.555 102.508V102.508C193.199 103.056 194.016 104.953 193.045 106.388C192.081 107.812 190.985 108.974 189.452 110.246C188.161 111.316 186.509 111.855 184.833 111.812C179.638 111.679 177.044 110.851 173.953 108.72C174.974 110.641 174.917 111.76 174.09 113.6C174.018 113.76 173.822 113.822 173.671 113.731C171.996 112.73 171.075 111.892 169.811 109.756C169.863 114.032 169.094 113.977 165.669 114.933C168.559 110.86 168.026 109.221 165.881 106.254C165.083 105.151 163.953 104.331 162.673 103.866L157.501 101.985C154.744 100.982 151.73 100.942 148.947 101.869L131.905 107.55C131.771 107.435 131.636 107.326 131.5 107.223V104.508C131.5 103.403 130.605 102.508 129.5 102.508H127.288C126.183 102.508 125.288 103.403 125.288 104.508V105.614H124.252V103.472C124.252 102.368 125.148 101.472 126.252 101.472H130.536C131.64 101.472 132.536 102.368 132.536 103.472V106.65C137.305 103.748 142.547 101.584 149.353 99.7769C153.233 98.747 157.325 99.0145 161.146 100.247L185.366 108.06Z" fill="url(#paint4_radial_692_1544)"/>
<path fill-rule="evenodd" clip-rule="evenodd" d="M118.04 111.827V108.721C120.621 105.74 121.915 105.799 124.252 105.614H125.288C128.016 105.589 129.856 105.979 131.5 107.223V107.685L131.905 107.55C132.809 108.327 133.669 109.382 134.607 110.791C141.656 108.167 143.837 105.859 151.448 104.117C153.286 103.696 155.241 103.854 156.905 104.739C158.938 105.82 160.331 107.075 161.678 109.235C162.281 110.201 162.374 111.42 161.864 112.438C161.029 114.107 159.829 115.417 156.941 117.128C155.96 117.709 154.728 117.62 153.8 116.957L149.799 114.099C148.86 113.429 148.666 112.09 149.457 111.251C151.248 109.354 152.356 109.09 154.28 109.756C153.054 110.067 152.331 110.456 151.683 111.688C151.319 112.378 151.527 113.216 152.079 113.767L153.803 115.492C154.708 116.397 156.112 116.664 157.173 115.948C158.687 114.927 159.601 113.802 160.591 112.283C161.185 111.372 161.225 110.185 160.599 109.296C158.891 106.871 157.002 106.022 153.244 105.614C148.565 105.758 142.105 109.592 134.607 112.862C134.468 115.305 134.252 117.608 130.648 119.531C129.929 119.915 129.052 119.733 128.475 119.156L125.827 116.508C125.529 116.21 125.529 115.727 125.827 115.429V115.429C126.107 115.149 126.557 115.134 126.868 115.381C131.196 118.812 132.729 117.017 133.571 112.862C127.294 113.743 124.479 112.063 123.217 106.65H121.146L118.04 111.827ZM133.571 111.827C130.755 107.593 128.662 106.549 124.252 106.65C126.497 111.782 128.455 113.001 133.571 111.827Z" fill="url(#paint5_radial_692_1544)"/>
<path d="M118.04 114.933V111.827C119.967 115.763 119.89 118.074 125.288 119.075C124.119 121.038 123.273 121.636 121.146 121.146C120.755 125.201 120.362 127.472 118.04 131.5V125.287C119.376 121.107 119.126 118.865 118.04 114.933Z" fill="url(#paint6_radial_692_1544)"/>
<path d="M120.11 98.3662C120.019 94.792 119.383 93.3936 118.04 91.1182V105.614C120.356 100.811 121.737 99.4138 124.252 99.4015C122.714 97.8121 121.802 97.3638 120.11 98.3662Z" fill="url(#paint7_radial_692_1544)"/>
<path d="M85.8438 74.9141C85.8438 74.9141 85.4427 74.9355 84.6406 74.9785C83.8529 75.0072 82.6641 75.0573 81.0742 75.1289C81.0456 75.1003 81.0312 74.9857 81.0312 74.7852C81.0312 74.2409 81.1029 73.9688 81.2461 73.9688C81.4609 73.9688 81.7832 73.9186 82.2129 73.8184C82.6426 73.7038 83.0508 73.5677 83.4375 73.4102C83.8242 73.2383 84.0534 73.0664 84.125 72.8945C84.526 72.0781 84.8984 70.7461 85.2422 68.8984L88.3359 52.9141C88.7083 50.8229 88.8659 49.4909 88.8086 48.918C88.7943 48.7604 88.6296 48.6029 88.3145 48.4453C87.9993 48.2878 87.6556 48.1589 87.2832 48.0586C86.9108 47.944 86.6172 47.8867 86.4023 47.8867C86.3451 47.8867 86.3164 47.8294 86.3164 47.7148C86.3164 47.2565 86.4167 46.9271 86.6172 46.7266C87.276 46.7552 87.985 46.7767 88.7441 46.791C89.5176 46.8053 90.3411 46.8125 91.2148 46.8125C91.7878 46.8125 92.5684 46.7982 93.5566 46.7695C94.5592 46.7409 95.7695 46.6979 97.1875 46.6406C98.6055 46.5833 99.8587 46.5404 100.947 46.5117C102.036 46.4831 102.96 46.4688 103.719 46.4688C103.704 46.6693 103.69 46.9128 103.676 47.1992C103.676 47.4714 103.676 47.7865 103.676 48.1445C103.676 48.388 103.676 48.6888 103.676 49.0469C103.69 49.3906 103.704 49.7917 103.719 50.25C103.733 50.7083 103.74 51.1094 103.74 51.4531C103.755 51.7969 103.762 52.0833 103.762 52.3125C103.618 52.4557 103.361 52.5273 102.988 52.5273C102.645 52.5273 102.473 52.4271 102.473 52.2266C102.387 50.6224 102.014 49.6055 101.355 49.1758C100.697 48.7461 99.651 48.5312 98.2188 48.5312H95.8984C93.8789 48.5312 92.7904 48.7174 92.6328 49.0898C92.3177 49.9492 92.0599 50.9089 91.8594 51.9688L90.4844 59.4883C90.4844 59.6602 90.6562 59.7604 91 59.7891C91.3438 59.8177 91.7018 59.832 92.0742 59.832H94.0078C94.9531 59.832 95.6979 59.8105 96.2422 59.7676C96.7865 59.7246 97.2161 59.61 97.5312 59.4238C97.8464 59.2376 98.1185 58.9368 98.3477 58.5215C98.5911 58.1061 98.8776 57.526 99.207 56.7812C99.293 56.5807 99.4935 56.4805 99.8086 56.4805C100.152 56.4805 100.367 56.5521 100.453 56.6953L98.8633 64.9453C98.6771 65.0599 98.4766 65.1172 98.2617 65.1172C97.875 65.1172 97.6745 65.0026 97.6602 64.7734C97.6458 64.043 97.5885 63.4629 97.4883 63.0332C97.431 62.7611 97.3809 62.5677 97.3379 62.4531C97.2949 62.3385 97.1875 62.2096 97.0156 62.0664C96.7435 61.8372 95.3542 61.7227 92.8477 61.7227C90.9714 61.7227 89.9974 61.8516 89.9258 62.1094L88.4648 69.5C88.2357 70.6029 88.1211 71.7344 88.1211 72.8945C88.1211 73.1237 88.3646 73.3314 88.8516 73.5176C89.3385 73.7038 89.8255 73.8255 90.3125 73.8828L91.043 73.9688C91.1003 73.9688 91.1289 74.0833 91.1289 74.3125C91.1289 74.6849 91.043 74.957 90.8711 75.1289C89.5391 75.0573 88.4505 75.0072 87.6055 74.9785C86.7747 74.9355 86.1875 74.9141 85.8438 74.9141ZM112.227 56.3086C113.917 56.3086 115.227 56.8958 116.158 58.0703C117.089 59.2448 117.555 60.8633 117.555 62.9258C117.555 64.401 117.268 65.8691 116.695 67.3301C116.122 68.7767 115.37 70.0944 114.439 71.2832C113.508 72.472 112.484 73.4245 111.367 74.1406C110.25 74.8568 109.147 75.2148 108.059 75.2148C106.34 75.2148 105.029 74.6562 104.127 73.5391C103.225 72.4219 102.773 70.832 102.773 68.7695C102.773 67.2799 103.053 65.8047 103.611 64.3438C104.184 62.8685 104.936 61.5293 105.867 60.3262C106.798 59.1087 107.815 58.1348 108.918 57.4043C110.035 56.6738 111.138 56.3086 112.227 56.3086ZM111.711 58.0703C110.995 58.0703 110.3 58.3854 109.627 59.0156C108.954 59.6315 108.345 60.4408 107.801 61.4434C107.257 62.446 106.827 63.5417 106.512 64.7305C106.197 65.9193 106.039 67.0794 106.039 68.2109C106.039 69.8724 106.304 71.1615 106.834 72.0781C107.364 72.9948 108.03 73.4531 108.832 73.4531C109.548 73.4531 110.229 73.1452 110.873 72.5293C111.532 71.8991 112.119 71.0827 112.635 70.0801C113.15 69.0632 113.551 67.9603 113.838 66.7715C114.139 65.5827 114.289 64.4154 114.289 63.2695C114.289 61.5794 114.06 60.2904 113.602 59.4023C113.143 58.5143 112.513 58.0703 111.711 58.0703ZM121.938 56.9531H124.945L125.977 51.7109C126.062 51.4245 126.764 51.2812 128.082 51.2812C128.368 51.2812 128.626 51.2956 128.855 51.3242L127.781 56.9531H131.691C131.835 56.9531 131.906 57.1393 131.906 57.5117C131.906 57.8411 131.777 58.2565 131.52 58.7578H127.438L125.16 70.4453C125.074 70.7891 125.031 71.1471 125.031 71.5195C125.031 72.2357 125.174 72.5938 125.461 72.5938C125.819 72.5938 126.249 72.3431 126.75 71.8418C127.251 71.3262 127.681 70.8893 128.039 70.5312L128.297 70.2305C128.354 70.2305 128.462 70.3665 128.619 70.6387C128.777 70.9108 128.855 71.1042 128.855 71.2188C128.612 71.6341 128.168 72.1641 127.523 72.8086C126.893 73.4531 126.206 74.026 125.461 74.5273C124.716 75.0143 124.043 75.2578 123.441 75.2578C122.983 75.2578 122.625 75.0501 122.367 74.6348C122.109 74.2194 121.98 73.6823 121.98 73.0234C121.98 72.5938 122.081 71.8346 122.281 70.7461L124.602 58.7578H121.551C121.465 58.7578 121.422 58.6003 121.422 58.2852C121.422 57.9128 121.594 57.4688 121.938 56.9531ZM138.996 47.2422C139.426 47.2422 139.791 47.4141 140.092 47.7578C140.393 48.1016 140.543 48.5026 140.543 48.9609C140.543 49.6484 140.321 50.25 139.877 50.7656C139.433 51.2812 138.882 51.5391 138.223 51.5391C137.764 51.5391 137.406 51.36 137.148 51.002C136.891 50.6439 136.762 50.207 136.762 49.6914C136.762 49.0326 136.977 48.4596 137.406 47.9727C137.836 47.4857 138.366 47.2422 138.996 47.2422ZM137.75 56.3086C138.208 56.3086 138.566 56.5163 138.824 56.9316C139.082 57.347 139.211 57.8841 139.211 58.543C139.211 59.1302 139.125 59.8893 138.953 60.8203L137.062 70.4453C136.977 70.7891 136.934 71.1471 136.934 71.5195C136.934 72.2357 137.077 72.5938 137.363 72.5938C137.721 72.5938 138.151 72.3431 138.652 71.8418C139.154 71.3262 139.583 70.8893 139.941 70.5312L140.199 70.2305C140.257 70.2305 140.364 70.3665 140.521 70.6387C140.679 70.9108 140.758 71.1042 140.758 71.2188C140.514 71.6341 140.07 72.1641 139.426 72.8086C138.796 73.4531 138.108 74.026 137.363 74.5273C136.618 75.0143 135.945 75.2578 135.344 75.2578C134.885 75.2578 134.527 75.0501 134.27 74.6348C134.012 74.2194 133.883 73.6823 133.883 73.0234C133.883 72.5938 133.983 71.8346 134.184 70.7461L135.945 61.7656C136.089 60.9206 136.16 60.3477 136.16 60.0469C136.16 59.3307 136.017 58.9727 135.73 58.9727C135.559 58.9727 135.322 59.0872 135.021 59.3164C134.735 59.5456 134.456 59.8034 134.184 60.0898C133.911 60.362 133.711 60.5768 133.582 60.7344L133.367 60.9922C133.31 60.9922 133.202 60.8561 133.045 60.584C132.887 60.3118 132.809 60.1185 132.809 60.0039C133.038 59.6172 133.453 59.1374 134.055 58.5645C134.656 57.9772 135.301 57.4544 135.988 56.9961C136.676 56.5378 137.263 56.3086 137.75 56.3086ZM149.48 56.3086C149.939 56.3086 150.297 56.5163 150.555 56.9316C150.812 57.347 150.941 57.8841 150.941 58.543C150.941 59.1732 150.855 59.9323 150.684 60.8203L149.996 64.4297C150.354 63.5846 150.812 62.6966 151.371 61.7656C151.944 60.8203 152.553 59.9323 153.197 59.1016C153.842 58.2708 154.479 57.5977 155.109 57.082C155.74 56.5664 156.298 56.3086 156.785 56.3086C157.759 56.3086 158.547 56.7669 159.148 57.6836C159.148 59.6029 158.618 60.5625 157.559 60.5625C157.329 60.5625 157.057 60.3835 156.742 60.0254C156.427 59.6673 156.098 59.4883 155.754 59.4883C155.339 59.4883 154.794 59.832 154.121 60.5195C153.448 61.207 152.753 62.1094 152.037 63.2266C151.321 64.3294 150.676 65.5254 150.104 66.8145C149.531 68.0892 149.137 69.3138 148.922 70.4883L148.105 75C147.618 75.0859 147.146 75.1289 146.688 75.1289C146.143 75.1289 145.613 75.0859 145.098 75L147.676 61.7656C147.819 60.7773 147.891 60.2044 147.891 60.0469C147.891 59.3307 147.747 58.9727 147.461 58.9727C147.217 58.9727 146.852 59.2018 146.365 59.6602C146.136 59.8893 145.885 60.14 145.613 60.4121C145.355 60.6842 145.184 60.8776 145.098 60.9922C145.04 60.9922 144.933 60.8561 144.775 60.584C144.618 60.3118 144.539 60.1185 144.539 60.0039C144.768 59.6172 145.184 59.1374 145.785 58.5645C146.387 57.9772 147.031 57.4544 147.719 56.9961C148.406 56.5378 148.993 56.3086 149.48 56.3086Z" fill="white"/>
<path d="M0 14.4961C6.30012 20.0984 15.0791 19.1979 30.687 15.1421C32.2497 14.736 33.9168 14.9601 35.3059 15.7832L61.0905 31.063L35.3304 19.6141C33.9205 18.9874 32.3183 18.9353 30.8588 19.4358C12.5496 25.7159 4.73674 24.7283 0 14.4961Z" fill="url(#paint8_radial_692_1544)"/>
<path d="M16.5669 25.8858C22.7094 27.5488 34.4861 19.1752 43.5027 24.2129C35.7991 20.3448 24.9274 34.7378 16.5669 25.8858Z" fill="url(#paint9_radial_692_1544)"/>
<path d="M42.4528 34.1693C40.4746 32.9379 39.8039 31.791 39.5364 30.2054C39.314 28.8871 40.2138 27.6374 41.514 27.3262C46.4064 26.1551 49.6595 27.3172 54.8779 31.063C50.3759 26.3362 46.8249 25.2844 39.6469 25.78C38.7972 25.8387 38.0191 26.2751 37.5081 26.9564L36.1669 28.7446C35.6047 29.4943 35.6307 30.5432 36.2784 31.2205C38.4425 33.4837 39.9798 34.1156 42.4528 34.1693Z" fill="url(#paint10_radial_692_1544)"/>
<path d="M61.0905 28.9921C48.8725 19.5072 53.131 18.6378 60.0551 10.3543C56.6285 8.93238 54.8937 8.83857 52.8071 12.4252C51.2879 8.29387 49.7783 6.42726 45.559 4.14173C43.8524 8.52031 44.6321 10.6991 46.5945 14.4961C42.9378 12.0347 40.7471 11.3823 36.2402 13.4606C46.3046 17.727 45.2926 18.8748 61.0905 28.9921Z" fill="url(#paint11_radial_692_1544)"/>
<path d="M78.6929 22.7441C78.6929 22.1918 79.1406 21.7441 79.6929 21.7441H79.7638C80.3161 21.7441 80.7638 22.1918 80.7638 22.7441V25.9213C80.7638 26.4735 80.3161 26.9213 79.7638 26.9213H74.4803C73.3757 26.9213 72.4803 26.0258 72.4803 24.9213V19.6024C72.4803 18.4978 73.3757 17.6024 74.4803 17.6024H78.7281C80.6137 17.6024 82.4755 18.023 84.178 18.8337V18.8337C85.2965 19.3663 86.1249 20.3629 86.4441 21.5599L88.3399 28.6695C89.2063 31.9182 86.6836 35.0788 83.3237 34.9544L68.0679 34.3894C64.7776 34.2675 62.2002 31.5169 62.2923 28.2256L62.6948 13.8426C62.7856 10.5955 65.4441 8.01038 68.6924 8.01038H83.0387C86.0229 8.01038 88.8896 9.21712 90.915 11.4088C101.807 23.194 109.097 33.3225 115.395 32.2299C115.685 32.1796 115.968 32.3916 115.968 32.686V32.686C115.968 32.9325 115.766 33.1318 115.519 33.1285C109.37 33.045 105.37 32.4313 87.653 13.254C86.5367 12.0456 85.0793 11.1983 83.4735 10.8414L77.8584 9.59364C77.0431 9.41248 76.199 9.4035 75.3801 9.56728L71.091 10.4251C68.2865 10.986 66.2677 13.4485 66.2677 16.3086V27.0984C66.2677 29.8599 68.5063 32.0984 71.2677 32.0984H80.9055C83.1146 32.0984 84.9055 30.3076 84.9055 28.0984V22.6378C84.9055 20.4287 83.1146 18.6378 80.9055 18.6378H76.5512C75.4466 18.6378 74.5512 19.5332 74.5512 20.6378V24.8858C74.5512 25.4381 74.9989 25.8858 75.5512 25.8858H77.6929C78.2452 25.8858 78.6929 25.4381 78.6929 24.8858V22.7441Z" fill="url(#paint12_radial_692_1544)"/>
<path d="M104.412 33.0631C96.4743 29.9513 88.3242 12.4066 78.6929 13.4606C91.6665 19.2326 92.9183 31.4785 104.412 33.0631Z" fill="url(#paint13_radial_692_1544)"/>
<path d="M111.827 30.0276C106.485 21.6827 106.361 16.9143 110.791 8.28346C105.363 9.71409 97.6256 19.5114 111.827 30.0276Z" fill="url(#paint14_radial_692_1544)"/>
<path d="M118.039 10.3543C113.102 14.0549 110.405 23.2793 118.039 32.0984C106.33 25.6888 109.793 12.7713 118.039 0V10.3543Z" fill="url(#paint15_radial_692_1544)"/>
<path d="M236.079 14.4961C229.778 20.0984 221 19.1979 205.392 15.1421C203.829 14.736 202.162 14.9601 200.773 15.7832L174.988 31.063L200.748 19.6141C202.158 18.9874 203.76 18.9353 205.22 19.4358C223.529 25.7159 231.342 24.7283 236.079 14.4961Z" fill="url(#paint16_radial_692_1544)"/>
<path d="M219.512 25.8858C213.369 27.5488 201.593 19.1752 192.576 24.2129C200.279 20.3448 211.151 34.7378 219.512 25.8858Z" fill="url(#paint17_radial_692_1544)"/>
<path d="M193.626 34.1693C195.604 32.9379 196.275 31.791 196.542 30.2054C196.765 28.8871 195.865 27.6374 194.565 27.3262C189.672 26.1551 186.419 27.3172 181.201 31.063C185.703 26.3362 189.254 25.2844 196.432 25.78C197.281 25.8387 198.06 26.2751 198.571 26.9564L199.912 28.7446C200.474 29.4943 200.448 30.5432 199.8 31.2205C197.636 33.4837 196.099 34.1156 193.626 34.1693Z" fill="url(#paint18_radial_692_1544)"/>
<path d="M174.988 28.9921C187.206 19.5072 182.948 18.6378 176.024 10.3543C179.45 8.93238 181.185 8.83857 183.272 12.4252C184.791 8.29387 186.3 6.42726 190.52 4.14173C192.226 8.52031 191.446 10.6991 189.484 14.4961C193.141 12.0347 195.331 11.3823 199.838 13.4606C189.774 17.727 190.786 18.8748 174.988 28.9921Z" fill="url(#paint19_radial_692_1544)"/>
<path d="M157.386 22.7441C157.386 22.1918 156.938 21.7441 156.386 21.7441H156.315C155.763 21.7441 155.315 22.1918 155.315 22.7441V25.9213C155.315 26.4735 155.763 26.9213 156.315 26.9213H161.598C162.703 26.9213 163.598 26.0258 163.598 24.9213V19.6024C163.598 18.4978 162.703 17.6024 161.598 17.6024H157.351C155.465 17.6024 153.603 18.023 151.901 18.8337V18.8337C150.782 19.3663 149.954 20.3629 149.635 21.5599L147.739 28.6695C146.872 31.9182 149.395 35.0788 152.755 34.9544L168.011 34.3894C171.301 34.2675 173.878 31.5169 173.786 28.2256L173.384 13.8426C173.293 10.5955 170.635 8.01038 167.386 8.01038H153.04C150.056 8.01038 147.189 9.21712 145.164 11.4088C134.272 23.194 126.982 33.3225 120.683 32.2299C120.393 32.1796 120.11 32.3916 120.11 32.686V32.686C120.11 32.9325 120.313 33.1318 120.559 33.1285C126.708 33.045 130.709 32.4313 148.426 13.254C149.542 12.0456 150.999 11.1983 152.605 10.8414L158.22 9.59364C159.035 9.41248 159.88 9.4035 160.698 9.56728L164.988 10.4251C167.792 10.986 169.811 13.4485 169.811 16.3086V27.0984C169.811 29.8599 167.572 32.0984 164.811 32.0984H155.173C152.964 32.0984 151.173 30.3076 151.173 28.0984V22.6378C151.173 20.4287 152.964 18.6378 155.173 18.6378H159.527C160.632 18.6378 161.527 19.5332 161.527 20.6378V24.8858C161.527 25.4381 161.08 25.8858 160.527 25.8858H158.386C157.833 25.8858 157.386 25.4381 157.386 24.8858V22.7441Z" fill="url(#paint20_radial_692_1544)"/>
<path d="M131.666 33.0631C139.604 29.9513 147.754 12.4066 157.386 13.4606C144.412 19.2326 143.16 31.4785 131.666 33.0631Z" fill="url(#paint21_radial_692_1544)"/>
<path d="M124.252 30.0276C129.594 21.6827 129.718 16.9143 125.287 8.28346C130.716 9.71409 138.453 19.5114 124.252 30.0276Z" fill="url(#paint22_radial_692_1544)"/>
<path d="M118.039 10.3543C122.976 14.0549 125.673 23.2793 118.039 32.0984C129.749 25.6888 126.286 12.7713 118.039 0V10.3543Z" fill="url(#paint23_radial_692_1544)"/>
<defs>
<radialGradient id="paint0_radial_692_1544" cx="0" cy="0" r="1" gradientUnits="userSpaceOnUse" gradientTransform="translate(79.7285 111.309) scale(38.311 20.1909)">
<stop stop-color="#E1E1E1"/>
<stop offset="1" stop-color="#FFF4DA"/>
</radialGradient>
<radialGradient id="paint1_radial_692_1544" cx="0" cy="0" r="1" gradientUnits="userSpaceOnUse" gradientTransform="translate(79.7285 111.309) scale(38.311 20.1909)">
<stop stop-color="#E1E1E1"/>
<stop offset="1" stop-color="#FFF4DA"/>
</radialGradient>
<radialGradient id="paint2_radial_692_1544" cx="0" cy="0" r="1" gradientUnits="userSpaceOnUse" gradientTransform="translate(79.7285 111.309) scale(38.311 20.1909)">
<stop stop-color="#E1E1E1"/>
<stop offset="1" stop-color="#FFF4DA"/>
</radialGradient>
<radialGradient id="paint3_radial_692_1544" cx="0" cy="0" r="1" gradientUnits="userSpaceOnUse" gradientTransform="translate(79.7285 111.309) scale(38.311 20.1909)">
<stop stop-color="#E1E1E1"/>
<stop offset="1" stop-color="#FFF4DA"/>
</radialGradient>
<radialGradient id="paint4_radial_692_1544" cx="0" cy="0" r="1" gradientUnits="userSpaceOnUse" gradientTransform="translate(156.351 111.309) rotate(180) scale(38.311 20.1909)">
<stop stop-color="#E1E1E1"/>
<stop offset="1" stop-color="#FFF4DA"/>
</radialGradient>
<radialGradient id="paint5_radial_692_1544" cx="0" cy="0" r="1" gradientUnits="userSpaceOnUse" gradientTransform="translate(156.351 111.309) rotate(180) scale(38.311 20.1909)">
<stop stop-color="#E1E1E1"/>
<stop offset="1" stop-color="#FFF4DA"/>
</radialGradient>
<radialGradient id="paint6_radial_692_1544" cx="0" cy="0" r="1" gradientUnits="userSpaceOnUse" gradientTransform="translate(156.351 111.309) rotate(180) scale(38.311 20.1909)">
<stop stop-color="#E1E1E1"/>
<stop offset="1" stop-color="#FFF4DA"/>
</radialGradient>
<radialGradient id="paint7_radial_692_1544" cx="0" cy="0" r="1" gradientUnits="userSpaceOnUse" gradientTransform="translate(156.351 111.309) rotate(180) scale(38.311 20.1909)">
<stop stop-color="#E1E1E1"/>
<stop offset="1" stop-color="#FFF4DA"/>
</radialGradient>
<radialGradient id="paint8_radial_692_1544" cx="0" cy="0" r="1" gradientUnits="userSpaceOnUse" gradientTransform="translate(59.0197 17.6024) scale(59.0197 17.6024)">
<stop stop-color="#E1E1E1"/>
<stop offset="1" stop-color="#FFF4DA"/>
</radialGradient>
<radialGradient id="paint9_radial_692_1544" cx="0" cy="0" r="1" gradientUnits="userSpaceOnUse" gradientTransform="translate(59.0197 17.6024) scale(59.0197 17.6024)">
<stop stop-color="#E1E1E1"/>
<stop offset="1" stop-color="#FFF4DA"/>
</radialGradient>
<radialGradient id="paint10_radial_692_1544" cx="0" cy="0" r="1" gradientUnits="userSpaceOnUse" gradientTransform="translate(59.0197 17.6024) scale(59.0197 17.6024)">
<stop stop-color="#E1E1E1"/>
<stop offset="1" stop-color="#FFF4DA"/>
</radialGradient>
<radialGradient id="paint11_radial_692_1544" cx="0" cy="0" r="1" gradientUnits="userSpaceOnUse" gradientTransform="translate(59.0197 17.6024) scale(59.0197 17.6024)">
<stop stop-color="#E1E1E1"/>
<stop offset="1" stop-color="#FFF4DA"/>
</radialGradient>
<radialGradient id="paint12_radial_692_1544" cx="0" cy="0" r="1" gradientUnits="userSpaceOnUse" gradientTransform="translate(59.0197 17.6024) scale(59.0197 17.6024)">
<stop stop-color="#E1E1E1"/>
<stop offset="1" stop-color="#FFF4DA"/>
</radialGradient>
<radialGradient id="paint13_radial_692_1544" cx="0" cy="0" r="1" gradientUnits="userSpaceOnUse" gradientTransform="translate(59.0197 17.6024) scale(59.0197 17.6024)">
<stop stop-color="#E1E1E1"/>
<stop offset="1" stop-color="#FFF4DA"/>
</radialGradient>
<radialGradient id="paint14_radial_692_1544" cx="0" cy="0" r="1" gradientUnits="userSpaceOnUse" gradientTransform="translate(59.0197 17.6024) scale(59.0197 17.6024)">
<stop stop-color="#E1E1E1"/>
<stop offset="1" stop-color="#FFF4DA"/>
</radialGradient>
<radialGradient id="paint15_radial_692_1544" cx="0" cy="0" r="1" gradientUnits="userSpaceOnUse" gradientTransform="translate(59.0197 17.6024) scale(59.0197 17.6024)">
<stop stop-color="#E1E1E1"/>
<stop offset="1" stop-color="#FFF4DA"/>
</radialGradient>
<radialGradient id="paint16_radial_692_1544" cx="0" cy="0" r="1" gradientUnits="userSpaceOnUse" gradientTransform="translate(177.059 17.6024) rotate(180) scale(59.0197 17.6024)">
<stop stop-color="#E1E1E1"/>
<stop offset="1" stop-color="#FFF4DA"/>
</radialGradient>
<radialGradient id="paint17_radial_692_1544" cx="0" cy="0" r="1" gradientUnits="userSpaceOnUse" gradientTransform="translate(177.059 17.6024) rotate(180) scale(59.0197 17.6024)">
<stop stop-color="#E1E1E1"/>
<stop offset="1" stop-color="#FFF4DA"/>
</radialGradient>
<radialGradient id="paint18_radial_692_1544" cx="0" cy="0" r="1" gradientUnits="userSpaceOnUse" gradientTransform="translate(177.059 17.6024) rotate(180) scale(59.0197 17.6024)">
<stop stop-color="#E1E1E1"/>
<stop offset="1" stop-color="#FFF4DA"/>
</radialGradient>
<radialGradient id="paint19_radial_692_1544" cx="0" cy="0" r="1" gradientUnits="userSpaceOnUse" gradientTransform="translate(177.059 17.6024) rotate(180) scale(59.0197 17.6024)">
<stop stop-color="#E1E1E1"/>
<stop offset="1" stop-color="#FFF4DA"/>
</radialGradient>
<radialGradient id="paint20_radial_692_1544" cx="0" cy="0" r="1" gradientUnits="userSpaceOnUse" gradientTransform="translate(177.059 17.6024) rotate(180) scale(59.0197 17.6024)">
<stop stop-color="#E1E1E1"/>
<stop offset="1" stop-color="#FFF4DA"/>
</radialGradient>
<radialGradient id="paint21_radial_692_1544" cx="0" cy="0" r="1" gradientUnits="userSpaceOnUse" gradientTransform="translate(177.059 17.6024) rotate(180) scale(59.0197 17.6024)">
<stop stop-color="#E1E1E1"/>
<stop offset="1" stop-color="#FFF4DA"/>
</radialGradient>
<radialGradient id="paint22_radial_692_1544" cx="0" cy="0" r="1" gradientUnits="userSpaceOnUse" gradientTransform="translate(177.059 17.6024) rotate(180) scale(59.0197 17.6024)">
<stop stop-color="#E1E1E1"/>
<stop offset="1" stop-color="#FFF4DA"/>
</radialGradient>
<radialGradient id="paint23_radial_692_1544" cx="0" cy="0" r="1" gradientUnits="userSpaceOnUse" gradientTransform="translate(177.059 17.6024) rotate(180) scale(59.0197 17.6024)">
<stop stop-color="#E1E1E1"/>
<stop offset="1" stop-color="#FFF4DA"/>
</radialGradient>
</defs>
</svg>
