<svg width="237" height="132" viewBox="0 0 237 132" fill="none" xmlns="http://www.w3.org/2000/svg">
<path d="M50.713 108.06C49.3894 108.487 47.9219 108.504 46.7174 107.809C44.5799 106.575 44.1417 105.154 44.5239 102.508V102.508C42.8803 103.056 42.0634 104.953 43.0344 106.388C43.9981 107.812 45.0942 108.974 46.6272 110.246C47.9176 111.316 49.57 111.855 51.2463 111.812C56.4411 111.679 59.0354 110.851 62.1261 108.72C61.1055 110.641 61.1623 111.76 61.9889 113.6C62.061 113.76 62.2573 113.822 62.4081 113.731C64.083 112.73 65.0044 111.892 66.2679 109.756C66.2159 114.032 66.9848 113.977 70.4096 114.933C67.5199 110.86 68.053 109.221 70.1985 106.254C70.9963 105.151 72.1264 104.331 73.4058 103.866L78.5781 101.985C81.3347 100.982 84.3491 100.942 87.1317 101.869L104.174 107.55C104.308 107.435 104.443 107.326 104.579 107.223V104.508C104.579 103.403 105.474 102.508 106.579 102.508H108.791C109.896 102.508 110.791 103.403 110.791 104.508V105.614H111.827V103.472C111.827 102.368 110.931 101.472 109.827 101.472H105.543C104.439 101.472 103.543 102.368 103.543 103.472V106.65C98.7741 103.748 93.5326 101.584 86.7262 99.7769C82.8461 98.747 78.7539 99.0145 74.9333 100.247L50.713 108.06Z" fill="url(#paint0_radial_692_294)"/>
<path fill-rule="evenodd" clip-rule="evenodd" d="M118.04 111.827V108.721C115.458 105.74 114.164 105.799 111.827 105.614H110.791C108.063 105.589 106.223 105.979 104.579 107.223V107.685L104.174 107.55C103.27 108.327 102.41 109.382 101.473 110.791C94.423 108.167 92.2423 105.859 84.6309 104.117C82.7932 103.696 80.8384 103.854 79.1738 104.739C77.1411 105.82 75.7483 107.075 74.4009 109.235C73.7981 110.201 73.7054 111.42 74.2151 112.438C75.05 114.107 76.2503 115.417 79.1381 117.128C80.1191 117.709 81.351 117.62 82.2789 116.957L86.2804 114.099C87.2189 113.429 87.4133 112.09 86.6216 111.251C84.8307 109.354 83.7232 109.09 81.7994 109.756C83.0247 110.067 83.7478 110.456 84.3965 111.688C84.7601 112.378 84.5523 113.216 84.0005 113.767L82.2759 115.492C81.3711 116.397 79.9668 116.664 78.906 115.948C77.392 114.927 76.4786 113.802 75.488 112.283C74.8942 111.372 74.8544 110.185 75.4804 109.296C77.1885 106.871 79.0768 106.022 82.8348 105.614C87.5143 105.758 93.9739 109.592 101.473 112.862C101.611 115.305 101.827 117.608 105.431 119.531C106.15 119.915 107.027 119.733 107.604 119.156L110.252 116.508C110.55 116.21 110.55 115.727 110.252 115.429V115.429C109.972 115.149 109.522 115.134 109.211 115.381C104.883 118.812 103.35 117.017 102.508 112.862C108.785 113.743 111.601 112.063 112.862 106.65H114.933L118.04 111.827ZM102.508 111.827C105.324 107.593 107.417 106.549 111.827 106.65C109.582 111.782 107.624 113.001 102.508 111.827Z" fill="url(#paint1_radial_692_294)"/>
<path d="M118.04 114.933V111.827C116.112 115.763 116.189 118.074 110.791 119.075C111.96 121.038 112.806 121.636 114.933 121.146C115.325 125.201 115.718 127.472 118.04 131.5V125.287C116.703 121.107 116.953 118.865 118.04 114.933Z" fill="url(#paint2_radial_692_294)"/>
<path d="M115.969 98.3662C116.06 94.792 116.696 93.3936 118.04 91.1182V105.614C115.723 100.811 114.342 99.4138 111.827 99.4015C113.365 97.8121 114.277 97.3638 115.969 98.3662Z" fill="url(#paint3_radial_692_294)"/>
<path d="M185.366 108.06C186.69 108.487 188.157 108.504 189.362 107.809C191.499 106.575 191.937 105.154 191.555 102.508V102.508C193.199 103.056 194.016 104.953 193.045 106.388C192.081 107.812 190.985 108.974 189.452 110.246C188.161 111.316 186.509 111.855 184.833 111.812C179.638 111.679 177.044 110.851 173.953 108.72C174.974 110.641 174.917 111.76 174.09 113.6C174.018 113.76 173.822 113.822 173.671 113.731C171.996 112.73 171.075 111.892 169.811 109.756C169.863 114.032 169.094 113.977 165.669 114.933C168.559 110.86 168.026 109.221 165.881 106.254C165.083 105.151 163.953 104.331 162.673 103.866L157.501 101.985C154.744 100.982 151.73 100.942 148.947 101.869L131.905 107.55C131.771 107.435 131.636 107.326 131.5 107.223V104.508C131.5 103.403 130.605 102.508 129.5 102.508H127.288C126.183 102.508 125.288 103.403 125.288 104.508V105.614H124.252V103.472C124.252 102.368 125.148 101.472 126.252 101.472H130.536C131.64 101.472 132.536 102.368 132.536 103.472V106.65C137.305 103.748 142.547 101.584 149.353 99.7769C153.233 98.747 157.325 99.0145 161.146 100.247L185.366 108.06Z" fill="url(#paint4_radial_692_294)"/>
<path fill-rule="evenodd" clip-rule="evenodd" d="M118.04 111.827V108.721C120.621 105.74 121.915 105.799 124.252 105.614H125.288C128.016 105.589 129.856 105.979 131.5 107.223V107.685L131.905 107.55C132.809 108.327 133.669 109.382 134.607 110.791C141.656 108.167 143.837 105.859 151.448 104.117C153.286 103.696 155.241 103.854 156.905 104.739C158.938 105.82 160.331 107.075 161.678 109.235C162.281 110.201 162.374 111.42 161.864 112.438C161.029 114.107 159.829 115.417 156.941 117.128C155.96 117.709 154.728 117.62 153.8 116.957L149.799 114.099C148.86 113.429 148.666 112.09 149.457 111.251C151.248 109.354 152.356 109.09 154.28 109.756C153.054 110.067 152.331 110.456 151.683 111.688C151.319 112.378 151.527 113.216 152.079 113.767L153.803 115.492C154.708 116.397 156.112 116.664 157.173 115.948C158.687 114.927 159.601 113.802 160.591 112.283C161.185 111.372 161.225 110.185 160.599 109.296C158.891 106.871 157.002 106.022 153.244 105.614C148.565 105.758 142.105 109.592 134.607 112.862C134.468 115.305 134.252 117.608 130.648 119.531C129.929 119.915 129.052 119.733 128.475 119.156L125.827 116.508C125.529 116.21 125.529 115.727 125.827 115.429V115.429C126.107 115.149 126.557 115.134 126.868 115.381C131.196 118.812 132.729 117.017 133.571 112.862C127.294 113.743 124.479 112.063 123.217 106.65H121.146L118.04 111.827ZM133.571 111.827C130.755 107.593 128.662 106.549 124.252 106.65C126.497 111.782 128.455 113.001 133.571 111.827Z" fill="url(#paint5_radial_692_294)"/>
<path d="M118.04 114.933V111.827C119.967 115.763 119.89 118.074 125.288 119.075C124.119 121.038 123.273 121.636 121.146 121.146C120.755 125.201 120.362 127.472 118.04 131.5V125.287C119.376 121.107 119.126 118.865 118.04 114.933Z" fill="url(#paint6_radial_692_294)"/>
<path d="M120.11 98.3662C120.019 94.792 119.383 93.3936 118.04 91.1182V105.614C120.356 100.811 121.737 99.4138 124.252 99.4015C122.714 97.8121 121.802 97.3638 120.11 98.3662Z" fill="url(#paint7_radial_692_294)"/>
<path d="M101.059 59.3164C104.797 59.3164 106.673 59.2018 106.688 58.9727L107.848 53C108.163 51.4674 108.32 50.1497 108.32 49.0469C108.32 48.832 108.17 48.6387 107.869 48.4668C107.583 48.2949 107.246 48.1589 106.859 48.0586C106.487 47.944 106.172 47.8867 105.914 47.8867C105.857 47.8867 105.828 47.8151 105.828 47.6719C105.828 47.2708 105.943 46.9557 106.172 46.7266C106.401 46.7409 106.788 46.7695 107.332 46.8125C107.891 46.8555 108.492 46.8984 109.137 46.9414C109.781 46.9701 110.34 46.9844 110.812 46.9844C111.514 46.9844 112.41 46.9414 113.498 46.8555C114.601 46.7695 115.238 46.7266 115.41 46.7266V46.8555C115.41 47.543 115.31 47.8867 115.109 47.8867C114.966 47.8867 114.694 47.944 114.293 48.0586C113.892 48.1589 113.505 48.2878 113.133 48.4453C112.76 48.5885 112.546 48.7318 112.488 48.875C112.073 49.7917 111.701 51.1237 111.371 52.8711L108.234 69.0273C107.919 70.5599 107.762 71.849 107.762 72.8945C107.762 73.1237 107.955 73.3314 108.342 73.5176C108.729 73.7038 109.122 73.8255 109.523 73.8828L110.082 73.9688C110.139 73.9688 110.168 74.026 110.168 74.1406C110.168 74.4557 110.082 74.7852 109.91 75.1289C108.578 75.0573 107.54 75.0072 106.795 74.9785C106.05 74.9355 105.599 74.9141 105.441 74.9141C105.398 74.9141 104.983 74.9355 104.195 74.9785C103.408 75.0072 102.247 75.0573 100.715 75.1289C100.658 75.0716 100.629 74.957 100.629 74.7852C100.629 74.2409 100.729 73.9688 100.93 73.9688C101.159 73.9688 101.474 73.9258 101.875 73.8398C102.29 73.7539 102.677 73.6393 103.035 73.4961C103.393 73.3529 103.608 73.1953 103.68 73.0234C104.095 72.0781 104.467 70.7031 104.797 68.8984L106.172 61.8086V61.7656C106.172 61.6224 105.835 61.5293 105.162 61.4863C104.503 61.4434 102.878 61.4219 100.285 61.4219C96.1745 61.4219 94.0833 61.5938 94.0117 61.9375L92.6367 69.0273C92.3216 70.5599 92.1641 71.849 92.1641 72.8945C92.1641 73.1237 92.3574 73.3314 92.7441 73.5176C93.1309 73.7038 93.5104 73.8255 93.8828 73.8828L94.4844 73.9688C94.5417 73.9688 94.5703 74.026 94.5703 74.1406C94.5703 74.4557 94.4844 74.7852 94.3125 75.1289C92.9948 75.0573 91.9635 75.0072 91.2188 74.9785C90.474 74.9355 90.0156 74.9141 89.8438 74.9141C89.8151 74.9141 89.4069 74.9355 88.6191 74.9785C87.8314 75.0072 86.6641 75.0573 85.1172 75.1289C85.0599 75.0716 85.0312 74.957 85.0312 74.7852C85.0312 74.2409 85.1315 73.9688 85.332 73.9688C85.5612 73.9688 85.8763 73.9258 86.2773 73.8398C86.6927 73.7539 87.0794 73.6393 87.4375 73.4961C87.7956 73.3529 88.0104 73.1953 88.082 73.0234C88.4974 72.0781 88.8698 70.7031 89.1992 68.8984L92.25 53C92.5651 51.4674 92.7227 50.1497 92.7227 49.0469C92.7227 48.832 92.5723 48.6387 92.2715 48.4668C91.985 48.2949 91.6484 48.1589 91.2617 48.0586C90.8893 47.944 90.5742 47.8867 90.3164 47.8867C90.2591 47.8867 90.2305 47.8151 90.2305 47.6719C90.2305 47.2708 90.3451 46.9557 90.5742 46.7266C90.8034 46.7409 91.1901 46.7695 91.7344 46.8125C92.293 46.8555 92.8945 46.8984 93.5391 46.9414C94.1836 46.9701 94.7422 46.9844 95.2148 46.9844C95.9023 46.9844 96.7832 46.9414 97.8574 46.8555C98.9316 46.7695 99.569 46.7266 99.7695 46.7266V46.8555C99.7695 47.543 99.6693 47.8867 99.4688 47.8867C99.3255 47.8867 99.0462 47.944 98.6309 48.0586C98.2298 48.1589 97.8359 48.2878 97.4492 48.4453C97.0768 48.5885 96.862 48.7318 96.8047 48.875C96.332 49.9779 95.9596 51.3099 95.6875 52.8711L94.6133 58.9297V58.9727C94.6133 59.1159 94.9928 59.209 95.752 59.252C96.5111 59.2949 98.2799 59.3164 101.059 59.3164ZM121.125 47.2422C121.555 47.2422 121.92 47.4141 122.221 47.7578C122.521 48.1016 122.672 48.5026 122.672 48.9609C122.672 49.6484 122.45 50.25 122.006 50.7656C121.562 51.2812 121.01 51.5391 120.352 51.5391C119.893 51.5391 119.535 51.36 119.277 51.002C119.02 50.6439 118.891 50.207 118.891 49.6914C118.891 49.0326 119.105 48.4596 119.535 47.9727C119.965 47.4857 120.495 47.2422 121.125 47.2422ZM119.879 56.3086C120.337 56.3086 120.695 56.5163 120.953 56.9316C121.211 57.347 121.34 57.8841 121.34 58.543C121.34 59.1302 121.254 59.8893 121.082 60.8203L119.191 70.4453C119.105 70.7891 119.062 71.1471 119.062 71.5195C119.062 72.2357 119.206 72.5938 119.492 72.5938C119.85 72.5938 120.28 72.3431 120.781 71.8418C121.283 71.3262 121.712 70.8893 122.07 70.5312L122.328 70.2305C122.385 70.2305 122.493 70.3665 122.65 70.6387C122.808 70.9108 122.887 71.1042 122.887 71.2188C122.643 71.6341 122.199 72.1641 121.555 72.8086C120.924 73.4531 120.237 74.026 119.492 74.5273C118.747 75.0143 118.074 75.2578 117.473 75.2578C117.014 75.2578 116.656 75.0501 116.398 74.6348C116.141 74.2194 116.012 73.6823 116.012 73.0234C116.012 72.5938 116.112 71.8346 116.312 70.7461L118.074 61.7656C118.217 60.9206 118.289 60.3477 118.289 60.0469C118.289 59.3307 118.146 58.9727 117.859 58.9727C117.688 58.9727 117.451 59.0872 117.15 59.3164C116.864 59.5456 116.585 59.8034 116.312 60.0898C116.04 60.362 115.84 60.5768 115.711 60.7344L115.496 60.9922C115.439 60.9922 115.331 60.8561 115.174 60.584C115.016 60.3118 114.938 60.1185 114.938 60.0039C115.167 59.6172 115.582 59.1374 116.184 58.5645C116.785 57.9772 117.43 57.4544 118.117 56.9961C118.805 56.5378 119.392 56.3086 119.879 56.3086ZM133.801 47.2422C134.23 47.2422 134.596 47.4141 134.896 47.7578C135.197 48.1016 135.348 48.5026 135.348 48.9609C135.348 49.6484 135.126 50.25 134.682 50.7656C134.238 51.2812 133.686 51.5391 133.027 51.5391C132.569 51.5391 132.211 51.36 131.953 51.002C131.695 50.6439 131.566 50.207 131.566 49.6914C131.566 49.0326 131.781 48.4596 132.211 47.9727C132.641 47.4857 133.171 47.2422 133.801 47.2422ZM132.555 56.3086C133.013 56.3086 133.371 56.5163 133.629 56.9316C133.887 57.347 134.016 57.8841 134.016 58.543C134.016 59.1159 133.93 59.875 133.758 60.8203L131.395 73.0664C130.793 76.1745 129.848 78.5951 128.559 80.3281C127.757 81.4167 126.783 82.3978 125.637 83.2715C124.491 84.1452 123.474 84.7539 122.586 85.0977C122.328 84.8971 122.199 84.6107 122.199 84.2383C123.632 83.4076 124.892 82.097 125.98 80.3066C127.069 78.5163 127.842 76.4323 128.301 74.0547L130.75 61.7656C130.893 60.7773 130.965 60.2044 130.965 60.0469C130.965 59.3307 130.822 58.9727 130.535 58.9727C130.292 58.9727 129.926 59.2018 129.439 59.6602C129.21 59.8893 128.96 60.14 128.688 60.4121C128.43 60.6842 128.258 60.8776 128.172 60.9922C128.115 60.9922 128.007 60.8561 127.85 60.584C127.692 60.3118 127.613 60.1185 127.613 60.0039C127.842 59.6172 128.258 59.1374 128.859 58.5645C129.461 57.9772 130.105 57.4544 130.793 56.9961C131.48 56.5378 132.068 56.3086 132.555 56.3086ZM144.07 56.3086C144.529 56.3086 144.887 56.5163 145.145 56.9316C145.402 57.347 145.531 57.8841 145.531 58.543C145.531 59.1732 145.445 59.9323 145.273 60.8203L144.586 64.4297C144.944 63.5846 145.402 62.6966 145.961 61.7656C146.534 60.8203 147.143 59.9323 147.787 59.1016C148.432 58.2708 149.069 57.5977 149.699 57.082C150.329 56.5664 150.888 56.3086 151.375 56.3086C152.349 56.3086 153.137 56.7669 153.738 57.6836C153.738 59.6029 153.208 60.5625 152.148 60.5625C151.919 60.5625 151.647 60.3835 151.332 60.0254C151.017 59.6673 150.688 59.4883 150.344 59.4883C149.928 59.4883 149.384 59.832 148.711 60.5195C148.038 61.207 147.343 62.1094 146.627 63.2266C145.911 64.3294 145.266 65.5254 144.693 66.8145C144.12 68.0892 143.727 69.3138 143.512 70.4883L142.695 75C142.208 75.0859 141.736 75.1289 141.277 75.1289C140.733 75.1289 140.203 75.0859 139.688 75L142.266 61.7656C142.409 60.7773 142.48 60.2044 142.48 60.0469C142.48 59.3307 142.337 58.9727 142.051 58.9727C141.807 58.9727 141.442 59.2018 140.955 59.6602C140.726 59.8893 140.475 60.14 140.203 60.4121C139.945 60.6842 139.773 60.8776 139.688 60.9922C139.63 60.9922 139.523 60.8561 139.365 60.584C139.208 60.3118 139.129 60.1185 139.129 60.0039C139.358 59.6172 139.773 59.1374 140.375 58.5645C140.977 57.9772 141.621 57.4544 142.309 56.9961C142.996 56.5378 143.583 56.3086 144.07 56.3086Z" fill="white"/>
<path d="M0 14.4961C6.30012 20.0984 15.0791 19.1979 30.687 15.1421C32.2497 14.736 33.9168 14.9601 35.3059 15.7832L61.0905 31.063L35.3304 19.6141C33.9205 18.9874 32.3183 18.9353 30.8588 19.4358C12.5496 25.7159 4.73674 24.7283 0 14.4961Z" fill="url(#paint8_radial_692_294)"/>
<path d="M16.5669 25.8858C22.7094 27.5488 34.4861 19.1752 43.5027 24.2129C35.7991 20.3448 24.9274 34.7378 16.5669 25.8858Z" fill="url(#paint9_radial_692_294)"/>
<path d="M42.4528 34.1693C40.4746 32.9379 39.8039 31.791 39.5364 30.2054C39.314 28.8871 40.2138 27.6374 41.514 27.3262C46.4064 26.1551 49.6595 27.3172 54.8779 31.063C50.3759 26.3362 46.8249 25.2844 39.6469 25.78C38.7972 25.8387 38.0191 26.2751 37.5081 26.9564L36.1669 28.7446C35.6047 29.4943 35.6307 30.5432 36.2784 31.2205C38.4425 33.4837 39.9798 34.1156 42.4528 34.1693Z" fill="url(#paint10_radial_692_294)"/>
<path d="M61.0905 28.9921C48.8725 19.5072 53.131 18.6378 60.0551 10.3543C56.6285 8.93238 54.8937 8.83857 52.8071 12.4252C51.2879 8.29387 49.7783 6.42726 45.559 4.14173C43.8524 8.52031 44.6321 10.6991 46.5945 14.4961C42.9378 12.0347 40.7471 11.3823 36.2402 13.4606C46.3046 17.727 45.2926 18.8748 61.0905 28.9921Z" fill="url(#paint11_radial_692_294)"/>
<path d="M78.6929 22.7441C78.6929 22.1918 79.1406 21.7441 79.6929 21.7441H79.7638C80.3161 21.7441 80.7638 22.1918 80.7638 22.7441V25.9213C80.7638 26.4735 80.3161 26.9213 79.7638 26.9213H74.4803C73.3757 26.9213 72.4803 26.0258 72.4803 24.9213V19.6024C72.4803 18.4978 73.3757 17.6024 74.4803 17.6024H78.7281C80.6137 17.6024 82.4755 18.023 84.178 18.8337V18.8337C85.2965 19.3663 86.1249 20.3629 86.4441 21.5599L88.3399 28.6695C89.2063 31.9182 86.6836 35.0788 83.3237 34.9544L68.0679 34.3894C64.7776 34.2675 62.2002 31.5169 62.2923 28.2256L62.6948 13.8426C62.7856 10.5955 65.4441 8.01038 68.6924 8.01038H83.0387C86.0229 8.01038 88.8896 9.21712 90.915 11.4088C101.807 23.194 109.097 33.3225 115.395 32.2299C115.685 32.1796 115.968 32.3916 115.968 32.686V32.686C115.968 32.9325 115.766 33.1318 115.519 33.1285C109.37 33.045 105.37 32.4313 87.653 13.254C86.5367 12.0456 85.0793 11.1983 83.4735 10.8414L77.8584 9.59364C77.0431 9.41248 76.199 9.4035 75.3801 9.56728L71.091 10.4251C68.2865 10.986 66.2677 13.4485 66.2677 16.3086V27.0984C66.2677 29.8599 68.5063 32.0984 71.2677 32.0984H80.9055C83.1146 32.0984 84.9055 30.3076 84.9055 28.0984V22.6378C84.9055 20.4287 83.1146 18.6378 80.9055 18.6378H76.5512C75.4466 18.6378 74.5512 19.5332 74.5512 20.6378V24.8858C74.5512 25.4381 74.9989 25.8858 75.5512 25.8858H77.6929C78.2452 25.8858 78.6929 25.4381 78.6929 24.8858V22.7441Z" fill="url(#paint12_radial_692_294)"/>
<path d="M104.412 33.0631C96.4743 29.9513 88.3242 12.4066 78.6929 13.4606C91.6665 19.2326 92.9183 31.4785 104.412 33.0631Z" fill="url(#paint13_radial_692_294)"/>
<path d="M111.827 30.0276C106.485 21.6827 106.361 16.9143 110.791 8.28346C105.363 9.71409 97.6256 19.5114 111.827 30.0276Z" fill="url(#paint14_radial_692_294)"/>
<path d="M118.039 10.3543C113.102 14.0549 110.405 23.2793 118.039 32.0984C106.33 25.6888 109.793 12.7713 118.039 0V10.3543Z" fill="url(#paint15_radial_692_294)"/>
<path d="M236.079 14.4961C229.778 20.0984 221 19.1979 205.392 15.1421C203.829 14.736 202.162 14.9601 200.773 15.7832L174.988 31.063L200.748 19.6141C202.158 18.9874 203.76 18.9353 205.22 19.4358C223.529 25.7159 231.342 24.7283 236.079 14.4961Z" fill="url(#paint16_radial_692_294)"/>
<path d="M219.512 25.8858C213.369 27.5488 201.593 19.1752 192.576 24.2129C200.279 20.3448 211.151 34.7378 219.512 25.8858Z" fill="url(#paint17_radial_692_294)"/>
<path d="M193.626 34.1693C195.604 32.9379 196.275 31.791 196.542 30.2054C196.765 28.8871 195.865 27.6374 194.565 27.3262C189.672 26.1551 186.419 27.3172 181.201 31.063C185.703 26.3362 189.254 25.2844 196.432 25.78C197.281 25.8387 198.06 26.2751 198.571 26.9564L199.912 28.7446C200.474 29.4943 200.448 30.5432 199.8 31.2205C197.636 33.4837 196.099 34.1156 193.626 34.1693Z" fill="url(#paint18_radial_692_294)"/>
<path d="M174.988 28.9921C187.206 19.5072 182.948 18.6378 176.024 10.3543C179.45 8.93238 181.185 8.83857 183.272 12.4252C184.791 8.29387 186.3 6.42726 190.52 4.14173C192.226 8.52031 191.446 10.6991 189.484 14.4961C193.141 12.0347 195.331 11.3823 199.838 13.4606C189.774 17.727 190.786 18.8748 174.988 28.9921Z" fill="url(#paint19_radial_692_294)"/>
<path d="M157.386 22.7441C157.386 22.1918 156.938 21.7441 156.386 21.7441H156.315C155.763 21.7441 155.315 22.1918 155.315 22.7441V25.9213C155.315 26.4735 155.763 26.9213 156.315 26.9213H161.598C162.703 26.9213 163.598 26.0258 163.598 24.9213V19.6024C163.598 18.4978 162.703 17.6024 161.598 17.6024H157.351C155.465 17.6024 153.603 18.023 151.901 18.8337V18.8337C150.782 19.3663 149.954 20.3629 149.635 21.5599L147.739 28.6695C146.872 31.9182 149.395 35.0788 152.755 34.9544L168.011 34.3894C171.301 34.2675 173.878 31.5169 173.786 28.2256L173.384 13.8426C173.293 10.5955 170.635 8.01038 167.386 8.01038H153.04C150.056 8.01038 147.189 9.21712 145.164 11.4088C134.272 23.194 126.982 33.3225 120.683 32.2299C120.393 32.1796 120.11 32.3916 120.11 32.686V32.686C120.11 32.9325 120.313 33.1318 120.559 33.1285C126.708 33.045 130.709 32.4313 148.426 13.254C149.542 12.0456 150.999 11.1983 152.605 10.8414L158.22 9.59364C159.035 9.41248 159.88 9.4035 160.698 9.56728L164.988 10.4251C167.792 10.986 169.811 13.4485 169.811 16.3086V27.0984C169.811 29.8599 167.572 32.0984 164.811 32.0984H155.173C152.964 32.0984 151.173 30.3076 151.173 28.0984V22.6378C151.173 20.4287 152.964 18.6378 155.173 18.6378H159.527C160.632 18.6378 161.527 19.5332 161.527 20.6378V24.8858C161.527 25.4381 161.08 25.8858 160.527 25.8858H158.386C157.833 25.8858 157.386 25.4381 157.386 24.8858V22.7441Z" fill="url(#paint20_radial_692_294)"/>
<path d="M131.666 33.0631C139.604 29.9513 147.754 12.4066 157.386 13.4606C144.412 19.2326 143.16 31.4785 131.666 33.0631Z" fill="url(#paint21_radial_692_294)"/>
<path d="M124.252 30.0276C129.594 21.6827 129.718 16.9143 125.287 8.28346C130.716 9.71409 138.453 19.5114 124.252 30.0276Z" fill="url(#paint22_radial_692_294)"/>
<path d="M118.039 10.3543C122.976 14.0549 125.673 23.2793 118.039 32.0984C129.749 25.6888 126.286 12.7713 118.039 0V10.3543Z" fill="url(#paint23_radial_692_294)"/>
<defs>
<radialGradient id="paint0_radial_692_294" cx="0" cy="0" r="1" gradientUnits="userSpaceOnUse" gradientTransform="translate(79.7285 111.309) scale(38.311 20.1909)">
<stop stop-color="#E1E1E1"/>
<stop offset="1" stop-color="#FFF4DA"/>
</radialGradient>
<radialGradient id="paint1_radial_692_294" cx="0" cy="0" r="1" gradientUnits="userSpaceOnUse" gradientTransform="translate(79.7285 111.309) scale(38.311 20.1909)">
<stop stop-color="#E1E1E1"/>
<stop offset="1" stop-color="#FFF4DA"/>
</radialGradient>
<radialGradient id="paint2_radial_692_294" cx="0" cy="0" r="1" gradientUnits="userSpaceOnUse" gradientTransform="translate(79.7285 111.309) scale(38.311 20.1909)">
<stop stop-color="#E1E1E1"/>
<stop offset="1" stop-color="#FFF4DA"/>
</radialGradient>
<radialGradient id="paint3_radial_692_294" cx="0" cy="0" r="1" gradientUnits="userSpaceOnUse" gradientTransform="translate(79.7285 111.309) scale(38.311 20.1909)">
<stop stop-color="#E1E1E1"/>
<stop offset="1" stop-color="#FFF4DA"/>
</radialGradient>
<radialGradient id="paint4_radial_692_294" cx="0" cy="0" r="1" gradientUnits="userSpaceOnUse" gradientTransform="translate(156.351 111.309) rotate(180) scale(38.311 20.1909)">
<stop stop-color="#E1E1E1"/>
<stop offset="1" stop-color="#FFF4DA"/>
</radialGradient>
<radialGradient id="paint5_radial_692_294" cx="0" cy="0" r="1" gradientUnits="userSpaceOnUse" gradientTransform="translate(156.351 111.309) rotate(180) scale(38.311 20.1909)">
<stop stop-color="#E1E1E1"/>
<stop offset="1" stop-color="#FFF4DA"/>
</radialGradient>
<radialGradient id="paint6_radial_692_294" cx="0" cy="0" r="1" gradientUnits="userSpaceOnUse" gradientTransform="translate(156.351 111.309) rotate(180) scale(38.311 20.1909)">
<stop stop-color="#E1E1E1"/>
<stop offset="1" stop-color="#FFF4DA"/>
</radialGradient>
<radialGradient id="paint7_radial_692_294" cx="0" cy="0" r="1" gradientUnits="userSpaceOnUse" gradientTransform="translate(156.351 111.309) rotate(180) scale(38.311 20.1909)">
<stop stop-color="#E1E1E1"/>
<stop offset="1" stop-color="#FFF4DA"/>
</radialGradient>
<radialGradient id="paint8_radial_692_294" cx="0" cy="0" r="1" gradientUnits="userSpaceOnUse" gradientTransform="translate(59.0197 17.6024) scale(59.0197 17.6024)">
<stop stop-color="#E1E1E1"/>
<stop offset="1" stop-color="#FFF4DA"/>
</radialGradient>
<radialGradient id="paint9_radial_692_294" cx="0" cy="0" r="1" gradientUnits="userSpaceOnUse" gradientTransform="translate(59.0197 17.6024) scale(59.0197 17.6024)">
<stop stop-color="#E1E1E1"/>
<stop offset="1" stop-color="#FFF4DA"/>
</radialGradient>
<radialGradient id="paint10_radial_692_294" cx="0" cy="0" r="1" gradientUnits="userSpaceOnUse" gradientTransform="translate(59.0197 17.6024) scale(59.0197 17.6024)">
<stop stop-color="#E1E1E1"/>
<stop offset="1" stop-color="#FFF4DA"/>
</radialGradient>
<radialGradient id="paint11_radial_692_294" cx="0" cy="0" r="1" gradientUnits="userSpaceOnUse" gradientTransform="translate(59.0197 17.6024) scale(59.0197 17.6024)">
<stop stop-color="#E1E1E1"/>
<stop offset="1" stop-color="#FFF4DA"/>
</radialGradient>
<radialGradient id="paint12_radial_692_294" cx="0" cy="0" r="1" gradientUnits="userSpaceOnUse" gradientTransform="translate(59.0197 17.6024) scale(59.0197 17.6024)">
<stop stop-color="#E1E1E1"/>
<stop offset="1" stop-color="#FFF4DA"/>
</radialGradient>
<radialGradient id="paint13_radial_692_294" cx="0" cy="0" r="1" gradientUnits="userSpaceOnUse" gradientTransform="translate(59.0197 17.6024) scale(59.0197 17.6024)">
<stop stop-color="#E1E1E1"/>
<stop offset="1" stop-color="#FFF4DA"/>
</radialGradient>
<radialGradient id="paint14_radial_692_294" cx="0" cy="0" r="1" gradientUnits="userSpaceOnUse" gradientTransform="translate(59.0197 17.6024) scale(59.0197 17.6024)">
<stop stop-color="#E1E1E1"/>
<stop offset="1" stop-color="#FFF4DA"/>
</radialGradient>
<radialGradient id="paint15_radial_692_294" cx="0" cy="0" r="1" gradientUnits="userSpaceOnUse" gradientTransform="translate(59.0197 17.6024) scale(59.0197 17.6024)">
<stop stop-color="#E1E1E1"/>
<stop offset="1" stop-color="#FFF4DA"/>
</radialGradient>
<radialGradient id="paint16_radial_692_294" cx="0" cy="0" r="1" gradientUnits="userSpaceOnUse" gradientTransform="translate(177.059 17.6024) rotate(180) scale(59.0197 17.6024)">
<stop stop-color="#E1E1E1"/>
<stop offset="1" stop-color="#FFF4DA"/>
</radialGradient>
<radialGradient id="paint17_radial_692_294" cx="0" cy="0" r="1" gradientUnits="userSpaceOnUse" gradientTransform="translate(177.059 17.6024) rotate(180) scale(59.0197 17.6024)">
<stop stop-color="#E1E1E1"/>
<stop offset="1" stop-color="#FFF4DA"/>
</radialGradient>
<radialGradient id="paint18_radial_692_294" cx="0" cy="0" r="1" gradientUnits="userSpaceOnUse" gradientTransform="translate(177.059 17.6024) rotate(180) scale(59.0197 17.6024)">
<stop stop-color="#E1E1E1"/>
<stop offset="1" stop-color="#FFF4DA"/>
</radialGradient>
<radialGradient id="paint19_radial_692_294" cx="0" cy="0" r="1" gradientUnits="userSpaceOnUse" gradientTransform="translate(177.059 17.6024) rotate(180) scale(59.0197 17.6024)">
<stop stop-color="#E1E1E1"/>
<stop offset="1" stop-color="#FFF4DA"/>
</radialGradient>
<radialGradient id="paint20_radial_692_294" cx="0" cy="0" r="1" gradientUnits="userSpaceOnUse" gradientTransform="translate(177.059 17.6024) rotate(180) scale(59.0197 17.6024)">
<stop stop-color="#E1E1E1"/>
<stop offset="1" stop-color="#FFF4DA"/>
</radialGradient>
<radialGradient id="paint21_radial_692_294" cx="0" cy="0" r="1" gradientUnits="userSpaceOnUse" gradientTransform="translate(177.059 17.6024) rotate(180) scale(59.0197 17.6024)">
<stop stop-color="#E1E1E1"/>
<stop offset="1" stop-color="#FFF4DA"/>
</radialGradient>
<radialGradient id="paint22_radial_692_294" cx="0" cy="0" r="1" gradientUnits="userSpaceOnUse" gradientTransform="translate(177.059 17.6024) rotate(180) scale(59.0197 17.6024)">
<stop stop-color="#E1E1E1"/>
<stop offset="1" stop-color="#FFF4DA"/>
</radialGradient>
<radialGradient id="paint23_radial_692_294" cx="0" cy="0" r="1" gradientUnits="userSpaceOnUse" gradientTransform="translate(177.059 17.6024) rotate(180) scale(59.0197 17.6024)">
<stop stop-color="#E1E1E1"/>
<stop offset="1" stop-color="#FFF4DA"/>
</radialGradient>
</defs>
</svg>
