<svg width="237" height="132" viewBox="0 0 237 132" fill="none" xmlns="http://www.w3.org/2000/svg">
<path d="M50.713 108.06C49.3894 108.487 47.9219 108.504 46.7174 107.809C44.5799 106.575 44.1417 105.154 44.5239 102.508V102.508C42.8803 103.056 42.0634 104.953 43.0344 106.388C43.9981 107.812 45.0942 108.974 46.6272 110.246C47.9176 111.316 49.57 111.855 51.2463 111.812C56.4411 111.679 59.0354 110.851 62.1261 108.72C61.1055 110.641 61.1623 111.76 61.9889 113.6C62.061 113.76 62.2573 113.822 62.4081 113.731C64.083 112.73 65.0044 111.892 66.2679 109.756C66.2159 114.032 66.9848 113.977 70.4096 114.933C67.5199 110.86 68.053 109.221 70.1985 106.254C70.9963 105.151 72.1264 104.331 73.4058 103.866L78.5781 101.985C81.3347 100.982 84.3491 100.942 87.1317 101.869L104.174 107.55C104.308 107.435 104.443 107.326 104.579 107.223V104.508C104.579 103.403 105.474 102.508 106.579 102.508H108.791C109.896 102.508 110.791 103.403 110.791 104.508V105.614H111.827V103.472C111.827 102.368 110.931 101.472 109.827 101.472H105.543C104.439 101.472 103.543 102.368 103.543 103.472V106.65C98.7741 103.748 93.5326 101.584 86.7262 99.7769C82.8461 98.747 78.7539 99.0145 74.9333 100.247L50.713 108.06Z" fill="url(#paint0_radial_692_1656)"/>
<path fill-rule="evenodd" clip-rule="evenodd" d="M118.04 111.827V108.721C115.458 105.74 114.164 105.799 111.827 105.614H110.791C108.063 105.589 106.223 105.979 104.579 107.223V107.685L104.174 107.55C103.27 108.327 102.41 109.382 101.473 110.791C94.423 108.167 92.2423 105.859 84.6309 104.117C82.7932 103.696 80.8384 103.854 79.1738 104.739C77.1411 105.82 75.7483 107.075 74.4009 109.235C73.7981 110.201 73.7054 111.42 74.2151 112.438C75.05 114.107 76.2503 115.417 79.1381 117.128C80.1191 117.709 81.351 117.62 82.2789 116.957L86.2804 114.099C87.2189 113.429 87.4133 112.09 86.6216 111.251C84.8307 109.354 83.7232 109.09 81.7994 109.756C83.0247 110.067 83.7478 110.456 84.3965 111.688C84.7601 112.378 84.5523 113.216 84.0005 113.767L82.2759 115.492C81.3711 116.397 79.9668 116.664 78.906 115.948C77.392 114.927 76.4786 113.802 75.488 112.283C74.8942 111.372 74.8544 110.185 75.4804 109.296C77.1885 106.871 79.0768 106.022 82.8348 105.614C87.5143 105.758 93.9739 109.592 101.473 112.862C101.611 115.305 101.827 117.608 105.431 119.531C106.15 119.915 107.027 119.733 107.604 119.156L110.252 116.508C110.55 116.21 110.55 115.727 110.252 115.429V115.429C109.972 115.149 109.522 115.134 109.211 115.381C104.883 118.812 103.35 117.017 102.508 112.862C108.785 113.743 111.601 112.063 112.862 106.65H114.933L118.04 111.827ZM102.508 111.827C105.324 107.593 107.417 106.549 111.827 106.65C109.582 111.782 107.624 113.001 102.508 111.827Z" fill="url(#paint1_radial_692_1656)"/>
<path d="M118.04 114.933V111.827C116.112 115.763 116.189 118.074 110.791 119.075C111.96 121.038 112.806 121.636 114.933 121.146C115.325 125.201 115.718 127.472 118.04 131.5V125.287C116.703 121.107 116.953 118.865 118.04 114.933Z" fill="url(#paint2_radial_692_1656)"/>
<path d="M115.969 98.3662C116.06 94.792 116.696 93.3936 118.04 91.1182V105.614C115.723 100.811 114.342 99.4138 111.827 99.4015C113.365 97.8121 114.277 97.3638 115.969 98.3662Z" fill="url(#paint3_radial_692_1656)"/>
<path d="M185.366 108.06C186.69 108.487 188.157 108.504 189.362 107.809C191.499 106.575 191.937 105.154 191.555 102.508V102.508C193.199 103.056 194.016 104.953 193.045 106.388C192.081 107.812 190.985 108.974 189.452 110.246C188.161 111.316 186.509 111.855 184.833 111.812C179.638 111.679 177.044 110.851 173.953 108.72C174.974 110.641 174.917 111.76 174.09 113.6C174.018 113.76 173.822 113.822 173.671 113.731C171.996 112.73 171.075 111.892 169.811 109.756C169.863 114.032 169.094 113.977 165.669 114.933C168.559 110.86 168.026 109.221 165.881 106.254C165.083 105.151 163.953 104.331 162.673 103.866L157.501 101.985C154.744 100.982 151.73 100.942 148.947 101.869L131.905 107.55C131.771 107.435 131.636 107.326 131.5 107.223V104.508C131.5 103.403 130.605 102.508 129.5 102.508H127.288C126.183 102.508 125.288 103.403 125.288 104.508V105.614H124.252V103.472C124.252 102.368 125.148 101.472 126.252 101.472H130.536C131.64 101.472 132.536 102.368 132.536 103.472V106.65C137.305 103.748 142.547 101.584 149.353 99.7769C153.233 98.747 157.325 99.0145 161.146 100.247L185.366 108.06Z" fill="url(#paint4_radial_692_1656)"/>
<path fill-rule="evenodd" clip-rule="evenodd" d="M118.04 111.827V108.721C120.621 105.74 121.915 105.799 124.252 105.614H125.288C128.016 105.589 129.856 105.979 131.5 107.223V107.685L131.905 107.55C132.809 108.327 133.669 109.382 134.607 110.791C141.656 108.167 143.837 105.859 151.448 104.117C153.286 103.696 155.241 103.854 156.905 104.739C158.938 105.82 160.331 107.075 161.678 109.235C162.281 110.201 162.374 111.42 161.864 112.438C161.029 114.107 159.829 115.417 156.941 117.128C155.96 117.709 154.728 117.62 153.8 116.957L149.799 114.099C148.86 113.429 148.666 112.09 149.457 111.251C151.248 109.354 152.356 109.09 154.28 109.756C153.054 110.067 152.331 110.456 151.683 111.688C151.319 112.378 151.527 113.216 152.079 113.767L153.803 115.492C154.708 116.397 156.112 116.664 157.173 115.948C158.687 114.927 159.601 113.802 160.591 112.283C161.185 111.372 161.225 110.185 160.599 109.296C158.891 106.871 157.002 106.022 153.244 105.614C148.565 105.758 142.105 109.592 134.607 112.862C134.468 115.305 134.252 117.608 130.648 119.531C129.929 119.915 129.052 119.733 128.475 119.156L125.827 116.508C125.529 116.21 125.529 115.727 125.827 115.429V115.429C126.107 115.149 126.557 115.134 126.868 115.381C131.196 118.812 132.729 117.017 133.571 112.862C127.294 113.743 124.479 112.063 123.217 106.65H121.146L118.04 111.827ZM133.571 111.827C130.755 107.593 128.662 106.549 124.252 106.65C126.497 111.782 128.455 113.001 133.571 111.827Z" fill="url(#paint5_radial_692_1656)"/>
<path d="M118.04 114.933V111.827C119.967 115.763 119.89 118.074 125.288 119.075C124.119 121.038 123.273 121.636 121.146 121.146C120.755 125.201 120.362 127.472 118.04 131.5V125.287C119.376 121.107 119.126 118.865 118.04 114.933Z" fill="url(#paint6_radial_692_1656)"/>
<path d="M120.11 98.3662C120.019 94.792 119.383 93.3936 118.04 91.1182V105.614C120.356 100.811 121.737 99.4138 124.252 99.4015C122.714 97.8121 121.802 97.3638 120.11 98.3662Z" fill="url(#paint7_radial_692_1656)"/>
<path d="M85.0586 59.3164C88.7969 59.3164 90.6732 59.2018 90.6875 58.9727L91.8477 53C92.1628 51.4674 92.3203 50.1497 92.3203 49.0469C92.3203 48.832 92.1699 48.6387 91.8691 48.4668C91.5827 48.2949 91.2461 48.1589 90.8594 48.0586C90.487 47.944 90.1719 47.8867 89.9141 47.8867C89.8568 47.8867 89.8281 47.8151 89.8281 47.6719C89.8281 47.2708 89.9427 46.9557 90.1719 46.7266C90.401 46.7409 90.7878 46.7695 91.332 46.8125C91.8906 46.8555 92.4922 46.8984 93.1367 46.9414C93.7812 46.9701 94.3398 46.9844 94.8125 46.9844C95.5143 46.9844 96.4095 46.9414 97.498 46.8555C98.6009 46.7695 99.2383 46.7266 99.4102 46.7266V46.8555C99.4102 47.543 99.3099 47.8867 99.1094 47.8867C98.9661 47.8867 98.694 47.944 98.293 48.0586C97.8919 48.1589 97.5052 48.2878 97.1328 48.4453C96.7604 48.5885 96.5456 48.7318 96.4883 48.875C96.0729 49.7917 95.7005 51.1237 95.3711 52.8711L92.2344 69.0273C91.9193 70.5599 91.7617 71.849 91.7617 72.8945C91.7617 73.1237 91.9551 73.3314 92.3418 73.5176C92.7285 73.7038 93.1224 73.8255 93.5234 73.8828L94.082 73.9688C94.1393 73.9688 94.168 74.026 94.168 74.1406C94.168 74.4557 94.082 74.7852 93.9102 75.1289C92.5781 75.0573 91.5397 75.0072 90.7949 74.9785C90.0501 74.9355 89.599 74.9141 89.4414 74.9141C89.3984 74.9141 88.9831 74.9355 88.1953 74.9785C87.4076 75.0072 86.2474 75.0573 84.7148 75.1289C84.6576 75.0716 84.6289 74.957 84.6289 74.7852C84.6289 74.2409 84.7292 73.9688 84.9297 73.9688C85.1589 73.9688 85.474 73.9258 85.875 73.8398C86.2904 73.7539 86.6771 73.6393 87.0352 73.4961C87.3932 73.3529 87.6081 73.1953 87.6797 73.0234C88.0951 72.0781 88.4674 70.7031 88.7969 68.8984L90.1719 61.8086V61.7656C90.1719 61.6224 89.8353 61.5293 89.1621 61.4863C88.5033 61.4434 86.8776 61.4219 84.2852 61.4219C80.1745 61.4219 78.0833 61.5938 78.0117 61.9375L76.6367 69.0273C76.3216 70.5599 76.1641 71.849 76.1641 72.8945C76.1641 73.1237 76.3574 73.3314 76.7441 73.5176C77.1309 73.7038 77.5104 73.8255 77.8828 73.8828L78.4844 73.9688C78.5417 73.9688 78.5703 74.026 78.5703 74.1406C78.5703 74.4557 78.4844 74.7852 78.3125 75.1289C76.9948 75.0573 75.9635 75.0072 75.2188 74.9785C74.474 74.9355 74.0156 74.9141 73.8438 74.9141C73.8151 74.9141 73.4069 74.9355 72.6191 74.9785C71.8314 75.0072 70.6641 75.0573 69.1172 75.1289C69.0599 75.0716 69.0312 74.957 69.0312 74.7852C69.0312 74.2409 69.1315 73.9688 69.332 73.9688C69.5612 73.9688 69.8763 73.9258 70.2773 73.8398C70.6927 73.7539 71.0794 73.6393 71.4375 73.4961C71.7956 73.3529 72.0104 73.1953 72.082 73.0234C72.4974 72.0781 72.8698 70.7031 73.1992 68.8984L76.25 53C76.5651 51.4674 76.7227 50.1497 76.7227 49.0469C76.7227 48.832 76.5723 48.6387 76.2715 48.4668C75.985 48.2949 75.6484 48.1589 75.2617 48.0586C74.8893 47.944 74.5742 47.8867 74.3164 47.8867C74.2591 47.8867 74.2305 47.8151 74.2305 47.6719C74.2305 47.2708 74.3451 46.9557 74.5742 46.7266C74.8034 46.7409 75.1901 46.7695 75.7344 46.8125C76.293 46.8555 76.8945 46.8984 77.5391 46.9414C78.1836 46.9701 78.7422 46.9844 79.2148 46.9844C79.9023 46.9844 80.7832 46.9414 81.8574 46.8555C82.9316 46.7695 83.569 46.7266 83.7695 46.7266V46.8555C83.7695 47.543 83.6693 47.8867 83.4688 47.8867C83.3255 47.8867 83.0462 47.944 82.6309 48.0586C82.2298 48.1589 81.8359 48.2878 81.4492 48.4453C81.0768 48.5885 80.862 48.7318 80.8047 48.875C80.332 49.9779 79.9596 51.3099 79.6875 52.8711L78.6133 58.9297V58.9727C78.6133 59.1159 78.9928 59.209 79.752 59.252C80.5111 59.2949 82.2799 59.3164 85.0586 59.3164ZM103.105 56.3086C103.564 56.3086 103.922 56.5163 104.18 56.9316C104.438 57.347 104.566 57.8841 104.566 58.543C104.566 59.3021 104.48 60.0612 104.309 60.8203L102.805 67.9102C102.604 68.7839 102.504 69.5573 102.504 70.2305C102.504 71.4622 102.776 72.0781 103.32 72.0781C103.635 72.0781 104.022 71.8991 104.48 71.541C104.953 71.1829 105.44 70.7246 105.941 70.166C106.457 69.6074 106.937 69.0345 107.381 68.4473C108.197 67.373 108.971 66.0625 109.701 64.5156C110.432 62.9688 110.94 61.4362 111.227 59.918L111.957 56.5664C112.344 56.4518 112.788 56.3945 113.289 56.3945C113.776 56.3945 114.263 56.4518 114.75 56.5664L112.086 70.4453C112 70.7891 111.957 71.1471 111.957 71.5195C111.957 72.2357 112.1 72.5938 112.387 72.5938C112.745 72.5938 113.174 72.3431 113.676 71.8418C114.177 71.3262 114.607 70.8893 114.965 70.5312L115.223 70.2305C115.28 70.2305 115.387 70.3665 115.545 70.6387C115.702 70.9108 115.781 71.1042 115.781 71.2188C115.538 71.6341 115.094 72.1641 114.449 72.8086C113.819 73.4531 113.132 74.026 112.387 74.5273C111.642 75.0143 110.969 75.2578 110.367 75.2578C109.909 75.2578 109.551 75.0501 109.293 74.6348C109.035 74.2194 108.906 73.6823 108.906 73.0234C108.906 72.5938 109.007 71.8346 109.207 70.7461L109.98 66.793C109.708 67.3086 109.121 68.1966 108.219 69.457C107.632 70.2734 106.923 71.1328 106.092 72.0352C105.275 72.9375 104.459 73.7038 103.643 74.334C102.826 74.9499 102.132 75.2578 101.559 75.2578C100.126 75.2578 99.4102 74.3125 99.4102 72.4219C99.4102 71.0755 99.6107 69.5143 100.012 67.7383L101.301 61.7656C101.444 60.7773 101.516 60.2044 101.516 60.0469C101.516 59.3307 101.372 58.9727 101.086 58.9727C100.842 58.9727 100.477 59.2018 99.9902 59.6602C99.7611 59.8893 99.5104 60.14 99.2383 60.4121C98.9805 60.6842 98.8086 60.8776 98.7227 60.9922C98.6654 60.9922 98.5579 60.8561 98.4004 60.584C98.2428 60.3118 98.1641 60.1185 98.1641 60.0039C98.3932 59.6172 98.8086 59.1374 99.4102 58.5645C100.012 57.9772 100.656 57.4544 101.344 56.9961C102.031 56.5378 102.618 56.3086 103.105 56.3086ZM126.309 47.2422C126.738 47.2422 127.104 47.4141 127.404 47.7578C127.705 48.1016 127.855 48.5026 127.855 48.9609C127.855 49.6484 127.633 50.25 127.189 50.7656C126.745 51.2812 126.194 51.5391 125.535 51.5391C125.077 51.5391 124.719 51.36 124.461 51.002C124.203 50.6439 124.074 50.207 124.074 49.6914C124.074 49.0326 124.289 48.4596 124.719 47.9727C125.148 47.4857 125.678 47.2422 126.309 47.2422ZM125.062 56.3086C125.521 56.3086 125.879 56.5163 126.137 56.9316C126.395 57.347 126.523 57.8841 126.523 58.543C126.523 59.1159 126.438 59.875 126.266 60.8203L123.902 73.0664C123.301 76.1745 122.355 78.5951 121.066 80.3281C120.264 81.4167 119.29 82.3978 118.145 83.2715C116.999 84.1452 115.982 84.7539 115.094 85.0977C114.836 84.8971 114.707 84.6107 114.707 84.2383C116.139 83.4076 117.4 82.097 118.488 80.3066C119.577 78.5163 120.35 76.4323 120.809 74.0547L123.258 61.7656C123.401 60.7773 123.473 60.2044 123.473 60.0469C123.473 59.3307 123.329 58.9727 123.043 58.9727C122.799 58.9727 122.434 59.2018 121.947 59.6602C121.718 59.8893 121.467 60.14 121.195 60.4121C120.938 60.6842 120.766 60.8776 120.68 60.9922C120.622 60.9922 120.515 60.8561 120.357 60.584C120.2 60.3118 120.121 60.1185 120.121 60.0039C120.35 59.6172 120.766 59.1374 121.367 58.5645C121.969 57.9772 122.613 57.4544 123.301 56.9961C123.988 56.5378 124.576 56.3086 125.062 56.3086ZM135.848 56.3086C136.306 56.3086 136.664 56.5163 136.922 56.9316C137.18 57.347 137.309 57.8841 137.309 58.543C137.309 59.3021 137.223 60.0612 137.051 60.8203L135.547 67.9102C135.346 68.7839 135.246 69.5573 135.246 70.2305C135.246 71.4622 135.518 72.0781 136.062 72.0781C136.378 72.0781 136.764 71.8991 137.223 71.541C137.695 71.1829 138.182 70.7246 138.684 70.166C139.199 69.6074 139.679 69.0345 140.123 68.4473C140.939 67.373 141.713 66.0625 142.443 64.5156C143.174 62.9688 143.682 61.4362 143.969 59.918L144.699 56.5664C145.086 56.4518 145.53 56.3945 146.031 56.3945C146.518 56.3945 147.005 56.4518 147.492 56.5664L144.828 70.4453C144.742 70.7891 144.699 71.1471 144.699 71.5195C144.699 72.2357 144.842 72.5938 145.129 72.5938C145.487 72.5938 145.917 72.3431 146.418 71.8418C146.919 71.3262 147.349 70.8893 147.707 70.5312L147.965 70.2305C148.022 70.2305 148.13 70.3665 148.287 70.6387C148.445 70.9108 148.523 71.1042 148.523 71.2188C148.28 71.6341 147.836 72.1641 147.191 72.8086C146.561 73.4531 145.874 74.026 145.129 74.5273C144.384 75.0143 143.711 75.2578 143.109 75.2578C142.651 75.2578 142.293 75.0501 142.035 74.6348C141.777 74.2194 141.648 73.6823 141.648 73.0234C141.648 72.5938 141.749 71.8346 141.949 70.7461L142.723 66.793C142.451 67.3086 141.863 68.1966 140.961 69.457C140.374 70.2734 139.665 71.1328 138.834 72.0352C138.018 72.9375 137.201 73.7038 136.385 74.334C135.568 74.9499 134.874 75.2578 134.301 75.2578C132.868 75.2578 132.152 74.3125 132.152 72.4219C132.152 71.0755 132.353 69.5143 132.754 67.7383L134.043 61.7656C134.186 60.7773 134.258 60.2044 134.258 60.0469C134.258 59.3307 134.115 58.9727 133.828 58.9727C133.585 58.9727 133.219 59.2018 132.732 59.6602C132.503 59.8893 132.253 60.14 131.98 60.4121C131.723 60.6842 131.551 60.8776 131.465 60.9922C131.408 60.9922 131.3 60.8561 131.143 60.584C130.985 60.3118 130.906 60.1185 130.906 60.0039C131.135 59.6172 131.551 59.1374 132.152 58.5645C132.754 57.9772 133.398 57.4544 134.086 56.9961C134.773 56.5378 135.361 56.3086 135.848 56.3086ZM156.859 56.3086C157.318 56.3086 157.676 56.5163 157.934 56.9316C158.191 57.347 158.32 57.8841 158.32 58.543C158.32 59.1732 158.234 59.9323 158.062 60.8203L157.375 64.4297C157.733 63.5846 158.191 62.6966 158.75 61.7656C159.323 60.8203 159.932 59.9323 160.576 59.1016C161.221 58.2708 161.858 57.5977 162.488 57.082C163.118 56.5664 163.677 56.3086 164.164 56.3086C165.138 56.3086 165.926 56.7669 166.527 57.6836C166.527 59.6029 165.997 60.5625 164.938 60.5625C164.708 60.5625 164.436 60.3835 164.121 60.0254C163.806 59.6673 163.477 59.4883 163.133 59.4883C162.717 59.4883 162.173 59.832 161.5 60.5195C160.827 61.207 160.132 62.1094 159.416 63.2266C158.7 64.3294 158.055 65.5254 157.482 66.8145C156.91 68.0892 156.516 69.3138 156.301 70.4883L155.484 75C154.997 75.0859 154.525 75.1289 154.066 75.1289C153.522 75.1289 152.992 75.0859 152.477 75L155.055 61.7656C155.198 60.7773 155.27 60.2044 155.27 60.0469C155.27 59.3307 155.126 58.9727 154.84 58.9727C154.596 58.9727 154.231 59.2018 153.744 59.6602C153.515 59.8893 153.264 60.14 152.992 60.4121C152.734 60.6842 152.562 60.8776 152.477 60.9922C152.419 60.9922 152.312 60.8561 152.154 60.584C151.997 60.3118 151.918 60.1185 151.918 60.0039C152.147 59.6172 152.562 59.1374 153.164 58.5645C153.766 57.9772 154.41 57.4544 155.098 56.9961C155.785 56.5378 156.372 56.3086 156.859 56.3086ZM176.324 56.3086C178.014 56.3086 179.325 56.8958 180.256 58.0703C181.187 59.2448 181.652 60.8633 181.652 62.9258C181.652 64.401 181.366 65.8691 180.793 67.3301C180.22 68.7767 179.468 70.0944 178.537 71.2832C177.606 72.472 176.582 73.4245 175.465 74.1406C174.348 74.8568 173.245 75.2148 172.156 75.2148C170.438 75.2148 169.127 74.6562 168.225 73.5391C167.322 72.4219 166.871 70.832 166.871 68.7695C166.871 67.2799 167.15 65.8047 167.709 64.3438C168.282 62.8685 169.034 61.5293 169.965 60.3262C170.896 59.1087 171.913 58.1348 173.016 57.4043C174.133 56.6738 175.236 56.3086 176.324 56.3086ZM175.809 58.0703C175.092 58.0703 174.398 58.3854 173.725 59.0156C173.051 59.6315 172.443 60.4408 171.898 61.4434C171.354 62.446 170.924 63.5417 170.609 64.7305C170.294 65.9193 170.137 67.0794 170.137 68.2109C170.137 69.8724 170.402 71.1615 170.932 72.0781C171.462 72.9948 172.128 73.4531 172.93 73.4531C173.646 73.4531 174.326 73.1452 174.971 72.5293C175.63 71.8991 176.217 71.0827 176.732 70.0801C177.248 69.0632 177.649 67.9603 177.936 66.7715C178.236 65.5827 178.387 64.4154 178.387 63.2695C178.387 61.5794 178.158 60.2904 177.699 59.4023C177.241 58.5143 176.611 58.0703 175.809 58.0703ZM186.035 56.9531H189.043L190.074 51.7109C190.16 51.4245 190.862 51.2812 192.18 51.2812C192.466 51.2812 192.724 51.2956 192.953 51.3242L191.879 56.9531H195.789C195.932 56.9531 196.004 57.1393 196.004 57.5117C196.004 57.8411 195.875 58.2565 195.617 58.7578H191.535L189.258 70.4453C189.172 70.7891 189.129 71.1471 189.129 71.5195C189.129 72.2357 189.272 72.5938 189.559 72.5938C189.917 72.5938 190.346 72.3431 190.848 71.8418C191.349 71.3262 191.779 70.8893 192.137 70.5312L192.395 70.2305C192.452 70.2305 192.559 70.3665 192.717 70.6387C192.874 70.9108 192.953 71.1042 192.953 71.2188C192.71 71.6341 192.266 72.1641 191.621 72.8086C190.991 73.4531 190.303 74.026 189.559 74.5273C188.814 75.0143 188.141 75.2578 187.539 75.2578C187.081 75.2578 186.723 75.0501 186.465 74.6348C186.207 74.2194 186.078 73.6823 186.078 73.0234C186.078 72.5938 186.178 71.8346 186.379 70.7461L188.699 58.7578H185.648C185.562 58.7578 185.52 58.6003 185.52 58.2852C185.52 57.9128 185.691 57.4688 186.035 56.9531Z" fill="white"/>
<path d="M0 14.4961C6.30012 20.0984 15.0791 19.1979 30.687 15.1421C32.2497 14.736 33.9168 14.9601 35.3059 15.7832L61.0905 31.063L35.3304 19.6141C33.9205 18.9874 32.3183 18.9353 30.8588 19.4358C12.5496 25.7159 4.73674 24.7283 0 14.4961Z" fill="url(#paint8_radial_692_1656)"/>
<path d="M16.5669 25.8858C22.7094 27.5488 34.4861 19.1752 43.5027 24.2129C35.7991 20.3448 24.9274 34.7378 16.5669 25.8858Z" fill="url(#paint9_radial_692_1656)"/>
<path d="M42.4528 34.1693C40.4746 32.9379 39.8039 31.791 39.5364 30.2054C39.314 28.8871 40.2138 27.6374 41.514 27.3262C46.4064 26.1551 49.6595 27.3172 54.8779 31.063C50.3759 26.3362 46.8249 25.2844 39.6469 25.78C38.7972 25.8387 38.0191 26.2751 37.5081 26.9564L36.1669 28.7446C35.6047 29.4943 35.6307 30.5432 36.2784 31.2205C38.4425 33.4837 39.9798 34.1156 42.4528 34.1693Z" fill="url(#paint10_radial_692_1656)"/>
<path d="M61.0905 28.9921C48.8725 19.5072 53.131 18.6378 60.0551 10.3543C56.6285 8.93238 54.8937 8.83857 52.8071 12.4252C51.2879 8.29387 49.7783 6.42726 45.559 4.14173C43.8524 8.52031 44.6321 10.6991 46.5945 14.4961C42.9378 12.0347 40.7471 11.3823 36.2402 13.4606C46.3046 17.727 45.2926 18.8748 61.0905 28.9921Z" fill="url(#paint11_radial_692_1656)"/>
<path d="M78.6929 22.7441C78.6929 22.1918 79.1406 21.7441 79.6929 21.7441H79.7638C80.3161 21.7441 80.7638 22.1918 80.7638 22.7441V25.9213C80.7638 26.4735 80.3161 26.9213 79.7638 26.9213H74.4803C73.3757 26.9213 72.4803 26.0258 72.4803 24.9213V19.6024C72.4803 18.4978 73.3757 17.6024 74.4803 17.6024H78.7281C80.6137 17.6024 82.4755 18.023 84.178 18.8337V18.8337C85.2965 19.3663 86.1249 20.3629 86.4441 21.5599L88.3399 28.6695C89.2063 31.9182 86.6836 35.0788 83.3237 34.9544L68.0679 34.3894C64.7776 34.2675 62.2002 31.5169 62.2923 28.2256L62.6948 13.8426C62.7856 10.5955 65.4441 8.01038 68.6924 8.01038H83.0387C86.0229 8.01038 88.8896 9.21712 90.915 11.4088C101.807 23.194 109.097 33.3225 115.395 32.2299C115.685 32.1796 115.968 32.3916 115.968 32.686V32.686C115.968 32.9325 115.766 33.1318 115.519 33.1285C109.37 33.045 105.37 32.4313 87.653 13.254C86.5367 12.0456 85.0793 11.1983 83.4735 10.8414L77.8584 9.59364C77.0431 9.41248 76.199 9.4035 75.3801 9.56728L71.091 10.4251C68.2865 10.986 66.2677 13.4485 66.2677 16.3086V27.0984C66.2677 29.8599 68.5063 32.0984 71.2677 32.0984H80.9055C83.1146 32.0984 84.9055 30.3076 84.9055 28.0984V22.6378C84.9055 20.4287 83.1146 18.6378 80.9055 18.6378H76.5512C75.4466 18.6378 74.5512 19.5332 74.5512 20.6378V24.8858C74.5512 25.4381 74.9989 25.8858 75.5512 25.8858H77.6929C78.2452 25.8858 78.6929 25.4381 78.6929 24.8858V22.7441Z" fill="url(#paint12_radial_692_1656)"/>
<path d="M104.412 33.0631C96.4743 29.9513 88.3242 12.4066 78.6929 13.4606C91.6665 19.2326 92.9183 31.4785 104.412 33.0631Z" fill="url(#paint13_radial_692_1656)"/>
<path d="M111.827 30.0276C106.485 21.6827 106.361 16.9143 110.791 8.28346C105.363 9.71409 97.6256 19.5114 111.827 30.0276Z" fill="url(#paint14_radial_692_1656)"/>
<path d="M118.039 10.3543C113.102 14.0549 110.405 23.2793 118.039 32.0984C106.33 25.6888 109.793 12.7713 118.039 0V10.3543Z" fill="url(#paint15_radial_692_1656)"/>
<path d="M236.079 14.4961C229.778 20.0984 221 19.1979 205.392 15.1421C203.829 14.736 202.162 14.9601 200.773 15.7832L174.988 31.063L200.748 19.6141C202.158 18.9874 203.76 18.9353 205.22 19.4358C223.529 25.7159 231.342 24.7283 236.079 14.4961Z" fill="url(#paint16_radial_692_1656)"/>
<path d="M219.512 25.8858C213.369 27.5488 201.593 19.1752 192.576 24.2129C200.279 20.3448 211.151 34.7378 219.512 25.8858Z" fill="url(#paint17_radial_692_1656)"/>
<path d="M193.626 34.1693C195.604 32.9379 196.275 31.791 196.542 30.2054C196.765 28.8871 195.865 27.6374 194.565 27.3262C189.672 26.1551 186.419 27.3172 181.201 31.063C185.703 26.3362 189.254 25.2844 196.432 25.78C197.281 25.8387 198.06 26.2751 198.571 26.9564L199.912 28.7446C200.474 29.4943 200.448 30.5432 199.8 31.2205C197.636 33.4837 196.099 34.1156 193.626 34.1693Z" fill="url(#paint18_radial_692_1656)"/>
<path d="M174.988 28.9921C187.206 19.5072 182.948 18.6378 176.024 10.3543C179.45 8.93238 181.185 8.83857 183.272 12.4252C184.791 8.29387 186.3 6.42726 190.52 4.14173C192.226 8.52031 191.446 10.6991 189.484 14.4961C193.141 12.0347 195.331 11.3823 199.838 13.4606C189.774 17.727 190.786 18.8748 174.988 28.9921Z" fill="url(#paint19_radial_692_1656)"/>
<path d="M157.386 22.7441C157.386 22.1918 156.938 21.7441 156.386 21.7441H156.315C155.763 21.7441 155.315 22.1918 155.315 22.7441V25.9213C155.315 26.4735 155.763 26.9213 156.315 26.9213H161.598C162.703 26.9213 163.598 26.0258 163.598 24.9213V19.6024C163.598 18.4978 162.703 17.6024 161.598 17.6024H157.351C155.465 17.6024 153.603 18.023 151.901 18.8337V18.8337C150.782 19.3663 149.954 20.3629 149.635 21.5599L147.739 28.6695C146.872 31.9182 149.395 35.0788 152.755 34.9544L168.011 34.3894C171.301 34.2675 173.878 31.5169 173.786 28.2256L173.384 13.8426C173.293 10.5955 170.635 8.01038 167.386 8.01038H153.04C150.056 8.01038 147.189 9.21712 145.164 11.4088C134.272 23.194 126.982 33.3225 120.683 32.2299C120.393 32.1796 120.11 32.3916 120.11 32.686V32.686C120.11 32.9325 120.313 33.1318 120.559 33.1285C126.708 33.045 130.709 32.4313 148.426 13.254C149.542 12.0456 150.999 11.1983 152.605 10.8414L158.22 9.59364C159.035 9.41248 159.88 9.4035 160.698 9.56728L164.988 10.4251C167.792 10.986 169.811 13.4485 169.811 16.3086V27.0984C169.811 29.8599 167.572 32.0984 164.811 32.0984H155.173C152.964 32.0984 151.173 30.3076 151.173 28.0984V22.6378C151.173 20.4287 152.964 18.6378 155.173 18.6378H159.527C160.632 18.6378 161.527 19.5332 161.527 20.6378V24.8858C161.527 25.4381 161.08 25.8858 160.527 25.8858H158.386C157.833 25.8858 157.386 25.4381 157.386 24.8858V22.7441Z" fill="url(#paint20_radial_692_1656)"/>
<path d="M131.666 33.0631C139.604 29.9513 147.754 12.4066 157.386 13.4606C144.412 19.2326 143.16 31.4785 131.666 33.0631Z" fill="url(#paint21_radial_692_1656)"/>
<path d="M124.252 30.0276C129.594 21.6827 129.718 16.9143 125.287 8.28346C130.716 9.71409 138.453 19.5114 124.252 30.0276Z" fill="url(#paint22_radial_692_1656)"/>
<path d="M118.039 10.3543C122.976 14.0549 125.673 23.2793 118.039 32.0984C129.749 25.6888 126.286 12.7713 118.039 0V10.3543Z" fill="url(#paint23_radial_692_1656)"/>
<defs>
<radialGradient id="paint0_radial_692_1656" cx="0" cy="0" r="1" gradientUnits="userSpaceOnUse" gradientTransform="translate(79.7285 111.309) scale(38.311 20.1909)">
<stop stop-color="#E1E1E1"/>
<stop offset="1" stop-color="#FFF4DA"/>
</radialGradient>
<radialGradient id="paint1_radial_692_1656" cx="0" cy="0" r="1" gradientUnits="userSpaceOnUse" gradientTransform="translate(79.7285 111.309) scale(38.311 20.1909)">
<stop stop-color="#E1E1E1"/>
<stop offset="1" stop-color="#FFF4DA"/>
</radialGradient>
<radialGradient id="paint2_radial_692_1656" cx="0" cy="0" r="1" gradientUnits="userSpaceOnUse" gradientTransform="translate(79.7285 111.309) scale(38.311 20.1909)">
<stop stop-color="#E1E1E1"/>
<stop offset="1" stop-color="#FFF4DA"/>
</radialGradient>
<radialGradient id="paint3_radial_692_1656" cx="0" cy="0" r="1" gradientUnits="userSpaceOnUse" gradientTransform="translate(79.7285 111.309) scale(38.311 20.1909)">
<stop stop-color="#E1E1E1"/>
<stop offset="1" stop-color="#FFF4DA"/>
</radialGradient>
<radialGradient id="paint4_radial_692_1656" cx="0" cy="0" r="1" gradientUnits="userSpaceOnUse" gradientTransform="translate(156.351 111.309) rotate(180) scale(38.311 20.1909)">
<stop stop-color="#E1E1E1"/>
<stop offset="1" stop-color="#FFF4DA"/>
</radialGradient>
<radialGradient id="paint5_radial_692_1656" cx="0" cy="0" r="1" gradientUnits="userSpaceOnUse" gradientTransform="translate(156.351 111.309) rotate(180) scale(38.311 20.1909)">
<stop stop-color="#E1E1E1"/>
<stop offset="1" stop-color="#FFF4DA"/>
</radialGradient>
<radialGradient id="paint6_radial_692_1656" cx="0" cy="0" r="1" gradientUnits="userSpaceOnUse" gradientTransform="translate(156.351 111.309) rotate(180) scale(38.311 20.1909)">
<stop stop-color="#E1E1E1"/>
<stop offset="1" stop-color="#FFF4DA"/>
</radialGradient>
<radialGradient id="paint7_radial_692_1656" cx="0" cy="0" r="1" gradientUnits="userSpaceOnUse" gradientTransform="translate(156.351 111.309) rotate(180) scale(38.311 20.1909)">
<stop stop-color="#E1E1E1"/>
<stop offset="1" stop-color="#FFF4DA"/>
</radialGradient>
<radialGradient id="paint8_radial_692_1656" cx="0" cy="0" r="1" gradientUnits="userSpaceOnUse" gradientTransform="translate(59.0197 17.6024) scale(59.0197 17.6024)">
<stop stop-color="#E1E1E1"/>
<stop offset="1" stop-color="#FFF4DA"/>
</radialGradient>
<radialGradient id="paint9_radial_692_1656" cx="0" cy="0" r="1" gradientUnits="userSpaceOnUse" gradientTransform="translate(59.0197 17.6024) scale(59.0197 17.6024)">
<stop stop-color="#E1E1E1"/>
<stop offset="1" stop-color="#FFF4DA"/>
</radialGradient>
<radialGradient id="paint10_radial_692_1656" cx="0" cy="0" r="1" gradientUnits="userSpaceOnUse" gradientTransform="translate(59.0197 17.6024) scale(59.0197 17.6024)">
<stop stop-color="#E1E1E1"/>
<stop offset="1" stop-color="#FFF4DA"/>
</radialGradient>
<radialGradient id="paint11_radial_692_1656" cx="0" cy="0" r="1" gradientUnits="userSpaceOnUse" gradientTransform="translate(59.0197 17.6024) scale(59.0197 17.6024)">
<stop stop-color="#E1E1E1"/>
<stop offset="1" stop-color="#FFF4DA"/>
</radialGradient>
<radialGradient id="paint12_radial_692_1656" cx="0" cy="0" r="1" gradientUnits="userSpaceOnUse" gradientTransform="translate(59.0197 17.6024) scale(59.0197 17.6024)">
<stop stop-color="#E1E1E1"/>
<stop offset="1" stop-color="#FFF4DA"/>
</radialGradient>
<radialGradient id="paint13_radial_692_1656" cx="0" cy="0" r="1" gradientUnits="userSpaceOnUse" gradientTransform="translate(59.0197 17.6024) scale(59.0197 17.6024)">
<stop stop-color="#E1E1E1"/>
<stop offset="1" stop-color="#FFF4DA"/>
</radialGradient>
<radialGradient id="paint14_radial_692_1656" cx="0" cy="0" r="1" gradientUnits="userSpaceOnUse" gradientTransform="translate(59.0197 17.6024) scale(59.0197 17.6024)">
<stop stop-color="#E1E1E1"/>
<stop offset="1" stop-color="#FFF4DA"/>
</radialGradient>
<radialGradient id="paint15_radial_692_1656" cx="0" cy="0" r="1" gradientUnits="userSpaceOnUse" gradientTransform="translate(59.0197 17.6024) scale(59.0197 17.6024)">
<stop stop-color="#E1E1E1"/>
<stop offset="1" stop-color="#FFF4DA"/>
</radialGradient>
<radialGradient id="paint16_radial_692_1656" cx="0" cy="0" r="1" gradientUnits="userSpaceOnUse" gradientTransform="translate(177.059 17.6024) rotate(180) scale(59.0197 17.6024)">
<stop stop-color="#E1E1E1"/>
<stop offset="1" stop-color="#FFF4DA"/>
</radialGradient>
<radialGradient id="paint17_radial_692_1656" cx="0" cy="0" r="1" gradientUnits="userSpaceOnUse" gradientTransform="translate(177.059 17.6024) rotate(180) scale(59.0197 17.6024)">
<stop stop-color="#E1E1E1"/>
<stop offset="1" stop-color="#FFF4DA"/>
</radialGradient>
<radialGradient id="paint18_radial_692_1656" cx="0" cy="0" r="1" gradientUnits="userSpaceOnUse" gradientTransform="translate(177.059 17.6024) rotate(180) scale(59.0197 17.6024)">
<stop stop-color="#E1E1E1"/>
<stop offset="1" stop-color="#FFF4DA"/>
</radialGradient>
<radialGradient id="paint19_radial_692_1656" cx="0" cy="0" r="1" gradientUnits="userSpaceOnUse" gradientTransform="translate(177.059 17.6024) rotate(180) scale(59.0197 17.6024)">
<stop stop-color="#E1E1E1"/>
<stop offset="1" stop-color="#FFF4DA"/>
</radialGradient>
<radialGradient id="paint20_radial_692_1656" cx="0" cy="0" r="1" gradientUnits="userSpaceOnUse" gradientTransform="translate(177.059 17.6024) rotate(180) scale(59.0197 17.6024)">
<stop stop-color="#E1E1E1"/>
<stop offset="1" stop-color="#FFF4DA"/>
</radialGradient>
<radialGradient id="paint21_radial_692_1656" cx="0" cy="0" r="1" gradientUnits="userSpaceOnUse" gradientTransform="translate(177.059 17.6024) rotate(180) scale(59.0197 17.6024)">
<stop stop-color="#E1E1E1"/>
<stop offset="1" stop-color="#FFF4DA"/>
</radialGradient>
<radialGradient id="paint22_radial_692_1656" cx="0" cy="0" r="1" gradientUnits="userSpaceOnUse" gradientTransform="translate(177.059 17.6024) rotate(180) scale(59.0197 17.6024)">
<stop stop-color="#E1E1E1"/>
<stop offset="1" stop-color="#FFF4DA"/>
</radialGradient>
<radialGradient id="paint23_radial_692_1656" cx="0" cy="0" r="1" gradientUnits="userSpaceOnUse" gradientTransform="translate(177.059 17.6024) rotate(180) scale(59.0197 17.6024)">
<stop stop-color="#E1E1E1"/>
<stop offset="1" stop-color="#FFF4DA"/>
</radialGradient>
</defs>
</svg>
