<svg width="237" height="132" viewBox="0 0 237 132" fill="none" xmlns="http://www.w3.org/2000/svg">
<path d="M50.7125 108.06C49.3889 108.487 47.9214 108.504 46.7169 107.809C44.5794 106.575 44.1412 105.154 44.5234 102.508V102.508C42.8798 103.056 42.063 104.953 43.0339 106.388C43.9977 107.812 45.0937 108.974 46.6267 110.246C47.9171 111.316 49.5696 111.855 51.2458 111.812C56.4406 111.679 59.0349 110.851 62.1257 108.72C61.1051 110.641 61.1618 111.76 61.9885 113.6C62.0605 113.76 62.2568 113.822 62.4077 113.731C64.0825 112.73 65.0039 111.892 66.2674 109.756C66.2154 114.032 66.9843 113.977 70.4091 114.933C67.5194 110.86 68.0525 109.221 70.1981 106.254C70.9958 105.151 72.1259 104.331 73.4053 103.866L78.5776 101.985C81.3342 100.982 84.3487 100.942 87.1313 101.869L104.173 107.55C104.307 107.435 104.442 107.326 104.578 107.223V104.508C104.578 103.403 105.474 102.508 106.578 102.508H108.791C109.896 102.508 110.791 103.403 110.791 104.508V105.614H111.826V103.472C111.826 102.368 110.931 101.472 109.826 101.472H105.543C104.438 101.472 103.543 102.368 103.543 103.472V106.65C98.7736 103.748 93.5321 101.584 86.7257 99.7769C82.8456 98.747 78.7534 99.0145 74.9328 100.247L50.7125 108.06Z" fill="url(#paint0_radial_692_1954)"/>
<path fill-rule="evenodd" clip-rule="evenodd" d="M118.039 111.827V108.721C115.458 105.74 114.163 105.799 111.826 105.614H110.791C108.063 105.589 106.222 105.979 104.578 107.223V107.685L104.173 107.55C103.27 108.327 102.409 109.382 101.472 110.791C94.4225 108.167 92.2419 105.859 84.6304 104.117C82.7927 103.696 80.8379 103.854 79.1733 104.739C77.1406 105.82 75.7478 107.075 74.4004 109.235C73.7976 110.201 73.7049 111.42 74.2146 112.438C75.0495 114.107 76.2498 115.417 79.1376 117.128C80.1186 117.709 81.3505 117.62 82.2784 116.957L86.28 114.099C87.2184 113.429 87.4128 112.09 86.6211 111.251C84.8302 109.354 83.7227 109.09 81.7989 109.756C83.0242 110.067 83.7473 110.456 84.396 111.688C84.7596 112.378 84.5518 113.216 84 113.767L82.2754 115.492C81.3706 116.397 79.9663 116.664 78.9055 115.948C77.3915 114.927 76.4781 113.802 75.4876 112.283C74.8937 111.372 74.8539 110.185 75.48 109.296C77.188 106.871 79.0763 106.022 82.8343 105.614C87.5138 105.758 93.9734 109.592 101.472 112.862C101.61 115.305 101.827 117.608 105.43 119.531C106.15 119.915 107.027 119.733 107.604 119.156L110.252 116.508C110.55 116.21 110.55 115.727 110.252 115.429V115.429C109.971 115.149 109.521 115.134 109.21 115.381C104.882 118.812 103.349 117.017 102.508 112.862C108.784 113.743 111.6 112.063 112.862 106.65H114.933L118.039 111.827ZM102.508 111.827C105.324 107.593 107.416 106.549 111.826 106.65C109.581 111.782 107.623 113.001 102.508 111.827Z" fill="url(#paint1_radial_692_1954)"/>
<path d="M118.039 114.933V111.827C116.112 115.763 116.189 118.074 110.791 119.075C111.96 121.038 112.806 121.636 114.933 121.146C115.324 125.201 115.717 127.472 118.039 131.5V125.287C116.703 121.107 116.952 118.865 118.039 114.933Z" fill="url(#paint2_radial_692_1954)"/>
<path d="M115.968 98.3662C116.06 94.792 116.696 93.3936 118.039 91.1182V105.614C115.722 100.811 114.342 99.4138 111.826 99.4015C113.364 97.8121 114.276 97.3638 115.968 98.3662Z" fill="url(#paint3_radial_692_1954)"/>
<path d="M185.366 108.06C186.689 108.487 188.157 108.504 189.361 107.809C191.499 106.575 191.937 105.154 191.555 102.508V102.508C193.198 103.056 194.015 104.953 193.044 106.388C192.08 107.812 190.984 108.974 189.451 110.246C188.161 111.316 186.509 111.855 184.832 111.812C179.637 111.679 177.043 110.851 173.952 108.72C174.973 110.641 174.916 111.76 174.09 113.6C174.018 113.76 173.821 113.822 173.67 113.731C171.996 112.73 171.074 111.892 169.811 109.756C169.863 114.032 169.094 113.977 165.669 114.933C168.559 110.86 168.026 109.221 165.88 106.254C165.082 105.151 163.952 104.331 162.673 103.866L157.5 101.985C154.744 100.982 151.729 100.942 148.947 101.869L131.905 107.55C131.771 107.435 131.636 107.326 131.5 107.223V104.508C131.5 103.403 130.604 102.508 129.5 102.508H127.287C126.183 102.508 125.287 103.403 125.287 104.508V105.614H124.252V103.472C124.252 102.368 125.147 101.472 126.252 101.472H130.535C131.64 101.472 132.535 102.368 132.535 103.472V106.65C137.304 103.748 142.546 101.584 149.352 99.7769C153.232 98.747 157.325 99.0145 161.145 100.247L185.366 108.06Z" fill="url(#paint4_radial_692_1954)"/>
<path fill-rule="evenodd" clip-rule="evenodd" d="M118.039 111.827V108.721C120.62 105.74 121.915 105.799 124.252 105.614H125.287C128.015 105.589 129.856 105.979 131.5 107.223V107.685L131.905 107.55C132.808 108.327 133.669 109.382 134.606 110.791C141.656 108.167 143.836 105.859 151.448 104.117C153.285 103.696 155.24 103.854 156.905 104.739C158.938 105.82 160.33 107.075 161.678 109.235C162.281 110.201 162.373 111.42 161.863 112.438C161.029 114.107 159.828 115.417 156.941 117.128C155.96 117.709 154.728 117.62 153.8 116.957L149.798 114.099C148.86 113.429 148.665 112.09 149.457 111.251C151.248 109.354 152.355 109.09 154.279 109.756C153.054 110.067 152.331 110.456 151.682 111.688C151.319 112.378 151.526 113.216 152.078 113.767L153.803 115.492C154.708 116.397 156.112 116.664 157.173 115.948C158.687 114.927 159.6 113.802 160.591 112.283C161.184 111.372 161.224 110.185 160.598 109.296C158.89 106.871 157.002 106.022 153.244 105.614C148.564 105.758 142.105 109.592 134.606 112.862C134.468 115.305 134.251 117.608 130.648 119.531C129.928 119.915 129.051 119.733 128.474 119.156L125.826 116.508C125.528 116.21 125.528 115.727 125.826 115.429V115.429C126.107 115.149 126.557 115.134 126.868 115.381C131.196 118.812 132.729 117.017 133.571 112.862C127.294 113.743 124.478 112.063 123.216 106.65H121.145L118.039 111.827ZM133.571 111.827C130.754 107.593 128.662 106.549 124.252 106.65C126.497 111.782 128.455 113.001 133.571 111.827Z" fill="url(#paint5_radial_692_1954)"/>
<path d="M118.039 114.933V111.827C119.967 115.763 119.889 118.074 125.287 119.075C124.119 121.038 123.273 121.636 121.145 121.146C120.754 125.201 120.361 127.472 118.039 131.5V125.287C119.375 121.107 119.126 118.865 118.039 114.933Z" fill="url(#paint6_radial_692_1954)"/>
<path d="M120.11 98.3662C120.019 94.792 119.382 93.3936 118.039 91.1182V105.614C120.356 100.811 121.736 99.4138 124.252 99.4015C122.714 97.8121 121.802 97.3638 120.11 98.3662Z" fill="url(#paint7_radial_692_1954)"/>
<path d="M78.6875 52.8711L75.6367 69.0273C75.3216 70.5599 75.1641 71.849 75.1641 72.8945C75.1641 73.1237 75.3574 73.3314 75.7441 73.5176C76.1309 73.7038 76.5104 73.8255 76.8828 73.8828L77.4844 73.9688C77.5417 73.9688 77.5703 74.026 77.5703 74.1406C77.5703 74.4557 77.4844 74.7852 77.3125 75.1289C75.9948 75.0573 74.9635 75.0072 74.2188 74.9785C73.474 74.9355 73.0156 74.9141 72.8438 74.9141C72.8151 74.9141 72.4069 74.9355 71.6191 74.9785C70.8314 75.0072 69.6641 75.0573 68.1172 75.1289C68.0599 75.0716 68.0312 74.957 68.0312 74.7852C68.0312 74.2409 68.1315 73.9688 68.332 73.9688C68.5612 73.9688 68.8763 73.9258 69.2773 73.8398C69.6927 73.7539 70.0794 73.6393 70.4375 73.4961C70.7956 73.3529 71.0104 73.1953 71.082 73.0234C71.4974 72.0781 71.8698 70.7031 72.1992 68.8984L75.25 53C75.5651 51.4674 75.7227 50.1497 75.7227 49.0469C75.7227 48.832 75.5723 48.6387 75.2715 48.4668C74.985 48.2949 74.6484 48.1589 74.2617 48.0586C73.8893 47.944 73.5742 47.8867 73.3164 47.8867C73.2591 47.8867 73.2305 47.8151 73.2305 47.6719C73.2305 47.2708 73.3451 46.9557 73.5742 46.7266C73.8034 46.7409 74.1901 46.7695 74.7344 46.8125C75.293 46.8555 75.8945 46.8984 76.5391 46.9414C77.1836 46.9701 77.7422 46.9844 78.2148 46.9844C78.9023 46.9844 79.7832 46.9414 80.8574 46.8555C81.9316 46.7695 82.569 46.7266 82.7695 46.7266V46.8555C82.7695 47.543 82.6693 47.8867 82.4688 47.8867C82.3255 47.8867 82.0462 47.944 81.6309 48.0586C81.2298 48.1589 80.8359 48.2878 80.4492 48.4453C80.0768 48.5885 79.862 48.7318 79.8047 48.875C79.418 49.7201 79.0456 51.0521 78.6875 52.8711ZM86.8945 56.3086C87.3529 56.3086 87.7109 56.5163 87.9688 56.9316C88.2266 57.347 88.3555 57.8841 88.3555 58.543C88.3555 59.1732 88.2695 59.9323 88.0977 60.8203L87.3242 64.7734C87.5964 64.2865 88.2194 63.3984 89.1934 62.1094C89.8379 61.2643 90.5827 60.3978 91.4277 59.5098C92.2871 58.6074 93.1322 57.8483 93.9629 57.2324C94.8079 56.6165 95.5169 56.3086 96.0898 56.3086C97.5221 56.3086 98.2383 57.2539 98.2383 59.1445C98.2383 60.4766 98.0378 62.0378 97.6367 63.8281L96.2188 70.4453C96.1328 70.7891 96.0898 71.1471 96.0898 71.5195C96.0898 72.2357 96.2331 72.5938 96.5195 72.5938C96.8776 72.5938 97.3073 72.3431 97.8086 71.8418C98.3099 71.3262 98.7396 70.8893 99.0977 70.5312L99.3555 70.2305C99.4128 70.2305 99.5202 70.3665 99.6777 70.6387C99.8353 70.9108 99.9141 71.1042 99.9141 71.2188C99.6706 71.6341 99.2266 72.1641 98.582 72.8086C97.9518 73.4531 97.2643 74.026 96.5195 74.5273C95.7747 75.0143 95.1016 75.2578 94.5 75.2578C94.0417 75.2578 93.6836 75.0501 93.4258 74.6348C93.168 74.2194 93.0391 73.6823 93.0391 73.0234C93.0391 72.5938 93.1393 71.8346 93.3398 70.7461L94.8438 63.6562C95.0443 62.6823 95.1445 61.9089 95.1445 61.3359C95.1445 60.1042 94.8724 59.4883 94.3281 59.4883C93.8555 59.4883 93.2181 59.8464 92.416 60.5625C91.6139 61.2643 90.776 62.2025 89.9023 63.377C89.043 64.5514 88.2624 65.862 87.5605 67.3086C86.8587 68.7409 86.3646 70.1875 86.0781 71.6484L85.3477 75C84.9609 75.1146 84.5169 75.1719 84.0156 75.1719C83.5286 75.1719 83.0417 75.1146 82.5547 75L85.0898 61.7656C85.2331 60.7773 85.3047 60.2044 85.3047 60.0469C85.3047 59.3307 85.1615 58.9727 84.875 58.9727C84.6315 58.9727 84.2663 59.2018 83.7793 59.6602C83.5501 59.8893 83.2995 60.14 83.0273 60.4121C82.7695 60.6842 82.5977 60.8776 82.5117 60.9922C82.4544 60.9922 82.347 60.8561 82.1895 60.584C82.0319 60.3118 81.9531 60.1185 81.9531 60.0039C82.1823 59.6172 82.5977 59.1374 83.1992 58.5645C83.8008 57.9772 84.4453 57.4544 85.1328 56.9961C85.8203 56.5378 86.4076 56.3086 86.8945 56.3086ZM116.844 44.9648C118.677 44.9648 119.852 45.4518 120.367 46.4258C120.367 48.2878 119.852 49.2188 118.82 49.2188C118.362 49.2188 117.954 49.0039 117.596 48.5742C117.252 48.1302 116.901 47.6934 116.543 47.2637C116.199 46.8197 115.784 46.5977 115.297 46.5977C114.38 46.5977 113.406 47.5358 112.375 49.4121C111.358 51.2598 110.556 53.8737 109.969 57.2539V57.3398C109.969 57.4544 110.012 57.5117 110.098 57.5117H115.039C115.182 57.5117 115.254 57.6836 115.254 58.0273C115.254 58.5 115.096 58.987 114.781 59.4883H109.754C109.596 59.4883 109.51 59.6029 109.496 59.832L107.133 72.6797C106.445 76.6615 105.235 79.6979 103.502 81.7891C101.769 83.8802 99.8854 84.9258 97.8516 84.9258C96.849 84.9258 96.0612 84.7467 95.4883 84.3887C94.9154 84.0306 94.543 83.6224 94.3711 83.1641C94.3424 82.5052 94.5 81.918 94.8438 81.4023C95.1875 80.8867 95.6172 80.6289 96.1328 80.6289C96.5339 80.6289 96.8848 80.8438 97.1855 81.2734C97.472 81.7174 97.7799 82.1543 98.1094 82.584C98.4245 83.028 98.8255 83.25 99.3125 83.25C99.8854 83.25 100.423 82.9134 100.924 82.2402C101.439 81.5814 101.905 80.7578 102.32 79.7695C102.736 78.7812 103.079 77.793 103.352 76.8047C103.624 75.8164 103.81 75 103.91 74.3555L106.488 59.7891V59.7031C106.488 59.5599 106.445 59.4883 106.359 59.4883H103.566C103.509 59.4883 103.48 59.4453 103.48 59.3594C103.48 59.1875 103.588 58.9583 103.803 58.6719C104.018 58.3711 104.283 58.1061 104.598 57.877C104.927 57.6335 105.242 57.5117 105.543 57.5117H106.789C106.904 57.5117 106.99 57.3828 107.047 57.125C107.434 54.776 108.121 52.6849 109.109 50.8516C110.112 49.0182 111.286 47.5788 112.633 46.5332C113.993 45.4876 115.397 44.9648 116.844 44.9648ZM122.688 47.2422C123.117 47.2422 123.482 47.4141 123.783 47.7578C124.084 48.1016 124.234 48.5026 124.234 48.9609C124.234 49.6484 124.012 50.25 123.568 50.7656C123.124 51.2812 122.573 51.5391 121.914 51.5391C121.456 51.5391 121.098 51.36 120.84 51.002C120.582 50.6439 120.453 50.207 120.453 49.6914C120.453 49.0326 120.668 48.4596 121.098 47.9727C121.527 47.4857 122.057 47.2422 122.688 47.2422ZM121.441 56.3086C121.9 56.3086 122.258 56.5163 122.516 56.9316C122.773 57.347 122.902 57.8841 122.902 58.543C122.902 59.1302 122.816 59.8893 122.645 60.8203L120.754 70.4453C120.668 70.7891 120.625 71.1471 120.625 71.5195C120.625 72.2357 120.768 72.5938 121.055 72.5938C121.413 72.5938 121.842 72.3431 122.344 71.8418C122.845 71.3262 123.275 70.8893 123.633 70.5312L123.891 70.2305C123.948 70.2305 124.055 70.3665 124.213 70.6387C124.37 70.9108 124.449 71.1042 124.449 71.2188C124.206 71.6341 123.762 72.1641 123.117 72.8086C122.487 73.4531 121.799 74.026 121.055 74.5273C120.31 75.0143 119.637 75.2578 119.035 75.2578C118.577 75.2578 118.219 75.0501 117.961 74.6348C117.703 74.2194 117.574 73.6823 117.574 73.0234C117.574 72.5938 117.674 71.8346 117.875 70.7461L119.637 61.7656C119.78 60.9206 119.852 60.3477 119.852 60.0469C119.852 59.3307 119.708 58.9727 119.422 58.9727C119.25 58.9727 119.014 59.0872 118.713 59.3164C118.426 59.5456 118.147 59.8034 117.875 60.0898C117.603 60.362 117.402 60.5768 117.273 60.7344L117.059 60.9922C117.001 60.9922 116.894 60.8561 116.736 60.584C116.579 60.3118 116.5 60.1185 116.5 60.0039C116.729 59.6172 117.145 59.1374 117.746 58.5645C118.348 57.9772 118.992 57.4544 119.68 56.9961C120.367 56.5378 120.954 56.3086 121.441 56.3086ZM128.66 56.9531H131.668L132.699 51.7109C132.785 51.4245 133.487 51.2812 134.805 51.2812C135.091 51.2812 135.349 51.2956 135.578 51.3242L134.504 56.9531H138.414C138.557 56.9531 138.629 57.1393 138.629 57.5117C138.629 57.8411 138.5 58.2565 138.242 58.7578H134.16L131.883 70.4453C131.797 70.7891 131.754 71.1471 131.754 71.5195C131.754 72.2357 131.897 72.5938 132.184 72.5938C132.542 72.5938 132.971 72.3431 133.473 71.8418C133.974 71.3262 134.404 70.8893 134.762 70.5312L135.02 70.2305C135.077 70.2305 135.184 70.3665 135.342 70.6387C135.499 70.9108 135.578 71.1042 135.578 71.2188C135.335 71.6341 134.891 72.1641 134.246 72.8086C133.616 73.4531 132.928 74.026 132.184 74.5273C131.439 75.0143 130.766 75.2578 130.164 75.2578C129.706 75.2578 129.348 75.0501 129.09 74.6348C128.832 74.2194 128.703 73.6823 128.703 73.0234C128.703 72.5938 128.803 71.8346 129.004 70.7461L131.324 58.7578H128.273C128.188 58.7578 128.145 58.6003 128.145 58.2852C128.145 57.9128 128.316 57.4688 128.66 56.9531ZM147.91 56.3086C149.6 56.3086 150.911 56.8958 151.842 58.0703C152.773 59.2448 153.238 60.8633 153.238 62.9258C153.238 64.401 152.952 65.8691 152.379 67.3301C151.806 68.7767 151.054 70.0944 150.123 71.2832C149.192 72.472 148.168 73.4245 147.051 74.1406C145.934 74.8568 144.831 75.2148 143.742 75.2148C142.023 75.2148 140.713 74.6562 139.811 73.5391C138.908 72.4219 138.457 70.832 138.457 68.7695C138.457 67.2799 138.736 65.8047 139.295 64.3438C139.868 62.8685 140.62 61.5293 141.551 60.3262C142.482 59.1087 143.499 58.1348 144.602 57.4043C145.719 56.6738 146.822 56.3086 147.91 56.3086ZM147.395 58.0703C146.678 58.0703 145.984 58.3854 145.311 59.0156C144.637 59.6315 144.029 60.4408 143.484 61.4434C142.94 62.446 142.51 63.5417 142.195 64.7305C141.88 65.9193 141.723 67.0794 141.723 68.2109C141.723 69.8724 141.988 71.1615 142.518 72.0781C143.048 72.9948 143.714 73.4531 144.516 73.4531C145.232 73.4531 145.912 73.1452 146.557 72.5293C147.215 71.8991 147.803 71.0827 148.318 70.0801C148.834 69.0632 149.235 67.9603 149.521 66.7715C149.822 65.5827 149.973 64.4154 149.973 63.2695C149.973 61.5794 149.743 60.2904 149.285 59.4023C148.827 58.5143 148.197 58.0703 147.395 58.0703ZM162.133 56.3086C162.591 56.3086 162.949 56.5163 163.207 56.9316C163.465 57.347 163.594 57.8841 163.594 58.543C163.594 59.1732 163.508 59.9323 163.336 60.8203L162.648 64.4297C163.007 63.5846 163.465 62.6966 164.023 61.7656C164.596 60.8203 165.205 59.9323 165.85 59.1016C166.494 58.2708 167.132 57.5977 167.762 57.082C168.392 56.5664 168.951 56.3086 169.438 56.3086C170.411 56.3086 171.199 56.7669 171.801 57.6836C171.801 59.6029 171.271 60.5625 170.211 60.5625C169.982 60.5625 169.71 60.3835 169.395 60.0254C169.079 59.6673 168.75 59.4883 168.406 59.4883C167.991 59.4883 167.447 59.832 166.773 60.5195C166.1 61.207 165.406 62.1094 164.689 63.2266C163.973 64.3294 163.329 65.5254 162.756 66.8145C162.183 68.0892 161.789 69.3138 161.574 70.4883L160.758 75C160.271 75.0859 159.798 75.1289 159.34 75.1289C158.796 75.1289 158.266 75.0859 157.75 75L160.328 61.7656C160.471 60.7773 160.543 60.2044 160.543 60.0469C160.543 59.3307 160.4 58.9727 160.113 58.9727C159.87 58.9727 159.505 59.2018 159.018 59.6602C158.788 59.8893 158.538 60.14 158.266 60.4121C158.008 60.6842 157.836 60.8776 157.75 60.9922C157.693 60.9922 157.585 60.8561 157.428 60.584C157.27 60.3118 157.191 60.1185 157.191 60.0039C157.421 59.6172 157.836 59.1374 158.438 58.5645C159.039 57.9772 159.684 57.4544 160.371 56.9961C161.059 56.5378 161.646 56.3086 162.133 56.3086Z" fill="white"/>
<path d="M0 14.4961C6.30012 20.0984 15.0791 19.1979 30.687 15.1421C32.2497 14.736 33.9168 14.9601 35.3059 15.7832L61.0905 31.063L35.3304 19.6141C33.9205 18.9874 32.3183 18.9353 30.8588 19.4358C12.5496 25.7159 4.73674 24.7283 0 14.4961Z" fill="url(#paint8_radial_692_1954)"/>
<path d="M16.5669 25.8858C22.7094 27.5488 34.4861 19.1752 43.5027 24.2129C35.7991 20.3448 24.9274 34.7378 16.5669 25.8858Z" fill="url(#paint9_radial_692_1954)"/>
<path d="M42.4528 34.1693C40.4746 32.9379 39.8039 31.791 39.5364 30.2054C39.314 28.8871 40.2138 27.6374 41.514 27.3262C46.4064 26.1551 49.6595 27.3172 54.8779 31.063C50.3759 26.3362 46.8249 25.2844 39.6469 25.78C38.7972 25.8387 38.0191 26.2751 37.5081 26.9564L36.1669 28.7446C35.6047 29.4943 35.6307 30.5432 36.2784 31.2205C38.4425 33.4837 39.9798 34.1156 42.4528 34.1693Z" fill="url(#paint10_radial_692_1954)"/>
<path d="M61.0905 28.9921C48.8725 19.5072 53.131 18.6378 60.0551 10.3543C56.6285 8.93238 54.8937 8.83857 52.8071 12.4252C51.2879 8.29387 49.7783 6.42726 45.559 4.14173C43.8524 8.52031 44.6321 10.6991 46.5945 14.4961C42.9378 12.0347 40.7471 11.3823 36.2402 13.4606C46.3046 17.727 45.2926 18.8748 61.0905 28.9921Z" fill="url(#paint11_radial_692_1954)"/>
<path d="M78.6929 22.7441C78.6929 22.1918 79.1406 21.7441 79.6929 21.7441H79.7638C80.3161 21.7441 80.7638 22.1918 80.7638 22.7441V25.9213C80.7638 26.4735 80.3161 26.9213 79.7638 26.9213H74.4803C73.3757 26.9213 72.4803 26.0258 72.4803 24.9213V19.6024C72.4803 18.4978 73.3757 17.6024 74.4803 17.6024H78.7281C80.6137 17.6024 82.4755 18.023 84.178 18.8337V18.8337C85.2965 19.3663 86.1249 20.3629 86.4441 21.5599L88.3399 28.6695C89.2063 31.9182 86.6836 35.0788 83.3237 34.9544L68.0679 34.3894C64.7776 34.2675 62.2002 31.5169 62.2923 28.2256L62.6948 13.8426C62.7856 10.5955 65.4441 8.01038 68.6924 8.01038H83.0387C86.0229 8.01038 88.8896 9.21712 90.915 11.4088C101.807 23.194 109.097 33.3225 115.395 32.2299C115.685 32.1796 115.968 32.3916 115.968 32.686V32.686C115.968 32.9325 115.766 33.1318 115.519 33.1285C109.37 33.045 105.37 32.4313 87.653 13.254C86.5367 12.0456 85.0793 11.1983 83.4735 10.8414L77.8584 9.59364C77.0431 9.41248 76.199 9.4035 75.3801 9.56728L71.091 10.4251C68.2865 10.986 66.2677 13.4485 66.2677 16.3086V27.0984C66.2677 29.8599 68.5063 32.0984 71.2677 32.0984H80.9055C83.1146 32.0984 84.9055 30.3076 84.9055 28.0984V22.6378C84.9055 20.4287 83.1146 18.6378 80.9055 18.6378H76.5512C75.4466 18.6378 74.5512 19.5332 74.5512 20.6378V24.8858C74.5512 25.4381 74.9989 25.8858 75.5512 25.8858H77.6929C78.2452 25.8858 78.6929 25.4381 78.6929 24.8858V22.7441Z" fill="url(#paint12_radial_692_1954)"/>
<path d="M104.412 33.0631C96.4743 29.9513 88.3242 12.4066 78.6929 13.4606C91.6665 19.2326 92.9183 31.4785 104.412 33.0631Z" fill="url(#paint13_radial_692_1954)"/>
<path d="M111.827 30.0276C106.485 21.6827 106.361 16.9143 110.791 8.28346C105.363 9.71409 97.6256 19.5114 111.827 30.0276Z" fill="url(#paint14_radial_692_1954)"/>
<path d="M118.039 10.3543C113.102 14.0549 110.405 23.2793 118.039 32.0984C106.33 25.6888 109.793 12.7713 118.039 0V10.3543Z" fill="url(#paint15_radial_692_1954)"/>
<path d="M236.079 14.4961C229.778 20.0984 221 19.1979 205.392 15.1421C203.829 14.736 202.162 14.9601 200.773 15.7832L174.988 31.063L200.748 19.6141C202.158 18.9874 203.76 18.9353 205.22 19.4358C223.529 25.7159 231.342 24.7283 236.079 14.4961Z" fill="url(#paint16_radial_692_1954)"/>
<path d="M219.512 25.8858C213.369 27.5488 201.593 19.1752 192.576 24.2129C200.279 20.3448 211.151 34.7378 219.512 25.8858Z" fill="url(#paint17_radial_692_1954)"/>
<path d="M193.626 34.1693C195.604 32.9379 196.275 31.791 196.542 30.2054C196.765 28.8871 195.865 27.6374 194.565 27.3262C189.672 26.1551 186.419 27.3172 181.201 31.063C185.703 26.3362 189.254 25.2844 196.432 25.78C197.281 25.8387 198.06 26.2751 198.571 26.9564L199.912 28.7446C200.474 29.4943 200.448 30.5432 199.8 31.2205C197.636 33.4837 196.099 34.1156 193.626 34.1693Z" fill="url(#paint18_radial_692_1954)"/>
<path d="M174.988 28.9921C187.206 19.5072 182.948 18.6378 176.024 10.3543C179.45 8.93238 181.185 8.83857 183.272 12.4252C184.791 8.29387 186.3 6.42726 190.52 4.14173C192.226 8.52031 191.446 10.6991 189.484 14.4961C193.141 12.0347 195.331 11.3823 199.838 13.4606C189.774 17.727 190.786 18.8748 174.988 28.9921Z" fill="url(#paint19_radial_692_1954)"/>
<path d="M157.386 22.7441C157.386 22.1918 156.938 21.7441 156.386 21.7441H156.315C155.763 21.7441 155.315 22.1918 155.315 22.7441V25.9213C155.315 26.4735 155.763 26.9213 156.315 26.9213H161.598C162.703 26.9213 163.598 26.0258 163.598 24.9213V19.6024C163.598 18.4978 162.703 17.6024 161.598 17.6024H157.351C155.465 17.6024 153.603 18.023 151.901 18.8337V18.8337C150.782 19.3663 149.954 20.3629 149.635 21.5599L147.739 28.6695C146.872 31.9182 149.395 35.0788 152.755 34.9544L168.011 34.3894C171.301 34.2675 173.878 31.5169 173.786 28.2256L173.384 13.8426C173.293 10.5955 170.635 8.01038 167.386 8.01038H153.04C150.056 8.01038 147.189 9.21712 145.164 11.4088C134.272 23.194 126.982 33.3225 120.683 32.2299C120.393 32.1796 120.11 32.3916 120.11 32.686V32.686C120.11 32.9325 120.313 33.1318 120.559 33.1285C126.708 33.045 130.709 32.4313 148.426 13.254C149.542 12.0456 150.999 11.1983 152.605 10.8414L158.22 9.59364C159.035 9.41248 159.88 9.4035 160.698 9.56728L164.988 10.4251C167.792 10.986 169.811 13.4485 169.811 16.3086V27.0984C169.811 29.8599 167.572 32.0984 164.811 32.0984H155.173C152.964 32.0984 151.173 30.3076 151.173 28.0984V22.6378C151.173 20.4287 152.964 18.6378 155.173 18.6378H159.527C160.632 18.6378 161.527 19.5332 161.527 20.6378V24.8858C161.527 25.4381 161.08 25.8858 160.527 25.8858H158.386C157.833 25.8858 157.386 25.4381 157.386 24.8858V22.7441Z" fill="url(#paint20_radial_692_1954)"/>
<path d="M131.666 33.0631C139.604 29.9513 147.754 12.4066 157.386 13.4606C144.412 19.2326 143.16 31.4785 131.666 33.0631Z" fill="url(#paint21_radial_692_1954)"/>
<path d="M124.252 30.0276C129.594 21.6827 129.718 16.9143 125.287 8.28346C130.716 9.71409 138.453 19.5114 124.252 30.0276Z" fill="url(#paint22_radial_692_1954)"/>
<path d="M118.039 10.3543C122.976 14.0549 125.673 23.2793 118.039 32.0984C129.749 25.6888 126.286 12.7713 118.039 0V10.3543Z" fill="url(#paint23_radial_692_1954)"/>
<defs>
<radialGradient id="paint0_radial_692_1954" cx="0" cy="0" r="1" gradientUnits="userSpaceOnUse" gradientTransform="translate(79.728 111.309) scale(38.311 20.1909)">
<stop stop-color="#E1E1E1"/>
<stop offset="1" stop-color="#FFF4DA"/>
</radialGradient>
<radialGradient id="paint1_radial_692_1954" cx="0" cy="0" r="1" gradientUnits="userSpaceOnUse" gradientTransform="translate(79.728 111.309) scale(38.311 20.1909)">
<stop stop-color="#E1E1E1"/>
<stop offset="1" stop-color="#FFF4DA"/>
</radialGradient>
<radialGradient id="paint2_radial_692_1954" cx="0" cy="0" r="1" gradientUnits="userSpaceOnUse" gradientTransform="translate(79.728 111.309) scale(38.311 20.1909)">
<stop stop-color="#E1E1E1"/>
<stop offset="1" stop-color="#FFF4DA"/>
</radialGradient>
<radialGradient id="paint3_radial_692_1954" cx="0" cy="0" r="1" gradientUnits="userSpaceOnUse" gradientTransform="translate(79.728 111.309) scale(38.311 20.1909)">
<stop stop-color="#E1E1E1"/>
<stop offset="1" stop-color="#FFF4DA"/>
</radialGradient>
<radialGradient id="paint4_radial_692_1954" cx="0" cy="0" r="1" gradientUnits="userSpaceOnUse" gradientTransform="translate(156.35 111.309) rotate(180) scale(38.311 20.1909)">
<stop stop-color="#E1E1E1"/>
<stop offset="1" stop-color="#FFF4DA"/>
</radialGradient>
<radialGradient id="paint5_radial_692_1954" cx="0" cy="0" r="1" gradientUnits="userSpaceOnUse" gradientTransform="translate(156.35 111.309) rotate(180) scale(38.311 20.1909)">
<stop stop-color="#E1E1E1"/>
<stop offset="1" stop-color="#FFF4DA"/>
</radialGradient>
<radialGradient id="paint6_radial_692_1954" cx="0" cy="0" r="1" gradientUnits="userSpaceOnUse" gradientTransform="translate(156.35 111.309) rotate(180) scale(38.311 20.1909)">
<stop stop-color="#E1E1E1"/>
<stop offset="1" stop-color="#FFF4DA"/>
</radialGradient>
<radialGradient id="paint7_radial_692_1954" cx="0" cy="0" r="1" gradientUnits="userSpaceOnUse" gradientTransform="translate(156.35 111.309) rotate(180) scale(38.311 20.1909)">
<stop stop-color="#E1E1E1"/>
<stop offset="1" stop-color="#FFF4DA"/>
</radialGradient>
<radialGradient id="paint8_radial_692_1954" cx="0" cy="0" r="1" gradientUnits="userSpaceOnUse" gradientTransform="translate(59.0197 17.6024) scale(59.0197 17.6024)">
<stop stop-color="#E1E1E1"/>
<stop offset="1" stop-color="#FFF4DA"/>
</radialGradient>
<radialGradient id="paint9_radial_692_1954" cx="0" cy="0" r="1" gradientUnits="userSpaceOnUse" gradientTransform="translate(59.0197 17.6024) scale(59.0197 17.6024)">
<stop stop-color="#E1E1E1"/>
<stop offset="1" stop-color="#FFF4DA"/>
</radialGradient>
<radialGradient id="paint10_radial_692_1954" cx="0" cy="0" r="1" gradientUnits="userSpaceOnUse" gradientTransform="translate(59.0197 17.6024) scale(59.0197 17.6024)">
<stop stop-color="#E1E1E1"/>
<stop offset="1" stop-color="#FFF4DA"/>
</radialGradient>
<radialGradient id="paint11_radial_692_1954" cx="0" cy="0" r="1" gradientUnits="userSpaceOnUse" gradientTransform="translate(59.0197 17.6024) scale(59.0197 17.6024)">
<stop stop-color="#E1E1E1"/>
<stop offset="1" stop-color="#FFF4DA"/>
</radialGradient>
<radialGradient id="paint12_radial_692_1954" cx="0" cy="0" r="1" gradientUnits="userSpaceOnUse" gradientTransform="translate(59.0197 17.6024) scale(59.0197 17.6024)">
<stop stop-color="#E1E1E1"/>
<stop offset="1" stop-color="#FFF4DA"/>
</radialGradient>
<radialGradient id="paint13_radial_692_1954" cx="0" cy="0" r="1" gradientUnits="userSpaceOnUse" gradientTransform="translate(59.0197 17.6024) scale(59.0197 17.6024)">
<stop stop-color="#E1E1E1"/>
<stop offset="1" stop-color="#FFF4DA"/>
</radialGradient>
<radialGradient id="paint14_radial_692_1954" cx="0" cy="0" r="1" gradientUnits="userSpaceOnUse" gradientTransform="translate(59.0197 17.6024) scale(59.0197 17.6024)">
<stop stop-color="#E1E1E1"/>
<stop offset="1" stop-color="#FFF4DA"/>
</radialGradient>
<radialGradient id="paint15_radial_692_1954" cx="0" cy="0" r="1" gradientUnits="userSpaceOnUse" gradientTransform="translate(59.0197 17.6024) scale(59.0197 17.6024)">
<stop stop-color="#E1E1E1"/>
<stop offset="1" stop-color="#FFF4DA"/>
</radialGradient>
<radialGradient id="paint16_radial_692_1954" cx="0" cy="0" r="1" gradientUnits="userSpaceOnUse" gradientTransform="translate(177.059 17.6024) rotate(180) scale(59.0197 17.6024)">
<stop stop-color="#E1E1E1"/>
<stop offset="1" stop-color="#FFF4DA"/>
</radialGradient>
<radialGradient id="paint17_radial_692_1954" cx="0" cy="0" r="1" gradientUnits="userSpaceOnUse" gradientTransform="translate(177.059 17.6024) rotate(180) scale(59.0197 17.6024)">
<stop stop-color="#E1E1E1"/>
<stop offset="1" stop-color="#FFF4DA"/>
</radialGradient>
<radialGradient id="paint18_radial_692_1954" cx="0" cy="0" r="1" gradientUnits="userSpaceOnUse" gradientTransform="translate(177.059 17.6024) rotate(180) scale(59.0197 17.6024)">
<stop stop-color="#E1E1E1"/>
<stop offset="1" stop-color="#FFF4DA"/>
</radialGradient>
<radialGradient id="paint19_radial_692_1954" cx="0" cy="0" r="1" gradientUnits="userSpaceOnUse" gradientTransform="translate(177.059 17.6024) rotate(180) scale(59.0197 17.6024)">
<stop stop-color="#E1E1E1"/>
<stop offset="1" stop-color="#FFF4DA"/>
</radialGradient>
<radialGradient id="paint20_radial_692_1954" cx="0" cy="0" r="1" gradientUnits="userSpaceOnUse" gradientTransform="translate(177.059 17.6024) rotate(180) scale(59.0197 17.6024)">
<stop stop-color="#E1E1E1"/>
<stop offset="1" stop-color="#FFF4DA"/>
</radialGradient>
<radialGradient id="paint21_radial_692_1954" cx="0" cy="0" r="1" gradientUnits="userSpaceOnUse" gradientTransform="translate(177.059 17.6024) rotate(180) scale(59.0197 17.6024)">
<stop stop-color="#E1E1E1"/>
<stop offset="1" stop-color="#FFF4DA"/>
</radialGradient>
<radialGradient id="paint22_radial_692_1954" cx="0" cy="0" r="1" gradientUnits="userSpaceOnUse" gradientTransform="translate(177.059 17.6024) rotate(180) scale(59.0197 17.6024)">
<stop stop-color="#E1E1E1"/>
<stop offset="1" stop-color="#FFF4DA"/>
</radialGradient>
<radialGradient id="paint23_radial_692_1954" cx="0" cy="0" r="1" gradientUnits="userSpaceOnUse" gradientTransform="translate(177.059 17.6024) rotate(180) scale(59.0197 17.6024)">
<stop stop-color="#E1E1E1"/>
<stop offset="1" stop-color="#FFF4DA"/>
</radialGradient>
</defs>
</svg>
