<svg width="237" height="132" viewBox="0 0 237 132" fill="none" xmlns="http://www.w3.org/2000/svg">
<path d="M50.713 108.06C49.3894 108.487 47.9219 108.504 46.7174 107.809C44.5799 106.575 44.1417 105.154 44.5239 102.508V102.508C42.8803 103.056 42.0634 104.953 43.0344 106.388C43.9981 107.812 45.0942 108.974 46.6272 110.246C47.9176 111.316 49.57 111.855 51.2463 111.812C56.4411 111.679 59.0354 110.851 62.1261 108.72C61.1055 110.641 61.1623 111.76 61.9889 113.6C62.061 113.76 62.2573 113.822 62.4081 113.731C64.083 112.73 65.0044 111.892 66.2679 109.756C66.2159 114.032 66.9848 113.977 70.4096 114.933C67.5199 110.86 68.053 109.221 70.1985 106.254C70.9963 105.151 72.1264 104.331 73.4058 103.866L78.5781 101.985C81.3347 100.982 84.3491 100.942 87.1317 101.869L104.174 107.55C104.308 107.435 104.443 107.326 104.579 107.223V104.508C104.579 103.403 105.474 102.508 106.579 102.508H108.791C109.896 102.508 110.791 103.403 110.791 104.508V105.614H111.827V103.472C111.827 102.368 110.931 101.472 109.827 101.472H105.543C104.439 101.472 103.543 102.368 103.543 103.472V106.65C98.7741 103.748 93.5326 101.584 86.7262 99.7769C82.8461 98.747 78.7539 99.0145 74.9333 100.247L50.713 108.06Z" fill="url(#paint0_radial_692_1970)"/>
<path fill-rule="evenodd" clip-rule="evenodd" d="M118.04 111.827V108.721C115.458 105.74 114.164 105.799 111.827 105.614H110.791C108.063 105.589 106.223 105.979 104.579 107.223V107.685L104.174 107.55C103.27 108.327 102.41 109.382 101.473 110.791C94.423 108.167 92.2423 105.859 84.6309 104.117C82.7932 103.696 80.8384 103.854 79.1738 104.739C77.1411 105.82 75.7483 107.075 74.4009 109.235C73.7981 110.201 73.7054 111.42 74.2151 112.438C75.05 114.107 76.2503 115.417 79.1381 117.128C80.1191 117.709 81.351 117.62 82.2789 116.957L86.2804 114.099C87.2189 113.429 87.4133 112.09 86.6216 111.251C84.8307 109.354 83.7232 109.09 81.7994 109.756C83.0247 110.067 83.7478 110.456 84.3965 111.688C84.7601 112.378 84.5523 113.216 84.0005 113.767L82.2759 115.492C81.3711 116.397 79.9668 116.664 78.906 115.948C77.392 114.927 76.4786 113.802 75.488 112.283C74.8942 111.372 74.8544 110.185 75.4804 109.296C77.1885 106.871 79.0768 106.022 82.8348 105.614C87.5143 105.758 93.9739 109.592 101.473 112.862C101.611 115.305 101.827 117.608 105.431 119.531C106.15 119.915 107.027 119.733 107.604 119.156L110.252 116.508C110.55 116.21 110.55 115.727 110.252 115.429V115.429C109.972 115.149 109.522 115.134 109.211 115.381C104.883 118.812 103.35 117.017 102.508 112.862C108.785 113.743 111.601 112.063 112.862 106.65H114.933L118.04 111.827ZM102.508 111.827C105.324 107.593 107.417 106.549 111.827 106.65C109.582 111.782 107.624 113.001 102.508 111.827Z" fill="url(#paint1_radial_692_1970)"/>
<path d="M118.04 114.933V111.827C116.112 115.763 116.189 118.074 110.791 119.075C111.96 121.038 112.806 121.636 114.933 121.146C115.325 125.201 115.718 127.472 118.04 131.5V125.287C116.703 121.107 116.953 118.865 118.04 114.933Z" fill="url(#paint2_radial_692_1970)"/>
<path d="M115.969 98.3662C116.06 94.792 116.696 93.3936 118.04 91.1182V105.614C115.723 100.811 114.342 99.4138 111.827 99.4015C113.365 97.8121 114.277 97.3638 115.969 98.3662Z" fill="url(#paint3_radial_692_1970)"/>
<path d="M185.366 108.06C186.69 108.487 188.157 108.504 189.362 107.809C191.499 106.575 191.937 105.154 191.555 102.508V102.508C193.199 103.056 194.016 104.953 193.045 106.388C192.081 107.812 190.985 108.974 189.452 110.246C188.161 111.316 186.509 111.855 184.833 111.812C179.638 111.679 177.044 110.851 173.953 108.72C174.974 110.641 174.917 111.76 174.09 113.6C174.018 113.76 173.822 113.822 173.671 113.731C171.996 112.73 171.075 111.892 169.811 109.756C169.863 114.032 169.094 113.977 165.669 114.933C168.559 110.86 168.026 109.221 165.881 106.254C165.083 105.151 163.953 104.331 162.673 103.866L157.501 101.985C154.744 100.982 151.73 100.942 148.947 101.869L131.905 107.55C131.771 107.435 131.636 107.326 131.5 107.223V104.508C131.5 103.403 130.605 102.508 129.5 102.508H127.288C126.183 102.508 125.288 103.403 125.288 104.508V105.614H124.252V103.472C124.252 102.368 125.148 101.472 126.252 101.472H130.536C131.64 101.472 132.536 102.368 132.536 103.472V106.65C137.305 103.748 142.547 101.584 149.353 99.7769C153.233 98.747 157.325 99.0145 161.146 100.247L185.366 108.06Z" fill="url(#paint4_radial_692_1970)"/>
<path fill-rule="evenodd" clip-rule="evenodd" d="M118.04 111.827V108.721C120.621 105.74 121.915 105.799 124.252 105.614H125.288C128.016 105.589 129.856 105.979 131.5 107.223V107.685L131.905 107.55C132.809 108.327 133.669 109.382 134.607 110.791C141.656 108.167 143.837 105.859 151.448 104.117C153.286 103.696 155.241 103.854 156.905 104.739C158.938 105.82 160.331 107.075 161.678 109.235C162.281 110.201 162.374 111.42 161.864 112.438C161.029 114.107 159.829 115.417 156.941 117.128C155.96 117.709 154.728 117.62 153.8 116.957L149.799 114.099C148.86 113.429 148.666 112.09 149.457 111.251C151.248 109.354 152.356 109.09 154.28 109.756C153.054 110.067 152.331 110.456 151.683 111.688C151.319 112.378 151.527 113.216 152.079 113.767L153.803 115.492C154.708 116.397 156.112 116.664 157.173 115.948C158.687 114.927 159.601 113.802 160.591 112.283C161.185 111.372 161.225 110.185 160.599 109.296C158.891 106.871 157.002 106.022 153.244 105.614C148.565 105.758 142.105 109.592 134.607 112.862C134.468 115.305 134.252 117.608 130.648 119.531C129.929 119.915 129.052 119.733 128.475 119.156L125.827 116.508C125.529 116.21 125.529 115.727 125.827 115.429V115.429C126.107 115.149 126.557 115.134 126.868 115.381C131.196 118.812 132.729 117.017 133.571 112.862C127.294 113.743 124.479 112.063 123.217 106.65H121.146L118.04 111.827ZM133.571 111.827C130.755 107.593 128.662 106.549 124.252 106.65C126.497 111.782 128.455 113.001 133.571 111.827Z" fill="url(#paint5_radial_692_1970)"/>
<path d="M118.04 114.933V111.827C119.967 115.763 119.89 118.074 125.288 119.075C124.119 121.038 123.273 121.636 121.146 121.146C120.755 125.201 120.362 127.472 118.04 131.5V125.287C119.376 121.107 119.126 118.865 118.04 114.933Z" fill="url(#paint6_radial_692_1970)"/>
<path d="M120.11 98.3662C120.019 94.792 119.383 93.3936 118.04 91.1182V105.614C120.356 100.811 121.737 99.4138 124.252 99.4015C122.714 97.8121 121.802 97.3638 120.11 98.3662Z" fill="url(#paint7_radial_692_1970)"/>
<path d="M63.6875 52.8711L60.6367 69.0273C60.3216 70.5599 60.1641 71.849 60.1641 72.8945C60.1641 73.1237 60.3574 73.3314 60.7441 73.5176C61.1309 73.7038 61.5104 73.8255 61.8828 73.8828L62.4844 73.9688C62.5417 73.9688 62.5703 74.026 62.5703 74.1406C62.5703 74.4557 62.4844 74.7852 62.3125 75.1289C60.9948 75.0573 59.9635 75.0072 59.2188 74.9785C58.474 74.9355 58.0156 74.9141 57.8438 74.9141C57.8151 74.9141 57.4069 74.9355 56.6191 74.9785C55.8314 75.0072 54.6641 75.0573 53.1172 75.1289C53.0599 75.0716 53.0312 74.957 53.0312 74.7852C53.0312 74.2409 53.1315 73.9688 53.332 73.9688C53.5612 73.9688 53.8763 73.9258 54.2773 73.8398C54.6927 73.7539 55.0794 73.6393 55.4375 73.4961C55.7956 73.3529 56.0104 73.1953 56.082 73.0234C56.4974 72.0781 56.8698 70.7031 57.1992 68.8984L60.25 53C60.5651 51.4674 60.7227 50.1497 60.7227 49.0469C60.7227 48.832 60.5723 48.6387 60.2715 48.4668C59.985 48.2949 59.6484 48.1589 59.2617 48.0586C58.8893 47.944 58.5742 47.8867 58.3164 47.8867C58.2591 47.8867 58.2305 47.8151 58.2305 47.6719C58.2305 47.2708 58.3451 46.9557 58.5742 46.7266C58.8034 46.7409 59.1901 46.7695 59.7344 46.8125C60.293 46.8555 60.8945 46.8984 61.5391 46.9414C62.1836 46.9701 62.7422 46.9844 63.2148 46.9844C63.9023 46.9844 64.7832 46.9414 65.8574 46.8555C66.9316 46.7695 67.569 46.7266 67.7695 46.7266V46.8555C67.7695 47.543 67.6693 47.8867 67.4688 47.8867C67.3255 47.8867 67.0462 47.944 66.6309 48.0586C66.2298 48.1589 65.8359 48.2878 65.4492 48.4453C65.0768 48.5885 64.862 48.7318 64.8047 48.875C64.418 49.7201 64.0456 51.0521 63.6875 52.8711ZM71.8945 56.3086C72.3529 56.3086 72.7109 56.5163 72.9688 56.9316C73.2266 57.347 73.3555 57.8841 73.3555 58.543C73.3555 59.1732 73.2695 59.9323 73.0977 60.8203L72.3242 64.7734C72.5964 64.2865 73.2194 63.3984 74.1934 62.1094C74.8379 61.2643 75.5827 60.3978 76.4277 59.5098C77.2871 58.6074 78.1322 57.8483 78.9629 57.2324C79.8079 56.6165 80.5169 56.3086 81.0898 56.3086C82.5221 56.3086 83.2383 57.2539 83.2383 59.1445C83.2383 60.4766 83.0378 62.0378 82.6367 63.8281L81.2188 70.4453C81.1328 70.7891 81.0898 71.1471 81.0898 71.5195C81.0898 72.2357 81.2331 72.5938 81.5195 72.5938C81.8776 72.5938 82.3073 72.3431 82.8086 71.8418C83.3099 71.3262 83.7396 70.8893 84.0977 70.5312L84.3555 70.2305C84.4128 70.2305 84.5202 70.3665 84.6777 70.6387C84.8353 70.9108 84.9141 71.1042 84.9141 71.2188C84.6706 71.6341 84.2266 72.1641 83.582 72.8086C82.9518 73.4531 82.2643 74.026 81.5195 74.5273C80.7747 75.0143 80.1016 75.2578 79.5 75.2578C79.0417 75.2578 78.6836 75.0501 78.4258 74.6348C78.168 74.2194 78.0391 73.6823 78.0391 73.0234C78.0391 72.5938 78.1393 71.8346 78.3398 70.7461L79.8438 63.6562C80.0443 62.6823 80.1445 61.9089 80.1445 61.3359C80.1445 60.1042 79.8724 59.4883 79.3281 59.4883C78.8555 59.4883 78.2181 59.8464 77.416 60.5625C76.6139 61.2643 75.776 62.2025 74.9023 63.377C74.043 64.5514 73.2624 65.862 72.5605 67.3086C71.8587 68.7409 71.3646 70.1875 71.0781 71.6484L70.3477 75C69.9609 75.1146 69.5169 75.1719 69.0156 75.1719C68.5286 75.1719 68.0417 75.1146 67.5547 75L70.0898 61.7656C70.2331 60.7773 70.3047 60.2044 70.3047 60.0469C70.3047 59.3307 70.1615 58.9727 69.875 58.9727C69.6315 58.9727 69.2663 59.2018 68.7793 59.6602C68.5501 59.8893 68.2995 60.14 68.0273 60.4121C67.7695 60.6842 67.5977 60.8776 67.5117 60.9922C67.4544 60.9922 67.347 60.8561 67.1895 60.584C67.0319 60.3118 66.9531 60.1185 66.9531 60.0039C67.1823 59.6172 67.5977 59.1374 68.1992 58.5645C68.8008 57.9772 69.4453 57.4544 70.1328 56.9961C70.8203 56.5378 71.4076 56.3086 71.8945 56.3086ZM95.6562 56.1797C97.2891 56.1797 98.5781 56.724 99.5234 57.8125C99.6667 58.1419 99.7383 58.4427 99.7383 58.7148C99.7383 59.2305 99.6022 59.6745 99.3301 60.0469C99.0579 60.4193 98.707 60.6055 98.2773 60.6055C97.8906 60.6055 97.5326 60.3978 97.2031 59.9824C96.888 59.5671 96.4941 59.1445 96.0215 58.7148C95.5488 58.2852 94.9258 58.0703 94.1523 58.0703C93.5508 58.0703 93.0781 58.2708 92.7344 58.6719C92.3906 59.0729 92.2188 59.5312 92.2188 60.0469C92.2188 60.7917 92.498 61.5866 93.0566 62.4316C93.6152 63.2767 94.224 64.0286 94.8828 64.6875C95.5417 65.3464 96.1504 66.1484 96.709 67.0938C97.2676 68.0391 97.5469 68.9987 97.5469 69.9727C97.5469 71.5482 96.974 72.8229 95.8281 73.7969C94.6823 74.7708 93.207 75.2578 91.4023 75.2578C89.7695 75.2578 88.4805 74.7135 87.5352 73.625C87.3919 73.3958 87.3203 73.1237 87.3203 72.8086C87.3203 72.293 87.4564 71.8346 87.7285 71.4336C88.0007 71.0326 88.3516 70.832 88.7812 70.832C89.168 70.832 89.526 71.0397 89.8555 71.4551C90.1706 71.8704 90.5645 72.293 91.0371 72.7227C91.5098 73.1523 92.1328 73.3672 92.9062 73.3672C93.5365 73.3672 94.0449 73.1595 94.4316 72.7441C94.8184 72.3288 95.0117 71.8776 95.0117 71.3906C95.0117 70.6458 94.7324 69.8509 94.1738 69.0059C93.6152 68.1608 93.0065 67.4089 92.3477 66.75C91.6888 66.0911 91.0801 65.2891 90.5215 64.3438C89.9629 63.3984 89.6836 62.4388 89.6836 61.4648C89.6836 60.6628 89.9486 59.8535 90.4785 59.0371C91.0085 58.2207 91.7246 57.5404 92.627 56.9961C93.5293 56.4518 94.5391 56.1797 95.6562 56.1797ZM114.562 56.3086C115.995 56.3086 116.711 57.2539 116.711 59.1445C116.711 60.4766 116.51 62.0378 116.109 63.8281L114.691 70.4453C114.605 70.7891 114.562 71.1471 114.562 71.5195C114.562 72.2357 114.706 72.5938 114.992 72.5938C115.35 72.5938 115.78 72.3431 116.281 71.8418C116.783 71.3262 117.212 70.8893 117.57 70.5312L117.828 70.2305C117.885 70.2305 117.993 70.3665 118.15 70.6387C118.308 70.9108 118.387 71.1042 118.387 71.2188C118.143 71.6341 117.699 72.1641 117.055 72.8086C116.424 73.4531 115.737 74.026 114.992 74.5273C114.247 75.0143 113.574 75.2578 112.973 75.2578C112.514 75.2578 112.156 75.0501 111.898 74.6348C111.641 74.2194 111.512 73.6823 111.512 73.0234C111.512 72.5938 111.612 71.8346 111.812 70.7461L113.316 63.6562C113.517 62.6823 113.617 61.9089 113.617 61.3359C113.617 60.1042 113.345 59.4883 112.801 59.4883C112.328 59.4883 111.691 59.8464 110.889 60.5625C110.087 61.2643 109.249 62.2025 108.375 63.377C107.516 64.5514 106.735 65.862 106.033 67.3086C105.331 68.7409 104.837 70.1875 104.551 71.6484L103.82 75C103.434 75.1146 102.99 75.1719 102.488 75.1719C102.001 75.1719 101.514 75.1146 101.027 75L105.668 50.9805C105.926 49.7057 106.055 48.9466 106.055 48.7031C106.055 48.1589 105.181 47.8867 103.434 47.8867C103.348 47.8867 103.305 47.8008 103.305 47.6289C103.305 47.2852 103.419 46.9987 103.648 46.7695C105.51 46.5977 107.315 46.1966 109.062 45.5664C109.234 45.6523 109.32 45.9245 109.32 46.3828C109.32 46.5833 109.134 47.6576 108.762 49.6055L105.797 64.7734C106.069 64.2865 106.692 63.3984 107.666 62.1094C108.311 61.2643 109.055 60.3978 109.9 59.5098C110.76 58.6074 111.605 57.8483 112.436 57.2324C113.281 56.6165 113.99 56.3086 114.562 56.3086ZM128.184 47.2422C128.613 47.2422 128.979 47.4141 129.279 47.7578C129.58 48.1016 129.73 48.5026 129.73 48.9609C129.73 49.6484 129.508 50.25 129.064 50.7656C128.62 51.2812 128.069 51.5391 127.41 51.5391C126.952 51.5391 126.594 51.36 126.336 51.002C126.078 50.6439 125.949 50.207 125.949 49.6914C125.949 49.0326 126.164 48.4596 126.594 47.9727C127.023 47.4857 127.553 47.2422 128.184 47.2422ZM126.938 56.3086C127.396 56.3086 127.754 56.5163 128.012 56.9316C128.27 57.347 128.398 57.8841 128.398 58.543C128.398 59.1302 128.312 59.8893 128.141 60.8203L126.25 70.4453C126.164 70.7891 126.121 71.1471 126.121 71.5195C126.121 72.2357 126.264 72.5938 126.551 72.5938C126.909 72.5938 127.339 72.3431 127.84 71.8418C128.341 71.3262 128.771 70.8893 129.129 70.5312L129.387 70.2305C129.444 70.2305 129.551 70.3665 129.709 70.6387C129.867 70.9108 129.945 71.1042 129.945 71.2188C129.702 71.6341 129.258 72.1641 128.613 72.8086C127.983 73.4531 127.296 74.026 126.551 74.5273C125.806 75.0143 125.133 75.2578 124.531 75.2578C124.073 75.2578 123.715 75.0501 123.457 74.6348C123.199 74.2194 123.07 73.6823 123.07 73.0234C123.07 72.5938 123.171 71.8346 123.371 70.7461L125.133 61.7656C125.276 60.9206 125.348 60.3477 125.348 60.0469C125.348 59.3307 125.204 58.9727 124.918 58.9727C124.746 58.9727 124.51 59.0872 124.209 59.3164C123.923 59.5456 123.643 59.8034 123.371 60.0898C123.099 60.362 122.898 60.5768 122.77 60.7344L122.555 60.9922C122.497 60.9922 122.39 60.8561 122.232 60.584C122.075 60.3118 121.996 60.1185 121.996 60.0039C122.225 59.6172 122.641 59.1374 123.242 58.5645C123.844 57.9772 124.488 57.4544 125.176 56.9961C125.863 56.5378 126.451 56.3086 126.938 56.3086ZM145.457 56.3086C146.717 56.3086 147.863 56.4948 148.895 56.8672L146.273 70.4453L144.34 81.3164C144.283 81.7174 144.254 82.0182 144.254 82.2188C144.254 82.6914 144.404 83.0208 144.705 83.207C145.02 83.4076 145.529 83.5078 146.23 83.5078C146.288 83.5078 146.316 83.5938 146.316 83.7656C146.316 84.224 146.245 84.5677 146.102 84.7969C146.001 84.7969 145.88 84.7969 145.736 84.7969C145.593 84.7969 145.421 84.7897 145.221 84.7754C145.035 84.7611 144.87 84.7539 144.727 84.7539C144.583 84.7539 144.469 84.7539 144.383 84.7539C142.292 84.7539 140.215 84.8685 138.152 85.0977C138.152 85.026 138.145 84.9473 138.131 84.8613C138.117 84.7754 138.109 84.6823 138.109 84.582C138.109 84.0664 138.181 83.8086 138.324 83.8086C138.582 83.8086 138.861 83.7871 139.162 83.7441C139.463 83.7012 139.878 83.472 140.408 83.0566C140.938 82.6413 141.275 82.0612 141.418 81.3164L143.609 69.6289C143.409 69.9727 143.18 70.3307 142.922 70.7031C142.678 71.0612 142.406 71.4264 142.105 71.7988C141.704 72.3001 141.217 72.8158 140.645 73.3457C140.072 73.8757 139.484 74.3197 138.883 74.6777C138.296 75.0358 137.751 75.2148 137.25 75.2148C135.99 75.2148 134.987 74.6491 134.242 73.5176C133.497 72.3861 133.125 71.0182 133.125 69.4141C133.125 67.3802 133.741 65.3392 134.973 63.291C135.803 61.916 136.785 60.7057 137.916 59.6602C139.062 58.6146 140.286 57.7982 141.59 57.2109C142.893 56.6094 144.182 56.3086 145.457 56.3086ZM143.609 58.2852C142.678 58.2852 141.776 58.5788 140.902 59.166C140.029 59.7533 139.248 60.5267 138.561 61.4863C137.873 62.446 137.322 63.513 136.906 64.6875C136.505 65.8477 136.305 67.0078 136.305 68.168C136.305 71.2044 137.049 72.7227 138.539 72.7227C139.069 72.7227 139.649 72.4362 140.279 71.8633C140.924 71.276 141.554 70.5098 142.17 69.5645C142.786 68.6191 143.33 67.5951 143.803 66.4922C144.29 65.375 144.641 64.2865 144.855 63.2266L145.715 58.8438C145.371 58.4714 144.669 58.2852 143.609 58.2852ZM159.98 56.3086C161.671 56.3086 162.981 56.8958 163.912 58.0703C164.843 59.2448 165.309 60.8633 165.309 62.9258C165.309 64.401 165.022 65.8691 164.449 67.3301C163.876 68.7767 163.124 70.0944 162.193 71.2832C161.262 72.472 160.238 73.4245 159.121 74.1406C158.004 74.8568 156.901 75.2148 155.812 75.2148C154.094 75.2148 152.783 74.6562 151.881 73.5391C150.979 72.4219 150.527 70.832 150.527 68.7695C150.527 67.2799 150.807 65.8047 151.365 64.3438C151.938 62.8685 152.69 61.5293 153.621 60.3262C154.552 59.1087 155.569 58.1348 156.672 57.4043C157.789 56.6738 158.892 56.3086 159.98 56.3086ZM159.465 58.0703C158.749 58.0703 158.054 58.3854 157.381 59.0156C156.708 59.6315 156.099 60.4408 155.555 61.4434C155.01 62.446 154.581 63.5417 154.266 64.7305C153.951 65.9193 153.793 67.0794 153.793 68.2109C153.793 69.8724 154.058 71.1615 154.588 72.0781C155.118 72.9948 155.784 73.4531 156.586 73.4531C157.302 73.4531 157.982 73.1452 158.627 72.5293C159.286 71.8991 159.873 71.0827 160.389 70.0801C160.904 69.0632 161.305 67.9603 161.592 66.7715C161.893 65.5827 162.043 64.4154 162.043 63.2695C162.043 61.5794 161.814 60.2904 161.355 59.4023C160.897 58.5143 160.267 58.0703 159.465 58.0703ZM180.992 56.3086C182.253 56.3086 183.398 56.4948 184.43 56.8672L181.809 70.4453L179.875 81.3164C179.818 81.7174 179.789 82.0182 179.789 82.2188C179.789 82.6914 179.939 83.0208 180.24 83.207C180.555 83.4076 181.064 83.5078 181.766 83.5078C181.823 83.5078 181.852 83.5938 181.852 83.7656C181.852 84.224 181.78 84.5677 181.637 84.7969C181.536 84.7969 181.415 84.7969 181.271 84.7969C181.128 84.7969 180.956 84.7897 180.756 84.7754C180.57 84.7611 180.405 84.7539 180.262 84.7539C180.118 84.7539 180.004 84.7539 179.918 84.7539C177.827 84.7539 175.75 84.8685 173.688 85.0977C173.688 85.026 173.68 84.9473 173.666 84.8613C173.652 84.7754 173.645 84.6823 173.645 84.582C173.645 84.0664 173.716 83.8086 173.859 83.8086C174.117 83.8086 174.396 83.7871 174.697 83.7441C174.998 83.7012 175.413 83.472 175.943 83.0566C176.473 82.6413 176.81 82.0612 176.953 81.3164L179.145 69.6289C178.944 69.9727 178.715 70.3307 178.457 70.7031C178.214 71.0612 177.941 71.4264 177.641 71.7988C177.24 72.3001 176.753 72.8158 176.18 73.3457C175.607 73.8757 175.02 74.3197 174.418 74.6777C173.831 75.0358 173.286 75.2148 172.785 75.2148C171.525 75.2148 170.522 74.6491 169.777 73.5176C169.033 72.3861 168.66 71.0182 168.66 69.4141C168.66 67.3802 169.276 65.3392 170.508 63.291C171.339 61.916 172.32 60.7057 173.451 59.6602C174.597 58.6146 175.822 57.7982 177.125 57.2109C178.428 56.6094 179.717 56.3086 180.992 56.3086ZM179.145 58.2852C178.214 58.2852 177.311 58.5788 176.438 59.166C175.564 59.7533 174.783 60.5267 174.096 61.4863C173.408 62.446 172.857 63.513 172.441 64.6875C172.04 65.8477 171.84 67.0078 171.84 68.168C171.84 71.2044 172.585 72.7227 174.074 72.7227C174.604 72.7227 175.184 72.4362 175.814 71.8633C176.459 71.276 177.089 70.5098 177.705 69.5645C178.321 68.6191 178.865 67.5951 179.338 66.4922C179.825 65.375 180.176 64.2865 180.391 63.2266L181.25 58.8438C180.906 58.4714 180.204 58.2852 179.145 58.2852Z" fill="white"/>
<path d="M0 14.4961C6.30012 20.0984 15.0791 19.1979 30.687 15.1421C32.2497 14.736 33.9168 14.9601 35.3059 15.7832L61.0905 31.063L35.3304 19.6141C33.9205 18.9874 32.3183 18.9353 30.8588 19.4358C12.5496 25.7159 4.73674 24.7283 0 14.4961Z" fill="url(#paint8_radial_692_1970)"/>
<path d="M16.5669 25.8858C22.7094 27.5488 34.4861 19.1752 43.5027 24.2129C35.7991 20.3448 24.9274 34.7378 16.5669 25.8858Z" fill="url(#paint9_radial_692_1970)"/>
<path d="M42.4528 34.1693C40.4746 32.9379 39.8039 31.791 39.5364 30.2054C39.314 28.8871 40.2138 27.6374 41.514 27.3262C46.4064 26.1551 49.6595 27.3172 54.8779 31.063C50.3759 26.3362 46.8249 25.2844 39.6469 25.78C38.7972 25.8387 38.0191 26.2751 37.5081 26.9564L36.1669 28.7446C35.6047 29.4943 35.6307 30.5432 36.2784 31.2205C38.4425 33.4837 39.9798 34.1156 42.4528 34.1693Z" fill="url(#paint10_radial_692_1970)"/>
<path d="M61.0905 28.9921C48.8725 19.5072 53.131 18.6378 60.0551 10.3543C56.6285 8.93238 54.8937 8.83857 52.8071 12.4252C51.2879 8.29387 49.7783 6.42726 45.559 4.14173C43.8524 8.52031 44.6321 10.6991 46.5945 14.4961C42.9378 12.0347 40.7471 11.3823 36.2402 13.4606C46.3046 17.727 45.2926 18.8748 61.0905 28.9921Z" fill="url(#paint11_radial_692_1970)"/>
<path d="M78.6929 22.7441C78.6929 22.1918 79.1406 21.7441 79.6929 21.7441H79.7638C80.3161 21.7441 80.7638 22.1918 80.7638 22.7441V25.9213C80.7638 26.4735 80.3161 26.9213 79.7638 26.9213H74.4803C73.3757 26.9213 72.4803 26.0258 72.4803 24.9213V19.6024C72.4803 18.4978 73.3757 17.6024 74.4803 17.6024H78.7281C80.6137 17.6024 82.4755 18.023 84.178 18.8337V18.8337C85.2965 19.3663 86.1249 20.3629 86.4441 21.5599L88.3399 28.6695C89.2063 31.9182 86.6836 35.0788 83.3237 34.9544L68.0679 34.3894C64.7776 34.2675 62.2002 31.5169 62.2923 28.2256L62.6948 13.8426C62.7856 10.5955 65.4441 8.01038 68.6924 8.01038H83.0387C86.0229 8.01038 88.8896 9.21712 90.915 11.4088C101.807 23.194 109.097 33.3225 115.395 32.2299C115.685 32.1796 115.968 32.3916 115.968 32.686V32.686C115.968 32.9325 115.766 33.1318 115.519 33.1285C109.37 33.045 105.37 32.4313 87.653 13.254C86.5367 12.0456 85.0793 11.1983 83.4735 10.8414L77.8584 9.59364C77.0431 9.41248 76.199 9.4035 75.3801 9.56728L71.091 10.4251C68.2865 10.986 66.2677 13.4485 66.2677 16.3086V27.0984C66.2677 29.8599 68.5063 32.0984 71.2677 32.0984H80.9055C83.1146 32.0984 84.9055 30.3076 84.9055 28.0984V22.6378C84.9055 20.4287 83.1146 18.6378 80.9055 18.6378H76.5512C75.4466 18.6378 74.5512 19.5332 74.5512 20.6378V24.8858C74.5512 25.4381 74.9989 25.8858 75.5512 25.8858H77.6929C78.2452 25.8858 78.6929 25.4381 78.6929 24.8858V22.7441Z" fill="url(#paint12_radial_692_1970)"/>
<path d="M104.412 33.0631C96.4743 29.9513 88.3242 12.4066 78.6929 13.4606C91.6665 19.2326 92.9183 31.4785 104.412 33.0631Z" fill="url(#paint13_radial_692_1970)"/>
<path d="M111.827 30.0276C106.485 21.6827 106.361 16.9143 110.791 8.28346C105.363 9.71409 97.6256 19.5114 111.827 30.0276Z" fill="url(#paint14_radial_692_1970)"/>
<path d="M118.039 10.3543C113.102 14.0549 110.405 23.2793 118.039 32.0984C106.33 25.6888 109.793 12.7713 118.039 0V10.3543Z" fill="url(#paint15_radial_692_1970)"/>
<path d="M236.079 14.4961C229.778 20.0984 221 19.1979 205.392 15.1421C203.829 14.736 202.162 14.9601 200.773 15.7832L174.988 31.063L200.748 19.6141C202.158 18.9874 203.76 18.9353 205.22 19.4358C223.529 25.7159 231.342 24.7283 236.079 14.4961Z" fill="url(#paint16_radial_692_1970)"/>
<path d="M219.512 25.8858C213.369 27.5488 201.593 19.1752 192.576 24.2129C200.279 20.3448 211.151 34.7378 219.512 25.8858Z" fill="url(#paint17_radial_692_1970)"/>
<path d="M193.626 34.1693C195.604 32.9379 196.275 31.791 196.542 30.2054C196.765 28.8871 195.865 27.6374 194.565 27.3262C189.672 26.1551 186.419 27.3172 181.201 31.063C185.703 26.3362 189.254 25.2844 196.432 25.78C197.281 25.8387 198.06 26.2751 198.571 26.9564L199.912 28.7446C200.474 29.4943 200.448 30.5432 199.8 31.2205C197.636 33.4837 196.099 34.1156 193.626 34.1693Z" fill="url(#paint18_radial_692_1970)"/>
<path d="M174.988 28.9921C187.206 19.5072 182.948 18.6378 176.024 10.3543C179.45 8.93238 181.185 8.83857 183.272 12.4252C184.791 8.29387 186.3 6.42726 190.52 4.14173C192.226 8.52031 191.446 10.6991 189.484 14.4961C193.141 12.0347 195.331 11.3823 199.838 13.4606C189.774 17.727 190.786 18.8748 174.988 28.9921Z" fill="url(#paint19_radial_692_1970)"/>
<path d="M157.386 22.7441C157.386 22.1918 156.938 21.7441 156.386 21.7441H156.315C155.763 21.7441 155.315 22.1918 155.315 22.7441V25.9213C155.315 26.4735 155.763 26.9213 156.315 26.9213H161.598C162.703 26.9213 163.598 26.0258 163.598 24.9213V19.6024C163.598 18.4978 162.703 17.6024 161.598 17.6024H157.351C155.465 17.6024 153.603 18.023 151.901 18.8337V18.8337C150.782 19.3663 149.954 20.3629 149.635 21.5599L147.739 28.6695C146.872 31.9182 149.395 35.0788 152.755 34.9544L168.011 34.3894C171.301 34.2675 173.878 31.5169 173.786 28.2256L173.384 13.8426C173.293 10.5955 170.635 8.01038 167.386 8.01038H153.04C150.056 8.01038 147.189 9.21712 145.164 11.4088C134.272 23.194 126.982 33.3225 120.683 32.2299C120.393 32.1796 120.11 32.3916 120.11 32.686V32.686C120.11 32.9325 120.313 33.1318 120.559 33.1285C126.708 33.045 130.709 32.4313 148.426 13.254C149.542 12.0456 150.999 11.1983 152.605 10.8414L158.22 9.59364C159.035 9.41248 159.88 9.4035 160.698 9.56728L164.988 10.4251C167.792 10.986 169.811 13.4485 169.811 16.3086V27.0984C169.811 29.8599 167.572 32.0984 164.811 32.0984H155.173C152.964 32.0984 151.173 30.3076 151.173 28.0984V22.6378C151.173 20.4287 152.964 18.6378 155.173 18.6378H159.527C160.632 18.6378 161.527 19.5332 161.527 20.6378V24.8858C161.527 25.4381 161.08 25.8858 160.527 25.8858H158.386C157.833 25.8858 157.386 25.4381 157.386 24.8858V22.7441Z" fill="url(#paint20_radial_692_1970)"/>
<path d="M131.666 33.0631C139.604 29.9513 147.754 12.4066 157.386 13.4606C144.412 19.2326 143.16 31.4785 131.666 33.0631Z" fill="url(#paint21_radial_692_1970)"/>
<path d="M124.252 30.0276C129.594 21.6827 129.718 16.9143 125.287 8.28346C130.716 9.71409 138.453 19.5114 124.252 30.0276Z" fill="url(#paint22_radial_692_1970)"/>
<path d="M118.039 10.3543C122.976 14.0549 125.673 23.2793 118.039 32.0984C129.749 25.6888 126.286 12.7713 118.039 0V10.3543Z" fill="url(#paint23_radial_692_1970)"/>
<defs>
<radialGradient id="paint0_radial_692_1970" cx="0" cy="0" r="1" gradientUnits="userSpaceOnUse" gradientTransform="translate(79.7285 111.309) scale(38.311 20.1909)">
<stop stop-color="#E1E1E1"/>
<stop offset="1" stop-color="#FFF4DA"/>
</radialGradient>
<radialGradient id="paint1_radial_692_1970" cx="0" cy="0" r="1" gradientUnits="userSpaceOnUse" gradientTransform="translate(79.7285 111.309) scale(38.311 20.1909)">
<stop stop-color="#E1E1E1"/>
<stop offset="1" stop-color="#FFF4DA"/>
</radialGradient>
<radialGradient id="paint2_radial_692_1970" cx="0" cy="0" r="1" gradientUnits="userSpaceOnUse" gradientTransform="translate(79.7285 111.309) scale(38.311 20.1909)">
<stop stop-color="#E1E1E1"/>
<stop offset="1" stop-color="#FFF4DA"/>
</radialGradient>
<radialGradient id="paint3_radial_692_1970" cx="0" cy="0" r="1" gradientUnits="userSpaceOnUse" gradientTransform="translate(79.7285 111.309) scale(38.311 20.1909)">
<stop stop-color="#E1E1E1"/>
<stop offset="1" stop-color="#FFF4DA"/>
</radialGradient>
<radialGradient id="paint4_radial_692_1970" cx="0" cy="0" r="1" gradientUnits="userSpaceOnUse" gradientTransform="translate(156.351 111.309) rotate(180) scale(38.311 20.1909)">
<stop stop-color="#E1E1E1"/>
<stop offset="1" stop-color="#FFF4DA"/>
</radialGradient>
<radialGradient id="paint5_radial_692_1970" cx="0" cy="0" r="1" gradientUnits="userSpaceOnUse" gradientTransform="translate(156.351 111.309) rotate(180) scale(38.311 20.1909)">
<stop stop-color="#E1E1E1"/>
<stop offset="1" stop-color="#FFF4DA"/>
</radialGradient>
<radialGradient id="paint6_radial_692_1970" cx="0" cy="0" r="1" gradientUnits="userSpaceOnUse" gradientTransform="translate(156.351 111.309) rotate(180) scale(38.311 20.1909)">
<stop stop-color="#E1E1E1"/>
<stop offset="1" stop-color="#FFF4DA"/>
</radialGradient>
<radialGradient id="paint7_radial_692_1970" cx="0" cy="0" r="1" gradientUnits="userSpaceOnUse" gradientTransform="translate(156.351 111.309) rotate(180) scale(38.311 20.1909)">
<stop stop-color="#E1E1E1"/>
<stop offset="1" stop-color="#FFF4DA"/>
</radialGradient>
<radialGradient id="paint8_radial_692_1970" cx="0" cy="0" r="1" gradientUnits="userSpaceOnUse" gradientTransform="translate(59.0197 17.6024) scale(59.0197 17.6024)">
<stop stop-color="#E1E1E1"/>
<stop offset="1" stop-color="#FFF4DA"/>
</radialGradient>
<radialGradient id="paint9_radial_692_1970" cx="0" cy="0" r="1" gradientUnits="userSpaceOnUse" gradientTransform="translate(59.0197 17.6024) scale(59.0197 17.6024)">
<stop stop-color="#E1E1E1"/>
<stop offset="1" stop-color="#FFF4DA"/>
</radialGradient>
<radialGradient id="paint10_radial_692_1970" cx="0" cy="0" r="1" gradientUnits="userSpaceOnUse" gradientTransform="translate(59.0197 17.6024) scale(59.0197 17.6024)">
<stop stop-color="#E1E1E1"/>
<stop offset="1" stop-color="#FFF4DA"/>
</radialGradient>
<radialGradient id="paint11_radial_692_1970" cx="0" cy="0" r="1" gradientUnits="userSpaceOnUse" gradientTransform="translate(59.0197 17.6024) scale(59.0197 17.6024)">
<stop stop-color="#E1E1E1"/>
<stop offset="1" stop-color="#FFF4DA"/>
</radialGradient>
<radialGradient id="paint12_radial_692_1970" cx="0" cy="0" r="1" gradientUnits="userSpaceOnUse" gradientTransform="translate(59.0197 17.6024) scale(59.0197 17.6024)">
<stop stop-color="#E1E1E1"/>
<stop offset="1" stop-color="#FFF4DA"/>
</radialGradient>
<radialGradient id="paint13_radial_692_1970" cx="0" cy="0" r="1" gradientUnits="userSpaceOnUse" gradientTransform="translate(59.0197 17.6024) scale(59.0197 17.6024)">
<stop stop-color="#E1E1E1"/>
<stop offset="1" stop-color="#FFF4DA"/>
</radialGradient>
<radialGradient id="paint14_radial_692_1970" cx="0" cy="0" r="1" gradientUnits="userSpaceOnUse" gradientTransform="translate(59.0197 17.6024) scale(59.0197 17.6024)">
<stop stop-color="#E1E1E1"/>
<stop offset="1" stop-color="#FFF4DA"/>
</radialGradient>
<radialGradient id="paint15_radial_692_1970" cx="0" cy="0" r="1" gradientUnits="userSpaceOnUse" gradientTransform="translate(59.0197 17.6024) scale(59.0197 17.6024)">
<stop stop-color="#E1E1E1"/>
<stop offset="1" stop-color="#FFF4DA"/>
</radialGradient>
<radialGradient id="paint16_radial_692_1970" cx="0" cy="0" r="1" gradientUnits="userSpaceOnUse" gradientTransform="translate(177.059 17.6024) rotate(180) scale(59.0197 17.6024)">
<stop stop-color="#E1E1E1"/>
<stop offset="1" stop-color="#FFF4DA"/>
</radialGradient>
<radialGradient id="paint17_radial_692_1970" cx="0" cy="0" r="1" gradientUnits="userSpaceOnUse" gradientTransform="translate(177.059 17.6024) rotate(180) scale(59.0197 17.6024)">
<stop stop-color="#E1E1E1"/>
<stop offset="1" stop-color="#FFF4DA"/>
</radialGradient>
<radialGradient id="paint18_radial_692_1970" cx="0" cy="0" r="1" gradientUnits="userSpaceOnUse" gradientTransform="translate(177.059 17.6024) rotate(180) scale(59.0197 17.6024)">
<stop stop-color="#E1E1E1"/>
<stop offset="1" stop-color="#FFF4DA"/>
</radialGradient>
<radialGradient id="paint19_radial_692_1970" cx="0" cy="0" r="1" gradientUnits="userSpaceOnUse" gradientTransform="translate(177.059 17.6024) rotate(180) scale(59.0197 17.6024)">
<stop stop-color="#E1E1E1"/>
<stop offset="1" stop-color="#FFF4DA"/>
</radialGradient>
<radialGradient id="paint20_radial_692_1970" cx="0" cy="0" r="1" gradientUnits="userSpaceOnUse" gradientTransform="translate(177.059 17.6024) rotate(180) scale(59.0197 17.6024)">
<stop stop-color="#E1E1E1"/>
<stop offset="1" stop-color="#FFF4DA"/>
</radialGradient>
<radialGradient id="paint21_radial_692_1970" cx="0" cy="0" r="1" gradientUnits="userSpaceOnUse" gradientTransform="translate(177.059 17.6024) rotate(180) scale(59.0197 17.6024)">
<stop stop-color="#E1E1E1"/>
<stop offset="1" stop-color="#FFF4DA"/>
</radialGradient>
<radialGradient id="paint22_radial_692_1970" cx="0" cy="0" r="1" gradientUnits="userSpaceOnUse" gradientTransform="translate(177.059 17.6024) rotate(180) scale(59.0197 17.6024)">
<stop stop-color="#E1E1E1"/>
<stop offset="1" stop-color="#FFF4DA"/>
</radialGradient>
<radialGradient id="paint23_radial_692_1970" cx="0" cy="0" r="1" gradientUnits="userSpaceOnUse" gradientTransform="translate(177.059 17.6024) rotate(180) scale(59.0197 17.6024)">
<stop stop-color="#E1E1E1"/>
<stop offset="1" stop-color="#FFF4DA"/>
</radialGradient>
</defs>
</svg>
