<svg width="237" height="132" viewBox="0 0 237 132" fill="none" xmlns="http://www.w3.org/2000/svg">
<path d="M50.713 108.06C49.3894 108.487 47.9219 108.504 46.7174 107.809C44.5799 106.575 44.1417 105.154 44.5239 102.508V102.508C42.8803 103.056 42.0634 104.953 43.0344 106.388C43.9981 107.812 45.0942 108.974 46.6272 110.246C47.9176 111.316 49.57 111.855 51.2463 111.812C56.4411 111.679 59.0354 110.851 62.1261 108.72C61.1055 110.641 61.1623 111.76 61.9889 113.6C62.061 113.76 62.2573 113.822 62.4081 113.731C64.083 112.73 65.0044 111.892 66.2679 109.756C66.2159 114.032 66.9848 113.977 70.4096 114.933C67.5199 110.86 68.053 109.221 70.1985 106.254C70.9963 105.151 72.1264 104.331 73.4058 103.866L78.5781 101.985C81.3347 100.982 84.3491 100.942 87.1317 101.869L104.174 107.55C104.308 107.435 104.443 107.326 104.579 107.223V104.508C104.579 103.403 105.474 102.508 106.579 102.508H108.791C109.896 102.508 110.791 103.403 110.791 104.508V105.614H111.827V103.472C111.827 102.368 110.931 101.472 109.827 101.472H105.543C104.439 101.472 103.543 102.368 103.543 103.472V106.65C98.7741 103.748 93.5326 101.584 86.7262 99.7769C82.8461 98.747 78.7539 99.0145 74.9333 100.247L50.713 108.06Z" fill="url(#paint0_radial_692_1624)"/>
<path fill-rule="evenodd" clip-rule="evenodd" d="M118.04 111.827V108.721C115.458 105.74 114.164 105.799 111.827 105.614H110.791C108.063 105.589 106.223 105.979 104.579 107.223V107.685L104.174 107.55C103.27 108.327 102.41 109.382 101.473 110.791C94.423 108.167 92.2423 105.859 84.6309 104.117C82.7932 103.696 80.8384 103.854 79.1738 104.739C77.1411 105.82 75.7483 107.075 74.4009 109.235C73.7981 110.201 73.7054 111.42 74.2151 112.438C75.05 114.107 76.2503 115.417 79.1381 117.128C80.1191 117.709 81.351 117.62 82.2789 116.957L86.2804 114.099C87.2189 113.429 87.4133 112.09 86.6216 111.251C84.8307 109.354 83.7232 109.09 81.7994 109.756C83.0247 110.067 83.7478 110.456 84.3965 111.688C84.7601 112.378 84.5523 113.216 84.0005 113.767L82.2759 115.492C81.3711 116.397 79.9668 116.664 78.906 115.948C77.392 114.927 76.4786 113.802 75.488 112.283C74.8942 111.372 74.8544 110.185 75.4804 109.296C77.1885 106.871 79.0768 106.022 82.8348 105.614C87.5143 105.758 93.9739 109.592 101.473 112.862C101.611 115.305 101.827 117.608 105.431 119.531C106.15 119.915 107.027 119.733 107.604 119.156L110.252 116.508C110.55 116.21 110.55 115.727 110.252 115.429V115.429C109.972 115.149 109.522 115.134 109.211 115.381C104.883 118.812 103.35 117.017 102.508 112.862C108.785 113.743 111.601 112.063 112.862 106.65H114.933L118.04 111.827ZM102.508 111.827C105.324 107.593 107.417 106.549 111.827 106.65C109.582 111.782 107.624 113.001 102.508 111.827Z" fill="url(#paint1_radial_692_1624)"/>
<path d="M118.04 114.933V111.827C116.112 115.763 116.189 118.074 110.791 119.075C111.96 121.038 112.806 121.636 114.933 121.146C115.325 125.201 115.718 127.472 118.04 131.5V125.287C116.703 121.107 116.953 118.865 118.04 114.933Z" fill="url(#paint2_radial_692_1624)"/>
<path d="M115.969 98.3662C116.06 94.792 116.696 93.3936 118.04 91.1182V105.614C115.723 100.811 114.342 99.4138 111.827 99.4015C113.365 97.8121 114.277 97.3638 115.969 98.3662Z" fill="url(#paint3_radial_692_1624)"/>
<path d="M185.366 108.06C186.69 108.487 188.157 108.504 189.362 107.809C191.499 106.575 191.937 105.154 191.555 102.508V102.508C193.199 103.056 194.016 104.953 193.045 106.388C192.081 107.812 190.985 108.974 189.452 110.246C188.161 111.316 186.509 111.855 184.833 111.812C179.638 111.679 177.044 110.851 173.953 108.72C174.974 110.641 174.917 111.76 174.09 113.6C174.018 113.76 173.822 113.822 173.671 113.731C171.996 112.73 171.075 111.892 169.811 109.756C169.863 114.032 169.094 113.977 165.669 114.933C168.559 110.86 168.026 109.221 165.881 106.254C165.083 105.151 163.953 104.331 162.673 103.866L157.501 101.985C154.744 100.982 151.73 100.942 148.947 101.869L131.905 107.55C131.771 107.435 131.636 107.326 131.5 107.223V104.508C131.5 103.403 130.605 102.508 129.5 102.508H127.288C126.183 102.508 125.288 103.403 125.288 104.508V105.614H124.252V103.472C124.252 102.368 125.148 101.472 126.252 101.472H130.536C131.64 101.472 132.536 102.368 132.536 103.472V106.65C137.305 103.748 142.547 101.584 149.353 99.7769C153.233 98.747 157.325 99.0145 161.146 100.247L185.366 108.06Z" fill="url(#paint4_radial_692_1624)"/>
<path fill-rule="evenodd" clip-rule="evenodd" d="M118.04 111.827V108.721C120.621 105.74 121.915 105.799 124.252 105.614H125.288C128.016 105.589 129.856 105.979 131.5 107.223V107.685L131.905 107.55C132.809 108.327 133.669 109.382 134.607 110.791C141.656 108.167 143.837 105.859 151.448 104.117C153.286 103.696 155.241 103.854 156.905 104.739C158.938 105.82 160.331 107.075 161.678 109.235C162.281 110.201 162.374 111.42 161.864 112.438C161.029 114.107 159.829 115.417 156.941 117.128C155.96 117.709 154.728 117.62 153.8 116.957L149.799 114.099C148.86 113.429 148.666 112.09 149.457 111.251C151.248 109.354 152.356 109.09 154.28 109.756C153.054 110.067 152.331 110.456 151.683 111.688C151.319 112.378 151.527 113.216 152.079 113.767L153.803 115.492C154.708 116.397 156.112 116.664 157.173 115.948C158.687 114.927 159.601 113.802 160.591 112.283C161.185 111.372 161.225 110.185 160.599 109.296C158.891 106.871 157.002 106.022 153.244 105.614C148.565 105.758 142.105 109.592 134.607 112.862C134.468 115.305 134.252 117.608 130.648 119.531C129.929 119.915 129.052 119.733 128.475 119.156L125.827 116.508C125.529 116.21 125.529 115.727 125.827 115.429V115.429C126.107 115.149 126.557 115.134 126.868 115.381C131.196 118.812 132.729 117.017 133.571 112.862C127.294 113.743 124.479 112.063 123.217 106.65H121.146L118.04 111.827ZM133.571 111.827C130.755 107.593 128.662 106.549 124.252 106.65C126.497 111.782 128.455 113.001 133.571 111.827Z" fill="url(#paint5_radial_692_1624)"/>
<path d="M118.04 114.933V111.827C119.967 115.763 119.89 118.074 125.288 119.075C124.119 121.038 123.273 121.636 121.146 121.146C120.755 125.201 120.362 127.472 118.04 131.5V125.287C119.376 121.107 119.126 118.865 118.04 114.933Z" fill="url(#paint6_radial_692_1624)"/>
<path d="M120.11 98.3662C120.019 94.792 119.383 93.3936 118.04 91.1182V105.614C120.356 100.811 121.737 99.4138 124.252 99.4015C122.714 97.8121 121.802 97.3638 120.11 98.3662Z" fill="url(#paint7_radial_692_1624)"/>
<path d="M75.9414 70.3164L79.1641 53C79.4792 51.2096 79.6367 49.8919 79.6367 49.0469C79.6367 48.832 79.4648 48.6387 79.1211 48.4668C78.7773 48.2949 78.3906 48.1589 77.9609 48.0586C77.5312 47.944 77.1875 47.8867 76.9297 47.8867C76.8724 47.8867 76.8438 47.8151 76.8438 47.6719C76.8438 47.2708 76.9583 46.9557 77.1875 46.7266C77.4167 46.7409 77.8034 46.7695 78.3477 46.8125C78.9062 46.8555 79.5078 46.8984 80.1523 46.9414C80.7969 46.9701 81.3555 46.9844 81.8281 46.9844C82.5156 46.9844 83.3965 46.9414 84.4707 46.8555C85.5449 46.7695 86.1823 46.7266 86.3828 46.7266V46.8555C86.3828 47.543 86.2826 47.8867 86.082 47.8867C85.9388 47.8867 85.6882 47.944 85.3301 48.0586C84.972 48.1589 84.6283 48.2878 84.2988 48.4453C83.9694 48.5885 83.776 48.7318 83.7188 48.875C83.2461 49.9779 82.8737 51.3099 82.6016 52.8711L79.3789 70.0156C78.9779 72.1927 78.4121 74.1621 77.6816 75.9238C76.9512 77.6855 76.1777 79.1178 75.3613 80.2207C74.5592 81.2949 73.6855 82.2188 72.7402 82.9922C71.8092 83.737 70.9427 84.2598 70.1406 84.5605C69.3385 84.8613 68.5651 85.0117 67.8203 85.0117C67.6484 84.8112 67.5625 84.5534 67.5625 84.2383L67.6055 83.9805C69.181 83.4792 70.4844 82.6986 71.5156 81.6387C72.5469 80.5931 73.4062 79.1536 74.0938 77.3203C74.7956 75.487 75.4115 73.1523 75.9414 70.3164ZM94.2891 56.3086C95.9792 56.3086 97.2897 56.8958 98.2207 58.0703C99.1517 59.2448 99.6172 60.8633 99.6172 62.9258C99.6172 64.401 99.3307 65.8691 98.7578 67.3301C98.1849 68.7767 97.4329 70.0944 96.502 71.2832C95.571 72.472 94.5469 73.4245 93.4297 74.1406C92.3125 74.8568 91.2096 75.2148 90.1211 75.2148C88.4023 75.2148 87.0918 74.6562 86.1895 73.5391C85.2871 72.4219 84.8359 70.832 84.8359 68.7695C84.8359 67.2799 85.1152 65.8047 85.6738 64.3438C86.2467 62.8685 86.9987 61.5293 87.9297 60.3262C88.8607 59.1087 89.8776 58.1348 90.9805 57.4043C92.0977 56.6738 93.2005 56.3086 94.2891 56.3086ZM93.7734 58.0703C93.0573 58.0703 92.3626 58.3854 91.6895 59.0156C91.0163 59.6315 90.4076 60.4408 89.8633 61.4434C89.319 62.446 88.8893 63.5417 88.5742 64.7305C88.2591 65.9193 88.1016 67.0794 88.1016 68.2109C88.1016 69.8724 88.3665 71.1615 88.8965 72.0781C89.4264 72.9948 90.0924 73.4531 90.8945 73.4531C91.6107 73.4531 92.291 73.1452 92.9355 72.5293C93.5944 71.8991 94.1816 71.0827 94.6973 70.0801C95.2129 69.0632 95.6139 67.9603 95.9004 66.7715C96.2012 65.5827 96.3516 64.4154 96.3516 63.2695C96.3516 61.5794 96.1224 60.2904 95.6641 59.4023C95.2057 58.5143 94.5755 58.0703 93.7734 58.0703ZM110.832 56.1797C112.465 56.1797 113.754 56.724 114.699 57.8125C114.842 58.1419 114.914 58.4427 114.914 58.7148C114.914 59.2305 114.778 59.6745 114.506 60.0469C114.234 60.4193 113.883 60.6055 113.453 60.6055C113.066 60.6055 112.708 60.3978 112.379 59.9824C112.064 59.5671 111.67 59.1445 111.197 58.7148C110.725 58.2852 110.102 58.0703 109.328 58.0703C108.727 58.0703 108.254 58.2708 107.91 58.6719C107.566 59.0729 107.395 59.5312 107.395 60.0469C107.395 60.7917 107.674 61.5866 108.232 62.4316C108.791 63.2767 109.4 64.0286 110.059 64.6875C110.717 65.3464 111.326 66.1484 111.885 67.0938C112.443 68.0391 112.723 68.9987 112.723 69.9727C112.723 71.5482 112.15 72.8229 111.004 73.7969C109.858 74.7708 108.383 75.2578 106.578 75.2578C104.945 75.2578 103.656 74.7135 102.711 73.625C102.568 73.3958 102.496 73.1237 102.496 72.8086C102.496 72.293 102.632 71.8346 102.904 71.4336C103.176 71.0326 103.527 70.832 103.957 70.832C104.344 70.832 104.702 71.0397 105.031 71.4551C105.346 71.8704 105.74 72.293 106.213 72.7227C106.686 73.1523 107.309 73.3672 108.082 73.3672C108.712 73.3672 109.221 73.1595 109.607 72.7441C109.994 72.3288 110.188 71.8776 110.188 71.3906C110.188 70.6458 109.908 69.8509 109.35 69.0059C108.791 68.1608 108.182 67.4089 107.523 66.75C106.865 66.0911 106.256 65.2891 105.697 64.3438C105.139 63.3984 104.859 62.4388 104.859 61.4648C104.859 60.6628 105.124 59.8535 105.654 59.0371C106.184 58.2207 106.9 57.5404 107.803 56.9961C108.705 56.4518 109.715 56.1797 110.832 56.1797ZM123.551 47.2422C123.98 47.2422 124.346 47.4141 124.646 47.7578C124.947 48.1016 125.098 48.5026 125.098 48.9609C125.098 49.6484 124.876 50.25 124.432 50.7656C123.988 51.2812 123.436 51.5391 122.777 51.5391C122.319 51.5391 121.961 51.36 121.703 51.002C121.445 50.6439 121.316 50.207 121.316 49.6914C121.316 49.0326 121.531 48.4596 121.961 47.9727C122.391 47.4857 122.921 47.2422 123.551 47.2422ZM122.305 56.3086C122.763 56.3086 123.121 56.5163 123.379 56.9316C123.637 57.347 123.766 57.8841 123.766 58.543C123.766 59.1302 123.68 59.8893 123.508 60.8203L121.617 70.4453C121.531 70.7891 121.488 71.1471 121.488 71.5195C121.488 72.2357 121.632 72.5938 121.918 72.5938C122.276 72.5938 122.706 72.3431 123.207 71.8418C123.708 71.3262 124.138 70.8893 124.496 70.5312L124.754 70.2305C124.811 70.2305 124.919 70.3665 125.076 70.6387C125.234 70.9108 125.312 71.1042 125.312 71.2188C125.069 71.6341 124.625 72.1641 123.98 72.8086C123.35 73.4531 122.663 74.026 121.918 74.5273C121.173 75.0143 120.5 75.2578 119.898 75.2578C119.44 75.2578 119.082 75.0501 118.824 74.6348C118.566 74.2194 118.438 73.6823 118.438 73.0234C118.438 72.5938 118.538 71.8346 118.738 70.7461L120.5 61.7656C120.643 60.9206 120.715 60.3477 120.715 60.0469C120.715 59.3307 120.572 58.9727 120.285 58.9727C120.113 58.9727 119.877 59.0872 119.576 59.3164C119.29 59.5456 119.01 59.8034 118.738 60.0898C118.466 60.362 118.266 60.5768 118.137 60.7344L117.922 60.9922C117.865 60.9922 117.757 60.8561 117.6 60.584C117.442 60.3118 117.363 60.1185 117.363 60.0039C117.592 59.6172 118.008 59.1374 118.609 58.5645C119.211 57.9772 119.855 57.4544 120.543 56.9961C121.23 56.5378 121.818 56.3086 122.305 56.3086ZM134.422 56.3086C135.281 56.3086 135.99 57.0391 136.549 58.5C137.122 59.9896 137.501 61.9017 137.688 64.2363C137.831 65.8118 137.931 67.1439 137.988 68.2324C138.06 69.321 138.103 70.2949 138.117 71.1543C138.146 72.0137 138.16 72.8945 138.16 73.7969C138.905 72.8802 139.664 71.7773 140.438 70.4883C141.211 69.1992 141.863 67.8743 142.393 66.5137C142.923 65.153 143.188 63.8997 143.188 62.7539C143.188 61.0781 142.829 59.5456 142.113 58.1562C142.486 56.9245 143.202 56.3086 144.262 56.3086C145.522 56.3086 146.152 57.4401 146.152 59.7031C146.152 62.8685 144.921 66.485 142.457 70.5527C141.225 72.5866 139.886 74.4772 138.439 76.2246C137.007 77.9863 135.561 79.526 134.1 80.8438C132.639 82.1615 131.257 83.1855 129.953 83.916C128.65 84.6465 127.518 85.0117 126.559 85.0117C125.814 85.0117 125.198 84.8398 124.711 84.4961C124.224 84.1523 123.98 83.737 123.98 83.25C123.98 82.3333 124.31 81.7031 124.969 81.3594C125.599 81.7318 126.559 81.918 127.848 81.918C130.24 81.918 132.302 80.6432 134.035 78.0938C134.694 77.1341 135.023 75.2148 135.023 72.3359C135.023 70.9323 134.988 69.5358 134.916 68.1465C134.844 66.7572 134.715 65.332 134.529 63.8711C134.429 63.0404 134.279 62.2526 134.078 61.5078C133.892 60.763 133.663 60.1543 133.391 59.6816C133.118 59.209 132.803 58.9727 132.445 58.9727C132.188 58.9727 131.801 59.2161 131.285 59.7031C130.77 60.1901 130.368 60.6198 130.082 60.9922C130.025 60.9922 129.917 60.8561 129.76 60.584C129.602 60.3118 129.523 60.1185 129.523 60.0039C129.609 59.7891 129.839 59.4811 130.211 59.0801C130.598 58.679 131.049 58.2637 131.564 57.834C132.08 57.4043 132.596 57.0462 133.111 56.7598C133.627 56.459 134.064 56.3086 134.422 56.3086ZM160.805 56.3086C161.865 56.3086 162.91 56.4948 163.941 56.8672L161.32 70.4453C161.234 70.7891 161.191 71.1471 161.191 71.5195C161.191 72.2357 161.335 72.5938 161.621 72.5938C161.979 72.5938 162.409 72.3431 162.91 71.8418C163.411 71.3262 163.841 70.8893 164.199 70.5312L164.457 70.2305C164.514 70.2305 164.622 70.3665 164.779 70.6387C164.937 70.9108 165.016 71.1042 165.016 71.2188C164.772 71.6341 164.328 72.1641 163.684 72.8086C163.053 73.4531 162.366 74.026 161.621 74.5273C160.876 75.0143 160.203 75.2578 159.602 75.2578C159.143 75.2578 158.785 75.0501 158.527 74.6348C158.27 74.2194 158.141 73.6823 158.141 73.0234C158.141 72.5794 158.241 71.8203 158.441 70.7461L158.592 69.9941C158.635 69.7936 158.656 69.6719 158.656 69.6289C158.427 70.0586 158.098 70.5885 157.668 71.2188C157.238 71.8346 156.744 72.4505 156.186 73.0664C155.627 73.6823 155.04 74.1979 154.424 74.6133C153.808 75.0143 153.199 75.2148 152.598 75.2148C151.337 75.2148 150.342 74.6491 149.611 73.5176C148.881 72.3861 148.516 71.0182 148.516 69.4141C148.516 67.3659 149.124 65.3249 150.342 63.291C151.158 61.916 152.132 60.7057 153.264 59.6602C154.41 58.6146 155.634 57.7982 156.938 57.2109C158.241 56.6094 159.53 56.3086 160.805 56.3086ZM159 58.2852C158.155 58.2852 157.303 58.5859 156.443 59.1875C155.584 59.7747 154.796 60.5697 154.08 61.5723C153.364 62.5605 152.784 63.6634 152.34 64.8809C151.91 66.084 151.695 67.2943 151.695 68.5117C151.695 71.319 152.426 72.7227 153.887 72.7227C154.402 72.7227 154.961 72.4362 155.562 71.8633C156.164 71.2904 156.758 70.5312 157.346 69.5859C157.933 68.6406 158.449 67.6165 158.893 66.5137C159.351 65.3965 159.688 64.3008 159.902 63.2266L160.762 58.8438C160.418 58.4714 159.831 58.2852 159 58.2852Z" fill="white"/>
<path d="M0 14.4961C6.30012 20.0984 15.0791 19.1979 30.687 15.1421C32.2497 14.736 33.9168 14.9601 35.3059 15.7832L61.0905 31.063L35.3304 19.6141C33.9205 18.9874 32.3183 18.9353 30.8588 19.4358C12.5496 25.7159 4.73674 24.7283 0 14.4961Z" fill="url(#paint8_radial_692_1624)"/>
<path d="M16.5669 25.8858C22.7094 27.5488 34.4861 19.1752 43.5027 24.2129C35.7991 20.3448 24.9274 34.7378 16.5669 25.8858Z" fill="url(#paint9_radial_692_1624)"/>
<path d="M42.4528 34.1693C40.4746 32.9379 39.8039 31.791 39.5364 30.2054C39.314 28.8871 40.2138 27.6374 41.514 27.3262C46.4064 26.1551 49.6595 27.3172 54.8779 31.063C50.3759 26.3362 46.8249 25.2844 39.6469 25.78C38.7972 25.8387 38.0191 26.2751 37.5081 26.9564L36.1669 28.7446C35.6047 29.4943 35.6307 30.5432 36.2784 31.2205C38.4425 33.4837 39.9798 34.1156 42.4528 34.1693Z" fill="url(#paint10_radial_692_1624)"/>
<path d="M61.0905 28.9921C48.8725 19.5072 53.131 18.6378 60.0551 10.3543C56.6285 8.93238 54.8937 8.83857 52.8071 12.4252C51.2879 8.29387 49.7783 6.42726 45.559 4.14173C43.8524 8.52031 44.6321 10.6991 46.5945 14.4961C42.9378 12.0347 40.7471 11.3823 36.2402 13.4606C46.3046 17.727 45.2926 18.8748 61.0905 28.9921Z" fill="url(#paint11_radial_692_1624)"/>
<path d="M78.6929 22.7441C78.6929 22.1918 79.1406 21.7441 79.6929 21.7441H79.7638C80.3161 21.7441 80.7638 22.1918 80.7638 22.7441V25.9213C80.7638 26.4735 80.3161 26.9213 79.7638 26.9213H74.4803C73.3757 26.9213 72.4803 26.0258 72.4803 24.9213V19.6024C72.4803 18.4978 73.3757 17.6024 74.4803 17.6024H78.7281C80.6137 17.6024 82.4755 18.023 84.178 18.8337V18.8337C85.2965 19.3663 86.1249 20.3629 86.4441 21.5599L88.3399 28.6695C89.2063 31.9182 86.6836 35.0788 83.3237 34.9544L68.0679 34.3894C64.7776 34.2675 62.2002 31.5169 62.2923 28.2256L62.6948 13.8426C62.7856 10.5955 65.4441 8.01038 68.6924 8.01038H83.0387C86.0229 8.01038 88.8896 9.21712 90.915 11.4088C101.807 23.194 109.097 33.3225 115.395 32.2299C115.685 32.1796 115.968 32.3916 115.968 32.686V32.686C115.968 32.9325 115.766 33.1318 115.519 33.1285C109.37 33.045 105.37 32.4313 87.653 13.254C86.5367 12.0456 85.0793 11.1983 83.4735 10.8414L77.8584 9.59364C77.0431 9.41248 76.199 9.4035 75.3801 9.56728L71.091 10.4251C68.2865 10.986 66.2677 13.4485 66.2677 16.3086V27.0984C66.2677 29.8599 68.5063 32.0984 71.2677 32.0984H80.9055C83.1146 32.0984 84.9055 30.3076 84.9055 28.0984V22.6378C84.9055 20.4287 83.1146 18.6378 80.9055 18.6378H76.5512C75.4466 18.6378 74.5512 19.5332 74.5512 20.6378V24.8858C74.5512 25.4381 74.9989 25.8858 75.5512 25.8858H77.6929C78.2452 25.8858 78.6929 25.4381 78.6929 24.8858V22.7441Z" fill="url(#paint12_radial_692_1624)"/>
<path d="M104.412 33.0631C96.4743 29.9513 88.3242 12.4066 78.6929 13.4606C91.6665 19.2326 92.9183 31.4785 104.412 33.0631Z" fill="url(#paint13_radial_692_1624)"/>
<path d="M111.827 30.0276C106.485 21.6827 106.361 16.9143 110.791 8.28346C105.363 9.71409 97.6256 19.5114 111.827 30.0276Z" fill="url(#paint14_radial_692_1624)"/>
<path d="M118.039 10.3543C113.102 14.0549 110.405 23.2793 118.039 32.0984C106.33 25.6888 109.793 12.7713 118.039 0V10.3543Z" fill="url(#paint15_radial_692_1624)"/>
<path d="M236.079 14.4961C229.778 20.0984 221 19.1979 205.392 15.1421C203.829 14.736 202.162 14.9601 200.773 15.7832L174.988 31.063L200.748 19.6141C202.158 18.9874 203.76 18.9353 205.22 19.4358C223.529 25.7159 231.342 24.7283 236.079 14.4961Z" fill="url(#paint16_radial_692_1624)"/>
<path d="M219.512 25.8858C213.369 27.5488 201.593 19.1752 192.576 24.2129C200.279 20.3448 211.151 34.7378 219.512 25.8858Z" fill="url(#paint17_radial_692_1624)"/>
<path d="M193.626 34.1693C195.604 32.9379 196.275 31.791 196.542 30.2054C196.765 28.8871 195.865 27.6374 194.565 27.3262C189.672 26.1551 186.419 27.3172 181.201 31.063C185.703 26.3362 189.254 25.2844 196.432 25.78C197.281 25.8387 198.06 26.2751 198.571 26.9564L199.912 28.7446C200.474 29.4943 200.448 30.5432 199.8 31.2205C197.636 33.4837 196.099 34.1156 193.626 34.1693Z" fill="url(#paint18_radial_692_1624)"/>
<path d="M174.988 28.9921C187.206 19.5072 182.948 18.6378 176.024 10.3543C179.45 8.93238 181.185 8.83857 183.272 12.4252C184.791 8.29387 186.3 6.42726 190.52 4.14173C192.226 8.52031 191.446 10.6991 189.484 14.4961C193.141 12.0347 195.331 11.3823 199.838 13.4606C189.774 17.727 190.786 18.8748 174.988 28.9921Z" fill="url(#paint19_radial_692_1624)"/>
<path d="M157.386 22.7441C157.386 22.1918 156.938 21.7441 156.386 21.7441H156.315C155.763 21.7441 155.315 22.1918 155.315 22.7441V25.9213C155.315 26.4735 155.763 26.9213 156.315 26.9213H161.598C162.703 26.9213 163.598 26.0258 163.598 24.9213V19.6024C163.598 18.4978 162.703 17.6024 161.598 17.6024H157.351C155.465 17.6024 153.603 18.023 151.901 18.8337V18.8337C150.782 19.3663 149.954 20.3629 149.635 21.5599L147.739 28.6695C146.872 31.9182 149.395 35.0788 152.755 34.9544L168.011 34.3894C171.301 34.2675 173.878 31.5169 173.786 28.2256L173.384 13.8426C173.293 10.5955 170.635 8.01038 167.386 8.01038H153.04C150.056 8.01038 147.189 9.21712 145.164 11.4088C134.272 23.194 126.982 33.3225 120.683 32.2299C120.393 32.1796 120.11 32.3916 120.11 32.686V32.686C120.11 32.9325 120.313 33.1318 120.559 33.1285C126.708 33.045 130.709 32.4313 148.426 13.254C149.542 12.0456 150.999 11.1983 152.605 10.8414L158.22 9.59364C159.035 9.41248 159.88 9.4035 160.698 9.56728L164.988 10.4251C167.792 10.986 169.811 13.4485 169.811 16.3086V27.0984C169.811 29.8599 167.572 32.0984 164.811 32.0984H155.173C152.964 32.0984 151.173 30.3076 151.173 28.0984V22.6378C151.173 20.4287 152.964 18.6378 155.173 18.6378H159.527C160.632 18.6378 161.527 19.5332 161.527 20.6378V24.8858C161.527 25.4381 161.08 25.8858 160.527 25.8858H158.386C157.833 25.8858 157.386 25.4381 157.386 24.8858V22.7441Z" fill="url(#paint20_radial_692_1624)"/>
<path d="M131.666 33.0631C139.604 29.9513 147.754 12.4066 157.386 13.4606C144.412 19.2326 143.16 31.4785 131.666 33.0631Z" fill="url(#paint21_radial_692_1624)"/>
<path d="M124.252 30.0276C129.594 21.6827 129.718 16.9143 125.287 8.28346C130.716 9.71409 138.453 19.5114 124.252 30.0276Z" fill="url(#paint22_radial_692_1624)"/>
<path d="M118.039 10.3543C122.976 14.0549 125.673 23.2793 118.039 32.0984C129.749 25.6888 126.286 12.7713 118.039 0V10.3543Z" fill="url(#paint23_radial_692_1624)"/>
<defs>
<radialGradient id="paint0_radial_692_1624" cx="0" cy="0" r="1" gradientUnits="userSpaceOnUse" gradientTransform="translate(79.7285 111.309) scale(38.311 20.1909)">
<stop stop-color="#E1E1E1"/>
<stop offset="1" stop-color="#FFF4DA"/>
</radialGradient>
<radialGradient id="paint1_radial_692_1624" cx="0" cy="0" r="1" gradientUnits="userSpaceOnUse" gradientTransform="translate(79.7285 111.309) scale(38.311 20.1909)">
<stop stop-color="#E1E1E1"/>
<stop offset="1" stop-color="#FFF4DA"/>
</radialGradient>
<radialGradient id="paint2_radial_692_1624" cx="0" cy="0" r="1" gradientUnits="userSpaceOnUse" gradientTransform="translate(79.7285 111.309) scale(38.311 20.1909)">
<stop stop-color="#E1E1E1"/>
<stop offset="1" stop-color="#FFF4DA"/>
</radialGradient>
<radialGradient id="paint3_radial_692_1624" cx="0" cy="0" r="1" gradientUnits="userSpaceOnUse" gradientTransform="translate(79.7285 111.309) scale(38.311 20.1909)">
<stop stop-color="#E1E1E1"/>
<stop offset="1" stop-color="#FFF4DA"/>
</radialGradient>
<radialGradient id="paint4_radial_692_1624" cx="0" cy="0" r="1" gradientUnits="userSpaceOnUse" gradientTransform="translate(156.351 111.309) rotate(180) scale(38.311 20.1909)">
<stop stop-color="#E1E1E1"/>
<stop offset="1" stop-color="#FFF4DA"/>
</radialGradient>
<radialGradient id="paint5_radial_692_1624" cx="0" cy="0" r="1" gradientUnits="userSpaceOnUse" gradientTransform="translate(156.351 111.309) rotate(180) scale(38.311 20.1909)">
<stop stop-color="#E1E1E1"/>
<stop offset="1" stop-color="#FFF4DA"/>
</radialGradient>
<radialGradient id="paint6_radial_692_1624" cx="0" cy="0" r="1" gradientUnits="userSpaceOnUse" gradientTransform="translate(156.351 111.309) rotate(180) scale(38.311 20.1909)">
<stop stop-color="#E1E1E1"/>
<stop offset="1" stop-color="#FFF4DA"/>
</radialGradient>
<radialGradient id="paint7_radial_692_1624" cx="0" cy="0" r="1" gradientUnits="userSpaceOnUse" gradientTransform="translate(156.351 111.309) rotate(180) scale(38.311 20.1909)">
<stop stop-color="#E1E1E1"/>
<stop offset="1" stop-color="#FFF4DA"/>
</radialGradient>
<radialGradient id="paint8_radial_692_1624" cx="0" cy="0" r="1" gradientUnits="userSpaceOnUse" gradientTransform="translate(59.0197 17.6024) scale(59.0197 17.6024)">
<stop stop-color="#E1E1E1"/>
<stop offset="1" stop-color="#FFF4DA"/>
</radialGradient>
<radialGradient id="paint9_radial_692_1624" cx="0" cy="0" r="1" gradientUnits="userSpaceOnUse" gradientTransform="translate(59.0197 17.6024) scale(59.0197 17.6024)">
<stop stop-color="#E1E1E1"/>
<stop offset="1" stop-color="#FFF4DA"/>
</radialGradient>
<radialGradient id="paint10_radial_692_1624" cx="0" cy="0" r="1" gradientUnits="userSpaceOnUse" gradientTransform="translate(59.0197 17.6024) scale(59.0197 17.6024)">
<stop stop-color="#E1E1E1"/>
<stop offset="1" stop-color="#FFF4DA"/>
</radialGradient>
<radialGradient id="paint11_radial_692_1624" cx="0" cy="0" r="1" gradientUnits="userSpaceOnUse" gradientTransform="translate(59.0197 17.6024) scale(59.0197 17.6024)">
<stop stop-color="#E1E1E1"/>
<stop offset="1" stop-color="#FFF4DA"/>
</radialGradient>
<radialGradient id="paint12_radial_692_1624" cx="0" cy="0" r="1" gradientUnits="userSpaceOnUse" gradientTransform="translate(59.0197 17.6024) scale(59.0197 17.6024)">
<stop stop-color="#E1E1E1"/>
<stop offset="1" stop-color="#FFF4DA"/>
</radialGradient>
<radialGradient id="paint13_radial_692_1624" cx="0" cy="0" r="1" gradientUnits="userSpaceOnUse" gradientTransform="translate(59.0197 17.6024) scale(59.0197 17.6024)">
<stop stop-color="#E1E1E1"/>
<stop offset="1" stop-color="#FFF4DA"/>
</radialGradient>
<radialGradient id="paint14_radial_692_1624" cx="0" cy="0" r="1" gradientUnits="userSpaceOnUse" gradientTransform="translate(59.0197 17.6024) scale(59.0197 17.6024)">
<stop stop-color="#E1E1E1"/>
<stop offset="1" stop-color="#FFF4DA"/>
</radialGradient>
<radialGradient id="paint15_radial_692_1624" cx="0" cy="0" r="1" gradientUnits="userSpaceOnUse" gradientTransform="translate(59.0197 17.6024) scale(59.0197 17.6024)">
<stop stop-color="#E1E1E1"/>
<stop offset="1" stop-color="#FFF4DA"/>
</radialGradient>
<radialGradient id="paint16_radial_692_1624" cx="0" cy="0" r="1" gradientUnits="userSpaceOnUse" gradientTransform="translate(177.059 17.6024) rotate(180) scale(59.0197 17.6024)">
<stop stop-color="#E1E1E1"/>
<stop offset="1" stop-color="#FFF4DA"/>
</radialGradient>
<radialGradient id="paint17_radial_692_1624" cx="0" cy="0" r="1" gradientUnits="userSpaceOnUse" gradientTransform="translate(177.059 17.6024) rotate(180) scale(59.0197 17.6024)">
<stop stop-color="#E1E1E1"/>
<stop offset="1" stop-color="#FFF4DA"/>
</radialGradient>
<radialGradient id="paint18_radial_692_1624" cx="0" cy="0" r="1" gradientUnits="userSpaceOnUse" gradientTransform="translate(177.059 17.6024) rotate(180) scale(59.0197 17.6024)">
<stop stop-color="#E1E1E1"/>
<stop offset="1" stop-color="#FFF4DA"/>
</radialGradient>
<radialGradient id="paint19_radial_692_1624" cx="0" cy="0" r="1" gradientUnits="userSpaceOnUse" gradientTransform="translate(177.059 17.6024) rotate(180) scale(59.0197 17.6024)">
<stop stop-color="#E1E1E1"/>
<stop offset="1" stop-color="#FFF4DA"/>
</radialGradient>
<radialGradient id="paint20_radial_692_1624" cx="0" cy="0" r="1" gradientUnits="userSpaceOnUse" gradientTransform="translate(177.059 17.6024) rotate(180) scale(59.0197 17.6024)">
<stop stop-color="#E1E1E1"/>
<stop offset="1" stop-color="#FFF4DA"/>
</radialGradient>
<radialGradient id="paint21_radial_692_1624" cx="0" cy="0" r="1" gradientUnits="userSpaceOnUse" gradientTransform="translate(177.059 17.6024) rotate(180) scale(59.0197 17.6024)">
<stop stop-color="#E1E1E1"/>
<stop offset="1" stop-color="#FFF4DA"/>
</radialGradient>
<radialGradient id="paint22_radial_692_1624" cx="0" cy="0" r="1" gradientUnits="userSpaceOnUse" gradientTransform="translate(177.059 17.6024) rotate(180) scale(59.0197 17.6024)">
<stop stop-color="#E1E1E1"/>
<stop offset="1" stop-color="#FFF4DA"/>
</radialGradient>
<radialGradient id="paint23_radial_692_1624" cx="0" cy="0" r="1" gradientUnits="userSpaceOnUse" gradientTransform="translate(177.059 17.6024) rotate(180) scale(59.0197 17.6024)">
<stop stop-color="#E1E1E1"/>
<stop offset="1" stop-color="#FFF4DA"/>
</radialGradient>
</defs>
</svg>
