<svg width="237" height="132" viewBox="0 0 237 132" fill="none" xmlns="http://www.w3.org/2000/svg">
<path d="M50.713 108.06C49.3894 108.487 47.9219 108.504 46.7174 107.809C44.5799 106.575 44.1417 105.154 44.5239 102.508V102.508C42.8803 103.056 42.0634 104.953 43.0344 106.388C43.9981 107.812 45.0942 108.974 46.6272 110.246C47.9176 111.316 49.57 111.855 51.2463 111.812C56.4411 111.679 59.0354 110.851 62.1261 108.72C61.1055 110.641 61.1623 111.76 61.9889 113.6C62.061 113.76 62.2573 113.822 62.4081 113.731C64.083 112.73 65.0044 111.892 66.2679 109.756C66.2159 114.032 66.9848 113.977 70.4096 114.933C67.5199 110.86 68.053 109.221 70.1985 106.254C70.9963 105.151 72.1264 104.331 73.4058 103.866L78.5781 101.985C81.3347 100.982 84.3491 100.942 87.1317 101.869L104.174 107.55C104.308 107.435 104.443 107.326 104.579 107.223V104.508C104.579 103.403 105.474 102.508 106.579 102.508H108.791C109.896 102.508 110.791 103.403 110.791 104.508V105.614H111.827V103.472C111.827 102.368 110.931 101.472 109.827 101.472H105.543C104.439 101.472 103.543 102.368 103.543 103.472V106.65C98.7741 103.748 93.5326 101.584 86.7262 99.7769C82.8461 98.747 78.7539 99.0145 74.9333 100.247L50.713 108.06Z" fill="url(#paint0_radial_692_1288)"/>
<path fill-rule="evenodd" clip-rule="evenodd" d="M118.04 111.827V108.721C115.458 105.74 114.164 105.799 111.827 105.614H110.791C108.063 105.589 106.223 105.979 104.579 107.223V107.685L104.174 107.55C103.27 108.327 102.41 109.382 101.473 110.791C94.423 108.167 92.2423 105.859 84.6309 104.117C82.7932 103.696 80.8384 103.854 79.1738 104.739C77.1411 105.82 75.7483 107.075 74.4009 109.235C73.7981 110.201 73.7054 111.42 74.2151 112.438C75.05 114.107 76.2503 115.417 79.1381 117.128C80.1191 117.709 81.351 117.62 82.2789 116.957L86.2804 114.099C87.2189 113.429 87.4133 112.09 86.6216 111.251C84.8307 109.354 83.7232 109.09 81.7994 109.756C83.0247 110.067 83.7478 110.456 84.3965 111.688C84.7601 112.378 84.5523 113.216 84.0005 113.767L82.2759 115.492C81.3711 116.397 79.9668 116.664 78.906 115.948C77.392 114.927 76.4786 113.802 75.488 112.283C74.8942 111.372 74.8544 110.185 75.4804 109.296C77.1885 106.871 79.0768 106.022 82.8348 105.614C87.5143 105.758 93.9739 109.592 101.473 112.862C101.611 115.305 101.827 117.608 105.431 119.531C106.15 119.915 107.027 119.733 107.604 119.156L110.252 116.508C110.55 116.21 110.55 115.727 110.252 115.429V115.429C109.972 115.149 109.522 115.134 109.211 115.381C104.883 118.812 103.35 117.017 102.508 112.862C108.785 113.743 111.601 112.063 112.862 106.65H114.933L118.04 111.827ZM102.508 111.827C105.324 107.593 107.417 106.549 111.827 106.65C109.582 111.782 107.624 113.001 102.508 111.827Z" fill="url(#paint1_radial_692_1288)"/>
<path d="M118.04 114.933V111.827C116.112 115.763 116.189 118.074 110.791 119.075C111.96 121.038 112.806 121.636 114.933 121.146C115.325 125.201 115.718 127.472 118.04 131.5V125.287C116.703 121.107 116.953 118.865 118.04 114.933Z" fill="url(#paint2_radial_692_1288)"/>
<path d="M115.969 98.3662C116.06 94.792 116.696 93.3936 118.04 91.1182V105.614C115.723 100.811 114.342 99.4138 111.827 99.4015C113.365 97.8121 114.277 97.3638 115.969 98.3662Z" fill="url(#paint3_radial_692_1288)"/>
<path d="M185.366 108.06C186.69 108.487 188.157 108.504 189.362 107.809C191.499 106.575 191.937 105.154 191.555 102.508V102.508C193.199 103.056 194.016 104.953 193.045 106.388C192.081 107.812 190.985 108.974 189.452 110.246C188.161 111.316 186.509 111.855 184.833 111.812C179.638 111.679 177.044 110.851 173.953 108.72C174.974 110.641 174.917 111.76 174.09 113.6C174.018 113.76 173.822 113.822 173.671 113.731C171.996 112.73 171.075 111.892 169.811 109.756C169.863 114.032 169.094 113.977 165.669 114.933C168.559 110.86 168.026 109.221 165.881 106.254C165.083 105.151 163.953 104.331 162.673 103.866L157.501 101.985C154.744 100.982 151.73 100.942 148.947 101.869L131.905 107.55C131.771 107.435 131.636 107.326 131.5 107.223V104.508C131.5 103.403 130.605 102.508 129.5 102.508H127.288C126.183 102.508 125.288 103.403 125.288 104.508V105.614H124.252V103.472C124.252 102.368 125.148 101.472 126.252 101.472H130.536C131.64 101.472 132.536 102.368 132.536 103.472V106.65C137.305 103.748 142.547 101.584 149.353 99.7769C153.233 98.747 157.325 99.0145 161.146 100.247L185.366 108.06Z" fill="url(#paint4_radial_692_1288)"/>
<path fill-rule="evenodd" clip-rule="evenodd" d="M118.04 111.827V108.721C120.621 105.74 121.915 105.799 124.252 105.614H125.288C128.016 105.589 129.856 105.979 131.5 107.223V107.685L131.905 107.55C132.809 108.327 133.669 109.382 134.607 110.791C141.656 108.167 143.837 105.859 151.448 104.117C153.286 103.696 155.241 103.854 156.905 104.739C158.938 105.82 160.331 107.075 161.678 109.235C162.281 110.201 162.374 111.42 161.864 112.438C161.029 114.107 159.829 115.417 156.941 117.128C155.96 117.709 154.728 117.62 153.8 116.957L149.799 114.099C148.86 113.429 148.666 112.09 149.457 111.251C151.248 109.354 152.356 109.09 154.28 109.756C153.054 110.067 152.331 110.456 151.683 111.688C151.319 112.378 151.527 113.216 152.079 113.767L153.803 115.492C154.708 116.397 156.112 116.664 157.173 115.948C158.687 114.927 159.601 113.802 160.591 112.283C161.185 111.372 161.225 110.185 160.599 109.296C158.891 106.871 157.002 106.022 153.244 105.614C148.565 105.758 142.105 109.592 134.607 112.862C134.468 115.305 134.252 117.608 130.648 119.531C129.929 119.915 129.052 119.733 128.475 119.156L125.827 116.508C125.529 116.21 125.529 115.727 125.827 115.429V115.429C126.107 115.149 126.557 115.134 126.868 115.381C131.196 118.812 132.729 117.017 133.571 112.862C127.294 113.743 124.479 112.063 123.217 106.65H121.146L118.04 111.827ZM133.571 111.827C130.755 107.593 128.662 106.549 124.252 106.65C126.497 111.782 128.455 113.001 133.571 111.827Z" fill="url(#paint5_radial_692_1288)"/>
<path d="M118.04 114.933V111.827C119.967 115.763 119.89 118.074 125.288 119.075C124.119 121.038 123.273 121.636 121.146 121.146C120.755 125.201 120.362 127.472 118.04 131.5V125.287C119.376 121.107 119.126 118.865 118.04 114.933Z" fill="url(#paint6_radial_692_1288)"/>
<path d="M120.11 98.3662C120.019 94.792 119.383 93.3936 118.04 91.1182V105.614C120.356 100.811 121.737 99.4138 124.252 99.4015C122.714 97.8121 121.802 97.3638 120.11 98.3662Z" fill="url(#paint7_radial_692_1288)"/>
<path d="M89.6875 52.8711L86.6367 69.0273C86.3216 70.5599 86.1641 71.849 86.1641 72.8945C86.1641 73.1237 86.3574 73.3314 86.7441 73.5176C87.1309 73.7038 87.5104 73.8255 87.8828 73.8828L88.4844 73.9688C88.5417 73.9688 88.5703 74.026 88.5703 74.1406C88.5703 74.4557 88.4844 74.7852 88.3125 75.1289C86.9948 75.0573 85.9635 75.0072 85.2188 74.9785C84.474 74.9355 84.0156 74.9141 83.8438 74.9141C83.8151 74.9141 83.4069 74.9355 82.6191 74.9785C81.8314 75.0072 80.6641 75.0573 79.1172 75.1289C79.0599 75.0716 79.0312 74.957 79.0312 74.7852C79.0312 74.2409 79.1315 73.9688 79.332 73.9688C79.5612 73.9688 79.8763 73.9258 80.2773 73.8398C80.6927 73.7539 81.0794 73.6393 81.4375 73.4961C81.7956 73.3529 82.0104 73.1953 82.082 73.0234C82.4974 72.0781 82.8698 70.7031 83.1992 68.8984L86.25 53C86.5651 51.4674 86.7227 50.1497 86.7227 49.0469C86.7227 48.832 86.5723 48.6387 86.2715 48.4668C85.985 48.2949 85.6484 48.1589 85.2617 48.0586C84.8893 47.944 84.5742 47.8867 84.3164 47.8867C84.2591 47.8867 84.2305 47.8151 84.2305 47.6719C84.2305 47.2708 84.3451 46.9557 84.5742 46.7266C84.8034 46.7409 85.1901 46.7695 85.7344 46.8125C86.293 46.8555 86.8945 46.8984 87.5391 46.9414C88.1836 46.9701 88.7422 46.9844 89.2148 46.9844C89.9023 46.9844 90.7832 46.9414 91.8574 46.8555C92.9316 46.7695 93.569 46.7266 93.7695 46.7266V46.8555C93.7695 47.543 93.6693 47.8867 93.4688 47.8867C93.3255 47.8867 93.0462 47.944 92.6309 48.0586C92.2298 48.1589 91.8359 48.2878 91.4492 48.4453C91.0768 48.5885 90.862 48.7318 90.8047 48.875C90.418 49.7201 90.0456 51.0521 89.6875 52.8711ZM88.1836 60.9922C89.0716 60.4479 90.1673 59.6029 91.4707 58.457C92.7741 57.3112 94.1562 56.0078 95.6172 54.5469C97.0924 53.0859 98.4961 51.625 99.8281 50.1641C99.9714 50.0208 100.222 49.7487 100.58 49.3477C100.938 48.9323 101.117 48.6315 101.117 48.4453C101.117 48.1875 100.867 48.0013 100.365 47.8867C99.8639 47.7721 99.4271 47.7148 99.0547 47.7148C98.9688 47.7148 98.9258 47.6289 98.9258 47.457C98.9258 47.1992 98.9974 46.9557 99.1406 46.7266C99.4844 46.7552 99.9355 46.791 100.494 46.834C101.053 46.877 101.597 46.9128 102.127 46.9414C102.671 46.9701 103.079 46.9844 103.352 46.9844C104.053 46.9844 104.949 46.9414 106.037 46.8555C107.14 46.7695 107.777 46.7266 107.949 46.7266C107.949 47.3854 107.863 47.7148 107.691 47.7148C105.672 47.9583 104.154 48.5885 103.137 49.6055L92.6523 60.0898C92.5091 60.2331 92.4375 60.4049 92.4375 60.6055C92.4375 60.8203 92.5234 61.0495 92.6953 61.293L101.461 71.9062C101.79 72.3073 102.256 72.651 102.857 72.9375C103.473 73.2096 104.082 73.4245 104.684 73.582C105.285 73.7253 105.715 73.7969 105.973 73.7969C106.03 73.7969 106.059 73.8828 106.059 74.0547C106.059 74.3841 105.987 74.6849 105.844 74.957C104.383 75.043 103.309 75.0859 102.621 75.0859C101.733 75.0859 100.881 74.9427 100.064 74.6562C99.4199 74.4128 98.9043 74.1621 98.5176 73.9043C98.1452 73.6465 97.8516 73.3815 97.6367 73.1094C94.7865 69.4857 92.5736 66.6641 90.998 64.6445C89.4225 62.625 88.4844 61.4076 88.1836 60.9922ZM120.668 56.3086C121.728 56.3086 122.773 56.4948 123.805 56.8672L121.184 70.4453C121.098 70.7891 121.055 71.1471 121.055 71.5195C121.055 72.2357 121.198 72.5938 121.484 72.5938C121.842 72.5938 122.272 72.3431 122.773 71.8418C123.275 71.3262 123.704 70.8893 124.062 70.5312L124.32 70.2305C124.378 70.2305 124.485 70.3665 124.643 70.6387C124.8 70.9108 124.879 71.1042 124.879 71.2188C124.635 71.6341 124.191 72.1641 123.547 72.8086C122.917 73.4531 122.229 74.026 121.484 74.5273C120.74 75.0143 120.066 75.2578 119.465 75.2578C119.007 75.2578 118.648 75.0501 118.391 74.6348C118.133 74.2194 118.004 73.6823 118.004 73.0234C118.004 72.5794 118.104 71.8203 118.305 70.7461L118.455 69.9941C118.498 69.7936 118.52 69.6719 118.52 69.6289C118.29 70.0586 117.961 70.5885 117.531 71.2188C117.102 71.8346 116.607 72.4505 116.049 73.0664C115.49 73.6823 114.903 74.1979 114.287 74.6133C113.671 75.0143 113.062 75.2148 112.461 75.2148C111.201 75.2148 110.205 74.6491 109.475 73.5176C108.744 72.3861 108.379 71.0182 108.379 69.4141C108.379 67.3659 108.988 65.3249 110.205 63.291C111.021 61.916 111.995 60.7057 113.127 59.6602C114.273 58.6146 115.497 57.7982 116.801 57.2109C118.104 56.6094 119.393 56.3086 120.668 56.3086ZM118.863 58.2852C118.018 58.2852 117.166 58.5859 116.307 59.1875C115.447 59.7747 114.66 60.5697 113.943 61.5723C113.227 62.5605 112.647 63.6634 112.203 64.8809C111.773 66.084 111.559 67.2943 111.559 68.5117C111.559 71.319 112.289 72.7227 113.75 72.7227C114.266 72.7227 114.824 72.4362 115.426 71.8633C116.027 71.2904 116.622 70.5312 117.209 69.5859C117.796 68.6406 118.312 67.6165 118.756 66.5137C119.214 65.3965 119.551 64.3008 119.766 63.2266L120.625 58.8438C120.281 58.4714 119.694 58.2852 118.863 58.2852ZM140.863 56.3086C142.296 56.3086 143.012 57.2539 143.012 59.1445C143.012 60.4766 142.811 62.0378 142.41 63.8281L140.992 70.4453C140.906 70.7891 140.863 71.1471 140.863 71.5195C140.863 72.2357 141.007 72.5938 141.293 72.5938C141.651 72.5938 142.081 72.3431 142.582 71.8418C143.083 71.3262 143.513 70.8893 143.871 70.5312L144.129 70.2305C144.186 70.2305 144.294 70.3665 144.451 70.6387C144.609 70.9108 144.688 71.1042 144.688 71.2188C144.444 71.6341 144 72.1641 143.355 72.8086C142.725 73.4531 142.038 74.026 141.293 74.5273C140.548 75.0143 139.875 75.2578 139.273 75.2578C138.815 75.2578 138.457 75.0501 138.199 74.6348C137.941 74.2194 137.812 73.6823 137.812 73.0234C137.812 72.5938 137.913 71.8346 138.113 70.7461L139.617 63.6562C139.818 62.6823 139.918 61.9089 139.918 61.3359C139.918 60.1042 139.646 59.4883 139.102 59.4883C138.629 59.4883 137.992 59.8464 137.189 60.5625C136.387 61.2643 135.549 62.2025 134.676 63.377C133.816 64.5514 133.036 65.862 132.334 67.3086C131.632 68.7409 131.138 70.1875 130.852 71.6484L130.121 75C129.734 75.1146 129.29 75.1719 128.789 75.1719C128.302 75.1719 127.815 75.1146 127.328 75L131.969 50.9805C132.227 49.7057 132.355 48.9466 132.355 48.7031C132.355 48.1589 131.482 47.8867 129.734 47.8867C129.648 47.8867 129.605 47.8008 129.605 47.6289C129.605 47.2852 129.72 46.9987 129.949 46.7695C131.811 46.5977 133.616 46.1966 135.363 45.5664C135.535 45.6523 135.621 45.9245 135.621 46.3828C135.621 46.5833 135.435 47.6576 135.062 49.6055L132.098 64.7734C132.37 64.2865 132.993 63.3984 133.967 62.1094C134.611 61.2643 135.356 60.3978 136.201 59.5098C137.061 58.6074 137.906 57.8483 138.736 57.2324C139.581 56.6165 140.29 56.3086 140.863 56.3086ZM161.703 44.9648C163.536 44.9648 164.711 45.4518 165.227 46.4258C165.227 48.2878 164.711 49.2188 163.68 49.2188C163.221 49.2188 162.813 49.0039 162.455 48.5742C162.111 48.1302 161.76 47.6934 161.402 47.2637C161.059 46.8197 160.643 46.5977 160.156 46.5977C159.24 46.5977 158.266 47.5358 157.234 49.4121C156.217 51.2598 155.415 53.8737 154.828 57.2539V57.3398C154.828 57.4544 154.871 57.5117 154.957 57.5117H159.898C160.042 57.5117 160.113 57.6836 160.113 58.0273C160.113 58.5 159.956 58.987 159.641 59.4883H154.613C154.456 59.4883 154.37 59.6029 154.355 59.832L151.992 72.6797C151.305 76.6615 150.094 79.6979 148.361 81.7891C146.628 83.8802 144.745 84.9258 142.711 84.9258C141.708 84.9258 140.921 84.7467 140.348 84.3887C139.775 84.0306 139.402 83.6224 139.23 83.1641C139.202 82.5052 139.359 81.918 139.703 81.4023C140.047 80.8867 140.477 80.6289 140.992 80.6289C141.393 80.6289 141.744 80.8438 142.045 81.2734C142.331 81.7174 142.639 82.1543 142.969 82.584C143.284 83.028 143.685 83.25 144.172 83.25C144.745 83.25 145.282 82.9134 145.783 82.2402C146.299 81.5814 146.764 80.7578 147.18 79.7695C147.595 78.7812 147.939 77.793 148.211 76.8047C148.483 75.8164 148.669 75 148.77 74.3555L151.348 59.7891V59.7031C151.348 59.5599 151.305 59.4883 151.219 59.4883H148.426C148.368 59.4883 148.34 59.4453 148.34 59.3594C148.34 59.1875 148.447 58.9583 148.662 58.6719C148.877 58.3711 149.142 58.1061 149.457 57.877C149.786 57.6335 150.102 57.5117 150.402 57.5117H151.648C151.763 57.5117 151.849 57.3828 151.906 57.125C152.293 54.776 152.98 52.6849 153.969 50.8516C154.971 49.0182 156.146 47.5788 157.492 46.5332C158.853 45.4876 160.257 44.9648 161.703 44.9648Z" fill="white"/>
<path d="M0 14.4961C6.30012 20.0984 15.0791 19.1979 30.687 15.1421C32.2497 14.736 33.9168 14.9601 35.3059 15.7832L61.0905 31.063L35.3304 19.6141C33.9205 18.9874 32.3183 18.9353 30.8588 19.4358C12.5496 25.7159 4.73674 24.7283 0 14.4961Z" fill="url(#paint8_radial_692_1288)"/>
<path d="M16.5669 25.8858C22.7094 27.5488 34.4861 19.1752 43.5027 24.2129C35.7991 20.3448 24.9274 34.7378 16.5669 25.8858Z" fill="url(#paint9_radial_692_1288)"/>
<path d="M42.4528 34.1693C40.4746 32.9379 39.8039 31.791 39.5364 30.2054C39.314 28.8871 40.2138 27.6374 41.514 27.3262C46.4064 26.1551 49.6595 27.3172 54.8779 31.063C50.3759 26.3362 46.8249 25.2844 39.6469 25.78C38.7972 25.8387 38.0191 26.2751 37.5081 26.9564L36.1669 28.7446C35.6047 29.4943 35.6307 30.5432 36.2784 31.2205C38.4425 33.4837 39.9798 34.1156 42.4528 34.1693Z" fill="url(#paint10_radial_692_1288)"/>
<path d="M61.0905 28.9921C48.8725 19.5072 53.131 18.6378 60.0551 10.3543C56.6285 8.93238 54.8937 8.83857 52.8071 12.4252C51.2879 8.29387 49.7783 6.42726 45.559 4.14173C43.8524 8.52031 44.6321 10.6991 46.5945 14.4961C42.9378 12.0347 40.7471 11.3823 36.2402 13.4606C46.3046 17.727 45.2926 18.8748 61.0905 28.9921Z" fill="url(#paint11_radial_692_1288)"/>
<path d="M78.6929 22.7441C78.6929 22.1918 79.1406 21.7441 79.6929 21.7441H79.7638C80.3161 21.7441 80.7638 22.1918 80.7638 22.7441V25.9213C80.7638 26.4735 80.3161 26.9213 79.7638 26.9213H74.4803C73.3757 26.9213 72.4803 26.0258 72.4803 24.9213V19.6024C72.4803 18.4978 73.3757 17.6024 74.4803 17.6024H78.7281C80.6137 17.6024 82.4755 18.023 84.178 18.8337V18.8337C85.2965 19.3663 86.1249 20.3629 86.4441 21.5599L88.3399 28.6695C89.2063 31.9182 86.6836 35.0788 83.3237 34.9544L68.0679 34.3894C64.7776 34.2675 62.2002 31.5169 62.2923 28.2256L62.6948 13.8426C62.7856 10.5955 65.4441 8.01038 68.6924 8.01038H83.0387C86.0229 8.01038 88.8896 9.21712 90.915 11.4088C101.807 23.194 109.097 33.3225 115.395 32.2299C115.685 32.1796 115.968 32.3916 115.968 32.686V32.686C115.968 32.9325 115.766 33.1318 115.519 33.1285C109.37 33.045 105.37 32.4313 87.653 13.254C86.5367 12.0456 85.0793 11.1983 83.4735 10.8414L77.8584 9.59364C77.0431 9.41248 76.199 9.4035 75.3801 9.56728L71.091 10.4251C68.2865 10.986 66.2677 13.4485 66.2677 16.3086V27.0984C66.2677 29.8599 68.5063 32.0984 71.2677 32.0984H80.9055C83.1146 32.0984 84.9055 30.3076 84.9055 28.0984V22.6378C84.9055 20.4287 83.1146 18.6378 80.9055 18.6378H76.5512C75.4466 18.6378 74.5512 19.5332 74.5512 20.6378V24.8858C74.5512 25.4381 74.9989 25.8858 75.5512 25.8858H77.6929C78.2452 25.8858 78.6929 25.4381 78.6929 24.8858V22.7441Z" fill="url(#paint12_radial_692_1288)"/>
<path d="M104.412 33.0631C96.4743 29.9513 88.3242 12.4066 78.6929 13.4606C91.6665 19.2326 92.9183 31.4785 104.412 33.0631Z" fill="url(#paint13_radial_692_1288)"/>
<path d="M111.827 30.0276C106.485 21.6827 106.361 16.9143 110.791 8.28346C105.363 9.71409 97.6256 19.5114 111.827 30.0276Z" fill="url(#paint14_radial_692_1288)"/>
<path d="M118.039 10.3543C113.102 14.0549 110.405 23.2793 118.039 32.0984C106.33 25.6888 109.793 12.7713 118.039 0V10.3543Z" fill="url(#paint15_radial_692_1288)"/>
<path d="M236.079 14.4961C229.778 20.0984 221 19.1979 205.392 15.1421C203.829 14.736 202.162 14.9601 200.773 15.7832L174.988 31.063L200.748 19.6141C202.158 18.9874 203.76 18.9353 205.22 19.4358C223.529 25.7159 231.342 24.7283 236.079 14.4961Z" fill="url(#paint16_radial_692_1288)"/>
<path d="M219.512 25.8858C213.369 27.5488 201.593 19.1752 192.576 24.2129C200.279 20.3448 211.151 34.7378 219.512 25.8858Z" fill="url(#paint17_radial_692_1288)"/>
<path d="M193.626 34.1693C195.604 32.9379 196.275 31.791 196.542 30.2054C196.765 28.8871 195.865 27.6374 194.565 27.3262C189.672 26.1551 186.419 27.3172 181.201 31.063C185.703 26.3362 189.254 25.2844 196.432 25.78C197.281 25.8387 198.06 26.2751 198.571 26.9564L199.912 28.7446C200.474 29.4943 200.448 30.5432 199.8 31.2205C197.636 33.4837 196.099 34.1156 193.626 34.1693Z" fill="url(#paint18_radial_692_1288)"/>
<path d="M174.988 28.9921C187.206 19.5072 182.948 18.6378 176.024 10.3543C179.45 8.93238 181.185 8.83857 183.272 12.4252C184.791 8.29387 186.3 6.42726 190.52 4.14173C192.226 8.52031 191.446 10.6991 189.484 14.4961C193.141 12.0347 195.331 11.3823 199.838 13.4606C189.774 17.727 190.786 18.8748 174.988 28.9921Z" fill="url(#paint19_radial_692_1288)"/>
<path d="M157.386 22.7441C157.386 22.1918 156.938 21.7441 156.386 21.7441H156.315C155.763 21.7441 155.315 22.1918 155.315 22.7441V25.9213C155.315 26.4735 155.763 26.9213 156.315 26.9213H161.598C162.703 26.9213 163.598 26.0258 163.598 24.9213V19.6024C163.598 18.4978 162.703 17.6024 161.598 17.6024H157.351C155.465 17.6024 153.603 18.023 151.901 18.8337V18.8337C150.782 19.3663 149.954 20.3629 149.635 21.5599L147.739 28.6695C146.872 31.9182 149.395 35.0788 152.755 34.9544L168.011 34.3894C171.301 34.2675 173.878 31.5169 173.786 28.2256L173.384 13.8426C173.293 10.5955 170.635 8.01038 167.386 8.01038H153.04C150.056 8.01038 147.189 9.21712 145.164 11.4088C134.272 23.194 126.982 33.3225 120.683 32.2299C120.393 32.1796 120.11 32.3916 120.11 32.686V32.686C120.11 32.9325 120.313 33.1318 120.559 33.1285C126.708 33.045 130.709 32.4313 148.426 13.254C149.542 12.0456 150.999 11.1983 152.605 10.8414L158.22 9.59364C159.035 9.41248 159.88 9.4035 160.698 9.56728L164.988 10.4251C167.792 10.986 169.811 13.4485 169.811 16.3086V27.0984C169.811 29.8599 167.572 32.0984 164.811 32.0984H155.173C152.964 32.0984 151.173 30.3076 151.173 28.0984V22.6378C151.173 20.4287 152.964 18.6378 155.173 18.6378H159.527C160.632 18.6378 161.527 19.5332 161.527 20.6378V24.8858C161.527 25.4381 161.08 25.8858 160.527 25.8858H158.386C157.833 25.8858 157.386 25.4381 157.386 24.8858V22.7441Z" fill="url(#paint20_radial_692_1288)"/>
<path d="M131.666 33.0631C139.604 29.9513 147.754 12.4066 157.386 13.4606C144.412 19.2326 143.16 31.4785 131.666 33.0631Z" fill="url(#paint21_radial_692_1288)"/>
<path d="M124.252 30.0276C129.594 21.6827 129.718 16.9143 125.287 8.28346C130.716 9.71409 138.453 19.5114 124.252 30.0276Z" fill="url(#paint22_radial_692_1288)"/>
<path d="M118.039 10.3543C122.976 14.0549 125.673 23.2793 118.039 32.0984C129.749 25.6888 126.286 12.7713 118.039 0V10.3543Z" fill="url(#paint23_radial_692_1288)"/>
<defs>
<radialGradient id="paint0_radial_692_1288" cx="0" cy="0" r="1" gradientUnits="userSpaceOnUse" gradientTransform="translate(79.7285 111.309) scale(38.311 20.1909)">
<stop stop-color="#E1E1E1"/>
<stop offset="1" stop-color="#FFF4DA"/>
</radialGradient>
<radialGradient id="paint1_radial_692_1288" cx="0" cy="0" r="1" gradientUnits="userSpaceOnUse" gradientTransform="translate(79.7285 111.309) scale(38.311 20.1909)">
<stop stop-color="#E1E1E1"/>
<stop offset="1" stop-color="#FFF4DA"/>
</radialGradient>
<radialGradient id="paint2_radial_692_1288" cx="0" cy="0" r="1" gradientUnits="userSpaceOnUse" gradientTransform="translate(79.7285 111.309) scale(38.311 20.1909)">
<stop stop-color="#E1E1E1"/>
<stop offset="1" stop-color="#FFF4DA"/>
</radialGradient>
<radialGradient id="paint3_radial_692_1288" cx="0" cy="0" r="1" gradientUnits="userSpaceOnUse" gradientTransform="translate(79.7285 111.309) scale(38.311 20.1909)">
<stop stop-color="#E1E1E1"/>
<stop offset="1" stop-color="#FFF4DA"/>
</radialGradient>
<radialGradient id="paint4_radial_692_1288" cx="0" cy="0" r="1" gradientUnits="userSpaceOnUse" gradientTransform="translate(156.351 111.309) rotate(180) scale(38.311 20.1909)">
<stop stop-color="#E1E1E1"/>
<stop offset="1" stop-color="#FFF4DA"/>
</radialGradient>
<radialGradient id="paint5_radial_692_1288" cx="0" cy="0" r="1" gradientUnits="userSpaceOnUse" gradientTransform="translate(156.351 111.309) rotate(180) scale(38.311 20.1909)">
<stop stop-color="#E1E1E1"/>
<stop offset="1" stop-color="#FFF4DA"/>
</radialGradient>
<radialGradient id="paint6_radial_692_1288" cx="0" cy="0" r="1" gradientUnits="userSpaceOnUse" gradientTransform="translate(156.351 111.309) rotate(180) scale(38.311 20.1909)">
<stop stop-color="#E1E1E1"/>
<stop offset="1" stop-color="#FFF4DA"/>
</radialGradient>
<radialGradient id="paint7_radial_692_1288" cx="0" cy="0" r="1" gradientUnits="userSpaceOnUse" gradientTransform="translate(156.351 111.309) rotate(180) scale(38.311 20.1909)">
<stop stop-color="#E1E1E1"/>
<stop offset="1" stop-color="#FFF4DA"/>
</radialGradient>
<radialGradient id="paint8_radial_692_1288" cx="0" cy="0" r="1" gradientUnits="userSpaceOnUse" gradientTransform="translate(59.0197 17.6024) scale(59.0197 17.6024)">
<stop stop-color="#E1E1E1"/>
<stop offset="1" stop-color="#FFF4DA"/>
</radialGradient>
<radialGradient id="paint9_radial_692_1288" cx="0" cy="0" r="1" gradientUnits="userSpaceOnUse" gradientTransform="translate(59.0197 17.6024) scale(59.0197 17.6024)">
<stop stop-color="#E1E1E1"/>
<stop offset="1" stop-color="#FFF4DA"/>
</radialGradient>
<radialGradient id="paint10_radial_692_1288" cx="0" cy="0" r="1" gradientUnits="userSpaceOnUse" gradientTransform="translate(59.0197 17.6024) scale(59.0197 17.6024)">
<stop stop-color="#E1E1E1"/>
<stop offset="1" stop-color="#FFF4DA"/>
</radialGradient>
<radialGradient id="paint11_radial_692_1288" cx="0" cy="0" r="1" gradientUnits="userSpaceOnUse" gradientTransform="translate(59.0197 17.6024) scale(59.0197 17.6024)">
<stop stop-color="#E1E1E1"/>
<stop offset="1" stop-color="#FFF4DA"/>
</radialGradient>
<radialGradient id="paint12_radial_692_1288" cx="0" cy="0" r="1" gradientUnits="userSpaceOnUse" gradientTransform="translate(59.0197 17.6024) scale(59.0197 17.6024)">
<stop stop-color="#E1E1E1"/>
<stop offset="1" stop-color="#FFF4DA"/>
</radialGradient>
<radialGradient id="paint13_radial_692_1288" cx="0" cy="0" r="1" gradientUnits="userSpaceOnUse" gradientTransform="translate(59.0197 17.6024) scale(59.0197 17.6024)">
<stop stop-color="#E1E1E1"/>
<stop offset="1" stop-color="#FFF4DA"/>
</radialGradient>
<radialGradient id="paint14_radial_692_1288" cx="0" cy="0" r="1" gradientUnits="userSpaceOnUse" gradientTransform="translate(59.0197 17.6024) scale(59.0197 17.6024)">
<stop stop-color="#E1E1E1"/>
<stop offset="1" stop-color="#FFF4DA"/>
</radialGradient>
<radialGradient id="paint15_radial_692_1288" cx="0" cy="0" r="1" gradientUnits="userSpaceOnUse" gradientTransform="translate(59.0197 17.6024) scale(59.0197 17.6024)">
<stop stop-color="#E1E1E1"/>
<stop offset="1" stop-color="#FFF4DA"/>
</radialGradient>
<radialGradient id="paint16_radial_692_1288" cx="0" cy="0" r="1" gradientUnits="userSpaceOnUse" gradientTransform="translate(177.059 17.6024) rotate(180) scale(59.0197 17.6024)">
<stop stop-color="#E1E1E1"/>
<stop offset="1" stop-color="#FFF4DA"/>
</radialGradient>
<radialGradient id="paint17_radial_692_1288" cx="0" cy="0" r="1" gradientUnits="userSpaceOnUse" gradientTransform="translate(177.059 17.6024) rotate(180) scale(59.0197 17.6024)">
<stop stop-color="#E1E1E1"/>
<stop offset="1" stop-color="#FFF4DA"/>
</radialGradient>
<radialGradient id="paint18_radial_692_1288" cx="0" cy="0" r="1" gradientUnits="userSpaceOnUse" gradientTransform="translate(177.059 17.6024) rotate(180) scale(59.0197 17.6024)">
<stop stop-color="#E1E1E1"/>
<stop offset="1" stop-color="#FFF4DA"/>
</radialGradient>
<radialGradient id="paint19_radial_692_1288" cx="0" cy="0" r="1" gradientUnits="userSpaceOnUse" gradientTransform="translate(177.059 17.6024) rotate(180) scale(59.0197 17.6024)">
<stop stop-color="#E1E1E1"/>
<stop offset="1" stop-color="#FFF4DA"/>
</radialGradient>
<radialGradient id="paint20_radial_692_1288" cx="0" cy="0" r="1" gradientUnits="userSpaceOnUse" gradientTransform="translate(177.059 17.6024) rotate(180) scale(59.0197 17.6024)">
<stop stop-color="#E1E1E1"/>
<stop offset="1" stop-color="#FFF4DA"/>
</radialGradient>
<radialGradient id="paint21_radial_692_1288" cx="0" cy="0" r="1" gradientUnits="userSpaceOnUse" gradientTransform="translate(177.059 17.6024) rotate(180) scale(59.0197 17.6024)">
<stop stop-color="#E1E1E1"/>
<stop offset="1" stop-color="#FFF4DA"/>
</radialGradient>
<radialGradient id="paint22_radial_692_1288" cx="0" cy="0" r="1" gradientUnits="userSpaceOnUse" gradientTransform="translate(177.059 17.6024) rotate(180) scale(59.0197 17.6024)">
<stop stop-color="#E1E1E1"/>
<stop offset="1" stop-color="#FFF4DA"/>
</radialGradient>
<radialGradient id="paint23_radial_692_1288" cx="0" cy="0" r="1" gradientUnits="userSpaceOnUse" gradientTransform="translate(177.059 17.6024) rotate(180) scale(59.0197 17.6024)">
<stop stop-color="#E1E1E1"/>
<stop offset="1" stop-color="#FFF4DA"/>
</radialGradient>
</defs>
</svg>
