<svg width="237" height="132" viewBox="0 0 237 132" fill="none" xmlns="http://www.w3.org/2000/svg">
<path d="M50.713 108.06C49.3894 108.487 47.9219 108.504 46.7174 107.809C44.5799 106.575 44.1417 105.154 44.5239 102.508V102.508C42.8803 103.056 42.0634 104.953 43.0344 106.388C43.9981 107.812 45.0942 108.974 46.6272 110.246C47.9176 111.316 49.57 111.855 51.2463 111.812C56.4411 111.679 59.0354 110.851 62.1261 108.72C61.1055 110.641 61.1623 111.76 61.9889 113.6C62.061 113.76 62.2573 113.822 62.4081 113.731C64.083 112.73 65.0044 111.892 66.2679 109.756C66.2159 114.032 66.9848 113.977 70.4096 114.933C67.5199 110.86 68.053 109.221 70.1985 106.254C70.9963 105.151 72.1264 104.331 73.4058 103.866L78.5781 101.985C81.3347 100.982 84.3491 100.942 87.1317 101.869L104.174 107.55C104.308 107.435 104.443 107.326 104.579 107.223V104.508C104.579 103.403 105.474 102.508 106.579 102.508H108.791C109.896 102.508 110.791 103.403 110.791 104.508V105.614H111.827V103.472C111.827 102.368 110.931 101.472 109.827 101.472H105.543C104.439 101.472 103.543 102.368 103.543 103.472V106.65C98.7741 103.748 93.5326 101.584 86.7262 99.7769C82.8461 98.747 78.7539 99.0145 74.9333 100.247L50.713 108.06Z" fill="url(#paint0_radial_692_1296)"/>
<path fill-rule="evenodd" clip-rule="evenodd" d="M118.04 111.827V108.721C115.458 105.74 114.164 105.799 111.827 105.614H110.791C108.063 105.589 106.223 105.979 104.579 107.223V107.685L104.174 107.55C103.27 108.327 102.41 109.382 101.473 110.791C94.423 108.167 92.2423 105.859 84.6309 104.117C82.7932 103.696 80.8384 103.854 79.1738 104.739C77.1411 105.82 75.7483 107.075 74.4009 109.235C73.7981 110.201 73.7054 111.42 74.2151 112.438C75.05 114.107 76.2503 115.417 79.1381 117.128C80.1191 117.709 81.351 117.62 82.2789 116.957L86.2804 114.099C87.2189 113.429 87.4133 112.09 86.6216 111.251C84.8307 109.354 83.7232 109.09 81.7994 109.756C83.0247 110.067 83.7478 110.456 84.3965 111.688C84.7601 112.378 84.5523 113.216 84.0005 113.767L82.2759 115.492C81.3711 116.397 79.9668 116.664 78.906 115.948C77.392 114.927 76.4786 113.802 75.488 112.283C74.8942 111.372 74.8544 110.185 75.4804 109.296C77.1885 106.871 79.0768 106.022 82.8348 105.614C87.5143 105.758 93.9739 109.592 101.473 112.862C101.611 115.305 101.827 117.608 105.431 119.531C106.15 119.915 107.027 119.733 107.604 119.156L110.252 116.508C110.55 116.21 110.55 115.727 110.252 115.429V115.429C109.972 115.149 109.522 115.134 109.211 115.381C104.883 118.812 103.35 117.017 102.508 112.862C108.785 113.743 111.601 112.063 112.862 106.65H114.933L118.04 111.827ZM102.508 111.827C105.324 107.593 107.417 106.549 111.827 106.65C109.582 111.782 107.624 113.001 102.508 111.827Z" fill="url(#paint1_radial_692_1296)"/>
<path d="M118.04 114.933V111.827C116.112 115.763 116.189 118.074 110.791 119.075C111.96 121.038 112.806 121.636 114.933 121.146C115.325 125.201 115.718 127.472 118.04 131.5V125.287C116.703 121.107 116.953 118.865 118.04 114.933Z" fill="url(#paint2_radial_692_1296)"/>
<path d="M115.969 98.3662C116.06 94.792 116.696 93.3936 118.04 91.1182V105.614C115.723 100.811 114.342 99.4138 111.827 99.4015C113.365 97.8121 114.277 97.3638 115.969 98.3662Z" fill="url(#paint3_radial_692_1296)"/>
<path d="M185.366 108.06C186.69 108.487 188.157 108.504 189.362 107.809C191.499 106.575 191.937 105.154 191.555 102.508V102.508C193.199 103.056 194.016 104.953 193.045 106.388C192.081 107.812 190.985 108.974 189.452 110.246C188.161 111.316 186.509 111.855 184.833 111.812C179.638 111.679 177.044 110.851 173.953 108.72C174.974 110.641 174.917 111.76 174.09 113.6C174.018 113.76 173.822 113.822 173.671 113.731C171.996 112.73 171.075 111.892 169.811 109.756C169.863 114.032 169.094 113.977 165.669 114.933C168.559 110.86 168.026 109.221 165.881 106.254C165.083 105.151 163.953 104.331 162.673 103.866L157.501 101.985C154.744 100.982 151.73 100.942 148.947 101.869L131.905 107.55C131.771 107.435 131.636 107.326 131.5 107.223V104.508C131.5 103.403 130.605 102.508 129.5 102.508H127.288C126.183 102.508 125.288 103.403 125.288 104.508V105.614H124.252V103.472C124.252 102.368 125.148 101.472 126.252 101.472H130.536C131.64 101.472 132.536 102.368 132.536 103.472V106.65C137.305 103.748 142.547 101.584 149.353 99.7769C153.233 98.747 157.325 99.0145 161.146 100.247L185.366 108.06Z" fill="url(#paint4_radial_692_1296)"/>
<path fill-rule="evenodd" clip-rule="evenodd" d="M118.04 111.827V108.721C120.621 105.74 121.915 105.799 124.252 105.614H125.288C128.016 105.589 129.856 105.979 131.5 107.223V107.685L131.905 107.55C132.809 108.327 133.669 109.382 134.607 110.791C141.656 108.167 143.837 105.859 151.448 104.117C153.286 103.696 155.241 103.854 156.905 104.739C158.938 105.82 160.331 107.075 161.678 109.235C162.281 110.201 162.374 111.42 161.864 112.438C161.029 114.107 159.829 115.417 156.941 117.128C155.96 117.709 154.728 117.62 153.8 116.957L149.799 114.099C148.86 113.429 148.666 112.09 149.457 111.251C151.248 109.354 152.356 109.09 154.28 109.756C153.054 110.067 152.331 110.456 151.683 111.688C151.319 112.378 151.527 113.216 152.079 113.767L153.803 115.492C154.708 116.397 156.112 116.664 157.173 115.948C158.687 114.927 159.601 113.802 160.591 112.283C161.185 111.372 161.225 110.185 160.599 109.296C158.891 106.871 157.002 106.022 153.244 105.614C148.565 105.758 142.105 109.592 134.607 112.862C134.468 115.305 134.252 117.608 130.648 119.531C129.929 119.915 129.052 119.733 128.475 119.156L125.827 116.508C125.529 116.21 125.529 115.727 125.827 115.429V115.429C126.107 115.149 126.557 115.134 126.868 115.381C131.196 118.812 132.729 117.017 133.571 112.862C127.294 113.743 124.479 112.063 123.217 106.65H121.146L118.04 111.827ZM133.571 111.827C130.755 107.593 128.662 106.549 124.252 106.65C126.497 111.782 128.455 113.001 133.571 111.827Z" fill="url(#paint5_radial_692_1296)"/>
<path d="M118.04 114.933V111.827C119.967 115.763 119.89 118.074 125.288 119.075C124.119 121.038 123.273 121.636 121.146 121.146C120.755 125.201 120.362 127.472 118.04 131.5V125.287C119.376 121.107 119.126 118.865 118.04 114.933Z" fill="url(#paint6_radial_692_1296)"/>
<path d="M120.11 98.3662C120.019 94.792 119.383 93.3936 118.04 91.1182V105.614C120.356 100.811 121.737 99.4138 124.252 99.4015C122.714 97.8121 121.802 97.3638 120.11 98.3662Z" fill="url(#paint7_radial_692_1296)"/>
<path d="M67.5508 67.9531L75.1992 52.5273L77.9062 46.7266C78.6797 46.8125 79.8112 46.8555 81.3008 46.8555C81.8021 46.8555 82.3607 46.8411 82.9766 46.8125C83.6068 46.7839 84.2943 46.7409 85.0391 46.6836C85.0964 46.8268 85.0964 47.0703 85.0391 47.4141C84.9818 47.7578 84.9102 47.9297 84.8242 47.9297C84.4518 47.9297 84.0579 48.0299 83.6426 48.2305C83.2272 48.431 82.9193 48.6745 82.7188 48.9609C82.4609 49.3047 82.2676 49.7201 82.1387 50.207C82.0241 50.651 81.888 51.5104 81.7305 52.7852L80.0547 69.1992C79.8828 70.6745 79.7969 71.806 79.7969 72.5938C79.7969 73.1953 80.0189 73.5749 80.4629 73.7324C80.7207 73.8184 81.0286 73.8828 81.3867 73.9258C81.7591 73.9544 82.0599 73.9688 82.2891 73.9688C82.3464 73.9688 82.375 74.0977 82.375 74.3555C82.375 74.6992 82.2891 74.957 82.1172 75.1289C80.7852 75.0573 79.7253 75.0072 78.9375 74.9785C78.1641 74.9355 77.6628 74.9141 77.4336 74.9141C77.3906 74.9141 76.9896 74.9355 76.2305 74.9785C75.4857 75.0072 74.3828 75.0573 72.9219 75.1289C72.8646 75.0286 72.8359 74.957 72.8359 74.9141C72.8359 74.7422 72.8717 74.5417 72.9434 74.3125C73.015 74.0833 73.0794 73.9688 73.1367 73.9688C73.3945 73.9688 73.7168 73.9401 74.1035 73.8828C74.5046 73.8112 74.877 73.7181 75.2207 73.6035C75.5645 73.4746 75.7721 73.3385 75.8438 73.1953C76.1302 72.5365 76.3307 71.9277 76.4453 71.3691C76.474 71.2116 76.5169 70.8678 76.5742 70.3379C76.6315 69.8079 76.6745 69.4714 76.7031 69.3281L78.4219 52.5703C78.5078 51.7109 78.5508 51.1523 78.5508 50.8945C78.5508 50.7227 78.4648 50.6367 78.293 50.6367C78.2786 50.6367 78.2357 50.694 78.1641 50.8086L66.9492 73.668C66.806 73.9258 66.5339 74.2266 66.1328 74.5703C65.7318 74.9141 65.3594 75.0859 65.0156 75.0859C64.8867 75.0859 64.7721 75.0573 64.6719 75L61.0195 50.6367C61.0052 50.5794 60.9766 50.5508 60.9336 50.5508C60.8477 50.5508 60.8047 50.5794 60.8047 50.6367L55.7773 69.1562C55.2331 71.1328 54.9609 72.3216 54.9609 72.7227C54.9609 72.9232 55.1686 73.1237 55.584 73.3242C56.0137 73.5104 56.4648 73.668 56.9375 73.7969C57.4245 73.9115 57.7396 73.9688 57.8828 73.9688C57.9401 73.9688 57.9688 74.0547 57.9688 74.2266C57.9688 74.556 57.8971 74.8568 57.7539 75.1289C56.4219 75.0573 55.3835 75.0072 54.6387 74.9785C53.8939 74.9355 53.4427 74.9141 53.2852 74.9141C53.2422 74.9141 52.8268 74.9355 52.0391 74.9785C51.2513 75.0072 50.0911 75.0573 48.5586 75.1289C48.5013 75.0716 48.4727 74.9284 48.4727 74.6992C48.4727 74.2122 48.5729 73.9688 48.7734 73.9688C49.0026 73.9688 49.3678 73.9186 49.8691 73.8184C50.3704 73.7038 50.8431 73.5677 51.2871 73.4102C51.7454 73.2383 52.0104 73.0807 52.082 72.9375C52.5833 71.9922 53.056 70.7174 53.5 69.1133L58.1836 52.3125C58.2982 51.7539 58.4199 51.2025 58.5488 50.6582C58.6777 50.0996 58.7422 49.5625 58.7422 49.0469C58.7422 48.832 58.5417 48.6387 58.1406 48.4668C57.7396 48.2949 57.3027 48.1589 56.8301 48.0586C56.3717 47.944 56.0352 47.8867 55.8203 47.8867C55.763 47.8867 55.7344 47.7865 55.7344 47.5859C55.7344 47.1133 55.8203 46.8268 55.9922 46.7266C57.0521 46.7552 57.9186 46.7767 58.5918 46.791C59.265 46.8053 59.7448 46.8125 60.0312 46.8125C60.8477 46.8125 61.5924 46.8053 62.2656 46.791C62.9531 46.7767 63.569 46.7552 64.1133 46.7266C64.2422 47.901 64.5788 50.2643 65.123 53.8164C65.6673 57.3542 66.4193 62.0807 67.3789 67.9961C67.3789 68.0247 67.3932 68.0391 67.4219 68.0391C67.5078 68.0391 67.5508 68.0104 67.5508 67.9531ZM98.0586 56.3086C99.1185 56.3086 100.164 56.4948 101.195 56.8672L98.5742 70.4453C98.4883 70.7891 98.4453 71.1471 98.4453 71.5195C98.4453 72.2357 98.5885 72.5938 98.875 72.5938C99.2331 72.5938 99.6628 72.3431 100.164 71.8418C100.665 71.3262 101.095 70.8893 101.453 70.5312L101.711 70.2305C101.768 70.2305 101.876 70.3665 102.033 70.6387C102.191 70.9108 102.27 71.1042 102.27 71.2188C102.026 71.6341 101.582 72.1641 100.938 72.8086C100.307 73.4531 99.6198 74.026 98.875 74.5273C98.1302 75.0143 97.457 75.2578 96.8555 75.2578C96.3971 75.2578 96.0391 75.0501 95.7812 74.6348C95.5234 74.2194 95.3945 73.6823 95.3945 73.0234C95.3945 72.5794 95.4948 71.8203 95.6953 70.7461L95.8457 69.9941C95.8887 69.7936 95.9102 69.6719 95.9102 69.6289C95.681 70.0586 95.3516 70.5885 94.9219 71.2188C94.4922 71.8346 93.998 72.4505 93.4395 73.0664C92.8809 73.6823 92.2936 74.1979 91.6777 74.6133C91.0618 75.0143 90.4531 75.2148 89.8516 75.2148C88.5911 75.2148 87.5957 74.6491 86.8652 73.5176C86.1348 72.3861 85.7695 71.0182 85.7695 69.4141C85.7695 67.3659 86.3783 65.3249 87.5957 63.291C88.4121 61.916 89.3861 60.7057 90.5176 59.6602C91.6634 58.6146 92.888 57.7982 94.1914 57.2109C95.4948 56.6094 96.7839 56.3086 98.0586 56.3086ZM96.2539 58.2852C95.4089 58.2852 94.5566 58.5859 93.6973 59.1875C92.8379 59.7747 92.0501 60.5697 91.334 61.5723C90.6178 62.5605 90.0378 63.6634 89.5938 64.8809C89.1641 66.084 88.9492 67.2943 88.9492 68.5117C88.9492 71.319 89.6797 72.7227 91.1406 72.7227C91.6562 72.7227 92.2148 72.4362 92.8164 71.8633C93.418 71.2904 94.0124 70.5312 94.5996 69.5859C95.1868 68.6406 95.7025 67.6165 96.1465 66.5137C96.6048 65.3965 96.9414 64.3008 97.1562 63.2266L98.0156 58.8438C97.6719 58.4714 97.0846 58.2852 96.2539 58.2852ZM110.777 56.3086C111.236 56.3086 111.594 56.5163 111.852 56.9316C112.109 57.347 112.238 57.8841 112.238 58.543C112.238 59.1732 112.152 59.9323 111.98 60.8203L111.293 64.4297C111.651 63.5846 112.109 62.6966 112.668 61.7656C113.241 60.8203 113.85 59.9323 114.494 59.1016C115.139 58.2708 115.776 57.5977 116.406 57.082C117.036 56.5664 117.595 56.3086 118.082 56.3086C119.056 56.3086 119.844 56.7669 120.445 57.6836C120.445 59.6029 119.915 60.5625 118.855 60.5625C118.626 60.5625 118.354 60.3835 118.039 60.0254C117.724 59.6673 117.395 59.4883 117.051 59.4883C116.635 59.4883 116.091 59.832 115.418 60.5195C114.745 61.207 114.05 62.1094 113.334 63.2266C112.618 64.3294 111.973 65.5254 111.4 66.8145C110.827 68.0892 110.434 69.3138 110.219 70.4883L109.402 75C108.915 75.0859 108.443 75.1289 107.984 75.1289C107.44 75.1289 106.91 75.0859 106.395 75L108.973 61.7656C109.116 60.7773 109.188 60.2044 109.188 60.0469C109.188 59.3307 109.044 58.9727 108.758 58.9727C108.514 58.9727 108.149 59.2018 107.662 59.6602C107.433 59.8893 107.182 60.14 106.91 60.4121C106.652 60.6842 106.48 60.8776 106.395 60.9922C106.337 60.9922 106.23 60.8561 106.072 60.584C105.915 60.3118 105.836 60.1185 105.836 60.0039C106.065 59.6172 106.48 59.1374 107.082 58.5645C107.684 57.9772 108.328 57.4544 109.016 56.9961C109.703 56.5378 110.29 56.3086 110.777 56.3086ZM127.148 56.3086C128.008 56.3086 128.717 57.0391 129.275 58.5C129.848 59.9896 130.228 61.9017 130.414 64.2363C130.557 65.8118 130.658 67.1439 130.715 68.2324C130.786 69.321 130.829 70.2949 130.844 71.1543C130.872 72.0137 130.887 72.8945 130.887 73.7969C131.632 72.8802 132.391 71.7773 133.164 70.4883C133.938 69.1992 134.589 67.8743 135.119 66.5137C135.649 65.153 135.914 63.8997 135.914 62.7539C135.914 61.0781 135.556 59.5456 134.84 58.1562C135.212 56.9245 135.928 56.3086 136.988 56.3086C138.249 56.3086 138.879 57.4401 138.879 59.7031C138.879 62.8685 137.647 66.485 135.184 70.5527C133.952 72.5866 132.613 74.4772 131.166 76.2246C129.734 77.9863 128.287 79.526 126.826 80.8438C125.365 82.1615 123.983 83.1855 122.68 83.916C121.376 84.6465 120.245 85.0117 119.285 85.0117C118.54 85.0117 117.924 84.8398 117.438 84.4961C116.951 84.1523 116.707 83.737 116.707 83.25C116.707 82.3333 117.036 81.7031 117.695 81.3594C118.326 81.7318 119.285 81.918 120.574 81.918C122.966 81.918 125.029 80.6432 126.762 78.0938C127.421 77.1341 127.75 75.2148 127.75 72.3359C127.75 70.9323 127.714 69.5358 127.643 68.1465C127.571 66.7572 127.442 65.332 127.256 63.8711C127.156 63.0404 127.005 62.2526 126.805 61.5078C126.618 60.763 126.389 60.1543 126.117 59.6816C125.845 59.209 125.53 58.9727 125.172 58.9727C124.914 58.9727 124.527 59.2161 124.012 59.7031C123.496 60.1901 123.095 60.6198 122.809 60.9922C122.751 60.9922 122.644 60.8561 122.486 60.584C122.329 60.3118 122.25 60.1185 122.25 60.0039C122.336 59.7891 122.565 59.4811 122.938 59.0801C123.324 58.679 123.775 58.2637 124.291 57.834C124.807 57.4043 125.322 57.0462 125.838 56.7598C126.354 56.459 126.79 56.3086 127.148 56.3086ZM153.531 56.3086C154.591 56.3086 155.637 56.4948 156.668 56.8672L154.047 70.4453C153.961 70.7891 153.918 71.1471 153.918 71.5195C153.918 72.2357 154.061 72.5938 154.348 72.5938C154.706 72.5938 155.135 72.3431 155.637 71.8418C156.138 71.3262 156.568 70.8893 156.926 70.5312L157.184 70.2305C157.241 70.2305 157.348 70.3665 157.506 70.6387C157.663 70.9108 157.742 71.1042 157.742 71.2188C157.499 71.6341 157.055 72.1641 156.41 72.8086C155.78 73.4531 155.092 74.026 154.348 74.5273C153.603 75.0143 152.93 75.2578 152.328 75.2578C151.87 75.2578 151.512 75.0501 151.254 74.6348C150.996 74.2194 150.867 73.6823 150.867 73.0234C150.867 72.5794 150.967 71.8203 151.168 70.7461L151.318 69.9941C151.361 69.7936 151.383 69.6719 151.383 69.6289C151.154 70.0586 150.824 70.5885 150.395 71.2188C149.965 71.8346 149.471 72.4505 148.912 73.0664C148.354 73.6823 147.766 74.1979 147.15 74.6133C146.535 75.0143 145.926 75.2148 145.324 75.2148C144.064 75.2148 143.068 74.6491 142.338 73.5176C141.607 72.3861 141.242 71.0182 141.242 69.4141C141.242 67.3659 141.851 65.3249 143.068 63.291C143.885 61.916 144.859 60.7057 145.99 59.6602C147.136 58.6146 148.361 57.7982 149.664 57.2109C150.967 56.6094 152.257 56.3086 153.531 56.3086ZM151.727 58.2852C150.882 58.2852 150.029 58.5859 149.17 59.1875C148.311 59.7747 147.523 60.5697 146.807 61.5723C146.09 62.5605 145.51 63.6634 145.066 64.8809C144.637 66.084 144.422 67.2943 144.422 68.5117C144.422 71.319 145.152 72.7227 146.613 72.7227C147.129 72.7227 147.688 72.4362 148.289 71.8633C148.891 71.2904 149.485 70.5312 150.072 69.5859C150.66 68.6406 151.175 67.6165 151.619 66.5137C152.077 65.3965 152.414 64.3008 152.629 63.2266L153.488 58.8438C153.145 58.4714 152.557 58.2852 151.727 58.2852ZM174.328 56.3086C175.102 56.3086 175.696 56.5378 176.111 56.9961C176.527 57.4544 176.777 57.9342 176.863 58.4355C176.949 58.9368 176.992 59.5885 176.992 60.3906C176.992 60.9206 176.792 62.1953 176.391 64.2148C176.863 63.3984 177.451 62.5319 178.152 61.6152C178.854 60.6986 179.592 59.8392 180.365 59.0371C181.139 58.235 181.883 57.5833 182.6 57.082C183.316 56.5664 183.924 56.3086 184.426 56.3086C185.371 56.3086 186.016 56.5449 186.359 57.0176C186.703 57.4902 186.875 58.1992 186.875 59.1445C186.875 60.4766 186.674 62.0378 186.273 63.8281L184.855 70.4453C184.77 70.7891 184.727 71.1471 184.727 71.5195C184.727 72.2357 184.87 72.5938 185.156 72.5938C185.514 72.5938 185.944 72.3431 186.445 71.8418C186.947 71.3262 187.376 70.8893 187.734 70.5312L187.992 70.2305C188.049 70.2305 188.157 70.3665 188.314 70.6387C188.472 70.9108 188.551 71.1042 188.551 71.2188C188.307 71.6341 187.863 72.1641 187.219 72.8086C186.589 73.4531 185.901 74.026 185.156 74.5273C184.411 75.0143 183.738 75.2578 183.137 75.2578C182.678 75.2578 182.32 75.0501 182.062 74.6348C181.805 74.2194 181.676 73.6823 181.676 73.0234C181.676 72.5938 181.776 71.8346 181.977 70.7461L183.48 63.6562C183.681 62.6823 183.781 61.9089 183.781 61.3359C183.781 60.8346 183.738 60.4049 183.652 60.0469C183.581 59.6745 183.352 59.4883 182.965 59.4883C182.478 59.4883 181.84 59.832 181.053 60.5195C180.279 61.207 179.477 62.1165 178.646 63.248C177.816 64.3652 177.071 65.597 176.412 66.9434C175.753 68.2754 175.302 69.6003 175.059 70.918L174.285 75H171.406L173.812 62.7969C173.927 62.1523 173.984 61.6081 173.984 61.1641C173.984 60.0469 173.698 59.4883 173.125 59.4883C172.624 59.4883 171.986 59.8678 171.213 60.627C170.439 61.3861 169.645 62.3672 168.828 63.5703C168.012 64.7734 167.281 66.0553 166.637 67.416C165.992 68.7624 165.548 70.0299 165.305 71.2188L164.531 75C163.729 75.1146 163.242 75.1719 163.07 75.1719C162.927 75.1719 162.454 75.1146 161.652 75L164.23 61.7656C164.374 60.7773 164.445 60.2044 164.445 60.0469C164.445 59.3307 164.302 58.9727 164.016 58.9727C163.772 58.9727 163.407 59.2018 162.92 59.6602C162.691 59.8893 162.44 60.14 162.168 60.4121C161.91 60.6842 161.738 60.8776 161.652 60.9922C161.595 60.9922 161.488 60.8561 161.33 60.584C161.173 60.3118 161.094 60.1185 161.094 60.0039C161.323 59.6172 161.738 59.1374 162.34 58.5645C162.941 57.9772 163.586 57.4544 164.273 56.9961C164.961 56.5378 165.548 56.3086 166.035 56.3086C166.493 56.3086 166.852 56.5163 167.109 56.9316C167.367 57.347 167.496 57.8841 167.496 58.543C167.496 59.1732 167.41 59.9323 167.238 60.8203L166.465 64.8164C166.995 63.8997 167.604 62.9473 168.291 61.959C168.993 60.9707 169.709 60.0469 170.439 59.1875C171.184 58.3281 171.893 57.6335 172.566 57.1035C173.24 56.5736 173.827 56.3086 174.328 56.3086Z" fill="white"/>
<path d="M0 14.4961C6.30012 20.0984 15.0791 19.1979 30.687 15.1421C32.2497 14.736 33.9168 14.9601 35.3059 15.7832L61.0905 31.063L35.3304 19.6141C33.9205 18.9874 32.3183 18.9353 30.8588 19.4358C12.5496 25.7159 4.73674 24.7283 0 14.4961Z" fill="url(#paint8_radial_692_1296)"/>
<path d="M16.5669 25.8858C22.7094 27.5488 34.4861 19.1752 43.5027 24.2129C35.7991 20.3448 24.9274 34.7378 16.5669 25.8858Z" fill="url(#paint9_radial_692_1296)"/>
<path d="M42.4528 34.1693C40.4746 32.9379 39.8039 31.791 39.5364 30.2054C39.314 28.8871 40.2138 27.6374 41.514 27.3262C46.4064 26.1551 49.6595 27.3172 54.8779 31.063C50.3759 26.3362 46.8249 25.2844 39.6469 25.78C38.7972 25.8387 38.0191 26.2751 37.5081 26.9564L36.1669 28.7446C35.6047 29.4943 35.6307 30.5432 36.2784 31.2205C38.4425 33.4837 39.9798 34.1156 42.4528 34.1693Z" fill="url(#paint10_radial_692_1296)"/>
<path d="M61.0905 28.9921C48.8725 19.5072 53.131 18.6378 60.0551 10.3543C56.6285 8.93238 54.8937 8.83857 52.8071 12.4252C51.2879 8.29387 49.7783 6.42726 45.559 4.14173C43.8524 8.52031 44.6321 10.6991 46.5945 14.4961C42.9378 12.0347 40.7471 11.3823 36.2402 13.4606C46.3046 17.727 45.2926 18.8748 61.0905 28.9921Z" fill="url(#paint11_radial_692_1296)"/>
<path d="M78.6929 22.7441C78.6929 22.1918 79.1406 21.7441 79.6929 21.7441H79.7638C80.3161 21.7441 80.7638 22.1918 80.7638 22.7441V25.9213C80.7638 26.4735 80.3161 26.9213 79.7638 26.9213H74.4803C73.3757 26.9213 72.4803 26.0258 72.4803 24.9213V19.6024C72.4803 18.4978 73.3757 17.6024 74.4803 17.6024H78.7281C80.6137 17.6024 82.4755 18.023 84.178 18.8337V18.8337C85.2965 19.3663 86.1249 20.3629 86.4441 21.5599L88.3399 28.6695C89.2063 31.9182 86.6836 35.0788 83.3237 34.9544L68.0679 34.3894C64.7776 34.2675 62.2002 31.5169 62.2923 28.2256L62.6948 13.8426C62.7856 10.5955 65.4441 8.01038 68.6924 8.01038H83.0387C86.0229 8.01038 88.8896 9.21712 90.915 11.4088C101.807 23.194 109.097 33.3225 115.395 32.2299C115.685 32.1796 115.968 32.3916 115.968 32.686V32.686C115.968 32.9325 115.766 33.1318 115.519 33.1285C109.37 33.045 105.37 32.4313 87.653 13.254C86.5367 12.0456 85.0793 11.1983 83.4735 10.8414L77.8584 9.59364C77.0431 9.41248 76.199 9.4035 75.3801 9.56728L71.091 10.4251C68.2865 10.986 66.2677 13.4485 66.2677 16.3086V27.0984C66.2677 29.8599 68.5063 32.0984 71.2677 32.0984H80.9055C83.1146 32.0984 84.9055 30.3076 84.9055 28.0984V22.6378C84.9055 20.4287 83.1146 18.6378 80.9055 18.6378H76.5512C75.4466 18.6378 74.5512 19.5332 74.5512 20.6378V24.8858C74.5512 25.4381 74.9989 25.8858 75.5512 25.8858H77.6929C78.2452 25.8858 78.6929 25.4381 78.6929 24.8858V22.7441Z" fill="url(#paint12_radial_692_1296)"/>
<path d="M104.412 33.0631C96.4743 29.9513 88.3242 12.4066 78.6929 13.4606C91.6665 19.2326 92.9183 31.4785 104.412 33.0631Z" fill="url(#paint13_radial_692_1296)"/>
<path d="M111.827 30.0276C106.485 21.6827 106.361 16.9143 110.791 8.28346C105.363 9.71409 97.6256 19.5114 111.827 30.0276Z" fill="url(#paint14_radial_692_1296)"/>
<path d="M118.039 10.3543C113.102 14.0549 110.405 23.2793 118.039 32.0984C106.33 25.6888 109.793 12.7713 118.039 0V10.3543Z" fill="url(#paint15_radial_692_1296)"/>
<path d="M236.079 14.4961C229.778 20.0984 221 19.1979 205.392 15.1421C203.829 14.736 202.162 14.9601 200.773 15.7832L174.988 31.063L200.748 19.6141C202.158 18.9874 203.76 18.9353 205.22 19.4358C223.529 25.7159 231.342 24.7283 236.079 14.4961Z" fill="url(#paint16_radial_692_1296)"/>
<path d="M219.512 25.8858C213.369 27.5488 201.593 19.1752 192.576 24.2129C200.279 20.3448 211.151 34.7378 219.512 25.8858Z" fill="url(#paint17_radial_692_1296)"/>
<path d="M193.626 34.1693C195.604 32.9379 196.275 31.791 196.542 30.2054C196.765 28.8871 195.865 27.6374 194.565 27.3262C189.672 26.1551 186.419 27.3172 181.201 31.063C185.703 26.3362 189.254 25.2844 196.432 25.78C197.281 25.8387 198.06 26.2751 198.571 26.9564L199.912 28.7446C200.474 29.4943 200.448 30.5432 199.8 31.2205C197.636 33.4837 196.099 34.1156 193.626 34.1693Z" fill="url(#paint18_radial_692_1296)"/>
<path d="M174.988 28.9921C187.206 19.5072 182.948 18.6378 176.024 10.3543C179.45 8.93238 181.185 8.83857 183.272 12.4252C184.791 8.29387 186.3 6.42726 190.52 4.14173C192.226 8.52031 191.446 10.6991 189.484 14.4961C193.141 12.0347 195.331 11.3823 199.838 13.4606C189.774 17.727 190.786 18.8748 174.988 28.9921Z" fill="url(#paint19_radial_692_1296)"/>
<path d="M157.386 22.7441C157.386 22.1918 156.938 21.7441 156.386 21.7441H156.315C155.763 21.7441 155.315 22.1918 155.315 22.7441V25.9213C155.315 26.4735 155.763 26.9213 156.315 26.9213H161.598C162.703 26.9213 163.598 26.0258 163.598 24.9213V19.6024C163.598 18.4978 162.703 17.6024 161.598 17.6024H157.351C155.465 17.6024 153.603 18.023 151.901 18.8337V18.8337C150.782 19.3663 149.954 20.3629 149.635 21.5599L147.739 28.6695C146.872 31.9182 149.395 35.0788 152.755 34.9544L168.011 34.3894C171.301 34.2675 173.878 31.5169 173.786 28.2256L173.384 13.8426C173.293 10.5955 170.635 8.01038 167.386 8.01038H153.04C150.056 8.01038 147.189 9.21712 145.164 11.4088C134.272 23.194 126.982 33.3225 120.683 32.2299C120.393 32.1796 120.11 32.3916 120.11 32.686V32.686C120.11 32.9325 120.313 33.1318 120.559 33.1285C126.708 33.045 130.709 32.4313 148.426 13.254C149.542 12.0456 150.999 11.1983 152.605 10.8414L158.22 9.59364C159.035 9.41248 159.88 9.4035 160.698 9.56728L164.988 10.4251C167.792 10.986 169.811 13.4485 169.811 16.3086V27.0984C169.811 29.8599 167.572 32.0984 164.811 32.0984H155.173C152.964 32.0984 151.173 30.3076 151.173 28.0984V22.6378C151.173 20.4287 152.964 18.6378 155.173 18.6378H159.527C160.632 18.6378 161.527 19.5332 161.527 20.6378V24.8858C161.527 25.4381 161.08 25.8858 160.527 25.8858H158.386C157.833 25.8858 157.386 25.4381 157.386 24.8858V22.7441Z" fill="url(#paint20_radial_692_1296)"/>
<path d="M131.666 33.0631C139.604 29.9513 147.754 12.4066 157.386 13.4606C144.412 19.2326 143.16 31.4785 131.666 33.0631Z" fill="url(#paint21_radial_692_1296)"/>
<path d="M124.252 30.0276C129.594 21.6827 129.718 16.9143 125.287 8.28346C130.716 9.71409 138.453 19.5114 124.252 30.0276Z" fill="url(#paint22_radial_692_1296)"/>
<path d="M118.039 10.3543C122.976 14.0549 125.673 23.2793 118.039 32.0984C129.749 25.6888 126.286 12.7713 118.039 0V10.3543Z" fill="url(#paint23_radial_692_1296)"/>
<defs>
<radialGradient id="paint0_radial_692_1296" cx="0" cy="0" r="1" gradientUnits="userSpaceOnUse" gradientTransform="translate(79.7285 111.309) scale(38.311 20.1909)">
<stop stop-color="#E1E1E1"/>
<stop offset="1" stop-color="#FFF4DA"/>
</radialGradient>
<radialGradient id="paint1_radial_692_1296" cx="0" cy="0" r="1" gradientUnits="userSpaceOnUse" gradientTransform="translate(79.7285 111.309) scale(38.311 20.1909)">
<stop stop-color="#E1E1E1"/>
<stop offset="1" stop-color="#FFF4DA"/>
</radialGradient>
<radialGradient id="paint2_radial_692_1296" cx="0" cy="0" r="1" gradientUnits="userSpaceOnUse" gradientTransform="translate(79.7285 111.309) scale(38.311 20.1909)">
<stop stop-color="#E1E1E1"/>
<stop offset="1" stop-color="#FFF4DA"/>
</radialGradient>
<radialGradient id="paint3_radial_692_1296" cx="0" cy="0" r="1" gradientUnits="userSpaceOnUse" gradientTransform="translate(79.7285 111.309) scale(38.311 20.1909)">
<stop stop-color="#E1E1E1"/>
<stop offset="1" stop-color="#FFF4DA"/>
</radialGradient>
<radialGradient id="paint4_radial_692_1296" cx="0" cy="0" r="1" gradientUnits="userSpaceOnUse" gradientTransform="translate(156.351 111.309) rotate(180) scale(38.311 20.1909)">
<stop stop-color="#E1E1E1"/>
<stop offset="1" stop-color="#FFF4DA"/>
</radialGradient>
<radialGradient id="paint5_radial_692_1296" cx="0" cy="0" r="1" gradientUnits="userSpaceOnUse" gradientTransform="translate(156.351 111.309) rotate(180) scale(38.311 20.1909)">
<stop stop-color="#E1E1E1"/>
<stop offset="1" stop-color="#FFF4DA"/>
</radialGradient>
<radialGradient id="paint6_radial_692_1296" cx="0" cy="0" r="1" gradientUnits="userSpaceOnUse" gradientTransform="translate(156.351 111.309) rotate(180) scale(38.311 20.1909)">
<stop stop-color="#E1E1E1"/>
<stop offset="1" stop-color="#FFF4DA"/>
</radialGradient>
<radialGradient id="paint7_radial_692_1296" cx="0" cy="0" r="1" gradientUnits="userSpaceOnUse" gradientTransform="translate(156.351 111.309) rotate(180) scale(38.311 20.1909)">
<stop stop-color="#E1E1E1"/>
<stop offset="1" stop-color="#FFF4DA"/>
</radialGradient>
<radialGradient id="paint8_radial_692_1296" cx="0" cy="0" r="1" gradientUnits="userSpaceOnUse" gradientTransform="translate(59.0197 17.6024) scale(59.0197 17.6024)">
<stop stop-color="#E1E1E1"/>
<stop offset="1" stop-color="#FFF4DA"/>
</radialGradient>
<radialGradient id="paint9_radial_692_1296" cx="0" cy="0" r="1" gradientUnits="userSpaceOnUse" gradientTransform="translate(59.0197 17.6024) scale(59.0197 17.6024)">
<stop stop-color="#E1E1E1"/>
<stop offset="1" stop-color="#FFF4DA"/>
</radialGradient>
<radialGradient id="paint10_radial_692_1296" cx="0" cy="0" r="1" gradientUnits="userSpaceOnUse" gradientTransform="translate(59.0197 17.6024) scale(59.0197 17.6024)">
<stop stop-color="#E1E1E1"/>
<stop offset="1" stop-color="#FFF4DA"/>
</radialGradient>
<radialGradient id="paint11_radial_692_1296" cx="0" cy="0" r="1" gradientUnits="userSpaceOnUse" gradientTransform="translate(59.0197 17.6024) scale(59.0197 17.6024)">
<stop stop-color="#E1E1E1"/>
<stop offset="1" stop-color="#FFF4DA"/>
</radialGradient>
<radialGradient id="paint12_radial_692_1296" cx="0" cy="0" r="1" gradientUnits="userSpaceOnUse" gradientTransform="translate(59.0197 17.6024) scale(59.0197 17.6024)">
<stop stop-color="#E1E1E1"/>
<stop offset="1" stop-color="#FFF4DA"/>
</radialGradient>
<radialGradient id="paint13_radial_692_1296" cx="0" cy="0" r="1" gradientUnits="userSpaceOnUse" gradientTransform="translate(59.0197 17.6024) scale(59.0197 17.6024)">
<stop stop-color="#E1E1E1"/>
<stop offset="1" stop-color="#FFF4DA"/>
</radialGradient>
<radialGradient id="paint14_radial_692_1296" cx="0" cy="0" r="1" gradientUnits="userSpaceOnUse" gradientTransform="translate(59.0197 17.6024) scale(59.0197 17.6024)">
<stop stop-color="#E1E1E1"/>
<stop offset="1" stop-color="#FFF4DA"/>
</radialGradient>
<radialGradient id="paint15_radial_692_1296" cx="0" cy="0" r="1" gradientUnits="userSpaceOnUse" gradientTransform="translate(59.0197 17.6024) scale(59.0197 17.6024)">
<stop stop-color="#E1E1E1"/>
<stop offset="1" stop-color="#FFF4DA"/>
</radialGradient>
<radialGradient id="paint16_radial_692_1296" cx="0" cy="0" r="1" gradientUnits="userSpaceOnUse" gradientTransform="translate(177.059 17.6024) rotate(180) scale(59.0197 17.6024)">
<stop stop-color="#E1E1E1"/>
<stop offset="1" stop-color="#FFF4DA"/>
</radialGradient>
<radialGradient id="paint17_radial_692_1296" cx="0" cy="0" r="1" gradientUnits="userSpaceOnUse" gradientTransform="translate(177.059 17.6024) rotate(180) scale(59.0197 17.6024)">
<stop stop-color="#E1E1E1"/>
<stop offset="1" stop-color="#FFF4DA"/>
</radialGradient>
<radialGradient id="paint18_radial_692_1296" cx="0" cy="0" r="1" gradientUnits="userSpaceOnUse" gradientTransform="translate(177.059 17.6024) rotate(180) scale(59.0197 17.6024)">
<stop stop-color="#E1E1E1"/>
<stop offset="1" stop-color="#FFF4DA"/>
</radialGradient>
<radialGradient id="paint19_radial_692_1296" cx="0" cy="0" r="1" gradientUnits="userSpaceOnUse" gradientTransform="translate(177.059 17.6024) rotate(180) scale(59.0197 17.6024)">
<stop stop-color="#E1E1E1"/>
<stop offset="1" stop-color="#FFF4DA"/>
</radialGradient>
<radialGradient id="paint20_radial_692_1296" cx="0" cy="0" r="1" gradientUnits="userSpaceOnUse" gradientTransform="translate(177.059 17.6024) rotate(180) scale(59.0197 17.6024)">
<stop stop-color="#E1E1E1"/>
<stop offset="1" stop-color="#FFF4DA"/>
</radialGradient>
<radialGradient id="paint21_radial_692_1296" cx="0" cy="0" r="1" gradientUnits="userSpaceOnUse" gradientTransform="translate(177.059 17.6024) rotate(180) scale(59.0197 17.6024)">
<stop stop-color="#E1E1E1"/>
<stop offset="1" stop-color="#FFF4DA"/>
</radialGradient>
<radialGradient id="paint22_radial_692_1296" cx="0" cy="0" r="1" gradientUnits="userSpaceOnUse" gradientTransform="translate(177.059 17.6024) rotate(180) scale(59.0197 17.6024)">
<stop stop-color="#E1E1E1"/>
<stop offset="1" stop-color="#FFF4DA"/>
</radialGradient>
<radialGradient id="paint23_radial_692_1296" cx="0" cy="0" r="1" gradientUnits="userSpaceOnUse" gradientTransform="translate(177.059 17.6024) rotate(180) scale(59.0197 17.6024)">
<stop stop-color="#E1E1E1"/>
<stop offset="1" stop-color="#FFF4DA"/>
</radialGradient>
</defs>
</svg>
