<svg width="237" height="132" viewBox="0 0 237 132" fill="none" xmlns="http://www.w3.org/2000/svg">
<path d="M50.7125 108.06C49.3889 108.487 47.9214 108.504 46.7169 107.809C44.5794 106.575 44.1412 105.154 44.5234 102.508V102.508C42.8798 103.056 42.063 104.953 43.0339 106.388C43.9977 107.812 45.0937 108.974 46.6267 110.246C47.9171 111.316 49.5696 111.855 51.2458 111.812C56.4406 111.679 59.0349 110.851 62.1257 108.72C61.1051 110.641 61.1618 111.76 61.9885 113.6C62.0605 113.76 62.2568 113.822 62.4077 113.731C64.0825 112.73 65.0039 111.892 66.2674 109.756C66.2154 114.032 66.9843 113.977 70.4091 114.933C67.5194 110.86 68.0525 109.221 70.1981 106.254C70.9958 105.151 72.1259 104.331 73.4053 103.866L78.5776 101.985C81.3342 100.982 84.3487 100.942 87.1313 101.869L104.173 107.55C104.307 107.435 104.442 107.326 104.578 107.223V104.508C104.578 103.403 105.474 102.508 106.578 102.508H108.791C109.896 102.508 110.791 103.403 110.791 104.508V105.614H111.826V103.472C111.826 102.368 110.931 101.472 109.826 101.472H105.543C104.438 101.472 103.543 102.368 103.543 103.472V106.65C98.7736 103.748 93.5321 101.584 86.7257 99.7769C82.8456 98.747 78.7534 99.0145 74.9328 100.247L50.7125 108.06Z" fill="url(#paint0_radial_692_2186)"/>
<path fill-rule="evenodd" clip-rule="evenodd" d="M118.039 111.827V108.721C115.458 105.74 114.163 105.799 111.826 105.614H110.791C108.063 105.589 106.222 105.979 104.578 107.223V107.685L104.173 107.55C103.27 108.327 102.409 109.382 101.472 110.791C94.4225 108.167 92.2419 105.859 84.6304 104.117C82.7927 103.696 80.8379 103.854 79.1733 104.739C77.1406 105.82 75.7478 107.075 74.4004 109.235C73.7976 110.201 73.7049 111.42 74.2146 112.438C75.0495 114.107 76.2498 115.417 79.1376 117.128C80.1186 117.709 81.3505 117.62 82.2784 116.957L86.28 114.099C87.2184 113.429 87.4128 112.09 86.6211 111.251C84.8302 109.354 83.7227 109.09 81.7989 109.756C83.0242 110.067 83.7473 110.456 84.396 111.688C84.7596 112.378 84.5518 113.216 84 113.767L82.2754 115.492C81.3706 116.397 79.9663 116.664 78.9055 115.948C77.3915 114.927 76.4781 113.802 75.4876 112.283C74.8937 111.372 74.8539 110.185 75.48 109.296C77.188 106.871 79.0763 106.022 82.8343 105.614C87.5138 105.758 93.9734 109.592 101.472 112.862C101.61 115.305 101.827 117.608 105.43 119.531C106.15 119.915 107.027 119.733 107.604 119.156L110.252 116.508C110.55 116.21 110.55 115.727 110.252 115.429V115.429C109.971 115.149 109.521 115.134 109.21 115.381C104.882 118.812 103.349 117.017 102.508 112.862C108.784 113.743 111.6 112.063 112.862 106.65H114.933L118.039 111.827ZM102.508 111.827C105.324 107.593 107.416 106.549 111.826 106.65C109.581 111.782 107.623 113.001 102.508 111.827Z" fill="url(#paint1_radial_692_2186)"/>
<path d="M118.039 114.933V111.827C116.112 115.763 116.189 118.074 110.791 119.075C111.96 121.038 112.806 121.636 114.933 121.146C115.324 125.201 115.717 127.472 118.039 131.5V125.287C116.703 121.107 116.952 118.865 118.039 114.933Z" fill="url(#paint2_radial_692_2186)"/>
<path d="M115.968 98.3662C116.06 94.792 116.696 93.3936 118.039 91.1182V105.614C115.722 100.811 114.342 99.4138 111.826 99.4015C113.364 97.8121 114.276 97.3638 115.968 98.3662Z" fill="url(#paint3_radial_692_2186)"/>
<path d="M185.366 108.06C186.689 108.487 188.157 108.504 189.361 107.809C191.499 106.575 191.937 105.154 191.555 102.508V102.508C193.198 103.056 194.015 104.953 193.044 106.388C192.08 107.812 190.984 108.974 189.451 110.246C188.161 111.316 186.509 111.855 184.832 111.812C179.637 111.679 177.043 110.851 173.952 108.72C174.973 110.641 174.916 111.76 174.09 113.6C174.018 113.76 173.821 113.822 173.67 113.731C171.996 112.73 171.074 111.892 169.811 109.756C169.863 114.032 169.094 113.977 165.669 114.933C168.559 110.86 168.026 109.221 165.88 106.254C165.082 105.151 163.952 104.331 162.673 103.866L157.5 101.985C154.744 100.982 151.729 100.942 148.947 101.869L131.905 107.55C131.771 107.435 131.636 107.326 131.5 107.223V104.508C131.5 103.403 130.604 102.508 129.5 102.508H127.287C126.183 102.508 125.287 103.403 125.287 104.508V105.614H124.252V103.472C124.252 102.368 125.147 101.472 126.252 101.472H130.535C131.64 101.472 132.535 102.368 132.535 103.472V106.65C137.304 103.748 142.546 101.584 149.352 99.7769C153.232 98.747 157.325 99.0145 161.145 100.247L185.366 108.06Z" fill="url(#paint4_radial_692_2186)"/>
<path fill-rule="evenodd" clip-rule="evenodd" d="M118.039 111.827V108.721C120.62 105.74 121.915 105.799 124.252 105.614H125.287C128.015 105.589 129.856 105.979 131.5 107.223V107.685L131.905 107.55C132.808 108.327 133.669 109.382 134.606 110.791C141.656 108.167 143.836 105.859 151.448 104.117C153.285 103.696 155.24 103.854 156.905 104.739C158.938 105.82 160.33 107.075 161.678 109.235C162.281 110.201 162.373 111.42 161.863 112.438C161.029 114.107 159.828 115.417 156.941 117.128C155.96 117.709 154.728 117.62 153.8 116.957L149.798 114.099C148.86 113.429 148.665 112.09 149.457 111.251C151.248 109.354 152.355 109.09 154.279 109.756C153.054 110.067 152.331 110.456 151.682 111.688C151.319 112.378 151.526 113.216 152.078 113.767L153.803 115.492C154.708 116.397 156.112 116.664 157.173 115.948C158.687 114.927 159.6 113.802 160.591 112.283C161.184 111.372 161.224 110.185 160.598 109.296C158.89 106.871 157.002 106.022 153.244 105.614C148.564 105.758 142.105 109.592 134.606 112.862C134.468 115.305 134.251 117.608 130.648 119.531C129.928 119.915 129.051 119.733 128.474 119.156L125.826 116.508C125.528 116.21 125.528 115.727 125.826 115.429V115.429C126.107 115.149 126.557 115.134 126.868 115.381C131.196 118.812 132.729 117.017 133.571 112.862C127.294 113.743 124.478 112.063 123.216 106.65H121.145L118.039 111.827ZM133.571 111.827C130.754 107.593 128.662 106.549 124.252 106.65C126.497 111.782 128.455 113.001 133.571 111.827Z" fill="url(#paint5_radial_692_2186)"/>
<path d="M118.039 114.933V111.827C119.967 115.763 119.889 118.074 125.287 119.075C124.119 121.038 123.273 121.636 121.145 121.146C120.754 125.201 120.361 127.472 118.039 131.5V125.287C119.375 121.107 119.126 118.865 118.039 114.933Z" fill="url(#paint6_radial_692_2186)"/>
<path d="M120.11 98.3662C120.019 94.792 119.382 93.3936 118.039 91.1182V105.614C120.356 100.811 121.736 99.4138 124.252 99.4015C122.714 97.8121 121.802 97.3638 120.11 98.3662Z" fill="url(#paint7_radial_692_2186)"/>
<path d="M84.5508 67.9531L92.1992 52.5273L94.9062 46.7266C95.6797 46.8125 96.8112 46.8555 98.3008 46.8555C98.8021 46.8555 99.3607 46.8411 99.9766 46.8125C100.607 46.7839 101.294 46.7409 102.039 46.6836C102.096 46.8268 102.096 47.0703 102.039 47.4141C101.982 47.7578 101.91 47.9297 101.824 47.9297C101.452 47.9297 101.058 48.0299 100.643 48.2305C100.227 48.431 99.9193 48.6745 99.7188 48.9609C99.4609 49.3047 99.2676 49.7201 99.1387 50.207C99.0241 50.651 98.888 51.5104 98.7305 52.7852L97.0547 69.1992C96.8828 70.6745 96.7969 71.806 96.7969 72.5938C96.7969 73.1953 97.0189 73.5749 97.4629 73.7324C97.7207 73.8184 98.0286 73.8828 98.3867 73.9258C98.7591 73.9544 99.0599 73.9688 99.2891 73.9688C99.3464 73.9688 99.375 74.0977 99.375 74.3555C99.375 74.6992 99.2891 74.957 99.1172 75.1289C97.7852 75.0573 96.7253 75.0072 95.9375 74.9785C95.1641 74.9355 94.6628 74.9141 94.4336 74.9141C94.3906 74.9141 93.9896 74.9355 93.2305 74.9785C92.4857 75.0072 91.3828 75.0573 89.9219 75.1289C89.8646 75.0286 89.8359 74.957 89.8359 74.9141C89.8359 74.7422 89.8717 74.5417 89.9434 74.3125C90.015 74.0833 90.0794 73.9688 90.1367 73.9688C90.3945 73.9688 90.7168 73.9401 91.1035 73.8828C91.5046 73.8112 91.877 73.7181 92.2207 73.6035C92.5645 73.4746 92.7721 73.3385 92.8438 73.1953C93.1302 72.5365 93.3307 71.9277 93.4453 71.3691C93.474 71.2116 93.5169 70.8678 93.5742 70.3379C93.6315 69.8079 93.6745 69.4714 93.7031 69.3281L95.4219 52.5703C95.5078 51.7109 95.5508 51.1523 95.5508 50.8945C95.5508 50.7227 95.4648 50.6367 95.293 50.6367C95.2786 50.6367 95.2357 50.694 95.1641 50.8086L83.9492 73.668C83.806 73.9258 83.5339 74.2266 83.1328 74.5703C82.7318 74.9141 82.3594 75.0859 82.0156 75.0859C81.8867 75.0859 81.7721 75.0573 81.6719 75L78.0195 50.6367C78.0052 50.5794 77.9766 50.5508 77.9336 50.5508C77.8477 50.5508 77.8047 50.5794 77.8047 50.6367L72.7773 69.1562C72.2331 71.1328 71.9609 72.3216 71.9609 72.7227C71.9609 72.9232 72.1686 73.1237 72.584 73.3242C73.0137 73.5104 73.4648 73.668 73.9375 73.7969C74.4245 73.9115 74.7396 73.9688 74.8828 73.9688C74.9401 73.9688 74.9688 74.0547 74.9688 74.2266C74.9688 74.556 74.8971 74.8568 74.7539 75.1289C73.4219 75.0573 72.3835 75.0072 71.6387 74.9785C70.8939 74.9355 70.4427 74.9141 70.2852 74.9141C70.2422 74.9141 69.8268 74.9355 69.0391 74.9785C68.2513 75.0072 67.0911 75.0573 65.5586 75.1289C65.5013 75.0716 65.4727 74.9284 65.4727 74.6992C65.4727 74.2122 65.5729 73.9688 65.7734 73.9688C66.0026 73.9688 66.3678 73.9186 66.8691 73.8184C67.3704 73.7038 67.8431 73.5677 68.2871 73.4102C68.7454 73.2383 69.0104 73.0807 69.082 72.9375C69.5833 71.9922 70.056 70.7174 70.5 69.1133L75.1836 52.3125C75.2982 51.7539 75.4199 51.2025 75.5488 50.6582C75.6777 50.0996 75.7422 49.5625 75.7422 49.0469C75.7422 48.832 75.5417 48.6387 75.1406 48.4668C74.7396 48.2949 74.3027 48.1589 73.8301 48.0586C73.3717 47.944 73.0352 47.8867 72.8203 47.8867C72.763 47.8867 72.7344 47.7865 72.7344 47.5859C72.7344 47.1133 72.8203 46.8268 72.9922 46.7266C74.0521 46.7552 74.9186 46.7767 75.5918 46.791C76.265 46.8053 76.7448 46.8125 77.0312 46.8125C77.8477 46.8125 78.5924 46.8053 79.2656 46.791C79.9531 46.7767 80.569 46.7552 81.1133 46.7266C81.2422 47.901 81.5788 50.2643 82.123 53.8164C82.6673 57.3542 83.4193 62.0807 84.3789 67.9961C84.3789 68.0247 84.3932 68.0391 84.4219 68.0391C84.5078 68.0391 84.5508 68.0104 84.5508 67.9531ZM115.059 56.3086C116.118 56.3086 117.164 56.4948 118.195 56.8672L115.574 70.4453C115.488 70.7891 115.445 71.1471 115.445 71.5195C115.445 72.2357 115.589 72.5938 115.875 72.5938C116.233 72.5938 116.663 72.3431 117.164 71.8418C117.665 71.3262 118.095 70.8893 118.453 70.5312L118.711 70.2305C118.768 70.2305 118.876 70.3665 119.033 70.6387C119.191 70.9108 119.27 71.1042 119.27 71.2188C119.026 71.6341 118.582 72.1641 117.938 72.8086C117.307 73.4531 116.62 74.026 115.875 74.5273C115.13 75.0143 114.457 75.2578 113.855 75.2578C113.397 75.2578 113.039 75.0501 112.781 74.6348C112.523 74.2194 112.395 73.6823 112.395 73.0234C112.395 72.5794 112.495 71.8203 112.695 70.7461L112.846 69.9941C112.889 69.7936 112.91 69.6719 112.91 69.6289C112.681 70.0586 112.352 70.5885 111.922 71.2188C111.492 71.8346 110.998 72.4505 110.439 73.0664C109.881 73.6823 109.294 74.1979 108.678 74.6133C108.062 75.0143 107.453 75.2148 106.852 75.2148C105.591 75.2148 104.596 74.6491 103.865 73.5176C103.135 72.3861 102.77 71.0182 102.77 69.4141C102.77 67.3659 103.378 65.3249 104.596 63.291C105.412 61.916 106.386 60.7057 107.518 59.6602C108.663 58.6146 109.888 57.7982 111.191 57.2109C112.495 56.6094 113.784 56.3086 115.059 56.3086ZM113.254 58.2852C112.409 58.2852 111.557 58.5859 110.697 59.1875C109.838 59.7747 109.05 60.5697 108.334 61.5723C107.618 62.5605 107.038 63.6634 106.594 64.8809C106.164 66.084 105.949 67.2943 105.949 68.5117C105.949 71.319 106.68 72.7227 108.141 72.7227C108.656 72.7227 109.215 72.4362 109.816 71.8633C110.418 71.2904 111.012 70.5312 111.6 69.5859C112.187 68.6406 112.702 67.6165 113.146 66.5137C113.605 65.3965 113.941 64.3008 114.156 63.2266L115.016 58.8438C114.672 58.4714 114.085 58.2852 113.254 58.2852ZM130.098 56.1797C131.73 56.1797 133.02 56.724 133.965 57.8125C134.108 58.1419 134.18 58.4427 134.18 58.7148C134.18 59.2305 134.044 59.6745 133.771 60.0469C133.499 60.4193 133.148 60.6055 132.719 60.6055C132.332 60.6055 131.974 60.3978 131.645 59.9824C131.329 59.5671 130.936 59.1445 130.463 58.7148C129.99 58.2852 129.367 58.0703 128.594 58.0703C127.992 58.0703 127.52 58.2708 127.176 58.6719C126.832 59.0729 126.66 59.5312 126.66 60.0469C126.66 60.7917 126.939 61.5866 127.498 62.4316C128.057 63.2767 128.665 64.0286 129.324 64.6875C129.983 65.3464 130.592 66.1484 131.15 67.0938C131.709 68.0391 131.988 68.9987 131.988 69.9727C131.988 71.5482 131.415 72.8229 130.27 73.7969C129.124 74.7708 127.648 75.2578 125.844 75.2578C124.211 75.2578 122.922 74.7135 121.977 73.625C121.833 73.3958 121.762 73.1237 121.762 72.8086C121.762 72.293 121.898 71.8346 122.17 71.4336C122.442 71.0326 122.793 70.832 123.223 70.832C123.609 70.832 123.967 71.0397 124.297 71.4551C124.612 71.8704 125.006 72.293 125.479 72.7227C125.951 73.1523 126.574 73.3672 127.348 73.3672C127.978 73.3672 128.486 73.1595 128.873 72.7441C129.26 72.3288 129.453 71.8776 129.453 71.3906C129.453 70.6458 129.174 69.8509 128.615 69.0059C128.057 68.1608 127.448 67.4089 126.789 66.75C126.13 66.0911 125.521 65.2891 124.963 64.3438C124.404 63.3984 124.125 62.4388 124.125 61.4648C124.125 60.6628 124.39 59.8535 124.92 59.0371C125.45 58.2207 126.166 57.5404 127.068 56.9961C127.971 56.4518 128.98 56.1797 130.098 56.1797ZM147.715 56.3086C148.775 56.3086 149.82 56.4948 150.852 56.8672L148.23 70.4453C148.145 70.7891 148.102 71.1471 148.102 71.5195C148.102 72.2357 148.245 72.5938 148.531 72.5938C148.889 72.5938 149.319 72.3431 149.82 71.8418C150.322 71.3262 150.751 70.8893 151.109 70.5312L151.367 70.2305C151.424 70.2305 151.532 70.3665 151.689 70.6387C151.847 70.9108 151.926 71.1042 151.926 71.2188C151.682 71.6341 151.238 72.1641 150.594 72.8086C149.964 73.4531 149.276 74.026 148.531 74.5273C147.786 75.0143 147.113 75.2578 146.512 75.2578C146.053 75.2578 145.695 75.0501 145.438 74.6348C145.18 74.2194 145.051 73.6823 145.051 73.0234C145.051 72.5794 145.151 71.8203 145.352 70.7461L145.502 69.9941C145.545 69.7936 145.566 69.6719 145.566 69.6289C145.337 70.0586 145.008 70.5885 144.578 71.2188C144.148 71.8346 143.654 72.4505 143.096 73.0664C142.537 73.6823 141.95 74.1979 141.334 74.6133C140.718 75.0143 140.109 75.2148 139.508 75.2148C138.247 75.2148 137.252 74.6491 136.521 73.5176C135.791 72.3861 135.426 71.0182 135.426 69.4141C135.426 67.3659 136.035 65.3249 137.252 63.291C138.068 61.916 139.042 60.7057 140.174 59.6602C141.32 58.6146 142.544 57.7982 143.848 57.2109C145.151 56.6094 146.44 56.3086 147.715 56.3086ZM145.91 58.2852C145.065 58.2852 144.213 58.5859 143.354 59.1875C142.494 59.7747 141.706 60.5697 140.99 61.5723C140.274 62.5605 139.694 63.6634 139.25 64.8809C138.82 66.084 138.605 67.2943 138.605 68.5117C138.605 71.319 139.336 72.7227 140.797 72.7227C141.312 72.7227 141.871 72.4362 142.473 71.8633C143.074 71.2904 143.669 70.5312 144.256 69.5859C144.843 68.6406 145.359 67.6165 145.803 66.5137C146.261 65.3965 146.598 64.3008 146.812 63.2266L147.672 58.8438C147.328 58.4714 146.741 58.2852 145.91 58.2852ZM172.164 46.3828L171.52 49.6055L167.48 70.4453C167.395 70.7891 167.352 71.1471 167.352 71.5195C167.352 72.2357 167.495 72.5938 167.781 72.5938C168.139 72.5938 168.569 72.3431 169.07 71.8418C169.572 71.3262 170.001 70.8893 170.359 70.5312L170.617 70.2305C170.674 70.2305 170.782 70.3665 170.939 70.6387C171.097 70.9108 171.176 71.1042 171.176 71.2188C170.932 71.6341 170.488 72.1641 169.844 72.8086C169.214 73.4531 168.526 74.026 167.781 74.5273C167.036 75.0143 166.363 75.2578 165.762 75.2578C165.303 75.2578 164.945 75.0501 164.688 74.6348C164.43 74.2194 164.301 73.6823 164.301 73.0234C164.301 72.5938 164.401 71.8346 164.602 70.7461C164.63 70.6029 164.68 70.388 164.752 70.1016C164.824 69.8151 164.859 69.6432 164.859 69.5859C164.673 69.9154 164.465 70.252 164.236 70.5957C164.021 70.9395 163.792 71.2904 163.549 71.6484C163.219 72.1354 162.775 72.6582 162.217 73.2168C161.673 73.7611 161.092 74.2337 160.477 74.6348C159.875 75.0215 159.316 75.2148 158.801 75.2148C157.483 75.2148 156.466 74.6491 155.75 73.5176C155.034 72.3861 154.676 71.0182 154.676 69.4141C154.676 67.8672 155.034 66.3203 155.75 64.7734C156.48 63.2266 157.44 61.8158 158.629 60.541C159.818 59.2663 161.128 58.2422 162.561 57.4688C164.007 56.6953 165.447 56.3086 166.879 56.3086H167.438L168.641 49.9062C168.727 49.4909 168.77 49.0898 168.77 48.7031C168.77 48.1589 167.896 47.8867 166.148 47.8867C166.062 47.8867 166.02 47.8008 166.02 47.6289C166.02 47.2852 166.134 46.9987 166.363 46.7695C168.311 46.5977 170.159 46.1966 171.906 45.5664C172.078 45.6667 172.164 45.9388 172.164 46.3828ZM166.062 63.1406L166.578 60.3477C166.693 59.8034 166.635 59.3236 166.406 58.9082C166.177 58.4928 165.79 58.2852 165.246 58.2852C164.372 58.2852 163.499 58.5859 162.625 59.1875C161.751 59.7891 160.956 60.5911 160.24 61.5938C159.524 62.582 158.944 63.6849 158.5 64.9023C158.07 66.1055 157.855 67.3229 157.855 68.5547C157.855 71.3333 158.586 72.7227 160.047 72.7227C160.577 72.7227 161.143 72.4362 161.744 71.8633C162.36 71.276 162.954 70.5098 163.527 69.5645C164.1 68.6191 164.609 67.5879 165.053 66.4707C165.511 65.3392 165.848 64.2292 166.062 63.1406Z" fill="white"/>
<path d="M0 14.4961C6.30012 20.0984 15.0791 19.1979 30.687 15.1421C32.2497 14.736 33.9168 14.9601 35.3059 15.7832L61.0905 31.063L35.3304 19.6141C33.9205 18.9874 32.3183 18.9353 30.8588 19.4358C12.5496 25.7159 4.73674 24.7283 0 14.4961Z" fill="url(#paint8_radial_692_2186)"/>
<path d="M16.5669 25.8858C22.7094 27.5488 34.4861 19.1752 43.5027 24.2129C35.7991 20.3448 24.9274 34.7378 16.5669 25.8858Z" fill="url(#paint9_radial_692_2186)"/>
<path d="M42.4528 34.1693C40.4746 32.9379 39.8039 31.791 39.5364 30.2054C39.314 28.8871 40.2138 27.6374 41.514 27.3262C46.4064 26.1551 49.6595 27.3172 54.8779 31.063C50.3759 26.3362 46.8249 25.2844 39.6469 25.78C38.7972 25.8387 38.0191 26.2751 37.5081 26.9564L36.1669 28.7446C35.6047 29.4943 35.6307 30.5432 36.2784 31.2205C38.4425 33.4837 39.9798 34.1156 42.4528 34.1693Z" fill="url(#paint10_radial_692_2186)"/>
<path d="M61.0905 28.9921C48.8725 19.5072 53.131 18.6378 60.0551 10.3543C56.6285 8.93238 54.8937 8.83857 52.8071 12.4252C51.2879 8.29387 49.7783 6.42726 45.559 4.14173C43.8524 8.52031 44.6321 10.6991 46.5945 14.4961C42.9378 12.0347 40.7471 11.3823 36.2402 13.4606C46.3046 17.727 45.2926 18.8748 61.0905 28.9921Z" fill="url(#paint11_radial_692_2186)"/>
<path d="M78.6929 22.7441C78.6929 22.1918 79.1406 21.7441 79.6929 21.7441H79.7638C80.3161 21.7441 80.7638 22.1918 80.7638 22.7441V25.9213C80.7638 26.4735 80.3161 26.9213 79.7638 26.9213H74.4803C73.3757 26.9213 72.4803 26.0258 72.4803 24.9213V19.6024C72.4803 18.4978 73.3757 17.6024 74.4803 17.6024H78.7281C80.6137 17.6024 82.4755 18.023 84.178 18.8337V18.8337C85.2965 19.3663 86.1249 20.3629 86.4441 21.5599L88.3399 28.6695C89.2063 31.9182 86.6836 35.0788 83.3237 34.9544L68.0679 34.3894C64.7776 34.2675 62.2002 31.5169 62.2923 28.2256L62.6948 13.8426C62.7856 10.5955 65.4441 8.01038 68.6924 8.01038H83.0387C86.0229 8.01038 88.8896 9.21712 90.915 11.4088C101.807 23.194 109.097 33.3225 115.395 32.2299C115.685 32.1796 115.968 32.3916 115.968 32.686V32.686C115.968 32.9325 115.766 33.1318 115.519 33.1285C109.37 33.045 105.37 32.4313 87.653 13.254C86.5367 12.0456 85.0793 11.1983 83.4735 10.8414L77.8584 9.59364C77.0431 9.41248 76.199 9.4035 75.3801 9.56728L71.091 10.4251C68.2865 10.986 66.2677 13.4485 66.2677 16.3086V27.0984C66.2677 29.8599 68.5063 32.0984 71.2677 32.0984H80.9055C83.1146 32.0984 84.9055 30.3076 84.9055 28.0984V22.6378C84.9055 20.4287 83.1146 18.6378 80.9055 18.6378H76.5512C75.4466 18.6378 74.5512 19.5332 74.5512 20.6378V24.8858C74.5512 25.4381 74.9989 25.8858 75.5512 25.8858H77.6929C78.2452 25.8858 78.6929 25.4381 78.6929 24.8858V22.7441Z" fill="url(#paint12_radial_692_2186)"/>
<path d="M104.412 33.0631C96.4743 29.9513 88.3242 12.4066 78.6929 13.4606C91.6665 19.2326 92.9183 31.4785 104.412 33.0631Z" fill="url(#paint13_radial_692_2186)"/>
<path d="M111.827 30.0276C106.485 21.6827 106.361 16.9143 110.791 8.28346C105.363 9.71409 97.6256 19.5114 111.827 30.0276Z" fill="url(#paint14_radial_692_2186)"/>
<path d="M118.039 10.3543C113.102 14.0549 110.405 23.2793 118.039 32.0984C106.33 25.6888 109.793 12.7713 118.039 0V10.3543Z" fill="url(#paint15_radial_692_2186)"/>
<path d="M236.079 14.4961C229.779 20.0984 221 19.1979 205.392 15.1421C203.829 14.736 202.162 14.9601 200.773 15.7832L174.989 31.063L200.749 19.6141C202.159 18.9874 203.761 18.9353 205.22 19.4358C223.529 25.7159 231.342 24.7283 236.079 14.4961Z" fill="url(#paint16_radial_692_2186)"/>
<path d="M219.512 25.8858C213.37 27.5488 201.593 19.1752 192.576 24.2129C200.28 20.3448 211.152 34.7378 219.512 25.8858Z" fill="url(#paint17_radial_692_2186)"/>
<path d="M193.626 34.1693C195.605 32.9379 196.275 31.791 196.543 30.2054C196.765 28.8871 195.865 27.6374 194.565 27.3262C189.673 26.1551 186.42 27.3172 181.201 31.063C185.703 26.3362 189.254 25.2844 196.432 25.78C197.282 25.8387 198.06 26.2751 198.571 26.9564L199.912 28.7446C200.474 29.4943 200.448 30.5432 199.801 31.2205C197.637 33.4837 196.099 34.1156 193.626 34.1693Z" fill="url(#paint18_radial_692_2186)"/>
<path d="M174.989 28.9921C187.207 19.5072 182.948 18.6378 176.024 10.3543C179.451 8.93238 181.185 8.83857 183.272 12.4252C184.791 8.29387 186.301 6.42726 190.52 4.14173C192.227 8.52031 191.447 10.6991 189.485 14.4961C193.141 12.0347 195.332 11.3823 199.839 13.4606C189.775 17.727 190.787 18.8748 174.989 28.9921Z" fill="url(#paint19_radial_692_2186)"/>
<path d="M157.386 22.7441C157.386 22.1918 156.938 21.7441 156.386 21.7441H156.315C155.763 21.7441 155.315 22.1918 155.315 22.7441V25.9213C155.315 26.4735 155.763 26.9213 156.315 26.9213H161.599C162.703 26.9213 163.599 26.0258 163.599 24.9213V19.6024C163.599 18.4978 162.703 17.6024 161.599 17.6024H157.351C155.465 17.6024 153.604 18.023 151.901 18.8337V18.8337C150.783 19.3663 149.954 20.3629 149.635 21.5599L147.739 28.6695C146.873 31.9182 149.396 35.0788 152.755 34.9544L168.011 34.3894C171.301 34.2675 173.879 31.5169 173.787 28.2256L173.384 13.8426C173.293 10.5955 170.635 8.01038 167.387 8.01038H153.04C150.056 8.01038 147.19 9.21712 145.164 11.4088C134.273 23.194 126.982 33.3225 120.684 32.2299C120.394 32.1796 120.111 32.3916 120.111 32.686V32.686C120.111 32.9325 120.313 33.1318 120.56 33.1285C126.709 33.045 130.709 32.4313 148.426 13.254C149.542 12.0456 151 11.1983 152.606 10.8414L158.221 9.59364C159.036 9.41248 159.88 9.4035 160.699 9.56728L164.988 10.4251C167.793 10.986 169.811 13.4485 169.811 16.3086V27.0984C169.811 29.8599 167.573 32.0984 164.811 32.0984H155.174C152.964 32.0984 151.174 30.3076 151.174 28.0984V22.6378C151.174 20.4287 152.964 18.6378 155.174 18.6378H159.528C160.633 18.6378 161.528 19.5332 161.528 20.6378V24.8858C161.528 25.4381 161.08 25.8858 160.528 25.8858H158.386C157.834 25.8858 157.386 25.4381 157.386 24.8858V22.7441Z" fill="url(#paint20_radial_692_2186)"/>
<path d="M131.667 33.0631C139.605 29.9513 147.755 12.4066 157.386 13.4606C144.413 19.2326 143.161 31.4785 131.667 33.0631Z" fill="url(#paint21_radial_692_2186)"/>
<path d="M124.252 30.0276C129.594 21.6827 129.718 16.9143 125.288 8.28346C130.716 9.71409 138.454 19.5114 124.252 30.0276Z" fill="url(#paint22_radial_692_2186)"/>
<path d="M118.04 10.3543C122.977 14.0549 125.674 23.2793 118.04 32.0984C129.75 25.6888 126.286 12.7713 118.04 0V10.3543Z" fill="url(#paint23_radial_692_2186)"/>
<defs>
<radialGradient id="paint0_radial_692_2186" cx="0" cy="0" r="1" gradientUnits="userSpaceOnUse" gradientTransform="translate(79.728 111.309) scale(38.311 20.1909)">
<stop stop-color="#E1E1E1"/>
<stop offset="1" stop-color="#FFF4DA"/>
</radialGradient>
<radialGradient id="paint1_radial_692_2186" cx="0" cy="0" r="1" gradientUnits="userSpaceOnUse" gradientTransform="translate(79.728 111.309) scale(38.311 20.1909)">
<stop stop-color="#E1E1E1"/>
<stop offset="1" stop-color="#FFF4DA"/>
</radialGradient>
<radialGradient id="paint2_radial_692_2186" cx="0" cy="0" r="1" gradientUnits="userSpaceOnUse" gradientTransform="translate(79.728 111.309) scale(38.311 20.1909)">
<stop stop-color="#E1E1E1"/>
<stop offset="1" stop-color="#FFF4DA"/>
</radialGradient>
<radialGradient id="paint3_radial_692_2186" cx="0" cy="0" r="1" gradientUnits="userSpaceOnUse" gradientTransform="translate(79.728 111.309) scale(38.311 20.1909)">
<stop stop-color="#E1E1E1"/>
<stop offset="1" stop-color="#FFF4DA"/>
</radialGradient>
<radialGradient id="paint4_radial_692_2186" cx="0" cy="0" r="1" gradientUnits="userSpaceOnUse" gradientTransform="translate(156.35 111.309) rotate(180) scale(38.311 20.1909)">
<stop stop-color="#E1E1E1"/>
<stop offset="1" stop-color="#FFF4DA"/>
</radialGradient>
<radialGradient id="paint5_radial_692_2186" cx="0" cy="0" r="1" gradientUnits="userSpaceOnUse" gradientTransform="translate(156.35 111.309) rotate(180) scale(38.311 20.1909)">
<stop stop-color="#E1E1E1"/>
<stop offset="1" stop-color="#FFF4DA"/>
</radialGradient>
<radialGradient id="paint6_radial_692_2186" cx="0" cy="0" r="1" gradientUnits="userSpaceOnUse" gradientTransform="translate(156.35 111.309) rotate(180) scale(38.311 20.1909)">
<stop stop-color="#E1E1E1"/>
<stop offset="1" stop-color="#FFF4DA"/>
</radialGradient>
<radialGradient id="paint7_radial_692_2186" cx="0" cy="0" r="1" gradientUnits="userSpaceOnUse" gradientTransform="translate(156.35 111.309) rotate(180) scale(38.311 20.1909)">
<stop stop-color="#E1E1E1"/>
<stop offset="1" stop-color="#FFF4DA"/>
</radialGradient>
<radialGradient id="paint8_radial_692_2186" cx="0" cy="0" r="1" gradientUnits="userSpaceOnUse" gradientTransform="translate(59.0197 17.6024) scale(59.0197 17.6024)">
<stop stop-color="#E1E1E1"/>
<stop offset="1" stop-color="#FFF4DA"/>
</radialGradient>
<radialGradient id="paint9_radial_692_2186" cx="0" cy="0" r="1" gradientUnits="userSpaceOnUse" gradientTransform="translate(59.0197 17.6024) scale(59.0197 17.6024)">
<stop stop-color="#E1E1E1"/>
<stop offset="1" stop-color="#FFF4DA"/>
</radialGradient>
<radialGradient id="paint10_radial_692_2186" cx="0" cy="0" r="1" gradientUnits="userSpaceOnUse" gradientTransform="translate(59.0197 17.6024) scale(59.0197 17.6024)">
<stop stop-color="#E1E1E1"/>
<stop offset="1" stop-color="#FFF4DA"/>
</radialGradient>
<radialGradient id="paint11_radial_692_2186" cx="0" cy="0" r="1" gradientUnits="userSpaceOnUse" gradientTransform="translate(59.0197 17.6024) scale(59.0197 17.6024)">
<stop stop-color="#E1E1E1"/>
<stop offset="1" stop-color="#FFF4DA"/>
</radialGradient>
<radialGradient id="paint12_radial_692_2186" cx="0" cy="0" r="1" gradientUnits="userSpaceOnUse" gradientTransform="translate(59.0197 17.6024) scale(59.0197 17.6024)">
<stop stop-color="#E1E1E1"/>
<stop offset="1" stop-color="#FFF4DA"/>
</radialGradient>
<radialGradient id="paint13_radial_692_2186" cx="0" cy="0" r="1" gradientUnits="userSpaceOnUse" gradientTransform="translate(59.0197 17.6024) scale(59.0197 17.6024)">
<stop stop-color="#E1E1E1"/>
<stop offset="1" stop-color="#FFF4DA"/>
</radialGradient>
<radialGradient id="paint14_radial_692_2186" cx="0" cy="0" r="1" gradientUnits="userSpaceOnUse" gradientTransform="translate(59.0197 17.6024) scale(59.0197 17.6024)">
<stop stop-color="#E1E1E1"/>
<stop offset="1" stop-color="#FFF4DA"/>
</radialGradient>
<radialGradient id="paint15_radial_692_2186" cx="0" cy="0" r="1" gradientUnits="userSpaceOnUse" gradientTransform="translate(59.0197 17.6024) scale(59.0197 17.6024)">
<stop stop-color="#E1E1E1"/>
<stop offset="1" stop-color="#FFF4DA"/>
</radialGradient>
<radialGradient id="paint16_radial_692_2186" cx="0" cy="0" r="1" gradientUnits="userSpaceOnUse" gradientTransform="translate(177.059 17.6024) rotate(180) scale(59.0197 17.6024)">
<stop stop-color="#E1E1E1"/>
<stop offset="1" stop-color="#FFF4DA"/>
</radialGradient>
<radialGradient id="paint17_radial_692_2186" cx="0" cy="0" r="1" gradientUnits="userSpaceOnUse" gradientTransform="translate(177.059 17.6024) rotate(180) scale(59.0197 17.6024)">
<stop stop-color="#E1E1E1"/>
<stop offset="1" stop-color="#FFF4DA"/>
</radialGradient>
<radialGradient id="paint18_radial_692_2186" cx="0" cy="0" r="1" gradientUnits="userSpaceOnUse" gradientTransform="translate(177.059 17.6024) rotate(180) scale(59.0197 17.6024)">
<stop stop-color="#E1E1E1"/>
<stop offset="1" stop-color="#FFF4DA"/>
</radialGradient>
<radialGradient id="paint19_radial_692_2186" cx="0" cy="0" r="1" gradientUnits="userSpaceOnUse" gradientTransform="translate(177.059 17.6024) rotate(180) scale(59.0197 17.6024)">
<stop stop-color="#E1E1E1"/>
<stop offset="1" stop-color="#FFF4DA"/>
</radialGradient>
<radialGradient id="paint20_radial_692_2186" cx="0" cy="0" r="1" gradientUnits="userSpaceOnUse" gradientTransform="translate(177.059 17.6024) rotate(180) scale(59.0197 17.6024)">
<stop stop-color="#E1E1E1"/>
<stop offset="1" stop-color="#FFF4DA"/>
</radialGradient>
<radialGradient id="paint21_radial_692_2186" cx="0" cy="0" r="1" gradientUnits="userSpaceOnUse" gradientTransform="translate(177.059 17.6024) rotate(180) scale(59.0197 17.6024)">
<stop stop-color="#E1E1E1"/>
<stop offset="1" stop-color="#FFF4DA"/>
</radialGradient>
<radialGradient id="paint22_radial_692_2186" cx="0" cy="0" r="1" gradientUnits="userSpaceOnUse" gradientTransform="translate(177.059 17.6024) rotate(180) scale(59.0197 17.6024)">
<stop stop-color="#E1E1E1"/>
<stop offset="1" stop-color="#FFF4DA"/>
</radialGradient>
<radialGradient id="paint23_radial_692_2186" cx="0" cy="0" r="1" gradientUnits="userSpaceOnUse" gradientTransform="translate(177.059 17.6024) rotate(180) scale(59.0197 17.6024)">
<stop stop-color="#E1E1E1"/>
<stop offset="1" stop-color="#FFF4DA"/>
</radialGradient>
</defs>
</svg>
