<svg width="237" height="132" viewBox="0 0 237 132" fill="none" xmlns="http://www.w3.org/2000/svg">
<path d="M50.713 108.06C49.3894 108.487 47.9219 108.504 46.7174 107.809C44.5799 106.575 44.1417 105.154 44.5239 102.508V102.508C42.8803 103.056 42.0634 104.953 43.0344 106.388C43.9981 107.812 45.0942 108.974 46.6272 110.246C47.9176 111.316 49.57 111.855 51.2463 111.812C56.4411 111.679 59.0354 110.851 62.1261 108.72C61.1055 110.641 61.1623 111.76 61.9889 113.6C62.061 113.76 62.2573 113.822 62.4081 113.731C64.083 112.73 65.0044 111.892 66.2679 109.756C66.2159 114.032 66.9848 113.977 70.4096 114.933C67.5199 110.86 68.053 109.221 70.1985 106.254C70.9963 105.151 72.1264 104.331 73.4058 103.866L78.5781 101.985C81.3347 100.982 84.3491 100.942 87.1317 101.869L104.174 107.55C104.308 107.435 104.443 107.326 104.579 107.223V104.508C104.579 103.403 105.474 102.508 106.579 102.508H108.791C109.896 102.508 110.791 103.403 110.791 104.508V105.614H111.827V103.472C111.827 102.368 110.931 101.472 109.827 101.472H105.543C104.439 101.472 103.543 102.368 103.543 103.472V106.65C98.7741 103.748 93.5326 101.584 86.7262 99.7769C82.8461 98.747 78.7539 99.0145 74.9333 100.247L50.713 108.06Z" fill="url(#paint0_radial_692_1890)"/>
<path fill-rule="evenodd" clip-rule="evenodd" d="M118.04 111.827V108.721C115.458 105.74 114.164 105.799 111.827 105.614H110.791C108.063 105.589 106.223 105.979 104.579 107.223V107.685L104.174 107.55C103.27 108.327 102.41 109.382 101.473 110.791C94.423 108.167 92.2423 105.859 84.6309 104.117C82.7932 103.696 80.8384 103.854 79.1738 104.739C77.1411 105.82 75.7483 107.075 74.4009 109.235C73.7981 110.201 73.7054 111.42 74.2151 112.438C75.05 114.107 76.2503 115.417 79.1381 117.128C80.1191 117.709 81.351 117.62 82.2789 116.957L86.2804 114.099C87.2189 113.429 87.4133 112.09 86.6216 111.251C84.8307 109.354 83.7232 109.09 81.7994 109.756C83.0247 110.067 83.7478 110.456 84.3965 111.688C84.7601 112.378 84.5523 113.216 84.0005 113.767L82.2759 115.492C81.3711 116.397 79.9668 116.664 78.906 115.948C77.392 114.927 76.4786 113.802 75.488 112.283C74.8942 111.372 74.8544 110.185 75.4804 109.296C77.1885 106.871 79.0768 106.022 82.8348 105.614C87.5143 105.758 93.9739 109.592 101.473 112.862C101.611 115.305 101.827 117.608 105.431 119.531C106.15 119.915 107.027 119.733 107.604 119.156L110.252 116.508C110.55 116.21 110.55 115.727 110.252 115.429V115.429C109.972 115.149 109.522 115.134 109.211 115.381C104.883 118.812 103.35 117.017 102.508 112.862C108.785 113.743 111.601 112.063 112.862 106.65H114.933L118.04 111.827ZM102.508 111.827C105.324 107.593 107.417 106.549 111.827 106.65C109.582 111.782 107.624 113.001 102.508 111.827Z" fill="url(#paint1_radial_692_1890)"/>
<path d="M118.04 114.933V111.827C116.112 115.763 116.189 118.074 110.791 119.075C111.96 121.038 112.806 121.636 114.933 121.146C115.325 125.201 115.718 127.472 118.04 131.5V125.287C116.703 121.107 116.953 118.865 118.04 114.933Z" fill="url(#paint2_radial_692_1890)"/>
<path d="M115.969 98.3662C116.06 94.792 116.696 93.3936 118.04 91.1182V105.614C115.723 100.811 114.342 99.4138 111.827 99.4015C113.365 97.8121 114.277 97.3638 115.969 98.3662Z" fill="url(#paint3_radial_692_1890)"/>
<path d="M185.366 108.06C186.69 108.487 188.157 108.504 189.362 107.809C191.499 106.575 191.937 105.154 191.555 102.508V102.508C193.199 103.056 194.016 104.953 193.045 106.388C192.081 107.812 190.985 108.974 189.452 110.246C188.161 111.316 186.509 111.855 184.833 111.812C179.638 111.679 177.044 110.851 173.953 108.72C174.974 110.641 174.917 111.76 174.09 113.6C174.018 113.76 173.822 113.822 173.671 113.731C171.996 112.73 171.075 111.892 169.811 109.756C169.863 114.032 169.094 113.977 165.669 114.933C168.559 110.86 168.026 109.221 165.881 106.254C165.083 105.151 163.953 104.331 162.673 103.866L157.501 101.985C154.744 100.982 151.73 100.942 148.947 101.869L131.905 107.55C131.771 107.435 131.636 107.326 131.5 107.223V104.508C131.5 103.403 130.605 102.508 129.5 102.508H127.288C126.183 102.508 125.288 103.403 125.288 104.508V105.614H124.252V103.472C124.252 102.368 125.148 101.472 126.252 101.472H130.536C131.64 101.472 132.536 102.368 132.536 103.472V106.65C137.305 103.748 142.547 101.584 149.353 99.7769C153.233 98.747 157.325 99.0145 161.146 100.247L185.366 108.06Z" fill="url(#paint4_radial_692_1890)"/>
<path fill-rule="evenodd" clip-rule="evenodd" d="M118.04 111.827V108.721C120.621 105.74 121.915 105.799 124.252 105.614H125.288C128.016 105.589 129.856 105.979 131.5 107.223V107.685L131.905 107.55C132.809 108.327 133.669 109.382 134.607 110.791C141.656 108.167 143.837 105.859 151.448 104.117C153.286 103.696 155.241 103.854 156.905 104.739C158.938 105.82 160.331 107.075 161.678 109.235C162.281 110.201 162.374 111.42 161.864 112.438C161.029 114.107 159.829 115.417 156.941 117.128C155.96 117.709 154.728 117.62 153.8 116.957L149.799 114.099C148.86 113.429 148.666 112.09 149.457 111.251C151.248 109.354 152.356 109.09 154.28 109.756C153.054 110.067 152.331 110.456 151.683 111.688C151.319 112.378 151.527 113.216 152.079 113.767L153.803 115.492C154.708 116.397 156.112 116.664 157.173 115.948C158.687 114.927 159.601 113.802 160.591 112.283C161.185 111.372 161.225 110.185 160.599 109.296C158.891 106.871 157.002 106.022 153.244 105.614C148.565 105.758 142.105 109.592 134.607 112.862C134.468 115.305 134.252 117.608 130.648 119.531C129.929 119.915 129.052 119.733 128.475 119.156L125.827 116.508C125.529 116.21 125.529 115.727 125.827 115.429V115.429C126.107 115.149 126.557 115.134 126.868 115.381C131.196 118.812 132.729 117.017 133.571 112.862C127.294 113.743 124.479 112.063 123.217 106.65H121.146L118.04 111.827ZM133.571 111.827C130.755 107.593 128.662 106.549 124.252 106.65C126.497 111.782 128.455 113.001 133.571 111.827Z" fill="url(#paint5_radial_692_1890)"/>
<path d="M118.04 114.933V111.827C119.967 115.763 119.89 118.074 125.288 119.075C124.119 121.038 123.273 121.636 121.146 121.146C120.755 125.201 120.362 127.472 118.04 131.5V125.287C119.376 121.107 119.126 118.865 118.04 114.933Z" fill="url(#paint6_radial_692_1890)"/>
<path d="M120.11 98.3662C120.019 94.792 119.383 93.3936 118.04 91.1182V105.614C120.356 100.811 121.737 99.4138 124.252 99.4015C122.714 97.8121 121.802 97.3638 120.11 98.3662Z" fill="url(#paint7_radial_692_1890)"/>
<path d="M53.5508 67.9531L61.1992 52.5273L63.9062 46.7266C64.6797 46.8125 65.8112 46.8555 67.3008 46.8555C67.8021 46.8555 68.3607 46.8411 68.9766 46.8125C69.6068 46.7839 70.2943 46.7409 71.0391 46.6836C71.0964 46.8268 71.0964 47.0703 71.0391 47.4141C70.9818 47.7578 70.9102 47.9297 70.8242 47.9297C70.4518 47.9297 70.0579 48.0299 69.6426 48.2305C69.2272 48.431 68.9193 48.6745 68.7188 48.9609C68.4609 49.3047 68.2676 49.7201 68.1387 50.207C68.0241 50.651 67.888 51.5104 67.7305 52.7852L66.0547 69.1992C65.8828 70.6745 65.7969 71.806 65.7969 72.5938C65.7969 73.1953 66.0189 73.5749 66.4629 73.7324C66.7207 73.8184 67.0286 73.8828 67.3867 73.9258C67.7591 73.9544 68.0599 73.9688 68.2891 73.9688C68.3464 73.9688 68.375 74.0977 68.375 74.3555C68.375 74.6992 68.2891 74.957 68.1172 75.1289C66.7852 75.0573 65.7253 75.0072 64.9375 74.9785C64.1641 74.9355 63.6628 74.9141 63.4336 74.9141C63.3906 74.9141 62.9896 74.9355 62.2305 74.9785C61.4857 75.0072 60.3828 75.0573 58.9219 75.1289C58.8646 75.0286 58.8359 74.957 58.8359 74.9141C58.8359 74.7422 58.8717 74.5417 58.9434 74.3125C59.015 74.0833 59.0794 73.9688 59.1367 73.9688C59.3945 73.9688 59.7168 73.9401 60.1035 73.8828C60.5046 73.8112 60.877 73.7181 61.2207 73.6035C61.5645 73.4746 61.7721 73.3385 61.8438 73.1953C62.1302 72.5365 62.3307 71.9277 62.4453 71.3691C62.474 71.2116 62.5169 70.8678 62.5742 70.3379C62.6315 69.8079 62.6745 69.4714 62.7031 69.3281L64.4219 52.5703C64.5078 51.7109 64.5508 51.1523 64.5508 50.8945C64.5508 50.7227 64.4648 50.6367 64.293 50.6367C64.2786 50.6367 64.2357 50.694 64.1641 50.8086L52.9492 73.668C52.806 73.9258 52.5339 74.2266 52.1328 74.5703C51.7318 74.9141 51.3594 75.0859 51.0156 75.0859C50.8867 75.0859 50.7721 75.0573 50.6719 75L47.0195 50.6367C47.0052 50.5794 46.9766 50.5508 46.9336 50.5508C46.8477 50.5508 46.8047 50.5794 46.8047 50.6367L41.7773 69.1562C41.2331 71.1328 40.9609 72.3216 40.9609 72.7227C40.9609 72.9232 41.1686 73.1237 41.584 73.3242C42.0137 73.5104 42.4648 73.668 42.9375 73.7969C43.4245 73.9115 43.7396 73.9688 43.8828 73.9688C43.9401 73.9688 43.9688 74.0547 43.9688 74.2266C43.9688 74.556 43.8971 74.8568 43.7539 75.1289C42.4219 75.0573 41.3835 75.0072 40.6387 74.9785C39.8939 74.9355 39.4427 74.9141 39.2852 74.9141C39.2422 74.9141 38.8268 74.9355 38.0391 74.9785C37.2513 75.0072 36.0911 75.0573 34.5586 75.1289C34.5013 75.0716 34.4727 74.9284 34.4727 74.6992C34.4727 74.2122 34.5729 73.9688 34.7734 73.9688C35.0026 73.9688 35.3678 73.9186 35.8691 73.8184C36.3704 73.7038 36.8431 73.5677 37.2871 73.4102C37.7454 73.2383 38.0104 73.0807 38.082 72.9375C38.5833 71.9922 39.056 70.7174 39.5 69.1133L44.1836 52.3125C44.2982 51.7539 44.4199 51.2025 44.5488 50.6582C44.6777 50.0996 44.7422 49.5625 44.7422 49.0469C44.7422 48.832 44.5417 48.6387 44.1406 48.4668C43.7396 48.2949 43.3027 48.1589 42.8301 48.0586C42.3717 47.944 42.0352 47.8867 41.8203 47.8867C41.763 47.8867 41.7344 47.7865 41.7344 47.5859C41.7344 47.1133 41.8203 46.8268 41.9922 46.7266C43.0521 46.7552 43.9186 46.7767 44.5918 46.791C45.265 46.8053 45.7448 46.8125 46.0312 46.8125C46.8477 46.8125 47.5924 46.8053 48.2656 46.791C48.9531 46.7767 49.569 46.7552 50.1133 46.7266C50.2422 47.901 50.5788 50.2643 51.123 53.8164C51.6673 57.3542 52.4193 62.0807 53.3789 67.9961C53.3789 68.0247 53.3932 68.0391 53.4219 68.0391C53.5078 68.0391 53.5508 68.0104 53.5508 67.9531ZM77.1406 56.3086C77.599 56.3086 77.957 56.5163 78.2148 56.9316C78.4727 57.347 78.6016 57.8841 78.6016 58.543C78.6016 59.3021 78.5156 60.0612 78.3438 60.8203L76.8398 67.9102C76.6393 68.7839 76.5391 69.5573 76.5391 70.2305C76.5391 71.4622 76.8112 72.0781 77.3555 72.0781C77.6706 72.0781 78.0573 71.8991 78.5156 71.541C78.9883 71.1829 79.4753 70.7246 79.9766 70.166C80.4922 69.6074 80.972 69.0345 81.416 68.4473C82.2324 67.373 83.0059 66.0625 83.7363 64.5156C84.4668 62.9688 84.9753 61.4362 85.2617 59.918L85.9922 56.5664C86.3789 56.4518 86.8229 56.3945 87.3242 56.3945C87.8112 56.3945 88.2982 56.4518 88.7852 56.5664L86.1211 70.4453C86.0352 70.7891 85.9922 71.1471 85.9922 71.5195C85.9922 72.2357 86.1354 72.5938 86.4219 72.5938C86.7799 72.5938 87.2096 72.3431 87.7109 71.8418C88.2122 71.3262 88.6419 70.8893 89 70.5312L89.2578 70.2305C89.3151 70.2305 89.4225 70.3665 89.5801 70.6387C89.7376 70.9108 89.8164 71.1042 89.8164 71.2188C89.5729 71.6341 89.1289 72.1641 88.4844 72.8086C87.8542 73.4531 87.1667 74.026 86.4219 74.5273C85.6771 75.0143 85.0039 75.2578 84.4023 75.2578C83.944 75.2578 83.5859 75.0501 83.3281 74.6348C83.0703 74.2194 82.9414 73.6823 82.9414 73.0234C82.9414 72.5938 83.0417 71.8346 83.2422 70.7461L84.0156 66.793C83.7435 67.3086 83.1562 68.1966 82.2539 69.457C81.6667 70.2734 80.9577 71.1328 80.127 72.0352C79.3105 72.9375 78.4941 73.7038 77.6777 74.334C76.8613 74.9499 76.1667 75.2578 75.5938 75.2578C74.1615 75.2578 73.4453 74.3125 73.4453 72.4219C73.4453 71.0755 73.6458 69.5143 74.0469 67.7383L75.3359 61.7656C75.4792 60.7773 75.5508 60.2044 75.5508 60.0469C75.5508 59.3307 75.4076 58.9727 75.1211 58.9727C74.8776 58.9727 74.5124 59.2018 74.0254 59.6602C73.7962 59.8893 73.5456 60.14 73.2734 60.4121C73.0156 60.6842 72.8438 60.8776 72.7578 60.9922C72.7005 60.9922 72.5931 60.8561 72.4355 60.584C72.278 60.3118 72.1992 60.1185 72.1992 60.0039C72.4284 59.6172 72.8438 59.1374 73.4453 58.5645C74.0469 57.9772 74.6914 57.4544 75.3789 56.9961C76.0664 56.5378 76.6536 56.3086 77.1406 56.3086ZM109.883 46.3828L109.238 49.6055L105.199 70.4453C105.113 70.7891 105.07 71.1471 105.07 71.5195C105.07 72.2357 105.214 72.5938 105.5 72.5938C105.858 72.5938 106.288 72.3431 106.789 71.8418C107.29 71.3262 107.72 70.8893 108.078 70.5312L108.336 70.2305C108.393 70.2305 108.501 70.3665 108.658 70.6387C108.816 70.9108 108.895 71.1042 108.895 71.2188C108.651 71.6341 108.207 72.1641 107.562 72.8086C106.932 73.4531 106.245 74.026 105.5 74.5273C104.755 75.0143 104.082 75.2578 103.48 75.2578C103.022 75.2578 102.664 75.0501 102.406 74.6348C102.148 74.2194 102.02 73.6823 102.02 73.0234C102.02 72.5938 102.12 71.8346 102.32 70.7461C102.349 70.6029 102.399 70.388 102.471 70.1016C102.542 69.8151 102.578 69.6432 102.578 69.5859C102.392 69.9154 102.184 70.252 101.955 70.5957C101.74 70.9395 101.511 71.2904 101.268 71.6484C100.938 72.1354 100.494 72.6582 99.9355 73.2168C99.3913 73.7611 98.8112 74.2337 98.1953 74.6348C97.5938 75.0215 97.0352 75.2148 96.5195 75.2148C95.2018 75.2148 94.1849 74.6491 93.4688 73.5176C92.7526 72.3861 92.3945 71.0182 92.3945 69.4141C92.3945 67.8672 92.7526 66.3203 93.4688 64.7734C94.1992 63.2266 95.1589 61.8158 96.3477 60.541C97.5365 59.2663 98.847 58.2422 100.279 57.4688C101.726 56.6953 103.165 56.3086 104.598 56.3086H105.156L106.359 49.9062C106.445 49.4909 106.488 49.0898 106.488 48.7031C106.488 48.1589 105.615 47.8867 103.867 47.8867C103.781 47.8867 103.738 47.8008 103.738 47.6289C103.738 47.2852 103.853 46.9987 104.082 46.7695C106.03 46.5977 107.878 46.1966 109.625 45.5664C109.797 45.6667 109.883 45.9388 109.883 46.3828ZM103.781 63.1406L104.297 60.3477C104.411 59.8034 104.354 59.3236 104.125 58.9082C103.896 58.4928 103.509 58.2852 102.965 58.2852C102.091 58.2852 101.217 58.5859 100.344 59.1875C99.4701 59.7891 98.6751 60.5911 97.959 61.5938C97.2428 62.582 96.6628 63.6849 96.2188 64.9023C95.7891 66.1055 95.5742 67.3229 95.5742 68.5547C95.5742 71.3333 96.3047 72.7227 97.7656 72.7227C98.2956 72.7227 98.8613 72.4362 99.4629 71.8633C100.079 71.276 100.673 70.5098 101.246 69.5645C101.819 68.6191 102.327 67.5879 102.771 66.4707C103.23 65.3392 103.566 64.2292 103.781 63.1406ZM129.777 46.3828L129.133 49.6055L125.094 70.4453C125.008 70.7891 124.965 71.1471 124.965 71.5195C124.965 72.2357 125.108 72.5938 125.395 72.5938C125.753 72.5938 126.182 72.3431 126.684 71.8418C127.185 71.3262 127.615 70.8893 127.973 70.5312L128.23 70.2305C128.288 70.2305 128.395 70.3665 128.553 70.6387C128.71 70.9108 128.789 71.1042 128.789 71.2188C128.546 71.6341 128.102 72.1641 127.457 72.8086C126.827 73.4531 126.139 74.026 125.395 74.5273C124.65 75.0143 123.977 75.2578 123.375 75.2578C122.917 75.2578 122.559 75.0501 122.301 74.6348C122.043 74.2194 121.914 73.6823 121.914 73.0234C121.914 72.5938 122.014 71.8346 122.215 70.7461C122.243 70.6029 122.294 70.388 122.365 70.1016C122.437 69.8151 122.473 69.6432 122.473 69.5859C122.286 69.9154 122.079 70.252 121.85 70.5957C121.635 70.9395 121.406 71.2904 121.162 71.6484C120.833 72.1354 120.389 72.6582 119.83 73.2168C119.286 73.7611 118.706 74.2337 118.09 74.6348C117.488 75.0215 116.93 75.2148 116.414 75.2148C115.096 75.2148 114.079 74.6491 113.363 73.5176C112.647 72.3861 112.289 71.0182 112.289 69.4141C112.289 67.8672 112.647 66.3203 113.363 64.7734C114.094 63.2266 115.053 61.8158 116.242 60.541C117.431 59.2663 118.742 58.2422 120.174 57.4688C121.62 56.6953 123.06 56.3086 124.492 56.3086H125.051L126.254 49.9062C126.34 49.4909 126.383 49.0898 126.383 48.7031C126.383 48.1589 125.509 47.8867 123.762 47.8867C123.676 47.8867 123.633 47.8008 123.633 47.6289C123.633 47.2852 123.747 46.9987 123.977 46.7695C125.924 46.5977 127.772 46.1966 129.52 45.5664C129.691 45.6667 129.777 45.9388 129.777 46.3828ZM123.676 63.1406L124.191 60.3477C124.306 59.8034 124.249 59.3236 124.02 58.9082C123.79 58.4928 123.404 58.2852 122.859 58.2852C121.986 58.2852 121.112 58.5859 120.238 59.1875C119.365 59.7891 118.57 60.5911 117.854 61.5938C117.137 62.582 116.557 63.6849 116.113 64.9023C115.684 66.1055 115.469 67.3229 115.469 68.5547C115.469 71.3333 116.199 72.7227 117.66 72.7227C118.19 72.7227 118.756 72.4362 119.357 71.8633C119.973 71.276 120.568 70.5098 121.141 69.5645C121.714 68.6191 122.222 67.5879 122.666 66.4707C123.124 65.3392 123.461 64.2292 123.676 63.1406ZM144.129 56.3086C145.189 56.3086 146.234 56.4948 147.266 56.8672L144.645 70.4453C144.559 70.7891 144.516 71.1471 144.516 71.5195C144.516 72.2357 144.659 72.5938 144.945 72.5938C145.303 72.5938 145.733 72.3431 146.234 71.8418C146.736 71.3262 147.165 70.8893 147.523 70.5312L147.781 70.2305C147.839 70.2305 147.946 70.3665 148.104 70.6387C148.261 70.9108 148.34 71.1042 148.34 71.2188C148.096 71.6341 147.652 72.1641 147.008 72.8086C146.378 73.4531 145.69 74.026 144.945 74.5273C144.201 75.0143 143.527 75.2578 142.926 75.2578C142.467 75.2578 142.109 75.0501 141.852 74.6348C141.594 74.2194 141.465 73.6823 141.465 73.0234C141.465 72.5794 141.565 71.8203 141.766 70.7461L141.916 69.9941C141.959 69.7936 141.98 69.6719 141.98 69.6289C141.751 70.0586 141.422 70.5885 140.992 71.2188C140.562 71.8346 140.068 72.4505 139.51 73.0664C138.951 73.6823 138.364 74.1979 137.748 74.6133C137.132 75.0143 136.523 75.2148 135.922 75.2148C134.661 75.2148 133.666 74.6491 132.936 73.5176C132.205 72.3861 131.84 71.0182 131.84 69.4141C131.84 67.3659 132.449 65.3249 133.666 63.291C134.482 61.916 135.456 60.7057 136.588 59.6602C137.734 58.6146 138.958 57.7982 140.262 57.2109C141.565 56.6094 142.854 56.3086 144.129 56.3086ZM142.324 58.2852C141.479 58.2852 140.627 58.5859 139.768 59.1875C138.908 59.7747 138.12 60.5697 137.404 61.5723C136.688 62.5605 136.108 63.6634 135.664 64.8809C135.234 66.084 135.02 67.2943 135.02 68.5117C135.02 71.319 135.75 72.7227 137.211 72.7227C137.727 72.7227 138.285 72.4362 138.887 71.8633C139.488 71.2904 140.083 70.5312 140.67 69.5859C141.257 68.6406 141.773 67.6165 142.217 66.5137C142.675 65.3965 143.012 64.3008 143.227 63.2266L144.086 58.8438C143.742 58.4714 143.155 58.2852 142.324 58.2852ZM159.168 56.1797C160.801 56.1797 162.09 56.724 163.035 57.8125C163.178 58.1419 163.25 58.4427 163.25 58.7148C163.25 59.2305 163.114 59.6745 162.842 60.0469C162.57 60.4193 162.219 60.6055 161.789 60.6055C161.402 60.6055 161.044 60.3978 160.715 59.9824C160.4 59.5671 160.006 59.1445 159.533 58.7148C159.061 58.2852 158.438 58.0703 157.664 58.0703C157.062 58.0703 156.59 58.2708 156.246 58.6719C155.902 59.0729 155.73 59.5312 155.73 60.0469C155.73 60.7917 156.01 61.5866 156.568 62.4316C157.127 63.2767 157.736 64.0286 158.395 64.6875C159.053 65.3464 159.662 66.1484 160.221 67.0938C160.779 68.0391 161.059 68.9987 161.059 69.9727C161.059 71.5482 160.486 72.8229 159.34 73.7969C158.194 74.7708 156.719 75.2578 154.914 75.2578C153.281 75.2578 151.992 74.7135 151.047 73.625C150.904 73.3958 150.832 73.1237 150.832 72.8086C150.832 72.293 150.968 71.8346 151.24 71.4336C151.512 71.0326 151.863 70.832 152.293 70.832C152.68 70.832 153.038 71.0397 153.367 71.4551C153.682 71.8704 154.076 72.293 154.549 72.7227C155.021 73.1523 155.645 73.3672 156.418 73.3672C157.048 73.3672 157.557 73.1595 157.943 72.7441C158.33 72.3288 158.523 71.8776 158.523 71.3906C158.523 70.6458 158.244 69.8509 157.686 69.0059C157.127 68.1608 156.518 67.4089 155.859 66.75C155.201 66.0911 154.592 65.2891 154.033 64.3438C153.475 63.3984 153.195 62.4388 153.195 61.4648C153.195 60.6628 153.46 59.8535 153.99 59.0371C154.52 58.2207 155.236 57.5404 156.139 56.9961C157.041 56.4518 158.051 56.1797 159.168 56.1797ZM172.918 56.1797C174.551 56.1797 175.84 56.724 176.785 57.8125C176.928 58.1419 177 58.4427 177 58.7148C177 59.2305 176.864 59.6745 176.592 60.0469C176.32 60.4193 175.969 60.6055 175.539 60.6055C175.152 60.6055 174.794 60.3978 174.465 59.9824C174.15 59.5671 173.756 59.1445 173.283 58.7148C172.811 58.2852 172.188 58.0703 171.414 58.0703C170.812 58.0703 170.34 58.2708 169.996 58.6719C169.652 59.0729 169.48 59.5312 169.48 60.0469C169.48 60.7917 169.76 61.5866 170.318 62.4316C170.877 63.2767 171.486 64.0286 172.145 64.6875C172.803 65.3464 173.412 66.1484 173.971 67.0938C174.529 68.0391 174.809 68.9987 174.809 69.9727C174.809 71.5482 174.236 72.8229 173.09 73.7969C171.944 74.7708 170.469 75.2578 168.664 75.2578C167.031 75.2578 165.742 74.7135 164.797 73.625C164.654 73.3958 164.582 73.1237 164.582 72.8086C164.582 72.293 164.718 71.8346 164.99 71.4336C165.262 71.0326 165.613 70.832 166.043 70.832C166.43 70.832 166.788 71.0397 167.117 71.4551C167.432 71.8704 167.826 72.293 168.299 72.7227C168.771 73.1523 169.395 73.3672 170.168 73.3672C170.798 73.3672 171.307 73.1595 171.693 72.7441C172.08 72.3288 172.273 71.8776 172.273 71.3906C172.273 70.6458 171.994 69.8509 171.436 69.0059C170.877 68.1608 170.268 67.4089 169.609 66.75C168.951 66.0911 168.342 65.2891 167.783 64.3438C167.225 63.3984 166.945 62.4388 166.945 61.4648C166.945 60.6628 167.21 59.8535 167.74 59.0371C168.27 58.2207 168.986 57.5404 169.889 56.9961C170.791 56.4518 171.801 56.1797 172.918 56.1797ZM185.637 47.2422C186.066 47.2422 186.432 47.4141 186.732 47.7578C187.033 48.1016 187.184 48.5026 187.184 48.9609C187.184 49.6484 186.962 50.25 186.518 50.7656C186.074 51.2812 185.522 51.5391 184.863 51.5391C184.405 51.5391 184.047 51.36 183.789 51.002C183.531 50.6439 183.402 50.207 183.402 49.6914C183.402 49.0326 183.617 48.4596 184.047 47.9727C184.477 47.4857 185.007 47.2422 185.637 47.2422ZM184.391 56.3086C184.849 56.3086 185.207 56.5163 185.465 56.9316C185.723 57.347 185.852 57.8841 185.852 58.543C185.852 59.1302 185.766 59.8893 185.594 60.8203L183.703 70.4453C183.617 70.7891 183.574 71.1471 183.574 71.5195C183.574 72.2357 183.717 72.5938 184.004 72.5938C184.362 72.5938 184.792 72.3431 185.293 71.8418C185.794 71.3262 186.224 70.8893 186.582 70.5312L186.84 70.2305C186.897 70.2305 187.005 70.3665 187.162 70.6387C187.32 70.9108 187.398 71.1042 187.398 71.2188C187.155 71.6341 186.711 72.1641 186.066 72.8086C185.436 73.4531 184.749 74.026 184.004 74.5273C183.259 75.0143 182.586 75.2578 181.984 75.2578C181.526 75.2578 181.168 75.0501 180.91 74.6348C180.652 74.2194 180.523 73.6823 180.523 73.0234C180.523 72.5938 180.624 71.8346 180.824 70.7461L182.586 61.7656C182.729 60.9206 182.801 60.3477 182.801 60.0469C182.801 59.3307 182.658 58.9727 182.371 58.9727C182.199 58.9727 181.963 59.0872 181.662 59.3164C181.376 59.5456 181.096 59.8034 180.824 60.0898C180.552 60.362 180.352 60.5768 180.223 60.7344L180.008 60.9922C179.951 60.9922 179.843 60.8561 179.686 60.584C179.528 60.3118 179.449 60.1185 179.449 60.0039C179.678 59.6172 180.094 59.1374 180.695 58.5645C181.297 57.9772 181.941 57.4544 182.629 56.9961C183.316 56.5378 183.904 56.3086 184.391 56.3086ZM196.121 56.3086C196.579 56.3086 196.938 56.5163 197.195 56.9316C197.453 57.347 197.582 57.8841 197.582 58.543C197.582 59.1732 197.496 59.9323 197.324 60.8203L196.637 64.4297C196.995 63.5846 197.453 62.6966 198.012 61.7656C198.585 60.8203 199.193 59.9323 199.838 59.1016C200.482 58.2708 201.12 57.5977 201.75 57.082C202.38 56.5664 202.939 56.3086 203.426 56.3086C204.4 56.3086 205.188 56.7669 205.789 57.6836C205.789 59.6029 205.259 60.5625 204.199 60.5625C203.97 60.5625 203.698 60.3835 203.383 60.0254C203.068 59.6673 202.738 59.4883 202.395 59.4883C201.979 59.4883 201.435 59.832 200.762 60.5195C200.089 61.207 199.394 62.1094 198.678 63.2266C197.962 64.3294 197.317 65.5254 196.744 66.8145C196.171 68.0892 195.777 69.3138 195.562 70.4883L194.746 75C194.259 75.0859 193.786 75.1289 193.328 75.1289C192.784 75.1289 192.254 75.0859 191.738 75L194.316 61.7656C194.46 60.7773 194.531 60.2044 194.531 60.0469C194.531 59.3307 194.388 58.9727 194.102 58.9727C193.858 58.9727 193.493 59.2018 193.006 59.6602C192.777 59.8893 192.526 60.14 192.254 60.4121C191.996 60.6842 191.824 60.8776 191.738 60.9922C191.681 60.9922 191.574 60.8561 191.416 60.584C191.258 60.3118 191.18 60.1185 191.18 60.0039C191.409 59.6172 191.824 59.1374 192.426 58.5645C193.027 57.9772 193.672 57.4544 194.359 56.9961C195.047 56.5378 195.634 56.3086 196.121 56.3086Z" fill="white"/>
<path d="M0 14.4961C6.30012 20.0984 15.0791 19.1979 30.687 15.1421C32.2497 14.736 33.9168 14.9601 35.3059 15.7832L61.0905 31.063L35.3304 19.6141C33.9205 18.9874 32.3183 18.9353 30.8588 19.4358C12.5496 25.7159 4.73674 24.7283 0 14.4961Z" fill="url(#paint8_radial_692_1890)"/>
<path d="M16.5669 25.8858C22.7094 27.5488 34.4861 19.1752 43.5027 24.2129C35.7991 20.3448 24.9274 34.7378 16.5669 25.8858Z" fill="url(#paint9_radial_692_1890)"/>
<path d="M42.4528 34.1693C40.4746 32.9379 39.8039 31.791 39.5364 30.2054C39.314 28.8871 40.2138 27.6374 41.514 27.3262C46.4064 26.1551 49.6595 27.3172 54.8779 31.063C50.3759 26.3362 46.8249 25.2844 39.6469 25.78C38.7972 25.8387 38.0191 26.2751 37.5081 26.9564L36.1669 28.7446C35.6047 29.4943 35.6307 30.5432 36.2784 31.2205C38.4425 33.4837 39.9798 34.1156 42.4528 34.1693Z" fill="url(#paint10_radial_692_1890)"/>
<path d="M61.0905 28.9921C48.8725 19.5072 53.131 18.6378 60.0551 10.3543C56.6285 8.93238 54.8937 8.83857 52.8071 12.4252C51.2879 8.29387 49.7783 6.42726 45.559 4.14173C43.8524 8.52031 44.6321 10.6991 46.5945 14.4961C42.9378 12.0347 40.7471 11.3823 36.2402 13.4606C46.3046 17.727 45.2926 18.8748 61.0905 28.9921Z" fill="url(#paint11_radial_692_1890)"/>
<path d="M78.6929 22.7441C78.6929 22.1918 79.1406 21.7441 79.6929 21.7441H79.7638C80.3161 21.7441 80.7638 22.1918 80.7638 22.7441V25.9213C80.7638 26.4735 80.3161 26.9213 79.7638 26.9213H74.4803C73.3757 26.9213 72.4803 26.0258 72.4803 24.9213V19.6024C72.4803 18.4978 73.3757 17.6024 74.4803 17.6024H78.7281C80.6137 17.6024 82.4755 18.023 84.178 18.8337V18.8337C85.2965 19.3663 86.1249 20.3629 86.4441 21.5599L88.3399 28.6695C89.2063 31.9182 86.6836 35.0788 83.3237 34.9544L68.0679 34.3894C64.7776 34.2675 62.2002 31.5169 62.2923 28.2256L62.6948 13.8426C62.7856 10.5955 65.4441 8.01038 68.6924 8.01038H83.0387C86.0229 8.01038 88.8896 9.21712 90.915 11.4088C101.807 23.194 109.097 33.3225 115.395 32.2299C115.685 32.1796 115.968 32.3916 115.968 32.686V32.686C115.968 32.9325 115.766 33.1318 115.519 33.1285C109.37 33.045 105.37 32.4313 87.653 13.254C86.5367 12.0456 85.0793 11.1983 83.4735 10.8414L77.8584 9.59364C77.0431 9.41248 76.199 9.4035 75.3801 9.56728L71.091 10.4251C68.2865 10.986 66.2677 13.4485 66.2677 16.3086V27.0984C66.2677 29.8599 68.5063 32.0984 71.2677 32.0984H80.9055C83.1146 32.0984 84.9055 30.3076 84.9055 28.0984V22.6378C84.9055 20.4287 83.1146 18.6378 80.9055 18.6378H76.5512C75.4466 18.6378 74.5512 19.5332 74.5512 20.6378V24.8858C74.5512 25.4381 74.9989 25.8858 75.5512 25.8858H77.6929C78.2452 25.8858 78.6929 25.4381 78.6929 24.8858V22.7441Z" fill="url(#paint12_radial_692_1890)"/>
<path d="M104.412 33.0631C96.4743 29.9513 88.3242 12.4066 78.6929 13.4606C91.6665 19.2326 92.9183 31.4785 104.412 33.0631Z" fill="url(#paint13_radial_692_1890)"/>
<path d="M111.827 30.0276C106.485 21.6827 106.361 16.9143 110.791 8.28346C105.363 9.71409 97.6256 19.5114 111.827 30.0276Z" fill="url(#paint14_radial_692_1890)"/>
<path d="M118.039 10.3543C113.102 14.0549 110.405 23.2793 118.039 32.0984C106.33 25.6888 109.793 12.7713 118.039 0V10.3543Z" fill="url(#paint15_radial_692_1890)"/>
<path d="M236.079 14.4961C229.778 20.0984 221 19.1979 205.392 15.1421C203.829 14.736 202.162 14.9601 200.773 15.7832L174.988 31.063L200.748 19.6141C202.158 18.9874 203.76 18.9353 205.22 19.4358C223.529 25.7159 231.342 24.7283 236.079 14.4961Z" fill="url(#paint16_radial_692_1890)"/>
<path d="M219.512 25.8858C213.369 27.5488 201.593 19.1752 192.576 24.2129C200.279 20.3448 211.151 34.7378 219.512 25.8858Z" fill="url(#paint17_radial_692_1890)"/>
<path d="M193.626 34.1693C195.604 32.9379 196.275 31.791 196.542 30.2054C196.765 28.8871 195.865 27.6374 194.565 27.3262C189.672 26.1551 186.419 27.3172 181.201 31.063C185.703 26.3362 189.254 25.2844 196.432 25.78C197.281 25.8387 198.06 26.2751 198.571 26.9564L199.912 28.7446C200.474 29.4943 200.448 30.5432 199.8 31.2205C197.636 33.4837 196.099 34.1156 193.626 34.1693Z" fill="url(#paint18_radial_692_1890)"/>
<path d="M174.988 28.9921C187.206 19.5072 182.948 18.6378 176.024 10.3543C179.45 8.93238 181.185 8.83857 183.272 12.4252C184.791 8.29387 186.3 6.42726 190.52 4.14173C192.226 8.52031 191.446 10.6991 189.484 14.4961C193.141 12.0347 195.331 11.3823 199.838 13.4606C189.774 17.727 190.786 18.8748 174.988 28.9921Z" fill="url(#paint19_radial_692_1890)"/>
<path d="M157.386 22.7441C157.386 22.1918 156.938 21.7441 156.386 21.7441H156.315C155.763 21.7441 155.315 22.1918 155.315 22.7441V25.9213C155.315 26.4735 155.763 26.9213 156.315 26.9213H161.598C162.703 26.9213 163.598 26.0258 163.598 24.9213V19.6024C163.598 18.4978 162.703 17.6024 161.598 17.6024H157.351C155.465 17.6024 153.603 18.023 151.901 18.8337V18.8337C150.782 19.3663 149.954 20.3629 149.635 21.5599L147.739 28.6695C146.872 31.9182 149.395 35.0788 152.755 34.9544L168.011 34.3894C171.301 34.2675 173.878 31.5169 173.786 28.2256L173.384 13.8426C173.293 10.5955 170.635 8.01038 167.386 8.01038H153.04C150.056 8.01038 147.189 9.21712 145.164 11.4088C134.272 23.194 126.982 33.3225 120.683 32.2299C120.393 32.1796 120.11 32.3916 120.11 32.686V32.686C120.11 32.9325 120.313 33.1318 120.559 33.1285C126.708 33.045 130.709 32.4313 148.426 13.254C149.542 12.0456 150.999 11.1983 152.605 10.8414L158.22 9.59364C159.035 9.41248 159.88 9.4035 160.698 9.56728L164.988 10.4251C167.792 10.986 169.811 13.4485 169.811 16.3086V27.0984C169.811 29.8599 167.572 32.0984 164.811 32.0984H155.173C152.964 32.0984 151.173 30.3076 151.173 28.0984V22.6378C151.173 20.4287 152.964 18.6378 155.173 18.6378H159.527C160.632 18.6378 161.527 19.5332 161.527 20.6378V24.8858C161.527 25.4381 161.08 25.8858 160.527 25.8858H158.386C157.833 25.8858 157.386 25.4381 157.386 24.8858V22.7441Z" fill="url(#paint20_radial_692_1890)"/>
<path d="M131.666 33.0631C139.604 29.9513 147.754 12.4066 157.386 13.4606C144.412 19.2326 143.16 31.4785 131.666 33.0631Z" fill="url(#paint21_radial_692_1890)"/>
<path d="M124.252 30.0276C129.594 21.6827 129.718 16.9143 125.287 8.28346C130.716 9.71409 138.453 19.5114 124.252 30.0276Z" fill="url(#paint22_radial_692_1890)"/>
<path d="M118.039 10.3543C122.976 14.0549 125.673 23.2793 118.039 32.0984C129.749 25.6888 126.286 12.7713 118.039 0V10.3543Z" fill="url(#paint23_radial_692_1890)"/>
<defs>
<radialGradient id="paint0_radial_692_1890" cx="0" cy="0" r="1" gradientUnits="userSpaceOnUse" gradientTransform="translate(79.7285 111.309) scale(38.311 20.1909)">
<stop stop-color="#E1E1E1"/>
<stop offset="1" stop-color="#FFF4DA"/>
</radialGradient>
<radialGradient id="paint1_radial_692_1890" cx="0" cy="0" r="1" gradientUnits="userSpaceOnUse" gradientTransform="translate(79.7285 111.309) scale(38.311 20.1909)">
<stop stop-color="#E1E1E1"/>
<stop offset="1" stop-color="#FFF4DA"/>
</radialGradient>
<radialGradient id="paint2_radial_692_1890" cx="0" cy="0" r="1" gradientUnits="userSpaceOnUse" gradientTransform="translate(79.7285 111.309) scale(38.311 20.1909)">
<stop stop-color="#E1E1E1"/>
<stop offset="1" stop-color="#FFF4DA"/>
</radialGradient>
<radialGradient id="paint3_radial_692_1890" cx="0" cy="0" r="1" gradientUnits="userSpaceOnUse" gradientTransform="translate(79.7285 111.309) scale(38.311 20.1909)">
<stop stop-color="#E1E1E1"/>
<stop offset="1" stop-color="#FFF4DA"/>
</radialGradient>
<radialGradient id="paint4_radial_692_1890" cx="0" cy="0" r="1" gradientUnits="userSpaceOnUse" gradientTransform="translate(156.351 111.309) rotate(180) scale(38.311 20.1909)">
<stop stop-color="#E1E1E1"/>
<stop offset="1" stop-color="#FFF4DA"/>
</radialGradient>
<radialGradient id="paint5_radial_692_1890" cx="0" cy="0" r="1" gradientUnits="userSpaceOnUse" gradientTransform="translate(156.351 111.309) rotate(180) scale(38.311 20.1909)">
<stop stop-color="#E1E1E1"/>
<stop offset="1" stop-color="#FFF4DA"/>
</radialGradient>
<radialGradient id="paint6_radial_692_1890" cx="0" cy="0" r="1" gradientUnits="userSpaceOnUse" gradientTransform="translate(156.351 111.309) rotate(180) scale(38.311 20.1909)">
<stop stop-color="#E1E1E1"/>
<stop offset="1" stop-color="#FFF4DA"/>
</radialGradient>
<radialGradient id="paint7_radial_692_1890" cx="0" cy="0" r="1" gradientUnits="userSpaceOnUse" gradientTransform="translate(156.351 111.309) rotate(180) scale(38.311 20.1909)">
<stop stop-color="#E1E1E1"/>
<stop offset="1" stop-color="#FFF4DA"/>
</radialGradient>
<radialGradient id="paint8_radial_692_1890" cx="0" cy="0" r="1" gradientUnits="userSpaceOnUse" gradientTransform="translate(59.0197 17.6024) scale(59.0197 17.6024)">
<stop stop-color="#E1E1E1"/>
<stop offset="1" stop-color="#FFF4DA"/>
</radialGradient>
<radialGradient id="paint9_radial_692_1890" cx="0" cy="0" r="1" gradientUnits="userSpaceOnUse" gradientTransform="translate(59.0197 17.6024) scale(59.0197 17.6024)">
<stop stop-color="#E1E1E1"/>
<stop offset="1" stop-color="#FFF4DA"/>
</radialGradient>
<radialGradient id="paint10_radial_692_1890" cx="0" cy="0" r="1" gradientUnits="userSpaceOnUse" gradientTransform="translate(59.0197 17.6024) scale(59.0197 17.6024)">
<stop stop-color="#E1E1E1"/>
<stop offset="1" stop-color="#FFF4DA"/>
</radialGradient>
<radialGradient id="paint11_radial_692_1890" cx="0" cy="0" r="1" gradientUnits="userSpaceOnUse" gradientTransform="translate(59.0197 17.6024) scale(59.0197 17.6024)">
<stop stop-color="#E1E1E1"/>
<stop offset="1" stop-color="#FFF4DA"/>
</radialGradient>
<radialGradient id="paint12_radial_692_1890" cx="0" cy="0" r="1" gradientUnits="userSpaceOnUse" gradientTransform="translate(59.0197 17.6024) scale(59.0197 17.6024)">
<stop stop-color="#E1E1E1"/>
<stop offset="1" stop-color="#FFF4DA"/>
</radialGradient>
<radialGradient id="paint13_radial_692_1890" cx="0" cy="0" r="1" gradientUnits="userSpaceOnUse" gradientTransform="translate(59.0197 17.6024) scale(59.0197 17.6024)">
<stop stop-color="#E1E1E1"/>
<stop offset="1" stop-color="#FFF4DA"/>
</radialGradient>
<radialGradient id="paint14_radial_692_1890" cx="0" cy="0" r="1" gradientUnits="userSpaceOnUse" gradientTransform="translate(59.0197 17.6024) scale(59.0197 17.6024)">
<stop stop-color="#E1E1E1"/>
<stop offset="1" stop-color="#FFF4DA"/>
</radialGradient>
<radialGradient id="paint15_radial_692_1890" cx="0" cy="0" r="1" gradientUnits="userSpaceOnUse" gradientTransform="translate(59.0197 17.6024) scale(59.0197 17.6024)">
<stop stop-color="#E1E1E1"/>
<stop offset="1" stop-color="#FFF4DA"/>
</radialGradient>
<radialGradient id="paint16_radial_692_1890" cx="0" cy="0" r="1" gradientUnits="userSpaceOnUse" gradientTransform="translate(177.059 17.6024) rotate(180) scale(59.0197 17.6024)">
<stop stop-color="#E1E1E1"/>
<stop offset="1" stop-color="#FFF4DA"/>
</radialGradient>
<radialGradient id="paint17_radial_692_1890" cx="0" cy="0" r="1" gradientUnits="userSpaceOnUse" gradientTransform="translate(177.059 17.6024) rotate(180) scale(59.0197 17.6024)">
<stop stop-color="#E1E1E1"/>
<stop offset="1" stop-color="#FFF4DA"/>
</radialGradient>
<radialGradient id="paint18_radial_692_1890" cx="0" cy="0" r="1" gradientUnits="userSpaceOnUse" gradientTransform="translate(177.059 17.6024) rotate(180) scale(59.0197 17.6024)">
<stop stop-color="#E1E1E1"/>
<stop offset="1" stop-color="#FFF4DA"/>
</radialGradient>
<radialGradient id="paint19_radial_692_1890" cx="0" cy="0" r="1" gradientUnits="userSpaceOnUse" gradientTransform="translate(177.059 17.6024) rotate(180) scale(59.0197 17.6024)">
<stop stop-color="#E1E1E1"/>
<stop offset="1" stop-color="#FFF4DA"/>
</radialGradient>
<radialGradient id="paint20_radial_692_1890" cx="0" cy="0" r="1" gradientUnits="userSpaceOnUse" gradientTransform="translate(177.059 17.6024) rotate(180) scale(59.0197 17.6024)">
<stop stop-color="#E1E1E1"/>
<stop offset="1" stop-color="#FFF4DA"/>
</radialGradient>
<radialGradient id="paint21_radial_692_1890" cx="0" cy="0" r="1" gradientUnits="userSpaceOnUse" gradientTransform="translate(177.059 17.6024) rotate(180) scale(59.0197 17.6024)">
<stop stop-color="#E1E1E1"/>
<stop offset="1" stop-color="#FFF4DA"/>
</radialGradient>
<radialGradient id="paint22_radial_692_1890" cx="0" cy="0" r="1" gradientUnits="userSpaceOnUse" gradientTransform="translate(177.059 17.6024) rotate(180) scale(59.0197 17.6024)">
<stop stop-color="#E1E1E1"/>
<stop offset="1" stop-color="#FFF4DA"/>
</radialGradient>
<radialGradient id="paint23_radial_692_1890" cx="0" cy="0" r="1" gradientUnits="userSpaceOnUse" gradientTransform="translate(177.059 17.6024) rotate(180) scale(59.0197 17.6024)">
<stop stop-color="#E1E1E1"/>
<stop offset="1" stop-color="#FFF4DA"/>
</radialGradient>
</defs>
</svg>
