<svg width="237" height="132" viewBox="0 0 237 132" fill="none" xmlns="http://www.w3.org/2000/svg">
<path d="M50.7125 108.06C49.3889 108.487 47.9214 108.504 46.7169 107.809C44.5794 106.575 44.1412 105.154 44.5234 102.508V102.508C42.8798 103.056 42.063 104.953 43.0339 106.388C43.9977 107.812 45.0937 108.974 46.6267 110.246C47.9171 111.316 49.5696 111.855 51.2458 111.812C56.4406 111.679 59.0349 110.851 62.1257 108.72C61.1051 110.641 61.1618 111.76 61.9885 113.6C62.0605 113.76 62.2568 113.822 62.4077 113.731C64.0825 112.73 65.0039 111.892 66.2674 109.756C66.2154 114.032 66.9843 113.977 70.4091 114.933C67.5194 110.86 68.0525 109.221 70.1981 106.254C70.9958 105.151 72.1259 104.331 73.4053 103.866L78.5776 101.985C81.3342 100.982 84.3487 100.942 87.1313 101.869L104.173 107.55C104.307 107.435 104.442 107.326 104.578 107.223V104.508C104.578 103.403 105.474 102.508 106.578 102.508H108.791C109.896 102.508 110.791 103.403 110.791 104.508V105.614H111.826V103.472C111.826 102.368 110.931 101.472 109.826 101.472H105.543C104.438 101.472 103.543 102.368 103.543 103.472V106.65C98.7736 103.748 93.5321 101.584 86.7257 99.7769C82.8456 98.747 78.7534 99.0145 74.9328 100.247L50.7125 108.06Z" fill="url(#paint0_radial_692_1640)"/>
<path fill-rule="evenodd" clip-rule="evenodd" d="M118.039 111.827V108.721C115.458 105.74 114.163 105.799 111.826 105.614H110.791C108.063 105.589 106.222 105.979 104.578 107.223V107.685L104.173 107.55C103.27 108.327 102.409 109.382 101.472 110.791C94.4225 108.167 92.2419 105.859 84.6304 104.117C82.7927 103.696 80.8379 103.854 79.1733 104.739C77.1406 105.82 75.7478 107.075 74.4004 109.235C73.7976 110.201 73.7049 111.42 74.2146 112.438C75.0495 114.107 76.2498 115.417 79.1376 117.128C80.1186 117.709 81.3505 117.62 82.2784 116.957L86.28 114.099C87.2184 113.429 87.4128 112.09 86.6211 111.251C84.8302 109.354 83.7227 109.09 81.7989 109.756C83.0242 110.067 83.7473 110.456 84.396 111.688C84.7596 112.378 84.5518 113.216 84 113.767L82.2754 115.492C81.3706 116.397 79.9663 116.664 78.9055 115.948C77.3915 114.927 76.4781 113.802 75.4876 112.283C74.8937 111.372 74.8539 110.185 75.48 109.296C77.188 106.871 79.0763 106.022 82.8343 105.614C87.5138 105.758 93.9734 109.592 101.472 112.862C101.61 115.305 101.827 117.608 105.43 119.531C106.15 119.915 107.027 119.733 107.604 119.156L110.252 116.508C110.55 116.21 110.55 115.727 110.252 115.429V115.429C109.971 115.149 109.521 115.134 109.21 115.381C104.882 118.812 103.349 117.017 102.508 112.862C108.784 113.743 111.6 112.063 112.862 106.65H114.933L118.039 111.827ZM102.508 111.827C105.324 107.593 107.416 106.549 111.826 106.65C109.581 111.782 107.623 113.001 102.508 111.827Z" fill="url(#paint1_radial_692_1640)"/>
<path d="M118.039 114.933V111.827C116.112 115.763 116.189 118.074 110.791 119.075C111.96 121.038 112.806 121.636 114.933 121.146C115.324 125.201 115.717 127.472 118.039 131.5V125.287C116.703 121.107 116.952 118.865 118.039 114.933Z" fill="url(#paint2_radial_692_1640)"/>
<path d="M115.968 98.3662C116.06 94.792 116.696 93.3936 118.039 91.1182V105.614C115.722 100.811 114.342 99.4138 111.826 99.4015C113.364 97.8121 114.276 97.3638 115.968 98.3662Z" fill="url(#paint3_radial_692_1640)"/>
<path d="M185.366 108.06C186.689 108.487 188.157 108.504 189.361 107.809C191.499 106.575 191.937 105.154 191.555 102.508V102.508C193.198 103.056 194.015 104.953 193.044 106.388C192.08 107.812 190.984 108.974 189.451 110.246C188.161 111.316 186.509 111.855 184.832 111.812C179.637 111.679 177.043 110.851 173.952 108.72C174.973 110.641 174.916 111.76 174.09 113.6C174.018 113.76 173.821 113.822 173.67 113.731C171.996 112.73 171.074 111.892 169.811 109.756C169.863 114.032 169.094 113.977 165.669 114.933C168.559 110.86 168.026 109.221 165.88 106.254C165.082 105.151 163.952 104.331 162.673 103.866L157.5 101.985C154.744 100.982 151.729 100.942 148.947 101.869L131.905 107.55C131.771 107.435 131.636 107.326 131.5 107.223V104.508C131.5 103.403 130.604 102.508 129.5 102.508H127.287C126.183 102.508 125.287 103.403 125.287 104.508V105.614H124.252V103.472C124.252 102.368 125.147 101.472 126.252 101.472H130.535C131.64 101.472 132.535 102.368 132.535 103.472V106.65C137.304 103.748 142.546 101.584 149.352 99.7769C153.232 98.747 157.325 99.0145 161.145 100.247L185.366 108.06Z" fill="url(#paint4_radial_692_1640)"/>
<path fill-rule="evenodd" clip-rule="evenodd" d="M118.039 111.827V108.721C120.62 105.74 121.915 105.799 124.252 105.614H125.287C128.015 105.589 129.856 105.979 131.5 107.223V107.685L131.905 107.55C132.808 108.327 133.669 109.382 134.606 110.791C141.656 108.167 143.836 105.859 151.448 104.117C153.285 103.696 155.24 103.854 156.905 104.739C158.938 105.82 160.33 107.075 161.678 109.235C162.281 110.201 162.373 111.42 161.863 112.438C161.029 114.107 159.828 115.417 156.941 117.128C155.96 117.709 154.728 117.62 153.8 116.957L149.798 114.099C148.86 113.429 148.665 112.09 149.457 111.251C151.248 109.354 152.355 109.09 154.279 109.756C153.054 110.067 152.331 110.456 151.682 111.688C151.319 112.378 151.526 113.216 152.078 113.767L153.803 115.492C154.708 116.397 156.112 116.664 157.173 115.948C158.687 114.927 159.6 113.802 160.591 112.283C161.184 111.372 161.224 110.185 160.598 109.296C158.89 106.871 157.002 106.022 153.244 105.614C148.564 105.758 142.105 109.592 134.606 112.862C134.468 115.305 134.251 117.608 130.648 119.531C129.928 119.915 129.051 119.733 128.474 119.156L125.826 116.508C125.528 116.21 125.528 115.727 125.826 115.429V115.429C126.107 115.149 126.557 115.134 126.868 115.381C131.196 118.812 132.729 117.017 133.571 112.862C127.294 113.743 124.478 112.063 123.216 106.65H121.145L118.039 111.827ZM133.571 111.827C130.754 107.593 128.662 106.549 124.252 106.65C126.497 111.782 128.455 113.001 133.571 111.827Z" fill="url(#paint5_radial_692_1640)"/>
<path d="M118.039 114.933V111.827C119.967 115.763 119.889 118.074 125.287 119.075C124.119 121.038 123.273 121.636 121.145 121.146C120.754 125.201 120.361 127.472 118.039 131.5V125.287C119.375 121.107 119.126 118.865 118.039 114.933Z" fill="url(#paint6_radial_692_1640)"/>
<path d="M120.11 98.3662C120.019 94.792 119.382 93.3936 118.039 91.1182V105.614C120.356 100.811 121.736 99.4138 124.252 99.4015C122.714 97.8121 121.802 97.3638 120.11 98.3662Z" fill="url(#paint7_radial_692_1640)"/>
<path d="M40.5508 67.9531L48.1992 52.5273L50.9062 46.7266C51.6797 46.8125 52.8112 46.8555 54.3008 46.8555C54.8021 46.8555 55.3607 46.8411 55.9766 46.8125C56.6068 46.7839 57.2943 46.7409 58.0391 46.6836C58.0964 46.8268 58.0964 47.0703 58.0391 47.4141C57.9818 47.7578 57.9102 47.9297 57.8242 47.9297C57.4518 47.9297 57.0579 48.0299 56.6426 48.2305C56.2272 48.431 55.9193 48.6745 55.7188 48.9609C55.4609 49.3047 55.2676 49.7201 55.1387 50.207C55.0241 50.651 54.888 51.5104 54.7305 52.7852L53.0547 69.1992C52.8828 70.6745 52.7969 71.806 52.7969 72.5938C52.7969 73.1953 53.0189 73.5749 53.4629 73.7324C53.7207 73.8184 54.0286 73.8828 54.3867 73.9258C54.7591 73.9544 55.0599 73.9688 55.2891 73.9688C55.3464 73.9688 55.375 74.0977 55.375 74.3555C55.375 74.6992 55.2891 74.957 55.1172 75.1289C53.7852 75.0573 52.7253 75.0072 51.9375 74.9785C51.1641 74.9355 50.6628 74.9141 50.4336 74.9141C50.3906 74.9141 49.9896 74.9355 49.2305 74.9785C48.4857 75.0072 47.3828 75.0573 45.9219 75.1289C45.8646 75.0286 45.8359 74.957 45.8359 74.9141C45.8359 74.7422 45.8717 74.5417 45.9434 74.3125C46.015 74.0833 46.0794 73.9688 46.1367 73.9688C46.3945 73.9688 46.7168 73.9401 47.1035 73.8828C47.5046 73.8112 47.877 73.7181 48.2207 73.6035C48.5645 73.4746 48.7721 73.3385 48.8438 73.1953C49.1302 72.5365 49.3307 71.9277 49.4453 71.3691C49.474 71.2116 49.5169 70.8678 49.5742 70.3379C49.6315 69.8079 49.6745 69.4714 49.7031 69.3281L51.4219 52.5703C51.5078 51.7109 51.5508 51.1523 51.5508 50.8945C51.5508 50.7227 51.4648 50.6367 51.293 50.6367C51.2786 50.6367 51.2357 50.694 51.1641 50.8086L39.9492 73.668C39.806 73.9258 39.5339 74.2266 39.1328 74.5703C38.7318 74.9141 38.3594 75.0859 38.0156 75.0859C37.8867 75.0859 37.7721 75.0573 37.6719 75L34.0195 50.6367C34.0052 50.5794 33.9766 50.5508 33.9336 50.5508C33.8477 50.5508 33.8047 50.5794 33.8047 50.6367L28.7773 69.1562C28.2331 71.1328 27.9609 72.3216 27.9609 72.7227C27.9609 72.9232 28.1686 73.1237 28.584 73.3242C29.0137 73.5104 29.4648 73.668 29.9375 73.7969C30.4245 73.9115 30.7396 73.9688 30.8828 73.9688C30.9401 73.9688 30.9688 74.0547 30.9688 74.2266C30.9688 74.556 30.8971 74.8568 30.7539 75.1289C29.4219 75.0573 28.3835 75.0072 27.6387 74.9785C26.8939 74.9355 26.4427 74.9141 26.2852 74.9141C26.2422 74.9141 25.8268 74.9355 25.0391 74.9785C24.2513 75.0072 23.0911 75.0573 21.5586 75.1289C21.5013 75.0716 21.4727 74.9284 21.4727 74.6992C21.4727 74.2122 21.5729 73.9688 21.7734 73.9688C22.0026 73.9688 22.3678 73.9186 22.8691 73.8184C23.3704 73.7038 23.8431 73.5677 24.2871 73.4102C24.7454 73.2383 25.0104 73.0807 25.082 72.9375C25.5833 71.9922 26.056 70.7174 26.5 69.1133L31.1836 52.3125C31.2982 51.7539 31.4199 51.2025 31.5488 50.6582C31.6777 50.0996 31.7422 49.5625 31.7422 49.0469C31.7422 48.832 31.5417 48.6387 31.1406 48.4668C30.7396 48.2949 30.3027 48.1589 29.8301 48.0586C29.3717 47.944 29.0352 47.8867 28.8203 47.8867C28.763 47.8867 28.7344 47.7865 28.7344 47.5859C28.7344 47.1133 28.8203 46.8268 28.9922 46.7266C30.0521 46.7552 30.9186 46.7767 31.5918 46.791C32.265 46.8053 32.7448 46.8125 33.0312 46.8125C33.8477 46.8125 34.5924 46.8053 35.2656 46.791C35.9531 46.7767 36.569 46.7552 37.1133 46.7266C37.2422 47.901 37.5788 50.2643 38.123 53.8164C38.6673 57.3542 39.4193 62.0807 40.3789 67.9961C40.3789 68.0247 40.3932 68.0391 40.4219 68.0391C40.5078 68.0391 40.5508 68.0104 40.5508 67.9531ZM64.1406 56.3086C64.599 56.3086 64.957 56.5163 65.2148 56.9316C65.4727 57.347 65.6016 57.8841 65.6016 58.543C65.6016 59.3021 65.5156 60.0612 65.3438 60.8203L63.8398 67.9102C63.6393 68.7839 63.5391 69.5573 63.5391 70.2305C63.5391 71.4622 63.8112 72.0781 64.3555 72.0781C64.6706 72.0781 65.0573 71.8991 65.5156 71.541C65.9883 71.1829 66.4753 70.7246 66.9766 70.166C67.4922 69.6074 67.972 69.0345 68.416 68.4473C69.2324 67.373 70.0059 66.0625 70.7363 64.5156C71.4668 62.9688 71.9753 61.4362 72.2617 59.918L72.9922 56.5664C73.3789 56.4518 73.8229 56.3945 74.3242 56.3945C74.8112 56.3945 75.2982 56.4518 75.7852 56.5664L73.1211 70.4453C73.0352 70.7891 72.9922 71.1471 72.9922 71.5195C72.9922 72.2357 73.1354 72.5938 73.4219 72.5938C73.7799 72.5938 74.2096 72.3431 74.7109 71.8418C75.2122 71.3262 75.6419 70.8893 76 70.5312L76.2578 70.2305C76.3151 70.2305 76.4225 70.3665 76.5801 70.6387C76.7376 70.9108 76.8164 71.1042 76.8164 71.2188C76.5729 71.6341 76.1289 72.1641 75.4844 72.8086C74.8542 73.4531 74.1667 74.026 73.4219 74.5273C72.6771 75.0143 72.0039 75.2578 71.4023 75.2578C70.944 75.2578 70.5859 75.0501 70.3281 74.6348C70.0703 74.2194 69.9414 73.6823 69.9414 73.0234C69.9414 72.5938 70.0417 71.8346 70.2422 70.7461L71.0156 66.793C70.7435 67.3086 70.1562 68.1966 69.2539 69.457C68.6667 70.2734 67.9577 71.1328 67.127 72.0352C66.3105 72.9375 65.4941 73.7038 64.6777 74.334C63.8613 74.9499 63.1667 75.2578 62.5938 75.2578C61.1615 75.2578 60.4453 74.3125 60.4453 72.4219C60.4453 71.0755 60.6458 69.5143 61.0469 67.7383L62.3359 61.7656C62.4792 60.7773 62.5508 60.2044 62.5508 60.0469C62.5508 59.3307 62.4076 58.9727 62.1211 58.9727C61.8776 58.9727 61.5124 59.2018 61.0254 59.6602C60.7962 59.8893 60.5456 60.14 60.2734 60.4121C60.0156 60.6842 59.8438 60.8776 59.7578 60.9922C59.7005 60.9922 59.5931 60.8561 59.4355 60.584C59.278 60.3118 59.1992 60.1185 59.1992 60.0039C59.4284 59.6172 59.8438 59.1374 60.4453 58.5645C61.0469 57.9772 61.6914 57.4544 62.3789 56.9961C63.0664 56.5378 63.6536 56.3086 64.1406 56.3086ZM92.6289 56.3086C94.0612 56.3086 94.7773 57.2539 94.7773 59.1445C94.7773 60.4766 94.5768 62.0378 94.1758 63.8281L92.7578 70.4453C92.6719 70.7891 92.6289 71.1471 92.6289 71.5195C92.6289 72.2357 92.7721 72.5938 93.0586 72.5938C93.4167 72.5938 93.8464 72.3431 94.3477 71.8418C94.849 71.3262 95.2786 70.8893 95.6367 70.5312L95.8945 70.2305C95.9518 70.2305 96.0592 70.3665 96.2168 70.6387C96.3743 70.9108 96.4531 71.1042 96.4531 71.2188C96.2096 71.6341 95.7656 72.1641 95.1211 72.8086C94.4909 73.4531 93.8034 74.026 93.0586 74.5273C92.3138 75.0143 91.6406 75.2578 91.0391 75.2578C90.5807 75.2578 90.2227 75.0501 89.9648 74.6348C89.707 74.2194 89.5781 73.6823 89.5781 73.0234C89.5781 72.5938 89.6784 71.8346 89.8789 70.7461L91.3828 63.6562C91.5833 62.6823 91.6836 61.9089 91.6836 61.3359C91.6836 60.1042 91.4115 59.4883 90.8672 59.4883C90.3945 59.4883 89.7572 59.8464 88.9551 60.5625C88.153 61.2643 87.3151 62.2025 86.4414 63.377C85.582 64.5514 84.8014 65.862 84.0996 67.3086C83.3978 68.7409 82.9036 70.1875 82.6172 71.6484L81.8867 75C81.5 75.1146 81.056 75.1719 80.5547 75.1719C80.0677 75.1719 79.5807 75.1146 79.0938 75L83.7344 50.9805C83.9922 49.7057 84.1211 48.9466 84.1211 48.7031C84.1211 48.1589 83.2474 47.8867 81.5 47.8867C81.4141 47.8867 81.3711 47.8008 81.3711 47.6289C81.3711 47.2852 81.4857 46.9987 81.7148 46.7695C83.5768 46.5977 85.3815 46.1966 87.1289 45.5664C87.3008 45.6523 87.3867 45.9245 87.3867 46.3828C87.3867 46.5833 87.2005 47.6576 86.8281 49.6055L83.8633 64.7734C84.1354 64.2865 84.7585 63.3984 85.7324 62.1094C86.377 61.2643 87.1217 60.3978 87.9668 59.5098C88.8262 58.6074 89.6712 57.8483 90.502 57.2324C91.347 56.6165 92.056 56.3086 92.6289 56.3086ZM111.148 56.3086C112.208 56.3086 113.254 56.4948 114.285 56.8672L111.664 70.4453C111.578 70.7891 111.535 71.1471 111.535 71.5195C111.535 72.2357 111.678 72.5938 111.965 72.5938C112.323 72.5938 112.753 72.3431 113.254 71.8418C113.755 71.3262 114.185 70.8893 114.543 70.5312L114.801 70.2305C114.858 70.2305 114.965 70.3665 115.123 70.6387C115.281 70.9108 115.359 71.1042 115.359 71.2188C115.116 71.6341 114.672 72.1641 114.027 72.8086C113.397 73.4531 112.71 74.026 111.965 74.5273C111.22 75.0143 110.547 75.2578 109.945 75.2578C109.487 75.2578 109.129 75.0501 108.871 74.6348C108.613 74.2194 108.484 73.6823 108.484 73.0234C108.484 72.5794 108.585 71.8203 108.785 70.7461L108.936 69.9941C108.979 69.7936 109 69.6719 109 69.6289C108.771 70.0586 108.441 70.5885 108.012 71.2188C107.582 71.8346 107.088 72.4505 106.529 73.0664C105.971 73.6823 105.383 74.1979 104.768 74.6133C104.152 75.0143 103.543 75.2148 102.941 75.2148C101.681 75.2148 100.686 74.6491 99.9551 73.5176C99.2246 72.3861 98.8594 71.0182 98.8594 69.4141C98.8594 67.3659 99.4681 65.3249 100.686 63.291C101.502 61.916 102.476 60.7057 103.607 59.6602C104.753 58.6146 105.978 57.7982 107.281 57.2109C108.585 56.6094 109.874 56.3086 111.148 56.3086ZM109.344 58.2852C108.499 58.2852 107.646 58.5859 106.787 59.1875C105.928 59.7747 105.14 60.5697 104.424 61.5723C103.708 62.5605 103.128 63.6634 102.684 64.8809C102.254 66.084 102.039 67.2943 102.039 68.5117C102.039 71.319 102.77 72.7227 104.23 72.7227C104.746 72.7227 105.305 72.4362 105.906 71.8633C106.508 71.2904 107.102 70.5312 107.689 69.5859C108.277 68.6406 108.792 67.6165 109.236 66.5137C109.695 65.3965 110.031 64.3008 110.246 63.2266L111.105 58.8438C110.762 58.4714 110.174 58.2852 109.344 58.2852ZM131.945 56.3086C132.719 56.3086 133.313 56.5378 133.729 56.9961C134.144 57.4544 134.395 57.9342 134.48 58.4355C134.566 58.9368 134.609 59.5885 134.609 60.3906C134.609 60.9206 134.409 62.1953 134.008 64.2148C134.48 63.3984 135.068 62.5319 135.77 61.6152C136.471 60.6986 137.209 59.8392 137.982 59.0371C138.756 58.235 139.501 57.5833 140.217 57.082C140.933 56.5664 141.542 56.3086 142.043 56.3086C142.988 56.3086 143.633 56.5449 143.977 57.0176C144.32 57.4902 144.492 58.1992 144.492 59.1445C144.492 60.4766 144.292 62.0378 143.891 63.8281L142.473 70.4453C142.387 70.7891 142.344 71.1471 142.344 71.5195C142.344 72.2357 142.487 72.5938 142.773 72.5938C143.132 72.5938 143.561 72.3431 144.062 71.8418C144.564 71.3262 144.993 70.8893 145.352 70.5312L145.609 70.2305C145.667 70.2305 145.774 70.3665 145.932 70.6387C146.089 70.9108 146.168 71.1042 146.168 71.2188C145.924 71.6341 145.48 72.1641 144.836 72.8086C144.206 73.4531 143.518 74.026 142.773 74.5273C142.029 75.0143 141.355 75.2578 140.754 75.2578C140.296 75.2578 139.938 75.0501 139.68 74.6348C139.422 74.2194 139.293 73.6823 139.293 73.0234C139.293 72.5938 139.393 71.8346 139.594 70.7461L141.098 63.6562C141.298 62.6823 141.398 61.9089 141.398 61.3359C141.398 60.8346 141.355 60.4049 141.27 60.0469C141.198 59.6745 140.969 59.4883 140.582 59.4883C140.095 59.4883 139.458 59.832 138.67 60.5195C137.896 61.207 137.094 62.1165 136.264 63.248C135.433 64.3652 134.688 65.597 134.029 66.9434C133.37 68.2754 132.919 69.6003 132.676 70.918L131.902 75H129.023L131.43 62.7969C131.544 62.1523 131.602 61.6081 131.602 61.1641C131.602 60.0469 131.315 59.4883 130.742 59.4883C130.241 59.4883 129.604 59.8678 128.83 60.627C128.057 61.3861 127.262 62.3672 126.445 63.5703C125.629 64.7734 124.898 66.0553 124.254 67.416C123.609 68.7624 123.165 70.0299 122.922 71.2188L122.148 75C121.346 75.1146 120.859 75.1719 120.688 75.1719C120.544 75.1719 120.072 75.1146 119.27 75L121.848 61.7656C121.991 60.7773 122.062 60.2044 122.062 60.0469C122.062 59.3307 121.919 58.9727 121.633 58.9727C121.389 58.9727 121.024 59.2018 120.537 59.6602C120.308 59.8893 120.057 60.14 119.785 60.4121C119.527 60.6842 119.355 60.8776 119.27 60.9922C119.212 60.9922 119.105 60.8561 118.947 60.584C118.79 60.3118 118.711 60.1185 118.711 60.0039C118.94 59.6172 119.355 59.1374 119.957 58.5645C120.559 57.9772 121.203 57.4544 121.891 56.9961C122.578 56.5378 123.165 56.3086 123.652 56.3086C124.111 56.3086 124.469 56.5163 124.727 56.9316C124.984 57.347 125.113 57.8841 125.113 58.543C125.113 59.1732 125.027 59.9323 124.855 60.8203L124.082 64.8164C124.612 63.8997 125.221 62.9473 125.908 61.959C126.61 60.9707 127.326 60.0469 128.057 59.1875C128.801 58.3281 129.51 57.6335 130.184 57.1035C130.857 56.5736 131.444 56.3086 131.945 56.3086ZM162.711 56.3086C163.484 56.3086 164.079 56.5378 164.494 56.9961C164.91 57.4544 165.16 57.9342 165.246 58.4355C165.332 58.9368 165.375 59.5885 165.375 60.3906C165.375 60.9206 165.174 62.1953 164.773 64.2148C165.246 63.3984 165.833 62.5319 166.535 61.6152C167.237 60.6986 167.975 59.8392 168.748 59.0371C169.521 58.235 170.266 57.5833 170.982 57.082C171.699 56.5664 172.307 56.3086 172.809 56.3086C173.754 56.3086 174.398 56.5449 174.742 57.0176C175.086 57.4902 175.258 58.1992 175.258 59.1445C175.258 60.4766 175.057 62.0378 174.656 63.8281L173.238 70.4453C173.152 70.7891 173.109 71.1471 173.109 71.5195C173.109 72.2357 173.253 72.5938 173.539 72.5938C173.897 72.5938 174.327 72.3431 174.828 71.8418C175.329 71.3262 175.759 70.8893 176.117 70.5312L176.375 70.2305C176.432 70.2305 176.54 70.3665 176.697 70.6387C176.855 70.9108 176.934 71.1042 176.934 71.2188C176.69 71.6341 176.246 72.1641 175.602 72.8086C174.971 73.4531 174.284 74.026 173.539 74.5273C172.794 75.0143 172.121 75.2578 171.52 75.2578C171.061 75.2578 170.703 75.0501 170.445 74.6348C170.188 74.2194 170.059 73.6823 170.059 73.0234C170.059 72.5938 170.159 71.8346 170.359 70.7461L171.863 63.6562C172.064 62.6823 172.164 61.9089 172.164 61.3359C172.164 60.8346 172.121 60.4049 172.035 60.0469C171.964 59.6745 171.734 59.4883 171.348 59.4883C170.861 59.4883 170.223 59.832 169.436 60.5195C168.662 61.207 167.86 62.1165 167.029 63.248C166.199 64.3652 165.454 65.597 164.795 66.9434C164.136 68.2754 163.685 69.6003 163.441 70.918L162.668 75H159.789L162.195 62.7969C162.31 62.1523 162.367 61.6081 162.367 61.1641C162.367 60.0469 162.081 59.4883 161.508 59.4883C161.007 59.4883 160.369 59.8678 159.596 60.627C158.822 61.3861 158.027 62.3672 157.211 63.5703C156.395 64.7734 155.664 66.0553 155.02 67.416C154.375 68.7624 153.931 70.0299 153.688 71.2188L152.914 75C152.112 75.1146 151.625 75.1719 151.453 75.1719C151.31 75.1719 150.837 75.1146 150.035 75L152.613 61.7656C152.757 60.7773 152.828 60.2044 152.828 60.0469C152.828 59.3307 152.685 58.9727 152.398 58.9727C152.155 58.9727 151.79 59.2018 151.303 59.6602C151.074 59.8893 150.823 60.14 150.551 60.4121C150.293 60.6842 150.121 60.8776 150.035 60.9922C149.978 60.9922 149.87 60.8561 149.713 60.584C149.555 60.3118 149.477 60.1185 149.477 60.0039C149.706 59.6172 150.121 59.1374 150.723 58.5645C151.324 57.9772 151.969 57.4544 152.656 56.9961C153.344 56.5378 153.931 56.3086 154.418 56.3086C154.876 56.3086 155.234 56.5163 155.492 56.9316C155.75 57.347 155.879 57.8841 155.879 58.543C155.879 59.1732 155.793 59.9323 155.621 60.8203L154.848 64.8164C155.378 63.8997 155.986 62.9473 156.674 61.959C157.376 60.9707 158.092 60.0469 158.822 59.1875C159.567 58.3281 160.276 57.6335 160.949 57.1035C161.622 56.5736 162.21 56.3086 162.711 56.3086ZM191.586 56.3086C192.646 56.3086 193.691 56.4948 194.723 56.8672L192.102 70.4453C192.016 70.7891 191.973 71.1471 191.973 71.5195C191.973 72.2357 192.116 72.5938 192.402 72.5938C192.76 72.5938 193.19 72.3431 193.691 71.8418C194.193 71.3262 194.622 70.8893 194.98 70.5312L195.238 70.2305C195.296 70.2305 195.403 70.3665 195.561 70.6387C195.718 70.9108 195.797 71.1042 195.797 71.2188C195.553 71.6341 195.109 72.1641 194.465 72.8086C193.835 73.4531 193.147 74.026 192.402 74.5273C191.658 75.0143 190.984 75.2578 190.383 75.2578C189.924 75.2578 189.566 75.0501 189.309 74.6348C189.051 74.2194 188.922 73.6823 188.922 73.0234C188.922 72.5794 189.022 71.8203 189.223 70.7461L189.373 69.9941C189.416 69.7936 189.438 69.6719 189.438 69.6289C189.208 70.0586 188.879 70.5885 188.449 71.2188C188.02 71.8346 187.525 72.4505 186.967 73.0664C186.408 73.6823 185.821 74.1979 185.205 74.6133C184.589 75.0143 183.98 75.2148 183.379 75.2148C182.118 75.2148 181.123 74.6491 180.393 73.5176C179.662 72.3861 179.297 71.0182 179.297 69.4141C179.297 67.3659 179.906 65.3249 181.123 63.291C181.939 61.916 182.913 60.7057 184.045 59.6602C185.191 58.6146 186.415 57.7982 187.719 57.2109C189.022 56.6094 190.311 56.3086 191.586 56.3086ZM189.781 58.2852C188.936 58.2852 188.084 58.5859 187.225 59.1875C186.365 59.7747 185.577 60.5697 184.861 61.5723C184.145 62.5605 183.565 63.6634 183.121 64.8809C182.691 66.084 182.477 67.2943 182.477 68.5117C182.477 71.319 183.207 72.7227 184.668 72.7227C185.184 72.7227 185.742 72.4362 186.344 71.8633C186.945 71.2904 187.54 70.5312 188.127 69.5859C188.714 68.6406 189.23 67.6165 189.674 66.5137C190.132 65.3965 190.469 64.3008 190.684 63.2266L191.543 58.8438C191.199 58.4714 190.612 58.2852 189.781 58.2852ZM216.035 46.3828L215.391 49.6055L211.352 70.4453C211.266 70.7891 211.223 71.1471 211.223 71.5195C211.223 72.2357 211.366 72.5938 211.652 72.5938C212.01 72.5938 212.44 72.3431 212.941 71.8418C213.443 71.3262 213.872 70.8893 214.23 70.5312L214.488 70.2305C214.546 70.2305 214.653 70.3665 214.811 70.6387C214.968 70.9108 215.047 71.1042 215.047 71.2188C214.803 71.6341 214.359 72.1641 213.715 72.8086C213.085 73.4531 212.397 74.026 211.652 74.5273C210.908 75.0143 210.234 75.2578 209.633 75.2578C209.174 75.2578 208.816 75.0501 208.559 74.6348C208.301 74.2194 208.172 73.6823 208.172 73.0234C208.172 72.5938 208.272 71.8346 208.473 70.7461C208.501 70.6029 208.551 70.388 208.623 70.1016C208.695 69.8151 208.73 69.6432 208.73 69.5859C208.544 69.9154 208.337 70.252 208.107 70.5957C207.893 70.9395 207.663 71.2904 207.42 71.6484C207.09 72.1354 206.646 72.6582 206.088 73.2168C205.544 73.7611 204.964 74.2337 204.348 74.6348C203.746 75.0215 203.188 75.2148 202.672 75.2148C201.354 75.2148 200.337 74.6491 199.621 73.5176C198.905 72.3861 198.547 71.0182 198.547 69.4141C198.547 67.8672 198.905 66.3203 199.621 64.7734C200.352 63.2266 201.311 61.8158 202.5 60.541C203.689 59.2663 204.999 58.2422 206.432 57.4688C207.878 56.6953 209.318 56.3086 210.75 56.3086H211.309L212.512 49.9062C212.598 49.4909 212.641 49.0898 212.641 48.7031C212.641 48.1589 211.767 47.8867 210.02 47.8867C209.934 47.8867 209.891 47.8008 209.891 47.6289C209.891 47.2852 210.005 46.9987 210.234 46.7695C212.182 46.5977 214.03 46.1966 215.777 45.5664C215.949 45.6667 216.035 45.9388 216.035 46.3828ZM209.934 63.1406L210.449 60.3477C210.564 59.8034 210.507 59.3236 210.277 58.9082C210.048 58.4928 209.661 58.2852 209.117 58.2852C208.243 58.2852 207.37 58.5859 206.496 59.1875C205.622 59.7891 204.827 60.5911 204.111 61.5938C203.395 62.582 202.815 63.6849 202.371 64.9023C201.941 66.1055 201.727 67.3229 201.727 68.5547C201.727 71.3333 202.457 72.7227 203.918 72.7227C204.448 72.7227 205.014 72.4362 205.615 71.8633C206.231 71.276 206.826 70.5098 207.398 69.5645C207.971 68.6191 208.48 67.5879 208.924 66.4707C209.382 65.3392 209.719 64.2292 209.934 63.1406Z" fill="white"/>
<path d="M0 14.4961C6.30012 20.0984 15.0791 19.1979 30.687 15.1421C32.2497 14.736 33.9168 14.9601 35.3059 15.7832L61.0905 31.063L35.3304 19.6141C33.9205 18.9874 32.3183 18.9353 30.8588 19.4358C12.5496 25.7159 4.73674 24.7283 0 14.4961Z" fill="url(#paint8_radial_692_1640)"/>
<path d="M16.5669 25.8858C22.7094 27.5488 34.4861 19.1752 43.5027 24.2129C35.7991 20.3448 24.9274 34.7378 16.5669 25.8858Z" fill="url(#paint9_radial_692_1640)"/>
<path d="M42.4528 34.1693C40.4746 32.9379 39.8039 31.791 39.5364 30.2054C39.314 28.8871 40.2138 27.6374 41.514 27.3262C46.4064 26.1551 49.6595 27.3172 54.8779 31.063C50.3759 26.3362 46.8249 25.2844 39.6469 25.78C38.7972 25.8387 38.0191 26.2751 37.5081 26.9564L36.1669 28.7446C35.6047 29.4943 35.6307 30.5432 36.2784 31.2205C38.4425 33.4837 39.9798 34.1156 42.4528 34.1693Z" fill="url(#paint10_radial_692_1640)"/>
<path d="M61.0905 28.9921C48.8725 19.5072 53.131 18.6378 60.0551 10.3543C56.6285 8.93238 54.8937 8.83857 52.8071 12.4252C51.2879 8.29387 49.7783 6.42726 45.559 4.14173C43.8524 8.52031 44.6321 10.6991 46.5945 14.4961C42.9378 12.0347 40.7471 11.3823 36.2402 13.4606C46.3046 17.727 45.2926 18.8748 61.0905 28.9921Z" fill="url(#paint11_radial_692_1640)"/>
<path d="M78.6929 22.7441C78.6929 22.1918 79.1406 21.7441 79.6929 21.7441H79.7638C80.3161 21.7441 80.7638 22.1918 80.7638 22.7441V25.9213C80.7638 26.4735 80.3161 26.9213 79.7638 26.9213H74.4803C73.3757 26.9213 72.4803 26.0258 72.4803 24.9213V19.6024C72.4803 18.4978 73.3757 17.6024 74.4803 17.6024H78.7281C80.6137 17.6024 82.4755 18.023 84.178 18.8337V18.8337C85.2965 19.3663 86.1249 20.3629 86.4441 21.5599L88.3399 28.6695C89.2063 31.9182 86.6836 35.0788 83.3237 34.9544L68.0679 34.3894C64.7776 34.2675 62.2002 31.5169 62.2923 28.2256L62.6948 13.8426C62.7856 10.5955 65.4441 8.01038 68.6924 8.01038H83.0387C86.0229 8.01038 88.8896 9.21712 90.915 11.4088C101.807 23.194 109.097 33.3225 115.395 32.2299C115.685 32.1796 115.968 32.3916 115.968 32.686V32.686C115.968 32.9325 115.766 33.1318 115.519 33.1285C109.37 33.045 105.37 32.4313 87.653 13.254C86.5367 12.0456 85.0793 11.1983 83.4735 10.8414L77.8584 9.59364C77.0431 9.41248 76.199 9.4035 75.3801 9.56728L71.091 10.4251C68.2865 10.986 66.2677 13.4485 66.2677 16.3086V27.0984C66.2677 29.8599 68.5063 32.0984 71.2677 32.0984H80.9055C83.1146 32.0984 84.9055 30.3076 84.9055 28.0984V22.6378C84.9055 20.4287 83.1146 18.6378 80.9055 18.6378H76.5512C75.4466 18.6378 74.5512 19.5332 74.5512 20.6378V24.8858C74.5512 25.4381 74.9989 25.8858 75.5512 25.8858H77.6929C78.2452 25.8858 78.6929 25.4381 78.6929 24.8858V22.7441Z" fill="url(#paint12_radial_692_1640)"/>
<path d="M104.412 33.0631C96.4743 29.9513 88.3242 12.4066 78.6929 13.4606C91.6665 19.2326 92.9183 31.4785 104.412 33.0631Z" fill="url(#paint13_radial_692_1640)"/>
<path d="M111.827 30.0276C106.485 21.6827 106.361 16.9143 110.791 8.28346C105.363 9.71409 97.6256 19.5114 111.827 30.0276Z" fill="url(#paint14_radial_692_1640)"/>
<path d="M118.039 10.3543C113.102 14.0549 110.405 23.2793 118.039 32.0984C106.33 25.6888 109.793 12.7713 118.039 0V10.3543Z" fill="url(#paint15_radial_692_1640)"/>
<path d="M236.079 14.4961C229.778 20.0984 221 19.1979 205.392 15.1421C203.829 14.736 202.162 14.9601 200.773 15.7832L174.988 31.063L200.748 19.6141C202.158 18.9874 203.76 18.9353 205.22 19.4358C223.529 25.7159 231.342 24.7283 236.079 14.4961Z" fill="url(#paint16_radial_692_1640)"/>
<path d="M219.512 25.8858C213.369 27.5488 201.593 19.1752 192.576 24.2129C200.279 20.3448 211.151 34.7378 219.512 25.8858Z" fill="url(#paint17_radial_692_1640)"/>
<path d="M193.626 34.1693C195.604 32.9379 196.275 31.791 196.542 30.2054C196.765 28.8871 195.865 27.6374 194.565 27.3262C189.672 26.1551 186.419 27.3172 181.201 31.063C185.703 26.3362 189.254 25.2844 196.432 25.78C197.281 25.8387 198.06 26.2751 198.571 26.9564L199.912 28.7446C200.474 29.4943 200.448 30.5432 199.8 31.2205C197.636 33.4837 196.099 34.1156 193.626 34.1693Z" fill="url(#paint18_radial_692_1640)"/>
<path d="M174.988 28.9921C187.206 19.5072 182.948 18.6378 176.024 10.3543C179.45 8.93238 181.185 8.83857 183.272 12.4252C184.791 8.29387 186.3 6.42726 190.52 4.14173C192.226 8.52031 191.446 10.6991 189.484 14.4961C193.141 12.0347 195.331 11.3823 199.838 13.4606C189.774 17.727 190.786 18.8748 174.988 28.9921Z" fill="url(#paint19_radial_692_1640)"/>
<path d="M157.386 22.7441C157.386 22.1918 156.938 21.7441 156.386 21.7441H156.315C155.763 21.7441 155.315 22.1918 155.315 22.7441V25.9213C155.315 26.4735 155.763 26.9213 156.315 26.9213H161.598C162.703 26.9213 163.598 26.0258 163.598 24.9213V19.6024C163.598 18.4978 162.703 17.6024 161.598 17.6024H157.351C155.465 17.6024 153.603 18.023 151.901 18.8337V18.8337C150.782 19.3663 149.954 20.3629 149.635 21.5599L147.739 28.6695C146.872 31.9182 149.395 35.0788 152.755 34.9544L168.011 34.3894C171.301 34.2675 173.878 31.5169 173.786 28.2256L173.384 13.8426C173.293 10.5955 170.635 8.01038 167.386 8.01038H153.04C150.056 8.01038 147.189 9.21712 145.164 11.4088C134.272 23.194 126.982 33.3225 120.683 32.2299C120.393 32.1796 120.11 32.3916 120.11 32.686V32.686C120.11 32.9325 120.313 33.1318 120.559 33.1285C126.708 33.045 130.709 32.4313 148.426 13.254C149.542 12.0456 150.999 11.1983 152.605 10.8414L158.22 9.59364C159.035 9.41248 159.88 9.4035 160.698 9.56728L164.988 10.4251C167.792 10.986 169.811 13.4485 169.811 16.3086V27.0984C169.811 29.8599 167.572 32.0984 164.811 32.0984H155.173C152.964 32.0984 151.173 30.3076 151.173 28.0984V22.6378C151.173 20.4287 152.964 18.6378 155.173 18.6378H159.527C160.632 18.6378 161.527 19.5332 161.527 20.6378V24.8858C161.527 25.4381 161.08 25.8858 160.527 25.8858H158.386C157.833 25.8858 157.386 25.4381 157.386 24.8858V22.7441Z" fill="url(#paint20_radial_692_1640)"/>
<path d="M131.666 33.0631C139.604 29.9513 147.754 12.4066 157.386 13.4606C144.412 19.2326 143.16 31.4785 131.666 33.0631Z" fill="url(#paint21_radial_692_1640)"/>
<path d="M124.252 30.0276C129.594 21.6827 129.718 16.9143 125.287 8.28346C130.716 9.71409 138.453 19.5114 124.252 30.0276Z" fill="url(#paint22_radial_692_1640)"/>
<path d="M118.039 10.3543C122.976 14.0549 125.673 23.2793 118.039 32.0984C129.749 25.6888 126.286 12.7713 118.039 0V10.3543Z" fill="url(#paint23_radial_692_1640)"/>
<defs>
<radialGradient id="paint0_radial_692_1640" cx="0" cy="0" r="1" gradientUnits="userSpaceOnUse" gradientTransform="translate(79.728 111.309) scale(38.311 20.1909)">
<stop stop-color="#E1E1E1"/>
<stop offset="1" stop-color="#FFF4DA"/>
</radialGradient>
<radialGradient id="paint1_radial_692_1640" cx="0" cy="0" r="1" gradientUnits="userSpaceOnUse" gradientTransform="translate(79.728 111.309) scale(38.311 20.1909)">
<stop stop-color="#E1E1E1"/>
<stop offset="1" stop-color="#FFF4DA"/>
</radialGradient>
<radialGradient id="paint2_radial_692_1640" cx="0" cy="0" r="1" gradientUnits="userSpaceOnUse" gradientTransform="translate(79.728 111.309) scale(38.311 20.1909)">
<stop stop-color="#E1E1E1"/>
<stop offset="1" stop-color="#FFF4DA"/>
</radialGradient>
<radialGradient id="paint3_radial_692_1640" cx="0" cy="0" r="1" gradientUnits="userSpaceOnUse" gradientTransform="translate(79.728 111.309) scale(38.311 20.1909)">
<stop stop-color="#E1E1E1"/>
<stop offset="1" stop-color="#FFF4DA"/>
</radialGradient>
<radialGradient id="paint4_radial_692_1640" cx="0" cy="0" r="1" gradientUnits="userSpaceOnUse" gradientTransform="translate(156.35 111.309) rotate(180) scale(38.311 20.1909)">
<stop stop-color="#E1E1E1"/>
<stop offset="1" stop-color="#FFF4DA"/>
</radialGradient>
<radialGradient id="paint5_radial_692_1640" cx="0" cy="0" r="1" gradientUnits="userSpaceOnUse" gradientTransform="translate(156.35 111.309) rotate(180) scale(38.311 20.1909)">
<stop stop-color="#E1E1E1"/>
<stop offset="1" stop-color="#FFF4DA"/>
</radialGradient>
<radialGradient id="paint6_radial_692_1640" cx="0" cy="0" r="1" gradientUnits="userSpaceOnUse" gradientTransform="translate(156.35 111.309) rotate(180) scale(38.311 20.1909)">
<stop stop-color="#E1E1E1"/>
<stop offset="1" stop-color="#FFF4DA"/>
</radialGradient>
<radialGradient id="paint7_radial_692_1640" cx="0" cy="0" r="1" gradientUnits="userSpaceOnUse" gradientTransform="translate(156.35 111.309) rotate(180) scale(38.311 20.1909)">
<stop stop-color="#E1E1E1"/>
<stop offset="1" stop-color="#FFF4DA"/>
</radialGradient>
<radialGradient id="paint8_radial_692_1640" cx="0" cy="0" r="1" gradientUnits="userSpaceOnUse" gradientTransform="translate(59.0197 17.6024) scale(59.0197 17.6024)">
<stop stop-color="#E1E1E1"/>
<stop offset="1" stop-color="#FFF4DA"/>
</radialGradient>
<radialGradient id="paint9_radial_692_1640" cx="0" cy="0" r="1" gradientUnits="userSpaceOnUse" gradientTransform="translate(59.0197 17.6024) scale(59.0197 17.6024)">
<stop stop-color="#E1E1E1"/>
<stop offset="1" stop-color="#FFF4DA"/>
</radialGradient>
<radialGradient id="paint10_radial_692_1640" cx="0" cy="0" r="1" gradientUnits="userSpaceOnUse" gradientTransform="translate(59.0197 17.6024) scale(59.0197 17.6024)">
<stop stop-color="#E1E1E1"/>
<stop offset="1" stop-color="#FFF4DA"/>
</radialGradient>
<radialGradient id="paint11_radial_692_1640" cx="0" cy="0" r="1" gradientUnits="userSpaceOnUse" gradientTransform="translate(59.0197 17.6024) scale(59.0197 17.6024)">
<stop stop-color="#E1E1E1"/>
<stop offset="1" stop-color="#FFF4DA"/>
</radialGradient>
<radialGradient id="paint12_radial_692_1640" cx="0" cy="0" r="1" gradientUnits="userSpaceOnUse" gradientTransform="translate(59.0197 17.6024) scale(59.0197 17.6024)">
<stop stop-color="#E1E1E1"/>
<stop offset="1" stop-color="#FFF4DA"/>
</radialGradient>
<radialGradient id="paint13_radial_692_1640" cx="0" cy="0" r="1" gradientUnits="userSpaceOnUse" gradientTransform="translate(59.0197 17.6024) scale(59.0197 17.6024)">
<stop stop-color="#E1E1E1"/>
<stop offset="1" stop-color="#FFF4DA"/>
</radialGradient>
<radialGradient id="paint14_radial_692_1640" cx="0" cy="0" r="1" gradientUnits="userSpaceOnUse" gradientTransform="translate(59.0197 17.6024) scale(59.0197 17.6024)">
<stop stop-color="#E1E1E1"/>
<stop offset="1" stop-color="#FFF4DA"/>
</radialGradient>
<radialGradient id="paint15_radial_692_1640" cx="0" cy="0" r="1" gradientUnits="userSpaceOnUse" gradientTransform="translate(59.0197 17.6024) scale(59.0197 17.6024)">
<stop stop-color="#E1E1E1"/>
<stop offset="1" stop-color="#FFF4DA"/>
</radialGradient>
<radialGradient id="paint16_radial_692_1640" cx="0" cy="0" r="1" gradientUnits="userSpaceOnUse" gradientTransform="translate(177.059 17.6024) rotate(180) scale(59.0197 17.6024)">
<stop stop-color="#E1E1E1"/>
<stop offset="1" stop-color="#FFF4DA"/>
</radialGradient>
<radialGradient id="paint17_radial_692_1640" cx="0" cy="0" r="1" gradientUnits="userSpaceOnUse" gradientTransform="translate(177.059 17.6024) rotate(180) scale(59.0197 17.6024)">
<stop stop-color="#E1E1E1"/>
<stop offset="1" stop-color="#FFF4DA"/>
</radialGradient>
<radialGradient id="paint18_radial_692_1640" cx="0" cy="0" r="1" gradientUnits="userSpaceOnUse" gradientTransform="translate(177.059 17.6024) rotate(180) scale(59.0197 17.6024)">
<stop stop-color="#E1E1E1"/>
<stop offset="1" stop-color="#FFF4DA"/>
</radialGradient>
<radialGradient id="paint19_radial_692_1640" cx="0" cy="0" r="1" gradientUnits="userSpaceOnUse" gradientTransform="translate(177.059 17.6024) rotate(180) scale(59.0197 17.6024)">
<stop stop-color="#E1E1E1"/>
<stop offset="1" stop-color="#FFF4DA"/>
</radialGradient>
<radialGradient id="paint20_radial_692_1640" cx="0" cy="0" r="1" gradientUnits="userSpaceOnUse" gradientTransform="translate(177.059 17.6024) rotate(180) scale(59.0197 17.6024)">
<stop stop-color="#E1E1E1"/>
<stop offset="1" stop-color="#FFF4DA"/>
</radialGradient>
<radialGradient id="paint21_radial_692_1640" cx="0" cy="0" r="1" gradientUnits="userSpaceOnUse" gradientTransform="translate(177.059 17.6024) rotate(180) scale(59.0197 17.6024)">
<stop stop-color="#E1E1E1"/>
<stop offset="1" stop-color="#FFF4DA"/>
</radialGradient>
<radialGradient id="paint22_radial_692_1640" cx="0" cy="0" r="1" gradientUnits="userSpaceOnUse" gradientTransform="translate(177.059 17.6024) rotate(180) scale(59.0197 17.6024)">
<stop stop-color="#E1E1E1"/>
<stop offset="1" stop-color="#FFF4DA"/>
</radialGradient>
<radialGradient id="paint23_radial_692_1640" cx="0" cy="0" r="1" gradientUnits="userSpaceOnUse" gradientTransform="translate(177.059 17.6024) rotate(180) scale(59.0197 17.6024)">
<stop stop-color="#E1E1E1"/>
<stop offset="1" stop-color="#FFF4DA"/>
</radialGradient>
</defs>
</svg>
