<svg width="237" height="132" viewBox="0 0 237 132" fill="none" xmlns="http://www.w3.org/2000/svg">
<path d="M50.7125 108.06C49.3889 108.487 47.9214 108.504 46.7169 107.809C44.5794 106.575 44.1412 105.154 44.5234 102.508V102.508C42.8798 103.056 42.063 104.953 43.0339 106.388C43.9977 107.812 45.0937 108.974 46.6267 110.246C47.9171 111.316 49.5696 111.855 51.2458 111.812C56.4406 111.679 59.0349 110.851 62.1257 108.72C61.1051 110.641 61.1618 111.76 61.9885 113.6C62.0605 113.76 62.2568 113.822 62.4077 113.731C64.0825 112.73 65.0039 111.892 66.2674 109.756C66.2154 114.032 66.9843 113.977 70.4091 114.933C67.5194 110.86 68.0525 109.221 70.1981 106.254C70.9958 105.151 72.1259 104.331 73.4053 103.866L78.5776 101.985C81.3342 100.982 84.3487 100.942 87.1313 101.869L104.173 107.55C104.307 107.435 104.442 107.326 104.578 107.223V104.508C104.578 103.403 105.474 102.508 106.578 102.508H108.791C109.896 102.508 110.791 103.403 110.791 104.508V105.614H111.826V103.472C111.826 102.368 110.931 101.472 109.826 101.472H105.543C104.438 101.472 103.543 102.368 103.543 103.472V106.65C98.7736 103.748 93.5321 101.584 86.7257 99.7769C82.8456 98.747 78.7534 99.0145 74.9328 100.247L50.7125 108.06Z" fill="url(#paint0_radial_692_1914)"/>
<path fill-rule="evenodd" clip-rule="evenodd" d="M118.039 111.827V108.721C115.458 105.74 114.163 105.799 111.826 105.614H110.791C108.063 105.589 106.222 105.979 104.578 107.223V107.685L104.173 107.55C103.27 108.327 102.409 109.382 101.472 110.791C94.4225 108.167 92.2419 105.859 84.6304 104.117C82.7927 103.696 80.8379 103.854 79.1733 104.739C77.1406 105.82 75.7478 107.075 74.4004 109.235C73.7976 110.201 73.7049 111.42 74.2146 112.438C75.0495 114.107 76.2498 115.417 79.1376 117.128C80.1186 117.709 81.3505 117.62 82.2784 116.957L86.28 114.099C87.2184 113.429 87.4128 112.09 86.6211 111.251C84.8302 109.354 83.7227 109.09 81.7989 109.756C83.0242 110.067 83.7473 110.456 84.396 111.688C84.7596 112.378 84.5518 113.216 84 113.767L82.2754 115.492C81.3706 116.397 79.9663 116.664 78.9055 115.948C77.3915 114.927 76.4781 113.802 75.4876 112.283C74.8937 111.372 74.8539 110.185 75.48 109.296C77.188 106.871 79.0763 106.022 82.8343 105.614C87.5138 105.758 93.9734 109.592 101.472 112.862C101.61 115.305 101.827 117.608 105.43 119.531C106.15 119.915 107.027 119.733 107.604 119.156L110.252 116.508C110.55 116.21 110.55 115.727 110.252 115.429V115.429C109.971 115.149 109.521 115.134 109.21 115.381C104.882 118.812 103.349 117.017 102.508 112.862C108.784 113.743 111.6 112.063 112.862 106.65H114.933L118.039 111.827ZM102.508 111.827C105.324 107.593 107.416 106.549 111.826 106.65C109.581 111.782 107.623 113.001 102.508 111.827Z" fill="url(#paint1_radial_692_1914)"/>
<path d="M118.039 114.933V111.827C116.112 115.763 116.189 118.074 110.791 119.075C111.96 121.038 112.806 121.636 114.933 121.146C115.324 125.201 115.717 127.472 118.039 131.5V125.287C116.703 121.107 116.952 118.865 118.039 114.933Z" fill="url(#paint2_radial_692_1914)"/>
<path d="M115.968 98.3662C116.06 94.792 116.696 93.3936 118.039 91.1182V105.614C115.722 100.811 114.342 99.4138 111.826 99.4015C113.364 97.8121 114.276 97.3638 115.968 98.3662Z" fill="url(#paint3_radial_692_1914)"/>
<path d="M185.366 108.06C186.689 108.487 188.157 108.504 189.361 107.809C191.499 106.575 191.937 105.154 191.555 102.508V102.508C193.198 103.056 194.015 104.953 193.044 106.388C192.08 107.812 190.984 108.974 189.451 110.246C188.161 111.316 186.509 111.855 184.832 111.812C179.637 111.679 177.043 110.851 173.952 108.72C174.973 110.641 174.916 111.76 174.09 113.6C174.018 113.76 173.821 113.822 173.67 113.731C171.996 112.73 171.074 111.892 169.811 109.756C169.863 114.032 169.094 113.977 165.669 114.933C168.559 110.86 168.026 109.221 165.88 106.254C165.082 105.151 163.952 104.331 162.673 103.866L157.5 101.985C154.744 100.982 151.729 100.942 148.947 101.869L131.905 107.55C131.771 107.435 131.636 107.326 131.5 107.223V104.508C131.5 103.403 130.604 102.508 129.5 102.508H127.287C126.183 102.508 125.287 103.403 125.287 104.508V105.614H124.252V103.472C124.252 102.368 125.147 101.472 126.252 101.472H130.535C131.64 101.472 132.535 102.368 132.535 103.472V106.65C137.304 103.748 142.546 101.584 149.352 99.7769C153.232 98.747 157.325 99.0145 161.145 100.247L185.366 108.06Z" fill="url(#paint4_radial_692_1914)"/>
<path fill-rule="evenodd" clip-rule="evenodd" d="M118.039 111.827V108.721C120.62 105.74 121.915 105.799 124.252 105.614H125.287C128.015 105.589 129.856 105.979 131.5 107.223V107.685L131.905 107.55C132.808 108.327 133.669 109.382 134.606 110.791C141.656 108.167 143.836 105.859 151.448 104.117C153.285 103.696 155.24 103.854 156.905 104.739C158.938 105.82 160.33 107.075 161.678 109.235C162.281 110.201 162.373 111.42 161.863 112.438C161.029 114.107 159.828 115.417 156.941 117.128C155.96 117.709 154.728 117.62 153.8 116.957L149.798 114.099C148.86 113.429 148.665 112.09 149.457 111.251C151.248 109.354 152.355 109.09 154.279 109.756C153.054 110.067 152.331 110.456 151.682 111.688C151.319 112.378 151.526 113.216 152.078 113.767L153.803 115.492C154.708 116.397 156.112 116.664 157.173 115.948C158.687 114.927 159.6 113.802 160.591 112.283C161.184 111.372 161.224 110.185 160.598 109.296C158.89 106.871 157.002 106.022 153.244 105.614C148.564 105.758 142.105 109.592 134.606 112.862C134.468 115.305 134.251 117.608 130.648 119.531C129.928 119.915 129.051 119.733 128.474 119.156L125.826 116.508C125.528 116.21 125.528 115.727 125.826 115.429V115.429C126.107 115.149 126.557 115.134 126.868 115.381C131.196 118.812 132.729 117.017 133.571 112.862C127.294 113.743 124.478 112.063 123.216 106.65H121.145L118.039 111.827ZM133.571 111.827C130.754 107.593 128.662 106.549 124.252 106.65C126.497 111.782 128.455 113.001 133.571 111.827Z" fill="url(#paint5_radial_692_1914)"/>
<path d="M118.039 114.933V111.827C119.967 115.763 119.889 118.074 125.287 119.075C124.119 121.038 123.273 121.636 121.145 121.146C120.754 125.201 120.361 127.472 118.039 131.5V125.287C119.375 121.107 119.126 118.865 118.039 114.933Z" fill="url(#paint6_radial_692_1914)"/>
<path d="M120.11 98.3662C120.019 94.792 119.382 93.3936 118.039 91.1182V105.614C120.356 100.811 121.736 99.4138 124.252 99.4015C122.714 97.8121 121.802 97.3638 120.11 98.3662Z" fill="url(#paint7_radial_692_1914)"/>
<path d="M65.5508 67.9531L73.1992 52.5273L75.9062 46.7266C76.6797 46.8125 77.8112 46.8555 79.3008 46.8555C79.8021 46.8555 80.3607 46.8411 80.9766 46.8125C81.6068 46.7839 82.2943 46.7409 83.0391 46.6836C83.0964 46.8268 83.0964 47.0703 83.0391 47.4141C82.9818 47.7578 82.9102 47.9297 82.8242 47.9297C82.4518 47.9297 82.0579 48.0299 81.6426 48.2305C81.2272 48.431 80.9193 48.6745 80.7188 48.9609C80.4609 49.3047 80.2676 49.7201 80.1387 50.207C80.0241 50.651 79.888 51.5104 79.7305 52.7852L78.0547 69.1992C77.8828 70.6745 77.7969 71.806 77.7969 72.5938C77.7969 73.1953 78.0189 73.5749 78.4629 73.7324C78.7207 73.8184 79.0286 73.8828 79.3867 73.9258C79.7591 73.9544 80.0599 73.9688 80.2891 73.9688C80.3464 73.9688 80.375 74.0977 80.375 74.3555C80.375 74.6992 80.2891 74.957 80.1172 75.1289C78.7852 75.0573 77.7253 75.0072 76.9375 74.9785C76.1641 74.9355 75.6628 74.9141 75.4336 74.9141C75.3906 74.9141 74.9896 74.9355 74.2305 74.9785C73.4857 75.0072 72.3828 75.0573 70.9219 75.1289C70.8646 75.0286 70.8359 74.957 70.8359 74.9141C70.8359 74.7422 70.8717 74.5417 70.9434 74.3125C71.015 74.0833 71.0794 73.9688 71.1367 73.9688C71.3945 73.9688 71.7168 73.9401 72.1035 73.8828C72.5046 73.8112 72.877 73.7181 73.2207 73.6035C73.5645 73.4746 73.7721 73.3385 73.8438 73.1953C74.1302 72.5365 74.3307 71.9277 74.4453 71.3691C74.474 71.2116 74.5169 70.8678 74.5742 70.3379C74.6315 69.8079 74.6745 69.4714 74.7031 69.3281L76.4219 52.5703C76.5078 51.7109 76.5508 51.1523 76.5508 50.8945C76.5508 50.7227 76.4648 50.6367 76.293 50.6367C76.2786 50.6367 76.2357 50.694 76.1641 50.8086L64.9492 73.668C64.806 73.9258 64.5339 74.2266 64.1328 74.5703C63.7318 74.9141 63.3594 75.0859 63.0156 75.0859C62.8867 75.0859 62.7721 75.0573 62.6719 75L59.0195 50.6367C59.0052 50.5794 58.9766 50.5508 58.9336 50.5508C58.8477 50.5508 58.8047 50.5794 58.8047 50.6367L53.7773 69.1562C53.2331 71.1328 52.9609 72.3216 52.9609 72.7227C52.9609 72.9232 53.1686 73.1237 53.584 73.3242C54.0137 73.5104 54.4648 73.668 54.9375 73.7969C55.4245 73.9115 55.7396 73.9688 55.8828 73.9688C55.9401 73.9688 55.9688 74.0547 55.9688 74.2266C55.9688 74.556 55.8971 74.8568 55.7539 75.1289C54.4219 75.0573 53.3835 75.0072 52.6387 74.9785C51.8939 74.9355 51.4427 74.9141 51.2852 74.9141C51.2422 74.9141 50.8268 74.9355 50.0391 74.9785C49.2513 75.0072 48.0911 75.0573 46.5586 75.1289C46.5013 75.0716 46.4727 74.9284 46.4727 74.6992C46.4727 74.2122 46.5729 73.9688 46.7734 73.9688C47.0026 73.9688 47.3678 73.9186 47.8691 73.8184C48.3704 73.7038 48.8431 73.5677 49.2871 73.4102C49.7454 73.2383 50.0104 73.0807 50.082 72.9375C50.5833 71.9922 51.056 70.7174 51.5 69.1133L56.1836 52.3125C56.2982 51.7539 56.4199 51.2025 56.5488 50.6582C56.6777 50.0996 56.7422 49.5625 56.7422 49.0469C56.7422 48.832 56.5417 48.6387 56.1406 48.4668C55.7396 48.2949 55.3027 48.1589 54.8301 48.0586C54.3717 47.944 54.0352 47.8867 53.8203 47.8867C53.763 47.8867 53.7344 47.7865 53.7344 47.5859C53.7344 47.1133 53.8203 46.8268 53.9922 46.7266C55.0521 46.7552 55.9186 46.7767 56.5918 46.791C57.265 46.8053 57.7448 46.8125 58.0312 46.8125C58.8477 46.8125 59.5924 46.8053 60.2656 46.791C60.9531 46.7767 61.569 46.7552 62.1133 46.7266C62.2422 47.901 62.5788 50.2643 63.123 53.8164C63.6673 57.3542 64.4193 62.0807 65.3789 67.9961C65.3789 68.0247 65.3932 68.0391 65.4219 68.0391C65.5078 68.0391 65.5508 68.0104 65.5508 67.9531ZM89.1406 56.3086C89.599 56.3086 89.957 56.5163 90.2148 56.9316C90.4727 57.347 90.6016 57.8841 90.6016 58.543C90.6016 59.3021 90.5156 60.0612 90.3438 60.8203L88.8398 67.9102C88.6393 68.7839 88.5391 69.5573 88.5391 70.2305C88.5391 71.4622 88.8112 72.0781 89.3555 72.0781C89.6706 72.0781 90.0573 71.8991 90.5156 71.541C90.9883 71.1829 91.4753 70.7246 91.9766 70.166C92.4922 69.6074 92.972 69.0345 93.416 68.4473C94.2324 67.373 95.0059 66.0625 95.7363 64.5156C96.4668 62.9688 96.9753 61.4362 97.2617 59.918L97.9922 56.5664C98.3789 56.4518 98.8229 56.3945 99.3242 56.3945C99.8112 56.3945 100.298 56.4518 100.785 56.5664L98.1211 70.4453C98.0352 70.7891 97.9922 71.1471 97.9922 71.5195C97.9922 72.2357 98.1354 72.5938 98.4219 72.5938C98.7799 72.5938 99.2096 72.3431 99.7109 71.8418C100.212 71.3262 100.642 70.8893 101 70.5312L101.258 70.2305C101.315 70.2305 101.423 70.3665 101.58 70.6387C101.738 70.9108 101.816 71.1042 101.816 71.2188C101.573 71.6341 101.129 72.1641 100.484 72.8086C99.8542 73.4531 99.1667 74.026 98.4219 74.5273C97.6771 75.0143 97.0039 75.2578 96.4023 75.2578C95.944 75.2578 95.5859 75.0501 95.3281 74.6348C95.0703 74.2194 94.9414 73.6823 94.9414 73.0234C94.9414 72.5938 95.0417 71.8346 95.2422 70.7461L96.0156 66.793C95.7435 67.3086 95.1562 68.1966 94.2539 69.457C93.6667 70.2734 92.9577 71.1328 92.127 72.0352C91.3105 72.9375 90.4941 73.7038 89.6777 74.334C88.8613 74.9499 88.1667 75.2578 87.5938 75.2578C86.1615 75.2578 85.4453 74.3125 85.4453 72.4219C85.4453 71.0755 85.6458 69.5143 86.0469 67.7383L87.3359 61.7656C87.4792 60.7773 87.5508 60.2044 87.5508 60.0469C87.5508 59.3307 87.4076 58.9727 87.1211 58.9727C86.8776 58.9727 86.5124 59.2018 86.0254 59.6602C85.7962 59.8893 85.5456 60.14 85.2734 60.4121C85.0156 60.6842 84.8438 60.8776 84.7578 60.9922C84.7005 60.9922 84.5931 60.8561 84.4355 60.584C84.278 60.3118 84.1992 60.1185 84.1992 60.0039C84.4284 59.6172 84.8438 59.1374 85.4453 58.5645C86.0469 57.9772 86.6914 57.4544 87.3789 56.9961C88.0664 56.5378 88.6536 56.3086 89.1406 56.3086ZM110.152 56.3086C110.611 56.3086 110.969 56.5163 111.227 56.9316C111.484 57.347 111.613 57.8841 111.613 58.543C111.613 59.1732 111.527 59.9323 111.355 60.8203L110.668 64.4297C111.026 63.5846 111.484 62.6966 112.043 61.7656C112.616 60.8203 113.225 59.9323 113.869 59.1016C114.514 58.2708 115.151 57.5977 115.781 57.082C116.411 56.5664 116.97 56.3086 117.457 56.3086C118.431 56.3086 119.219 56.7669 119.82 57.6836C119.82 59.6029 119.29 60.5625 118.23 60.5625C118.001 60.5625 117.729 60.3835 117.414 60.0254C117.099 59.6673 116.77 59.4883 116.426 59.4883C116.01 59.4883 115.466 59.832 114.793 60.5195C114.12 61.207 113.425 62.1094 112.709 63.2266C111.993 64.3294 111.348 65.5254 110.775 66.8145C110.202 68.0892 109.809 69.3138 109.594 70.4883L108.777 75C108.29 75.0859 107.818 75.1289 107.359 75.1289C106.815 75.1289 106.285 75.0859 105.77 75L108.348 61.7656C108.491 60.7773 108.562 60.2044 108.562 60.0469C108.562 59.3307 108.419 58.9727 108.133 58.9727C107.889 58.9727 107.524 59.2018 107.037 59.6602C106.808 59.8893 106.557 60.14 106.285 60.4121C106.027 60.6842 105.855 60.8776 105.77 60.9922C105.712 60.9922 105.605 60.8561 105.447 60.584C105.29 60.3118 105.211 60.1185 105.211 60.0039C105.44 59.6172 105.855 59.1374 106.457 58.5645C107.059 57.9772 107.703 57.4544 108.391 56.9961C109.078 56.5378 109.665 56.3086 110.152 56.3086ZM128.457 56.1797C130.09 56.1797 131.379 56.724 132.324 57.8125C132.467 58.1419 132.539 58.4427 132.539 58.7148C132.539 59.2305 132.403 59.6745 132.131 60.0469C131.859 60.4193 131.508 60.6055 131.078 60.6055C130.691 60.6055 130.333 60.3978 130.004 59.9824C129.689 59.5671 129.295 59.1445 128.822 58.7148C128.35 58.2852 127.727 58.0703 126.953 58.0703C126.352 58.0703 125.879 58.2708 125.535 58.6719C125.191 59.0729 125.02 59.5312 125.02 60.0469C125.02 60.7917 125.299 61.5866 125.857 62.4316C126.416 63.2767 127.025 64.0286 127.684 64.6875C128.342 65.3464 128.951 66.1484 129.51 67.0938C130.068 68.0391 130.348 68.9987 130.348 69.9727C130.348 71.5482 129.775 72.8229 128.629 73.7969C127.483 74.7708 126.008 75.2578 124.203 75.2578C122.57 75.2578 121.281 74.7135 120.336 73.625C120.193 73.3958 120.121 73.1237 120.121 72.8086C120.121 72.293 120.257 71.8346 120.529 71.4336C120.801 71.0326 121.152 70.832 121.582 70.832C121.969 70.832 122.327 71.0397 122.656 71.4551C122.971 71.8704 123.365 72.293 123.838 72.7227C124.311 73.1523 124.934 73.3672 125.707 73.3672C126.337 73.3672 126.846 73.1595 127.232 72.7441C127.619 72.3288 127.812 71.8776 127.812 71.3906C127.812 70.6458 127.533 69.8509 126.975 69.0059C126.416 68.1608 125.807 67.4089 125.148 66.75C124.49 66.0911 123.881 65.2891 123.322 64.3438C122.764 63.3984 122.484 62.4388 122.484 61.4648C122.484 60.6628 122.749 59.8535 123.279 59.0371C123.809 58.2207 124.525 57.5404 125.428 56.9961C126.33 56.4518 127.34 56.1797 128.457 56.1797ZM146.074 56.3086C147.134 56.3086 148.18 56.4948 149.211 56.8672L146.59 70.4453C146.504 70.7891 146.461 71.1471 146.461 71.5195C146.461 72.2357 146.604 72.5938 146.891 72.5938C147.249 72.5938 147.678 72.3431 148.18 71.8418C148.681 71.3262 149.111 70.8893 149.469 70.5312L149.727 70.2305C149.784 70.2305 149.891 70.3665 150.049 70.6387C150.206 70.9108 150.285 71.1042 150.285 71.2188C150.042 71.6341 149.598 72.1641 148.953 72.8086C148.323 73.4531 147.635 74.026 146.891 74.5273C146.146 75.0143 145.473 75.2578 144.871 75.2578C144.413 75.2578 144.055 75.0501 143.797 74.6348C143.539 74.2194 143.41 73.6823 143.41 73.0234C143.41 72.5794 143.51 71.8203 143.711 70.7461L143.861 69.9941C143.904 69.7936 143.926 69.6719 143.926 69.6289C143.697 70.0586 143.367 70.5885 142.938 71.2188C142.508 71.8346 142.014 72.4505 141.455 73.0664C140.896 73.6823 140.309 74.1979 139.693 74.6133C139.077 75.0143 138.469 75.2148 137.867 75.2148C136.607 75.2148 135.611 74.6491 134.881 73.5176C134.15 72.3861 133.785 71.0182 133.785 69.4141C133.785 67.3659 134.394 65.3249 135.611 63.291C136.428 61.916 137.402 60.7057 138.533 59.6602C139.679 58.6146 140.904 57.7982 142.207 57.2109C143.51 56.6094 144.799 56.3086 146.074 56.3086ZM144.27 58.2852C143.424 58.2852 142.572 58.5859 141.713 59.1875C140.854 59.7747 140.066 60.5697 139.35 61.5723C138.633 62.5605 138.053 63.6634 137.609 64.8809C137.18 66.084 136.965 67.2943 136.965 68.5117C136.965 71.319 137.695 72.7227 139.156 72.7227C139.672 72.7227 140.23 72.4362 140.832 71.8633C141.434 71.2904 142.028 70.5312 142.615 69.5859C143.202 68.6406 143.718 67.6165 144.162 66.5137C144.62 65.3965 144.957 64.3008 145.172 63.2266L146.031 58.8438C145.688 58.4714 145.1 58.2852 144.27 58.2852ZM153.895 70.7461L157.934 49.9062C158.02 49.4766 158.062 49.0755 158.062 48.7031C158.062 48.1589 157.189 47.8867 155.441 47.8867C155.355 47.8867 155.312 47.8008 155.312 47.6289C155.312 47.2852 155.427 46.9987 155.656 46.7695C157.576 46.5977 159.409 46.1966 161.156 45.5664C161.328 45.6523 161.414 45.9245 161.414 46.3828C161.414 46.6979 161.228 47.7721 160.855 49.6055L156.773 70.4453C156.688 70.7891 156.645 71.1471 156.645 71.5195C156.645 72.2357 156.788 72.5938 157.074 72.5938C157.246 72.5938 157.454 72.515 157.697 72.3574C157.941 72.1999 158.191 72.0065 158.449 71.7773C158.707 71.5482 159.001 71.2546 159.33 70.8965C159.66 70.5241 159.853 70.3021 159.91 70.2305C159.996 70.2305 160.111 70.3665 160.254 70.6387C160.397 70.9108 160.469 71.1042 160.469 71.2188C160.225 71.6341 159.781 72.1641 159.137 72.8086C158.507 73.4531 157.819 74.026 157.074 74.5273C156.329 75.0143 155.656 75.2578 155.055 75.2578C154.625 75.2578 154.274 75.0501 154.002 74.6348C153.73 74.2194 153.594 73.6823 153.594 73.0234C153.594 72.5794 153.694 71.8203 153.895 70.7461ZM172.93 56.3086C174.62 56.3086 175.93 56.8958 176.861 58.0703C177.792 59.2448 178.258 60.8633 178.258 62.9258C178.258 64.401 177.971 65.8691 177.398 67.3301C176.826 68.7767 176.074 70.0944 175.143 71.2832C174.212 72.472 173.188 73.4245 172.07 74.1406C170.953 74.8568 169.85 75.2148 168.762 75.2148C167.043 75.2148 165.732 74.6562 164.83 73.5391C163.928 72.4219 163.477 70.832 163.477 68.7695C163.477 67.2799 163.756 65.8047 164.314 64.3438C164.887 62.8685 165.639 61.5293 166.57 60.3262C167.501 59.1087 168.518 58.1348 169.621 57.4043C170.738 56.6738 171.841 56.3086 172.93 56.3086ZM172.414 58.0703C171.698 58.0703 171.003 58.3854 170.33 59.0156C169.657 59.6315 169.048 60.4408 168.504 61.4434C167.96 62.446 167.53 63.5417 167.215 64.7305C166.9 65.9193 166.742 67.0794 166.742 68.2109C166.742 69.8724 167.007 71.1615 167.537 72.0781C168.067 72.9948 168.733 73.4531 169.535 73.4531C170.251 73.4531 170.932 73.1452 171.576 72.5293C172.235 71.8991 172.822 71.0827 173.338 70.0801C173.854 69.0632 174.255 67.9603 174.541 66.7715C174.842 65.5827 174.992 64.4154 174.992 63.2695C174.992 61.5794 174.763 60.2904 174.305 59.4023C173.846 58.5143 173.216 58.0703 172.414 58.0703ZM182.641 56.9531H185.648L186.68 51.7109C186.766 51.4245 187.467 51.2812 188.785 51.2812C189.072 51.2812 189.329 51.2956 189.559 51.3242L188.484 56.9531H192.395C192.538 56.9531 192.609 57.1393 192.609 57.5117C192.609 57.8411 192.48 58.2565 192.223 58.7578H188.141L185.863 70.4453C185.777 70.7891 185.734 71.1471 185.734 71.5195C185.734 72.2357 185.878 72.5938 186.164 72.5938C186.522 72.5938 186.952 72.3431 187.453 71.8418C187.954 71.3262 188.384 70.8893 188.742 70.5312L189 70.2305C189.057 70.2305 189.165 70.3665 189.322 70.6387C189.48 70.9108 189.559 71.1042 189.559 71.2188C189.315 71.6341 188.871 72.1641 188.227 72.8086C187.596 73.4531 186.909 74.026 186.164 74.5273C185.419 75.0143 184.746 75.2578 184.145 75.2578C183.686 75.2578 183.328 75.0501 183.07 74.6348C182.812 74.2194 182.684 73.6823 182.684 73.0234C182.684 72.5938 182.784 71.8346 182.984 70.7461L185.305 58.7578H182.254C182.168 58.7578 182.125 58.6003 182.125 58.2852C182.125 57.9128 182.297 57.4688 182.641 56.9531Z" fill="white"/>
<path d="M0 14.4961C6.30012 20.0984 15.0791 19.1979 30.687 15.1421C32.2497 14.736 33.9168 14.9601 35.3059 15.7832L61.0905 31.063L35.3304 19.6141C33.9205 18.9874 32.3183 18.9353 30.8588 19.4358C12.5496 25.7159 4.73674 24.7283 0 14.4961Z" fill="url(#paint8_radial_692_1914)"/>
<path d="M16.5669 25.8858C22.7094 27.5488 34.4861 19.1752 43.5027 24.2129C35.7991 20.3448 24.9274 34.7378 16.5669 25.8858Z" fill="url(#paint9_radial_692_1914)"/>
<path d="M42.4528 34.1693C40.4746 32.9379 39.8039 31.791 39.5364 30.2054C39.314 28.8871 40.2138 27.6374 41.514 27.3262C46.4064 26.1551 49.6595 27.3172 54.8779 31.063C50.3759 26.3362 46.8249 25.2844 39.6469 25.78C38.7972 25.8387 38.0191 26.2751 37.5081 26.9564L36.1669 28.7446C35.6047 29.4943 35.6307 30.5432 36.2784 31.2205C38.4425 33.4837 39.9798 34.1156 42.4528 34.1693Z" fill="url(#paint10_radial_692_1914)"/>
<path d="M61.0905 28.9921C48.8725 19.5072 53.131 18.6378 60.0551 10.3543C56.6285 8.93238 54.8937 8.83857 52.8071 12.4252C51.2879 8.29387 49.7783 6.42726 45.559 4.14173C43.8524 8.52031 44.6321 10.6991 46.5945 14.4961C42.9378 12.0347 40.7471 11.3823 36.2402 13.4606C46.3046 17.727 45.2926 18.8748 61.0905 28.9921Z" fill="url(#paint11_radial_692_1914)"/>
<path d="M78.6929 22.7441C78.6929 22.1918 79.1406 21.7441 79.6929 21.7441H79.7638C80.3161 21.7441 80.7638 22.1918 80.7638 22.7441V25.9213C80.7638 26.4735 80.3161 26.9213 79.7638 26.9213H74.4803C73.3757 26.9213 72.4803 26.0258 72.4803 24.9213V19.6024C72.4803 18.4978 73.3757 17.6024 74.4803 17.6024H78.7281C80.6137 17.6024 82.4755 18.023 84.178 18.8337V18.8337C85.2965 19.3663 86.1249 20.3629 86.4441 21.5599L88.3399 28.6695C89.2063 31.9182 86.6836 35.0788 83.3237 34.9544L68.0679 34.3894C64.7776 34.2675 62.2002 31.5169 62.2923 28.2256L62.6948 13.8426C62.7856 10.5955 65.4441 8.01038 68.6924 8.01038H83.0387C86.0229 8.01038 88.8896 9.21712 90.915 11.4088C101.807 23.194 109.097 33.3225 115.395 32.2299C115.685 32.1796 115.968 32.3916 115.968 32.686V32.686C115.968 32.9325 115.766 33.1318 115.519 33.1285C109.37 33.045 105.37 32.4313 87.653 13.254C86.5367 12.0456 85.0793 11.1983 83.4735 10.8414L77.8584 9.59364C77.0431 9.41248 76.199 9.4035 75.3801 9.56728L71.091 10.4251C68.2865 10.986 66.2677 13.4485 66.2677 16.3086V27.0984C66.2677 29.8599 68.5063 32.0984 71.2677 32.0984H80.9055C83.1146 32.0984 84.9055 30.3076 84.9055 28.0984V22.6378C84.9055 20.4287 83.1146 18.6378 80.9055 18.6378H76.5512C75.4466 18.6378 74.5512 19.5332 74.5512 20.6378V24.8858C74.5512 25.4381 74.9989 25.8858 75.5512 25.8858H77.6929C78.2452 25.8858 78.6929 25.4381 78.6929 24.8858V22.7441Z" fill="url(#paint12_radial_692_1914)"/>
<path d="M104.412 33.0631C96.4743 29.9513 88.3242 12.4066 78.6929 13.4606C91.6665 19.2326 92.9183 31.4785 104.412 33.0631Z" fill="url(#paint13_radial_692_1914)"/>
<path d="M111.827 30.0276C106.485 21.6827 106.361 16.9143 110.791 8.28346C105.363 9.71409 97.6256 19.5114 111.827 30.0276Z" fill="url(#paint14_radial_692_1914)"/>
<path d="M118.039 10.3543C113.102 14.0549 110.405 23.2793 118.039 32.0984C106.33 25.6888 109.793 12.7713 118.039 0V10.3543Z" fill="url(#paint15_radial_692_1914)"/>
<path d="M236.079 14.4961C229.778 20.0984 221 19.1979 205.392 15.1421C203.829 14.736 202.162 14.9601 200.773 15.7832L174.988 31.063L200.748 19.6141C202.158 18.9874 203.76 18.9353 205.22 19.4358C223.529 25.7159 231.342 24.7283 236.079 14.4961Z" fill="url(#paint16_radial_692_1914)"/>
<path d="M219.512 25.8858C213.369 27.5488 201.593 19.1752 192.576 24.2129C200.279 20.3448 211.151 34.7378 219.512 25.8858Z" fill="url(#paint17_radial_692_1914)"/>
<path d="M193.626 34.1693C195.604 32.9379 196.275 31.791 196.542 30.2054C196.765 28.8871 195.865 27.6374 194.565 27.3262C189.672 26.1551 186.419 27.3172 181.201 31.063C185.703 26.3362 189.254 25.2844 196.432 25.78C197.281 25.8387 198.06 26.2751 198.571 26.9564L199.912 28.7446C200.474 29.4943 200.448 30.5432 199.8 31.2205C197.636 33.4837 196.099 34.1156 193.626 34.1693Z" fill="url(#paint18_radial_692_1914)"/>
<path d="M174.988 28.9921C187.206 19.5072 182.948 18.6378 176.024 10.3543C179.45 8.93238 181.185 8.83857 183.272 12.4252C184.791 8.29387 186.3 6.42726 190.52 4.14173C192.226 8.52031 191.446 10.6991 189.484 14.4961C193.141 12.0347 195.331 11.3823 199.838 13.4606C189.774 17.727 190.786 18.8748 174.988 28.9921Z" fill="url(#paint19_radial_692_1914)"/>
<path d="M157.386 22.7441C157.386 22.1918 156.938 21.7441 156.386 21.7441H156.315C155.763 21.7441 155.315 22.1918 155.315 22.7441V25.9213C155.315 26.4735 155.763 26.9213 156.315 26.9213H161.598C162.703 26.9213 163.598 26.0258 163.598 24.9213V19.6024C163.598 18.4978 162.703 17.6024 161.598 17.6024H157.351C155.465 17.6024 153.603 18.023 151.901 18.8337V18.8337C150.782 19.3663 149.954 20.3629 149.635 21.5599L147.739 28.6695C146.872 31.9182 149.395 35.0788 152.755 34.9544L168.011 34.3894C171.301 34.2675 173.878 31.5169 173.786 28.2256L173.384 13.8426C173.293 10.5955 170.635 8.01038 167.386 8.01038H153.04C150.056 8.01038 147.189 9.21712 145.164 11.4088C134.272 23.194 126.982 33.3225 120.683 32.2299C120.393 32.1796 120.11 32.3916 120.11 32.686V32.686C120.11 32.9325 120.313 33.1318 120.559 33.1285C126.708 33.045 130.709 32.4313 148.426 13.254C149.542 12.0456 150.999 11.1983 152.605 10.8414L158.22 9.59364C159.035 9.41248 159.88 9.4035 160.698 9.56728L164.988 10.4251C167.792 10.986 169.811 13.4485 169.811 16.3086V27.0984C169.811 29.8599 167.572 32.0984 164.811 32.0984H155.173C152.964 32.0984 151.173 30.3076 151.173 28.0984V22.6378C151.173 20.4287 152.964 18.6378 155.173 18.6378H159.527C160.632 18.6378 161.527 19.5332 161.527 20.6378V24.8858C161.527 25.4381 161.08 25.8858 160.527 25.8858H158.386C157.833 25.8858 157.386 25.4381 157.386 24.8858V22.7441Z" fill="url(#paint20_radial_692_1914)"/>
<path d="M131.666 33.0631C139.604 29.9513 147.754 12.4066 157.386 13.4606C144.412 19.2326 143.16 31.4785 131.666 33.0631Z" fill="url(#paint21_radial_692_1914)"/>
<path d="M124.252 30.0276C129.594 21.6827 129.718 16.9143 125.287 8.28346C130.716 9.71409 138.453 19.5114 124.252 30.0276Z" fill="url(#paint22_radial_692_1914)"/>
<path d="M118.039 10.3543C122.976 14.0549 125.673 23.2793 118.039 32.0984C129.749 25.6888 126.286 12.7713 118.039 0V10.3543Z" fill="url(#paint23_radial_692_1914)"/>
<defs>
<radialGradient id="paint0_radial_692_1914" cx="0" cy="0" r="1" gradientUnits="userSpaceOnUse" gradientTransform="translate(79.728 111.309) scale(38.311 20.1909)">
<stop stop-color="#E1E1E1"/>
<stop offset="1" stop-color="#FFF4DA"/>
</radialGradient>
<radialGradient id="paint1_radial_692_1914" cx="0" cy="0" r="1" gradientUnits="userSpaceOnUse" gradientTransform="translate(79.728 111.309) scale(38.311 20.1909)">
<stop stop-color="#E1E1E1"/>
<stop offset="1" stop-color="#FFF4DA"/>
</radialGradient>
<radialGradient id="paint2_radial_692_1914" cx="0" cy="0" r="1" gradientUnits="userSpaceOnUse" gradientTransform="translate(79.728 111.309) scale(38.311 20.1909)">
<stop stop-color="#E1E1E1"/>
<stop offset="1" stop-color="#FFF4DA"/>
</radialGradient>
<radialGradient id="paint3_radial_692_1914" cx="0" cy="0" r="1" gradientUnits="userSpaceOnUse" gradientTransform="translate(79.728 111.309) scale(38.311 20.1909)">
<stop stop-color="#E1E1E1"/>
<stop offset="1" stop-color="#FFF4DA"/>
</radialGradient>
<radialGradient id="paint4_radial_692_1914" cx="0" cy="0" r="1" gradientUnits="userSpaceOnUse" gradientTransform="translate(156.35 111.309) rotate(180) scale(38.311 20.1909)">
<stop stop-color="#E1E1E1"/>
<stop offset="1" stop-color="#FFF4DA"/>
</radialGradient>
<radialGradient id="paint5_radial_692_1914" cx="0" cy="0" r="1" gradientUnits="userSpaceOnUse" gradientTransform="translate(156.35 111.309) rotate(180) scale(38.311 20.1909)">
<stop stop-color="#E1E1E1"/>
<stop offset="1" stop-color="#FFF4DA"/>
</radialGradient>
<radialGradient id="paint6_radial_692_1914" cx="0" cy="0" r="1" gradientUnits="userSpaceOnUse" gradientTransform="translate(156.35 111.309) rotate(180) scale(38.311 20.1909)">
<stop stop-color="#E1E1E1"/>
<stop offset="1" stop-color="#FFF4DA"/>
</radialGradient>
<radialGradient id="paint7_radial_692_1914" cx="0" cy="0" r="1" gradientUnits="userSpaceOnUse" gradientTransform="translate(156.35 111.309) rotate(180) scale(38.311 20.1909)">
<stop stop-color="#E1E1E1"/>
<stop offset="1" stop-color="#FFF4DA"/>
</radialGradient>
<radialGradient id="paint8_radial_692_1914" cx="0" cy="0" r="1" gradientUnits="userSpaceOnUse" gradientTransform="translate(59.0197 17.6024) scale(59.0197 17.6024)">
<stop stop-color="#E1E1E1"/>
<stop offset="1" stop-color="#FFF4DA"/>
</radialGradient>
<radialGradient id="paint9_radial_692_1914" cx="0" cy="0" r="1" gradientUnits="userSpaceOnUse" gradientTransform="translate(59.0197 17.6024) scale(59.0197 17.6024)">
<stop stop-color="#E1E1E1"/>
<stop offset="1" stop-color="#FFF4DA"/>
</radialGradient>
<radialGradient id="paint10_radial_692_1914" cx="0" cy="0" r="1" gradientUnits="userSpaceOnUse" gradientTransform="translate(59.0197 17.6024) scale(59.0197 17.6024)">
<stop stop-color="#E1E1E1"/>
<stop offset="1" stop-color="#FFF4DA"/>
</radialGradient>
<radialGradient id="paint11_radial_692_1914" cx="0" cy="0" r="1" gradientUnits="userSpaceOnUse" gradientTransform="translate(59.0197 17.6024) scale(59.0197 17.6024)">
<stop stop-color="#E1E1E1"/>
<stop offset="1" stop-color="#FFF4DA"/>
</radialGradient>
<radialGradient id="paint12_radial_692_1914" cx="0" cy="0" r="1" gradientUnits="userSpaceOnUse" gradientTransform="translate(59.0197 17.6024) scale(59.0197 17.6024)">
<stop stop-color="#E1E1E1"/>
<stop offset="1" stop-color="#FFF4DA"/>
</radialGradient>
<radialGradient id="paint13_radial_692_1914" cx="0" cy="0" r="1" gradientUnits="userSpaceOnUse" gradientTransform="translate(59.0197 17.6024) scale(59.0197 17.6024)">
<stop stop-color="#E1E1E1"/>
<stop offset="1" stop-color="#FFF4DA"/>
</radialGradient>
<radialGradient id="paint14_radial_692_1914" cx="0" cy="0" r="1" gradientUnits="userSpaceOnUse" gradientTransform="translate(59.0197 17.6024) scale(59.0197 17.6024)">
<stop stop-color="#E1E1E1"/>
<stop offset="1" stop-color="#FFF4DA"/>
</radialGradient>
<radialGradient id="paint15_radial_692_1914" cx="0" cy="0" r="1" gradientUnits="userSpaceOnUse" gradientTransform="translate(59.0197 17.6024) scale(59.0197 17.6024)">
<stop stop-color="#E1E1E1"/>
<stop offset="1" stop-color="#FFF4DA"/>
</radialGradient>
<radialGradient id="paint16_radial_692_1914" cx="0" cy="0" r="1" gradientUnits="userSpaceOnUse" gradientTransform="translate(177.059 17.6024) rotate(180) scale(59.0197 17.6024)">
<stop stop-color="#E1E1E1"/>
<stop offset="1" stop-color="#FFF4DA"/>
</radialGradient>
<radialGradient id="paint17_radial_692_1914" cx="0" cy="0" r="1" gradientUnits="userSpaceOnUse" gradientTransform="translate(177.059 17.6024) rotate(180) scale(59.0197 17.6024)">
<stop stop-color="#E1E1E1"/>
<stop offset="1" stop-color="#FFF4DA"/>
</radialGradient>
<radialGradient id="paint18_radial_692_1914" cx="0" cy="0" r="1" gradientUnits="userSpaceOnUse" gradientTransform="translate(177.059 17.6024) rotate(180) scale(59.0197 17.6024)">
<stop stop-color="#E1E1E1"/>
<stop offset="1" stop-color="#FFF4DA"/>
</radialGradient>
<radialGradient id="paint19_radial_692_1914" cx="0" cy="0" r="1" gradientUnits="userSpaceOnUse" gradientTransform="translate(177.059 17.6024) rotate(180) scale(59.0197 17.6024)">
<stop stop-color="#E1E1E1"/>
<stop offset="1" stop-color="#FFF4DA"/>
</radialGradient>
<radialGradient id="paint20_radial_692_1914" cx="0" cy="0" r="1" gradientUnits="userSpaceOnUse" gradientTransform="translate(177.059 17.6024) rotate(180) scale(59.0197 17.6024)">
<stop stop-color="#E1E1E1"/>
<stop offset="1" stop-color="#FFF4DA"/>
</radialGradient>
<radialGradient id="paint21_radial_692_1914" cx="0" cy="0" r="1" gradientUnits="userSpaceOnUse" gradientTransform="translate(177.059 17.6024) rotate(180) scale(59.0197 17.6024)">
<stop stop-color="#E1E1E1"/>
<stop offset="1" stop-color="#FFF4DA"/>
</radialGradient>
<radialGradient id="paint22_radial_692_1914" cx="0" cy="0" r="1" gradientUnits="userSpaceOnUse" gradientTransform="translate(177.059 17.6024) rotate(180) scale(59.0197 17.6024)">
<stop stop-color="#E1E1E1"/>
<stop offset="1" stop-color="#FFF4DA"/>
</radialGradient>
<radialGradient id="paint23_radial_692_1914" cx="0" cy="0" r="1" gradientUnits="userSpaceOnUse" gradientTransform="translate(177.059 17.6024) rotate(180) scale(59.0197 17.6024)">
<stop stop-color="#E1E1E1"/>
<stop offset="1" stop-color="#FFF4DA"/>
</radialGradient>
</defs>
</svg>
