<svg width="237" height="132" viewBox="0 0 237 132" fill="none" xmlns="http://www.w3.org/2000/svg">
<path d="M50.713 108.06C49.3894 108.487 47.9219 108.504 46.7174 107.809C44.5799 106.575 44.1417 105.154 44.5239 102.508V102.508C42.8803 103.056 42.0634 104.953 43.0344 106.388C43.9981 107.812 45.0942 108.974 46.6272 110.246C47.9176 111.316 49.57 111.855 51.2463 111.812C56.4411 111.679 59.0354 110.851 62.1261 108.72C61.1055 110.641 61.1623 111.76 61.9889 113.6C62.061 113.76 62.2573 113.822 62.4081 113.731C64.083 112.73 65.0044 111.892 66.2679 109.756C66.2159 114.032 66.9848 113.977 70.4096 114.933C67.5199 110.86 68.053 109.221 70.1985 106.254C70.9963 105.151 72.1264 104.331 73.4058 103.866L78.5781 101.985C81.3347 100.982 84.3491 100.942 87.1317 101.869L104.174 107.55C104.308 107.435 104.443 107.326 104.579 107.223V104.508C104.579 103.403 105.474 102.508 106.579 102.508H108.791C109.896 102.508 110.791 103.403 110.791 104.508V105.614H111.827V103.472C111.827 102.368 110.931 101.472 109.827 101.472H105.543C104.439 101.472 103.543 102.368 103.543 103.472V106.65C98.7741 103.748 93.5326 101.584 86.7262 99.7769C82.8461 98.747 78.7539 99.0145 74.9333 100.247L50.713 108.06Z" fill="url(#paint0_radial_692_1704)"/>
<path fill-rule="evenodd" clip-rule="evenodd" d="M118.04 111.827V108.721C115.458 105.74 114.164 105.799 111.827 105.614H110.791C108.063 105.589 106.223 105.979 104.579 107.223V107.685L104.174 107.55C103.27 108.327 102.41 109.382 101.473 110.791C94.423 108.167 92.2423 105.859 84.6309 104.117C82.7932 103.696 80.8384 103.854 79.1738 104.739C77.1411 105.82 75.7483 107.075 74.4009 109.235C73.7981 110.201 73.7054 111.42 74.2151 112.438C75.05 114.107 76.2503 115.417 79.1381 117.128C80.1191 117.709 81.351 117.62 82.2789 116.957L86.2804 114.099C87.2189 113.429 87.4133 112.09 86.6216 111.251C84.8307 109.354 83.7232 109.09 81.7994 109.756C83.0247 110.067 83.7478 110.456 84.3965 111.688C84.7601 112.378 84.5523 113.216 84.0005 113.767L82.2759 115.492C81.3711 116.397 79.9668 116.664 78.906 115.948C77.392 114.927 76.4786 113.802 75.488 112.283C74.8942 111.372 74.8544 110.185 75.4804 109.296C77.1885 106.871 79.0768 106.022 82.8348 105.614C87.5143 105.758 93.9739 109.592 101.473 112.862C101.611 115.305 101.827 117.608 105.431 119.531C106.15 119.915 107.027 119.733 107.604 119.156L110.252 116.508C110.55 116.21 110.55 115.727 110.252 115.429V115.429C109.972 115.149 109.522 115.134 109.211 115.381C104.883 118.812 103.35 117.017 102.508 112.862C108.785 113.743 111.601 112.063 112.862 106.65H114.933L118.04 111.827ZM102.508 111.827C105.324 107.593 107.417 106.549 111.827 106.65C109.582 111.782 107.624 113.001 102.508 111.827Z" fill="url(#paint1_radial_692_1704)"/>
<path d="M118.04 114.933V111.827C116.112 115.763 116.189 118.074 110.791 119.075C111.96 121.038 112.806 121.636 114.933 121.146C115.325 125.201 115.718 127.472 118.04 131.5V125.287C116.703 121.107 116.953 118.865 118.04 114.933Z" fill="url(#paint2_radial_692_1704)"/>
<path d="M115.969 98.3662C116.06 94.792 116.696 93.3936 118.04 91.1182V105.614C115.723 100.811 114.342 99.4138 111.827 99.4015C113.365 97.8121 114.277 97.3638 115.969 98.3662Z" fill="url(#paint3_radial_692_1704)"/>
<path d="M185.366 108.06C186.69 108.487 188.157 108.504 189.362 107.809C191.499 106.575 191.937 105.154 191.555 102.508V102.508C193.199 103.056 194.016 104.953 193.045 106.388C192.081 107.812 190.985 108.974 189.452 110.246C188.161 111.316 186.509 111.855 184.833 111.812C179.638 111.679 177.044 110.851 173.953 108.72C174.974 110.641 174.917 111.76 174.09 113.6C174.018 113.76 173.822 113.822 173.671 113.731C171.996 112.73 171.075 111.892 169.811 109.756C169.863 114.032 169.094 113.977 165.669 114.933C168.559 110.86 168.026 109.221 165.881 106.254C165.083 105.151 163.953 104.331 162.673 103.866L157.501 101.985C154.744 100.982 151.73 100.942 148.947 101.869L131.905 107.55C131.771 107.435 131.636 107.326 131.5 107.223V104.508C131.5 103.403 130.605 102.508 129.5 102.508H127.288C126.183 102.508 125.288 103.403 125.288 104.508V105.614H124.252V103.472C124.252 102.368 125.148 101.472 126.252 101.472H130.536C131.64 101.472 132.536 102.368 132.536 103.472V106.65C137.305 103.748 142.547 101.584 149.353 99.7769C153.233 98.747 157.325 99.0145 161.146 100.247L185.366 108.06Z" fill="url(#paint4_radial_692_1704)"/>
<path fill-rule="evenodd" clip-rule="evenodd" d="M118.04 111.827V108.721C120.621 105.74 121.915 105.799 124.252 105.614H125.288C128.016 105.589 129.856 105.979 131.5 107.223V107.685L131.905 107.55C132.809 108.327 133.669 109.382 134.607 110.791C141.656 108.167 143.837 105.859 151.448 104.117C153.286 103.696 155.241 103.854 156.905 104.739C158.938 105.82 160.331 107.075 161.678 109.235C162.281 110.201 162.374 111.42 161.864 112.438C161.029 114.107 159.829 115.417 156.941 117.128C155.96 117.709 154.728 117.62 153.8 116.957L149.799 114.099C148.86 113.429 148.666 112.09 149.457 111.251C151.248 109.354 152.356 109.09 154.28 109.756C153.054 110.067 152.331 110.456 151.683 111.688C151.319 112.378 151.527 113.216 152.079 113.767L153.803 115.492C154.708 116.397 156.112 116.664 157.173 115.948C158.687 114.927 159.601 113.802 160.591 112.283C161.185 111.372 161.225 110.185 160.599 109.296C158.891 106.871 157.002 106.022 153.244 105.614C148.565 105.758 142.105 109.592 134.607 112.862C134.468 115.305 134.252 117.608 130.648 119.531C129.929 119.915 129.052 119.733 128.475 119.156L125.827 116.508C125.529 116.21 125.529 115.727 125.827 115.429V115.429C126.107 115.149 126.557 115.134 126.868 115.381C131.196 118.812 132.729 117.017 133.571 112.862C127.294 113.743 124.479 112.063 123.217 106.65H121.146L118.04 111.827ZM133.571 111.827C130.755 107.593 128.662 106.549 124.252 106.65C126.497 111.782 128.455 113.001 133.571 111.827Z" fill="url(#paint5_radial_692_1704)"/>
<path d="M118.04 114.933V111.827C119.967 115.763 119.89 118.074 125.288 119.075C124.119 121.038 123.273 121.636 121.146 121.146C120.755 125.201 120.362 127.472 118.04 131.5V125.287C119.376 121.107 119.126 118.865 118.04 114.933Z" fill="url(#paint6_radial_692_1704)"/>
<path d="M120.11 98.3662C120.019 94.792 119.383 93.3936 118.04 91.1182V105.614C120.356 100.811 121.737 99.4138 124.252 99.4015C122.714 97.8121 121.802 97.3638 120.11 98.3662Z" fill="url(#paint7_radial_692_1704)"/>
<path d="M67.6719 46.7266C68.474 46.7266 69.2904 46.8197 70.1211 47.0059C70.9518 47.1921 71.7754 47.4928 72.5918 47.9082C73.4082 48.3236 74.0742 48.9323 74.5898 49.7344C75.1055 50.5365 75.3633 51.4818 75.3633 52.5703C75.3633 53.4583 75.1699 54.332 74.7832 55.1914C74.3965 56.0508 73.9382 56.7741 73.4082 57.3613C72.8353 57.9772 72.2194 58.5358 71.5605 59.0371C70.8587 59.5671 70.2643 59.9681 69.7773 60.2402C69.2904 60.5124 68.8464 60.7487 68.4453 60.9492C68.1875 61.0352 68.1159 61.207 68.2305 61.4648C68.6029 62.7253 69.0469 64.0286 69.5625 65.375C70.0781 66.7214 70.6081 67.9674 71.1523 69.1133C71.6966 70.2448 72.1836 71.1471 72.6133 71.8203C72.8568 72.2214 73.1361 72.5794 73.4512 72.8945C73.7663 73.1953 74.0742 73.3958 74.375 73.4961C74.4609 73.5247 74.5326 73.5534 74.5898 73.582C74.6615 73.5964 74.7188 73.6178 74.7617 73.6465C74.8333 73.6751 74.9694 73.7038 75.1699 73.7324C75.2988 73.7467 75.4993 73.7539 75.7715 73.7539C76.0579 73.7539 76.237 73.7539 76.3086 73.7539C76.5091 74.2982 76.5234 74.6992 76.3516 74.957C75.6784 75.1003 74.8477 75.1719 73.8594 75.1719C71.9544 75.1719 70.3932 74.2409 69.1758 72.3789C68.5599 71.4479 67.901 70.1374 67.1992 68.4473C66.4974 66.7572 65.7526 64.6875 64.9648 62.2383C64.8216 61.8372 64.1914 61.6367 63.0742 61.6367C62.1862 61.6367 61.599 61.6725 61.3125 61.7441C61.069 61.8014 60.9115 62.0091 60.8398 62.3672L59.5938 69.0273C59.2786 70.5599 59.1211 71.849 59.1211 72.8945C59.1211 73.1237 59.3145 73.3314 59.7012 73.5176C60.0879 73.7038 60.4674 73.8255 60.8398 73.8828L61.4414 73.9688C61.4987 73.9688 61.5273 74.026 61.5273 74.1406C61.5273 74.4557 61.4414 74.7852 61.2695 75.1289C59.9375 75.0573 58.8991 75.0072 58.1543 74.9785C57.4095 74.9355 56.9583 74.9141 56.8008 74.9141C56.7578 74.9141 56.3424 74.9355 55.5547 74.9785C54.7669 75.0072 53.6068 75.0573 52.0742 75.1289C52.0169 75.0716 51.9883 74.957 51.9883 74.7852C51.9883 74.2409 52.0885 73.9688 52.2891 73.9688C52.5182 73.9688 52.8333 73.9258 53.2344 73.8398C53.6497 73.7539 54.0365 73.6393 54.3945 73.4961C54.7526 73.3529 54.9674 73.1953 55.0391 73.0234C55.3398 72.293 55.7122 70.918 56.1562 68.8984L59.6797 51.1094C59.8229 50.3932 59.8945 49.6771 59.8945 48.9609C59.8945 48.6172 59.6081 48.3522 59.0352 48.166C58.4622 47.9798 57.9896 47.8867 57.6172 47.8867C57.5599 47.8867 57.5312 47.7865 57.5312 47.5859C57.5312 47.1706 57.6315 46.8841 57.832 46.7266C59.0638 46.8125 60.5534 46.8555 62.3008 46.8555C63.1029 46.8555 63.998 46.834 64.9863 46.791C65.9746 46.748 66.8698 46.7266 67.6719 46.7266ZM66.9844 48.3164C65.5234 48.3164 64.5996 48.3594 64.2129 48.4453C63.8405 48.5312 63.6185 48.7604 63.5469 49.1328L61.4844 59.1445V59.2305C61.4844 59.6602 62.1576 59.875 63.5039 59.875C64.8073 59.875 66.0677 59.6243 67.2852 59.123C68.4883 58.6217 69.5267 57.7767 70.4004 56.5879C71.2741 55.3991 71.7109 53.9883 71.7109 52.3555C71.7109 49.6628 70.1354 48.3164 66.9844 48.3164ZM91.5625 56.3086C92.6224 56.3086 93.668 56.4948 94.6992 56.8672L92.0781 70.4453C91.9922 70.7891 91.9492 71.1471 91.9492 71.5195C91.9492 72.2357 92.0924 72.5938 92.3789 72.5938C92.737 72.5938 93.1667 72.3431 93.668 71.8418C94.1693 71.3262 94.599 70.8893 94.957 70.5312L95.2148 70.2305C95.2721 70.2305 95.3796 70.3665 95.5371 70.6387C95.6947 70.9108 95.7734 71.1042 95.7734 71.2188C95.5299 71.6341 95.0859 72.1641 94.4414 72.8086C93.8112 73.4531 93.1237 74.026 92.3789 74.5273C91.6341 75.0143 90.9609 75.2578 90.3594 75.2578C89.901 75.2578 89.543 75.0501 89.2852 74.6348C89.0273 74.2194 88.8984 73.6823 88.8984 73.0234C88.8984 72.5794 88.9987 71.8203 89.1992 70.7461L89.3496 69.9941C89.3926 69.7936 89.4141 69.6719 89.4141 69.6289C89.1849 70.0586 88.8555 70.5885 88.4258 71.2188C87.9961 71.8346 87.502 72.4505 86.9434 73.0664C86.3848 73.6823 85.7975 74.1979 85.1816 74.6133C84.5658 75.0143 83.957 75.2148 83.3555 75.2148C82.0951 75.2148 81.0996 74.6491 80.3691 73.5176C79.6387 72.3861 79.2734 71.0182 79.2734 69.4141C79.2734 67.3659 79.8822 65.3249 81.0996 63.291C81.916 61.916 82.89 60.7057 84.0215 59.6602C85.1673 58.6146 86.3919 57.7982 87.6953 57.2109C88.9987 56.6094 90.2878 56.3086 91.5625 56.3086ZM89.7578 58.2852C88.9128 58.2852 88.0605 58.5859 87.2012 59.1875C86.3418 59.7747 85.554 60.5697 84.8379 61.5723C84.1217 62.5605 83.5417 63.6634 83.0977 64.8809C82.668 66.084 82.4531 67.2943 82.4531 68.5117C82.4531 71.319 83.1836 72.7227 84.6445 72.7227C85.1602 72.7227 85.7188 72.4362 86.3203 71.8633C86.9219 71.2904 87.5163 70.5312 88.1035 69.5859C88.6908 68.6406 89.2064 67.6165 89.6504 66.5137C90.1087 65.3965 90.4453 64.3008 90.6602 63.2266L91.5195 58.8438C91.1758 58.4714 90.5885 58.2852 89.7578 58.2852ZM111.758 56.3086C113.19 56.3086 113.906 57.2539 113.906 59.1445C113.906 60.4766 113.706 62.0378 113.305 63.8281L111.887 70.4453C111.801 70.7891 111.758 71.1471 111.758 71.5195C111.758 72.2357 111.901 72.5938 112.188 72.5938C112.546 72.5938 112.975 72.3431 113.477 71.8418C113.978 71.3262 114.408 70.8893 114.766 70.5312L115.023 70.2305C115.081 70.2305 115.188 70.3665 115.346 70.6387C115.503 70.9108 115.582 71.1042 115.582 71.2188C115.339 71.6341 114.895 72.1641 114.25 72.8086C113.62 73.4531 112.932 74.026 112.188 74.5273C111.443 75.0143 110.77 75.2578 110.168 75.2578C109.71 75.2578 109.352 75.0501 109.094 74.6348C108.836 74.2194 108.707 73.6823 108.707 73.0234C108.707 72.5938 108.807 71.8346 109.008 70.7461L110.512 63.6562C110.712 62.6823 110.812 61.9089 110.812 61.3359C110.812 60.1042 110.54 59.4883 109.996 59.4883C109.523 59.4883 108.886 59.8464 108.084 60.5625C107.282 61.2643 106.444 62.2025 105.57 63.377C104.711 64.5514 103.93 65.862 103.229 67.3086C102.527 68.7409 102.033 70.1875 101.746 71.6484L101.016 75C100.629 75.1146 100.185 75.1719 99.6836 75.1719C99.1966 75.1719 98.7096 75.1146 98.2227 75L102.863 50.9805C103.121 49.7057 103.25 48.9466 103.25 48.7031C103.25 48.1589 102.376 47.8867 100.629 47.8867C100.543 47.8867 100.5 47.8008 100.5 47.6289C100.5 47.2852 100.615 46.9987 100.844 46.7695C102.706 46.5977 104.51 46.1966 106.258 45.5664C106.43 45.6523 106.516 45.9245 106.516 46.3828C106.516 46.5833 106.329 47.6576 105.957 49.6055L102.992 64.7734C103.264 64.2865 103.887 63.3984 104.861 62.1094C105.506 61.2643 106.251 60.3978 107.096 59.5098C107.955 58.6074 108.8 57.8483 109.631 57.2324C110.476 56.6165 111.185 56.3086 111.758 56.3086ZM132.168 56.3086C132.941 56.3086 133.536 56.5378 133.951 56.9961C134.367 57.4544 134.617 57.9342 134.703 58.4355C134.789 58.9368 134.832 59.5885 134.832 60.3906C134.832 60.9206 134.632 62.1953 134.23 64.2148C134.703 63.3984 135.29 62.5319 135.992 61.6152C136.694 60.6986 137.432 59.8392 138.205 59.0371C138.979 58.235 139.723 57.5833 140.439 57.082C141.156 56.5664 141.764 56.3086 142.266 56.3086C143.211 56.3086 143.855 56.5449 144.199 57.0176C144.543 57.4902 144.715 58.1992 144.715 59.1445C144.715 60.4766 144.514 62.0378 144.113 63.8281L142.695 70.4453C142.609 70.7891 142.566 71.1471 142.566 71.5195C142.566 72.2357 142.71 72.5938 142.996 72.5938C143.354 72.5938 143.784 72.3431 144.285 71.8418C144.786 71.3262 145.216 70.8893 145.574 70.5312L145.832 70.2305C145.889 70.2305 145.997 70.3665 146.154 70.6387C146.312 70.9108 146.391 71.1042 146.391 71.2188C146.147 71.6341 145.703 72.1641 145.059 72.8086C144.428 73.4531 143.741 74.026 142.996 74.5273C142.251 75.0143 141.578 75.2578 140.977 75.2578C140.518 75.2578 140.16 75.0501 139.902 74.6348C139.645 74.2194 139.516 73.6823 139.516 73.0234C139.516 72.5938 139.616 71.8346 139.816 70.7461L141.32 63.6562C141.521 62.6823 141.621 61.9089 141.621 61.3359C141.621 60.8346 141.578 60.4049 141.492 60.0469C141.421 59.6745 141.191 59.4883 140.805 59.4883C140.318 59.4883 139.68 59.832 138.893 60.5195C138.119 61.207 137.317 62.1165 136.486 63.248C135.656 64.3652 134.911 65.597 134.252 66.9434C133.593 68.2754 133.142 69.6003 132.898 70.918L132.125 75H129.246L131.652 62.7969C131.767 62.1523 131.824 61.6081 131.824 61.1641C131.824 60.0469 131.538 59.4883 130.965 59.4883C130.464 59.4883 129.826 59.8678 129.053 60.627C128.279 61.3861 127.484 62.3672 126.668 63.5703C125.852 64.7734 125.121 66.0553 124.477 67.416C123.832 68.7624 123.388 70.0299 123.145 71.2188L122.371 75C121.569 75.1146 121.082 75.1719 120.91 75.1719C120.767 75.1719 120.294 75.1146 119.492 75L122.07 61.7656C122.214 60.7773 122.285 60.2044 122.285 60.0469C122.285 59.3307 122.142 58.9727 121.855 58.9727C121.612 58.9727 121.247 59.2018 120.76 59.6602C120.531 59.8893 120.28 60.14 120.008 60.4121C119.75 60.6842 119.578 60.8776 119.492 60.9922C119.435 60.9922 119.327 60.8561 119.17 60.584C119.012 60.3118 118.934 60.1185 118.934 60.0039C119.163 59.6172 119.578 59.1374 120.18 58.5645C120.781 57.9772 121.426 57.4544 122.113 56.9961C122.801 56.5378 123.388 56.3086 123.875 56.3086C124.333 56.3086 124.691 56.5163 124.949 56.9316C125.207 57.347 125.336 57.8841 125.336 58.543C125.336 59.1732 125.25 59.9323 125.078 60.8203L124.305 64.8164C124.835 63.8997 125.443 62.9473 126.131 61.959C126.833 60.9707 127.549 60.0469 128.279 59.1875C129.024 58.3281 129.733 57.6335 130.406 57.1035C131.079 56.5736 131.667 56.3086 132.168 56.3086ZM158.336 56.3086C160.026 56.3086 161.337 56.8958 162.268 58.0703C163.199 59.2448 163.664 60.8633 163.664 62.9258C163.664 64.401 163.378 65.8691 162.805 67.3301C162.232 68.7767 161.48 70.0944 160.549 71.2832C159.618 72.472 158.594 73.4245 157.477 74.1406C156.359 74.8568 155.257 75.2148 154.168 75.2148C152.449 75.2148 151.139 74.6562 150.236 73.5391C149.334 72.4219 148.883 70.832 148.883 68.7695C148.883 67.2799 149.162 65.8047 149.721 64.3438C150.294 62.8685 151.046 61.5293 151.977 60.3262C152.908 59.1087 153.924 58.1348 155.027 57.4043C156.145 56.6738 157.247 56.3086 158.336 56.3086ZM157.82 58.0703C157.104 58.0703 156.41 58.3854 155.736 59.0156C155.063 59.6315 154.454 60.4408 153.91 61.4434C153.366 62.446 152.936 63.5417 152.621 64.7305C152.306 65.9193 152.148 67.0794 152.148 68.2109C152.148 69.8724 152.413 71.1615 152.943 72.0781C153.473 72.9948 154.139 73.4531 154.941 73.4531C155.658 73.4531 156.338 73.1452 156.982 72.5293C157.641 71.8991 158.229 71.0827 158.744 70.0801C159.26 69.0632 159.661 67.9603 159.947 66.7715C160.248 65.5827 160.398 64.4154 160.398 63.2695C160.398 61.5794 160.169 60.2904 159.711 59.4023C159.253 58.5143 158.622 58.0703 157.82 58.0703ZM172.258 56.3086C172.716 56.3086 173.074 56.5163 173.332 56.9316C173.59 57.347 173.719 57.8841 173.719 58.543C173.719 59.1732 173.633 59.9323 173.461 60.8203L172.688 64.7734C172.96 64.2865 173.583 63.3984 174.557 62.1094C175.201 61.2643 175.946 60.3978 176.791 59.5098C177.65 58.6074 178.495 57.8483 179.326 57.2324C180.171 56.6165 180.88 56.3086 181.453 56.3086C182.885 56.3086 183.602 57.2539 183.602 59.1445C183.602 60.4766 183.401 62.0378 183 63.8281L181.582 70.4453C181.496 70.7891 181.453 71.1471 181.453 71.5195C181.453 72.2357 181.596 72.5938 181.883 72.5938C182.241 72.5938 182.671 72.3431 183.172 71.8418C183.673 71.3262 184.103 70.8893 184.461 70.5312L184.719 70.2305C184.776 70.2305 184.883 70.3665 185.041 70.6387C185.199 70.9108 185.277 71.1042 185.277 71.2188C185.034 71.6341 184.59 72.1641 183.945 72.8086C183.315 73.4531 182.628 74.026 181.883 74.5273C181.138 75.0143 180.465 75.2578 179.863 75.2578C179.405 75.2578 179.047 75.0501 178.789 74.6348C178.531 74.2194 178.402 73.6823 178.402 73.0234C178.402 72.5938 178.503 71.8346 178.703 70.7461L180.207 63.6562C180.408 62.6823 180.508 61.9089 180.508 61.3359C180.508 60.1042 180.236 59.4883 179.691 59.4883C179.219 59.4883 178.581 59.8464 177.779 60.5625C176.977 61.2643 176.139 62.2025 175.266 63.377C174.406 64.5514 173.626 65.862 172.924 67.3086C172.222 68.7409 171.728 70.1875 171.441 71.6484L170.711 75C170.324 75.1146 169.88 75.1719 169.379 75.1719C168.892 75.1719 168.405 75.1146 167.918 75L170.453 61.7656C170.596 60.7773 170.668 60.2044 170.668 60.0469C170.668 59.3307 170.525 58.9727 170.238 58.9727C169.995 58.9727 169.63 59.2018 169.143 59.6602C168.913 59.8893 168.663 60.14 168.391 60.4121C168.133 60.6842 167.961 60.8776 167.875 60.9922C167.818 60.9922 167.71 60.8561 167.553 60.584C167.395 60.3118 167.316 60.1185 167.316 60.0039C167.546 59.6172 167.961 59.1374 168.562 58.5645C169.164 57.9772 169.809 57.4544 170.496 56.9961C171.184 56.5378 171.771 56.3086 172.258 56.3086Z" fill="white"/>
<path d="M0 14.4961C6.30012 20.0984 15.0791 19.1979 30.687 15.1421C32.2497 14.736 33.9168 14.9601 35.3059 15.7832L61.0905 31.063L35.3304 19.6141C33.9205 18.9874 32.3183 18.9353 30.8588 19.4358C12.5496 25.7159 4.73674 24.7283 0 14.4961Z" fill="url(#paint8_radial_692_1704)"/>
<path d="M16.5669 25.8858C22.7094 27.5488 34.4861 19.1752 43.5027 24.2129C35.7991 20.3448 24.9274 34.7378 16.5669 25.8858Z" fill="url(#paint9_radial_692_1704)"/>
<path d="M42.4528 34.1693C40.4746 32.9379 39.8039 31.791 39.5364 30.2054C39.314 28.8871 40.2138 27.6374 41.514 27.3262C46.4064 26.1551 49.6595 27.3172 54.8779 31.063C50.3759 26.3362 46.8249 25.2844 39.6469 25.78C38.7972 25.8387 38.0191 26.2751 37.5081 26.9564L36.1669 28.7446C35.6047 29.4943 35.6307 30.5432 36.2784 31.2205C38.4425 33.4837 39.9798 34.1156 42.4528 34.1693Z" fill="url(#paint10_radial_692_1704)"/>
<path d="M61.0905 28.9921C48.8725 19.5072 53.131 18.6378 60.0551 10.3543C56.6285 8.93238 54.8937 8.83857 52.8071 12.4252C51.2879 8.29387 49.7783 6.42726 45.559 4.14173C43.8524 8.52031 44.6321 10.6991 46.5945 14.4961C42.9378 12.0347 40.7471 11.3823 36.2402 13.4606C46.3046 17.727 45.2926 18.8748 61.0905 28.9921Z" fill="url(#paint11_radial_692_1704)"/>
<path d="M78.6929 22.7441C78.6929 22.1918 79.1406 21.7441 79.6929 21.7441H79.7638C80.3161 21.7441 80.7638 22.1918 80.7638 22.7441V25.9213C80.7638 26.4735 80.3161 26.9213 79.7638 26.9213H74.4803C73.3757 26.9213 72.4803 26.0258 72.4803 24.9213V19.6024C72.4803 18.4978 73.3757 17.6024 74.4803 17.6024H78.7281C80.6137 17.6024 82.4755 18.023 84.178 18.8337V18.8337C85.2965 19.3663 86.1249 20.3629 86.4441 21.5599L88.3399 28.6695C89.2063 31.9182 86.6836 35.0788 83.3237 34.9544L68.0679 34.3894C64.7776 34.2675 62.2002 31.5169 62.2923 28.2256L62.6948 13.8426C62.7856 10.5955 65.4441 8.01038 68.6924 8.01038H83.0387C86.0229 8.01038 88.8896 9.21712 90.915 11.4088C101.807 23.194 109.097 33.3225 115.395 32.2299C115.685 32.1796 115.968 32.3916 115.968 32.686V32.686C115.968 32.9325 115.766 33.1318 115.519 33.1285C109.37 33.045 105.37 32.4313 87.653 13.254C86.5367 12.0456 85.0793 11.1983 83.4735 10.8414L77.8584 9.59364C77.0431 9.41248 76.199 9.4035 75.3801 9.56728L71.091 10.4251C68.2865 10.986 66.2677 13.4485 66.2677 16.3086V27.0984C66.2677 29.8599 68.5063 32.0984 71.2677 32.0984H80.9055C83.1146 32.0984 84.9055 30.3076 84.9055 28.0984V22.6378C84.9055 20.4287 83.1146 18.6378 80.9055 18.6378H76.5512C75.4466 18.6378 74.5512 19.5332 74.5512 20.6378V24.8858C74.5512 25.4381 74.9989 25.8858 75.5512 25.8858H77.6929C78.2452 25.8858 78.6929 25.4381 78.6929 24.8858V22.7441Z" fill="url(#paint12_radial_692_1704)"/>
<path d="M104.412 33.0631C96.4743 29.9513 88.3242 12.4066 78.6929 13.4606C91.6665 19.2326 92.9183 31.4785 104.412 33.0631Z" fill="url(#paint13_radial_692_1704)"/>
<path d="M111.827 30.0276C106.485 21.6827 106.361 16.9143 110.791 8.28346C105.363 9.71409 97.6256 19.5114 111.827 30.0276Z" fill="url(#paint14_radial_692_1704)"/>
<path d="M118.039 10.3543C113.102 14.0549 110.405 23.2793 118.039 32.0984C106.33 25.6888 109.793 12.7713 118.039 0V10.3543Z" fill="url(#paint15_radial_692_1704)"/>
<path d="M236.079 14.4961C229.778 20.0984 221 19.1979 205.392 15.1421C203.829 14.736 202.162 14.9601 200.773 15.7832L174.988 31.063L200.748 19.6141C202.158 18.9874 203.76 18.9353 205.22 19.4358C223.529 25.7159 231.342 24.7283 236.079 14.4961Z" fill="url(#paint16_radial_692_1704)"/>
<path d="M219.512 25.8858C213.369 27.5488 201.593 19.1752 192.576 24.2129C200.279 20.3448 211.151 34.7378 219.512 25.8858Z" fill="url(#paint17_radial_692_1704)"/>
<path d="M193.626 34.1693C195.604 32.9379 196.275 31.791 196.542 30.2054C196.765 28.8871 195.865 27.6374 194.565 27.3262C189.672 26.1551 186.419 27.3172 181.201 31.063C185.703 26.3362 189.254 25.2844 196.432 25.78C197.281 25.8387 198.06 26.2751 198.571 26.9564L199.912 28.7446C200.474 29.4943 200.448 30.5432 199.8 31.2205C197.636 33.4837 196.099 34.1156 193.626 34.1693Z" fill="url(#paint18_radial_692_1704)"/>
<path d="M174.988 28.9921C187.206 19.5072 182.948 18.6378 176.024 10.3543C179.45 8.93238 181.185 8.83857 183.272 12.4252C184.791 8.29387 186.3 6.42726 190.52 4.14173C192.226 8.52031 191.446 10.6991 189.484 14.4961C193.141 12.0347 195.331 11.3823 199.838 13.4606C189.774 17.727 190.786 18.8748 174.988 28.9921Z" fill="url(#paint19_radial_692_1704)"/>
<path d="M157.386 22.7441C157.386 22.1918 156.938 21.7441 156.386 21.7441H156.315C155.763 21.7441 155.315 22.1918 155.315 22.7441V25.9213C155.315 26.4735 155.763 26.9213 156.315 26.9213H161.598C162.703 26.9213 163.598 26.0258 163.598 24.9213V19.6024C163.598 18.4978 162.703 17.6024 161.598 17.6024H157.351C155.465 17.6024 153.603 18.023 151.901 18.8337V18.8337C150.782 19.3663 149.954 20.3629 149.635 21.5599L147.739 28.6695C146.872 31.9182 149.395 35.0788 152.755 34.9544L168.011 34.3894C171.301 34.2675 173.878 31.5169 173.786 28.2256L173.384 13.8426C173.293 10.5955 170.635 8.01038 167.386 8.01038H153.04C150.056 8.01038 147.189 9.21712 145.164 11.4088C134.272 23.194 126.982 33.3225 120.683 32.2299C120.393 32.1796 120.11 32.3916 120.11 32.686V32.686C120.11 32.9325 120.313 33.1318 120.559 33.1285C126.708 33.045 130.709 32.4313 148.426 13.254C149.542 12.0456 150.999 11.1983 152.605 10.8414L158.22 9.59364C159.035 9.41248 159.88 9.4035 160.698 9.56728L164.988 10.4251C167.792 10.986 169.811 13.4485 169.811 16.3086V27.0984C169.811 29.8599 167.572 32.0984 164.811 32.0984H155.173C152.964 32.0984 151.173 30.3076 151.173 28.0984V22.6378C151.173 20.4287 152.964 18.6378 155.173 18.6378H159.527C160.632 18.6378 161.527 19.5332 161.527 20.6378V24.8858C161.527 25.4381 161.08 25.8858 160.527 25.8858H158.386C157.833 25.8858 157.386 25.4381 157.386 24.8858V22.7441Z" fill="url(#paint20_radial_692_1704)"/>
<path d="M131.666 33.0631C139.604 29.9513 147.754 12.4066 157.386 13.4606C144.412 19.2326 143.16 31.4785 131.666 33.0631Z" fill="url(#paint21_radial_692_1704)"/>
<path d="M124.252 30.0276C129.594 21.6827 129.718 16.9143 125.287 8.28346C130.716 9.71409 138.453 19.5114 124.252 30.0276Z" fill="url(#paint22_radial_692_1704)"/>
<path d="M118.039 10.3543C122.976 14.0549 125.673 23.2793 118.039 32.0984C129.749 25.6888 126.286 12.7713 118.039 0V10.3543Z" fill="url(#paint23_radial_692_1704)"/>
<defs>
<radialGradient id="paint0_radial_692_1704" cx="0" cy="0" r="1" gradientUnits="userSpaceOnUse" gradientTransform="translate(79.7285 111.309) scale(38.311 20.1909)">
<stop stop-color="#E1E1E1"/>
<stop offset="1" stop-color="#FFF4DA"/>
</radialGradient>
<radialGradient id="paint1_radial_692_1704" cx="0" cy="0" r="1" gradientUnits="userSpaceOnUse" gradientTransform="translate(79.7285 111.309) scale(38.311 20.1909)">
<stop stop-color="#E1E1E1"/>
<stop offset="1" stop-color="#FFF4DA"/>
</radialGradient>
<radialGradient id="paint2_radial_692_1704" cx="0" cy="0" r="1" gradientUnits="userSpaceOnUse" gradientTransform="translate(79.7285 111.309) scale(38.311 20.1909)">
<stop stop-color="#E1E1E1"/>
<stop offset="1" stop-color="#FFF4DA"/>
</radialGradient>
<radialGradient id="paint3_radial_692_1704" cx="0" cy="0" r="1" gradientUnits="userSpaceOnUse" gradientTransform="translate(79.7285 111.309) scale(38.311 20.1909)">
<stop stop-color="#E1E1E1"/>
<stop offset="1" stop-color="#FFF4DA"/>
</radialGradient>
<radialGradient id="paint4_radial_692_1704" cx="0" cy="0" r="1" gradientUnits="userSpaceOnUse" gradientTransform="translate(156.351 111.309) rotate(180) scale(38.311 20.1909)">
<stop stop-color="#E1E1E1"/>
<stop offset="1" stop-color="#FFF4DA"/>
</radialGradient>
<radialGradient id="paint5_radial_692_1704" cx="0" cy="0" r="1" gradientUnits="userSpaceOnUse" gradientTransform="translate(156.351 111.309) rotate(180) scale(38.311 20.1909)">
<stop stop-color="#E1E1E1"/>
<stop offset="1" stop-color="#FFF4DA"/>
</radialGradient>
<radialGradient id="paint6_radial_692_1704" cx="0" cy="0" r="1" gradientUnits="userSpaceOnUse" gradientTransform="translate(156.351 111.309) rotate(180) scale(38.311 20.1909)">
<stop stop-color="#E1E1E1"/>
<stop offset="1" stop-color="#FFF4DA"/>
</radialGradient>
<radialGradient id="paint7_radial_692_1704" cx="0" cy="0" r="1" gradientUnits="userSpaceOnUse" gradientTransform="translate(156.351 111.309) rotate(180) scale(38.311 20.1909)">
<stop stop-color="#E1E1E1"/>
<stop offset="1" stop-color="#FFF4DA"/>
</radialGradient>
<radialGradient id="paint8_radial_692_1704" cx="0" cy="0" r="1" gradientUnits="userSpaceOnUse" gradientTransform="translate(59.0197 17.6024) scale(59.0197 17.6024)">
<stop stop-color="#E1E1E1"/>
<stop offset="1" stop-color="#FFF4DA"/>
</radialGradient>
<radialGradient id="paint9_radial_692_1704" cx="0" cy="0" r="1" gradientUnits="userSpaceOnUse" gradientTransform="translate(59.0197 17.6024) scale(59.0197 17.6024)">
<stop stop-color="#E1E1E1"/>
<stop offset="1" stop-color="#FFF4DA"/>
</radialGradient>
<radialGradient id="paint10_radial_692_1704" cx="0" cy="0" r="1" gradientUnits="userSpaceOnUse" gradientTransform="translate(59.0197 17.6024) scale(59.0197 17.6024)">
<stop stop-color="#E1E1E1"/>
<stop offset="1" stop-color="#FFF4DA"/>
</radialGradient>
<radialGradient id="paint11_radial_692_1704" cx="0" cy="0" r="1" gradientUnits="userSpaceOnUse" gradientTransform="translate(59.0197 17.6024) scale(59.0197 17.6024)">
<stop stop-color="#E1E1E1"/>
<stop offset="1" stop-color="#FFF4DA"/>
</radialGradient>
<radialGradient id="paint12_radial_692_1704" cx="0" cy="0" r="1" gradientUnits="userSpaceOnUse" gradientTransform="translate(59.0197 17.6024) scale(59.0197 17.6024)">
<stop stop-color="#E1E1E1"/>
<stop offset="1" stop-color="#FFF4DA"/>
</radialGradient>
<radialGradient id="paint13_radial_692_1704" cx="0" cy="0" r="1" gradientUnits="userSpaceOnUse" gradientTransform="translate(59.0197 17.6024) scale(59.0197 17.6024)">
<stop stop-color="#E1E1E1"/>
<stop offset="1" stop-color="#FFF4DA"/>
</radialGradient>
<radialGradient id="paint14_radial_692_1704" cx="0" cy="0" r="1" gradientUnits="userSpaceOnUse" gradientTransform="translate(59.0197 17.6024) scale(59.0197 17.6024)">
<stop stop-color="#E1E1E1"/>
<stop offset="1" stop-color="#FFF4DA"/>
</radialGradient>
<radialGradient id="paint15_radial_692_1704" cx="0" cy="0" r="1" gradientUnits="userSpaceOnUse" gradientTransform="translate(59.0197 17.6024) scale(59.0197 17.6024)">
<stop stop-color="#E1E1E1"/>
<stop offset="1" stop-color="#FFF4DA"/>
</radialGradient>
<radialGradient id="paint16_radial_692_1704" cx="0" cy="0" r="1" gradientUnits="userSpaceOnUse" gradientTransform="translate(177.059 17.6024) rotate(180) scale(59.0197 17.6024)">
<stop stop-color="#E1E1E1"/>
<stop offset="1" stop-color="#FFF4DA"/>
</radialGradient>
<radialGradient id="paint17_radial_692_1704" cx="0" cy="0" r="1" gradientUnits="userSpaceOnUse" gradientTransform="translate(177.059 17.6024) rotate(180) scale(59.0197 17.6024)">
<stop stop-color="#E1E1E1"/>
<stop offset="1" stop-color="#FFF4DA"/>
</radialGradient>
<radialGradient id="paint18_radial_692_1704" cx="0" cy="0" r="1" gradientUnits="userSpaceOnUse" gradientTransform="translate(177.059 17.6024) rotate(180) scale(59.0197 17.6024)">
<stop stop-color="#E1E1E1"/>
<stop offset="1" stop-color="#FFF4DA"/>
</radialGradient>
<radialGradient id="paint19_radial_692_1704" cx="0" cy="0" r="1" gradientUnits="userSpaceOnUse" gradientTransform="translate(177.059 17.6024) rotate(180) scale(59.0197 17.6024)">
<stop stop-color="#E1E1E1"/>
<stop offset="1" stop-color="#FFF4DA"/>
</radialGradient>
<radialGradient id="paint20_radial_692_1704" cx="0" cy="0" r="1" gradientUnits="userSpaceOnUse" gradientTransform="translate(177.059 17.6024) rotate(180) scale(59.0197 17.6024)">
<stop stop-color="#E1E1E1"/>
<stop offset="1" stop-color="#FFF4DA"/>
</radialGradient>
<radialGradient id="paint21_radial_692_1704" cx="0" cy="0" r="1" gradientUnits="userSpaceOnUse" gradientTransform="translate(177.059 17.6024) rotate(180) scale(59.0197 17.6024)">
<stop stop-color="#E1E1E1"/>
<stop offset="1" stop-color="#FFF4DA"/>
</radialGradient>
<radialGradient id="paint22_radial_692_1704" cx="0" cy="0" r="1" gradientUnits="userSpaceOnUse" gradientTransform="translate(177.059 17.6024) rotate(180) scale(59.0197 17.6024)">
<stop stop-color="#E1E1E1"/>
<stop offset="1" stop-color="#FFF4DA"/>
</radialGradient>
<radialGradient id="paint23_radial_692_1704" cx="0" cy="0" r="1" gradientUnits="userSpaceOnUse" gradientTransform="translate(177.059 17.6024) rotate(180) scale(59.0197 17.6024)">
<stop stop-color="#E1E1E1"/>
<stop offset="1" stop-color="#FFF4DA"/>
</radialGradient>
</defs>
</svg>
