<svg width="237" height="132" viewBox="0 0 237 132" fill="none" xmlns="http://www.w3.org/2000/svg">
<path d="M50.7125 108.06C49.3889 108.487 47.9214 108.504 46.7169 107.809C44.5794 106.575 44.1412 105.154 44.5234 102.508V102.508C42.8798 103.056 42.063 104.953 43.0339 106.388C43.9977 107.812 45.0937 108.974 46.6267 110.246C47.9171 111.316 49.5696 111.855 51.2458 111.812C56.4406 111.679 59.0349 110.851 62.1257 108.72C61.1051 110.641 61.1618 111.76 61.9885 113.6C62.0605 113.76 62.2568 113.822 62.4077 113.731C64.0825 112.73 65.0039 111.892 66.2674 109.756C66.2154 114.032 66.9843 113.977 70.4091 114.933C67.5194 110.86 68.0525 109.221 70.1981 106.254C70.9958 105.151 72.1259 104.331 73.4053 103.866L78.5776 101.985C81.3342 100.982 84.3487 100.942 87.1313 101.869L104.173 107.55C104.307 107.435 104.442 107.326 104.578 107.223V104.508C104.578 103.403 105.474 102.508 106.578 102.508H108.791C109.896 102.508 110.791 103.403 110.791 104.508V105.614H111.826V103.472C111.826 102.368 110.931 101.472 109.826 101.472H105.543C104.438 101.472 103.543 102.368 103.543 103.472V106.65C98.7736 103.748 93.5321 101.584 86.7257 99.7769C82.8456 98.747 78.7534 99.0145 74.9328 100.247L50.7125 108.06Z" fill="url(#paint0_radial_692_1786)"/>
<path fill-rule="evenodd" clip-rule="evenodd" d="M118.039 111.827V108.721C115.458 105.74 114.163 105.799 111.826 105.614H110.791C108.063 105.589 106.222 105.979 104.578 107.223V107.685L104.173 107.55C103.27 108.327 102.409 109.382 101.472 110.791C94.4225 108.167 92.2419 105.859 84.6304 104.117C82.7927 103.696 80.8379 103.854 79.1733 104.739C77.1406 105.82 75.7478 107.075 74.4004 109.235C73.7976 110.201 73.7049 111.42 74.2146 112.438C75.0495 114.107 76.2498 115.417 79.1376 117.128C80.1186 117.709 81.3505 117.62 82.2784 116.957L86.28 114.099C87.2184 113.429 87.4128 112.09 86.6211 111.251C84.8302 109.354 83.7227 109.09 81.7989 109.756C83.0242 110.067 83.7473 110.456 84.396 111.688C84.7596 112.378 84.5518 113.216 84 113.767L82.2754 115.492C81.3706 116.397 79.9663 116.664 78.9055 115.948C77.3915 114.927 76.4781 113.802 75.4876 112.283C74.8937 111.372 74.8539 110.185 75.48 109.296C77.188 106.871 79.0763 106.022 82.8343 105.614C87.5138 105.758 93.9734 109.592 101.472 112.862C101.61 115.305 101.827 117.608 105.43 119.531C106.15 119.915 107.027 119.733 107.604 119.156L110.252 116.508C110.55 116.21 110.55 115.727 110.252 115.429V115.429C109.971 115.149 109.521 115.134 109.21 115.381C104.882 118.812 103.349 117.017 102.508 112.862C108.784 113.743 111.6 112.063 112.862 106.65H114.933L118.039 111.827ZM102.508 111.827C105.324 107.593 107.416 106.549 111.826 106.65C109.581 111.782 107.623 113.001 102.508 111.827Z" fill="url(#paint1_radial_692_1786)"/>
<path d="M118.039 114.933V111.827C116.112 115.763 116.189 118.074 110.791 119.075C111.96 121.038 112.806 121.636 114.933 121.146C115.324 125.201 115.717 127.472 118.039 131.5V125.287C116.703 121.107 116.952 118.865 118.039 114.933Z" fill="url(#paint2_radial_692_1786)"/>
<path d="M115.968 98.3662C116.06 94.792 116.696 93.3936 118.039 91.1182V105.614C115.722 100.811 114.342 99.4138 111.826 99.4015C113.364 97.8121 114.276 97.3638 115.968 98.3662Z" fill="url(#paint3_radial_692_1786)"/>
<path d="M185.366 108.06C186.689 108.487 188.157 108.504 189.361 107.809C191.499 106.575 191.937 105.154 191.555 102.508V102.508C193.198 103.056 194.015 104.953 193.044 106.388C192.08 107.812 190.984 108.974 189.451 110.246C188.161 111.316 186.509 111.855 184.832 111.812C179.637 111.679 177.043 110.851 173.952 108.72C174.973 110.641 174.916 111.76 174.09 113.6C174.018 113.76 173.821 113.822 173.67 113.731C171.996 112.73 171.074 111.892 169.811 109.756C169.863 114.032 169.094 113.977 165.669 114.933C168.559 110.86 168.026 109.221 165.88 106.254C165.082 105.151 163.952 104.331 162.673 103.866L157.5 101.985C154.744 100.982 151.729 100.942 148.947 101.869L131.905 107.55C131.771 107.435 131.636 107.326 131.5 107.223V104.508C131.5 103.403 130.604 102.508 129.5 102.508H127.287C126.183 102.508 125.287 103.403 125.287 104.508V105.614H124.252V103.472C124.252 102.368 125.147 101.472 126.252 101.472H130.535C131.64 101.472 132.535 102.368 132.535 103.472V106.65C137.304 103.748 142.546 101.584 149.352 99.7769C153.232 98.747 157.325 99.0145 161.145 100.247L185.366 108.06Z" fill="url(#paint4_radial_692_1786)"/>
<path fill-rule="evenodd" clip-rule="evenodd" d="M118.039 111.827V108.721C120.62 105.74 121.915 105.799 124.252 105.614H125.287C128.015 105.589 129.856 105.979 131.5 107.223V107.685L131.905 107.55C132.808 108.327 133.669 109.382 134.606 110.791C141.656 108.167 143.836 105.859 151.448 104.117C153.285 103.696 155.24 103.854 156.905 104.739C158.938 105.82 160.33 107.075 161.678 109.235C162.281 110.201 162.373 111.42 161.863 112.438C161.029 114.107 159.828 115.417 156.941 117.128C155.96 117.709 154.728 117.62 153.8 116.957L149.798 114.099C148.86 113.429 148.665 112.09 149.457 111.251C151.248 109.354 152.355 109.09 154.279 109.756C153.054 110.067 152.331 110.456 151.682 111.688C151.319 112.378 151.526 113.216 152.078 113.767L153.803 115.492C154.708 116.397 156.112 116.664 157.173 115.948C158.687 114.927 159.6 113.802 160.591 112.283C161.184 111.372 161.224 110.185 160.598 109.296C158.89 106.871 157.002 106.022 153.244 105.614C148.564 105.758 142.105 109.592 134.606 112.862C134.468 115.305 134.251 117.608 130.648 119.531C129.928 119.915 129.051 119.733 128.474 119.156L125.826 116.508C125.528 116.21 125.528 115.727 125.826 115.429V115.429C126.107 115.149 126.557 115.134 126.868 115.381C131.196 118.812 132.729 117.017 133.571 112.862C127.294 113.743 124.478 112.063 123.216 106.65H121.145L118.039 111.827ZM133.571 111.827C130.754 107.593 128.662 106.549 124.252 106.65C126.497 111.782 128.455 113.001 133.571 111.827Z" fill="url(#paint5_radial_692_1786)"/>
<path d="M118.039 114.933V111.827C119.967 115.763 119.889 118.074 125.287 119.075C124.119 121.038 123.273 121.636 121.145 121.146C120.754 125.201 120.361 127.472 118.039 131.5V125.287C119.375 121.107 119.126 118.865 118.039 114.933Z" fill="url(#paint6_radial_692_1786)"/>
<path d="M120.11 98.3662C120.019 94.792 119.382 93.3936 118.039 91.1182V105.614C120.356 100.811 121.736 99.4138 124.252 99.4015C122.714 97.8121 121.802 97.3638 120.11 98.3662Z" fill="url(#paint7_radial_692_1786)"/>
<path d="M108.254 67.6094C108.254 66.75 107.91 65.9121 107.223 65.0957C106.535 64.2793 105.704 63.5345 104.73 62.8613C104.243 62.5319 103.757 62.1953 103.27 61.8516C102.783 61.5078 102.288 61.1569 101.787 60.7988C100.799 60.097 99.9609 59.2734 99.2734 58.3281C98.5859 57.3828 98.2422 56.3802 98.2422 55.3203C98.2422 53.6016 98.6719 52.069 99.5312 50.7227C100.405 49.3763 101.565 48.3164 103.012 47.543C104.473 46.7695 106.091 46.3828 107.867 46.3828C108.626 46.3828 109.586 46.5404 110.746 46.8555C111.333 47.013 111.849 47.1419 112.293 47.2422C112.737 47.3281 113.109 47.3854 113.41 47.4141C113.31 48.2018 113.21 48.9967 113.109 49.7988C113.023 50.5866 112.938 51.3815 112.852 52.1836C112.766 53 112.701 53.487 112.658 53.6445C112.615 53.7878 112.551 53.8594 112.465 53.8594C112.049 53.8594 111.72 53.7734 111.477 53.6016C111.419 53.5872 111.391 53.4154 111.391 53.0859C111.391 52.1836 111.19 51.3672 110.789 50.6367C110.388 49.9062 109.858 49.3262 109.199 48.8965C108.54 48.4525 107.824 48.2305 107.051 48.2305C105.418 48.2305 104.1 48.7246 103.098 49.7129C102.095 50.7012 101.594 51.9401 101.594 53.4297C101.594 54.9479 102.296 56.2656 103.699 57.3828C104.501 58.013 105.439 58.6934 106.514 59.4238C107.602 60.14 108.548 60.8346 109.35 61.5078C109.937 61.9948 110.517 62.6895 111.09 63.5918C111.663 64.4941 111.949 65.4466 111.949 66.4492C111.949 67.3372 111.734 68.2826 111.305 69.2852C110.875 70.2878 110.259 71.2402 109.457 72.1426C108.655 73.0449 107.595 73.7897 106.277 74.377C104.96 74.9642 103.513 75.2578 101.938 75.2578C100.391 75.2578 98.1133 74.9141 95.1055 74.2266C95.1628 73.3099 95.2057 72.5651 95.2344 71.9922C95.263 71.4049 95.2773 70.9896 95.2773 70.7461C95.2773 70.1159 95.263 69.4857 95.2344 68.8555C95.2057 68.2253 95.1914 67.7526 95.1914 67.4375C95.1914 67.237 95.4635 67.1367 96.0078 67.1367C96.2799 67.1367 96.5521 67.2513 96.8242 67.4805C96.8242 68.082 96.8887 68.6836 97.0176 69.2852C97.1465 69.8867 97.39 70.5312 97.748 71.2188C98.1061 71.9062 98.679 72.4577 99.4668 72.873C100.255 73.2884 101.207 73.4961 102.324 73.4961C103.341 73.4961 104.301 73.2598 105.203 72.7871C106.105 72.3145 106.836 71.6413 107.395 70.7676C107.967 69.8796 108.254 68.8268 108.254 67.6094ZM124.066 56.3086C125.757 56.3086 127.067 56.8958 127.998 58.0703C128.929 59.2448 129.395 60.8633 129.395 62.9258C129.395 64.401 129.108 65.8691 128.535 67.3301C127.962 68.7767 127.21 70.0944 126.279 71.2832C125.348 72.472 124.324 73.4245 123.207 74.1406C122.09 74.8568 120.987 75.2148 119.898 75.2148C118.18 75.2148 116.869 74.6562 115.967 73.5391C115.064 72.4219 114.613 70.832 114.613 68.7695C114.613 67.2799 114.893 65.8047 115.451 64.3438C116.024 62.8685 116.776 61.5293 117.707 60.3262C118.638 59.1087 119.655 58.1348 120.758 57.4043C121.875 56.6738 122.978 56.3086 124.066 56.3086ZM123.551 58.0703C122.835 58.0703 122.14 58.3854 121.467 59.0156C120.794 59.6315 120.185 60.4408 119.641 61.4434C119.096 62.446 118.667 63.5417 118.352 64.7305C118.036 65.9193 117.879 67.0794 117.879 68.2109C117.879 69.8724 118.144 71.1615 118.674 72.0781C119.204 72.9948 119.87 73.4531 120.672 73.4531C121.388 73.4531 122.068 73.1452 122.713 72.5293C123.372 71.8991 123.959 71.0827 124.475 70.0801C124.99 69.0632 125.391 67.9603 125.678 66.7715C125.979 65.5827 126.129 64.4154 126.129 63.2695C126.129 61.5794 125.9 60.2904 125.441 59.4023C124.983 58.5143 124.353 58.0703 123.551 58.0703ZM146.797 44.9648C148.63 44.9648 149.805 45.4518 150.32 46.4258C150.32 48.2878 149.805 49.2188 148.773 49.2188C148.315 49.2188 147.907 49.0039 147.549 48.5742C147.205 48.1302 146.854 47.6934 146.496 47.2637C146.152 46.8197 145.737 46.5977 145.25 46.5977C144.333 46.5977 143.359 47.5358 142.328 49.4121C141.311 51.2598 140.509 53.8737 139.922 57.2539V57.3398C139.922 57.4544 139.965 57.5117 140.051 57.5117H144.992C145.135 57.5117 145.207 57.6836 145.207 58.0273C145.207 58.5 145.049 58.987 144.734 59.4883H139.707C139.549 59.4883 139.464 59.6029 139.449 59.832L137.086 72.6797C136.398 76.6615 135.188 79.6979 133.455 81.7891C131.722 83.8802 129.839 84.9258 127.805 84.9258C126.802 84.9258 126.014 84.7467 125.441 84.3887C124.868 84.0306 124.496 83.6224 124.324 83.1641C124.296 82.5052 124.453 81.918 124.797 81.4023C125.141 80.8867 125.57 80.6289 126.086 80.6289C126.487 80.6289 126.838 80.8438 127.139 81.2734C127.425 81.7174 127.733 82.1543 128.062 82.584C128.378 83.028 128.779 83.25 129.266 83.25C129.839 83.25 130.376 82.9134 130.877 82.2402C131.393 81.5814 131.858 80.7578 132.273 79.7695C132.689 78.7812 133.033 77.793 133.305 76.8047C133.577 75.8164 133.763 75 133.863 74.3555L136.441 59.7891V59.7031C136.441 59.5599 136.398 59.4883 136.312 59.4883H133.52C133.462 59.4883 133.434 59.4453 133.434 59.3594C133.434 59.1875 133.541 58.9583 133.756 58.6719C133.971 58.3711 134.236 58.1061 134.551 57.877C134.88 57.6335 135.195 57.5117 135.496 57.5117H136.742C136.857 57.5117 136.943 57.3828 137 57.125C137.387 54.776 138.074 52.6849 139.062 50.8516C140.065 49.0182 141.24 47.5788 142.586 46.5332C143.947 45.4876 145.35 44.9648 146.797 44.9648Z" fill="white"/>
<path d="M0 14.4961C6.30012 20.0984 15.0791 19.1979 30.687 15.1421C32.2497 14.736 33.9168 14.9601 35.3059 15.7832L61.0905 31.063L35.3304 19.6141C33.9205 18.9874 32.3183 18.9353 30.8588 19.4358C12.5496 25.7159 4.73674 24.7283 0 14.4961Z" fill="url(#paint8_radial_692_1786)"/>
<path d="M16.5669 25.8858C22.7094 27.5488 34.4861 19.1752 43.5027 24.2129C35.7991 20.3448 24.9274 34.7378 16.5669 25.8858Z" fill="url(#paint9_radial_692_1786)"/>
<path d="M42.4528 34.1693C40.4746 32.9379 39.8039 31.791 39.5364 30.2054C39.314 28.8871 40.2138 27.6374 41.514 27.3262C46.4064 26.1551 49.6595 27.3172 54.8779 31.063C50.3759 26.3362 46.8249 25.2844 39.6469 25.78C38.7972 25.8387 38.0191 26.2751 37.5081 26.9564L36.1669 28.7446C35.6047 29.4943 35.6307 30.5432 36.2784 31.2205C38.4425 33.4837 39.9798 34.1156 42.4528 34.1693Z" fill="url(#paint10_radial_692_1786)"/>
<path d="M61.0905 28.9921C48.8725 19.5072 53.131 18.6378 60.0551 10.3543C56.6285 8.93238 54.8937 8.83857 52.8071 12.4252C51.2879 8.29387 49.7783 6.42726 45.559 4.14173C43.8524 8.52031 44.6321 10.6991 46.5945 14.4961C42.9378 12.0347 40.7471 11.3823 36.2402 13.4606C46.3046 17.727 45.2926 18.8748 61.0905 28.9921Z" fill="url(#paint11_radial_692_1786)"/>
<path d="M78.6929 22.7441C78.6929 22.1918 79.1406 21.7441 79.6929 21.7441H79.7638C80.3161 21.7441 80.7638 22.1918 80.7638 22.7441V25.9213C80.7638 26.4735 80.3161 26.9213 79.7638 26.9213H74.4803C73.3757 26.9213 72.4803 26.0258 72.4803 24.9213V19.6024C72.4803 18.4978 73.3757 17.6024 74.4803 17.6024H78.7281C80.6137 17.6024 82.4755 18.023 84.178 18.8337V18.8337C85.2965 19.3663 86.1249 20.3629 86.4441 21.5599L88.3399 28.6695C89.2063 31.9182 86.6836 35.0788 83.3237 34.9544L68.0679 34.3894C64.7776 34.2675 62.2002 31.5169 62.2923 28.2256L62.6948 13.8426C62.7856 10.5955 65.4441 8.01038 68.6924 8.01038H83.0387C86.0229 8.01038 88.8896 9.21712 90.915 11.4088C101.807 23.194 109.097 33.3225 115.395 32.2299C115.685 32.1796 115.968 32.3916 115.968 32.686V32.686C115.968 32.9325 115.766 33.1318 115.519 33.1285C109.37 33.045 105.37 32.4313 87.653 13.254C86.5367 12.0456 85.0793 11.1983 83.4735 10.8414L77.8584 9.59364C77.0431 9.41248 76.199 9.4035 75.3801 9.56728L71.091 10.4251C68.2865 10.986 66.2677 13.4485 66.2677 16.3086V27.0984C66.2677 29.8599 68.5063 32.0984 71.2677 32.0984H80.9055C83.1146 32.0984 84.9055 30.3076 84.9055 28.0984V22.6378C84.9055 20.4287 83.1146 18.6378 80.9055 18.6378H76.5512C75.4466 18.6378 74.5512 19.5332 74.5512 20.6378V24.8858C74.5512 25.4381 74.9989 25.8858 75.5512 25.8858H77.6929C78.2452 25.8858 78.6929 25.4381 78.6929 24.8858V22.7441Z" fill="url(#paint12_radial_692_1786)"/>
<path d="M104.412 33.0631C96.4743 29.9513 88.3242 12.4066 78.6929 13.4606C91.6665 19.2326 92.9183 31.4785 104.412 33.0631Z" fill="url(#paint13_radial_692_1786)"/>
<path d="M111.827 30.0276C106.485 21.6827 106.361 16.9143 110.791 8.28346C105.363 9.71409 97.6256 19.5114 111.827 30.0276Z" fill="url(#paint14_radial_692_1786)"/>
<path d="M118.039 10.3543C113.102 14.0549 110.405 23.2793 118.039 32.0984C106.33 25.6888 109.793 12.7713 118.039 0V10.3543Z" fill="url(#paint15_radial_692_1786)"/>
<path d="M236.079 14.4961C229.779 20.0984 221 19.1979 205.392 15.1421C203.829 14.736 202.162 14.9601 200.773 15.7832L174.989 31.063L200.749 19.6141C202.159 18.9874 203.761 18.9353 205.22 19.4358C223.529 25.7159 231.342 24.7283 236.079 14.4961Z" fill="url(#paint16_radial_692_1786)"/>
<path d="M219.512 25.8858C213.37 27.5488 201.593 19.1752 192.576 24.2129C200.28 20.3448 211.152 34.7378 219.512 25.8858Z" fill="url(#paint17_radial_692_1786)"/>
<path d="M193.626 34.1693C195.605 32.9379 196.275 31.791 196.543 30.2054C196.765 28.8871 195.865 27.6374 194.565 27.3262C189.673 26.1551 186.42 27.3172 181.201 31.063C185.703 26.3362 189.254 25.2844 196.432 25.78C197.282 25.8387 198.06 26.2751 198.571 26.9564L199.912 28.7446C200.474 29.4943 200.448 30.5432 199.801 31.2205C197.637 33.4837 196.099 34.1156 193.626 34.1693Z" fill="url(#paint18_radial_692_1786)"/>
<path d="M174.989 28.9921C187.207 19.5072 182.948 18.6378 176.024 10.3543C179.451 8.93238 181.185 8.83857 183.272 12.4252C184.791 8.29387 186.301 6.42726 190.52 4.14173C192.227 8.52031 191.447 10.6991 189.485 14.4961C193.141 12.0347 195.332 11.3823 199.839 13.4606C189.775 17.727 190.787 18.8748 174.989 28.9921Z" fill="url(#paint19_radial_692_1786)"/>
<path d="M157.386 22.7441C157.386 22.1918 156.938 21.7441 156.386 21.7441H156.315C155.763 21.7441 155.315 22.1918 155.315 22.7441V25.9213C155.315 26.4735 155.763 26.9213 156.315 26.9213H161.599C162.703 26.9213 163.599 26.0258 163.599 24.9213V19.6024C163.599 18.4978 162.703 17.6024 161.599 17.6024H157.351C155.465 17.6024 153.604 18.023 151.901 18.8337V18.8337C150.783 19.3663 149.954 20.3629 149.635 21.5599L147.739 28.6695C146.873 31.9182 149.396 35.0788 152.755 34.9544L168.011 34.3894C171.301 34.2675 173.879 31.5169 173.787 28.2256L173.384 13.8426C173.293 10.5955 170.635 8.01038 167.387 8.01038H153.04C150.056 8.01038 147.19 9.21712 145.164 11.4088C134.273 23.194 126.982 33.3225 120.684 32.2299C120.394 32.1796 120.111 32.3916 120.111 32.686V32.686C120.111 32.9325 120.313 33.1318 120.56 33.1285C126.709 33.045 130.709 32.4313 148.426 13.254C149.542 12.0456 151 11.1983 152.606 10.8414L158.221 9.59364C159.036 9.41248 159.88 9.4035 160.699 9.56728L164.988 10.4251C167.793 10.986 169.811 13.4485 169.811 16.3086V27.0984C169.811 29.8599 167.573 32.0984 164.811 32.0984H155.174C152.964 32.0984 151.174 30.3076 151.174 28.0984V22.6378C151.174 20.4287 152.964 18.6378 155.174 18.6378H159.528C160.633 18.6378 161.528 19.5332 161.528 20.6378V24.8858C161.528 25.4381 161.08 25.8858 160.528 25.8858H158.386C157.834 25.8858 157.386 25.4381 157.386 24.8858V22.7441Z" fill="url(#paint20_radial_692_1786)"/>
<path d="M131.667 33.0631C139.605 29.9513 147.755 12.4066 157.386 13.4606C144.413 19.2326 143.161 31.4785 131.667 33.0631Z" fill="url(#paint21_radial_692_1786)"/>
<path d="M124.252 30.0276C129.594 21.6827 129.718 16.9143 125.288 8.28346C130.716 9.71409 138.454 19.5114 124.252 30.0276Z" fill="url(#paint22_radial_692_1786)"/>
<path d="M118.04 10.3543C122.977 14.0549 125.674 23.2793 118.04 32.0984C129.75 25.6888 126.286 12.7713 118.04 0V10.3543Z" fill="url(#paint23_radial_692_1786)"/>
<defs>
<radialGradient id="paint0_radial_692_1786" cx="0" cy="0" r="1" gradientUnits="userSpaceOnUse" gradientTransform="translate(79.728 111.309) scale(38.311 20.1909)">
<stop stop-color="#E1E1E1"/>
<stop offset="1" stop-color="#FFF4DA"/>
</radialGradient>
<radialGradient id="paint1_radial_692_1786" cx="0" cy="0" r="1" gradientUnits="userSpaceOnUse" gradientTransform="translate(79.728 111.309) scale(38.311 20.1909)">
<stop stop-color="#E1E1E1"/>
<stop offset="1" stop-color="#FFF4DA"/>
</radialGradient>
<radialGradient id="paint2_radial_692_1786" cx="0" cy="0" r="1" gradientUnits="userSpaceOnUse" gradientTransform="translate(79.728 111.309) scale(38.311 20.1909)">
<stop stop-color="#E1E1E1"/>
<stop offset="1" stop-color="#FFF4DA"/>
</radialGradient>
<radialGradient id="paint3_radial_692_1786" cx="0" cy="0" r="1" gradientUnits="userSpaceOnUse" gradientTransform="translate(79.728 111.309) scale(38.311 20.1909)">
<stop stop-color="#E1E1E1"/>
<stop offset="1" stop-color="#FFF4DA"/>
</radialGradient>
<radialGradient id="paint4_radial_692_1786" cx="0" cy="0" r="1" gradientUnits="userSpaceOnUse" gradientTransform="translate(156.35 111.309) rotate(180) scale(38.311 20.1909)">
<stop stop-color="#E1E1E1"/>
<stop offset="1" stop-color="#FFF4DA"/>
</radialGradient>
<radialGradient id="paint5_radial_692_1786" cx="0" cy="0" r="1" gradientUnits="userSpaceOnUse" gradientTransform="translate(156.35 111.309) rotate(180) scale(38.311 20.1909)">
<stop stop-color="#E1E1E1"/>
<stop offset="1" stop-color="#FFF4DA"/>
</radialGradient>
<radialGradient id="paint6_radial_692_1786" cx="0" cy="0" r="1" gradientUnits="userSpaceOnUse" gradientTransform="translate(156.35 111.309) rotate(180) scale(38.311 20.1909)">
<stop stop-color="#E1E1E1"/>
<stop offset="1" stop-color="#FFF4DA"/>
</radialGradient>
<radialGradient id="paint7_radial_692_1786" cx="0" cy="0" r="1" gradientUnits="userSpaceOnUse" gradientTransform="translate(156.35 111.309) rotate(180) scale(38.311 20.1909)">
<stop stop-color="#E1E1E1"/>
<stop offset="1" stop-color="#FFF4DA"/>
</radialGradient>
<radialGradient id="paint8_radial_692_1786" cx="0" cy="0" r="1" gradientUnits="userSpaceOnUse" gradientTransform="translate(59.0197 17.6024) scale(59.0197 17.6024)">
<stop stop-color="#E1E1E1"/>
<stop offset="1" stop-color="#FFF4DA"/>
</radialGradient>
<radialGradient id="paint9_radial_692_1786" cx="0" cy="0" r="1" gradientUnits="userSpaceOnUse" gradientTransform="translate(59.0197 17.6024) scale(59.0197 17.6024)">
<stop stop-color="#E1E1E1"/>
<stop offset="1" stop-color="#FFF4DA"/>
</radialGradient>
<radialGradient id="paint10_radial_692_1786" cx="0" cy="0" r="1" gradientUnits="userSpaceOnUse" gradientTransform="translate(59.0197 17.6024) scale(59.0197 17.6024)">
<stop stop-color="#E1E1E1"/>
<stop offset="1" stop-color="#FFF4DA"/>
</radialGradient>
<radialGradient id="paint11_radial_692_1786" cx="0" cy="0" r="1" gradientUnits="userSpaceOnUse" gradientTransform="translate(59.0197 17.6024) scale(59.0197 17.6024)">
<stop stop-color="#E1E1E1"/>
<stop offset="1" stop-color="#FFF4DA"/>
</radialGradient>
<radialGradient id="paint12_radial_692_1786" cx="0" cy="0" r="1" gradientUnits="userSpaceOnUse" gradientTransform="translate(59.0197 17.6024) scale(59.0197 17.6024)">
<stop stop-color="#E1E1E1"/>
<stop offset="1" stop-color="#FFF4DA"/>
</radialGradient>
<radialGradient id="paint13_radial_692_1786" cx="0" cy="0" r="1" gradientUnits="userSpaceOnUse" gradientTransform="translate(59.0197 17.6024) scale(59.0197 17.6024)">
<stop stop-color="#E1E1E1"/>
<stop offset="1" stop-color="#FFF4DA"/>
</radialGradient>
<radialGradient id="paint14_radial_692_1786" cx="0" cy="0" r="1" gradientUnits="userSpaceOnUse" gradientTransform="translate(59.0197 17.6024) scale(59.0197 17.6024)">
<stop stop-color="#E1E1E1"/>
<stop offset="1" stop-color="#FFF4DA"/>
</radialGradient>
<radialGradient id="paint15_radial_692_1786" cx="0" cy="0" r="1" gradientUnits="userSpaceOnUse" gradientTransform="translate(59.0197 17.6024) scale(59.0197 17.6024)">
<stop stop-color="#E1E1E1"/>
<stop offset="1" stop-color="#FFF4DA"/>
</radialGradient>
<radialGradient id="paint16_radial_692_1786" cx="0" cy="0" r="1" gradientUnits="userSpaceOnUse" gradientTransform="translate(177.059 17.6024) rotate(180) scale(59.0197 17.6024)">
<stop stop-color="#E1E1E1"/>
<stop offset="1" stop-color="#FFF4DA"/>
</radialGradient>
<radialGradient id="paint17_radial_692_1786" cx="0" cy="0" r="1" gradientUnits="userSpaceOnUse" gradientTransform="translate(177.059 17.6024) rotate(180) scale(59.0197 17.6024)">
<stop stop-color="#E1E1E1"/>
<stop offset="1" stop-color="#FFF4DA"/>
</radialGradient>
<radialGradient id="paint18_radial_692_1786" cx="0" cy="0" r="1" gradientUnits="userSpaceOnUse" gradientTransform="translate(177.059 17.6024) rotate(180) scale(59.0197 17.6024)">
<stop stop-color="#E1E1E1"/>
<stop offset="1" stop-color="#FFF4DA"/>
</radialGradient>
<radialGradient id="paint19_radial_692_1786" cx="0" cy="0" r="1" gradientUnits="userSpaceOnUse" gradientTransform="translate(177.059 17.6024) rotate(180) scale(59.0197 17.6024)">
<stop stop-color="#E1E1E1"/>
<stop offset="1" stop-color="#FFF4DA"/>
</radialGradient>
<radialGradient id="paint20_radial_692_1786" cx="0" cy="0" r="1" gradientUnits="userSpaceOnUse" gradientTransform="translate(177.059 17.6024) rotate(180) scale(59.0197 17.6024)">
<stop stop-color="#E1E1E1"/>
<stop offset="1" stop-color="#FFF4DA"/>
</radialGradient>
<radialGradient id="paint21_radial_692_1786" cx="0" cy="0" r="1" gradientUnits="userSpaceOnUse" gradientTransform="translate(177.059 17.6024) rotate(180) scale(59.0197 17.6024)">
<stop stop-color="#E1E1E1"/>
<stop offset="1" stop-color="#FFF4DA"/>
</radialGradient>
<radialGradient id="paint22_radial_692_1786" cx="0" cy="0" r="1" gradientUnits="userSpaceOnUse" gradientTransform="translate(177.059 17.6024) rotate(180) scale(59.0197 17.6024)">
<stop stop-color="#E1E1E1"/>
<stop offset="1" stop-color="#FFF4DA"/>
</radialGradient>
<radialGradient id="paint23_radial_692_1786" cx="0" cy="0" r="1" gradientUnits="userSpaceOnUse" gradientTransform="translate(177.059 17.6024) rotate(180) scale(59.0197 17.6024)">
<stop stop-color="#E1E1E1"/>
<stop offset="1" stop-color="#FFF4DA"/>
</radialGradient>
</defs>
</svg>
