<svg width="237" height="132" viewBox="0 0 237 132" fill="none" xmlns="http://www.w3.org/2000/svg">
<path d="M50.7125 108.06C49.3889 108.487 47.9214 108.504 46.7169 107.809C44.5794 106.575 44.1412 105.154 44.5234 102.508V102.508C42.8798 103.056 42.063 104.953 43.0339 106.388C43.9977 107.812 45.0937 108.974 46.6267 110.246C47.9171 111.316 49.5696 111.855 51.2458 111.812C56.4406 111.679 59.0349 110.851 62.1257 108.72C61.1051 110.641 61.1618 111.76 61.9885 113.6C62.0605 113.76 62.2568 113.822 62.4077 113.731C64.0825 112.73 65.0039 111.892 66.2674 109.756C66.2154 114.032 66.9843 113.977 70.4091 114.933C67.5194 110.86 68.0525 109.221 70.1981 106.254C70.9958 105.151 72.1259 104.331 73.4053 103.866L78.5776 101.985C81.3342 100.982 84.3487 100.942 87.1313 101.869L104.173 107.55C104.307 107.435 104.442 107.326 104.578 107.223V104.508C104.578 103.403 105.474 102.508 106.578 102.508H108.791C109.896 102.508 110.791 103.403 110.791 104.508V105.614H111.826V103.472C111.826 102.368 110.931 101.472 109.826 101.472H105.543C104.438 101.472 103.543 102.368 103.543 103.472V106.65C98.7736 103.748 93.5321 101.584 86.7257 99.7769C82.8456 98.747 78.7534 99.0145 74.9328 100.247L50.7125 108.06Z" fill="url(#paint0_radial_692_2114)"/>
<path fill-rule="evenodd" clip-rule="evenodd" d="M118.039 111.827V108.721C115.458 105.74 114.163 105.799 111.826 105.614H110.791C108.063 105.589 106.222 105.979 104.578 107.223V107.685L104.173 107.55C103.27 108.327 102.409 109.382 101.472 110.791C94.4225 108.167 92.2419 105.859 84.6304 104.117C82.7927 103.696 80.8379 103.854 79.1733 104.739C77.1406 105.82 75.7478 107.075 74.4004 109.235C73.7976 110.201 73.7049 111.42 74.2146 112.438C75.0495 114.107 76.2498 115.417 79.1376 117.128C80.1186 117.709 81.3505 117.62 82.2784 116.957L86.28 114.099C87.2184 113.429 87.4128 112.09 86.6211 111.251C84.8302 109.354 83.7227 109.09 81.7989 109.756C83.0242 110.067 83.7473 110.456 84.396 111.688C84.7596 112.378 84.5518 113.216 84 113.767L82.2754 115.492C81.3706 116.397 79.9663 116.664 78.9055 115.948C77.3915 114.927 76.4781 113.802 75.4876 112.283C74.8937 111.372 74.8539 110.185 75.48 109.296C77.188 106.871 79.0763 106.022 82.8343 105.614C87.5138 105.758 93.9734 109.592 101.472 112.862C101.61 115.305 101.827 117.608 105.43 119.531C106.15 119.915 107.027 119.733 107.604 119.156L110.252 116.508C110.55 116.21 110.55 115.727 110.252 115.429V115.429C109.971 115.149 109.521 115.134 109.21 115.381C104.882 118.812 103.349 117.017 102.508 112.862C108.784 113.743 111.6 112.063 112.862 106.65H114.933L118.039 111.827ZM102.508 111.827C105.324 107.593 107.416 106.549 111.826 106.65C109.581 111.782 107.623 113.001 102.508 111.827Z" fill="url(#paint1_radial_692_2114)"/>
<path d="M118.039 114.933V111.827C116.112 115.763 116.189 118.074 110.791 119.075C111.96 121.038 112.806 121.636 114.933 121.146C115.324 125.201 115.717 127.472 118.039 131.5V125.287C116.703 121.107 116.952 118.865 118.039 114.933Z" fill="url(#paint2_radial_692_2114)"/>
<path d="M115.968 98.3662C116.06 94.792 116.696 93.3936 118.039 91.1182V105.614C115.722 100.811 114.342 99.4138 111.826 99.4015C113.364 97.8121 114.276 97.3638 115.968 98.3662Z" fill="url(#paint3_radial_692_2114)"/>
<path d="M185.366 108.06C186.689 108.487 188.157 108.504 189.361 107.809C191.499 106.575 191.937 105.154 191.555 102.508V102.508C193.198 103.056 194.015 104.953 193.044 106.388C192.08 107.812 190.984 108.974 189.451 110.246C188.161 111.316 186.509 111.855 184.832 111.812C179.637 111.679 177.043 110.851 173.952 108.72C174.973 110.641 174.916 111.76 174.09 113.6C174.018 113.76 173.821 113.822 173.67 113.731C171.996 112.73 171.074 111.892 169.811 109.756C169.863 114.032 169.094 113.977 165.669 114.933C168.559 110.86 168.026 109.221 165.88 106.254C165.082 105.151 163.952 104.331 162.673 103.866L157.5 101.985C154.744 100.982 151.729 100.942 148.947 101.869L131.905 107.55C131.771 107.435 131.636 107.326 131.5 107.223V104.508C131.5 103.403 130.604 102.508 129.5 102.508H127.287C126.183 102.508 125.287 103.403 125.287 104.508V105.614H124.252V103.472C124.252 102.368 125.147 101.472 126.252 101.472H130.535C131.64 101.472 132.535 102.368 132.535 103.472V106.65C137.304 103.748 142.546 101.584 149.352 99.7769C153.232 98.747 157.325 99.0145 161.145 100.247L185.366 108.06Z" fill="url(#paint4_radial_692_2114)"/>
<path fill-rule="evenodd" clip-rule="evenodd" d="M118.039 111.827V108.721C120.62 105.74 121.915 105.799 124.252 105.614H125.287C128.015 105.589 129.856 105.979 131.5 107.223V107.685L131.905 107.55C132.808 108.327 133.669 109.382 134.606 110.791C141.656 108.167 143.836 105.859 151.448 104.117C153.285 103.696 155.24 103.854 156.905 104.739C158.938 105.82 160.33 107.075 161.678 109.235C162.281 110.201 162.373 111.42 161.863 112.438C161.029 114.107 159.828 115.417 156.941 117.128C155.96 117.709 154.728 117.62 153.8 116.957L149.798 114.099C148.86 113.429 148.665 112.09 149.457 111.251C151.248 109.354 152.355 109.09 154.279 109.756C153.054 110.067 152.331 110.456 151.682 111.688C151.319 112.378 151.526 113.216 152.078 113.767L153.803 115.492C154.708 116.397 156.112 116.664 157.173 115.948C158.687 114.927 159.6 113.802 160.591 112.283C161.184 111.372 161.224 110.185 160.598 109.296C158.89 106.871 157.002 106.022 153.244 105.614C148.564 105.758 142.105 109.592 134.606 112.862C134.468 115.305 134.251 117.608 130.648 119.531C129.928 119.915 129.051 119.733 128.474 119.156L125.826 116.508C125.528 116.21 125.528 115.727 125.826 115.429V115.429C126.107 115.149 126.557 115.134 126.868 115.381C131.196 118.812 132.729 117.017 133.571 112.862C127.294 113.743 124.478 112.063 123.216 106.65H121.145L118.039 111.827ZM133.571 111.827C130.754 107.593 128.662 106.549 124.252 106.65C126.497 111.782 128.455 113.001 133.571 111.827Z" fill="url(#paint5_radial_692_2114)"/>
<path d="M118.039 114.933V111.827C119.967 115.763 119.889 118.074 125.287 119.075C124.119 121.038 123.273 121.636 121.145 121.146C120.754 125.201 120.361 127.472 118.039 131.5V125.287C119.375 121.107 119.126 118.865 118.039 114.933Z" fill="url(#paint6_radial_692_2114)"/>
<path d="M120.11 98.3662C120.019 94.792 119.382 93.3936 118.039 91.1182V105.614C120.356 100.811 121.736 99.4138 124.252 99.4015C122.714 97.8121 121.802 97.3638 120.11 98.3662Z" fill="url(#paint7_radial_692_2114)"/>
<path d="M64.2461 68.8984L67.2109 53.6445C67.5833 51.625 67.7695 50.2357 67.7695 49.4766C67.7695 49.2904 67.7337 49.14 67.6621 49.0254C67.5618 48.8965 67.0964 48.7891 66.2656 48.7031C65.4349 48.6172 64.5182 48.5742 63.5156 48.5742C62.513 48.5742 61.7109 48.6745 61.1094 48.875C60.5221 49.0612 60.0208 49.4264 59.6055 49.9707C59.2044 50.515 58.7604 51.3242 58.2734 52.3984C58.2161 52.5417 58.0729 52.6133 57.8438 52.6133C57.4714 52.6133 57.1849 52.513 56.9844 52.3125L58.875 46.168C59.9492 46.4831 60.8516 46.6406 61.582 46.6406C62.4128 46.6406 63.3438 46.6621 64.375 46.7051C65.4062 46.748 66.4375 46.791 67.4688 46.834C68.5143 46.877 69.4453 46.8984 70.2617 46.8984C71.1068 46.8984 72.0521 46.877 73.0977 46.834C74.1576 46.791 75.2103 46.748 76.2559 46.7051C77.3158 46.6621 78.2682 46.6406 79.1133 46.6406C79.7578 46.6406 80.7031 46.4831 81.9492 46.168L81.5195 52.3125C81.2474 52.513 80.918 52.6133 80.5312 52.6133C80.2734 52.6133 80.1445 52.5417 80.1445 52.3984C80.1445 50.8516 79.8652 49.8275 79.3066 49.3262C78.748 48.8249 77.7956 48.5742 76.4492 48.5742C73.6133 48.5742 72.0951 48.7891 71.8945 49.2188C71.694 49.6484 71.4935 50.2214 71.293 50.9375C71.0924 51.6536 70.8919 52.513 70.6914 53.5156L67.6836 69.0273C67.3685 70.5599 67.2109 71.849 67.2109 72.8945C67.2109 73.1237 67.4043 73.3314 67.791 73.5176C68.1777 73.7038 68.5573 73.8255 68.9297 73.8828L69.5312 73.9688C69.5885 73.9688 69.6172 74.026 69.6172 74.1406C69.6172 74.4557 69.5312 74.7852 69.3594 75.1289C68.0417 75.0573 67.0104 75.0072 66.2656 74.9785C65.5208 74.9355 65.0625 74.9141 64.8906 74.9141C64.862 74.9141 64.4538 74.9355 63.666 74.9785C62.8783 75.0072 61.7109 75.0573 60.1641 75.1289C60.1068 75.0716 60.0781 74.957 60.0781 74.7852C60.0781 74.2409 60.1784 73.9688 60.3789 73.9688C60.6081 73.9688 60.9232 73.9258 61.3242 73.8398C61.7396 73.7539 62.1263 73.6393 62.4844 73.4961C62.8424 73.3529 63.0573 73.1953 63.1289 73.0234C63.5443 72.0781 63.9167 70.7031 64.2461 68.8984ZM91.5742 56.3086C92.6341 56.3086 93.6797 56.4948 94.7109 56.8672L92.0898 70.4453C92.0039 70.7891 91.9609 71.1471 91.9609 71.5195C91.9609 72.2357 92.1042 72.5938 92.3906 72.5938C92.7487 72.5938 93.1784 72.3431 93.6797 71.8418C94.181 71.3262 94.6107 70.8893 94.9688 70.5312L95.2266 70.2305C95.2839 70.2305 95.3913 70.3665 95.5488 70.6387C95.7064 70.9108 95.7852 71.1042 95.7852 71.2188C95.5417 71.6341 95.0977 72.1641 94.4531 72.8086C93.8229 73.4531 93.1354 74.026 92.3906 74.5273C91.6458 75.0143 90.9727 75.2578 90.3711 75.2578C89.9128 75.2578 89.5547 75.0501 89.2969 74.6348C89.0391 74.2194 88.9102 73.6823 88.9102 73.0234C88.9102 72.5794 89.0104 71.8203 89.2109 70.7461L89.3613 69.9941C89.4043 69.7936 89.4258 69.6719 89.4258 69.6289C89.1966 70.0586 88.8672 70.5885 88.4375 71.2188C88.0078 71.8346 87.5137 72.4505 86.9551 73.0664C86.3965 73.6823 85.8092 74.1979 85.1934 74.6133C84.5775 75.0143 83.9688 75.2148 83.3672 75.2148C82.1068 75.2148 81.1113 74.6491 80.3809 73.5176C79.6504 72.3861 79.2852 71.0182 79.2852 69.4141C79.2852 67.3659 79.8939 65.3249 81.1113 63.291C81.9277 61.916 82.9017 60.7057 84.0332 59.6602C85.179 58.6146 86.4036 57.7982 87.707 57.2109C89.0104 56.6094 90.2995 56.3086 91.5742 56.3086ZM89.7695 58.2852C88.9245 58.2852 88.0723 58.5859 87.2129 59.1875C86.3535 59.7747 85.5658 60.5697 84.8496 61.5723C84.1335 62.5605 83.5534 63.6634 83.1094 64.8809C82.6797 66.084 82.4648 67.2943 82.4648 68.5117C82.4648 71.319 83.1953 72.7227 84.6562 72.7227C85.1719 72.7227 85.7305 72.4362 86.332 71.8633C86.9336 71.2904 87.528 70.5312 88.1152 69.5859C88.7025 68.6406 89.2181 67.6165 89.6621 66.5137C90.1204 65.3965 90.457 64.3008 90.6719 63.2266L91.5312 58.8438C91.1875 58.4714 90.6003 58.2852 89.7695 58.2852ZM111.898 56.3086C112.758 56.3086 113.51 56.5879 114.154 57.1465C114.799 57.7051 115.121 58.3997 115.121 59.2305C115.121 61.0924 114.298 62.625 112.65 63.8281C111.003 65.0312 108.891 65.8477 106.312 66.2773C108.017 68.8411 109.327 70.5456 110.244 71.3906C111.132 72.2214 111.898 72.6367 112.543 72.6367C113.059 72.6367 113.553 72.4219 114.025 71.9922C114.498 71.5625 114.849 71.1471 115.078 70.7461C115.164 70.7461 115.3 70.8607 115.486 71.0898C115.673 71.319 115.766 71.4909 115.766 71.6055C115.68 71.9206 115.4 72.3646 114.928 72.9375C114.469 73.5104 113.932 74.026 113.316 74.4844C112.701 74.9427 112.113 75.1719 111.555 75.1719C110.824 75.1719 110.072 74.9212 109.299 74.4199C108.54 73.9043 107.91 73.3242 107.408 72.6797C107.222 72.4505 107.057 72.25 106.914 72.0781C106.771 71.8919 106.642 71.7272 106.527 71.584C106.312 71.3262 106.019 70.9036 105.646 70.3164L104.895 69.1133C104.665 68.7409 104.429 68.3327 104.186 67.8887C103.942 67.4303 103.72 67.0651 103.52 66.793L101.93 75C101.443 75.1432 100.97 75.2148 100.512 75.2148C100.125 75.2148 99.6523 75.1432 99.0938 75L103.777 50.9805C104.035 49.7917 104.164 49.0326 104.164 48.7031C104.164 48.1589 103.29 47.8867 101.543 47.8867C101.457 47.8867 101.414 47.8008 101.414 47.6289C101.414 47.2852 101.529 46.9987 101.758 46.7695C103.605 46.5977 105.41 46.1966 107.172 45.5664C107.344 45.6523 107.43 45.9245 107.43 46.3828C107.43 46.6979 107.243 47.7721 106.871 49.6055L104.637 61.1641L105.109 60.6055C105.553 60.0755 106.126 59.4811 106.828 58.8223C107.53 58.1491 108.318 57.5618 109.191 57.0605C110.065 56.5592 110.967 56.3086 111.898 56.3086ZM110.352 58.3281C109.893 58.3281 109.32 58.6146 108.633 59.1875C107.945 59.7461 107.265 60.4193 106.592 61.207C105.919 61.9948 105.353 62.7539 104.895 63.4844C104.436 64.2005 104.207 64.7161 104.207 65.0312C104.207 65.0885 104.236 65.1172 104.293 65.1172C104.35 65.1172 104.415 65.1172 104.486 65.1172C104.558 65.1029 104.644 65.0885 104.744 65.0742C104.93 65.0456 105.288 64.9811 105.818 64.8809C106.348 64.7806 106.864 64.6589 107.365 64.5156C108.096 64.3008 108.819 64 109.535 63.6133C110.266 63.2266 110.867 62.7467 111.34 62.1738C111.827 61.6009 112.07 60.9349 112.07 60.1758C112.07 58.944 111.497 58.3281 110.352 58.3281ZM127.711 56.3086C129.401 56.3086 130.712 56.8958 131.643 58.0703C132.574 59.2448 133.039 60.8633 133.039 62.9258C133.039 64.401 132.753 65.8691 132.18 67.3301C131.607 68.7767 130.855 70.0944 129.924 71.2832C128.993 72.472 127.969 73.4245 126.852 74.1406C125.734 74.8568 124.632 75.2148 123.543 75.2148C121.824 75.2148 120.514 74.6562 119.611 73.5391C118.709 72.4219 118.258 70.832 118.258 68.7695C118.258 67.2799 118.537 65.8047 119.096 64.3438C119.669 62.8685 120.421 61.5293 121.352 60.3262C122.283 59.1087 123.299 58.1348 124.402 57.4043C125.52 56.6738 126.622 56.3086 127.711 56.3086ZM127.195 58.0703C126.479 58.0703 125.785 58.3854 125.111 59.0156C124.438 59.6315 123.829 60.4408 123.285 61.4434C122.741 62.446 122.311 63.5417 121.996 64.7305C121.681 65.9193 121.523 67.0794 121.523 68.2109C121.523 69.8724 121.788 71.1615 122.318 72.0781C122.848 72.9948 123.514 73.4531 124.316 73.4531C125.033 73.4531 125.713 73.1452 126.357 72.5293C127.016 71.8991 127.604 71.0827 128.119 70.0801C128.635 69.0632 129.036 67.9603 129.322 66.7715C129.623 65.5827 129.773 64.4154 129.773 63.2695C129.773 61.5794 129.544 60.2904 129.086 59.4023C128.628 58.5143 127.997 58.0703 127.195 58.0703ZM144.254 56.1797C145.887 56.1797 147.176 56.724 148.121 57.8125C148.264 58.1419 148.336 58.4427 148.336 58.7148C148.336 59.2305 148.2 59.6745 147.928 60.0469C147.656 60.4193 147.305 60.6055 146.875 60.6055C146.488 60.6055 146.13 60.3978 145.801 59.9824C145.486 59.5671 145.092 59.1445 144.619 58.7148C144.146 58.2852 143.523 58.0703 142.75 58.0703C142.148 58.0703 141.676 58.2708 141.332 58.6719C140.988 59.0729 140.816 59.5312 140.816 60.0469C140.816 60.7917 141.096 61.5866 141.654 62.4316C142.213 63.2767 142.822 64.0286 143.48 64.6875C144.139 65.3464 144.748 66.1484 145.307 67.0938C145.865 68.0391 146.145 68.9987 146.145 69.9727C146.145 71.5482 145.572 72.8229 144.426 73.7969C143.28 74.7708 141.805 75.2578 140 75.2578C138.367 75.2578 137.078 74.7135 136.133 73.625C135.99 73.3958 135.918 73.1237 135.918 72.8086C135.918 72.293 136.054 71.8346 136.326 71.4336C136.598 71.0326 136.949 70.832 137.379 70.832C137.766 70.832 138.124 71.0397 138.453 71.4551C138.768 71.8704 139.162 72.293 139.635 72.7227C140.107 73.1523 140.73 73.3672 141.504 73.3672C142.134 73.3672 142.643 73.1595 143.029 72.7441C143.416 72.3288 143.609 71.8776 143.609 71.3906C143.609 70.6458 143.33 69.8509 142.771 69.0059C142.213 68.1608 141.604 67.4089 140.945 66.75C140.286 66.0911 139.678 65.2891 139.119 64.3438C138.561 63.3984 138.281 62.4388 138.281 61.4648C138.281 60.6628 138.546 59.8535 139.076 59.0371C139.606 58.2207 140.322 57.5404 141.225 56.9961C142.127 56.4518 143.137 56.1797 144.254 56.1797ZM154.953 56.3086C155.411 56.3086 155.77 56.5163 156.027 56.9316C156.285 57.347 156.414 57.8841 156.414 58.543C156.414 59.3021 156.328 60.0612 156.156 60.8203L154.652 67.9102C154.452 68.7839 154.352 69.5573 154.352 70.2305C154.352 71.4622 154.624 72.0781 155.168 72.0781C155.483 72.0781 155.87 71.8991 156.328 71.541C156.801 71.1829 157.288 70.7246 157.789 70.166C158.305 69.6074 158.785 69.0345 159.229 68.4473C160.045 67.373 160.818 66.0625 161.549 64.5156C162.279 62.9688 162.788 61.4362 163.074 59.918L163.805 56.5664C164.191 56.4518 164.635 56.3945 165.137 56.3945C165.624 56.3945 166.111 56.4518 166.598 56.5664L163.934 70.4453C163.848 70.7891 163.805 71.1471 163.805 71.5195C163.805 72.2357 163.948 72.5938 164.234 72.5938C164.592 72.5938 165.022 72.3431 165.523 71.8418C166.025 71.3262 166.454 70.8893 166.812 70.5312L167.07 70.2305C167.128 70.2305 167.235 70.3665 167.393 70.6387C167.55 70.9108 167.629 71.1042 167.629 71.2188C167.385 71.6341 166.941 72.1641 166.297 72.8086C165.667 73.4531 164.979 74.026 164.234 74.5273C163.49 75.0143 162.816 75.2578 162.215 75.2578C161.757 75.2578 161.398 75.0501 161.141 74.6348C160.883 74.2194 160.754 73.6823 160.754 73.0234C160.754 72.5938 160.854 71.8346 161.055 70.7461L161.828 66.793C161.556 67.3086 160.969 68.1966 160.066 69.457C159.479 70.2734 158.77 71.1328 157.939 72.0352C157.123 72.9375 156.307 73.7038 155.49 74.334C154.674 74.9499 153.979 75.2578 153.406 75.2578C151.974 75.2578 151.258 74.3125 151.258 72.4219C151.258 71.0755 151.458 69.5143 151.859 67.7383L153.148 61.7656C153.292 60.7773 153.363 60.2044 153.363 60.0469C153.363 59.3307 153.22 58.9727 152.934 58.9727C152.69 58.9727 152.325 59.2018 151.838 59.6602C151.609 59.8893 151.358 60.14 151.086 60.4121C150.828 60.6842 150.656 60.8776 150.57 60.9922C150.513 60.9922 150.406 60.8561 150.248 60.584C150.09 60.3118 150.012 60.1185 150.012 60.0039C150.241 59.6172 150.656 59.1374 151.258 58.5645C151.859 57.9772 152.504 57.4544 153.191 56.9961C153.879 56.5378 154.466 56.3086 154.953 56.3086ZM175.965 56.3086C176.423 56.3086 176.781 56.5163 177.039 56.9316C177.297 57.347 177.426 57.8841 177.426 58.543C177.426 59.1732 177.34 59.9323 177.168 60.8203L176.48 64.4297C176.839 63.5846 177.297 62.6966 177.855 61.7656C178.428 60.8203 179.037 59.9323 179.682 59.1016C180.326 58.2708 180.964 57.5977 181.594 57.082C182.224 56.5664 182.783 56.3086 183.27 56.3086C184.243 56.3086 185.031 56.7669 185.633 57.6836C185.633 59.6029 185.103 60.5625 184.043 60.5625C183.814 60.5625 183.542 60.3835 183.227 60.0254C182.911 59.6673 182.582 59.4883 182.238 59.4883C181.823 59.4883 181.279 59.832 180.605 60.5195C179.932 61.207 179.238 62.1094 178.521 63.2266C177.805 64.3294 177.161 65.5254 176.588 66.8145C176.015 68.0892 175.621 69.3138 175.406 70.4883L174.59 75C174.103 75.0859 173.63 75.1289 173.172 75.1289C172.628 75.1289 172.098 75.0859 171.582 75L174.16 61.7656C174.303 60.7773 174.375 60.2044 174.375 60.0469C174.375 59.3307 174.232 58.9727 173.945 58.9727C173.702 58.9727 173.337 59.2018 172.85 59.6602C172.62 59.8893 172.37 60.14 172.098 60.4121C171.84 60.6842 171.668 60.8776 171.582 60.9922C171.525 60.9922 171.417 60.8561 171.26 60.584C171.102 60.3118 171.023 60.1185 171.023 60.0039C171.253 59.6172 171.668 59.1374 172.27 58.5645C172.871 57.9772 173.516 57.4544 174.203 56.9961C174.891 56.5378 175.478 56.3086 175.965 56.3086Z" fill="white"/>
<path d="M0 14.4961C6.30012 20.0984 15.0791 19.1979 30.687 15.1421C32.2497 14.736 33.9168 14.9601 35.3059 15.7832L61.0905 31.063L35.3304 19.6141C33.9205 18.9874 32.3183 18.9353 30.8588 19.4358C12.5496 25.7159 4.73674 24.7283 0 14.4961Z" fill="url(#paint8_radial_692_2114)"/>
<path d="M16.5669 25.8858C22.7094 27.5488 34.4861 19.1752 43.5027 24.2129C35.7991 20.3448 24.9274 34.7378 16.5669 25.8858Z" fill="url(#paint9_radial_692_2114)"/>
<path d="M42.4528 34.1693C40.4746 32.9379 39.8039 31.791 39.5364 30.2054C39.314 28.8871 40.2138 27.6374 41.514 27.3262C46.4064 26.1551 49.6595 27.3172 54.8779 31.063C50.3759 26.3362 46.8249 25.2844 39.6469 25.78C38.7972 25.8387 38.0191 26.2751 37.5081 26.9564L36.1669 28.7446C35.6047 29.4943 35.6307 30.5432 36.2784 31.2205C38.4425 33.4837 39.9798 34.1156 42.4528 34.1693Z" fill="url(#paint10_radial_692_2114)"/>
<path d="M61.0905 28.9921C48.8725 19.5072 53.131 18.6378 60.0551 10.3543C56.6285 8.93238 54.8937 8.83857 52.8071 12.4252C51.2879 8.29387 49.7783 6.42726 45.559 4.14173C43.8524 8.52031 44.6321 10.6991 46.5945 14.4961C42.9378 12.0347 40.7471 11.3823 36.2402 13.4606C46.3046 17.727 45.2926 18.8748 61.0905 28.9921Z" fill="url(#paint11_radial_692_2114)"/>
<path d="M78.6929 22.7441C78.6929 22.1918 79.1406 21.7441 79.6929 21.7441H79.7638C80.3161 21.7441 80.7638 22.1918 80.7638 22.7441V25.9213C80.7638 26.4735 80.3161 26.9213 79.7638 26.9213H74.4803C73.3757 26.9213 72.4803 26.0258 72.4803 24.9213V19.6024C72.4803 18.4978 73.3757 17.6024 74.4803 17.6024H78.7281C80.6137 17.6024 82.4755 18.023 84.178 18.8337V18.8337C85.2965 19.3663 86.1249 20.3629 86.4441 21.5599L88.3399 28.6695C89.2063 31.9182 86.6836 35.0788 83.3237 34.9544L68.0679 34.3894C64.7776 34.2675 62.2002 31.5169 62.2923 28.2256L62.6948 13.8426C62.7856 10.5955 65.4441 8.01038 68.6924 8.01038H83.0387C86.0229 8.01038 88.8896 9.21712 90.915 11.4088C101.807 23.194 109.097 33.3225 115.395 32.2299C115.685 32.1796 115.968 32.3916 115.968 32.686V32.686C115.968 32.9325 115.766 33.1318 115.519 33.1285C109.37 33.045 105.37 32.4313 87.653 13.254C86.5367 12.0456 85.0793 11.1983 83.4735 10.8414L77.8584 9.59364C77.0431 9.41248 76.199 9.4035 75.3801 9.56728L71.091 10.4251C68.2865 10.986 66.2677 13.4485 66.2677 16.3086V27.0984C66.2677 29.8599 68.5063 32.0984 71.2677 32.0984H80.9055C83.1146 32.0984 84.9055 30.3076 84.9055 28.0984V22.6378C84.9055 20.4287 83.1146 18.6378 80.9055 18.6378H76.5512C75.4466 18.6378 74.5512 19.5332 74.5512 20.6378V24.8858C74.5512 25.4381 74.9989 25.8858 75.5512 25.8858H77.6929C78.2452 25.8858 78.6929 25.4381 78.6929 24.8858V22.7441Z" fill="url(#paint12_radial_692_2114)"/>
<path d="M104.412 33.0631C96.4743 29.9513 88.3242 12.4066 78.6929 13.4606C91.6665 19.2326 92.9183 31.4785 104.412 33.0631Z" fill="url(#paint13_radial_692_2114)"/>
<path d="M111.827 30.0276C106.485 21.6827 106.361 16.9143 110.791 8.28346C105.363 9.71409 97.6256 19.5114 111.827 30.0276Z" fill="url(#paint14_radial_692_2114)"/>
<path d="M118.039 10.3543C113.102 14.0549 110.405 23.2793 118.039 32.0984C106.33 25.6888 109.793 12.7713 118.039 0V10.3543Z" fill="url(#paint15_radial_692_2114)"/>
<path d="M236.079 14.4961C229.778 20.0984 221 19.1979 205.392 15.1421C203.829 14.736 202.162 14.9601 200.773 15.7832L174.988 31.063L200.748 19.6141C202.158 18.9874 203.76 18.9353 205.22 19.4358C223.529 25.7159 231.342 24.7283 236.079 14.4961Z" fill="url(#paint16_radial_692_2114)"/>
<path d="M219.512 25.8858C213.369 27.5488 201.593 19.1752 192.576 24.2129C200.279 20.3448 211.151 34.7378 219.512 25.8858Z" fill="url(#paint17_radial_692_2114)"/>
<path d="M193.626 34.1693C195.604 32.9379 196.275 31.791 196.542 30.2054C196.765 28.8871 195.865 27.6374 194.565 27.3262C189.672 26.1551 186.419 27.3172 181.201 31.063C185.703 26.3362 189.254 25.2844 196.432 25.78C197.281 25.8387 198.06 26.2751 198.571 26.9564L199.912 28.7446C200.474 29.4943 200.448 30.5432 199.8 31.2205C197.636 33.4837 196.099 34.1156 193.626 34.1693Z" fill="url(#paint18_radial_692_2114)"/>
<path d="M174.988 28.9921C187.206 19.5072 182.948 18.6378 176.024 10.3543C179.45 8.93238 181.185 8.83857 183.272 12.4252C184.791 8.29387 186.3 6.42726 190.52 4.14173C192.226 8.52031 191.446 10.6991 189.484 14.4961C193.141 12.0347 195.331 11.3823 199.838 13.4606C189.774 17.727 190.786 18.8748 174.988 28.9921Z" fill="url(#paint19_radial_692_2114)"/>
<path d="M157.386 22.7441C157.386 22.1918 156.938 21.7441 156.386 21.7441H156.315C155.763 21.7441 155.315 22.1918 155.315 22.7441V25.9213C155.315 26.4735 155.763 26.9213 156.315 26.9213H161.598C162.703 26.9213 163.598 26.0258 163.598 24.9213V19.6024C163.598 18.4978 162.703 17.6024 161.598 17.6024H157.351C155.465 17.6024 153.603 18.023 151.901 18.8337V18.8337C150.782 19.3663 149.954 20.3629 149.635 21.5599L147.739 28.6695C146.872 31.9182 149.395 35.0788 152.755 34.9544L168.011 34.3894C171.301 34.2675 173.878 31.5169 173.786 28.2256L173.384 13.8426C173.293 10.5955 170.635 8.01038 167.386 8.01038H153.04C150.056 8.01038 147.189 9.21712 145.164 11.4088C134.272 23.194 126.982 33.3225 120.683 32.2299C120.393 32.1796 120.11 32.3916 120.11 32.686V32.686C120.11 32.9325 120.313 33.1318 120.559 33.1285C126.708 33.045 130.709 32.4313 148.426 13.254C149.542 12.0456 150.999 11.1983 152.605 10.8414L158.22 9.59364C159.035 9.41248 159.88 9.4035 160.698 9.56728L164.988 10.4251C167.792 10.986 169.811 13.4485 169.811 16.3086V27.0984C169.811 29.8599 167.572 32.0984 164.811 32.0984H155.173C152.964 32.0984 151.173 30.3076 151.173 28.0984V22.6378C151.173 20.4287 152.964 18.6378 155.173 18.6378H159.527C160.632 18.6378 161.527 19.5332 161.527 20.6378V24.8858C161.527 25.4381 161.08 25.8858 160.527 25.8858H158.386C157.833 25.8858 157.386 25.4381 157.386 24.8858V22.7441Z" fill="url(#paint20_radial_692_2114)"/>
<path d="M131.666 33.0631C139.604 29.9513 147.754 12.4066 157.386 13.4606C144.412 19.2326 143.16 31.4785 131.666 33.0631Z" fill="url(#paint21_radial_692_2114)"/>
<path d="M124.252 30.0276C129.594 21.6827 129.718 16.9143 125.287 8.28346C130.716 9.71409 138.453 19.5114 124.252 30.0276Z" fill="url(#paint22_radial_692_2114)"/>
<path d="M118.039 10.3543C122.976 14.0549 125.673 23.2793 118.039 32.0984C129.749 25.6888 126.286 12.7713 118.039 0V10.3543Z" fill="url(#paint23_radial_692_2114)"/>
<defs>
<radialGradient id="paint0_radial_692_2114" cx="0" cy="0" r="1" gradientUnits="userSpaceOnUse" gradientTransform="translate(79.728 111.309) scale(38.311 20.1909)">
<stop stop-color="#E1E1E1"/>
<stop offset="1" stop-color="#FFF4DA"/>
</radialGradient>
<radialGradient id="paint1_radial_692_2114" cx="0" cy="0" r="1" gradientUnits="userSpaceOnUse" gradientTransform="translate(79.728 111.309) scale(38.311 20.1909)">
<stop stop-color="#E1E1E1"/>
<stop offset="1" stop-color="#FFF4DA"/>
</radialGradient>
<radialGradient id="paint2_radial_692_2114" cx="0" cy="0" r="1" gradientUnits="userSpaceOnUse" gradientTransform="translate(79.728 111.309) scale(38.311 20.1909)">
<stop stop-color="#E1E1E1"/>
<stop offset="1" stop-color="#FFF4DA"/>
</radialGradient>
<radialGradient id="paint3_radial_692_2114" cx="0" cy="0" r="1" gradientUnits="userSpaceOnUse" gradientTransform="translate(79.728 111.309) scale(38.311 20.1909)">
<stop stop-color="#E1E1E1"/>
<stop offset="1" stop-color="#FFF4DA"/>
</radialGradient>
<radialGradient id="paint4_radial_692_2114" cx="0" cy="0" r="1" gradientUnits="userSpaceOnUse" gradientTransform="translate(156.35 111.309) rotate(180) scale(38.311 20.1909)">
<stop stop-color="#E1E1E1"/>
<stop offset="1" stop-color="#FFF4DA"/>
</radialGradient>
<radialGradient id="paint5_radial_692_2114" cx="0" cy="0" r="1" gradientUnits="userSpaceOnUse" gradientTransform="translate(156.35 111.309) rotate(180) scale(38.311 20.1909)">
<stop stop-color="#E1E1E1"/>
<stop offset="1" stop-color="#FFF4DA"/>
</radialGradient>
<radialGradient id="paint6_radial_692_2114" cx="0" cy="0" r="1" gradientUnits="userSpaceOnUse" gradientTransform="translate(156.35 111.309) rotate(180) scale(38.311 20.1909)">
<stop stop-color="#E1E1E1"/>
<stop offset="1" stop-color="#FFF4DA"/>
</radialGradient>
<radialGradient id="paint7_radial_692_2114" cx="0" cy="0" r="1" gradientUnits="userSpaceOnUse" gradientTransform="translate(156.35 111.309) rotate(180) scale(38.311 20.1909)">
<stop stop-color="#E1E1E1"/>
<stop offset="1" stop-color="#FFF4DA"/>
</radialGradient>
<radialGradient id="paint8_radial_692_2114" cx="0" cy="0" r="1" gradientUnits="userSpaceOnUse" gradientTransform="translate(59.0197 17.6024) scale(59.0197 17.6024)">
<stop stop-color="#E1E1E1"/>
<stop offset="1" stop-color="#FFF4DA"/>
</radialGradient>
<radialGradient id="paint9_radial_692_2114" cx="0" cy="0" r="1" gradientUnits="userSpaceOnUse" gradientTransform="translate(59.0197 17.6024) scale(59.0197 17.6024)">
<stop stop-color="#E1E1E1"/>
<stop offset="1" stop-color="#FFF4DA"/>
</radialGradient>
<radialGradient id="paint10_radial_692_2114" cx="0" cy="0" r="1" gradientUnits="userSpaceOnUse" gradientTransform="translate(59.0197 17.6024) scale(59.0197 17.6024)">
<stop stop-color="#E1E1E1"/>
<stop offset="1" stop-color="#FFF4DA"/>
</radialGradient>
<radialGradient id="paint11_radial_692_2114" cx="0" cy="0" r="1" gradientUnits="userSpaceOnUse" gradientTransform="translate(59.0197 17.6024) scale(59.0197 17.6024)">
<stop stop-color="#E1E1E1"/>
<stop offset="1" stop-color="#FFF4DA"/>
</radialGradient>
<radialGradient id="paint12_radial_692_2114" cx="0" cy="0" r="1" gradientUnits="userSpaceOnUse" gradientTransform="translate(59.0197 17.6024) scale(59.0197 17.6024)">
<stop stop-color="#E1E1E1"/>
<stop offset="1" stop-color="#FFF4DA"/>
</radialGradient>
<radialGradient id="paint13_radial_692_2114" cx="0" cy="0" r="1" gradientUnits="userSpaceOnUse" gradientTransform="translate(59.0197 17.6024) scale(59.0197 17.6024)">
<stop stop-color="#E1E1E1"/>
<stop offset="1" stop-color="#FFF4DA"/>
</radialGradient>
<radialGradient id="paint14_radial_692_2114" cx="0" cy="0" r="1" gradientUnits="userSpaceOnUse" gradientTransform="translate(59.0197 17.6024) scale(59.0197 17.6024)">
<stop stop-color="#E1E1E1"/>
<stop offset="1" stop-color="#FFF4DA"/>
</radialGradient>
<radialGradient id="paint15_radial_692_2114" cx="0" cy="0" r="1" gradientUnits="userSpaceOnUse" gradientTransform="translate(59.0197 17.6024) scale(59.0197 17.6024)">
<stop stop-color="#E1E1E1"/>
<stop offset="1" stop-color="#FFF4DA"/>
</radialGradient>
<radialGradient id="paint16_radial_692_2114" cx="0" cy="0" r="1" gradientUnits="userSpaceOnUse" gradientTransform="translate(177.059 17.6024) rotate(180) scale(59.0197 17.6024)">
<stop stop-color="#E1E1E1"/>
<stop offset="1" stop-color="#FFF4DA"/>
</radialGradient>
<radialGradient id="paint17_radial_692_2114" cx="0" cy="0" r="1" gradientUnits="userSpaceOnUse" gradientTransform="translate(177.059 17.6024) rotate(180) scale(59.0197 17.6024)">
<stop stop-color="#E1E1E1"/>
<stop offset="1" stop-color="#FFF4DA"/>
</radialGradient>
<radialGradient id="paint18_radial_692_2114" cx="0" cy="0" r="1" gradientUnits="userSpaceOnUse" gradientTransform="translate(177.059 17.6024) rotate(180) scale(59.0197 17.6024)">
<stop stop-color="#E1E1E1"/>
<stop offset="1" stop-color="#FFF4DA"/>
</radialGradient>
<radialGradient id="paint19_radial_692_2114" cx="0" cy="0" r="1" gradientUnits="userSpaceOnUse" gradientTransform="translate(177.059 17.6024) rotate(180) scale(59.0197 17.6024)">
<stop stop-color="#E1E1E1"/>
<stop offset="1" stop-color="#FFF4DA"/>
</radialGradient>
<radialGradient id="paint20_radial_692_2114" cx="0" cy="0" r="1" gradientUnits="userSpaceOnUse" gradientTransform="translate(177.059 17.6024) rotate(180) scale(59.0197 17.6024)">
<stop stop-color="#E1E1E1"/>
<stop offset="1" stop-color="#FFF4DA"/>
</radialGradient>
<radialGradient id="paint21_radial_692_2114" cx="0" cy="0" r="1" gradientUnits="userSpaceOnUse" gradientTransform="translate(177.059 17.6024) rotate(180) scale(59.0197 17.6024)">
<stop stop-color="#E1E1E1"/>
<stop offset="1" stop-color="#FFF4DA"/>
</radialGradient>
<radialGradient id="paint22_radial_692_2114" cx="0" cy="0" r="1" gradientUnits="userSpaceOnUse" gradientTransform="translate(177.059 17.6024) rotate(180) scale(59.0197 17.6024)">
<stop stop-color="#E1E1E1"/>
<stop offset="1" stop-color="#FFF4DA"/>
</radialGradient>
<radialGradient id="paint23_radial_692_2114" cx="0" cy="0" r="1" gradientUnits="userSpaceOnUse" gradientTransform="translate(177.059 17.6024) rotate(180) scale(59.0197 17.6024)">
<stop stop-color="#E1E1E1"/>
<stop offset="1" stop-color="#FFF4DA"/>
</radialGradient>
</defs>
</svg>
