<svg width="237" height="132" viewBox="0 0 237 132" fill="none" xmlns="http://www.w3.org/2000/svg">
<path d="M50.713 108.06C49.3894 108.487 47.9219 108.504 46.7174 107.809C44.5799 106.575 44.1417 105.154 44.5239 102.508V102.508C42.8803 103.056 42.0634 104.953 43.0344 106.388C43.9981 107.812 45.0942 108.974 46.6272 110.246C47.9176 111.316 49.57 111.855 51.2463 111.812C56.4411 111.679 59.0354 110.851 62.1261 108.72C61.1055 110.641 61.1623 111.76 61.9889 113.6C62.061 113.76 62.2573 113.822 62.4081 113.731C64.083 112.73 65.0044 111.892 66.2679 109.756C66.2159 114.032 66.9848 113.977 70.4096 114.933C67.5199 110.86 68.053 109.221 70.1985 106.254C70.9963 105.151 72.1264 104.331 73.4058 103.866L78.5781 101.985C81.3347 100.982 84.3491 100.942 87.1317 101.869L104.174 107.55C104.308 107.435 104.443 107.326 104.579 107.223V104.508C104.579 103.403 105.474 102.508 106.579 102.508H108.791C109.896 102.508 110.791 103.403 110.791 104.508V105.614H111.827V103.472C111.827 102.368 110.931 101.472 109.827 101.472H105.543C104.439 101.472 103.543 102.368 103.543 103.472V106.65C98.7741 103.748 93.5326 101.584 86.7262 99.7769C82.8461 98.747 78.7539 99.0145 74.9333 100.247L50.713 108.06Z" fill="url(#paint0_radial_692_1818)"/>
<path fill-rule="evenodd" clip-rule="evenodd" d="M118.04 111.827V108.721C115.458 105.74 114.164 105.799 111.827 105.614H110.791C108.063 105.589 106.223 105.979 104.579 107.223V107.685L104.174 107.55C103.27 108.327 102.41 109.382 101.473 110.791C94.423 108.167 92.2423 105.859 84.6309 104.117C82.7932 103.696 80.8384 103.854 79.1738 104.739C77.1411 105.82 75.7483 107.075 74.4009 109.235C73.7981 110.201 73.7054 111.42 74.2151 112.438C75.05 114.107 76.2503 115.417 79.1381 117.128C80.1191 117.709 81.351 117.62 82.2789 116.957L86.2804 114.099C87.2189 113.429 87.4133 112.09 86.6216 111.251C84.8307 109.354 83.7232 109.09 81.7994 109.756C83.0247 110.067 83.7478 110.456 84.3965 111.688C84.7601 112.378 84.5523 113.216 84.0005 113.767L82.2759 115.492C81.3711 116.397 79.9668 116.664 78.906 115.948C77.392 114.927 76.4786 113.802 75.488 112.283C74.8942 111.372 74.8544 110.185 75.4804 109.296C77.1885 106.871 79.0768 106.022 82.8348 105.614C87.5143 105.758 93.9739 109.592 101.473 112.862C101.611 115.305 101.827 117.608 105.431 119.531C106.15 119.915 107.027 119.733 107.604 119.156L110.252 116.508C110.55 116.21 110.55 115.727 110.252 115.429V115.429C109.972 115.149 109.522 115.134 109.211 115.381C104.883 118.812 103.35 117.017 102.508 112.862C108.785 113.743 111.601 112.063 112.862 106.65H114.933L118.04 111.827ZM102.508 111.827C105.324 107.593 107.417 106.549 111.827 106.65C109.582 111.782 107.624 113.001 102.508 111.827Z" fill="url(#paint1_radial_692_1818)"/>
<path d="M118.04 114.933V111.827C116.112 115.763 116.189 118.074 110.791 119.075C111.96 121.038 112.806 121.636 114.933 121.146C115.325 125.201 115.718 127.472 118.04 131.5V125.287C116.703 121.107 116.953 118.865 118.04 114.933Z" fill="url(#paint2_radial_692_1818)"/>
<path d="M115.969 98.3662C116.06 94.792 116.696 93.3936 118.04 91.1182V105.614C115.723 100.811 114.342 99.4138 111.827 99.4015C113.365 97.8121 114.277 97.3638 115.969 98.3662Z" fill="url(#paint3_radial_692_1818)"/>
<path d="M185.366 108.06C186.69 108.487 188.157 108.504 189.362 107.809C191.499 106.575 191.937 105.154 191.555 102.508V102.508C193.199 103.056 194.016 104.953 193.045 106.388C192.081 107.812 190.985 108.974 189.452 110.246C188.161 111.316 186.509 111.855 184.833 111.812C179.638 111.679 177.044 110.851 173.953 108.72C174.974 110.641 174.917 111.76 174.09 113.6C174.018 113.76 173.822 113.822 173.671 113.731C171.996 112.73 171.075 111.892 169.811 109.756C169.863 114.032 169.094 113.977 165.669 114.933C168.559 110.86 168.026 109.221 165.881 106.254C165.083 105.151 163.953 104.331 162.673 103.866L157.501 101.985C154.744 100.982 151.73 100.942 148.947 101.869L131.905 107.55C131.771 107.435 131.636 107.326 131.5 107.223V104.508C131.5 103.403 130.605 102.508 129.5 102.508H127.288C126.183 102.508 125.288 103.403 125.288 104.508V105.614H124.252V103.472C124.252 102.368 125.148 101.472 126.252 101.472H130.536C131.64 101.472 132.536 102.368 132.536 103.472V106.65C137.305 103.748 142.547 101.584 149.353 99.7769C153.233 98.747 157.325 99.0145 161.146 100.247L185.366 108.06Z" fill="url(#paint4_radial_692_1818)"/>
<path fill-rule="evenodd" clip-rule="evenodd" d="M118.04 111.827V108.721C120.621 105.74 121.915 105.799 124.252 105.614H125.288C128.016 105.589 129.856 105.979 131.5 107.223V107.685L131.905 107.55C132.809 108.327 133.669 109.382 134.607 110.791C141.656 108.167 143.837 105.859 151.448 104.117C153.286 103.696 155.241 103.854 156.905 104.739C158.938 105.82 160.331 107.075 161.678 109.235C162.281 110.201 162.374 111.42 161.864 112.438C161.029 114.107 159.829 115.417 156.941 117.128C155.96 117.709 154.728 117.62 153.8 116.957L149.799 114.099C148.86 113.429 148.666 112.09 149.457 111.251C151.248 109.354 152.356 109.09 154.28 109.756C153.054 110.067 152.331 110.456 151.683 111.688C151.319 112.378 151.527 113.216 152.079 113.767L153.803 115.492C154.708 116.397 156.112 116.664 157.173 115.948C158.687 114.927 159.601 113.802 160.591 112.283C161.185 111.372 161.225 110.185 160.599 109.296C158.891 106.871 157.002 106.022 153.244 105.614C148.565 105.758 142.105 109.592 134.607 112.862C134.468 115.305 134.252 117.608 130.648 119.531C129.929 119.915 129.052 119.733 128.475 119.156L125.827 116.508C125.529 116.21 125.529 115.727 125.827 115.429V115.429C126.107 115.149 126.557 115.134 126.868 115.381C131.196 118.812 132.729 117.017 133.571 112.862C127.294 113.743 124.479 112.063 123.217 106.65H121.146L118.04 111.827ZM133.571 111.827C130.755 107.593 128.662 106.549 124.252 106.65C126.497 111.782 128.455 113.001 133.571 111.827Z" fill="url(#paint5_radial_692_1818)"/>
<path d="M118.04 114.933V111.827C119.967 115.763 119.89 118.074 125.288 119.075C124.119 121.038 123.273 121.636 121.146 121.146C120.755 125.201 120.362 127.472 118.04 131.5V125.287C119.376 121.107 119.126 118.865 118.04 114.933Z" fill="url(#paint6_radial_692_1818)"/>
<path d="M120.11 98.3662C120.019 94.792 119.383 93.3936 118.04 91.1182V105.614C120.356 100.811 121.737 99.4138 124.252 99.4015C122.714 97.8121 121.802 97.3638 120.11 98.3662Z" fill="url(#paint7_radial_692_1818)"/>
<path d="M85.2461 68.8984L88.2109 53.6445C88.5833 51.625 88.7695 50.2357 88.7695 49.4766C88.7695 49.2904 88.7337 49.14 88.6621 49.0254C88.5618 48.8965 88.0964 48.7891 87.2656 48.7031C86.4349 48.6172 85.5182 48.5742 84.5156 48.5742C83.513 48.5742 82.7109 48.6745 82.1094 48.875C81.5221 49.0612 81.0208 49.4264 80.6055 49.9707C80.2044 50.515 79.7604 51.3242 79.2734 52.3984C79.2161 52.5417 79.0729 52.6133 78.8438 52.6133C78.4714 52.6133 78.1849 52.513 77.9844 52.3125L79.875 46.168C80.9492 46.4831 81.8516 46.6406 82.582 46.6406C83.4128 46.6406 84.3438 46.6621 85.375 46.7051C86.4062 46.748 87.4375 46.791 88.4688 46.834C89.5143 46.877 90.4453 46.8984 91.2617 46.8984C92.1068 46.8984 93.0521 46.877 94.0977 46.834C95.1576 46.791 96.2103 46.748 97.2559 46.7051C98.3158 46.6621 99.2682 46.6406 100.113 46.6406C100.758 46.6406 101.703 46.4831 102.949 46.168L102.52 52.3125C102.247 52.513 101.918 52.6133 101.531 52.6133C101.273 52.6133 101.145 52.5417 101.145 52.3984C101.145 50.8516 100.865 49.8275 100.307 49.3262C99.748 48.8249 98.7956 48.5742 97.4492 48.5742C94.6133 48.5742 93.0951 48.7891 92.8945 49.2188C92.694 49.6484 92.4935 50.2214 92.293 50.9375C92.0924 51.6536 91.8919 52.513 91.6914 53.5156L88.6836 69.0273C88.3685 70.5599 88.2109 71.849 88.2109 72.8945C88.2109 73.1237 88.4043 73.3314 88.791 73.5176C89.1777 73.7038 89.5573 73.8255 89.9297 73.8828L90.5312 73.9688C90.5885 73.9688 90.6172 74.026 90.6172 74.1406C90.6172 74.4557 90.5312 74.7852 90.3594 75.1289C89.0417 75.0573 88.0104 75.0072 87.2656 74.9785C86.5208 74.9355 86.0625 74.9141 85.8906 74.9141C85.862 74.9141 85.4538 74.9355 84.666 74.9785C83.8783 75.0072 82.7109 75.0573 81.1641 75.1289C81.1068 75.0716 81.0781 74.957 81.0781 74.7852C81.0781 74.2409 81.1784 73.9688 81.3789 73.9688C81.6081 73.9688 81.9232 73.9258 82.3242 73.8398C82.7396 73.7539 83.1263 73.6393 83.4844 73.4961C83.8424 73.3529 84.0573 73.1953 84.1289 73.0234C84.5443 72.0781 84.9167 70.7031 85.2461 68.8984ZM112.574 56.3086C113.634 56.3086 114.68 56.4948 115.711 56.8672L113.09 70.4453C113.004 70.7891 112.961 71.1471 112.961 71.5195C112.961 72.2357 113.104 72.5938 113.391 72.5938C113.749 72.5938 114.178 72.3431 114.68 71.8418C115.181 71.3262 115.611 70.8893 115.969 70.5312L116.227 70.2305C116.284 70.2305 116.391 70.3665 116.549 70.6387C116.706 70.9108 116.785 71.1042 116.785 71.2188C116.542 71.6341 116.098 72.1641 115.453 72.8086C114.823 73.4531 114.135 74.026 113.391 74.5273C112.646 75.0143 111.973 75.2578 111.371 75.2578C110.913 75.2578 110.555 75.0501 110.297 74.6348C110.039 74.2194 109.91 73.6823 109.91 73.0234C109.91 72.5794 110.01 71.8203 110.211 70.7461L110.361 69.9941C110.404 69.7936 110.426 69.6719 110.426 69.6289C110.197 70.0586 109.867 70.5885 109.438 71.2188C109.008 71.8346 108.514 72.4505 107.955 73.0664C107.396 73.6823 106.809 74.1979 106.193 74.6133C105.577 75.0143 104.969 75.2148 104.367 75.2148C103.107 75.2148 102.111 74.6491 101.381 73.5176C100.65 72.3861 100.285 71.0182 100.285 69.4141C100.285 67.3659 100.894 65.3249 102.111 63.291C102.928 61.916 103.902 60.7057 105.033 59.6602C106.179 58.6146 107.404 57.7982 108.707 57.2109C110.01 56.6094 111.299 56.3086 112.574 56.3086ZM110.77 58.2852C109.924 58.2852 109.072 58.5859 108.213 59.1875C107.354 59.7747 106.566 60.5697 105.85 61.5723C105.133 62.5605 104.553 63.6634 104.109 64.8809C103.68 66.084 103.465 67.2943 103.465 68.5117C103.465 71.319 104.195 72.7227 105.656 72.7227C106.172 72.7227 106.73 72.4362 107.332 71.8633C107.934 71.2904 108.528 70.5312 109.115 69.5859C109.702 68.6406 110.218 67.6165 110.662 66.5137C111.12 65.3965 111.457 64.3008 111.672 63.2266L112.531 58.8438C112.188 58.4714 111.6 58.2852 110.77 58.2852ZM120.395 70.7461L124.434 49.9062C124.52 49.4766 124.562 49.0755 124.562 48.7031C124.562 48.1589 123.689 47.8867 121.941 47.8867C121.855 47.8867 121.812 47.8008 121.812 47.6289C121.812 47.2852 121.927 46.9987 122.156 46.7695C124.076 46.5977 125.909 46.1966 127.656 45.5664C127.828 45.6523 127.914 45.9245 127.914 46.3828C127.914 46.6979 127.728 47.7721 127.355 49.6055L123.273 70.4453C123.188 70.7891 123.145 71.1471 123.145 71.5195C123.145 72.2357 123.288 72.5938 123.574 72.5938C123.746 72.5938 123.954 72.515 124.197 72.3574C124.441 72.1999 124.691 72.0065 124.949 71.7773C125.207 71.5482 125.501 71.2546 125.83 70.8965C126.16 70.5241 126.353 70.3021 126.41 70.2305C126.496 70.2305 126.611 70.3665 126.754 70.6387C126.897 70.9108 126.969 71.1042 126.969 71.2188C126.725 71.6341 126.281 72.1641 125.637 72.8086C125.007 73.4531 124.319 74.026 123.574 74.5273C122.829 75.0143 122.156 75.2578 121.555 75.2578C121.125 75.2578 120.774 75.0501 120.502 74.6348C120.23 74.2194 120.094 73.6823 120.094 73.0234C120.094 72.5794 120.194 71.8203 120.395 70.7461ZM139.43 56.3086C141.12 56.3086 142.43 56.8958 143.361 58.0703C144.292 59.2448 144.758 60.8633 144.758 62.9258C144.758 64.401 144.471 65.8691 143.898 67.3301C143.326 68.7767 142.574 70.0944 141.643 71.2832C140.712 72.472 139.688 73.4245 138.57 74.1406C137.453 74.8568 136.35 75.2148 135.262 75.2148C133.543 75.2148 132.232 74.6562 131.33 73.5391C130.428 72.4219 129.977 70.832 129.977 68.7695C129.977 67.2799 130.256 65.8047 130.814 64.3438C131.387 62.8685 132.139 61.5293 133.07 60.3262C134.001 59.1087 135.018 58.1348 136.121 57.4043C137.238 56.6738 138.341 56.3086 139.43 56.3086ZM138.914 58.0703C138.198 58.0703 137.503 58.3854 136.83 59.0156C136.157 59.6315 135.548 60.4408 135.004 61.4434C134.46 62.446 134.03 63.5417 133.715 64.7305C133.4 65.9193 133.242 67.0794 133.242 68.2109C133.242 69.8724 133.507 71.1615 134.037 72.0781C134.567 72.9948 135.233 73.4531 136.035 73.4531C136.751 73.4531 137.432 73.1452 138.076 72.5293C138.735 71.8991 139.322 71.0827 139.838 70.0801C140.354 69.0632 140.755 67.9603 141.041 66.7715C141.342 65.5827 141.492 64.4154 141.492 63.2695C141.492 61.5794 141.263 60.2904 140.805 59.4023C140.346 58.5143 139.716 58.0703 138.914 58.0703ZM160.441 56.3086C161.702 56.3086 162.848 56.4948 163.879 56.8672L161.258 70.4453L159.324 81.3164C159.267 81.7174 159.238 82.0182 159.238 82.2188C159.238 82.6914 159.389 83.0208 159.689 83.207C160.005 83.4076 160.513 83.5078 161.215 83.5078C161.272 83.5078 161.301 83.5938 161.301 83.7656C161.301 84.224 161.229 84.5677 161.086 84.7969C160.986 84.7969 160.864 84.7969 160.721 84.7969C160.577 84.7969 160.406 84.7897 160.205 84.7754C160.019 84.7611 159.854 84.7539 159.711 84.7539C159.568 84.7539 159.453 84.7539 159.367 84.7539C157.276 84.7539 155.199 84.8685 153.137 85.0977C153.137 85.026 153.13 84.9473 153.115 84.8613C153.101 84.7754 153.094 84.6823 153.094 84.582C153.094 84.0664 153.165 83.8086 153.309 83.8086C153.566 83.8086 153.846 83.7871 154.146 83.7441C154.447 83.7012 154.863 83.472 155.393 83.0566C155.923 82.6413 156.259 82.0612 156.402 81.3164L158.594 69.6289C158.393 69.9727 158.164 70.3307 157.906 70.7031C157.663 71.0612 157.391 71.4264 157.09 71.7988C156.689 72.3001 156.202 72.8158 155.629 73.3457C155.056 73.8757 154.469 74.3197 153.867 74.6777C153.28 75.0358 152.736 75.2148 152.234 75.2148C150.974 75.2148 149.971 74.6491 149.227 73.5176C148.482 72.3861 148.109 71.0182 148.109 69.4141C148.109 67.3802 148.725 65.3392 149.957 63.291C150.788 61.916 151.769 60.7057 152.9 59.6602C154.046 58.6146 155.271 57.7982 156.574 57.2109C157.878 56.6094 159.167 56.3086 160.441 56.3086ZM158.594 58.2852C157.663 58.2852 156.76 58.5788 155.887 59.166C155.013 59.7533 154.232 60.5267 153.545 61.4863C152.857 62.446 152.306 63.513 151.891 64.6875C151.49 65.8477 151.289 67.0078 151.289 68.168C151.289 71.2044 152.034 72.7227 153.523 72.7227C154.053 72.7227 154.633 72.4362 155.264 71.8633C155.908 71.276 156.538 70.5098 157.154 69.5645C157.77 68.6191 158.314 67.5951 158.787 66.4922C159.274 65.375 159.625 64.2865 159.84 63.2266L160.699 58.8438C160.355 58.4714 159.654 58.2852 158.594 58.2852Z" fill="white"/>
<path d="M0 14.4961C6.30012 20.0984 15.0791 19.1979 30.687 15.1421C32.2497 14.736 33.9168 14.9601 35.3059 15.7832L61.0905 31.063L35.3304 19.6141C33.9205 18.9874 32.3183 18.9353 30.8588 19.4358C12.5496 25.7159 4.73674 24.7283 0 14.4961Z" fill="url(#paint8_radial_692_1818)"/>
<path d="M16.5669 25.8858C22.7094 27.5488 34.4861 19.1752 43.5027 24.2129C35.7991 20.3448 24.9274 34.7378 16.5669 25.8858Z" fill="url(#paint9_radial_692_1818)"/>
<path d="M42.4528 34.1693C40.4746 32.9379 39.8039 31.791 39.5364 30.2054C39.314 28.8871 40.2138 27.6374 41.514 27.3262C46.4064 26.1551 49.6595 27.3172 54.8779 31.063C50.3759 26.3362 46.8249 25.2844 39.6469 25.78C38.7972 25.8387 38.0191 26.2751 37.5081 26.9564L36.1669 28.7446C35.6047 29.4943 35.6307 30.5432 36.2784 31.2205C38.4425 33.4837 39.9798 34.1156 42.4528 34.1693Z" fill="url(#paint10_radial_692_1818)"/>
<path d="M61.0905 28.9921C48.8725 19.5072 53.131 18.6378 60.0551 10.3543C56.6285 8.93238 54.8937 8.83857 52.8071 12.4252C51.2879 8.29387 49.7783 6.42726 45.559 4.14173C43.8524 8.52031 44.6321 10.6991 46.5945 14.4961C42.9378 12.0347 40.7471 11.3823 36.2402 13.4606C46.3046 17.727 45.2926 18.8748 61.0905 28.9921Z" fill="url(#paint11_radial_692_1818)"/>
<path d="M78.6929 22.7441C78.6929 22.1918 79.1406 21.7441 79.6929 21.7441H79.7638C80.3161 21.7441 80.7638 22.1918 80.7638 22.7441V25.9213C80.7638 26.4735 80.3161 26.9213 79.7638 26.9213H74.4803C73.3757 26.9213 72.4803 26.0258 72.4803 24.9213V19.6024C72.4803 18.4978 73.3757 17.6024 74.4803 17.6024H78.7281C80.6137 17.6024 82.4755 18.023 84.178 18.8337V18.8337C85.2965 19.3663 86.1249 20.3629 86.4441 21.5599L88.3399 28.6695C89.2063 31.9182 86.6836 35.0788 83.3237 34.9544L68.0679 34.3894C64.7776 34.2675 62.2002 31.5169 62.2923 28.2256L62.6948 13.8426C62.7856 10.5955 65.4441 8.01038 68.6924 8.01038H83.0387C86.0229 8.01038 88.8896 9.21712 90.915 11.4088C101.807 23.194 109.097 33.3225 115.395 32.2299C115.685 32.1796 115.968 32.3916 115.968 32.686V32.686C115.968 32.9325 115.766 33.1318 115.519 33.1285C109.37 33.045 105.37 32.4313 87.653 13.254C86.5367 12.0456 85.0793 11.1983 83.4735 10.8414L77.8584 9.59364C77.0431 9.41248 76.199 9.4035 75.3801 9.56728L71.091 10.4251C68.2865 10.986 66.2677 13.4485 66.2677 16.3086V27.0984C66.2677 29.8599 68.5063 32.0984 71.2677 32.0984H80.9055C83.1146 32.0984 84.9055 30.3076 84.9055 28.0984V22.6378C84.9055 20.4287 83.1146 18.6378 80.9055 18.6378H76.5512C75.4466 18.6378 74.5512 19.5332 74.5512 20.6378V24.8858C74.5512 25.4381 74.9989 25.8858 75.5512 25.8858H77.6929C78.2452 25.8858 78.6929 25.4381 78.6929 24.8858V22.7441Z" fill="url(#paint12_radial_692_1818)"/>
<path d="M104.412 33.0631C96.4743 29.9513 88.3242 12.4066 78.6929 13.4606C91.6665 19.2326 92.9183 31.4785 104.412 33.0631Z" fill="url(#paint13_radial_692_1818)"/>
<path d="M111.827 30.0276C106.485 21.6827 106.361 16.9143 110.791 8.28346C105.363 9.71409 97.6256 19.5114 111.827 30.0276Z" fill="url(#paint14_radial_692_1818)"/>
<path d="M118.039 10.3543C113.102 14.0549 110.405 23.2793 118.039 32.0984C106.33 25.6888 109.793 12.7713 118.039 0V10.3543Z" fill="url(#paint15_radial_692_1818)"/>
<path d="M236.079 14.4961C229.778 20.0984 221 19.1979 205.392 15.1421C203.829 14.736 202.162 14.9601 200.773 15.7832L174.988 31.063L200.748 19.6141C202.158 18.9874 203.76 18.9353 205.22 19.4358C223.529 25.7159 231.342 24.7283 236.079 14.4961Z" fill="url(#paint16_radial_692_1818)"/>
<path d="M219.512 25.8858C213.369 27.5488 201.593 19.1752 192.576 24.2129C200.279 20.3448 211.151 34.7378 219.512 25.8858Z" fill="url(#paint17_radial_692_1818)"/>
<path d="M193.626 34.1693C195.604 32.9379 196.275 31.791 196.542 30.2054C196.765 28.8871 195.865 27.6374 194.565 27.3262C189.672 26.1551 186.419 27.3172 181.201 31.063C185.703 26.3362 189.254 25.2844 196.432 25.78C197.281 25.8387 198.06 26.2751 198.571 26.9564L199.912 28.7446C200.474 29.4943 200.448 30.5432 199.8 31.2205C197.636 33.4837 196.099 34.1156 193.626 34.1693Z" fill="url(#paint18_radial_692_1818)"/>
<path d="M174.988 28.9921C187.206 19.5072 182.948 18.6378 176.024 10.3543C179.45 8.93238 181.185 8.83857 183.272 12.4252C184.791 8.29387 186.3 6.42726 190.52 4.14173C192.226 8.52031 191.446 10.6991 189.484 14.4961C193.141 12.0347 195.331 11.3823 199.838 13.4606C189.774 17.727 190.786 18.8748 174.988 28.9921Z" fill="url(#paint19_radial_692_1818)"/>
<path d="M157.386 22.7441C157.386 22.1918 156.938 21.7441 156.386 21.7441H156.315C155.763 21.7441 155.315 22.1918 155.315 22.7441V25.9213C155.315 26.4735 155.763 26.9213 156.315 26.9213H161.598C162.703 26.9213 163.598 26.0258 163.598 24.9213V19.6024C163.598 18.4978 162.703 17.6024 161.598 17.6024H157.351C155.465 17.6024 153.603 18.023 151.901 18.8337V18.8337C150.782 19.3663 149.954 20.3629 149.635 21.5599L147.739 28.6695C146.872 31.9182 149.395 35.0788 152.755 34.9544L168.011 34.3894C171.301 34.2675 173.878 31.5169 173.786 28.2256L173.384 13.8426C173.293 10.5955 170.635 8.01038 167.386 8.01038H153.04C150.056 8.01038 147.189 9.21712 145.164 11.4088C134.272 23.194 126.982 33.3225 120.683 32.2299C120.393 32.1796 120.11 32.3916 120.11 32.686V32.686C120.11 32.9325 120.313 33.1318 120.559 33.1285C126.708 33.045 130.709 32.4313 148.426 13.254C149.542 12.0456 150.999 11.1983 152.605 10.8414L158.22 9.59364C159.035 9.41248 159.88 9.4035 160.698 9.56728L164.988 10.4251C167.792 10.986 169.811 13.4485 169.811 16.3086V27.0984C169.811 29.8599 167.572 32.0984 164.811 32.0984H155.173C152.964 32.0984 151.173 30.3076 151.173 28.0984V22.6378C151.173 20.4287 152.964 18.6378 155.173 18.6378H159.527C160.632 18.6378 161.527 19.5332 161.527 20.6378V24.8858C161.527 25.4381 161.08 25.8858 160.527 25.8858H158.386C157.833 25.8858 157.386 25.4381 157.386 24.8858V22.7441Z" fill="url(#paint20_radial_692_1818)"/>
<path d="M131.666 33.0631C139.604 29.9513 147.754 12.4066 157.386 13.4606C144.412 19.2326 143.16 31.4785 131.666 33.0631Z" fill="url(#paint21_radial_692_1818)"/>
<path d="M124.252 30.0276C129.594 21.6827 129.718 16.9143 125.287 8.28346C130.716 9.71409 138.453 19.5114 124.252 30.0276Z" fill="url(#paint22_radial_692_1818)"/>
<path d="M118.039 10.3543C122.976 14.0549 125.673 23.2793 118.039 32.0984C129.749 25.6888 126.286 12.7713 118.039 0V10.3543Z" fill="url(#paint23_radial_692_1818)"/>
<defs>
<radialGradient id="paint0_radial_692_1818" cx="0" cy="0" r="1" gradientUnits="userSpaceOnUse" gradientTransform="translate(79.7285 111.309) scale(38.311 20.1909)">
<stop stop-color="#E1E1E1"/>
<stop offset="1" stop-color="#FFF4DA"/>
</radialGradient>
<radialGradient id="paint1_radial_692_1818" cx="0" cy="0" r="1" gradientUnits="userSpaceOnUse" gradientTransform="translate(79.7285 111.309) scale(38.311 20.1909)">
<stop stop-color="#E1E1E1"/>
<stop offset="1" stop-color="#FFF4DA"/>
</radialGradient>
<radialGradient id="paint2_radial_692_1818" cx="0" cy="0" r="1" gradientUnits="userSpaceOnUse" gradientTransform="translate(79.7285 111.309) scale(38.311 20.1909)">
<stop stop-color="#E1E1E1"/>
<stop offset="1" stop-color="#FFF4DA"/>
</radialGradient>
<radialGradient id="paint3_radial_692_1818" cx="0" cy="0" r="1" gradientUnits="userSpaceOnUse" gradientTransform="translate(79.7285 111.309) scale(38.311 20.1909)">
<stop stop-color="#E1E1E1"/>
<stop offset="1" stop-color="#FFF4DA"/>
</radialGradient>
<radialGradient id="paint4_radial_692_1818" cx="0" cy="0" r="1" gradientUnits="userSpaceOnUse" gradientTransform="translate(156.351 111.309) rotate(180) scale(38.311 20.1909)">
<stop stop-color="#E1E1E1"/>
<stop offset="1" stop-color="#FFF4DA"/>
</radialGradient>
<radialGradient id="paint5_radial_692_1818" cx="0" cy="0" r="1" gradientUnits="userSpaceOnUse" gradientTransform="translate(156.351 111.309) rotate(180) scale(38.311 20.1909)">
<stop stop-color="#E1E1E1"/>
<stop offset="1" stop-color="#FFF4DA"/>
</radialGradient>
<radialGradient id="paint6_radial_692_1818" cx="0" cy="0" r="1" gradientUnits="userSpaceOnUse" gradientTransform="translate(156.351 111.309) rotate(180) scale(38.311 20.1909)">
<stop stop-color="#E1E1E1"/>
<stop offset="1" stop-color="#FFF4DA"/>
</radialGradient>
<radialGradient id="paint7_radial_692_1818" cx="0" cy="0" r="1" gradientUnits="userSpaceOnUse" gradientTransform="translate(156.351 111.309) rotate(180) scale(38.311 20.1909)">
<stop stop-color="#E1E1E1"/>
<stop offset="1" stop-color="#FFF4DA"/>
</radialGradient>
<radialGradient id="paint8_radial_692_1818" cx="0" cy="0" r="1" gradientUnits="userSpaceOnUse" gradientTransform="translate(59.0197 17.6024) scale(59.0197 17.6024)">
<stop stop-color="#E1E1E1"/>
<stop offset="1" stop-color="#FFF4DA"/>
</radialGradient>
<radialGradient id="paint9_radial_692_1818" cx="0" cy="0" r="1" gradientUnits="userSpaceOnUse" gradientTransform="translate(59.0197 17.6024) scale(59.0197 17.6024)">
<stop stop-color="#E1E1E1"/>
<stop offset="1" stop-color="#FFF4DA"/>
</radialGradient>
<radialGradient id="paint10_radial_692_1818" cx="0" cy="0" r="1" gradientUnits="userSpaceOnUse" gradientTransform="translate(59.0197 17.6024) scale(59.0197 17.6024)">
<stop stop-color="#E1E1E1"/>
<stop offset="1" stop-color="#FFF4DA"/>
</radialGradient>
<radialGradient id="paint11_radial_692_1818" cx="0" cy="0" r="1" gradientUnits="userSpaceOnUse" gradientTransform="translate(59.0197 17.6024) scale(59.0197 17.6024)">
<stop stop-color="#E1E1E1"/>
<stop offset="1" stop-color="#FFF4DA"/>
</radialGradient>
<radialGradient id="paint12_radial_692_1818" cx="0" cy="0" r="1" gradientUnits="userSpaceOnUse" gradientTransform="translate(59.0197 17.6024) scale(59.0197 17.6024)">
<stop stop-color="#E1E1E1"/>
<stop offset="1" stop-color="#FFF4DA"/>
</radialGradient>
<radialGradient id="paint13_radial_692_1818" cx="0" cy="0" r="1" gradientUnits="userSpaceOnUse" gradientTransform="translate(59.0197 17.6024) scale(59.0197 17.6024)">
<stop stop-color="#E1E1E1"/>
<stop offset="1" stop-color="#FFF4DA"/>
</radialGradient>
<radialGradient id="paint14_radial_692_1818" cx="0" cy="0" r="1" gradientUnits="userSpaceOnUse" gradientTransform="translate(59.0197 17.6024) scale(59.0197 17.6024)">
<stop stop-color="#E1E1E1"/>
<stop offset="1" stop-color="#FFF4DA"/>
</radialGradient>
<radialGradient id="paint15_radial_692_1818" cx="0" cy="0" r="1" gradientUnits="userSpaceOnUse" gradientTransform="translate(59.0197 17.6024) scale(59.0197 17.6024)">
<stop stop-color="#E1E1E1"/>
<stop offset="1" stop-color="#FFF4DA"/>
</radialGradient>
<radialGradient id="paint16_radial_692_1818" cx="0" cy="0" r="1" gradientUnits="userSpaceOnUse" gradientTransform="translate(177.059 17.6024) rotate(180) scale(59.0197 17.6024)">
<stop stop-color="#E1E1E1"/>
<stop offset="1" stop-color="#FFF4DA"/>
</radialGradient>
<radialGradient id="paint17_radial_692_1818" cx="0" cy="0" r="1" gradientUnits="userSpaceOnUse" gradientTransform="translate(177.059 17.6024) rotate(180) scale(59.0197 17.6024)">
<stop stop-color="#E1E1E1"/>
<stop offset="1" stop-color="#FFF4DA"/>
</radialGradient>
<radialGradient id="paint18_radial_692_1818" cx="0" cy="0" r="1" gradientUnits="userSpaceOnUse" gradientTransform="translate(177.059 17.6024) rotate(180) scale(59.0197 17.6024)">
<stop stop-color="#E1E1E1"/>
<stop offset="1" stop-color="#FFF4DA"/>
</radialGradient>
<radialGradient id="paint19_radial_692_1818" cx="0" cy="0" r="1" gradientUnits="userSpaceOnUse" gradientTransform="translate(177.059 17.6024) rotate(180) scale(59.0197 17.6024)">
<stop stop-color="#E1E1E1"/>
<stop offset="1" stop-color="#FFF4DA"/>
</radialGradient>
<radialGradient id="paint20_radial_692_1818" cx="0" cy="0" r="1" gradientUnits="userSpaceOnUse" gradientTransform="translate(177.059 17.6024) rotate(180) scale(59.0197 17.6024)">
<stop stop-color="#E1E1E1"/>
<stop offset="1" stop-color="#FFF4DA"/>
</radialGradient>
<radialGradient id="paint21_radial_692_1818" cx="0" cy="0" r="1" gradientUnits="userSpaceOnUse" gradientTransform="translate(177.059 17.6024) rotate(180) scale(59.0197 17.6024)">
<stop stop-color="#E1E1E1"/>
<stop offset="1" stop-color="#FFF4DA"/>
</radialGradient>
<radialGradient id="paint22_radial_692_1818" cx="0" cy="0" r="1" gradientUnits="userSpaceOnUse" gradientTransform="translate(177.059 17.6024) rotate(180) scale(59.0197 17.6024)">
<stop stop-color="#E1E1E1"/>
<stop offset="1" stop-color="#FFF4DA"/>
</radialGradient>
<radialGradient id="paint23_radial_692_1818" cx="0" cy="0" r="1" gradientUnits="userSpaceOnUse" gradientTransform="translate(177.059 17.6024) rotate(180) scale(59.0197 17.6024)">
<stop stop-color="#E1E1E1"/>
<stop offset="1" stop-color="#FFF4DA"/>
</radialGradient>
</defs>
</svg>
