<svg width="237" height="132" viewBox="0 0 237 132" fill="none" xmlns="http://www.w3.org/2000/svg">
<path d="M50.713 108.06C49.3894 108.487 47.9219 108.504 46.7174 107.809C44.5799 106.575 44.1417 105.154 44.5239 102.508V102.508C42.8803 103.056 42.0634 104.953 43.0344 106.388C43.9981 107.812 45.0942 108.974 46.6272 110.246C47.9176 111.316 49.57 111.855 51.2463 111.812C56.4411 111.679 59.0354 110.851 62.1261 108.72C61.1055 110.641 61.1623 111.76 61.9889 113.6C62.061 113.76 62.2573 113.822 62.4081 113.731C64.083 112.73 65.0044 111.892 66.2679 109.756C66.2159 114.032 66.9848 113.977 70.4096 114.933C67.5199 110.86 68.053 109.221 70.1985 106.254C70.9963 105.151 72.1264 104.331 73.4058 103.866L78.5781 101.985C81.3347 100.982 84.3491 100.942 87.1317 101.869L104.174 107.55C104.308 107.435 104.443 107.326 104.579 107.223V104.508C104.579 103.403 105.474 102.508 106.579 102.508H108.791C109.896 102.508 110.791 103.403 110.791 104.508V105.614H111.827V103.472C111.827 102.368 110.931 101.472 109.827 101.472H105.543C104.439 101.472 103.543 102.368 103.543 103.472V106.65C98.7741 103.748 93.5326 101.584 86.7262 99.7769C82.8461 98.747 78.7539 99.0145 74.9333 100.247L50.713 108.06Z" fill="url(#paint0_radial_692_246)"/>
<path fill-rule="evenodd" clip-rule="evenodd" d="M118.04 111.827V108.721C115.458 105.74 114.164 105.799 111.827 105.614H110.791C108.063 105.589 106.223 105.979 104.579 107.223V107.685L104.174 107.55C103.27 108.327 102.41 109.382 101.473 110.791C94.423 108.167 92.2423 105.859 84.6309 104.117C82.7932 103.696 80.8384 103.854 79.1738 104.739C77.1411 105.82 75.7483 107.075 74.4009 109.235C73.7981 110.201 73.7054 111.42 74.2151 112.438C75.05 114.107 76.2503 115.417 79.1381 117.128C80.1191 117.709 81.351 117.62 82.2789 116.957L86.2804 114.099C87.2189 113.429 87.4133 112.09 86.6216 111.251C84.8307 109.354 83.7232 109.09 81.7994 109.756C83.0247 110.067 83.7478 110.456 84.3965 111.688C84.7601 112.378 84.5523 113.216 84.0005 113.767L82.2759 115.492C81.3711 116.397 79.9668 116.664 78.906 115.948C77.392 114.927 76.4786 113.802 75.488 112.283C74.8942 111.372 74.8544 110.185 75.4804 109.296C77.1885 106.871 79.0768 106.022 82.8348 105.614C87.5143 105.758 93.9739 109.592 101.473 112.862C101.611 115.305 101.827 117.608 105.431 119.531C106.15 119.915 107.027 119.733 107.604 119.156L110.252 116.508C110.55 116.21 110.55 115.727 110.252 115.429V115.429C109.972 115.149 109.522 115.134 109.211 115.381C104.883 118.812 103.35 117.017 102.508 112.862C108.785 113.743 111.601 112.063 112.862 106.65H114.933L118.04 111.827ZM102.508 111.827C105.324 107.593 107.417 106.549 111.827 106.65C109.582 111.782 107.624 113.001 102.508 111.827Z" fill="url(#paint1_radial_692_246)"/>
<path d="M118.04 114.933V111.827C116.112 115.763 116.189 118.074 110.791 119.075C111.96 121.038 112.806 121.636 114.933 121.146C115.325 125.201 115.718 127.472 118.04 131.5V125.287C116.703 121.107 116.953 118.865 118.04 114.933Z" fill="url(#paint2_radial_692_246)"/>
<path d="M115.969 98.3662C116.06 94.792 116.696 93.3936 118.04 91.1182V105.614C115.723 100.811 114.342 99.4138 111.827 99.4015C113.365 97.8121 114.277 97.3638 115.969 98.3662Z" fill="url(#paint3_radial_692_246)"/>
<path d="M185.366 108.06C186.69 108.487 188.157 108.504 189.362 107.809C191.499 106.575 191.937 105.154 191.555 102.508V102.508C193.199 103.056 194.016 104.953 193.045 106.388C192.081 107.812 190.985 108.974 189.452 110.246C188.161 111.316 186.509 111.855 184.833 111.812C179.638 111.679 177.044 110.851 173.953 108.72C174.974 110.641 174.917 111.76 174.09 113.6C174.018 113.76 173.822 113.822 173.671 113.731C171.996 112.73 171.075 111.892 169.811 109.756C169.863 114.032 169.094 113.977 165.669 114.933C168.559 110.86 168.026 109.221 165.881 106.254C165.083 105.151 163.953 104.331 162.673 103.866L157.501 101.985C154.744 100.982 151.73 100.942 148.947 101.869L131.905 107.55C131.771 107.435 131.636 107.326 131.5 107.223V104.508C131.5 103.403 130.605 102.508 129.5 102.508H127.288C126.183 102.508 125.288 103.403 125.288 104.508V105.614H124.252V103.472C124.252 102.368 125.148 101.472 126.252 101.472H130.536C131.64 101.472 132.536 102.368 132.536 103.472V106.65C137.305 103.748 142.547 101.584 149.353 99.7769C153.233 98.747 157.325 99.0145 161.146 100.247L185.366 108.06Z" fill="url(#paint4_radial_692_246)"/>
<path fill-rule="evenodd" clip-rule="evenodd" d="M118.04 111.827V108.721C120.621 105.74 121.915 105.799 124.252 105.614H125.288C128.016 105.589 129.856 105.979 131.5 107.223V107.685L131.905 107.55C132.809 108.327 133.669 109.382 134.607 110.791C141.656 108.167 143.837 105.859 151.448 104.117C153.286 103.696 155.241 103.854 156.905 104.739C158.938 105.82 160.331 107.075 161.678 109.235C162.281 110.201 162.374 111.42 161.864 112.438C161.029 114.107 159.829 115.417 156.941 117.128C155.96 117.709 154.728 117.62 153.8 116.957L149.799 114.099C148.86 113.429 148.666 112.09 149.457 111.251C151.248 109.354 152.356 109.09 154.28 109.756C153.054 110.067 152.331 110.456 151.683 111.688C151.319 112.378 151.527 113.216 152.079 113.767L153.803 115.492C154.708 116.397 156.112 116.664 157.173 115.948C158.687 114.927 159.601 113.802 160.591 112.283C161.185 111.372 161.225 110.185 160.599 109.296C158.891 106.871 157.002 106.022 153.244 105.614C148.565 105.758 142.105 109.592 134.607 112.862C134.468 115.305 134.252 117.608 130.648 119.531C129.929 119.915 129.052 119.733 128.475 119.156L125.827 116.508C125.529 116.21 125.529 115.727 125.827 115.429V115.429C126.107 115.149 126.557 115.134 126.868 115.381C131.196 118.812 132.729 117.017 133.571 112.862C127.294 113.743 124.479 112.063 123.217 106.65H121.146L118.04 111.827ZM133.571 111.827C130.755 107.593 128.662 106.549 124.252 106.65C126.497 111.782 128.455 113.001 133.571 111.827Z" fill="url(#paint5_radial_692_246)"/>
<path d="M118.04 114.933V111.827C119.967 115.763 119.89 118.074 125.288 119.075C124.119 121.038 123.273 121.636 121.146 121.146C120.755 125.201 120.362 127.472 118.04 131.5V125.287C119.376 121.107 119.126 118.865 118.04 114.933Z" fill="url(#paint6_radial_692_246)"/>
<path d="M120.11 98.3662C120.019 94.792 119.383 93.3936 118.04 91.1182V105.614C120.356 100.811 121.737 99.4138 124.252 99.4015C122.714 97.8121 121.802 97.3638 120.11 98.3662Z" fill="url(#paint7_radial_692_246)"/>
<path d="M81.2461 68.8984L84.2109 53.6445C84.5833 51.625 84.7695 50.2357 84.7695 49.4766C84.7695 49.2904 84.7337 49.14 84.6621 49.0254C84.5618 48.8965 84.0964 48.7891 83.2656 48.7031C82.4349 48.6172 81.5182 48.5742 80.5156 48.5742C79.513 48.5742 78.7109 48.6745 78.1094 48.875C77.5221 49.0612 77.0208 49.4264 76.6055 49.9707C76.2044 50.515 75.7604 51.3242 75.2734 52.3984C75.2161 52.5417 75.0729 52.6133 74.8438 52.6133C74.4714 52.6133 74.1849 52.513 73.9844 52.3125L75.875 46.168C76.9492 46.4831 77.8516 46.6406 78.582 46.6406C79.4128 46.6406 80.3438 46.6621 81.375 46.7051C82.4062 46.748 83.4375 46.791 84.4688 46.834C85.5143 46.877 86.4453 46.8984 87.2617 46.8984C88.1068 46.8984 89.0521 46.877 90.0977 46.834C91.1576 46.791 92.2103 46.748 93.2559 46.7051C94.3158 46.6621 95.2682 46.6406 96.1133 46.6406C96.7578 46.6406 97.7031 46.4831 98.9492 46.168L98.5195 52.3125C98.2474 52.513 97.918 52.6133 97.5312 52.6133C97.2734 52.6133 97.1445 52.5417 97.1445 52.3984C97.1445 50.8516 96.8652 49.8275 96.3066 49.3262C95.748 48.8249 94.7956 48.5742 93.4492 48.5742C90.6133 48.5742 89.0951 48.7891 88.8945 49.2188C88.694 49.6484 88.4935 50.2214 88.293 50.9375C88.0924 51.6536 87.8919 52.513 87.6914 53.5156L84.6836 69.0273C84.3685 70.5599 84.2109 71.849 84.2109 72.8945C84.2109 73.1237 84.4043 73.3314 84.791 73.5176C85.1777 73.7038 85.5573 73.8255 85.9297 73.8828L86.5312 73.9688C86.5885 73.9688 86.6172 74.026 86.6172 74.1406C86.6172 74.4557 86.5312 74.7852 86.3594 75.1289C85.0417 75.0573 84.0104 75.0072 83.2656 74.9785C82.5208 74.9355 82.0625 74.9141 81.8906 74.9141C81.862 74.9141 81.4538 74.9355 80.666 74.9785C79.8783 75.0072 78.7109 75.0573 77.1641 75.1289C77.1068 75.0716 77.0781 74.957 77.0781 74.7852C77.0781 74.2409 77.1784 73.9688 77.3789 73.9688C77.6081 73.9688 77.9232 73.9258 78.3242 73.8398C78.7396 73.7539 79.1263 73.6393 79.4844 73.4961C79.8424 73.3529 80.0573 73.1953 80.1289 73.0234C80.5443 72.0781 80.9167 70.7031 81.2461 68.8984ZM108.574 56.3086C109.634 56.3086 110.68 56.4948 111.711 56.8672L109.09 70.4453C109.004 70.7891 108.961 71.1471 108.961 71.5195C108.961 72.2357 109.104 72.5938 109.391 72.5938C109.749 72.5938 110.178 72.3431 110.68 71.8418C111.181 71.3262 111.611 70.8893 111.969 70.5312L112.227 70.2305C112.284 70.2305 112.391 70.3665 112.549 70.6387C112.706 70.9108 112.785 71.1042 112.785 71.2188C112.542 71.6341 112.098 72.1641 111.453 72.8086C110.823 73.4531 110.135 74.026 109.391 74.5273C108.646 75.0143 107.973 75.2578 107.371 75.2578C106.913 75.2578 106.555 75.0501 106.297 74.6348C106.039 74.2194 105.91 73.6823 105.91 73.0234C105.91 72.5794 106.01 71.8203 106.211 70.7461L106.361 69.9941C106.404 69.7936 106.426 69.6719 106.426 69.6289C106.197 70.0586 105.867 70.5885 105.438 71.2188C105.008 71.8346 104.514 72.4505 103.955 73.0664C103.396 73.6823 102.809 74.1979 102.193 74.6133C101.577 75.0143 100.969 75.2148 100.367 75.2148C99.1068 75.2148 98.1113 74.6491 97.3809 73.5176C96.6504 72.3861 96.2852 71.0182 96.2852 69.4141C96.2852 67.3659 96.8939 65.3249 98.1113 63.291C98.9277 61.916 99.9017 60.7057 101.033 59.6602C102.179 58.6146 103.404 57.7982 104.707 57.2109C106.01 56.6094 107.299 56.3086 108.574 56.3086ZM106.77 58.2852C105.924 58.2852 105.072 58.5859 104.213 59.1875C103.354 59.7747 102.566 60.5697 101.85 61.5723C101.133 62.5605 100.553 63.6634 100.109 64.8809C99.6797 66.084 99.4648 67.2943 99.4648 68.5117C99.4648 71.319 100.195 72.7227 101.656 72.7227C102.172 72.7227 102.73 72.4362 103.332 71.8633C103.934 71.2904 104.528 70.5312 105.115 69.5859C105.702 68.6406 106.218 67.6165 106.662 66.5137C107.12 65.3965 107.457 64.3008 107.672 63.2266L108.531 58.8438C108.188 58.4714 107.6 58.2852 106.77 58.2852ZM120.734 56.3086C121.193 56.3086 121.551 56.5163 121.809 56.9316C122.066 57.347 122.195 57.8841 122.195 58.543C122.195 59.1302 122.109 59.8893 121.938 60.8203L120.648 67.3945C120.419 68.7266 120.305 69.6289 120.305 70.1016C120.305 70.9036 120.434 71.4766 120.691 71.8203C120.949 72.1641 121.408 72.3359 122.066 72.3359C122.596 72.3359 123.184 72.0924 123.828 71.6055C124.473 71.1185 125.117 70.474 125.762 69.6719C126.406 68.8698 126.993 67.9961 127.523 67.0508C128.068 66.0911 128.505 65.1458 128.834 64.2148C129.163 63.2839 129.328 62.4531 129.328 61.7227C129.328 61.1354 129.12 60.4909 128.705 59.7891C128.29 59.0872 128.082 58.5716 128.082 58.2422C128.082 57.7266 128.254 57.2754 128.598 56.8887C128.941 56.502 129.357 56.3086 129.844 56.3086C130.402 56.3086 130.861 56.4232 131.219 56.6523C131.62 57.3971 131.82 58.2279 131.82 59.1445C131.82 61.5221 131.126 63.9857 129.736 66.5352C128.82 68.2253 127.796 69.7077 126.664 70.9824C125.547 72.2572 124.437 73.2454 123.334 73.9473C122.245 74.6491 121.279 75 120.434 75C119.46 75 118.686 74.6491 118.113 73.9473C117.54 73.2454 117.254 72.3359 117.254 71.2188C117.254 70.4453 117.311 69.8151 117.426 69.3281L118.887 61.7656C119.059 61.1641 119.145 60.5911 119.145 60.0469C119.145 59.3307 119.001 58.9727 118.715 58.9727C118.543 58.9727 118.314 59.0872 118.027 59.3164C117.741 59.5456 117.454 59.8034 117.168 60.0898C116.896 60.362 116.695 60.5768 116.566 60.7344L116.352 60.9922C116.294 60.9922 116.187 60.8561 116.029 60.584C115.872 60.3118 115.793 60.1185 115.793 60.0039C116.022 59.6172 116.438 59.1374 117.039 58.5645C117.641 57.9772 118.285 57.4544 118.973 56.9961C119.66 56.5378 120.247 56.3086 120.734 56.3086ZM144.367 56.3086C145.628 56.3086 146.58 56.8672 147.225 57.9844C147.869 59.1016 148.191 60.4193 148.191 61.9375C148.191 63.7708 147.883 65.4896 147.268 67.0938C146.666 68.6979 145.857 70.1159 144.84 71.3477C143.823 72.5651 142.699 73.5247 141.467 74.2266C140.249 74.9141 139.025 75.2578 137.793 75.2578C136.704 75.2578 135.723 74.8496 134.85 74.0332C133.976 73.2168 133.539 72.0495 133.539 70.5312C133.539 70.1016 133.582 69.6289 133.668 69.1133L137.234 50.9805C137.492 49.7917 137.621 49.0326 137.621 48.7031C137.621 48.1589 136.747 47.8867 135 47.8867C134.914 47.8867 134.871 47.8008 134.871 47.6289C134.871 47.2852 134.986 46.9987 135.215 46.7695C137.062 46.5977 138.867 46.1966 140.629 45.5664C140.801 45.6523 140.887 45.9245 140.887 46.3828C140.887 46.6979 140.701 47.7721 140.328 49.6055L137.793 61.9805C138.71 60.4622 139.669 59.2448 140.672 58.3281C141.474 57.612 142.161 57.0964 142.734 56.7812C143.307 56.4661 143.852 56.3086 144.367 56.3086ZM143.121 58.6719C142.52 58.6719 141.753 59.209 140.822 60.2832C140.206 60.9993 139.605 61.8229 139.018 62.7539C138.445 63.6849 137.951 64.6374 137.535 65.6113C137.12 66.571 136.833 67.4661 136.676 68.2969C136.361 69.8724 136.404 71.1328 136.805 72.0781C137.206 73.0234 137.908 73.4961 138.91 73.4961C139.984 73.4961 141.008 72.9447 141.982 71.8418C142.942 70.7389 143.687 69.3783 144.217 67.7598C144.747 66.1413 145.012 64.5443 145.012 62.9688C145.012 62.3099 144.976 61.651 144.904 60.9922C144.847 60.3333 144.682 59.7819 144.41 59.3379C144.152 58.8939 143.723 58.6719 143.121 58.6719ZM162.285 56.3086C163.345 56.3086 164.391 56.4948 165.422 56.8672L162.801 70.4453C162.715 70.7891 162.672 71.1471 162.672 71.5195C162.672 72.2357 162.815 72.5938 163.102 72.5938C163.46 72.5938 163.889 72.3431 164.391 71.8418C164.892 71.3262 165.322 70.8893 165.68 70.5312L165.938 70.2305C165.995 70.2305 166.102 70.3665 166.26 70.6387C166.417 70.9108 166.496 71.1042 166.496 71.2188C166.253 71.6341 165.809 72.1641 165.164 72.8086C164.534 73.4531 163.846 74.026 163.102 74.5273C162.357 75.0143 161.684 75.2578 161.082 75.2578C160.624 75.2578 160.266 75.0501 160.008 74.6348C159.75 74.2194 159.621 73.6823 159.621 73.0234C159.621 72.5794 159.721 71.8203 159.922 70.7461L160.072 69.9941C160.115 69.7936 160.137 69.6719 160.137 69.6289C159.908 70.0586 159.578 70.5885 159.148 71.2188C158.719 71.8346 158.225 72.4505 157.666 73.0664C157.107 73.6823 156.52 74.1979 155.904 74.6133C155.288 75.0143 154.68 75.2148 154.078 75.2148C152.818 75.2148 151.822 74.6491 151.092 73.5176C150.361 72.3861 149.996 71.0182 149.996 69.4141C149.996 67.3659 150.605 65.3249 151.822 63.291C152.639 61.916 153.613 60.7057 154.744 59.6602C155.89 58.6146 157.115 57.7982 158.418 57.2109C159.721 56.6094 161.01 56.3086 162.285 56.3086ZM160.48 58.2852C159.635 58.2852 158.783 58.5859 157.924 59.1875C157.064 59.7747 156.277 60.5697 155.561 61.5723C154.844 62.5605 154.264 63.6634 153.82 64.8809C153.391 66.084 153.176 67.2943 153.176 68.5117C153.176 71.319 153.906 72.7227 155.367 72.7227C155.883 72.7227 156.441 72.4362 157.043 71.8633C157.645 71.2904 158.239 70.5312 158.826 69.5859C159.413 68.6406 159.929 67.6165 160.373 66.5137C160.831 65.3965 161.168 64.3008 161.383 63.2266L162.242 58.8438C161.898 58.4714 161.311 58.2852 160.48 58.2852Z" fill="white"/>
<path d="M0 14.4961C6.30012 20.0984 15.0791 19.1979 30.687 15.1421C32.2497 14.736 33.9168 14.9601 35.3059 15.7832L61.0905 31.063L35.3304 19.6141C33.9205 18.9874 32.3183 18.9353 30.8588 19.4358C12.5496 25.7159 4.73674 24.7283 0 14.4961Z" fill="url(#paint8_radial_692_246)"/>
<path d="M16.5669 25.8858C22.7094 27.5488 34.4861 19.1752 43.5027 24.2129C35.7991 20.3448 24.9274 34.7378 16.5669 25.8858Z" fill="url(#paint9_radial_692_246)"/>
<path d="M42.4528 34.1693C40.4746 32.9379 39.8039 31.791 39.5364 30.2054C39.314 28.8871 40.2138 27.6374 41.514 27.3262C46.4064 26.1551 49.6595 27.3172 54.8779 31.063C50.3759 26.3362 46.8249 25.2844 39.6469 25.78C38.7972 25.8387 38.0191 26.2751 37.5081 26.9564L36.1669 28.7446C35.6047 29.4943 35.6307 30.5432 36.2784 31.2205C38.4425 33.4837 39.9798 34.1156 42.4528 34.1693Z" fill="url(#paint10_radial_692_246)"/>
<path d="M61.0905 28.9921C48.8725 19.5072 53.131 18.6378 60.0551 10.3543C56.6285 8.93238 54.8937 8.83857 52.8071 12.4252C51.2879 8.29387 49.7783 6.42726 45.559 4.14173C43.8524 8.52031 44.6321 10.6991 46.5945 14.4961C42.9378 12.0347 40.7471 11.3823 36.2402 13.4606C46.3046 17.727 45.2926 18.8748 61.0905 28.9921Z" fill="url(#paint11_radial_692_246)"/>
<path d="M78.6929 22.7441C78.6929 22.1918 79.1406 21.7441 79.6929 21.7441H79.7638C80.3161 21.7441 80.7638 22.1918 80.7638 22.7441V25.9213C80.7638 26.4735 80.3161 26.9213 79.7638 26.9213H74.4803C73.3757 26.9213 72.4803 26.0258 72.4803 24.9213V19.6024C72.4803 18.4978 73.3757 17.6024 74.4803 17.6024H78.7281C80.6137 17.6024 82.4755 18.023 84.178 18.8337V18.8337C85.2965 19.3663 86.1249 20.3629 86.4441 21.5599L88.3399 28.6695C89.2063 31.9182 86.6836 35.0788 83.3237 34.9544L68.0679 34.3894C64.7776 34.2675 62.2002 31.5169 62.2923 28.2256L62.6948 13.8426C62.7856 10.5955 65.4441 8.01038 68.6924 8.01038H83.0387C86.0229 8.01038 88.8896 9.21712 90.915 11.4088C101.807 23.194 109.097 33.3225 115.395 32.2299C115.685 32.1796 115.968 32.3916 115.968 32.686V32.686C115.968 32.9325 115.766 33.1318 115.519 33.1285C109.37 33.045 105.37 32.4313 87.653 13.254C86.5367 12.0456 85.0793 11.1983 83.4735 10.8414L77.8584 9.59364C77.0431 9.41248 76.199 9.4035 75.3801 9.56728L71.091 10.4251C68.2865 10.986 66.2677 13.4485 66.2677 16.3086V27.0984C66.2677 29.8599 68.5063 32.0984 71.2677 32.0984H80.9055C83.1146 32.0984 84.9055 30.3076 84.9055 28.0984V22.6378C84.9055 20.4287 83.1146 18.6378 80.9055 18.6378H76.5512C75.4466 18.6378 74.5512 19.5332 74.5512 20.6378V24.8858C74.5512 25.4381 74.9989 25.8858 75.5512 25.8858H77.6929C78.2452 25.8858 78.6929 25.4381 78.6929 24.8858V22.7441Z" fill="url(#paint12_radial_692_246)"/>
<path d="M104.412 33.0631C96.4743 29.9513 88.3242 12.4066 78.6929 13.4606C91.6665 19.2326 92.9183 31.4785 104.412 33.0631Z" fill="url(#paint13_radial_692_246)"/>
<path d="M111.827 30.0276C106.485 21.6827 106.361 16.9143 110.791 8.28346C105.363 9.71409 97.6256 19.5114 111.827 30.0276Z" fill="url(#paint14_radial_692_246)"/>
<path d="M118.039 10.3543C113.102 14.0549 110.405 23.2793 118.039 32.0984C106.33 25.6888 109.793 12.7713 118.039 0V10.3543Z" fill="url(#paint15_radial_692_246)"/>
<path d="M236.079 14.4961C229.778 20.0984 221 19.1979 205.392 15.1421C203.829 14.736 202.162 14.9601 200.773 15.7832L174.988 31.063L200.748 19.6141C202.158 18.9874 203.76 18.9353 205.22 19.4358C223.529 25.7159 231.342 24.7283 236.079 14.4961Z" fill="url(#paint16_radial_692_246)"/>
<path d="M219.512 25.8858C213.369 27.5488 201.593 19.1752 192.576 24.2129C200.279 20.3448 211.151 34.7378 219.512 25.8858Z" fill="url(#paint17_radial_692_246)"/>
<path d="M193.626 34.1693C195.604 32.9379 196.275 31.791 196.542 30.2054C196.765 28.8871 195.865 27.6374 194.565 27.3262C189.672 26.1551 186.419 27.3172 181.201 31.063C185.703 26.3362 189.254 25.2844 196.432 25.78C197.281 25.8387 198.06 26.2751 198.571 26.9564L199.912 28.7446C200.474 29.4943 200.448 30.5432 199.8 31.2205C197.636 33.4837 196.099 34.1156 193.626 34.1693Z" fill="url(#paint18_radial_692_246)"/>
<path d="M174.988 28.9921C187.206 19.5072 182.948 18.6378 176.024 10.3543C179.45 8.93238 181.185 8.83857 183.272 12.4252C184.791 8.29387 186.3 6.42726 190.52 4.14173C192.226 8.52031 191.446 10.6991 189.484 14.4961C193.141 12.0347 195.331 11.3823 199.838 13.4606C189.774 17.727 190.786 18.8748 174.988 28.9921Z" fill="url(#paint19_radial_692_246)"/>
<path d="M157.386 22.7441C157.386 22.1918 156.938 21.7441 156.386 21.7441H156.315C155.763 21.7441 155.315 22.1918 155.315 22.7441V25.9213C155.315 26.4735 155.763 26.9213 156.315 26.9213H161.598C162.703 26.9213 163.598 26.0258 163.598 24.9213V19.6024C163.598 18.4978 162.703 17.6024 161.598 17.6024H157.351C155.465 17.6024 153.603 18.023 151.901 18.8337V18.8337C150.782 19.3663 149.954 20.3629 149.635 21.5599L147.739 28.6695C146.872 31.9182 149.395 35.0788 152.755 34.9544L168.011 34.3894C171.301 34.2675 173.878 31.5169 173.786 28.2256L173.384 13.8426C173.293 10.5955 170.635 8.01038 167.386 8.01038H153.04C150.056 8.01038 147.189 9.21712 145.164 11.4088C134.272 23.194 126.982 33.3225 120.683 32.2299C120.393 32.1796 120.11 32.3916 120.11 32.686V32.686C120.11 32.9325 120.313 33.1318 120.559 33.1285C126.708 33.045 130.709 32.4313 148.426 13.254C149.542 12.0456 150.999 11.1983 152.605 10.8414L158.22 9.59364C159.035 9.41248 159.88 9.4035 160.698 9.56728L164.988 10.4251C167.792 10.986 169.811 13.4485 169.811 16.3086V27.0984C169.811 29.8599 167.572 32.0984 164.811 32.0984H155.173C152.964 32.0984 151.173 30.3076 151.173 28.0984V22.6378C151.173 20.4287 152.964 18.6378 155.173 18.6378H159.527C160.632 18.6378 161.527 19.5332 161.527 20.6378V24.8858C161.527 25.4381 161.08 25.8858 160.527 25.8858H158.386C157.833 25.8858 157.386 25.4381 157.386 24.8858V22.7441Z" fill="url(#paint20_radial_692_246)"/>
<path d="M131.666 33.0631C139.604 29.9513 147.754 12.4066 157.386 13.4606C144.412 19.2326 143.16 31.4785 131.666 33.0631Z" fill="url(#paint21_radial_692_246)"/>
<path d="M124.252 30.0276C129.594 21.6827 129.718 16.9143 125.287 8.28346C130.716 9.71409 138.453 19.5114 124.252 30.0276Z" fill="url(#paint22_radial_692_246)"/>
<path d="M118.039 10.3543C122.976 14.0549 125.673 23.2793 118.039 32.0984C129.749 25.6888 126.286 12.7713 118.039 0V10.3543Z" fill="url(#paint23_radial_692_246)"/>
<defs>
<radialGradient id="paint0_radial_692_246" cx="0" cy="0" r="1" gradientUnits="userSpaceOnUse" gradientTransform="translate(79.7285 111.309) scale(38.311 20.1909)">
<stop stop-color="#E1E1E1"/>
<stop offset="1" stop-color="#FFF4DA"/>
</radialGradient>
<radialGradient id="paint1_radial_692_246" cx="0" cy="0" r="1" gradientUnits="userSpaceOnUse" gradientTransform="translate(79.7285 111.309) scale(38.311 20.1909)">
<stop stop-color="#E1E1E1"/>
<stop offset="1" stop-color="#FFF4DA"/>
</radialGradient>
<radialGradient id="paint2_radial_692_246" cx="0" cy="0" r="1" gradientUnits="userSpaceOnUse" gradientTransform="translate(79.7285 111.309) scale(38.311 20.1909)">
<stop stop-color="#E1E1E1"/>
<stop offset="1" stop-color="#FFF4DA"/>
</radialGradient>
<radialGradient id="paint3_radial_692_246" cx="0" cy="0" r="1" gradientUnits="userSpaceOnUse" gradientTransform="translate(79.7285 111.309) scale(38.311 20.1909)">
<stop stop-color="#E1E1E1"/>
<stop offset="1" stop-color="#FFF4DA"/>
</radialGradient>
<radialGradient id="paint4_radial_692_246" cx="0" cy="0" r="1" gradientUnits="userSpaceOnUse" gradientTransform="translate(156.351 111.309) rotate(180) scale(38.311 20.1909)">
<stop stop-color="#E1E1E1"/>
<stop offset="1" stop-color="#FFF4DA"/>
</radialGradient>
<radialGradient id="paint5_radial_692_246" cx="0" cy="0" r="1" gradientUnits="userSpaceOnUse" gradientTransform="translate(156.351 111.309) rotate(180) scale(38.311 20.1909)">
<stop stop-color="#E1E1E1"/>
<stop offset="1" stop-color="#FFF4DA"/>
</radialGradient>
<radialGradient id="paint6_radial_692_246" cx="0" cy="0" r="1" gradientUnits="userSpaceOnUse" gradientTransform="translate(156.351 111.309) rotate(180) scale(38.311 20.1909)">
<stop stop-color="#E1E1E1"/>
<stop offset="1" stop-color="#FFF4DA"/>
</radialGradient>
<radialGradient id="paint7_radial_692_246" cx="0" cy="0" r="1" gradientUnits="userSpaceOnUse" gradientTransform="translate(156.351 111.309) rotate(180) scale(38.311 20.1909)">
<stop stop-color="#E1E1E1"/>
<stop offset="1" stop-color="#FFF4DA"/>
</radialGradient>
<radialGradient id="paint8_radial_692_246" cx="0" cy="0" r="1" gradientUnits="userSpaceOnUse" gradientTransform="translate(59.0197 17.6024) scale(59.0197 17.6024)">
<stop stop-color="#E1E1E1"/>
<stop offset="1" stop-color="#FFF4DA"/>
</radialGradient>
<radialGradient id="paint9_radial_692_246" cx="0" cy="0" r="1" gradientUnits="userSpaceOnUse" gradientTransform="translate(59.0197 17.6024) scale(59.0197 17.6024)">
<stop stop-color="#E1E1E1"/>
<stop offset="1" stop-color="#FFF4DA"/>
</radialGradient>
<radialGradient id="paint10_radial_692_246" cx="0" cy="0" r="1" gradientUnits="userSpaceOnUse" gradientTransform="translate(59.0197 17.6024) scale(59.0197 17.6024)">
<stop stop-color="#E1E1E1"/>
<stop offset="1" stop-color="#FFF4DA"/>
</radialGradient>
<radialGradient id="paint11_radial_692_246" cx="0" cy="0" r="1" gradientUnits="userSpaceOnUse" gradientTransform="translate(59.0197 17.6024) scale(59.0197 17.6024)">
<stop stop-color="#E1E1E1"/>
<stop offset="1" stop-color="#FFF4DA"/>
</radialGradient>
<radialGradient id="paint12_radial_692_246" cx="0" cy="0" r="1" gradientUnits="userSpaceOnUse" gradientTransform="translate(59.0197 17.6024) scale(59.0197 17.6024)">
<stop stop-color="#E1E1E1"/>
<stop offset="1" stop-color="#FFF4DA"/>
</radialGradient>
<radialGradient id="paint13_radial_692_246" cx="0" cy="0" r="1" gradientUnits="userSpaceOnUse" gradientTransform="translate(59.0197 17.6024) scale(59.0197 17.6024)">
<stop stop-color="#E1E1E1"/>
<stop offset="1" stop-color="#FFF4DA"/>
</radialGradient>
<radialGradient id="paint14_radial_692_246" cx="0" cy="0" r="1" gradientUnits="userSpaceOnUse" gradientTransform="translate(59.0197 17.6024) scale(59.0197 17.6024)">
<stop stop-color="#E1E1E1"/>
<stop offset="1" stop-color="#FFF4DA"/>
</radialGradient>
<radialGradient id="paint15_radial_692_246" cx="0" cy="0" r="1" gradientUnits="userSpaceOnUse" gradientTransform="translate(59.0197 17.6024) scale(59.0197 17.6024)">
<stop stop-color="#E1E1E1"/>
<stop offset="1" stop-color="#FFF4DA"/>
</radialGradient>
<radialGradient id="paint16_radial_692_246" cx="0" cy="0" r="1" gradientUnits="userSpaceOnUse" gradientTransform="translate(177.059 17.6024) rotate(180) scale(59.0197 17.6024)">
<stop stop-color="#E1E1E1"/>
<stop offset="1" stop-color="#FFF4DA"/>
</radialGradient>
<radialGradient id="paint17_radial_692_246" cx="0" cy="0" r="1" gradientUnits="userSpaceOnUse" gradientTransform="translate(177.059 17.6024) rotate(180) scale(59.0197 17.6024)">
<stop stop-color="#E1E1E1"/>
<stop offset="1" stop-color="#FFF4DA"/>
</radialGradient>
<radialGradient id="paint18_radial_692_246" cx="0" cy="0" r="1" gradientUnits="userSpaceOnUse" gradientTransform="translate(177.059 17.6024) rotate(180) scale(59.0197 17.6024)">
<stop stop-color="#E1E1E1"/>
<stop offset="1" stop-color="#FFF4DA"/>
</radialGradient>
<radialGradient id="paint19_radial_692_246" cx="0" cy="0" r="1" gradientUnits="userSpaceOnUse" gradientTransform="translate(177.059 17.6024) rotate(180) scale(59.0197 17.6024)">
<stop stop-color="#E1E1E1"/>
<stop offset="1" stop-color="#FFF4DA"/>
</radialGradient>
<radialGradient id="paint20_radial_692_246" cx="0" cy="0" r="1" gradientUnits="userSpaceOnUse" gradientTransform="translate(177.059 17.6024) rotate(180) scale(59.0197 17.6024)">
<stop stop-color="#E1E1E1"/>
<stop offset="1" stop-color="#FFF4DA"/>
</radialGradient>
<radialGradient id="paint21_radial_692_246" cx="0" cy="0" r="1" gradientUnits="userSpaceOnUse" gradientTransform="translate(177.059 17.6024) rotate(180) scale(59.0197 17.6024)">
<stop stop-color="#E1E1E1"/>
<stop offset="1" stop-color="#FFF4DA"/>
</radialGradient>
<radialGradient id="paint22_radial_692_246" cx="0" cy="0" r="1" gradientUnits="userSpaceOnUse" gradientTransform="translate(177.059 17.6024) rotate(180) scale(59.0197 17.6024)">
<stop stop-color="#E1E1E1"/>
<stop offset="1" stop-color="#FFF4DA"/>
</radialGradient>
<radialGradient id="paint23_radial_692_246" cx="0" cy="0" r="1" gradientUnits="userSpaceOnUse" gradientTransform="translate(177.059 17.6024) rotate(180) scale(59.0197 17.6024)">
<stop stop-color="#E1E1E1"/>
<stop offset="1" stop-color="#FFF4DA"/>
</radialGradient>
</defs>
</svg>
