<svg width="237" height="132" viewBox="0 0 237 132" fill="none" xmlns="http://www.w3.org/2000/svg">
<path d="M50.7125 108.06C49.3889 108.487 47.9214 108.504 46.7169 107.809C44.5794 106.575 44.1412 105.154 44.5234 102.508V102.508C42.8798 103.056 42.063 104.953 43.0339 106.388C43.9977 107.812 45.0937 108.974 46.6267 110.246C47.9171 111.316 49.5696 111.855 51.2458 111.812C56.4406 111.679 59.0349 110.851 62.1257 108.72C61.1051 110.641 61.1618 111.76 61.9885 113.6C62.0605 113.76 62.2568 113.822 62.4077 113.731C64.0825 112.73 65.0039 111.892 66.2674 109.756C66.2154 114.032 66.9843 113.977 70.4091 114.933C67.5194 110.86 68.0525 109.221 70.1981 106.254C70.9958 105.151 72.1259 104.331 73.4053 103.866L78.5776 101.985C81.3342 100.982 84.3487 100.942 87.1313 101.869L104.173 107.55C104.307 107.435 104.442 107.326 104.578 107.223V104.508C104.578 103.403 105.474 102.508 106.578 102.508H108.791C109.896 102.508 110.791 103.403 110.791 104.508V105.614H111.826V103.472C111.826 102.368 110.931 101.472 109.826 101.472H105.543C104.438 101.472 103.543 102.368 103.543 103.472V106.65C98.7736 103.748 93.5321 101.584 86.7257 99.7769C82.8456 98.747 78.7534 99.0145 74.9328 100.247L50.7125 108.06Z" fill="url(#paint0_radial_692_1552)"/>
<path fill-rule="evenodd" clip-rule="evenodd" d="M118.039 111.827V108.721C115.458 105.74 114.163 105.799 111.826 105.614H110.791C108.063 105.589 106.222 105.979 104.578 107.223V107.685L104.173 107.55C103.27 108.327 102.409 109.382 101.472 110.791C94.4225 108.167 92.2419 105.859 84.6304 104.117C82.7927 103.696 80.8379 103.854 79.1733 104.739C77.1406 105.82 75.7478 107.075 74.4004 109.235C73.7976 110.201 73.7049 111.42 74.2146 112.438C75.0495 114.107 76.2498 115.417 79.1376 117.128C80.1186 117.709 81.3505 117.62 82.2784 116.957L86.28 114.099C87.2184 113.429 87.4128 112.09 86.6211 111.251C84.8302 109.354 83.7227 109.09 81.7989 109.756C83.0242 110.067 83.7473 110.456 84.396 111.688C84.7596 112.378 84.5518 113.216 84 113.767L82.2754 115.492C81.3706 116.397 79.9663 116.664 78.9055 115.948C77.3915 114.927 76.4781 113.802 75.4876 112.283C74.8937 111.372 74.8539 110.185 75.48 109.296C77.188 106.871 79.0763 106.022 82.8343 105.614C87.5138 105.758 93.9734 109.592 101.472 112.862C101.61 115.305 101.827 117.608 105.43 119.531C106.15 119.915 107.027 119.733 107.604 119.156L110.252 116.508C110.55 116.21 110.55 115.727 110.252 115.429V115.429C109.971 115.149 109.521 115.134 109.21 115.381C104.882 118.812 103.349 117.017 102.508 112.862C108.784 113.743 111.6 112.063 112.862 106.65H114.933L118.039 111.827ZM102.508 111.827C105.324 107.593 107.416 106.549 111.826 106.65C109.581 111.782 107.623 113.001 102.508 111.827Z" fill="url(#paint1_radial_692_1552)"/>
<path d="M118.039 114.933V111.827C116.112 115.763 116.189 118.074 110.791 119.075C111.96 121.038 112.806 121.636 114.933 121.146C115.324 125.201 115.717 127.472 118.039 131.5V125.287C116.703 121.107 116.952 118.865 118.039 114.933Z" fill="url(#paint2_radial_692_1552)"/>
<path d="M115.968 98.3662C116.06 94.792 116.696 93.3936 118.039 91.1182V105.614C115.722 100.811 114.342 99.4138 111.826 99.4015C113.364 97.8121 114.276 97.3638 115.968 98.3662Z" fill="url(#paint3_radial_692_1552)"/>
<path d="M185.366 108.06C186.689 108.487 188.157 108.504 189.361 107.809C191.499 106.575 191.937 105.154 191.555 102.508V102.508C193.198 103.056 194.015 104.953 193.044 106.388C192.08 107.812 190.984 108.974 189.451 110.246C188.161 111.316 186.509 111.855 184.832 111.812C179.637 111.679 177.043 110.851 173.952 108.72C174.973 110.641 174.916 111.76 174.09 113.6C174.018 113.76 173.821 113.822 173.67 113.731C171.996 112.73 171.074 111.892 169.811 109.756C169.863 114.032 169.094 113.977 165.669 114.933C168.559 110.86 168.026 109.221 165.88 106.254C165.082 105.151 163.952 104.331 162.673 103.866L157.5 101.985C154.744 100.982 151.729 100.942 148.947 101.869L131.905 107.55C131.771 107.435 131.636 107.326 131.5 107.223V104.508C131.5 103.403 130.604 102.508 129.5 102.508H127.287C126.183 102.508 125.287 103.403 125.287 104.508V105.614H124.252V103.472C124.252 102.368 125.147 101.472 126.252 101.472H130.535C131.64 101.472 132.535 102.368 132.535 103.472V106.65C137.304 103.748 142.546 101.584 149.352 99.7769C153.232 98.747 157.325 99.0145 161.145 100.247L185.366 108.06Z" fill="url(#paint4_radial_692_1552)"/>
<path fill-rule="evenodd" clip-rule="evenodd" d="M118.039 111.827V108.721C120.62 105.74 121.915 105.799 124.252 105.614H125.287C128.015 105.589 129.856 105.979 131.5 107.223V107.685L131.905 107.55C132.808 108.327 133.669 109.382 134.606 110.791C141.656 108.167 143.836 105.859 151.448 104.117C153.285 103.696 155.24 103.854 156.905 104.739C158.938 105.82 160.33 107.075 161.678 109.235C162.281 110.201 162.373 111.42 161.863 112.438C161.029 114.107 159.828 115.417 156.941 117.128C155.96 117.709 154.728 117.62 153.8 116.957L149.798 114.099C148.86 113.429 148.665 112.09 149.457 111.251C151.248 109.354 152.355 109.09 154.279 109.756C153.054 110.067 152.331 110.456 151.682 111.688C151.319 112.378 151.526 113.216 152.078 113.767L153.803 115.492C154.708 116.397 156.112 116.664 157.173 115.948C158.687 114.927 159.6 113.802 160.591 112.283C161.184 111.372 161.224 110.185 160.598 109.296C158.89 106.871 157.002 106.022 153.244 105.614C148.564 105.758 142.105 109.592 134.606 112.862C134.468 115.305 134.251 117.608 130.648 119.531C129.928 119.915 129.051 119.733 128.474 119.156L125.826 116.508C125.528 116.21 125.528 115.727 125.826 115.429V115.429C126.107 115.149 126.557 115.134 126.868 115.381C131.196 118.812 132.729 117.017 133.571 112.862C127.294 113.743 124.478 112.063 123.216 106.65H121.145L118.039 111.827ZM133.571 111.827C130.754 107.593 128.662 106.549 124.252 106.65C126.497 111.782 128.455 113.001 133.571 111.827Z" fill="url(#paint5_radial_692_1552)"/>
<path d="M118.039 114.933V111.827C119.967 115.763 119.889 118.074 125.287 119.075C124.119 121.038 123.273 121.636 121.145 121.146C120.754 125.201 120.361 127.472 118.039 131.5V125.287C119.375 121.107 119.126 118.865 118.039 114.933Z" fill="url(#paint6_radial_692_1552)"/>
<path d="M120.11 98.3662C120.019 94.792 119.382 93.3936 118.039 91.1182V105.614C120.356 100.811 121.736 99.4138 124.252 99.4015C122.714 97.8121 121.802 97.3638 120.11 98.3662Z" fill="url(#paint7_radial_692_1552)"/>
<path d="M85.4844 46.9844C85.7708 46.9844 87.5469 46.8984 90.8125 46.7266V46.9414C90.8125 47.5716 90.7122 47.8867 90.5117 47.8867C90.2253 47.8867 89.8672 47.9583 89.4375 48.1016C89.0078 48.2305 88.6283 48.431 88.2988 48.7031C87.9694 48.9609 87.8047 49.2904 87.8047 49.6914C87.8047 49.9492 87.862 50.2643 87.9766 50.6367L90.9414 59.7461C91.1276 59.5026 91.3854 59.1732 91.7148 58.7578C92.0443 58.3281 92.4382 57.8125 92.8965 57.2109C93.3548 56.6094 93.763 56.0723 94.1211 55.5996C94.4935 55.127 94.8014 54.7259 95.0449 54.3965C95.2884 54.0671 95.5534 53.709 95.8398 53.3223C96.1263 52.9355 96.4271 52.5273 96.7422 52.0977C97.2005 51.4674 97.6159 50.8659 97.9883 50.293C98.3607 49.7201 98.5469 49.362 98.5469 49.2188C98.5182 48.8464 98.2103 48.5312 97.623 48.2734C97.0358 48.0156 96.4557 47.8867 95.8828 47.8867C95.8255 47.8867 95.7969 47.8008 95.7969 47.6289C95.7969 47.1849 95.8971 46.8841 96.0977 46.7266C96.3268 46.7266 96.8997 46.7695 97.8164 46.8555C98.7474 46.9414 99.4922 46.9844 100.051 46.9844C100.194 46.9844 101.898 46.8984 105.164 46.7266C105.193 46.8125 105.207 46.8841 105.207 46.9414C105.207 47.5716 105.107 47.8867 104.906 47.8867C104.72 47.8867 104.391 47.9512 103.918 48.0801C103.445 48.209 102.965 48.3737 102.479 48.5742C102.006 48.7747 101.655 48.9896 101.426 49.2188C101.311 49.3333 100.996 49.7272 100.48 50.4004C99.9648 51.0736 99.3275 51.9043 98.5684 52.8926C97.8236 53.8809 97.043 54.9264 96.2266 56.0293C95.4245 57.1178 94.6654 58.1562 93.9492 59.1445C93.2474 60.1328 92.6673 60.9564 92.209 61.6152C91.7507 62.2741 91.5143 62.6536 91.5 62.7539L90.2969 69.0273C89.9818 70.5599 89.8242 71.849 89.8242 72.8945C89.8242 73.1237 90.0176 73.3314 90.4043 73.5176C90.791 73.7038 91.1849 73.8255 91.5859 73.8828L92.1445 73.9688C92.2018 73.9688 92.2305 74.026 92.2305 74.1406C92.2305 74.4557 92.1445 74.7852 91.9727 75.1289C90.6406 75.0573 89.6022 75.0072 88.8574 74.9785C88.1126 74.9355 87.6615 74.9141 87.5039 74.9141C87.4609 74.9141 87.0384 74.9355 86.2363 74.9785C85.4486 75.0072 84.2812 75.0573 82.7344 75.1289C82.7057 75.1003 82.6914 75 82.6914 74.8281C82.6914 74.2552 82.7917 73.9688 82.9922 73.9688C83.207 73.9688 83.515 73.9258 83.916 73.8398C84.3171 73.7396 84.6966 73.6178 85.0547 73.4746C85.4271 73.3171 85.6562 73.1667 85.7422 73.0234C86.1003 72.4076 86.4583 71.1185 86.8164 69.1562L87.9336 63.0547C87.9622 62.9401 87.6758 61.9303 87.0742 60.0254C86.7734 59.0658 86.4655 58.1204 86.1504 57.1895C85.8496 56.2441 85.5417 55.306 85.2266 54.375L84.3242 51.582C83.8945 50.2643 83.3359 49.3477 82.6484 48.832C82.362 48.6315 81.9466 48.4238 81.4023 48.209C80.8581 47.9941 80.4714 47.8867 80.2422 47.8867C80.1849 47.8867 80.1562 47.8151 80.1562 47.6719C80.1562 47.1992 80.2565 46.8841 80.457 46.7266C80.6862 46.7409 81.1016 46.7695 81.7031 46.8125C82.3047 46.8555 82.9564 46.8984 83.6582 46.9414C84.36 46.9701 84.9688 46.9844 85.4844 46.9844ZM109.762 56.3086C111.452 56.3086 112.762 56.8958 113.693 58.0703C114.624 59.2448 115.09 60.8633 115.09 62.9258C115.09 64.401 114.803 65.8691 114.23 67.3301C113.658 68.7767 112.906 70.0944 111.975 71.2832C111.044 72.472 110.02 73.4245 108.902 74.1406C107.785 74.8568 106.682 75.2148 105.594 75.2148C103.875 75.2148 102.564 74.6562 101.662 73.5391C100.76 72.4219 100.309 70.832 100.309 68.7695C100.309 67.2799 100.588 65.8047 101.146 64.3438C101.719 62.8685 102.471 61.5293 103.402 60.3262C104.333 59.1087 105.35 58.1348 106.453 57.4043C107.57 56.6738 108.673 56.3086 109.762 56.3086ZM109.246 58.0703C108.53 58.0703 107.835 58.3854 107.162 59.0156C106.489 59.6315 105.88 60.4408 105.336 61.4434C104.792 62.446 104.362 63.5417 104.047 64.7305C103.732 65.9193 103.574 67.0794 103.574 68.2109C103.574 69.8724 103.839 71.1615 104.369 72.0781C104.899 72.9948 105.565 73.4531 106.367 73.4531C107.083 73.4531 107.764 73.1452 108.408 72.5293C109.067 71.8991 109.654 71.0827 110.17 70.0801C110.686 69.0632 111.087 67.9603 111.373 66.7715C111.674 65.5827 111.824 64.4154 111.824 63.2695C111.824 61.5794 111.595 60.2904 111.137 59.4023C110.678 58.5143 110.048 58.0703 109.246 58.0703ZM126.305 56.1797C127.938 56.1797 129.227 56.724 130.172 57.8125C130.315 58.1419 130.387 58.4427 130.387 58.7148C130.387 59.2305 130.251 59.6745 129.979 60.0469C129.706 60.4193 129.355 60.6055 128.926 60.6055C128.539 60.6055 128.181 60.3978 127.852 59.9824C127.536 59.5671 127.143 59.1445 126.67 58.7148C126.197 58.2852 125.574 58.0703 124.801 58.0703C124.199 58.0703 123.727 58.2708 123.383 58.6719C123.039 59.0729 122.867 59.5312 122.867 60.0469C122.867 60.7917 123.146 61.5866 123.705 62.4316C124.264 63.2767 124.872 64.0286 125.531 64.6875C126.19 65.3464 126.799 66.1484 127.357 67.0938C127.916 68.0391 128.195 68.9987 128.195 69.9727C128.195 71.5482 127.622 72.8229 126.477 73.7969C125.331 74.7708 123.855 75.2578 122.051 75.2578C120.418 75.2578 119.129 74.7135 118.184 73.625C118.04 73.3958 117.969 73.1237 117.969 72.8086C117.969 72.293 118.105 71.8346 118.377 71.4336C118.649 71.0326 119 70.832 119.43 70.832C119.816 70.832 120.174 71.0397 120.504 71.4551C120.819 71.8704 121.213 72.293 121.686 72.7227C122.158 73.1523 122.781 73.3672 123.555 73.3672C124.185 73.3672 124.693 73.1595 125.08 72.7441C125.467 72.3288 125.66 71.8776 125.66 71.3906C125.66 70.6458 125.381 69.8509 124.822 69.0059C124.264 68.1608 123.655 67.4089 122.996 66.75C122.337 66.0911 121.729 65.2891 121.17 64.3438C120.611 63.3984 120.332 62.4388 120.332 61.4648C120.332 60.6628 120.597 59.8535 121.127 59.0371C121.657 58.2207 122.373 57.5404 123.275 56.9961C124.178 56.4518 125.188 56.1797 126.305 56.1797ZM139.023 47.2422C139.453 47.2422 139.818 47.4141 140.119 47.7578C140.42 48.1016 140.57 48.5026 140.57 48.9609C140.57 49.6484 140.348 50.25 139.904 50.7656C139.46 51.2812 138.909 51.5391 138.25 51.5391C137.792 51.5391 137.434 51.36 137.176 51.002C136.918 50.6439 136.789 50.207 136.789 49.6914C136.789 49.0326 137.004 48.4596 137.434 47.9727C137.863 47.4857 138.393 47.2422 139.023 47.2422ZM137.777 56.3086C138.236 56.3086 138.594 56.5163 138.852 56.9316C139.109 57.347 139.238 57.8841 139.238 58.543C139.238 59.1302 139.152 59.8893 138.98 60.8203L137.09 70.4453C137.004 70.7891 136.961 71.1471 136.961 71.5195C136.961 72.2357 137.104 72.5938 137.391 72.5938C137.749 72.5938 138.178 72.3431 138.68 71.8418C139.181 71.3262 139.611 70.8893 139.969 70.5312L140.227 70.2305C140.284 70.2305 140.391 70.3665 140.549 70.6387C140.706 70.9108 140.785 71.1042 140.785 71.2188C140.542 71.6341 140.098 72.1641 139.453 72.8086C138.823 73.4531 138.135 74.026 137.391 74.5273C136.646 75.0143 135.973 75.2578 135.371 75.2578C134.913 75.2578 134.555 75.0501 134.297 74.6348C134.039 74.2194 133.91 73.6823 133.91 73.0234C133.91 72.5938 134.01 71.8346 134.211 70.7461L135.973 61.7656C136.116 60.9206 136.188 60.3477 136.188 60.0469C136.188 59.3307 136.044 58.9727 135.758 58.9727C135.586 58.9727 135.35 59.0872 135.049 59.3164C134.762 59.5456 134.483 59.8034 134.211 60.0898C133.939 60.362 133.738 60.5768 133.609 60.7344L133.395 60.9922C133.337 60.9922 133.23 60.8561 133.072 60.584C132.915 60.3118 132.836 60.1185 132.836 60.0039C133.065 59.6172 133.48 59.1374 134.082 58.5645C134.684 57.9772 135.328 57.4544 136.016 56.9961C136.703 56.5378 137.29 56.3086 137.777 56.3086ZM149.207 56.3086C149.665 56.3086 150.023 56.5163 150.281 56.9316C150.539 57.347 150.668 57.8841 150.668 58.543C150.668 59.1732 150.582 59.9323 150.41 60.8203L149.637 64.7734C149.909 64.2865 150.532 63.3984 151.506 62.1094C152.15 61.2643 152.895 60.3978 153.74 59.5098C154.6 58.6074 155.445 57.8483 156.275 57.2324C157.12 56.6165 157.829 56.3086 158.402 56.3086C159.835 56.3086 160.551 57.2539 160.551 59.1445C160.551 60.4766 160.35 62.0378 159.949 63.8281L158.531 70.4453C158.445 70.7891 158.402 71.1471 158.402 71.5195C158.402 72.2357 158.546 72.5938 158.832 72.5938C159.19 72.5938 159.62 72.3431 160.121 71.8418C160.622 71.3262 161.052 70.8893 161.41 70.5312L161.668 70.2305C161.725 70.2305 161.833 70.3665 161.99 70.6387C162.148 70.9108 162.227 71.1042 162.227 71.2188C161.983 71.6341 161.539 72.1641 160.895 72.8086C160.264 73.4531 159.577 74.026 158.832 74.5273C158.087 75.0143 157.414 75.2578 156.812 75.2578C156.354 75.2578 155.996 75.0501 155.738 74.6348C155.48 74.2194 155.352 73.6823 155.352 73.0234C155.352 72.5938 155.452 71.8346 155.652 70.7461L157.156 63.6562C157.357 62.6823 157.457 61.9089 157.457 61.3359C157.457 60.1042 157.185 59.4883 156.641 59.4883C156.168 59.4883 155.531 59.8464 154.729 60.5625C153.926 61.2643 153.089 62.2025 152.215 63.377C151.355 64.5514 150.575 65.862 149.873 67.3086C149.171 68.7409 148.677 70.1875 148.391 71.6484L147.66 75C147.273 75.1146 146.829 75.1719 146.328 75.1719C145.841 75.1719 145.354 75.1146 144.867 75L147.402 61.7656C147.546 60.7773 147.617 60.2044 147.617 60.0469C147.617 59.3307 147.474 58.9727 147.188 58.9727C146.944 58.9727 146.579 59.2018 146.092 59.6602C145.863 59.8893 145.612 60.14 145.34 60.4121C145.082 60.6842 144.91 60.8776 144.824 60.9922C144.767 60.9922 144.66 60.8561 144.502 60.584C144.344 60.3118 144.266 60.1185 144.266 60.0039C144.495 59.6172 144.91 59.1374 145.512 58.5645C146.113 57.9772 146.758 57.4544 147.445 56.9961C148.133 56.5378 148.72 56.3086 149.207 56.3086Z" fill="white"/>
<path d="M0 14.4961C6.30012 20.0984 15.0791 19.1979 30.687 15.1421C32.2497 14.736 33.9168 14.9601 35.3059 15.7832L61.0905 31.063L35.3304 19.6141C33.9205 18.9874 32.3183 18.9353 30.8588 19.4358C12.5496 25.7159 4.73674 24.7283 0 14.4961Z" fill="url(#paint8_radial_692_1552)"/>
<path d="M16.5669 25.8858C22.7094 27.5488 34.4861 19.1752 43.5027 24.2129C35.7991 20.3448 24.9274 34.7378 16.5669 25.8858Z" fill="url(#paint9_radial_692_1552)"/>
<path d="M42.4528 34.1693C40.4746 32.9379 39.8039 31.791 39.5364 30.2054C39.314 28.8871 40.2138 27.6374 41.514 27.3262C46.4064 26.1551 49.6595 27.3172 54.8779 31.063C50.3759 26.3362 46.8249 25.2844 39.6469 25.78C38.7972 25.8387 38.0191 26.2751 37.5081 26.9564L36.1669 28.7446C35.6047 29.4943 35.6307 30.5432 36.2784 31.2205C38.4425 33.4837 39.9798 34.1156 42.4528 34.1693Z" fill="url(#paint10_radial_692_1552)"/>
<path d="M61.0905 28.9921C48.8725 19.5072 53.131 18.6378 60.0551 10.3543C56.6285 8.93238 54.8937 8.83857 52.8071 12.4252C51.2879 8.29387 49.7783 6.42726 45.559 4.14173C43.8524 8.52031 44.6321 10.6991 46.5945 14.4961C42.9378 12.0347 40.7471 11.3823 36.2402 13.4606C46.3046 17.727 45.2926 18.8748 61.0905 28.9921Z" fill="url(#paint11_radial_692_1552)"/>
<path d="M78.6929 22.7441C78.6929 22.1918 79.1406 21.7441 79.6929 21.7441H79.7638C80.3161 21.7441 80.7638 22.1918 80.7638 22.7441V25.9213C80.7638 26.4735 80.3161 26.9213 79.7638 26.9213H74.4803C73.3757 26.9213 72.4803 26.0258 72.4803 24.9213V19.6024C72.4803 18.4978 73.3757 17.6024 74.4803 17.6024H78.7281C80.6137 17.6024 82.4755 18.023 84.178 18.8337V18.8337C85.2965 19.3663 86.1249 20.3629 86.4441 21.5599L88.3399 28.6695C89.2063 31.9182 86.6836 35.0788 83.3237 34.9544L68.0679 34.3894C64.7776 34.2675 62.2002 31.5169 62.2923 28.2256L62.6948 13.8426C62.7856 10.5955 65.4441 8.01038 68.6924 8.01038H83.0387C86.0229 8.01038 88.8896 9.21712 90.915 11.4088C101.807 23.194 109.097 33.3225 115.395 32.2299C115.685 32.1796 115.968 32.3916 115.968 32.686V32.686C115.968 32.9325 115.766 33.1318 115.519 33.1285C109.37 33.045 105.37 32.4313 87.653 13.254C86.5367 12.0456 85.0793 11.1983 83.4735 10.8414L77.8584 9.59364C77.0431 9.41248 76.199 9.4035 75.3801 9.56728L71.091 10.4251C68.2865 10.986 66.2677 13.4485 66.2677 16.3086V27.0984C66.2677 29.8599 68.5063 32.0984 71.2677 32.0984H80.9055C83.1146 32.0984 84.9055 30.3076 84.9055 28.0984V22.6378C84.9055 20.4287 83.1146 18.6378 80.9055 18.6378H76.5512C75.4466 18.6378 74.5512 19.5332 74.5512 20.6378V24.8858C74.5512 25.4381 74.9989 25.8858 75.5512 25.8858H77.6929C78.2452 25.8858 78.6929 25.4381 78.6929 24.8858V22.7441Z" fill="url(#paint12_radial_692_1552)"/>
<path d="M104.412 33.0631C96.4743 29.9513 88.3242 12.4066 78.6929 13.4606C91.6665 19.2326 92.9183 31.4785 104.412 33.0631Z" fill="url(#paint13_radial_692_1552)"/>
<path d="M111.827 30.0276C106.485 21.6827 106.361 16.9143 110.791 8.28346C105.363 9.71409 97.6256 19.5114 111.827 30.0276Z" fill="url(#paint14_radial_692_1552)"/>
<path d="M118.039 10.3543C113.102 14.0549 110.405 23.2793 118.039 32.0984C106.33 25.6888 109.793 12.7713 118.039 0V10.3543Z" fill="url(#paint15_radial_692_1552)"/>
<path d="M236.079 14.4961C229.779 20.0984 221 19.1979 205.392 15.1421C203.829 14.736 202.162 14.9601 200.773 15.7832L174.989 31.063L200.749 19.6141C202.159 18.9874 203.761 18.9353 205.22 19.4358C223.529 25.7159 231.342 24.7283 236.079 14.4961Z" fill="url(#paint16_radial_692_1552)"/>
<path d="M219.512 25.8858C213.37 27.5488 201.593 19.1752 192.576 24.2129C200.28 20.3448 211.152 34.7378 219.512 25.8858Z" fill="url(#paint17_radial_692_1552)"/>
<path d="M193.626 34.1693C195.605 32.9379 196.275 31.791 196.543 30.2054C196.765 28.8871 195.865 27.6374 194.565 27.3262C189.673 26.1551 186.42 27.3172 181.201 31.063C185.703 26.3362 189.254 25.2844 196.432 25.78C197.282 25.8387 198.06 26.2751 198.571 26.9564L199.912 28.7446C200.474 29.4943 200.448 30.5432 199.801 31.2205C197.637 33.4837 196.099 34.1156 193.626 34.1693Z" fill="url(#paint18_radial_692_1552)"/>
<path d="M174.989 28.9921C187.207 19.5072 182.948 18.6378 176.024 10.3543C179.451 8.93238 181.185 8.83857 183.272 12.4252C184.791 8.29387 186.301 6.42726 190.52 4.14173C192.227 8.52031 191.447 10.6991 189.485 14.4961C193.141 12.0347 195.332 11.3823 199.839 13.4606C189.775 17.727 190.787 18.8748 174.989 28.9921Z" fill="url(#paint19_radial_692_1552)"/>
<path d="M157.386 22.7441C157.386 22.1918 156.938 21.7441 156.386 21.7441H156.315C155.763 21.7441 155.315 22.1918 155.315 22.7441V25.9213C155.315 26.4735 155.763 26.9213 156.315 26.9213H161.599C162.703 26.9213 163.599 26.0258 163.599 24.9213V19.6024C163.599 18.4978 162.703 17.6024 161.599 17.6024H157.351C155.465 17.6024 153.604 18.023 151.901 18.8337V18.8337C150.783 19.3663 149.954 20.3629 149.635 21.5599L147.739 28.6695C146.873 31.9182 149.396 35.0788 152.755 34.9544L168.011 34.3894C171.301 34.2675 173.879 31.5169 173.787 28.2256L173.384 13.8426C173.293 10.5955 170.635 8.01038 167.387 8.01038H153.04C150.056 8.01038 147.19 9.21712 145.164 11.4088C134.273 23.194 126.982 33.3225 120.684 32.2299C120.394 32.1796 120.111 32.3916 120.111 32.686V32.686C120.111 32.9325 120.313 33.1318 120.56 33.1285C126.709 33.045 130.709 32.4313 148.426 13.254C149.542 12.0456 151 11.1983 152.606 10.8414L158.221 9.59364C159.036 9.41248 159.88 9.4035 160.699 9.56728L164.988 10.4251C167.793 10.986 169.811 13.4485 169.811 16.3086V27.0984C169.811 29.8599 167.573 32.0984 164.811 32.0984H155.174C152.964 32.0984 151.174 30.3076 151.174 28.0984V22.6378C151.174 20.4287 152.964 18.6378 155.174 18.6378H159.528C160.633 18.6378 161.528 19.5332 161.528 20.6378V24.8858C161.528 25.4381 161.08 25.8858 160.528 25.8858H158.386C157.834 25.8858 157.386 25.4381 157.386 24.8858V22.7441Z" fill="url(#paint20_radial_692_1552)"/>
<path d="M131.667 33.0631C139.605 29.9513 147.755 12.4066 157.386 13.4606C144.413 19.2326 143.161 31.4785 131.667 33.0631Z" fill="url(#paint21_radial_692_1552)"/>
<path d="M124.252 30.0276C129.594 21.6827 129.718 16.9143 125.288 8.28346C130.716 9.71409 138.454 19.5114 124.252 30.0276Z" fill="url(#paint22_radial_692_1552)"/>
<path d="M118.04 10.3543C122.977 14.0549 125.674 23.2793 118.04 32.0984C129.75 25.6888 126.286 12.7713 118.04 0V10.3543Z" fill="url(#paint23_radial_692_1552)"/>
<defs>
<radialGradient id="paint0_radial_692_1552" cx="0" cy="0" r="1" gradientUnits="userSpaceOnUse" gradientTransform="translate(79.728 111.309) scale(38.311 20.1909)">
<stop stop-color="#E1E1E1"/>
<stop offset="1" stop-color="#FFF4DA"/>
</radialGradient>
<radialGradient id="paint1_radial_692_1552" cx="0" cy="0" r="1" gradientUnits="userSpaceOnUse" gradientTransform="translate(79.728 111.309) scale(38.311 20.1909)">
<stop stop-color="#E1E1E1"/>
<stop offset="1" stop-color="#FFF4DA"/>
</radialGradient>
<radialGradient id="paint2_radial_692_1552" cx="0" cy="0" r="1" gradientUnits="userSpaceOnUse" gradientTransform="translate(79.728 111.309) scale(38.311 20.1909)">
<stop stop-color="#E1E1E1"/>
<stop offset="1" stop-color="#FFF4DA"/>
</radialGradient>
<radialGradient id="paint3_radial_692_1552" cx="0" cy="0" r="1" gradientUnits="userSpaceOnUse" gradientTransform="translate(79.728 111.309) scale(38.311 20.1909)">
<stop stop-color="#E1E1E1"/>
<stop offset="1" stop-color="#FFF4DA"/>
</radialGradient>
<radialGradient id="paint4_radial_692_1552" cx="0" cy="0" r="1" gradientUnits="userSpaceOnUse" gradientTransform="translate(156.35 111.309) rotate(180) scale(38.311 20.1909)">
<stop stop-color="#E1E1E1"/>
<stop offset="1" stop-color="#FFF4DA"/>
</radialGradient>
<radialGradient id="paint5_radial_692_1552" cx="0" cy="0" r="1" gradientUnits="userSpaceOnUse" gradientTransform="translate(156.35 111.309) rotate(180) scale(38.311 20.1909)">
<stop stop-color="#E1E1E1"/>
<stop offset="1" stop-color="#FFF4DA"/>
</radialGradient>
<radialGradient id="paint6_radial_692_1552" cx="0" cy="0" r="1" gradientUnits="userSpaceOnUse" gradientTransform="translate(156.35 111.309) rotate(180) scale(38.311 20.1909)">
<stop stop-color="#E1E1E1"/>
<stop offset="1" stop-color="#FFF4DA"/>
</radialGradient>
<radialGradient id="paint7_radial_692_1552" cx="0" cy="0" r="1" gradientUnits="userSpaceOnUse" gradientTransform="translate(156.35 111.309) rotate(180) scale(38.311 20.1909)">
<stop stop-color="#E1E1E1"/>
<stop offset="1" stop-color="#FFF4DA"/>
</radialGradient>
<radialGradient id="paint8_radial_692_1552" cx="0" cy="0" r="1" gradientUnits="userSpaceOnUse" gradientTransform="translate(59.0197 17.6024) scale(59.0197 17.6024)">
<stop stop-color="#E1E1E1"/>
<stop offset="1" stop-color="#FFF4DA"/>
</radialGradient>
<radialGradient id="paint9_radial_692_1552" cx="0" cy="0" r="1" gradientUnits="userSpaceOnUse" gradientTransform="translate(59.0197 17.6024) scale(59.0197 17.6024)">
<stop stop-color="#E1E1E1"/>
<stop offset="1" stop-color="#FFF4DA"/>
</radialGradient>
<radialGradient id="paint10_radial_692_1552" cx="0" cy="0" r="1" gradientUnits="userSpaceOnUse" gradientTransform="translate(59.0197 17.6024) scale(59.0197 17.6024)">
<stop stop-color="#E1E1E1"/>
<stop offset="1" stop-color="#FFF4DA"/>
</radialGradient>
<radialGradient id="paint11_radial_692_1552" cx="0" cy="0" r="1" gradientUnits="userSpaceOnUse" gradientTransform="translate(59.0197 17.6024) scale(59.0197 17.6024)">
<stop stop-color="#E1E1E1"/>
<stop offset="1" stop-color="#FFF4DA"/>
</radialGradient>
<radialGradient id="paint12_radial_692_1552" cx="0" cy="0" r="1" gradientUnits="userSpaceOnUse" gradientTransform="translate(59.0197 17.6024) scale(59.0197 17.6024)">
<stop stop-color="#E1E1E1"/>
<stop offset="1" stop-color="#FFF4DA"/>
</radialGradient>
<radialGradient id="paint13_radial_692_1552" cx="0" cy="0" r="1" gradientUnits="userSpaceOnUse" gradientTransform="translate(59.0197 17.6024) scale(59.0197 17.6024)">
<stop stop-color="#E1E1E1"/>
<stop offset="1" stop-color="#FFF4DA"/>
</radialGradient>
<radialGradient id="paint14_radial_692_1552" cx="0" cy="0" r="1" gradientUnits="userSpaceOnUse" gradientTransform="translate(59.0197 17.6024) scale(59.0197 17.6024)">
<stop stop-color="#E1E1E1"/>
<stop offset="1" stop-color="#FFF4DA"/>
</radialGradient>
<radialGradient id="paint15_radial_692_1552" cx="0" cy="0" r="1" gradientUnits="userSpaceOnUse" gradientTransform="translate(59.0197 17.6024) scale(59.0197 17.6024)">
<stop stop-color="#E1E1E1"/>
<stop offset="1" stop-color="#FFF4DA"/>
</radialGradient>
<radialGradient id="paint16_radial_692_1552" cx="0" cy="0" r="1" gradientUnits="userSpaceOnUse" gradientTransform="translate(177.059 17.6024) rotate(180) scale(59.0197 17.6024)">
<stop stop-color="#E1E1E1"/>
<stop offset="1" stop-color="#FFF4DA"/>
</radialGradient>
<radialGradient id="paint17_radial_692_1552" cx="0" cy="0" r="1" gradientUnits="userSpaceOnUse" gradientTransform="translate(177.059 17.6024) rotate(180) scale(59.0197 17.6024)">
<stop stop-color="#E1E1E1"/>
<stop offset="1" stop-color="#FFF4DA"/>
</radialGradient>
<radialGradient id="paint18_radial_692_1552" cx="0" cy="0" r="1" gradientUnits="userSpaceOnUse" gradientTransform="translate(177.059 17.6024) rotate(180) scale(59.0197 17.6024)">
<stop stop-color="#E1E1E1"/>
<stop offset="1" stop-color="#FFF4DA"/>
</radialGradient>
<radialGradient id="paint19_radial_692_1552" cx="0" cy="0" r="1" gradientUnits="userSpaceOnUse" gradientTransform="translate(177.059 17.6024) rotate(180) scale(59.0197 17.6024)">
<stop stop-color="#E1E1E1"/>
<stop offset="1" stop-color="#FFF4DA"/>
</radialGradient>
<radialGradient id="paint20_radial_692_1552" cx="0" cy="0" r="1" gradientUnits="userSpaceOnUse" gradientTransform="translate(177.059 17.6024) rotate(180) scale(59.0197 17.6024)">
<stop stop-color="#E1E1E1"/>
<stop offset="1" stop-color="#FFF4DA"/>
</radialGradient>
<radialGradient id="paint21_radial_692_1552" cx="0" cy="0" r="1" gradientUnits="userSpaceOnUse" gradientTransform="translate(177.059 17.6024) rotate(180) scale(59.0197 17.6024)">
<stop stop-color="#E1E1E1"/>
<stop offset="1" stop-color="#FFF4DA"/>
</radialGradient>
<radialGradient id="paint22_radial_692_1552" cx="0" cy="0" r="1" gradientUnits="userSpaceOnUse" gradientTransform="translate(177.059 17.6024) rotate(180) scale(59.0197 17.6024)">
<stop stop-color="#E1E1E1"/>
<stop offset="1" stop-color="#FFF4DA"/>
</radialGradient>
<radialGradient id="paint23_radial_692_1552" cx="0" cy="0" r="1" gradientUnits="userSpaceOnUse" gradientTransform="translate(177.059 17.6024) rotate(180) scale(59.0197 17.6024)">
<stop stop-color="#E1E1E1"/>
<stop offset="1" stop-color="#FFF4DA"/>
</radialGradient>
</defs>
</svg>
