<svg width="237" height="132" viewBox="0 0 237 132" fill="none" xmlns="http://www.w3.org/2000/svg">
<path d="M50.7125 108.06C49.3889 108.487 47.9214 108.504 46.7169 107.809C44.5794 106.575 44.1412 105.154 44.5234 102.508V102.508C42.8798 103.056 42.063 104.953 43.0339 106.388C43.9977 107.812 45.0937 108.974 46.6267 110.246C47.9171 111.316 49.5696 111.855 51.2458 111.812C56.4406 111.679 59.0349 110.851 62.1257 108.72C61.1051 110.641 61.1618 111.76 61.9885 113.6C62.0605 113.76 62.2568 113.822 62.4077 113.731C64.0825 112.73 65.0039 111.892 66.2674 109.756C66.2154 114.032 66.9843 113.977 70.4091 114.933C67.5194 110.86 68.0525 109.221 70.1981 106.254C70.9958 105.151 72.1259 104.331 73.4053 103.866L78.5776 101.985C81.3342 100.982 84.3487 100.942 87.1313 101.869L104.173 107.55C104.307 107.435 104.442 107.326 104.578 107.223V104.508C104.578 103.403 105.474 102.508 106.578 102.508H108.791C109.896 102.508 110.791 103.403 110.791 104.508V105.614H111.826V103.472C111.826 102.368 110.931 101.472 109.826 101.472H105.543C104.438 101.472 103.543 102.368 103.543 103.472V106.65C98.7736 103.748 93.5321 101.584 86.7257 99.7769C82.8456 98.747 78.7534 99.0145 74.9328 100.247L50.7125 108.06Z" fill="url(#paint0_radial_692_270)"/>
<path fill-rule="evenodd" clip-rule="evenodd" d="M118.039 111.827V108.721C115.458 105.74 114.163 105.799 111.826 105.614H110.791C108.063 105.589 106.222 105.979 104.578 107.223V107.685L104.173 107.55C103.27 108.327 102.409 109.382 101.472 110.791C94.4225 108.167 92.2419 105.859 84.6304 104.117C82.7927 103.696 80.8379 103.854 79.1733 104.739C77.1406 105.82 75.7478 107.075 74.4004 109.235C73.7976 110.201 73.7049 111.42 74.2146 112.438C75.0495 114.107 76.2498 115.417 79.1376 117.128C80.1186 117.709 81.3505 117.62 82.2784 116.957L86.28 114.099C87.2184 113.429 87.4128 112.09 86.6211 111.251C84.8302 109.354 83.7227 109.09 81.7989 109.756C83.0242 110.067 83.7473 110.456 84.396 111.688C84.7596 112.378 84.5518 113.216 84 113.767L82.2754 115.492C81.3706 116.397 79.9663 116.664 78.9055 115.948C77.3915 114.927 76.4781 113.802 75.4876 112.283C74.8937 111.372 74.8539 110.185 75.48 109.296C77.188 106.871 79.0763 106.022 82.8343 105.614C87.5138 105.758 93.9734 109.592 101.472 112.862C101.61 115.305 101.827 117.608 105.43 119.531C106.15 119.915 107.027 119.733 107.604 119.156L110.252 116.508C110.55 116.21 110.55 115.727 110.252 115.429V115.429C109.971 115.149 109.521 115.134 109.21 115.381C104.882 118.812 103.349 117.017 102.508 112.862C108.784 113.743 111.6 112.063 112.862 106.65H114.933L118.039 111.827ZM102.508 111.827C105.324 107.593 107.416 106.549 111.826 106.65C109.581 111.782 107.623 113.001 102.508 111.827Z" fill="url(#paint1_radial_692_270)"/>
<path d="M118.039 114.933V111.827C116.112 115.763 116.189 118.074 110.791 119.075C111.96 121.038 112.806 121.636 114.933 121.146C115.324 125.201 115.717 127.472 118.039 131.5V125.287C116.703 121.107 116.952 118.865 118.039 114.933Z" fill="url(#paint2_radial_692_270)"/>
<path d="M115.968 98.3662C116.06 94.792 116.696 93.3936 118.039 91.1182V105.614C115.722 100.811 114.342 99.4138 111.826 99.4015C113.364 97.8121 114.276 97.3638 115.968 98.3662Z" fill="url(#paint3_radial_692_270)"/>
<path d="M185.366 108.06C186.689 108.487 188.157 108.504 189.361 107.809C191.499 106.575 191.937 105.154 191.555 102.508V102.508C193.198 103.056 194.015 104.953 193.044 106.388C192.08 107.812 190.984 108.974 189.451 110.246C188.161 111.316 186.509 111.855 184.832 111.812C179.637 111.679 177.043 110.851 173.952 108.72C174.973 110.641 174.916 111.76 174.09 113.6C174.018 113.76 173.821 113.822 173.67 113.731C171.996 112.73 171.074 111.892 169.811 109.756C169.863 114.032 169.094 113.977 165.669 114.933C168.559 110.86 168.026 109.221 165.88 106.254C165.082 105.151 163.952 104.331 162.673 103.866L157.5 101.985C154.744 100.982 151.729 100.942 148.947 101.869L131.905 107.55C131.771 107.435 131.636 107.326 131.5 107.223V104.508C131.5 103.403 130.604 102.508 129.5 102.508H127.287C126.183 102.508 125.287 103.403 125.287 104.508V105.614H124.252V103.472C124.252 102.368 125.147 101.472 126.252 101.472H130.535C131.64 101.472 132.535 102.368 132.535 103.472V106.65C137.304 103.748 142.546 101.584 149.352 99.7769C153.232 98.747 157.325 99.0145 161.145 100.247L185.366 108.06Z" fill="url(#paint4_radial_692_270)"/>
<path fill-rule="evenodd" clip-rule="evenodd" d="M118.039 111.827V108.721C120.62 105.74 121.915 105.799 124.252 105.614H125.287C128.015 105.589 129.856 105.979 131.5 107.223V107.685L131.905 107.55C132.808 108.327 133.669 109.382 134.606 110.791C141.656 108.167 143.836 105.859 151.448 104.117C153.285 103.696 155.24 103.854 156.905 104.739C158.938 105.82 160.33 107.075 161.678 109.235C162.281 110.201 162.373 111.42 161.863 112.438C161.029 114.107 159.828 115.417 156.941 117.128C155.96 117.709 154.728 117.62 153.8 116.957L149.798 114.099C148.86 113.429 148.665 112.09 149.457 111.251C151.248 109.354 152.355 109.09 154.279 109.756C153.054 110.067 152.331 110.456 151.682 111.688C151.319 112.378 151.526 113.216 152.078 113.767L153.803 115.492C154.708 116.397 156.112 116.664 157.173 115.948C158.687 114.927 159.6 113.802 160.591 112.283C161.184 111.372 161.224 110.185 160.598 109.296C158.89 106.871 157.002 106.022 153.244 105.614C148.564 105.758 142.105 109.592 134.606 112.862C134.468 115.305 134.251 117.608 130.648 119.531C129.928 119.915 129.051 119.733 128.474 119.156L125.826 116.508C125.528 116.21 125.528 115.727 125.826 115.429V115.429C126.107 115.149 126.557 115.134 126.868 115.381C131.196 118.812 132.729 117.017 133.571 112.862C127.294 113.743 124.478 112.063 123.216 106.65H121.145L118.039 111.827ZM133.571 111.827C130.754 107.593 128.662 106.549 124.252 106.65C126.497 111.782 128.455 113.001 133.571 111.827Z" fill="url(#paint5_radial_692_270)"/>
<path d="M118.039 114.933V111.827C119.967 115.763 119.889 118.074 125.287 119.075C124.119 121.038 123.273 121.636 121.145 121.146C120.754 125.201 120.361 127.472 118.039 131.5V125.287C119.375 121.107 119.126 118.865 118.039 114.933Z" fill="url(#paint6_radial_692_270)"/>
<path d="M120.11 98.3662C120.019 94.792 119.382 93.3936 118.039 91.1182V105.614C120.356 100.811 121.736 99.4138 124.252 99.4015C122.714 97.8121 121.802 97.3638 120.11 98.3662Z" fill="url(#paint7_radial_692_270)"/>
<path d="M82.4844 46.9844C82.7708 46.9844 84.5469 46.8984 87.8125 46.7266V46.9414C87.8125 47.5716 87.7122 47.8867 87.5117 47.8867C87.2253 47.8867 86.8672 47.9583 86.4375 48.1016C86.0078 48.2305 85.6283 48.431 85.2988 48.7031C84.9694 48.9609 84.8047 49.2904 84.8047 49.6914C84.8047 49.9492 84.862 50.2643 84.9766 50.6367L87.9414 59.7461C88.1276 59.5026 88.3854 59.1732 88.7148 58.7578C89.0443 58.3281 89.4382 57.8125 89.8965 57.2109C90.3548 56.6094 90.763 56.0723 91.1211 55.5996C91.4935 55.127 91.8014 54.7259 92.0449 54.3965C92.2884 54.0671 92.5534 53.709 92.8398 53.3223C93.1263 52.9355 93.4271 52.5273 93.7422 52.0977C94.2005 51.4674 94.6159 50.8659 94.9883 50.293C95.3607 49.7201 95.5469 49.362 95.5469 49.2188C95.5182 48.8464 95.2103 48.5312 94.623 48.2734C94.0358 48.0156 93.4557 47.8867 92.8828 47.8867C92.8255 47.8867 92.7969 47.8008 92.7969 47.6289C92.7969 47.1849 92.8971 46.8841 93.0977 46.7266C93.3268 46.7266 93.8997 46.7695 94.8164 46.8555C95.7474 46.9414 96.4922 46.9844 97.0508 46.9844C97.194 46.9844 98.8984 46.8984 102.164 46.7266C102.193 46.8125 102.207 46.8841 102.207 46.9414C102.207 47.5716 102.107 47.8867 101.906 47.8867C101.72 47.8867 101.391 47.9512 100.918 48.0801C100.445 48.209 99.9655 48.3737 99.4785 48.5742C99.0059 48.7747 98.6549 48.9896 98.4258 49.2188C98.3112 49.3333 97.9961 49.7272 97.4805 50.4004C96.9648 51.0736 96.3275 51.9043 95.5684 52.8926C94.8236 53.8809 94.043 54.9264 93.2266 56.0293C92.4245 57.1178 91.6654 58.1562 90.9492 59.1445C90.2474 60.1328 89.6673 60.9564 89.209 61.6152C88.7507 62.2741 88.5143 62.6536 88.5 62.7539L87.2969 69.0273C86.9818 70.5599 86.8242 71.849 86.8242 72.8945C86.8242 73.1237 87.0176 73.3314 87.4043 73.5176C87.791 73.7038 88.1849 73.8255 88.5859 73.8828L89.1445 73.9688C89.2018 73.9688 89.2305 74.026 89.2305 74.1406C89.2305 74.4557 89.1445 74.7852 88.9727 75.1289C87.6406 75.0573 86.6022 75.0072 85.8574 74.9785C85.1126 74.9355 84.6615 74.9141 84.5039 74.9141C84.4609 74.9141 84.0384 74.9355 83.2363 74.9785C82.4486 75.0072 81.2812 75.0573 79.7344 75.1289C79.7057 75.1003 79.6914 75 79.6914 74.8281C79.6914 74.2552 79.7917 73.9688 79.9922 73.9688C80.207 73.9688 80.515 73.9258 80.916 73.8398C81.3171 73.7396 81.6966 73.6178 82.0547 73.4746C82.4271 73.3171 82.6562 73.1667 82.7422 73.0234C83.1003 72.4076 83.4583 71.1185 83.8164 69.1562L84.9336 63.0547C84.9622 62.9401 84.6758 61.9303 84.0742 60.0254C83.7734 59.0658 83.4655 58.1204 83.1504 57.1895C82.8496 56.2441 82.5417 55.306 82.2266 54.375L81.3242 51.582C80.8945 50.2643 80.3359 49.3477 79.6484 48.832C79.362 48.6315 78.9466 48.4238 78.4023 48.209C77.8581 47.9941 77.4714 47.8867 77.2422 47.8867C77.1849 47.8867 77.1562 47.8151 77.1562 47.6719C77.1562 47.1992 77.2565 46.8841 77.457 46.7266C77.6862 46.7409 78.1016 46.7695 78.7031 46.8125C79.3047 46.8555 79.9564 46.8984 80.6582 46.9414C81.36 46.9701 81.9688 46.9844 82.4844 46.9844ZM105.645 56.3086C106.103 56.3086 106.461 56.5163 106.719 56.9316C106.977 57.347 107.105 57.8841 107.105 58.543C107.105 59.3021 107.02 60.0612 106.848 60.8203L105.344 67.9102C105.143 68.7839 105.043 69.5573 105.043 70.2305C105.043 71.4622 105.315 72.0781 105.859 72.0781C106.174 72.0781 106.561 71.8991 107.02 71.541C107.492 71.1829 107.979 70.7246 108.48 70.166C108.996 69.6074 109.476 69.0345 109.92 68.4473C110.736 67.373 111.51 66.0625 112.24 64.5156C112.971 62.9688 113.479 61.4362 113.766 59.918L114.496 56.5664C114.883 56.4518 115.327 56.3945 115.828 56.3945C116.315 56.3945 116.802 56.4518 117.289 56.5664L114.625 70.4453C114.539 70.7891 114.496 71.1471 114.496 71.5195C114.496 72.2357 114.639 72.5938 114.926 72.5938C115.284 72.5938 115.714 72.3431 116.215 71.8418C116.716 71.3262 117.146 70.8893 117.504 70.5312L117.762 70.2305C117.819 70.2305 117.926 70.3665 118.084 70.6387C118.242 70.9108 118.32 71.1042 118.32 71.2188C118.077 71.6341 117.633 72.1641 116.988 72.8086C116.358 73.4531 115.671 74.026 114.926 74.5273C114.181 75.0143 113.508 75.2578 112.906 75.2578C112.448 75.2578 112.09 75.0501 111.832 74.6348C111.574 74.2194 111.445 73.6823 111.445 73.0234C111.445 72.5938 111.546 71.8346 111.746 70.7461L112.52 66.793C112.247 67.3086 111.66 68.1966 110.758 69.457C110.171 70.2734 109.462 71.1328 108.631 72.0352C107.814 72.9375 106.998 73.7038 106.182 74.334C105.365 74.9499 104.671 75.2578 104.098 75.2578C102.665 75.2578 101.949 74.3125 101.949 72.4219C101.949 71.0755 102.15 69.5143 102.551 67.7383L103.84 61.7656C103.983 60.7773 104.055 60.2044 104.055 60.0469C104.055 59.3307 103.911 58.9727 103.625 58.9727C103.382 58.9727 103.016 59.2018 102.529 59.6602C102.3 59.8893 102.049 60.14 101.777 60.4121C101.52 60.6842 101.348 60.8776 101.262 60.9922C101.204 60.9922 101.097 60.8561 100.939 60.584C100.782 60.3118 100.703 60.1185 100.703 60.0039C100.932 59.6172 101.348 59.1374 101.949 58.5645C102.551 57.9772 103.195 57.4544 103.883 56.9961C104.57 56.5378 105.158 56.3086 105.645 56.3086ZM128.977 56.1797C130.609 56.1797 131.898 56.724 132.844 57.8125C132.987 58.1419 133.059 58.4427 133.059 58.7148C133.059 59.2305 132.923 59.6745 132.65 60.0469C132.378 60.4193 132.027 60.6055 131.598 60.6055C131.211 60.6055 130.853 60.3978 130.523 59.9824C130.208 59.5671 129.814 59.1445 129.342 58.7148C128.869 58.2852 128.246 58.0703 127.473 58.0703C126.871 58.0703 126.398 58.2708 126.055 58.6719C125.711 59.0729 125.539 59.5312 125.539 60.0469C125.539 60.7917 125.818 61.5866 126.377 62.4316C126.936 63.2767 127.544 64.0286 128.203 64.6875C128.862 65.3464 129.471 66.1484 130.029 67.0938C130.588 68.0391 130.867 68.9987 130.867 69.9727C130.867 71.5482 130.294 72.8229 129.148 73.7969C128.003 74.7708 126.527 75.2578 124.723 75.2578C123.09 75.2578 121.801 74.7135 120.855 73.625C120.712 73.3958 120.641 73.1237 120.641 72.8086C120.641 72.293 120.777 71.8346 121.049 71.4336C121.321 71.0326 121.672 70.832 122.102 70.832C122.488 70.832 122.846 71.0397 123.176 71.4551C123.491 71.8704 123.885 72.293 124.357 72.7227C124.83 73.1523 125.453 73.3672 126.227 73.3672C126.857 73.3672 127.365 73.1595 127.752 72.7441C128.139 72.3288 128.332 71.8776 128.332 71.3906C128.332 70.6458 128.053 69.8509 127.494 69.0059C126.936 68.1608 126.327 67.4089 125.668 66.75C125.009 66.0911 124.4 65.2891 123.842 64.3438C123.283 63.3984 123.004 62.4388 123.004 61.4648C123.004 60.6628 123.269 59.8535 123.799 59.0371C124.329 58.2207 125.045 57.5404 125.947 56.9961C126.85 56.4518 127.859 56.1797 128.977 56.1797ZM139.676 56.3086C140.134 56.3086 140.492 56.5163 140.75 56.9316C141.008 57.347 141.137 57.8841 141.137 58.543C141.137 59.3021 141.051 60.0612 140.879 60.8203L139.375 67.9102C139.174 68.7839 139.074 69.5573 139.074 70.2305C139.074 71.4622 139.346 72.0781 139.891 72.0781C140.206 72.0781 140.592 71.8991 141.051 71.541C141.523 71.1829 142.01 70.7246 142.512 70.166C143.027 69.6074 143.507 69.0345 143.951 68.4473C144.768 67.373 145.541 66.0625 146.271 64.5156C147.002 62.9688 147.51 61.4362 147.797 59.918L148.527 56.5664C148.914 56.4518 149.358 56.3945 149.859 56.3945C150.346 56.3945 150.833 56.4518 151.32 56.5664L148.656 70.4453C148.57 70.7891 148.527 71.1471 148.527 71.5195C148.527 72.2357 148.671 72.5938 148.957 72.5938C149.315 72.5938 149.745 72.3431 150.246 71.8418C150.747 71.3262 151.177 70.8893 151.535 70.5312L151.793 70.2305C151.85 70.2305 151.958 70.3665 152.115 70.6387C152.273 70.9108 152.352 71.1042 152.352 71.2188C152.108 71.6341 151.664 72.1641 151.02 72.8086C150.389 73.4531 149.702 74.026 148.957 74.5273C148.212 75.0143 147.539 75.2578 146.938 75.2578C146.479 75.2578 146.121 75.0501 145.863 74.6348C145.605 74.2194 145.477 73.6823 145.477 73.0234C145.477 72.5938 145.577 71.8346 145.777 70.7461L146.551 66.793C146.279 67.3086 145.691 68.1966 144.789 69.457C144.202 70.2734 143.493 71.1328 142.662 72.0352C141.846 72.9375 141.029 73.7038 140.213 74.334C139.396 74.9499 138.702 75.2578 138.129 75.2578C136.697 75.2578 135.98 74.3125 135.98 72.4219C135.98 71.0755 136.181 69.5143 136.582 67.7383L137.871 61.7656C138.014 60.7773 138.086 60.2044 138.086 60.0469C138.086 59.3307 137.943 58.9727 137.656 58.9727C137.413 58.9727 137.048 59.2018 136.561 59.6602C136.331 59.8893 136.081 60.14 135.809 60.4121C135.551 60.6842 135.379 60.8776 135.293 60.9922C135.236 60.9922 135.128 60.8561 134.971 60.584C134.813 60.3118 134.734 60.1185 134.734 60.0039C134.964 59.6172 135.379 59.1374 135.98 58.5645C136.582 57.9772 137.227 57.4544 137.914 56.9961C138.602 56.5378 139.189 56.3086 139.676 56.3086ZM169.195 44.9648C171.029 44.9648 172.203 45.4518 172.719 46.4258C172.719 48.2878 172.203 49.2188 171.172 49.2188C170.714 49.2188 170.305 49.0039 169.947 48.5742C169.604 48.1302 169.253 47.6934 168.895 47.2637C168.551 46.8197 168.135 46.5977 167.648 46.5977C166.732 46.5977 165.758 47.5358 164.727 49.4121C163.71 51.2598 162.908 53.8737 162.32 57.2539V57.3398C162.32 57.4544 162.363 57.5117 162.449 57.5117H167.391C167.534 57.5117 167.605 57.6836 167.605 58.0273C167.605 58.5 167.448 58.987 167.133 59.4883H162.105C161.948 59.4883 161.862 59.6029 161.848 59.832L159.484 72.6797C158.797 76.6615 157.587 79.6979 155.854 81.7891C154.12 83.8802 152.237 84.9258 150.203 84.9258C149.201 84.9258 148.413 84.7467 147.84 84.3887C147.267 84.0306 146.895 83.6224 146.723 83.1641C146.694 82.5052 146.852 81.918 147.195 81.4023C147.539 80.8867 147.969 80.6289 148.484 80.6289C148.885 80.6289 149.236 80.8438 149.537 81.2734C149.824 81.7174 150.132 82.1543 150.461 82.584C150.776 83.028 151.177 83.25 151.664 83.25C152.237 83.25 152.774 82.9134 153.275 82.2402C153.791 81.5814 154.257 80.7578 154.672 79.7695C155.087 78.7812 155.431 77.793 155.703 76.8047C155.975 75.8164 156.161 75 156.262 74.3555L158.84 59.7891V59.7031C158.84 59.5599 158.797 59.4883 158.711 59.4883H155.918C155.861 59.4883 155.832 59.4453 155.832 59.3594C155.832 59.1875 155.939 58.9583 156.154 58.6719C156.369 58.3711 156.634 58.1061 156.949 57.877C157.279 57.6335 157.594 57.5117 157.895 57.5117H159.141C159.255 57.5117 159.341 57.3828 159.398 57.125C159.785 54.776 160.473 52.6849 161.461 50.8516C162.464 49.0182 163.638 47.5788 164.984 46.5332C166.345 45.4876 167.749 44.9648 169.195 44.9648Z" fill="white"/>
<path d="M0 14.4961C6.30012 20.0984 15.0791 19.1979 30.687 15.1421C32.2497 14.736 33.9168 14.9601 35.3059 15.7832L61.0905 31.063L35.3304 19.6141C33.9205 18.9874 32.3183 18.9353 30.8588 19.4358C12.5496 25.7159 4.73674 24.7283 0 14.4961Z" fill="url(#paint8_radial_692_270)"/>
<path d="M16.5669 25.8858C22.7094 27.5488 34.4861 19.1752 43.5027 24.2129C35.7991 20.3448 24.9274 34.7378 16.5669 25.8858Z" fill="url(#paint9_radial_692_270)"/>
<path d="M42.4528 34.1693C40.4746 32.9379 39.8039 31.791 39.5364 30.2054C39.314 28.8871 40.2138 27.6374 41.514 27.3262C46.4064 26.1551 49.6595 27.3172 54.8779 31.063C50.3759 26.3362 46.8249 25.2844 39.6469 25.78C38.7972 25.8387 38.0191 26.2751 37.5081 26.9564L36.1669 28.7446C35.6047 29.4943 35.6307 30.5432 36.2784 31.2205C38.4425 33.4837 39.9798 34.1156 42.4528 34.1693Z" fill="url(#paint10_radial_692_270)"/>
<path d="M61.0905 28.9921C48.8725 19.5072 53.131 18.6378 60.0551 10.3543C56.6285 8.93238 54.8937 8.83857 52.8071 12.4252C51.2879 8.29387 49.7783 6.42726 45.559 4.14173C43.8524 8.52031 44.6321 10.6991 46.5945 14.4961C42.9378 12.0347 40.7471 11.3823 36.2402 13.4606C46.3046 17.727 45.2926 18.8748 61.0905 28.9921Z" fill="url(#paint11_radial_692_270)"/>
<path d="M78.6929 22.7441C78.6929 22.1918 79.1406 21.7441 79.6929 21.7441H79.7638C80.3161 21.7441 80.7638 22.1918 80.7638 22.7441V25.9213C80.7638 26.4735 80.3161 26.9213 79.7638 26.9213H74.4803C73.3757 26.9213 72.4803 26.0258 72.4803 24.9213V19.6024C72.4803 18.4978 73.3757 17.6024 74.4803 17.6024H78.7281C80.6137 17.6024 82.4755 18.023 84.178 18.8337V18.8337C85.2965 19.3663 86.1249 20.3629 86.4441 21.5599L88.3399 28.6695C89.2063 31.9182 86.6836 35.0788 83.3237 34.9544L68.0679 34.3894C64.7776 34.2675 62.2002 31.5169 62.2923 28.2256L62.6948 13.8426C62.7856 10.5955 65.4441 8.01038 68.6924 8.01038H83.0387C86.0229 8.01038 88.8896 9.21712 90.915 11.4088C101.807 23.194 109.097 33.3225 115.395 32.2299C115.685 32.1796 115.968 32.3916 115.968 32.686V32.686C115.968 32.9325 115.766 33.1318 115.519 33.1285C109.37 33.045 105.37 32.4313 87.653 13.254C86.5367 12.0456 85.0793 11.1983 83.4735 10.8414L77.8584 9.59364C77.0431 9.41248 76.199 9.4035 75.3801 9.56728L71.091 10.4251C68.2865 10.986 66.2677 13.4485 66.2677 16.3086V27.0984C66.2677 29.8599 68.5063 32.0984 71.2677 32.0984H80.9055C83.1146 32.0984 84.9055 30.3076 84.9055 28.0984V22.6378C84.9055 20.4287 83.1146 18.6378 80.9055 18.6378H76.5512C75.4466 18.6378 74.5512 19.5332 74.5512 20.6378V24.8858C74.5512 25.4381 74.9989 25.8858 75.5512 25.8858H77.6929C78.2452 25.8858 78.6929 25.4381 78.6929 24.8858V22.7441Z" fill="url(#paint12_radial_692_270)"/>
<path d="M104.412 33.0631C96.4743 29.9513 88.3242 12.4066 78.6929 13.4606C91.6665 19.2326 92.9183 31.4785 104.412 33.0631Z" fill="url(#paint13_radial_692_270)"/>
<path d="M111.827 30.0276C106.485 21.6827 106.361 16.9143 110.791 8.28346C105.363 9.71409 97.6256 19.5114 111.827 30.0276Z" fill="url(#paint14_radial_692_270)"/>
<path d="M118.039 10.3543C113.102 14.0549 110.405 23.2793 118.039 32.0984C106.33 25.6888 109.793 12.7713 118.039 0V10.3543Z" fill="url(#paint15_radial_692_270)"/>
<path d="M236.079 14.4961C229.778 20.0984 221 19.1979 205.392 15.1421C203.829 14.736 202.162 14.9601 200.773 15.7832L174.988 31.063L200.748 19.6141C202.158 18.9874 203.76 18.9353 205.22 19.4358C223.529 25.7159 231.342 24.7283 236.079 14.4961Z" fill="url(#paint16_radial_692_270)"/>
<path d="M219.512 25.8858C213.369 27.5488 201.593 19.1752 192.576 24.2129C200.279 20.3448 211.151 34.7378 219.512 25.8858Z" fill="url(#paint17_radial_692_270)"/>
<path d="M193.626 34.1693C195.604 32.9379 196.275 31.791 196.542 30.2054C196.765 28.8871 195.865 27.6374 194.565 27.3262C189.672 26.1551 186.419 27.3172 181.201 31.063C185.703 26.3362 189.254 25.2844 196.432 25.78C197.281 25.8387 198.06 26.2751 198.571 26.9564L199.912 28.7446C200.474 29.4943 200.448 30.5432 199.8 31.2205C197.636 33.4837 196.099 34.1156 193.626 34.1693Z" fill="url(#paint18_radial_692_270)"/>
<path d="M174.988 28.9921C187.206 19.5072 182.948 18.6378 176.024 10.3543C179.45 8.93238 181.185 8.83857 183.272 12.4252C184.791 8.29387 186.3 6.42726 190.52 4.14173C192.226 8.52031 191.446 10.6991 189.484 14.4961C193.141 12.0347 195.331 11.3823 199.838 13.4606C189.774 17.727 190.786 18.8748 174.988 28.9921Z" fill="url(#paint19_radial_692_270)"/>
<path d="M157.386 22.7441C157.386 22.1918 156.938 21.7441 156.386 21.7441H156.315C155.763 21.7441 155.315 22.1918 155.315 22.7441V25.9213C155.315 26.4735 155.763 26.9213 156.315 26.9213H161.598C162.703 26.9213 163.598 26.0258 163.598 24.9213V19.6024C163.598 18.4978 162.703 17.6024 161.598 17.6024H157.351C155.465 17.6024 153.603 18.023 151.901 18.8337V18.8337C150.782 19.3663 149.954 20.3629 149.635 21.5599L147.739 28.6695C146.872 31.9182 149.395 35.0788 152.755 34.9544L168.011 34.3894C171.301 34.2675 173.878 31.5169 173.786 28.2256L173.384 13.8426C173.293 10.5955 170.635 8.01038 167.386 8.01038H153.04C150.056 8.01038 147.189 9.21712 145.164 11.4088C134.272 23.194 126.982 33.3225 120.683 32.2299C120.393 32.1796 120.11 32.3916 120.11 32.686V32.686C120.11 32.9325 120.313 33.1318 120.559 33.1285C126.708 33.045 130.709 32.4313 148.426 13.254C149.542 12.0456 150.999 11.1983 152.605 10.8414L158.22 9.59364C159.035 9.41248 159.88 9.4035 160.698 9.56728L164.988 10.4251C167.792 10.986 169.811 13.4485 169.811 16.3086V27.0984C169.811 29.8599 167.572 32.0984 164.811 32.0984H155.173C152.964 32.0984 151.173 30.3076 151.173 28.0984V22.6378C151.173 20.4287 152.964 18.6378 155.173 18.6378H159.527C160.632 18.6378 161.527 19.5332 161.527 20.6378V24.8858C161.527 25.4381 161.08 25.8858 160.527 25.8858H158.386C157.833 25.8858 157.386 25.4381 157.386 24.8858V22.7441Z" fill="url(#paint20_radial_692_270)"/>
<path d="M131.666 33.0631C139.604 29.9513 147.754 12.4066 157.386 13.4606C144.412 19.2326 143.16 31.4785 131.666 33.0631Z" fill="url(#paint21_radial_692_270)"/>
<path d="M124.252 30.0276C129.594 21.6827 129.718 16.9143 125.287 8.28346C130.716 9.71409 138.453 19.5114 124.252 30.0276Z" fill="url(#paint22_radial_692_270)"/>
<path d="M118.039 10.3543C122.976 14.0549 125.673 23.2793 118.039 32.0984C129.749 25.6888 126.286 12.7713 118.039 0V10.3543Z" fill="url(#paint23_radial_692_270)"/>
<defs>
<radialGradient id="paint0_radial_692_270" cx="0" cy="0" r="1" gradientUnits="userSpaceOnUse" gradientTransform="translate(79.728 111.309) scale(38.311 20.1909)">
<stop stop-color="#E1E1E1"/>
<stop offset="1" stop-color="#FFF4DA"/>
</radialGradient>
<radialGradient id="paint1_radial_692_270" cx="0" cy="0" r="1" gradientUnits="userSpaceOnUse" gradientTransform="translate(79.728 111.309) scale(38.311 20.1909)">
<stop stop-color="#E1E1E1"/>
<stop offset="1" stop-color="#FFF4DA"/>
</radialGradient>
<radialGradient id="paint2_radial_692_270" cx="0" cy="0" r="1" gradientUnits="userSpaceOnUse" gradientTransform="translate(79.728 111.309) scale(38.311 20.1909)">
<stop stop-color="#E1E1E1"/>
<stop offset="1" stop-color="#FFF4DA"/>
</radialGradient>
<radialGradient id="paint3_radial_692_270" cx="0" cy="0" r="1" gradientUnits="userSpaceOnUse" gradientTransform="translate(79.728 111.309) scale(38.311 20.1909)">
<stop stop-color="#E1E1E1"/>
<stop offset="1" stop-color="#FFF4DA"/>
</radialGradient>
<radialGradient id="paint4_radial_692_270" cx="0" cy="0" r="1" gradientUnits="userSpaceOnUse" gradientTransform="translate(156.35 111.309) rotate(180) scale(38.311 20.1909)">
<stop stop-color="#E1E1E1"/>
<stop offset="1" stop-color="#FFF4DA"/>
</radialGradient>
<radialGradient id="paint5_radial_692_270" cx="0" cy="0" r="1" gradientUnits="userSpaceOnUse" gradientTransform="translate(156.35 111.309) rotate(180) scale(38.311 20.1909)">
<stop stop-color="#E1E1E1"/>
<stop offset="1" stop-color="#FFF4DA"/>
</radialGradient>
<radialGradient id="paint6_radial_692_270" cx="0" cy="0" r="1" gradientUnits="userSpaceOnUse" gradientTransform="translate(156.35 111.309) rotate(180) scale(38.311 20.1909)">
<stop stop-color="#E1E1E1"/>
<stop offset="1" stop-color="#FFF4DA"/>
</radialGradient>
<radialGradient id="paint7_radial_692_270" cx="0" cy="0" r="1" gradientUnits="userSpaceOnUse" gradientTransform="translate(156.35 111.309) rotate(180) scale(38.311 20.1909)">
<stop stop-color="#E1E1E1"/>
<stop offset="1" stop-color="#FFF4DA"/>
</radialGradient>
<radialGradient id="paint8_radial_692_270" cx="0" cy="0" r="1" gradientUnits="userSpaceOnUse" gradientTransform="translate(59.0197 17.6024) scale(59.0197 17.6024)">
<stop stop-color="#E1E1E1"/>
<stop offset="1" stop-color="#FFF4DA"/>
</radialGradient>
<radialGradient id="paint9_radial_692_270" cx="0" cy="0" r="1" gradientUnits="userSpaceOnUse" gradientTransform="translate(59.0197 17.6024) scale(59.0197 17.6024)">
<stop stop-color="#E1E1E1"/>
<stop offset="1" stop-color="#FFF4DA"/>
</radialGradient>
<radialGradient id="paint10_radial_692_270" cx="0" cy="0" r="1" gradientUnits="userSpaceOnUse" gradientTransform="translate(59.0197 17.6024) scale(59.0197 17.6024)">
<stop stop-color="#E1E1E1"/>
<stop offset="1" stop-color="#FFF4DA"/>
</radialGradient>
<radialGradient id="paint11_radial_692_270" cx="0" cy="0" r="1" gradientUnits="userSpaceOnUse" gradientTransform="translate(59.0197 17.6024) scale(59.0197 17.6024)">
<stop stop-color="#E1E1E1"/>
<stop offset="1" stop-color="#FFF4DA"/>
</radialGradient>
<radialGradient id="paint12_radial_692_270" cx="0" cy="0" r="1" gradientUnits="userSpaceOnUse" gradientTransform="translate(59.0197 17.6024) scale(59.0197 17.6024)">
<stop stop-color="#E1E1E1"/>
<stop offset="1" stop-color="#FFF4DA"/>
</radialGradient>
<radialGradient id="paint13_radial_692_270" cx="0" cy="0" r="1" gradientUnits="userSpaceOnUse" gradientTransform="translate(59.0197 17.6024) scale(59.0197 17.6024)">
<stop stop-color="#E1E1E1"/>
<stop offset="1" stop-color="#FFF4DA"/>
</radialGradient>
<radialGradient id="paint14_radial_692_270" cx="0" cy="0" r="1" gradientUnits="userSpaceOnUse" gradientTransform="translate(59.0197 17.6024) scale(59.0197 17.6024)">
<stop stop-color="#E1E1E1"/>
<stop offset="1" stop-color="#FFF4DA"/>
</radialGradient>
<radialGradient id="paint15_radial_692_270" cx="0" cy="0" r="1" gradientUnits="userSpaceOnUse" gradientTransform="translate(59.0197 17.6024) scale(59.0197 17.6024)">
<stop stop-color="#E1E1E1"/>
<stop offset="1" stop-color="#FFF4DA"/>
</radialGradient>
<radialGradient id="paint16_radial_692_270" cx="0" cy="0" r="1" gradientUnits="userSpaceOnUse" gradientTransform="translate(177.059 17.6024) rotate(180) scale(59.0197 17.6024)">
<stop stop-color="#E1E1E1"/>
<stop offset="1" stop-color="#FFF4DA"/>
</radialGradient>
<radialGradient id="paint17_radial_692_270" cx="0" cy="0" r="1" gradientUnits="userSpaceOnUse" gradientTransform="translate(177.059 17.6024) rotate(180) scale(59.0197 17.6024)">
<stop stop-color="#E1E1E1"/>
<stop offset="1" stop-color="#FFF4DA"/>
</radialGradient>
<radialGradient id="paint18_radial_692_270" cx="0" cy="0" r="1" gradientUnits="userSpaceOnUse" gradientTransform="translate(177.059 17.6024) rotate(180) scale(59.0197 17.6024)">
<stop stop-color="#E1E1E1"/>
<stop offset="1" stop-color="#FFF4DA"/>
</radialGradient>
<radialGradient id="paint19_radial_692_270" cx="0" cy="0" r="1" gradientUnits="userSpaceOnUse" gradientTransform="translate(177.059 17.6024) rotate(180) scale(59.0197 17.6024)">
<stop stop-color="#E1E1E1"/>
<stop offset="1" stop-color="#FFF4DA"/>
</radialGradient>
<radialGradient id="paint20_radial_692_270" cx="0" cy="0" r="1" gradientUnits="userSpaceOnUse" gradientTransform="translate(177.059 17.6024) rotate(180) scale(59.0197 17.6024)">
<stop stop-color="#E1E1E1"/>
<stop offset="1" stop-color="#FFF4DA"/>
</radialGradient>
<radialGradient id="paint21_radial_692_270" cx="0" cy="0" r="1" gradientUnits="userSpaceOnUse" gradientTransform="translate(177.059 17.6024) rotate(180) scale(59.0197 17.6024)">
<stop stop-color="#E1E1E1"/>
<stop offset="1" stop-color="#FFF4DA"/>
</radialGradient>
<radialGradient id="paint22_radial_692_270" cx="0" cy="0" r="1" gradientUnits="userSpaceOnUse" gradientTransform="translate(177.059 17.6024) rotate(180) scale(59.0197 17.6024)">
<stop stop-color="#E1E1E1"/>
<stop offset="1" stop-color="#FFF4DA"/>
</radialGradient>
<radialGradient id="paint23_radial_692_270" cx="0" cy="0" r="1" gradientUnits="userSpaceOnUse" gradientTransform="translate(177.059 17.6024) rotate(180) scale(59.0197 17.6024)">
<stop stop-color="#E1E1E1"/>
<stop offset="1" stop-color="#FFF4DA"/>
</radialGradient>
</defs>
</svg>
