<svg width="237" height="132" viewBox="0 0 237 132" fill="none" xmlns="http://www.w3.org/2000/svg">
<path d="M50.7125 108.06C49.3889 108.487 47.9214 108.504 46.7169 107.809C44.5794 106.575 44.1412 105.154 44.5234 102.508V102.508C42.8798 103.056 42.063 104.953 43.0339 106.388C43.9977 107.812 45.0937 108.974 46.6267 110.246C47.9171 111.316 49.5696 111.855 51.2458 111.812C56.4406 111.679 59.0349 110.851 62.1257 108.72C61.1051 110.641 61.1618 111.76 61.9885 113.6C62.0605 113.76 62.2568 113.822 62.4077 113.731C64.0825 112.73 65.0039 111.892 66.2674 109.756C66.2154 114.032 66.9843 113.977 70.4091 114.933C67.5194 110.86 68.0525 109.221 70.1981 106.254C70.9958 105.151 72.1259 104.331 73.4053 103.866L78.5776 101.985C81.3342 100.982 84.3487 100.942 87.1313 101.869L104.173 107.55C104.307 107.435 104.442 107.326 104.578 107.223V104.508C104.578 103.403 105.474 102.508 106.578 102.508H108.791C109.896 102.508 110.791 103.403 110.791 104.508V105.614H111.826V103.472C111.826 102.368 110.931 101.472 109.826 101.472H105.543C104.438 101.472 103.543 102.368 103.543 103.472V106.65C98.7736 103.748 93.5321 101.584 86.7257 99.7769C82.8456 98.747 78.7534 99.0145 74.9328 100.247L50.7125 108.06Z" fill="url(#paint0_radial_692_1672)"/>
<path fill-rule="evenodd" clip-rule="evenodd" d="M118.039 111.827V108.721C115.458 105.74 114.163 105.799 111.826 105.614H110.791C108.063 105.589 106.222 105.979 104.578 107.223V107.685L104.173 107.55C103.27 108.327 102.409 109.382 101.472 110.791C94.4225 108.167 92.2419 105.859 84.6304 104.117C82.7927 103.696 80.8379 103.854 79.1733 104.739C77.1406 105.82 75.7478 107.075 74.4004 109.235C73.7976 110.201 73.7049 111.42 74.2146 112.438C75.0495 114.107 76.2498 115.417 79.1376 117.128C80.1186 117.709 81.3505 117.62 82.2784 116.957L86.28 114.099C87.2184 113.429 87.4128 112.09 86.6211 111.251C84.8302 109.354 83.7227 109.09 81.7989 109.756C83.0242 110.067 83.7473 110.456 84.396 111.688C84.7596 112.378 84.5518 113.216 84 113.767L82.2754 115.492C81.3706 116.397 79.9663 116.664 78.9055 115.948C77.3915 114.927 76.4781 113.802 75.4876 112.283C74.8937 111.372 74.8539 110.185 75.48 109.296C77.188 106.871 79.0763 106.022 82.8343 105.614C87.5138 105.758 93.9734 109.592 101.472 112.862C101.61 115.305 101.827 117.608 105.43 119.531C106.15 119.915 107.027 119.733 107.604 119.156L110.252 116.508C110.55 116.21 110.55 115.727 110.252 115.429V115.429C109.971 115.149 109.521 115.134 109.21 115.381C104.882 118.812 103.349 117.017 102.508 112.862C108.784 113.743 111.6 112.063 112.862 106.65H114.933L118.039 111.827ZM102.508 111.827C105.324 107.593 107.416 106.549 111.826 106.65C109.581 111.782 107.623 113.001 102.508 111.827Z" fill="url(#paint1_radial_692_1672)"/>
<path d="M118.039 114.933V111.827C116.112 115.763 116.189 118.074 110.791 119.075C111.96 121.038 112.806 121.636 114.933 121.146C115.324 125.201 115.717 127.472 118.039 131.5V125.287C116.703 121.107 116.952 118.865 118.039 114.933Z" fill="url(#paint2_radial_692_1672)"/>
<path d="M115.968 98.3662C116.06 94.792 116.696 93.3936 118.039 91.1182V105.614C115.722 100.811 114.342 99.4138 111.826 99.4015C113.364 97.8121 114.276 97.3638 115.968 98.3662Z" fill="url(#paint3_radial_692_1672)"/>
<path d="M185.366 108.06C186.689 108.487 188.157 108.504 189.361 107.809C191.499 106.575 191.937 105.154 191.555 102.508V102.508C193.198 103.056 194.015 104.953 193.044 106.388C192.08 107.812 190.984 108.974 189.451 110.246C188.161 111.316 186.509 111.855 184.832 111.812C179.637 111.679 177.043 110.851 173.952 108.72C174.973 110.641 174.916 111.76 174.09 113.6C174.018 113.76 173.821 113.822 173.67 113.731C171.996 112.73 171.074 111.892 169.811 109.756C169.863 114.032 169.094 113.977 165.669 114.933C168.559 110.86 168.026 109.221 165.88 106.254C165.082 105.151 163.952 104.331 162.673 103.866L157.5 101.985C154.744 100.982 151.729 100.942 148.947 101.869L131.905 107.55C131.771 107.435 131.636 107.326 131.5 107.223V104.508C131.5 103.403 130.604 102.508 129.5 102.508H127.287C126.183 102.508 125.287 103.403 125.287 104.508V105.614H124.252V103.472C124.252 102.368 125.147 101.472 126.252 101.472H130.535C131.64 101.472 132.535 102.368 132.535 103.472V106.65C137.304 103.748 142.546 101.584 149.352 99.7769C153.232 98.747 157.325 99.0145 161.145 100.247L185.366 108.06Z" fill="url(#paint4_radial_692_1672)"/>
<path fill-rule="evenodd" clip-rule="evenodd" d="M118.039 111.827V108.721C120.62 105.74 121.915 105.799 124.252 105.614H125.287C128.015 105.589 129.856 105.979 131.5 107.223V107.685L131.905 107.55C132.808 108.327 133.669 109.382 134.606 110.791C141.656 108.167 143.836 105.859 151.448 104.117C153.285 103.696 155.24 103.854 156.905 104.739C158.938 105.82 160.33 107.075 161.678 109.235C162.281 110.201 162.373 111.42 161.863 112.438C161.029 114.107 159.828 115.417 156.941 117.128C155.96 117.709 154.728 117.62 153.8 116.957L149.798 114.099C148.86 113.429 148.665 112.09 149.457 111.251C151.248 109.354 152.355 109.09 154.279 109.756C153.054 110.067 152.331 110.456 151.682 111.688C151.319 112.378 151.526 113.216 152.078 113.767L153.803 115.492C154.708 116.397 156.112 116.664 157.173 115.948C158.687 114.927 159.6 113.802 160.591 112.283C161.184 111.372 161.224 110.185 160.598 109.296C158.89 106.871 157.002 106.022 153.244 105.614C148.564 105.758 142.105 109.592 134.606 112.862C134.468 115.305 134.251 117.608 130.648 119.531C129.928 119.915 129.051 119.733 128.474 119.156L125.826 116.508C125.528 116.21 125.528 115.727 125.826 115.429V115.429C126.107 115.149 126.557 115.134 126.868 115.381C131.196 118.812 132.729 117.017 133.571 112.862C127.294 113.743 124.478 112.063 123.216 106.65H121.145L118.039 111.827ZM133.571 111.827C130.754 107.593 128.662 106.549 124.252 106.65C126.497 111.782 128.455 113.001 133.571 111.827Z" fill="url(#paint5_radial_692_1672)"/>
<path d="M118.039 114.933V111.827C119.967 115.763 119.889 118.074 125.287 119.075C124.119 121.038 123.273 121.636 121.145 121.146C120.754 125.201 120.361 127.472 118.039 131.5V125.287C119.375 121.107 119.126 118.865 118.039 114.933Z" fill="url(#paint6_radial_692_1672)"/>
<path d="M120.11 98.3662C120.019 94.792 119.382 93.3936 118.039 91.1182V105.614C120.356 100.811 121.736 99.4138 124.252 99.4015C122.714 97.8121 121.802 97.3638 120.11 98.3662Z" fill="url(#paint7_radial_692_1672)"/>
<path d="M72.8789 46.8125C73.5378 46.8268 74.2539 46.8411 75.0273 46.8555C75.8008 46.8555 76.6315 46.8555 77.5195 46.8555C78.4935 46.8555 79.3242 46.8411 80.0117 46.8125C80.6992 46.7839 81.2292 46.7552 81.6016 46.7266C82.0599 46.6979 82.6829 46.6478 83.4707 46.5762C84.2728 46.5046 85.0247 46.4401 85.7266 46.3828C85.7839 46.4115 85.8268 46.6335 85.8555 47.0488C85.8841 47.4642 85.8841 47.7148 85.8555 47.8008C85.8268 47.9154 84.1797 49.9635 80.9141 53.9453C77.6484 57.9128 74.3828 61.8659 71.1172 65.8047L66.2617 71.7344C66.0326 71.9779 65.918 72.2214 65.918 72.4648C65.918 72.694 66.0612 72.8086 66.3477 72.8086H75.3711C76.1016 72.8086 76.8464 72.694 77.6055 72.4648C78.3789 72.2214 78.9661 71.8776 79.3672 71.4336C79.4818 71.3047 79.582 71.1901 79.668 71.0898C79.7682 70.9896 79.8542 70.9036 79.9258 70.832C80.069 70.6888 80.2266 70.4668 80.3984 70.166C80.513 69.9655 80.6777 69.6432 80.8926 69.1992C81.1074 68.7552 81.2148 68.5117 81.2148 68.4688C81.3008 68.2396 81.6875 68.125 82.375 68.125C82.6758 68.125 82.8763 68.2109 82.9766 68.3828C82.4753 69.6146 82.0169 70.7819 81.6016 71.8848C81.2005 72.9876 80.8424 74.026 80.5273 75H60.7188C60.6042 74.7995 60.5469 74.556 60.5469 74.2695C60.5469 73.7969 60.6615 73.4245 60.8906 73.1523L80.9141 48.875H75.6719C75.3854 48.875 75.1061 48.875 74.834 48.875C74.5618 48.875 74.2969 48.8822 74.0391 48.8965C73.638 48.9108 73.2656 48.918 72.9219 48.918C72.5781 48.918 72.3633 48.918 72.2773 48.918C71.0599 48.9323 70.0788 49.1042 69.334 49.4336C68.6035 49.7487 67.9733 50.2858 67.4434 51.0449C66.9277 51.804 66.362 52.8568 65.7461 54.2031C65.6602 54.3177 65.5169 54.375 65.3164 54.375C64.8008 54.375 64.4141 54.2461 64.1562 53.9883C64.3424 53.487 64.6361 52.6061 65.0371 51.3457C65.4382 50.0853 65.9466 48.4453 66.5625 46.4258C66.6914 46.4688 67.0423 46.5117 67.6152 46.5547C68.1882 46.5977 68.8398 46.6406 69.5703 46.6836C70.3008 46.7266 70.974 46.7624 71.5898 46.791C72.2201 46.8053 72.6497 46.8125 72.8789 46.8125ZM94.8359 56.3086C96.526 56.3086 97.8366 56.8958 98.7676 58.0703C99.6986 59.2448 100.164 60.8633 100.164 62.9258C100.164 64.401 99.8776 65.8691 99.3047 67.3301C98.7318 68.7767 97.9798 70.0944 97.0488 71.2832C96.1178 72.472 95.0938 73.4245 93.9766 74.1406C92.8594 74.8568 91.7565 75.2148 90.668 75.2148C88.9492 75.2148 87.6387 74.6562 86.7363 73.5391C85.834 72.4219 85.3828 70.832 85.3828 68.7695C85.3828 67.2799 85.6621 65.8047 86.2207 64.3438C86.7936 62.8685 87.5456 61.5293 88.4766 60.3262C89.4076 59.1087 90.4245 58.1348 91.5273 57.4043C92.6445 56.6738 93.7474 56.3086 94.8359 56.3086ZM94.3203 58.0703C93.6042 58.0703 92.9095 58.3854 92.2363 59.0156C91.5632 59.6315 90.9544 60.4408 90.4102 61.4434C89.8659 62.446 89.4362 63.5417 89.1211 64.7305C88.806 65.9193 88.6484 67.0794 88.6484 68.2109C88.6484 69.8724 88.9134 71.1615 89.4434 72.0781C89.9733 72.9948 90.6393 73.4531 91.4414 73.4531C92.1576 73.4531 92.8379 73.1452 93.4824 72.5293C94.1413 71.8991 94.7285 71.0827 95.2441 70.0801C95.7598 69.0632 96.1608 67.9603 96.4473 66.7715C96.748 65.5827 96.8984 64.4154 96.8984 63.2695C96.8984 61.5794 96.6693 60.2904 96.2109 59.4023C95.7526 58.5143 95.1224 58.0703 94.3203 58.0703ZM109.059 56.3086C109.517 56.3086 109.875 56.5163 110.133 56.9316C110.391 57.347 110.52 57.8841 110.52 58.543C110.52 59.1732 110.434 59.9323 110.262 60.8203L109.574 64.4297C109.932 63.5846 110.391 62.6966 110.949 61.7656C111.522 60.8203 112.131 59.9323 112.775 59.1016C113.42 58.2708 114.057 57.5977 114.688 57.082C115.318 56.5664 115.876 56.3086 116.363 56.3086C117.337 56.3086 118.125 56.7669 118.727 57.6836C118.727 59.6029 118.197 60.5625 117.137 60.5625C116.908 60.5625 116.635 60.3835 116.32 60.0254C116.005 59.6673 115.676 59.4883 115.332 59.4883C114.917 59.4883 114.372 59.832 113.699 60.5195C113.026 61.207 112.331 62.1094 111.615 63.2266C110.899 64.3294 110.255 65.5254 109.682 66.8145C109.109 68.0892 108.715 69.3138 108.5 70.4883L107.684 75C107.197 75.0859 106.724 75.1289 106.266 75.1289C105.721 75.1289 105.191 75.0859 104.676 75L107.254 61.7656C107.397 60.7773 107.469 60.2044 107.469 60.0469C107.469 59.3307 107.326 58.9727 107.039 58.9727C106.796 58.9727 106.43 59.2018 105.943 59.6602C105.714 59.8893 105.464 60.14 105.191 60.4121C104.934 60.6842 104.762 60.8776 104.676 60.9922C104.618 60.9922 104.511 60.8561 104.354 60.584C104.196 60.3118 104.117 60.1185 104.117 60.0039C104.346 59.6172 104.762 59.1374 105.363 58.5645C105.965 57.9772 106.609 57.4544 107.297 56.9961C107.984 56.5378 108.572 56.3086 109.059 56.3086ZM126.332 47.2422C126.762 47.2422 127.127 47.4141 127.428 47.7578C127.729 48.1016 127.879 48.5026 127.879 48.9609C127.879 49.6484 127.657 50.25 127.213 50.7656C126.769 51.2812 126.217 51.5391 125.559 51.5391C125.1 51.5391 124.742 51.36 124.484 51.002C124.227 50.6439 124.098 50.207 124.098 49.6914C124.098 49.0326 124.312 48.4596 124.742 47.9727C125.172 47.4857 125.702 47.2422 126.332 47.2422ZM125.086 56.3086C125.544 56.3086 125.902 56.5163 126.16 56.9316C126.418 57.347 126.547 57.8841 126.547 58.543C126.547 59.1302 126.461 59.8893 126.289 60.8203L124.398 70.4453C124.312 70.7891 124.27 71.1471 124.27 71.5195C124.27 72.2357 124.413 72.5938 124.699 72.5938C125.057 72.5938 125.487 72.3431 125.988 71.8418C126.49 71.3262 126.919 70.8893 127.277 70.5312L127.535 70.2305C127.592 70.2305 127.7 70.3665 127.857 70.6387C128.015 70.9108 128.094 71.1042 128.094 71.2188C127.85 71.6341 127.406 72.1641 126.762 72.8086C126.132 73.4531 125.444 74.026 124.699 74.5273C123.954 75.0143 123.281 75.2578 122.68 75.2578C122.221 75.2578 121.863 75.0501 121.605 74.6348C121.348 74.2194 121.219 73.6823 121.219 73.0234C121.219 72.5938 121.319 71.8346 121.52 70.7461L123.281 61.7656C123.424 60.9206 123.496 60.3477 123.496 60.0469C123.496 59.3307 123.353 58.9727 123.066 58.9727C122.895 58.9727 122.658 59.0872 122.357 59.3164C122.071 59.5456 121.792 59.8034 121.52 60.0898C121.247 60.362 121.047 60.5768 120.918 60.7344L120.703 60.9922C120.646 60.9922 120.538 60.8561 120.381 60.584C120.223 60.3118 120.145 60.1185 120.145 60.0039C120.374 59.6172 120.789 59.1374 121.391 58.5645C121.992 57.9772 122.637 57.4544 123.324 56.9961C124.012 56.5378 124.599 56.3086 125.086 56.3086ZM137.203 56.3086C138.062 56.3086 138.771 57.0391 139.33 58.5C139.903 59.9896 140.283 61.9017 140.469 64.2363C140.612 65.8118 140.712 67.1439 140.77 68.2324C140.841 69.321 140.884 70.2949 140.898 71.1543C140.927 72.0137 140.941 72.8945 140.941 73.7969C141.686 72.8802 142.445 71.7773 143.219 70.4883C143.992 69.1992 144.644 67.8743 145.174 66.5137C145.704 65.153 145.969 63.8997 145.969 62.7539C145.969 61.0781 145.611 59.5456 144.895 58.1562C145.267 56.9245 145.983 56.3086 147.043 56.3086C148.303 56.3086 148.934 57.4401 148.934 59.7031C148.934 62.8685 147.702 66.485 145.238 70.5527C144.007 72.5866 142.667 74.4772 141.221 76.2246C139.788 77.9863 138.342 79.526 136.881 80.8438C135.42 82.1615 134.038 83.1855 132.734 83.916C131.431 84.6465 130.299 85.0117 129.34 85.0117C128.595 85.0117 127.979 84.8398 127.492 84.4961C127.005 84.1523 126.762 83.737 126.762 83.25C126.762 82.3333 127.091 81.7031 127.75 81.3594C128.38 81.7318 129.34 81.918 130.629 81.918C133.021 81.918 135.083 80.6432 136.816 78.0938C137.475 77.1341 137.805 75.2148 137.805 72.3359C137.805 70.9323 137.769 69.5358 137.697 68.1465C137.626 66.7572 137.497 65.332 137.311 63.8711C137.21 63.0404 137.06 62.2526 136.859 61.5078C136.673 60.763 136.444 60.1543 136.172 59.6816C135.9 59.209 135.585 58.9727 135.227 58.9727C134.969 58.9727 134.582 59.2161 134.066 59.7031C133.551 60.1901 133.15 60.6198 132.863 60.9922C132.806 60.9922 132.699 60.8561 132.541 60.584C132.383 60.3118 132.305 60.1185 132.305 60.0039C132.391 59.7891 132.62 59.4811 132.992 59.0801C133.379 58.679 133.83 58.2637 134.346 57.834C134.861 57.4043 135.377 57.0462 135.893 56.7598C136.408 56.459 136.845 56.3086 137.203 56.3086ZM160.879 56.3086C162.569 56.3086 163.88 56.8958 164.811 58.0703C165.742 59.2448 166.207 60.8633 166.207 62.9258C166.207 64.401 165.921 65.8691 165.348 67.3301C164.775 68.7767 164.023 70.0944 163.092 71.2832C162.161 72.472 161.137 73.4245 160.02 74.1406C158.902 74.8568 157.799 75.2148 156.711 75.2148C154.992 75.2148 153.682 74.6562 152.779 73.5391C151.877 72.4219 151.426 70.832 151.426 68.7695C151.426 67.2799 151.705 65.8047 152.264 64.3438C152.837 62.8685 153.589 61.5293 154.52 60.3262C155.451 59.1087 156.467 58.1348 157.57 57.4043C158.688 56.6738 159.79 56.3086 160.879 56.3086ZM160.363 58.0703C159.647 58.0703 158.952 58.3854 158.279 59.0156C157.606 59.6315 156.997 60.4408 156.453 61.4434C155.909 62.446 155.479 63.5417 155.164 64.7305C154.849 65.9193 154.691 67.0794 154.691 68.2109C154.691 69.8724 154.956 71.1615 155.486 72.0781C156.016 72.9948 156.682 73.4531 157.484 73.4531C158.201 73.4531 158.881 73.1452 159.525 72.5293C160.184 71.8991 160.771 71.0827 161.287 70.0801C161.803 69.0632 162.204 67.9603 162.49 66.7715C162.791 65.5827 162.941 64.4154 162.941 63.2695C162.941 61.5794 162.712 60.2904 162.254 59.4023C161.796 58.5143 161.165 58.0703 160.363 58.0703ZM170.59 56.9531H173.598L174.629 51.7109C174.715 51.4245 175.417 51.2812 176.734 51.2812C177.021 51.2812 177.279 51.2956 177.508 51.3242L176.434 56.9531H180.344C180.487 56.9531 180.559 57.1393 180.559 57.5117C180.559 57.8411 180.43 58.2565 180.172 58.7578H176.09L173.812 70.4453C173.727 70.7891 173.684 71.1471 173.684 71.5195C173.684 72.2357 173.827 72.5938 174.113 72.5938C174.471 72.5938 174.901 72.3431 175.402 71.8418C175.904 71.3262 176.333 70.8893 176.691 70.5312L176.949 70.2305C177.007 70.2305 177.114 70.3665 177.271 70.6387C177.429 70.9108 177.508 71.1042 177.508 71.2188C177.264 71.6341 176.82 72.1641 176.176 72.8086C175.546 73.4531 174.858 74.026 174.113 74.5273C173.368 75.0143 172.695 75.2578 172.094 75.2578C171.635 75.2578 171.277 75.0501 171.02 74.6348C170.762 74.2194 170.633 73.6823 170.633 73.0234C170.633 72.5938 170.733 71.8346 170.934 70.7461L173.254 58.7578H170.203C170.117 58.7578 170.074 58.6003 170.074 58.2852C170.074 57.9128 170.246 57.4688 170.59 56.9531Z" fill="white"/>
<path d="M0 14.4961C6.30012 20.0984 15.0791 19.1979 30.687 15.1421C32.2497 14.736 33.9168 14.9601 35.3059 15.7832L61.0905 31.063L35.3304 19.6141C33.9205 18.9874 32.3183 18.9353 30.8588 19.4358C12.5496 25.7159 4.73674 24.7283 0 14.4961Z" fill="url(#paint8_radial_692_1672)"/>
<path d="M16.5669 25.8858C22.7094 27.5488 34.4861 19.1752 43.5027 24.2129C35.7991 20.3448 24.9274 34.7378 16.5669 25.8858Z" fill="url(#paint9_radial_692_1672)"/>
<path d="M42.4528 34.1693C40.4746 32.9379 39.8039 31.791 39.5364 30.2054C39.314 28.8871 40.2138 27.6374 41.514 27.3262C46.4064 26.1551 49.6595 27.3172 54.8779 31.063C50.3759 26.3362 46.8249 25.2844 39.6469 25.78C38.7972 25.8387 38.0191 26.2751 37.5081 26.9564L36.1669 28.7446C35.6047 29.4943 35.6307 30.5432 36.2784 31.2205C38.4425 33.4837 39.9798 34.1156 42.4528 34.1693Z" fill="url(#paint10_radial_692_1672)"/>
<path d="M61.0905 28.9921C48.8725 19.5072 53.131 18.6378 60.0551 10.3543C56.6285 8.93238 54.8937 8.83857 52.8071 12.4252C51.2879 8.29387 49.7783 6.42726 45.559 4.14173C43.8524 8.52031 44.6321 10.6991 46.5945 14.4961C42.9378 12.0347 40.7471 11.3823 36.2402 13.4606C46.3046 17.727 45.2926 18.8748 61.0905 28.9921Z" fill="url(#paint11_radial_692_1672)"/>
<path d="M78.6929 22.7441C78.6929 22.1918 79.1406 21.7441 79.6929 21.7441H79.7638C80.3161 21.7441 80.7638 22.1918 80.7638 22.7441V25.9213C80.7638 26.4735 80.3161 26.9213 79.7638 26.9213H74.4803C73.3757 26.9213 72.4803 26.0258 72.4803 24.9213V19.6024C72.4803 18.4978 73.3757 17.6024 74.4803 17.6024H78.7281C80.6137 17.6024 82.4755 18.023 84.178 18.8337V18.8337C85.2965 19.3663 86.1249 20.3629 86.4441 21.5599L88.3399 28.6695C89.2063 31.9182 86.6836 35.0788 83.3237 34.9544L68.0679 34.3894C64.7776 34.2675 62.2002 31.5169 62.2923 28.2256L62.6948 13.8426C62.7856 10.5955 65.4441 8.01038 68.6924 8.01038H83.0387C86.0229 8.01038 88.8896 9.21712 90.915 11.4088C101.807 23.194 109.097 33.3225 115.395 32.2299C115.685 32.1796 115.968 32.3916 115.968 32.686V32.686C115.968 32.9325 115.766 33.1318 115.519 33.1285C109.37 33.045 105.37 32.4313 87.653 13.254C86.5367 12.0456 85.0793 11.1983 83.4735 10.8414L77.8584 9.59364C77.0431 9.41248 76.199 9.4035 75.3801 9.56728L71.091 10.4251C68.2865 10.986 66.2677 13.4485 66.2677 16.3086V27.0984C66.2677 29.8599 68.5063 32.0984 71.2677 32.0984H80.9055C83.1146 32.0984 84.9055 30.3076 84.9055 28.0984V22.6378C84.9055 20.4287 83.1146 18.6378 80.9055 18.6378H76.5512C75.4466 18.6378 74.5512 19.5332 74.5512 20.6378V24.8858C74.5512 25.4381 74.9989 25.8858 75.5512 25.8858H77.6929C78.2452 25.8858 78.6929 25.4381 78.6929 24.8858V22.7441Z" fill="url(#paint12_radial_692_1672)"/>
<path d="M104.412 33.0631C96.4743 29.9513 88.3242 12.4066 78.6929 13.4606C91.6665 19.2326 92.9183 31.4785 104.412 33.0631Z" fill="url(#paint13_radial_692_1672)"/>
<path d="M111.827 30.0276C106.485 21.6827 106.361 16.9143 110.791 8.28346C105.363 9.71409 97.6256 19.5114 111.827 30.0276Z" fill="url(#paint14_radial_692_1672)"/>
<path d="M118.039 10.3543C113.102 14.0549 110.405 23.2793 118.039 32.0984C106.33 25.6888 109.793 12.7713 118.039 0V10.3543Z" fill="url(#paint15_radial_692_1672)"/>
<path d="M236.079 14.4961C229.779 20.0984 221 19.1979 205.392 15.1421C203.829 14.736 202.162 14.9601 200.773 15.7832L174.989 31.063L200.749 19.6141C202.159 18.9874 203.761 18.9353 205.22 19.4358C223.529 25.7159 231.342 24.7283 236.079 14.4961Z" fill="url(#paint16_radial_692_1672)"/>
<path d="M219.512 25.8858C213.37 27.5488 201.593 19.1752 192.576 24.2129C200.28 20.3448 211.152 34.7378 219.512 25.8858Z" fill="url(#paint17_radial_692_1672)"/>
<path d="M193.626 34.1693C195.605 32.9379 196.275 31.791 196.543 30.2054C196.765 28.8871 195.865 27.6374 194.565 27.3262C189.673 26.1551 186.42 27.3172 181.201 31.063C185.703 26.3362 189.254 25.2844 196.432 25.78C197.282 25.8387 198.06 26.2751 198.571 26.9564L199.912 28.7446C200.474 29.4943 200.448 30.5432 199.801 31.2205C197.637 33.4837 196.099 34.1156 193.626 34.1693Z" fill="url(#paint18_radial_692_1672)"/>
<path d="M174.989 28.9921C187.207 19.5072 182.948 18.6378 176.024 10.3543C179.451 8.93238 181.185 8.83857 183.272 12.4252C184.791 8.29387 186.301 6.42726 190.52 4.14173C192.227 8.52031 191.447 10.6991 189.485 14.4961C193.141 12.0347 195.332 11.3823 199.839 13.4606C189.775 17.727 190.787 18.8748 174.989 28.9921Z" fill="url(#paint19_radial_692_1672)"/>
<path d="M157.386 22.7441C157.386 22.1918 156.938 21.7441 156.386 21.7441H156.315C155.763 21.7441 155.315 22.1918 155.315 22.7441V25.9213C155.315 26.4735 155.763 26.9213 156.315 26.9213H161.599C162.703 26.9213 163.599 26.0258 163.599 24.9213V19.6024C163.599 18.4978 162.703 17.6024 161.599 17.6024H157.351C155.465 17.6024 153.604 18.023 151.901 18.8337V18.8337C150.783 19.3663 149.954 20.3629 149.635 21.5599L147.739 28.6695C146.873 31.9182 149.396 35.0788 152.755 34.9544L168.011 34.3894C171.301 34.2675 173.879 31.5169 173.787 28.2256L173.384 13.8426C173.293 10.5955 170.635 8.01038 167.387 8.01038H153.04C150.056 8.01038 147.19 9.21712 145.164 11.4088C134.273 23.194 126.982 33.3225 120.684 32.2299C120.394 32.1796 120.111 32.3916 120.111 32.686V32.686C120.111 32.9325 120.313 33.1318 120.56 33.1285C126.709 33.045 130.709 32.4313 148.426 13.254C149.542 12.0456 151 11.1983 152.606 10.8414L158.221 9.59364C159.036 9.41248 159.88 9.4035 160.699 9.56728L164.988 10.4251C167.793 10.986 169.811 13.4485 169.811 16.3086V27.0984C169.811 29.8599 167.573 32.0984 164.811 32.0984H155.174C152.964 32.0984 151.174 30.3076 151.174 28.0984V22.6378C151.174 20.4287 152.964 18.6378 155.174 18.6378H159.528C160.633 18.6378 161.528 19.5332 161.528 20.6378V24.8858C161.528 25.4381 161.08 25.8858 160.528 25.8858H158.386C157.834 25.8858 157.386 25.4381 157.386 24.8858V22.7441Z" fill="url(#paint20_radial_692_1672)"/>
<path d="M131.667 33.0631C139.605 29.9513 147.755 12.4066 157.386 13.4606C144.413 19.2326 143.161 31.4785 131.667 33.0631Z" fill="url(#paint21_radial_692_1672)"/>
<path d="M124.252 30.0276C129.594 21.6827 129.718 16.9143 125.288 8.28346C130.716 9.71409 138.454 19.5114 124.252 30.0276Z" fill="url(#paint22_radial_692_1672)"/>
<path d="M118.04 10.3543C122.977 14.0549 125.674 23.2793 118.04 32.0984C129.75 25.6888 126.286 12.7713 118.04 0V10.3543Z" fill="url(#paint23_radial_692_1672)"/>
<defs>
<radialGradient id="paint0_radial_692_1672" cx="0" cy="0" r="1" gradientUnits="userSpaceOnUse" gradientTransform="translate(79.728 111.309) scale(38.311 20.1909)">
<stop stop-color="#E1E1E1"/>
<stop offset="1" stop-color="#FFF4DA"/>
</radialGradient>
<radialGradient id="paint1_radial_692_1672" cx="0" cy="0" r="1" gradientUnits="userSpaceOnUse" gradientTransform="translate(79.728 111.309) scale(38.311 20.1909)">
<stop stop-color="#E1E1E1"/>
<stop offset="1" stop-color="#FFF4DA"/>
</radialGradient>
<radialGradient id="paint2_radial_692_1672" cx="0" cy="0" r="1" gradientUnits="userSpaceOnUse" gradientTransform="translate(79.728 111.309) scale(38.311 20.1909)">
<stop stop-color="#E1E1E1"/>
<stop offset="1" stop-color="#FFF4DA"/>
</radialGradient>
<radialGradient id="paint3_radial_692_1672" cx="0" cy="0" r="1" gradientUnits="userSpaceOnUse" gradientTransform="translate(79.728 111.309) scale(38.311 20.1909)">
<stop stop-color="#E1E1E1"/>
<stop offset="1" stop-color="#FFF4DA"/>
</radialGradient>
<radialGradient id="paint4_radial_692_1672" cx="0" cy="0" r="1" gradientUnits="userSpaceOnUse" gradientTransform="translate(156.35 111.309) rotate(180) scale(38.311 20.1909)">
<stop stop-color="#E1E1E1"/>
<stop offset="1" stop-color="#FFF4DA"/>
</radialGradient>
<radialGradient id="paint5_radial_692_1672" cx="0" cy="0" r="1" gradientUnits="userSpaceOnUse" gradientTransform="translate(156.35 111.309) rotate(180) scale(38.311 20.1909)">
<stop stop-color="#E1E1E1"/>
<stop offset="1" stop-color="#FFF4DA"/>
</radialGradient>
<radialGradient id="paint6_radial_692_1672" cx="0" cy="0" r="1" gradientUnits="userSpaceOnUse" gradientTransform="translate(156.35 111.309) rotate(180) scale(38.311 20.1909)">
<stop stop-color="#E1E1E1"/>
<stop offset="1" stop-color="#FFF4DA"/>
</radialGradient>
<radialGradient id="paint7_radial_692_1672" cx="0" cy="0" r="1" gradientUnits="userSpaceOnUse" gradientTransform="translate(156.35 111.309) rotate(180) scale(38.311 20.1909)">
<stop stop-color="#E1E1E1"/>
<stop offset="1" stop-color="#FFF4DA"/>
</radialGradient>
<radialGradient id="paint8_radial_692_1672" cx="0" cy="0" r="1" gradientUnits="userSpaceOnUse" gradientTransform="translate(59.0197 17.6024) scale(59.0197 17.6024)">
<stop stop-color="#E1E1E1"/>
<stop offset="1" stop-color="#FFF4DA"/>
</radialGradient>
<radialGradient id="paint9_radial_692_1672" cx="0" cy="0" r="1" gradientUnits="userSpaceOnUse" gradientTransform="translate(59.0197 17.6024) scale(59.0197 17.6024)">
<stop stop-color="#E1E1E1"/>
<stop offset="1" stop-color="#FFF4DA"/>
</radialGradient>
<radialGradient id="paint10_radial_692_1672" cx="0" cy="0" r="1" gradientUnits="userSpaceOnUse" gradientTransform="translate(59.0197 17.6024) scale(59.0197 17.6024)">
<stop stop-color="#E1E1E1"/>
<stop offset="1" stop-color="#FFF4DA"/>
</radialGradient>
<radialGradient id="paint11_radial_692_1672" cx="0" cy="0" r="1" gradientUnits="userSpaceOnUse" gradientTransform="translate(59.0197 17.6024) scale(59.0197 17.6024)">
<stop stop-color="#E1E1E1"/>
<stop offset="1" stop-color="#FFF4DA"/>
</radialGradient>
<radialGradient id="paint12_radial_692_1672" cx="0" cy="0" r="1" gradientUnits="userSpaceOnUse" gradientTransform="translate(59.0197 17.6024) scale(59.0197 17.6024)">
<stop stop-color="#E1E1E1"/>
<stop offset="1" stop-color="#FFF4DA"/>
</radialGradient>
<radialGradient id="paint13_radial_692_1672" cx="0" cy="0" r="1" gradientUnits="userSpaceOnUse" gradientTransform="translate(59.0197 17.6024) scale(59.0197 17.6024)">
<stop stop-color="#E1E1E1"/>
<stop offset="1" stop-color="#FFF4DA"/>
</radialGradient>
<radialGradient id="paint14_radial_692_1672" cx="0" cy="0" r="1" gradientUnits="userSpaceOnUse" gradientTransform="translate(59.0197 17.6024) scale(59.0197 17.6024)">
<stop stop-color="#E1E1E1"/>
<stop offset="1" stop-color="#FFF4DA"/>
</radialGradient>
<radialGradient id="paint15_radial_692_1672" cx="0" cy="0" r="1" gradientUnits="userSpaceOnUse" gradientTransform="translate(59.0197 17.6024) scale(59.0197 17.6024)">
<stop stop-color="#E1E1E1"/>
<stop offset="1" stop-color="#FFF4DA"/>
</radialGradient>
<radialGradient id="paint16_radial_692_1672" cx="0" cy="0" r="1" gradientUnits="userSpaceOnUse" gradientTransform="translate(177.059 17.6024) rotate(180) scale(59.0197 17.6024)">
<stop stop-color="#E1E1E1"/>
<stop offset="1" stop-color="#FFF4DA"/>
</radialGradient>
<radialGradient id="paint17_radial_692_1672" cx="0" cy="0" r="1" gradientUnits="userSpaceOnUse" gradientTransform="translate(177.059 17.6024) rotate(180) scale(59.0197 17.6024)">
<stop stop-color="#E1E1E1"/>
<stop offset="1" stop-color="#FFF4DA"/>
</radialGradient>
<radialGradient id="paint18_radial_692_1672" cx="0" cy="0" r="1" gradientUnits="userSpaceOnUse" gradientTransform="translate(177.059 17.6024) rotate(180) scale(59.0197 17.6024)">
<stop stop-color="#E1E1E1"/>
<stop offset="1" stop-color="#FFF4DA"/>
</radialGradient>
<radialGradient id="paint19_radial_692_1672" cx="0" cy="0" r="1" gradientUnits="userSpaceOnUse" gradientTransform="translate(177.059 17.6024) rotate(180) scale(59.0197 17.6024)">
<stop stop-color="#E1E1E1"/>
<stop offset="1" stop-color="#FFF4DA"/>
</radialGradient>
<radialGradient id="paint20_radial_692_1672" cx="0" cy="0" r="1" gradientUnits="userSpaceOnUse" gradientTransform="translate(177.059 17.6024) rotate(180) scale(59.0197 17.6024)">
<stop stop-color="#E1E1E1"/>
<stop offset="1" stop-color="#FFF4DA"/>
</radialGradient>
<radialGradient id="paint21_radial_692_1672" cx="0" cy="0" r="1" gradientUnits="userSpaceOnUse" gradientTransform="translate(177.059 17.6024) rotate(180) scale(59.0197 17.6024)">
<stop stop-color="#E1E1E1"/>
<stop offset="1" stop-color="#FFF4DA"/>
</radialGradient>
<radialGradient id="paint22_radial_692_1672" cx="0" cy="0" r="1" gradientUnits="userSpaceOnUse" gradientTransform="translate(177.059 17.6024) rotate(180) scale(59.0197 17.6024)">
<stop stop-color="#E1E1E1"/>
<stop offset="1" stop-color="#FFF4DA"/>
</radialGradient>
<radialGradient id="paint23_radial_692_1672" cx="0" cy="0" r="1" gradientUnits="userSpaceOnUse" gradientTransform="translate(177.059 17.6024) rotate(180) scale(59.0197 17.6024)">
<stop stop-color="#E1E1E1"/>
<stop offset="1" stop-color="#FFF4DA"/>
</radialGradient>
</defs>
</svg>
