<svg width="237" height="132" viewBox="0 0 237 132" fill="none" xmlns="http://www.w3.org/2000/svg">
<path d="M50.713 108.06C49.3894 108.487 47.9219 108.504 46.7174 107.809C44.5799 106.575 44.1417 105.154 44.5239 102.508V102.508C42.8803 103.056 42.0634 104.953 43.0344 106.388C43.9981 107.812 45.0942 108.974 46.6272 110.246C47.9176 111.316 49.57 111.855 51.2463 111.812C56.4411 111.679 59.0354 110.851 62.1261 108.72C61.1055 110.641 61.1623 111.76 61.9889 113.6C62.061 113.76 62.2573 113.822 62.4081 113.731C64.083 112.73 65.0044 111.892 66.2679 109.756C66.2159 114.032 66.9848 113.977 70.4096 114.933C67.5199 110.86 68.053 109.221 70.1985 106.254C70.9963 105.151 72.1264 104.331 73.4058 103.866L78.5781 101.985C81.3347 100.982 84.3491 100.942 87.1317 101.869L104.174 107.55C104.308 107.435 104.443 107.326 104.579 107.223V104.508C104.579 103.403 105.474 102.508 106.579 102.508H108.791C109.896 102.508 110.791 103.403 110.791 104.508V105.614H111.827V103.472C111.827 102.368 110.931 101.472 109.827 101.472H105.543C104.439 101.472 103.543 102.368 103.543 103.472V106.65C98.7741 103.748 93.5326 101.584 86.7262 99.7769C82.8461 98.747 78.7539 99.0145 74.9333 100.247L50.713 108.06Z" fill="url(#paint0_radial_692_1576)"/>
<path fill-rule="evenodd" clip-rule="evenodd" d="M118.04 111.827V108.721C115.458 105.74 114.164 105.799 111.827 105.614H110.791C108.063 105.589 106.223 105.979 104.579 107.223V107.685L104.174 107.55C103.27 108.327 102.41 109.382 101.473 110.791C94.423 108.167 92.2423 105.859 84.6309 104.117C82.7932 103.696 80.8384 103.854 79.1738 104.739C77.1411 105.82 75.7483 107.075 74.4009 109.235C73.7981 110.201 73.7054 111.42 74.2151 112.438C75.05 114.107 76.2503 115.417 79.1381 117.128C80.1191 117.709 81.351 117.62 82.2789 116.957L86.2804 114.099C87.2189 113.429 87.4133 112.09 86.6216 111.251C84.8307 109.354 83.7232 109.09 81.7994 109.756C83.0247 110.067 83.7478 110.456 84.3965 111.688C84.7601 112.378 84.5523 113.216 84.0005 113.767L82.2759 115.492C81.3711 116.397 79.9668 116.664 78.906 115.948C77.392 114.927 76.4786 113.802 75.488 112.283C74.8942 111.372 74.8544 110.185 75.4804 109.296C77.1885 106.871 79.0768 106.022 82.8348 105.614C87.5143 105.758 93.9739 109.592 101.473 112.862C101.611 115.305 101.827 117.608 105.431 119.531C106.15 119.915 107.027 119.733 107.604 119.156L110.252 116.508C110.55 116.21 110.55 115.727 110.252 115.429V115.429C109.972 115.149 109.522 115.134 109.211 115.381C104.883 118.812 103.35 117.017 102.508 112.862C108.785 113.743 111.601 112.063 112.862 106.65H114.933L118.04 111.827ZM102.508 111.827C105.324 107.593 107.417 106.549 111.827 106.65C109.582 111.782 107.624 113.001 102.508 111.827Z" fill="url(#paint1_radial_692_1576)"/>
<path d="M118.04 114.933V111.827C116.112 115.763 116.189 118.074 110.791 119.075C111.96 121.038 112.806 121.636 114.933 121.146C115.325 125.201 115.718 127.472 118.04 131.5V125.287C116.703 121.107 116.953 118.865 118.04 114.933Z" fill="url(#paint2_radial_692_1576)"/>
<path d="M115.969 98.3662C116.06 94.792 116.696 93.3936 118.04 91.1182V105.614C115.723 100.811 114.342 99.4138 111.827 99.4015C113.365 97.8121 114.277 97.3638 115.969 98.3662Z" fill="url(#paint3_radial_692_1576)"/>
<path d="M185.366 108.06C186.69 108.487 188.157 108.504 189.362 107.809C191.499 106.575 191.937 105.154 191.555 102.508V102.508C193.199 103.056 194.016 104.953 193.045 106.388C192.081 107.812 190.985 108.974 189.452 110.246C188.161 111.316 186.509 111.855 184.833 111.812C179.638 111.679 177.044 110.851 173.953 108.72C174.974 110.641 174.917 111.76 174.09 113.6C174.018 113.76 173.822 113.822 173.671 113.731C171.996 112.73 171.075 111.892 169.811 109.756C169.863 114.032 169.094 113.977 165.669 114.933C168.559 110.86 168.026 109.221 165.881 106.254C165.083 105.151 163.953 104.331 162.673 103.866L157.501 101.985C154.744 100.982 151.73 100.942 148.947 101.869L131.905 107.55C131.771 107.435 131.636 107.326 131.5 107.223V104.508C131.5 103.403 130.605 102.508 129.5 102.508H127.288C126.183 102.508 125.288 103.403 125.288 104.508V105.614H124.252V103.472C124.252 102.368 125.148 101.472 126.252 101.472H130.536C131.64 101.472 132.536 102.368 132.536 103.472V106.65C137.305 103.748 142.547 101.584 149.353 99.7769C153.233 98.747 157.325 99.0145 161.146 100.247L185.366 108.06Z" fill="url(#paint4_radial_692_1576)"/>
<path fill-rule="evenodd" clip-rule="evenodd" d="M118.04 111.827V108.721C120.621 105.74 121.915 105.799 124.252 105.614H125.288C128.016 105.589 129.856 105.979 131.5 107.223V107.685L131.905 107.55C132.809 108.327 133.669 109.382 134.607 110.791C141.656 108.167 143.837 105.859 151.448 104.117C153.286 103.696 155.241 103.854 156.905 104.739C158.938 105.82 160.331 107.075 161.678 109.235C162.281 110.201 162.374 111.42 161.864 112.438C161.029 114.107 159.829 115.417 156.941 117.128C155.96 117.709 154.728 117.62 153.8 116.957L149.799 114.099C148.86 113.429 148.666 112.09 149.457 111.251C151.248 109.354 152.356 109.09 154.28 109.756C153.054 110.067 152.331 110.456 151.683 111.688C151.319 112.378 151.527 113.216 152.079 113.767L153.803 115.492C154.708 116.397 156.112 116.664 157.173 115.948C158.687 114.927 159.601 113.802 160.591 112.283C161.185 111.372 161.225 110.185 160.599 109.296C158.891 106.871 157.002 106.022 153.244 105.614C148.565 105.758 142.105 109.592 134.607 112.862C134.468 115.305 134.252 117.608 130.648 119.531C129.929 119.915 129.052 119.733 128.475 119.156L125.827 116.508C125.529 116.21 125.529 115.727 125.827 115.429V115.429C126.107 115.149 126.557 115.134 126.868 115.381C131.196 118.812 132.729 117.017 133.571 112.862C127.294 113.743 124.479 112.063 123.217 106.65H121.146L118.04 111.827ZM133.571 111.827C130.755 107.593 128.662 106.549 124.252 106.65C126.497 111.782 128.455 113.001 133.571 111.827Z" fill="url(#paint5_radial_692_1576)"/>
<path d="M118.04 114.933V111.827C119.967 115.763 119.89 118.074 125.288 119.075C124.119 121.038 123.273 121.636 121.146 121.146C120.755 125.201 120.362 127.472 118.04 131.5V125.287C119.376 121.107 119.126 118.865 118.04 114.933Z" fill="url(#paint6_radial_692_1576)"/>
<path d="M120.11 98.3662C120.019 94.792 119.383 93.3936 118.04 91.1182V105.614C120.356 100.811 121.737 99.4138 124.252 99.4015C122.714 97.8121 121.802 97.3638 120.11 98.3662Z" fill="url(#paint7_radial_692_1576)"/>
<path d="M76.8789 46.8125C77.5378 46.8268 78.2539 46.8411 79.0273 46.8555C79.8008 46.8555 80.6315 46.8555 81.5195 46.8555C82.4935 46.8555 83.3242 46.8411 84.0117 46.8125C84.6992 46.7839 85.2292 46.7552 85.6016 46.7266C86.0599 46.6979 86.6829 46.6478 87.4707 46.5762C88.2728 46.5046 89.0247 46.4401 89.7266 46.3828C89.7839 46.4115 89.8268 46.6335 89.8555 47.0488C89.8841 47.4642 89.8841 47.7148 89.8555 47.8008C89.8268 47.9154 88.1797 49.9635 84.9141 53.9453C81.6484 57.9128 78.3828 61.8659 75.1172 65.8047L70.2617 71.7344C70.0326 71.9779 69.918 72.2214 69.918 72.4648C69.918 72.694 70.0612 72.8086 70.3477 72.8086H79.3711C80.1016 72.8086 80.8464 72.694 81.6055 72.4648C82.3789 72.2214 82.9661 71.8776 83.3672 71.4336C83.4818 71.3047 83.582 71.1901 83.668 71.0898C83.7682 70.9896 83.8542 70.9036 83.9258 70.832C84.069 70.6888 84.2266 70.4668 84.3984 70.166C84.513 69.9655 84.6777 69.6432 84.8926 69.1992C85.1074 68.7552 85.2148 68.5117 85.2148 68.4688C85.3008 68.2396 85.6875 68.125 86.375 68.125C86.6758 68.125 86.8763 68.2109 86.9766 68.3828C86.4753 69.6146 86.0169 70.7819 85.6016 71.8848C85.2005 72.9876 84.8424 74.026 84.5273 75H64.7188C64.6042 74.7995 64.5469 74.556 64.5469 74.2695C64.5469 73.7969 64.6615 73.4245 64.8906 73.1523L84.9141 48.875H79.6719C79.3854 48.875 79.1061 48.875 78.834 48.875C78.5618 48.875 78.2969 48.8822 78.0391 48.8965C77.638 48.9108 77.2656 48.918 76.9219 48.918C76.5781 48.918 76.3633 48.918 76.2773 48.918C75.0599 48.9323 74.0788 49.1042 73.334 49.4336C72.6035 49.7487 71.9733 50.2858 71.4434 51.0449C70.9277 51.804 70.362 52.8568 69.7461 54.2031C69.6602 54.3177 69.5169 54.375 69.3164 54.375C68.8008 54.375 68.4141 54.2461 68.1562 53.9883C68.3424 53.487 68.6361 52.6061 69.0371 51.3457C69.4382 50.0853 69.9466 48.4453 70.5625 46.4258C70.6914 46.4688 71.0423 46.5117 71.6152 46.5547C72.1882 46.5977 72.8398 46.6406 73.5703 46.6836C74.3008 46.7266 74.974 46.7624 75.5898 46.791C76.2201 46.8053 76.6497 46.8125 76.8789 46.8125ZM94.625 56.3086C95.0833 56.3086 95.4414 56.5163 95.6992 56.9316C95.957 57.347 96.0859 57.8841 96.0859 58.543C96.0859 59.3021 96 60.0612 95.8281 60.8203L94.3242 67.9102C94.1237 68.7839 94.0234 69.5573 94.0234 70.2305C94.0234 71.4622 94.2956 72.0781 94.8398 72.0781C95.1549 72.0781 95.5417 71.8991 96 71.541C96.4727 71.1829 96.9596 70.7246 97.4609 70.166C97.9766 69.6074 98.4564 69.0345 98.9004 68.4473C99.7168 67.373 100.49 66.0625 101.221 64.5156C101.951 62.9688 102.46 61.4362 102.746 59.918L103.477 56.5664C103.863 56.4518 104.307 56.3945 104.809 56.3945C105.296 56.3945 105.783 56.4518 106.27 56.5664L103.605 70.4453C103.52 70.7891 103.477 71.1471 103.477 71.5195C103.477 72.2357 103.62 72.5938 103.906 72.5938C104.264 72.5938 104.694 72.3431 105.195 71.8418C105.697 71.3262 106.126 70.8893 106.484 70.5312L106.742 70.2305C106.799 70.2305 106.907 70.3665 107.064 70.6387C107.222 70.9108 107.301 71.1042 107.301 71.2188C107.057 71.6341 106.613 72.1641 105.969 72.8086C105.339 73.4531 104.651 74.026 103.906 74.5273C103.161 75.0143 102.488 75.2578 101.887 75.2578C101.428 75.2578 101.07 75.0501 100.812 74.6348C100.555 74.2194 100.426 73.6823 100.426 73.0234C100.426 72.5938 100.526 71.8346 100.727 70.7461L101.5 66.793C101.228 67.3086 100.641 68.1966 99.7383 69.457C99.151 70.2734 98.4421 71.1328 97.6113 72.0352C96.7949 72.9375 95.9785 73.7038 95.1621 74.334C94.3457 74.9499 93.651 75.2578 93.0781 75.2578C91.6458 75.2578 90.9297 74.3125 90.9297 72.4219C90.9297 71.0755 91.1302 69.5143 91.5312 67.7383L92.8203 61.7656C92.9635 60.7773 93.0352 60.2044 93.0352 60.0469C93.0352 59.3307 92.8919 58.9727 92.6055 58.9727C92.362 58.9727 91.9967 59.2018 91.5098 59.6602C91.2806 59.8893 91.0299 60.14 90.7578 60.4121C90.5 60.6842 90.3281 60.8776 90.2422 60.9922C90.1849 60.9922 90.0775 60.8561 89.9199 60.584C89.7624 60.3118 89.6836 60.1185 89.6836 60.0039C89.9128 59.6172 90.3281 59.1374 90.9297 58.5645C91.5312 57.9772 92.1758 57.4544 92.8633 56.9961C93.5508 56.5378 94.138 56.3086 94.625 56.3086ZM123.715 56.3086C124.488 56.3086 125.083 56.5378 125.498 56.9961C125.913 57.4544 126.164 57.9342 126.25 58.4355C126.336 58.9368 126.379 59.5885 126.379 60.3906C126.379 60.9206 126.178 62.1953 125.777 64.2148C126.25 63.3984 126.837 62.5319 127.539 61.6152C128.241 60.6986 128.979 59.8392 129.752 59.0371C130.525 58.235 131.27 57.5833 131.986 57.082C132.702 56.5664 133.311 56.3086 133.812 56.3086C134.758 56.3086 135.402 56.5449 135.746 57.0176C136.09 57.4902 136.262 58.1992 136.262 59.1445C136.262 60.4766 136.061 62.0378 135.66 63.8281L134.242 70.4453C134.156 70.7891 134.113 71.1471 134.113 71.5195C134.113 72.2357 134.257 72.5938 134.543 72.5938C134.901 72.5938 135.331 72.3431 135.832 71.8418C136.333 71.3262 136.763 70.8893 137.121 70.5312L137.379 70.2305C137.436 70.2305 137.544 70.3665 137.701 70.6387C137.859 70.9108 137.938 71.1042 137.938 71.2188C137.694 71.6341 137.25 72.1641 136.605 72.8086C135.975 73.4531 135.288 74.026 134.543 74.5273C133.798 75.0143 133.125 75.2578 132.523 75.2578C132.065 75.2578 131.707 75.0501 131.449 74.6348C131.191 74.2194 131.062 73.6823 131.062 73.0234C131.062 72.5938 131.163 71.8346 131.363 70.7461L132.867 63.6562C133.068 62.6823 133.168 61.9089 133.168 61.3359C133.168 60.8346 133.125 60.4049 133.039 60.0469C132.967 59.6745 132.738 59.4883 132.352 59.4883C131.865 59.4883 131.227 59.832 130.439 60.5195C129.666 61.207 128.864 62.1165 128.033 63.248C127.202 64.3652 126.458 65.597 125.799 66.9434C125.14 68.2754 124.689 69.6003 124.445 70.918L123.672 75H120.793L123.199 62.7969C123.314 62.1523 123.371 61.6081 123.371 61.1641C123.371 60.0469 123.085 59.4883 122.512 59.4883C122.01 59.4883 121.373 59.8678 120.6 60.627C119.826 61.3861 119.031 62.3672 118.215 63.5703C117.398 64.7734 116.668 66.0553 116.023 67.416C115.379 68.7624 114.935 70.0299 114.691 71.2188L113.918 75C113.116 75.1146 112.629 75.1719 112.457 75.1719C112.314 75.1719 111.841 75.1146 111.039 75L113.617 61.7656C113.76 60.7773 113.832 60.2044 113.832 60.0469C113.832 59.3307 113.689 58.9727 113.402 58.9727C113.159 58.9727 112.794 59.2018 112.307 59.6602C112.077 59.8893 111.827 60.14 111.555 60.4121C111.297 60.6842 111.125 60.8776 111.039 60.9922C110.982 60.9922 110.874 60.8561 110.717 60.584C110.559 60.3118 110.48 60.1185 110.48 60.0039C110.71 59.6172 111.125 59.1374 111.727 58.5645C112.328 57.9772 112.973 57.4544 113.66 56.9961C114.348 56.5378 114.935 56.3086 115.422 56.3086C115.88 56.3086 116.238 56.5163 116.496 56.9316C116.754 57.347 116.883 57.8841 116.883 58.543C116.883 59.1732 116.797 59.9323 116.625 60.8203L115.852 64.8164C116.382 63.8997 116.99 62.9473 117.678 61.959C118.38 60.9707 119.096 60.0469 119.826 59.1875C120.571 58.3281 121.28 57.6335 121.953 57.1035C122.626 56.5736 123.214 56.3086 123.715 56.3086ZM152.59 56.3086C153.65 56.3086 154.695 56.4948 155.727 56.8672L153.105 70.4453C153.02 70.7891 152.977 71.1471 152.977 71.5195C152.977 72.2357 153.12 72.5938 153.406 72.5938C153.764 72.5938 154.194 72.3431 154.695 71.8418C155.197 71.3262 155.626 70.8893 155.984 70.5312L156.242 70.2305C156.299 70.2305 156.407 70.3665 156.564 70.6387C156.722 70.9108 156.801 71.1042 156.801 71.2188C156.557 71.6341 156.113 72.1641 155.469 72.8086C154.839 73.4531 154.151 74.026 153.406 74.5273C152.661 75.0143 151.988 75.2578 151.387 75.2578C150.928 75.2578 150.57 75.0501 150.312 74.6348C150.055 74.2194 149.926 73.6823 149.926 73.0234C149.926 72.5794 150.026 71.8203 150.227 70.7461L150.377 69.9941C150.42 69.7936 150.441 69.6719 150.441 69.6289C150.212 70.0586 149.883 70.5885 149.453 71.2188C149.023 71.8346 148.529 72.4505 147.971 73.0664C147.412 73.6823 146.825 74.1979 146.209 74.6133C145.593 75.0143 144.984 75.2148 144.383 75.2148C143.122 75.2148 142.127 74.6491 141.396 73.5176C140.666 72.3861 140.301 71.0182 140.301 69.4141C140.301 67.3659 140.91 65.3249 142.127 63.291C142.943 61.916 143.917 60.7057 145.049 59.6602C146.195 58.6146 147.419 57.7982 148.723 57.2109C150.026 56.6094 151.315 56.3086 152.59 56.3086ZM150.785 58.2852C149.94 58.2852 149.088 58.5859 148.229 59.1875C147.369 59.7747 146.581 60.5697 145.865 61.5723C145.149 62.5605 144.569 63.6634 144.125 64.8809C143.695 66.084 143.48 67.2943 143.48 68.5117C143.48 71.319 144.211 72.7227 145.672 72.7227C146.188 72.7227 146.746 72.4362 147.348 71.8633C147.949 71.2904 148.544 70.5312 149.131 69.5859C149.718 68.6406 150.234 67.6165 150.678 66.5137C151.136 65.3965 151.473 64.3008 151.688 63.2266L152.547 58.8438C152.203 58.4714 151.616 58.2852 150.785 58.2852ZM165.309 56.3086C165.767 56.3086 166.125 56.5163 166.383 56.9316C166.641 57.347 166.77 57.8841 166.77 58.543C166.77 59.1732 166.684 59.9323 166.512 60.8203L165.824 64.4297C166.182 63.5846 166.641 62.6966 167.199 61.7656C167.772 60.8203 168.381 59.9323 169.025 59.1016C169.67 58.2708 170.307 57.5977 170.938 57.082C171.568 56.5664 172.126 56.3086 172.613 56.3086C173.587 56.3086 174.375 56.7669 174.977 57.6836C174.977 59.6029 174.447 60.5625 173.387 60.5625C173.158 60.5625 172.885 60.3835 172.57 60.0254C172.255 59.6673 171.926 59.4883 171.582 59.4883C171.167 59.4883 170.622 59.832 169.949 60.5195C169.276 61.207 168.581 62.1094 167.865 63.2266C167.149 64.3294 166.505 65.5254 165.932 66.8145C165.359 68.0892 164.965 69.3138 164.75 70.4883L163.934 75C163.447 75.0859 162.974 75.1289 162.516 75.1289C161.971 75.1289 161.441 75.0859 160.926 75L163.504 61.7656C163.647 60.7773 163.719 60.2044 163.719 60.0469C163.719 59.3307 163.576 58.9727 163.289 58.9727C163.046 58.9727 162.68 59.2018 162.193 59.6602C161.964 59.8893 161.714 60.14 161.441 60.4121C161.184 60.6842 161.012 60.8776 160.926 60.9922C160.868 60.9922 160.761 60.8561 160.604 60.584C160.446 60.3118 160.367 60.1185 160.367 60.0039C160.596 59.6172 161.012 59.1374 161.613 58.5645C162.215 57.9772 162.859 57.4544 163.547 56.9961C164.234 56.5378 164.822 56.3086 165.309 56.3086Z" fill="white"/>
<path d="M0 14.4961C6.30012 20.0984 15.0791 19.1979 30.687 15.1421C32.2497 14.736 33.9168 14.9601 35.3059 15.7832L61.0905 31.063L35.3304 19.6141C33.9205 18.9874 32.3183 18.9353 30.8588 19.4358C12.5496 25.7159 4.73674 24.7283 0 14.4961Z" fill="url(#paint8_radial_692_1576)"/>
<path d="M16.5669 25.8858C22.7094 27.5488 34.4861 19.1752 43.5027 24.2129C35.7991 20.3448 24.9274 34.7378 16.5669 25.8858Z" fill="url(#paint9_radial_692_1576)"/>
<path d="M42.4528 34.1693C40.4746 32.9379 39.8039 31.791 39.5364 30.2054C39.314 28.8871 40.2138 27.6374 41.514 27.3262C46.4064 26.1551 49.6595 27.3172 54.8779 31.063C50.3759 26.3362 46.8249 25.2844 39.6469 25.78C38.7972 25.8387 38.0191 26.2751 37.5081 26.9564L36.1669 28.7446C35.6047 29.4943 35.6307 30.5432 36.2784 31.2205C38.4425 33.4837 39.9798 34.1156 42.4528 34.1693Z" fill="url(#paint10_radial_692_1576)"/>
<path d="M61.0905 28.9921C48.8725 19.5072 53.131 18.6378 60.0551 10.3543C56.6285 8.93238 54.8937 8.83857 52.8071 12.4252C51.2879 8.29387 49.7783 6.42726 45.559 4.14173C43.8524 8.52031 44.6321 10.6991 46.5945 14.4961C42.9378 12.0347 40.7471 11.3823 36.2402 13.4606C46.3046 17.727 45.2926 18.8748 61.0905 28.9921Z" fill="url(#paint11_radial_692_1576)"/>
<path d="M78.6929 22.7441C78.6929 22.1918 79.1406 21.7441 79.6929 21.7441H79.7638C80.3161 21.7441 80.7638 22.1918 80.7638 22.7441V25.9213C80.7638 26.4735 80.3161 26.9213 79.7638 26.9213H74.4803C73.3757 26.9213 72.4803 26.0258 72.4803 24.9213V19.6024C72.4803 18.4978 73.3757 17.6024 74.4803 17.6024H78.7281C80.6137 17.6024 82.4755 18.023 84.178 18.8337V18.8337C85.2965 19.3663 86.1249 20.3629 86.4441 21.5599L88.3399 28.6695C89.2063 31.9182 86.6836 35.0788 83.3237 34.9544L68.0679 34.3894C64.7776 34.2675 62.2002 31.5169 62.2923 28.2256L62.6948 13.8426C62.7856 10.5955 65.4441 8.01038 68.6924 8.01038H83.0387C86.0229 8.01038 88.8896 9.21712 90.915 11.4088C101.807 23.194 109.097 33.3225 115.395 32.2299C115.685 32.1796 115.968 32.3916 115.968 32.686V32.686C115.968 32.9325 115.766 33.1318 115.519 33.1285C109.37 33.045 105.37 32.4313 87.653 13.254C86.5367 12.0456 85.0793 11.1983 83.4735 10.8414L77.8584 9.59364C77.0431 9.41248 76.199 9.4035 75.3801 9.56728L71.091 10.4251C68.2865 10.986 66.2677 13.4485 66.2677 16.3086V27.0984C66.2677 29.8599 68.5063 32.0984 71.2677 32.0984H80.9055C83.1146 32.0984 84.9055 30.3076 84.9055 28.0984V22.6378C84.9055 20.4287 83.1146 18.6378 80.9055 18.6378H76.5512C75.4466 18.6378 74.5512 19.5332 74.5512 20.6378V24.8858C74.5512 25.4381 74.9989 25.8858 75.5512 25.8858H77.6929C78.2452 25.8858 78.6929 25.4381 78.6929 24.8858V22.7441Z" fill="url(#paint12_radial_692_1576)"/>
<path d="M104.412 33.0631C96.4743 29.9513 88.3242 12.4066 78.6929 13.4606C91.6665 19.2326 92.9183 31.4785 104.412 33.0631Z" fill="url(#paint13_radial_692_1576)"/>
<path d="M111.827 30.0276C106.485 21.6827 106.361 16.9143 110.791 8.28346C105.363 9.71409 97.6256 19.5114 111.827 30.0276Z" fill="url(#paint14_radial_692_1576)"/>
<path d="M118.039 10.3543C113.102 14.0549 110.405 23.2793 118.039 32.0984C106.33 25.6888 109.793 12.7713 118.039 0V10.3543Z" fill="url(#paint15_radial_692_1576)"/>
<path d="M236.079 14.4961C229.778 20.0984 221 19.1979 205.392 15.1421C203.829 14.736 202.162 14.9601 200.773 15.7832L174.988 31.063L200.748 19.6141C202.158 18.9874 203.76 18.9353 205.22 19.4358C223.529 25.7159 231.342 24.7283 236.079 14.4961Z" fill="url(#paint16_radial_692_1576)"/>
<path d="M219.512 25.8858C213.369 27.5488 201.593 19.1752 192.576 24.2129C200.279 20.3448 211.151 34.7378 219.512 25.8858Z" fill="url(#paint17_radial_692_1576)"/>
<path d="M193.626 34.1693C195.604 32.9379 196.275 31.791 196.542 30.2054C196.765 28.8871 195.865 27.6374 194.565 27.3262C189.672 26.1551 186.419 27.3172 181.201 31.063C185.703 26.3362 189.254 25.2844 196.432 25.78C197.281 25.8387 198.06 26.2751 198.571 26.9564L199.912 28.7446C200.474 29.4943 200.448 30.5432 199.8 31.2205C197.636 33.4837 196.099 34.1156 193.626 34.1693Z" fill="url(#paint18_radial_692_1576)"/>
<path d="M174.988 28.9921C187.206 19.5072 182.948 18.6378 176.024 10.3543C179.45 8.93238 181.185 8.83857 183.272 12.4252C184.791 8.29387 186.3 6.42726 190.52 4.14173C192.226 8.52031 191.446 10.6991 189.484 14.4961C193.141 12.0347 195.331 11.3823 199.838 13.4606C189.774 17.727 190.786 18.8748 174.988 28.9921Z" fill="url(#paint19_radial_692_1576)"/>
<path d="M157.386 22.7441C157.386 22.1918 156.938 21.7441 156.386 21.7441H156.315C155.763 21.7441 155.315 22.1918 155.315 22.7441V25.9213C155.315 26.4735 155.763 26.9213 156.315 26.9213H161.598C162.703 26.9213 163.598 26.0258 163.598 24.9213V19.6024C163.598 18.4978 162.703 17.6024 161.598 17.6024H157.351C155.465 17.6024 153.603 18.023 151.901 18.8337V18.8337C150.782 19.3663 149.954 20.3629 149.635 21.5599L147.739 28.6695C146.872 31.9182 149.395 35.0788 152.755 34.9544L168.011 34.3894C171.301 34.2675 173.878 31.5169 173.786 28.2256L173.384 13.8426C173.293 10.5955 170.635 8.01038 167.386 8.01038H153.04C150.056 8.01038 147.189 9.21712 145.164 11.4088C134.272 23.194 126.982 33.3225 120.683 32.2299C120.393 32.1796 120.11 32.3916 120.11 32.686V32.686C120.11 32.9325 120.313 33.1318 120.559 33.1285C126.708 33.045 130.709 32.4313 148.426 13.254C149.542 12.0456 150.999 11.1983 152.605 10.8414L158.22 9.59364C159.035 9.41248 159.88 9.4035 160.698 9.56728L164.988 10.4251C167.792 10.986 169.811 13.4485 169.811 16.3086V27.0984C169.811 29.8599 167.572 32.0984 164.811 32.0984H155.173C152.964 32.0984 151.173 30.3076 151.173 28.0984V22.6378C151.173 20.4287 152.964 18.6378 155.173 18.6378H159.527C160.632 18.6378 161.527 19.5332 161.527 20.6378V24.8858C161.527 25.4381 161.08 25.8858 160.527 25.8858H158.386C157.833 25.8858 157.386 25.4381 157.386 24.8858V22.7441Z" fill="url(#paint20_radial_692_1576)"/>
<path d="M131.666 33.0631C139.604 29.9513 147.754 12.4066 157.386 13.4606C144.412 19.2326 143.16 31.4785 131.666 33.0631Z" fill="url(#paint21_radial_692_1576)"/>
<path d="M124.252 30.0276C129.594 21.6827 129.718 16.9143 125.287 8.28346C130.716 9.71409 138.453 19.5114 124.252 30.0276Z" fill="url(#paint22_radial_692_1576)"/>
<path d="M118.039 10.3543C122.976 14.0549 125.673 23.2793 118.039 32.0984C129.749 25.6888 126.286 12.7713 118.039 0V10.3543Z" fill="url(#paint23_radial_692_1576)"/>
<defs>
<radialGradient id="paint0_radial_692_1576" cx="0" cy="0" r="1" gradientUnits="userSpaceOnUse" gradientTransform="translate(79.7285 111.309) scale(38.311 20.1909)">
<stop stop-color="#E1E1E1"/>
<stop offset="1" stop-color="#FFF4DA"/>
</radialGradient>
<radialGradient id="paint1_radial_692_1576" cx="0" cy="0" r="1" gradientUnits="userSpaceOnUse" gradientTransform="translate(79.7285 111.309) scale(38.311 20.1909)">
<stop stop-color="#E1E1E1"/>
<stop offset="1" stop-color="#FFF4DA"/>
</radialGradient>
<radialGradient id="paint2_radial_692_1576" cx="0" cy="0" r="1" gradientUnits="userSpaceOnUse" gradientTransform="translate(79.7285 111.309) scale(38.311 20.1909)">
<stop stop-color="#E1E1E1"/>
<stop offset="1" stop-color="#FFF4DA"/>
</radialGradient>
<radialGradient id="paint3_radial_692_1576" cx="0" cy="0" r="1" gradientUnits="userSpaceOnUse" gradientTransform="translate(79.7285 111.309) scale(38.311 20.1909)">
<stop stop-color="#E1E1E1"/>
<stop offset="1" stop-color="#FFF4DA"/>
</radialGradient>
<radialGradient id="paint4_radial_692_1576" cx="0" cy="0" r="1" gradientUnits="userSpaceOnUse" gradientTransform="translate(156.351 111.309) rotate(180) scale(38.311 20.1909)">
<stop stop-color="#E1E1E1"/>
<stop offset="1" stop-color="#FFF4DA"/>
</radialGradient>
<radialGradient id="paint5_radial_692_1576" cx="0" cy="0" r="1" gradientUnits="userSpaceOnUse" gradientTransform="translate(156.351 111.309) rotate(180) scale(38.311 20.1909)">
<stop stop-color="#E1E1E1"/>
<stop offset="1" stop-color="#FFF4DA"/>
</radialGradient>
<radialGradient id="paint6_radial_692_1576" cx="0" cy="0" r="1" gradientUnits="userSpaceOnUse" gradientTransform="translate(156.351 111.309) rotate(180) scale(38.311 20.1909)">
<stop stop-color="#E1E1E1"/>
<stop offset="1" stop-color="#FFF4DA"/>
</radialGradient>
<radialGradient id="paint7_radial_692_1576" cx="0" cy="0" r="1" gradientUnits="userSpaceOnUse" gradientTransform="translate(156.351 111.309) rotate(180) scale(38.311 20.1909)">
<stop stop-color="#E1E1E1"/>
<stop offset="1" stop-color="#FFF4DA"/>
</radialGradient>
<radialGradient id="paint8_radial_692_1576" cx="0" cy="0" r="1" gradientUnits="userSpaceOnUse" gradientTransform="translate(59.0197 17.6024) scale(59.0197 17.6024)">
<stop stop-color="#E1E1E1"/>
<stop offset="1" stop-color="#FFF4DA"/>
</radialGradient>
<radialGradient id="paint9_radial_692_1576" cx="0" cy="0" r="1" gradientUnits="userSpaceOnUse" gradientTransform="translate(59.0197 17.6024) scale(59.0197 17.6024)">
<stop stop-color="#E1E1E1"/>
<stop offset="1" stop-color="#FFF4DA"/>
</radialGradient>
<radialGradient id="paint10_radial_692_1576" cx="0" cy="0" r="1" gradientUnits="userSpaceOnUse" gradientTransform="translate(59.0197 17.6024) scale(59.0197 17.6024)">
<stop stop-color="#E1E1E1"/>
<stop offset="1" stop-color="#FFF4DA"/>
</radialGradient>
<radialGradient id="paint11_radial_692_1576" cx="0" cy="0" r="1" gradientUnits="userSpaceOnUse" gradientTransform="translate(59.0197 17.6024) scale(59.0197 17.6024)">
<stop stop-color="#E1E1E1"/>
<stop offset="1" stop-color="#FFF4DA"/>
</radialGradient>
<radialGradient id="paint12_radial_692_1576" cx="0" cy="0" r="1" gradientUnits="userSpaceOnUse" gradientTransform="translate(59.0197 17.6024) scale(59.0197 17.6024)">
<stop stop-color="#E1E1E1"/>
<stop offset="1" stop-color="#FFF4DA"/>
</radialGradient>
<radialGradient id="paint13_radial_692_1576" cx="0" cy="0" r="1" gradientUnits="userSpaceOnUse" gradientTransform="translate(59.0197 17.6024) scale(59.0197 17.6024)">
<stop stop-color="#E1E1E1"/>
<stop offset="1" stop-color="#FFF4DA"/>
</radialGradient>
<radialGradient id="paint14_radial_692_1576" cx="0" cy="0" r="1" gradientUnits="userSpaceOnUse" gradientTransform="translate(59.0197 17.6024) scale(59.0197 17.6024)">
<stop stop-color="#E1E1E1"/>
<stop offset="1" stop-color="#FFF4DA"/>
</radialGradient>
<radialGradient id="paint15_radial_692_1576" cx="0" cy="0" r="1" gradientUnits="userSpaceOnUse" gradientTransform="translate(59.0197 17.6024) scale(59.0197 17.6024)">
<stop stop-color="#E1E1E1"/>
<stop offset="1" stop-color="#FFF4DA"/>
</radialGradient>
<radialGradient id="paint16_radial_692_1576" cx="0" cy="0" r="1" gradientUnits="userSpaceOnUse" gradientTransform="translate(177.059 17.6024) rotate(180) scale(59.0197 17.6024)">
<stop stop-color="#E1E1E1"/>
<stop offset="1" stop-color="#FFF4DA"/>
</radialGradient>
<radialGradient id="paint17_radial_692_1576" cx="0" cy="0" r="1" gradientUnits="userSpaceOnUse" gradientTransform="translate(177.059 17.6024) rotate(180) scale(59.0197 17.6024)">
<stop stop-color="#E1E1E1"/>
<stop offset="1" stop-color="#FFF4DA"/>
</radialGradient>
<radialGradient id="paint18_radial_692_1576" cx="0" cy="0" r="1" gradientUnits="userSpaceOnUse" gradientTransform="translate(177.059 17.6024) rotate(180) scale(59.0197 17.6024)">
<stop stop-color="#E1E1E1"/>
<stop offset="1" stop-color="#FFF4DA"/>
</radialGradient>
<radialGradient id="paint19_radial_692_1576" cx="0" cy="0" r="1" gradientUnits="userSpaceOnUse" gradientTransform="translate(177.059 17.6024) rotate(180) scale(59.0197 17.6024)">
<stop stop-color="#E1E1E1"/>
<stop offset="1" stop-color="#FFF4DA"/>
</radialGradient>
<radialGradient id="paint20_radial_692_1576" cx="0" cy="0" r="1" gradientUnits="userSpaceOnUse" gradientTransform="translate(177.059 17.6024) rotate(180) scale(59.0197 17.6024)">
<stop stop-color="#E1E1E1"/>
<stop offset="1" stop-color="#FFF4DA"/>
</radialGradient>
<radialGradient id="paint21_radial_692_1576" cx="0" cy="0" r="1" gradientUnits="userSpaceOnUse" gradientTransform="translate(177.059 17.6024) rotate(180) scale(59.0197 17.6024)">
<stop stop-color="#E1E1E1"/>
<stop offset="1" stop-color="#FFF4DA"/>
</radialGradient>
<radialGradient id="paint22_radial_692_1576" cx="0" cy="0" r="1" gradientUnits="userSpaceOnUse" gradientTransform="translate(177.059 17.6024) rotate(180) scale(59.0197 17.6024)">
<stop stop-color="#E1E1E1"/>
<stop offset="1" stop-color="#FFF4DA"/>
</radialGradient>
<radialGradient id="paint23_radial_692_1576" cx="0" cy="0" r="1" gradientUnits="userSpaceOnUse" gradientTransform="translate(177.059 17.6024) rotate(180) scale(59.0197 17.6024)">
<stop stop-color="#E1E1E1"/>
<stop offset="1" stop-color="#FFF4DA"/>
</radialGradient>
</defs>
</svg>
