<svg width="237" height="132" viewBox="0 0 237 132" fill="none" xmlns="http://www.w3.org/2000/svg">
<path d="M50.713 108.06C49.3894 108.487 47.9219 108.504 46.7174 107.809C44.5799 106.575 44.1417 105.154 44.5239 102.508V102.508C42.8803 103.056 42.0634 104.953 43.0344 106.388C43.9981 107.812 45.0942 108.974 46.6272 110.246C47.9176 111.316 49.57 111.855 51.2463 111.812C56.4411 111.679 59.0354 110.851 62.1261 108.72C61.1055 110.641 61.1623 111.76 61.9889 113.6C62.061 113.76 62.2573 113.822 62.4081 113.731C64.083 112.73 65.0044 111.892 66.2679 109.756C66.2159 114.032 66.9848 113.977 70.4096 114.933C67.5199 110.86 68.053 109.221 70.1985 106.254C70.9963 105.151 72.1264 104.331 73.4058 103.866L78.5781 101.985C81.3347 100.982 84.3491 100.942 87.1317 101.869L104.174 107.55C104.308 107.435 104.443 107.326 104.579 107.223V104.508C104.579 103.403 105.474 102.508 106.579 102.508H108.791C109.896 102.508 110.791 103.403 110.791 104.508V105.614H111.827V103.472C111.827 102.368 110.931 101.472 109.827 101.472H105.543C104.439 101.472 103.543 102.368 103.543 103.472V106.65C98.7741 103.748 93.5326 101.584 86.7262 99.7769C82.8461 98.747 78.7539 99.0145 74.9333 100.247L50.713 108.06Z" fill="url(#paint0_radial_692_1938)"/>
<path fill-rule="evenodd" clip-rule="evenodd" d="M118.04 111.827V108.721C115.458 105.74 114.164 105.799 111.827 105.614H110.791C108.063 105.589 106.223 105.979 104.579 107.223V107.685L104.174 107.55C103.27 108.327 102.41 109.382 101.473 110.791C94.423 108.167 92.2423 105.859 84.6309 104.117C82.7932 103.696 80.8384 103.854 79.1738 104.739C77.1411 105.82 75.7483 107.075 74.4009 109.235C73.7981 110.201 73.7054 111.42 74.2151 112.438C75.05 114.107 76.2503 115.417 79.1381 117.128C80.1191 117.709 81.351 117.62 82.2789 116.957L86.2804 114.099C87.2189 113.429 87.4133 112.09 86.6216 111.251C84.8307 109.354 83.7232 109.09 81.7994 109.756C83.0247 110.067 83.7478 110.456 84.3965 111.688C84.7601 112.378 84.5523 113.216 84.0005 113.767L82.2759 115.492C81.3711 116.397 79.9668 116.664 78.906 115.948C77.392 114.927 76.4786 113.802 75.488 112.283C74.8942 111.372 74.8544 110.185 75.4804 109.296C77.1885 106.871 79.0768 106.022 82.8348 105.614C87.5143 105.758 93.9739 109.592 101.473 112.862C101.611 115.305 101.827 117.608 105.431 119.531C106.15 119.915 107.027 119.733 107.604 119.156L110.252 116.508C110.55 116.21 110.55 115.727 110.252 115.429V115.429C109.972 115.149 109.522 115.134 109.211 115.381C104.883 118.812 103.35 117.017 102.508 112.862C108.785 113.743 111.601 112.063 112.862 106.65H114.933L118.04 111.827ZM102.508 111.827C105.324 107.593 107.417 106.549 111.827 106.65C109.582 111.782 107.624 113.001 102.508 111.827Z" fill="url(#paint1_radial_692_1938)"/>
<path d="M118.04 114.933V111.827C116.112 115.763 116.189 118.074 110.791 119.075C111.96 121.038 112.806 121.636 114.933 121.146C115.325 125.201 115.718 127.472 118.04 131.5V125.287C116.703 121.107 116.953 118.865 118.04 114.933Z" fill="url(#paint2_radial_692_1938)"/>
<path d="M115.969 98.3662C116.06 94.792 116.696 93.3936 118.04 91.1182V105.614C115.723 100.811 114.342 99.4138 111.827 99.4015C113.365 97.8121 114.277 97.3638 115.969 98.3662Z" fill="url(#paint3_radial_692_1938)"/>
<path d="M185.366 108.06C186.69 108.487 188.157 108.504 189.362 107.809C191.499 106.575 191.937 105.154 191.555 102.508V102.508C193.199 103.056 194.016 104.953 193.045 106.388C192.081 107.812 190.985 108.974 189.452 110.246C188.161 111.316 186.509 111.855 184.833 111.812C179.638 111.679 177.044 110.851 173.953 108.72C174.974 110.641 174.917 111.76 174.09 113.6C174.018 113.76 173.822 113.822 173.671 113.731C171.996 112.73 171.075 111.892 169.811 109.756C169.863 114.032 169.094 113.977 165.669 114.933C168.559 110.86 168.026 109.221 165.881 106.254C165.083 105.151 163.953 104.331 162.673 103.866L157.501 101.985C154.744 100.982 151.73 100.942 148.947 101.869L131.905 107.55C131.771 107.435 131.636 107.326 131.5 107.223V104.508C131.5 103.403 130.605 102.508 129.5 102.508H127.288C126.183 102.508 125.288 103.403 125.288 104.508V105.614H124.252V103.472C124.252 102.368 125.148 101.472 126.252 101.472H130.536C131.64 101.472 132.536 102.368 132.536 103.472V106.65C137.305 103.748 142.547 101.584 149.353 99.7769C153.233 98.747 157.325 99.0145 161.146 100.247L185.366 108.06Z" fill="url(#paint4_radial_692_1938)"/>
<path fill-rule="evenodd" clip-rule="evenodd" d="M118.04 111.827V108.721C120.621 105.74 121.915 105.799 124.252 105.614H125.288C128.016 105.589 129.856 105.979 131.5 107.223V107.685L131.905 107.55C132.809 108.327 133.669 109.382 134.607 110.791C141.656 108.167 143.837 105.859 151.448 104.117C153.286 103.696 155.241 103.854 156.905 104.739C158.938 105.82 160.331 107.075 161.678 109.235C162.281 110.201 162.374 111.42 161.864 112.438C161.029 114.107 159.829 115.417 156.941 117.128C155.96 117.709 154.728 117.62 153.8 116.957L149.799 114.099C148.86 113.429 148.666 112.09 149.457 111.251C151.248 109.354 152.356 109.09 154.28 109.756C153.054 110.067 152.331 110.456 151.683 111.688C151.319 112.378 151.527 113.216 152.079 113.767L153.803 115.492C154.708 116.397 156.112 116.664 157.173 115.948C158.687 114.927 159.601 113.802 160.591 112.283C161.185 111.372 161.225 110.185 160.599 109.296C158.891 106.871 157.002 106.022 153.244 105.614C148.565 105.758 142.105 109.592 134.607 112.862C134.468 115.305 134.252 117.608 130.648 119.531C129.929 119.915 129.052 119.733 128.475 119.156L125.827 116.508C125.529 116.21 125.529 115.727 125.827 115.429V115.429C126.107 115.149 126.557 115.134 126.868 115.381C131.196 118.812 132.729 117.017 133.571 112.862C127.294 113.743 124.479 112.063 123.217 106.65H121.146L118.04 111.827ZM133.571 111.827C130.755 107.593 128.662 106.549 124.252 106.65C126.497 111.782 128.455 113.001 133.571 111.827Z" fill="url(#paint5_radial_692_1938)"/>
<path d="M118.04 114.933V111.827C119.967 115.763 119.89 118.074 125.288 119.075C124.119 121.038 123.273 121.636 121.146 121.146C120.755 125.201 120.362 127.472 118.04 131.5V125.287C119.376 121.107 119.126 118.865 118.04 114.933Z" fill="url(#paint6_radial_692_1938)"/>
<path d="M120.11 98.3662C120.019 94.792 119.383 93.3936 118.04 91.1182V105.614C120.356 100.811 121.737 99.4138 124.252 99.4015C122.714 97.8121 121.802 97.3638 120.11 98.3662Z" fill="url(#paint7_radial_692_1938)"/>
<path d="M89.7344 64.7305C89.7344 64.5586 89.5553 64.4512 89.1973 64.4082C88.8392 64.3652 88.3021 64.3366 87.5859 64.3223C86.8841 64.3079 86.1536 64.3008 85.3945 64.3008C85.0938 64.3008 84.6068 64.3223 83.9336 64.3652C83.2747 64.3939 82.4297 64.444 81.3984 64.5156C81.3125 64.5156 80.9258 65.0885 80.2383 66.2344C79.7799 66.9935 79.3145 67.8171 78.8418 68.7051C78.3835 69.5931 77.9967 70.4023 77.6816 71.1328C77.3809 71.849 77.2305 72.3503 77.2305 72.6367C77.2305 72.9232 77.3809 73.1667 77.6816 73.3672C77.9967 73.5677 78.3405 73.7181 78.7129 73.8184C79.0996 73.9186 79.3932 73.9688 79.5938 73.9688C79.651 73.9688 79.6797 74.0547 79.6797 74.2266C79.6797 74.556 79.6081 74.8568 79.4648 75.1289C78.1328 75.0573 77.123 75.0072 76.4355 74.9785C75.7624 74.9355 75.4115 74.9141 75.3828 74.9141C75.125 74.9141 74.7025 74.9284 74.1152 74.957C73.528 74.9857 72.9479 75.0143 72.375 75.043C71.8021 75.0859 71.401 75.1146 71.1719 75.1289C71.1146 75.0716 71.0859 74.957 71.0859 74.7852C71.0859 74.2409 71.1862 73.9688 71.3867 73.9688C71.7018 73.9688 72.1387 73.8828 72.6973 73.7109C73.2559 73.5391 73.6497 73.3242 73.8789 73.0664C74.5091 72.3646 75.3828 71.0182 76.5 69.0273L88.3594 47.7148C88.7891 46.9414 89.3477 46.5547 90.0352 46.5547C90.1641 46.5547 90.2786 46.5833 90.3789 46.6406L93.9453 69.3281C94.2318 71.1328 94.4036 72.1641 94.4609 72.4219C94.5182 72.7083 94.7116 72.9733 95.041 73.2168C95.3704 73.446 95.7214 73.6322 96.0938 73.7754C96.4805 73.9043 96.7669 73.9688 96.9531 73.9688C97.0104 73.9688 97.0391 74.0404 97.0391 74.1836C97.0391 74.5417 96.9674 74.8568 96.8242 75.1289C95.4922 75.0573 94.4538 75.0072 93.709 74.9785C92.9642 74.9355 92.513 74.9141 92.3555 74.9141C92.0833 74.9141 91.8184 74.9212 91.5605 74.9355C91.3171 74.9355 91.0736 74.9427 90.8301 74.957C90.3861 74.9857 89.8633 75.0143 89.2617 75.043C88.6745 75.0716 88.1732 75.1003 87.7578 75.1289C87.7292 75.1003 87.7148 75.0143 87.7148 74.8711C87.7148 74.2695 87.8151 73.9688 88.0156 73.9688C88.3021 73.9688 88.7031 73.8828 89.2188 73.7109C89.7344 73.5391 90.0638 73.3385 90.207 73.1094C90.4076 72.6654 90.5078 71.9922 90.5078 71.0898C90.5078 70.6029 90.25 68.4831 89.7344 64.7305ZM85.9531 62.1953C86.612 62.1953 87.2064 62.1882 87.7363 62.1738C88.2806 62.1595 88.7604 62.138 89.1758 62.1094C89.2904 62.1094 89.3477 62.0521 89.3477 61.9375C89.3477 61.7513 89.2546 61.0781 89.0684 59.918C88.9538 59.1159 88.8177 58.2064 88.6602 57.1895C88.5026 56.1725 88.3522 55.2201 88.209 54.332C88.0801 53.444 87.987 52.7995 87.9297 52.3984C84.4062 58.7721 82.6445 61.9948 82.6445 62.0664C82.6445 62.1237 82.6589 62.1523 82.6875 62.1523C83.0169 62.1667 83.4538 62.181 83.998 62.1953C84.5423 62.1953 85.194 62.1953 85.9531 62.1953ZM111.133 56.3086C112.393 56.3086 113.346 56.8672 113.99 57.9844C114.635 59.1016 114.957 60.4193 114.957 61.9375C114.957 63.7708 114.649 65.4896 114.033 67.0938C113.432 68.6979 112.622 70.1159 111.605 71.3477C110.589 72.5651 109.464 73.5247 108.232 74.2266C107.015 74.9141 105.79 75.2578 104.559 75.2578C103.47 75.2578 102.489 74.8496 101.615 74.0332C100.742 73.2168 100.305 72.0495 100.305 70.5312C100.305 70.1016 100.348 69.6289 100.434 69.1133L104 50.9805C104.258 49.7917 104.387 49.0326 104.387 48.7031C104.387 48.1589 103.513 47.8867 101.766 47.8867C101.68 47.8867 101.637 47.8008 101.637 47.6289C101.637 47.2852 101.751 46.9987 101.98 46.7695C103.828 46.5977 105.633 46.1966 107.395 45.5664C107.566 45.6523 107.652 45.9245 107.652 46.3828C107.652 46.6979 107.466 47.7721 107.094 49.6055L104.559 61.9805C105.475 60.4622 106.435 59.2448 107.438 58.3281C108.24 57.612 108.927 57.0964 109.5 56.7812C110.073 56.4661 110.617 56.3086 111.133 56.3086ZM109.887 58.6719C109.285 58.6719 108.519 59.209 107.588 60.2832C106.972 60.9993 106.37 61.8229 105.783 62.7539C105.21 63.6849 104.716 64.6374 104.301 65.6113C103.885 66.571 103.599 67.4661 103.441 68.2969C103.126 69.8724 103.169 71.1328 103.57 72.0781C103.971 73.0234 104.673 73.4961 105.676 73.4961C106.75 73.4961 107.774 72.9447 108.748 71.8418C109.708 70.7389 110.452 69.3783 110.982 67.7598C111.512 66.1413 111.777 64.5443 111.777 62.9688C111.777 62.3099 111.742 61.651 111.67 60.9922C111.613 60.3333 111.448 59.7819 111.176 59.3379C110.918 58.8939 110.488 58.6719 109.887 58.6719ZM129.051 56.3086C130.111 56.3086 131.156 56.4948 132.188 56.8672L129.566 70.4453C129.48 70.7891 129.438 71.1471 129.438 71.5195C129.438 72.2357 129.581 72.5938 129.867 72.5938C130.225 72.5938 130.655 72.3431 131.156 71.8418C131.658 71.3262 132.087 70.8893 132.445 70.5312L132.703 70.2305C132.76 70.2305 132.868 70.3665 133.025 70.6387C133.183 70.9108 133.262 71.1042 133.262 71.2188C133.018 71.6341 132.574 72.1641 131.93 72.8086C131.299 73.4531 130.612 74.026 129.867 74.5273C129.122 75.0143 128.449 75.2578 127.848 75.2578C127.389 75.2578 127.031 75.0501 126.773 74.6348C126.516 74.2194 126.387 73.6823 126.387 73.0234C126.387 72.5794 126.487 71.8203 126.688 70.7461L126.838 69.9941C126.881 69.7936 126.902 69.6719 126.902 69.6289C126.673 70.0586 126.344 70.5885 125.914 71.2188C125.484 71.8346 124.99 72.4505 124.432 73.0664C123.873 73.6823 123.286 74.1979 122.67 74.6133C122.054 75.0143 121.445 75.2148 120.844 75.2148C119.583 75.2148 118.588 74.6491 117.857 73.5176C117.127 72.3861 116.762 71.0182 116.762 69.4141C116.762 67.3659 117.37 65.3249 118.588 63.291C119.404 61.916 120.378 60.7057 121.51 59.6602C122.656 58.6146 123.88 57.7982 125.184 57.2109C126.487 56.6094 127.776 56.3086 129.051 56.3086ZM127.246 58.2852C126.401 58.2852 125.549 58.5859 124.689 59.1875C123.83 59.7747 123.042 60.5697 122.326 61.5723C121.61 62.5605 121.03 63.6634 120.586 64.8809C120.156 66.084 119.941 67.2943 119.941 68.5117C119.941 71.319 120.672 72.7227 122.133 72.7227C122.648 72.7227 123.207 72.4362 123.809 71.8633C124.41 71.2904 125.005 70.5312 125.592 69.5859C126.179 68.6406 126.695 67.6165 127.139 66.5137C127.597 65.3965 127.934 64.3008 128.148 63.2266L129.008 58.8438C128.664 58.4714 128.077 58.2852 127.246 58.2852ZM144.09 56.1797C145.723 56.1797 147.012 56.724 147.957 57.8125C148.1 58.1419 148.172 58.4427 148.172 58.7148C148.172 59.2305 148.036 59.6745 147.764 60.0469C147.492 60.4193 147.141 60.6055 146.711 60.6055C146.324 60.6055 145.966 60.3978 145.637 59.9824C145.322 59.5671 144.928 59.1445 144.455 58.7148C143.982 58.2852 143.359 58.0703 142.586 58.0703C141.984 58.0703 141.512 58.2708 141.168 58.6719C140.824 59.0729 140.652 59.5312 140.652 60.0469C140.652 60.7917 140.932 61.5866 141.49 62.4316C142.049 63.2767 142.658 64.0286 143.316 64.6875C143.975 65.3464 144.584 66.1484 145.143 67.0938C145.701 68.0391 145.98 68.9987 145.98 69.9727C145.98 71.5482 145.408 72.8229 144.262 73.7969C143.116 74.7708 141.641 75.2578 139.836 75.2578C138.203 75.2578 136.914 74.7135 135.969 73.625C135.826 73.3958 135.754 73.1237 135.754 72.8086C135.754 72.293 135.89 71.8346 136.162 71.4336C136.434 71.0326 136.785 70.832 137.215 70.832C137.602 70.832 137.96 71.0397 138.289 71.4551C138.604 71.8704 138.998 72.293 139.471 72.7227C139.943 73.1523 140.566 73.3672 141.34 73.3672C141.97 73.3672 142.479 73.1595 142.865 72.7441C143.252 72.3288 143.445 71.8776 143.445 71.3906C143.445 70.6458 143.166 69.8509 142.607 69.0059C142.049 68.1608 141.44 67.4089 140.781 66.75C140.122 66.0911 139.514 65.2891 138.955 64.3438C138.396 63.3984 138.117 62.4388 138.117 61.4648C138.117 60.6628 138.382 59.8535 138.912 59.0371C139.442 58.2207 140.158 57.5404 141.061 56.9961C141.963 56.4518 142.973 56.1797 144.09 56.1797ZM161.707 56.3086C162.767 56.3086 163.812 56.4948 164.844 56.8672L162.223 70.4453C162.137 70.7891 162.094 71.1471 162.094 71.5195C162.094 72.2357 162.237 72.5938 162.523 72.5938C162.882 72.5938 163.311 72.3431 163.812 71.8418C164.314 71.3262 164.743 70.8893 165.102 70.5312L165.359 70.2305C165.417 70.2305 165.524 70.3665 165.682 70.6387C165.839 70.9108 165.918 71.1042 165.918 71.2188C165.674 71.6341 165.23 72.1641 164.586 72.8086C163.956 73.4531 163.268 74.026 162.523 74.5273C161.779 75.0143 161.105 75.2578 160.504 75.2578C160.046 75.2578 159.688 75.0501 159.43 74.6348C159.172 74.2194 159.043 73.6823 159.043 73.0234C159.043 72.5794 159.143 71.8203 159.344 70.7461L159.494 69.9941C159.537 69.7936 159.559 69.6719 159.559 69.6289C159.329 70.0586 159 70.5885 158.57 71.2188C158.141 71.8346 157.646 72.4505 157.088 73.0664C156.529 73.6823 155.942 74.1979 155.326 74.6133C154.71 75.0143 154.102 75.2148 153.5 75.2148C152.24 75.2148 151.244 74.6491 150.514 73.5176C149.783 72.3861 149.418 71.0182 149.418 69.4141C149.418 67.3659 150.027 65.3249 151.244 63.291C152.061 61.916 153.035 60.7057 154.166 59.6602C155.312 58.6146 156.536 57.7982 157.84 57.2109C159.143 56.6094 160.432 56.3086 161.707 56.3086ZM159.902 58.2852C159.057 58.2852 158.205 58.5859 157.346 59.1875C156.486 59.7747 155.699 60.5697 154.982 61.5723C154.266 62.5605 153.686 63.6634 153.242 64.8809C152.812 66.084 152.598 67.2943 152.598 68.5117C152.598 71.319 153.328 72.7227 154.789 72.7227C155.305 72.7227 155.863 72.4362 156.465 71.8633C157.066 71.2904 157.661 70.5312 158.248 69.5859C158.835 68.6406 159.351 67.6165 159.795 66.5137C160.253 65.3965 160.59 64.3008 160.805 63.2266L161.664 58.8438C161.32 58.4714 160.733 58.2852 159.902 58.2852Z" fill="white"/>
<path d="M0 14.4961C6.30012 20.0984 15.0791 19.1979 30.687 15.1421C32.2497 14.736 33.9168 14.9601 35.3059 15.7832L61.0905 31.063L35.3304 19.6141C33.9205 18.9874 32.3183 18.9353 30.8588 19.4358C12.5496 25.7159 4.73674 24.7283 0 14.4961Z" fill="url(#paint8_radial_692_1938)"/>
<path d="M16.5669 25.8858C22.7094 27.5488 34.4861 19.1752 43.5027 24.2129C35.7991 20.3448 24.9274 34.7378 16.5669 25.8858Z" fill="url(#paint9_radial_692_1938)"/>
<path d="M42.4528 34.1693C40.4746 32.9379 39.8039 31.791 39.5364 30.2054C39.314 28.8871 40.2138 27.6374 41.514 27.3262C46.4064 26.1551 49.6595 27.3172 54.8779 31.063C50.3759 26.3362 46.8249 25.2844 39.6469 25.78C38.7972 25.8387 38.0191 26.2751 37.5081 26.9564L36.1669 28.7446C35.6047 29.4943 35.6307 30.5432 36.2784 31.2205C38.4425 33.4837 39.9798 34.1156 42.4528 34.1693Z" fill="url(#paint10_radial_692_1938)"/>
<path d="M61.0905 28.9921C48.8725 19.5072 53.131 18.6378 60.0551 10.3543C56.6285 8.93238 54.8937 8.83857 52.8071 12.4252C51.2879 8.29387 49.7783 6.42726 45.559 4.14173C43.8524 8.52031 44.6321 10.6991 46.5945 14.4961C42.9378 12.0347 40.7471 11.3823 36.2402 13.4606C46.3046 17.727 45.2926 18.8748 61.0905 28.9921Z" fill="url(#paint11_radial_692_1938)"/>
<path d="M78.6929 22.7441C78.6929 22.1918 79.1406 21.7441 79.6929 21.7441H79.7638C80.3161 21.7441 80.7638 22.1918 80.7638 22.7441V25.9213C80.7638 26.4735 80.3161 26.9213 79.7638 26.9213H74.4803C73.3757 26.9213 72.4803 26.0258 72.4803 24.9213V19.6024C72.4803 18.4978 73.3757 17.6024 74.4803 17.6024H78.7281C80.6137 17.6024 82.4755 18.023 84.178 18.8337V18.8337C85.2965 19.3663 86.1249 20.3629 86.4441 21.5599L88.3399 28.6695C89.2063 31.9182 86.6836 35.0788 83.3237 34.9544L68.0679 34.3894C64.7776 34.2675 62.2002 31.5169 62.2923 28.2256L62.6948 13.8426C62.7856 10.5955 65.4441 8.01038 68.6924 8.01038H83.0387C86.0229 8.01038 88.8896 9.21712 90.915 11.4088C101.807 23.194 109.097 33.3225 115.395 32.2299C115.685 32.1796 115.968 32.3916 115.968 32.686V32.686C115.968 32.9325 115.766 33.1318 115.519 33.1285C109.37 33.045 105.37 32.4313 87.653 13.254C86.5367 12.0456 85.0793 11.1983 83.4735 10.8414L77.8584 9.59364C77.0431 9.41248 76.199 9.4035 75.3801 9.56728L71.091 10.4251C68.2865 10.986 66.2677 13.4485 66.2677 16.3086V27.0984C66.2677 29.8599 68.5063 32.0984 71.2677 32.0984H80.9055C83.1146 32.0984 84.9055 30.3076 84.9055 28.0984V22.6378C84.9055 20.4287 83.1146 18.6378 80.9055 18.6378H76.5512C75.4466 18.6378 74.5512 19.5332 74.5512 20.6378V24.8858C74.5512 25.4381 74.9989 25.8858 75.5512 25.8858H77.6929C78.2452 25.8858 78.6929 25.4381 78.6929 24.8858V22.7441Z" fill="url(#paint12_radial_692_1938)"/>
<path d="M104.412 33.0631C96.4743 29.9513 88.3242 12.4066 78.6929 13.4606C91.6665 19.2326 92.9183 31.4785 104.412 33.0631Z" fill="url(#paint13_radial_692_1938)"/>
<path d="M111.827 30.0276C106.485 21.6827 106.361 16.9143 110.791 8.28346C105.363 9.71409 97.6256 19.5114 111.827 30.0276Z" fill="url(#paint14_radial_692_1938)"/>
<path d="M118.039 10.3543C113.102 14.0549 110.405 23.2793 118.039 32.0984C106.33 25.6888 109.793 12.7713 118.039 0V10.3543Z" fill="url(#paint15_radial_692_1938)"/>
<path d="M236.079 14.4961C229.778 20.0984 221 19.1979 205.392 15.1421C203.829 14.736 202.162 14.9601 200.773 15.7832L174.988 31.063L200.748 19.6141C202.158 18.9874 203.76 18.9353 205.22 19.4358C223.529 25.7159 231.342 24.7283 236.079 14.4961Z" fill="url(#paint16_radial_692_1938)"/>
<path d="M219.512 25.8858C213.369 27.5488 201.593 19.1752 192.576 24.2129C200.279 20.3448 211.151 34.7378 219.512 25.8858Z" fill="url(#paint17_radial_692_1938)"/>
<path d="M193.626 34.1693C195.604 32.9379 196.275 31.791 196.542 30.2054C196.765 28.8871 195.865 27.6374 194.565 27.3262C189.672 26.1551 186.419 27.3172 181.201 31.063C185.703 26.3362 189.254 25.2844 196.432 25.78C197.281 25.8387 198.06 26.2751 198.571 26.9564L199.912 28.7446C200.474 29.4943 200.448 30.5432 199.8 31.2205C197.636 33.4837 196.099 34.1156 193.626 34.1693Z" fill="url(#paint18_radial_692_1938)"/>
<path d="M174.988 28.9921C187.206 19.5072 182.948 18.6378 176.024 10.3543C179.45 8.93238 181.185 8.83857 183.272 12.4252C184.791 8.29387 186.3 6.42726 190.52 4.14173C192.226 8.52031 191.446 10.6991 189.484 14.4961C193.141 12.0347 195.331 11.3823 199.838 13.4606C189.774 17.727 190.786 18.8748 174.988 28.9921Z" fill="url(#paint19_radial_692_1938)"/>
<path d="M157.386 22.7441C157.386 22.1918 156.938 21.7441 156.386 21.7441H156.315C155.763 21.7441 155.315 22.1918 155.315 22.7441V25.9213C155.315 26.4735 155.763 26.9213 156.315 26.9213H161.598C162.703 26.9213 163.598 26.0258 163.598 24.9213V19.6024C163.598 18.4978 162.703 17.6024 161.598 17.6024H157.351C155.465 17.6024 153.603 18.023 151.901 18.8337V18.8337C150.782 19.3663 149.954 20.3629 149.635 21.5599L147.739 28.6695C146.872 31.9182 149.395 35.0788 152.755 34.9544L168.011 34.3894C171.301 34.2675 173.878 31.5169 173.786 28.2256L173.384 13.8426C173.293 10.5955 170.635 8.01038 167.386 8.01038H153.04C150.056 8.01038 147.189 9.21712 145.164 11.4088C134.272 23.194 126.982 33.3225 120.683 32.2299C120.393 32.1796 120.11 32.3916 120.11 32.686V32.686C120.11 32.9325 120.313 33.1318 120.559 33.1285C126.708 33.045 130.709 32.4313 148.426 13.254C149.542 12.0456 150.999 11.1983 152.605 10.8414L158.22 9.59364C159.035 9.41248 159.88 9.4035 160.698 9.56728L164.988 10.4251C167.792 10.986 169.811 13.4485 169.811 16.3086V27.0984C169.811 29.8599 167.572 32.0984 164.811 32.0984H155.173C152.964 32.0984 151.173 30.3076 151.173 28.0984V22.6378C151.173 20.4287 152.964 18.6378 155.173 18.6378H159.527C160.632 18.6378 161.527 19.5332 161.527 20.6378V24.8858C161.527 25.4381 161.08 25.8858 160.527 25.8858H158.386C157.833 25.8858 157.386 25.4381 157.386 24.8858V22.7441Z" fill="url(#paint20_radial_692_1938)"/>
<path d="M131.666 33.0631C139.604 29.9513 147.754 12.4066 157.386 13.4606C144.412 19.2326 143.16 31.4785 131.666 33.0631Z" fill="url(#paint21_radial_692_1938)"/>
<path d="M124.252 30.0276C129.594 21.6827 129.718 16.9143 125.287 8.28346C130.716 9.71409 138.453 19.5114 124.252 30.0276Z" fill="url(#paint22_radial_692_1938)"/>
<path d="M118.039 10.3543C122.976 14.0549 125.673 23.2793 118.039 32.0984C129.749 25.6888 126.286 12.7713 118.039 0V10.3543Z" fill="url(#paint23_radial_692_1938)"/>
<defs>
<radialGradient id="paint0_radial_692_1938" cx="0" cy="0" r="1" gradientUnits="userSpaceOnUse" gradientTransform="translate(79.7285 111.309) scale(38.311 20.1909)">
<stop stop-color="#E1E1E1"/>
<stop offset="1" stop-color="#FFF4DA"/>
</radialGradient>
<radialGradient id="paint1_radial_692_1938" cx="0" cy="0" r="1" gradientUnits="userSpaceOnUse" gradientTransform="translate(79.7285 111.309) scale(38.311 20.1909)">
<stop stop-color="#E1E1E1"/>
<stop offset="1" stop-color="#FFF4DA"/>
</radialGradient>
<radialGradient id="paint2_radial_692_1938" cx="0" cy="0" r="1" gradientUnits="userSpaceOnUse" gradientTransform="translate(79.7285 111.309) scale(38.311 20.1909)">
<stop stop-color="#E1E1E1"/>
<stop offset="1" stop-color="#FFF4DA"/>
</radialGradient>
<radialGradient id="paint3_radial_692_1938" cx="0" cy="0" r="1" gradientUnits="userSpaceOnUse" gradientTransform="translate(79.7285 111.309) scale(38.311 20.1909)">
<stop stop-color="#E1E1E1"/>
<stop offset="1" stop-color="#FFF4DA"/>
</radialGradient>
<radialGradient id="paint4_radial_692_1938" cx="0" cy="0" r="1" gradientUnits="userSpaceOnUse" gradientTransform="translate(156.351 111.309) rotate(180) scale(38.311 20.1909)">
<stop stop-color="#E1E1E1"/>
<stop offset="1" stop-color="#FFF4DA"/>
</radialGradient>
<radialGradient id="paint5_radial_692_1938" cx="0" cy="0" r="1" gradientUnits="userSpaceOnUse" gradientTransform="translate(156.351 111.309) rotate(180) scale(38.311 20.1909)">
<stop stop-color="#E1E1E1"/>
<stop offset="1" stop-color="#FFF4DA"/>
</radialGradient>
<radialGradient id="paint6_radial_692_1938" cx="0" cy="0" r="1" gradientUnits="userSpaceOnUse" gradientTransform="translate(156.351 111.309) rotate(180) scale(38.311 20.1909)">
<stop stop-color="#E1E1E1"/>
<stop offset="1" stop-color="#FFF4DA"/>
</radialGradient>
<radialGradient id="paint7_radial_692_1938" cx="0" cy="0" r="1" gradientUnits="userSpaceOnUse" gradientTransform="translate(156.351 111.309) rotate(180) scale(38.311 20.1909)">
<stop stop-color="#E1E1E1"/>
<stop offset="1" stop-color="#FFF4DA"/>
</radialGradient>
<radialGradient id="paint8_radial_692_1938" cx="0" cy="0" r="1" gradientUnits="userSpaceOnUse" gradientTransform="translate(59.0197 17.6024) scale(59.0197 17.6024)">
<stop stop-color="#E1E1E1"/>
<stop offset="1" stop-color="#FFF4DA"/>
</radialGradient>
<radialGradient id="paint9_radial_692_1938" cx="0" cy="0" r="1" gradientUnits="userSpaceOnUse" gradientTransform="translate(59.0197 17.6024) scale(59.0197 17.6024)">
<stop stop-color="#E1E1E1"/>
<stop offset="1" stop-color="#FFF4DA"/>
</radialGradient>
<radialGradient id="paint10_radial_692_1938" cx="0" cy="0" r="1" gradientUnits="userSpaceOnUse" gradientTransform="translate(59.0197 17.6024) scale(59.0197 17.6024)">
<stop stop-color="#E1E1E1"/>
<stop offset="1" stop-color="#FFF4DA"/>
</radialGradient>
<radialGradient id="paint11_radial_692_1938" cx="0" cy="0" r="1" gradientUnits="userSpaceOnUse" gradientTransform="translate(59.0197 17.6024) scale(59.0197 17.6024)">
<stop stop-color="#E1E1E1"/>
<stop offset="1" stop-color="#FFF4DA"/>
</radialGradient>
<radialGradient id="paint12_radial_692_1938" cx="0" cy="0" r="1" gradientUnits="userSpaceOnUse" gradientTransform="translate(59.0197 17.6024) scale(59.0197 17.6024)">
<stop stop-color="#E1E1E1"/>
<stop offset="1" stop-color="#FFF4DA"/>
</radialGradient>
<radialGradient id="paint13_radial_692_1938" cx="0" cy="0" r="1" gradientUnits="userSpaceOnUse" gradientTransform="translate(59.0197 17.6024) scale(59.0197 17.6024)">
<stop stop-color="#E1E1E1"/>
<stop offset="1" stop-color="#FFF4DA"/>
</radialGradient>
<radialGradient id="paint14_radial_692_1938" cx="0" cy="0" r="1" gradientUnits="userSpaceOnUse" gradientTransform="translate(59.0197 17.6024) scale(59.0197 17.6024)">
<stop stop-color="#E1E1E1"/>
<stop offset="1" stop-color="#FFF4DA"/>
</radialGradient>
<radialGradient id="paint15_radial_692_1938" cx="0" cy="0" r="1" gradientUnits="userSpaceOnUse" gradientTransform="translate(59.0197 17.6024) scale(59.0197 17.6024)">
<stop stop-color="#E1E1E1"/>
<stop offset="1" stop-color="#FFF4DA"/>
</radialGradient>
<radialGradient id="paint16_radial_692_1938" cx="0" cy="0" r="1" gradientUnits="userSpaceOnUse" gradientTransform="translate(177.059 17.6024) rotate(180) scale(59.0197 17.6024)">
<stop stop-color="#E1E1E1"/>
<stop offset="1" stop-color="#FFF4DA"/>
</radialGradient>
<radialGradient id="paint17_radial_692_1938" cx="0" cy="0" r="1" gradientUnits="userSpaceOnUse" gradientTransform="translate(177.059 17.6024) rotate(180) scale(59.0197 17.6024)">
<stop stop-color="#E1E1E1"/>
<stop offset="1" stop-color="#FFF4DA"/>
</radialGradient>
<radialGradient id="paint18_radial_692_1938" cx="0" cy="0" r="1" gradientUnits="userSpaceOnUse" gradientTransform="translate(177.059 17.6024) rotate(180) scale(59.0197 17.6024)">
<stop stop-color="#E1E1E1"/>
<stop offset="1" stop-color="#FFF4DA"/>
</radialGradient>
<radialGradient id="paint19_radial_692_1938" cx="0" cy="0" r="1" gradientUnits="userSpaceOnUse" gradientTransform="translate(177.059 17.6024) rotate(180) scale(59.0197 17.6024)">
<stop stop-color="#E1E1E1"/>
<stop offset="1" stop-color="#FFF4DA"/>
</radialGradient>
<radialGradient id="paint20_radial_692_1938" cx="0" cy="0" r="1" gradientUnits="userSpaceOnUse" gradientTransform="translate(177.059 17.6024) rotate(180) scale(59.0197 17.6024)">
<stop stop-color="#E1E1E1"/>
<stop offset="1" stop-color="#FFF4DA"/>
</radialGradient>
<radialGradient id="paint21_radial_692_1938" cx="0" cy="0" r="1" gradientUnits="userSpaceOnUse" gradientTransform="translate(177.059 17.6024) rotate(180) scale(59.0197 17.6024)">
<stop stop-color="#E1E1E1"/>
<stop offset="1" stop-color="#FFF4DA"/>
</radialGradient>
<radialGradient id="paint22_radial_692_1938" cx="0" cy="0" r="1" gradientUnits="userSpaceOnUse" gradientTransform="translate(177.059 17.6024) rotate(180) scale(59.0197 17.6024)">
<stop stop-color="#E1E1E1"/>
<stop offset="1" stop-color="#FFF4DA"/>
</radialGradient>
<radialGradient id="paint23_radial_692_1938" cx="0" cy="0" r="1" gradientUnits="userSpaceOnUse" gradientTransform="translate(177.059 17.6024) rotate(180) scale(59.0197 17.6024)">
<stop stop-color="#E1E1E1"/>
<stop offset="1" stop-color="#FFF4DA"/>
</radialGradient>
</defs>
</svg>
