<svg width="237" height="132" viewBox="0 0 237 132" fill="none" xmlns="http://www.w3.org/2000/svg">
<path d="M50.7125 108.06C49.3889 108.487 47.9214 108.504 46.7169 107.809C44.5794 106.575 44.1412 105.154 44.5234 102.508V102.508C42.8798 103.056 42.063 104.953 43.0339 106.388C43.9977 107.812 45.0937 108.974 46.6267 110.246C47.9171 111.316 49.5696 111.855 51.2458 111.812C56.4406 111.679 59.0349 110.851 62.1257 108.72C61.1051 110.641 61.1618 111.76 61.9885 113.6C62.0605 113.76 62.2568 113.822 62.4077 113.731C64.0825 112.73 65.0039 111.892 66.2674 109.756C66.2154 114.032 66.9843 113.977 70.4091 114.933C67.5194 110.86 68.0525 109.221 70.1981 106.254C70.9958 105.151 72.1259 104.331 73.4053 103.866L78.5776 101.985C81.3342 100.982 84.3487 100.942 87.1313 101.869L104.173 107.55C104.307 107.435 104.442 107.326 104.578 107.223V104.508C104.578 103.403 105.474 102.508 106.578 102.508H108.791C109.896 102.508 110.791 103.403 110.791 104.508V105.614H111.826V103.472C111.826 102.368 110.931 101.472 109.826 101.472H105.543C104.438 101.472 103.543 102.368 103.543 103.472V106.65C98.7736 103.748 93.5321 101.584 86.7257 99.7769C82.8456 98.747 78.7534 99.0145 74.9328 100.247L50.7125 108.06Z" fill="url(#paint0_radial_692_1632)"/>
<path fill-rule="evenodd" clip-rule="evenodd" d="M118.039 111.827V108.721C115.458 105.74 114.163 105.799 111.826 105.614H110.791C108.063 105.589 106.222 105.979 104.578 107.223V107.685L104.173 107.55C103.27 108.327 102.409 109.382 101.472 110.791C94.4225 108.167 92.2419 105.859 84.6304 104.117C82.7927 103.696 80.8379 103.854 79.1733 104.739C77.1406 105.82 75.7478 107.075 74.4004 109.235C73.7976 110.201 73.7049 111.42 74.2146 112.438C75.0495 114.107 76.2498 115.417 79.1376 117.128C80.1186 117.709 81.3505 117.62 82.2784 116.957L86.28 114.099C87.2184 113.429 87.4128 112.09 86.6211 111.251C84.8302 109.354 83.7227 109.09 81.7989 109.756C83.0242 110.067 83.7473 110.456 84.396 111.688C84.7596 112.378 84.5518 113.216 84 113.767L82.2754 115.492C81.3706 116.397 79.9663 116.664 78.9055 115.948C77.3915 114.927 76.4781 113.802 75.4876 112.283C74.8937 111.372 74.8539 110.185 75.48 109.296C77.188 106.871 79.0763 106.022 82.8343 105.614C87.5138 105.758 93.9734 109.592 101.472 112.862C101.61 115.305 101.827 117.608 105.43 119.531C106.15 119.915 107.027 119.733 107.604 119.156L110.252 116.508C110.55 116.21 110.55 115.727 110.252 115.429V115.429C109.971 115.149 109.521 115.134 109.21 115.381C104.882 118.812 103.349 117.017 102.508 112.862C108.784 113.743 111.6 112.063 112.862 106.65H114.933L118.039 111.827ZM102.508 111.827C105.324 107.593 107.416 106.549 111.826 106.65C109.581 111.782 107.623 113.001 102.508 111.827Z" fill="url(#paint1_radial_692_1632)"/>
<path d="M118.039 114.933V111.827C116.112 115.763 116.189 118.074 110.791 119.075C111.96 121.038 112.806 121.636 114.933 121.146C115.324 125.201 115.717 127.472 118.039 131.5V125.287C116.703 121.107 116.952 118.865 118.039 114.933Z" fill="url(#paint2_radial_692_1632)"/>
<path d="M115.968 98.3662C116.06 94.792 116.696 93.3936 118.039 91.1182V105.614C115.722 100.811 114.342 99.4138 111.826 99.4015C113.364 97.8121 114.276 97.3638 115.968 98.3662Z" fill="url(#paint3_radial_692_1632)"/>
<path d="M185.366 108.06C186.689 108.487 188.157 108.504 189.361 107.809C191.499 106.575 191.937 105.154 191.555 102.508V102.508C193.198 103.056 194.015 104.953 193.044 106.388C192.08 107.812 190.984 108.974 189.451 110.246C188.161 111.316 186.509 111.855 184.832 111.812C179.637 111.679 177.043 110.851 173.952 108.72C174.973 110.641 174.916 111.76 174.09 113.6C174.018 113.76 173.821 113.822 173.67 113.731C171.996 112.73 171.074 111.892 169.811 109.756C169.863 114.032 169.094 113.977 165.669 114.933C168.559 110.86 168.026 109.221 165.88 106.254C165.082 105.151 163.952 104.331 162.673 103.866L157.5 101.985C154.744 100.982 151.729 100.942 148.947 101.869L131.905 107.55C131.771 107.435 131.636 107.326 131.5 107.223V104.508C131.5 103.403 130.604 102.508 129.5 102.508H127.287C126.183 102.508 125.287 103.403 125.287 104.508V105.614H124.252V103.472C124.252 102.368 125.147 101.472 126.252 101.472H130.535C131.64 101.472 132.535 102.368 132.535 103.472V106.65C137.304 103.748 142.546 101.584 149.352 99.7769C153.232 98.747 157.325 99.0145 161.145 100.247L185.366 108.06Z" fill="url(#paint4_radial_692_1632)"/>
<path fill-rule="evenodd" clip-rule="evenodd" d="M118.039 111.827V108.721C120.62 105.74 121.915 105.799 124.252 105.614H125.287C128.015 105.589 129.856 105.979 131.5 107.223V107.685L131.905 107.55C132.808 108.327 133.669 109.382 134.606 110.791C141.656 108.167 143.836 105.859 151.448 104.117C153.285 103.696 155.24 103.854 156.905 104.739C158.938 105.82 160.33 107.075 161.678 109.235C162.281 110.201 162.373 111.42 161.863 112.438C161.029 114.107 159.828 115.417 156.941 117.128C155.96 117.709 154.728 117.62 153.8 116.957L149.798 114.099C148.86 113.429 148.665 112.09 149.457 111.251C151.248 109.354 152.355 109.09 154.279 109.756C153.054 110.067 152.331 110.456 151.682 111.688C151.319 112.378 151.526 113.216 152.078 113.767L153.803 115.492C154.708 116.397 156.112 116.664 157.173 115.948C158.687 114.927 159.6 113.802 160.591 112.283C161.184 111.372 161.224 110.185 160.598 109.296C158.89 106.871 157.002 106.022 153.244 105.614C148.564 105.758 142.105 109.592 134.606 112.862C134.468 115.305 134.251 117.608 130.648 119.531C129.928 119.915 129.051 119.733 128.474 119.156L125.826 116.508C125.528 116.21 125.528 115.727 125.826 115.429V115.429C126.107 115.149 126.557 115.134 126.868 115.381C131.196 118.812 132.729 117.017 133.571 112.862C127.294 113.743 124.478 112.063 123.216 106.65H121.145L118.039 111.827ZM133.571 111.827C130.754 107.593 128.662 106.549 124.252 106.65C126.497 111.782 128.455 113.001 133.571 111.827Z" fill="url(#paint5_radial_692_1632)"/>
<path d="M118.039 114.933V111.827C119.967 115.763 119.889 118.074 125.287 119.075C124.119 121.038 123.273 121.636 121.145 121.146C120.754 125.201 120.361 127.472 118.039 131.5V125.287C119.375 121.107 119.126 118.865 118.039 114.933Z" fill="url(#paint6_radial_692_1632)"/>
<path d="M120.11 98.3662C120.019 94.792 119.382 93.3936 118.039 91.1182V105.614C120.356 100.811 121.736 99.4138 124.252 99.4015C122.714 97.8121 121.802 97.3638 120.11 98.3662Z" fill="url(#paint7_radial_692_1632)"/>
<path d="M89.7344 64.7305C89.7344 64.5586 89.5553 64.4512 89.1973 64.4082C88.8392 64.3652 88.3021 64.3366 87.5859 64.3223C86.8841 64.3079 86.1536 64.3008 85.3945 64.3008C85.0938 64.3008 84.6068 64.3223 83.9336 64.3652C83.2747 64.3939 82.4297 64.444 81.3984 64.5156C81.3125 64.5156 80.9258 65.0885 80.2383 66.2344C79.7799 66.9935 79.3145 67.8171 78.8418 68.7051C78.3835 69.5931 77.9967 70.4023 77.6816 71.1328C77.3809 71.849 77.2305 72.3503 77.2305 72.6367C77.2305 72.9232 77.3809 73.1667 77.6816 73.3672C77.9967 73.5677 78.3405 73.7181 78.7129 73.8184C79.0996 73.9186 79.3932 73.9688 79.5938 73.9688C79.651 73.9688 79.6797 74.0547 79.6797 74.2266C79.6797 74.556 79.6081 74.8568 79.4648 75.1289C78.1328 75.0573 77.123 75.0072 76.4355 74.9785C75.7624 74.9355 75.4115 74.9141 75.3828 74.9141C75.125 74.9141 74.7025 74.9284 74.1152 74.957C73.528 74.9857 72.9479 75.0143 72.375 75.043C71.8021 75.0859 71.401 75.1146 71.1719 75.1289C71.1146 75.0716 71.0859 74.957 71.0859 74.7852C71.0859 74.2409 71.1862 73.9688 71.3867 73.9688C71.7018 73.9688 72.1387 73.8828 72.6973 73.7109C73.2559 73.5391 73.6497 73.3242 73.8789 73.0664C74.5091 72.3646 75.3828 71.0182 76.5 69.0273L88.3594 47.7148C88.7891 46.9414 89.3477 46.5547 90.0352 46.5547C90.1641 46.5547 90.2786 46.5833 90.3789 46.6406L93.9453 69.3281C94.2318 71.1328 94.4036 72.1641 94.4609 72.4219C94.5182 72.7083 94.7116 72.9733 95.041 73.2168C95.3704 73.446 95.7214 73.6322 96.0938 73.7754C96.4805 73.9043 96.7669 73.9688 96.9531 73.9688C97.0104 73.9688 97.0391 74.0404 97.0391 74.1836C97.0391 74.5417 96.9674 74.8568 96.8242 75.1289C95.4922 75.0573 94.4538 75.0072 93.709 74.9785C92.9642 74.9355 92.513 74.9141 92.3555 74.9141C92.0833 74.9141 91.8184 74.9212 91.5605 74.9355C91.3171 74.9355 91.0736 74.9427 90.8301 74.957C90.3861 74.9857 89.8633 75.0143 89.2617 75.043C88.6745 75.0716 88.1732 75.1003 87.7578 75.1289C87.7292 75.1003 87.7148 75.0143 87.7148 74.8711C87.7148 74.2695 87.8151 73.9688 88.0156 73.9688C88.3021 73.9688 88.7031 73.8828 89.2188 73.7109C89.7344 73.5391 90.0638 73.3385 90.207 73.1094C90.4076 72.6654 90.5078 71.9922 90.5078 71.0898C90.5078 70.6029 90.25 68.4831 89.7344 64.7305ZM85.9531 62.1953C86.612 62.1953 87.2064 62.1882 87.7363 62.1738C88.2806 62.1595 88.7604 62.138 89.1758 62.1094C89.2904 62.1094 89.3477 62.0521 89.3477 61.9375C89.3477 61.7513 89.2546 61.0781 89.0684 59.918C88.9538 59.1159 88.8177 58.2064 88.6602 57.1895C88.5026 56.1725 88.3522 55.2201 88.209 54.332C88.0801 53.444 87.987 52.7995 87.9297 52.3984C84.4062 58.7721 82.6445 61.9948 82.6445 62.0664C82.6445 62.1237 82.6589 62.1523 82.6875 62.1523C83.0169 62.1667 83.4538 62.181 83.998 62.1953C84.5423 62.1953 85.194 62.1953 85.9531 62.1953ZM113.41 56.3086C114.842 56.3086 115.559 57.2539 115.559 59.1445C115.559 60.4766 115.358 62.0378 114.957 63.8281L113.539 70.4453C113.453 70.7891 113.41 71.1471 113.41 71.5195C113.41 72.2357 113.553 72.5938 113.84 72.5938C114.198 72.5938 114.628 72.3431 115.129 71.8418C115.63 71.3262 116.06 70.8893 116.418 70.5312L116.676 70.2305C116.733 70.2305 116.84 70.3665 116.998 70.6387C117.156 70.9108 117.234 71.1042 117.234 71.2188C116.991 71.6341 116.547 72.1641 115.902 72.8086C115.272 73.4531 114.585 74.026 113.84 74.5273C113.095 75.0143 112.422 75.2578 111.82 75.2578C111.362 75.2578 111.004 75.0501 110.746 74.6348C110.488 74.2194 110.359 73.6823 110.359 73.0234C110.359 72.5938 110.46 71.8346 110.66 70.7461L112.164 63.6562C112.365 62.6823 112.465 61.9089 112.465 61.3359C112.465 60.1042 112.193 59.4883 111.648 59.4883C111.176 59.4883 110.538 59.8464 109.736 60.5625C108.934 61.2643 108.096 62.2025 107.223 63.377C106.363 64.5514 105.583 65.862 104.881 67.3086C104.179 68.7409 103.685 70.1875 103.398 71.6484L102.668 75C102.281 75.1146 101.837 75.1719 101.336 75.1719C100.849 75.1719 100.362 75.1146 99.875 75L104.516 50.9805C104.773 49.7057 104.902 48.9466 104.902 48.7031C104.902 48.1589 104.029 47.8867 102.281 47.8867C102.195 47.8867 102.152 47.8008 102.152 47.6289C102.152 47.2852 102.267 46.9987 102.496 46.7695C104.358 46.5977 106.163 46.1966 107.91 45.5664C108.082 45.6523 108.168 45.9245 108.168 46.3828C108.168 46.5833 107.982 47.6576 107.609 49.6055L104.645 64.7734C104.917 64.2865 105.54 63.3984 106.514 62.1094C107.158 61.2643 107.903 60.3978 108.748 59.5098C109.607 58.6074 110.452 57.8483 111.283 57.2324C112.128 56.6165 112.837 56.3086 113.41 56.3086ZM132.531 56.3086C133.792 56.3086 134.938 56.4948 135.969 56.8672L133.348 70.4453L131.414 81.3164C131.357 81.7174 131.328 82.0182 131.328 82.2188C131.328 82.6914 131.479 83.0208 131.779 83.207C132.094 83.4076 132.603 83.5078 133.305 83.5078C133.362 83.5078 133.391 83.5938 133.391 83.7656C133.391 84.224 133.319 84.5677 133.176 84.7969C133.076 84.7969 132.954 84.7969 132.811 84.7969C132.667 84.7969 132.495 84.7897 132.295 84.7754C132.109 84.7611 131.944 84.7539 131.801 84.7539C131.658 84.7539 131.543 84.7539 131.457 84.7539C129.366 84.7539 127.289 84.8685 125.227 85.0977C125.227 85.026 125.219 84.9473 125.205 84.8613C125.191 84.7754 125.184 84.6823 125.184 84.582C125.184 84.0664 125.255 83.8086 125.398 83.8086C125.656 83.8086 125.936 83.7871 126.236 83.7441C126.537 83.7012 126.952 83.472 127.482 83.0566C128.012 82.6413 128.349 82.0612 128.492 81.3164L130.684 69.6289C130.483 69.9727 130.254 70.3307 129.996 70.7031C129.753 71.0612 129.48 71.4264 129.18 71.7988C128.779 72.3001 128.292 72.8158 127.719 73.3457C127.146 73.8757 126.559 74.3197 125.957 74.6777C125.37 75.0358 124.826 75.2148 124.324 75.2148C123.064 75.2148 122.061 74.6491 121.316 73.5176C120.572 72.3861 120.199 71.0182 120.199 69.4141C120.199 67.3802 120.815 65.3392 122.047 63.291C122.878 61.916 123.859 60.7057 124.99 59.6602C126.136 58.6146 127.361 57.7982 128.664 57.2109C129.967 56.6094 131.257 56.3086 132.531 56.3086ZM130.684 58.2852C129.753 58.2852 128.85 58.5788 127.977 59.166C127.103 59.7533 126.322 60.5267 125.635 61.4863C124.947 62.446 124.396 63.513 123.98 64.6875C123.579 65.8477 123.379 67.0078 123.379 68.168C123.379 71.2044 124.124 72.7227 125.613 72.7227C126.143 72.7227 126.723 72.4362 127.354 71.8633C127.998 71.276 128.628 70.5098 129.244 69.5645C129.86 68.6191 130.404 67.5951 130.877 66.4922C131.364 65.375 131.715 64.2865 131.93 63.2266L132.789 58.8438C132.445 58.4714 131.743 58.2852 130.684 58.2852ZM147.055 56.3086C148.745 56.3086 150.055 56.8958 150.986 58.0703C151.917 59.2448 152.383 60.8633 152.383 62.9258C152.383 64.401 152.096 65.8691 151.523 67.3301C150.951 68.7767 150.199 70.0944 149.268 71.2832C148.337 72.472 147.312 73.4245 146.195 74.1406C145.078 74.8568 143.975 75.2148 142.887 75.2148C141.168 75.2148 139.857 74.6562 138.955 73.5391C138.053 72.4219 137.602 70.832 137.602 68.7695C137.602 67.2799 137.881 65.8047 138.439 64.3438C139.012 62.8685 139.764 61.5293 140.695 60.3262C141.626 59.1087 142.643 58.1348 143.746 57.4043C144.863 56.6738 145.966 56.3086 147.055 56.3086ZM146.539 58.0703C145.823 58.0703 145.128 58.3854 144.455 59.0156C143.782 59.6315 143.173 60.4408 142.629 61.4434C142.085 62.446 141.655 63.5417 141.34 64.7305C141.025 65.9193 140.867 67.0794 140.867 68.2109C140.867 69.8724 141.132 71.1615 141.662 72.0781C142.192 72.9948 142.858 73.4531 143.66 73.4531C144.376 73.4531 145.057 73.1452 145.701 72.5293C146.36 71.8991 146.947 71.0827 147.463 70.0801C147.979 69.0632 148.38 67.9603 148.666 66.7715C148.967 65.5827 149.117 64.4154 149.117 63.2695C149.117 61.5794 148.888 60.2904 148.43 59.4023C147.971 58.5143 147.341 58.0703 146.539 58.0703ZM169.785 44.9648C171.618 44.9648 172.793 45.4518 173.309 46.4258C173.309 48.2878 172.793 49.2188 171.762 49.2188C171.303 49.2188 170.895 49.0039 170.537 48.5742C170.193 48.1302 169.842 47.6934 169.484 47.2637C169.141 46.8197 168.725 46.5977 168.238 46.5977C167.322 46.5977 166.348 47.5358 165.316 49.4121C164.299 51.2598 163.497 53.8737 162.91 57.2539V57.3398C162.91 57.4544 162.953 57.5117 163.039 57.5117H167.98C168.124 57.5117 168.195 57.6836 168.195 58.0273C168.195 58.5 168.038 58.987 167.723 59.4883H162.695C162.538 59.4883 162.452 59.6029 162.438 59.832L160.074 72.6797C159.387 76.6615 158.176 79.6979 156.443 81.7891C154.71 83.8802 152.827 84.9258 150.793 84.9258C149.79 84.9258 149.003 84.7467 148.43 84.3887C147.857 84.0306 147.484 83.6224 147.312 83.1641C147.284 82.5052 147.441 81.918 147.785 81.4023C148.129 80.8867 148.559 80.6289 149.074 80.6289C149.475 80.6289 149.826 80.8438 150.127 81.2734C150.413 81.7174 150.721 82.1543 151.051 82.584C151.366 83.028 151.767 83.25 152.254 83.25C152.827 83.25 153.364 82.9134 153.865 82.2402C154.381 81.5814 154.846 80.7578 155.262 79.7695C155.677 78.7812 156.021 77.793 156.293 76.8047C156.565 75.8164 156.751 75 156.852 74.3555L159.43 59.7891V59.7031C159.43 59.5599 159.387 59.4883 159.301 59.4883H156.508C156.451 59.4883 156.422 59.4453 156.422 59.3594C156.422 59.1875 156.529 58.9583 156.744 58.6719C156.959 58.3711 157.224 58.1061 157.539 57.877C157.868 57.6335 158.184 57.5117 158.484 57.5117H159.73C159.845 57.5117 159.931 57.3828 159.988 57.125C160.375 54.776 161.062 52.6849 162.051 50.8516C163.053 49.0182 164.228 47.5788 165.574 46.5332C166.935 45.4876 168.339 44.9648 169.785 44.9648Z" fill="white"/>
<path d="M0 14.4961C6.30012 20.0984 15.0791 19.1979 30.687 15.1421C32.2497 14.736 33.9168 14.9601 35.3059 15.7832L61.0905 31.063L35.3304 19.6141C33.9205 18.9874 32.3183 18.9353 30.8588 19.4358C12.5496 25.7159 4.73674 24.7283 0 14.4961Z" fill="url(#paint8_radial_692_1632)"/>
<path d="M16.5669 25.8858C22.7094 27.5488 34.4861 19.1752 43.5027 24.2129C35.7991 20.3448 24.9274 34.7378 16.5669 25.8858Z" fill="url(#paint9_radial_692_1632)"/>
<path d="M42.4528 34.1693C40.4746 32.9379 39.8039 31.791 39.5364 30.2054C39.314 28.8871 40.2138 27.6374 41.514 27.3262C46.4064 26.1551 49.6595 27.3172 54.8779 31.063C50.3759 26.3362 46.8249 25.2844 39.6469 25.78C38.7972 25.8387 38.0191 26.2751 37.5081 26.9564L36.1669 28.7446C35.6047 29.4943 35.6307 30.5432 36.2784 31.2205C38.4425 33.4837 39.9798 34.1156 42.4528 34.1693Z" fill="url(#paint10_radial_692_1632)"/>
<path d="M61.0905 28.9921C48.8725 19.5072 53.131 18.6378 60.0551 10.3543C56.6285 8.93238 54.8937 8.83857 52.8071 12.4252C51.2879 8.29387 49.7783 6.42726 45.559 4.14173C43.8524 8.52031 44.6321 10.6991 46.5945 14.4961C42.9378 12.0347 40.7471 11.3823 36.2402 13.4606C46.3046 17.727 45.2926 18.8748 61.0905 28.9921Z" fill="url(#paint11_radial_692_1632)"/>
<path d="M78.6929 22.7441C78.6929 22.1918 79.1406 21.7441 79.6929 21.7441H79.7638C80.3161 21.7441 80.7638 22.1918 80.7638 22.7441V25.9213C80.7638 26.4735 80.3161 26.9213 79.7638 26.9213H74.4803C73.3757 26.9213 72.4803 26.0258 72.4803 24.9213V19.6024C72.4803 18.4978 73.3757 17.6024 74.4803 17.6024H78.7281C80.6137 17.6024 82.4755 18.023 84.178 18.8337V18.8337C85.2965 19.3663 86.1249 20.3629 86.4441 21.5599L88.3399 28.6695C89.2063 31.9182 86.6836 35.0788 83.3237 34.9544L68.0679 34.3894C64.7776 34.2675 62.2002 31.5169 62.2923 28.2256L62.6948 13.8426C62.7856 10.5955 65.4441 8.01038 68.6924 8.01038H83.0387C86.0229 8.01038 88.8896 9.21712 90.915 11.4088C101.807 23.194 109.097 33.3225 115.395 32.2299C115.685 32.1796 115.968 32.3916 115.968 32.686V32.686C115.968 32.9325 115.766 33.1318 115.519 33.1285C109.37 33.045 105.37 32.4313 87.653 13.254C86.5367 12.0456 85.0793 11.1983 83.4735 10.8414L77.8584 9.59364C77.0431 9.41248 76.199 9.4035 75.3801 9.56728L71.091 10.4251C68.2865 10.986 66.2677 13.4485 66.2677 16.3086V27.0984C66.2677 29.8599 68.5063 32.0984 71.2677 32.0984H80.9055C83.1146 32.0984 84.9055 30.3076 84.9055 28.0984V22.6378C84.9055 20.4287 83.1146 18.6378 80.9055 18.6378H76.5512C75.4466 18.6378 74.5512 19.5332 74.5512 20.6378V24.8858C74.5512 25.4381 74.9989 25.8858 75.5512 25.8858H77.6929C78.2452 25.8858 78.6929 25.4381 78.6929 24.8858V22.7441Z" fill="url(#paint12_radial_692_1632)"/>
<path d="M104.412 33.0631C96.4743 29.9513 88.3242 12.4066 78.6929 13.4606C91.6665 19.2326 92.9183 31.4785 104.412 33.0631Z" fill="url(#paint13_radial_692_1632)"/>
<path d="M111.827 30.0276C106.485 21.6827 106.361 16.9143 110.791 8.28346C105.363 9.71409 97.6256 19.5114 111.827 30.0276Z" fill="url(#paint14_radial_692_1632)"/>
<path d="M118.039 10.3543C113.102 14.0549 110.405 23.2793 118.039 32.0984C106.33 25.6888 109.793 12.7713 118.039 0V10.3543Z" fill="url(#paint15_radial_692_1632)"/>
<path d="M236.079 14.4961C229.779 20.0984 221 19.1979 205.392 15.1421C203.829 14.736 202.162 14.9601 200.773 15.7832L174.989 31.063L200.749 19.6141C202.159 18.9874 203.761 18.9353 205.22 19.4358C223.529 25.7159 231.342 24.7283 236.079 14.4961Z" fill="url(#paint16_radial_692_1632)"/>
<path d="M219.512 25.8858C213.37 27.5488 201.593 19.1752 192.576 24.2129C200.28 20.3448 211.152 34.7378 219.512 25.8858Z" fill="url(#paint17_radial_692_1632)"/>
<path d="M193.626 34.1693C195.605 32.9379 196.275 31.791 196.543 30.2054C196.765 28.8871 195.865 27.6374 194.565 27.3262C189.673 26.1551 186.42 27.3172 181.201 31.063C185.703 26.3362 189.254 25.2844 196.432 25.78C197.282 25.8387 198.06 26.2751 198.571 26.9564L199.912 28.7446C200.474 29.4943 200.448 30.5432 199.801 31.2205C197.637 33.4837 196.099 34.1156 193.626 34.1693Z" fill="url(#paint18_radial_692_1632)"/>
<path d="M174.989 28.9921C187.207 19.5072 182.948 18.6378 176.024 10.3543C179.451 8.93238 181.185 8.83857 183.272 12.4252C184.791 8.29387 186.301 6.42726 190.52 4.14173C192.227 8.52031 191.447 10.6991 189.485 14.4961C193.141 12.0347 195.332 11.3823 199.839 13.4606C189.775 17.727 190.787 18.8748 174.989 28.9921Z" fill="url(#paint19_radial_692_1632)"/>
<path d="M157.386 22.7441C157.386 22.1918 156.938 21.7441 156.386 21.7441H156.315C155.763 21.7441 155.315 22.1918 155.315 22.7441V25.9213C155.315 26.4735 155.763 26.9213 156.315 26.9213H161.599C162.703 26.9213 163.599 26.0258 163.599 24.9213V19.6024C163.599 18.4978 162.703 17.6024 161.599 17.6024H157.351C155.465 17.6024 153.604 18.023 151.901 18.8337V18.8337C150.783 19.3663 149.954 20.3629 149.635 21.5599L147.739 28.6695C146.873 31.9182 149.396 35.0788 152.755 34.9544L168.011 34.3894C171.301 34.2675 173.879 31.5169 173.787 28.2256L173.384 13.8426C173.293 10.5955 170.635 8.01038 167.387 8.01038H153.04C150.056 8.01038 147.19 9.21712 145.164 11.4088C134.273 23.194 126.982 33.3225 120.684 32.2299C120.394 32.1796 120.111 32.3916 120.111 32.686V32.686C120.111 32.9325 120.313 33.1318 120.56 33.1285C126.709 33.045 130.709 32.4313 148.426 13.254C149.542 12.0456 151 11.1983 152.606 10.8414L158.221 9.59364C159.036 9.41248 159.88 9.4035 160.699 9.56728L164.988 10.4251C167.793 10.986 169.811 13.4485 169.811 16.3086V27.0984C169.811 29.8599 167.573 32.0984 164.811 32.0984H155.174C152.964 32.0984 151.174 30.3076 151.174 28.0984V22.6378C151.174 20.4287 152.964 18.6378 155.174 18.6378H159.528C160.633 18.6378 161.528 19.5332 161.528 20.6378V24.8858C161.528 25.4381 161.08 25.8858 160.528 25.8858H158.386C157.834 25.8858 157.386 25.4381 157.386 24.8858V22.7441Z" fill="url(#paint20_radial_692_1632)"/>
<path d="M131.667 33.0631C139.605 29.9513 147.755 12.4066 157.386 13.4606C144.413 19.2326 143.161 31.4785 131.667 33.0631Z" fill="url(#paint21_radial_692_1632)"/>
<path d="M124.252 30.0276C129.594 21.6827 129.718 16.9143 125.288 8.28346C130.716 9.71409 138.454 19.5114 124.252 30.0276Z" fill="url(#paint22_radial_692_1632)"/>
<path d="M118.04 10.3543C122.977 14.0549 125.674 23.2793 118.04 32.0984C129.75 25.6888 126.286 12.7713 118.04 0V10.3543Z" fill="url(#paint23_radial_692_1632)"/>
<defs>
<radialGradient id="paint0_radial_692_1632" cx="0" cy="0" r="1" gradientUnits="userSpaceOnUse" gradientTransform="translate(79.728 111.309) scale(38.311 20.1909)">
<stop stop-color="#E1E1E1"/>
<stop offset="1" stop-color="#FFF4DA"/>
</radialGradient>
<radialGradient id="paint1_radial_692_1632" cx="0" cy="0" r="1" gradientUnits="userSpaceOnUse" gradientTransform="translate(79.728 111.309) scale(38.311 20.1909)">
<stop stop-color="#E1E1E1"/>
<stop offset="1" stop-color="#FFF4DA"/>
</radialGradient>
<radialGradient id="paint2_radial_692_1632" cx="0" cy="0" r="1" gradientUnits="userSpaceOnUse" gradientTransform="translate(79.728 111.309) scale(38.311 20.1909)">
<stop stop-color="#E1E1E1"/>
<stop offset="1" stop-color="#FFF4DA"/>
</radialGradient>
<radialGradient id="paint3_radial_692_1632" cx="0" cy="0" r="1" gradientUnits="userSpaceOnUse" gradientTransform="translate(79.728 111.309) scale(38.311 20.1909)">
<stop stop-color="#E1E1E1"/>
<stop offset="1" stop-color="#FFF4DA"/>
</radialGradient>
<radialGradient id="paint4_radial_692_1632" cx="0" cy="0" r="1" gradientUnits="userSpaceOnUse" gradientTransform="translate(156.35 111.309) rotate(180) scale(38.311 20.1909)">
<stop stop-color="#E1E1E1"/>
<stop offset="1" stop-color="#FFF4DA"/>
</radialGradient>
<radialGradient id="paint5_radial_692_1632" cx="0" cy="0" r="1" gradientUnits="userSpaceOnUse" gradientTransform="translate(156.35 111.309) rotate(180) scale(38.311 20.1909)">
<stop stop-color="#E1E1E1"/>
<stop offset="1" stop-color="#FFF4DA"/>
</radialGradient>
<radialGradient id="paint6_radial_692_1632" cx="0" cy="0" r="1" gradientUnits="userSpaceOnUse" gradientTransform="translate(156.35 111.309) rotate(180) scale(38.311 20.1909)">
<stop stop-color="#E1E1E1"/>
<stop offset="1" stop-color="#FFF4DA"/>
</radialGradient>
<radialGradient id="paint7_radial_692_1632" cx="0" cy="0" r="1" gradientUnits="userSpaceOnUse" gradientTransform="translate(156.35 111.309) rotate(180) scale(38.311 20.1909)">
<stop stop-color="#E1E1E1"/>
<stop offset="1" stop-color="#FFF4DA"/>
</radialGradient>
<radialGradient id="paint8_radial_692_1632" cx="0" cy="0" r="1" gradientUnits="userSpaceOnUse" gradientTransform="translate(59.0197 17.6024) scale(59.0197 17.6024)">
<stop stop-color="#E1E1E1"/>
<stop offset="1" stop-color="#FFF4DA"/>
</radialGradient>
<radialGradient id="paint9_radial_692_1632" cx="0" cy="0" r="1" gradientUnits="userSpaceOnUse" gradientTransform="translate(59.0197 17.6024) scale(59.0197 17.6024)">
<stop stop-color="#E1E1E1"/>
<stop offset="1" stop-color="#FFF4DA"/>
</radialGradient>
<radialGradient id="paint10_radial_692_1632" cx="0" cy="0" r="1" gradientUnits="userSpaceOnUse" gradientTransform="translate(59.0197 17.6024) scale(59.0197 17.6024)">
<stop stop-color="#E1E1E1"/>
<stop offset="1" stop-color="#FFF4DA"/>
</radialGradient>
<radialGradient id="paint11_radial_692_1632" cx="0" cy="0" r="1" gradientUnits="userSpaceOnUse" gradientTransform="translate(59.0197 17.6024) scale(59.0197 17.6024)">
<stop stop-color="#E1E1E1"/>
<stop offset="1" stop-color="#FFF4DA"/>
</radialGradient>
<radialGradient id="paint12_radial_692_1632" cx="0" cy="0" r="1" gradientUnits="userSpaceOnUse" gradientTransform="translate(59.0197 17.6024) scale(59.0197 17.6024)">
<stop stop-color="#E1E1E1"/>
<stop offset="1" stop-color="#FFF4DA"/>
</radialGradient>
<radialGradient id="paint13_radial_692_1632" cx="0" cy="0" r="1" gradientUnits="userSpaceOnUse" gradientTransform="translate(59.0197 17.6024) scale(59.0197 17.6024)">
<stop stop-color="#E1E1E1"/>
<stop offset="1" stop-color="#FFF4DA"/>
</radialGradient>
<radialGradient id="paint14_radial_692_1632" cx="0" cy="0" r="1" gradientUnits="userSpaceOnUse" gradientTransform="translate(59.0197 17.6024) scale(59.0197 17.6024)">
<stop stop-color="#E1E1E1"/>
<stop offset="1" stop-color="#FFF4DA"/>
</radialGradient>
<radialGradient id="paint15_radial_692_1632" cx="0" cy="0" r="1" gradientUnits="userSpaceOnUse" gradientTransform="translate(59.0197 17.6024) scale(59.0197 17.6024)">
<stop stop-color="#E1E1E1"/>
<stop offset="1" stop-color="#FFF4DA"/>
</radialGradient>
<radialGradient id="paint16_radial_692_1632" cx="0" cy="0" r="1" gradientUnits="userSpaceOnUse" gradientTransform="translate(177.059 17.6024) rotate(180) scale(59.0197 17.6024)">
<stop stop-color="#E1E1E1"/>
<stop offset="1" stop-color="#FFF4DA"/>
</radialGradient>
<radialGradient id="paint17_radial_692_1632" cx="0" cy="0" r="1" gradientUnits="userSpaceOnUse" gradientTransform="translate(177.059 17.6024) rotate(180) scale(59.0197 17.6024)">
<stop stop-color="#E1E1E1"/>
<stop offset="1" stop-color="#FFF4DA"/>
</radialGradient>
<radialGradient id="paint18_radial_692_1632" cx="0" cy="0" r="1" gradientUnits="userSpaceOnUse" gradientTransform="translate(177.059 17.6024) rotate(180) scale(59.0197 17.6024)">
<stop stop-color="#E1E1E1"/>
<stop offset="1" stop-color="#FFF4DA"/>
</radialGradient>
<radialGradient id="paint19_radial_692_1632" cx="0" cy="0" r="1" gradientUnits="userSpaceOnUse" gradientTransform="translate(177.059 17.6024) rotate(180) scale(59.0197 17.6024)">
<stop stop-color="#E1E1E1"/>
<stop offset="1" stop-color="#FFF4DA"/>
</radialGradient>
<radialGradient id="paint20_radial_692_1632" cx="0" cy="0" r="1" gradientUnits="userSpaceOnUse" gradientTransform="translate(177.059 17.6024) rotate(180) scale(59.0197 17.6024)">
<stop stop-color="#E1E1E1"/>
<stop offset="1" stop-color="#FFF4DA"/>
</radialGradient>
<radialGradient id="paint21_radial_692_1632" cx="0" cy="0" r="1" gradientUnits="userSpaceOnUse" gradientTransform="translate(177.059 17.6024) rotate(180) scale(59.0197 17.6024)">
<stop stop-color="#E1E1E1"/>
<stop offset="1" stop-color="#FFF4DA"/>
</radialGradient>
<radialGradient id="paint22_radial_692_1632" cx="0" cy="0" r="1" gradientUnits="userSpaceOnUse" gradientTransform="translate(177.059 17.6024) rotate(180) scale(59.0197 17.6024)">
<stop stop-color="#E1E1E1"/>
<stop offset="1" stop-color="#FFF4DA"/>
</radialGradient>
<radialGradient id="paint23_radial_692_1632" cx="0" cy="0" r="1" gradientUnits="userSpaceOnUse" gradientTransform="translate(177.059 17.6024) rotate(180) scale(59.0197 17.6024)">
<stop stop-color="#E1E1E1"/>
<stop offset="1" stop-color="#FFF4DA"/>
</radialGradient>
</defs>
</svg>
