<svg width="237" height="132" viewBox="0 0 237 132" fill="none" xmlns="http://www.w3.org/2000/svg">
<path d="M50.7125 108.06C49.3889 108.487 47.9214 108.504 46.7169 107.809C44.5794 106.575 44.1412 105.154 44.5234 102.508V102.508C42.8798 103.056 42.063 104.953 43.0339 106.388C43.9977 107.812 45.0937 108.974 46.6267 110.246C47.9171 111.316 49.5696 111.855 51.2458 111.812C56.4406 111.679 59.0349 110.851 62.1257 108.72C61.1051 110.641 61.1618 111.76 61.9885 113.6C62.0605 113.76 62.2568 113.822 62.4077 113.731C64.0825 112.73 65.0039 111.892 66.2674 109.756C66.2154 114.032 66.9843 113.977 70.4091 114.933C67.5194 110.86 68.0525 109.221 70.1981 106.254C70.9958 105.151 72.1259 104.331 73.4053 103.866L78.5776 101.985C81.3342 100.982 84.3487 100.942 87.1313 101.869L104.173 107.55C104.307 107.435 104.442 107.326 104.578 107.223V104.508C104.578 103.403 105.474 102.508 106.578 102.508H108.791C109.896 102.508 110.791 103.403 110.791 104.508V105.614H111.826V103.472C111.826 102.368 110.931 101.472 109.826 101.472H105.543C104.438 101.472 103.543 102.368 103.543 103.472V106.65C98.7736 103.748 93.5321 101.584 86.7257 99.7769C82.8456 98.747 78.7534 99.0145 74.9328 100.247L50.7125 108.06Z" fill="url(#paint0_radial_692_190)"/>
<path fill-rule="evenodd" clip-rule="evenodd" d="M118.039 111.827V108.721C115.458 105.74 114.163 105.799 111.826 105.614H110.791C108.063 105.589 106.222 105.979 104.578 107.223V107.685L104.173 107.55C103.27 108.327 102.409 109.382 101.472 110.791C94.4225 108.167 92.2419 105.859 84.6304 104.117C82.7927 103.696 80.8379 103.854 79.1733 104.739C77.1406 105.82 75.7478 107.075 74.4004 109.235C73.7976 110.201 73.7049 111.42 74.2146 112.438C75.0495 114.107 76.2498 115.417 79.1376 117.128C80.1186 117.709 81.3505 117.62 82.2784 116.957L86.28 114.099C87.2184 113.429 87.4128 112.09 86.6211 111.251C84.8302 109.354 83.7227 109.09 81.7989 109.756C83.0242 110.067 83.7473 110.456 84.396 111.688C84.7596 112.378 84.5518 113.216 84 113.767L82.2754 115.492C81.3706 116.397 79.9663 116.664 78.9055 115.948C77.3915 114.927 76.4781 113.802 75.4876 112.283C74.8937 111.372 74.8539 110.185 75.48 109.296C77.188 106.871 79.0763 106.022 82.8343 105.614C87.5138 105.758 93.9734 109.592 101.472 112.862C101.61 115.305 101.827 117.608 105.43 119.531C106.15 119.915 107.027 119.733 107.604 119.156L110.252 116.508C110.55 116.21 110.55 115.727 110.252 115.429V115.429C109.971 115.149 109.521 115.134 109.21 115.381C104.882 118.812 103.349 117.017 102.508 112.862C108.784 113.743 111.6 112.063 112.862 106.65H114.933L118.039 111.827ZM102.508 111.827C105.324 107.593 107.416 106.549 111.826 106.65C109.581 111.782 107.623 113.001 102.508 111.827Z" fill="url(#paint1_radial_692_190)"/>
<path d="M118.039 114.933V111.827C116.112 115.763 116.189 118.074 110.791 119.075C111.96 121.038 112.806 121.636 114.933 121.146C115.324 125.201 115.717 127.472 118.039 131.5V125.287C116.703 121.107 116.952 118.865 118.039 114.933Z" fill="url(#paint2_radial_692_190)"/>
<path d="M115.968 98.3662C116.06 94.792 116.696 93.3936 118.039 91.1182V105.614C115.722 100.811 114.342 99.4138 111.826 99.4015C113.364 97.8121 114.276 97.3638 115.968 98.3662Z" fill="url(#paint3_radial_692_190)"/>
<path d="M185.366 108.06C186.689 108.487 188.157 108.504 189.361 107.809C191.499 106.575 191.937 105.154 191.555 102.508V102.508C193.198 103.056 194.015 104.953 193.044 106.388C192.08 107.812 190.984 108.974 189.451 110.246C188.161 111.316 186.509 111.855 184.832 111.812C179.637 111.679 177.043 110.851 173.952 108.72C174.973 110.641 174.916 111.76 174.09 113.6C174.018 113.76 173.821 113.822 173.67 113.731C171.996 112.73 171.074 111.892 169.811 109.756C169.863 114.032 169.094 113.977 165.669 114.933C168.559 110.86 168.026 109.221 165.88 106.254C165.082 105.151 163.952 104.331 162.673 103.866L157.5 101.985C154.744 100.982 151.729 100.942 148.947 101.869L131.905 107.55C131.771 107.435 131.636 107.326 131.5 107.223V104.508C131.5 103.403 130.604 102.508 129.5 102.508H127.287C126.183 102.508 125.287 103.403 125.287 104.508V105.614H124.252V103.472C124.252 102.368 125.147 101.472 126.252 101.472H130.535C131.64 101.472 132.535 102.368 132.535 103.472V106.65C137.304 103.748 142.546 101.584 149.352 99.7769C153.232 98.747 157.325 99.0145 161.145 100.247L185.366 108.06Z" fill="url(#paint4_radial_692_190)"/>
<path fill-rule="evenodd" clip-rule="evenodd" d="M118.039 111.827V108.721C120.62 105.74 121.915 105.799 124.252 105.614H125.287C128.015 105.589 129.856 105.979 131.5 107.223V107.685L131.905 107.55C132.808 108.327 133.669 109.382 134.606 110.791C141.656 108.167 143.836 105.859 151.448 104.117C153.285 103.696 155.24 103.854 156.905 104.739C158.938 105.82 160.33 107.075 161.678 109.235C162.281 110.201 162.373 111.42 161.863 112.438C161.029 114.107 159.828 115.417 156.941 117.128C155.96 117.709 154.728 117.62 153.8 116.957L149.798 114.099C148.86 113.429 148.665 112.09 149.457 111.251C151.248 109.354 152.355 109.09 154.279 109.756C153.054 110.067 152.331 110.456 151.682 111.688C151.319 112.378 151.526 113.216 152.078 113.767L153.803 115.492C154.708 116.397 156.112 116.664 157.173 115.948C158.687 114.927 159.6 113.802 160.591 112.283C161.184 111.372 161.224 110.185 160.598 109.296C158.89 106.871 157.002 106.022 153.244 105.614C148.564 105.758 142.105 109.592 134.606 112.862C134.468 115.305 134.251 117.608 130.648 119.531C129.928 119.915 129.051 119.733 128.474 119.156L125.826 116.508C125.528 116.21 125.528 115.727 125.826 115.429V115.429C126.107 115.149 126.557 115.134 126.868 115.381C131.196 118.812 132.729 117.017 133.571 112.862C127.294 113.743 124.478 112.063 123.216 106.65H121.145L118.039 111.827ZM133.571 111.827C130.754 107.593 128.662 106.549 124.252 106.65C126.497 111.782 128.455 113.001 133.571 111.827Z" fill="url(#paint5_radial_692_190)"/>
<path d="M118.039 114.933V111.827C119.967 115.763 119.889 118.074 125.287 119.075C124.119 121.038 123.273 121.636 121.145 121.146C120.754 125.201 120.361 127.472 118.039 131.5V125.287C119.375 121.107 119.126 118.865 118.039 114.933Z" fill="url(#paint6_radial_692_190)"/>
<path d="M120.11 98.3662C120.019 94.792 119.382 93.3936 118.039 91.1182V105.614C120.356 100.811 121.736 99.4138 124.252 99.4015C122.714 97.8121 121.802 97.3638 120.11 98.3662Z" fill="url(#paint7_radial_692_190)"/>
<path d="M85.1172 65.7617C85.1172 67.3229 84.6302 68.8125 83.6562 70.2305C82.6966 71.6341 81.3288 72.7799 79.5527 73.668C77.791 74.556 75.6927 75 73.2578 75H67.8008L63.0742 75.1289C63.0456 75.1003 63.0312 74.9714 63.0312 74.7422C63.0312 74.1693 63.1315 73.8828 63.332 73.8828C63.5612 73.8828 63.8835 73.8398 64.2988 73.7539C64.7142 73.6536 65.1009 73.5319 65.459 73.3887C65.8314 73.2311 66.0534 73.0664 66.125 72.8945C66.526 72.0781 66.8984 70.7461 67.2422 68.8984L70.3359 52.9141C70.651 51.3242 70.8086 49.9922 70.8086 48.918C70.8086 48.7747 70.651 48.6243 70.3359 48.4668C70.0208 48.3092 69.6699 48.1732 69.2832 48.0586C68.9108 47.944 68.6172 47.8867 68.4023 47.8867C68.3451 47.8867 68.3164 47.8294 68.3164 47.7148C68.3164 47.2565 68.4167 46.9271 68.6172 46.7266C69.276 46.7552 69.985 46.7767 70.7441 46.791C71.5176 46.8053 72.3411 46.8125 73.2148 46.8125C73.888 46.8125 74.4967 46.8125 75.041 46.8125C75.5996 46.8125 76.0938 46.8053 76.5234 46.791C76.9531 46.7767 77.3613 46.7695 77.748 46.7695C78.1348 46.7695 78.5 46.7695 78.8438 46.7695C79.6458 46.7695 80.4408 46.8626 81.2285 47.0488C82.0163 47.235 82.7754 47.5286 83.5059 47.9297C84.2363 48.3307 84.8307 48.9108 85.2891 49.6699C85.7474 50.429 85.9766 51.3099 85.9766 52.3125C85.9766 52.9714 85.8763 53.6374 85.6758 54.3105C85.4753 54.9551 85.2174 55.5065 84.9023 55.9648C84.5872 56.4232 84.2292 56.8529 83.8281 57.2539C83.3411 57.7409 82.8112 58.1777 82.2383 58.5645C81.6654 58.9368 81.1927 59.2018 80.8203 59.3594L80.5625 59.4883C81.1354 59.5742 81.7728 59.9108 82.4746 60.498C83.1908 61.0853 83.8066 61.8372 84.3223 62.7539C84.8522 63.6706 85.1172 64.6732 85.1172 65.7617ZM82.3242 52.8281C82.3242 49.9635 80.849 48.5312 77.8984 48.5312C75.8216 48.5312 74.7474 48.7174 74.6758 49.0898L72.7422 58.4141C72.6992 58.5859 72.821 58.7148 73.1074 58.8008C73.4082 58.8724 73.7663 58.9225 74.1816 58.9512C74.597 58.9655 74.9622 58.9727 75.2773 58.9727C76.194 58.9727 76.9818 58.9154 77.6406 58.8008C78.2995 58.6862 79.0299 58.4427 79.832 58.0703C81.4935 57.2969 82.3242 55.5495 82.3242 52.8281ZM81.25 65.9336C81.25 64.4154 80.7773 63.1764 79.832 62.2168C78.8867 61.2572 77.3685 60.7773 75.2773 60.7773C73.2435 60.7773 72.1836 60.9922 72.0977 61.4219L70.4648 70.0156C70.3216 70.832 70.25 71.5195 70.25 72.0781C70.25 72.6081 70.472 72.9375 70.916 73.0664C71.36 73.181 71.9974 73.2383 72.8281 73.2383C74.819 73.2383 76.2083 73.0521 76.9961 72.6797C78.1706 72.1354 79.1732 71.2617 80.0039 70.0586C80.8346 68.8555 81.25 67.4805 81.25 65.9336ZM99.7695 56.3086C100.829 56.3086 101.875 56.4948 102.906 56.8672L100.285 70.4453C100.199 70.7891 100.156 71.1471 100.156 71.5195C100.156 72.2357 100.299 72.5938 100.586 72.5938C100.944 72.5938 101.374 72.3431 101.875 71.8418C102.376 71.3262 102.806 70.8893 103.164 70.5312L103.422 70.2305C103.479 70.2305 103.587 70.3665 103.744 70.6387C103.902 70.9108 103.98 71.1042 103.98 71.2188C103.737 71.6341 103.293 72.1641 102.648 72.8086C102.018 73.4531 101.331 74.026 100.586 74.5273C99.8411 75.0143 99.168 75.2578 98.5664 75.2578C98.1081 75.2578 97.75 75.0501 97.4922 74.6348C97.2344 74.2194 97.1055 73.6823 97.1055 73.0234C97.1055 72.5794 97.2057 71.8203 97.4062 70.7461L97.5566 69.9941C97.5996 69.7936 97.6211 69.6719 97.6211 69.6289C97.3919 70.0586 97.0625 70.5885 96.6328 71.2188C96.2031 71.8346 95.709 72.4505 95.1504 73.0664C94.5918 73.6823 94.0046 74.1979 93.3887 74.6133C92.7728 75.0143 92.1641 75.2148 91.5625 75.2148C90.3021 75.2148 89.3066 74.6491 88.5762 73.5176C87.8457 72.3861 87.4805 71.0182 87.4805 69.4141C87.4805 67.3659 88.0892 65.3249 89.3066 63.291C90.123 61.916 91.097 60.7057 92.2285 59.6602C93.3743 58.6146 94.599 57.7982 95.9023 57.2109C97.2057 56.6094 98.4948 56.3086 99.7695 56.3086ZM97.9648 58.2852C97.1198 58.2852 96.2676 58.5859 95.4082 59.1875C94.5488 59.7747 93.7611 60.5697 93.0449 61.5723C92.3288 62.5605 91.7487 63.6634 91.3047 64.8809C90.875 66.084 90.6602 67.2943 90.6602 68.5117C90.6602 71.319 91.3906 72.7227 92.8516 72.7227C93.3672 72.7227 93.9258 72.4362 94.5273 71.8633C95.1289 71.2904 95.7233 70.5312 96.3105 69.5859C96.8978 68.6406 97.4134 67.6165 97.8574 66.5137C98.3158 65.3965 98.6523 64.3008 98.8672 63.2266L99.7266 58.8438C99.3828 58.4714 98.7956 58.2852 97.9648 58.2852ZM119.277 56.3086C120.538 56.3086 121.684 56.4948 122.715 56.8672L120.094 70.4453L118.16 81.3164C118.103 81.7174 118.074 82.0182 118.074 82.2188C118.074 82.6914 118.225 83.0208 118.525 83.207C118.84 83.4076 119.349 83.5078 120.051 83.5078C120.108 83.5078 120.137 83.5938 120.137 83.7656C120.137 84.224 120.065 84.5677 119.922 84.7969C119.822 84.7969 119.7 84.7969 119.557 84.7969C119.413 84.7969 119.242 84.7897 119.041 84.7754C118.855 84.7611 118.69 84.7539 118.547 84.7539C118.404 84.7539 118.289 84.7539 118.203 84.7539C116.112 84.7539 114.035 84.8685 111.973 85.0977C111.973 85.026 111.965 84.9473 111.951 84.8613C111.937 84.7754 111.93 84.6823 111.93 84.582C111.93 84.0664 112.001 83.8086 112.145 83.8086C112.402 83.8086 112.682 83.7871 112.982 83.7441C113.283 83.7012 113.699 83.472 114.229 83.0566C114.758 82.6413 115.095 82.0612 115.238 81.3164L117.43 69.6289C117.229 69.9727 117 70.3307 116.742 70.7031C116.499 71.0612 116.227 71.4264 115.926 71.7988C115.525 72.3001 115.038 72.8158 114.465 73.3457C113.892 73.8757 113.305 74.3197 112.703 74.6777C112.116 75.0358 111.572 75.2148 111.07 75.2148C109.81 75.2148 108.807 74.6491 108.062 73.5176C107.318 72.3861 106.945 71.0182 106.945 69.4141C106.945 67.3802 107.561 65.3392 108.793 63.291C109.624 61.916 110.605 60.7057 111.736 59.6602C112.882 58.6146 114.107 57.7982 115.41 57.2109C116.714 56.6094 118.003 56.3086 119.277 56.3086ZM117.43 58.2852C116.499 58.2852 115.596 58.5788 114.723 59.166C113.849 59.7533 113.068 60.5267 112.381 61.4863C111.693 62.446 111.142 63.513 110.727 64.6875C110.326 65.8477 110.125 67.0078 110.125 68.168C110.125 71.2044 110.87 72.7227 112.359 72.7227C112.889 72.7227 113.469 72.4362 114.1 71.8633C114.744 71.276 115.374 70.5098 115.99 69.5645C116.606 68.6191 117.15 67.5951 117.623 66.4922C118.11 65.375 118.461 64.2865 118.676 63.2266L119.535 58.8438C119.191 58.4714 118.49 58.2852 117.43 58.2852ZM136.508 56.3086C137.568 56.3086 138.613 56.4948 139.645 56.8672L137.023 70.4453C136.938 70.7891 136.895 71.1471 136.895 71.5195C136.895 72.2357 137.038 72.5938 137.324 72.5938C137.682 72.5938 138.112 72.3431 138.613 71.8418C139.115 71.3262 139.544 70.8893 139.902 70.5312L140.16 70.2305C140.217 70.2305 140.325 70.3665 140.482 70.6387C140.64 70.9108 140.719 71.1042 140.719 71.2188C140.475 71.6341 140.031 72.1641 139.387 72.8086C138.757 73.4531 138.069 74.026 137.324 74.5273C136.579 75.0143 135.906 75.2578 135.305 75.2578C134.846 75.2578 134.488 75.0501 134.23 74.6348C133.973 74.2194 133.844 73.6823 133.844 73.0234C133.844 72.5794 133.944 71.8203 134.145 70.7461L134.295 69.9941C134.338 69.7936 134.359 69.6719 134.359 69.6289C134.13 70.0586 133.801 70.5885 133.371 71.2188C132.941 71.8346 132.447 72.4505 131.889 73.0664C131.33 73.6823 130.743 74.1979 130.127 74.6133C129.511 75.0143 128.902 75.2148 128.301 75.2148C127.04 75.2148 126.045 74.6491 125.314 73.5176C124.584 72.3861 124.219 71.0182 124.219 69.4141C124.219 67.3659 124.827 65.3249 126.045 63.291C126.861 61.916 127.835 60.7057 128.967 59.6602C130.113 58.6146 131.337 57.7982 132.641 57.2109C133.944 56.6094 135.233 56.3086 136.508 56.3086ZM134.703 58.2852C133.858 58.2852 133.006 58.5859 132.146 59.1875C131.287 59.7747 130.499 60.5697 129.783 61.5723C129.067 62.5605 128.487 63.6634 128.043 64.8809C127.613 66.084 127.398 67.2943 127.398 68.5117C127.398 71.319 128.129 72.7227 129.59 72.7227C130.105 72.7227 130.664 72.4362 131.266 71.8633C131.867 71.2904 132.462 70.5312 133.049 69.5859C133.636 68.6406 134.152 67.6165 134.596 66.5137C135.054 65.3965 135.391 64.3008 135.605 63.2266L136.465 58.8438C136.121 58.4714 135.534 58.2852 134.703 58.2852ZM149.227 56.3086C149.685 56.3086 150.043 56.5163 150.301 56.9316C150.559 57.347 150.688 57.8841 150.688 58.543C150.688 59.1732 150.602 59.9323 150.43 60.8203L149.742 64.4297C150.1 63.5846 150.559 62.6966 151.117 61.7656C151.69 60.8203 152.299 59.9323 152.943 59.1016C153.588 58.2708 154.225 57.5977 154.855 57.082C155.486 56.5664 156.044 56.3086 156.531 56.3086C157.505 56.3086 158.293 56.7669 158.895 57.6836C158.895 59.6029 158.365 60.5625 157.305 60.5625C157.076 60.5625 156.803 60.3835 156.488 60.0254C156.173 59.6673 155.844 59.4883 155.5 59.4883C155.085 59.4883 154.54 59.832 153.867 60.5195C153.194 61.207 152.499 62.1094 151.783 63.2266C151.067 64.3294 150.423 65.5254 149.85 66.8145C149.277 68.0892 148.883 69.3138 148.668 70.4883L147.852 75C147.365 75.0859 146.892 75.1289 146.434 75.1289C145.889 75.1289 145.359 75.0859 144.844 75L147.422 61.7656C147.565 60.7773 147.637 60.2044 147.637 60.0469C147.637 59.3307 147.493 58.9727 147.207 58.9727C146.964 58.9727 146.598 59.2018 146.111 59.6602C145.882 59.8893 145.632 60.14 145.359 60.4121C145.102 60.6842 144.93 60.8776 144.844 60.9922C144.786 60.9922 144.679 60.8561 144.521 60.584C144.364 60.3118 144.285 60.1185 144.285 60.0039C144.514 59.6172 144.93 59.1374 145.531 58.5645C146.133 57.9772 146.777 57.4544 147.465 56.9961C148.152 56.5378 148.74 56.3086 149.227 56.3086ZM170.496 56.3086C171.556 56.3086 172.602 56.4948 173.633 56.8672L171.012 70.4453C170.926 70.7891 170.883 71.1471 170.883 71.5195C170.883 72.2357 171.026 72.5938 171.312 72.5938C171.671 72.5938 172.1 72.3431 172.602 71.8418C173.103 71.3262 173.533 70.8893 173.891 70.5312L174.148 70.2305C174.206 70.2305 174.313 70.3665 174.471 70.6387C174.628 70.9108 174.707 71.1042 174.707 71.2188C174.464 71.6341 174.02 72.1641 173.375 72.8086C172.745 73.4531 172.057 74.026 171.312 74.5273C170.568 75.0143 169.895 75.2578 169.293 75.2578C168.835 75.2578 168.477 75.0501 168.219 74.6348C167.961 74.2194 167.832 73.6823 167.832 73.0234C167.832 72.5794 167.932 71.8203 168.133 70.7461L168.283 69.9941C168.326 69.7936 168.348 69.6719 168.348 69.6289C168.118 70.0586 167.789 70.5885 167.359 71.2188C166.93 71.8346 166.436 72.4505 165.877 73.0664C165.318 73.6823 164.731 74.1979 164.115 74.6133C163.499 75.0143 162.891 75.2148 162.289 75.2148C161.029 75.2148 160.033 74.6491 159.303 73.5176C158.572 72.3861 158.207 71.0182 158.207 69.4141C158.207 67.3659 158.816 65.3249 160.033 63.291C160.85 61.916 161.824 60.7057 162.955 59.6602C164.101 58.6146 165.326 57.7982 166.629 57.2109C167.932 56.6094 169.221 56.3086 170.496 56.3086ZM168.691 58.2852C167.846 58.2852 166.994 58.5859 166.135 59.1875C165.275 59.7747 164.488 60.5697 163.771 61.5723C163.055 62.5605 162.475 63.6634 162.031 64.8809C161.602 66.084 161.387 67.2943 161.387 68.5117C161.387 71.319 162.117 72.7227 163.578 72.7227C164.094 72.7227 164.652 72.4362 165.254 71.8633C165.855 71.2904 166.45 70.5312 167.037 69.5859C167.624 68.6406 168.14 67.6165 168.584 66.5137C169.042 65.3965 169.379 64.3008 169.594 63.2266L170.453 58.8438C170.109 58.4714 169.522 58.2852 168.691 58.2852Z" fill="white"/>
<path d="M0 14.4961C6.30012 20.0984 15.0791 19.1979 30.687 15.1421C32.2497 14.736 33.9168 14.9601 35.3059 15.7832L61.0905 31.063L35.3304 19.6141C33.9205 18.9874 32.3183 18.9353 30.8588 19.4358C12.5496 25.7159 4.73674 24.7283 0 14.4961Z" fill="url(#paint8_radial_692_190)"/>
<path d="M16.5669 25.8858C22.7094 27.5488 34.4861 19.1752 43.5027 24.2129C35.7991 20.3448 24.9274 34.7378 16.5669 25.8858Z" fill="url(#paint9_radial_692_190)"/>
<path d="M42.4528 34.1693C40.4746 32.9379 39.8039 31.791 39.5364 30.2054C39.314 28.8871 40.2138 27.6374 41.514 27.3262C46.4064 26.1551 49.6595 27.3172 54.8779 31.063C50.3759 26.3362 46.8249 25.2844 39.6469 25.78C38.7972 25.8387 38.0191 26.2751 37.5081 26.9564L36.1669 28.7446C35.6047 29.4943 35.6307 30.5432 36.2784 31.2205C38.4425 33.4837 39.9798 34.1156 42.4528 34.1693Z" fill="url(#paint10_radial_692_190)"/>
<path d="M61.0905 28.9921C48.8725 19.5072 53.131 18.6378 60.0551 10.3543C56.6285 8.93238 54.8937 8.83857 52.8071 12.4252C51.2879 8.29387 49.7783 6.42726 45.559 4.14173C43.8524 8.52031 44.6321 10.6991 46.5945 14.4961C42.9378 12.0347 40.7471 11.3823 36.2402 13.4606C46.3046 17.727 45.2926 18.8748 61.0905 28.9921Z" fill="url(#paint11_radial_692_190)"/>
<path d="M78.6929 22.7441C78.6929 22.1918 79.1406 21.7441 79.6929 21.7441H79.7638C80.3161 21.7441 80.7638 22.1918 80.7638 22.7441V25.9213C80.7638 26.4735 80.3161 26.9213 79.7638 26.9213H74.4803C73.3757 26.9213 72.4803 26.0258 72.4803 24.9213V19.6024C72.4803 18.4978 73.3757 17.6024 74.4803 17.6024H78.7281C80.6137 17.6024 82.4755 18.023 84.178 18.8337V18.8337C85.2965 19.3663 86.1249 20.3629 86.4441 21.5599L88.3399 28.6695C89.2063 31.9182 86.6836 35.0788 83.3237 34.9544L68.0679 34.3894C64.7776 34.2675 62.2002 31.5169 62.2923 28.2256L62.6948 13.8426C62.7856 10.5955 65.4441 8.01038 68.6924 8.01038H83.0387C86.0229 8.01038 88.8896 9.21712 90.915 11.4088C101.807 23.194 109.097 33.3225 115.395 32.2299C115.685 32.1796 115.968 32.3916 115.968 32.686V32.686C115.968 32.9325 115.766 33.1318 115.519 33.1285C109.37 33.045 105.37 32.4313 87.653 13.254C86.5367 12.0456 85.0793 11.1983 83.4735 10.8414L77.8584 9.59364C77.0431 9.41248 76.199 9.4035 75.3801 9.56728L71.091 10.4251C68.2865 10.986 66.2677 13.4485 66.2677 16.3086V27.0984C66.2677 29.8599 68.5063 32.0984 71.2677 32.0984H80.9055C83.1146 32.0984 84.9055 30.3076 84.9055 28.0984V22.6378C84.9055 20.4287 83.1146 18.6378 80.9055 18.6378H76.5512C75.4466 18.6378 74.5512 19.5332 74.5512 20.6378V24.8858C74.5512 25.4381 74.9989 25.8858 75.5512 25.8858H77.6929C78.2452 25.8858 78.6929 25.4381 78.6929 24.8858V22.7441Z" fill="url(#paint12_radial_692_190)"/>
<path d="M104.412 33.0631C96.4743 29.9513 88.3242 12.4066 78.6929 13.4606C91.6665 19.2326 92.9183 31.4785 104.412 33.0631Z" fill="url(#paint13_radial_692_190)"/>
<path d="M111.827 30.0276C106.485 21.6827 106.361 16.9143 110.791 8.28346C105.363 9.71409 97.6256 19.5114 111.827 30.0276Z" fill="url(#paint14_radial_692_190)"/>
<path d="M118.039 10.3543C113.102 14.0549 110.405 23.2793 118.039 32.0984C106.33 25.6888 109.793 12.7713 118.039 0V10.3543Z" fill="url(#paint15_radial_692_190)"/>
<path d="M236.079 14.4961C229.778 20.0984 221 19.1979 205.392 15.1421C203.829 14.736 202.162 14.9601 200.773 15.7832L174.988 31.063L200.748 19.6141C202.158 18.9874 203.76 18.9353 205.22 19.4358C223.529 25.7159 231.342 24.7283 236.079 14.4961Z" fill="url(#paint16_radial_692_190)"/>
<path d="M219.512 25.8858C213.369 27.5488 201.593 19.1752 192.576 24.2129C200.279 20.3448 211.151 34.7378 219.512 25.8858Z" fill="url(#paint17_radial_692_190)"/>
<path d="M193.626 34.1693C195.604 32.9379 196.275 31.791 196.542 30.2054C196.765 28.8871 195.865 27.6374 194.565 27.3262C189.672 26.1551 186.419 27.3172 181.201 31.063C185.703 26.3362 189.254 25.2844 196.432 25.78C197.281 25.8387 198.06 26.2751 198.571 26.9564L199.912 28.7446C200.474 29.4943 200.448 30.5432 199.8 31.2205C197.636 33.4837 196.099 34.1156 193.626 34.1693Z" fill="url(#paint18_radial_692_190)"/>
<path d="M174.988 28.9921C187.206 19.5072 182.948 18.6378 176.024 10.3543C179.45 8.93238 181.185 8.83857 183.272 12.4252C184.791 8.29387 186.3 6.42726 190.52 4.14173C192.226 8.52031 191.446 10.6991 189.484 14.4961C193.141 12.0347 195.331 11.3823 199.838 13.4606C189.774 17.727 190.786 18.8748 174.988 28.9921Z" fill="url(#paint19_radial_692_190)"/>
<path d="M157.386 22.7441C157.386 22.1918 156.938 21.7441 156.386 21.7441H156.315C155.763 21.7441 155.315 22.1918 155.315 22.7441V25.9213C155.315 26.4735 155.763 26.9213 156.315 26.9213H161.598C162.703 26.9213 163.598 26.0258 163.598 24.9213V19.6024C163.598 18.4978 162.703 17.6024 161.598 17.6024H157.351C155.465 17.6024 153.603 18.023 151.901 18.8337V18.8337C150.782 19.3663 149.954 20.3629 149.635 21.5599L147.739 28.6695C146.872 31.9182 149.395 35.0788 152.755 34.9544L168.011 34.3894C171.301 34.2675 173.878 31.5169 173.786 28.2256L173.384 13.8426C173.293 10.5955 170.635 8.01038 167.386 8.01038H153.04C150.056 8.01038 147.189 9.21712 145.164 11.4088C134.272 23.194 126.982 33.3225 120.683 32.2299C120.393 32.1796 120.11 32.3916 120.11 32.686V32.686C120.11 32.9325 120.313 33.1318 120.559 33.1285C126.708 33.045 130.709 32.4313 148.426 13.254C149.542 12.0456 150.999 11.1983 152.605 10.8414L158.22 9.59364C159.035 9.41248 159.88 9.4035 160.698 9.56728L164.988 10.4251C167.792 10.986 169.811 13.4485 169.811 16.3086V27.0984C169.811 29.8599 167.572 32.0984 164.811 32.0984H155.173C152.964 32.0984 151.173 30.3076 151.173 28.0984V22.6378C151.173 20.4287 152.964 18.6378 155.173 18.6378H159.527C160.632 18.6378 161.527 19.5332 161.527 20.6378V24.8858C161.527 25.4381 161.08 25.8858 160.527 25.8858H158.386C157.833 25.8858 157.386 25.4381 157.386 24.8858V22.7441Z" fill="url(#paint20_radial_692_190)"/>
<path d="M131.666 33.0631C139.604 29.9513 147.754 12.4066 157.386 13.4606C144.412 19.2326 143.16 31.4785 131.666 33.0631Z" fill="url(#paint21_radial_692_190)"/>
<path d="M124.252 30.0276C129.594 21.6827 129.718 16.9143 125.287 8.28346C130.716 9.71409 138.453 19.5114 124.252 30.0276Z" fill="url(#paint22_radial_692_190)"/>
<path d="M118.039 10.3543C122.976 14.0549 125.673 23.2793 118.039 32.0984C129.749 25.6888 126.286 12.7713 118.039 0V10.3543Z" fill="url(#paint23_radial_692_190)"/>
<defs>
<radialGradient id="paint0_radial_692_190" cx="0" cy="0" r="1" gradientUnits="userSpaceOnUse" gradientTransform="translate(79.728 111.309) scale(38.311 20.1909)">
<stop stop-color="#E1E1E1"/>
<stop offset="1" stop-color="#FFF4DA"/>
</radialGradient>
<radialGradient id="paint1_radial_692_190" cx="0" cy="0" r="1" gradientUnits="userSpaceOnUse" gradientTransform="translate(79.728 111.309) scale(38.311 20.1909)">
<stop stop-color="#E1E1E1"/>
<stop offset="1" stop-color="#FFF4DA"/>
</radialGradient>
<radialGradient id="paint2_radial_692_190" cx="0" cy="0" r="1" gradientUnits="userSpaceOnUse" gradientTransform="translate(79.728 111.309) scale(38.311 20.1909)">
<stop stop-color="#E1E1E1"/>
<stop offset="1" stop-color="#FFF4DA"/>
</radialGradient>
<radialGradient id="paint3_radial_692_190" cx="0" cy="0" r="1" gradientUnits="userSpaceOnUse" gradientTransform="translate(79.728 111.309) scale(38.311 20.1909)">
<stop stop-color="#E1E1E1"/>
<stop offset="1" stop-color="#FFF4DA"/>
</radialGradient>
<radialGradient id="paint4_radial_692_190" cx="0" cy="0" r="1" gradientUnits="userSpaceOnUse" gradientTransform="translate(156.35 111.309) rotate(180) scale(38.311 20.1909)">
<stop stop-color="#E1E1E1"/>
<stop offset="1" stop-color="#FFF4DA"/>
</radialGradient>
<radialGradient id="paint5_radial_692_190" cx="0" cy="0" r="1" gradientUnits="userSpaceOnUse" gradientTransform="translate(156.35 111.309) rotate(180) scale(38.311 20.1909)">
<stop stop-color="#E1E1E1"/>
<stop offset="1" stop-color="#FFF4DA"/>
</radialGradient>
<radialGradient id="paint6_radial_692_190" cx="0" cy="0" r="1" gradientUnits="userSpaceOnUse" gradientTransform="translate(156.35 111.309) rotate(180) scale(38.311 20.1909)">
<stop stop-color="#E1E1E1"/>
<stop offset="1" stop-color="#FFF4DA"/>
</radialGradient>
<radialGradient id="paint7_radial_692_190" cx="0" cy="0" r="1" gradientUnits="userSpaceOnUse" gradientTransform="translate(156.35 111.309) rotate(180) scale(38.311 20.1909)">
<stop stop-color="#E1E1E1"/>
<stop offset="1" stop-color="#FFF4DA"/>
</radialGradient>
<radialGradient id="paint8_radial_692_190" cx="0" cy="0" r="1" gradientUnits="userSpaceOnUse" gradientTransform="translate(59.0197 17.6024) scale(59.0197 17.6024)">
<stop stop-color="#E1E1E1"/>
<stop offset="1" stop-color="#FFF4DA"/>
</radialGradient>
<radialGradient id="paint9_radial_692_190" cx="0" cy="0" r="1" gradientUnits="userSpaceOnUse" gradientTransform="translate(59.0197 17.6024) scale(59.0197 17.6024)">
<stop stop-color="#E1E1E1"/>
<stop offset="1" stop-color="#FFF4DA"/>
</radialGradient>
<radialGradient id="paint10_radial_692_190" cx="0" cy="0" r="1" gradientUnits="userSpaceOnUse" gradientTransform="translate(59.0197 17.6024) scale(59.0197 17.6024)">
<stop stop-color="#E1E1E1"/>
<stop offset="1" stop-color="#FFF4DA"/>
</radialGradient>
<radialGradient id="paint11_radial_692_190" cx="0" cy="0" r="1" gradientUnits="userSpaceOnUse" gradientTransform="translate(59.0197 17.6024) scale(59.0197 17.6024)">
<stop stop-color="#E1E1E1"/>
<stop offset="1" stop-color="#FFF4DA"/>
</radialGradient>
<radialGradient id="paint12_radial_692_190" cx="0" cy="0" r="1" gradientUnits="userSpaceOnUse" gradientTransform="translate(59.0197 17.6024) scale(59.0197 17.6024)">
<stop stop-color="#E1E1E1"/>
<stop offset="1" stop-color="#FFF4DA"/>
</radialGradient>
<radialGradient id="paint13_radial_692_190" cx="0" cy="0" r="1" gradientUnits="userSpaceOnUse" gradientTransform="translate(59.0197 17.6024) scale(59.0197 17.6024)">
<stop stop-color="#E1E1E1"/>
<stop offset="1" stop-color="#FFF4DA"/>
</radialGradient>
<radialGradient id="paint14_radial_692_190" cx="0" cy="0" r="1" gradientUnits="userSpaceOnUse" gradientTransform="translate(59.0197 17.6024) scale(59.0197 17.6024)">
<stop stop-color="#E1E1E1"/>
<stop offset="1" stop-color="#FFF4DA"/>
</radialGradient>
<radialGradient id="paint15_radial_692_190" cx="0" cy="0" r="1" gradientUnits="userSpaceOnUse" gradientTransform="translate(59.0197 17.6024) scale(59.0197 17.6024)">
<stop stop-color="#E1E1E1"/>
<stop offset="1" stop-color="#FFF4DA"/>
</radialGradient>
<radialGradient id="paint16_radial_692_190" cx="0" cy="0" r="1" gradientUnits="userSpaceOnUse" gradientTransform="translate(177.059 17.6024) rotate(180) scale(59.0197 17.6024)">
<stop stop-color="#E1E1E1"/>
<stop offset="1" stop-color="#FFF4DA"/>
</radialGradient>
<radialGradient id="paint17_radial_692_190" cx="0" cy="0" r="1" gradientUnits="userSpaceOnUse" gradientTransform="translate(177.059 17.6024) rotate(180) scale(59.0197 17.6024)">
<stop stop-color="#E1E1E1"/>
<stop offset="1" stop-color="#FFF4DA"/>
</radialGradient>
<radialGradient id="paint18_radial_692_190" cx="0" cy="0" r="1" gradientUnits="userSpaceOnUse" gradientTransform="translate(177.059 17.6024) rotate(180) scale(59.0197 17.6024)">
<stop stop-color="#E1E1E1"/>
<stop offset="1" stop-color="#FFF4DA"/>
</radialGradient>
<radialGradient id="paint19_radial_692_190" cx="0" cy="0" r="1" gradientUnits="userSpaceOnUse" gradientTransform="translate(177.059 17.6024) rotate(180) scale(59.0197 17.6024)">
<stop stop-color="#E1E1E1"/>
<stop offset="1" stop-color="#FFF4DA"/>
</radialGradient>
<radialGradient id="paint20_radial_692_190" cx="0" cy="0" r="1" gradientUnits="userSpaceOnUse" gradientTransform="translate(177.059 17.6024) rotate(180) scale(59.0197 17.6024)">
<stop stop-color="#E1E1E1"/>
<stop offset="1" stop-color="#FFF4DA"/>
</radialGradient>
<radialGradient id="paint21_radial_692_190" cx="0" cy="0" r="1" gradientUnits="userSpaceOnUse" gradientTransform="translate(177.059 17.6024) rotate(180) scale(59.0197 17.6024)">
<stop stop-color="#E1E1E1"/>
<stop offset="1" stop-color="#FFF4DA"/>
</radialGradient>
<radialGradient id="paint22_radial_692_190" cx="0" cy="0" r="1" gradientUnits="userSpaceOnUse" gradientTransform="translate(177.059 17.6024) rotate(180) scale(59.0197 17.6024)">
<stop stop-color="#E1E1E1"/>
<stop offset="1" stop-color="#FFF4DA"/>
</radialGradient>
<radialGradient id="paint23_radial_692_190" cx="0" cy="0" r="1" gradientUnits="userSpaceOnUse" gradientTransform="translate(177.059 17.6024) rotate(180) scale(59.0197 17.6024)">
<stop stop-color="#E1E1E1"/>
<stop offset="1" stop-color="#FFF4DA"/>
</radialGradient>
</defs>
</svg>
