<svg width="237" height="132" viewBox="0 0 237 132" fill="none" xmlns="http://www.w3.org/2000/svg">
<path d="M50.713 108.06C49.3894 108.487 47.9219 108.504 46.7174 107.809C44.5799 106.575 44.1417 105.154 44.5239 102.508V102.508C42.8803 103.056 42.0634 104.953 43.0344 106.388C43.9981 107.812 45.0942 108.974 46.6272 110.246C47.9176 111.316 49.57 111.855 51.2463 111.812C56.4411 111.679 59.0354 110.851 62.1261 108.72C61.1055 110.641 61.1623 111.76 61.9889 113.6C62.061 113.76 62.2573 113.822 62.4081 113.731C64.083 112.73 65.0044 111.892 66.2679 109.756C66.2159 114.032 66.9848 113.977 70.4096 114.933C67.5199 110.86 68.053 109.221 70.1985 106.254C70.9963 105.151 72.1264 104.331 73.4058 103.866L78.5781 101.985C81.3347 100.982 84.3491 100.942 87.1317 101.869L104.174 107.55C104.308 107.435 104.443 107.326 104.579 107.223V104.508C104.579 103.403 105.474 102.508 106.579 102.508H108.791C109.896 102.508 110.791 103.403 110.791 104.508V105.614H111.827V103.472C111.827 102.368 110.931 101.472 109.827 101.472H105.543C104.439 101.472 103.543 102.368 103.543 103.472V106.65C98.7741 103.748 93.5326 101.584 86.7262 99.7769C82.8461 98.747 78.7539 99.0145 74.9333 100.247L50.713 108.06Z" fill="url(#paint0_radial_692_1616)"/>
<path fill-rule="evenodd" clip-rule="evenodd" d="M118.04 111.827V108.721C115.458 105.74 114.164 105.799 111.827 105.614H110.791C108.063 105.589 106.223 105.979 104.579 107.223V107.685L104.174 107.55C103.27 108.327 102.41 109.382 101.473 110.791C94.423 108.167 92.2423 105.859 84.6309 104.117C82.7932 103.696 80.8384 103.854 79.1738 104.739C77.1411 105.82 75.7483 107.075 74.4009 109.235C73.7981 110.201 73.7054 111.42 74.2151 112.438C75.05 114.107 76.2503 115.417 79.1381 117.128C80.1191 117.709 81.351 117.62 82.2789 116.957L86.2804 114.099C87.2189 113.429 87.4133 112.09 86.6216 111.251C84.8307 109.354 83.7232 109.09 81.7994 109.756C83.0247 110.067 83.7478 110.456 84.3965 111.688C84.7601 112.378 84.5523 113.216 84.0005 113.767L82.2759 115.492C81.3711 116.397 79.9668 116.664 78.906 115.948C77.392 114.927 76.4786 113.802 75.488 112.283C74.8942 111.372 74.8544 110.185 75.4804 109.296C77.1885 106.871 79.0768 106.022 82.8348 105.614C87.5143 105.758 93.9739 109.592 101.473 112.862C101.611 115.305 101.827 117.608 105.431 119.531C106.15 119.915 107.027 119.733 107.604 119.156L110.252 116.508C110.55 116.21 110.55 115.727 110.252 115.429V115.429C109.972 115.149 109.522 115.134 109.211 115.381C104.883 118.812 103.35 117.017 102.508 112.862C108.785 113.743 111.601 112.063 112.862 106.65H114.933L118.04 111.827ZM102.508 111.827C105.324 107.593 107.417 106.549 111.827 106.65C109.582 111.782 107.624 113.001 102.508 111.827Z" fill="url(#paint1_radial_692_1616)"/>
<path d="M118.04 114.933V111.827C116.112 115.763 116.189 118.074 110.791 119.075C111.96 121.038 112.806 121.636 114.933 121.146C115.325 125.201 115.718 127.472 118.04 131.5V125.287C116.703 121.107 116.953 118.865 118.04 114.933Z" fill="url(#paint2_radial_692_1616)"/>
<path d="M115.969 98.3662C116.06 94.792 116.696 93.3936 118.04 91.1182V105.614C115.723 100.811 114.342 99.4138 111.827 99.4015C113.365 97.8121 114.277 97.3638 115.969 98.3662Z" fill="url(#paint3_radial_692_1616)"/>
<path d="M185.366 108.06C186.69 108.487 188.157 108.504 189.362 107.809C191.499 106.575 191.937 105.154 191.555 102.508V102.508C193.199 103.056 194.016 104.953 193.045 106.388C192.081 107.812 190.985 108.974 189.452 110.246C188.161 111.316 186.509 111.855 184.833 111.812C179.638 111.679 177.044 110.851 173.953 108.72C174.974 110.641 174.917 111.76 174.09 113.6C174.018 113.76 173.822 113.822 173.671 113.731C171.996 112.73 171.075 111.892 169.811 109.756C169.863 114.032 169.094 113.977 165.669 114.933C168.559 110.86 168.026 109.221 165.881 106.254C165.083 105.151 163.953 104.331 162.673 103.866L157.501 101.985C154.744 100.982 151.73 100.942 148.947 101.869L131.905 107.55C131.771 107.435 131.636 107.326 131.5 107.223V104.508C131.5 103.403 130.605 102.508 129.5 102.508H127.288C126.183 102.508 125.288 103.403 125.288 104.508V105.614H124.252V103.472C124.252 102.368 125.148 101.472 126.252 101.472H130.536C131.64 101.472 132.536 102.368 132.536 103.472V106.65C137.305 103.748 142.547 101.584 149.353 99.7769C153.233 98.747 157.325 99.0145 161.146 100.247L185.366 108.06Z" fill="url(#paint4_radial_692_1616)"/>
<path fill-rule="evenodd" clip-rule="evenodd" d="M118.04 111.827V108.721C120.621 105.74 121.915 105.799 124.252 105.614H125.288C128.016 105.589 129.856 105.979 131.5 107.223V107.685L131.905 107.55C132.809 108.327 133.669 109.382 134.607 110.791C141.656 108.167 143.837 105.859 151.448 104.117C153.286 103.696 155.241 103.854 156.905 104.739C158.938 105.82 160.331 107.075 161.678 109.235C162.281 110.201 162.374 111.42 161.864 112.438C161.029 114.107 159.829 115.417 156.941 117.128C155.96 117.709 154.728 117.62 153.8 116.957L149.799 114.099C148.86 113.429 148.666 112.09 149.457 111.251C151.248 109.354 152.356 109.09 154.28 109.756C153.054 110.067 152.331 110.456 151.683 111.688C151.319 112.378 151.527 113.216 152.079 113.767L153.803 115.492C154.708 116.397 156.112 116.664 157.173 115.948C158.687 114.927 159.601 113.802 160.591 112.283C161.185 111.372 161.225 110.185 160.599 109.296C158.891 106.871 157.002 106.022 153.244 105.614C148.565 105.758 142.105 109.592 134.607 112.862C134.468 115.305 134.252 117.608 130.648 119.531C129.929 119.915 129.052 119.733 128.475 119.156L125.827 116.508C125.529 116.21 125.529 115.727 125.827 115.429V115.429C126.107 115.149 126.557 115.134 126.868 115.381C131.196 118.812 132.729 117.017 133.571 112.862C127.294 113.743 124.479 112.063 123.217 106.65H121.146L118.04 111.827ZM133.571 111.827C130.755 107.593 128.662 106.549 124.252 106.65C126.497 111.782 128.455 113.001 133.571 111.827Z" fill="url(#paint5_radial_692_1616)"/>
<path d="M118.04 114.933V111.827C119.967 115.763 119.89 118.074 125.288 119.075C124.119 121.038 123.273 121.636 121.146 121.146C120.755 125.201 120.362 127.472 118.04 131.5V125.287C119.376 121.107 119.126 118.865 118.04 114.933Z" fill="url(#paint6_radial_692_1616)"/>
<path d="M120.11 98.3662C120.019 94.792 119.383 93.3936 118.04 91.1182V105.614C120.356 100.811 121.737 99.4138 124.252 99.4015C122.714 97.8121 121.802 97.3638 120.11 98.3662Z" fill="url(#paint7_radial_692_1616)"/>
<path d="M82.2188 46.7266C84.7109 46.7266 86.7949 47.1992 88.4707 48.1445C90.1608 49.0898 91.4284 50.3789 92.2734 52.0117C93.1328 53.6445 93.5625 55.5065 93.5625 57.5977C93.5625 59.0586 93.3477 60.5768 92.918 62.1523C92.4883 63.7279 91.8079 65.2891 90.877 66.8359C89.946 68.3828 88.8359 69.7721 87.5469 71.0039C86.2578 72.2357 84.668 73.2311 82.7773 73.9902C80.8867 74.7493 78.8385 75.1289 76.6328 75.1289C76.375 75.1289 75.9883 75.1146 75.4727 75.0859C74.9714 75.0716 74.3411 75.0501 73.582 75.0215C72.8229 74.9928 72.1283 74.9714 71.498 74.957C70.8822 74.9284 70.3307 74.9141 69.8438 74.9141L65.0742 75.1289C65.0456 75.1003 65.0312 74.9857 65.0312 74.7852C65.0312 74.2409 65.1029 73.9688 65.2461 73.9688C65.4609 73.9688 65.7832 73.9186 66.2129 73.8184C66.6426 73.7038 67.0508 73.5677 67.4375 73.4102C67.8242 73.2383 68.0534 73.0664 68.125 72.8945C68.526 72.0781 68.8984 70.7461 69.2422 68.8984L72.3359 52.9141C72.7083 50.8229 72.8659 49.4909 72.8086 48.918C72.7943 48.7604 72.6296 48.6029 72.3145 48.4453C71.9993 48.2878 71.6556 48.1589 71.2832 48.0586C70.9108 47.944 70.6172 47.8867 70.4023 47.8867C70.3451 47.8867 70.3164 47.8294 70.3164 47.7148C70.3164 47.2565 70.4167 46.9271 70.6172 46.7266C71.276 46.7552 71.985 46.7767 72.7441 46.791C73.5176 46.8053 74.3411 46.8125 75.2148 46.8125C75.7161 46.8125 76.2891 46.8125 76.9336 46.8125C77.5781 46.7982 78.2943 46.7839 79.082 46.7695C79.8698 46.7552 80.5215 46.748 81.0371 46.748C81.5671 46.7337 81.9609 46.7266 82.2188 46.7266ZM82.1328 48.6172C79.0677 48.6172 77.349 48.8464 76.9766 49.3047C76.5182 49.8919 76.1315 51.0234 75.8164 52.6992L72.6797 69.0273C72.5938 69.4284 72.5508 70.0371 72.5508 70.8535C72.5508 71.6842 72.5794 72.1641 72.6367 72.293C72.8945 72.8659 74.556 73.1523 77.6211 73.1523C80.0417 73.1523 82.1901 72.3717 84.0664 70.8105C85.957 69.2493 87.3822 67.2656 88.3418 64.8594C89.3014 62.4531 89.7812 59.9036 89.7812 57.2109C89.7812 54.6901 89.151 52.6276 87.8906 51.0234C86.6302 49.4193 84.7109 48.6172 82.1328 48.6172ZM100.867 56.3086C101.326 56.3086 101.684 56.5163 101.941 56.9316C102.199 57.347 102.328 57.8841 102.328 58.543C102.328 59.3021 102.242 60.0612 102.07 60.8203L100.566 67.9102C100.366 68.7839 100.266 69.5573 100.266 70.2305C100.266 71.4622 100.538 72.0781 101.082 72.0781C101.397 72.0781 101.784 71.8991 102.242 71.541C102.715 71.1829 103.202 70.7246 103.703 70.166C104.219 69.6074 104.699 69.0345 105.143 68.4473C105.959 67.373 106.732 66.0625 107.463 64.5156C108.193 62.9688 108.702 61.4362 108.988 59.918L109.719 56.5664C110.105 56.4518 110.549 56.3945 111.051 56.3945C111.538 56.3945 112.025 56.4518 112.512 56.5664L109.848 70.4453C109.762 70.7891 109.719 71.1471 109.719 71.5195C109.719 72.2357 109.862 72.5938 110.148 72.5938C110.507 72.5938 110.936 72.3431 111.438 71.8418C111.939 71.3262 112.368 70.8893 112.727 70.5312L112.984 70.2305C113.042 70.2305 113.149 70.3665 113.307 70.6387C113.464 70.9108 113.543 71.1042 113.543 71.2188C113.299 71.6341 112.855 72.1641 112.211 72.8086C111.581 73.4531 110.893 74.026 110.148 74.5273C109.404 75.0143 108.73 75.2578 108.129 75.2578C107.671 75.2578 107.312 75.0501 107.055 74.6348C106.797 74.2194 106.668 73.6823 106.668 73.0234C106.668 72.5938 106.768 71.8346 106.969 70.7461L107.742 66.793C107.47 67.3086 106.883 68.1966 105.98 69.457C105.393 70.2734 104.684 71.1328 103.854 72.0352C103.037 72.9375 102.221 73.7038 101.404 74.334C100.588 74.9499 99.8932 75.2578 99.3203 75.2578C97.888 75.2578 97.1719 74.3125 97.1719 72.4219C97.1719 71.0755 97.3724 69.5143 97.7734 67.7383L99.0625 61.7656C99.2057 60.7773 99.2773 60.2044 99.2773 60.0469C99.2773 59.3307 99.1341 58.9727 98.8477 58.9727C98.6042 58.9727 98.2389 59.2018 97.752 59.6602C97.5228 59.8893 97.2721 60.14 97 60.4121C96.7422 60.6842 96.5703 60.8776 96.4844 60.9922C96.4271 60.9922 96.3197 60.8561 96.1621 60.584C96.0046 60.3118 95.9258 60.1185 95.9258 60.0039C96.1549 59.6172 96.5703 59.1374 97.1719 58.5645C97.7734 57.9772 98.418 57.4544 99.1055 56.9961C99.793 56.5378 100.38 56.3086 100.867 56.3086ZM121.922 56.3086C123.125 56.3086 124.099 57.5547 124.844 60.0469L125.746 63.0977L128.281 58.7578C129.227 57.125 130.43 56.3086 131.891 56.3086C132.879 56.3086 133.71 56.5951 134.383 57.168C134.612 57.612 134.727 57.9844 134.727 58.2852C134.727 58.7148 134.576 59.0801 134.275 59.3809C133.975 59.6816 133.667 59.832 133.352 59.832C132.965 59.832 132.542 59.61 132.084 59.166C131.626 58.722 131.189 58.5 130.773 58.5C130.43 58.5 130.043 58.8724 129.613 59.6172L126.391 65.1172L128.238 71.1758C128.525 72.1497 128.911 72.6367 129.398 72.6367C129.828 72.6367 130.286 72.4147 130.773 71.9707C131.26 71.5267 131.604 71.1185 131.805 70.7461C131.919 70.7461 132.062 70.8607 132.234 71.0898C132.406 71.319 132.492 71.4909 132.492 71.6055C132.435 71.9206 132.163 72.3717 131.676 72.959C131.203 73.5319 130.637 74.0547 129.979 74.5273C129.334 74.9857 128.711 75.2148 128.109 75.2148C126.921 75.2148 125.947 73.9688 125.188 71.4766L124.199 68.125L121.492 72.8086C120.547 74.4414 119.344 75.2578 117.883 75.2578C116.895 75.2578 116.064 74.9714 115.391 74.3984C115.161 73.9974 115.047 73.625 115.047 73.2812C115.047 72.8516 115.197 72.4863 115.498 72.1855C115.799 71.8848 116.107 71.7344 116.422 71.7344C116.809 71.7344 117.231 71.9564 117.689 72.4004C118.148 72.8444 118.585 73.0664 119 73.0664C119.344 73.0664 119.73 72.694 120.16 71.9492L123.555 66.1055L121.793 60.3477C121.507 59.3737 121.12 58.8867 120.633 58.8867C120.203 58.8867 119.745 59.1087 119.258 59.5527C118.771 59.9967 118.427 60.4049 118.227 60.7773C118.112 60.7773 117.969 60.6628 117.797 60.4336C117.625 60.2044 117.539 60.0326 117.539 59.918C117.596 59.5885 117.861 59.1374 118.334 58.5645C118.821 57.9915 119.394 57.4759 120.053 57.0176C120.712 56.5449 121.335 56.3086 121.922 56.3086ZM145.812 56.3086C147.503 56.3086 148.813 56.8958 149.744 58.0703C150.675 59.2448 151.141 60.8633 151.141 62.9258C151.141 64.401 150.854 65.8691 150.281 67.3301C149.708 68.7767 148.956 70.0944 148.025 71.2832C147.094 72.472 146.07 73.4245 144.953 74.1406C143.836 74.8568 142.733 75.2148 141.645 75.2148C139.926 75.2148 138.615 74.6562 137.713 73.5391C136.811 72.4219 136.359 70.832 136.359 68.7695C136.359 67.2799 136.639 65.8047 137.197 64.3438C137.77 62.8685 138.522 61.5293 139.453 60.3262C140.384 59.1087 141.401 58.1348 142.504 57.4043C143.621 56.6738 144.724 56.3086 145.812 56.3086ZM145.297 58.0703C144.581 58.0703 143.886 58.3854 143.213 59.0156C142.54 59.6315 141.931 60.4408 141.387 61.4434C140.842 62.446 140.413 63.5417 140.098 64.7305C139.783 65.9193 139.625 67.0794 139.625 68.2109C139.625 69.8724 139.89 71.1615 140.42 72.0781C140.95 72.9948 141.616 73.4531 142.418 73.4531C143.134 73.4531 143.814 73.1452 144.459 72.5293C145.118 71.8991 145.705 71.0827 146.221 70.0801C146.736 69.0632 147.137 67.9603 147.424 66.7715C147.725 65.5827 147.875 64.4154 147.875 63.2695C147.875 61.5794 147.646 60.2904 147.188 59.4023C146.729 58.5143 146.099 58.0703 145.297 58.0703ZM159.734 56.3086C160.193 56.3086 160.551 56.5163 160.809 56.9316C161.066 57.347 161.195 57.8841 161.195 58.543C161.195 59.1732 161.109 59.9323 160.938 60.8203L160.164 64.7734C160.436 64.2865 161.059 63.3984 162.033 62.1094C162.678 61.2643 163.423 60.3978 164.268 59.5098C165.127 58.6074 165.972 57.8483 166.803 57.2324C167.648 56.6165 168.357 56.3086 168.93 56.3086C170.362 56.3086 171.078 57.2539 171.078 59.1445C171.078 60.4766 170.878 62.0378 170.477 63.8281L169.059 70.4453C168.973 70.7891 168.93 71.1471 168.93 71.5195C168.93 72.2357 169.073 72.5938 169.359 72.5938C169.717 72.5938 170.147 72.3431 170.648 71.8418C171.15 71.3262 171.579 70.8893 171.938 70.5312L172.195 70.2305C172.253 70.2305 172.36 70.3665 172.518 70.6387C172.675 70.9108 172.754 71.1042 172.754 71.2188C172.51 71.6341 172.066 72.1641 171.422 72.8086C170.792 73.4531 170.104 74.026 169.359 74.5273C168.615 75.0143 167.941 75.2578 167.34 75.2578C166.882 75.2578 166.523 75.0501 166.266 74.6348C166.008 74.2194 165.879 73.6823 165.879 73.0234C165.879 72.5938 165.979 71.8346 166.18 70.7461L167.684 63.6562C167.884 62.6823 167.984 61.9089 167.984 61.3359C167.984 60.1042 167.712 59.4883 167.168 59.4883C166.695 59.4883 166.058 59.8464 165.256 60.5625C164.454 61.2643 163.616 62.2025 162.742 63.377C161.883 64.5514 161.102 65.862 160.4 67.3086C159.699 68.7409 159.204 70.1875 158.918 71.6484L158.188 75C157.801 75.1146 157.357 75.1719 156.855 75.1719C156.368 75.1719 155.882 75.1146 155.395 75L157.93 61.7656C158.073 60.7773 158.145 60.2044 158.145 60.0469C158.145 59.3307 158.001 58.9727 157.715 58.9727C157.471 58.9727 157.106 59.2018 156.619 59.6602C156.39 59.8893 156.139 60.14 155.867 60.4121C155.609 60.6842 155.438 60.8776 155.352 60.9922C155.294 60.9922 155.187 60.8561 155.029 60.584C154.872 60.3118 154.793 60.1185 154.793 60.0039C155.022 59.6172 155.438 59.1374 156.039 58.5645C156.641 57.9772 157.285 57.4544 157.973 56.9961C158.66 56.5378 159.247 56.3086 159.734 56.3086Z" fill="white"/>
<path d="M0 14.4961C6.30012 20.0984 15.0791 19.1979 30.687 15.1421C32.2497 14.736 33.9168 14.9601 35.3059 15.7832L61.0905 31.063L35.3304 19.6141C33.9205 18.9874 32.3183 18.9353 30.8588 19.4358C12.5496 25.7159 4.73674 24.7283 0 14.4961Z" fill="url(#paint8_radial_692_1616)"/>
<path d="M16.5669 25.8858C22.7094 27.5488 34.4861 19.1752 43.5027 24.2129C35.7991 20.3448 24.9274 34.7378 16.5669 25.8858Z" fill="url(#paint9_radial_692_1616)"/>
<path d="M42.4528 34.1693C40.4746 32.9379 39.8039 31.791 39.5364 30.2054C39.314 28.8871 40.2138 27.6374 41.514 27.3262C46.4064 26.1551 49.6595 27.3172 54.8779 31.063C50.3759 26.3362 46.8249 25.2844 39.6469 25.78C38.7972 25.8387 38.0191 26.2751 37.5081 26.9564L36.1669 28.7446C35.6047 29.4943 35.6307 30.5432 36.2784 31.2205C38.4425 33.4837 39.9798 34.1156 42.4528 34.1693Z" fill="url(#paint10_radial_692_1616)"/>
<path d="M61.0905 28.9921C48.8725 19.5072 53.131 18.6378 60.0551 10.3543C56.6285 8.93238 54.8937 8.83857 52.8071 12.4252C51.2879 8.29387 49.7783 6.42726 45.559 4.14173C43.8524 8.52031 44.6321 10.6991 46.5945 14.4961C42.9378 12.0347 40.7471 11.3823 36.2402 13.4606C46.3046 17.727 45.2926 18.8748 61.0905 28.9921Z" fill="url(#paint11_radial_692_1616)"/>
<path d="M78.6929 22.7441C78.6929 22.1918 79.1406 21.7441 79.6929 21.7441H79.7638C80.3161 21.7441 80.7638 22.1918 80.7638 22.7441V25.9213C80.7638 26.4735 80.3161 26.9213 79.7638 26.9213H74.4803C73.3757 26.9213 72.4803 26.0258 72.4803 24.9213V19.6024C72.4803 18.4978 73.3757 17.6024 74.4803 17.6024H78.7281C80.6137 17.6024 82.4755 18.023 84.178 18.8337V18.8337C85.2965 19.3663 86.1249 20.3629 86.4441 21.5599L88.3399 28.6695C89.2063 31.9182 86.6836 35.0788 83.3237 34.9544L68.0679 34.3894C64.7776 34.2675 62.2002 31.5169 62.2923 28.2256L62.6948 13.8426C62.7856 10.5955 65.4441 8.01038 68.6924 8.01038H83.0387C86.0229 8.01038 88.8896 9.21712 90.915 11.4088C101.807 23.194 109.097 33.3225 115.395 32.2299C115.685 32.1796 115.968 32.3916 115.968 32.686V32.686C115.968 32.9325 115.766 33.1318 115.519 33.1285C109.37 33.045 105.37 32.4313 87.653 13.254C86.5367 12.0456 85.0793 11.1983 83.4735 10.8414L77.8584 9.59364C77.0431 9.41248 76.199 9.4035 75.3801 9.56728L71.091 10.4251C68.2865 10.986 66.2677 13.4485 66.2677 16.3086V27.0984C66.2677 29.8599 68.5063 32.0984 71.2677 32.0984H80.9055C83.1146 32.0984 84.9055 30.3076 84.9055 28.0984V22.6378C84.9055 20.4287 83.1146 18.6378 80.9055 18.6378H76.5512C75.4466 18.6378 74.5512 19.5332 74.5512 20.6378V24.8858C74.5512 25.4381 74.9989 25.8858 75.5512 25.8858H77.6929C78.2452 25.8858 78.6929 25.4381 78.6929 24.8858V22.7441Z" fill="url(#paint12_radial_692_1616)"/>
<path d="M104.412 33.0631C96.4743 29.9513 88.3242 12.4066 78.6929 13.4606C91.6665 19.2326 92.9183 31.4785 104.412 33.0631Z" fill="url(#paint13_radial_692_1616)"/>
<path d="M111.827 30.0276C106.485 21.6827 106.361 16.9143 110.791 8.28346C105.363 9.71409 97.6256 19.5114 111.827 30.0276Z" fill="url(#paint14_radial_692_1616)"/>
<path d="M118.039 10.3543C113.102 14.0549 110.405 23.2793 118.039 32.0984C106.33 25.6888 109.793 12.7713 118.039 0V10.3543Z" fill="url(#paint15_radial_692_1616)"/>
<path d="M236.079 14.4961C229.778 20.0984 221 19.1979 205.392 15.1421C203.829 14.736 202.162 14.9601 200.773 15.7832L174.988 31.063L200.748 19.6141C202.158 18.9874 203.76 18.9353 205.22 19.4358C223.529 25.7159 231.342 24.7283 236.079 14.4961Z" fill="url(#paint16_radial_692_1616)"/>
<path d="M219.512 25.8858C213.369 27.5488 201.593 19.1752 192.576 24.2129C200.279 20.3448 211.151 34.7378 219.512 25.8858Z" fill="url(#paint17_radial_692_1616)"/>
<path d="M193.626 34.1693C195.604 32.9379 196.275 31.791 196.542 30.2054C196.765 28.8871 195.865 27.6374 194.565 27.3262C189.672 26.1551 186.419 27.3172 181.201 31.063C185.703 26.3362 189.254 25.2844 196.432 25.78C197.281 25.8387 198.06 26.2751 198.571 26.9564L199.912 28.7446C200.474 29.4943 200.448 30.5432 199.8 31.2205C197.636 33.4837 196.099 34.1156 193.626 34.1693Z" fill="url(#paint18_radial_692_1616)"/>
<path d="M174.988 28.9921C187.206 19.5072 182.948 18.6378 176.024 10.3543C179.45 8.93238 181.185 8.83857 183.272 12.4252C184.791 8.29387 186.3 6.42726 190.52 4.14173C192.226 8.52031 191.446 10.6991 189.484 14.4961C193.141 12.0347 195.331 11.3823 199.838 13.4606C189.774 17.727 190.786 18.8748 174.988 28.9921Z" fill="url(#paint19_radial_692_1616)"/>
<path d="M157.386 22.7441C157.386 22.1918 156.938 21.7441 156.386 21.7441H156.315C155.763 21.7441 155.315 22.1918 155.315 22.7441V25.9213C155.315 26.4735 155.763 26.9213 156.315 26.9213H161.598C162.703 26.9213 163.598 26.0258 163.598 24.9213V19.6024C163.598 18.4978 162.703 17.6024 161.598 17.6024H157.351C155.465 17.6024 153.603 18.023 151.901 18.8337V18.8337C150.782 19.3663 149.954 20.3629 149.635 21.5599L147.739 28.6695C146.872 31.9182 149.395 35.0788 152.755 34.9544L168.011 34.3894C171.301 34.2675 173.878 31.5169 173.786 28.2256L173.384 13.8426C173.293 10.5955 170.635 8.01038 167.386 8.01038H153.04C150.056 8.01038 147.189 9.21712 145.164 11.4088C134.272 23.194 126.982 33.3225 120.683 32.2299C120.393 32.1796 120.11 32.3916 120.11 32.686V32.686C120.11 32.9325 120.313 33.1318 120.559 33.1285C126.708 33.045 130.709 32.4313 148.426 13.254C149.542 12.0456 150.999 11.1983 152.605 10.8414L158.22 9.59364C159.035 9.41248 159.88 9.4035 160.698 9.56728L164.988 10.4251C167.792 10.986 169.811 13.4485 169.811 16.3086V27.0984C169.811 29.8599 167.572 32.0984 164.811 32.0984H155.173C152.964 32.0984 151.173 30.3076 151.173 28.0984V22.6378C151.173 20.4287 152.964 18.6378 155.173 18.6378H159.527C160.632 18.6378 161.527 19.5332 161.527 20.6378V24.8858C161.527 25.4381 161.08 25.8858 160.527 25.8858H158.386C157.833 25.8858 157.386 25.4381 157.386 24.8858V22.7441Z" fill="url(#paint20_radial_692_1616)"/>
<path d="M131.666 33.0631C139.604 29.9513 147.754 12.4066 157.386 13.4606C144.412 19.2326 143.16 31.4785 131.666 33.0631Z" fill="url(#paint21_radial_692_1616)"/>
<path d="M124.252 30.0276C129.594 21.6827 129.718 16.9143 125.287 8.28346C130.716 9.71409 138.453 19.5114 124.252 30.0276Z" fill="url(#paint22_radial_692_1616)"/>
<path d="M118.039 10.3543C122.976 14.0549 125.673 23.2793 118.039 32.0984C129.749 25.6888 126.286 12.7713 118.039 0V10.3543Z" fill="url(#paint23_radial_692_1616)"/>
<defs>
<radialGradient id="paint0_radial_692_1616" cx="0" cy="0" r="1" gradientUnits="userSpaceOnUse" gradientTransform="translate(79.7285 111.309) scale(38.311 20.1909)">
<stop stop-color="#E1E1E1"/>
<stop offset="1" stop-color="#FFF4DA"/>
</radialGradient>
<radialGradient id="paint1_radial_692_1616" cx="0" cy="0" r="1" gradientUnits="userSpaceOnUse" gradientTransform="translate(79.7285 111.309) scale(38.311 20.1909)">
<stop stop-color="#E1E1E1"/>
<stop offset="1" stop-color="#FFF4DA"/>
</radialGradient>
<radialGradient id="paint2_radial_692_1616" cx="0" cy="0" r="1" gradientUnits="userSpaceOnUse" gradientTransform="translate(79.7285 111.309) scale(38.311 20.1909)">
<stop stop-color="#E1E1E1"/>
<stop offset="1" stop-color="#FFF4DA"/>
</radialGradient>
<radialGradient id="paint3_radial_692_1616" cx="0" cy="0" r="1" gradientUnits="userSpaceOnUse" gradientTransform="translate(79.7285 111.309) scale(38.311 20.1909)">
<stop stop-color="#E1E1E1"/>
<stop offset="1" stop-color="#FFF4DA"/>
</radialGradient>
<radialGradient id="paint4_radial_692_1616" cx="0" cy="0" r="1" gradientUnits="userSpaceOnUse" gradientTransform="translate(156.351 111.309) rotate(180) scale(38.311 20.1909)">
<stop stop-color="#E1E1E1"/>
<stop offset="1" stop-color="#FFF4DA"/>
</radialGradient>
<radialGradient id="paint5_radial_692_1616" cx="0" cy="0" r="1" gradientUnits="userSpaceOnUse" gradientTransform="translate(156.351 111.309) rotate(180) scale(38.311 20.1909)">
<stop stop-color="#E1E1E1"/>
<stop offset="1" stop-color="#FFF4DA"/>
</radialGradient>
<radialGradient id="paint6_radial_692_1616" cx="0" cy="0" r="1" gradientUnits="userSpaceOnUse" gradientTransform="translate(156.351 111.309) rotate(180) scale(38.311 20.1909)">
<stop stop-color="#E1E1E1"/>
<stop offset="1" stop-color="#FFF4DA"/>
</radialGradient>
<radialGradient id="paint7_radial_692_1616" cx="0" cy="0" r="1" gradientUnits="userSpaceOnUse" gradientTransform="translate(156.351 111.309) rotate(180) scale(38.311 20.1909)">
<stop stop-color="#E1E1E1"/>
<stop offset="1" stop-color="#FFF4DA"/>
</radialGradient>
<radialGradient id="paint8_radial_692_1616" cx="0" cy="0" r="1" gradientUnits="userSpaceOnUse" gradientTransform="translate(59.0197 17.6024) scale(59.0197 17.6024)">
<stop stop-color="#E1E1E1"/>
<stop offset="1" stop-color="#FFF4DA"/>
</radialGradient>
<radialGradient id="paint9_radial_692_1616" cx="0" cy="0" r="1" gradientUnits="userSpaceOnUse" gradientTransform="translate(59.0197 17.6024) scale(59.0197 17.6024)">
<stop stop-color="#E1E1E1"/>
<stop offset="1" stop-color="#FFF4DA"/>
</radialGradient>
<radialGradient id="paint10_radial_692_1616" cx="0" cy="0" r="1" gradientUnits="userSpaceOnUse" gradientTransform="translate(59.0197 17.6024) scale(59.0197 17.6024)">
<stop stop-color="#E1E1E1"/>
<stop offset="1" stop-color="#FFF4DA"/>
</radialGradient>
<radialGradient id="paint11_radial_692_1616" cx="0" cy="0" r="1" gradientUnits="userSpaceOnUse" gradientTransform="translate(59.0197 17.6024) scale(59.0197 17.6024)">
<stop stop-color="#E1E1E1"/>
<stop offset="1" stop-color="#FFF4DA"/>
</radialGradient>
<radialGradient id="paint12_radial_692_1616" cx="0" cy="0" r="1" gradientUnits="userSpaceOnUse" gradientTransform="translate(59.0197 17.6024) scale(59.0197 17.6024)">
<stop stop-color="#E1E1E1"/>
<stop offset="1" stop-color="#FFF4DA"/>
</radialGradient>
<radialGradient id="paint13_radial_692_1616" cx="0" cy="0" r="1" gradientUnits="userSpaceOnUse" gradientTransform="translate(59.0197 17.6024) scale(59.0197 17.6024)">
<stop stop-color="#E1E1E1"/>
<stop offset="1" stop-color="#FFF4DA"/>
</radialGradient>
<radialGradient id="paint14_radial_692_1616" cx="0" cy="0" r="1" gradientUnits="userSpaceOnUse" gradientTransform="translate(59.0197 17.6024) scale(59.0197 17.6024)">
<stop stop-color="#E1E1E1"/>
<stop offset="1" stop-color="#FFF4DA"/>
</radialGradient>
<radialGradient id="paint15_radial_692_1616" cx="0" cy="0" r="1" gradientUnits="userSpaceOnUse" gradientTransform="translate(59.0197 17.6024) scale(59.0197 17.6024)">
<stop stop-color="#E1E1E1"/>
<stop offset="1" stop-color="#FFF4DA"/>
</radialGradient>
<radialGradient id="paint16_radial_692_1616" cx="0" cy="0" r="1" gradientUnits="userSpaceOnUse" gradientTransform="translate(177.059 17.6024) rotate(180) scale(59.0197 17.6024)">
<stop stop-color="#E1E1E1"/>
<stop offset="1" stop-color="#FFF4DA"/>
</radialGradient>
<radialGradient id="paint17_radial_692_1616" cx="0" cy="0" r="1" gradientUnits="userSpaceOnUse" gradientTransform="translate(177.059 17.6024) rotate(180) scale(59.0197 17.6024)">
<stop stop-color="#E1E1E1"/>
<stop offset="1" stop-color="#FFF4DA"/>
</radialGradient>
<radialGradient id="paint18_radial_692_1616" cx="0" cy="0" r="1" gradientUnits="userSpaceOnUse" gradientTransform="translate(177.059 17.6024) rotate(180) scale(59.0197 17.6024)">
<stop stop-color="#E1E1E1"/>
<stop offset="1" stop-color="#FFF4DA"/>
</radialGradient>
<radialGradient id="paint19_radial_692_1616" cx="0" cy="0" r="1" gradientUnits="userSpaceOnUse" gradientTransform="translate(177.059 17.6024) rotate(180) scale(59.0197 17.6024)">
<stop stop-color="#E1E1E1"/>
<stop offset="1" stop-color="#FFF4DA"/>
</radialGradient>
<radialGradient id="paint20_radial_692_1616" cx="0" cy="0" r="1" gradientUnits="userSpaceOnUse" gradientTransform="translate(177.059 17.6024) rotate(180) scale(59.0197 17.6024)">
<stop stop-color="#E1E1E1"/>
<stop offset="1" stop-color="#FFF4DA"/>
</radialGradient>
<radialGradient id="paint21_radial_692_1616" cx="0" cy="0" r="1" gradientUnits="userSpaceOnUse" gradientTransform="translate(177.059 17.6024) rotate(180) scale(59.0197 17.6024)">
<stop stop-color="#E1E1E1"/>
<stop offset="1" stop-color="#FFF4DA"/>
</radialGradient>
<radialGradient id="paint22_radial_692_1616" cx="0" cy="0" r="1" gradientUnits="userSpaceOnUse" gradientTransform="translate(177.059 17.6024) rotate(180) scale(59.0197 17.6024)">
<stop stop-color="#E1E1E1"/>
<stop offset="1" stop-color="#FFF4DA"/>
</radialGradient>
<radialGradient id="paint23_radial_692_1616" cx="0" cy="0" r="1" gradientUnits="userSpaceOnUse" gradientTransform="translate(177.059 17.6024) rotate(180) scale(59.0197 17.6024)">
<stop stop-color="#E1E1E1"/>
<stop offset="1" stop-color="#FFF4DA"/>
</radialGradient>
</defs>
</svg>
