<svg width="237" height="132" viewBox="0 0 237 132" fill="none" xmlns="http://www.w3.org/2000/svg">
<path d="M50.713 108.06C49.3894 108.487 47.9219 108.504 46.7174 107.809C44.5799 106.575 44.1417 105.154 44.5239 102.508V102.508C42.8803 103.056 42.0634 104.953 43.0344 106.388C43.9981 107.812 45.0942 108.974 46.6272 110.246C47.9176 111.316 49.57 111.855 51.2463 111.812C56.4411 111.679 59.0354 110.851 62.1261 108.72C61.1055 110.641 61.1623 111.76 61.9889 113.6C62.061 113.76 62.2573 113.822 62.4081 113.731C64.083 112.73 65.0044 111.892 66.2679 109.756C66.2159 114.032 66.9848 113.977 70.4096 114.933C67.5199 110.86 68.053 109.221 70.1985 106.254C70.9963 105.151 72.1264 104.331 73.4058 103.866L78.5781 101.985C81.3347 100.982 84.3491 100.942 87.1317 101.869L104.174 107.55C104.308 107.435 104.443 107.326 104.579 107.223V104.508C104.579 103.403 105.474 102.508 106.579 102.508H108.791C109.896 102.508 110.791 103.403 110.791 104.508V105.614H111.827V103.472C111.827 102.368 110.931 101.472 109.827 101.472H105.543C104.439 101.472 103.543 102.368 103.543 103.472V106.65C98.7741 103.748 93.5326 101.584 86.7262 99.7769C82.8461 98.747 78.7539 99.0145 74.9333 100.247L50.713 108.06Z" fill="url(#paint0_radial_692_1850)"/>
<path fill-rule="evenodd" clip-rule="evenodd" d="M118.04 111.827V108.721C115.458 105.74 114.164 105.799 111.827 105.614H110.791C108.063 105.589 106.223 105.979 104.579 107.223V107.685L104.174 107.55C103.27 108.327 102.41 109.382 101.473 110.791C94.423 108.167 92.2423 105.859 84.6309 104.117C82.7932 103.696 80.8384 103.854 79.1738 104.739C77.1411 105.82 75.7483 107.075 74.4009 109.235C73.7981 110.201 73.7054 111.42 74.2151 112.438C75.05 114.107 76.2503 115.417 79.1381 117.128C80.1191 117.709 81.351 117.62 82.2789 116.957L86.2804 114.099C87.2189 113.429 87.4133 112.09 86.6216 111.251C84.8307 109.354 83.7232 109.09 81.7994 109.756C83.0247 110.067 83.7478 110.456 84.3965 111.688C84.7601 112.378 84.5523 113.216 84.0005 113.767L82.2759 115.492C81.3711 116.397 79.9668 116.664 78.906 115.948C77.392 114.927 76.4786 113.802 75.488 112.283C74.8942 111.372 74.8544 110.185 75.4804 109.296C77.1885 106.871 79.0768 106.022 82.8348 105.614C87.5143 105.758 93.9739 109.592 101.473 112.862C101.611 115.305 101.827 117.608 105.431 119.531C106.15 119.915 107.027 119.733 107.604 119.156L110.252 116.508C110.55 116.21 110.55 115.727 110.252 115.429V115.429C109.972 115.149 109.522 115.134 109.211 115.381C104.883 118.812 103.35 117.017 102.508 112.862C108.785 113.743 111.601 112.063 112.862 106.65H114.933L118.04 111.827ZM102.508 111.827C105.324 107.593 107.417 106.549 111.827 106.65C109.582 111.782 107.624 113.001 102.508 111.827Z" fill="url(#paint1_radial_692_1850)"/>
<path d="M118.04 114.933V111.827C116.112 115.763 116.189 118.074 110.791 119.075C111.96 121.038 112.806 121.636 114.933 121.146C115.325 125.201 115.718 127.472 118.04 131.5V125.287C116.703 121.107 116.953 118.865 118.04 114.933Z" fill="url(#paint2_radial_692_1850)"/>
<path d="M115.969 98.3662C116.06 94.792 116.696 93.3936 118.04 91.1182V105.614C115.723 100.811 114.342 99.4138 111.827 99.4015C113.365 97.8121 114.277 97.3638 115.969 98.3662Z" fill="url(#paint3_radial_692_1850)"/>
<path d="M185.366 108.06C186.69 108.487 188.157 108.504 189.362 107.809C191.499 106.575 191.937 105.154 191.555 102.508V102.508C193.199 103.056 194.016 104.953 193.045 106.388C192.081 107.812 190.985 108.974 189.452 110.246C188.161 111.316 186.509 111.855 184.833 111.812C179.638 111.679 177.044 110.851 173.953 108.72C174.974 110.641 174.917 111.76 174.09 113.6C174.018 113.76 173.822 113.822 173.671 113.731C171.996 112.73 171.075 111.892 169.811 109.756C169.863 114.032 169.094 113.977 165.669 114.933C168.559 110.86 168.026 109.221 165.881 106.254C165.083 105.151 163.953 104.331 162.673 103.866L157.501 101.985C154.744 100.982 151.73 100.942 148.947 101.869L131.905 107.55C131.771 107.435 131.636 107.326 131.5 107.223V104.508C131.5 103.403 130.605 102.508 129.5 102.508H127.288C126.183 102.508 125.288 103.403 125.288 104.508V105.614H124.252V103.472C124.252 102.368 125.148 101.472 126.252 101.472H130.536C131.64 101.472 132.536 102.368 132.536 103.472V106.65C137.305 103.748 142.547 101.584 149.353 99.7769C153.233 98.747 157.325 99.0145 161.146 100.247L185.366 108.06Z" fill="url(#paint4_radial_692_1850)"/>
<path fill-rule="evenodd" clip-rule="evenodd" d="M118.04 111.827V108.721C120.621 105.74 121.915 105.799 124.252 105.614H125.288C128.016 105.589 129.856 105.979 131.5 107.223V107.685L131.905 107.55C132.809 108.327 133.669 109.382 134.607 110.791C141.656 108.167 143.837 105.859 151.448 104.117C153.286 103.696 155.241 103.854 156.905 104.739C158.938 105.82 160.331 107.075 161.678 109.235C162.281 110.201 162.374 111.42 161.864 112.438C161.029 114.107 159.829 115.417 156.941 117.128C155.96 117.709 154.728 117.62 153.8 116.957L149.799 114.099C148.86 113.429 148.666 112.09 149.457 111.251C151.248 109.354 152.356 109.09 154.28 109.756C153.054 110.067 152.331 110.456 151.683 111.688C151.319 112.378 151.527 113.216 152.079 113.767L153.803 115.492C154.708 116.397 156.112 116.664 157.173 115.948C158.687 114.927 159.601 113.802 160.591 112.283C161.185 111.372 161.225 110.185 160.599 109.296C158.891 106.871 157.002 106.022 153.244 105.614C148.565 105.758 142.105 109.592 134.607 112.862C134.468 115.305 134.252 117.608 130.648 119.531C129.929 119.915 129.052 119.733 128.475 119.156L125.827 116.508C125.529 116.21 125.529 115.727 125.827 115.429V115.429C126.107 115.149 126.557 115.134 126.868 115.381C131.196 118.812 132.729 117.017 133.571 112.862C127.294 113.743 124.479 112.063 123.217 106.65H121.146L118.04 111.827ZM133.571 111.827C130.755 107.593 128.662 106.549 124.252 106.65C126.497 111.782 128.455 113.001 133.571 111.827Z" fill="url(#paint5_radial_692_1850)"/>
<path d="M118.04 114.933V111.827C119.967 115.763 119.89 118.074 125.288 119.075C124.119 121.038 123.273 121.636 121.146 121.146C120.755 125.201 120.362 127.472 118.04 131.5V125.287C119.376 121.107 119.126 118.865 118.04 114.933Z" fill="url(#paint6_radial_692_1850)"/>
<path d="M120.11 98.3662C120.019 94.792 119.383 93.3936 118.04 91.1182V105.614C120.356 100.811 121.737 99.4138 124.252 99.4015C122.714 97.8121 121.802 97.3638 120.11 98.3662Z" fill="url(#paint7_radial_692_1850)"/>
<path d="M75.0586 59.3164C78.7969 59.3164 80.6732 59.2018 80.6875 58.9727L81.8477 53C82.1628 51.4674 82.3203 50.1497 82.3203 49.0469C82.3203 48.832 82.1699 48.6387 81.8691 48.4668C81.5827 48.2949 81.2461 48.1589 80.8594 48.0586C80.487 47.944 80.1719 47.8867 79.9141 47.8867C79.8568 47.8867 79.8281 47.8151 79.8281 47.6719C79.8281 47.2708 79.9427 46.9557 80.1719 46.7266C80.401 46.7409 80.7878 46.7695 81.332 46.8125C81.8906 46.8555 82.4922 46.8984 83.1367 46.9414C83.7812 46.9701 84.3398 46.9844 84.8125 46.9844C85.5143 46.9844 86.4095 46.9414 87.498 46.8555C88.6009 46.7695 89.2383 46.7266 89.4102 46.7266V46.8555C89.4102 47.543 89.3099 47.8867 89.1094 47.8867C88.9661 47.8867 88.694 47.944 88.293 48.0586C87.8919 48.1589 87.5052 48.2878 87.1328 48.4453C86.7604 48.5885 86.5456 48.7318 86.4883 48.875C86.0729 49.7917 85.7005 51.1237 85.3711 52.8711L82.2344 69.0273C81.9193 70.5599 81.7617 71.849 81.7617 72.8945C81.7617 73.1237 81.9551 73.3314 82.3418 73.5176C82.7285 73.7038 83.1224 73.8255 83.5234 73.8828L84.082 73.9688C84.1393 73.9688 84.168 74.026 84.168 74.1406C84.168 74.4557 84.082 74.7852 83.9102 75.1289C82.5781 75.0573 81.5397 75.0072 80.7949 74.9785C80.0501 74.9355 79.599 74.9141 79.4414 74.9141C79.3984 74.9141 78.9831 74.9355 78.1953 74.9785C77.4076 75.0072 76.2474 75.0573 74.7148 75.1289C74.6576 75.0716 74.6289 74.957 74.6289 74.7852C74.6289 74.2409 74.7292 73.9688 74.9297 73.9688C75.1589 73.9688 75.474 73.9258 75.875 73.8398C76.2904 73.7539 76.6771 73.6393 77.0352 73.4961C77.3932 73.3529 77.6081 73.1953 77.6797 73.0234C78.0951 72.0781 78.4674 70.7031 78.7969 68.8984L80.1719 61.8086V61.7656C80.1719 61.6224 79.8353 61.5293 79.1621 61.4863C78.5033 61.4434 76.8776 61.4219 74.2852 61.4219C70.1745 61.4219 68.0833 61.5938 68.0117 61.9375L66.6367 69.0273C66.3216 70.5599 66.1641 71.849 66.1641 72.8945C66.1641 73.1237 66.3574 73.3314 66.7441 73.5176C67.1309 73.7038 67.5104 73.8255 67.8828 73.8828L68.4844 73.9688C68.5417 73.9688 68.5703 74.026 68.5703 74.1406C68.5703 74.4557 68.4844 74.7852 68.3125 75.1289C66.9948 75.0573 65.9635 75.0072 65.2188 74.9785C64.474 74.9355 64.0156 74.9141 63.8438 74.9141C63.8151 74.9141 63.4069 74.9355 62.6191 74.9785C61.8314 75.0072 60.6641 75.0573 59.1172 75.1289C59.0599 75.0716 59.0312 74.957 59.0312 74.7852C59.0312 74.2409 59.1315 73.9688 59.332 73.9688C59.5612 73.9688 59.8763 73.9258 60.2773 73.8398C60.6927 73.7539 61.0794 73.6393 61.4375 73.4961C61.7956 73.3529 62.0104 73.1953 62.082 73.0234C62.4974 72.0781 62.8698 70.7031 63.1992 68.8984L66.25 53C66.5651 51.4674 66.7227 50.1497 66.7227 49.0469C66.7227 48.832 66.5723 48.6387 66.2715 48.4668C65.985 48.2949 65.6484 48.1589 65.2617 48.0586C64.8893 47.944 64.5742 47.8867 64.3164 47.8867C64.2591 47.8867 64.2305 47.8151 64.2305 47.6719C64.2305 47.2708 64.3451 46.9557 64.5742 46.7266C64.8034 46.7409 65.1901 46.7695 65.7344 46.8125C66.293 46.8555 66.8945 46.8984 67.5391 46.9414C68.1836 46.9701 68.7422 46.9844 69.2148 46.9844C69.9023 46.9844 70.7832 46.9414 71.8574 46.8555C72.9316 46.7695 73.569 46.7266 73.7695 46.7266V46.8555C73.7695 47.543 73.6693 47.8867 73.4688 47.8867C73.3255 47.8867 73.0462 47.944 72.6309 48.0586C72.2298 48.1589 71.8359 48.2878 71.4492 48.4453C71.0768 48.5885 70.862 48.7318 70.8047 48.875C70.332 49.9779 69.9596 51.3099 69.6875 52.8711L68.6133 58.9297V58.9727C68.6133 59.1159 68.9928 59.209 69.752 59.252C70.5111 59.2949 72.2799 59.3164 75.0586 59.3164ZM100.023 56.3086C101.083 56.3086 102.129 56.4948 103.16 56.8672L100.539 70.4453C100.453 70.7891 100.41 71.1471 100.41 71.5195C100.41 72.2357 100.553 72.5938 100.84 72.5938C101.198 72.5938 101.628 72.3431 102.129 71.8418C102.63 71.3262 103.06 70.8893 103.418 70.5312L103.676 70.2305C103.733 70.2305 103.84 70.3665 103.998 70.6387C104.156 70.9108 104.234 71.1042 104.234 71.2188C103.991 71.6341 103.547 72.1641 102.902 72.8086C102.272 73.4531 101.585 74.026 100.84 74.5273C100.095 75.0143 99.4219 75.2578 98.8203 75.2578C98.362 75.2578 98.0039 75.0501 97.7461 74.6348C97.4883 74.2194 97.3594 73.6823 97.3594 73.0234C97.3594 72.5794 97.4596 71.8203 97.6602 70.7461L97.8105 69.9941C97.8535 69.7936 97.875 69.6719 97.875 69.6289C97.6458 70.0586 97.3164 70.5885 96.8867 71.2188C96.457 71.8346 95.9629 72.4505 95.4043 73.0664C94.8457 73.6823 94.2585 74.1979 93.6426 74.6133C93.0267 75.0143 92.418 75.2148 91.8164 75.2148C90.556 75.2148 89.5605 74.6491 88.8301 73.5176C88.0996 72.3861 87.7344 71.0182 87.7344 69.4141C87.7344 67.3659 88.3431 65.3249 89.5605 63.291C90.377 61.916 91.3509 60.7057 92.4824 59.6602C93.6283 58.6146 94.8529 57.7982 96.1562 57.2109C97.4596 56.6094 98.7487 56.3086 100.023 56.3086ZM98.2188 58.2852C97.3737 58.2852 96.5215 58.5859 95.6621 59.1875C94.8027 59.7747 94.015 60.5697 93.2988 61.5723C92.5827 62.5605 92.0026 63.6634 91.5586 64.8809C91.1289 66.084 90.9141 67.2943 90.9141 68.5117C90.9141 71.319 91.6445 72.7227 93.1055 72.7227C93.6211 72.7227 94.1797 72.4362 94.7812 71.8633C95.3828 71.2904 95.9772 70.5312 96.5645 69.5859C97.1517 68.6406 97.6673 67.6165 98.1113 66.5137C98.5697 65.3965 98.9062 64.3008 99.1211 63.2266L99.9805 58.8438C99.6367 58.4714 99.0495 58.2852 98.2188 58.2852ZM118.93 56.3086C119.99 56.3086 121.035 56.4948 122.066 56.8672L119.445 70.4453C119.359 70.7891 119.316 71.1471 119.316 71.5195C119.316 72.2357 119.46 72.5938 119.746 72.5938C120.104 72.5938 120.534 72.3431 121.035 71.8418C121.536 71.3262 121.966 70.8893 122.324 70.5312L122.582 70.2305C122.639 70.2305 122.747 70.3665 122.904 70.6387C123.062 70.9108 123.141 71.1042 123.141 71.2188C122.897 71.6341 122.453 72.1641 121.809 72.8086C121.178 73.4531 120.491 74.026 119.746 74.5273C119.001 75.0143 118.328 75.2578 117.727 75.2578C117.268 75.2578 116.91 75.0501 116.652 74.6348C116.395 74.2194 116.266 73.6823 116.266 73.0234C116.266 72.5794 116.366 71.8203 116.566 70.7461L116.717 69.9941C116.76 69.7936 116.781 69.6719 116.781 69.6289C116.552 70.0586 116.223 70.5885 115.793 71.2188C115.363 71.8346 114.869 72.4505 114.311 73.0664C113.752 73.6823 113.165 74.1979 112.549 74.6133C111.933 75.0143 111.324 75.2148 110.723 75.2148C109.462 75.2148 108.467 74.6491 107.736 73.5176C107.006 72.3861 106.641 71.0182 106.641 69.4141C106.641 67.3659 107.249 65.3249 108.467 63.291C109.283 61.916 110.257 60.7057 111.389 59.6602C112.535 58.6146 113.759 57.7982 115.062 57.2109C116.366 56.6094 117.655 56.3086 118.93 56.3086ZM117.125 58.2852C116.28 58.2852 115.428 58.5859 114.568 59.1875C113.709 59.7747 112.921 60.5697 112.205 61.5723C111.489 62.5605 110.909 63.6634 110.465 64.8809C110.035 66.084 109.82 67.2943 109.82 68.5117C109.82 71.319 110.551 72.7227 112.012 72.7227C112.527 72.7227 113.086 72.4362 113.688 71.8633C114.289 71.2904 114.883 70.5312 115.471 69.5859C116.058 68.6406 116.574 67.6165 117.018 66.5137C117.476 65.3965 117.812 64.3008 118.027 63.2266L118.887 58.8438C118.543 58.4714 117.956 58.2852 117.125 58.2852ZM138.438 56.3086C139.698 56.3086 140.844 56.4948 141.875 56.8672L139.254 70.4453L137.32 81.3164C137.263 81.7174 137.234 82.0182 137.234 82.2188C137.234 82.6914 137.385 83.0208 137.686 83.207C138.001 83.4076 138.509 83.5078 139.211 83.5078C139.268 83.5078 139.297 83.5938 139.297 83.7656C139.297 84.224 139.225 84.5677 139.082 84.7969C138.982 84.7969 138.86 84.7969 138.717 84.7969C138.574 84.7969 138.402 84.7897 138.201 84.7754C138.015 84.7611 137.85 84.7539 137.707 84.7539C137.564 84.7539 137.449 84.7539 137.363 84.7539C135.272 84.7539 133.195 84.8685 131.133 85.0977C131.133 85.026 131.126 84.9473 131.111 84.8613C131.097 84.7754 131.09 84.6823 131.09 84.582C131.09 84.0664 131.161 83.8086 131.305 83.8086C131.562 83.8086 131.842 83.7871 132.143 83.7441C132.443 83.7012 132.859 83.472 133.389 83.0566C133.919 82.6413 134.255 82.0612 134.398 81.3164L136.59 69.6289C136.389 69.9727 136.16 70.3307 135.902 70.7031C135.659 71.0612 135.387 71.4264 135.086 71.7988C134.685 72.3001 134.198 72.8158 133.625 73.3457C133.052 73.8757 132.465 74.3197 131.863 74.6777C131.276 75.0358 130.732 75.2148 130.23 75.2148C128.97 75.2148 127.967 74.6491 127.223 73.5176C126.478 72.3861 126.105 71.0182 126.105 69.4141C126.105 67.3802 126.721 65.3392 127.953 63.291C128.784 61.916 129.765 60.7057 130.896 59.6602C132.042 58.6146 133.267 57.7982 134.57 57.2109C135.874 56.6094 137.163 56.3086 138.438 56.3086ZM136.59 58.2852C135.659 58.2852 134.757 58.5788 133.883 59.166C133.009 59.7533 132.229 60.5267 131.541 61.4863C130.854 62.446 130.302 63.513 129.887 64.6875C129.486 65.8477 129.285 67.0078 129.285 68.168C129.285 71.2044 130.03 72.7227 131.52 72.7227C132.049 72.7227 132.63 72.4362 133.26 71.8633C133.904 71.276 134.535 70.5098 135.15 69.5645C135.766 68.6191 136.311 67.5951 136.783 66.4922C137.27 65.375 137.621 64.2865 137.836 63.2266L138.695 58.8438C138.352 58.4714 137.65 58.2852 136.59 58.2852ZM156.27 56.3086C157.53 56.3086 158.676 56.4948 159.707 56.8672L157.086 70.4453L155.152 81.3164C155.095 81.7174 155.066 82.0182 155.066 82.2188C155.066 82.6914 155.217 83.0208 155.518 83.207C155.833 83.4076 156.341 83.5078 157.043 83.5078C157.1 83.5078 157.129 83.5938 157.129 83.7656C157.129 84.224 157.057 84.5677 156.914 84.7969C156.814 84.7969 156.692 84.7969 156.549 84.7969C156.406 84.7969 156.234 84.7897 156.033 84.7754C155.847 84.7611 155.682 84.7539 155.539 84.7539C155.396 84.7539 155.281 84.7539 155.195 84.7539C153.104 84.7539 151.027 84.8685 148.965 85.0977C148.965 85.026 148.958 84.9473 148.943 84.8613C148.929 84.7754 148.922 84.6823 148.922 84.582C148.922 84.0664 148.993 83.8086 149.137 83.8086C149.395 83.8086 149.674 83.7871 149.975 83.7441C150.275 83.7012 150.691 83.472 151.221 83.0566C151.751 82.6413 152.087 82.0612 152.23 81.3164L154.422 69.6289C154.221 69.9727 153.992 70.3307 153.734 70.7031C153.491 71.0612 153.219 71.4264 152.918 71.7988C152.517 72.3001 152.03 72.8158 151.457 73.3457C150.884 73.8757 150.297 74.3197 149.695 74.6777C149.108 75.0358 148.564 75.2148 148.062 75.2148C146.802 75.2148 145.799 74.6491 145.055 73.5176C144.31 72.3861 143.938 71.0182 143.938 69.4141C143.938 67.3802 144.553 65.3392 145.785 63.291C146.616 61.916 147.597 60.7057 148.729 59.6602C149.874 58.6146 151.099 57.7982 152.402 57.2109C153.706 56.6094 154.995 56.3086 156.27 56.3086ZM154.422 58.2852C153.491 58.2852 152.589 58.5788 151.715 59.166C150.841 59.7533 150.061 60.5267 149.373 61.4863C148.686 62.446 148.134 63.513 147.719 64.6875C147.318 65.8477 147.117 67.0078 147.117 68.168C147.117 71.2044 147.862 72.7227 149.352 72.7227C149.882 72.7227 150.462 72.4362 151.092 71.8633C151.736 71.276 152.367 70.5098 152.982 69.5645C153.598 68.6191 154.143 67.5951 154.615 66.4922C155.102 65.375 155.453 64.2865 155.668 63.2266L156.527 58.8438C156.184 58.4714 155.482 58.2852 154.422 58.2852ZM173.5 56.3086C174.56 56.3086 175.605 56.4948 176.637 56.8672L174.016 70.4453C173.93 70.7891 173.887 71.1471 173.887 71.5195C173.887 72.2357 174.03 72.5938 174.316 72.5938C174.674 72.5938 175.104 72.3431 175.605 71.8418C176.107 71.3262 176.536 70.8893 176.895 70.5312L177.152 70.2305C177.21 70.2305 177.317 70.3665 177.475 70.6387C177.632 70.9108 177.711 71.1042 177.711 71.2188C177.467 71.6341 177.023 72.1641 176.379 72.8086C175.749 73.4531 175.061 74.026 174.316 74.5273C173.572 75.0143 172.898 75.2578 172.297 75.2578C171.839 75.2578 171.48 75.0501 171.223 74.6348C170.965 74.2194 170.836 73.6823 170.836 73.0234C170.836 72.5794 170.936 71.8203 171.137 70.7461L171.287 69.9941C171.33 69.7936 171.352 69.6719 171.352 69.6289C171.122 70.0586 170.793 70.5885 170.363 71.2188C169.934 71.8346 169.439 72.4505 168.881 73.0664C168.322 73.6823 167.735 74.1979 167.119 74.6133C166.503 75.0143 165.895 75.2148 165.293 75.2148C164.033 75.2148 163.037 74.6491 162.307 73.5176C161.576 72.3861 161.211 71.0182 161.211 69.4141C161.211 67.3659 161.82 65.3249 163.037 63.291C163.854 61.916 164.827 60.7057 165.959 59.6602C167.105 58.6146 168.329 57.7982 169.633 57.2109C170.936 56.6094 172.225 56.3086 173.5 56.3086ZM171.695 58.2852C170.85 58.2852 169.998 58.5859 169.139 59.1875C168.279 59.7747 167.492 60.5697 166.775 61.5723C166.059 62.5605 165.479 63.6634 165.035 64.8809C164.605 66.084 164.391 67.2943 164.391 68.5117C164.391 71.319 165.121 72.7227 166.582 72.7227C167.098 72.7227 167.656 72.4362 168.258 71.8633C168.859 71.2904 169.454 70.5312 170.041 69.5859C170.628 68.6406 171.144 67.6165 171.588 66.5137C172.046 65.3965 172.383 64.3008 172.598 63.2266L173.457 58.8438C173.113 58.4714 172.526 58.2852 171.695 58.2852Z" fill="white"/>
<path d="M0 14.4961C6.30012 20.0984 15.0791 19.1979 30.687 15.1421C32.2497 14.736 33.9168 14.9601 35.3059 15.7832L61.0905 31.063L35.3304 19.6141C33.9205 18.9874 32.3183 18.9353 30.8588 19.4358C12.5496 25.7159 4.73674 24.7283 0 14.4961Z" fill="url(#paint8_radial_692_1850)"/>
<path d="M16.5669 25.8858C22.7094 27.5488 34.4861 19.1752 43.5027 24.2129C35.7991 20.3448 24.9274 34.7378 16.5669 25.8858Z" fill="url(#paint9_radial_692_1850)"/>
<path d="M42.4528 34.1693C40.4746 32.9379 39.8039 31.791 39.5364 30.2054C39.314 28.8871 40.2138 27.6374 41.514 27.3262C46.4064 26.1551 49.6595 27.3172 54.8779 31.063C50.3759 26.3362 46.8249 25.2844 39.6469 25.78C38.7972 25.8387 38.0191 26.2751 37.5081 26.9564L36.1669 28.7446C35.6047 29.4943 35.6307 30.5432 36.2784 31.2205C38.4425 33.4837 39.9798 34.1156 42.4528 34.1693Z" fill="url(#paint10_radial_692_1850)"/>
<path d="M61.0905 28.9921C48.8725 19.5072 53.131 18.6378 60.0551 10.3543C56.6285 8.93238 54.8937 8.83857 52.8071 12.4252C51.2879 8.29387 49.7783 6.42726 45.559 4.14173C43.8524 8.52031 44.6321 10.6991 46.5945 14.4961C42.9378 12.0347 40.7471 11.3823 36.2402 13.4606C46.3046 17.727 45.2926 18.8748 61.0905 28.9921Z" fill="url(#paint11_radial_692_1850)"/>
<path d="M78.6929 22.7441C78.6929 22.1918 79.1406 21.7441 79.6929 21.7441H79.7638C80.3161 21.7441 80.7638 22.1918 80.7638 22.7441V25.9213C80.7638 26.4735 80.3161 26.9213 79.7638 26.9213H74.4803C73.3757 26.9213 72.4803 26.0258 72.4803 24.9213V19.6024C72.4803 18.4978 73.3757 17.6024 74.4803 17.6024H78.7281C80.6137 17.6024 82.4755 18.023 84.178 18.8337V18.8337C85.2965 19.3663 86.1249 20.3629 86.4441 21.5599L88.3399 28.6695C89.2063 31.9182 86.6836 35.0788 83.3237 34.9544L68.0679 34.3894C64.7776 34.2675 62.2002 31.5169 62.2923 28.2256L62.6948 13.8426C62.7856 10.5955 65.4441 8.01038 68.6924 8.01038H83.0387C86.0229 8.01038 88.8896 9.21712 90.915 11.4088C101.807 23.194 109.097 33.3225 115.395 32.2299C115.685 32.1796 115.968 32.3916 115.968 32.686V32.686C115.968 32.9325 115.766 33.1318 115.519 33.1285C109.37 33.045 105.37 32.4313 87.653 13.254C86.5367 12.0456 85.0793 11.1983 83.4735 10.8414L77.8584 9.59364C77.0431 9.41248 76.199 9.4035 75.3801 9.56728L71.091 10.4251C68.2865 10.986 66.2677 13.4485 66.2677 16.3086V27.0984C66.2677 29.8599 68.5063 32.0984 71.2677 32.0984H80.9055C83.1146 32.0984 84.9055 30.3076 84.9055 28.0984V22.6378C84.9055 20.4287 83.1146 18.6378 80.9055 18.6378H76.5512C75.4466 18.6378 74.5512 19.5332 74.5512 20.6378V24.8858C74.5512 25.4381 74.9989 25.8858 75.5512 25.8858H77.6929C78.2452 25.8858 78.6929 25.4381 78.6929 24.8858V22.7441Z" fill="url(#paint12_radial_692_1850)"/>
<path d="M104.412 33.0631C96.4743 29.9513 88.3242 12.4066 78.6929 13.4606C91.6665 19.2326 92.9183 31.4785 104.412 33.0631Z" fill="url(#paint13_radial_692_1850)"/>
<path d="M111.827 30.0276C106.485 21.6827 106.361 16.9143 110.791 8.28346C105.363 9.71409 97.6256 19.5114 111.827 30.0276Z" fill="url(#paint14_radial_692_1850)"/>
<path d="M118.039 10.3543C113.102 14.0549 110.405 23.2793 118.039 32.0984C106.33 25.6888 109.793 12.7713 118.039 0V10.3543Z" fill="url(#paint15_radial_692_1850)"/>
<path d="M236.079 14.4961C229.778 20.0984 221 19.1979 205.392 15.1421C203.829 14.736 202.162 14.9601 200.773 15.7832L174.988 31.063L200.748 19.6141C202.158 18.9874 203.76 18.9353 205.22 19.4358C223.529 25.7159 231.342 24.7283 236.079 14.4961Z" fill="url(#paint16_radial_692_1850)"/>
<path d="M219.512 25.8858C213.369 27.5488 201.593 19.1752 192.576 24.2129C200.279 20.3448 211.151 34.7378 219.512 25.8858Z" fill="url(#paint17_radial_692_1850)"/>
<path d="M193.626 34.1693C195.604 32.9379 196.275 31.791 196.542 30.2054C196.765 28.8871 195.865 27.6374 194.565 27.3262C189.672 26.1551 186.419 27.3172 181.201 31.063C185.703 26.3362 189.254 25.2844 196.432 25.78C197.281 25.8387 198.06 26.2751 198.571 26.9564L199.912 28.7446C200.474 29.4943 200.448 30.5432 199.8 31.2205C197.636 33.4837 196.099 34.1156 193.626 34.1693Z" fill="url(#paint18_radial_692_1850)"/>
<path d="M174.988 28.9921C187.206 19.5072 182.948 18.6378 176.024 10.3543C179.45 8.93238 181.185 8.83857 183.272 12.4252C184.791 8.29387 186.3 6.42726 190.52 4.14173C192.226 8.52031 191.446 10.6991 189.484 14.4961C193.141 12.0347 195.331 11.3823 199.838 13.4606C189.774 17.727 190.786 18.8748 174.988 28.9921Z" fill="url(#paint19_radial_692_1850)"/>
<path d="M157.386 22.7441C157.386 22.1918 156.938 21.7441 156.386 21.7441H156.315C155.763 21.7441 155.315 22.1918 155.315 22.7441V25.9213C155.315 26.4735 155.763 26.9213 156.315 26.9213H161.598C162.703 26.9213 163.598 26.0258 163.598 24.9213V19.6024C163.598 18.4978 162.703 17.6024 161.598 17.6024H157.351C155.465 17.6024 153.603 18.023 151.901 18.8337V18.8337C150.782 19.3663 149.954 20.3629 149.635 21.5599L147.739 28.6695C146.872 31.9182 149.395 35.0788 152.755 34.9544L168.011 34.3894C171.301 34.2675 173.878 31.5169 173.786 28.2256L173.384 13.8426C173.293 10.5955 170.635 8.01038 167.386 8.01038H153.04C150.056 8.01038 147.189 9.21712 145.164 11.4088C134.272 23.194 126.982 33.3225 120.683 32.2299C120.393 32.1796 120.11 32.3916 120.11 32.686V32.686C120.11 32.9325 120.313 33.1318 120.559 33.1285C126.708 33.045 130.709 32.4313 148.426 13.254C149.542 12.0456 150.999 11.1983 152.605 10.8414L158.22 9.59364C159.035 9.41248 159.88 9.4035 160.698 9.56728L164.988 10.4251C167.792 10.986 169.811 13.4485 169.811 16.3086V27.0984C169.811 29.8599 167.572 32.0984 164.811 32.0984H155.173C152.964 32.0984 151.173 30.3076 151.173 28.0984V22.6378C151.173 20.4287 152.964 18.6378 155.173 18.6378H159.527C160.632 18.6378 161.527 19.5332 161.527 20.6378V24.8858C161.527 25.4381 161.08 25.8858 160.527 25.8858H158.386C157.833 25.8858 157.386 25.4381 157.386 24.8858V22.7441Z" fill="url(#paint20_radial_692_1850)"/>
<path d="M131.666 33.0631C139.604 29.9513 147.754 12.4066 157.386 13.4606C144.412 19.2326 143.16 31.4785 131.666 33.0631Z" fill="url(#paint21_radial_692_1850)"/>
<path d="M124.252 30.0276C129.594 21.6827 129.718 16.9143 125.287 8.28346C130.716 9.71409 138.453 19.5114 124.252 30.0276Z" fill="url(#paint22_radial_692_1850)"/>
<path d="M118.039 10.3543C122.976 14.0549 125.673 23.2793 118.039 32.0984C129.749 25.6888 126.286 12.7713 118.039 0V10.3543Z" fill="url(#paint23_radial_692_1850)"/>
<defs>
<radialGradient id="paint0_radial_692_1850" cx="0" cy="0" r="1" gradientUnits="userSpaceOnUse" gradientTransform="translate(79.7285 111.309) scale(38.311 20.1909)">
<stop stop-color="#E1E1E1"/>
<stop offset="1" stop-color="#FFF4DA"/>
</radialGradient>
<radialGradient id="paint1_radial_692_1850" cx="0" cy="0" r="1" gradientUnits="userSpaceOnUse" gradientTransform="translate(79.7285 111.309) scale(38.311 20.1909)">
<stop stop-color="#E1E1E1"/>
<stop offset="1" stop-color="#FFF4DA"/>
</radialGradient>
<radialGradient id="paint2_radial_692_1850" cx="0" cy="0" r="1" gradientUnits="userSpaceOnUse" gradientTransform="translate(79.7285 111.309) scale(38.311 20.1909)">
<stop stop-color="#E1E1E1"/>
<stop offset="1" stop-color="#FFF4DA"/>
</radialGradient>
<radialGradient id="paint3_radial_692_1850" cx="0" cy="0" r="1" gradientUnits="userSpaceOnUse" gradientTransform="translate(79.7285 111.309) scale(38.311 20.1909)">
<stop stop-color="#E1E1E1"/>
<stop offset="1" stop-color="#FFF4DA"/>
</radialGradient>
<radialGradient id="paint4_radial_692_1850" cx="0" cy="0" r="1" gradientUnits="userSpaceOnUse" gradientTransform="translate(156.351 111.309) rotate(180) scale(38.311 20.1909)">
<stop stop-color="#E1E1E1"/>
<stop offset="1" stop-color="#FFF4DA"/>
</radialGradient>
<radialGradient id="paint5_radial_692_1850" cx="0" cy="0" r="1" gradientUnits="userSpaceOnUse" gradientTransform="translate(156.351 111.309) rotate(180) scale(38.311 20.1909)">
<stop stop-color="#E1E1E1"/>
<stop offset="1" stop-color="#FFF4DA"/>
</radialGradient>
<radialGradient id="paint6_radial_692_1850" cx="0" cy="0" r="1" gradientUnits="userSpaceOnUse" gradientTransform="translate(156.351 111.309) rotate(180) scale(38.311 20.1909)">
<stop stop-color="#E1E1E1"/>
<stop offset="1" stop-color="#FFF4DA"/>
</radialGradient>
<radialGradient id="paint7_radial_692_1850" cx="0" cy="0" r="1" gradientUnits="userSpaceOnUse" gradientTransform="translate(156.351 111.309) rotate(180) scale(38.311 20.1909)">
<stop stop-color="#E1E1E1"/>
<stop offset="1" stop-color="#FFF4DA"/>
</radialGradient>
<radialGradient id="paint8_radial_692_1850" cx="0" cy="0" r="1" gradientUnits="userSpaceOnUse" gradientTransform="translate(59.0197 17.6024) scale(59.0197 17.6024)">
<stop stop-color="#E1E1E1"/>
<stop offset="1" stop-color="#FFF4DA"/>
</radialGradient>
<radialGradient id="paint9_radial_692_1850" cx="0" cy="0" r="1" gradientUnits="userSpaceOnUse" gradientTransform="translate(59.0197 17.6024) scale(59.0197 17.6024)">
<stop stop-color="#E1E1E1"/>
<stop offset="1" stop-color="#FFF4DA"/>
</radialGradient>
<radialGradient id="paint10_radial_692_1850" cx="0" cy="0" r="1" gradientUnits="userSpaceOnUse" gradientTransform="translate(59.0197 17.6024) scale(59.0197 17.6024)">
<stop stop-color="#E1E1E1"/>
<stop offset="1" stop-color="#FFF4DA"/>
</radialGradient>
<radialGradient id="paint11_radial_692_1850" cx="0" cy="0" r="1" gradientUnits="userSpaceOnUse" gradientTransform="translate(59.0197 17.6024) scale(59.0197 17.6024)">
<stop stop-color="#E1E1E1"/>
<stop offset="1" stop-color="#FFF4DA"/>
</radialGradient>
<radialGradient id="paint12_radial_692_1850" cx="0" cy="0" r="1" gradientUnits="userSpaceOnUse" gradientTransform="translate(59.0197 17.6024) scale(59.0197 17.6024)">
<stop stop-color="#E1E1E1"/>
<stop offset="1" stop-color="#FFF4DA"/>
</radialGradient>
<radialGradient id="paint13_radial_692_1850" cx="0" cy="0" r="1" gradientUnits="userSpaceOnUse" gradientTransform="translate(59.0197 17.6024) scale(59.0197 17.6024)">
<stop stop-color="#E1E1E1"/>
<stop offset="1" stop-color="#FFF4DA"/>
</radialGradient>
<radialGradient id="paint14_radial_692_1850" cx="0" cy="0" r="1" gradientUnits="userSpaceOnUse" gradientTransform="translate(59.0197 17.6024) scale(59.0197 17.6024)">
<stop stop-color="#E1E1E1"/>
<stop offset="1" stop-color="#FFF4DA"/>
</radialGradient>
<radialGradient id="paint15_radial_692_1850" cx="0" cy="0" r="1" gradientUnits="userSpaceOnUse" gradientTransform="translate(59.0197 17.6024) scale(59.0197 17.6024)">
<stop stop-color="#E1E1E1"/>
<stop offset="1" stop-color="#FFF4DA"/>
</radialGradient>
<radialGradient id="paint16_radial_692_1850" cx="0" cy="0" r="1" gradientUnits="userSpaceOnUse" gradientTransform="translate(177.059 17.6024) rotate(180) scale(59.0197 17.6024)">
<stop stop-color="#E1E1E1"/>
<stop offset="1" stop-color="#FFF4DA"/>
</radialGradient>
<radialGradient id="paint17_radial_692_1850" cx="0" cy="0" r="1" gradientUnits="userSpaceOnUse" gradientTransform="translate(177.059 17.6024) rotate(180) scale(59.0197 17.6024)">
<stop stop-color="#E1E1E1"/>
<stop offset="1" stop-color="#FFF4DA"/>
</radialGradient>
<radialGradient id="paint18_radial_692_1850" cx="0" cy="0" r="1" gradientUnits="userSpaceOnUse" gradientTransform="translate(177.059 17.6024) rotate(180) scale(59.0197 17.6024)">
<stop stop-color="#E1E1E1"/>
<stop offset="1" stop-color="#FFF4DA"/>
</radialGradient>
<radialGradient id="paint19_radial_692_1850" cx="0" cy="0" r="1" gradientUnits="userSpaceOnUse" gradientTransform="translate(177.059 17.6024) rotate(180) scale(59.0197 17.6024)">
<stop stop-color="#E1E1E1"/>
<stop offset="1" stop-color="#FFF4DA"/>
</radialGradient>
<radialGradient id="paint20_radial_692_1850" cx="0" cy="0" r="1" gradientUnits="userSpaceOnUse" gradientTransform="translate(177.059 17.6024) rotate(180) scale(59.0197 17.6024)">
<stop stop-color="#E1E1E1"/>
<stop offset="1" stop-color="#FFF4DA"/>
</radialGradient>
<radialGradient id="paint21_radial_692_1850" cx="0" cy="0" r="1" gradientUnits="userSpaceOnUse" gradientTransform="translate(177.059 17.6024) rotate(180) scale(59.0197 17.6024)">
<stop stop-color="#E1E1E1"/>
<stop offset="1" stop-color="#FFF4DA"/>
</radialGradient>
<radialGradient id="paint22_radial_692_1850" cx="0" cy="0" r="1" gradientUnits="userSpaceOnUse" gradientTransform="translate(177.059 17.6024) rotate(180) scale(59.0197 17.6024)">
<stop stop-color="#E1E1E1"/>
<stop offset="1" stop-color="#FFF4DA"/>
</radialGradient>
<radialGradient id="paint23_radial_692_1850" cx="0" cy="0" r="1" gradientUnits="userSpaceOnUse" gradientTransform="translate(177.059 17.6024) rotate(180) scale(59.0197 17.6024)">
<stop stop-color="#E1E1E1"/>
<stop offset="1" stop-color="#FFF4DA"/>
</radialGradient>
</defs>
</svg>
