<svg width="237" height="132" viewBox="0 0 237 132" fill="none" xmlns="http://www.w3.org/2000/svg">
<path d="M50.713 108.06C49.3894 108.487 47.9219 108.504 46.7174 107.809C44.5799 106.575 44.1417 105.154 44.5239 102.508V102.508C42.8803 103.056 42.0634 104.953 43.0344 106.388C43.9981 107.812 45.0942 108.974 46.6272 110.246C47.9176 111.316 49.57 111.855 51.2463 111.812C56.4411 111.679 59.0354 110.851 62.1261 108.72C61.1055 110.641 61.1623 111.76 61.9889 113.6C62.061 113.76 62.2573 113.822 62.4081 113.731C64.083 112.73 65.0044 111.892 66.2679 109.756C66.2159 114.032 66.9848 113.977 70.4096 114.933C67.5199 110.86 68.053 109.221 70.1985 106.254C70.9963 105.151 72.1264 104.331 73.4058 103.866L78.5781 101.985C81.3347 100.982 84.3491 100.942 87.1317 101.869L104.174 107.55C104.308 107.435 104.443 107.326 104.579 107.223V104.508C104.579 103.403 105.474 102.508 106.579 102.508H108.791C109.896 102.508 110.791 103.403 110.791 104.508V105.614H111.827V103.472C111.827 102.368 110.931 101.472 109.827 101.472H105.543C104.439 101.472 103.543 102.368 103.543 103.472V106.65C98.7741 103.748 93.5326 101.584 86.7262 99.7769C82.8461 98.747 78.7539 99.0145 74.9333 100.247L50.713 108.06Z" fill="url(#paint0_radial_692_1770)"/>
<path fill-rule="evenodd" clip-rule="evenodd" d="M118.04 111.827V108.721C115.458 105.74 114.164 105.799 111.827 105.614H110.791C108.063 105.589 106.223 105.979 104.579 107.223V107.685L104.174 107.55C103.27 108.327 102.41 109.382 101.473 110.791C94.423 108.167 92.2423 105.859 84.6309 104.117C82.7932 103.696 80.8384 103.854 79.1738 104.739C77.1411 105.82 75.7483 107.075 74.4009 109.235C73.7981 110.201 73.7054 111.42 74.2151 112.438C75.05 114.107 76.2503 115.417 79.1381 117.128C80.1191 117.709 81.351 117.62 82.2789 116.957L86.2804 114.099C87.2189 113.429 87.4133 112.09 86.6216 111.251C84.8307 109.354 83.7232 109.09 81.7994 109.756C83.0247 110.067 83.7478 110.456 84.3965 111.688C84.7601 112.378 84.5523 113.216 84.0005 113.767L82.2759 115.492C81.3711 116.397 79.9668 116.664 78.906 115.948C77.392 114.927 76.4786 113.802 75.488 112.283C74.8942 111.372 74.8544 110.185 75.4804 109.296C77.1885 106.871 79.0768 106.022 82.8348 105.614C87.5143 105.758 93.9739 109.592 101.473 112.862C101.611 115.305 101.827 117.608 105.431 119.531C106.15 119.915 107.027 119.733 107.604 119.156L110.252 116.508C110.55 116.21 110.55 115.727 110.252 115.429V115.429C109.972 115.149 109.522 115.134 109.211 115.381C104.883 118.812 103.35 117.017 102.508 112.862C108.785 113.743 111.601 112.063 112.862 106.65H114.933L118.04 111.827ZM102.508 111.827C105.324 107.593 107.417 106.549 111.827 106.65C109.582 111.782 107.624 113.001 102.508 111.827Z" fill="url(#paint1_radial_692_1770)"/>
<path d="M118.04 114.933V111.827C116.112 115.763 116.189 118.074 110.791 119.075C111.96 121.038 112.806 121.636 114.933 121.146C115.325 125.201 115.718 127.472 118.04 131.5V125.287C116.703 121.107 116.953 118.865 118.04 114.933Z" fill="url(#paint2_radial_692_1770)"/>
<path d="M115.969 98.3662C116.06 94.792 116.696 93.3936 118.04 91.1182V105.614C115.723 100.811 114.342 99.4138 111.827 99.4015C113.365 97.8121 114.277 97.3638 115.969 98.3662Z" fill="url(#paint3_radial_692_1770)"/>
<path d="M185.366 108.06C186.69 108.487 188.157 108.504 189.362 107.809C191.499 106.575 191.937 105.154 191.555 102.508V102.508C193.199 103.056 194.016 104.953 193.045 106.388C192.081 107.812 190.985 108.974 189.452 110.246C188.161 111.316 186.509 111.855 184.833 111.812C179.638 111.679 177.044 110.851 173.953 108.72C174.974 110.641 174.917 111.76 174.09 113.6C174.018 113.76 173.822 113.822 173.671 113.731C171.996 112.73 171.075 111.892 169.811 109.756C169.863 114.032 169.094 113.977 165.669 114.933C168.559 110.86 168.026 109.221 165.881 106.254C165.083 105.151 163.953 104.331 162.673 103.866L157.501 101.985C154.744 100.982 151.73 100.942 148.947 101.869L131.905 107.55C131.771 107.435 131.636 107.326 131.5 107.223V104.508C131.5 103.403 130.605 102.508 129.5 102.508H127.288C126.183 102.508 125.288 103.403 125.288 104.508V105.614H124.252V103.472C124.252 102.368 125.148 101.472 126.252 101.472H130.536C131.64 101.472 132.536 102.368 132.536 103.472V106.65C137.305 103.748 142.547 101.584 149.353 99.7769C153.233 98.747 157.325 99.0145 161.146 100.247L185.366 108.06Z" fill="url(#paint4_radial_692_1770)"/>
<path fill-rule="evenodd" clip-rule="evenodd" d="M118.04 111.827V108.721C120.621 105.74 121.915 105.799 124.252 105.614H125.288C128.016 105.589 129.856 105.979 131.5 107.223V107.685L131.905 107.55C132.809 108.327 133.669 109.382 134.607 110.791C141.656 108.167 143.837 105.859 151.448 104.117C153.286 103.696 155.241 103.854 156.905 104.739C158.938 105.82 160.331 107.075 161.678 109.235C162.281 110.201 162.374 111.42 161.864 112.438C161.029 114.107 159.829 115.417 156.941 117.128C155.96 117.709 154.728 117.62 153.8 116.957L149.799 114.099C148.86 113.429 148.666 112.09 149.457 111.251C151.248 109.354 152.356 109.09 154.28 109.756C153.054 110.067 152.331 110.456 151.683 111.688C151.319 112.378 151.527 113.216 152.079 113.767L153.803 115.492C154.708 116.397 156.112 116.664 157.173 115.948C158.687 114.927 159.601 113.802 160.591 112.283C161.185 111.372 161.225 110.185 160.599 109.296C158.891 106.871 157.002 106.022 153.244 105.614C148.565 105.758 142.105 109.592 134.607 112.862C134.468 115.305 134.252 117.608 130.648 119.531C129.929 119.915 129.052 119.733 128.475 119.156L125.827 116.508C125.529 116.21 125.529 115.727 125.827 115.429V115.429C126.107 115.149 126.557 115.134 126.868 115.381C131.196 118.812 132.729 117.017 133.571 112.862C127.294 113.743 124.479 112.063 123.217 106.65H121.146L118.04 111.827ZM133.571 111.827C130.755 107.593 128.662 106.549 124.252 106.65C126.497 111.782 128.455 113.001 133.571 111.827Z" fill="url(#paint5_radial_692_1770)"/>
<path d="M118.04 114.933V111.827C119.967 115.763 119.89 118.074 125.288 119.075C124.119 121.038 123.273 121.636 121.146 121.146C120.755 125.201 120.362 127.472 118.04 131.5V125.287C119.376 121.107 119.126 118.865 118.04 114.933Z" fill="url(#paint6_radial_692_1770)"/>
<path d="M120.11 98.3662C120.019 94.792 119.383 93.3936 118.04 91.1182V105.614C120.356 100.811 121.737 99.4138 124.252 99.4015C122.714 97.8121 121.802 97.3638 120.11 98.3662Z" fill="url(#paint7_radial_692_1770)"/>
<path d="M87.0586 59.3164C90.7969 59.3164 92.6732 59.2018 92.6875 58.9727L93.8477 53C94.1628 51.4674 94.3203 50.1497 94.3203 49.0469C94.3203 48.832 94.1699 48.6387 93.8691 48.4668C93.5827 48.2949 93.2461 48.1589 92.8594 48.0586C92.487 47.944 92.1719 47.8867 91.9141 47.8867C91.8568 47.8867 91.8281 47.8151 91.8281 47.6719C91.8281 47.2708 91.9427 46.9557 92.1719 46.7266C92.401 46.7409 92.7878 46.7695 93.332 46.8125C93.8906 46.8555 94.4922 46.8984 95.1367 46.9414C95.7812 46.9701 96.3398 46.9844 96.8125 46.9844C97.5143 46.9844 98.4095 46.9414 99.498 46.8555C100.601 46.7695 101.238 46.7266 101.41 46.7266V46.8555C101.41 47.543 101.31 47.8867 101.109 47.8867C100.966 47.8867 100.694 47.944 100.293 48.0586C99.8919 48.1589 99.5052 48.2878 99.1328 48.4453C98.7604 48.5885 98.5456 48.7318 98.4883 48.875C98.0729 49.7917 97.7005 51.1237 97.3711 52.8711L94.2344 69.0273C93.9193 70.5599 93.7617 71.849 93.7617 72.8945C93.7617 73.1237 93.9551 73.3314 94.3418 73.5176C94.7285 73.7038 95.1224 73.8255 95.5234 73.8828L96.082 73.9688C96.1393 73.9688 96.168 74.026 96.168 74.1406C96.168 74.4557 96.082 74.7852 95.9102 75.1289C94.5781 75.0573 93.5397 75.0072 92.7949 74.9785C92.0501 74.9355 91.599 74.9141 91.4414 74.9141C91.3984 74.9141 90.9831 74.9355 90.1953 74.9785C89.4076 75.0072 88.2474 75.0573 86.7148 75.1289C86.6576 75.0716 86.6289 74.957 86.6289 74.7852C86.6289 74.2409 86.7292 73.9688 86.9297 73.9688C87.1589 73.9688 87.474 73.9258 87.875 73.8398C88.2904 73.7539 88.6771 73.6393 89.0352 73.4961C89.3932 73.3529 89.6081 73.1953 89.6797 73.0234C90.0951 72.0781 90.4674 70.7031 90.7969 68.8984L92.1719 61.8086V61.7656C92.1719 61.6224 91.8353 61.5293 91.1621 61.4863C90.5033 61.4434 88.8776 61.4219 86.2852 61.4219C82.1745 61.4219 80.0833 61.5938 80.0117 61.9375L78.6367 69.0273C78.3216 70.5599 78.1641 71.849 78.1641 72.8945C78.1641 73.1237 78.3574 73.3314 78.7441 73.5176C79.1309 73.7038 79.5104 73.8255 79.8828 73.8828L80.4844 73.9688C80.5417 73.9688 80.5703 74.026 80.5703 74.1406C80.5703 74.4557 80.4844 74.7852 80.3125 75.1289C78.9948 75.0573 77.9635 75.0072 77.2188 74.9785C76.474 74.9355 76.0156 74.9141 75.8438 74.9141C75.8151 74.9141 75.4069 74.9355 74.6191 74.9785C73.8314 75.0072 72.6641 75.0573 71.1172 75.1289C71.0599 75.0716 71.0312 74.957 71.0312 74.7852C71.0312 74.2409 71.1315 73.9688 71.332 73.9688C71.5612 73.9688 71.8763 73.9258 72.2773 73.8398C72.6927 73.7539 73.0794 73.6393 73.4375 73.4961C73.7956 73.3529 74.0104 73.1953 74.082 73.0234C74.4974 72.0781 74.8698 70.7031 75.1992 68.8984L78.25 53C78.5651 51.4674 78.7227 50.1497 78.7227 49.0469C78.7227 48.832 78.5723 48.6387 78.2715 48.4668C77.985 48.2949 77.6484 48.1589 77.2617 48.0586C76.8893 47.944 76.5742 47.8867 76.3164 47.8867C76.2591 47.8867 76.2305 47.8151 76.2305 47.6719C76.2305 47.2708 76.3451 46.9557 76.5742 46.7266C76.8034 46.7409 77.1901 46.7695 77.7344 46.8125C78.293 46.8555 78.8945 46.8984 79.5391 46.9414C80.1836 46.9701 80.7422 46.9844 81.2148 46.9844C81.9023 46.9844 82.7832 46.9414 83.8574 46.8555C84.9316 46.7695 85.569 46.7266 85.7695 46.7266V46.8555C85.7695 47.543 85.6693 47.8867 85.4688 47.8867C85.3255 47.8867 85.0462 47.944 84.6309 48.0586C84.2298 48.1589 83.8359 48.2878 83.4492 48.4453C83.0768 48.5885 82.862 48.7318 82.8047 48.875C82.332 49.9779 81.9596 51.3099 81.6875 52.8711L80.6133 58.9297V58.9727C80.6133 59.1159 80.9928 59.209 81.752 59.252C82.5111 59.2949 84.2799 59.3164 87.0586 59.3164ZM112.023 56.3086C113.083 56.3086 114.129 56.4948 115.16 56.8672L112.539 70.4453C112.453 70.7891 112.41 71.1471 112.41 71.5195C112.41 72.2357 112.553 72.5938 112.84 72.5938C113.198 72.5938 113.628 72.3431 114.129 71.8418C114.63 71.3262 115.06 70.8893 115.418 70.5312L115.676 70.2305C115.733 70.2305 115.84 70.3665 115.998 70.6387C116.156 70.9108 116.234 71.1042 116.234 71.2188C115.991 71.6341 115.547 72.1641 114.902 72.8086C114.272 73.4531 113.585 74.026 112.84 74.5273C112.095 75.0143 111.422 75.2578 110.82 75.2578C110.362 75.2578 110.004 75.0501 109.746 74.6348C109.488 74.2194 109.359 73.6823 109.359 73.0234C109.359 72.5794 109.46 71.8203 109.66 70.7461L109.811 69.9941C109.854 69.7936 109.875 69.6719 109.875 69.6289C109.646 70.0586 109.316 70.5885 108.887 71.2188C108.457 71.8346 107.963 72.4505 107.404 73.0664C106.846 73.6823 106.258 74.1979 105.643 74.6133C105.027 75.0143 104.418 75.2148 103.816 75.2148C102.556 75.2148 101.561 74.6491 100.83 73.5176C100.1 72.3861 99.7344 71.0182 99.7344 69.4141C99.7344 67.3659 100.343 65.3249 101.561 63.291C102.377 61.916 103.351 60.7057 104.482 59.6602C105.628 58.6146 106.853 57.7982 108.156 57.2109C109.46 56.6094 110.749 56.3086 112.023 56.3086ZM110.219 58.2852C109.374 58.2852 108.521 58.5859 107.662 59.1875C106.803 59.7747 106.015 60.5697 105.299 61.5723C104.583 62.5605 104.003 63.6634 103.559 64.8809C103.129 66.084 102.914 67.2943 102.914 68.5117C102.914 71.319 103.645 72.7227 105.105 72.7227C105.621 72.7227 106.18 72.4362 106.781 71.8633C107.383 71.2904 107.977 70.5312 108.564 69.5859C109.152 68.6406 109.667 67.6165 110.111 66.5137C110.57 65.3965 110.906 64.3008 111.121 63.2266L111.98 58.8438C111.637 58.4714 111.049 58.2852 110.219 58.2852ZM127.062 56.1797C128.695 56.1797 129.984 56.724 130.93 57.8125C131.073 58.1419 131.145 58.4427 131.145 58.7148C131.145 59.2305 131.008 59.6745 130.736 60.0469C130.464 60.4193 130.113 60.6055 129.684 60.6055C129.297 60.6055 128.939 60.3978 128.609 59.9824C128.294 59.5671 127.9 59.1445 127.428 58.7148C126.955 58.2852 126.332 58.0703 125.559 58.0703C124.957 58.0703 124.484 58.2708 124.141 58.6719C123.797 59.0729 123.625 59.5312 123.625 60.0469C123.625 60.7917 123.904 61.5866 124.463 62.4316C125.021 63.2767 125.63 64.0286 126.289 64.6875C126.948 65.3464 127.557 66.1484 128.115 67.0938C128.674 68.0391 128.953 68.9987 128.953 69.9727C128.953 71.5482 128.38 72.8229 127.234 73.7969C126.089 74.7708 124.613 75.2578 122.809 75.2578C121.176 75.2578 119.887 74.7135 118.941 73.625C118.798 73.3958 118.727 73.1237 118.727 72.8086C118.727 72.293 118.863 71.8346 119.135 71.4336C119.407 71.0326 119.758 70.832 120.188 70.832C120.574 70.832 120.932 71.0397 121.262 71.4551C121.577 71.8704 121.971 72.293 122.443 72.7227C122.916 73.1523 123.539 73.3672 124.312 73.3672C124.943 73.3672 125.451 73.1595 125.838 72.7441C126.225 72.3288 126.418 71.8776 126.418 71.3906C126.418 70.6458 126.139 69.8509 125.58 69.0059C125.021 68.1608 124.413 67.4089 123.754 66.75C123.095 66.0911 122.486 65.2891 121.928 64.3438C121.369 63.3984 121.09 62.4388 121.09 61.4648C121.09 60.6628 121.355 59.8535 121.885 59.0371C122.415 58.2207 123.131 57.5404 124.033 56.9961C124.936 56.4518 125.945 56.1797 127.062 56.1797ZM145.969 56.3086C147.401 56.3086 148.117 57.2539 148.117 59.1445C148.117 60.4766 147.917 62.0378 147.516 63.8281L146.098 70.4453C146.012 70.7891 145.969 71.1471 145.969 71.5195C145.969 72.2357 146.112 72.5938 146.398 72.5938C146.757 72.5938 147.186 72.3431 147.688 71.8418C148.189 71.3262 148.618 70.8893 148.977 70.5312L149.234 70.2305C149.292 70.2305 149.399 70.3665 149.557 70.6387C149.714 70.9108 149.793 71.1042 149.793 71.2188C149.549 71.6341 149.105 72.1641 148.461 72.8086C147.831 73.4531 147.143 74.026 146.398 74.5273C145.654 75.0143 144.98 75.2578 144.379 75.2578C143.921 75.2578 143.562 75.0501 143.305 74.6348C143.047 74.2194 142.918 73.6823 142.918 73.0234C142.918 72.5938 143.018 71.8346 143.219 70.7461L144.723 63.6562C144.923 62.6823 145.023 61.9089 145.023 61.3359C145.023 60.1042 144.751 59.4883 144.207 59.4883C143.734 59.4883 143.097 59.8464 142.295 60.5625C141.493 61.2643 140.655 62.2025 139.781 63.377C138.922 64.5514 138.141 65.862 137.439 67.3086C136.738 68.7409 136.243 70.1875 135.957 71.6484L135.227 75C134.84 75.1146 134.396 75.1719 133.895 75.1719C133.408 75.1719 132.921 75.1146 132.434 75L137.074 50.9805C137.332 49.7057 137.461 48.9466 137.461 48.7031C137.461 48.1589 136.587 47.8867 134.84 47.8867C134.754 47.8867 134.711 47.8008 134.711 47.6289C134.711 47.2852 134.826 46.9987 135.055 46.7695C136.917 46.5977 138.721 46.1966 140.469 45.5664C140.641 45.6523 140.727 45.9245 140.727 46.3828C140.727 46.5833 140.54 47.6576 140.168 49.6055L137.203 64.7734C137.475 64.2865 138.098 63.3984 139.072 62.1094C139.717 61.2643 140.462 60.3978 141.307 59.5098C142.166 58.6074 143.011 57.8483 143.842 57.2324C144.687 56.6165 145.396 56.3086 145.969 56.3086ZM158.301 56.3086C158.759 56.3086 159.117 56.5163 159.375 56.9316C159.633 57.347 159.762 57.8841 159.762 58.543C159.762 59.1732 159.676 59.9323 159.504 60.8203L158.816 64.4297C159.174 63.5846 159.633 62.6966 160.191 61.7656C160.764 60.8203 161.373 59.9323 162.018 59.1016C162.662 58.2708 163.299 57.5977 163.93 57.082C164.56 56.5664 165.118 56.3086 165.605 56.3086C166.579 56.3086 167.367 56.7669 167.969 57.6836C167.969 59.6029 167.439 60.5625 166.379 60.5625C166.15 60.5625 165.878 60.3835 165.562 60.0254C165.247 59.6673 164.918 59.4883 164.574 59.4883C164.159 59.4883 163.615 59.832 162.941 60.5195C162.268 61.207 161.574 62.1094 160.857 63.2266C160.141 64.3294 159.497 65.5254 158.924 66.8145C158.351 68.0892 157.957 69.3138 157.742 70.4883L156.926 75C156.439 75.0859 155.966 75.1289 155.508 75.1289C154.964 75.1289 154.434 75.0859 153.918 75L156.496 61.7656C156.639 60.7773 156.711 60.2044 156.711 60.0469C156.711 59.3307 156.568 58.9727 156.281 58.9727C156.038 58.9727 155.673 59.2018 155.186 59.6602C154.956 59.8893 154.706 60.14 154.434 60.4121C154.176 60.6842 154.004 60.8776 153.918 60.9922C153.861 60.9922 153.753 60.8561 153.596 60.584C153.438 60.3118 153.359 60.1185 153.359 60.0039C153.589 59.6172 154.004 59.1374 154.605 58.5645C155.207 57.9772 155.852 57.4544 156.539 56.9961C157.227 56.5378 157.814 56.3086 158.301 56.3086Z" fill="white"/>
<path d="M0 14.4961C6.30012 20.0984 15.0791 19.1979 30.687 15.1421C32.2497 14.736 33.9168 14.9601 35.3059 15.7832L61.0905 31.063L35.3304 19.6141C33.9205 18.9874 32.3183 18.9353 30.8588 19.4358C12.5496 25.7159 4.73674 24.7283 0 14.4961Z" fill="url(#paint8_radial_692_1770)"/>
<path d="M16.5669 25.8858C22.7094 27.5488 34.4861 19.1752 43.5027 24.2129C35.7991 20.3448 24.9274 34.7378 16.5669 25.8858Z" fill="url(#paint9_radial_692_1770)"/>
<path d="M42.4528 34.1693C40.4746 32.9379 39.8039 31.791 39.5364 30.2054C39.314 28.8871 40.2138 27.6374 41.514 27.3262C46.4064 26.1551 49.6595 27.3172 54.8779 31.063C50.3759 26.3362 46.8249 25.2844 39.6469 25.78C38.7972 25.8387 38.0191 26.2751 37.5081 26.9564L36.1669 28.7446C35.6047 29.4943 35.6307 30.5432 36.2784 31.2205C38.4425 33.4837 39.9798 34.1156 42.4528 34.1693Z" fill="url(#paint10_radial_692_1770)"/>
<path d="M61.0905 28.9921C48.8725 19.5072 53.131 18.6378 60.0551 10.3543C56.6285 8.93238 54.8937 8.83857 52.8071 12.4252C51.2879 8.29387 49.7783 6.42726 45.559 4.14173C43.8524 8.52031 44.6321 10.6991 46.5945 14.4961C42.9378 12.0347 40.7471 11.3823 36.2402 13.4606C46.3046 17.727 45.2926 18.8748 61.0905 28.9921Z" fill="url(#paint11_radial_692_1770)"/>
<path d="M78.6929 22.7441C78.6929 22.1918 79.1406 21.7441 79.6929 21.7441H79.7638C80.3161 21.7441 80.7638 22.1918 80.7638 22.7441V25.9213C80.7638 26.4735 80.3161 26.9213 79.7638 26.9213H74.4803C73.3757 26.9213 72.4803 26.0258 72.4803 24.9213V19.6024C72.4803 18.4978 73.3757 17.6024 74.4803 17.6024H78.7281C80.6137 17.6024 82.4755 18.023 84.178 18.8337V18.8337C85.2965 19.3663 86.1249 20.3629 86.4441 21.5599L88.3399 28.6695C89.2063 31.9182 86.6836 35.0788 83.3237 34.9544L68.0679 34.3894C64.7776 34.2675 62.2002 31.5169 62.2923 28.2256L62.6948 13.8426C62.7856 10.5955 65.4441 8.01038 68.6924 8.01038H83.0387C86.0229 8.01038 88.8896 9.21712 90.915 11.4088C101.807 23.194 109.097 33.3225 115.395 32.2299C115.685 32.1796 115.968 32.3916 115.968 32.686V32.686C115.968 32.9325 115.766 33.1318 115.519 33.1285C109.37 33.045 105.37 32.4313 87.653 13.254C86.5367 12.0456 85.0793 11.1983 83.4735 10.8414L77.8584 9.59364C77.0431 9.41248 76.199 9.4035 75.3801 9.56728L71.091 10.4251C68.2865 10.986 66.2677 13.4485 66.2677 16.3086V27.0984C66.2677 29.8599 68.5063 32.0984 71.2677 32.0984H80.9055C83.1146 32.0984 84.9055 30.3076 84.9055 28.0984V22.6378C84.9055 20.4287 83.1146 18.6378 80.9055 18.6378H76.5512C75.4466 18.6378 74.5512 19.5332 74.5512 20.6378V24.8858C74.5512 25.4381 74.9989 25.8858 75.5512 25.8858H77.6929C78.2452 25.8858 78.6929 25.4381 78.6929 24.8858V22.7441Z" fill="url(#paint12_radial_692_1770)"/>
<path d="M104.412 33.0631C96.4743 29.9513 88.3242 12.4066 78.6929 13.4606C91.6665 19.2326 92.9183 31.4785 104.412 33.0631Z" fill="url(#paint13_radial_692_1770)"/>
<path d="M111.827 30.0276C106.485 21.6827 106.361 16.9143 110.791 8.28346C105.363 9.71409 97.6256 19.5114 111.827 30.0276Z" fill="url(#paint14_radial_692_1770)"/>
<path d="M118.039 10.3543C113.102 14.0549 110.405 23.2793 118.039 32.0984C106.33 25.6888 109.793 12.7713 118.039 0V10.3543Z" fill="url(#paint15_radial_692_1770)"/>
<path d="M236.079 14.4961C229.778 20.0984 221 19.1979 205.392 15.1421C203.829 14.736 202.162 14.9601 200.773 15.7832L174.988 31.063L200.748 19.6141C202.158 18.9874 203.76 18.9353 205.22 19.4358C223.529 25.7159 231.342 24.7283 236.079 14.4961Z" fill="url(#paint16_radial_692_1770)"/>
<path d="M219.512 25.8858C213.369 27.5488 201.593 19.1752 192.576 24.2129C200.279 20.3448 211.151 34.7378 219.512 25.8858Z" fill="url(#paint17_radial_692_1770)"/>
<path d="M193.626 34.1693C195.604 32.9379 196.275 31.791 196.542 30.2054C196.765 28.8871 195.865 27.6374 194.565 27.3262C189.672 26.1551 186.419 27.3172 181.201 31.063C185.703 26.3362 189.254 25.2844 196.432 25.78C197.281 25.8387 198.06 26.2751 198.571 26.9564L199.912 28.7446C200.474 29.4943 200.448 30.5432 199.8 31.2205C197.636 33.4837 196.099 34.1156 193.626 34.1693Z" fill="url(#paint18_radial_692_1770)"/>
<path d="M174.988 28.9921C187.206 19.5072 182.948 18.6378 176.024 10.3543C179.45 8.93238 181.185 8.83857 183.272 12.4252C184.791 8.29387 186.3 6.42726 190.52 4.14173C192.226 8.52031 191.446 10.6991 189.484 14.4961C193.141 12.0347 195.331 11.3823 199.838 13.4606C189.774 17.727 190.786 18.8748 174.988 28.9921Z" fill="url(#paint19_radial_692_1770)"/>
<path d="M157.386 22.7441C157.386 22.1918 156.938 21.7441 156.386 21.7441H156.315C155.763 21.7441 155.315 22.1918 155.315 22.7441V25.9213C155.315 26.4735 155.763 26.9213 156.315 26.9213H161.598C162.703 26.9213 163.598 26.0258 163.598 24.9213V19.6024C163.598 18.4978 162.703 17.6024 161.598 17.6024H157.351C155.465 17.6024 153.603 18.023 151.901 18.8337V18.8337C150.782 19.3663 149.954 20.3629 149.635 21.5599L147.739 28.6695C146.872 31.9182 149.395 35.0788 152.755 34.9544L168.011 34.3894C171.301 34.2675 173.878 31.5169 173.786 28.2256L173.384 13.8426C173.293 10.5955 170.635 8.01038 167.386 8.01038H153.04C150.056 8.01038 147.189 9.21712 145.164 11.4088C134.272 23.194 126.982 33.3225 120.683 32.2299C120.393 32.1796 120.11 32.3916 120.11 32.686V32.686C120.11 32.9325 120.313 33.1318 120.559 33.1285C126.708 33.045 130.709 32.4313 148.426 13.254C149.542 12.0456 150.999 11.1983 152.605 10.8414L158.22 9.59364C159.035 9.41248 159.88 9.4035 160.698 9.56728L164.988 10.4251C167.792 10.986 169.811 13.4485 169.811 16.3086V27.0984C169.811 29.8599 167.572 32.0984 164.811 32.0984H155.173C152.964 32.0984 151.173 30.3076 151.173 28.0984V22.6378C151.173 20.4287 152.964 18.6378 155.173 18.6378H159.527C160.632 18.6378 161.527 19.5332 161.527 20.6378V24.8858C161.527 25.4381 161.08 25.8858 160.527 25.8858H158.386C157.833 25.8858 157.386 25.4381 157.386 24.8858V22.7441Z" fill="url(#paint20_radial_692_1770)"/>
<path d="M131.666 33.0631C139.604 29.9513 147.754 12.4066 157.386 13.4606C144.412 19.2326 143.16 31.4785 131.666 33.0631Z" fill="url(#paint21_radial_692_1770)"/>
<path d="M124.252 30.0276C129.594 21.6827 129.718 16.9143 125.287 8.28346C130.716 9.71409 138.453 19.5114 124.252 30.0276Z" fill="url(#paint22_radial_692_1770)"/>
<path d="M118.039 10.3543C122.976 14.0549 125.673 23.2793 118.039 32.0984C129.749 25.6888 126.286 12.7713 118.039 0V10.3543Z" fill="url(#paint23_radial_692_1770)"/>
<defs>
<radialGradient id="paint0_radial_692_1770" cx="0" cy="0" r="1" gradientUnits="userSpaceOnUse" gradientTransform="translate(79.7285 111.309) scale(38.311 20.1909)">
<stop stop-color="#E1E1E1"/>
<stop offset="1" stop-color="#FFF4DA"/>
</radialGradient>
<radialGradient id="paint1_radial_692_1770" cx="0" cy="0" r="1" gradientUnits="userSpaceOnUse" gradientTransform="translate(79.7285 111.309) scale(38.311 20.1909)">
<stop stop-color="#E1E1E1"/>
<stop offset="1" stop-color="#FFF4DA"/>
</radialGradient>
<radialGradient id="paint2_radial_692_1770" cx="0" cy="0" r="1" gradientUnits="userSpaceOnUse" gradientTransform="translate(79.7285 111.309) scale(38.311 20.1909)">
<stop stop-color="#E1E1E1"/>
<stop offset="1" stop-color="#FFF4DA"/>
</radialGradient>
<radialGradient id="paint3_radial_692_1770" cx="0" cy="0" r="1" gradientUnits="userSpaceOnUse" gradientTransform="translate(79.7285 111.309) scale(38.311 20.1909)">
<stop stop-color="#E1E1E1"/>
<stop offset="1" stop-color="#FFF4DA"/>
</radialGradient>
<radialGradient id="paint4_radial_692_1770" cx="0" cy="0" r="1" gradientUnits="userSpaceOnUse" gradientTransform="translate(156.351 111.309) rotate(180) scale(38.311 20.1909)">
<stop stop-color="#E1E1E1"/>
<stop offset="1" stop-color="#FFF4DA"/>
</radialGradient>
<radialGradient id="paint5_radial_692_1770" cx="0" cy="0" r="1" gradientUnits="userSpaceOnUse" gradientTransform="translate(156.351 111.309) rotate(180) scale(38.311 20.1909)">
<stop stop-color="#E1E1E1"/>
<stop offset="1" stop-color="#FFF4DA"/>
</radialGradient>
<radialGradient id="paint6_radial_692_1770" cx="0" cy="0" r="1" gradientUnits="userSpaceOnUse" gradientTransform="translate(156.351 111.309) rotate(180) scale(38.311 20.1909)">
<stop stop-color="#E1E1E1"/>
<stop offset="1" stop-color="#FFF4DA"/>
</radialGradient>
<radialGradient id="paint7_radial_692_1770" cx="0" cy="0" r="1" gradientUnits="userSpaceOnUse" gradientTransform="translate(156.351 111.309) rotate(180) scale(38.311 20.1909)">
<stop stop-color="#E1E1E1"/>
<stop offset="1" stop-color="#FFF4DA"/>
</radialGradient>
<radialGradient id="paint8_radial_692_1770" cx="0" cy="0" r="1" gradientUnits="userSpaceOnUse" gradientTransform="translate(59.0197 17.6024) scale(59.0197 17.6024)">
<stop stop-color="#E1E1E1"/>
<stop offset="1" stop-color="#FFF4DA"/>
</radialGradient>
<radialGradient id="paint9_radial_692_1770" cx="0" cy="0" r="1" gradientUnits="userSpaceOnUse" gradientTransform="translate(59.0197 17.6024) scale(59.0197 17.6024)">
<stop stop-color="#E1E1E1"/>
<stop offset="1" stop-color="#FFF4DA"/>
</radialGradient>
<radialGradient id="paint10_radial_692_1770" cx="0" cy="0" r="1" gradientUnits="userSpaceOnUse" gradientTransform="translate(59.0197 17.6024) scale(59.0197 17.6024)">
<stop stop-color="#E1E1E1"/>
<stop offset="1" stop-color="#FFF4DA"/>
</radialGradient>
<radialGradient id="paint11_radial_692_1770" cx="0" cy="0" r="1" gradientUnits="userSpaceOnUse" gradientTransform="translate(59.0197 17.6024) scale(59.0197 17.6024)">
<stop stop-color="#E1E1E1"/>
<stop offset="1" stop-color="#FFF4DA"/>
</radialGradient>
<radialGradient id="paint12_radial_692_1770" cx="0" cy="0" r="1" gradientUnits="userSpaceOnUse" gradientTransform="translate(59.0197 17.6024) scale(59.0197 17.6024)">
<stop stop-color="#E1E1E1"/>
<stop offset="1" stop-color="#FFF4DA"/>
</radialGradient>
<radialGradient id="paint13_radial_692_1770" cx="0" cy="0" r="1" gradientUnits="userSpaceOnUse" gradientTransform="translate(59.0197 17.6024) scale(59.0197 17.6024)">
<stop stop-color="#E1E1E1"/>
<stop offset="1" stop-color="#FFF4DA"/>
</radialGradient>
<radialGradient id="paint14_radial_692_1770" cx="0" cy="0" r="1" gradientUnits="userSpaceOnUse" gradientTransform="translate(59.0197 17.6024) scale(59.0197 17.6024)">
<stop stop-color="#E1E1E1"/>
<stop offset="1" stop-color="#FFF4DA"/>
</radialGradient>
<radialGradient id="paint15_radial_692_1770" cx="0" cy="0" r="1" gradientUnits="userSpaceOnUse" gradientTransform="translate(59.0197 17.6024) scale(59.0197 17.6024)">
<stop stop-color="#E1E1E1"/>
<stop offset="1" stop-color="#FFF4DA"/>
</radialGradient>
<radialGradient id="paint16_radial_692_1770" cx="0" cy="0" r="1" gradientUnits="userSpaceOnUse" gradientTransform="translate(177.059 17.6024) rotate(180) scale(59.0197 17.6024)">
<stop stop-color="#E1E1E1"/>
<stop offset="1" stop-color="#FFF4DA"/>
</radialGradient>
<radialGradient id="paint17_radial_692_1770" cx="0" cy="0" r="1" gradientUnits="userSpaceOnUse" gradientTransform="translate(177.059 17.6024) rotate(180) scale(59.0197 17.6024)">
<stop stop-color="#E1E1E1"/>
<stop offset="1" stop-color="#FFF4DA"/>
</radialGradient>
<radialGradient id="paint18_radial_692_1770" cx="0" cy="0" r="1" gradientUnits="userSpaceOnUse" gradientTransform="translate(177.059 17.6024) rotate(180) scale(59.0197 17.6024)">
<stop stop-color="#E1E1E1"/>
<stop offset="1" stop-color="#FFF4DA"/>
</radialGradient>
<radialGradient id="paint19_radial_692_1770" cx="0" cy="0" r="1" gradientUnits="userSpaceOnUse" gradientTransform="translate(177.059 17.6024) rotate(180) scale(59.0197 17.6024)">
<stop stop-color="#E1E1E1"/>
<stop offset="1" stop-color="#FFF4DA"/>
</radialGradient>
<radialGradient id="paint20_radial_692_1770" cx="0" cy="0" r="1" gradientUnits="userSpaceOnUse" gradientTransform="translate(177.059 17.6024) rotate(180) scale(59.0197 17.6024)">
<stop stop-color="#E1E1E1"/>
<stop offset="1" stop-color="#FFF4DA"/>
</radialGradient>
<radialGradient id="paint21_radial_692_1770" cx="0" cy="0" r="1" gradientUnits="userSpaceOnUse" gradientTransform="translate(177.059 17.6024) rotate(180) scale(59.0197 17.6024)">
<stop stop-color="#E1E1E1"/>
<stop offset="1" stop-color="#FFF4DA"/>
</radialGradient>
<radialGradient id="paint22_radial_692_1770" cx="0" cy="0" r="1" gradientUnits="userSpaceOnUse" gradientTransform="translate(177.059 17.6024) rotate(180) scale(59.0197 17.6024)">
<stop stop-color="#E1E1E1"/>
<stop offset="1" stop-color="#FFF4DA"/>
</radialGradient>
<radialGradient id="paint23_radial_692_1770" cx="0" cy="0" r="1" gradientUnits="userSpaceOnUse" gradientTransform="translate(177.059 17.6024) rotate(180) scale(59.0197 17.6024)">
<stop stop-color="#E1E1E1"/>
<stop offset="1" stop-color="#FFF4DA"/>
</radialGradient>
</defs>
</svg>
