<svg width="237" height="132" viewBox="0 0 237 132" fill="none" xmlns="http://www.w3.org/2000/svg">
<path d="M50.713 108.06C49.3894 108.487 47.9219 108.504 46.7174 107.809C44.5799 106.575 44.1417 105.154 44.5239 102.508V102.508C42.8803 103.056 42.0634 104.953 43.0344 106.388C43.9981 107.812 45.0942 108.974 46.6272 110.246C47.9176 111.316 49.57 111.855 51.2463 111.812C56.4411 111.679 59.0354 110.851 62.1261 108.72C61.1055 110.641 61.1623 111.76 61.9889 113.6C62.061 113.76 62.2573 113.822 62.4081 113.731C64.083 112.73 65.0044 111.892 66.2679 109.756C66.2159 114.032 66.9848 113.977 70.4096 114.933C67.5199 110.86 68.053 109.221 70.1985 106.254C70.9963 105.151 72.1264 104.331 73.4058 103.866L78.5781 101.985C81.3347 100.982 84.3491 100.942 87.1317 101.869L104.174 107.55C104.308 107.435 104.443 107.326 104.579 107.223V104.508C104.579 103.403 105.474 102.508 106.579 102.508H108.791C109.896 102.508 110.791 103.403 110.791 104.508V105.614H111.827V103.472C111.827 102.368 110.931 101.472 109.827 101.472H105.543C104.439 101.472 103.543 102.368 103.543 103.472V106.65C98.7741 103.748 93.5326 101.584 86.7262 99.7769C82.8461 98.747 78.7539 99.0145 74.9333 100.247L50.713 108.06Z" fill="url(#paint0_radial_692_2130)"/>
<path fill-rule="evenodd" clip-rule="evenodd" d="M118.04 111.827V108.721C115.458 105.74 114.164 105.799 111.827 105.614H110.791C108.063 105.589 106.223 105.979 104.579 107.223V107.685L104.174 107.55C103.27 108.327 102.41 109.382 101.473 110.791C94.423 108.167 92.2423 105.859 84.6309 104.117C82.7932 103.696 80.8384 103.854 79.1738 104.739C77.1411 105.82 75.7483 107.075 74.4009 109.235C73.7981 110.201 73.7054 111.42 74.2151 112.438C75.05 114.107 76.2503 115.417 79.1381 117.128C80.1191 117.709 81.351 117.62 82.2789 116.957L86.2804 114.099C87.2189 113.429 87.4133 112.09 86.6216 111.251C84.8307 109.354 83.7232 109.09 81.7994 109.756C83.0247 110.067 83.7478 110.456 84.3965 111.688C84.7601 112.378 84.5523 113.216 84.0005 113.767L82.2759 115.492C81.3711 116.397 79.9668 116.664 78.906 115.948C77.392 114.927 76.4786 113.802 75.488 112.283C74.8942 111.372 74.8544 110.185 75.4804 109.296C77.1885 106.871 79.0768 106.022 82.8348 105.614C87.5143 105.758 93.9739 109.592 101.473 112.862C101.611 115.305 101.827 117.608 105.431 119.531C106.15 119.915 107.027 119.733 107.604 119.156L110.252 116.508C110.55 116.21 110.55 115.727 110.252 115.429V115.429C109.972 115.149 109.522 115.134 109.211 115.381C104.883 118.812 103.35 117.017 102.508 112.862C108.785 113.743 111.601 112.063 112.862 106.65H114.933L118.04 111.827ZM102.508 111.827C105.324 107.593 107.417 106.549 111.827 106.65C109.582 111.782 107.624 113.001 102.508 111.827Z" fill="url(#paint1_radial_692_2130)"/>
<path d="M118.04 114.933V111.827C116.112 115.763 116.189 118.074 110.791 119.075C111.96 121.038 112.806 121.636 114.933 121.146C115.325 125.201 115.718 127.472 118.04 131.5V125.287C116.703 121.107 116.953 118.865 118.04 114.933Z" fill="url(#paint2_radial_692_2130)"/>
<path d="M115.969 98.3662C116.06 94.792 116.696 93.3936 118.04 91.1182V105.614C115.723 100.811 114.342 99.4138 111.827 99.4015C113.365 97.8121 114.277 97.3638 115.969 98.3662Z" fill="url(#paint3_radial_692_2130)"/>
<path d="M185.366 108.06C186.69 108.487 188.157 108.504 189.362 107.809C191.499 106.575 191.937 105.154 191.555 102.508V102.508C193.199 103.056 194.016 104.953 193.045 106.388C192.081 107.812 190.985 108.974 189.452 110.246C188.161 111.316 186.509 111.855 184.833 111.812C179.638 111.679 177.044 110.851 173.953 108.72C174.974 110.641 174.917 111.76 174.09 113.6C174.018 113.76 173.822 113.822 173.671 113.731C171.996 112.73 171.075 111.892 169.811 109.756C169.863 114.032 169.094 113.977 165.669 114.933C168.559 110.86 168.026 109.221 165.881 106.254C165.083 105.151 163.953 104.331 162.673 103.866L157.501 101.985C154.744 100.982 151.73 100.942 148.947 101.869L131.905 107.55C131.771 107.435 131.636 107.326 131.5 107.223V104.508C131.5 103.403 130.605 102.508 129.5 102.508H127.288C126.183 102.508 125.288 103.403 125.288 104.508V105.614H124.252V103.472C124.252 102.368 125.148 101.472 126.252 101.472H130.536C131.64 101.472 132.536 102.368 132.536 103.472V106.65C137.305 103.748 142.547 101.584 149.353 99.7769C153.233 98.747 157.325 99.0145 161.146 100.247L185.366 108.06Z" fill="url(#paint4_radial_692_2130)"/>
<path fill-rule="evenodd" clip-rule="evenodd" d="M118.04 111.827V108.721C120.621 105.74 121.915 105.799 124.252 105.614H125.288C128.016 105.589 129.856 105.979 131.5 107.223V107.685L131.905 107.55C132.809 108.327 133.669 109.382 134.607 110.791C141.656 108.167 143.837 105.859 151.448 104.117C153.286 103.696 155.241 103.854 156.905 104.739C158.938 105.82 160.331 107.075 161.678 109.235C162.281 110.201 162.374 111.42 161.864 112.438C161.029 114.107 159.829 115.417 156.941 117.128C155.96 117.709 154.728 117.62 153.8 116.957L149.799 114.099C148.86 113.429 148.666 112.09 149.457 111.251C151.248 109.354 152.356 109.09 154.28 109.756C153.054 110.067 152.331 110.456 151.683 111.688C151.319 112.378 151.527 113.216 152.079 113.767L153.803 115.492C154.708 116.397 156.112 116.664 157.173 115.948C158.687 114.927 159.601 113.802 160.591 112.283C161.185 111.372 161.225 110.185 160.599 109.296C158.891 106.871 157.002 106.022 153.244 105.614C148.565 105.758 142.105 109.592 134.607 112.862C134.468 115.305 134.252 117.608 130.648 119.531C129.929 119.915 129.052 119.733 128.475 119.156L125.827 116.508C125.529 116.21 125.529 115.727 125.827 115.429V115.429C126.107 115.149 126.557 115.134 126.868 115.381C131.196 118.812 132.729 117.017 133.571 112.862C127.294 113.743 124.479 112.063 123.217 106.65H121.146L118.04 111.827ZM133.571 111.827C130.755 107.593 128.662 106.549 124.252 106.65C126.497 111.782 128.455 113.001 133.571 111.827Z" fill="url(#paint5_radial_692_2130)"/>
<path d="M118.04 114.933V111.827C119.967 115.763 119.89 118.074 125.288 119.075C124.119 121.038 123.273 121.636 121.146 121.146C120.755 125.201 120.362 127.472 118.04 131.5V125.287C119.376 121.107 119.126 118.865 118.04 114.933Z" fill="url(#paint6_radial_692_2130)"/>
<path d="M120.11 98.3662C120.019 94.792 119.383 93.3936 118.04 91.1182V105.614C120.356 100.811 121.737 99.4138 124.252 99.4015C122.714 97.8121 121.802 97.3638 120.11 98.3662Z" fill="url(#paint7_radial_692_2130)"/>
<path d="M68.0586 59.3164C71.7969 59.3164 73.6732 59.2018 73.6875 58.9727L74.8477 53C75.1628 51.4674 75.3203 50.1497 75.3203 49.0469C75.3203 48.832 75.1699 48.6387 74.8691 48.4668C74.5827 48.2949 74.2461 48.1589 73.8594 48.0586C73.487 47.944 73.1719 47.8867 72.9141 47.8867C72.8568 47.8867 72.8281 47.8151 72.8281 47.6719C72.8281 47.2708 72.9427 46.9557 73.1719 46.7266C73.401 46.7409 73.7878 46.7695 74.332 46.8125C74.8906 46.8555 75.4922 46.8984 76.1367 46.9414C76.7812 46.9701 77.3398 46.9844 77.8125 46.9844C78.5143 46.9844 79.4095 46.9414 80.498 46.8555C81.6009 46.7695 82.2383 46.7266 82.4102 46.7266V46.8555C82.4102 47.543 82.3099 47.8867 82.1094 47.8867C81.9661 47.8867 81.694 47.944 81.293 48.0586C80.8919 48.1589 80.5052 48.2878 80.1328 48.4453C79.7604 48.5885 79.5456 48.7318 79.4883 48.875C79.0729 49.7917 78.7005 51.1237 78.3711 52.8711L75.2344 69.0273C74.9193 70.5599 74.7617 71.849 74.7617 72.8945C74.7617 73.1237 74.9551 73.3314 75.3418 73.5176C75.7285 73.7038 76.1224 73.8255 76.5234 73.8828L77.082 73.9688C77.1393 73.9688 77.168 74.026 77.168 74.1406C77.168 74.4557 77.082 74.7852 76.9102 75.1289C75.5781 75.0573 74.5397 75.0072 73.7949 74.9785C73.0501 74.9355 72.599 74.9141 72.4414 74.9141C72.3984 74.9141 71.9831 74.9355 71.1953 74.9785C70.4076 75.0072 69.2474 75.0573 67.7148 75.1289C67.6576 75.0716 67.6289 74.957 67.6289 74.7852C67.6289 74.2409 67.7292 73.9688 67.9297 73.9688C68.1589 73.9688 68.474 73.9258 68.875 73.8398C69.2904 73.7539 69.6771 73.6393 70.0352 73.4961C70.3932 73.3529 70.6081 73.1953 70.6797 73.0234C71.0951 72.0781 71.4674 70.7031 71.7969 68.8984L73.1719 61.8086V61.7656C73.1719 61.6224 72.8353 61.5293 72.1621 61.4863C71.5033 61.4434 69.8776 61.4219 67.2852 61.4219C63.1745 61.4219 61.0833 61.5938 61.0117 61.9375L59.6367 69.0273C59.3216 70.5599 59.1641 71.849 59.1641 72.8945C59.1641 73.1237 59.3574 73.3314 59.7441 73.5176C60.1309 73.7038 60.5104 73.8255 60.8828 73.8828L61.4844 73.9688C61.5417 73.9688 61.5703 74.026 61.5703 74.1406C61.5703 74.4557 61.4844 74.7852 61.3125 75.1289C59.9948 75.0573 58.9635 75.0072 58.2188 74.9785C57.474 74.9355 57.0156 74.9141 56.8438 74.9141C56.8151 74.9141 56.4069 74.9355 55.6191 74.9785C54.8314 75.0072 53.6641 75.0573 52.1172 75.1289C52.0599 75.0716 52.0312 74.957 52.0312 74.7852C52.0312 74.2409 52.1315 73.9688 52.332 73.9688C52.5612 73.9688 52.8763 73.9258 53.2773 73.8398C53.6927 73.7539 54.0794 73.6393 54.4375 73.4961C54.7956 73.3529 55.0104 73.1953 55.082 73.0234C55.4974 72.0781 55.8698 70.7031 56.1992 68.8984L59.25 53C59.5651 51.4674 59.7227 50.1497 59.7227 49.0469C59.7227 48.832 59.5723 48.6387 59.2715 48.4668C58.985 48.2949 58.6484 48.1589 58.2617 48.0586C57.8893 47.944 57.5742 47.8867 57.3164 47.8867C57.2591 47.8867 57.2305 47.8151 57.2305 47.6719C57.2305 47.2708 57.3451 46.9557 57.5742 46.7266C57.8034 46.7409 58.1901 46.7695 58.7344 46.8125C59.293 46.8555 59.8945 46.8984 60.5391 46.9414C61.1836 46.9701 61.7422 46.9844 62.2148 46.9844C62.9023 46.9844 63.7832 46.9414 64.8574 46.8555C65.9316 46.7695 66.569 46.7266 66.7695 46.7266V46.8555C66.7695 47.543 66.6693 47.8867 66.4688 47.8867C66.3255 47.8867 66.0462 47.944 65.6309 48.0586C65.2298 48.1589 64.8359 48.2878 64.4492 48.4453C64.0768 48.5885 63.862 48.7318 63.8047 48.875C63.332 49.9779 62.9596 51.3099 62.6875 52.8711L61.6133 58.9297V58.9727C61.6133 59.1159 61.9928 59.209 62.752 59.252C63.5111 59.2949 65.2799 59.3164 68.0586 59.3164ZM86.1055 56.3086C86.5638 56.3086 86.9219 56.5163 87.1797 56.9316C87.4375 57.347 87.5664 57.8841 87.5664 58.543C87.5664 59.3021 87.4805 60.0612 87.3086 60.8203L85.8047 67.9102C85.6042 68.7839 85.5039 69.5573 85.5039 70.2305C85.5039 71.4622 85.776 72.0781 86.3203 72.0781C86.6354 72.0781 87.0221 71.8991 87.4805 71.541C87.9531 71.1829 88.4401 70.7246 88.9414 70.166C89.457 69.6074 89.9368 69.0345 90.3809 68.4473C91.1973 67.373 91.9707 66.0625 92.7012 64.5156C93.4316 62.9688 93.9401 61.4362 94.2266 59.918L94.957 56.5664C95.3438 56.4518 95.7878 56.3945 96.2891 56.3945C96.776 56.3945 97.263 56.4518 97.75 56.5664L95.0859 70.4453C95 70.7891 94.957 71.1471 94.957 71.5195C94.957 72.2357 95.1003 72.5938 95.3867 72.5938C95.7448 72.5938 96.1745 72.3431 96.6758 71.8418C97.1771 71.3262 97.6068 70.8893 97.9648 70.5312L98.2227 70.2305C98.2799 70.2305 98.3874 70.3665 98.5449 70.6387C98.7025 70.9108 98.7812 71.1042 98.7812 71.2188C98.5378 71.6341 98.0938 72.1641 97.4492 72.8086C96.819 73.4531 96.1315 74.026 95.3867 74.5273C94.6419 75.0143 93.9688 75.2578 93.3672 75.2578C92.9089 75.2578 92.5508 75.0501 92.293 74.6348C92.0352 74.2194 91.9062 73.6823 91.9062 73.0234C91.9062 72.5938 92.0065 71.8346 92.207 70.7461L92.9805 66.793C92.7083 67.3086 92.1211 68.1966 91.2188 69.457C90.6315 70.2734 89.9225 71.1328 89.0918 72.0352C88.2754 72.9375 87.459 73.7038 86.6426 74.334C85.8262 74.9499 85.1315 75.2578 84.5586 75.2578C83.1263 75.2578 82.4102 74.3125 82.4102 72.4219C82.4102 71.0755 82.6107 69.5143 83.0117 67.7383L84.3008 61.7656C84.444 60.7773 84.5156 60.2044 84.5156 60.0469C84.5156 59.3307 84.3724 58.9727 84.0859 58.9727C83.8424 58.9727 83.4772 59.2018 82.9902 59.6602C82.7611 59.8893 82.5104 60.14 82.2383 60.4121C81.9805 60.6842 81.8086 60.8776 81.7227 60.9922C81.6654 60.9922 81.5579 60.8561 81.4004 60.584C81.2428 60.3118 81.1641 60.1185 81.1641 60.0039C81.3932 59.6172 81.8086 59.1374 82.4102 58.5645C83.0117 57.9772 83.6562 57.4544 84.3438 56.9961C85.0312 56.5378 85.6185 56.3086 86.1055 56.3086ZM115.195 56.3086C115.969 56.3086 116.563 56.5378 116.979 56.9961C117.394 57.4544 117.645 57.9342 117.73 58.4355C117.816 58.9368 117.859 59.5885 117.859 60.3906C117.859 60.9206 117.659 62.1953 117.258 64.2148C117.73 63.3984 118.318 62.5319 119.02 61.6152C119.721 60.6986 120.459 59.8392 121.232 59.0371C122.006 58.235 122.751 57.5833 123.467 57.082C124.183 56.5664 124.792 56.3086 125.293 56.3086C126.238 56.3086 126.883 56.5449 127.227 57.0176C127.57 57.4902 127.742 58.1992 127.742 59.1445C127.742 60.4766 127.542 62.0378 127.141 63.8281L125.723 70.4453C125.637 70.7891 125.594 71.1471 125.594 71.5195C125.594 72.2357 125.737 72.5938 126.023 72.5938C126.382 72.5938 126.811 72.3431 127.312 71.8418C127.814 71.3262 128.243 70.8893 128.602 70.5312L128.859 70.2305C128.917 70.2305 129.024 70.3665 129.182 70.6387C129.339 70.9108 129.418 71.1042 129.418 71.2188C129.174 71.6341 128.73 72.1641 128.086 72.8086C127.456 73.4531 126.768 74.026 126.023 74.5273C125.279 75.0143 124.605 75.2578 124.004 75.2578C123.546 75.2578 123.188 75.0501 122.93 74.6348C122.672 74.2194 122.543 73.6823 122.543 73.0234C122.543 72.5938 122.643 71.8346 122.844 70.7461L124.348 63.6562C124.548 62.6823 124.648 61.9089 124.648 61.3359C124.648 60.8346 124.605 60.4049 124.52 60.0469C124.448 59.6745 124.219 59.4883 123.832 59.4883C123.345 59.4883 122.708 59.832 121.92 60.5195C121.146 61.207 120.344 62.1165 119.514 63.248C118.683 64.3652 117.938 65.597 117.279 66.9434C116.62 68.2754 116.169 69.6003 115.926 70.918L115.152 75H112.273L114.68 62.7969C114.794 62.1523 114.852 61.6081 114.852 61.1641C114.852 60.0469 114.565 59.4883 113.992 59.4883C113.491 59.4883 112.854 59.8678 112.08 60.627C111.307 61.3861 110.512 62.3672 109.695 63.5703C108.879 64.7734 108.148 66.0553 107.504 67.416C106.859 68.7624 106.415 70.0299 106.172 71.2188L105.398 75C104.596 75.1146 104.109 75.1719 103.938 75.1719C103.794 75.1719 103.322 75.1146 102.52 75L105.098 61.7656C105.241 60.7773 105.312 60.2044 105.312 60.0469C105.312 59.3307 105.169 58.9727 104.883 58.9727C104.639 58.9727 104.274 59.2018 103.787 59.6602C103.558 59.8893 103.307 60.14 103.035 60.4121C102.777 60.6842 102.605 60.8776 102.52 60.9922C102.462 60.9922 102.355 60.8561 102.197 60.584C102.04 60.3118 101.961 60.1185 101.961 60.0039C102.19 59.6172 102.605 59.1374 103.207 58.5645C103.809 57.9772 104.453 57.4544 105.141 56.9961C105.828 56.5378 106.415 56.3086 106.902 56.3086C107.361 56.3086 107.719 56.5163 107.977 56.9316C108.234 57.347 108.363 57.8841 108.363 58.543C108.363 59.1732 108.277 59.9323 108.105 60.8203L107.332 64.8164C107.862 63.8997 108.471 62.9473 109.158 61.959C109.86 60.9707 110.576 60.0469 111.307 59.1875C112.051 58.3281 112.76 57.6335 113.434 57.1035C114.107 56.5736 114.694 56.3086 115.195 56.3086ZM144.07 56.3086C145.13 56.3086 146.176 56.4948 147.207 56.8672L144.586 70.4453C144.5 70.7891 144.457 71.1471 144.457 71.5195C144.457 72.2357 144.6 72.5938 144.887 72.5938C145.245 72.5938 145.674 72.3431 146.176 71.8418C146.677 71.3262 147.107 70.8893 147.465 70.5312L147.723 70.2305C147.78 70.2305 147.887 70.3665 148.045 70.6387C148.202 70.9108 148.281 71.1042 148.281 71.2188C148.038 71.6341 147.594 72.1641 146.949 72.8086C146.319 73.4531 145.632 74.026 144.887 74.5273C144.142 75.0143 143.469 75.2578 142.867 75.2578C142.409 75.2578 142.051 75.0501 141.793 74.6348C141.535 74.2194 141.406 73.6823 141.406 73.0234C141.406 72.5794 141.507 71.8203 141.707 70.7461L141.857 69.9941C141.9 69.7936 141.922 69.6719 141.922 69.6289C141.693 70.0586 141.363 70.5885 140.934 71.2188C140.504 71.8346 140.01 72.4505 139.451 73.0664C138.893 73.6823 138.305 74.1979 137.689 74.6133C137.074 75.0143 136.465 75.2148 135.863 75.2148C134.603 75.2148 133.607 74.6491 132.877 73.5176C132.146 72.3861 131.781 71.0182 131.781 69.4141C131.781 67.3659 132.39 65.3249 133.607 63.291C134.424 61.916 135.398 60.7057 136.529 59.6602C137.675 58.6146 138.9 57.7982 140.203 57.2109C141.507 56.6094 142.796 56.3086 144.07 56.3086ZM142.266 58.2852C141.421 58.2852 140.568 58.5859 139.709 59.1875C138.85 59.7747 138.062 60.5697 137.346 61.5723C136.63 62.5605 136.049 63.6634 135.605 64.8809C135.176 66.084 134.961 67.2943 134.961 68.5117C134.961 71.319 135.691 72.7227 137.152 72.7227C137.668 72.7227 138.227 72.4362 138.828 71.8633C139.43 71.2904 140.024 70.5312 140.611 69.5859C141.199 68.6406 141.714 67.6165 142.158 66.5137C142.617 65.3965 142.953 64.3008 143.168 63.2266L144.027 58.8438C143.684 58.4714 143.096 58.2852 142.266 58.2852ZM156.703 56.3086C157.018 56.3086 157.935 56.4876 159.453 56.8457C160.971 57.2038 162.217 57.3828 163.191 57.3828C163.607 57.3828 164.079 57.2038 164.609 56.8457C165.139 56.4876 165.612 56.3086 166.027 56.3086C166.371 56.3086 166.543 56.6667 166.543 57.3828C166.543 57.5547 165.469 58.8223 163.32 61.1855C161.143 63.5775 159.009 65.9049 156.918 68.168L153.695 71.6055C153.695 71.6198 153.824 71.5625 154.082 71.4336C154.354 71.3047 154.633 71.1758 154.92 71.0469C155.221 70.9036 155.4 70.832 155.457 70.832C156.259 70.832 157.262 71.0898 158.465 71.6055C159.668 72.1211 160.47 72.3789 160.871 72.3789C161.1 72.3789 161.337 72.293 161.58 72.1211C161.824 71.9492 162.053 71.7272 162.268 71.4551C162.325 71.3835 162.454 71.1901 162.654 70.875C162.869 70.5456 163.07 70.2305 163.256 69.9297C163.456 69.6289 163.564 69.4714 163.578 69.457C163.693 69.2995 163.814 69.3424 163.943 69.5859C164.087 69.8438 164.165 70.0729 164.18 70.2734C164.036 70.7604 163.729 71.3835 163.256 72.1426C162.798 72.8874 162.26 73.5534 161.645 74.1406C161.043 74.7135 160.456 75 159.883 75C159.625 75 158.708 74.8138 157.133 74.4414C155.557 74.069 154.311 73.8828 153.395 73.8828C152.993 73.8828 152.521 74.069 151.977 74.4414C151.432 74.8138 150.96 75 150.559 75C150.215 75 150.043 74.6276 150.043 73.8828C150.043 73.6823 151.11 72.4076 153.244 70.0586C154.304 68.8841 155.371 67.7168 156.445 66.5566C157.52 65.3965 158.594 64.2435 159.668 63.0977L162.848 59.6602L162.59 59.875C162.389 59.9896 162.146 60.1185 161.859 60.2617C161.573 60.4049 161.329 60.4766 161.129 60.4766C160.327 60.4766 159.324 60.2188 158.121 59.7031C156.918 59.1875 156.116 58.9297 155.715 58.9297C155.486 58.9297 155.249 59.0156 155.006 59.1875C154.762 59.3594 154.533 59.5814 154.318 59.8535C154.247 59.9538 154.111 60.1615 153.91 60.4766C153.71 60.7917 153.523 61.0924 153.352 61.3789C153.18 61.6654 153.079 61.8229 153.051 61.8516C152.908 61.9948 152.779 61.9518 152.664 61.7227C152.535 61.4505 152.464 61.207 152.449 60.9922C152.607 60.4909 152.908 59.875 153.352 59.1445C153.81 58.3997 154.34 57.7409 154.941 57.168C155.543 56.5951 156.13 56.3086 156.703 56.3086ZM180.336 56.3086C181.396 56.3086 182.441 56.4948 183.473 56.8672L180.852 70.4453C180.766 70.7891 180.723 71.1471 180.723 71.5195C180.723 72.2357 180.866 72.5938 181.152 72.5938C181.51 72.5938 181.94 72.3431 182.441 71.8418C182.943 71.3262 183.372 70.8893 183.73 70.5312L183.988 70.2305C184.046 70.2305 184.153 70.3665 184.311 70.6387C184.468 70.9108 184.547 71.1042 184.547 71.2188C184.303 71.6341 183.859 72.1641 183.215 72.8086C182.585 73.4531 181.897 74.026 181.152 74.5273C180.408 75.0143 179.734 75.2578 179.133 75.2578C178.674 75.2578 178.316 75.0501 178.059 74.6348C177.801 74.2194 177.672 73.6823 177.672 73.0234C177.672 72.5794 177.772 71.8203 177.973 70.7461L178.123 69.9941C178.166 69.7936 178.188 69.6719 178.188 69.6289C177.958 70.0586 177.629 70.5885 177.199 71.2188C176.77 71.8346 176.275 72.4505 175.717 73.0664C175.158 73.6823 174.571 74.1979 173.955 74.6133C173.339 75.0143 172.73 75.2148 172.129 75.2148C170.868 75.2148 169.873 74.6491 169.143 73.5176C168.412 72.3861 168.047 71.0182 168.047 69.4141C168.047 67.3659 168.656 65.3249 169.873 63.291C170.689 61.916 171.663 60.7057 172.795 59.6602C173.941 58.6146 175.165 57.7982 176.469 57.2109C177.772 56.6094 179.061 56.3086 180.336 56.3086ZM178.531 58.2852C177.686 58.2852 176.834 58.5859 175.975 59.1875C175.115 59.7747 174.327 60.5697 173.611 61.5723C172.895 62.5605 172.315 63.6634 171.871 64.8809C171.441 66.084 171.227 67.2943 171.227 68.5117C171.227 71.319 171.957 72.7227 173.418 72.7227C173.934 72.7227 174.492 72.4362 175.094 71.8633C175.695 71.2904 176.29 70.5312 176.877 69.5859C177.464 68.6406 177.98 67.6165 178.424 66.5137C178.882 65.3965 179.219 64.3008 179.434 63.2266L180.293 58.8438C179.949 58.4714 179.362 58.2852 178.531 58.2852Z" fill="white"/>
<path d="M0 14.4961C6.30012 20.0984 15.0791 19.1979 30.687 15.1421C32.2497 14.736 33.9168 14.9601 35.3059 15.7832L61.0905 31.063L35.3304 19.6141C33.9205 18.9874 32.3183 18.9353 30.8588 19.4358C12.5496 25.7159 4.73674 24.7283 0 14.4961Z" fill="url(#paint8_radial_692_2130)"/>
<path d="M16.5669 25.8858C22.7094 27.5488 34.4861 19.1752 43.5027 24.2129C35.7991 20.3448 24.9274 34.7378 16.5669 25.8858Z" fill="url(#paint9_radial_692_2130)"/>
<path d="M42.4528 34.1693C40.4746 32.9379 39.8039 31.791 39.5364 30.2054C39.314 28.8871 40.2138 27.6374 41.514 27.3262C46.4064 26.1551 49.6595 27.3172 54.8779 31.063C50.3759 26.3362 46.8249 25.2844 39.6469 25.78C38.7972 25.8387 38.0191 26.2751 37.5081 26.9564L36.1669 28.7446C35.6047 29.4943 35.6307 30.5432 36.2784 31.2205C38.4425 33.4837 39.9798 34.1156 42.4528 34.1693Z" fill="url(#paint10_radial_692_2130)"/>
<path d="M61.0905 28.9921C48.8725 19.5072 53.131 18.6378 60.0551 10.3543C56.6285 8.93238 54.8937 8.83857 52.8071 12.4252C51.2879 8.29387 49.7783 6.42726 45.559 4.14173C43.8524 8.52031 44.6321 10.6991 46.5945 14.4961C42.9378 12.0347 40.7471 11.3823 36.2402 13.4606C46.3046 17.727 45.2926 18.8748 61.0905 28.9921Z" fill="url(#paint11_radial_692_2130)"/>
<path d="M78.6929 22.7441C78.6929 22.1918 79.1406 21.7441 79.6929 21.7441H79.7638C80.3161 21.7441 80.7638 22.1918 80.7638 22.7441V25.9213C80.7638 26.4735 80.3161 26.9213 79.7638 26.9213H74.4803C73.3757 26.9213 72.4803 26.0258 72.4803 24.9213V19.6024C72.4803 18.4978 73.3757 17.6024 74.4803 17.6024H78.7281C80.6137 17.6024 82.4755 18.023 84.178 18.8337V18.8337C85.2965 19.3663 86.1249 20.3629 86.4441 21.5599L88.3399 28.6695C89.2063 31.9182 86.6836 35.0788 83.3237 34.9544L68.0679 34.3894C64.7776 34.2675 62.2002 31.5169 62.2923 28.2256L62.6948 13.8426C62.7856 10.5955 65.4441 8.01038 68.6924 8.01038H83.0387C86.0229 8.01038 88.8896 9.21712 90.915 11.4088C101.807 23.194 109.097 33.3225 115.395 32.2299C115.685 32.1796 115.968 32.3916 115.968 32.686V32.686C115.968 32.9325 115.766 33.1318 115.519 33.1285C109.37 33.045 105.37 32.4313 87.653 13.254C86.5367 12.0456 85.0793 11.1983 83.4735 10.8414L77.8584 9.59364C77.0431 9.41248 76.199 9.4035 75.3801 9.56728L71.091 10.4251C68.2865 10.986 66.2677 13.4485 66.2677 16.3086V27.0984C66.2677 29.8599 68.5063 32.0984 71.2677 32.0984H80.9055C83.1146 32.0984 84.9055 30.3076 84.9055 28.0984V22.6378C84.9055 20.4287 83.1146 18.6378 80.9055 18.6378H76.5512C75.4466 18.6378 74.5512 19.5332 74.5512 20.6378V24.8858C74.5512 25.4381 74.9989 25.8858 75.5512 25.8858H77.6929C78.2452 25.8858 78.6929 25.4381 78.6929 24.8858V22.7441Z" fill="url(#paint12_radial_692_2130)"/>
<path d="M104.412 33.0631C96.4743 29.9513 88.3242 12.4066 78.6929 13.4606C91.6665 19.2326 92.9183 31.4785 104.412 33.0631Z" fill="url(#paint13_radial_692_2130)"/>
<path d="M111.827 30.0276C106.485 21.6827 106.361 16.9143 110.791 8.28346C105.363 9.71409 97.6256 19.5114 111.827 30.0276Z" fill="url(#paint14_radial_692_2130)"/>
<path d="M118.039 10.3543C113.102 14.0549 110.405 23.2793 118.039 32.0984C106.33 25.6888 109.793 12.7713 118.039 0V10.3543Z" fill="url(#paint15_radial_692_2130)"/>
<path d="M236.079 14.4961C229.778 20.0984 221 19.1979 205.392 15.1421C203.829 14.736 202.162 14.9601 200.773 15.7832L174.988 31.063L200.748 19.6141C202.158 18.9874 203.76 18.9353 205.22 19.4358C223.529 25.7159 231.342 24.7283 236.079 14.4961Z" fill="url(#paint16_radial_692_2130)"/>
<path d="M219.512 25.8858C213.369 27.5488 201.593 19.1752 192.576 24.2129C200.279 20.3448 211.151 34.7378 219.512 25.8858Z" fill="url(#paint17_radial_692_2130)"/>
<path d="M193.626 34.1693C195.604 32.9379 196.275 31.791 196.542 30.2054C196.765 28.8871 195.865 27.6374 194.565 27.3262C189.672 26.1551 186.419 27.3172 181.201 31.063C185.703 26.3362 189.254 25.2844 196.432 25.78C197.281 25.8387 198.06 26.2751 198.571 26.9564L199.912 28.7446C200.474 29.4943 200.448 30.5432 199.8 31.2205C197.636 33.4837 196.099 34.1156 193.626 34.1693Z" fill="url(#paint18_radial_692_2130)"/>
<path d="M174.988 28.9921C187.206 19.5072 182.948 18.6378 176.024 10.3543C179.45 8.93238 181.185 8.83857 183.272 12.4252C184.791 8.29387 186.3 6.42726 190.52 4.14173C192.226 8.52031 191.446 10.6991 189.484 14.4961C193.141 12.0347 195.331 11.3823 199.838 13.4606C189.774 17.727 190.786 18.8748 174.988 28.9921Z" fill="url(#paint19_radial_692_2130)"/>
<path d="M157.386 22.7441C157.386 22.1918 156.938 21.7441 156.386 21.7441H156.315C155.763 21.7441 155.315 22.1918 155.315 22.7441V25.9213C155.315 26.4735 155.763 26.9213 156.315 26.9213H161.598C162.703 26.9213 163.598 26.0258 163.598 24.9213V19.6024C163.598 18.4978 162.703 17.6024 161.598 17.6024H157.351C155.465 17.6024 153.603 18.023 151.901 18.8337V18.8337C150.782 19.3663 149.954 20.3629 149.635 21.5599L147.739 28.6695C146.872 31.9182 149.395 35.0788 152.755 34.9544L168.011 34.3894C171.301 34.2675 173.878 31.5169 173.786 28.2256L173.384 13.8426C173.293 10.5955 170.635 8.01038 167.386 8.01038H153.04C150.056 8.01038 147.189 9.21712 145.164 11.4088C134.272 23.194 126.982 33.3225 120.683 32.2299C120.393 32.1796 120.11 32.3916 120.11 32.686V32.686C120.11 32.9325 120.313 33.1318 120.559 33.1285C126.708 33.045 130.709 32.4313 148.426 13.254C149.542 12.0456 150.999 11.1983 152.605 10.8414L158.22 9.59364C159.035 9.41248 159.88 9.4035 160.698 9.56728L164.988 10.4251C167.792 10.986 169.811 13.4485 169.811 16.3086V27.0984C169.811 29.8599 167.572 32.0984 164.811 32.0984H155.173C152.964 32.0984 151.173 30.3076 151.173 28.0984V22.6378C151.173 20.4287 152.964 18.6378 155.173 18.6378H159.527C160.632 18.6378 161.527 19.5332 161.527 20.6378V24.8858C161.527 25.4381 161.08 25.8858 160.527 25.8858H158.386C157.833 25.8858 157.386 25.4381 157.386 24.8858V22.7441Z" fill="url(#paint20_radial_692_2130)"/>
<path d="M131.666 33.0631C139.604 29.9513 147.754 12.4066 157.386 13.4606C144.412 19.2326 143.16 31.4785 131.666 33.0631Z" fill="url(#paint21_radial_692_2130)"/>
<path d="M124.252 30.0276C129.594 21.6827 129.718 16.9143 125.287 8.28346C130.716 9.71409 138.453 19.5114 124.252 30.0276Z" fill="url(#paint22_radial_692_2130)"/>
<path d="M118.039 10.3543C122.976 14.0549 125.673 23.2793 118.039 32.0984C129.749 25.6888 126.286 12.7713 118.039 0V10.3543Z" fill="url(#paint23_radial_692_2130)"/>
<defs>
<radialGradient id="paint0_radial_692_2130" cx="0" cy="0" r="1" gradientUnits="userSpaceOnUse" gradientTransform="translate(79.7285 111.309) scale(38.311 20.1909)">
<stop stop-color="#E1E1E1"/>
<stop offset="1" stop-color="#FFF4DA"/>
</radialGradient>
<radialGradient id="paint1_radial_692_2130" cx="0" cy="0" r="1" gradientUnits="userSpaceOnUse" gradientTransform="translate(79.7285 111.309) scale(38.311 20.1909)">
<stop stop-color="#E1E1E1"/>
<stop offset="1" stop-color="#FFF4DA"/>
</radialGradient>
<radialGradient id="paint2_radial_692_2130" cx="0" cy="0" r="1" gradientUnits="userSpaceOnUse" gradientTransform="translate(79.7285 111.309) scale(38.311 20.1909)">
<stop stop-color="#E1E1E1"/>
<stop offset="1" stop-color="#FFF4DA"/>
</radialGradient>
<radialGradient id="paint3_radial_692_2130" cx="0" cy="0" r="1" gradientUnits="userSpaceOnUse" gradientTransform="translate(79.7285 111.309) scale(38.311 20.1909)">
<stop stop-color="#E1E1E1"/>
<stop offset="1" stop-color="#FFF4DA"/>
</radialGradient>
<radialGradient id="paint4_radial_692_2130" cx="0" cy="0" r="1" gradientUnits="userSpaceOnUse" gradientTransform="translate(156.351 111.309) rotate(180) scale(38.311 20.1909)">
<stop stop-color="#E1E1E1"/>
<stop offset="1" stop-color="#FFF4DA"/>
</radialGradient>
<radialGradient id="paint5_radial_692_2130" cx="0" cy="0" r="1" gradientUnits="userSpaceOnUse" gradientTransform="translate(156.351 111.309) rotate(180) scale(38.311 20.1909)">
<stop stop-color="#E1E1E1"/>
<stop offset="1" stop-color="#FFF4DA"/>
</radialGradient>
<radialGradient id="paint6_radial_692_2130" cx="0" cy="0" r="1" gradientUnits="userSpaceOnUse" gradientTransform="translate(156.351 111.309) rotate(180) scale(38.311 20.1909)">
<stop stop-color="#E1E1E1"/>
<stop offset="1" stop-color="#FFF4DA"/>
</radialGradient>
<radialGradient id="paint7_radial_692_2130" cx="0" cy="0" r="1" gradientUnits="userSpaceOnUse" gradientTransform="translate(156.351 111.309) rotate(180) scale(38.311 20.1909)">
<stop stop-color="#E1E1E1"/>
<stop offset="1" stop-color="#FFF4DA"/>
</radialGradient>
<radialGradient id="paint8_radial_692_2130" cx="0" cy="0" r="1" gradientUnits="userSpaceOnUse" gradientTransform="translate(59.0197 17.6024) scale(59.0197 17.6024)">
<stop stop-color="#E1E1E1"/>
<stop offset="1" stop-color="#FFF4DA"/>
</radialGradient>
<radialGradient id="paint9_radial_692_2130" cx="0" cy="0" r="1" gradientUnits="userSpaceOnUse" gradientTransform="translate(59.0197 17.6024) scale(59.0197 17.6024)">
<stop stop-color="#E1E1E1"/>
<stop offset="1" stop-color="#FFF4DA"/>
</radialGradient>
<radialGradient id="paint10_radial_692_2130" cx="0" cy="0" r="1" gradientUnits="userSpaceOnUse" gradientTransform="translate(59.0197 17.6024) scale(59.0197 17.6024)">
<stop stop-color="#E1E1E1"/>
<stop offset="1" stop-color="#FFF4DA"/>
</radialGradient>
<radialGradient id="paint11_radial_692_2130" cx="0" cy="0" r="1" gradientUnits="userSpaceOnUse" gradientTransform="translate(59.0197 17.6024) scale(59.0197 17.6024)">
<stop stop-color="#E1E1E1"/>
<stop offset="1" stop-color="#FFF4DA"/>
</radialGradient>
<radialGradient id="paint12_radial_692_2130" cx="0" cy="0" r="1" gradientUnits="userSpaceOnUse" gradientTransform="translate(59.0197 17.6024) scale(59.0197 17.6024)">
<stop stop-color="#E1E1E1"/>
<stop offset="1" stop-color="#FFF4DA"/>
</radialGradient>
<radialGradient id="paint13_radial_692_2130" cx="0" cy="0" r="1" gradientUnits="userSpaceOnUse" gradientTransform="translate(59.0197 17.6024) scale(59.0197 17.6024)">
<stop stop-color="#E1E1E1"/>
<stop offset="1" stop-color="#FFF4DA"/>
</radialGradient>
<radialGradient id="paint14_radial_692_2130" cx="0" cy="0" r="1" gradientUnits="userSpaceOnUse" gradientTransform="translate(59.0197 17.6024) scale(59.0197 17.6024)">
<stop stop-color="#E1E1E1"/>
<stop offset="1" stop-color="#FFF4DA"/>
</radialGradient>
<radialGradient id="paint15_radial_692_2130" cx="0" cy="0" r="1" gradientUnits="userSpaceOnUse" gradientTransform="translate(59.0197 17.6024) scale(59.0197 17.6024)">
<stop stop-color="#E1E1E1"/>
<stop offset="1" stop-color="#FFF4DA"/>
</radialGradient>
<radialGradient id="paint16_radial_692_2130" cx="0" cy="0" r="1" gradientUnits="userSpaceOnUse" gradientTransform="translate(177.059 17.6024) rotate(180) scale(59.0197 17.6024)">
<stop stop-color="#E1E1E1"/>
<stop offset="1" stop-color="#FFF4DA"/>
</radialGradient>
<radialGradient id="paint17_radial_692_2130" cx="0" cy="0" r="1" gradientUnits="userSpaceOnUse" gradientTransform="translate(177.059 17.6024) rotate(180) scale(59.0197 17.6024)">
<stop stop-color="#E1E1E1"/>
<stop offset="1" stop-color="#FFF4DA"/>
</radialGradient>
<radialGradient id="paint18_radial_692_2130" cx="0" cy="0" r="1" gradientUnits="userSpaceOnUse" gradientTransform="translate(177.059 17.6024) rotate(180) scale(59.0197 17.6024)">
<stop stop-color="#E1E1E1"/>
<stop offset="1" stop-color="#FFF4DA"/>
</radialGradient>
<radialGradient id="paint19_radial_692_2130" cx="0" cy="0" r="1" gradientUnits="userSpaceOnUse" gradientTransform="translate(177.059 17.6024) rotate(180) scale(59.0197 17.6024)">
<stop stop-color="#E1E1E1"/>
<stop offset="1" stop-color="#FFF4DA"/>
</radialGradient>
<radialGradient id="paint20_radial_692_2130" cx="0" cy="0" r="1" gradientUnits="userSpaceOnUse" gradientTransform="translate(177.059 17.6024) rotate(180) scale(59.0197 17.6024)">
<stop stop-color="#E1E1E1"/>
<stop offset="1" stop-color="#FFF4DA"/>
</radialGradient>
<radialGradient id="paint21_radial_692_2130" cx="0" cy="0" r="1" gradientUnits="userSpaceOnUse" gradientTransform="translate(177.059 17.6024) rotate(180) scale(59.0197 17.6024)">
<stop stop-color="#E1E1E1"/>
<stop offset="1" stop-color="#FFF4DA"/>
</radialGradient>
<radialGradient id="paint22_radial_692_2130" cx="0" cy="0" r="1" gradientUnits="userSpaceOnUse" gradientTransform="translate(177.059 17.6024) rotate(180) scale(59.0197 17.6024)">
<stop stop-color="#E1E1E1"/>
<stop offset="1" stop-color="#FFF4DA"/>
</radialGradient>
<radialGradient id="paint23_radial_692_2130" cx="0" cy="0" r="1" gradientUnits="userSpaceOnUse" gradientTransform="translate(177.059 17.6024) rotate(180) scale(59.0197 17.6024)">
<stop stop-color="#E1E1E1"/>
<stop offset="1" stop-color="#FFF4DA"/>
</radialGradient>
</defs>
</svg>
