<svg width="237" height="132" viewBox="0 0 237 132" fill="none" xmlns="http://www.w3.org/2000/svg">
<path d="M50.7125 108.06C49.3889 108.487 47.9214 108.504 46.7169 107.809C44.5794 106.575 44.1412 105.154 44.5234 102.508V102.508C42.8798 103.056 42.063 104.953 43.0339 106.388C43.9977 107.812 45.0937 108.974 46.6267 110.246C47.9171 111.316 49.5696 111.855 51.2458 111.812C56.4406 111.679 59.0349 110.851 62.1257 108.72C61.1051 110.641 61.1618 111.76 61.9885 113.6C62.0605 113.76 62.2568 113.822 62.4077 113.731C64.0825 112.73 65.0039 111.892 66.2674 109.756C66.2154 114.032 66.9843 113.977 70.4091 114.933C67.5194 110.86 68.0525 109.221 70.1981 106.254C70.9958 105.151 72.1259 104.331 73.4053 103.866L78.5776 101.985C81.3342 100.982 84.3487 100.942 87.1313 101.869L104.173 107.55C104.307 107.435 104.442 107.326 104.578 107.223V104.508C104.578 103.403 105.474 102.508 106.578 102.508H108.791C109.896 102.508 110.791 103.403 110.791 104.508V105.614H111.826V103.472C111.826 102.368 110.931 101.472 109.826 101.472H105.543C104.438 101.472 103.543 102.368 103.543 103.472V106.65C98.7736 103.748 93.5321 101.584 86.7257 99.7769C82.8456 98.747 78.7534 99.0145 74.9328 100.247L50.7125 108.06Z" fill="url(#paint0_radial_692_1794)"/>
<path fill-rule="evenodd" clip-rule="evenodd" d="M118.039 111.827V108.721C115.458 105.74 114.163 105.799 111.826 105.614H110.791C108.063 105.589 106.222 105.979 104.578 107.223V107.685L104.173 107.55C103.27 108.327 102.409 109.382 101.472 110.791C94.4225 108.167 92.2419 105.859 84.6304 104.117C82.7927 103.696 80.8379 103.854 79.1733 104.739C77.1406 105.82 75.7478 107.075 74.4004 109.235C73.7976 110.201 73.7049 111.42 74.2146 112.438C75.0495 114.107 76.2498 115.417 79.1376 117.128C80.1186 117.709 81.3505 117.62 82.2784 116.957L86.28 114.099C87.2184 113.429 87.4128 112.09 86.6211 111.251C84.8302 109.354 83.7227 109.09 81.7989 109.756C83.0242 110.067 83.7473 110.456 84.396 111.688C84.7596 112.378 84.5518 113.216 84 113.767L82.2754 115.492C81.3706 116.397 79.9663 116.664 78.9055 115.948C77.3915 114.927 76.4781 113.802 75.4876 112.283C74.8937 111.372 74.8539 110.185 75.48 109.296C77.188 106.871 79.0763 106.022 82.8343 105.614C87.5138 105.758 93.9734 109.592 101.472 112.862C101.61 115.305 101.827 117.608 105.43 119.531C106.15 119.915 107.027 119.733 107.604 119.156L110.252 116.508C110.55 116.21 110.55 115.727 110.252 115.429V115.429C109.971 115.149 109.521 115.134 109.21 115.381C104.882 118.812 103.349 117.017 102.508 112.862C108.784 113.743 111.6 112.063 112.862 106.65H114.933L118.039 111.827ZM102.508 111.827C105.324 107.593 107.416 106.549 111.826 106.65C109.581 111.782 107.623 113.001 102.508 111.827Z" fill="url(#paint1_radial_692_1794)"/>
<path d="M118.039 114.933V111.827C116.112 115.763 116.189 118.074 110.791 119.075C111.96 121.038 112.806 121.636 114.933 121.146C115.324 125.201 115.717 127.472 118.039 131.5V125.287C116.703 121.107 116.952 118.865 118.039 114.933Z" fill="url(#paint2_radial_692_1794)"/>
<path d="M115.968 98.3662C116.06 94.792 116.696 93.3936 118.039 91.1182V105.614C115.722 100.811 114.342 99.4138 111.826 99.4015C113.364 97.8121 114.276 97.3638 115.968 98.3662Z" fill="url(#paint3_radial_692_1794)"/>
<path d="M185.366 108.06C186.689 108.487 188.157 108.504 189.361 107.809C191.499 106.575 191.937 105.154 191.555 102.508V102.508C193.198 103.056 194.015 104.953 193.044 106.388C192.08 107.812 190.984 108.974 189.451 110.246C188.161 111.316 186.509 111.855 184.832 111.812C179.637 111.679 177.043 110.851 173.952 108.72C174.973 110.641 174.916 111.76 174.09 113.6C174.018 113.76 173.821 113.822 173.67 113.731C171.996 112.73 171.074 111.892 169.811 109.756C169.863 114.032 169.094 113.977 165.669 114.933C168.559 110.86 168.026 109.221 165.88 106.254C165.082 105.151 163.952 104.331 162.673 103.866L157.5 101.985C154.744 100.982 151.729 100.942 148.947 101.869L131.905 107.55C131.771 107.435 131.636 107.326 131.5 107.223V104.508C131.5 103.403 130.604 102.508 129.5 102.508H127.287C126.183 102.508 125.287 103.403 125.287 104.508V105.614H124.252V103.472C124.252 102.368 125.147 101.472 126.252 101.472H130.535C131.64 101.472 132.535 102.368 132.535 103.472V106.65C137.304 103.748 142.546 101.584 149.352 99.7769C153.232 98.747 157.325 99.0145 161.145 100.247L185.366 108.06Z" fill="url(#paint4_radial_692_1794)"/>
<path fill-rule="evenodd" clip-rule="evenodd" d="M118.039 111.827V108.721C120.62 105.74 121.915 105.799 124.252 105.614H125.287C128.015 105.589 129.856 105.979 131.5 107.223V107.685L131.905 107.55C132.808 108.327 133.669 109.382 134.606 110.791C141.656 108.167 143.836 105.859 151.448 104.117C153.285 103.696 155.24 103.854 156.905 104.739C158.938 105.82 160.33 107.075 161.678 109.235C162.281 110.201 162.373 111.42 161.863 112.438C161.029 114.107 159.828 115.417 156.941 117.128C155.96 117.709 154.728 117.62 153.8 116.957L149.798 114.099C148.86 113.429 148.665 112.09 149.457 111.251C151.248 109.354 152.355 109.09 154.279 109.756C153.054 110.067 152.331 110.456 151.682 111.688C151.319 112.378 151.526 113.216 152.078 113.767L153.803 115.492C154.708 116.397 156.112 116.664 157.173 115.948C158.687 114.927 159.6 113.802 160.591 112.283C161.184 111.372 161.224 110.185 160.598 109.296C158.89 106.871 157.002 106.022 153.244 105.614C148.564 105.758 142.105 109.592 134.606 112.862C134.468 115.305 134.251 117.608 130.648 119.531C129.928 119.915 129.051 119.733 128.474 119.156L125.826 116.508C125.528 116.21 125.528 115.727 125.826 115.429V115.429C126.107 115.149 126.557 115.134 126.868 115.381C131.196 118.812 132.729 117.017 133.571 112.862C127.294 113.743 124.478 112.063 123.216 106.65H121.145L118.039 111.827ZM133.571 111.827C130.754 107.593 128.662 106.549 124.252 106.65C126.497 111.782 128.455 113.001 133.571 111.827Z" fill="url(#paint5_radial_692_1794)"/>
<path d="M118.039 114.933V111.827C119.967 115.763 119.889 118.074 125.287 119.075C124.119 121.038 123.273 121.636 121.145 121.146C120.754 125.201 120.361 127.472 118.039 131.5V125.287C119.375 121.107 119.126 118.865 118.039 114.933Z" fill="url(#paint6_radial_692_1794)"/>
<path d="M120.11 98.3662C120.019 94.792 119.382 93.3936 118.039 91.1182V105.614C120.356 100.811 121.736 99.4138 124.252 99.4015C122.714 97.8121 121.802 97.3638 120.11 98.3662Z" fill="url(#paint7_radial_692_1794)"/>
<path d="M78.9414 70.3164L82.1641 53C82.4792 51.2096 82.6367 49.8919 82.6367 49.0469C82.6367 48.832 82.4648 48.6387 82.1211 48.4668C81.7773 48.2949 81.3906 48.1589 80.9609 48.0586C80.5312 47.944 80.1875 47.8867 79.9297 47.8867C79.8724 47.8867 79.8438 47.8151 79.8438 47.6719C79.8438 47.2708 79.9583 46.9557 80.1875 46.7266C80.4167 46.7409 80.8034 46.7695 81.3477 46.8125C81.9062 46.8555 82.5078 46.8984 83.1523 46.9414C83.7969 46.9701 84.3555 46.9844 84.8281 46.9844C85.5156 46.9844 86.3965 46.9414 87.4707 46.8555C88.5449 46.7695 89.1823 46.7266 89.3828 46.7266V46.8555C89.3828 47.543 89.2826 47.8867 89.082 47.8867C88.9388 47.8867 88.6882 47.944 88.3301 48.0586C87.972 48.1589 87.6283 48.2878 87.2988 48.4453C86.9694 48.5885 86.776 48.7318 86.7188 48.875C86.2461 49.9779 85.8737 51.3099 85.6016 52.8711L82.3789 70.0156C81.9779 72.1927 81.4121 74.1621 80.6816 75.9238C79.9512 77.6855 79.1777 79.1178 78.3613 80.2207C77.5592 81.2949 76.6855 82.2188 75.7402 82.9922C74.8092 83.737 73.9427 84.2598 73.1406 84.5605C72.3385 84.8613 71.5651 85.0117 70.8203 85.0117C70.6484 84.8112 70.5625 84.5534 70.5625 84.2383L70.6055 83.9805C72.181 83.4792 73.4844 82.6986 74.5156 81.6387C75.5469 80.5931 76.4062 79.1536 77.0938 77.3203C77.7956 75.487 78.4115 73.1523 78.9414 70.3164ZM93.0781 56.3086C93.5365 56.3086 93.8945 56.5163 94.1523 56.9316C94.4102 57.347 94.5391 57.8841 94.5391 58.543C94.5391 59.3021 94.4531 60.0612 94.2812 60.8203L92.7773 67.9102C92.5768 68.7839 92.4766 69.5573 92.4766 70.2305C92.4766 71.4622 92.7487 72.0781 93.293 72.0781C93.6081 72.0781 93.9948 71.8991 94.4531 71.541C94.9258 71.1829 95.4128 70.7246 95.9141 70.166C96.4297 69.6074 96.9095 69.0345 97.3535 68.4473C98.1699 67.373 98.9434 66.0625 99.6738 64.5156C100.404 62.9688 100.913 61.4362 101.199 59.918L101.93 56.5664C102.316 56.4518 102.76 56.3945 103.262 56.3945C103.749 56.3945 104.236 56.4518 104.723 56.5664L102.059 70.4453C101.973 70.7891 101.93 71.1471 101.93 71.5195C101.93 72.2357 102.073 72.5938 102.359 72.5938C102.717 72.5938 103.147 72.3431 103.648 71.8418C104.15 71.3262 104.579 70.8893 104.938 70.5312L105.195 70.2305C105.253 70.2305 105.36 70.3665 105.518 70.6387C105.675 70.9108 105.754 71.1042 105.754 71.2188C105.51 71.6341 105.066 72.1641 104.422 72.8086C103.792 73.4531 103.104 74.026 102.359 74.5273C101.615 75.0143 100.941 75.2578 100.34 75.2578C99.8815 75.2578 99.5234 75.0501 99.2656 74.6348C99.0078 74.2194 98.8789 73.6823 98.8789 73.0234C98.8789 72.5938 98.9792 71.8346 99.1797 70.7461L99.9531 66.793C99.681 67.3086 99.0938 68.1966 98.1914 69.457C97.6042 70.2734 96.8952 71.1328 96.0645 72.0352C95.248 72.9375 94.4316 73.7038 93.6152 74.334C92.7988 74.9499 92.1042 75.2578 91.5312 75.2578C90.099 75.2578 89.3828 74.3125 89.3828 72.4219C89.3828 71.0755 89.5833 69.5143 89.9844 67.7383L91.2734 61.7656C91.4167 60.7773 91.4883 60.2044 91.4883 60.0469C91.4883 59.3307 91.3451 58.9727 91.0586 58.9727C90.8151 58.9727 90.4499 59.2018 89.9629 59.6602C89.7337 59.8893 89.4831 60.14 89.2109 60.4121C88.9531 60.6842 88.7812 60.8776 88.6953 60.9922C88.638 60.9922 88.5306 60.8561 88.373 60.584C88.2155 60.3118 88.1367 60.1185 88.1367 60.0039C88.3659 59.6172 88.7812 59.1374 89.3828 58.5645C89.9844 57.9772 90.6289 57.4544 91.3164 56.9961C92.0039 56.5378 92.5911 56.3086 93.0781 56.3086ZM122.168 56.3086C122.941 56.3086 123.536 56.5378 123.951 56.9961C124.367 57.4544 124.617 57.9342 124.703 58.4355C124.789 58.9368 124.832 59.5885 124.832 60.3906C124.832 60.9206 124.632 62.1953 124.23 64.2148C124.703 63.3984 125.29 62.5319 125.992 61.6152C126.694 60.6986 127.432 59.8392 128.205 59.0371C128.979 58.235 129.723 57.5833 130.439 57.082C131.156 56.5664 131.764 56.3086 132.266 56.3086C133.211 56.3086 133.855 56.5449 134.199 57.0176C134.543 57.4902 134.715 58.1992 134.715 59.1445C134.715 60.4766 134.514 62.0378 134.113 63.8281L132.695 70.4453C132.609 70.7891 132.566 71.1471 132.566 71.5195C132.566 72.2357 132.71 72.5938 132.996 72.5938C133.354 72.5938 133.784 72.3431 134.285 71.8418C134.786 71.3262 135.216 70.8893 135.574 70.5312L135.832 70.2305C135.889 70.2305 135.997 70.3665 136.154 70.6387C136.312 70.9108 136.391 71.1042 136.391 71.2188C136.147 71.6341 135.703 72.1641 135.059 72.8086C134.428 73.4531 133.741 74.026 132.996 74.5273C132.251 75.0143 131.578 75.2578 130.977 75.2578C130.518 75.2578 130.16 75.0501 129.902 74.6348C129.645 74.2194 129.516 73.6823 129.516 73.0234C129.516 72.5938 129.616 71.8346 129.816 70.7461L131.32 63.6562C131.521 62.6823 131.621 61.9089 131.621 61.3359C131.621 60.8346 131.578 60.4049 131.492 60.0469C131.421 59.6745 131.191 59.4883 130.805 59.4883C130.318 59.4883 129.68 59.832 128.893 60.5195C128.119 61.207 127.317 62.1165 126.486 63.248C125.656 64.3652 124.911 65.597 124.252 66.9434C123.593 68.2754 123.142 69.6003 122.898 70.918L122.125 75H119.246L121.652 62.7969C121.767 62.1523 121.824 61.6081 121.824 61.1641C121.824 60.0469 121.538 59.4883 120.965 59.4883C120.464 59.4883 119.826 59.8678 119.053 60.627C118.279 61.3861 117.484 62.3672 116.668 63.5703C115.852 64.7734 115.121 66.0553 114.477 67.416C113.832 68.7624 113.388 70.0299 113.145 71.2188L112.371 75C111.569 75.1146 111.082 75.1719 110.91 75.1719C110.767 75.1719 110.294 75.1146 109.492 75L112.07 61.7656C112.214 60.7773 112.285 60.2044 112.285 60.0469C112.285 59.3307 112.142 58.9727 111.855 58.9727C111.612 58.9727 111.247 59.2018 110.76 59.6602C110.531 59.8893 110.28 60.14 110.008 60.4121C109.75 60.6842 109.578 60.8776 109.492 60.9922C109.435 60.9922 109.327 60.8561 109.17 60.584C109.012 60.3118 108.934 60.1185 108.934 60.0039C109.163 59.6172 109.578 59.1374 110.18 58.5645C110.781 57.9772 111.426 57.4544 112.113 56.9961C112.801 56.5378 113.388 56.3086 113.875 56.3086C114.333 56.3086 114.691 56.5163 114.949 56.9316C115.207 57.347 115.336 57.8841 115.336 58.543C115.336 59.1732 115.25 59.9323 115.078 60.8203L114.305 64.8164C114.835 63.8997 115.443 62.9473 116.131 61.959C116.833 60.9707 117.549 60.0469 118.279 59.1875C119.024 58.3281 119.733 57.6335 120.406 57.1035C121.079 56.5736 121.667 56.3086 122.168 56.3086ZM143.133 44.068C142.869 45.0947 142.532 46.2093 142.121 47.412C141.71 48.6147 141.256 49.8173 140.757 51.02C140.288 52.1933 139.818 53.308 139.349 54.364H136.489C136.694 53.5427 136.9 52.6627 137.105 51.724C137.34 50.7853 137.545 49.8467 137.721 48.908C137.926 47.94 138.102 47.0013 138.249 46.092C138.425 45.1827 138.572 44.3467 138.689 43.584H142.825L143.133 44.068ZM158.734 56.3086C159.794 56.3086 160.84 56.4948 161.871 56.8672L159.25 70.4453C159.164 70.7891 159.121 71.1471 159.121 71.5195C159.121 72.2357 159.264 72.5938 159.551 72.5938C159.909 72.5938 160.339 72.3431 160.84 71.8418C161.341 71.3262 161.771 70.8893 162.129 70.5312L162.387 70.2305C162.444 70.2305 162.551 70.3665 162.709 70.6387C162.867 70.9108 162.945 71.1042 162.945 71.2188C162.702 71.6341 162.258 72.1641 161.613 72.8086C160.983 73.4531 160.296 74.026 159.551 74.5273C158.806 75.0143 158.133 75.2578 157.531 75.2578C157.073 75.2578 156.715 75.0501 156.457 74.6348C156.199 74.2194 156.07 73.6823 156.07 73.0234C156.07 72.5794 156.171 71.8203 156.371 70.7461L156.521 69.9941C156.564 69.7936 156.586 69.6719 156.586 69.6289C156.357 70.0586 156.027 70.5885 155.598 71.2188C155.168 71.8346 154.674 72.4505 154.115 73.0664C153.557 73.6823 152.969 74.1979 152.354 74.6133C151.738 75.0143 151.129 75.2148 150.527 75.2148C149.267 75.2148 148.271 74.6491 147.541 73.5176C146.811 72.3861 146.445 71.0182 146.445 69.4141C146.445 67.3659 147.054 65.3249 148.271 63.291C149.088 61.916 150.062 60.7057 151.193 59.6602C152.339 58.6146 153.564 57.7982 154.867 57.2109C156.171 56.6094 157.46 56.3086 158.734 56.3086ZM156.93 58.2852C156.085 58.2852 155.232 58.5859 154.373 59.1875C153.514 59.7747 152.726 60.5697 152.01 61.5723C151.294 62.5605 150.714 63.6634 150.27 64.8809C149.84 66.084 149.625 67.2943 149.625 68.5117C149.625 71.319 150.355 72.7227 151.816 72.7227C152.332 72.7227 152.891 72.4362 153.492 71.8633C154.094 71.2904 154.688 70.5312 155.275 69.5859C155.863 68.6406 156.378 67.6165 156.822 66.5137C157.281 65.3965 157.617 64.3008 157.832 63.2266L158.691 58.8438C158.348 58.4714 157.76 58.2852 156.93 58.2852Z" fill="white"/>
<path d="M0 14.4961C6.30012 20.0984 15.0791 19.1979 30.687 15.1421C32.2497 14.736 33.9168 14.9601 35.3059 15.7832L61.0905 31.063L35.3304 19.6141C33.9205 18.9874 32.3183 18.9353 30.8588 19.4358C12.5496 25.7159 4.73674 24.7283 0 14.4961Z" fill="url(#paint8_radial_692_1794)"/>
<path d="M16.5669 25.8858C22.7094 27.5488 34.4861 19.1752 43.5027 24.2129C35.7991 20.3448 24.9274 34.7378 16.5669 25.8858Z" fill="url(#paint9_radial_692_1794)"/>
<path d="M42.4528 34.1693C40.4746 32.9379 39.8039 31.791 39.5364 30.2054C39.314 28.8871 40.2138 27.6374 41.514 27.3262C46.4064 26.1551 49.6595 27.3172 54.8779 31.063C50.3759 26.3362 46.8249 25.2844 39.6469 25.78C38.7972 25.8387 38.0191 26.2751 37.5081 26.9564L36.1669 28.7446C35.6047 29.4943 35.6307 30.5432 36.2784 31.2205C38.4425 33.4837 39.9798 34.1156 42.4528 34.1693Z" fill="url(#paint10_radial_692_1794)"/>
<path d="M61.0905 28.9921C48.8725 19.5072 53.131 18.6378 60.0551 10.3543C56.6285 8.93238 54.8937 8.83857 52.8071 12.4252C51.2879 8.29387 49.7783 6.42726 45.559 4.14173C43.8524 8.52031 44.6321 10.6991 46.5945 14.4961C42.9378 12.0347 40.7471 11.3823 36.2402 13.4606C46.3046 17.727 45.2926 18.8748 61.0905 28.9921Z" fill="url(#paint11_radial_692_1794)"/>
<path d="M78.6929 22.7441C78.6929 22.1918 79.1406 21.7441 79.6929 21.7441H79.7638C80.3161 21.7441 80.7638 22.1918 80.7638 22.7441V25.9213C80.7638 26.4735 80.3161 26.9213 79.7638 26.9213H74.4803C73.3757 26.9213 72.4803 26.0258 72.4803 24.9213V19.6024C72.4803 18.4978 73.3757 17.6024 74.4803 17.6024H78.7281C80.6137 17.6024 82.4755 18.023 84.178 18.8337V18.8337C85.2965 19.3663 86.1249 20.3629 86.4441 21.5599L88.3399 28.6695C89.2063 31.9182 86.6836 35.0788 83.3237 34.9544L68.0679 34.3894C64.7776 34.2675 62.2002 31.5169 62.2923 28.2256L62.6948 13.8426C62.7856 10.5955 65.4441 8.01038 68.6924 8.01038H83.0387C86.0229 8.01038 88.8896 9.21712 90.915 11.4088C101.807 23.194 109.097 33.3225 115.395 32.2299C115.685 32.1796 115.968 32.3916 115.968 32.686V32.686C115.968 32.9325 115.766 33.1318 115.519 33.1285C109.37 33.045 105.37 32.4313 87.653 13.254C86.5367 12.0456 85.0793 11.1983 83.4735 10.8414L77.8584 9.59364C77.0431 9.41248 76.199 9.4035 75.3801 9.56728L71.091 10.4251C68.2865 10.986 66.2677 13.4485 66.2677 16.3086V27.0984C66.2677 29.8599 68.5063 32.0984 71.2677 32.0984H80.9055C83.1146 32.0984 84.9055 30.3076 84.9055 28.0984V22.6378C84.9055 20.4287 83.1146 18.6378 80.9055 18.6378H76.5512C75.4466 18.6378 74.5512 19.5332 74.5512 20.6378V24.8858C74.5512 25.4381 74.9989 25.8858 75.5512 25.8858H77.6929C78.2452 25.8858 78.6929 25.4381 78.6929 24.8858V22.7441Z" fill="url(#paint12_radial_692_1794)"/>
<path d="M104.412 33.0631C96.4743 29.9513 88.3242 12.4066 78.6929 13.4606C91.6665 19.2326 92.9183 31.4785 104.412 33.0631Z" fill="url(#paint13_radial_692_1794)"/>
<path d="M111.827 30.0276C106.485 21.6827 106.361 16.9143 110.791 8.28346C105.363 9.71409 97.6256 19.5114 111.827 30.0276Z" fill="url(#paint14_radial_692_1794)"/>
<path d="M118.039 10.3543C113.102 14.0549 110.405 23.2793 118.039 32.0984C106.33 25.6888 109.793 12.7713 118.039 0V10.3543Z" fill="url(#paint15_radial_692_1794)"/>
<path d="M236.079 14.4961C229.778 20.0984 221 19.1979 205.392 15.1421C203.829 14.736 202.162 14.9601 200.773 15.7832L174.988 31.063L200.748 19.6141C202.158 18.9874 203.76 18.9353 205.22 19.4358C223.529 25.7159 231.342 24.7283 236.079 14.4961Z" fill="url(#paint16_radial_692_1794)"/>
<path d="M219.512 25.8858C213.369 27.5488 201.593 19.1752 192.576 24.2129C200.279 20.3448 211.151 34.7378 219.512 25.8858Z" fill="url(#paint17_radial_692_1794)"/>
<path d="M193.626 34.1693C195.604 32.9379 196.275 31.791 196.542 30.2054C196.765 28.8871 195.865 27.6374 194.565 27.3262C189.672 26.1551 186.419 27.3172 181.201 31.063C185.703 26.3362 189.254 25.2844 196.432 25.78C197.281 25.8387 198.06 26.2751 198.571 26.9564L199.912 28.7446C200.474 29.4943 200.448 30.5432 199.8 31.2205C197.636 33.4837 196.099 34.1156 193.626 34.1693Z" fill="url(#paint18_radial_692_1794)"/>
<path d="M174.988 28.9921C187.206 19.5072 182.948 18.6378 176.024 10.3543C179.45 8.93238 181.185 8.83857 183.272 12.4252C184.791 8.29387 186.3 6.42726 190.52 4.14173C192.226 8.52031 191.446 10.6991 189.484 14.4961C193.141 12.0347 195.331 11.3823 199.838 13.4606C189.774 17.727 190.786 18.8748 174.988 28.9921Z" fill="url(#paint19_radial_692_1794)"/>
<path d="M157.386 22.7441C157.386 22.1918 156.938 21.7441 156.386 21.7441H156.315C155.763 21.7441 155.315 22.1918 155.315 22.7441V25.9213C155.315 26.4735 155.763 26.9213 156.315 26.9213H161.598C162.703 26.9213 163.598 26.0258 163.598 24.9213V19.6024C163.598 18.4978 162.703 17.6024 161.598 17.6024H157.351C155.465 17.6024 153.603 18.023 151.901 18.8337V18.8337C150.782 19.3663 149.954 20.3629 149.635 21.5599L147.739 28.6695C146.872 31.9182 149.395 35.0788 152.755 34.9544L168.011 34.3894C171.301 34.2675 173.878 31.5169 173.786 28.2256L173.384 13.8426C173.293 10.5955 170.635 8.01038 167.386 8.01038H153.04C150.056 8.01038 147.189 9.21712 145.164 11.4088C134.272 23.194 126.982 33.3225 120.683 32.2299C120.393 32.1796 120.11 32.3916 120.11 32.686V32.686C120.11 32.9325 120.313 33.1318 120.559 33.1285C126.708 33.045 130.709 32.4313 148.426 13.254C149.542 12.0456 150.999 11.1983 152.605 10.8414L158.22 9.59364C159.035 9.41248 159.88 9.4035 160.698 9.56728L164.988 10.4251C167.792 10.986 169.811 13.4485 169.811 16.3086V27.0984C169.811 29.8599 167.572 32.0984 164.811 32.0984H155.173C152.964 32.0984 151.173 30.3076 151.173 28.0984V22.6378C151.173 20.4287 152.964 18.6378 155.173 18.6378H159.527C160.632 18.6378 161.527 19.5332 161.527 20.6378V24.8858C161.527 25.4381 161.08 25.8858 160.527 25.8858H158.386C157.833 25.8858 157.386 25.4381 157.386 24.8858V22.7441Z" fill="url(#paint20_radial_692_1794)"/>
<path d="M131.666 33.0631C139.604 29.9513 147.754 12.4066 157.386 13.4606C144.412 19.2326 143.16 31.4785 131.666 33.0631Z" fill="url(#paint21_radial_692_1794)"/>
<path d="M124.252 30.0276C129.594 21.6827 129.718 16.9143 125.287 8.28346C130.716 9.71409 138.453 19.5114 124.252 30.0276Z" fill="url(#paint22_radial_692_1794)"/>
<path d="M118.039 10.3543C122.976 14.0549 125.673 23.2793 118.039 32.0984C129.749 25.6888 126.286 12.7713 118.039 0V10.3543Z" fill="url(#paint23_radial_692_1794)"/>
<defs>
<radialGradient id="paint0_radial_692_1794" cx="0" cy="0" r="1" gradientUnits="userSpaceOnUse" gradientTransform="translate(79.728 111.309) scale(38.311 20.1909)">
<stop stop-color="#E1E1E1"/>
<stop offset="1" stop-color="#FFF4DA"/>
</radialGradient>
<radialGradient id="paint1_radial_692_1794" cx="0" cy="0" r="1" gradientUnits="userSpaceOnUse" gradientTransform="translate(79.728 111.309) scale(38.311 20.1909)">
<stop stop-color="#E1E1E1"/>
<stop offset="1" stop-color="#FFF4DA"/>
</radialGradient>
<radialGradient id="paint2_radial_692_1794" cx="0" cy="0" r="1" gradientUnits="userSpaceOnUse" gradientTransform="translate(79.728 111.309) scale(38.311 20.1909)">
<stop stop-color="#E1E1E1"/>
<stop offset="1" stop-color="#FFF4DA"/>
</radialGradient>
<radialGradient id="paint3_radial_692_1794" cx="0" cy="0" r="1" gradientUnits="userSpaceOnUse" gradientTransform="translate(79.728 111.309) scale(38.311 20.1909)">
<stop stop-color="#E1E1E1"/>
<stop offset="1" stop-color="#FFF4DA"/>
</radialGradient>
<radialGradient id="paint4_radial_692_1794" cx="0" cy="0" r="1" gradientUnits="userSpaceOnUse" gradientTransform="translate(156.35 111.309) rotate(180) scale(38.311 20.1909)">
<stop stop-color="#E1E1E1"/>
<stop offset="1" stop-color="#FFF4DA"/>
</radialGradient>
<radialGradient id="paint5_radial_692_1794" cx="0" cy="0" r="1" gradientUnits="userSpaceOnUse" gradientTransform="translate(156.35 111.309) rotate(180) scale(38.311 20.1909)">
<stop stop-color="#E1E1E1"/>
<stop offset="1" stop-color="#FFF4DA"/>
</radialGradient>
<radialGradient id="paint6_radial_692_1794" cx="0" cy="0" r="1" gradientUnits="userSpaceOnUse" gradientTransform="translate(156.35 111.309) rotate(180) scale(38.311 20.1909)">
<stop stop-color="#E1E1E1"/>
<stop offset="1" stop-color="#FFF4DA"/>
</radialGradient>
<radialGradient id="paint7_radial_692_1794" cx="0" cy="0" r="1" gradientUnits="userSpaceOnUse" gradientTransform="translate(156.35 111.309) rotate(180) scale(38.311 20.1909)">
<stop stop-color="#E1E1E1"/>
<stop offset="1" stop-color="#FFF4DA"/>
</radialGradient>
<radialGradient id="paint8_radial_692_1794" cx="0" cy="0" r="1" gradientUnits="userSpaceOnUse" gradientTransform="translate(59.0197 17.6024) scale(59.0197 17.6024)">
<stop stop-color="#E1E1E1"/>
<stop offset="1" stop-color="#FFF4DA"/>
</radialGradient>
<radialGradient id="paint9_radial_692_1794" cx="0" cy="0" r="1" gradientUnits="userSpaceOnUse" gradientTransform="translate(59.0197 17.6024) scale(59.0197 17.6024)">
<stop stop-color="#E1E1E1"/>
<stop offset="1" stop-color="#FFF4DA"/>
</radialGradient>
<radialGradient id="paint10_radial_692_1794" cx="0" cy="0" r="1" gradientUnits="userSpaceOnUse" gradientTransform="translate(59.0197 17.6024) scale(59.0197 17.6024)">
<stop stop-color="#E1E1E1"/>
<stop offset="1" stop-color="#FFF4DA"/>
</radialGradient>
<radialGradient id="paint11_radial_692_1794" cx="0" cy="0" r="1" gradientUnits="userSpaceOnUse" gradientTransform="translate(59.0197 17.6024) scale(59.0197 17.6024)">
<stop stop-color="#E1E1E1"/>
<stop offset="1" stop-color="#FFF4DA"/>
</radialGradient>
<radialGradient id="paint12_radial_692_1794" cx="0" cy="0" r="1" gradientUnits="userSpaceOnUse" gradientTransform="translate(59.0197 17.6024) scale(59.0197 17.6024)">
<stop stop-color="#E1E1E1"/>
<stop offset="1" stop-color="#FFF4DA"/>
</radialGradient>
<radialGradient id="paint13_radial_692_1794" cx="0" cy="0" r="1" gradientUnits="userSpaceOnUse" gradientTransform="translate(59.0197 17.6024) scale(59.0197 17.6024)">
<stop stop-color="#E1E1E1"/>
<stop offset="1" stop-color="#FFF4DA"/>
</radialGradient>
<radialGradient id="paint14_radial_692_1794" cx="0" cy="0" r="1" gradientUnits="userSpaceOnUse" gradientTransform="translate(59.0197 17.6024) scale(59.0197 17.6024)">
<stop stop-color="#E1E1E1"/>
<stop offset="1" stop-color="#FFF4DA"/>
</radialGradient>
<radialGradient id="paint15_radial_692_1794" cx="0" cy="0" r="1" gradientUnits="userSpaceOnUse" gradientTransform="translate(59.0197 17.6024) scale(59.0197 17.6024)">
<stop stop-color="#E1E1E1"/>
<stop offset="1" stop-color="#FFF4DA"/>
</radialGradient>
<radialGradient id="paint16_radial_692_1794" cx="0" cy="0" r="1" gradientUnits="userSpaceOnUse" gradientTransform="translate(177.059 17.6024) rotate(180) scale(59.0197 17.6024)">
<stop stop-color="#E1E1E1"/>
<stop offset="1" stop-color="#FFF4DA"/>
</radialGradient>
<radialGradient id="paint17_radial_692_1794" cx="0" cy="0" r="1" gradientUnits="userSpaceOnUse" gradientTransform="translate(177.059 17.6024) rotate(180) scale(59.0197 17.6024)">
<stop stop-color="#E1E1E1"/>
<stop offset="1" stop-color="#FFF4DA"/>
</radialGradient>
<radialGradient id="paint18_radial_692_1794" cx="0" cy="0" r="1" gradientUnits="userSpaceOnUse" gradientTransform="translate(177.059 17.6024) rotate(180) scale(59.0197 17.6024)">
<stop stop-color="#E1E1E1"/>
<stop offset="1" stop-color="#FFF4DA"/>
</radialGradient>
<radialGradient id="paint19_radial_692_1794" cx="0" cy="0" r="1" gradientUnits="userSpaceOnUse" gradientTransform="translate(177.059 17.6024) rotate(180) scale(59.0197 17.6024)">
<stop stop-color="#E1E1E1"/>
<stop offset="1" stop-color="#FFF4DA"/>
</radialGradient>
<radialGradient id="paint20_radial_692_1794" cx="0" cy="0" r="1" gradientUnits="userSpaceOnUse" gradientTransform="translate(177.059 17.6024) rotate(180) scale(59.0197 17.6024)">
<stop stop-color="#E1E1E1"/>
<stop offset="1" stop-color="#FFF4DA"/>
</radialGradient>
<radialGradient id="paint21_radial_692_1794" cx="0" cy="0" r="1" gradientUnits="userSpaceOnUse" gradientTransform="translate(177.059 17.6024) rotate(180) scale(59.0197 17.6024)">
<stop stop-color="#E1E1E1"/>
<stop offset="1" stop-color="#FFF4DA"/>
</radialGradient>
<radialGradient id="paint22_radial_692_1794" cx="0" cy="0" r="1" gradientUnits="userSpaceOnUse" gradientTransform="translate(177.059 17.6024) rotate(180) scale(59.0197 17.6024)">
<stop stop-color="#E1E1E1"/>
<stop offset="1" stop-color="#FFF4DA"/>
</radialGradient>
<radialGradient id="paint23_radial_692_1794" cx="0" cy="0" r="1" gradientUnits="userSpaceOnUse" gradientTransform="translate(177.059 17.6024) rotate(180) scale(59.0197 17.6024)">
<stop stop-color="#E1E1E1"/>
<stop offset="1" stop-color="#FFF4DA"/>
</radialGradient>
</defs>
</svg>
