<svg width="237" height="132" viewBox="0 0 237 132" fill="none" xmlns="http://www.w3.org/2000/svg">
<path d="M50.713 108.06C49.3894 108.487 47.9219 108.504 46.7174 107.809C44.5799 106.575 44.1417 105.154 44.5239 102.508V102.508C42.8803 103.056 42.0634 104.953 43.0344 106.388C43.9981 107.812 45.0942 108.974 46.6272 110.246C47.9176 111.316 49.57 111.855 51.2463 111.812C56.4411 111.679 59.0354 110.851 62.1261 108.72C61.1055 110.641 61.1623 111.76 61.9889 113.6C62.061 113.76 62.2573 113.822 62.4081 113.731C64.083 112.73 65.0044 111.892 66.2679 109.756C66.2159 114.032 66.9848 113.977 70.4096 114.933C67.5199 110.86 68.053 109.221 70.1985 106.254C70.9963 105.151 72.1264 104.331 73.4058 103.866L78.5781 101.985C81.3347 100.982 84.3491 100.942 87.1317 101.869L104.174 107.55C104.308 107.435 104.443 107.326 104.579 107.223V104.508C104.579 103.403 105.474 102.508 106.579 102.508H108.791C109.896 102.508 110.791 103.403 110.791 104.508V105.614H111.827V103.472C111.827 102.368 110.931 101.472 109.827 101.472H105.543C104.439 101.472 103.543 102.368 103.543 103.472V106.65C98.7741 103.748 93.5326 101.584 86.7262 99.7769C82.8461 98.747 78.7539 99.0145 74.9333 100.247L50.713 108.06Z" fill="url(#paint0_radial_692_2162)"/>
<path fill-rule="evenodd" clip-rule="evenodd" d="M118.04 111.827V108.721C115.458 105.74 114.164 105.799 111.827 105.614H110.791C108.063 105.589 106.223 105.979 104.579 107.223V107.685L104.174 107.55C103.27 108.327 102.41 109.382 101.473 110.791C94.423 108.167 92.2423 105.859 84.6309 104.117C82.7932 103.696 80.8384 103.854 79.1738 104.739C77.1411 105.82 75.7483 107.075 74.4009 109.235C73.7981 110.201 73.7054 111.42 74.2151 112.438C75.05 114.107 76.2503 115.417 79.1381 117.128C80.1191 117.709 81.351 117.62 82.2789 116.957L86.2804 114.099C87.2189 113.429 87.4133 112.09 86.6216 111.251C84.8307 109.354 83.7232 109.09 81.7994 109.756C83.0247 110.067 83.7478 110.456 84.3965 111.688C84.7601 112.378 84.5523 113.216 84.0005 113.767L82.2759 115.492C81.3711 116.397 79.9668 116.664 78.906 115.948C77.392 114.927 76.4786 113.802 75.488 112.283C74.8942 111.372 74.8544 110.185 75.4804 109.296C77.1885 106.871 79.0768 106.022 82.8348 105.614C87.5143 105.758 93.9739 109.592 101.473 112.862C101.611 115.305 101.827 117.608 105.431 119.531C106.15 119.915 107.027 119.733 107.604 119.156L110.252 116.508C110.55 116.21 110.55 115.727 110.252 115.429V115.429C109.972 115.149 109.522 115.134 109.211 115.381C104.883 118.812 103.35 117.017 102.508 112.862C108.785 113.743 111.601 112.063 112.862 106.65H114.933L118.04 111.827ZM102.508 111.827C105.324 107.593 107.417 106.549 111.827 106.65C109.582 111.782 107.624 113.001 102.508 111.827Z" fill="url(#paint1_radial_692_2162)"/>
<path d="M118.04 114.933V111.827C116.112 115.763 116.189 118.074 110.791 119.075C111.96 121.038 112.806 121.636 114.933 121.146C115.325 125.201 115.718 127.472 118.04 131.5V125.287C116.703 121.107 116.953 118.865 118.04 114.933Z" fill="url(#paint2_radial_692_2162)"/>
<path d="M115.969 98.3662C116.06 94.792 116.696 93.3936 118.04 91.1182V105.614C115.723 100.811 114.342 99.4138 111.827 99.4015C113.365 97.8121 114.277 97.3638 115.969 98.3662Z" fill="url(#paint3_radial_692_2162)"/>
<path d="M185.366 108.06C186.69 108.487 188.157 108.504 189.362 107.809C191.499 106.575 191.937 105.154 191.555 102.508V102.508C193.199 103.056 194.016 104.953 193.045 106.388C192.081 107.812 190.985 108.974 189.452 110.246C188.161 111.316 186.509 111.855 184.833 111.812C179.638 111.679 177.044 110.851 173.953 108.72C174.974 110.641 174.917 111.76 174.09 113.6C174.018 113.76 173.822 113.822 173.671 113.731C171.996 112.73 171.075 111.892 169.811 109.756C169.863 114.032 169.094 113.977 165.669 114.933C168.559 110.86 168.026 109.221 165.881 106.254C165.083 105.151 163.953 104.331 162.673 103.866L157.501 101.985C154.744 100.982 151.73 100.942 148.947 101.869L131.905 107.55C131.771 107.435 131.636 107.326 131.5 107.223V104.508C131.5 103.403 130.605 102.508 129.5 102.508H127.288C126.183 102.508 125.288 103.403 125.288 104.508V105.614H124.252V103.472C124.252 102.368 125.148 101.472 126.252 101.472H130.536C131.64 101.472 132.536 102.368 132.536 103.472V106.65C137.305 103.748 142.547 101.584 149.353 99.7769C153.233 98.747 157.325 99.0145 161.146 100.247L185.366 108.06Z" fill="url(#paint4_radial_692_2162)"/>
<path fill-rule="evenodd" clip-rule="evenodd" d="M118.04 111.827V108.721C120.621 105.74 121.915 105.799 124.252 105.614H125.288C128.016 105.589 129.856 105.979 131.5 107.223V107.685L131.905 107.55C132.809 108.327 133.669 109.382 134.607 110.791C141.656 108.167 143.837 105.859 151.448 104.117C153.286 103.696 155.241 103.854 156.905 104.739C158.938 105.82 160.331 107.075 161.678 109.235C162.281 110.201 162.374 111.42 161.864 112.438C161.029 114.107 159.829 115.417 156.941 117.128C155.96 117.709 154.728 117.62 153.8 116.957L149.799 114.099C148.86 113.429 148.666 112.09 149.457 111.251C151.248 109.354 152.356 109.09 154.28 109.756C153.054 110.067 152.331 110.456 151.683 111.688C151.319 112.378 151.527 113.216 152.079 113.767L153.803 115.492C154.708 116.397 156.112 116.664 157.173 115.948C158.687 114.927 159.601 113.802 160.591 112.283C161.185 111.372 161.225 110.185 160.599 109.296C158.891 106.871 157.002 106.022 153.244 105.614C148.565 105.758 142.105 109.592 134.607 112.862C134.468 115.305 134.252 117.608 130.648 119.531C129.929 119.915 129.052 119.733 128.475 119.156L125.827 116.508C125.529 116.21 125.529 115.727 125.827 115.429V115.429C126.107 115.149 126.557 115.134 126.868 115.381C131.196 118.812 132.729 117.017 133.571 112.862C127.294 113.743 124.479 112.063 123.217 106.65H121.146L118.04 111.827ZM133.571 111.827C130.755 107.593 128.662 106.549 124.252 106.65C126.497 111.782 128.455 113.001 133.571 111.827Z" fill="url(#paint5_radial_692_2162)"/>
<path d="M118.04 114.933V111.827C119.967 115.763 119.89 118.074 125.288 119.075C124.119 121.038 123.273 121.636 121.146 121.146C120.755 125.201 120.362 127.472 118.04 131.5V125.287C119.376 121.107 119.126 118.865 118.04 114.933Z" fill="url(#paint6_radial_692_2162)"/>
<path d="M120.11 98.3662C120.019 94.792 119.383 93.3936 118.04 91.1182V105.614C120.356 100.811 121.737 99.4138 124.252 99.4015C122.714 97.8121 121.802 97.3638 120.11 98.3662Z" fill="url(#paint7_radial_692_2162)"/>
<path d="M72.6875 52.8711L69.6367 69.0273C69.3216 70.5599 69.1641 71.849 69.1641 72.8945C69.1641 73.1237 69.3574 73.3314 69.7441 73.5176C70.1309 73.7038 70.5104 73.8255 70.8828 73.8828L71.4844 73.9688C71.5417 73.9688 71.5703 74.026 71.5703 74.1406C71.5703 74.4557 71.4844 74.7852 71.3125 75.1289C69.9948 75.0573 68.9635 75.0072 68.2188 74.9785C67.474 74.9355 67.0156 74.9141 66.8438 74.9141C66.8151 74.9141 66.4069 74.9355 65.6191 74.9785C64.8314 75.0072 63.6641 75.0573 62.1172 75.1289C62.0599 75.0716 62.0312 74.957 62.0312 74.7852C62.0312 74.2409 62.1315 73.9688 62.332 73.9688C62.5612 73.9688 62.8763 73.9258 63.2773 73.8398C63.6927 73.7539 64.0794 73.6393 64.4375 73.4961C64.7956 73.3529 65.0104 73.1953 65.082 73.0234C65.4974 72.0781 65.8698 70.7031 66.1992 68.8984L69.25 53C69.5651 51.4674 69.7227 50.1497 69.7227 49.0469C69.7227 48.832 69.5723 48.6387 69.2715 48.4668C68.985 48.2949 68.6484 48.1589 68.2617 48.0586C67.8893 47.944 67.5742 47.8867 67.3164 47.8867C67.2591 47.8867 67.2305 47.8151 67.2305 47.6719C67.2305 47.2708 67.3451 46.9557 67.5742 46.7266C67.8034 46.7409 68.1901 46.7695 68.7344 46.8125C69.293 46.8555 69.8945 46.8984 70.5391 46.9414C71.1836 46.9701 71.7422 46.9844 72.2148 46.9844C72.9023 46.9844 73.7832 46.9414 74.8574 46.8555C75.9316 46.7695 76.569 46.7266 76.7695 46.7266V46.8555C76.7695 47.543 76.6693 47.8867 76.4688 47.8867C76.3255 47.8867 76.0462 47.944 75.6309 48.0586C75.2298 48.1589 74.8359 48.2878 74.4492 48.4453C74.0768 48.5885 73.862 48.7318 73.8047 48.875C73.418 49.7201 73.0456 51.0521 72.6875 52.8711ZM71.1836 60.9922C72.0716 60.4479 73.1673 59.6029 74.4707 58.457C75.7741 57.3112 77.1562 56.0078 78.6172 54.5469C80.0924 53.0859 81.4961 51.625 82.8281 50.1641C82.9714 50.0208 83.222 49.7487 83.5801 49.3477C83.9382 48.9323 84.1172 48.6315 84.1172 48.4453C84.1172 48.1875 83.8665 48.0013 83.3652 47.8867C82.8639 47.7721 82.4271 47.7148 82.0547 47.7148C81.9688 47.7148 81.9258 47.6289 81.9258 47.457C81.9258 47.1992 81.9974 46.9557 82.1406 46.7266C82.4844 46.7552 82.9355 46.791 83.4941 46.834C84.0527 46.877 84.597 46.9128 85.127 46.9414C85.6712 46.9701 86.0794 46.9844 86.3516 46.9844C87.0534 46.9844 87.9486 46.9414 89.0371 46.8555C90.14 46.7695 90.7773 46.7266 90.9492 46.7266C90.9492 47.3854 90.8633 47.7148 90.6914 47.7148C88.6719 47.9583 87.1536 48.5885 86.1367 49.6055L75.6523 60.0898C75.5091 60.2331 75.4375 60.4049 75.4375 60.6055C75.4375 60.8203 75.5234 61.0495 75.6953 61.293L84.4609 71.9062C84.7904 72.3073 85.2559 72.651 85.8574 72.9375C86.4733 73.2096 87.082 73.4245 87.6836 73.582C88.2852 73.7253 88.7148 73.7969 88.9727 73.7969C89.0299 73.7969 89.0586 73.8828 89.0586 74.0547C89.0586 74.3841 88.987 74.6849 88.8438 74.957C87.3828 75.043 86.3086 75.0859 85.6211 75.0859C84.7331 75.0859 83.8809 74.9427 83.0645 74.6562C82.4199 74.4128 81.9043 74.1621 81.5176 73.9043C81.1452 73.6465 80.8516 73.3815 80.6367 73.1094C77.7865 69.4857 75.5736 66.6641 73.998 64.6445C72.4225 62.625 71.4844 61.4076 71.1836 60.9922ZM103.668 56.3086C104.728 56.3086 105.773 56.4948 106.805 56.8672L104.184 70.4453C104.098 70.7891 104.055 71.1471 104.055 71.5195C104.055 72.2357 104.198 72.5938 104.484 72.5938C104.842 72.5938 105.272 72.3431 105.773 71.8418C106.275 71.3262 106.704 70.8893 107.062 70.5312L107.32 70.2305C107.378 70.2305 107.485 70.3665 107.643 70.6387C107.8 70.9108 107.879 71.1042 107.879 71.2188C107.635 71.6341 107.191 72.1641 106.547 72.8086C105.917 73.4531 105.229 74.026 104.484 74.5273C103.74 75.0143 103.066 75.2578 102.465 75.2578C102.007 75.2578 101.648 75.0501 101.391 74.6348C101.133 74.2194 101.004 73.6823 101.004 73.0234C101.004 72.5794 101.104 71.8203 101.305 70.7461L101.455 69.9941C101.498 69.7936 101.52 69.6719 101.52 69.6289C101.29 70.0586 100.961 70.5885 100.531 71.2188C100.102 71.8346 99.6074 72.4505 99.0488 73.0664C98.4902 73.6823 97.903 74.1979 97.2871 74.6133C96.6712 75.0143 96.0625 75.2148 95.4609 75.2148C94.2005 75.2148 93.2051 74.6491 92.4746 73.5176C91.7441 72.3861 91.3789 71.0182 91.3789 69.4141C91.3789 67.3659 91.9876 65.3249 93.2051 63.291C94.0215 61.916 94.9954 60.7057 96.127 59.6602C97.2728 58.6146 98.4974 57.7982 99.8008 57.2109C101.104 56.6094 102.393 56.3086 103.668 56.3086ZM101.863 58.2852C101.018 58.2852 100.166 58.5859 99.3066 59.1875C98.4473 59.7747 97.6595 60.5697 96.9434 61.5723C96.2272 62.5605 95.6471 63.6634 95.2031 64.8809C94.7734 66.084 94.5586 67.2943 94.5586 68.5117C94.5586 71.319 95.2891 72.7227 96.75 72.7227C97.2656 72.7227 97.8242 72.4362 98.4258 71.8633C99.0273 71.2904 99.6217 70.5312 100.209 69.5859C100.796 68.6406 101.312 67.6165 101.756 66.5137C102.214 65.3965 102.551 64.3008 102.766 63.2266L103.625 58.8438C103.281 58.4714 102.694 58.2852 101.863 58.2852ZM115.828 56.3086C116.286 56.3086 116.645 56.5163 116.902 56.9316C117.16 57.347 117.289 57.8841 117.289 58.543C117.289 59.1302 117.203 59.8893 117.031 60.8203L115.742 67.3945C115.513 68.7266 115.398 69.6289 115.398 70.1016C115.398 70.9036 115.527 71.4766 115.785 71.8203C116.043 72.1641 116.501 72.3359 117.16 72.3359C117.69 72.3359 118.277 72.0924 118.922 71.6055C119.566 71.1185 120.211 70.474 120.855 69.6719C121.5 68.8698 122.087 67.9961 122.617 67.0508C123.161 66.0911 123.598 65.1458 123.928 64.2148C124.257 63.2839 124.422 62.4531 124.422 61.7227C124.422 61.1354 124.214 60.4909 123.799 59.7891C123.383 59.0872 123.176 58.5716 123.176 58.2422C123.176 57.7266 123.348 57.2754 123.691 56.8887C124.035 56.502 124.451 56.3086 124.938 56.3086C125.496 56.3086 125.954 56.4232 126.312 56.6523C126.714 57.3971 126.914 58.2279 126.914 59.1445C126.914 61.5221 126.219 63.9857 124.83 66.5352C123.913 68.2253 122.889 69.7077 121.758 70.9824C120.641 72.2572 119.531 73.2454 118.428 73.9473C117.339 74.6491 116.372 75 115.527 75C114.553 75 113.78 74.6491 113.207 73.9473C112.634 73.2454 112.348 72.3359 112.348 71.2188C112.348 70.4453 112.405 69.8151 112.52 69.3281L113.98 61.7656C114.152 61.1641 114.238 60.5911 114.238 60.0469C114.238 59.3307 114.095 58.9727 113.809 58.9727C113.637 58.9727 113.408 59.0872 113.121 59.3164C112.835 59.5456 112.548 59.8034 112.262 60.0898C111.99 60.362 111.789 60.5768 111.66 60.7344L111.445 60.9922C111.388 60.9922 111.281 60.8561 111.123 60.584C110.965 60.3118 110.887 60.1185 110.887 60.0039C111.116 59.6172 111.531 59.1374 112.133 58.5645C112.734 57.9772 113.379 57.4544 114.066 56.9961C114.754 56.5378 115.341 56.3086 115.828 56.3086ZM136.582 56.1797C138.215 56.1797 139.504 56.724 140.449 57.8125C140.592 58.1419 140.664 58.4427 140.664 58.7148C140.664 59.2305 140.528 59.6745 140.256 60.0469C139.984 60.4193 139.633 60.6055 139.203 60.6055C138.816 60.6055 138.458 60.3978 138.129 59.9824C137.814 59.5671 137.42 59.1445 136.947 58.7148C136.475 58.2852 135.852 58.0703 135.078 58.0703C134.477 58.0703 134.004 58.2708 133.66 58.6719C133.316 59.0729 133.145 59.5312 133.145 60.0469C133.145 60.7917 133.424 61.5866 133.982 62.4316C134.541 63.2767 135.15 64.0286 135.809 64.6875C136.467 65.3464 137.076 66.1484 137.635 67.0938C138.193 68.0391 138.473 68.9987 138.473 69.9727C138.473 71.5482 137.9 72.8229 136.754 73.7969C135.608 74.7708 134.133 75.2578 132.328 75.2578C130.695 75.2578 129.406 74.7135 128.461 73.625C128.318 73.3958 128.246 73.1237 128.246 72.8086C128.246 72.293 128.382 71.8346 128.654 71.4336C128.926 71.0326 129.277 70.832 129.707 70.832C130.094 70.832 130.452 71.0397 130.781 71.4551C131.096 71.8704 131.49 72.293 131.963 72.7227C132.436 73.1523 133.059 73.3672 133.832 73.3672C134.462 73.3672 134.971 73.1595 135.357 72.7441C135.744 72.3288 135.938 71.8776 135.938 71.3906C135.938 70.6458 135.658 69.8509 135.1 69.0059C134.541 68.1608 133.932 67.4089 133.273 66.75C132.615 66.0911 132.006 65.2891 131.447 64.3438C130.889 63.3984 130.609 62.4388 130.609 61.4648C130.609 60.6628 130.874 59.8535 131.404 59.0371C131.934 58.2207 132.65 57.5404 133.553 56.9961C134.455 56.4518 135.465 56.1797 136.582 56.1797ZM154.199 56.3086C155.259 56.3086 156.305 56.4948 157.336 56.8672L154.715 70.4453C154.629 70.7891 154.586 71.1471 154.586 71.5195C154.586 72.2357 154.729 72.5938 155.016 72.5938C155.374 72.5938 155.803 72.3431 156.305 71.8418C156.806 71.3262 157.236 70.8893 157.594 70.5312L157.852 70.2305C157.909 70.2305 158.016 70.3665 158.174 70.6387C158.331 70.9108 158.41 71.1042 158.41 71.2188C158.167 71.6341 157.723 72.1641 157.078 72.8086C156.448 73.4531 155.76 74.026 155.016 74.5273C154.271 75.0143 153.598 75.2578 152.996 75.2578C152.538 75.2578 152.18 75.0501 151.922 74.6348C151.664 74.2194 151.535 73.6823 151.535 73.0234C151.535 72.5794 151.635 71.8203 151.836 70.7461L151.986 69.9941C152.029 69.7936 152.051 69.6719 152.051 69.6289C151.822 70.0586 151.492 70.5885 151.062 71.2188C150.633 71.8346 150.139 72.4505 149.58 73.0664C149.021 73.6823 148.434 74.1979 147.818 74.6133C147.202 75.0143 146.594 75.2148 145.992 75.2148C144.732 75.2148 143.736 74.6491 143.006 73.5176C142.275 72.3861 141.91 71.0182 141.91 69.4141C141.91 67.3659 142.519 65.3249 143.736 63.291C144.553 61.916 145.527 60.7057 146.658 59.6602C147.804 58.6146 149.029 57.7982 150.332 57.2109C151.635 56.6094 152.924 56.3086 154.199 56.3086ZM152.395 58.2852C151.549 58.2852 150.697 58.5859 149.838 59.1875C148.979 59.7747 148.191 60.5697 147.475 61.5723C146.758 62.5605 146.178 63.6634 145.734 64.8809C145.305 66.084 145.09 67.2943 145.09 68.5117C145.09 71.319 145.82 72.7227 147.281 72.7227C147.797 72.7227 148.355 72.4362 148.957 71.8633C149.559 71.2904 150.153 70.5312 150.74 69.5859C151.327 68.6406 151.843 67.6165 152.287 66.5137C152.745 65.3965 153.082 64.3008 153.297 63.2266L154.156 58.8438C153.812 58.4714 153.225 58.2852 152.395 58.2852ZM166.918 56.3086C167.376 56.3086 167.734 56.5163 167.992 56.9316C168.25 57.347 168.379 57.8841 168.379 58.543C168.379 59.1732 168.293 59.9323 168.121 60.8203L167.434 64.4297C167.792 63.5846 168.25 62.6966 168.809 61.7656C169.382 60.8203 169.99 59.9323 170.635 59.1016C171.279 58.2708 171.917 57.5977 172.547 57.082C173.177 56.5664 173.736 56.3086 174.223 56.3086C175.197 56.3086 175.984 56.7669 176.586 57.6836C176.586 59.6029 176.056 60.5625 174.996 60.5625C174.767 60.5625 174.495 60.3835 174.18 60.0254C173.865 59.6673 173.535 59.4883 173.191 59.4883C172.776 59.4883 172.232 59.832 171.559 60.5195C170.885 61.207 170.191 62.1094 169.475 63.2266C168.758 64.3294 168.114 65.5254 167.541 66.8145C166.968 68.0892 166.574 69.3138 166.359 70.4883L165.543 75C165.056 75.0859 164.583 75.1289 164.125 75.1289C163.581 75.1289 163.051 75.0859 162.535 75L165.113 61.7656C165.257 60.7773 165.328 60.2044 165.328 60.0469C165.328 59.3307 165.185 58.9727 164.898 58.9727C164.655 58.9727 164.29 59.2018 163.803 59.6602C163.574 59.8893 163.323 60.14 163.051 60.4121C162.793 60.6842 162.621 60.8776 162.535 60.9922C162.478 60.9922 162.37 60.8561 162.213 60.584C162.055 60.3118 161.977 60.1185 161.977 60.0039C162.206 59.6172 162.621 59.1374 163.223 58.5645C163.824 57.9772 164.469 57.4544 165.156 56.9961C165.844 56.5378 166.431 56.3086 166.918 56.3086Z" fill="white"/>
<path d="M0 14.4961C6.30012 20.0984 15.0791 19.1979 30.687 15.1421C32.2497 14.736 33.9168 14.9601 35.3059 15.7832L61.0905 31.063L35.3304 19.6141C33.9205 18.9874 32.3183 18.9353 30.8588 19.4358C12.5496 25.7159 4.73674 24.7283 0 14.4961Z" fill="url(#paint8_radial_692_2162)"/>
<path d="M16.5669 25.8858C22.7094 27.5488 34.4861 19.1752 43.5027 24.2129C35.7991 20.3448 24.9274 34.7378 16.5669 25.8858Z" fill="url(#paint9_radial_692_2162)"/>
<path d="M42.4528 34.1693C40.4746 32.9379 39.8039 31.791 39.5364 30.2054C39.314 28.8871 40.2138 27.6374 41.514 27.3262C46.4064 26.1551 49.6595 27.3172 54.8779 31.063C50.3759 26.3362 46.8249 25.2844 39.6469 25.78C38.7972 25.8387 38.0191 26.2751 37.5081 26.9564L36.1669 28.7446C35.6047 29.4943 35.6307 30.5432 36.2784 31.2205C38.4425 33.4837 39.9798 34.1156 42.4528 34.1693Z" fill="url(#paint10_radial_692_2162)"/>
<path d="M61.0905 28.9921C48.8725 19.5072 53.131 18.6378 60.0551 10.3543C56.6285 8.93238 54.8937 8.83857 52.8071 12.4252C51.2879 8.29387 49.7783 6.42726 45.559 4.14173C43.8524 8.52031 44.6321 10.6991 46.5945 14.4961C42.9378 12.0347 40.7471 11.3823 36.2402 13.4606C46.3046 17.727 45.2926 18.8748 61.0905 28.9921Z" fill="url(#paint11_radial_692_2162)"/>
<path d="M78.6929 22.7441C78.6929 22.1918 79.1406 21.7441 79.6929 21.7441H79.7638C80.3161 21.7441 80.7638 22.1918 80.7638 22.7441V25.9213C80.7638 26.4735 80.3161 26.9213 79.7638 26.9213H74.4803C73.3757 26.9213 72.4803 26.0258 72.4803 24.9213V19.6024C72.4803 18.4978 73.3757 17.6024 74.4803 17.6024H78.7281C80.6137 17.6024 82.4755 18.023 84.178 18.8337V18.8337C85.2965 19.3663 86.1249 20.3629 86.4441 21.5599L88.3399 28.6695C89.2063 31.9182 86.6836 35.0788 83.3237 34.9544L68.0679 34.3894C64.7776 34.2675 62.2002 31.5169 62.2923 28.2256L62.6948 13.8426C62.7856 10.5955 65.4441 8.01038 68.6924 8.01038H83.0387C86.0229 8.01038 88.8896 9.21712 90.915 11.4088C101.807 23.194 109.097 33.3225 115.395 32.2299C115.685 32.1796 115.968 32.3916 115.968 32.686V32.686C115.968 32.9325 115.766 33.1318 115.519 33.1285C109.37 33.045 105.37 32.4313 87.653 13.254C86.5367 12.0456 85.0793 11.1983 83.4735 10.8414L77.8584 9.59364C77.0431 9.41248 76.199 9.4035 75.3801 9.56728L71.091 10.4251C68.2865 10.986 66.2677 13.4485 66.2677 16.3086V27.0984C66.2677 29.8599 68.5063 32.0984 71.2677 32.0984H80.9055C83.1146 32.0984 84.9055 30.3076 84.9055 28.0984V22.6378C84.9055 20.4287 83.1146 18.6378 80.9055 18.6378H76.5512C75.4466 18.6378 74.5512 19.5332 74.5512 20.6378V24.8858C74.5512 25.4381 74.9989 25.8858 75.5512 25.8858H77.6929C78.2452 25.8858 78.6929 25.4381 78.6929 24.8858V22.7441Z" fill="url(#paint12_radial_692_2162)"/>
<path d="M104.412 33.0631C96.4743 29.9513 88.3242 12.4066 78.6929 13.4606C91.6665 19.2326 92.9183 31.4785 104.412 33.0631Z" fill="url(#paint13_radial_692_2162)"/>
<path d="M111.827 30.0276C106.485 21.6827 106.361 16.9143 110.791 8.28346C105.363 9.71409 97.6256 19.5114 111.827 30.0276Z" fill="url(#paint14_radial_692_2162)"/>
<path d="M118.039 10.3543C113.102 14.0549 110.405 23.2793 118.039 32.0984C106.33 25.6888 109.793 12.7713 118.039 0V10.3543Z" fill="url(#paint15_radial_692_2162)"/>
<path d="M236.079 14.4961C229.778 20.0984 221 19.1979 205.392 15.1421C203.829 14.736 202.162 14.9601 200.773 15.7832L174.988 31.063L200.748 19.6141C202.158 18.9874 203.76 18.9353 205.22 19.4358C223.529 25.7159 231.342 24.7283 236.079 14.4961Z" fill="url(#paint16_radial_692_2162)"/>
<path d="M219.512 25.8858C213.369 27.5488 201.593 19.1752 192.576 24.2129C200.279 20.3448 211.151 34.7378 219.512 25.8858Z" fill="url(#paint17_radial_692_2162)"/>
<path d="M193.626 34.1693C195.604 32.9379 196.275 31.791 196.542 30.2054C196.765 28.8871 195.865 27.6374 194.565 27.3262C189.672 26.1551 186.419 27.3172 181.201 31.063C185.703 26.3362 189.254 25.2844 196.432 25.78C197.281 25.8387 198.06 26.2751 198.571 26.9564L199.912 28.7446C200.474 29.4943 200.448 30.5432 199.8 31.2205C197.636 33.4837 196.099 34.1156 193.626 34.1693Z" fill="url(#paint18_radial_692_2162)"/>
<path d="M174.988 28.9921C187.206 19.5072 182.948 18.6378 176.024 10.3543C179.45 8.93238 181.185 8.83857 183.272 12.4252C184.791 8.29387 186.3 6.42726 190.52 4.14173C192.226 8.52031 191.446 10.6991 189.484 14.4961C193.141 12.0347 195.331 11.3823 199.838 13.4606C189.774 17.727 190.786 18.8748 174.988 28.9921Z" fill="url(#paint19_radial_692_2162)"/>
<path d="M157.386 22.7441C157.386 22.1918 156.938 21.7441 156.386 21.7441H156.315C155.763 21.7441 155.315 22.1918 155.315 22.7441V25.9213C155.315 26.4735 155.763 26.9213 156.315 26.9213H161.598C162.703 26.9213 163.598 26.0258 163.598 24.9213V19.6024C163.598 18.4978 162.703 17.6024 161.598 17.6024H157.351C155.465 17.6024 153.603 18.023 151.901 18.8337V18.8337C150.782 19.3663 149.954 20.3629 149.635 21.5599L147.739 28.6695C146.872 31.9182 149.395 35.0788 152.755 34.9544L168.011 34.3894C171.301 34.2675 173.878 31.5169 173.786 28.2256L173.384 13.8426C173.293 10.5955 170.635 8.01038 167.386 8.01038H153.04C150.056 8.01038 147.189 9.21712 145.164 11.4088C134.272 23.194 126.982 33.3225 120.683 32.2299C120.393 32.1796 120.11 32.3916 120.11 32.686V32.686C120.11 32.9325 120.313 33.1318 120.559 33.1285C126.708 33.045 130.709 32.4313 148.426 13.254C149.542 12.0456 150.999 11.1983 152.605 10.8414L158.22 9.59364C159.035 9.41248 159.88 9.4035 160.698 9.56728L164.988 10.4251C167.792 10.986 169.811 13.4485 169.811 16.3086V27.0984C169.811 29.8599 167.572 32.0984 164.811 32.0984H155.173C152.964 32.0984 151.173 30.3076 151.173 28.0984V22.6378C151.173 20.4287 152.964 18.6378 155.173 18.6378H159.527C160.632 18.6378 161.527 19.5332 161.527 20.6378V24.8858C161.527 25.4381 161.08 25.8858 160.527 25.8858H158.386C157.833 25.8858 157.386 25.4381 157.386 24.8858V22.7441Z" fill="url(#paint20_radial_692_2162)"/>
<path d="M131.666 33.0631C139.604 29.9513 147.754 12.4066 157.386 13.4606C144.412 19.2326 143.16 31.4785 131.666 33.0631Z" fill="url(#paint21_radial_692_2162)"/>
<path d="M124.252 30.0276C129.594 21.6827 129.718 16.9143 125.287 8.28346C130.716 9.71409 138.453 19.5114 124.252 30.0276Z" fill="url(#paint22_radial_692_2162)"/>
<path d="M118.039 10.3543C122.976 14.0549 125.673 23.2793 118.039 32.0984C129.749 25.6888 126.286 12.7713 118.039 0V10.3543Z" fill="url(#paint23_radial_692_2162)"/>
<defs>
<radialGradient id="paint0_radial_692_2162" cx="0" cy="0" r="1" gradientUnits="userSpaceOnUse" gradientTransform="translate(79.7285 111.309) scale(38.311 20.1909)">
<stop stop-color="#E1E1E1"/>
<stop offset="1" stop-color="#FFF4DA"/>
</radialGradient>
<radialGradient id="paint1_radial_692_2162" cx="0" cy="0" r="1" gradientUnits="userSpaceOnUse" gradientTransform="translate(79.7285 111.309) scale(38.311 20.1909)">
<stop stop-color="#E1E1E1"/>
<stop offset="1" stop-color="#FFF4DA"/>
</radialGradient>
<radialGradient id="paint2_radial_692_2162" cx="0" cy="0" r="1" gradientUnits="userSpaceOnUse" gradientTransform="translate(79.7285 111.309) scale(38.311 20.1909)">
<stop stop-color="#E1E1E1"/>
<stop offset="1" stop-color="#FFF4DA"/>
</radialGradient>
<radialGradient id="paint3_radial_692_2162" cx="0" cy="0" r="1" gradientUnits="userSpaceOnUse" gradientTransform="translate(79.7285 111.309) scale(38.311 20.1909)">
<stop stop-color="#E1E1E1"/>
<stop offset="1" stop-color="#FFF4DA"/>
</radialGradient>
<radialGradient id="paint4_radial_692_2162" cx="0" cy="0" r="1" gradientUnits="userSpaceOnUse" gradientTransform="translate(156.351 111.309) rotate(180) scale(38.311 20.1909)">
<stop stop-color="#E1E1E1"/>
<stop offset="1" stop-color="#FFF4DA"/>
</radialGradient>
<radialGradient id="paint5_radial_692_2162" cx="0" cy="0" r="1" gradientUnits="userSpaceOnUse" gradientTransform="translate(156.351 111.309) rotate(180) scale(38.311 20.1909)">
<stop stop-color="#E1E1E1"/>
<stop offset="1" stop-color="#FFF4DA"/>
</radialGradient>
<radialGradient id="paint6_radial_692_2162" cx="0" cy="0" r="1" gradientUnits="userSpaceOnUse" gradientTransform="translate(156.351 111.309) rotate(180) scale(38.311 20.1909)">
<stop stop-color="#E1E1E1"/>
<stop offset="1" stop-color="#FFF4DA"/>
</radialGradient>
<radialGradient id="paint7_radial_692_2162" cx="0" cy="0" r="1" gradientUnits="userSpaceOnUse" gradientTransform="translate(156.351 111.309) rotate(180) scale(38.311 20.1909)">
<stop stop-color="#E1E1E1"/>
<stop offset="1" stop-color="#FFF4DA"/>
</radialGradient>
<radialGradient id="paint8_radial_692_2162" cx="0" cy="0" r="1" gradientUnits="userSpaceOnUse" gradientTransform="translate(59.0197 17.6024) scale(59.0197 17.6024)">
<stop stop-color="#E1E1E1"/>
<stop offset="1" stop-color="#FFF4DA"/>
</radialGradient>
<radialGradient id="paint9_radial_692_2162" cx="0" cy="0" r="1" gradientUnits="userSpaceOnUse" gradientTransform="translate(59.0197 17.6024) scale(59.0197 17.6024)">
<stop stop-color="#E1E1E1"/>
<stop offset="1" stop-color="#FFF4DA"/>
</radialGradient>
<radialGradient id="paint10_radial_692_2162" cx="0" cy="0" r="1" gradientUnits="userSpaceOnUse" gradientTransform="translate(59.0197 17.6024) scale(59.0197 17.6024)">
<stop stop-color="#E1E1E1"/>
<stop offset="1" stop-color="#FFF4DA"/>
</radialGradient>
<radialGradient id="paint11_radial_692_2162" cx="0" cy="0" r="1" gradientUnits="userSpaceOnUse" gradientTransform="translate(59.0197 17.6024) scale(59.0197 17.6024)">
<stop stop-color="#E1E1E1"/>
<stop offset="1" stop-color="#FFF4DA"/>
</radialGradient>
<radialGradient id="paint12_radial_692_2162" cx="0" cy="0" r="1" gradientUnits="userSpaceOnUse" gradientTransform="translate(59.0197 17.6024) scale(59.0197 17.6024)">
<stop stop-color="#E1E1E1"/>
<stop offset="1" stop-color="#FFF4DA"/>
</radialGradient>
<radialGradient id="paint13_radial_692_2162" cx="0" cy="0" r="1" gradientUnits="userSpaceOnUse" gradientTransform="translate(59.0197 17.6024) scale(59.0197 17.6024)">
<stop stop-color="#E1E1E1"/>
<stop offset="1" stop-color="#FFF4DA"/>
</radialGradient>
<radialGradient id="paint14_radial_692_2162" cx="0" cy="0" r="1" gradientUnits="userSpaceOnUse" gradientTransform="translate(59.0197 17.6024) scale(59.0197 17.6024)">
<stop stop-color="#E1E1E1"/>
<stop offset="1" stop-color="#FFF4DA"/>
</radialGradient>
<radialGradient id="paint15_radial_692_2162" cx="0" cy="0" r="1" gradientUnits="userSpaceOnUse" gradientTransform="translate(59.0197 17.6024) scale(59.0197 17.6024)">
<stop stop-color="#E1E1E1"/>
<stop offset="1" stop-color="#FFF4DA"/>
</radialGradient>
<radialGradient id="paint16_radial_692_2162" cx="0" cy="0" r="1" gradientUnits="userSpaceOnUse" gradientTransform="translate(177.059 17.6024) rotate(180) scale(59.0197 17.6024)">
<stop stop-color="#E1E1E1"/>
<stop offset="1" stop-color="#FFF4DA"/>
</radialGradient>
<radialGradient id="paint17_radial_692_2162" cx="0" cy="0" r="1" gradientUnits="userSpaceOnUse" gradientTransform="translate(177.059 17.6024) rotate(180) scale(59.0197 17.6024)">
<stop stop-color="#E1E1E1"/>
<stop offset="1" stop-color="#FFF4DA"/>
</radialGradient>
<radialGradient id="paint18_radial_692_2162" cx="0" cy="0" r="1" gradientUnits="userSpaceOnUse" gradientTransform="translate(177.059 17.6024) rotate(180) scale(59.0197 17.6024)">
<stop stop-color="#E1E1E1"/>
<stop offset="1" stop-color="#FFF4DA"/>
</radialGradient>
<radialGradient id="paint19_radial_692_2162" cx="0" cy="0" r="1" gradientUnits="userSpaceOnUse" gradientTransform="translate(177.059 17.6024) rotate(180) scale(59.0197 17.6024)">
<stop stop-color="#E1E1E1"/>
<stop offset="1" stop-color="#FFF4DA"/>
</radialGradient>
<radialGradient id="paint20_radial_692_2162" cx="0" cy="0" r="1" gradientUnits="userSpaceOnUse" gradientTransform="translate(177.059 17.6024) rotate(180) scale(59.0197 17.6024)">
<stop stop-color="#E1E1E1"/>
<stop offset="1" stop-color="#FFF4DA"/>
</radialGradient>
<radialGradient id="paint21_radial_692_2162" cx="0" cy="0" r="1" gradientUnits="userSpaceOnUse" gradientTransform="translate(177.059 17.6024) rotate(180) scale(59.0197 17.6024)">
<stop stop-color="#E1E1E1"/>
<stop offset="1" stop-color="#FFF4DA"/>
</radialGradient>
<radialGradient id="paint22_radial_692_2162" cx="0" cy="0" r="1" gradientUnits="userSpaceOnUse" gradientTransform="translate(177.059 17.6024) rotate(180) scale(59.0197 17.6024)">
<stop stop-color="#E1E1E1"/>
<stop offset="1" stop-color="#FFF4DA"/>
</radialGradient>
<radialGradient id="paint23_radial_692_2162" cx="0" cy="0" r="1" gradientUnits="userSpaceOnUse" gradientTransform="translate(177.059 17.6024) rotate(180) scale(59.0197 17.6024)">
<stop stop-color="#E1E1E1"/>
<stop offset="1" stop-color="#FFF4DA"/>
</radialGradient>
</defs>
</svg>
