<svg width="237" height="132" viewBox="0 0 237 132" fill="none" xmlns="http://www.w3.org/2000/svg">
<path d="M50.713 108.06C49.3894 108.487 47.9219 108.504 46.7174 107.809C44.5799 106.575 44.1417 105.154 44.5239 102.508V102.508C42.8803 103.056 42.0634 104.953 43.0344 106.388C43.9981 107.812 45.0942 108.974 46.6272 110.246C47.9176 111.316 49.57 111.855 51.2463 111.812C56.4411 111.679 59.0354 110.851 62.1261 108.72C61.1055 110.641 61.1623 111.76 61.9889 113.6C62.061 113.76 62.2573 113.822 62.4081 113.731C64.083 112.73 65.0044 111.892 66.2679 109.756C66.2159 114.032 66.9848 113.977 70.4096 114.933C67.5199 110.86 68.053 109.221 70.1985 106.254C70.9963 105.151 72.1264 104.331 73.4058 103.866L78.5781 101.985C81.3347 100.982 84.3491 100.942 87.1317 101.869L104.174 107.55C104.308 107.435 104.443 107.326 104.579 107.223V104.508C104.579 103.403 105.474 102.508 106.579 102.508H108.791C109.896 102.508 110.791 103.403 110.791 104.508V105.614H111.827V103.472C111.827 102.368 110.931 101.472 109.827 101.472H105.543C104.439 101.472 103.543 102.368 103.543 103.472V106.65C98.7741 103.748 93.5326 101.584 86.7262 99.7769C82.8461 98.747 78.7539 99.0145 74.9333 100.247L50.713 108.06Z" fill="url(#paint0_radial_692_2170)"/>
<path fill-rule="evenodd" clip-rule="evenodd" d="M118.04 111.827V108.721C115.458 105.74 114.164 105.799 111.827 105.614H110.791C108.063 105.589 106.223 105.979 104.579 107.223V107.685L104.174 107.55C103.27 108.327 102.41 109.382 101.473 110.791C94.423 108.167 92.2423 105.859 84.6309 104.117C82.7932 103.696 80.8384 103.854 79.1738 104.739C77.1411 105.82 75.7483 107.075 74.4009 109.235C73.7981 110.201 73.7054 111.42 74.2151 112.438C75.05 114.107 76.2503 115.417 79.1381 117.128C80.1191 117.709 81.351 117.62 82.2789 116.957L86.2804 114.099C87.2189 113.429 87.4133 112.09 86.6216 111.251C84.8307 109.354 83.7232 109.09 81.7994 109.756C83.0247 110.067 83.7478 110.456 84.3965 111.688C84.7601 112.378 84.5523 113.216 84.0005 113.767L82.2759 115.492C81.3711 116.397 79.9668 116.664 78.906 115.948C77.392 114.927 76.4786 113.802 75.488 112.283C74.8942 111.372 74.8544 110.185 75.4804 109.296C77.1885 106.871 79.0768 106.022 82.8348 105.614C87.5143 105.758 93.9739 109.592 101.473 112.862C101.611 115.305 101.827 117.608 105.431 119.531C106.15 119.915 107.027 119.733 107.604 119.156L110.252 116.508C110.55 116.21 110.55 115.727 110.252 115.429V115.429C109.972 115.149 109.522 115.134 109.211 115.381C104.883 118.812 103.35 117.017 102.508 112.862C108.785 113.743 111.601 112.063 112.862 106.65H114.933L118.04 111.827ZM102.508 111.827C105.324 107.593 107.417 106.549 111.827 106.65C109.582 111.782 107.624 113.001 102.508 111.827Z" fill="url(#paint1_radial_692_2170)"/>
<path d="M118.04 114.933V111.827C116.112 115.763 116.189 118.074 110.791 119.075C111.96 121.038 112.806 121.636 114.933 121.146C115.325 125.201 115.718 127.472 118.04 131.5V125.287C116.703 121.107 116.953 118.865 118.04 114.933Z" fill="url(#paint2_radial_692_2170)"/>
<path d="M115.969 98.3662C116.06 94.792 116.696 93.3936 118.04 91.1182V105.614C115.723 100.811 114.342 99.4138 111.827 99.4015C113.365 97.8121 114.277 97.3638 115.969 98.3662Z" fill="url(#paint3_radial_692_2170)"/>
<path d="M185.366 108.06C186.69 108.487 188.157 108.504 189.362 107.809C191.499 106.575 191.937 105.154 191.555 102.508V102.508C193.199 103.056 194.016 104.953 193.045 106.388C192.081 107.812 190.985 108.974 189.452 110.246C188.161 111.316 186.509 111.855 184.833 111.812C179.638 111.679 177.044 110.851 173.953 108.72C174.974 110.641 174.917 111.76 174.09 113.6C174.018 113.76 173.822 113.822 173.671 113.731C171.996 112.73 171.075 111.892 169.811 109.756C169.863 114.032 169.094 113.977 165.669 114.933C168.559 110.86 168.026 109.221 165.881 106.254C165.083 105.151 163.953 104.331 162.673 103.866L157.501 101.985C154.744 100.982 151.73 100.942 148.947 101.869L131.905 107.55C131.771 107.435 131.636 107.326 131.5 107.223V104.508C131.5 103.403 130.605 102.508 129.5 102.508H127.288C126.183 102.508 125.288 103.403 125.288 104.508V105.614H124.252V103.472C124.252 102.368 125.148 101.472 126.252 101.472H130.536C131.64 101.472 132.536 102.368 132.536 103.472V106.65C137.305 103.748 142.547 101.584 149.353 99.7769C153.233 98.747 157.325 99.0145 161.146 100.247L185.366 108.06Z" fill="url(#paint4_radial_692_2170)"/>
<path fill-rule="evenodd" clip-rule="evenodd" d="M118.04 111.827V108.721C120.621 105.74 121.915 105.799 124.252 105.614H125.288C128.016 105.589 129.856 105.979 131.5 107.223V107.685L131.905 107.55C132.809 108.327 133.669 109.382 134.607 110.791C141.656 108.167 143.837 105.859 151.448 104.117C153.286 103.696 155.241 103.854 156.905 104.739C158.938 105.82 160.331 107.075 161.678 109.235C162.281 110.201 162.374 111.42 161.864 112.438C161.029 114.107 159.829 115.417 156.941 117.128C155.96 117.709 154.728 117.62 153.8 116.957L149.799 114.099C148.86 113.429 148.666 112.09 149.457 111.251C151.248 109.354 152.356 109.09 154.28 109.756C153.054 110.067 152.331 110.456 151.683 111.688C151.319 112.378 151.527 113.216 152.079 113.767L153.803 115.492C154.708 116.397 156.112 116.664 157.173 115.948C158.687 114.927 159.601 113.802 160.591 112.283C161.185 111.372 161.225 110.185 160.599 109.296C158.891 106.871 157.002 106.022 153.244 105.614C148.565 105.758 142.105 109.592 134.607 112.862C134.468 115.305 134.252 117.608 130.648 119.531C129.929 119.915 129.052 119.733 128.475 119.156L125.827 116.508C125.529 116.21 125.529 115.727 125.827 115.429V115.429C126.107 115.149 126.557 115.134 126.868 115.381C131.196 118.812 132.729 117.017 133.571 112.862C127.294 113.743 124.479 112.063 123.217 106.65H121.146L118.04 111.827ZM133.571 111.827C130.755 107.593 128.662 106.549 124.252 106.65C126.497 111.782 128.455 113.001 133.571 111.827Z" fill="url(#paint5_radial_692_2170)"/>
<path d="M118.04 114.933V111.827C119.967 115.763 119.89 118.074 125.288 119.075C124.119 121.038 123.273 121.636 121.146 121.146C120.755 125.201 120.362 127.472 118.04 131.5V125.287C119.376 121.107 119.126 118.865 118.04 114.933Z" fill="url(#paint6_radial_692_2170)"/>
<path d="M120.11 98.3662C120.019 94.792 119.383 93.3936 118.04 91.1182V105.614C120.356 100.811 121.737 99.4138 124.252 99.4015C122.714 97.8121 121.802 97.3638 120.11 98.3662Z" fill="url(#paint7_radial_692_2170)"/>
<path d="M66.6875 52.8711L63.6367 69.0273C63.3216 70.5599 63.1641 71.849 63.1641 72.8945C63.1641 73.1237 63.3574 73.3314 63.7441 73.5176C64.1309 73.7038 64.5104 73.8255 64.8828 73.8828L65.4844 73.9688C65.5417 73.9688 65.5703 74.026 65.5703 74.1406C65.5703 74.4557 65.4844 74.7852 65.3125 75.1289C63.9948 75.0573 62.9635 75.0072 62.2188 74.9785C61.474 74.9355 61.0156 74.9141 60.8438 74.9141C60.8151 74.9141 60.4069 74.9355 59.6191 74.9785C58.8314 75.0072 57.6641 75.0573 56.1172 75.1289C56.0599 75.0716 56.0312 74.957 56.0312 74.7852C56.0312 74.2409 56.1315 73.9688 56.332 73.9688C56.5612 73.9688 56.8763 73.9258 57.2773 73.8398C57.6927 73.7539 58.0794 73.6393 58.4375 73.4961C58.7956 73.3529 59.0104 73.1953 59.082 73.0234C59.4974 72.0781 59.8698 70.7031 60.1992 68.8984L63.25 53C63.5651 51.4674 63.7227 50.1497 63.7227 49.0469C63.7227 48.832 63.5723 48.6387 63.2715 48.4668C62.985 48.2949 62.6484 48.1589 62.2617 48.0586C61.8893 47.944 61.5742 47.8867 61.3164 47.8867C61.2591 47.8867 61.2305 47.8151 61.2305 47.6719C61.2305 47.2708 61.3451 46.9557 61.5742 46.7266C61.8034 46.7409 62.1901 46.7695 62.7344 46.8125C63.293 46.8555 63.8945 46.8984 64.5391 46.9414C65.1836 46.9701 65.7422 46.9844 66.2148 46.9844C66.9023 46.9844 67.7832 46.9414 68.8574 46.8555C69.9316 46.7695 70.569 46.7266 70.7695 46.7266V46.8555C70.7695 47.543 70.6693 47.8867 70.4688 47.8867C70.3255 47.8867 70.0462 47.944 69.6309 48.0586C69.2298 48.1589 68.8359 48.2878 68.4492 48.4453C68.0768 48.5885 67.862 48.7318 67.8047 48.875C67.418 49.7201 67.0456 51.0521 66.6875 52.8711ZM65.1836 60.9922C66.0716 60.4479 67.1673 59.6029 68.4707 58.457C69.7741 57.3112 71.1562 56.0078 72.6172 54.5469C74.0924 53.0859 75.4961 51.625 76.8281 50.1641C76.9714 50.0208 77.222 49.7487 77.5801 49.3477C77.9382 48.9323 78.1172 48.6315 78.1172 48.4453C78.1172 48.1875 77.8665 48.0013 77.3652 47.8867C76.8639 47.7721 76.4271 47.7148 76.0547 47.7148C75.9688 47.7148 75.9258 47.6289 75.9258 47.457C75.9258 47.1992 75.9974 46.9557 76.1406 46.7266C76.4844 46.7552 76.9355 46.791 77.4941 46.834C78.0527 46.877 78.597 46.9128 79.127 46.9414C79.6712 46.9701 80.0794 46.9844 80.3516 46.9844C81.0534 46.9844 81.9486 46.9414 83.0371 46.8555C84.14 46.7695 84.7773 46.7266 84.9492 46.7266C84.9492 47.3854 84.8633 47.7148 84.6914 47.7148C82.6719 47.9583 81.1536 48.5885 80.1367 49.6055L69.6523 60.0898C69.5091 60.2331 69.4375 60.4049 69.4375 60.6055C69.4375 60.8203 69.5234 61.0495 69.6953 61.293L78.4609 71.9062C78.7904 72.3073 79.2559 72.651 79.8574 72.9375C80.4733 73.2096 81.082 73.4245 81.6836 73.582C82.2852 73.7253 82.7148 73.7969 82.9727 73.7969C83.0299 73.7969 83.0586 73.8828 83.0586 74.0547C83.0586 74.3841 82.987 74.6849 82.8438 74.957C81.3828 75.043 80.3086 75.0859 79.6211 75.0859C78.7331 75.0859 77.8809 74.9427 77.0645 74.6562C76.4199 74.4128 75.9043 74.1621 75.5176 73.9043C75.1452 73.6465 74.8516 73.3815 74.6367 73.1094C71.7865 69.4857 69.5736 66.6641 67.998 64.6445C66.4225 62.625 65.4844 61.4076 65.1836 60.9922ZM94.0586 56.3086C95.7487 56.3086 97.0592 56.8958 97.9902 58.0703C98.9212 59.2448 99.3867 60.8633 99.3867 62.9258C99.3867 64.401 99.1003 65.8691 98.5273 67.3301C97.9544 68.7767 97.2025 70.0944 96.2715 71.2832C95.3405 72.472 94.3164 73.4245 93.1992 74.1406C92.082 74.8568 90.9792 75.2148 89.8906 75.2148C88.1719 75.2148 86.8613 74.6562 85.959 73.5391C85.0566 72.4219 84.6055 70.832 84.6055 68.7695C84.6055 67.2799 84.8848 65.8047 85.4434 64.3438C86.0163 62.8685 86.7682 61.5293 87.6992 60.3262C88.6302 59.1087 89.6471 58.1348 90.75 57.4043C91.8672 56.6738 92.9701 56.3086 94.0586 56.3086ZM93.543 58.0703C92.8268 58.0703 92.1322 58.3854 91.459 59.0156C90.7858 59.6315 90.1771 60.4408 89.6328 61.4434C89.0885 62.446 88.6589 63.5417 88.3438 64.7305C88.0286 65.9193 87.8711 67.0794 87.8711 68.2109C87.8711 69.8724 88.1361 71.1615 88.666 72.0781C89.196 72.9948 89.862 73.4531 90.6641 73.4531C91.3802 73.4531 92.0605 73.1452 92.7051 72.5293C93.3639 71.8991 93.9512 71.0827 94.4668 70.0801C94.9824 69.0632 95.3835 67.9603 95.6699 66.7715C95.9707 65.5827 96.1211 64.4154 96.1211 63.2695C96.1211 61.5794 95.8919 60.2904 95.4336 59.4023C94.9753 58.5143 94.3451 58.0703 93.543 58.0703ZM116.789 44.9648C118.622 44.9648 119.797 45.4518 120.312 46.4258C120.312 48.2878 119.797 49.2188 118.766 49.2188C118.307 49.2188 117.899 49.0039 117.541 48.5742C117.197 48.1302 116.846 47.6934 116.488 47.2637C116.145 46.8197 115.729 46.5977 115.242 46.5977C114.326 46.5977 113.352 47.5358 112.32 49.4121C111.303 51.2598 110.501 53.8737 109.914 57.2539V57.3398C109.914 57.4544 109.957 57.5117 110.043 57.5117H114.984C115.128 57.5117 115.199 57.6836 115.199 58.0273C115.199 58.5 115.042 58.987 114.727 59.4883H109.699C109.542 59.4883 109.456 59.6029 109.441 59.832L107.078 72.6797C106.391 76.6615 105.18 79.6979 103.447 81.7891C101.714 83.8802 99.8307 84.9258 97.7969 84.9258C96.7943 84.9258 96.0065 84.7467 95.4336 84.3887C94.8607 84.0306 94.4883 83.6224 94.3164 83.1641C94.2878 82.5052 94.4453 81.918 94.7891 81.4023C95.1328 80.8867 95.5625 80.6289 96.0781 80.6289C96.4792 80.6289 96.8301 80.8438 97.1309 81.2734C97.4173 81.7174 97.7253 82.1543 98.0547 82.584C98.3698 83.028 98.7708 83.25 99.2578 83.25C99.8307 83.25 100.368 82.9134 100.869 82.2402C101.385 81.5814 101.85 80.7578 102.266 79.7695C102.681 78.7812 103.025 77.793 103.297 76.8047C103.569 75.8164 103.755 75 103.855 74.3555L106.434 59.7891V59.7031C106.434 59.5599 106.391 59.4883 106.305 59.4883H103.512C103.454 59.4883 103.426 59.4453 103.426 59.3594C103.426 59.1875 103.533 58.9583 103.748 58.6719C103.963 58.3711 104.228 58.1061 104.543 57.877C104.872 57.6335 105.188 57.5117 105.488 57.5117H106.734C106.849 57.5117 106.935 57.3828 106.992 57.125C107.379 54.776 108.066 52.6849 109.055 50.8516C110.057 49.0182 111.232 47.5788 112.578 46.5332C113.939 45.4876 115.342 44.9648 116.789 44.9648ZM122.633 47.2422C123.062 47.2422 123.428 47.4141 123.729 47.7578C124.029 48.1016 124.18 48.5026 124.18 48.9609C124.18 49.6484 123.958 50.25 123.514 50.7656C123.07 51.2812 122.518 51.5391 121.859 51.5391C121.401 51.5391 121.043 51.36 120.785 51.002C120.527 50.6439 120.398 50.207 120.398 49.6914C120.398 49.0326 120.613 48.4596 121.043 47.9727C121.473 47.4857 122.003 47.2422 122.633 47.2422ZM121.387 56.3086C121.845 56.3086 122.203 56.5163 122.461 56.9316C122.719 57.347 122.848 57.8841 122.848 58.543C122.848 59.1302 122.762 59.8893 122.59 60.8203L120.699 70.4453C120.613 70.7891 120.57 71.1471 120.57 71.5195C120.57 72.2357 120.714 72.5938 121 72.5938C121.358 72.5938 121.788 72.3431 122.289 71.8418C122.79 71.3262 123.22 70.8893 123.578 70.5312L123.836 70.2305C123.893 70.2305 124.001 70.3665 124.158 70.6387C124.316 70.9108 124.395 71.1042 124.395 71.2188C124.151 71.6341 123.707 72.1641 123.062 72.8086C122.432 73.4531 121.745 74.026 121 74.5273C120.255 75.0143 119.582 75.2578 118.98 75.2578C118.522 75.2578 118.164 75.0501 117.906 74.6348C117.648 74.2194 117.52 73.6823 117.52 73.0234C117.52 72.5938 117.62 71.8346 117.82 70.7461L119.582 61.7656C119.725 60.9206 119.797 60.3477 119.797 60.0469C119.797 59.3307 119.654 58.9727 119.367 58.9727C119.195 58.9727 118.959 59.0872 118.658 59.3164C118.372 59.5456 118.092 59.8034 117.82 60.0898C117.548 60.362 117.348 60.5768 117.219 60.7344L117.004 60.9922C116.947 60.9922 116.839 60.8561 116.682 60.584C116.524 60.3118 116.445 60.1185 116.445 60.0039C116.674 59.6172 117.09 59.1374 117.691 58.5645C118.293 57.9772 118.938 57.4544 119.625 56.9961C120.312 56.5378 120.9 56.3086 121.387 56.3086ZM133.117 56.3086C133.576 56.3086 133.934 56.5163 134.191 56.9316C134.449 57.347 134.578 57.8841 134.578 58.543C134.578 59.1732 134.492 59.9323 134.32 60.8203L133.633 64.4297C133.991 63.5846 134.449 62.6966 135.008 61.7656C135.581 60.8203 136.189 59.9323 136.834 59.1016C137.479 58.2708 138.116 57.5977 138.746 57.082C139.376 56.5664 139.935 56.3086 140.422 56.3086C141.396 56.3086 142.184 56.7669 142.785 57.6836C142.785 59.6029 142.255 60.5625 141.195 60.5625C140.966 60.5625 140.694 60.3835 140.379 60.0254C140.064 59.6673 139.734 59.4883 139.391 59.4883C138.975 59.4883 138.431 59.832 137.758 60.5195C137.085 61.207 136.39 62.1094 135.674 63.2266C134.958 64.3294 134.313 65.5254 133.74 66.8145C133.167 68.0892 132.773 69.3138 132.559 70.4883L131.742 75C131.255 75.0859 130.783 75.1289 130.324 75.1289C129.78 75.1289 129.25 75.0859 128.734 75L131.312 61.7656C131.456 60.7773 131.527 60.2044 131.527 60.0469C131.527 59.3307 131.384 58.9727 131.098 58.9727C130.854 58.9727 130.489 59.2018 130.002 59.6602C129.773 59.8893 129.522 60.14 129.25 60.4121C128.992 60.6842 128.82 60.8776 128.734 60.9922C128.677 60.9922 128.57 60.8561 128.412 60.584C128.255 60.3118 128.176 60.1185 128.176 60.0039C128.405 59.6172 128.82 59.1374 129.422 58.5645C130.023 57.9772 130.668 57.4544 131.355 56.9961C132.043 56.5378 132.63 56.3086 133.117 56.3086ZM148.371 56.3086C148.829 56.3086 149.188 56.5163 149.445 56.9316C149.703 57.347 149.832 57.8841 149.832 58.543C149.832 59.3021 149.746 60.0612 149.574 60.8203L148.07 67.9102C147.87 68.7839 147.77 69.5573 147.77 70.2305C147.77 71.4622 148.042 72.0781 148.586 72.0781C148.901 72.0781 149.288 71.8991 149.746 71.541C150.219 71.1829 150.706 70.7246 151.207 70.166C151.723 69.6074 152.202 69.0345 152.646 68.4473C153.463 67.373 154.236 66.0625 154.967 64.5156C155.697 62.9688 156.206 61.4362 156.492 59.918L157.223 56.5664C157.609 56.4518 158.053 56.3945 158.555 56.3945C159.042 56.3945 159.529 56.4518 160.016 56.5664L157.352 70.4453C157.266 70.7891 157.223 71.1471 157.223 71.5195C157.223 72.2357 157.366 72.5938 157.652 72.5938C158.01 72.5938 158.44 72.3431 158.941 71.8418C159.443 71.3262 159.872 70.8893 160.23 70.5312L160.488 70.2305C160.546 70.2305 160.653 70.3665 160.811 70.6387C160.968 70.9108 161.047 71.1042 161.047 71.2188C160.803 71.6341 160.359 72.1641 159.715 72.8086C159.085 73.4531 158.397 74.026 157.652 74.5273C156.908 75.0143 156.234 75.2578 155.633 75.2578C155.174 75.2578 154.816 75.0501 154.559 74.6348C154.301 74.2194 154.172 73.6823 154.172 73.0234C154.172 72.5938 154.272 71.8346 154.473 70.7461L155.246 66.793C154.974 67.3086 154.387 68.1966 153.484 69.457C152.897 70.2734 152.188 71.1328 151.357 72.0352C150.541 72.9375 149.725 73.7038 148.908 74.334C148.092 74.9499 147.397 75.2578 146.824 75.2578C145.392 75.2578 144.676 74.3125 144.676 72.4219C144.676 71.0755 144.876 69.5143 145.277 67.7383L146.566 61.7656C146.71 60.7773 146.781 60.2044 146.781 60.0469C146.781 59.3307 146.638 58.9727 146.352 58.9727C146.108 58.9727 145.743 59.2018 145.256 59.6602C145.027 59.8893 144.776 60.14 144.504 60.4121C144.246 60.6842 144.074 60.8776 143.988 60.9922C143.931 60.9922 143.824 60.8561 143.666 60.584C143.508 60.3118 143.43 60.1185 143.43 60.0039C143.659 59.6172 144.074 59.1374 144.676 58.5645C145.277 57.9772 145.922 57.4544 146.609 56.9961C147.297 56.5378 147.884 56.3086 148.371 56.3086ZM169.082 56.3086C169.54 56.3086 169.898 56.5163 170.156 56.9316C170.414 57.347 170.543 57.8841 170.543 58.543C170.543 59.1732 170.457 59.9323 170.285 60.8203L169.512 64.7734C169.784 64.2865 170.407 63.3984 171.381 62.1094C172.025 61.2643 172.77 60.3978 173.615 59.5098C174.475 58.6074 175.32 57.8483 176.15 57.2324C176.995 56.6165 177.704 56.3086 178.277 56.3086C179.71 56.3086 180.426 57.2539 180.426 59.1445C180.426 60.4766 180.225 62.0378 179.824 63.8281L178.406 70.4453C178.32 70.7891 178.277 71.1471 178.277 71.5195C178.277 72.2357 178.421 72.5938 178.707 72.5938C179.065 72.5938 179.495 72.3431 179.996 71.8418C180.497 71.3262 180.927 70.8893 181.285 70.5312L181.543 70.2305C181.6 70.2305 181.708 70.3665 181.865 70.6387C182.023 70.9108 182.102 71.1042 182.102 71.2188C181.858 71.6341 181.414 72.1641 180.77 72.8086C180.139 73.4531 179.452 74.026 178.707 74.5273C177.962 75.0143 177.289 75.2578 176.688 75.2578C176.229 75.2578 175.871 75.0501 175.613 74.6348C175.355 74.2194 175.227 73.6823 175.227 73.0234C175.227 72.5938 175.327 71.8346 175.527 70.7461L177.031 63.6562C177.232 62.6823 177.332 61.9089 177.332 61.3359C177.332 60.1042 177.06 59.4883 176.516 59.4883C176.043 59.4883 175.406 59.8464 174.604 60.5625C173.801 61.2643 172.964 62.2025 172.09 63.377C171.23 64.5514 170.45 65.862 169.748 67.3086C169.046 68.7409 168.552 70.1875 168.266 71.6484L167.535 75C167.148 75.1146 166.704 75.1719 166.203 75.1719C165.716 75.1719 165.229 75.1146 164.742 75L167.277 61.7656C167.421 60.7773 167.492 60.2044 167.492 60.0469C167.492 59.3307 167.349 58.9727 167.062 58.9727C166.819 58.9727 166.454 59.2018 165.967 59.6602C165.738 59.8893 165.487 60.14 165.215 60.4121C164.957 60.6842 164.785 60.8776 164.699 60.9922C164.642 60.9922 164.535 60.8561 164.377 60.584C164.219 60.3118 164.141 60.1185 164.141 60.0039C164.37 59.6172 164.785 59.1374 165.387 58.5645C165.988 57.9772 166.633 57.4544 167.32 56.9961C168.008 56.5378 168.595 56.3086 169.082 56.3086Z" fill="white"/>
<path d="M0 14.4961C6.30012 20.0984 15.0791 19.1979 30.687 15.1421C32.2497 14.736 33.9168 14.9601 35.3059 15.7832L61.0905 31.063L35.3304 19.6141C33.9205 18.9874 32.3183 18.9353 30.8588 19.4358C12.5496 25.7159 4.73674 24.7283 0 14.4961Z" fill="url(#paint8_radial_692_2170)"/>
<path d="M16.5669 25.8858C22.7094 27.5488 34.4861 19.1752 43.5027 24.2129C35.7991 20.3448 24.9274 34.7378 16.5669 25.8858Z" fill="url(#paint9_radial_692_2170)"/>
<path d="M42.4528 34.1693C40.4746 32.9379 39.8039 31.791 39.5364 30.2054C39.314 28.8871 40.2138 27.6374 41.514 27.3262C46.4064 26.1551 49.6595 27.3172 54.8779 31.063C50.3759 26.3362 46.8249 25.2844 39.6469 25.78C38.7972 25.8387 38.0191 26.2751 37.5081 26.9564L36.1669 28.7446C35.6047 29.4943 35.6307 30.5432 36.2784 31.2205C38.4425 33.4837 39.9798 34.1156 42.4528 34.1693Z" fill="url(#paint10_radial_692_2170)"/>
<path d="M61.0905 28.9921C48.8725 19.5072 53.131 18.6378 60.0551 10.3543C56.6285 8.93238 54.8937 8.83857 52.8071 12.4252C51.2879 8.29387 49.7783 6.42726 45.559 4.14173C43.8524 8.52031 44.6321 10.6991 46.5945 14.4961C42.9378 12.0347 40.7471 11.3823 36.2402 13.4606C46.3046 17.727 45.2926 18.8748 61.0905 28.9921Z" fill="url(#paint11_radial_692_2170)"/>
<path d="M78.6929 22.7441C78.6929 22.1918 79.1406 21.7441 79.6929 21.7441H79.7638C80.3161 21.7441 80.7638 22.1918 80.7638 22.7441V25.9213C80.7638 26.4735 80.3161 26.9213 79.7638 26.9213H74.4803C73.3757 26.9213 72.4803 26.0258 72.4803 24.9213V19.6024C72.4803 18.4978 73.3757 17.6024 74.4803 17.6024H78.7281C80.6137 17.6024 82.4755 18.023 84.178 18.8337V18.8337C85.2965 19.3663 86.1249 20.3629 86.4441 21.5599L88.3399 28.6695C89.2063 31.9182 86.6836 35.0788 83.3237 34.9544L68.0679 34.3894C64.7776 34.2675 62.2002 31.5169 62.2923 28.2256L62.6948 13.8426C62.7856 10.5955 65.4441 8.01038 68.6924 8.01038H83.0387C86.0229 8.01038 88.8896 9.21712 90.915 11.4088C101.807 23.194 109.097 33.3225 115.395 32.2299C115.685 32.1796 115.968 32.3916 115.968 32.686V32.686C115.968 32.9325 115.766 33.1318 115.519 33.1285C109.37 33.045 105.37 32.4313 87.653 13.254C86.5367 12.0456 85.0793 11.1983 83.4735 10.8414L77.8584 9.59364C77.0431 9.41248 76.199 9.4035 75.3801 9.56728L71.091 10.4251C68.2865 10.986 66.2677 13.4485 66.2677 16.3086V27.0984C66.2677 29.8599 68.5063 32.0984 71.2677 32.0984H80.9055C83.1146 32.0984 84.9055 30.3076 84.9055 28.0984V22.6378C84.9055 20.4287 83.1146 18.6378 80.9055 18.6378H76.5512C75.4466 18.6378 74.5512 19.5332 74.5512 20.6378V24.8858C74.5512 25.4381 74.9989 25.8858 75.5512 25.8858H77.6929C78.2452 25.8858 78.6929 25.4381 78.6929 24.8858V22.7441Z" fill="url(#paint12_radial_692_2170)"/>
<path d="M104.412 33.0631C96.4743 29.9513 88.3242 12.4066 78.6929 13.4606C91.6665 19.2326 92.9183 31.4785 104.412 33.0631Z" fill="url(#paint13_radial_692_2170)"/>
<path d="M111.827 30.0276C106.485 21.6827 106.361 16.9143 110.791 8.28346C105.363 9.71409 97.6256 19.5114 111.827 30.0276Z" fill="url(#paint14_radial_692_2170)"/>
<path d="M118.039 10.3543C113.102 14.0549 110.405 23.2793 118.039 32.0984C106.33 25.6888 109.793 12.7713 118.039 0V10.3543Z" fill="url(#paint15_radial_692_2170)"/>
<path d="M236.079 14.4961C229.778 20.0984 221 19.1979 205.392 15.1421C203.829 14.736 202.162 14.9601 200.773 15.7832L174.988 31.063L200.748 19.6141C202.158 18.9874 203.76 18.9353 205.22 19.4358C223.529 25.7159 231.342 24.7283 236.079 14.4961Z" fill="url(#paint16_radial_692_2170)"/>
<path d="M219.512 25.8858C213.369 27.5488 201.593 19.1752 192.576 24.2129C200.279 20.3448 211.151 34.7378 219.512 25.8858Z" fill="url(#paint17_radial_692_2170)"/>
<path d="M193.626 34.1693C195.604 32.9379 196.275 31.791 196.542 30.2054C196.765 28.8871 195.865 27.6374 194.565 27.3262C189.672 26.1551 186.419 27.3172 181.201 31.063C185.703 26.3362 189.254 25.2844 196.432 25.78C197.281 25.8387 198.06 26.2751 198.571 26.9564L199.912 28.7446C200.474 29.4943 200.448 30.5432 199.8 31.2205C197.636 33.4837 196.099 34.1156 193.626 34.1693Z" fill="url(#paint18_radial_692_2170)"/>
<path d="M174.988 28.9921C187.206 19.5072 182.948 18.6378 176.024 10.3543C179.45 8.93238 181.185 8.83857 183.272 12.4252C184.791 8.29387 186.3 6.42726 190.52 4.14173C192.226 8.52031 191.446 10.6991 189.484 14.4961C193.141 12.0347 195.331 11.3823 199.838 13.4606C189.774 17.727 190.786 18.8748 174.988 28.9921Z" fill="url(#paint19_radial_692_2170)"/>
<path d="M157.386 22.7441C157.386 22.1918 156.938 21.7441 156.386 21.7441H156.315C155.763 21.7441 155.315 22.1918 155.315 22.7441V25.9213C155.315 26.4735 155.763 26.9213 156.315 26.9213H161.598C162.703 26.9213 163.598 26.0258 163.598 24.9213V19.6024C163.598 18.4978 162.703 17.6024 161.598 17.6024H157.351C155.465 17.6024 153.603 18.023 151.901 18.8337V18.8337C150.782 19.3663 149.954 20.3629 149.635 21.5599L147.739 28.6695C146.872 31.9182 149.395 35.0788 152.755 34.9544L168.011 34.3894C171.301 34.2675 173.878 31.5169 173.786 28.2256L173.384 13.8426C173.293 10.5955 170.635 8.01038 167.386 8.01038H153.04C150.056 8.01038 147.189 9.21712 145.164 11.4088C134.272 23.194 126.982 33.3225 120.683 32.2299C120.393 32.1796 120.11 32.3916 120.11 32.686V32.686C120.11 32.9325 120.313 33.1318 120.559 33.1285C126.708 33.045 130.709 32.4313 148.426 13.254C149.542 12.0456 150.999 11.1983 152.605 10.8414L158.22 9.59364C159.035 9.41248 159.88 9.4035 160.698 9.56728L164.988 10.4251C167.792 10.986 169.811 13.4485 169.811 16.3086V27.0984C169.811 29.8599 167.572 32.0984 164.811 32.0984H155.173C152.964 32.0984 151.173 30.3076 151.173 28.0984V22.6378C151.173 20.4287 152.964 18.6378 155.173 18.6378H159.527C160.632 18.6378 161.527 19.5332 161.527 20.6378V24.8858C161.527 25.4381 161.08 25.8858 160.527 25.8858H158.386C157.833 25.8858 157.386 25.4381 157.386 24.8858V22.7441Z" fill="url(#paint20_radial_692_2170)"/>
<path d="M131.666 33.0631C139.604 29.9513 147.754 12.4066 157.386 13.4606C144.412 19.2326 143.16 31.4785 131.666 33.0631Z" fill="url(#paint21_radial_692_2170)"/>
<path d="M124.252 30.0276C129.594 21.6827 129.718 16.9143 125.287 8.28346C130.716 9.71409 138.453 19.5114 124.252 30.0276Z" fill="url(#paint22_radial_692_2170)"/>
<path d="M118.039 10.3543C122.976 14.0549 125.673 23.2793 118.039 32.0984C129.749 25.6888 126.286 12.7713 118.039 0V10.3543Z" fill="url(#paint23_radial_692_2170)"/>
<defs>
<radialGradient id="paint0_radial_692_2170" cx="0" cy="0" r="1" gradientUnits="userSpaceOnUse" gradientTransform="translate(79.7285 111.309) scale(38.311 20.1909)">
<stop stop-color="#E1E1E1"/>
<stop offset="1" stop-color="#FFF4DA"/>
</radialGradient>
<radialGradient id="paint1_radial_692_2170" cx="0" cy="0" r="1" gradientUnits="userSpaceOnUse" gradientTransform="translate(79.7285 111.309) scale(38.311 20.1909)">
<stop stop-color="#E1E1E1"/>
<stop offset="1" stop-color="#FFF4DA"/>
</radialGradient>
<radialGradient id="paint2_radial_692_2170" cx="0" cy="0" r="1" gradientUnits="userSpaceOnUse" gradientTransform="translate(79.7285 111.309) scale(38.311 20.1909)">
<stop stop-color="#E1E1E1"/>
<stop offset="1" stop-color="#FFF4DA"/>
</radialGradient>
<radialGradient id="paint3_radial_692_2170" cx="0" cy="0" r="1" gradientUnits="userSpaceOnUse" gradientTransform="translate(79.7285 111.309) scale(38.311 20.1909)">
<stop stop-color="#E1E1E1"/>
<stop offset="1" stop-color="#FFF4DA"/>
</radialGradient>
<radialGradient id="paint4_radial_692_2170" cx="0" cy="0" r="1" gradientUnits="userSpaceOnUse" gradientTransform="translate(156.351 111.309) rotate(180) scale(38.311 20.1909)">
<stop stop-color="#E1E1E1"/>
<stop offset="1" stop-color="#FFF4DA"/>
</radialGradient>
<radialGradient id="paint5_radial_692_2170" cx="0" cy="0" r="1" gradientUnits="userSpaceOnUse" gradientTransform="translate(156.351 111.309) rotate(180) scale(38.311 20.1909)">
<stop stop-color="#E1E1E1"/>
<stop offset="1" stop-color="#FFF4DA"/>
</radialGradient>
<radialGradient id="paint6_radial_692_2170" cx="0" cy="0" r="1" gradientUnits="userSpaceOnUse" gradientTransform="translate(156.351 111.309) rotate(180) scale(38.311 20.1909)">
<stop stop-color="#E1E1E1"/>
<stop offset="1" stop-color="#FFF4DA"/>
</radialGradient>
<radialGradient id="paint7_radial_692_2170" cx="0" cy="0" r="1" gradientUnits="userSpaceOnUse" gradientTransform="translate(156.351 111.309) rotate(180) scale(38.311 20.1909)">
<stop stop-color="#E1E1E1"/>
<stop offset="1" stop-color="#FFF4DA"/>
</radialGradient>
<radialGradient id="paint8_radial_692_2170" cx="0" cy="0" r="1" gradientUnits="userSpaceOnUse" gradientTransform="translate(59.0197 17.6024) scale(59.0197 17.6024)">
<stop stop-color="#E1E1E1"/>
<stop offset="1" stop-color="#FFF4DA"/>
</radialGradient>
<radialGradient id="paint9_radial_692_2170" cx="0" cy="0" r="1" gradientUnits="userSpaceOnUse" gradientTransform="translate(59.0197 17.6024) scale(59.0197 17.6024)">
<stop stop-color="#E1E1E1"/>
<stop offset="1" stop-color="#FFF4DA"/>
</radialGradient>
<radialGradient id="paint10_radial_692_2170" cx="0" cy="0" r="1" gradientUnits="userSpaceOnUse" gradientTransform="translate(59.0197 17.6024) scale(59.0197 17.6024)">
<stop stop-color="#E1E1E1"/>
<stop offset="1" stop-color="#FFF4DA"/>
</radialGradient>
<radialGradient id="paint11_radial_692_2170" cx="0" cy="0" r="1" gradientUnits="userSpaceOnUse" gradientTransform="translate(59.0197 17.6024) scale(59.0197 17.6024)">
<stop stop-color="#E1E1E1"/>
<stop offset="1" stop-color="#FFF4DA"/>
</radialGradient>
<radialGradient id="paint12_radial_692_2170" cx="0" cy="0" r="1" gradientUnits="userSpaceOnUse" gradientTransform="translate(59.0197 17.6024) scale(59.0197 17.6024)">
<stop stop-color="#E1E1E1"/>
<stop offset="1" stop-color="#FFF4DA"/>
</radialGradient>
<radialGradient id="paint13_radial_692_2170" cx="0" cy="0" r="1" gradientUnits="userSpaceOnUse" gradientTransform="translate(59.0197 17.6024) scale(59.0197 17.6024)">
<stop stop-color="#E1E1E1"/>
<stop offset="1" stop-color="#FFF4DA"/>
</radialGradient>
<radialGradient id="paint14_radial_692_2170" cx="0" cy="0" r="1" gradientUnits="userSpaceOnUse" gradientTransform="translate(59.0197 17.6024) scale(59.0197 17.6024)">
<stop stop-color="#E1E1E1"/>
<stop offset="1" stop-color="#FFF4DA"/>
</radialGradient>
<radialGradient id="paint15_radial_692_2170" cx="0" cy="0" r="1" gradientUnits="userSpaceOnUse" gradientTransform="translate(59.0197 17.6024) scale(59.0197 17.6024)">
<stop stop-color="#E1E1E1"/>
<stop offset="1" stop-color="#FFF4DA"/>
</radialGradient>
<radialGradient id="paint16_radial_692_2170" cx="0" cy="0" r="1" gradientUnits="userSpaceOnUse" gradientTransform="translate(177.059 17.6024) rotate(180) scale(59.0197 17.6024)">
<stop stop-color="#E1E1E1"/>
<stop offset="1" stop-color="#FFF4DA"/>
</radialGradient>
<radialGradient id="paint17_radial_692_2170" cx="0" cy="0" r="1" gradientUnits="userSpaceOnUse" gradientTransform="translate(177.059 17.6024) rotate(180) scale(59.0197 17.6024)">
<stop stop-color="#E1E1E1"/>
<stop offset="1" stop-color="#FFF4DA"/>
</radialGradient>
<radialGradient id="paint18_radial_692_2170" cx="0" cy="0" r="1" gradientUnits="userSpaceOnUse" gradientTransform="translate(177.059 17.6024) rotate(180) scale(59.0197 17.6024)">
<stop stop-color="#E1E1E1"/>
<stop offset="1" stop-color="#FFF4DA"/>
</radialGradient>
<radialGradient id="paint19_radial_692_2170" cx="0" cy="0" r="1" gradientUnits="userSpaceOnUse" gradientTransform="translate(177.059 17.6024) rotate(180) scale(59.0197 17.6024)">
<stop stop-color="#E1E1E1"/>
<stop offset="1" stop-color="#FFF4DA"/>
</radialGradient>
<radialGradient id="paint20_radial_692_2170" cx="0" cy="0" r="1" gradientUnits="userSpaceOnUse" gradientTransform="translate(177.059 17.6024) rotate(180) scale(59.0197 17.6024)">
<stop stop-color="#E1E1E1"/>
<stop offset="1" stop-color="#FFF4DA"/>
</radialGradient>
<radialGradient id="paint21_radial_692_2170" cx="0" cy="0" r="1" gradientUnits="userSpaceOnUse" gradientTransform="translate(177.059 17.6024) rotate(180) scale(59.0197 17.6024)">
<stop stop-color="#E1E1E1"/>
<stop offset="1" stop-color="#FFF4DA"/>
</radialGradient>
<radialGradient id="paint22_radial_692_2170" cx="0" cy="0" r="1" gradientUnits="userSpaceOnUse" gradientTransform="translate(177.059 17.6024) rotate(180) scale(59.0197 17.6024)">
<stop stop-color="#E1E1E1"/>
<stop offset="1" stop-color="#FFF4DA"/>
</radialGradient>
<radialGradient id="paint23_radial_692_2170" cx="0" cy="0" r="1" gradientUnits="userSpaceOnUse" gradientTransform="translate(177.059 17.6024) rotate(180) scale(59.0197 17.6024)">
<stop stop-color="#E1E1E1"/>
<stop offset="1" stop-color="#FFF4DA"/>
</radialGradient>
</defs>
</svg>
