<svg width="237" height="132" viewBox="0 0 237 132" fill="none" xmlns="http://www.w3.org/2000/svg">
<path d="M50.713 108.06C49.3894 108.487 47.9219 108.504 46.7174 107.809C44.5799 106.575 44.1417 105.154 44.5239 102.508V102.508C42.8803 103.056 42.0634 104.953 43.0344 106.388C43.9981 107.812 45.0942 108.974 46.6272 110.246C47.9176 111.316 49.57 111.855 51.2463 111.812C56.4411 111.679 59.0354 110.851 62.1261 108.72C61.1055 110.641 61.1623 111.76 61.9889 113.6C62.061 113.76 62.2573 113.822 62.4081 113.731C64.083 112.73 65.0044 111.892 66.2679 109.756C66.2159 114.032 66.9848 113.977 70.4096 114.933C67.5199 110.86 68.053 109.221 70.1985 106.254C70.9963 105.151 72.1264 104.331 73.4058 103.866L78.5781 101.985C81.3347 100.982 84.3491 100.942 87.1317 101.869L104.174 107.55C104.308 107.435 104.443 107.326 104.579 107.223V104.508C104.579 103.403 105.474 102.508 106.579 102.508H108.791C109.896 102.508 110.791 103.403 110.791 104.508V105.614H111.827V103.472C111.827 102.368 110.931 101.472 109.827 101.472H105.543C104.439 101.472 103.543 102.368 103.543 103.472V106.65C98.7741 103.748 93.5326 101.584 86.7262 99.7769C82.8461 98.747 78.7539 99.0145 74.9333 100.247L50.713 108.06Z" fill="url(#paint0_radial_692_1778)"/>
<path fill-rule="evenodd" clip-rule="evenodd" d="M118.04 111.827V108.721C115.458 105.74 114.164 105.799 111.827 105.614H110.791C108.063 105.589 106.223 105.979 104.579 107.223V107.685L104.174 107.55C103.27 108.327 102.41 109.382 101.473 110.791C94.423 108.167 92.2423 105.859 84.6309 104.117C82.7932 103.696 80.8384 103.854 79.1738 104.739C77.1411 105.82 75.7483 107.075 74.4009 109.235C73.7981 110.201 73.7054 111.42 74.2151 112.438C75.05 114.107 76.2503 115.417 79.1381 117.128C80.1191 117.709 81.351 117.62 82.2789 116.957L86.2804 114.099C87.2189 113.429 87.4133 112.09 86.6216 111.251C84.8307 109.354 83.7232 109.09 81.7994 109.756C83.0247 110.067 83.7478 110.456 84.3965 111.688C84.7601 112.378 84.5523 113.216 84.0005 113.767L82.2759 115.492C81.3711 116.397 79.9668 116.664 78.906 115.948C77.392 114.927 76.4786 113.802 75.488 112.283C74.8942 111.372 74.8544 110.185 75.4804 109.296C77.1885 106.871 79.0768 106.022 82.8348 105.614C87.5143 105.758 93.9739 109.592 101.473 112.862C101.611 115.305 101.827 117.608 105.431 119.531C106.15 119.915 107.027 119.733 107.604 119.156L110.252 116.508C110.55 116.21 110.55 115.727 110.252 115.429V115.429C109.972 115.149 109.522 115.134 109.211 115.381C104.883 118.812 103.35 117.017 102.508 112.862C108.785 113.743 111.601 112.063 112.862 106.65H114.933L118.04 111.827ZM102.508 111.827C105.324 107.593 107.417 106.549 111.827 106.65C109.582 111.782 107.624 113.001 102.508 111.827Z" fill="url(#paint1_radial_692_1778)"/>
<path d="M118.04 114.933V111.827C116.112 115.763 116.189 118.074 110.791 119.075C111.96 121.038 112.806 121.636 114.933 121.146C115.325 125.201 115.718 127.472 118.04 131.5V125.287C116.703 121.107 116.953 118.865 118.04 114.933Z" fill="url(#paint2_radial_692_1778)"/>
<path d="M115.969 98.3662C116.06 94.792 116.696 93.3936 118.04 91.1182V105.614C115.723 100.811 114.342 99.4138 111.827 99.4015C113.365 97.8121 114.277 97.3638 115.969 98.3662Z" fill="url(#paint3_radial_692_1778)"/>
<path d="M185.366 108.06C186.69 108.487 188.157 108.504 189.362 107.809C191.499 106.575 191.937 105.154 191.555 102.508V102.508C193.199 103.056 194.016 104.953 193.045 106.388C192.081 107.812 190.985 108.974 189.452 110.246C188.161 111.316 186.509 111.855 184.833 111.812C179.638 111.679 177.044 110.851 173.953 108.72C174.974 110.641 174.917 111.76 174.09 113.6C174.018 113.76 173.822 113.822 173.671 113.731C171.996 112.73 171.075 111.892 169.811 109.756C169.863 114.032 169.094 113.977 165.669 114.933C168.559 110.86 168.026 109.221 165.881 106.254C165.083 105.151 163.953 104.331 162.673 103.866L157.501 101.985C154.744 100.982 151.73 100.942 148.947 101.869L131.905 107.55C131.771 107.435 131.636 107.326 131.5 107.223V104.508C131.5 103.403 130.605 102.508 129.5 102.508H127.288C126.183 102.508 125.288 103.403 125.288 104.508V105.614H124.252V103.472C124.252 102.368 125.148 101.472 126.252 101.472H130.536C131.64 101.472 132.536 102.368 132.536 103.472V106.65C137.305 103.748 142.547 101.584 149.353 99.7769C153.233 98.747 157.325 99.0145 161.146 100.247L185.366 108.06Z" fill="url(#paint4_radial_692_1778)"/>
<path fill-rule="evenodd" clip-rule="evenodd" d="M118.04 111.827V108.721C120.621 105.74 121.915 105.799 124.252 105.614H125.288C128.016 105.589 129.856 105.979 131.5 107.223V107.685L131.905 107.55C132.809 108.327 133.669 109.382 134.607 110.791C141.656 108.167 143.837 105.859 151.448 104.117C153.286 103.696 155.241 103.854 156.905 104.739C158.938 105.82 160.331 107.075 161.678 109.235C162.281 110.201 162.374 111.42 161.864 112.438C161.029 114.107 159.829 115.417 156.941 117.128C155.96 117.709 154.728 117.62 153.8 116.957L149.799 114.099C148.86 113.429 148.666 112.09 149.457 111.251C151.248 109.354 152.356 109.09 154.28 109.756C153.054 110.067 152.331 110.456 151.683 111.688C151.319 112.378 151.527 113.216 152.079 113.767L153.803 115.492C154.708 116.397 156.112 116.664 157.173 115.948C158.687 114.927 159.601 113.802 160.591 112.283C161.185 111.372 161.225 110.185 160.599 109.296C158.891 106.871 157.002 106.022 153.244 105.614C148.565 105.758 142.105 109.592 134.607 112.862C134.468 115.305 134.252 117.608 130.648 119.531C129.929 119.915 129.052 119.733 128.475 119.156L125.827 116.508C125.529 116.21 125.529 115.727 125.827 115.429V115.429C126.107 115.149 126.557 115.134 126.868 115.381C131.196 118.812 132.729 117.017 133.571 112.862C127.294 113.743 124.479 112.063 123.217 106.65H121.146L118.04 111.827ZM133.571 111.827C130.755 107.593 128.662 106.549 124.252 106.65C126.497 111.782 128.455 113.001 133.571 111.827Z" fill="url(#paint5_radial_692_1778)"/>
<path d="M118.04 114.933V111.827C119.967 115.763 119.89 118.074 125.288 119.075C124.119 121.038 123.273 121.636 121.146 121.146C120.755 125.201 120.362 127.472 118.04 131.5V125.287C119.376 121.107 119.126 118.865 118.04 114.933Z" fill="url(#paint6_radial_692_1778)"/>
<path d="M120.11 98.3662C120.019 94.792 119.383 93.3936 118.04 91.1182V105.614C120.356 100.811 121.737 99.4138 124.252 99.4015C122.714 97.8121 121.802 97.3638 120.11 98.3662Z" fill="url(#paint7_radial_692_1778)"/>
<path d="M53.5508 67.9531L61.1992 52.5273L63.9062 46.7266C64.6797 46.8125 65.8112 46.8555 67.3008 46.8555C67.8021 46.8555 68.3607 46.8411 68.9766 46.8125C69.6068 46.7839 70.2943 46.7409 71.0391 46.6836C71.0964 46.8268 71.0964 47.0703 71.0391 47.4141C70.9818 47.7578 70.9102 47.9297 70.8242 47.9297C70.4518 47.9297 70.0579 48.0299 69.6426 48.2305C69.2272 48.431 68.9193 48.6745 68.7188 48.9609C68.4609 49.3047 68.2676 49.7201 68.1387 50.207C68.0241 50.651 67.888 51.5104 67.7305 52.7852L66.0547 69.1992C65.8828 70.6745 65.7969 71.806 65.7969 72.5938C65.7969 73.1953 66.0189 73.5749 66.4629 73.7324C66.7207 73.8184 67.0286 73.8828 67.3867 73.9258C67.7591 73.9544 68.0599 73.9688 68.2891 73.9688C68.3464 73.9688 68.375 74.0977 68.375 74.3555C68.375 74.6992 68.2891 74.957 68.1172 75.1289C66.7852 75.0573 65.7253 75.0072 64.9375 74.9785C64.1641 74.9355 63.6628 74.9141 63.4336 74.9141C63.3906 74.9141 62.9896 74.9355 62.2305 74.9785C61.4857 75.0072 60.3828 75.0573 58.9219 75.1289C58.8646 75.0286 58.8359 74.957 58.8359 74.9141C58.8359 74.7422 58.8717 74.5417 58.9434 74.3125C59.015 74.0833 59.0794 73.9688 59.1367 73.9688C59.3945 73.9688 59.7168 73.9401 60.1035 73.8828C60.5046 73.8112 60.877 73.7181 61.2207 73.6035C61.5645 73.4746 61.7721 73.3385 61.8438 73.1953C62.1302 72.5365 62.3307 71.9277 62.4453 71.3691C62.474 71.2116 62.5169 70.8678 62.5742 70.3379C62.6315 69.8079 62.6745 69.4714 62.7031 69.3281L64.4219 52.5703C64.5078 51.7109 64.5508 51.1523 64.5508 50.8945C64.5508 50.7227 64.4648 50.6367 64.293 50.6367C64.2786 50.6367 64.2357 50.694 64.1641 50.8086L52.9492 73.668C52.806 73.9258 52.5339 74.2266 52.1328 74.5703C51.7318 74.9141 51.3594 75.0859 51.0156 75.0859C50.8867 75.0859 50.7721 75.0573 50.6719 75L47.0195 50.6367C47.0052 50.5794 46.9766 50.5508 46.9336 50.5508C46.8477 50.5508 46.8047 50.5794 46.8047 50.6367L41.7773 69.1562C41.2331 71.1328 40.9609 72.3216 40.9609 72.7227C40.9609 72.9232 41.1686 73.1237 41.584 73.3242C42.0137 73.5104 42.4648 73.668 42.9375 73.7969C43.4245 73.9115 43.7396 73.9688 43.8828 73.9688C43.9401 73.9688 43.9688 74.0547 43.9688 74.2266C43.9688 74.556 43.8971 74.8568 43.7539 75.1289C42.4219 75.0573 41.3835 75.0072 40.6387 74.9785C39.8939 74.9355 39.4427 74.9141 39.2852 74.9141C39.2422 74.9141 38.8268 74.9355 38.0391 74.9785C37.2513 75.0072 36.0911 75.0573 34.5586 75.1289C34.5013 75.0716 34.4727 74.9284 34.4727 74.6992C34.4727 74.2122 34.5729 73.9688 34.7734 73.9688C35.0026 73.9688 35.3678 73.9186 35.8691 73.8184C36.3704 73.7038 36.8431 73.5677 37.2871 73.4102C37.7454 73.2383 38.0104 73.0807 38.082 72.9375C38.5833 71.9922 39.056 70.7174 39.5 69.1133L44.1836 52.3125C44.2982 51.7539 44.4199 51.2025 44.5488 50.6582C44.6777 50.0996 44.7422 49.5625 44.7422 49.0469C44.7422 48.832 44.5417 48.6387 44.1406 48.4668C43.7396 48.2949 43.3027 48.1589 42.8301 48.0586C42.3717 47.944 42.0352 47.8867 41.8203 47.8867C41.763 47.8867 41.7344 47.7865 41.7344 47.5859C41.7344 47.1133 41.8203 46.8268 41.9922 46.7266C43.0521 46.7552 43.9186 46.7767 44.5918 46.791C45.265 46.8053 45.7448 46.8125 46.0312 46.8125C46.8477 46.8125 47.5924 46.8053 48.2656 46.791C48.9531 46.7767 49.569 46.7552 50.1133 46.7266C50.2422 47.901 50.5788 50.2643 51.123 53.8164C51.6673 57.3542 52.4193 62.0807 53.3789 67.9961C53.3789 68.0247 53.3932 68.0391 53.4219 68.0391C53.5078 68.0391 53.5508 68.0104 53.5508 67.9531ZM77.1406 56.3086C77.599 56.3086 77.957 56.5163 78.2148 56.9316C78.4727 57.347 78.6016 57.8841 78.6016 58.543C78.6016 59.3021 78.5156 60.0612 78.3438 60.8203L76.8398 67.9102C76.6393 68.7839 76.5391 69.5573 76.5391 70.2305C76.5391 71.4622 76.8112 72.0781 77.3555 72.0781C77.6706 72.0781 78.0573 71.8991 78.5156 71.541C78.9883 71.1829 79.4753 70.7246 79.9766 70.166C80.4922 69.6074 80.972 69.0345 81.416 68.4473C82.2324 67.373 83.0059 66.0625 83.7363 64.5156C84.4668 62.9688 84.9753 61.4362 85.2617 59.918L85.9922 56.5664C86.3789 56.4518 86.8229 56.3945 87.3242 56.3945C87.8112 56.3945 88.2982 56.4518 88.7852 56.5664L86.1211 70.4453C86.0352 70.7891 85.9922 71.1471 85.9922 71.5195C85.9922 72.2357 86.1354 72.5938 86.4219 72.5938C86.7799 72.5938 87.2096 72.3431 87.7109 71.8418C88.2122 71.3262 88.6419 70.8893 89 70.5312L89.2578 70.2305C89.3151 70.2305 89.4225 70.3665 89.5801 70.6387C89.7376 70.9108 89.8164 71.1042 89.8164 71.2188C89.5729 71.6341 89.1289 72.1641 88.4844 72.8086C87.8542 73.4531 87.1667 74.026 86.4219 74.5273C85.6771 75.0143 85.0039 75.2578 84.4023 75.2578C83.944 75.2578 83.5859 75.0501 83.3281 74.6348C83.0703 74.2194 82.9414 73.6823 82.9414 73.0234C82.9414 72.5938 83.0417 71.8346 83.2422 70.7461L84.0156 66.793C83.7435 67.3086 83.1562 68.1966 82.2539 69.457C81.6667 70.2734 80.9577 71.1328 80.127 72.0352C79.3105 72.9375 78.4941 73.7038 77.6777 74.334C76.8613 74.9499 76.1667 75.2578 75.5938 75.2578C74.1615 75.2578 73.4453 74.3125 73.4453 72.4219C73.4453 71.0755 73.6458 69.5143 74.0469 67.7383L75.3359 61.7656C75.4792 60.7773 75.5508 60.2044 75.5508 60.0469C75.5508 59.3307 75.4076 58.9727 75.1211 58.9727C74.8776 58.9727 74.5124 59.2018 74.0254 59.6602C73.7962 59.8893 73.5456 60.14 73.2734 60.4121C73.0156 60.6842 72.8438 60.8776 72.7578 60.9922C72.7005 60.9922 72.5931 60.8561 72.4355 60.584C72.278 60.3118 72.1992 60.1185 72.1992 60.0039C72.4284 59.6172 72.8438 59.1374 73.4453 58.5645C74.0469 57.9772 74.6914 57.4544 75.3789 56.9961C76.0664 56.5378 76.6536 56.3086 77.1406 56.3086ZM106.23 56.3086C107.004 56.3086 107.598 56.5378 108.014 56.9961C108.429 57.4544 108.68 57.9342 108.766 58.4355C108.852 58.9368 108.895 59.5885 108.895 60.3906C108.895 60.9206 108.694 62.1953 108.293 64.2148C108.766 63.3984 109.353 62.5319 110.055 61.6152C110.757 60.6986 111.494 59.8392 112.268 59.0371C113.041 58.235 113.786 57.5833 114.502 57.082C115.218 56.5664 115.827 56.3086 116.328 56.3086C117.273 56.3086 117.918 56.5449 118.262 57.0176C118.605 57.4902 118.777 58.1992 118.777 59.1445C118.777 60.4766 118.577 62.0378 118.176 63.8281L116.758 70.4453C116.672 70.7891 116.629 71.1471 116.629 71.5195C116.629 72.2357 116.772 72.5938 117.059 72.5938C117.417 72.5938 117.846 72.3431 118.348 71.8418C118.849 71.3262 119.279 70.8893 119.637 70.5312L119.895 70.2305C119.952 70.2305 120.059 70.3665 120.217 70.6387C120.374 70.9108 120.453 71.1042 120.453 71.2188C120.21 71.6341 119.766 72.1641 119.121 72.8086C118.491 73.4531 117.803 74.026 117.059 74.5273C116.314 75.0143 115.641 75.2578 115.039 75.2578C114.581 75.2578 114.223 75.0501 113.965 74.6348C113.707 74.2194 113.578 73.6823 113.578 73.0234C113.578 72.5938 113.678 71.8346 113.879 70.7461L115.383 63.6562C115.583 62.6823 115.684 61.9089 115.684 61.3359C115.684 60.8346 115.641 60.4049 115.555 60.0469C115.483 59.6745 115.254 59.4883 114.867 59.4883C114.38 59.4883 113.743 59.832 112.955 60.5195C112.182 61.207 111.38 62.1165 110.549 63.248C109.718 64.3652 108.973 65.597 108.314 66.9434C107.656 68.2754 107.204 69.6003 106.961 70.918L106.188 75H103.309L105.715 62.7969C105.829 62.1523 105.887 61.6081 105.887 61.1641C105.887 60.0469 105.6 59.4883 105.027 59.4883C104.526 59.4883 103.889 59.8678 103.115 60.627C102.342 61.3861 101.547 62.3672 100.73 63.5703C99.9141 64.7734 99.1836 66.0553 98.5391 67.416C97.8945 68.7624 97.4505 70.0299 97.207 71.2188L96.4336 75C95.6315 75.1146 95.1445 75.1719 94.9727 75.1719C94.8294 75.1719 94.3568 75.1146 93.5547 75L96.1328 61.7656C96.276 60.7773 96.3477 60.2044 96.3477 60.0469C96.3477 59.3307 96.2044 58.9727 95.918 58.9727C95.6745 58.9727 95.3092 59.2018 94.8223 59.6602C94.5931 59.8893 94.3424 60.14 94.0703 60.4121C93.8125 60.6842 93.6406 60.8776 93.5547 60.9922C93.4974 60.9922 93.39 60.8561 93.2324 60.584C93.0749 60.3118 92.9961 60.1185 92.9961 60.0039C93.2253 59.6172 93.6406 59.1374 94.2422 58.5645C94.8438 57.9772 95.4883 57.4544 96.1758 56.9961C96.8633 56.5378 97.4505 56.3086 97.9375 56.3086C98.3958 56.3086 98.7539 56.5163 99.0117 56.9316C99.2695 57.347 99.3984 57.8841 99.3984 58.543C99.3984 59.1732 99.3125 59.9323 99.1406 60.8203L98.3672 64.8164C98.8971 63.8997 99.5059 62.9473 100.193 61.959C100.895 60.9707 101.611 60.0469 102.342 59.1875C103.087 58.3281 103.796 57.6335 104.469 57.1035C105.142 56.5736 105.729 56.3086 106.23 56.3086ZM124.406 56.9531H127.414L128.445 51.7109C128.531 51.4245 129.233 51.2812 130.551 51.2812C130.837 51.2812 131.095 51.2956 131.324 51.3242L130.25 56.9531H134.16C134.303 56.9531 134.375 57.1393 134.375 57.5117C134.375 57.8411 134.246 58.2565 133.988 58.7578H129.906L127.629 70.4453C127.543 70.7891 127.5 71.1471 127.5 71.5195C127.5 72.2357 127.643 72.5938 127.93 72.5938C128.288 72.5938 128.717 72.3431 129.219 71.8418C129.72 71.3262 130.15 70.8893 130.508 70.5312L130.766 70.2305C130.823 70.2305 130.93 70.3665 131.088 70.6387C131.245 70.9108 131.324 71.1042 131.324 71.2188C131.081 71.6341 130.637 72.1641 129.992 72.8086C129.362 73.4531 128.674 74.026 127.93 74.5273C127.185 75.0143 126.512 75.2578 125.91 75.2578C125.452 75.2578 125.094 75.0501 124.836 74.6348C124.578 74.2194 124.449 73.6823 124.449 73.0234C124.449 72.5938 124.549 71.8346 124.75 70.7461L127.07 58.7578H124.02C123.934 58.7578 123.891 58.6003 123.891 58.2852C123.891 57.9128 124.062 57.4688 124.406 56.9531ZM146.363 56.3086C147.423 56.3086 148.469 56.4948 149.5 56.8672L146.879 70.4453C146.793 70.7891 146.75 71.1471 146.75 71.5195C146.75 72.2357 146.893 72.5938 147.18 72.5938C147.538 72.5938 147.967 72.3431 148.469 71.8418C148.97 71.3262 149.4 70.8893 149.758 70.5312L150.016 70.2305C150.073 70.2305 150.18 70.3665 150.338 70.6387C150.495 70.9108 150.574 71.1042 150.574 71.2188C150.331 71.6341 149.887 72.1641 149.242 72.8086C148.612 73.4531 147.924 74.026 147.18 74.5273C146.435 75.0143 145.762 75.2578 145.16 75.2578C144.702 75.2578 144.344 75.0501 144.086 74.6348C143.828 74.2194 143.699 73.6823 143.699 73.0234C143.699 72.5794 143.799 71.8203 144 70.7461L144.15 69.9941C144.193 69.7936 144.215 69.6719 144.215 69.6289C143.986 70.0586 143.656 70.5885 143.227 71.2188C142.797 71.8346 142.303 72.4505 141.744 73.0664C141.186 73.6823 140.598 74.1979 139.982 74.6133C139.367 75.0143 138.758 75.2148 138.156 75.2148C136.896 75.2148 135.9 74.6491 135.17 73.5176C134.439 72.3861 134.074 71.0182 134.074 69.4141C134.074 67.3659 134.683 65.3249 135.9 63.291C136.717 61.916 137.691 60.7057 138.822 59.6602C139.968 58.6146 141.193 57.7982 142.496 57.2109C143.799 56.6094 145.089 56.3086 146.363 56.3086ZM144.559 58.2852C143.714 58.2852 142.861 58.5859 142.002 59.1875C141.143 59.7747 140.355 60.5697 139.639 61.5723C138.923 62.5605 138.342 63.6634 137.898 64.8809C137.469 66.084 137.254 67.2943 137.254 68.5117C137.254 71.319 137.984 72.7227 139.445 72.7227C139.961 72.7227 140.52 72.4362 141.121 71.8633C141.723 71.2904 142.317 70.5312 142.904 69.5859C143.492 68.6406 144.007 67.6165 144.451 66.5137C144.91 65.3965 145.246 64.3008 145.461 63.2266L146.32 58.8438C145.977 58.4714 145.389 58.2852 144.559 58.2852ZM166.559 56.3086C167.991 56.3086 168.707 57.2539 168.707 59.1445C168.707 60.4766 168.507 62.0378 168.105 63.8281L166.688 70.4453C166.602 70.7891 166.559 71.1471 166.559 71.5195C166.559 72.2357 166.702 72.5938 166.988 72.5938C167.346 72.5938 167.776 72.3431 168.277 71.8418C168.779 71.3262 169.208 70.8893 169.566 70.5312L169.824 70.2305C169.882 70.2305 169.989 70.3665 170.146 70.6387C170.304 70.9108 170.383 71.1042 170.383 71.2188C170.139 71.6341 169.695 72.1641 169.051 72.8086C168.421 73.4531 167.733 74.026 166.988 74.5273C166.243 75.0143 165.57 75.2578 164.969 75.2578C164.51 75.2578 164.152 75.0501 163.895 74.6348C163.637 74.2194 163.508 73.6823 163.508 73.0234C163.508 72.5938 163.608 71.8346 163.809 70.7461L165.312 63.6562C165.513 62.6823 165.613 61.9089 165.613 61.3359C165.613 60.1042 165.341 59.4883 164.797 59.4883C164.324 59.4883 163.687 59.8464 162.885 60.5625C162.083 61.2643 161.245 62.2025 160.371 63.377C159.512 64.5514 158.731 65.862 158.029 67.3086C157.327 68.7409 156.833 70.1875 156.547 71.6484L155.816 75C155.43 75.1146 154.986 75.1719 154.484 75.1719C153.997 75.1719 153.51 75.1146 153.023 75L157.664 50.9805C157.922 49.7057 158.051 48.9466 158.051 48.7031C158.051 48.1589 157.177 47.8867 155.43 47.8867C155.344 47.8867 155.301 47.8008 155.301 47.6289C155.301 47.2852 155.415 46.9987 155.645 46.7695C157.507 46.5977 159.311 46.1966 161.059 45.5664C161.23 45.6523 161.316 45.9245 161.316 46.3828C161.316 46.5833 161.13 47.6576 160.758 49.6055L157.793 64.7734C158.065 64.2865 158.688 63.3984 159.662 62.1094C160.307 61.2643 161.051 60.3978 161.896 59.5098C162.756 58.6074 163.601 57.8483 164.432 57.2324C165.277 56.6165 165.986 56.3086 166.559 56.3086ZM185.078 56.3086C186.138 56.3086 187.184 56.4948 188.215 56.8672L185.594 70.4453C185.508 70.7891 185.465 71.1471 185.465 71.5195C185.465 72.2357 185.608 72.5938 185.895 72.5938C186.253 72.5938 186.682 72.3431 187.184 71.8418C187.685 71.3262 188.115 70.8893 188.473 70.5312L188.73 70.2305C188.788 70.2305 188.895 70.3665 189.053 70.6387C189.21 70.9108 189.289 71.1042 189.289 71.2188C189.046 71.6341 188.602 72.1641 187.957 72.8086C187.327 73.4531 186.639 74.026 185.895 74.5273C185.15 75.0143 184.477 75.2578 183.875 75.2578C183.417 75.2578 183.059 75.0501 182.801 74.6348C182.543 74.2194 182.414 73.6823 182.414 73.0234C182.414 72.5794 182.514 71.8203 182.715 70.7461L182.865 69.9941C182.908 69.7936 182.93 69.6719 182.93 69.6289C182.701 70.0586 182.371 70.5885 181.941 71.2188C181.512 71.8346 181.018 72.4505 180.459 73.0664C179.9 73.6823 179.313 74.1979 178.697 74.6133C178.081 75.0143 177.473 75.2148 176.871 75.2148C175.611 75.2148 174.615 74.6491 173.885 73.5176C173.154 72.3861 172.789 71.0182 172.789 69.4141C172.789 67.3659 173.398 65.3249 174.615 63.291C175.432 61.916 176.406 60.7057 177.537 59.6602C178.683 58.6146 179.908 57.7982 181.211 57.2109C182.514 56.6094 183.803 56.3086 185.078 56.3086ZM183.273 58.2852C182.428 58.2852 181.576 58.5859 180.717 59.1875C179.857 59.7747 179.07 60.5697 178.354 61.5723C177.637 62.5605 177.057 63.6634 176.613 64.8809C176.184 66.084 175.969 67.2943 175.969 68.5117C175.969 71.319 176.699 72.7227 178.16 72.7227C178.676 72.7227 179.234 72.4362 179.836 71.8633C180.438 71.2904 181.032 70.5312 181.619 69.5859C182.206 68.6406 182.722 67.6165 183.166 66.5137C183.624 65.3965 183.961 64.3008 184.176 63.2266L185.035 58.8438C184.691 58.4714 184.104 58.2852 183.273 58.2852ZM197.496 56.3086C197.954 56.3086 198.312 56.5163 198.57 56.9316C198.828 57.347 198.957 57.8841 198.957 58.543C198.957 59.1732 198.871 59.9323 198.699 60.8203L197.926 64.7734C198.198 64.2865 198.821 63.3984 199.795 62.1094C200.439 61.2643 201.184 60.3978 202.029 59.5098C202.889 58.6074 203.734 57.8483 204.564 57.2324C205.41 56.6165 206.118 56.3086 206.691 56.3086C208.124 56.3086 208.84 57.2539 208.84 59.1445C208.84 60.4766 208.639 62.0378 208.238 63.8281L206.82 70.4453C206.734 70.7891 206.691 71.1471 206.691 71.5195C206.691 72.2357 206.835 72.5938 207.121 72.5938C207.479 72.5938 207.909 72.3431 208.41 71.8418C208.911 71.3262 209.341 70.8893 209.699 70.5312L209.957 70.2305C210.014 70.2305 210.122 70.3665 210.279 70.6387C210.437 70.9108 210.516 71.1042 210.516 71.2188C210.272 71.6341 209.828 72.1641 209.184 72.8086C208.553 73.4531 207.866 74.026 207.121 74.5273C206.376 75.0143 205.703 75.2578 205.102 75.2578C204.643 75.2578 204.285 75.0501 204.027 74.6348C203.77 74.2194 203.641 73.6823 203.641 73.0234C203.641 72.5938 203.741 71.8346 203.941 70.7461L205.445 63.6562C205.646 62.6823 205.746 61.9089 205.746 61.3359C205.746 60.1042 205.474 59.4883 204.93 59.4883C204.457 59.4883 203.82 59.8464 203.018 60.5625C202.215 61.2643 201.378 62.2025 200.504 63.377C199.645 64.5514 198.864 65.862 198.162 67.3086C197.46 68.7409 196.966 70.1875 196.68 71.6484L195.949 75C195.562 75.1146 195.118 75.1719 194.617 75.1719C194.13 75.1719 193.643 75.1146 193.156 75L195.691 61.7656C195.835 60.7773 195.906 60.2044 195.906 60.0469C195.906 59.3307 195.763 58.9727 195.477 58.9727C195.233 58.9727 194.868 59.2018 194.381 59.6602C194.152 59.8893 193.901 60.14 193.629 60.4121C193.371 60.6842 193.199 60.8776 193.113 60.9922C193.056 60.9922 192.949 60.8561 192.791 60.584C192.633 60.3118 192.555 60.1185 192.555 60.0039C192.784 59.6172 193.199 59.1374 193.801 58.5645C194.402 57.9772 195.047 57.4544 195.734 56.9961C196.422 56.5378 197.009 56.3086 197.496 56.3086ZM225.125 56.3086C226.185 56.3086 227.23 56.4948 228.262 56.8672L225.641 70.4453C225.555 70.7891 225.512 71.1471 225.512 71.5195C225.512 72.2357 225.655 72.5938 225.941 72.5938C226.299 72.5938 226.729 72.3431 227.23 71.8418C227.732 71.3262 228.161 70.8893 228.52 70.5312L228.777 70.2305C228.835 70.2305 228.942 70.3665 229.1 70.6387C229.257 70.9108 229.336 71.1042 229.336 71.2188C229.092 71.6341 228.648 72.1641 228.004 72.8086C227.374 73.4531 226.686 74.026 225.941 74.5273C225.197 75.0143 224.523 75.2578 223.922 75.2578C223.464 75.2578 223.105 75.0501 222.848 74.6348C222.59 74.2194 222.461 73.6823 222.461 73.0234C222.461 72.5794 222.561 71.8203 222.762 70.7461L222.912 69.9941C222.955 69.7936 222.977 69.6719 222.977 69.6289C222.747 70.0586 222.418 70.5885 221.988 71.2188C221.559 71.8346 221.064 72.4505 220.506 73.0664C219.947 73.6823 219.36 74.1979 218.744 74.6133C218.128 75.0143 217.52 75.2148 216.918 75.2148C215.658 75.2148 214.662 74.6491 213.932 73.5176C213.201 72.3861 212.836 71.0182 212.836 69.4141C212.836 67.3659 213.445 65.3249 214.662 63.291C215.479 61.916 216.452 60.7057 217.584 59.6602C218.73 58.6146 219.954 57.7982 221.258 57.2109C222.561 56.6094 223.85 56.3086 225.125 56.3086ZM223.32 58.2852C222.475 58.2852 221.623 58.5859 220.764 59.1875C219.904 59.7747 219.117 60.5697 218.4 61.5723C217.684 62.5605 217.104 63.6634 216.66 64.8809C216.23 66.084 216.016 67.2943 216.016 68.5117C216.016 71.319 216.746 72.7227 218.207 72.7227C218.723 72.7227 219.281 72.4362 219.883 71.8633C220.484 71.2904 221.079 70.5312 221.666 69.5859C222.253 68.6406 222.769 67.6165 223.213 66.5137C223.671 65.3965 224.008 64.3008 224.223 63.2266L225.082 58.8438C224.738 58.4714 224.151 58.2852 223.32 58.2852Z" fill="white"/>
<path d="M0 14.4961C6.30012 20.0984 15.0791 19.1979 30.687 15.1421C32.2497 14.736 33.9168 14.9601 35.3059 15.7832L61.0905 31.063L35.3304 19.6141C33.9205 18.9874 32.3183 18.9353 30.8588 19.4358C12.5496 25.7159 4.73674 24.7283 0 14.4961Z" fill="url(#paint8_radial_692_1778)"/>
<path d="M16.5669 25.8858C22.7094 27.5488 34.4861 19.1752 43.5027 24.2129C35.7991 20.3448 24.9274 34.7378 16.5669 25.8858Z" fill="url(#paint9_radial_692_1778)"/>
<path d="M42.4528 34.1693C40.4746 32.9379 39.8039 31.791 39.5364 30.2054C39.314 28.8871 40.2138 27.6374 41.514 27.3262C46.4064 26.1551 49.6595 27.3172 54.8779 31.063C50.3759 26.3362 46.8249 25.2844 39.6469 25.78C38.7972 25.8387 38.0191 26.2751 37.5081 26.9564L36.1669 28.7446C35.6047 29.4943 35.6307 30.5432 36.2784 31.2205C38.4425 33.4837 39.9798 34.1156 42.4528 34.1693Z" fill="url(#paint10_radial_692_1778)"/>
<path d="M61.0905 28.9921C48.8725 19.5072 53.131 18.6378 60.0551 10.3543C56.6285 8.93238 54.8937 8.83857 52.8071 12.4252C51.2879 8.29387 49.7783 6.42726 45.559 4.14173C43.8524 8.52031 44.6321 10.6991 46.5945 14.4961C42.9378 12.0347 40.7471 11.3823 36.2402 13.4606C46.3046 17.727 45.2926 18.8748 61.0905 28.9921Z" fill="url(#paint11_radial_692_1778)"/>
<path d="M78.6929 22.7441C78.6929 22.1918 79.1406 21.7441 79.6929 21.7441H79.7638C80.3161 21.7441 80.7638 22.1918 80.7638 22.7441V25.9213C80.7638 26.4735 80.3161 26.9213 79.7638 26.9213H74.4803C73.3757 26.9213 72.4803 26.0258 72.4803 24.9213V19.6024C72.4803 18.4978 73.3757 17.6024 74.4803 17.6024H78.7281C80.6137 17.6024 82.4755 18.023 84.178 18.8337V18.8337C85.2965 19.3663 86.1249 20.3629 86.4441 21.5599L88.3399 28.6695C89.2063 31.9182 86.6836 35.0788 83.3237 34.9544L68.0679 34.3894C64.7776 34.2675 62.2002 31.5169 62.2923 28.2256L62.6948 13.8426C62.7856 10.5955 65.4441 8.01038 68.6924 8.01038H83.0387C86.0229 8.01038 88.8896 9.21712 90.915 11.4088C101.807 23.194 109.097 33.3225 115.395 32.2299C115.685 32.1796 115.968 32.3916 115.968 32.686V32.686C115.968 32.9325 115.766 33.1318 115.519 33.1285C109.37 33.045 105.37 32.4313 87.653 13.254C86.5367 12.0456 85.0793 11.1983 83.4735 10.8414L77.8584 9.59364C77.0431 9.41248 76.199 9.4035 75.3801 9.56728L71.091 10.4251C68.2865 10.986 66.2677 13.4485 66.2677 16.3086V27.0984C66.2677 29.8599 68.5063 32.0984 71.2677 32.0984H80.9055C83.1146 32.0984 84.9055 30.3076 84.9055 28.0984V22.6378C84.9055 20.4287 83.1146 18.6378 80.9055 18.6378H76.5512C75.4466 18.6378 74.5512 19.5332 74.5512 20.6378V24.8858C74.5512 25.4381 74.9989 25.8858 75.5512 25.8858H77.6929C78.2452 25.8858 78.6929 25.4381 78.6929 24.8858V22.7441Z" fill="url(#paint12_radial_692_1778)"/>
<path d="M104.412 33.0631C96.4743 29.9513 88.3242 12.4066 78.6929 13.4606C91.6665 19.2326 92.9183 31.4785 104.412 33.0631Z" fill="url(#paint13_radial_692_1778)"/>
<path d="M111.827 30.0276C106.485 21.6827 106.361 16.9143 110.791 8.28346C105.363 9.71409 97.6256 19.5114 111.827 30.0276Z" fill="url(#paint14_radial_692_1778)"/>
<path d="M118.039 10.3543C113.102 14.0549 110.405 23.2793 118.039 32.0984C106.33 25.6888 109.793 12.7713 118.039 0V10.3543Z" fill="url(#paint15_radial_692_1778)"/>
<path d="M236.079 14.4961C229.778 20.0984 221 19.1979 205.392 15.1421C203.829 14.736 202.162 14.9601 200.773 15.7832L174.988 31.063L200.748 19.6141C202.158 18.9874 203.76 18.9353 205.22 19.4358C223.529 25.7159 231.342 24.7283 236.079 14.4961Z" fill="url(#paint16_radial_692_1778)"/>
<path d="M219.512 25.8858C213.369 27.5488 201.593 19.1752 192.576 24.2129C200.279 20.3448 211.151 34.7378 219.512 25.8858Z" fill="url(#paint17_radial_692_1778)"/>
<path d="M193.626 34.1693C195.604 32.9379 196.275 31.791 196.542 30.2054C196.765 28.8871 195.865 27.6374 194.565 27.3262C189.672 26.1551 186.419 27.3172 181.201 31.063C185.703 26.3362 189.254 25.2844 196.432 25.78C197.281 25.8387 198.06 26.2751 198.571 26.9564L199.912 28.7446C200.474 29.4943 200.448 30.5432 199.8 31.2205C197.636 33.4837 196.099 34.1156 193.626 34.1693Z" fill="url(#paint18_radial_692_1778)"/>
<path d="M174.988 28.9921C187.206 19.5072 182.948 18.6378 176.024 10.3543C179.45 8.93238 181.185 8.83857 183.272 12.4252C184.791 8.29387 186.3 6.42726 190.52 4.14173C192.226 8.52031 191.446 10.6991 189.484 14.4961C193.141 12.0347 195.331 11.3823 199.838 13.4606C189.774 17.727 190.786 18.8748 174.988 28.9921Z" fill="url(#paint19_radial_692_1778)"/>
<path d="M157.386 22.7441C157.386 22.1918 156.938 21.7441 156.386 21.7441H156.315C155.763 21.7441 155.315 22.1918 155.315 22.7441V25.9213C155.315 26.4735 155.763 26.9213 156.315 26.9213H161.598C162.703 26.9213 163.598 26.0258 163.598 24.9213V19.6024C163.598 18.4978 162.703 17.6024 161.598 17.6024H157.351C155.465 17.6024 153.603 18.023 151.901 18.8337V18.8337C150.782 19.3663 149.954 20.3629 149.635 21.5599L147.739 28.6695C146.872 31.9182 149.395 35.0788 152.755 34.9544L168.011 34.3894C171.301 34.2675 173.878 31.5169 173.786 28.2256L173.384 13.8426C173.293 10.5955 170.635 8.01038 167.386 8.01038H153.04C150.056 8.01038 147.189 9.21712 145.164 11.4088C134.272 23.194 126.982 33.3225 120.683 32.2299C120.393 32.1796 120.11 32.3916 120.11 32.686V32.686C120.11 32.9325 120.313 33.1318 120.559 33.1285C126.708 33.045 130.709 32.4313 148.426 13.254C149.542 12.0456 150.999 11.1983 152.605 10.8414L158.22 9.59364C159.035 9.41248 159.88 9.4035 160.698 9.56728L164.988 10.4251C167.792 10.986 169.811 13.4485 169.811 16.3086V27.0984C169.811 29.8599 167.572 32.0984 164.811 32.0984H155.173C152.964 32.0984 151.173 30.3076 151.173 28.0984V22.6378C151.173 20.4287 152.964 18.6378 155.173 18.6378H159.527C160.632 18.6378 161.527 19.5332 161.527 20.6378V24.8858C161.527 25.4381 161.08 25.8858 160.527 25.8858H158.386C157.833 25.8858 157.386 25.4381 157.386 24.8858V22.7441Z" fill="url(#paint20_radial_692_1778)"/>
<path d="M131.666 33.0631C139.604 29.9513 147.754 12.4066 157.386 13.4606C144.412 19.2326 143.16 31.4785 131.666 33.0631Z" fill="url(#paint21_radial_692_1778)"/>
<path d="M124.252 30.0276C129.594 21.6827 129.718 16.9143 125.287 8.28346C130.716 9.71409 138.453 19.5114 124.252 30.0276Z" fill="url(#paint22_radial_692_1778)"/>
<path d="M118.039 10.3543C122.976 14.0549 125.673 23.2793 118.039 32.0984C129.749 25.6888 126.286 12.7713 118.039 0V10.3543Z" fill="url(#paint23_radial_692_1778)"/>
<defs>
<radialGradient id="paint0_radial_692_1778" cx="0" cy="0" r="1" gradientUnits="userSpaceOnUse" gradientTransform="translate(79.7285 111.309) scale(38.311 20.1909)">
<stop stop-color="#E1E1E1"/>
<stop offset="1" stop-color="#FFF4DA"/>
</radialGradient>
<radialGradient id="paint1_radial_692_1778" cx="0" cy="0" r="1" gradientUnits="userSpaceOnUse" gradientTransform="translate(79.7285 111.309) scale(38.311 20.1909)">
<stop stop-color="#E1E1E1"/>
<stop offset="1" stop-color="#FFF4DA"/>
</radialGradient>
<radialGradient id="paint2_radial_692_1778" cx="0" cy="0" r="1" gradientUnits="userSpaceOnUse" gradientTransform="translate(79.7285 111.309) scale(38.311 20.1909)">
<stop stop-color="#E1E1E1"/>
<stop offset="1" stop-color="#FFF4DA"/>
</radialGradient>
<radialGradient id="paint3_radial_692_1778" cx="0" cy="0" r="1" gradientUnits="userSpaceOnUse" gradientTransform="translate(79.7285 111.309) scale(38.311 20.1909)">
<stop stop-color="#E1E1E1"/>
<stop offset="1" stop-color="#FFF4DA"/>
</radialGradient>
<radialGradient id="paint4_radial_692_1778" cx="0" cy="0" r="1" gradientUnits="userSpaceOnUse" gradientTransform="translate(156.351 111.309) rotate(180) scale(38.311 20.1909)">
<stop stop-color="#E1E1E1"/>
<stop offset="1" stop-color="#FFF4DA"/>
</radialGradient>
<radialGradient id="paint5_radial_692_1778" cx="0" cy="0" r="1" gradientUnits="userSpaceOnUse" gradientTransform="translate(156.351 111.309) rotate(180) scale(38.311 20.1909)">
<stop stop-color="#E1E1E1"/>
<stop offset="1" stop-color="#FFF4DA"/>
</radialGradient>
<radialGradient id="paint6_radial_692_1778" cx="0" cy="0" r="1" gradientUnits="userSpaceOnUse" gradientTransform="translate(156.351 111.309) rotate(180) scale(38.311 20.1909)">
<stop stop-color="#E1E1E1"/>
<stop offset="1" stop-color="#FFF4DA"/>
</radialGradient>
<radialGradient id="paint7_radial_692_1778" cx="0" cy="0" r="1" gradientUnits="userSpaceOnUse" gradientTransform="translate(156.351 111.309) rotate(180) scale(38.311 20.1909)">
<stop stop-color="#E1E1E1"/>
<stop offset="1" stop-color="#FFF4DA"/>
</radialGradient>
<radialGradient id="paint8_radial_692_1778" cx="0" cy="0" r="1" gradientUnits="userSpaceOnUse" gradientTransform="translate(59.0197 17.6024) scale(59.0197 17.6024)">
<stop stop-color="#E1E1E1"/>
<stop offset="1" stop-color="#FFF4DA"/>
</radialGradient>
<radialGradient id="paint9_radial_692_1778" cx="0" cy="0" r="1" gradientUnits="userSpaceOnUse" gradientTransform="translate(59.0197 17.6024) scale(59.0197 17.6024)">
<stop stop-color="#E1E1E1"/>
<stop offset="1" stop-color="#FFF4DA"/>
</radialGradient>
<radialGradient id="paint10_radial_692_1778" cx="0" cy="0" r="1" gradientUnits="userSpaceOnUse" gradientTransform="translate(59.0197 17.6024) scale(59.0197 17.6024)">
<stop stop-color="#E1E1E1"/>
<stop offset="1" stop-color="#FFF4DA"/>
</radialGradient>
<radialGradient id="paint11_radial_692_1778" cx="0" cy="0" r="1" gradientUnits="userSpaceOnUse" gradientTransform="translate(59.0197 17.6024) scale(59.0197 17.6024)">
<stop stop-color="#E1E1E1"/>
<stop offset="1" stop-color="#FFF4DA"/>
</radialGradient>
<radialGradient id="paint12_radial_692_1778" cx="0" cy="0" r="1" gradientUnits="userSpaceOnUse" gradientTransform="translate(59.0197 17.6024) scale(59.0197 17.6024)">
<stop stop-color="#E1E1E1"/>
<stop offset="1" stop-color="#FFF4DA"/>
</radialGradient>
<radialGradient id="paint13_radial_692_1778" cx="0" cy="0" r="1" gradientUnits="userSpaceOnUse" gradientTransform="translate(59.0197 17.6024) scale(59.0197 17.6024)">
<stop stop-color="#E1E1E1"/>
<stop offset="1" stop-color="#FFF4DA"/>
</radialGradient>
<radialGradient id="paint14_radial_692_1778" cx="0" cy="0" r="1" gradientUnits="userSpaceOnUse" gradientTransform="translate(59.0197 17.6024) scale(59.0197 17.6024)">
<stop stop-color="#E1E1E1"/>
<stop offset="1" stop-color="#FFF4DA"/>
</radialGradient>
<radialGradient id="paint15_radial_692_1778" cx="0" cy="0" r="1" gradientUnits="userSpaceOnUse" gradientTransform="translate(59.0197 17.6024) scale(59.0197 17.6024)">
<stop stop-color="#E1E1E1"/>
<stop offset="1" stop-color="#FFF4DA"/>
</radialGradient>
<radialGradient id="paint16_radial_692_1778" cx="0" cy="0" r="1" gradientUnits="userSpaceOnUse" gradientTransform="translate(177.059 17.6024) rotate(180) scale(59.0197 17.6024)">
<stop stop-color="#E1E1E1"/>
<stop offset="1" stop-color="#FFF4DA"/>
</radialGradient>
<radialGradient id="paint17_radial_692_1778" cx="0" cy="0" r="1" gradientUnits="userSpaceOnUse" gradientTransform="translate(177.059 17.6024) rotate(180) scale(59.0197 17.6024)">
<stop stop-color="#E1E1E1"/>
<stop offset="1" stop-color="#FFF4DA"/>
</radialGradient>
<radialGradient id="paint18_radial_692_1778" cx="0" cy="0" r="1" gradientUnits="userSpaceOnUse" gradientTransform="translate(177.059 17.6024) rotate(180) scale(59.0197 17.6024)">
<stop stop-color="#E1E1E1"/>
<stop offset="1" stop-color="#FFF4DA"/>
</radialGradient>
<radialGradient id="paint19_radial_692_1778" cx="0" cy="0" r="1" gradientUnits="userSpaceOnUse" gradientTransform="translate(177.059 17.6024) rotate(180) scale(59.0197 17.6024)">
<stop stop-color="#E1E1E1"/>
<stop offset="1" stop-color="#FFF4DA"/>
</radialGradient>
<radialGradient id="paint20_radial_692_1778" cx="0" cy="0" r="1" gradientUnits="userSpaceOnUse" gradientTransform="translate(177.059 17.6024) rotate(180) scale(59.0197 17.6024)">
<stop stop-color="#E1E1E1"/>
<stop offset="1" stop-color="#FFF4DA"/>
</radialGradient>
<radialGradient id="paint21_radial_692_1778" cx="0" cy="0" r="1" gradientUnits="userSpaceOnUse" gradientTransform="translate(177.059 17.6024) rotate(180) scale(59.0197 17.6024)">
<stop stop-color="#E1E1E1"/>
<stop offset="1" stop-color="#FFF4DA"/>
</radialGradient>
<radialGradient id="paint22_radial_692_1778" cx="0" cy="0" r="1" gradientUnits="userSpaceOnUse" gradientTransform="translate(177.059 17.6024) rotate(180) scale(59.0197 17.6024)">
<stop stop-color="#E1E1E1"/>
<stop offset="1" stop-color="#FFF4DA"/>
</radialGradient>
<radialGradient id="paint23_radial_692_1778" cx="0" cy="0" r="1" gradientUnits="userSpaceOnUse" gradientTransform="translate(177.059 17.6024) rotate(180) scale(59.0197 17.6024)">
<stop stop-color="#E1E1E1"/>
<stop offset="1" stop-color="#FFF4DA"/>
</radialGradient>
</defs>
</svg>
