<svg width="237" height="132" viewBox="0 0 237 132" fill="none" xmlns="http://www.w3.org/2000/svg">
<path d="M50.713 108.06C49.3894 108.487 47.9219 108.504 46.7174 107.809C44.5799 106.575 44.1417 105.154 44.5239 102.508V102.508C42.8803 103.056 42.0634 104.953 43.0344 106.388C43.9981 107.812 45.0942 108.974 46.6272 110.246C47.9176 111.316 49.57 111.855 51.2463 111.812C56.4411 111.679 59.0354 110.851 62.1261 108.72C61.1055 110.641 61.1623 111.76 61.9889 113.6C62.061 113.76 62.2573 113.822 62.4081 113.731C64.083 112.73 65.0044 111.892 66.2679 109.756C66.2159 114.032 66.9848 113.977 70.4096 114.933C67.5199 110.86 68.053 109.221 70.1985 106.254C70.9963 105.151 72.1264 104.331 73.4058 103.866L78.5781 101.985C81.3347 100.982 84.3491 100.942 87.1317 101.869L104.174 107.55C104.308 107.435 104.443 107.326 104.579 107.223V104.508C104.579 103.403 105.474 102.508 106.579 102.508H108.791C109.896 102.508 110.791 103.403 110.791 104.508V105.614H111.827V103.472C111.827 102.368 110.931 101.472 109.827 101.472H105.543C104.439 101.472 103.543 102.368 103.543 103.472V106.65C98.7741 103.748 93.5326 101.584 86.7262 99.7769C82.8461 98.747 78.7539 99.0145 74.9333 100.247L50.713 108.06Z" fill="url(#paint0_radial_692_1882)"/>
<path fill-rule="evenodd" clip-rule="evenodd" d="M118.04 111.827V108.721C115.458 105.74 114.164 105.799 111.827 105.614H110.791C108.063 105.589 106.223 105.979 104.579 107.223V107.685L104.174 107.55C103.27 108.327 102.41 109.382 101.473 110.791C94.423 108.167 92.2423 105.859 84.6309 104.117C82.7932 103.696 80.8384 103.854 79.1738 104.739C77.1411 105.82 75.7483 107.075 74.4009 109.235C73.7981 110.201 73.7054 111.42 74.2151 112.438C75.05 114.107 76.2503 115.417 79.1381 117.128C80.1191 117.709 81.351 117.62 82.2789 116.957L86.2804 114.099C87.2189 113.429 87.4133 112.09 86.6216 111.251C84.8307 109.354 83.7232 109.09 81.7994 109.756C83.0247 110.067 83.7478 110.456 84.3965 111.688C84.7601 112.378 84.5523 113.216 84.0005 113.767L82.2759 115.492C81.3711 116.397 79.9668 116.664 78.906 115.948C77.392 114.927 76.4786 113.802 75.488 112.283C74.8942 111.372 74.8544 110.185 75.4804 109.296C77.1885 106.871 79.0768 106.022 82.8348 105.614C87.5143 105.758 93.9739 109.592 101.473 112.862C101.611 115.305 101.827 117.608 105.431 119.531C106.15 119.915 107.027 119.733 107.604 119.156L110.252 116.508C110.55 116.21 110.55 115.727 110.252 115.429V115.429C109.972 115.149 109.522 115.134 109.211 115.381C104.883 118.812 103.35 117.017 102.508 112.862C108.785 113.743 111.601 112.063 112.862 106.65H114.933L118.04 111.827ZM102.508 111.827C105.324 107.593 107.417 106.549 111.827 106.65C109.582 111.782 107.624 113.001 102.508 111.827Z" fill="url(#paint1_radial_692_1882)"/>
<path d="M118.04 114.933V111.827C116.112 115.763 116.189 118.074 110.791 119.075C111.96 121.038 112.806 121.636 114.933 121.146C115.325 125.201 115.718 127.472 118.04 131.5V125.287C116.703 121.107 116.953 118.865 118.04 114.933Z" fill="url(#paint2_radial_692_1882)"/>
<path d="M115.969 98.3662C116.06 94.792 116.696 93.3936 118.04 91.1182V105.614C115.723 100.811 114.342 99.4138 111.827 99.4015C113.365 97.8121 114.277 97.3638 115.969 98.3662Z" fill="url(#paint3_radial_692_1882)"/>
<path d="M185.366 108.06C186.69 108.487 188.157 108.504 189.362 107.809C191.499 106.575 191.937 105.154 191.555 102.508V102.508C193.199 103.056 194.016 104.953 193.045 106.388C192.081 107.812 190.985 108.974 189.452 110.246C188.161 111.316 186.509 111.855 184.833 111.812C179.638 111.679 177.044 110.851 173.953 108.72C174.974 110.641 174.917 111.76 174.09 113.6C174.018 113.76 173.822 113.822 173.671 113.731C171.996 112.73 171.075 111.892 169.811 109.756C169.863 114.032 169.094 113.977 165.669 114.933C168.559 110.86 168.026 109.221 165.881 106.254C165.083 105.151 163.953 104.331 162.673 103.866L157.501 101.985C154.744 100.982 151.73 100.942 148.947 101.869L131.905 107.55C131.771 107.435 131.636 107.326 131.5 107.223V104.508C131.5 103.403 130.605 102.508 129.5 102.508H127.288C126.183 102.508 125.288 103.403 125.288 104.508V105.614H124.252V103.472C124.252 102.368 125.148 101.472 126.252 101.472H130.536C131.64 101.472 132.536 102.368 132.536 103.472V106.65C137.305 103.748 142.547 101.584 149.353 99.7769C153.233 98.747 157.325 99.0145 161.146 100.247L185.366 108.06Z" fill="url(#paint4_radial_692_1882)"/>
<path fill-rule="evenodd" clip-rule="evenodd" d="M118.04 111.827V108.721C120.621 105.74 121.915 105.799 124.252 105.614H125.288C128.016 105.589 129.856 105.979 131.5 107.223V107.685L131.905 107.55C132.809 108.327 133.669 109.382 134.607 110.791C141.656 108.167 143.837 105.859 151.448 104.117C153.286 103.696 155.241 103.854 156.905 104.739C158.938 105.82 160.331 107.075 161.678 109.235C162.281 110.201 162.374 111.42 161.864 112.438C161.029 114.107 159.829 115.417 156.941 117.128C155.96 117.709 154.728 117.62 153.8 116.957L149.799 114.099C148.86 113.429 148.666 112.09 149.457 111.251C151.248 109.354 152.356 109.09 154.28 109.756C153.054 110.067 152.331 110.456 151.683 111.688C151.319 112.378 151.527 113.216 152.079 113.767L153.803 115.492C154.708 116.397 156.112 116.664 157.173 115.948C158.687 114.927 159.601 113.802 160.591 112.283C161.185 111.372 161.225 110.185 160.599 109.296C158.891 106.871 157.002 106.022 153.244 105.614C148.565 105.758 142.105 109.592 134.607 112.862C134.468 115.305 134.252 117.608 130.648 119.531C129.929 119.915 129.052 119.733 128.475 119.156L125.827 116.508C125.529 116.21 125.529 115.727 125.827 115.429V115.429C126.107 115.149 126.557 115.134 126.868 115.381C131.196 118.812 132.729 117.017 133.571 112.862C127.294 113.743 124.479 112.063 123.217 106.65H121.146L118.04 111.827ZM133.571 111.827C130.755 107.593 128.662 106.549 124.252 106.65C126.497 111.782 128.455 113.001 133.571 111.827Z" fill="url(#paint5_radial_692_1882)"/>
<path d="M118.04 114.933V111.827C119.967 115.763 119.89 118.074 125.288 119.075C124.119 121.038 123.273 121.636 121.146 121.146C120.755 125.201 120.362 127.472 118.04 131.5V125.287C119.376 121.107 119.126 118.865 118.04 114.933Z" fill="url(#paint6_radial_692_1882)"/>
<path d="M120.11 98.3662C120.019 94.792 119.383 93.3936 118.04 91.1182V105.614C120.356 100.811 121.737 99.4138 124.252 99.4015C122.714 97.8121 121.802 97.3638 120.11 98.3662Z" fill="url(#paint7_radial_692_1882)"/>
<path d="M41.5508 67.9531L49.1992 52.5273L51.9062 46.7266C52.6797 46.8125 53.8112 46.8555 55.3008 46.8555C55.8021 46.8555 56.3607 46.8411 56.9766 46.8125C57.6068 46.7839 58.2943 46.7409 59.0391 46.6836C59.0964 46.8268 59.0964 47.0703 59.0391 47.4141C58.9818 47.7578 58.9102 47.9297 58.8242 47.9297C58.4518 47.9297 58.0579 48.0299 57.6426 48.2305C57.2272 48.431 56.9193 48.6745 56.7188 48.9609C56.4609 49.3047 56.2676 49.7201 56.1387 50.207C56.0241 50.651 55.888 51.5104 55.7305 52.7852L54.0547 69.1992C53.8828 70.6745 53.7969 71.806 53.7969 72.5938C53.7969 73.1953 54.0189 73.5749 54.4629 73.7324C54.7207 73.8184 55.0286 73.8828 55.3867 73.9258C55.7591 73.9544 56.0599 73.9688 56.2891 73.9688C56.3464 73.9688 56.375 74.0977 56.375 74.3555C56.375 74.6992 56.2891 74.957 56.1172 75.1289C54.7852 75.0573 53.7253 75.0072 52.9375 74.9785C52.1641 74.9355 51.6628 74.9141 51.4336 74.9141C51.3906 74.9141 50.9896 74.9355 50.2305 74.9785C49.4857 75.0072 48.3828 75.0573 46.9219 75.1289C46.8646 75.0286 46.8359 74.957 46.8359 74.9141C46.8359 74.7422 46.8717 74.5417 46.9434 74.3125C47.015 74.0833 47.0794 73.9688 47.1367 73.9688C47.3945 73.9688 47.7168 73.9401 48.1035 73.8828C48.5046 73.8112 48.877 73.7181 49.2207 73.6035C49.5645 73.4746 49.7721 73.3385 49.8438 73.1953C50.1302 72.5365 50.3307 71.9277 50.4453 71.3691C50.474 71.2116 50.5169 70.8678 50.5742 70.3379C50.6315 69.8079 50.6745 69.4714 50.7031 69.3281L52.4219 52.5703C52.5078 51.7109 52.5508 51.1523 52.5508 50.8945C52.5508 50.7227 52.4648 50.6367 52.293 50.6367C52.2786 50.6367 52.2357 50.694 52.1641 50.8086L40.9492 73.668C40.806 73.9258 40.5339 74.2266 40.1328 74.5703C39.7318 74.9141 39.3594 75.0859 39.0156 75.0859C38.8867 75.0859 38.7721 75.0573 38.6719 75L35.0195 50.6367C35.0052 50.5794 34.9766 50.5508 34.9336 50.5508C34.8477 50.5508 34.8047 50.5794 34.8047 50.6367L29.7773 69.1562C29.2331 71.1328 28.9609 72.3216 28.9609 72.7227C28.9609 72.9232 29.1686 73.1237 29.584 73.3242C30.0137 73.5104 30.4648 73.668 30.9375 73.7969C31.4245 73.9115 31.7396 73.9688 31.8828 73.9688C31.9401 73.9688 31.9688 74.0547 31.9688 74.2266C31.9688 74.556 31.8971 74.8568 31.7539 75.1289C30.4219 75.0573 29.3835 75.0072 28.6387 74.9785C27.8939 74.9355 27.4427 74.9141 27.2852 74.9141C27.2422 74.9141 26.8268 74.9355 26.0391 74.9785C25.2513 75.0072 24.0911 75.0573 22.5586 75.1289C22.5013 75.0716 22.4727 74.9284 22.4727 74.6992C22.4727 74.2122 22.5729 73.9688 22.7734 73.9688C23.0026 73.9688 23.3678 73.9186 23.8691 73.8184C24.3704 73.7038 24.8431 73.5677 25.2871 73.4102C25.7454 73.2383 26.0104 73.0807 26.082 72.9375C26.5833 71.9922 27.056 70.7174 27.5 69.1133L32.1836 52.3125C32.2982 51.7539 32.4199 51.2025 32.5488 50.6582C32.6777 50.0996 32.7422 49.5625 32.7422 49.0469C32.7422 48.832 32.5417 48.6387 32.1406 48.4668C31.7396 48.2949 31.3027 48.1589 30.8301 48.0586C30.3717 47.944 30.0352 47.8867 29.8203 47.8867C29.763 47.8867 29.7344 47.7865 29.7344 47.5859C29.7344 47.1133 29.8203 46.8268 29.9922 46.7266C31.0521 46.7552 31.9186 46.7767 32.5918 46.791C33.265 46.8053 33.7448 46.8125 34.0312 46.8125C34.8477 46.8125 35.5924 46.8053 36.2656 46.791C36.9531 46.7767 37.569 46.7552 38.1133 46.7266C38.2422 47.901 38.5788 50.2643 39.123 53.8164C39.6673 57.3542 40.4193 62.0807 41.3789 67.9961C41.3789 68.0247 41.3932 68.0391 41.4219 68.0391C41.5078 68.0391 41.5508 68.0104 41.5508 67.9531ZM65.1406 56.3086C65.599 56.3086 65.957 56.5163 66.2148 56.9316C66.4727 57.347 66.6016 57.8841 66.6016 58.543C66.6016 59.3021 66.5156 60.0612 66.3438 60.8203L64.8398 67.9102C64.6393 68.7839 64.5391 69.5573 64.5391 70.2305C64.5391 71.4622 64.8112 72.0781 65.3555 72.0781C65.6706 72.0781 66.0573 71.8991 66.5156 71.541C66.9883 71.1829 67.4753 70.7246 67.9766 70.166C68.4922 69.6074 68.972 69.0345 69.416 68.4473C70.2324 67.373 71.0059 66.0625 71.7363 64.5156C72.4668 62.9688 72.9753 61.4362 73.2617 59.918L73.9922 56.5664C74.3789 56.4518 74.8229 56.3945 75.3242 56.3945C75.8112 56.3945 76.2982 56.4518 76.7852 56.5664L74.1211 70.4453C74.0352 70.7891 73.9922 71.1471 73.9922 71.5195C73.9922 72.2357 74.1354 72.5938 74.4219 72.5938C74.7799 72.5938 75.2096 72.3431 75.7109 71.8418C76.2122 71.3262 76.6419 70.8893 77 70.5312L77.2578 70.2305C77.3151 70.2305 77.4225 70.3665 77.5801 70.6387C77.7376 70.9108 77.8164 71.1042 77.8164 71.2188C77.5729 71.6341 77.1289 72.1641 76.4844 72.8086C75.8542 73.4531 75.1667 74.026 74.4219 74.5273C73.6771 75.0143 73.0039 75.2578 72.4023 75.2578C71.944 75.2578 71.5859 75.0501 71.3281 74.6348C71.0703 74.2194 70.9414 73.6823 70.9414 73.0234C70.9414 72.5938 71.0417 71.8346 71.2422 70.7461L72.0156 66.793C71.7435 67.3086 71.1562 68.1966 70.2539 69.457C69.6667 70.2734 68.9577 71.1328 68.127 72.0352C67.3105 72.9375 66.4941 73.7038 65.6777 74.334C64.8613 74.9499 64.1667 75.2578 63.5938 75.2578C62.1615 75.2578 61.4453 74.3125 61.4453 72.4219C61.4453 71.0755 61.6458 69.5143 62.0469 67.7383L63.3359 61.7656C63.4792 60.7773 63.5508 60.2044 63.5508 60.0469C63.5508 59.3307 63.4076 58.9727 63.1211 58.9727C62.8776 58.9727 62.5124 59.2018 62.0254 59.6602C61.7962 59.8893 61.5456 60.14 61.2734 60.4121C61.0156 60.6842 60.8438 60.8776 60.7578 60.9922C60.7005 60.9922 60.5931 60.8561 60.4355 60.584C60.278 60.3118 60.1992 60.1185 60.1992 60.0039C60.4284 59.6172 60.8438 59.1374 61.4453 58.5645C62.0469 57.9772 62.6914 57.4544 63.3789 56.9961C64.0664 56.5378 64.6536 56.3086 65.1406 56.3086ZM86.0664 56.3086C86.3815 56.3086 87.2982 56.4876 88.8164 56.8457C90.3346 57.2038 91.5807 57.3828 92.5547 57.3828C92.9701 57.3828 93.4427 57.2038 93.9727 56.8457C94.5026 56.4876 94.9753 56.3086 95.3906 56.3086C95.7344 56.3086 95.9062 56.6667 95.9062 57.3828C95.9062 57.5547 94.832 58.8223 92.6836 61.1855C90.5065 63.5775 88.3724 65.9049 86.2812 68.168L83.0586 71.6055C83.0586 71.6198 83.1875 71.5625 83.4453 71.4336C83.7174 71.3047 83.9967 71.1758 84.2832 71.0469C84.584 70.9036 84.763 70.832 84.8203 70.832C85.6224 70.832 86.625 71.0898 87.8281 71.6055C89.0312 72.1211 89.8333 72.3789 90.2344 72.3789C90.4635 72.3789 90.6999 72.293 90.9434 72.1211C91.1868 71.9492 91.416 71.7272 91.6309 71.4551C91.6882 71.3835 91.8171 71.1901 92.0176 70.875C92.2324 70.5456 92.4329 70.2305 92.6191 69.9297C92.8197 69.6289 92.9271 69.4714 92.9414 69.457C93.056 69.2995 93.1777 69.3424 93.3066 69.5859C93.4499 69.8438 93.5286 70.0729 93.543 70.2734C93.3997 70.7604 93.0918 71.3835 92.6191 72.1426C92.1608 72.8874 91.6237 73.5534 91.0078 74.1406C90.4062 74.7135 89.819 75 89.2461 75C88.9883 75 88.0716 74.8138 86.4961 74.4414C84.9206 74.069 83.6745 73.8828 82.7578 73.8828C82.3568 73.8828 81.8841 74.069 81.3398 74.4414C80.7956 74.8138 80.3229 75 79.9219 75C79.5781 75 79.4062 74.6276 79.4062 73.8828C79.4062 73.6823 80.4733 72.4076 82.6074 70.0586C83.6673 68.8841 84.7344 67.7168 85.8086 66.5566C86.8828 65.3965 87.957 64.2435 89.0312 63.0977L92.2109 59.6602L91.9531 59.875C91.7526 59.9896 91.5091 60.1185 91.2227 60.2617C90.9362 60.4049 90.6927 60.4766 90.4922 60.4766C89.6901 60.4766 88.6875 60.2188 87.4844 59.7031C86.2812 59.1875 85.4792 58.9297 85.0781 58.9297C84.849 58.9297 84.6126 59.0156 84.3691 59.1875C84.1257 59.3594 83.8965 59.5814 83.6816 59.8535C83.61 59.9538 83.474 60.1615 83.2734 60.4766C83.0729 60.7917 82.8867 61.0924 82.7148 61.3789C82.543 61.6654 82.4427 61.8229 82.4141 61.8516C82.2708 61.9948 82.1419 61.9518 82.0273 61.7227C81.8984 61.4505 81.8268 61.207 81.8125 60.9922C81.9701 60.4909 82.2708 59.875 82.7148 59.1445C83.1732 58.3997 83.7031 57.7409 84.3047 57.168C84.9062 56.5951 85.4935 56.3086 86.0664 56.3086ZM103.426 56.3086C103.741 56.3086 104.658 56.4876 106.176 56.8457C107.694 57.2038 108.94 57.3828 109.914 57.3828C110.329 57.3828 110.802 57.2038 111.332 56.8457C111.862 56.4876 112.335 56.3086 112.75 56.3086C113.094 56.3086 113.266 56.6667 113.266 57.3828C113.266 57.5547 112.191 58.8223 110.043 61.1855C107.866 63.5775 105.732 65.9049 103.641 68.168L100.418 71.6055C100.418 71.6198 100.547 71.5625 100.805 71.4336C101.077 71.3047 101.356 71.1758 101.643 71.0469C101.943 70.9036 102.122 70.832 102.18 70.832C102.982 70.832 103.984 71.0898 105.188 71.6055C106.391 72.1211 107.193 72.3789 107.594 72.3789C107.823 72.3789 108.059 72.293 108.303 72.1211C108.546 71.9492 108.775 71.7272 108.99 71.4551C109.048 71.3835 109.176 71.1901 109.377 70.875C109.592 70.5456 109.792 70.2305 109.979 69.9297C110.179 69.6289 110.286 69.4714 110.301 69.457C110.415 69.2995 110.537 69.3424 110.666 69.5859C110.809 69.8438 110.888 70.0729 110.902 70.2734C110.759 70.7604 110.451 71.3835 109.979 72.1426C109.52 72.8874 108.983 73.5534 108.367 74.1406C107.766 74.7135 107.178 75 106.605 75C106.348 75 105.431 74.8138 103.855 74.4414C102.28 74.069 101.034 73.8828 100.117 73.8828C99.7161 73.8828 99.2435 74.069 98.6992 74.4414C98.1549 74.8138 97.6823 75 97.2812 75C96.9375 75 96.7656 74.6276 96.7656 73.8828C96.7656 73.6823 97.8327 72.4076 99.9668 70.0586C101.027 68.8841 102.094 67.7168 103.168 66.5566C104.242 65.3965 105.316 64.2435 106.391 63.0977L109.57 59.6602L109.312 59.875C109.112 59.9896 108.868 60.1185 108.582 60.2617C108.296 60.4049 108.052 60.4766 107.852 60.4766C107.049 60.4766 106.047 60.2188 104.844 59.7031C103.641 59.1875 102.839 58.9297 102.438 58.9297C102.208 58.9297 101.972 59.0156 101.729 59.1875C101.485 59.3594 101.256 59.5814 101.041 59.8535C100.969 59.9538 100.833 60.1615 100.633 60.4766C100.432 60.7917 100.246 61.0924 100.074 61.3789C99.9023 61.6654 99.8021 61.8229 99.7734 61.8516C99.6302 61.9948 99.5013 61.9518 99.3867 61.7227C99.2578 61.4505 99.1862 61.207 99.1719 60.9922C99.3294 60.4909 99.6302 59.875 100.074 59.1445C100.533 58.3997 101.062 57.7409 101.664 57.168C102.266 56.5951 102.853 56.3086 103.426 56.3086ZM127.059 56.3086C128.118 56.3086 129.164 56.4948 130.195 56.8672L127.574 70.4453C127.488 70.7891 127.445 71.1471 127.445 71.5195C127.445 72.2357 127.589 72.5938 127.875 72.5938C128.233 72.5938 128.663 72.3431 129.164 71.8418C129.665 71.3262 130.095 70.8893 130.453 70.5312L130.711 70.2305C130.768 70.2305 130.876 70.3665 131.033 70.6387C131.191 70.9108 131.27 71.1042 131.27 71.2188C131.026 71.6341 130.582 72.1641 129.938 72.8086C129.307 73.4531 128.62 74.026 127.875 74.5273C127.13 75.0143 126.457 75.2578 125.855 75.2578C125.397 75.2578 125.039 75.0501 124.781 74.6348C124.523 74.2194 124.395 73.6823 124.395 73.0234C124.395 72.5794 124.495 71.8203 124.695 70.7461L124.846 69.9941C124.889 69.7936 124.91 69.6719 124.91 69.6289C124.681 70.0586 124.352 70.5885 123.922 71.2188C123.492 71.8346 122.998 72.4505 122.439 73.0664C121.881 73.6823 121.294 74.1979 120.678 74.6133C120.062 75.0143 119.453 75.2148 118.852 75.2148C117.591 75.2148 116.596 74.6491 115.865 73.5176C115.135 72.3861 114.77 71.0182 114.77 69.4141C114.77 67.3659 115.378 65.3249 116.596 63.291C117.412 61.916 118.386 60.7057 119.518 59.6602C120.663 58.6146 121.888 57.7982 123.191 57.2109C124.495 56.6094 125.784 56.3086 127.059 56.3086ZM125.254 58.2852C124.409 58.2852 123.557 58.5859 122.697 59.1875C121.838 59.7747 121.05 60.5697 120.334 61.5723C119.618 62.5605 119.038 63.6634 118.594 64.8809C118.164 66.084 117.949 67.2943 117.949 68.5117C117.949 71.319 118.68 72.7227 120.141 72.7227C120.656 72.7227 121.215 72.4362 121.816 71.8633C122.418 71.2904 123.012 70.5312 123.6 69.5859C124.187 68.6406 124.702 67.6165 125.146 66.5137C125.605 65.3965 125.941 64.3008 126.156 63.2266L127.016 58.8438C126.672 58.4714 126.085 58.2852 125.254 58.2852ZM147.855 56.3086C148.629 56.3086 149.223 56.5378 149.639 56.9961C150.054 57.4544 150.305 57.9342 150.391 58.4355C150.477 58.9368 150.52 59.5885 150.52 60.3906C150.52 60.9206 150.319 62.1953 149.918 64.2148C150.391 63.3984 150.978 62.5319 151.68 61.6152C152.382 60.6986 153.119 59.8392 153.893 59.0371C154.666 58.235 155.411 57.5833 156.127 57.082C156.843 56.5664 157.452 56.3086 157.953 56.3086C158.898 56.3086 159.543 56.5449 159.887 57.0176C160.23 57.4902 160.402 58.1992 160.402 59.1445C160.402 60.4766 160.202 62.0378 159.801 63.8281L158.383 70.4453C158.297 70.7891 158.254 71.1471 158.254 71.5195C158.254 72.2357 158.397 72.5938 158.684 72.5938C159.042 72.5938 159.471 72.3431 159.973 71.8418C160.474 71.3262 160.904 70.8893 161.262 70.5312L161.52 70.2305C161.577 70.2305 161.684 70.3665 161.842 70.6387C161.999 70.9108 162.078 71.1042 162.078 71.2188C161.835 71.6341 161.391 72.1641 160.746 72.8086C160.116 73.4531 159.428 74.026 158.684 74.5273C157.939 75.0143 157.266 75.2578 156.664 75.2578C156.206 75.2578 155.848 75.0501 155.59 74.6348C155.332 74.2194 155.203 73.6823 155.203 73.0234C155.203 72.5938 155.303 71.8346 155.504 70.7461L157.008 63.6562C157.208 62.6823 157.309 61.9089 157.309 61.3359C157.309 60.8346 157.266 60.4049 157.18 60.0469C157.108 59.6745 156.879 59.4883 156.492 59.4883C156.005 59.4883 155.368 59.832 154.58 60.5195C153.807 61.207 153.005 62.1165 152.174 63.248C151.343 64.3652 150.598 65.597 149.939 66.9434C149.281 68.2754 148.829 69.6003 148.586 70.918L147.812 75H144.934L147.34 62.7969C147.454 62.1523 147.512 61.6081 147.512 61.1641C147.512 60.0469 147.225 59.4883 146.652 59.4883C146.151 59.4883 145.514 59.8678 144.74 60.627C143.967 61.3861 143.172 62.3672 142.355 63.5703C141.539 64.7734 140.809 66.0553 140.164 67.416C139.52 68.7624 139.076 70.0299 138.832 71.2188L138.059 75C137.257 75.1146 136.77 75.1719 136.598 75.1719C136.454 75.1719 135.982 75.1146 135.18 75L137.758 61.7656C137.901 60.7773 137.973 60.2044 137.973 60.0469C137.973 59.3307 137.829 58.9727 137.543 58.9727C137.299 58.9727 136.934 59.2018 136.447 59.6602C136.218 59.8893 135.967 60.14 135.695 60.4121C135.438 60.6842 135.266 60.8776 135.18 60.9922C135.122 60.9922 135.015 60.8561 134.857 60.584C134.7 60.3118 134.621 60.1185 134.621 60.0039C134.85 59.6172 135.266 59.1374 135.867 58.5645C136.469 57.9772 137.113 57.4544 137.801 56.9961C138.488 56.5378 139.076 56.3086 139.562 56.3086C140.021 56.3086 140.379 56.5163 140.637 56.9316C140.895 57.347 141.023 57.8841 141.023 58.543C141.023 59.1732 140.938 59.9323 140.766 60.8203L139.992 64.8164C140.522 63.8997 141.131 62.9473 141.818 61.959C142.52 60.9707 143.236 60.0469 143.967 59.1875C144.712 58.3281 145.421 57.6335 146.094 57.1035C146.767 56.5736 147.354 56.3086 147.855 56.3086ZM178.621 56.3086C179.395 56.3086 179.989 56.5378 180.404 56.9961C180.82 57.4544 181.07 57.9342 181.156 58.4355C181.242 58.9368 181.285 59.5885 181.285 60.3906C181.285 60.9206 181.085 62.1953 180.684 64.2148C181.156 63.3984 181.743 62.5319 182.445 61.6152C183.147 60.6986 183.885 59.8392 184.658 59.0371C185.432 58.235 186.176 57.5833 186.893 57.082C187.609 56.5664 188.217 56.3086 188.719 56.3086C189.664 56.3086 190.309 56.5449 190.652 57.0176C190.996 57.4902 191.168 58.1992 191.168 59.1445C191.168 60.4766 190.967 62.0378 190.566 63.8281L189.148 70.4453C189.062 70.7891 189.02 71.1471 189.02 71.5195C189.02 72.2357 189.163 72.5938 189.449 72.5938C189.807 72.5938 190.237 72.3431 190.738 71.8418C191.24 71.3262 191.669 70.8893 192.027 70.5312L192.285 70.2305C192.342 70.2305 192.45 70.3665 192.607 70.6387C192.765 70.9108 192.844 71.1042 192.844 71.2188C192.6 71.6341 192.156 72.1641 191.512 72.8086C190.882 73.4531 190.194 74.026 189.449 74.5273C188.704 75.0143 188.031 75.2578 187.43 75.2578C186.971 75.2578 186.613 75.0501 186.355 74.6348C186.098 74.2194 185.969 73.6823 185.969 73.0234C185.969 72.5938 186.069 71.8346 186.27 70.7461L187.773 63.6562C187.974 62.6823 188.074 61.9089 188.074 61.3359C188.074 60.8346 188.031 60.4049 187.945 60.0469C187.874 59.6745 187.645 59.4883 187.258 59.4883C186.771 59.4883 186.133 59.832 185.346 60.5195C184.572 61.207 183.77 62.1165 182.939 63.248C182.109 64.3652 181.364 65.597 180.705 66.9434C180.046 68.2754 179.595 69.6003 179.352 70.918L178.578 75H175.699L178.105 62.7969C178.22 62.1523 178.277 61.6081 178.277 61.1641C178.277 60.0469 177.991 59.4883 177.418 59.4883C176.917 59.4883 176.279 59.8678 175.506 60.627C174.732 61.3861 173.938 62.3672 173.121 63.5703C172.305 64.7734 171.574 66.0553 170.93 67.416C170.285 68.7624 169.841 70.0299 169.598 71.2188L168.824 75C168.022 75.1146 167.535 75.1719 167.363 75.1719C167.22 75.1719 166.747 75.1146 165.945 75L168.523 61.7656C168.667 60.7773 168.738 60.2044 168.738 60.0469C168.738 59.3307 168.595 58.9727 168.309 58.9727C168.065 58.9727 167.7 59.2018 167.213 59.6602C166.984 59.8893 166.733 60.14 166.461 60.4121C166.203 60.6842 166.031 60.8776 165.945 60.9922C165.888 60.9922 165.781 60.8561 165.623 60.584C165.465 60.3118 165.387 60.1185 165.387 60.0039C165.616 59.6172 166.031 59.1374 166.633 58.5645C167.234 57.9772 167.879 57.4544 168.566 56.9961C169.254 56.5378 169.841 56.3086 170.328 56.3086C170.786 56.3086 171.145 56.5163 171.402 56.9316C171.66 57.347 171.789 57.8841 171.789 58.543C171.789 59.1732 171.703 59.9323 171.531 60.8203L170.758 64.8164C171.288 63.8997 171.896 62.9473 172.584 61.959C173.286 60.9707 174.002 60.0469 174.732 59.1875C175.477 58.3281 176.186 57.6335 176.859 57.1035C177.533 56.5736 178.12 56.3086 178.621 56.3086ZM202.598 47.2422C203.027 47.2422 203.393 47.4141 203.693 47.7578C203.994 48.1016 204.145 48.5026 204.145 48.9609C204.145 49.6484 203.923 50.25 203.479 50.7656C203.035 51.2812 202.483 51.5391 201.824 51.5391C201.366 51.5391 201.008 51.36 200.75 51.002C200.492 50.6439 200.363 50.207 200.363 49.6914C200.363 49.0326 200.578 48.4596 201.008 47.9727C201.438 47.4857 201.967 47.2422 202.598 47.2422ZM201.352 56.3086C201.81 56.3086 202.168 56.5163 202.426 56.9316C202.684 57.347 202.812 57.8841 202.812 58.543C202.812 59.1302 202.727 59.8893 202.555 60.8203L200.664 70.4453C200.578 70.7891 200.535 71.1471 200.535 71.5195C200.535 72.2357 200.678 72.5938 200.965 72.5938C201.323 72.5938 201.753 72.3431 202.254 71.8418C202.755 71.3262 203.185 70.8893 203.543 70.5312L203.801 70.2305C203.858 70.2305 203.965 70.3665 204.123 70.6387C204.281 70.9108 204.359 71.1042 204.359 71.2188C204.116 71.6341 203.672 72.1641 203.027 72.8086C202.397 73.4531 201.71 74.026 200.965 74.5273C200.22 75.0143 199.547 75.2578 198.945 75.2578C198.487 75.2578 198.129 75.0501 197.871 74.6348C197.613 74.2194 197.484 73.6823 197.484 73.0234C197.484 72.5938 197.585 71.8346 197.785 70.7461L199.547 61.7656C199.69 60.9206 199.762 60.3477 199.762 60.0469C199.762 59.3307 199.618 58.9727 199.332 58.9727C199.16 58.9727 198.924 59.0872 198.623 59.3164C198.337 59.5456 198.057 59.8034 197.785 60.0898C197.513 60.362 197.312 60.5768 197.184 60.7344L196.969 60.9922C196.911 60.9922 196.804 60.8561 196.646 60.584C196.489 60.3118 196.41 60.1185 196.41 60.0039C196.639 59.6172 197.055 59.1374 197.656 58.5645C198.258 57.9772 198.902 57.4544 199.59 56.9961C200.277 56.5378 200.865 56.3086 201.352 56.3086ZM208.184 70.7461L212.223 49.9062C212.309 49.4766 212.352 49.0755 212.352 48.7031C212.352 48.1589 211.478 47.8867 209.73 47.8867C209.645 47.8867 209.602 47.8008 209.602 47.6289C209.602 47.2852 209.716 46.9987 209.945 46.7695C211.865 46.5977 213.698 46.1966 215.445 45.5664C215.617 45.6523 215.703 45.9245 215.703 46.3828C215.703 46.6979 215.517 47.7721 215.145 49.6055L211.062 70.4453C210.977 70.7891 210.934 71.1471 210.934 71.5195C210.934 72.2357 211.077 72.5938 211.363 72.5938C211.535 72.5938 211.743 72.515 211.986 72.3574C212.23 72.1999 212.48 72.0065 212.738 71.7773C212.996 71.5482 213.29 71.2546 213.619 70.8965C213.949 70.5241 214.142 70.3021 214.199 70.2305C214.285 70.2305 214.4 70.3665 214.543 70.6387C214.686 70.9108 214.758 71.1042 214.758 71.2188C214.514 71.6341 214.07 72.1641 213.426 72.8086C212.796 73.4531 212.108 74.026 211.363 74.5273C210.618 75.0143 209.945 75.2578 209.344 75.2578C208.914 75.2578 208.563 75.0501 208.291 74.6348C208.019 74.2194 207.883 73.6823 207.883 73.0234C207.883 72.5794 207.983 71.8203 208.184 70.7461Z" fill="white"/>
<path d="M0 14.4961C6.30012 20.0984 15.0791 19.1979 30.687 15.1421C32.2497 14.736 33.9168 14.9601 35.3059 15.7832L61.0905 31.063L35.3304 19.6141C33.9205 18.9874 32.3183 18.9353 30.8588 19.4358C12.5496 25.7159 4.73674 24.7283 0 14.4961Z" fill="url(#paint8_radial_692_1882)"/>
<path d="M16.5669 25.8858C22.7094 27.5488 34.4861 19.1752 43.5027 24.2129C35.7991 20.3448 24.9274 34.7378 16.5669 25.8858Z" fill="url(#paint9_radial_692_1882)"/>
<path d="M42.4528 34.1693C40.4746 32.9379 39.8039 31.791 39.5364 30.2054C39.314 28.8871 40.2138 27.6374 41.514 27.3262C46.4064 26.1551 49.6595 27.3172 54.8779 31.063C50.3759 26.3362 46.8249 25.2844 39.6469 25.78C38.7972 25.8387 38.0191 26.2751 37.5081 26.9564L36.1669 28.7446C35.6047 29.4943 35.6307 30.5432 36.2784 31.2205C38.4425 33.4837 39.9798 34.1156 42.4528 34.1693Z" fill="url(#paint10_radial_692_1882)"/>
<path d="M61.0905 28.9921C48.8725 19.5072 53.131 18.6378 60.0551 10.3543C56.6285 8.93238 54.8937 8.83857 52.8071 12.4252C51.2879 8.29387 49.7783 6.42726 45.559 4.14173C43.8524 8.52031 44.6321 10.6991 46.5945 14.4961C42.9378 12.0347 40.7471 11.3823 36.2402 13.4606C46.3046 17.727 45.2926 18.8748 61.0905 28.9921Z" fill="url(#paint11_radial_692_1882)"/>
<path d="M78.6929 22.7441C78.6929 22.1918 79.1406 21.7441 79.6929 21.7441H79.7638C80.3161 21.7441 80.7638 22.1918 80.7638 22.7441V25.9213C80.7638 26.4735 80.3161 26.9213 79.7638 26.9213H74.4803C73.3757 26.9213 72.4803 26.0258 72.4803 24.9213V19.6024C72.4803 18.4978 73.3757 17.6024 74.4803 17.6024H78.7281C80.6137 17.6024 82.4755 18.023 84.178 18.8337V18.8337C85.2965 19.3663 86.1249 20.3629 86.4441 21.5599L88.3399 28.6695C89.2063 31.9182 86.6836 35.0788 83.3237 34.9544L68.0679 34.3894C64.7776 34.2675 62.2002 31.5169 62.2923 28.2256L62.6948 13.8426C62.7856 10.5955 65.4441 8.01038 68.6924 8.01038H83.0387C86.0229 8.01038 88.8896 9.21712 90.915 11.4088C101.807 23.194 109.097 33.3225 115.395 32.2299C115.685 32.1796 115.968 32.3916 115.968 32.686V32.686C115.968 32.9325 115.766 33.1318 115.519 33.1285C109.37 33.045 105.37 32.4313 87.653 13.254C86.5367 12.0456 85.0793 11.1983 83.4735 10.8414L77.8584 9.59364C77.0431 9.41248 76.199 9.4035 75.3801 9.56728L71.091 10.4251C68.2865 10.986 66.2677 13.4485 66.2677 16.3086V27.0984C66.2677 29.8599 68.5063 32.0984 71.2677 32.0984H80.9055C83.1146 32.0984 84.9055 30.3076 84.9055 28.0984V22.6378C84.9055 20.4287 83.1146 18.6378 80.9055 18.6378H76.5512C75.4466 18.6378 74.5512 19.5332 74.5512 20.6378V24.8858C74.5512 25.4381 74.9989 25.8858 75.5512 25.8858H77.6929C78.2452 25.8858 78.6929 25.4381 78.6929 24.8858V22.7441Z" fill="url(#paint12_radial_692_1882)"/>
<path d="M104.412 33.0631C96.4743 29.9513 88.3242 12.4066 78.6929 13.4606C91.6665 19.2326 92.9183 31.4785 104.412 33.0631Z" fill="url(#paint13_radial_692_1882)"/>
<path d="M111.827 30.0276C106.485 21.6827 106.361 16.9143 110.791 8.28346C105.363 9.71409 97.6256 19.5114 111.827 30.0276Z" fill="url(#paint14_radial_692_1882)"/>
<path d="M118.039 10.3543C113.102 14.0549 110.405 23.2793 118.039 32.0984C106.33 25.6888 109.793 12.7713 118.039 0V10.3543Z" fill="url(#paint15_radial_692_1882)"/>
<path d="M236.079 14.4961C229.778 20.0984 221 19.1979 205.392 15.1421C203.829 14.736 202.162 14.9601 200.773 15.7832L174.988 31.063L200.748 19.6141C202.158 18.9874 203.76 18.9353 205.22 19.4358C223.529 25.7159 231.342 24.7283 236.079 14.4961Z" fill="url(#paint16_radial_692_1882)"/>
<path d="M219.512 25.8858C213.369 27.5488 201.593 19.1752 192.576 24.2129C200.279 20.3448 211.151 34.7378 219.512 25.8858Z" fill="url(#paint17_radial_692_1882)"/>
<path d="M193.626 34.1693C195.604 32.9379 196.275 31.791 196.542 30.2054C196.765 28.8871 195.865 27.6374 194.565 27.3262C189.672 26.1551 186.419 27.3172 181.201 31.063C185.703 26.3362 189.254 25.2844 196.432 25.78C197.281 25.8387 198.06 26.2751 198.571 26.9564L199.912 28.7446C200.474 29.4943 200.448 30.5432 199.8 31.2205C197.636 33.4837 196.099 34.1156 193.626 34.1693Z" fill="url(#paint18_radial_692_1882)"/>
<path d="M174.988 28.9921C187.206 19.5072 182.948 18.6378 176.024 10.3543C179.45 8.93238 181.185 8.83857 183.272 12.4252C184.791 8.29387 186.3 6.42726 190.52 4.14173C192.226 8.52031 191.446 10.6991 189.484 14.4961C193.141 12.0347 195.331 11.3823 199.838 13.4606C189.774 17.727 190.786 18.8748 174.988 28.9921Z" fill="url(#paint19_radial_692_1882)"/>
<path d="M157.386 22.7441C157.386 22.1918 156.938 21.7441 156.386 21.7441H156.315C155.763 21.7441 155.315 22.1918 155.315 22.7441V25.9213C155.315 26.4735 155.763 26.9213 156.315 26.9213H161.598C162.703 26.9213 163.598 26.0258 163.598 24.9213V19.6024C163.598 18.4978 162.703 17.6024 161.598 17.6024H157.351C155.465 17.6024 153.603 18.023 151.901 18.8337V18.8337C150.782 19.3663 149.954 20.3629 149.635 21.5599L147.739 28.6695C146.872 31.9182 149.395 35.0788 152.755 34.9544L168.011 34.3894C171.301 34.2675 173.878 31.5169 173.786 28.2256L173.384 13.8426C173.293 10.5955 170.635 8.01038 167.386 8.01038H153.04C150.056 8.01038 147.189 9.21712 145.164 11.4088C134.272 23.194 126.982 33.3225 120.683 32.2299C120.393 32.1796 120.11 32.3916 120.11 32.686V32.686C120.11 32.9325 120.313 33.1318 120.559 33.1285C126.708 33.045 130.709 32.4313 148.426 13.254C149.542 12.0456 150.999 11.1983 152.605 10.8414L158.22 9.59364C159.035 9.41248 159.88 9.4035 160.698 9.56728L164.988 10.4251C167.792 10.986 169.811 13.4485 169.811 16.3086V27.0984C169.811 29.8599 167.572 32.0984 164.811 32.0984H155.173C152.964 32.0984 151.173 30.3076 151.173 28.0984V22.6378C151.173 20.4287 152.964 18.6378 155.173 18.6378H159.527C160.632 18.6378 161.527 19.5332 161.527 20.6378V24.8858C161.527 25.4381 161.08 25.8858 160.527 25.8858H158.386C157.833 25.8858 157.386 25.4381 157.386 24.8858V22.7441Z" fill="url(#paint20_radial_692_1882)"/>
<path d="M131.666 33.0631C139.604 29.9513 147.754 12.4066 157.386 13.4606C144.412 19.2326 143.16 31.4785 131.666 33.0631Z" fill="url(#paint21_radial_692_1882)"/>
<path d="M124.252 30.0276C129.594 21.6827 129.718 16.9143 125.287 8.28346C130.716 9.71409 138.453 19.5114 124.252 30.0276Z" fill="url(#paint22_radial_692_1882)"/>
<path d="M118.039 10.3543C122.976 14.0549 125.673 23.2793 118.039 32.0984C129.749 25.6888 126.286 12.7713 118.039 0V10.3543Z" fill="url(#paint23_radial_692_1882)"/>
<defs>
<radialGradient id="paint0_radial_692_1882" cx="0" cy="0" r="1" gradientUnits="userSpaceOnUse" gradientTransform="translate(79.7285 111.309) scale(38.311 20.1909)">
<stop stop-color="#E1E1E1"/>
<stop offset="1" stop-color="#FFF4DA"/>
</radialGradient>
<radialGradient id="paint1_radial_692_1882" cx="0" cy="0" r="1" gradientUnits="userSpaceOnUse" gradientTransform="translate(79.7285 111.309) scale(38.311 20.1909)">
<stop stop-color="#E1E1E1"/>
<stop offset="1" stop-color="#FFF4DA"/>
</radialGradient>
<radialGradient id="paint2_radial_692_1882" cx="0" cy="0" r="1" gradientUnits="userSpaceOnUse" gradientTransform="translate(79.7285 111.309) scale(38.311 20.1909)">
<stop stop-color="#E1E1E1"/>
<stop offset="1" stop-color="#FFF4DA"/>
</radialGradient>
<radialGradient id="paint3_radial_692_1882" cx="0" cy="0" r="1" gradientUnits="userSpaceOnUse" gradientTransform="translate(79.7285 111.309) scale(38.311 20.1909)">
<stop stop-color="#E1E1E1"/>
<stop offset="1" stop-color="#FFF4DA"/>
</radialGradient>
<radialGradient id="paint4_radial_692_1882" cx="0" cy="0" r="1" gradientUnits="userSpaceOnUse" gradientTransform="translate(156.351 111.309) rotate(180) scale(38.311 20.1909)">
<stop stop-color="#E1E1E1"/>
<stop offset="1" stop-color="#FFF4DA"/>
</radialGradient>
<radialGradient id="paint5_radial_692_1882" cx="0" cy="0" r="1" gradientUnits="userSpaceOnUse" gradientTransform="translate(156.351 111.309) rotate(180) scale(38.311 20.1909)">
<stop stop-color="#E1E1E1"/>
<stop offset="1" stop-color="#FFF4DA"/>
</radialGradient>
<radialGradient id="paint6_radial_692_1882" cx="0" cy="0" r="1" gradientUnits="userSpaceOnUse" gradientTransform="translate(156.351 111.309) rotate(180) scale(38.311 20.1909)">
<stop stop-color="#E1E1E1"/>
<stop offset="1" stop-color="#FFF4DA"/>
</radialGradient>
<radialGradient id="paint7_radial_692_1882" cx="0" cy="0" r="1" gradientUnits="userSpaceOnUse" gradientTransform="translate(156.351 111.309) rotate(180) scale(38.311 20.1909)">
<stop stop-color="#E1E1E1"/>
<stop offset="1" stop-color="#FFF4DA"/>
</radialGradient>
<radialGradient id="paint8_radial_692_1882" cx="0" cy="0" r="1" gradientUnits="userSpaceOnUse" gradientTransform="translate(59.0197 17.6024) scale(59.0197 17.6024)">
<stop stop-color="#E1E1E1"/>
<stop offset="1" stop-color="#FFF4DA"/>
</radialGradient>
<radialGradient id="paint9_radial_692_1882" cx="0" cy="0" r="1" gradientUnits="userSpaceOnUse" gradientTransform="translate(59.0197 17.6024) scale(59.0197 17.6024)">
<stop stop-color="#E1E1E1"/>
<stop offset="1" stop-color="#FFF4DA"/>
</radialGradient>
<radialGradient id="paint10_radial_692_1882" cx="0" cy="0" r="1" gradientUnits="userSpaceOnUse" gradientTransform="translate(59.0197 17.6024) scale(59.0197 17.6024)">
<stop stop-color="#E1E1E1"/>
<stop offset="1" stop-color="#FFF4DA"/>
</radialGradient>
<radialGradient id="paint11_radial_692_1882" cx="0" cy="0" r="1" gradientUnits="userSpaceOnUse" gradientTransform="translate(59.0197 17.6024) scale(59.0197 17.6024)">
<stop stop-color="#E1E1E1"/>
<stop offset="1" stop-color="#FFF4DA"/>
</radialGradient>
<radialGradient id="paint12_radial_692_1882" cx="0" cy="0" r="1" gradientUnits="userSpaceOnUse" gradientTransform="translate(59.0197 17.6024) scale(59.0197 17.6024)">
<stop stop-color="#E1E1E1"/>
<stop offset="1" stop-color="#FFF4DA"/>
</radialGradient>
<radialGradient id="paint13_radial_692_1882" cx="0" cy="0" r="1" gradientUnits="userSpaceOnUse" gradientTransform="translate(59.0197 17.6024) scale(59.0197 17.6024)">
<stop stop-color="#E1E1E1"/>
<stop offset="1" stop-color="#FFF4DA"/>
</radialGradient>
<radialGradient id="paint14_radial_692_1882" cx="0" cy="0" r="1" gradientUnits="userSpaceOnUse" gradientTransform="translate(59.0197 17.6024) scale(59.0197 17.6024)">
<stop stop-color="#E1E1E1"/>
<stop offset="1" stop-color="#FFF4DA"/>
</radialGradient>
<radialGradient id="paint15_radial_692_1882" cx="0" cy="0" r="1" gradientUnits="userSpaceOnUse" gradientTransform="translate(59.0197 17.6024) scale(59.0197 17.6024)">
<stop stop-color="#E1E1E1"/>
<stop offset="1" stop-color="#FFF4DA"/>
</radialGradient>
<radialGradient id="paint16_radial_692_1882" cx="0" cy="0" r="1" gradientUnits="userSpaceOnUse" gradientTransform="translate(177.059 17.6024) rotate(180) scale(59.0197 17.6024)">
<stop stop-color="#E1E1E1"/>
<stop offset="1" stop-color="#FFF4DA"/>
</radialGradient>
<radialGradient id="paint17_radial_692_1882" cx="0" cy="0" r="1" gradientUnits="userSpaceOnUse" gradientTransform="translate(177.059 17.6024) rotate(180) scale(59.0197 17.6024)">
<stop stop-color="#E1E1E1"/>
<stop offset="1" stop-color="#FFF4DA"/>
</radialGradient>
<radialGradient id="paint18_radial_692_1882" cx="0" cy="0" r="1" gradientUnits="userSpaceOnUse" gradientTransform="translate(177.059 17.6024) rotate(180) scale(59.0197 17.6024)">
<stop stop-color="#E1E1E1"/>
<stop offset="1" stop-color="#FFF4DA"/>
</radialGradient>
<radialGradient id="paint19_radial_692_1882" cx="0" cy="0" r="1" gradientUnits="userSpaceOnUse" gradientTransform="translate(177.059 17.6024) rotate(180) scale(59.0197 17.6024)">
<stop stop-color="#E1E1E1"/>
<stop offset="1" stop-color="#FFF4DA"/>
</radialGradient>
<radialGradient id="paint20_radial_692_1882" cx="0" cy="0" r="1" gradientUnits="userSpaceOnUse" gradientTransform="translate(177.059 17.6024) rotate(180) scale(59.0197 17.6024)">
<stop stop-color="#E1E1E1"/>
<stop offset="1" stop-color="#FFF4DA"/>
</radialGradient>
<radialGradient id="paint21_radial_692_1882" cx="0" cy="0" r="1" gradientUnits="userSpaceOnUse" gradientTransform="translate(177.059 17.6024) rotate(180) scale(59.0197 17.6024)">
<stop stop-color="#E1E1E1"/>
<stop offset="1" stop-color="#FFF4DA"/>
</radialGradient>
<radialGradient id="paint22_radial_692_1882" cx="0" cy="0" r="1" gradientUnits="userSpaceOnUse" gradientTransform="translate(177.059 17.6024) rotate(180) scale(59.0197 17.6024)">
<stop stop-color="#E1E1E1"/>
<stop offset="1" stop-color="#FFF4DA"/>
</radialGradient>
<radialGradient id="paint23_radial_692_1882" cx="0" cy="0" r="1" gradientUnits="userSpaceOnUse" gradientTransform="translate(177.059 17.6024) rotate(180) scale(59.0197 17.6024)">
<stop stop-color="#E1E1E1"/>
<stop offset="1" stop-color="#FFF4DA"/>
</radialGradient>
</defs>
</svg>
