<svg width="237" height="132" viewBox="0 0 237 132" fill="none" xmlns="http://www.w3.org/2000/svg">
<path d="M50.713 108.06C49.3894 108.487 47.9219 108.504 46.7174 107.809C44.5799 106.575 44.1417 105.154 44.5239 102.508V102.508C42.8803 103.056 42.0634 104.953 43.0344 106.388C43.9981 107.812 45.0942 108.974 46.6272 110.246C47.9176 111.316 49.57 111.855 51.2463 111.812C56.4411 111.679 59.0354 110.851 62.1261 108.72C61.1055 110.641 61.1623 111.76 61.9889 113.6C62.061 113.76 62.2573 113.822 62.4081 113.731C64.083 112.73 65.0044 111.892 66.2679 109.756C66.2159 114.032 66.9848 113.977 70.4096 114.933C67.5199 110.86 68.053 109.221 70.1985 106.254C70.9963 105.151 72.1264 104.331 73.4058 103.866L78.5781 101.985C81.3347 100.982 84.3491 100.942 87.1317 101.869L104.174 107.55C104.308 107.435 104.443 107.326 104.579 107.223V104.508C104.579 103.403 105.474 102.508 106.579 102.508H108.791C109.896 102.508 110.791 103.403 110.791 104.508V105.614H111.827V103.472C111.827 102.368 110.931 101.472 109.827 101.472H105.543C104.439 101.472 103.543 102.368 103.543 103.472V106.65C98.7741 103.748 93.5326 101.584 86.7262 99.7769C82.8461 98.747 78.7539 99.0145 74.9333 100.247L50.713 108.06Z" fill="url(#paint0_radial_692_198)"/>
<path fill-rule="evenodd" clip-rule="evenodd" d="M118.04 111.827V108.721C115.458 105.74 114.164 105.799 111.827 105.614H110.791C108.063 105.589 106.223 105.979 104.579 107.223V107.685L104.174 107.55C103.27 108.327 102.41 109.382 101.473 110.791C94.423 108.167 92.2423 105.859 84.6309 104.117C82.7932 103.696 80.8384 103.854 79.1738 104.739C77.1411 105.82 75.7483 107.075 74.4009 109.235C73.7981 110.201 73.7054 111.42 74.2151 112.438C75.05 114.107 76.2503 115.417 79.1381 117.128C80.1191 117.709 81.351 117.62 82.2789 116.957L86.2804 114.099C87.2189 113.429 87.4133 112.09 86.6216 111.251C84.8307 109.354 83.7232 109.09 81.7994 109.756C83.0247 110.067 83.7478 110.456 84.3965 111.688C84.7601 112.378 84.5523 113.216 84.0005 113.767L82.2759 115.492C81.3711 116.397 79.9668 116.664 78.906 115.948C77.392 114.927 76.4786 113.802 75.488 112.283C74.8942 111.372 74.8544 110.185 75.4804 109.296C77.1885 106.871 79.0768 106.022 82.8348 105.614C87.5143 105.758 93.9739 109.592 101.473 112.862C101.611 115.305 101.827 117.608 105.431 119.531C106.15 119.915 107.027 119.733 107.604 119.156L110.252 116.508C110.55 116.21 110.55 115.727 110.252 115.429V115.429C109.972 115.149 109.522 115.134 109.211 115.381C104.883 118.812 103.35 117.017 102.508 112.862C108.785 113.743 111.601 112.063 112.862 106.65H114.933L118.04 111.827ZM102.508 111.827C105.324 107.593 107.417 106.549 111.827 106.65C109.582 111.782 107.624 113.001 102.508 111.827Z" fill="url(#paint1_radial_692_198)"/>
<path d="M118.04 114.933V111.827C116.112 115.763 116.189 118.074 110.791 119.075C111.96 121.038 112.806 121.636 114.933 121.146C115.325 125.201 115.718 127.472 118.04 131.5V125.287C116.703 121.107 116.953 118.865 118.04 114.933Z" fill="url(#paint2_radial_692_198)"/>
<path d="M115.969 98.3662C116.06 94.792 116.696 93.3936 118.04 91.1182V105.614C115.723 100.811 114.342 99.4138 111.827 99.4015C113.365 97.8121 114.277 97.3638 115.969 98.3662Z" fill="url(#paint3_radial_692_198)"/>
<path d="M185.366 108.06C186.69 108.487 188.157 108.504 189.362 107.809C191.499 106.575 191.937 105.154 191.555 102.508V102.508C193.199 103.056 194.016 104.953 193.045 106.388C192.081 107.812 190.985 108.974 189.452 110.246C188.161 111.316 186.509 111.855 184.833 111.812C179.638 111.679 177.044 110.851 173.953 108.72C174.974 110.641 174.917 111.76 174.09 113.6C174.018 113.76 173.822 113.822 173.671 113.731C171.996 112.73 171.075 111.892 169.811 109.756C169.863 114.032 169.094 113.977 165.669 114.933C168.559 110.86 168.026 109.221 165.881 106.254C165.083 105.151 163.953 104.331 162.673 103.866L157.501 101.985C154.744 100.982 151.73 100.942 148.947 101.869L131.905 107.55C131.771 107.435 131.636 107.326 131.5 107.223V104.508C131.5 103.403 130.605 102.508 129.5 102.508H127.288C126.183 102.508 125.288 103.403 125.288 104.508V105.614H124.252V103.472C124.252 102.368 125.148 101.472 126.252 101.472H130.536C131.64 101.472 132.536 102.368 132.536 103.472V106.65C137.305 103.748 142.547 101.584 149.353 99.7769C153.233 98.747 157.325 99.0145 161.146 100.247L185.366 108.06Z" fill="url(#paint4_radial_692_198)"/>
<path fill-rule="evenodd" clip-rule="evenodd" d="M118.04 111.827V108.721C120.621 105.74 121.915 105.799 124.252 105.614H125.288C128.016 105.589 129.856 105.979 131.5 107.223V107.685L131.905 107.55C132.809 108.327 133.669 109.382 134.607 110.791C141.656 108.167 143.837 105.859 151.448 104.117C153.286 103.696 155.241 103.854 156.905 104.739C158.938 105.82 160.331 107.075 161.678 109.235C162.281 110.201 162.374 111.42 161.864 112.438C161.029 114.107 159.829 115.417 156.941 117.128C155.96 117.709 154.728 117.62 153.8 116.957L149.799 114.099C148.86 113.429 148.666 112.09 149.457 111.251C151.248 109.354 152.356 109.09 154.28 109.756C153.054 110.067 152.331 110.456 151.683 111.688C151.319 112.378 151.527 113.216 152.079 113.767L153.803 115.492C154.708 116.397 156.112 116.664 157.173 115.948C158.687 114.927 159.601 113.802 160.591 112.283C161.185 111.372 161.225 110.185 160.599 109.296C158.891 106.871 157.002 106.022 153.244 105.614C148.565 105.758 142.105 109.592 134.607 112.862C134.468 115.305 134.252 117.608 130.648 119.531C129.929 119.915 129.052 119.733 128.475 119.156L125.827 116.508C125.529 116.21 125.529 115.727 125.827 115.429V115.429C126.107 115.149 126.557 115.134 126.868 115.381C131.196 118.812 132.729 117.017 133.571 112.862C127.294 113.743 124.479 112.063 123.217 106.65H121.146L118.04 111.827ZM133.571 111.827C130.755 107.593 128.662 106.549 124.252 106.65C126.497 111.782 128.455 113.001 133.571 111.827Z" fill="url(#paint5_radial_692_198)"/>
<path d="M118.04 114.933V111.827C119.967 115.763 119.89 118.074 125.288 119.075C124.119 121.038 123.273 121.636 121.146 121.146C120.755 125.201 120.362 127.472 118.04 131.5V125.287C119.376 121.107 119.126 118.865 118.04 114.933Z" fill="url(#paint6_radial_692_198)"/>
<path d="M120.11 98.3662C120.019 94.792 119.383 93.3936 118.04 91.1182V105.614C120.356 100.811 121.737 99.4138 124.252 99.4015C122.714 97.8121 121.802 97.3638 120.11 98.3662Z" fill="url(#paint7_radial_692_198)"/>
<path d="M57.5625 46.3398C59.4961 46.3398 61.2292 46.8411 62.7617 47.8438C64.3086 48.832 65.5332 50.1641 66.4355 51.8398C67.3379 53.5156 67.7891 55.3776 67.7891 57.4258C67.7891 60.5339 67.0514 63.4701 65.5762 66.2344C64.6022 68.082 63.3848 69.7005 61.9238 71.0898C60.4629 72.4648 58.8587 73.5319 57.1113 74.291C55.3783 75.0501 53.5807 75.4297 51.7188 75.4297C49.6849 75.4297 47.9017 74.9284 46.3691 73.9258C44.8509 72.9232 43.6693 71.5482 42.8242 69.8008C41.9935 68.0534 41.5781 66.0768 41.5781 63.8711C41.5781 60.8919 42.3659 58.0345 43.9414 55.2988C45.0013 53.4655 46.2617 51.8828 47.7227 50.5508C49.1836 49.2044 50.7591 48.166 52.4492 47.4355C54.1393 46.7051 55.8438 46.3398 57.5625 46.3398ZM56.5742 48.1445C55.0273 48.1445 53.5807 48.5814 52.2344 49.4551C50.9023 50.3145 49.7279 51.4746 48.7109 52.9355C47.694 54.3965 46.8991 56.0436 46.3262 57.877C45.7676 59.7103 45.4883 61.5938 45.4883 63.5273C45.4883 65.4753 45.7747 67.2083 46.3477 68.7266C46.9206 70.2305 47.7513 71.4193 48.8398 72.293C49.9427 73.1523 51.2747 73.582 52.8359 73.582C54.3255 73.582 55.7292 73.1452 57.0469 72.2715C58.3789 71.3835 59.5534 70.1947 60.5703 68.7051C61.5872 67.2155 62.3822 65.5469 62.9551 63.6992C63.5423 61.8516 63.8359 59.9609 63.8359 58.0273C63.8359 56.1081 63.5495 54.4108 62.9766 52.9355C62.418 51.446 61.5944 50.2786 60.5059 49.4336C59.4316 48.5742 58.1211 48.1445 56.5742 48.1445ZM69.8086 70.7461L73.8477 49.9062C73.9336 49.4766 73.9766 49.0755 73.9766 48.7031C73.9766 48.1589 73.1029 47.8867 71.3555 47.8867C71.2695 47.8867 71.2266 47.8008 71.2266 47.6289C71.2266 47.2852 71.3411 46.9987 71.5703 46.7695C73.4896 46.5977 75.3229 46.1966 77.0703 45.5664C77.2422 45.6523 77.3281 45.9245 77.3281 46.3828C77.3281 46.6979 77.1419 47.7721 76.7695 49.6055L72.6875 70.4453C72.6016 70.7891 72.5586 71.1471 72.5586 71.5195C72.5586 72.2357 72.7018 72.5938 72.9883 72.5938C73.1602 72.5938 73.3678 72.515 73.6113 72.3574C73.8548 72.1999 74.1055 72.0065 74.3633 71.7773C74.6211 71.5482 74.9147 71.2546 75.2441 70.8965C75.5736 70.5241 75.7669 70.3021 75.8242 70.2305C75.9102 70.2305 76.0247 70.3665 76.168 70.6387C76.3112 70.9108 76.3828 71.1042 76.3828 71.2188C76.1393 71.6341 75.6953 72.1641 75.0508 72.8086C74.4206 73.4531 73.7331 74.026 72.9883 74.5273C72.2435 75.0143 71.5703 75.2578 70.9688 75.2578C70.5391 75.2578 70.1882 75.0501 69.916 74.6348C69.6439 74.2194 69.5078 73.6823 69.5078 73.0234C69.5078 72.5794 69.6081 71.8203 69.8086 70.7461ZM86.6523 47.2422C87.082 47.2422 87.4473 47.4141 87.748 47.7578C88.0488 48.1016 88.1992 48.5026 88.1992 48.9609C88.1992 49.6484 87.9772 50.25 87.5332 50.7656C87.0892 51.2812 86.5378 51.5391 85.8789 51.5391C85.4206 51.5391 85.0625 51.36 84.8047 51.002C84.5469 50.6439 84.418 50.207 84.418 49.6914C84.418 49.0326 84.6328 48.4596 85.0625 47.9727C85.4922 47.4857 86.0221 47.2422 86.6523 47.2422ZM85.4062 56.3086C85.8646 56.3086 86.2227 56.5163 86.4805 56.9316C86.7383 57.347 86.8672 57.8841 86.8672 58.543C86.8672 59.1302 86.7812 59.8893 86.6094 60.8203L84.7188 70.4453C84.6328 70.7891 84.5898 71.1471 84.5898 71.5195C84.5898 72.2357 84.7331 72.5938 85.0195 72.5938C85.3776 72.5938 85.8073 72.3431 86.3086 71.8418C86.8099 71.3262 87.2396 70.8893 87.5977 70.5312L87.8555 70.2305C87.9128 70.2305 88.0202 70.3665 88.1777 70.6387C88.3353 70.9108 88.4141 71.1042 88.4141 71.2188C88.1706 71.6341 87.7266 72.1641 87.082 72.8086C86.4518 73.4531 85.7643 74.026 85.0195 74.5273C84.2747 75.0143 83.6016 75.2578 83 75.2578C82.5417 75.2578 82.1836 75.0501 81.9258 74.6348C81.668 74.2194 81.5391 73.6823 81.5391 73.0234C81.5391 72.5938 81.6393 71.8346 81.8398 70.7461L83.6016 61.7656C83.7448 60.9206 83.8164 60.3477 83.8164 60.0469C83.8164 59.3307 83.6732 58.9727 83.3867 58.9727C83.2148 58.9727 82.9785 59.0872 82.6777 59.3164C82.3913 59.5456 82.112 59.8034 81.8398 60.0898C81.5677 60.362 81.3672 60.5768 81.2383 60.7344L81.0234 60.9922C80.9661 60.9922 80.8587 60.8561 80.7012 60.584C80.5436 60.3118 80.4648 60.1185 80.4648 60.0039C80.694 59.6172 81.1094 59.1374 81.7109 58.5645C82.3125 57.9772 82.957 57.4544 83.6445 56.9961C84.332 56.5378 84.9193 56.3086 85.4062 56.3086ZM111.359 52.8711L108.309 69.0273C107.993 70.5599 107.836 71.849 107.836 72.8945C107.836 73.1237 108.029 73.3314 108.416 73.5176C108.803 73.7038 109.182 73.8255 109.555 73.8828L110.156 73.9688C110.214 73.9688 110.242 74.026 110.242 74.1406C110.242 74.4557 110.156 74.7852 109.984 75.1289C108.667 75.0573 107.635 75.0072 106.891 74.9785C106.146 74.9355 105.688 74.9141 105.516 74.9141C105.487 74.9141 105.079 74.9355 104.291 74.9785C103.503 75.0072 102.336 75.0573 100.789 75.1289C100.732 75.0716 100.703 74.957 100.703 74.7852C100.703 74.2409 100.803 73.9688 101.004 73.9688C101.233 73.9688 101.548 73.9258 101.949 73.8398C102.365 73.7539 102.751 73.6393 103.109 73.4961C103.467 73.3529 103.682 73.1953 103.754 73.0234C104.169 72.0781 104.542 70.7031 104.871 68.8984L107.922 53C108.237 51.4674 108.395 50.1497 108.395 49.0469C108.395 48.832 108.244 48.6387 107.943 48.4668C107.657 48.2949 107.32 48.1589 106.934 48.0586C106.561 47.944 106.246 47.8867 105.988 47.8867C105.931 47.8867 105.902 47.8151 105.902 47.6719C105.902 47.2708 106.017 46.9557 106.246 46.7266C106.475 46.7409 106.862 46.7695 107.406 46.8125C107.965 46.8555 108.566 46.8984 109.211 46.9414C109.855 46.9701 110.414 46.9844 110.887 46.9844C111.574 46.9844 112.455 46.9414 113.529 46.8555C114.604 46.7695 115.241 46.7266 115.441 46.7266V46.8555C115.441 47.543 115.341 47.8867 115.141 47.8867C114.997 47.8867 114.718 47.944 114.303 48.0586C113.902 48.1589 113.508 48.2878 113.121 48.4453C112.749 48.5885 112.534 48.7318 112.477 48.875C112.09 49.7201 111.717 51.0521 111.359 52.8711ZM127.945 56.3086C128.719 56.3086 129.313 56.5378 129.729 56.9961C130.144 57.4544 130.395 57.9342 130.48 58.4355C130.566 58.9368 130.609 59.5885 130.609 60.3906C130.609 60.9206 130.409 62.1953 130.008 64.2148C130.48 63.3984 131.068 62.5319 131.77 61.6152C132.471 60.6986 133.209 59.8392 133.982 59.0371C134.756 58.235 135.501 57.5833 136.217 57.082C136.933 56.5664 137.542 56.3086 138.043 56.3086C138.988 56.3086 139.633 56.5449 139.977 57.0176C140.32 57.4902 140.492 58.1992 140.492 59.1445C140.492 60.4766 140.292 62.0378 139.891 63.8281L138.473 70.4453C138.387 70.7891 138.344 71.1471 138.344 71.5195C138.344 72.2357 138.487 72.5938 138.773 72.5938C139.132 72.5938 139.561 72.3431 140.062 71.8418C140.564 71.3262 140.993 70.8893 141.352 70.5312L141.609 70.2305C141.667 70.2305 141.774 70.3665 141.932 70.6387C142.089 70.9108 142.168 71.1042 142.168 71.2188C141.924 71.6341 141.48 72.1641 140.836 72.8086C140.206 73.4531 139.518 74.026 138.773 74.5273C138.029 75.0143 137.355 75.2578 136.754 75.2578C136.296 75.2578 135.938 75.0501 135.68 74.6348C135.422 74.2194 135.293 73.6823 135.293 73.0234C135.293 72.5938 135.393 71.8346 135.594 70.7461L137.098 63.6562C137.298 62.6823 137.398 61.9089 137.398 61.3359C137.398 60.8346 137.355 60.4049 137.27 60.0469C137.198 59.6745 136.969 59.4883 136.582 59.4883C136.095 59.4883 135.458 59.832 134.67 60.5195C133.896 61.207 133.094 62.1165 132.264 63.248C131.433 64.3652 130.688 65.597 130.029 66.9434C129.37 68.2754 128.919 69.6003 128.676 70.918L127.902 75H125.023L127.43 62.7969C127.544 62.1523 127.602 61.6081 127.602 61.1641C127.602 60.0469 127.315 59.4883 126.742 59.4883C126.241 59.4883 125.604 59.8678 124.83 60.627C124.057 61.3861 123.262 62.3672 122.445 63.5703C121.629 64.7734 120.898 66.0553 120.254 67.416C119.609 68.7624 119.165 70.0299 118.922 71.2188L118.148 75C117.346 75.1146 116.859 75.1719 116.688 75.1719C116.544 75.1719 116.072 75.1146 115.27 75L117.848 61.7656C117.991 60.7773 118.062 60.2044 118.062 60.0469C118.062 59.3307 117.919 58.9727 117.633 58.9727C117.389 58.9727 117.024 59.2018 116.537 59.6602C116.308 59.8893 116.057 60.14 115.785 60.4121C115.527 60.6842 115.355 60.8776 115.27 60.9922C115.212 60.9922 115.105 60.8561 114.947 60.584C114.79 60.3118 114.711 60.1185 114.711 60.0039C114.94 59.6172 115.355 59.1374 115.957 58.5645C116.559 57.9772 117.203 57.4544 117.891 56.9961C118.578 56.5378 119.165 56.3086 119.652 56.3086C120.111 56.3086 120.469 56.5163 120.727 56.9316C120.984 57.347 121.113 57.8841 121.113 58.543C121.113 59.1732 121.027 59.9323 120.855 60.8203L120.082 64.8164C120.612 63.8997 121.221 62.9473 121.908 61.959C122.61 60.9707 123.326 60.0469 124.057 59.1875C124.801 58.3281 125.51 57.6335 126.184 57.1035C126.857 56.5736 127.444 56.3086 127.945 56.3086ZM150.633 56.3086C151.091 56.3086 151.449 56.5163 151.707 56.9316C151.965 57.347 152.094 57.8841 152.094 58.543C152.094 59.1732 152.008 59.9323 151.836 60.8203L151.148 64.4297C151.507 63.5846 151.965 62.6966 152.523 61.7656C153.096 60.8203 153.705 59.9323 154.35 59.1016C154.994 58.2708 155.632 57.5977 156.262 57.082C156.892 56.5664 157.451 56.3086 157.938 56.3086C158.911 56.3086 159.699 56.7669 160.301 57.6836C160.301 59.6029 159.771 60.5625 158.711 60.5625C158.482 60.5625 158.21 60.3835 157.895 60.0254C157.579 59.6673 157.25 59.4883 156.906 59.4883C156.491 59.4883 155.947 59.832 155.273 60.5195C154.6 61.207 153.906 62.1094 153.189 63.2266C152.473 64.3294 151.829 65.5254 151.256 66.8145C150.683 68.0892 150.289 69.3138 150.074 70.4883L149.258 75C148.771 75.0859 148.298 75.1289 147.84 75.1289C147.296 75.1289 146.766 75.0859 146.25 75L148.828 61.7656C148.971 60.7773 149.043 60.2044 149.043 60.0469C149.043 59.3307 148.9 58.9727 148.613 58.9727C148.37 58.9727 148.005 59.2018 147.518 59.6602C147.288 59.8893 147.038 60.14 146.766 60.4121C146.508 60.6842 146.336 60.8776 146.25 60.9922C146.193 60.9922 146.085 60.8561 145.928 60.584C145.77 60.3118 145.691 60.1185 145.691 60.0039C145.921 59.6172 146.336 59.1374 146.938 58.5645C147.539 57.9772 148.184 57.4544 148.871 56.9961C149.559 56.5378 150.146 56.3086 150.633 56.3086ZM170.098 56.3086C171.788 56.3086 173.098 56.8958 174.029 58.0703C174.96 59.2448 175.426 60.8633 175.426 62.9258C175.426 64.401 175.139 65.8691 174.566 67.3301C173.993 68.7767 173.242 70.0944 172.311 71.2832C171.38 72.472 170.355 73.4245 169.238 74.1406C168.121 74.8568 167.018 75.2148 165.93 75.2148C164.211 75.2148 162.9 74.6562 161.998 73.5391C161.096 72.4219 160.645 70.832 160.645 68.7695C160.645 67.2799 160.924 65.8047 161.482 64.3438C162.055 62.8685 162.807 61.5293 163.738 60.3262C164.669 59.1087 165.686 58.1348 166.789 57.4043C167.906 56.6738 169.009 56.3086 170.098 56.3086ZM169.582 58.0703C168.866 58.0703 168.171 58.3854 167.498 59.0156C166.825 59.6315 166.216 60.4408 165.672 61.4434C165.128 62.446 164.698 63.5417 164.383 64.7305C164.068 65.9193 163.91 67.0794 163.91 68.2109C163.91 69.8724 164.175 71.1615 164.705 72.0781C165.235 72.9948 165.901 73.4531 166.703 73.4531C167.419 73.4531 168.1 73.1452 168.744 72.5293C169.403 71.8991 169.99 71.0827 170.506 70.0801C171.021 69.0632 171.423 67.9603 171.709 66.7715C172.01 65.5827 172.16 64.4154 172.16 63.2695C172.16 61.5794 171.931 60.2904 171.473 59.4023C171.014 58.5143 170.384 58.0703 169.582 58.0703ZM184.02 56.3086C184.478 56.3086 184.836 56.5163 185.094 56.9316C185.352 57.347 185.48 57.8841 185.48 58.543C185.48 59.1732 185.395 59.9323 185.223 60.8203L184.449 64.7734C184.721 64.2865 185.344 63.3984 186.318 62.1094C186.963 61.2643 187.708 60.3978 188.553 59.5098C189.412 58.6074 190.257 57.8483 191.088 57.2324C191.933 56.6165 192.642 56.3086 193.215 56.3086C194.647 56.3086 195.363 57.2539 195.363 59.1445C195.363 60.4766 195.163 62.0378 194.762 63.8281L193.344 70.4453C193.258 70.7891 193.215 71.1471 193.215 71.5195C193.215 72.2357 193.358 72.5938 193.645 72.5938C194.003 72.5938 194.432 72.3431 194.934 71.8418C195.435 71.3262 195.865 70.8893 196.223 70.5312L196.48 70.2305C196.538 70.2305 196.645 70.3665 196.803 70.6387C196.96 70.9108 197.039 71.1042 197.039 71.2188C196.796 71.6341 196.352 72.1641 195.707 72.8086C195.077 73.4531 194.389 74.026 193.645 74.5273C192.9 75.0143 192.227 75.2578 191.625 75.2578C191.167 75.2578 190.809 75.0501 190.551 74.6348C190.293 74.2194 190.164 73.6823 190.164 73.0234C190.164 72.5938 190.264 71.8346 190.465 70.7461L191.969 63.6562C192.169 62.6823 192.27 61.9089 192.27 61.3359C192.27 60.1042 191.997 59.4883 191.453 59.4883C190.98 59.4883 190.343 59.8464 189.541 60.5625C188.739 61.2643 187.901 62.2025 187.027 63.377C186.168 64.5514 185.387 65.862 184.686 67.3086C183.984 68.7409 183.49 70.1875 183.203 71.6484L182.473 75C182.086 75.1146 181.642 75.1719 181.141 75.1719C180.654 75.1719 180.167 75.1146 179.68 75L182.215 61.7656C182.358 60.7773 182.43 60.2044 182.43 60.0469C182.43 59.3307 182.286 58.9727 182 58.9727C181.757 58.9727 181.391 59.2018 180.904 59.6602C180.675 59.8893 180.424 60.14 180.152 60.4121C179.895 60.6842 179.723 60.8776 179.637 60.9922C179.579 60.9922 179.472 60.8561 179.314 60.584C179.157 60.3118 179.078 60.1185 179.078 60.0039C179.307 59.6172 179.723 59.1374 180.324 58.5645C180.926 57.9772 181.57 57.4544 182.258 56.9961C182.945 56.5378 183.533 56.3086 184.02 56.3086Z" fill="white"/>
<path d="M0 14.4961C6.30012 20.0984 15.0791 19.1979 30.687 15.1421C32.2497 14.736 33.9168 14.9601 35.3059 15.7832L61.0905 31.063L35.3304 19.6141C33.9205 18.9874 32.3183 18.9353 30.8588 19.4358C12.5496 25.7159 4.73674 24.7283 0 14.4961Z" fill="url(#paint8_radial_692_198)"/>
<path d="M16.5669 25.8858C22.7094 27.5488 34.4861 19.1752 43.5027 24.2129C35.7991 20.3448 24.9274 34.7378 16.5669 25.8858Z" fill="url(#paint9_radial_692_198)"/>
<path d="M42.4528 34.1693C40.4746 32.9379 39.8039 31.791 39.5364 30.2054C39.314 28.8871 40.2138 27.6374 41.514 27.3262C46.4064 26.1551 49.6595 27.3172 54.8779 31.063C50.3759 26.3362 46.8249 25.2844 39.6469 25.78C38.7972 25.8387 38.0191 26.2751 37.5081 26.9564L36.1669 28.7446C35.6047 29.4943 35.6307 30.5432 36.2784 31.2205C38.4425 33.4837 39.9798 34.1156 42.4528 34.1693Z" fill="url(#paint10_radial_692_198)"/>
<path d="M61.0905 28.9921C48.8725 19.5072 53.131 18.6378 60.0551 10.3543C56.6285 8.93238 54.8937 8.83857 52.8071 12.4252C51.2879 8.29387 49.7783 6.42726 45.559 4.14173C43.8524 8.52031 44.6321 10.6991 46.5945 14.4961C42.9378 12.0347 40.7471 11.3823 36.2402 13.4606C46.3046 17.727 45.2926 18.8748 61.0905 28.9921Z" fill="url(#paint11_radial_692_198)"/>
<path d="M78.6929 22.7441C78.6929 22.1918 79.1406 21.7441 79.6929 21.7441H79.7638C80.3161 21.7441 80.7638 22.1918 80.7638 22.7441V25.9213C80.7638 26.4735 80.3161 26.9213 79.7638 26.9213H74.4803C73.3757 26.9213 72.4803 26.0258 72.4803 24.9213V19.6024C72.4803 18.4978 73.3757 17.6024 74.4803 17.6024H78.7281C80.6137 17.6024 82.4755 18.023 84.178 18.8337V18.8337C85.2965 19.3663 86.1249 20.3629 86.4441 21.5599L88.3399 28.6695C89.2063 31.9182 86.6836 35.0788 83.3237 34.9544L68.0679 34.3894C64.7776 34.2675 62.2002 31.5169 62.2923 28.2256L62.6948 13.8426C62.7856 10.5955 65.4441 8.01038 68.6924 8.01038H83.0387C86.0229 8.01038 88.8896 9.21712 90.915 11.4088C101.807 23.194 109.097 33.3225 115.395 32.2299C115.685 32.1796 115.968 32.3916 115.968 32.686V32.686C115.968 32.9325 115.766 33.1318 115.519 33.1285C109.37 33.045 105.37 32.4313 87.653 13.254C86.5367 12.0456 85.0793 11.1983 83.4735 10.8414L77.8584 9.59364C77.0431 9.41248 76.199 9.4035 75.3801 9.56728L71.091 10.4251C68.2865 10.986 66.2677 13.4485 66.2677 16.3086V27.0984C66.2677 29.8599 68.5063 32.0984 71.2677 32.0984H80.9055C83.1146 32.0984 84.9055 30.3076 84.9055 28.0984V22.6378C84.9055 20.4287 83.1146 18.6378 80.9055 18.6378H76.5512C75.4466 18.6378 74.5512 19.5332 74.5512 20.6378V24.8858C74.5512 25.4381 74.9989 25.8858 75.5512 25.8858H77.6929C78.2452 25.8858 78.6929 25.4381 78.6929 24.8858V22.7441Z" fill="url(#paint12_radial_692_198)"/>
<path d="M104.412 33.0631C96.4743 29.9513 88.3242 12.4066 78.6929 13.4606C91.6665 19.2326 92.9183 31.4785 104.412 33.0631Z" fill="url(#paint13_radial_692_198)"/>
<path d="M111.827 30.0276C106.485 21.6827 106.361 16.9143 110.791 8.28346C105.363 9.71409 97.6256 19.5114 111.827 30.0276Z" fill="url(#paint14_radial_692_198)"/>
<path d="M118.039 10.3543C113.102 14.0549 110.405 23.2793 118.039 32.0984C106.33 25.6888 109.793 12.7713 118.039 0V10.3543Z" fill="url(#paint15_radial_692_198)"/>
<path d="M236.079 14.4961C229.778 20.0984 221 19.1979 205.392 15.1421C203.829 14.736 202.162 14.9601 200.773 15.7832L174.988 31.063L200.748 19.6141C202.158 18.9874 203.76 18.9353 205.22 19.4358C223.529 25.7159 231.342 24.7283 236.079 14.4961Z" fill="url(#paint16_radial_692_198)"/>
<path d="M219.512 25.8858C213.369 27.5488 201.593 19.1752 192.576 24.2129C200.279 20.3448 211.151 34.7378 219.512 25.8858Z" fill="url(#paint17_radial_692_198)"/>
<path d="M193.626 34.1693C195.604 32.9379 196.275 31.791 196.542 30.2054C196.765 28.8871 195.865 27.6374 194.565 27.3262C189.672 26.1551 186.419 27.3172 181.201 31.063C185.703 26.3362 189.254 25.2844 196.432 25.78C197.281 25.8387 198.06 26.2751 198.571 26.9564L199.912 28.7446C200.474 29.4943 200.448 30.5432 199.8 31.2205C197.636 33.4837 196.099 34.1156 193.626 34.1693Z" fill="url(#paint18_radial_692_198)"/>
<path d="M174.988 28.9921C187.206 19.5072 182.948 18.6378 176.024 10.3543C179.45 8.93238 181.185 8.83857 183.272 12.4252C184.791 8.29387 186.3 6.42726 190.52 4.14173C192.226 8.52031 191.446 10.6991 189.484 14.4961C193.141 12.0347 195.331 11.3823 199.838 13.4606C189.774 17.727 190.786 18.8748 174.988 28.9921Z" fill="url(#paint19_radial_692_198)"/>
<path d="M157.386 22.7441C157.386 22.1918 156.938 21.7441 156.386 21.7441H156.315C155.763 21.7441 155.315 22.1918 155.315 22.7441V25.9213C155.315 26.4735 155.763 26.9213 156.315 26.9213H161.598C162.703 26.9213 163.598 26.0258 163.598 24.9213V19.6024C163.598 18.4978 162.703 17.6024 161.598 17.6024H157.351C155.465 17.6024 153.603 18.023 151.901 18.8337V18.8337C150.782 19.3663 149.954 20.3629 149.635 21.5599L147.739 28.6695C146.872 31.9182 149.395 35.0788 152.755 34.9544L168.011 34.3894C171.301 34.2675 173.878 31.5169 173.786 28.2256L173.384 13.8426C173.293 10.5955 170.635 8.01038 167.386 8.01038H153.04C150.056 8.01038 147.189 9.21712 145.164 11.4088C134.272 23.194 126.982 33.3225 120.683 32.2299C120.393 32.1796 120.11 32.3916 120.11 32.686V32.686C120.11 32.9325 120.313 33.1318 120.559 33.1285C126.708 33.045 130.709 32.4313 148.426 13.254C149.542 12.0456 150.999 11.1983 152.605 10.8414L158.22 9.59364C159.035 9.41248 159.88 9.4035 160.698 9.56728L164.988 10.4251C167.792 10.986 169.811 13.4485 169.811 16.3086V27.0984C169.811 29.8599 167.572 32.0984 164.811 32.0984H155.173C152.964 32.0984 151.173 30.3076 151.173 28.0984V22.6378C151.173 20.4287 152.964 18.6378 155.173 18.6378H159.527C160.632 18.6378 161.527 19.5332 161.527 20.6378V24.8858C161.527 25.4381 161.08 25.8858 160.527 25.8858H158.386C157.833 25.8858 157.386 25.4381 157.386 24.8858V22.7441Z" fill="url(#paint20_radial_692_198)"/>
<path d="M131.666 33.0631C139.604 29.9513 147.754 12.4066 157.386 13.4606C144.412 19.2326 143.16 31.4785 131.666 33.0631Z" fill="url(#paint21_radial_692_198)"/>
<path d="M124.252 30.0276C129.594 21.6827 129.718 16.9143 125.287 8.28346C130.716 9.71409 138.453 19.5114 124.252 30.0276Z" fill="url(#paint22_radial_692_198)"/>
<path d="M118.039 10.3543C122.976 14.0549 125.673 23.2793 118.039 32.0984C129.749 25.6888 126.286 12.7713 118.039 0V10.3543Z" fill="url(#paint23_radial_692_198)"/>
<defs>
<radialGradient id="paint0_radial_692_198" cx="0" cy="0" r="1" gradientUnits="userSpaceOnUse" gradientTransform="translate(79.7285 111.309) scale(38.311 20.1909)">
<stop stop-color="#E1E1E1"/>
<stop offset="1" stop-color="#FFF4DA"/>
</radialGradient>
<radialGradient id="paint1_radial_692_198" cx="0" cy="0" r="1" gradientUnits="userSpaceOnUse" gradientTransform="translate(79.7285 111.309) scale(38.311 20.1909)">
<stop stop-color="#E1E1E1"/>
<stop offset="1" stop-color="#FFF4DA"/>
</radialGradient>
<radialGradient id="paint2_radial_692_198" cx="0" cy="0" r="1" gradientUnits="userSpaceOnUse" gradientTransform="translate(79.7285 111.309) scale(38.311 20.1909)">
<stop stop-color="#E1E1E1"/>
<stop offset="1" stop-color="#FFF4DA"/>
</radialGradient>
<radialGradient id="paint3_radial_692_198" cx="0" cy="0" r="1" gradientUnits="userSpaceOnUse" gradientTransform="translate(79.7285 111.309) scale(38.311 20.1909)">
<stop stop-color="#E1E1E1"/>
<stop offset="1" stop-color="#FFF4DA"/>
</radialGradient>
<radialGradient id="paint4_radial_692_198" cx="0" cy="0" r="1" gradientUnits="userSpaceOnUse" gradientTransform="translate(156.351 111.309) rotate(180) scale(38.311 20.1909)">
<stop stop-color="#E1E1E1"/>
<stop offset="1" stop-color="#FFF4DA"/>
</radialGradient>
<radialGradient id="paint5_radial_692_198" cx="0" cy="0" r="1" gradientUnits="userSpaceOnUse" gradientTransform="translate(156.351 111.309) rotate(180) scale(38.311 20.1909)">
<stop stop-color="#E1E1E1"/>
<stop offset="1" stop-color="#FFF4DA"/>
</radialGradient>
<radialGradient id="paint6_radial_692_198" cx="0" cy="0" r="1" gradientUnits="userSpaceOnUse" gradientTransform="translate(156.351 111.309) rotate(180) scale(38.311 20.1909)">
<stop stop-color="#E1E1E1"/>
<stop offset="1" stop-color="#FFF4DA"/>
</radialGradient>
<radialGradient id="paint7_radial_692_198" cx="0" cy="0" r="1" gradientUnits="userSpaceOnUse" gradientTransform="translate(156.351 111.309) rotate(180) scale(38.311 20.1909)">
<stop stop-color="#E1E1E1"/>
<stop offset="1" stop-color="#FFF4DA"/>
</radialGradient>
<radialGradient id="paint8_radial_692_198" cx="0" cy="0" r="1" gradientUnits="userSpaceOnUse" gradientTransform="translate(59.0197 17.6024) scale(59.0197 17.6024)">
<stop stop-color="#E1E1E1"/>
<stop offset="1" stop-color="#FFF4DA"/>
</radialGradient>
<radialGradient id="paint9_radial_692_198" cx="0" cy="0" r="1" gradientUnits="userSpaceOnUse" gradientTransform="translate(59.0197 17.6024) scale(59.0197 17.6024)">
<stop stop-color="#E1E1E1"/>
<stop offset="1" stop-color="#FFF4DA"/>
</radialGradient>
<radialGradient id="paint10_radial_692_198" cx="0" cy="0" r="1" gradientUnits="userSpaceOnUse" gradientTransform="translate(59.0197 17.6024) scale(59.0197 17.6024)">
<stop stop-color="#E1E1E1"/>
<stop offset="1" stop-color="#FFF4DA"/>
</radialGradient>
<radialGradient id="paint11_radial_692_198" cx="0" cy="0" r="1" gradientUnits="userSpaceOnUse" gradientTransform="translate(59.0197 17.6024) scale(59.0197 17.6024)">
<stop stop-color="#E1E1E1"/>
<stop offset="1" stop-color="#FFF4DA"/>
</radialGradient>
<radialGradient id="paint12_radial_692_198" cx="0" cy="0" r="1" gradientUnits="userSpaceOnUse" gradientTransform="translate(59.0197 17.6024) scale(59.0197 17.6024)">
<stop stop-color="#E1E1E1"/>
<stop offset="1" stop-color="#FFF4DA"/>
</radialGradient>
<radialGradient id="paint13_radial_692_198" cx="0" cy="0" r="1" gradientUnits="userSpaceOnUse" gradientTransform="translate(59.0197 17.6024) scale(59.0197 17.6024)">
<stop stop-color="#E1E1E1"/>
<stop offset="1" stop-color="#FFF4DA"/>
</radialGradient>
<radialGradient id="paint14_radial_692_198" cx="0" cy="0" r="1" gradientUnits="userSpaceOnUse" gradientTransform="translate(59.0197 17.6024) scale(59.0197 17.6024)">
<stop stop-color="#E1E1E1"/>
<stop offset="1" stop-color="#FFF4DA"/>
</radialGradient>
<radialGradient id="paint15_radial_692_198" cx="0" cy="0" r="1" gradientUnits="userSpaceOnUse" gradientTransform="translate(59.0197 17.6024) scale(59.0197 17.6024)">
<stop stop-color="#E1E1E1"/>
<stop offset="1" stop-color="#FFF4DA"/>
</radialGradient>
<radialGradient id="paint16_radial_692_198" cx="0" cy="0" r="1" gradientUnits="userSpaceOnUse" gradientTransform="translate(177.059 17.6024) rotate(180) scale(59.0197 17.6024)">
<stop stop-color="#E1E1E1"/>
<stop offset="1" stop-color="#FFF4DA"/>
</radialGradient>
<radialGradient id="paint17_radial_692_198" cx="0" cy="0" r="1" gradientUnits="userSpaceOnUse" gradientTransform="translate(177.059 17.6024) rotate(180) scale(59.0197 17.6024)">
<stop stop-color="#E1E1E1"/>
<stop offset="1" stop-color="#FFF4DA"/>
</radialGradient>
<radialGradient id="paint18_radial_692_198" cx="0" cy="0" r="1" gradientUnits="userSpaceOnUse" gradientTransform="translate(177.059 17.6024) rotate(180) scale(59.0197 17.6024)">
<stop stop-color="#E1E1E1"/>
<stop offset="1" stop-color="#FFF4DA"/>
</radialGradient>
<radialGradient id="paint19_radial_692_198" cx="0" cy="0" r="1" gradientUnits="userSpaceOnUse" gradientTransform="translate(177.059 17.6024) rotate(180) scale(59.0197 17.6024)">
<stop stop-color="#E1E1E1"/>
<stop offset="1" stop-color="#FFF4DA"/>
</radialGradient>
<radialGradient id="paint20_radial_692_198" cx="0" cy="0" r="1" gradientUnits="userSpaceOnUse" gradientTransform="translate(177.059 17.6024) rotate(180) scale(59.0197 17.6024)">
<stop stop-color="#E1E1E1"/>
<stop offset="1" stop-color="#FFF4DA"/>
</radialGradient>
<radialGradient id="paint21_radial_692_198" cx="0" cy="0" r="1" gradientUnits="userSpaceOnUse" gradientTransform="translate(177.059 17.6024) rotate(180) scale(59.0197 17.6024)">
<stop stop-color="#E1E1E1"/>
<stop offset="1" stop-color="#FFF4DA"/>
</radialGradient>
<radialGradient id="paint22_radial_692_198" cx="0" cy="0" r="1" gradientUnits="userSpaceOnUse" gradientTransform="translate(177.059 17.6024) rotate(180) scale(59.0197 17.6024)">
<stop stop-color="#E1E1E1"/>
<stop offset="1" stop-color="#FFF4DA"/>
</radialGradient>
<radialGradient id="paint23_radial_692_198" cx="0" cy="0" r="1" gradientUnits="userSpaceOnUse" gradientTransform="translate(177.059 17.6024) rotate(180) scale(59.0197 17.6024)">
<stop stop-color="#E1E1E1"/>
<stop offset="1" stop-color="#FFF4DA"/>
</radialGradient>
</defs>
</svg>
