<svg width="237" height="132" viewBox="0 0 237 132" fill="none" xmlns="http://www.w3.org/2000/svg">
<path d="M50.7125 108.06C49.3889 108.487 47.9214 108.504 46.7169 107.809C44.5794 106.575 44.1412 105.154 44.5234 102.508V102.508C42.8798 103.056 42.063 104.953 43.0339 106.388C43.9977 107.812 45.0937 108.974 46.6267 110.246C47.9171 111.316 49.5696 111.855 51.2458 111.812C56.4406 111.679 59.0349 110.851 62.1257 108.72C61.1051 110.641 61.1618 111.76 61.9885 113.6C62.0605 113.76 62.2568 113.822 62.4077 113.731C64.0825 112.73 65.0039 111.892 66.2674 109.756C66.2154 114.032 66.9843 113.977 70.4091 114.933C67.5194 110.86 68.0525 109.221 70.1981 106.254C70.9958 105.151 72.1259 104.331 73.4053 103.866L78.5776 101.985C81.3342 100.982 84.3487 100.942 87.1313 101.869L104.173 107.55C104.307 107.435 104.442 107.326 104.578 107.223V104.508C104.578 103.403 105.474 102.508 106.578 102.508H108.791C109.896 102.508 110.791 103.403 110.791 104.508V105.614H111.826V103.472C111.826 102.368 110.931 101.472 109.826 101.472H105.543C104.438 101.472 103.543 102.368 103.543 103.472V106.65C98.7736 103.748 93.5321 101.584 86.7257 99.7769C82.8456 98.747 78.7534 99.0145 74.9328 100.247L50.7125 108.06Z" fill="url(#paint0_radial_692_2074)"/>
<path fill-rule="evenodd" clip-rule="evenodd" d="M118.039 111.827V108.721C115.458 105.74 114.163 105.799 111.826 105.614H110.791C108.063 105.589 106.222 105.979 104.578 107.223V107.685L104.173 107.55C103.27 108.327 102.409 109.382 101.472 110.791C94.4225 108.167 92.2419 105.859 84.6304 104.117C82.7927 103.696 80.8379 103.854 79.1733 104.739C77.1406 105.82 75.7478 107.075 74.4004 109.235C73.7976 110.201 73.7049 111.42 74.2146 112.438C75.0495 114.107 76.2498 115.417 79.1376 117.128C80.1186 117.709 81.3505 117.62 82.2784 116.957L86.28 114.099C87.2184 113.429 87.4128 112.09 86.6211 111.251C84.8302 109.354 83.7227 109.09 81.7989 109.756C83.0242 110.067 83.7473 110.456 84.396 111.688C84.7596 112.378 84.5518 113.216 84 113.767L82.2754 115.492C81.3706 116.397 79.9663 116.664 78.9055 115.948C77.3915 114.927 76.4781 113.802 75.4876 112.283C74.8937 111.372 74.8539 110.185 75.48 109.296C77.188 106.871 79.0763 106.022 82.8343 105.614C87.5138 105.758 93.9734 109.592 101.472 112.862C101.61 115.305 101.827 117.608 105.43 119.531C106.15 119.915 107.027 119.733 107.604 119.156L110.252 116.508C110.55 116.21 110.55 115.727 110.252 115.429V115.429C109.971 115.149 109.521 115.134 109.21 115.381C104.882 118.812 103.349 117.017 102.508 112.862C108.784 113.743 111.6 112.063 112.862 106.65H114.933L118.039 111.827ZM102.508 111.827C105.324 107.593 107.416 106.549 111.826 106.65C109.581 111.782 107.623 113.001 102.508 111.827Z" fill="url(#paint1_radial_692_2074)"/>
<path d="M118.039 114.933V111.827C116.112 115.763 116.189 118.074 110.791 119.075C111.96 121.038 112.806 121.636 114.933 121.146C115.324 125.201 115.717 127.472 118.039 131.5V125.287C116.703 121.107 116.952 118.865 118.039 114.933Z" fill="url(#paint2_radial_692_2074)"/>
<path d="M115.968 98.3662C116.06 94.792 116.696 93.3936 118.039 91.1182V105.614C115.722 100.811 114.342 99.4138 111.826 99.4015C113.364 97.8121 114.276 97.3638 115.968 98.3662Z" fill="url(#paint3_radial_692_2074)"/>
<path d="M185.366 108.06C186.689 108.487 188.157 108.504 189.361 107.809C191.499 106.575 191.937 105.154 191.555 102.508V102.508C193.198 103.056 194.015 104.953 193.044 106.388C192.08 107.812 190.984 108.974 189.451 110.246C188.161 111.316 186.509 111.855 184.832 111.812C179.637 111.679 177.043 110.851 173.952 108.72C174.973 110.641 174.916 111.76 174.09 113.6C174.018 113.76 173.821 113.822 173.67 113.731C171.996 112.73 171.074 111.892 169.811 109.756C169.863 114.032 169.094 113.977 165.669 114.933C168.559 110.86 168.026 109.221 165.88 106.254C165.082 105.151 163.952 104.331 162.673 103.866L157.5 101.985C154.744 100.982 151.729 100.942 148.947 101.869L131.905 107.55C131.771 107.435 131.636 107.326 131.5 107.223V104.508C131.5 103.403 130.604 102.508 129.5 102.508H127.287C126.183 102.508 125.287 103.403 125.287 104.508V105.614H124.252V103.472C124.252 102.368 125.147 101.472 126.252 101.472H130.535C131.64 101.472 132.535 102.368 132.535 103.472V106.65C137.304 103.748 142.546 101.584 149.352 99.7769C153.232 98.747 157.325 99.0145 161.145 100.247L185.366 108.06Z" fill="url(#paint4_radial_692_2074)"/>
<path fill-rule="evenodd" clip-rule="evenodd" d="M118.039 111.827V108.721C120.62 105.74 121.915 105.799 124.252 105.614H125.287C128.015 105.589 129.856 105.979 131.5 107.223V107.685L131.905 107.55C132.808 108.327 133.669 109.382 134.606 110.791C141.656 108.167 143.836 105.859 151.448 104.117C153.285 103.696 155.24 103.854 156.905 104.739C158.938 105.82 160.33 107.075 161.678 109.235C162.281 110.201 162.373 111.42 161.863 112.438C161.029 114.107 159.828 115.417 156.941 117.128C155.96 117.709 154.728 117.62 153.8 116.957L149.798 114.099C148.86 113.429 148.665 112.09 149.457 111.251C151.248 109.354 152.355 109.09 154.279 109.756C153.054 110.067 152.331 110.456 151.682 111.688C151.319 112.378 151.526 113.216 152.078 113.767L153.803 115.492C154.708 116.397 156.112 116.664 157.173 115.948C158.687 114.927 159.6 113.802 160.591 112.283C161.184 111.372 161.224 110.185 160.598 109.296C158.89 106.871 157.002 106.022 153.244 105.614C148.564 105.758 142.105 109.592 134.606 112.862C134.468 115.305 134.251 117.608 130.648 119.531C129.928 119.915 129.051 119.733 128.474 119.156L125.826 116.508C125.528 116.21 125.528 115.727 125.826 115.429V115.429C126.107 115.149 126.557 115.134 126.868 115.381C131.196 118.812 132.729 117.017 133.571 112.862C127.294 113.743 124.478 112.063 123.216 106.65H121.145L118.039 111.827ZM133.571 111.827C130.754 107.593 128.662 106.549 124.252 106.65C126.497 111.782 128.455 113.001 133.571 111.827Z" fill="url(#paint5_radial_692_2074)"/>
<path d="M118.039 114.933V111.827C119.967 115.763 119.889 118.074 125.287 119.075C124.119 121.038 123.273 121.636 121.145 121.146C120.754 125.201 120.361 127.472 118.039 131.5V125.287C119.375 121.107 119.126 118.865 118.039 114.933Z" fill="url(#paint6_radial_692_2074)"/>
<path d="M120.11 98.3662C120.019 94.792 119.382 93.3936 118.039 91.1182V105.614C120.356 100.811 121.736 99.4138 124.252 99.4015C122.714 97.8121 121.802 97.3638 120.11 98.3662Z" fill="url(#paint7_radial_692_2074)"/>
<path d="M95.5625 46.3398C97.4961 46.3398 99.2292 46.8411 100.762 47.8438C102.309 48.832 103.533 50.1641 104.436 51.8398C105.338 53.5156 105.789 55.3776 105.789 57.4258C105.789 59.4023 105.467 61.3431 104.822 63.248C104.178 65.1387 103.275 66.8861 102.115 68.4902C100.955 70.0944 99.6016 71.4622 98.0547 72.5938C95.4193 74.5273 92.3542 75.8307 88.8594 76.5039C89.7044 76.6042 91.7096 77.3346 94.875 78.6953C98.0117 80.0417 100.547 80.7148 102.48 80.7148C103.197 80.7148 103.956 80.5645 104.758 80.2637C105.574 79.9772 106.34 79.6263 107.057 79.2109C107.773 78.7956 108.339 78.4089 108.754 78.0508C109.413 78.3659 109.742 78.7096 109.742 79.082C109.398 79.5404 108.761 80.0775 107.83 80.6934C106.899 81.3092 105.818 81.8464 104.586 82.3047C103.368 82.763 102.137 82.9922 100.891 82.9922C99.0286 82.9922 97.2311 82.6986 95.498 82.1113C93.765 81.5241 91.7096 80.7148 89.332 79.6836C86.9401 78.6523 84.5911 77.8359 82.2852 77.2344C82.2852 77.1198 82.3783 76.9264 82.5645 76.6543C82.7507 76.3822 82.9154 76.2174 83.0586 76.1602C83.4596 76.1458 84.9779 75.8307 87.6133 75.2148C85.9805 74.8854 84.5625 74.1908 83.3594 73.1309C82.1562 72.071 81.2253 70.7461 80.5664 69.1562C79.9076 67.5521 79.5781 65.7904 79.5781 63.8711C79.5781 60.8919 80.3659 58.0345 81.9414 55.2988C83.0013 53.4655 84.2617 51.8828 85.7227 50.5508C87.1836 49.2044 88.7591 48.166 90.4492 47.4355C92.1393 46.7051 93.8438 46.3398 95.5625 46.3398ZM94.5742 48.1445C93.0273 48.1445 91.5807 48.5814 90.2344 49.4551C88.9023 50.3145 87.7279 51.4746 86.7109 52.9355C85.694 54.3965 84.8991 56.0436 84.3262 57.877C83.7676 59.7103 83.4883 61.5938 83.4883 63.5273C83.4883 65.4753 83.7747 67.2083 84.3477 68.7266C84.9206 70.2305 85.7513 71.4193 86.8398 72.293C87.9427 73.1523 89.2747 73.582 90.8359 73.582C92.3255 73.582 93.7292 73.1452 95.0469 72.2715C96.3789 71.3835 97.5534 70.1947 98.5703 68.7051C99.5872 67.2155 100.382 65.5469 100.955 63.6992C101.542 61.8516 101.836 59.9609 101.836 58.0273C101.836 56.1081 101.549 54.4108 100.977 52.9355C100.418 51.446 99.5944 50.2786 98.5059 49.4336C97.4316 48.5742 96.1211 48.1445 94.5742 48.1445ZM118.895 56.3086C119.954 56.3086 121 56.4948 122.031 56.8672L119.41 70.4453C119.324 70.7891 119.281 71.1471 119.281 71.5195C119.281 72.2357 119.424 72.5938 119.711 72.5938C120.069 72.5938 120.499 72.3431 121 71.8418C121.501 71.3262 121.931 70.8893 122.289 70.5312L122.547 70.2305C122.604 70.2305 122.712 70.3665 122.869 70.6387C123.027 70.9108 123.105 71.1042 123.105 71.2188C122.862 71.6341 122.418 72.1641 121.773 72.8086C121.143 73.4531 120.456 74.026 119.711 74.5273C118.966 75.0143 118.293 75.2578 117.691 75.2578C117.233 75.2578 116.875 75.0501 116.617 74.6348C116.359 74.2194 116.23 73.6823 116.23 73.0234C116.23 72.5794 116.331 71.8203 116.531 70.7461L116.682 69.9941C116.725 69.7936 116.746 69.6719 116.746 69.6289C116.517 70.0586 116.188 70.5885 115.758 71.2188C115.328 71.8346 114.834 72.4505 114.275 73.0664C113.717 73.6823 113.13 74.1979 112.514 74.6133C111.898 75.0143 111.289 75.2148 110.688 75.2148C109.427 75.2148 108.432 74.6491 107.701 73.5176C106.971 72.3861 106.605 71.0182 106.605 69.4141C106.605 67.3659 107.214 65.3249 108.432 63.291C109.248 61.916 110.222 60.7057 111.354 59.6602C112.499 58.6146 113.724 57.7982 115.027 57.2109C116.331 56.6094 117.62 56.3086 118.895 56.3086ZM117.09 58.2852C116.245 58.2852 115.393 58.5859 114.533 59.1875C113.674 59.7747 112.886 60.5697 112.17 61.5723C111.454 62.5605 110.874 63.6634 110.43 64.8809C110 66.084 109.785 67.2943 109.785 68.5117C109.785 71.319 110.516 72.7227 111.977 72.7227C112.492 72.7227 113.051 72.4362 113.652 71.8633C114.254 71.2904 114.848 70.5312 115.436 69.5859C116.023 68.6406 116.538 67.6165 116.982 66.5137C117.441 65.3965 117.777 64.3008 117.992 63.2266L118.852 58.8438C118.508 58.4714 117.921 58.2852 117.09 58.2852ZM143.344 46.3828L142.699 49.6055L138.66 70.4453C138.574 70.7891 138.531 71.1471 138.531 71.5195C138.531 72.2357 138.674 72.5938 138.961 72.5938C139.319 72.5938 139.749 72.3431 140.25 71.8418C140.751 71.3262 141.181 70.8893 141.539 70.5312L141.797 70.2305C141.854 70.2305 141.962 70.3665 142.119 70.6387C142.277 70.9108 142.355 71.1042 142.355 71.2188C142.112 71.6341 141.668 72.1641 141.023 72.8086C140.393 73.4531 139.706 74.026 138.961 74.5273C138.216 75.0143 137.543 75.2578 136.941 75.2578C136.483 75.2578 136.125 75.0501 135.867 74.6348C135.609 74.2194 135.48 73.6823 135.48 73.0234C135.48 72.5938 135.581 71.8346 135.781 70.7461C135.81 70.6029 135.86 70.388 135.932 70.1016C136.003 69.8151 136.039 69.6432 136.039 69.5859C135.853 69.9154 135.645 70.252 135.416 70.5957C135.201 70.9395 134.972 71.2904 134.729 71.6484C134.399 72.1354 133.955 72.6582 133.396 73.2168C132.852 73.7611 132.272 74.2337 131.656 74.6348C131.055 75.0215 130.496 75.2148 129.98 75.2148C128.663 75.2148 127.646 74.6491 126.93 73.5176C126.214 72.3861 125.855 71.0182 125.855 69.4141C125.855 67.8672 126.214 66.3203 126.93 64.7734C127.66 63.2266 128.62 61.8158 129.809 60.541C130.997 59.2663 132.308 58.2422 133.74 57.4688C135.187 56.6953 136.626 56.3086 138.059 56.3086H138.617L139.82 49.9062C139.906 49.4909 139.949 49.0898 139.949 48.7031C139.949 48.1589 139.076 47.8867 137.328 47.8867C137.242 47.8867 137.199 47.8008 137.199 47.6289C137.199 47.2852 137.314 46.9987 137.543 46.7695C139.491 46.5977 141.339 46.1966 143.086 45.5664C143.258 45.6667 143.344 45.9388 143.344 46.3828ZM137.242 63.1406L137.758 60.3477C137.872 59.8034 137.815 59.3236 137.586 58.9082C137.357 58.4928 136.97 58.2852 136.426 58.2852C135.552 58.2852 134.678 58.5859 133.805 59.1875C132.931 59.7891 132.136 60.5911 131.42 61.5938C130.704 62.582 130.124 63.6849 129.68 64.9023C129.25 66.1055 129.035 67.3229 129.035 68.5547C129.035 71.3333 129.766 72.7227 131.227 72.7227C131.757 72.7227 132.322 72.4362 132.924 71.8633C133.54 71.276 134.134 70.5098 134.707 69.5645C135.28 68.6191 135.788 67.5879 136.232 66.4707C136.691 65.3392 137.027 64.2292 137.242 63.1406ZM151.508 56.3086C151.966 56.3086 152.324 56.5163 152.582 56.9316C152.84 57.347 152.969 57.8841 152.969 58.543C152.969 59.1732 152.883 59.9323 152.711 60.8203L152.023 64.4297C152.382 63.5846 152.84 62.6966 153.398 61.7656C153.971 60.8203 154.58 59.9323 155.225 59.1016C155.869 58.2708 156.507 57.5977 157.137 57.082C157.767 56.5664 158.326 56.3086 158.812 56.3086C159.786 56.3086 160.574 56.7669 161.176 57.6836C161.176 59.6029 160.646 60.5625 159.586 60.5625C159.357 60.5625 159.085 60.3835 158.77 60.0254C158.454 59.6673 158.125 59.4883 157.781 59.4883C157.366 59.4883 156.822 59.832 156.148 60.5195C155.475 61.207 154.781 62.1094 154.064 63.2266C153.348 64.3294 152.704 65.5254 152.131 66.8145C151.558 68.0892 151.164 69.3138 150.949 70.4883L150.133 75C149.646 75.0859 149.173 75.1289 148.715 75.1289C148.171 75.1289 147.641 75.0859 147.125 75L149.703 61.7656C149.846 60.7773 149.918 60.2044 149.918 60.0469C149.918 59.3307 149.775 58.9727 149.488 58.9727C149.245 58.9727 148.88 59.2018 148.393 59.6602C148.163 59.8893 147.913 60.14 147.641 60.4121C147.383 60.6842 147.211 60.8776 147.125 60.9922C147.068 60.9922 146.96 60.8561 146.803 60.584C146.645 60.3118 146.566 60.1185 146.566 60.0039C146.796 59.6172 147.211 59.1374 147.812 58.5645C148.414 57.9772 149.059 57.4544 149.746 56.9961C150.434 56.5378 151.021 56.3086 151.508 56.3086Z" fill="white"/>
<path d="M0 14.4961C6.30012 20.0984 15.0791 19.1979 30.687 15.1421C32.2497 14.736 33.9168 14.9601 35.3059 15.7832L61.0905 31.063L35.3304 19.6141C33.9205 18.9874 32.3183 18.9353 30.8588 19.4358C12.5496 25.7159 4.73674 24.7283 0 14.4961Z" fill="url(#paint8_radial_692_2074)"/>
<path d="M16.5669 25.8858C22.7094 27.5488 34.4861 19.1752 43.5027 24.2129C35.7991 20.3448 24.9274 34.7378 16.5669 25.8858Z" fill="url(#paint9_radial_692_2074)"/>
<path d="M42.4528 34.1693C40.4746 32.9379 39.8039 31.791 39.5364 30.2054C39.314 28.8871 40.2138 27.6374 41.514 27.3262C46.4064 26.1551 49.6595 27.3172 54.8779 31.063C50.3759 26.3362 46.8249 25.2844 39.6469 25.78C38.7972 25.8387 38.0191 26.2751 37.5081 26.9564L36.1669 28.7446C35.6047 29.4943 35.6307 30.5432 36.2784 31.2205C38.4425 33.4837 39.9798 34.1156 42.4528 34.1693Z" fill="url(#paint10_radial_692_2074)"/>
<path d="M61.0905 28.9921C48.8725 19.5072 53.131 18.6378 60.0551 10.3543C56.6285 8.93238 54.8937 8.83857 52.8071 12.4252C51.2879 8.29387 49.7783 6.42726 45.559 4.14173C43.8524 8.52031 44.6321 10.6991 46.5945 14.4961C42.9378 12.0347 40.7471 11.3823 36.2402 13.4606C46.3046 17.727 45.2926 18.8748 61.0905 28.9921Z" fill="url(#paint11_radial_692_2074)"/>
<path d="M78.6929 22.7441C78.6929 22.1918 79.1406 21.7441 79.6929 21.7441H79.7638C80.3161 21.7441 80.7638 22.1918 80.7638 22.7441V25.9213C80.7638 26.4735 80.3161 26.9213 79.7638 26.9213H74.4803C73.3757 26.9213 72.4803 26.0258 72.4803 24.9213V19.6024C72.4803 18.4978 73.3757 17.6024 74.4803 17.6024H78.7281C80.6137 17.6024 82.4755 18.023 84.178 18.8337V18.8337C85.2965 19.3663 86.1249 20.3629 86.4441 21.5599L88.3399 28.6695C89.2063 31.9182 86.6836 35.0788 83.3237 34.9544L68.0679 34.3894C64.7776 34.2675 62.2002 31.5169 62.2923 28.2256L62.6948 13.8426C62.7856 10.5955 65.4441 8.01038 68.6924 8.01038H83.0387C86.0229 8.01038 88.8896 9.21712 90.915 11.4088C101.807 23.194 109.097 33.3225 115.395 32.2299C115.685 32.1796 115.968 32.3916 115.968 32.686V32.686C115.968 32.9325 115.766 33.1318 115.519 33.1285C109.37 33.045 105.37 32.4313 87.653 13.254C86.5367 12.0456 85.0793 11.1983 83.4735 10.8414L77.8584 9.59364C77.0431 9.41248 76.199 9.4035 75.3801 9.56728L71.091 10.4251C68.2865 10.986 66.2677 13.4485 66.2677 16.3086V27.0984C66.2677 29.8599 68.5063 32.0984 71.2677 32.0984H80.9055C83.1146 32.0984 84.9055 30.3076 84.9055 28.0984V22.6378C84.9055 20.4287 83.1146 18.6378 80.9055 18.6378H76.5512C75.4466 18.6378 74.5512 19.5332 74.5512 20.6378V24.8858C74.5512 25.4381 74.9989 25.8858 75.5512 25.8858H77.6929C78.2452 25.8858 78.6929 25.4381 78.6929 24.8858V22.7441Z" fill="url(#paint12_radial_692_2074)"/>
<path d="M104.412 33.0631C96.4743 29.9513 88.3242 12.4066 78.6929 13.4606C91.6665 19.2326 92.9183 31.4785 104.412 33.0631Z" fill="url(#paint13_radial_692_2074)"/>
<path d="M111.827 30.0276C106.485 21.6827 106.361 16.9143 110.791 8.28346C105.363 9.71409 97.6256 19.5114 111.827 30.0276Z" fill="url(#paint14_radial_692_2074)"/>
<path d="M118.039 10.3543C113.102 14.0549 110.405 23.2793 118.039 32.0984C106.33 25.6888 109.793 12.7713 118.039 0V10.3543Z" fill="url(#paint15_radial_692_2074)"/>
<path d="M236.079 14.4961C229.778 20.0984 221 19.1979 205.392 15.1421C203.829 14.736 202.162 14.9601 200.773 15.7832L174.988 31.063L200.748 19.6141C202.158 18.9874 203.76 18.9353 205.22 19.4358C223.529 25.7159 231.342 24.7283 236.079 14.4961Z" fill="url(#paint16_radial_692_2074)"/>
<path d="M219.512 25.8858C213.369 27.5488 201.593 19.1752 192.576 24.2129C200.279 20.3448 211.151 34.7378 219.512 25.8858Z" fill="url(#paint17_radial_692_2074)"/>
<path d="M193.626 34.1693C195.604 32.9379 196.275 31.791 196.542 30.2054C196.765 28.8871 195.865 27.6374 194.565 27.3262C189.672 26.1551 186.419 27.3172 181.201 31.063C185.703 26.3362 189.254 25.2844 196.432 25.78C197.281 25.8387 198.06 26.2751 198.571 26.9564L199.912 28.7446C200.474 29.4943 200.448 30.5432 199.8 31.2205C197.636 33.4837 196.099 34.1156 193.626 34.1693Z" fill="url(#paint18_radial_692_2074)"/>
<path d="M174.988 28.9921C187.206 19.5072 182.948 18.6378 176.024 10.3543C179.45 8.93238 181.185 8.83857 183.272 12.4252C184.791 8.29387 186.3 6.42726 190.52 4.14173C192.226 8.52031 191.446 10.6991 189.484 14.4961C193.141 12.0347 195.331 11.3823 199.838 13.4606C189.774 17.727 190.786 18.8748 174.988 28.9921Z" fill="url(#paint19_radial_692_2074)"/>
<path d="M157.386 22.7441C157.386 22.1918 156.938 21.7441 156.386 21.7441H156.315C155.763 21.7441 155.315 22.1918 155.315 22.7441V25.9213C155.315 26.4735 155.763 26.9213 156.315 26.9213H161.598C162.703 26.9213 163.598 26.0258 163.598 24.9213V19.6024C163.598 18.4978 162.703 17.6024 161.598 17.6024H157.351C155.465 17.6024 153.603 18.023 151.901 18.8337V18.8337C150.782 19.3663 149.954 20.3629 149.635 21.5599L147.739 28.6695C146.872 31.9182 149.395 35.0788 152.755 34.9544L168.011 34.3894C171.301 34.2675 173.878 31.5169 173.786 28.2256L173.384 13.8426C173.293 10.5955 170.635 8.01038 167.386 8.01038H153.04C150.056 8.01038 147.189 9.21712 145.164 11.4088C134.272 23.194 126.982 33.3225 120.683 32.2299C120.393 32.1796 120.11 32.3916 120.11 32.686V32.686C120.11 32.9325 120.313 33.1318 120.559 33.1285C126.708 33.045 130.709 32.4313 148.426 13.254C149.542 12.0456 150.999 11.1983 152.605 10.8414L158.22 9.59364C159.035 9.41248 159.88 9.4035 160.698 9.56728L164.988 10.4251C167.792 10.986 169.811 13.4485 169.811 16.3086V27.0984C169.811 29.8599 167.572 32.0984 164.811 32.0984H155.173C152.964 32.0984 151.173 30.3076 151.173 28.0984V22.6378C151.173 20.4287 152.964 18.6378 155.173 18.6378H159.527C160.632 18.6378 161.527 19.5332 161.527 20.6378V24.8858C161.527 25.4381 161.08 25.8858 160.527 25.8858H158.386C157.833 25.8858 157.386 25.4381 157.386 24.8858V22.7441Z" fill="url(#paint20_radial_692_2074)"/>
<path d="M131.666 33.0631C139.604 29.9513 147.754 12.4066 157.386 13.4606C144.412 19.2326 143.16 31.4785 131.666 33.0631Z" fill="url(#paint21_radial_692_2074)"/>
<path d="M124.252 30.0276C129.594 21.6827 129.718 16.9143 125.287 8.28346C130.716 9.71409 138.453 19.5114 124.252 30.0276Z" fill="url(#paint22_radial_692_2074)"/>
<path d="M118.039 10.3543C122.976 14.0549 125.673 23.2793 118.039 32.0984C129.749 25.6888 126.286 12.7713 118.039 0V10.3543Z" fill="url(#paint23_radial_692_2074)"/>
<defs>
<radialGradient id="paint0_radial_692_2074" cx="0" cy="0" r="1" gradientUnits="userSpaceOnUse" gradientTransform="translate(79.728 111.309) scale(38.311 20.1909)">
<stop stop-color="#E1E1E1"/>
<stop offset="1" stop-color="#FFF4DA"/>
</radialGradient>
<radialGradient id="paint1_radial_692_2074" cx="0" cy="0" r="1" gradientUnits="userSpaceOnUse" gradientTransform="translate(79.728 111.309) scale(38.311 20.1909)">
<stop stop-color="#E1E1E1"/>
<stop offset="1" stop-color="#FFF4DA"/>
</radialGradient>
<radialGradient id="paint2_radial_692_2074" cx="0" cy="0" r="1" gradientUnits="userSpaceOnUse" gradientTransform="translate(79.728 111.309) scale(38.311 20.1909)">
<stop stop-color="#E1E1E1"/>
<stop offset="1" stop-color="#FFF4DA"/>
</radialGradient>
<radialGradient id="paint3_radial_692_2074" cx="0" cy="0" r="1" gradientUnits="userSpaceOnUse" gradientTransform="translate(79.728 111.309) scale(38.311 20.1909)">
<stop stop-color="#E1E1E1"/>
<stop offset="1" stop-color="#FFF4DA"/>
</radialGradient>
<radialGradient id="paint4_radial_692_2074" cx="0" cy="0" r="1" gradientUnits="userSpaceOnUse" gradientTransform="translate(156.35 111.309) rotate(180) scale(38.311 20.1909)">
<stop stop-color="#E1E1E1"/>
<stop offset="1" stop-color="#FFF4DA"/>
</radialGradient>
<radialGradient id="paint5_radial_692_2074" cx="0" cy="0" r="1" gradientUnits="userSpaceOnUse" gradientTransform="translate(156.35 111.309) rotate(180) scale(38.311 20.1909)">
<stop stop-color="#E1E1E1"/>
<stop offset="1" stop-color="#FFF4DA"/>
</radialGradient>
<radialGradient id="paint6_radial_692_2074" cx="0" cy="0" r="1" gradientUnits="userSpaceOnUse" gradientTransform="translate(156.35 111.309) rotate(180) scale(38.311 20.1909)">
<stop stop-color="#E1E1E1"/>
<stop offset="1" stop-color="#FFF4DA"/>
</radialGradient>
<radialGradient id="paint7_radial_692_2074" cx="0" cy="0" r="1" gradientUnits="userSpaceOnUse" gradientTransform="translate(156.35 111.309) rotate(180) scale(38.311 20.1909)">
<stop stop-color="#E1E1E1"/>
<stop offset="1" stop-color="#FFF4DA"/>
</radialGradient>
<radialGradient id="paint8_radial_692_2074" cx="0" cy="0" r="1" gradientUnits="userSpaceOnUse" gradientTransform="translate(59.0197 17.6024) scale(59.0197 17.6024)">
<stop stop-color="#E1E1E1"/>
<stop offset="1" stop-color="#FFF4DA"/>
</radialGradient>
<radialGradient id="paint9_radial_692_2074" cx="0" cy="0" r="1" gradientUnits="userSpaceOnUse" gradientTransform="translate(59.0197 17.6024) scale(59.0197 17.6024)">
<stop stop-color="#E1E1E1"/>
<stop offset="1" stop-color="#FFF4DA"/>
</radialGradient>
<radialGradient id="paint10_radial_692_2074" cx="0" cy="0" r="1" gradientUnits="userSpaceOnUse" gradientTransform="translate(59.0197 17.6024) scale(59.0197 17.6024)">
<stop stop-color="#E1E1E1"/>
<stop offset="1" stop-color="#FFF4DA"/>
</radialGradient>
<radialGradient id="paint11_radial_692_2074" cx="0" cy="0" r="1" gradientUnits="userSpaceOnUse" gradientTransform="translate(59.0197 17.6024) scale(59.0197 17.6024)">
<stop stop-color="#E1E1E1"/>
<stop offset="1" stop-color="#FFF4DA"/>
</radialGradient>
<radialGradient id="paint12_radial_692_2074" cx="0" cy="0" r="1" gradientUnits="userSpaceOnUse" gradientTransform="translate(59.0197 17.6024) scale(59.0197 17.6024)">
<stop stop-color="#E1E1E1"/>
<stop offset="1" stop-color="#FFF4DA"/>
</radialGradient>
<radialGradient id="paint13_radial_692_2074" cx="0" cy="0" r="1" gradientUnits="userSpaceOnUse" gradientTransform="translate(59.0197 17.6024) scale(59.0197 17.6024)">
<stop stop-color="#E1E1E1"/>
<stop offset="1" stop-color="#FFF4DA"/>
</radialGradient>
<radialGradient id="paint14_radial_692_2074" cx="0" cy="0" r="1" gradientUnits="userSpaceOnUse" gradientTransform="translate(59.0197 17.6024) scale(59.0197 17.6024)">
<stop stop-color="#E1E1E1"/>
<stop offset="1" stop-color="#FFF4DA"/>
</radialGradient>
<radialGradient id="paint15_radial_692_2074" cx="0" cy="0" r="1" gradientUnits="userSpaceOnUse" gradientTransform="translate(59.0197 17.6024) scale(59.0197 17.6024)">
<stop stop-color="#E1E1E1"/>
<stop offset="1" stop-color="#FFF4DA"/>
</radialGradient>
<radialGradient id="paint16_radial_692_2074" cx="0" cy="0" r="1" gradientUnits="userSpaceOnUse" gradientTransform="translate(177.059 17.6024) rotate(180) scale(59.0197 17.6024)">
<stop stop-color="#E1E1E1"/>
<stop offset="1" stop-color="#FFF4DA"/>
</radialGradient>
<radialGradient id="paint17_radial_692_2074" cx="0" cy="0" r="1" gradientUnits="userSpaceOnUse" gradientTransform="translate(177.059 17.6024) rotate(180) scale(59.0197 17.6024)">
<stop stop-color="#E1E1E1"/>
<stop offset="1" stop-color="#FFF4DA"/>
</radialGradient>
<radialGradient id="paint18_radial_692_2074" cx="0" cy="0" r="1" gradientUnits="userSpaceOnUse" gradientTransform="translate(177.059 17.6024) rotate(180) scale(59.0197 17.6024)">
<stop stop-color="#E1E1E1"/>
<stop offset="1" stop-color="#FFF4DA"/>
</radialGradient>
<radialGradient id="paint19_radial_692_2074" cx="0" cy="0" r="1" gradientUnits="userSpaceOnUse" gradientTransform="translate(177.059 17.6024) rotate(180) scale(59.0197 17.6024)">
<stop stop-color="#E1E1E1"/>
<stop offset="1" stop-color="#FFF4DA"/>
</radialGradient>
<radialGradient id="paint20_radial_692_2074" cx="0" cy="0" r="1" gradientUnits="userSpaceOnUse" gradientTransform="translate(177.059 17.6024) rotate(180) scale(59.0197 17.6024)">
<stop stop-color="#E1E1E1"/>
<stop offset="1" stop-color="#FFF4DA"/>
</radialGradient>
<radialGradient id="paint21_radial_692_2074" cx="0" cy="0" r="1" gradientUnits="userSpaceOnUse" gradientTransform="translate(177.059 17.6024) rotate(180) scale(59.0197 17.6024)">
<stop stop-color="#E1E1E1"/>
<stop offset="1" stop-color="#FFF4DA"/>
</radialGradient>
<radialGradient id="paint22_radial_692_2074" cx="0" cy="0" r="1" gradientUnits="userSpaceOnUse" gradientTransform="translate(177.059 17.6024) rotate(180) scale(59.0197 17.6024)">
<stop stop-color="#E1E1E1"/>
<stop offset="1" stop-color="#FFF4DA"/>
</radialGradient>
<radialGradient id="paint23_radial_692_2074" cx="0" cy="0" r="1" gradientUnits="userSpaceOnUse" gradientTransform="translate(177.059 17.6024) rotate(180) scale(59.0197 17.6024)">
<stop stop-color="#E1E1E1"/>
<stop offset="1" stop-color="#FFF4DA"/>
</radialGradient>
</defs>
</svg>
