<svg width="237" height="132" viewBox="0 0 237 132" fill="none" xmlns="http://www.w3.org/2000/svg">
<path d="M50.713 108.06C49.3894 108.487 47.9219 108.504 46.7174 107.809C44.5799 106.575 44.1417 105.154 44.5239 102.508V102.508C42.8803 103.056 42.0634 104.953 43.0344 106.388C43.9981 107.812 45.0942 108.974 46.6272 110.246C47.9176 111.316 49.57 111.855 51.2463 111.812C56.4411 111.679 59.0354 110.851 62.1261 108.72C61.1055 110.641 61.1623 111.76 61.9889 113.6C62.061 113.76 62.2573 113.822 62.4081 113.731C64.083 112.73 65.0044 111.892 66.2679 109.756C66.2159 114.032 66.9848 113.977 70.4096 114.933C67.5199 110.86 68.053 109.221 70.1985 106.254C70.9963 105.151 72.1264 104.331 73.4058 103.866L78.5781 101.985C81.3347 100.982 84.3491 100.942 87.1317 101.869L104.174 107.55C104.308 107.435 104.443 107.326 104.579 107.223V104.508C104.579 103.403 105.474 102.508 106.579 102.508H108.791C109.896 102.508 110.791 103.403 110.791 104.508V105.614H111.827V103.472C111.827 102.368 110.931 101.472 109.827 101.472H105.543C104.439 101.472 103.543 102.368 103.543 103.472V106.65C98.7741 103.748 93.5326 101.584 86.7262 99.7769C82.8461 98.747 78.7539 99.0145 74.9333 100.247L50.713 108.06Z" fill="url(#paint0_radial_692_1488)"/>
<path fill-rule="evenodd" clip-rule="evenodd" d="M118.04 111.827V108.721C115.458 105.74 114.164 105.799 111.827 105.614H110.791C108.063 105.589 106.223 105.979 104.579 107.223V107.685L104.174 107.55C103.27 108.327 102.41 109.382 101.473 110.791C94.423 108.167 92.2423 105.859 84.6309 104.117C82.7932 103.696 80.8384 103.854 79.1738 104.739C77.1411 105.82 75.7483 107.075 74.4009 109.235C73.7981 110.201 73.7054 111.42 74.2151 112.438C75.05 114.107 76.2503 115.417 79.1381 117.128C80.1191 117.709 81.351 117.62 82.2789 116.957L86.2804 114.099C87.2189 113.429 87.4133 112.09 86.6216 111.251C84.8307 109.354 83.7232 109.09 81.7994 109.756C83.0247 110.067 83.7478 110.456 84.3965 111.688C84.7601 112.378 84.5523 113.216 84.0005 113.767L82.2759 115.492C81.3711 116.397 79.9668 116.664 78.906 115.948C77.392 114.927 76.4786 113.802 75.488 112.283C74.8942 111.372 74.8544 110.185 75.4804 109.296C77.1885 106.871 79.0768 106.022 82.8348 105.614C87.5143 105.758 93.9739 109.592 101.473 112.862C101.611 115.305 101.827 117.608 105.431 119.531C106.15 119.915 107.027 119.733 107.604 119.156L110.252 116.508C110.55 116.21 110.55 115.727 110.252 115.429V115.429C109.972 115.149 109.522 115.134 109.211 115.381C104.883 118.812 103.35 117.017 102.508 112.862C108.785 113.743 111.601 112.063 112.862 106.65H114.933L118.04 111.827ZM102.508 111.827C105.324 107.593 107.417 106.549 111.827 106.65C109.582 111.782 107.624 113.001 102.508 111.827Z" fill="url(#paint1_radial_692_1488)"/>
<path d="M118.04 114.933V111.827C116.112 115.763 116.189 118.074 110.791 119.075C111.96 121.038 112.806 121.636 114.933 121.146C115.325 125.201 115.718 127.472 118.04 131.5V125.287C116.703 121.107 116.953 118.865 118.04 114.933Z" fill="url(#paint2_radial_692_1488)"/>
<path d="M115.969 98.3662C116.06 94.792 116.696 93.3936 118.04 91.1182V105.614C115.723 100.811 114.342 99.4138 111.827 99.4015C113.365 97.8121 114.277 97.3638 115.969 98.3662Z" fill="url(#paint3_radial_692_1488)"/>
<path d="M185.366 108.06C186.69 108.487 188.157 108.504 189.362 107.809C191.499 106.575 191.937 105.154 191.555 102.508V102.508C193.199 103.056 194.016 104.953 193.045 106.388C192.081 107.812 190.985 108.974 189.452 110.246C188.161 111.316 186.509 111.855 184.833 111.812C179.638 111.679 177.044 110.851 173.953 108.72C174.974 110.641 174.917 111.76 174.09 113.6C174.018 113.76 173.822 113.822 173.671 113.731C171.996 112.73 171.075 111.892 169.811 109.756C169.863 114.032 169.094 113.977 165.669 114.933C168.559 110.86 168.026 109.221 165.881 106.254C165.083 105.151 163.953 104.331 162.673 103.866L157.501 101.985C154.744 100.982 151.73 100.942 148.947 101.869L131.905 107.55C131.771 107.435 131.636 107.326 131.5 107.223V104.508C131.5 103.403 130.605 102.508 129.5 102.508H127.288C126.183 102.508 125.288 103.403 125.288 104.508V105.614H124.252V103.472C124.252 102.368 125.148 101.472 126.252 101.472H130.536C131.64 101.472 132.536 102.368 132.536 103.472V106.65C137.305 103.748 142.547 101.584 149.353 99.7769C153.233 98.747 157.325 99.0145 161.146 100.247L185.366 108.06Z" fill="url(#paint4_radial_692_1488)"/>
<path fill-rule="evenodd" clip-rule="evenodd" d="M118.04 111.827V108.721C120.621 105.74 121.915 105.799 124.252 105.614H125.288C128.016 105.589 129.856 105.979 131.5 107.223V107.685L131.905 107.55C132.809 108.327 133.669 109.382 134.607 110.791C141.656 108.167 143.837 105.859 151.448 104.117C153.286 103.696 155.241 103.854 156.905 104.739C158.938 105.82 160.331 107.075 161.678 109.235C162.281 110.201 162.374 111.42 161.864 112.438C161.029 114.107 159.829 115.417 156.941 117.128C155.96 117.709 154.728 117.62 153.8 116.957L149.799 114.099C148.86 113.429 148.666 112.09 149.457 111.251C151.248 109.354 152.356 109.09 154.28 109.756C153.054 110.067 152.331 110.456 151.683 111.688C151.319 112.378 151.527 113.216 152.079 113.767L153.803 115.492C154.708 116.397 156.112 116.664 157.173 115.948C158.687 114.927 159.601 113.802 160.591 112.283C161.185 111.372 161.225 110.185 160.599 109.296C158.891 106.871 157.002 106.022 153.244 105.614C148.565 105.758 142.105 109.592 134.607 112.862C134.468 115.305 134.252 117.608 130.648 119.531C129.929 119.915 129.052 119.733 128.475 119.156L125.827 116.508C125.529 116.21 125.529 115.727 125.827 115.429V115.429C126.107 115.149 126.557 115.134 126.868 115.381C131.196 118.812 132.729 117.017 133.571 112.862C127.294 113.743 124.479 112.063 123.217 106.65H121.146L118.04 111.827ZM133.571 111.827C130.755 107.593 128.662 106.549 124.252 106.65C126.497 111.782 128.455 113.001 133.571 111.827Z" fill="url(#paint5_radial_692_1488)"/>
<path d="M118.04 114.933V111.827C119.967 115.763 119.89 118.074 125.288 119.075C124.119 121.038 123.273 121.636 121.146 121.146C120.755 125.201 120.362 127.472 118.04 131.5V125.287C119.376 121.107 119.126 118.865 118.04 114.933Z" fill="url(#paint6_radial_692_1488)"/>
<path d="M120.11 98.3662C120.019 94.792 119.383 93.3936 118.04 91.1182V105.614C120.356 100.811 121.737 99.4138 124.252 99.4015C122.714 97.8121 121.802 97.3638 120.11 98.3662Z" fill="url(#paint7_radial_692_1488)"/>
<path d="M90.5625 46.3398C92.4961 46.3398 94.2292 46.8411 95.7617 47.8438C97.3086 48.832 98.5332 50.1641 99.4355 51.8398C100.338 53.5156 100.789 55.3776 100.789 57.4258C100.789 59.4023 100.467 61.3431 99.8223 63.248C99.1777 65.1387 98.2754 66.8861 97.1152 68.4902C95.9551 70.0944 94.6016 71.4622 93.0547 72.5938C90.4193 74.5273 87.3542 75.8307 83.8594 76.5039C84.7044 76.6042 86.7096 77.3346 89.875 78.6953C93.0117 80.0417 95.5469 80.7148 97.4805 80.7148C98.1966 80.7148 98.9557 80.5645 99.7578 80.2637C100.574 79.9772 101.34 79.6263 102.057 79.2109C102.773 78.7956 103.339 78.4089 103.754 78.0508C104.413 78.3659 104.742 78.7096 104.742 79.082C104.398 79.5404 103.761 80.0775 102.83 80.6934C101.899 81.3092 100.818 81.8464 99.5859 82.3047C98.3685 82.763 97.1367 82.9922 95.8906 82.9922C94.0286 82.9922 92.2311 82.6986 90.498 82.1113C88.765 81.5241 86.7096 80.7148 84.332 79.6836C81.9401 78.6523 79.5911 77.8359 77.2852 77.2344C77.2852 77.1198 77.3783 76.9264 77.5645 76.6543C77.7507 76.3822 77.9154 76.2174 78.0586 76.1602C78.4596 76.1458 79.9779 75.8307 82.6133 75.2148C80.9805 74.8854 79.5625 74.1908 78.3594 73.1309C77.1562 72.071 76.2253 70.7461 75.5664 69.1562C74.9076 67.5521 74.5781 65.7904 74.5781 63.8711C74.5781 60.8919 75.3659 58.0345 76.9414 55.2988C78.0013 53.4655 79.2617 51.8828 80.7227 50.5508C82.1836 49.2044 83.7591 48.166 85.4492 47.4355C87.1393 46.7051 88.8438 46.3398 90.5625 46.3398ZM89.5742 48.1445C88.0273 48.1445 86.5807 48.5814 85.2344 49.4551C83.9023 50.3145 82.7279 51.4746 81.7109 52.9355C80.694 54.3965 79.8991 56.0436 79.3262 57.877C78.7676 59.7103 78.4883 61.5938 78.4883 63.5273C78.4883 65.4753 78.7747 67.2083 79.3477 68.7266C79.9206 70.2305 80.7513 71.4193 81.8398 72.293C82.9427 73.1523 84.2747 73.582 85.8359 73.582C87.3255 73.582 88.7292 73.1452 90.0469 72.2715C91.3789 71.3835 92.5534 70.1947 93.5703 68.7051C94.5872 67.2155 95.3822 65.5469 95.9551 63.6992C96.5423 61.8516 96.8359 59.9609 96.8359 58.0273C96.8359 56.1081 96.5495 54.4108 95.9766 52.9355C95.418 51.446 94.5944 50.2786 93.5059 49.4336C92.4316 48.5742 91.1211 48.1445 89.5742 48.1445ZM113.895 56.3086C114.954 56.3086 116 56.4948 117.031 56.8672L114.41 70.4453C114.324 70.7891 114.281 71.1471 114.281 71.5195C114.281 72.2357 114.424 72.5938 114.711 72.5938C115.069 72.5938 115.499 72.3431 116 71.8418C116.501 71.3262 116.931 70.8893 117.289 70.5312L117.547 70.2305C117.604 70.2305 117.712 70.3665 117.869 70.6387C118.027 70.9108 118.105 71.1042 118.105 71.2188C117.862 71.6341 117.418 72.1641 116.773 72.8086C116.143 73.4531 115.456 74.026 114.711 74.5273C113.966 75.0143 113.293 75.2578 112.691 75.2578C112.233 75.2578 111.875 75.0501 111.617 74.6348C111.359 74.2194 111.23 73.6823 111.23 73.0234C111.23 72.5794 111.331 71.8203 111.531 70.7461L111.682 69.9941C111.725 69.7936 111.746 69.6719 111.746 69.6289C111.517 70.0586 111.188 70.5885 110.758 71.2188C110.328 71.8346 109.834 72.4505 109.275 73.0664C108.717 73.6823 108.13 74.1979 107.514 74.6133C106.898 75.0143 106.289 75.2148 105.688 75.2148C104.427 75.2148 103.432 74.6491 102.701 73.5176C101.971 72.3861 101.605 71.0182 101.605 69.4141C101.605 67.3659 102.214 65.3249 103.432 63.291C104.248 61.916 105.222 60.7057 106.354 59.6602C107.499 58.6146 108.724 57.7982 110.027 57.2109C111.331 56.6094 112.62 56.3086 113.895 56.3086ZM112.09 58.2852C111.245 58.2852 110.393 58.5859 109.533 59.1875C108.674 59.7747 107.886 60.5697 107.17 61.5723C106.454 62.5605 105.874 63.6634 105.43 64.8809C105 66.084 104.785 67.2943 104.785 68.5117C104.785 71.319 105.516 72.7227 106.977 72.7227C107.492 72.7227 108.051 72.4362 108.652 71.8633C109.254 71.2904 109.848 70.5312 110.436 69.5859C111.023 68.6406 111.538 67.6165 111.982 66.5137C112.441 65.3965 112.777 64.3008 112.992 63.2266L113.852 58.8438C113.508 58.4714 112.921 58.2852 112.09 58.2852ZM128.934 56.1797C130.566 56.1797 131.855 56.724 132.801 57.8125C132.944 58.1419 133.016 58.4427 133.016 58.7148C133.016 59.2305 132.88 59.6745 132.607 60.0469C132.335 60.4193 131.984 60.6055 131.555 60.6055C131.168 60.6055 130.81 60.3978 130.48 59.9824C130.165 59.5671 129.771 59.1445 129.299 58.7148C128.826 58.2852 128.203 58.0703 127.43 58.0703C126.828 58.0703 126.355 58.2708 126.012 58.6719C125.668 59.0729 125.496 59.5312 125.496 60.0469C125.496 60.7917 125.775 61.5866 126.334 62.4316C126.893 63.2767 127.501 64.0286 128.16 64.6875C128.819 65.3464 129.428 66.1484 129.986 67.0938C130.545 68.0391 130.824 68.9987 130.824 69.9727C130.824 71.5482 130.251 72.8229 129.105 73.7969C127.96 74.7708 126.484 75.2578 124.68 75.2578C123.047 75.2578 121.758 74.7135 120.812 73.625C120.669 73.3958 120.598 73.1237 120.598 72.8086C120.598 72.293 120.734 71.8346 121.006 71.4336C121.278 71.0326 121.629 70.832 122.059 70.832C122.445 70.832 122.803 71.0397 123.133 71.4551C123.448 71.8704 123.842 72.293 124.314 72.7227C124.787 73.1523 125.41 73.3672 126.184 73.3672C126.814 73.3672 127.322 73.1595 127.709 72.7441C128.096 72.3288 128.289 71.8776 128.289 71.3906C128.289 70.6458 128.01 69.8509 127.451 69.0059C126.893 68.1608 126.284 67.4089 125.625 66.75C124.966 66.0911 124.357 65.2891 123.799 64.3438C123.24 63.3984 122.961 62.4388 122.961 61.4648C122.961 60.6628 123.226 59.8535 123.756 59.0371C124.286 58.2207 125.002 57.5404 125.904 56.9961C126.807 56.4518 127.816 56.1797 128.934 56.1797ZM146.551 56.3086C147.611 56.3086 148.656 56.4948 149.688 56.8672L147.066 70.4453C146.98 70.7891 146.938 71.1471 146.938 71.5195C146.938 72.2357 147.081 72.5938 147.367 72.5938C147.725 72.5938 148.155 72.3431 148.656 71.8418C149.158 71.3262 149.587 70.8893 149.945 70.5312L150.203 70.2305C150.26 70.2305 150.368 70.3665 150.525 70.6387C150.683 70.9108 150.762 71.1042 150.762 71.2188C150.518 71.6341 150.074 72.1641 149.43 72.8086C148.799 73.4531 148.112 74.026 147.367 74.5273C146.622 75.0143 145.949 75.2578 145.348 75.2578C144.889 75.2578 144.531 75.0501 144.273 74.6348C144.016 74.2194 143.887 73.6823 143.887 73.0234C143.887 72.5794 143.987 71.8203 144.188 70.7461L144.338 69.9941C144.381 69.7936 144.402 69.6719 144.402 69.6289C144.173 70.0586 143.844 70.5885 143.414 71.2188C142.984 71.8346 142.49 72.4505 141.932 73.0664C141.373 73.6823 140.786 74.1979 140.17 74.6133C139.554 75.0143 138.945 75.2148 138.344 75.2148C137.083 75.2148 136.088 74.6491 135.357 73.5176C134.627 72.3861 134.262 71.0182 134.262 69.4141C134.262 67.3659 134.87 65.3249 136.088 63.291C136.904 61.916 137.878 60.7057 139.01 59.6602C140.156 58.6146 141.38 57.7982 142.684 57.2109C143.987 56.6094 145.276 56.3086 146.551 56.3086ZM144.746 58.2852C143.901 58.2852 143.049 58.5859 142.189 59.1875C141.33 59.7747 140.542 60.5697 139.826 61.5723C139.11 62.5605 138.53 63.6634 138.086 64.8809C137.656 66.084 137.441 67.2943 137.441 68.5117C137.441 71.319 138.172 72.7227 139.633 72.7227C140.148 72.7227 140.707 72.4362 141.309 71.8633C141.91 71.2904 142.505 70.5312 143.092 69.5859C143.679 68.6406 144.195 67.6165 144.639 66.5137C145.097 65.3965 145.434 64.3008 145.648 63.2266L146.508 58.8438C146.164 58.4714 145.577 58.2852 144.746 58.2852ZM161.59 56.1797C163.223 56.1797 164.512 56.724 165.457 57.8125C165.6 58.1419 165.672 58.4427 165.672 58.7148C165.672 59.2305 165.536 59.6745 165.264 60.0469C164.992 60.4193 164.641 60.6055 164.211 60.6055C163.824 60.6055 163.466 60.3978 163.137 59.9824C162.822 59.5671 162.428 59.1445 161.955 58.7148C161.482 58.2852 160.859 58.0703 160.086 58.0703C159.484 58.0703 159.012 58.2708 158.668 58.6719C158.324 59.0729 158.152 59.5312 158.152 60.0469C158.152 60.7917 158.432 61.5866 158.99 62.4316C159.549 63.2767 160.158 64.0286 160.816 64.6875C161.475 65.3464 162.084 66.1484 162.643 67.0938C163.201 68.0391 163.48 68.9987 163.48 69.9727C163.48 71.5482 162.908 72.8229 161.762 73.7969C160.616 74.7708 159.141 75.2578 157.336 75.2578C155.703 75.2578 154.414 74.7135 153.469 73.625C153.326 73.3958 153.254 73.1237 153.254 72.8086C153.254 72.293 153.39 71.8346 153.662 71.4336C153.934 71.0326 154.285 70.832 154.715 70.832C155.102 70.832 155.46 71.0397 155.789 71.4551C156.104 71.8704 156.498 72.293 156.971 72.7227C157.443 73.1523 158.066 73.3672 158.84 73.3672C159.47 73.3672 159.979 73.1595 160.365 72.7441C160.752 72.3288 160.945 71.8776 160.945 71.3906C160.945 70.6458 160.666 69.8509 160.107 69.0059C159.549 68.1608 158.94 67.4089 158.281 66.75C157.622 66.0911 157.014 65.2891 156.455 64.3438C155.896 63.3984 155.617 62.4388 155.617 61.4648C155.617 60.6628 155.882 59.8535 156.412 59.0371C156.942 58.2207 157.658 57.5404 158.561 56.9961C159.463 56.4518 160.473 56.1797 161.59 56.1797Z" fill="white"/>
<path d="M0 14.4961C6.30012 20.0984 15.0791 19.1979 30.687 15.1421C32.2497 14.736 33.9168 14.9601 35.3059 15.7832L61.0905 31.063L35.3304 19.6141C33.9205 18.9874 32.3183 18.9353 30.8588 19.4358C12.5496 25.7159 4.73674 24.7283 0 14.4961Z" fill="url(#paint8_radial_692_1488)"/>
<path d="M16.5669 25.8858C22.7094 27.5488 34.4861 19.1752 43.5027 24.2129C35.7991 20.3448 24.9274 34.7378 16.5669 25.8858Z" fill="url(#paint9_radial_692_1488)"/>
<path d="M42.4528 34.1693C40.4746 32.9379 39.8039 31.791 39.5364 30.2054C39.314 28.8871 40.2138 27.6374 41.514 27.3262C46.4064 26.1551 49.6595 27.3172 54.8779 31.063C50.3759 26.3362 46.8249 25.2844 39.6469 25.78C38.7972 25.8387 38.0191 26.2751 37.5081 26.9564L36.1669 28.7446C35.6047 29.4943 35.6307 30.5432 36.2784 31.2205C38.4425 33.4837 39.9798 34.1156 42.4528 34.1693Z" fill="url(#paint10_radial_692_1488)"/>
<path d="M61.0905 28.9921C48.8725 19.5072 53.131 18.6378 60.0551 10.3543C56.6285 8.93238 54.8937 8.83857 52.8071 12.4252C51.2879 8.29387 49.7783 6.42726 45.559 4.14173C43.8524 8.52031 44.6321 10.6991 46.5945 14.4961C42.9378 12.0347 40.7471 11.3823 36.2402 13.4606C46.3046 17.727 45.2926 18.8748 61.0905 28.9921Z" fill="url(#paint11_radial_692_1488)"/>
<path d="M78.6929 22.7441C78.6929 22.1918 79.1406 21.7441 79.6929 21.7441H79.7638C80.3161 21.7441 80.7638 22.1918 80.7638 22.7441V25.9213C80.7638 26.4735 80.3161 26.9213 79.7638 26.9213H74.4803C73.3757 26.9213 72.4803 26.0258 72.4803 24.9213V19.6024C72.4803 18.4978 73.3757 17.6024 74.4803 17.6024H78.7281C80.6137 17.6024 82.4755 18.023 84.178 18.8337V18.8337C85.2965 19.3663 86.1249 20.3629 86.4441 21.5599L88.3399 28.6695C89.2063 31.9182 86.6836 35.0788 83.3237 34.9544L68.0679 34.3894C64.7776 34.2675 62.2002 31.5169 62.2923 28.2256L62.6948 13.8426C62.7856 10.5955 65.4441 8.01038 68.6924 8.01038H83.0387C86.0229 8.01038 88.8896 9.21712 90.915 11.4088C101.807 23.194 109.097 33.3225 115.395 32.2299C115.685 32.1796 115.968 32.3916 115.968 32.686V32.686C115.968 32.9325 115.766 33.1318 115.519 33.1285C109.37 33.045 105.37 32.4313 87.653 13.254C86.5367 12.0456 85.0793 11.1983 83.4735 10.8414L77.8584 9.59364C77.0431 9.41248 76.199 9.4035 75.3801 9.56728L71.091 10.4251C68.2865 10.986 66.2677 13.4485 66.2677 16.3086V27.0984C66.2677 29.8599 68.5063 32.0984 71.2677 32.0984H80.9055C83.1146 32.0984 84.9055 30.3076 84.9055 28.0984V22.6378C84.9055 20.4287 83.1146 18.6378 80.9055 18.6378H76.5512C75.4466 18.6378 74.5512 19.5332 74.5512 20.6378V24.8858C74.5512 25.4381 74.9989 25.8858 75.5512 25.8858H77.6929C78.2452 25.8858 78.6929 25.4381 78.6929 24.8858V22.7441Z" fill="url(#paint12_radial_692_1488)"/>
<path d="M104.412 33.0631C96.4743 29.9513 88.3242 12.4066 78.6929 13.4606C91.6665 19.2326 92.9183 31.4785 104.412 33.0631Z" fill="url(#paint13_radial_692_1488)"/>
<path d="M111.827 30.0276C106.485 21.6827 106.361 16.9143 110.791 8.28346C105.363 9.71409 97.6256 19.5114 111.827 30.0276Z" fill="url(#paint14_radial_692_1488)"/>
<path d="M118.039 10.3543C113.102 14.0549 110.405 23.2793 118.039 32.0984C106.33 25.6888 109.793 12.7713 118.039 0V10.3543Z" fill="url(#paint15_radial_692_1488)"/>
<path d="M236.079 14.4961C229.778 20.0984 221 19.1979 205.392 15.1421C203.829 14.736 202.162 14.9601 200.773 15.7832L174.988 31.063L200.748 19.6141C202.158 18.9874 203.76 18.9353 205.22 19.4358C223.529 25.7159 231.342 24.7283 236.079 14.4961Z" fill="url(#paint16_radial_692_1488)"/>
<path d="M219.512 25.8858C213.369 27.5488 201.593 19.1752 192.576 24.2129C200.279 20.3448 211.151 34.7378 219.512 25.8858Z" fill="url(#paint17_radial_692_1488)"/>
<path d="M193.626 34.1693C195.604 32.9379 196.275 31.791 196.542 30.2054C196.765 28.8871 195.865 27.6374 194.565 27.3262C189.672 26.1551 186.419 27.3172 181.201 31.063C185.703 26.3362 189.254 25.2844 196.432 25.78C197.281 25.8387 198.06 26.2751 198.571 26.9564L199.912 28.7446C200.474 29.4943 200.448 30.5432 199.8 31.2205C197.636 33.4837 196.099 34.1156 193.626 34.1693Z" fill="url(#paint18_radial_692_1488)"/>
<path d="M174.988 28.9921C187.206 19.5072 182.948 18.6378 176.024 10.3543C179.45 8.93238 181.185 8.83857 183.272 12.4252C184.791 8.29387 186.3 6.42726 190.52 4.14173C192.226 8.52031 191.446 10.6991 189.484 14.4961C193.141 12.0347 195.331 11.3823 199.838 13.4606C189.774 17.727 190.786 18.8748 174.988 28.9921Z" fill="url(#paint19_radial_692_1488)"/>
<path d="M157.386 22.7441C157.386 22.1918 156.938 21.7441 156.386 21.7441H156.315C155.763 21.7441 155.315 22.1918 155.315 22.7441V25.9213C155.315 26.4735 155.763 26.9213 156.315 26.9213H161.598C162.703 26.9213 163.598 26.0258 163.598 24.9213V19.6024C163.598 18.4978 162.703 17.6024 161.598 17.6024H157.351C155.465 17.6024 153.603 18.023 151.901 18.8337V18.8337C150.782 19.3663 149.954 20.3629 149.635 21.5599L147.739 28.6695C146.872 31.9182 149.395 35.0788 152.755 34.9544L168.011 34.3894C171.301 34.2675 173.878 31.5169 173.786 28.2256L173.384 13.8426C173.293 10.5955 170.635 8.01038 167.386 8.01038H153.04C150.056 8.01038 147.189 9.21712 145.164 11.4088C134.272 23.194 126.982 33.3225 120.683 32.2299C120.393 32.1796 120.11 32.3916 120.11 32.686V32.686C120.11 32.9325 120.313 33.1318 120.559 33.1285C126.708 33.045 130.709 32.4313 148.426 13.254C149.542 12.0456 150.999 11.1983 152.605 10.8414L158.22 9.59364C159.035 9.41248 159.88 9.4035 160.698 9.56728L164.988 10.4251C167.792 10.986 169.811 13.4485 169.811 16.3086V27.0984C169.811 29.8599 167.572 32.0984 164.811 32.0984H155.173C152.964 32.0984 151.173 30.3076 151.173 28.0984V22.6378C151.173 20.4287 152.964 18.6378 155.173 18.6378H159.527C160.632 18.6378 161.527 19.5332 161.527 20.6378V24.8858C161.527 25.4381 161.08 25.8858 160.527 25.8858H158.386C157.833 25.8858 157.386 25.4381 157.386 24.8858V22.7441Z" fill="url(#paint20_radial_692_1488)"/>
<path d="M131.666 33.0631C139.604 29.9513 147.754 12.4066 157.386 13.4606C144.412 19.2326 143.16 31.4785 131.666 33.0631Z" fill="url(#paint21_radial_692_1488)"/>
<path d="M124.252 30.0276C129.594 21.6827 129.718 16.9143 125.287 8.28346C130.716 9.71409 138.453 19.5114 124.252 30.0276Z" fill="url(#paint22_radial_692_1488)"/>
<path d="M118.039 10.3543C122.976 14.0549 125.673 23.2793 118.039 32.0984C129.749 25.6888 126.286 12.7713 118.039 0V10.3543Z" fill="url(#paint23_radial_692_1488)"/>
<defs>
<radialGradient id="paint0_radial_692_1488" cx="0" cy="0" r="1" gradientUnits="userSpaceOnUse" gradientTransform="translate(79.7285 111.309) scale(38.311 20.1909)">
<stop stop-color="#E1E1E1"/>
<stop offset="1" stop-color="#FFF4DA"/>
</radialGradient>
<radialGradient id="paint1_radial_692_1488" cx="0" cy="0" r="1" gradientUnits="userSpaceOnUse" gradientTransform="translate(79.7285 111.309) scale(38.311 20.1909)">
<stop stop-color="#E1E1E1"/>
<stop offset="1" stop-color="#FFF4DA"/>
</radialGradient>
<radialGradient id="paint2_radial_692_1488" cx="0" cy="0" r="1" gradientUnits="userSpaceOnUse" gradientTransform="translate(79.7285 111.309) scale(38.311 20.1909)">
<stop stop-color="#E1E1E1"/>
<stop offset="1" stop-color="#FFF4DA"/>
</radialGradient>
<radialGradient id="paint3_radial_692_1488" cx="0" cy="0" r="1" gradientUnits="userSpaceOnUse" gradientTransform="translate(79.7285 111.309) scale(38.311 20.1909)">
<stop stop-color="#E1E1E1"/>
<stop offset="1" stop-color="#FFF4DA"/>
</radialGradient>
<radialGradient id="paint4_radial_692_1488" cx="0" cy="0" r="1" gradientUnits="userSpaceOnUse" gradientTransform="translate(156.351 111.309) rotate(180) scale(38.311 20.1909)">
<stop stop-color="#E1E1E1"/>
<stop offset="1" stop-color="#FFF4DA"/>
</radialGradient>
<radialGradient id="paint5_radial_692_1488" cx="0" cy="0" r="1" gradientUnits="userSpaceOnUse" gradientTransform="translate(156.351 111.309) rotate(180) scale(38.311 20.1909)">
<stop stop-color="#E1E1E1"/>
<stop offset="1" stop-color="#FFF4DA"/>
</radialGradient>
<radialGradient id="paint6_radial_692_1488" cx="0" cy="0" r="1" gradientUnits="userSpaceOnUse" gradientTransform="translate(156.351 111.309) rotate(180) scale(38.311 20.1909)">
<stop stop-color="#E1E1E1"/>
<stop offset="1" stop-color="#FFF4DA"/>
</radialGradient>
<radialGradient id="paint7_radial_692_1488" cx="0" cy="0" r="1" gradientUnits="userSpaceOnUse" gradientTransform="translate(156.351 111.309) rotate(180) scale(38.311 20.1909)">
<stop stop-color="#E1E1E1"/>
<stop offset="1" stop-color="#FFF4DA"/>
</radialGradient>
<radialGradient id="paint8_radial_692_1488" cx="0" cy="0" r="1" gradientUnits="userSpaceOnUse" gradientTransform="translate(59.0197 17.6024) scale(59.0197 17.6024)">
<stop stop-color="#E1E1E1"/>
<stop offset="1" stop-color="#FFF4DA"/>
</radialGradient>
<radialGradient id="paint9_radial_692_1488" cx="0" cy="0" r="1" gradientUnits="userSpaceOnUse" gradientTransform="translate(59.0197 17.6024) scale(59.0197 17.6024)">
<stop stop-color="#E1E1E1"/>
<stop offset="1" stop-color="#FFF4DA"/>
</radialGradient>
<radialGradient id="paint10_radial_692_1488" cx="0" cy="0" r="1" gradientUnits="userSpaceOnUse" gradientTransform="translate(59.0197 17.6024) scale(59.0197 17.6024)">
<stop stop-color="#E1E1E1"/>
<stop offset="1" stop-color="#FFF4DA"/>
</radialGradient>
<radialGradient id="paint11_radial_692_1488" cx="0" cy="0" r="1" gradientUnits="userSpaceOnUse" gradientTransform="translate(59.0197 17.6024) scale(59.0197 17.6024)">
<stop stop-color="#E1E1E1"/>
<stop offset="1" stop-color="#FFF4DA"/>
</radialGradient>
<radialGradient id="paint12_radial_692_1488" cx="0" cy="0" r="1" gradientUnits="userSpaceOnUse" gradientTransform="translate(59.0197 17.6024) scale(59.0197 17.6024)">
<stop stop-color="#E1E1E1"/>
<stop offset="1" stop-color="#FFF4DA"/>
</radialGradient>
<radialGradient id="paint13_radial_692_1488" cx="0" cy="0" r="1" gradientUnits="userSpaceOnUse" gradientTransform="translate(59.0197 17.6024) scale(59.0197 17.6024)">
<stop stop-color="#E1E1E1"/>
<stop offset="1" stop-color="#FFF4DA"/>
</radialGradient>
<radialGradient id="paint14_radial_692_1488" cx="0" cy="0" r="1" gradientUnits="userSpaceOnUse" gradientTransform="translate(59.0197 17.6024) scale(59.0197 17.6024)">
<stop stop-color="#E1E1E1"/>
<stop offset="1" stop-color="#FFF4DA"/>
</radialGradient>
<radialGradient id="paint15_radial_692_1488" cx="0" cy="0" r="1" gradientUnits="userSpaceOnUse" gradientTransform="translate(59.0197 17.6024) scale(59.0197 17.6024)">
<stop stop-color="#E1E1E1"/>
<stop offset="1" stop-color="#FFF4DA"/>
</radialGradient>
<radialGradient id="paint16_radial_692_1488" cx="0" cy="0" r="1" gradientUnits="userSpaceOnUse" gradientTransform="translate(177.059 17.6024) rotate(180) scale(59.0197 17.6024)">
<stop stop-color="#E1E1E1"/>
<stop offset="1" stop-color="#FFF4DA"/>
</radialGradient>
<radialGradient id="paint17_radial_692_1488" cx="0" cy="0" r="1" gradientUnits="userSpaceOnUse" gradientTransform="translate(177.059 17.6024) rotate(180) scale(59.0197 17.6024)">
<stop stop-color="#E1E1E1"/>
<stop offset="1" stop-color="#FFF4DA"/>
</radialGradient>
<radialGradient id="paint18_radial_692_1488" cx="0" cy="0" r="1" gradientUnits="userSpaceOnUse" gradientTransform="translate(177.059 17.6024) rotate(180) scale(59.0197 17.6024)">
<stop stop-color="#E1E1E1"/>
<stop offset="1" stop-color="#FFF4DA"/>
</radialGradient>
<radialGradient id="paint19_radial_692_1488" cx="0" cy="0" r="1" gradientUnits="userSpaceOnUse" gradientTransform="translate(177.059 17.6024) rotate(180) scale(59.0197 17.6024)">
<stop stop-color="#E1E1E1"/>
<stop offset="1" stop-color="#FFF4DA"/>
</radialGradient>
<radialGradient id="paint20_radial_692_1488" cx="0" cy="0" r="1" gradientUnits="userSpaceOnUse" gradientTransform="translate(177.059 17.6024) rotate(180) scale(59.0197 17.6024)">
<stop stop-color="#E1E1E1"/>
<stop offset="1" stop-color="#FFF4DA"/>
</radialGradient>
<radialGradient id="paint21_radial_692_1488" cx="0" cy="0" r="1" gradientUnits="userSpaceOnUse" gradientTransform="translate(177.059 17.6024) rotate(180) scale(59.0197 17.6024)">
<stop stop-color="#E1E1E1"/>
<stop offset="1" stop-color="#FFF4DA"/>
</radialGradient>
<radialGradient id="paint22_radial_692_1488" cx="0" cy="0" r="1" gradientUnits="userSpaceOnUse" gradientTransform="translate(177.059 17.6024) rotate(180) scale(59.0197 17.6024)">
<stop stop-color="#E1E1E1"/>
<stop offset="1" stop-color="#FFF4DA"/>
</radialGradient>
<radialGradient id="paint23_radial_692_1488" cx="0" cy="0" r="1" gradientUnits="userSpaceOnUse" gradientTransform="translate(177.059 17.6024) rotate(180) scale(59.0197 17.6024)">
<stop stop-color="#E1E1E1"/>
<stop offset="1" stop-color="#FFF4DA"/>
</radialGradient>
</defs>
</svg>
