<svg width="237" height="132" viewBox="0 0 237 132" fill="none" xmlns="http://www.w3.org/2000/svg">
<path d="M50.7125 108.06C49.3889 108.487 47.9214 108.504 46.7169 107.809C44.5794 106.575 44.1412 105.154 44.5234 102.508V102.508C42.8798 103.056 42.063 104.953 43.0339 106.388C43.9977 107.812 45.0937 108.974 46.6267 110.246C47.9171 111.316 49.5696 111.855 51.2458 111.812C56.4406 111.679 59.0349 110.851 62.1257 108.72C61.1051 110.641 61.1618 111.76 61.9885 113.6C62.0605 113.76 62.2568 113.822 62.4077 113.731C64.0825 112.73 65.0039 111.892 66.2674 109.756C66.2154 114.032 66.9843 113.977 70.4091 114.933C67.5194 110.86 68.0525 109.221 70.1981 106.254C70.9958 105.151 72.1259 104.331 73.4053 103.866L78.5776 101.985C81.3342 100.982 84.3487 100.942 87.1313 101.869L104.173 107.55C104.307 107.435 104.442 107.326 104.578 107.223V104.508C104.578 103.403 105.474 102.508 106.578 102.508H108.791C109.896 102.508 110.791 103.403 110.791 104.508V105.614H111.826V103.472C111.826 102.368 110.931 101.472 109.826 101.472H105.543C104.438 101.472 103.543 102.368 103.543 103.472V106.65C98.7736 103.748 93.5321 101.584 86.7257 99.7769C82.8456 98.747 78.7534 99.0145 74.9328 100.247L50.7125 108.06Z" fill="url(#paint0_radial_692_2106)"/>
<path fill-rule="evenodd" clip-rule="evenodd" d="M118.039 111.827V108.721C115.458 105.74 114.163 105.799 111.826 105.614H110.791C108.063 105.589 106.222 105.979 104.578 107.223V107.685L104.173 107.55C103.27 108.327 102.409 109.382 101.472 110.791C94.4225 108.167 92.2419 105.859 84.6304 104.117C82.7927 103.696 80.8379 103.854 79.1733 104.739C77.1406 105.82 75.7478 107.075 74.4004 109.235C73.7976 110.201 73.7049 111.42 74.2146 112.438C75.0495 114.107 76.2498 115.417 79.1376 117.128C80.1186 117.709 81.3505 117.62 82.2784 116.957L86.28 114.099C87.2184 113.429 87.4128 112.09 86.6211 111.251C84.8302 109.354 83.7227 109.09 81.7989 109.756C83.0242 110.067 83.7473 110.456 84.396 111.688C84.7596 112.378 84.5518 113.216 84 113.767L82.2754 115.492C81.3706 116.397 79.9663 116.664 78.9055 115.948C77.3915 114.927 76.4781 113.802 75.4876 112.283C74.8937 111.372 74.8539 110.185 75.48 109.296C77.188 106.871 79.0763 106.022 82.8343 105.614C87.5138 105.758 93.9734 109.592 101.472 112.862C101.61 115.305 101.827 117.608 105.43 119.531C106.15 119.915 107.027 119.733 107.604 119.156L110.252 116.508C110.55 116.21 110.55 115.727 110.252 115.429V115.429C109.971 115.149 109.521 115.134 109.21 115.381C104.882 118.812 103.349 117.017 102.508 112.862C108.784 113.743 111.6 112.063 112.862 106.65H114.933L118.039 111.827ZM102.508 111.827C105.324 107.593 107.416 106.549 111.826 106.65C109.581 111.782 107.623 113.001 102.508 111.827Z" fill="url(#paint1_radial_692_2106)"/>
<path d="M118.039 114.933V111.827C116.112 115.763 116.189 118.074 110.791 119.075C111.96 121.038 112.806 121.636 114.933 121.146C115.324 125.201 115.717 127.472 118.039 131.5V125.287C116.703 121.107 116.952 118.865 118.039 114.933Z" fill="url(#paint2_radial_692_2106)"/>
<path d="M115.968 98.3662C116.06 94.792 116.696 93.3936 118.039 91.1182V105.614C115.722 100.811 114.342 99.4138 111.826 99.4015C113.364 97.8121 114.276 97.3638 115.968 98.3662Z" fill="url(#paint3_radial_692_2106)"/>
<path d="M185.366 108.06C186.689 108.487 188.157 108.504 189.361 107.809C191.499 106.575 191.937 105.154 191.555 102.508V102.508C193.198 103.056 194.015 104.953 193.044 106.388C192.08 107.812 190.984 108.974 189.451 110.246C188.161 111.316 186.509 111.855 184.832 111.812C179.637 111.679 177.043 110.851 173.952 108.72C174.973 110.641 174.916 111.76 174.09 113.6C174.018 113.76 173.821 113.822 173.67 113.731C171.996 112.73 171.074 111.892 169.811 109.756C169.863 114.032 169.094 113.977 165.669 114.933C168.559 110.86 168.026 109.221 165.88 106.254C165.082 105.151 163.952 104.331 162.673 103.866L157.5 101.985C154.744 100.982 151.729 100.942 148.947 101.869L131.905 107.55C131.771 107.435 131.636 107.326 131.5 107.223V104.508C131.5 103.403 130.604 102.508 129.5 102.508H127.287C126.183 102.508 125.287 103.403 125.287 104.508V105.614H124.252V103.472C124.252 102.368 125.147 101.472 126.252 101.472H130.535C131.64 101.472 132.535 102.368 132.535 103.472V106.65C137.304 103.748 142.546 101.584 149.352 99.7769C153.232 98.747 157.325 99.0145 161.145 100.247L185.366 108.06Z" fill="url(#paint4_radial_692_2106)"/>
<path fill-rule="evenodd" clip-rule="evenodd" d="M118.039 111.827V108.721C120.62 105.74 121.915 105.799 124.252 105.614H125.287C128.015 105.589 129.856 105.979 131.5 107.223V107.685L131.905 107.55C132.808 108.327 133.669 109.382 134.606 110.791C141.656 108.167 143.836 105.859 151.448 104.117C153.285 103.696 155.24 103.854 156.905 104.739C158.938 105.82 160.33 107.075 161.678 109.235C162.281 110.201 162.373 111.42 161.863 112.438C161.029 114.107 159.828 115.417 156.941 117.128C155.96 117.709 154.728 117.62 153.8 116.957L149.798 114.099C148.86 113.429 148.665 112.09 149.457 111.251C151.248 109.354 152.355 109.09 154.279 109.756C153.054 110.067 152.331 110.456 151.682 111.688C151.319 112.378 151.526 113.216 152.078 113.767L153.803 115.492C154.708 116.397 156.112 116.664 157.173 115.948C158.687 114.927 159.6 113.802 160.591 112.283C161.184 111.372 161.224 110.185 160.598 109.296C158.89 106.871 157.002 106.022 153.244 105.614C148.564 105.758 142.105 109.592 134.606 112.862C134.468 115.305 134.251 117.608 130.648 119.531C129.928 119.915 129.051 119.733 128.474 119.156L125.826 116.508C125.528 116.21 125.528 115.727 125.826 115.429V115.429C126.107 115.149 126.557 115.134 126.868 115.381C131.196 118.812 132.729 117.017 133.571 112.862C127.294 113.743 124.478 112.063 123.216 106.65H121.145L118.039 111.827ZM133.571 111.827C130.754 107.593 128.662 106.549 124.252 106.65C126.497 111.782 128.455 113.001 133.571 111.827Z" fill="url(#paint5_radial_692_2106)"/>
<path d="M118.039 114.933V111.827C119.967 115.763 119.889 118.074 125.287 119.075C124.119 121.038 123.273 121.636 121.145 121.146C120.754 125.201 120.361 127.472 118.039 131.5V125.287C119.375 121.107 119.126 118.865 118.039 114.933Z" fill="url(#paint6_radial_692_2106)"/>
<path d="M120.11 98.3662C120.019 94.792 119.382 93.3936 118.039 91.1182V105.614C120.356 100.811 121.736 99.4138 124.252 99.4015C122.714 97.8121 121.802 97.3638 120.11 98.3662Z" fill="url(#paint7_radial_692_2106)"/>
<path d="M87.5625 46.3398C89.4961 46.3398 91.2292 46.8411 92.7617 47.8438C94.3086 48.832 95.5332 50.1641 96.4355 51.8398C97.3379 53.5156 97.7891 55.3776 97.7891 57.4258C97.7891 59.4023 97.4668 61.3431 96.8223 63.248C96.1777 65.1387 95.2754 66.8861 94.1152 68.4902C92.9551 70.0944 91.6016 71.4622 90.0547 72.5938C87.4193 74.5273 84.3542 75.8307 80.8594 76.5039C81.7044 76.6042 83.7096 77.3346 86.875 78.6953C90.0117 80.0417 92.5469 80.7148 94.4805 80.7148C95.1966 80.7148 95.9557 80.5645 96.7578 80.2637C97.5742 79.9772 98.3405 79.6263 99.0566 79.2109C99.7728 78.7956 100.339 78.4089 100.754 78.0508C101.413 78.3659 101.742 78.7096 101.742 79.082C101.398 79.5404 100.761 80.0775 99.8301 80.6934C98.8991 81.3092 97.8177 81.8464 96.5859 82.3047C95.3685 82.763 94.1367 82.9922 92.8906 82.9922C91.0286 82.9922 89.2311 82.6986 87.498 82.1113C85.765 81.5241 83.7096 80.7148 81.332 79.6836C78.9401 78.6523 76.5911 77.8359 74.2852 77.2344C74.2852 77.1198 74.3783 76.9264 74.5645 76.6543C74.7507 76.3822 74.9154 76.2174 75.0586 76.1602C75.4596 76.1458 76.9779 75.8307 79.6133 75.2148C77.9805 74.8854 76.5625 74.1908 75.3594 73.1309C74.1562 72.071 73.2253 70.7461 72.5664 69.1562C71.9076 67.5521 71.5781 65.7904 71.5781 63.8711C71.5781 60.8919 72.3659 58.0345 73.9414 55.2988C75.0013 53.4655 76.2617 51.8828 77.7227 50.5508C79.1836 49.2044 80.7591 48.166 82.4492 47.4355C84.1393 46.7051 85.8438 46.3398 87.5625 46.3398ZM86.5742 48.1445C85.0273 48.1445 83.5807 48.5814 82.2344 49.4551C80.9023 50.3145 79.7279 51.4746 78.7109 52.9355C77.694 54.3965 76.8991 56.0436 76.3262 57.877C75.7676 59.7103 75.4883 61.5938 75.4883 63.5273C75.4883 65.4753 75.7747 67.2083 76.3477 68.7266C76.9206 70.2305 77.7513 71.4193 78.8398 72.293C79.9427 73.1523 81.2747 73.582 82.8359 73.582C84.3255 73.582 85.7292 73.1452 87.0469 72.2715C88.3789 71.3835 89.5534 70.1947 90.5703 68.7051C91.5872 67.2155 92.3822 65.5469 92.9551 63.6992C93.5423 61.8516 93.8359 59.9609 93.8359 58.0273C93.8359 56.1081 93.5495 54.4108 92.9766 52.9355C92.418 51.446 91.5944 50.2786 90.5059 49.4336C89.4316 48.5742 88.1211 48.1445 86.5742 48.1445ZM108.188 56.3086C109.878 56.3086 111.188 56.8958 112.119 58.0703C113.05 59.2448 113.516 60.8633 113.516 62.9258C113.516 64.401 113.229 65.8691 112.656 67.3301C112.083 68.7767 111.331 70.0944 110.4 71.2832C109.469 72.472 108.445 73.4245 107.328 74.1406C106.211 74.8568 105.108 75.2148 104.02 75.2148C102.301 75.2148 100.99 74.6562 100.088 73.5391C99.1855 72.4219 98.7344 70.832 98.7344 68.7695C98.7344 67.2799 99.0137 65.8047 99.5723 64.3438C100.145 62.8685 100.897 61.5293 101.828 60.3262C102.759 59.1087 103.776 58.1348 104.879 57.4043C105.996 56.6738 107.099 56.3086 108.188 56.3086ZM107.672 58.0703C106.956 58.0703 106.261 58.3854 105.588 59.0156C104.915 59.6315 104.306 60.4408 103.762 61.4434C103.217 62.446 102.788 63.5417 102.473 64.7305C102.158 65.9193 102 67.0794 102 68.2109C102 69.8724 102.265 71.1615 102.795 72.0781C103.325 72.9948 103.991 73.4531 104.793 73.4531C105.509 73.4531 106.189 73.1452 106.834 72.5293C107.493 71.8991 108.08 71.0827 108.596 70.0801C109.111 69.0632 109.512 67.9603 109.799 66.7715C110.1 65.5827 110.25 64.4154 110.25 63.2695C110.25 61.5794 110.021 60.2904 109.562 59.4023C109.104 58.5143 108.474 58.0703 107.672 58.0703ZM122.41 56.3086C122.868 56.3086 123.227 56.5163 123.484 56.9316C123.742 57.347 123.871 57.8841 123.871 58.543C123.871 59.1732 123.785 59.9323 123.613 60.8203L122.926 64.4297C123.284 63.5846 123.742 62.6966 124.301 61.7656C124.874 60.8203 125.482 59.9323 126.127 59.1016C126.771 58.2708 127.409 57.5977 128.039 57.082C128.669 56.5664 129.228 56.3086 129.715 56.3086C130.689 56.3086 131.477 56.7669 132.078 57.6836C132.078 59.6029 131.548 60.5625 130.488 60.5625C130.259 60.5625 129.987 60.3835 129.672 60.0254C129.357 59.6673 129.027 59.4883 128.684 59.4883C128.268 59.4883 127.724 59.832 127.051 60.5195C126.378 61.207 125.683 62.1094 124.967 63.2266C124.251 64.3294 123.606 65.5254 123.033 66.8145C122.46 68.0892 122.066 69.3138 121.852 70.4883L121.035 75C120.548 75.0859 120.076 75.1289 119.617 75.1289C119.073 75.1289 118.543 75.0859 118.027 75L120.605 61.7656C120.749 60.7773 120.82 60.2044 120.82 60.0469C120.82 59.3307 120.677 58.9727 120.391 58.9727C120.147 58.9727 119.782 59.2018 119.295 59.6602C119.066 59.8893 118.815 60.14 118.543 60.4121C118.285 60.6842 118.113 60.8776 118.027 60.9922C117.97 60.9922 117.863 60.8561 117.705 60.584C117.548 60.3118 117.469 60.1185 117.469 60.0039C117.698 59.6172 118.113 59.1374 118.715 58.5645C119.316 57.9772 119.961 57.4544 120.648 56.9961C121.336 56.5378 121.923 56.3086 122.41 56.3086ZM139.684 47.2422C140.113 47.2422 140.479 47.4141 140.779 47.7578C141.08 48.1016 141.23 48.5026 141.23 48.9609C141.23 49.6484 141.008 50.25 140.564 50.7656C140.12 51.2812 139.569 51.5391 138.91 51.5391C138.452 51.5391 138.094 51.36 137.836 51.002C137.578 50.6439 137.449 50.207 137.449 49.6914C137.449 49.0326 137.664 48.4596 138.094 47.9727C138.523 47.4857 139.053 47.2422 139.684 47.2422ZM138.438 56.3086C138.896 56.3086 139.254 56.5163 139.512 56.9316C139.77 57.347 139.898 57.8841 139.898 58.543C139.898 59.1302 139.812 59.8893 139.641 60.8203L137.75 70.4453C137.664 70.7891 137.621 71.1471 137.621 71.5195C137.621 72.2357 137.764 72.5938 138.051 72.5938C138.409 72.5938 138.839 72.3431 139.34 71.8418C139.841 71.3262 140.271 70.8893 140.629 70.5312L140.887 70.2305C140.944 70.2305 141.051 70.3665 141.209 70.6387C141.367 70.9108 141.445 71.1042 141.445 71.2188C141.202 71.6341 140.758 72.1641 140.113 72.8086C139.483 73.4531 138.796 74.026 138.051 74.5273C137.306 75.0143 136.633 75.2578 136.031 75.2578C135.573 75.2578 135.215 75.0501 134.957 74.6348C134.699 74.2194 134.57 73.6823 134.57 73.0234C134.57 72.5938 134.671 71.8346 134.871 70.7461L136.633 61.7656C136.776 60.9206 136.848 60.3477 136.848 60.0469C136.848 59.3307 136.704 58.9727 136.418 58.9727C136.246 58.9727 136.01 59.0872 135.709 59.3164C135.423 59.5456 135.143 59.8034 134.871 60.0898C134.599 60.362 134.398 60.5768 134.27 60.7344L134.055 60.9922C133.997 60.9922 133.89 60.8561 133.732 60.584C133.575 60.3118 133.496 60.1185 133.496 60.0039C133.725 59.6172 134.141 59.1374 134.742 58.5645C135.344 57.9772 135.988 57.4544 136.676 56.9961C137.363 56.5378 137.951 56.3086 138.438 56.3086ZM148.445 44.068C148.181 45.0947 147.844 46.2093 147.433 47.412C147.023 48.6147 146.568 49.8173 146.069 51.02C145.6 52.1933 145.131 53.308 144.661 54.364H141.801C142.007 53.5427 142.212 52.6627 142.417 51.724C142.652 50.7853 142.857 49.8467 143.033 48.908C143.239 47.94 143.415 47.0013 143.561 46.092C143.737 45.1827 143.884 44.3467 144.001 43.584H148.137L148.445 44.068ZM164.047 56.3086C165.107 56.3086 166.152 56.4948 167.184 56.8672L164.562 70.4453C164.477 70.7891 164.434 71.1471 164.434 71.5195C164.434 72.2357 164.577 72.5938 164.863 72.5938C165.221 72.5938 165.651 72.3431 166.152 71.8418C166.654 71.3262 167.083 70.8893 167.441 70.5312L167.699 70.2305C167.757 70.2305 167.864 70.3665 168.021 70.6387C168.179 70.9108 168.258 71.1042 168.258 71.2188C168.014 71.6341 167.57 72.1641 166.926 72.8086C166.296 73.4531 165.608 74.026 164.863 74.5273C164.118 75.0143 163.445 75.2578 162.844 75.2578C162.385 75.2578 162.027 75.0501 161.77 74.6348C161.512 74.2194 161.383 73.6823 161.383 73.0234C161.383 72.5794 161.483 71.8203 161.684 70.7461L161.834 69.9941C161.877 69.7936 161.898 69.6719 161.898 69.6289C161.669 70.0586 161.34 70.5885 160.91 71.2188C160.48 71.8346 159.986 72.4505 159.428 73.0664C158.869 73.6823 158.282 74.1979 157.666 74.6133C157.05 75.0143 156.441 75.2148 155.84 75.2148C154.579 75.2148 153.584 74.6491 152.854 73.5176C152.123 72.3861 151.758 71.0182 151.758 69.4141C151.758 67.3659 152.367 65.3249 153.584 63.291C154.4 61.916 155.374 60.7057 156.506 59.6602C157.652 58.6146 158.876 57.7982 160.18 57.2109C161.483 56.6094 162.772 56.3086 164.047 56.3086ZM162.242 58.2852C161.397 58.2852 160.545 58.5859 159.686 59.1875C158.826 59.7747 158.038 60.5697 157.322 61.5723C156.606 62.5605 156.026 63.6634 155.582 64.8809C155.152 66.084 154.938 67.2943 154.938 68.5117C154.938 71.319 155.668 72.7227 157.129 72.7227C157.645 72.7227 158.203 72.4362 158.805 71.8633C159.406 71.2904 160.001 70.5312 160.588 69.5859C161.175 68.6406 161.691 67.6165 162.135 66.5137C162.593 65.3965 162.93 64.3008 163.145 63.2266L164.004 58.8438C163.66 58.4714 163.073 58.2852 162.242 58.2852Z" fill="white"/>
<path d="M0 14.4961C6.30012 20.0984 15.0791 19.1979 30.687 15.1421C32.2497 14.736 33.9168 14.9601 35.3059 15.7832L61.0905 31.063L35.3304 19.6141C33.9205 18.9874 32.3183 18.9353 30.8588 19.4358C12.5496 25.7159 4.73674 24.7283 0 14.4961Z" fill="url(#paint8_radial_692_2106)"/>
<path d="M16.5669 25.8858C22.7094 27.5488 34.4861 19.1752 43.5027 24.2129C35.7991 20.3448 24.9274 34.7378 16.5669 25.8858Z" fill="url(#paint9_radial_692_2106)"/>
<path d="M42.4528 34.1693C40.4746 32.9379 39.8039 31.791 39.5364 30.2054C39.314 28.8871 40.2138 27.6374 41.514 27.3262C46.4064 26.1551 49.6595 27.3172 54.8779 31.063C50.3759 26.3362 46.8249 25.2844 39.6469 25.78C38.7972 25.8387 38.0191 26.2751 37.5081 26.9564L36.1669 28.7446C35.6047 29.4943 35.6307 30.5432 36.2784 31.2205C38.4425 33.4837 39.9798 34.1156 42.4528 34.1693Z" fill="url(#paint10_radial_692_2106)"/>
<path d="M61.0905 28.9921C48.8725 19.5072 53.131 18.6378 60.0551 10.3543C56.6285 8.93238 54.8937 8.83857 52.8071 12.4252C51.2879 8.29387 49.7783 6.42726 45.559 4.14173C43.8524 8.52031 44.6321 10.6991 46.5945 14.4961C42.9378 12.0347 40.7471 11.3823 36.2402 13.4606C46.3046 17.727 45.2926 18.8748 61.0905 28.9921Z" fill="url(#paint11_radial_692_2106)"/>
<path d="M78.6929 22.7441C78.6929 22.1918 79.1406 21.7441 79.6929 21.7441H79.7638C80.3161 21.7441 80.7638 22.1918 80.7638 22.7441V25.9213C80.7638 26.4735 80.3161 26.9213 79.7638 26.9213H74.4803C73.3757 26.9213 72.4803 26.0258 72.4803 24.9213V19.6024C72.4803 18.4978 73.3757 17.6024 74.4803 17.6024H78.7281C80.6137 17.6024 82.4755 18.023 84.178 18.8337V18.8337C85.2965 19.3663 86.1249 20.3629 86.4441 21.5599L88.3399 28.6695C89.2063 31.9182 86.6836 35.0788 83.3237 34.9544L68.0679 34.3894C64.7776 34.2675 62.2002 31.5169 62.2923 28.2256L62.6948 13.8426C62.7856 10.5955 65.4441 8.01038 68.6924 8.01038H83.0387C86.0229 8.01038 88.8896 9.21712 90.915 11.4088C101.807 23.194 109.097 33.3225 115.395 32.2299C115.685 32.1796 115.968 32.3916 115.968 32.686V32.686C115.968 32.9325 115.766 33.1318 115.519 33.1285C109.37 33.045 105.37 32.4313 87.653 13.254C86.5367 12.0456 85.0793 11.1983 83.4735 10.8414L77.8584 9.59364C77.0431 9.41248 76.199 9.4035 75.3801 9.56728L71.091 10.4251C68.2865 10.986 66.2677 13.4485 66.2677 16.3086V27.0984C66.2677 29.8599 68.5063 32.0984 71.2677 32.0984H80.9055C83.1146 32.0984 84.9055 30.3076 84.9055 28.0984V22.6378C84.9055 20.4287 83.1146 18.6378 80.9055 18.6378H76.5512C75.4466 18.6378 74.5512 19.5332 74.5512 20.6378V24.8858C74.5512 25.4381 74.9989 25.8858 75.5512 25.8858H77.6929C78.2452 25.8858 78.6929 25.4381 78.6929 24.8858V22.7441Z" fill="url(#paint12_radial_692_2106)"/>
<path d="M104.412 33.0631C96.4743 29.9513 88.3242 12.4066 78.6929 13.4606C91.6665 19.2326 92.9183 31.4785 104.412 33.0631Z" fill="url(#paint13_radial_692_2106)"/>
<path d="M111.827 30.0276C106.485 21.6827 106.361 16.9143 110.791 8.28346C105.363 9.71409 97.6256 19.5114 111.827 30.0276Z" fill="url(#paint14_radial_692_2106)"/>
<path d="M118.039 10.3543C113.102 14.0549 110.405 23.2793 118.039 32.0984C106.33 25.6888 109.793 12.7713 118.039 0V10.3543Z" fill="url(#paint15_radial_692_2106)"/>
<path d="M236.079 14.4961C229.779 20.0984 221 19.1979 205.392 15.1421C203.829 14.736 202.162 14.9601 200.773 15.7832L174.989 31.063L200.749 19.6141C202.159 18.9874 203.761 18.9353 205.22 19.4358C223.529 25.7159 231.342 24.7283 236.079 14.4961Z" fill="url(#paint16_radial_692_2106)"/>
<path d="M219.512 25.8858C213.37 27.5488 201.593 19.1752 192.576 24.2129C200.28 20.3448 211.152 34.7378 219.512 25.8858Z" fill="url(#paint17_radial_692_2106)"/>
<path d="M193.626 34.1693C195.605 32.9379 196.275 31.791 196.543 30.2054C196.765 28.8871 195.865 27.6374 194.565 27.3262C189.673 26.1551 186.42 27.3172 181.201 31.063C185.703 26.3362 189.254 25.2844 196.432 25.78C197.282 25.8387 198.06 26.2751 198.571 26.9564L199.912 28.7446C200.474 29.4943 200.448 30.5432 199.801 31.2205C197.637 33.4837 196.099 34.1156 193.626 34.1693Z" fill="url(#paint18_radial_692_2106)"/>
<path d="M174.989 28.9921C187.207 19.5072 182.948 18.6378 176.024 10.3543C179.451 8.93238 181.185 8.83857 183.272 12.4252C184.791 8.29387 186.301 6.42726 190.52 4.14173C192.227 8.52031 191.447 10.6991 189.485 14.4961C193.141 12.0347 195.332 11.3823 199.839 13.4606C189.775 17.727 190.787 18.8748 174.989 28.9921Z" fill="url(#paint19_radial_692_2106)"/>
<path d="M157.386 22.7441C157.386 22.1918 156.938 21.7441 156.386 21.7441H156.315C155.763 21.7441 155.315 22.1918 155.315 22.7441V25.9213C155.315 26.4735 155.763 26.9213 156.315 26.9213H161.599C162.703 26.9213 163.599 26.0258 163.599 24.9213V19.6024C163.599 18.4978 162.703 17.6024 161.599 17.6024H157.351C155.465 17.6024 153.604 18.023 151.901 18.8337V18.8337C150.783 19.3663 149.954 20.3629 149.635 21.5599L147.739 28.6695C146.873 31.9182 149.396 35.0788 152.755 34.9544L168.011 34.3894C171.301 34.2675 173.879 31.5169 173.787 28.2256L173.384 13.8426C173.293 10.5955 170.635 8.01038 167.387 8.01038H153.04C150.056 8.01038 147.19 9.21712 145.164 11.4088C134.273 23.194 126.982 33.3225 120.684 32.2299C120.394 32.1796 120.111 32.3916 120.111 32.686V32.686C120.111 32.9325 120.313 33.1318 120.56 33.1285C126.709 33.045 130.709 32.4313 148.426 13.254C149.542 12.0456 151 11.1983 152.606 10.8414L158.221 9.59364C159.036 9.41248 159.88 9.4035 160.699 9.56728L164.988 10.4251C167.793 10.986 169.811 13.4485 169.811 16.3086V27.0984C169.811 29.8599 167.573 32.0984 164.811 32.0984H155.174C152.964 32.0984 151.174 30.3076 151.174 28.0984V22.6378C151.174 20.4287 152.964 18.6378 155.174 18.6378H159.528C160.633 18.6378 161.528 19.5332 161.528 20.6378V24.8858C161.528 25.4381 161.08 25.8858 160.528 25.8858H158.386C157.834 25.8858 157.386 25.4381 157.386 24.8858V22.7441Z" fill="url(#paint20_radial_692_2106)"/>
<path d="M131.667 33.0631C139.605 29.9513 147.755 12.4066 157.386 13.4606C144.413 19.2326 143.161 31.4785 131.667 33.0631Z" fill="url(#paint21_radial_692_2106)"/>
<path d="M124.252 30.0276C129.594 21.6827 129.718 16.9143 125.288 8.28346C130.716 9.71409 138.454 19.5114 124.252 30.0276Z" fill="url(#paint22_radial_692_2106)"/>
<path d="M118.04 10.3543C122.977 14.0549 125.674 23.2793 118.04 32.0984C129.75 25.6888 126.286 12.7713 118.04 0V10.3543Z" fill="url(#paint23_radial_692_2106)"/>
<defs>
<radialGradient id="paint0_radial_692_2106" cx="0" cy="0" r="1" gradientUnits="userSpaceOnUse" gradientTransform="translate(79.728 111.309) scale(38.311 20.1909)">
<stop stop-color="#E1E1E1"/>
<stop offset="1" stop-color="#FFF4DA"/>
</radialGradient>
<radialGradient id="paint1_radial_692_2106" cx="0" cy="0" r="1" gradientUnits="userSpaceOnUse" gradientTransform="translate(79.728 111.309) scale(38.311 20.1909)">
<stop stop-color="#E1E1E1"/>
<stop offset="1" stop-color="#FFF4DA"/>
</radialGradient>
<radialGradient id="paint2_radial_692_2106" cx="0" cy="0" r="1" gradientUnits="userSpaceOnUse" gradientTransform="translate(79.728 111.309) scale(38.311 20.1909)">
<stop stop-color="#E1E1E1"/>
<stop offset="1" stop-color="#FFF4DA"/>
</radialGradient>
<radialGradient id="paint3_radial_692_2106" cx="0" cy="0" r="1" gradientUnits="userSpaceOnUse" gradientTransform="translate(79.728 111.309) scale(38.311 20.1909)">
<stop stop-color="#E1E1E1"/>
<stop offset="1" stop-color="#FFF4DA"/>
</radialGradient>
<radialGradient id="paint4_radial_692_2106" cx="0" cy="0" r="1" gradientUnits="userSpaceOnUse" gradientTransform="translate(156.35 111.309) rotate(180) scale(38.311 20.1909)">
<stop stop-color="#E1E1E1"/>
<stop offset="1" stop-color="#FFF4DA"/>
</radialGradient>
<radialGradient id="paint5_radial_692_2106" cx="0" cy="0" r="1" gradientUnits="userSpaceOnUse" gradientTransform="translate(156.35 111.309) rotate(180) scale(38.311 20.1909)">
<stop stop-color="#E1E1E1"/>
<stop offset="1" stop-color="#FFF4DA"/>
</radialGradient>
<radialGradient id="paint6_radial_692_2106" cx="0" cy="0" r="1" gradientUnits="userSpaceOnUse" gradientTransform="translate(156.35 111.309) rotate(180) scale(38.311 20.1909)">
<stop stop-color="#E1E1E1"/>
<stop offset="1" stop-color="#FFF4DA"/>
</radialGradient>
<radialGradient id="paint7_radial_692_2106" cx="0" cy="0" r="1" gradientUnits="userSpaceOnUse" gradientTransform="translate(156.35 111.309) rotate(180) scale(38.311 20.1909)">
<stop stop-color="#E1E1E1"/>
<stop offset="1" stop-color="#FFF4DA"/>
</radialGradient>
<radialGradient id="paint8_radial_692_2106" cx="0" cy="0" r="1" gradientUnits="userSpaceOnUse" gradientTransform="translate(59.0197 17.6024) scale(59.0197 17.6024)">
<stop stop-color="#E1E1E1"/>
<stop offset="1" stop-color="#FFF4DA"/>
</radialGradient>
<radialGradient id="paint9_radial_692_2106" cx="0" cy="0" r="1" gradientUnits="userSpaceOnUse" gradientTransform="translate(59.0197 17.6024) scale(59.0197 17.6024)">
<stop stop-color="#E1E1E1"/>
<stop offset="1" stop-color="#FFF4DA"/>
</radialGradient>
<radialGradient id="paint10_radial_692_2106" cx="0" cy="0" r="1" gradientUnits="userSpaceOnUse" gradientTransform="translate(59.0197 17.6024) scale(59.0197 17.6024)">
<stop stop-color="#E1E1E1"/>
<stop offset="1" stop-color="#FFF4DA"/>
</radialGradient>
<radialGradient id="paint11_radial_692_2106" cx="0" cy="0" r="1" gradientUnits="userSpaceOnUse" gradientTransform="translate(59.0197 17.6024) scale(59.0197 17.6024)">
<stop stop-color="#E1E1E1"/>
<stop offset="1" stop-color="#FFF4DA"/>
</radialGradient>
<radialGradient id="paint12_radial_692_2106" cx="0" cy="0" r="1" gradientUnits="userSpaceOnUse" gradientTransform="translate(59.0197 17.6024) scale(59.0197 17.6024)">
<stop stop-color="#E1E1E1"/>
<stop offset="1" stop-color="#FFF4DA"/>
</radialGradient>
<radialGradient id="paint13_radial_692_2106" cx="0" cy="0" r="1" gradientUnits="userSpaceOnUse" gradientTransform="translate(59.0197 17.6024) scale(59.0197 17.6024)">
<stop stop-color="#E1E1E1"/>
<stop offset="1" stop-color="#FFF4DA"/>
</radialGradient>
<radialGradient id="paint14_radial_692_2106" cx="0" cy="0" r="1" gradientUnits="userSpaceOnUse" gradientTransform="translate(59.0197 17.6024) scale(59.0197 17.6024)">
<stop stop-color="#E1E1E1"/>
<stop offset="1" stop-color="#FFF4DA"/>
</radialGradient>
<radialGradient id="paint15_radial_692_2106" cx="0" cy="0" r="1" gradientUnits="userSpaceOnUse" gradientTransform="translate(59.0197 17.6024) scale(59.0197 17.6024)">
<stop stop-color="#E1E1E1"/>
<stop offset="1" stop-color="#FFF4DA"/>
</radialGradient>
<radialGradient id="paint16_radial_692_2106" cx="0" cy="0" r="1" gradientUnits="userSpaceOnUse" gradientTransform="translate(177.059 17.6024) rotate(180) scale(59.0197 17.6024)">
<stop stop-color="#E1E1E1"/>
<stop offset="1" stop-color="#FFF4DA"/>
</radialGradient>
<radialGradient id="paint17_radial_692_2106" cx="0" cy="0" r="1" gradientUnits="userSpaceOnUse" gradientTransform="translate(177.059 17.6024) rotate(180) scale(59.0197 17.6024)">
<stop stop-color="#E1E1E1"/>
<stop offset="1" stop-color="#FFF4DA"/>
</radialGradient>
<radialGradient id="paint18_radial_692_2106" cx="0" cy="0" r="1" gradientUnits="userSpaceOnUse" gradientTransform="translate(177.059 17.6024) rotate(180) scale(59.0197 17.6024)">
<stop stop-color="#E1E1E1"/>
<stop offset="1" stop-color="#FFF4DA"/>
</radialGradient>
<radialGradient id="paint19_radial_692_2106" cx="0" cy="0" r="1" gradientUnits="userSpaceOnUse" gradientTransform="translate(177.059 17.6024) rotate(180) scale(59.0197 17.6024)">
<stop stop-color="#E1E1E1"/>
<stop offset="1" stop-color="#FFF4DA"/>
</radialGradient>
<radialGradient id="paint20_radial_692_2106" cx="0" cy="0" r="1" gradientUnits="userSpaceOnUse" gradientTransform="translate(177.059 17.6024) rotate(180) scale(59.0197 17.6024)">
<stop stop-color="#E1E1E1"/>
<stop offset="1" stop-color="#FFF4DA"/>
</radialGradient>
<radialGradient id="paint21_radial_692_2106" cx="0" cy="0" r="1" gradientUnits="userSpaceOnUse" gradientTransform="translate(177.059 17.6024) rotate(180) scale(59.0197 17.6024)">
<stop stop-color="#E1E1E1"/>
<stop offset="1" stop-color="#FFF4DA"/>
</radialGradient>
<radialGradient id="paint22_radial_692_2106" cx="0" cy="0" r="1" gradientUnits="userSpaceOnUse" gradientTransform="translate(177.059 17.6024) rotate(180) scale(59.0197 17.6024)">
<stop stop-color="#E1E1E1"/>
<stop offset="1" stop-color="#FFF4DA"/>
</radialGradient>
<radialGradient id="paint23_radial_692_2106" cx="0" cy="0" r="1" gradientUnits="userSpaceOnUse" gradientTransform="translate(177.059 17.6024) rotate(180) scale(59.0197 17.6024)">
<stop stop-color="#E1E1E1"/>
<stop offset="1" stop-color="#FFF4DA"/>
</radialGradient>
</defs>
</svg>
