<svg width="237" height="132" viewBox="0 0 237 132" fill="none" xmlns="http://www.w3.org/2000/svg">
<path d="M50.713 108.06C49.3894 108.487 47.9219 108.504 46.7174 107.809C44.5799 106.575 44.1417 105.154 44.5239 102.508V102.508C42.8803 103.056 42.0634 104.953 43.0344 106.388C43.9981 107.812 45.0942 108.974 46.6272 110.246C47.9176 111.316 49.57 111.855 51.2463 111.812C56.4411 111.679 59.0354 110.851 62.1261 108.72C61.1055 110.641 61.1623 111.76 61.9889 113.6C62.061 113.76 62.2573 113.822 62.4081 113.731C64.083 112.73 65.0044 111.892 66.2679 109.756C66.2159 114.032 66.9848 113.977 70.4096 114.933C67.5199 110.86 68.053 109.221 70.1985 106.254C70.9963 105.151 72.1264 104.331 73.4058 103.866L78.5781 101.985C81.3347 100.982 84.3491 100.942 87.1317 101.869L104.174 107.55C104.308 107.435 104.443 107.326 104.579 107.223V104.508C104.579 103.403 105.474 102.508 106.579 102.508H108.791C109.896 102.508 110.791 103.403 110.791 104.508V105.614H111.827V103.472C111.827 102.368 110.931 101.472 109.827 101.472H105.543C104.439 101.472 103.543 102.368 103.543 103.472V106.65C98.7741 103.748 93.5326 101.584 86.7262 99.7769C82.8461 98.747 78.7539 99.0145 74.9333 100.247L50.713 108.06Z" fill="url(#paint0_radial_692_1536)"/>
<path fill-rule="evenodd" clip-rule="evenodd" d="M118.04 111.827V108.721C115.458 105.74 114.164 105.799 111.827 105.614H110.791C108.063 105.589 106.223 105.979 104.579 107.223V107.685L104.174 107.55C103.27 108.327 102.41 109.382 101.473 110.791C94.423 108.167 92.2423 105.859 84.6309 104.117C82.7932 103.696 80.8384 103.854 79.1738 104.739C77.1411 105.82 75.7483 107.075 74.4009 109.235C73.7981 110.201 73.7054 111.42 74.2151 112.438C75.05 114.107 76.2503 115.417 79.1381 117.128C80.1191 117.709 81.351 117.62 82.2789 116.957L86.2804 114.099C87.2189 113.429 87.4133 112.09 86.6216 111.251C84.8307 109.354 83.7232 109.09 81.7994 109.756C83.0247 110.067 83.7478 110.456 84.3965 111.688C84.7601 112.378 84.5523 113.216 84.0005 113.767L82.2759 115.492C81.3711 116.397 79.9668 116.664 78.906 115.948C77.392 114.927 76.4786 113.802 75.488 112.283C74.8942 111.372 74.8544 110.185 75.4804 109.296C77.1885 106.871 79.0768 106.022 82.8348 105.614C87.5143 105.758 93.9739 109.592 101.473 112.862C101.611 115.305 101.827 117.608 105.431 119.531C106.15 119.915 107.027 119.733 107.604 119.156L110.252 116.508C110.55 116.21 110.55 115.727 110.252 115.429V115.429C109.972 115.149 109.522 115.134 109.211 115.381C104.883 118.812 103.35 117.017 102.508 112.862C108.785 113.743 111.601 112.063 112.862 106.65H114.933L118.04 111.827ZM102.508 111.827C105.324 107.593 107.417 106.549 111.827 106.65C109.582 111.782 107.624 113.001 102.508 111.827Z" fill="url(#paint1_radial_692_1536)"/>
<path d="M118.04 114.933V111.827C116.112 115.763 116.189 118.074 110.791 119.075C111.96 121.038 112.806 121.636 114.933 121.146C115.325 125.201 115.718 127.472 118.04 131.5V125.287C116.703 121.107 116.953 118.865 118.04 114.933Z" fill="url(#paint2_radial_692_1536)"/>
<path d="M115.969 98.3662C116.06 94.792 116.696 93.3936 118.04 91.1182V105.614C115.723 100.811 114.342 99.4138 111.827 99.4015C113.365 97.8121 114.277 97.3638 115.969 98.3662Z" fill="url(#paint3_radial_692_1536)"/>
<path d="M185.366 108.06C186.69 108.487 188.157 108.504 189.362 107.809C191.499 106.575 191.937 105.154 191.555 102.508V102.508C193.199 103.056 194.016 104.953 193.045 106.388C192.081 107.812 190.985 108.974 189.452 110.246C188.161 111.316 186.509 111.855 184.833 111.812C179.638 111.679 177.044 110.851 173.953 108.72C174.974 110.641 174.917 111.76 174.09 113.6C174.018 113.76 173.822 113.822 173.671 113.731C171.996 112.73 171.075 111.892 169.811 109.756C169.863 114.032 169.094 113.977 165.669 114.933C168.559 110.86 168.026 109.221 165.881 106.254C165.083 105.151 163.953 104.331 162.673 103.866L157.501 101.985C154.744 100.982 151.73 100.942 148.947 101.869L131.905 107.55C131.771 107.435 131.636 107.326 131.5 107.223V104.508C131.5 103.403 130.605 102.508 129.5 102.508H127.288C126.183 102.508 125.288 103.403 125.288 104.508V105.614H124.252V103.472C124.252 102.368 125.148 101.472 126.252 101.472H130.536C131.64 101.472 132.536 102.368 132.536 103.472V106.65C137.305 103.748 142.547 101.584 149.353 99.7769C153.233 98.747 157.325 99.0145 161.146 100.247L185.366 108.06Z" fill="url(#paint4_radial_692_1536)"/>
<path fill-rule="evenodd" clip-rule="evenodd" d="M118.04 111.827V108.721C120.621 105.74 121.915 105.799 124.252 105.614H125.288C128.016 105.589 129.856 105.979 131.5 107.223V107.685L131.905 107.55C132.809 108.327 133.669 109.382 134.607 110.791C141.656 108.167 143.837 105.859 151.448 104.117C153.286 103.696 155.241 103.854 156.905 104.739C158.938 105.82 160.331 107.075 161.678 109.235C162.281 110.201 162.374 111.42 161.864 112.438C161.029 114.107 159.829 115.417 156.941 117.128C155.96 117.709 154.728 117.62 153.8 116.957L149.799 114.099C148.86 113.429 148.666 112.09 149.457 111.251C151.248 109.354 152.356 109.09 154.28 109.756C153.054 110.067 152.331 110.456 151.683 111.688C151.319 112.378 151.527 113.216 152.079 113.767L153.803 115.492C154.708 116.397 156.112 116.664 157.173 115.948C158.687 114.927 159.601 113.802 160.591 112.283C161.185 111.372 161.225 110.185 160.599 109.296C158.891 106.871 157.002 106.022 153.244 105.614C148.565 105.758 142.105 109.592 134.607 112.862C134.468 115.305 134.252 117.608 130.648 119.531C129.929 119.915 129.052 119.733 128.475 119.156L125.827 116.508C125.529 116.21 125.529 115.727 125.827 115.429V115.429C126.107 115.149 126.557 115.134 126.868 115.381C131.196 118.812 132.729 117.017 133.571 112.862C127.294 113.743 124.479 112.063 123.217 106.65H121.146L118.04 111.827ZM133.571 111.827C130.755 107.593 128.662 106.549 124.252 106.65C126.497 111.782 128.455 113.001 133.571 111.827Z" fill="url(#paint5_radial_692_1536)"/>
<path d="M118.04 114.933V111.827C119.967 115.763 119.89 118.074 125.288 119.075C124.119 121.038 123.273 121.636 121.146 121.146C120.755 125.201 120.362 127.472 118.04 131.5V125.287C119.376 121.107 119.126 118.865 118.04 114.933Z" fill="url(#paint6_radial_692_1536)"/>
<path d="M120.11 98.3662C120.019 94.792 119.383 93.3936 118.04 91.1182V105.614C120.356 100.811 121.737 99.4138 124.252 99.4015C122.714 97.8121 121.802 97.3638 120.11 98.3662Z" fill="url(#paint7_radial_692_1536)"/>
<path d="M92.2539 67.6094C92.2539 66.75 91.9102 65.9121 91.2227 65.0957C90.5352 64.2793 89.7044 63.5345 88.7305 62.8613C88.2435 62.5319 87.7565 62.1953 87.2695 61.8516C86.7826 61.5078 86.2884 61.1569 85.7871 60.7988C84.7988 60.097 83.9609 59.2734 83.2734 58.3281C82.5859 57.3828 82.2422 56.3802 82.2422 55.3203C82.2422 53.6016 82.6719 52.069 83.5312 50.7227C84.4049 49.3763 85.5651 48.3164 87.0117 47.543C88.4727 46.7695 90.0911 46.3828 91.8672 46.3828C92.6263 46.3828 93.5859 46.5404 94.7461 46.8555C95.3333 47.013 95.849 47.1419 96.293 47.2422C96.737 47.3281 97.1094 47.3854 97.4102 47.4141C97.3099 48.2018 97.2096 48.9967 97.1094 49.7988C97.0234 50.5866 96.9375 51.3815 96.8516 52.1836C96.7656 53 96.7012 53.487 96.6582 53.6445C96.6152 53.7878 96.5508 53.8594 96.4648 53.8594C96.0495 53.8594 95.7201 53.7734 95.4766 53.6016C95.4193 53.5872 95.3906 53.4154 95.3906 53.0859C95.3906 52.1836 95.1901 51.3672 94.7891 50.6367C94.388 49.9062 93.8581 49.3262 93.1992 48.8965C92.5404 48.4525 91.8242 48.2305 91.0508 48.2305C89.418 48.2305 88.1003 48.7246 87.0977 49.7129C86.0951 50.7012 85.5938 51.9401 85.5938 53.4297C85.5938 54.9479 86.2956 56.2656 87.6992 57.3828C88.5013 58.013 89.4395 58.6934 90.5137 59.4238C91.6022 60.14 92.5475 60.8346 93.3496 61.5078C93.9368 61.9948 94.5169 62.6895 95.0898 63.5918C95.6628 64.4941 95.9492 65.4466 95.9492 66.4492C95.9492 67.3372 95.7344 68.2826 95.3047 69.2852C94.875 70.2878 94.2591 71.2402 93.457 72.1426C92.6549 73.0449 91.5951 73.7897 90.2773 74.377C88.9596 74.9642 87.513 75.2578 85.9375 75.2578C84.3906 75.2578 82.1133 74.9141 79.1055 74.2266C79.1628 73.3099 79.2057 72.5651 79.2344 71.9922C79.263 71.4049 79.2773 70.9896 79.2773 70.7461C79.2773 70.1159 79.263 69.4857 79.2344 68.8555C79.2057 68.2253 79.1914 67.7526 79.1914 67.4375C79.1914 67.237 79.4635 67.1367 80.0078 67.1367C80.2799 67.1367 80.5521 67.2513 80.8242 67.4805C80.8242 68.082 80.8887 68.6836 81.0176 69.2852C81.1465 69.8867 81.39 70.5312 81.748 71.2188C82.1061 71.9062 82.679 72.4577 83.4668 72.873C84.2546 73.2884 85.207 73.4961 86.3242 73.4961C87.3411 73.4961 88.3008 73.2598 89.2031 72.7871C90.1055 72.3145 90.8359 71.6413 91.3945 70.7676C91.9674 69.8796 92.2539 68.8268 92.2539 67.6094ZM110.773 56.3086C111.833 56.3086 112.879 56.4948 113.91 56.8672L111.289 70.4453C111.203 70.7891 111.16 71.1471 111.16 71.5195C111.16 72.2357 111.303 72.5938 111.59 72.5938C111.948 72.5938 112.378 72.3431 112.879 71.8418C113.38 71.3262 113.81 70.8893 114.168 70.5312L114.426 70.2305C114.483 70.2305 114.59 70.3665 114.748 70.6387C114.906 70.9108 114.984 71.1042 114.984 71.2188C114.741 71.6341 114.297 72.1641 113.652 72.8086C113.022 73.4531 112.335 74.026 111.59 74.5273C110.845 75.0143 110.172 75.2578 109.57 75.2578C109.112 75.2578 108.754 75.0501 108.496 74.6348C108.238 74.2194 108.109 73.6823 108.109 73.0234C108.109 72.5794 108.21 71.8203 108.41 70.7461L108.561 69.9941C108.604 69.7936 108.625 69.6719 108.625 69.6289C108.396 70.0586 108.066 70.5885 107.637 71.2188C107.207 71.8346 106.713 72.4505 106.154 73.0664C105.596 73.6823 105.008 74.1979 104.393 74.6133C103.777 75.0143 103.168 75.2148 102.566 75.2148C101.306 75.2148 100.311 74.6491 99.5801 73.5176C98.8496 72.3861 98.4844 71.0182 98.4844 69.4141C98.4844 67.3659 99.0931 65.3249 100.311 63.291C101.127 61.916 102.101 60.7057 103.232 59.6602C104.378 58.6146 105.603 57.7982 106.906 57.2109C108.21 56.6094 109.499 56.3086 110.773 56.3086ZM108.969 58.2852C108.124 58.2852 107.271 58.5859 106.412 59.1875C105.553 59.7747 104.765 60.5697 104.049 61.5723C103.333 62.5605 102.753 63.6634 102.309 64.8809C101.879 66.084 101.664 67.2943 101.664 68.5117C101.664 71.319 102.395 72.7227 103.855 72.7227C104.371 72.7227 104.93 72.4362 105.531 71.8633C106.133 71.2904 106.727 70.5312 107.314 69.5859C107.902 68.6406 108.417 67.6165 108.861 66.5137C109.32 65.3965 109.656 64.3008 109.871 63.2266L110.73 58.8438C110.387 58.4714 109.799 58.2852 108.969 58.2852ZM128.691 56.3086C129.952 56.3086 130.904 56.8672 131.549 57.9844C132.193 59.1016 132.516 60.4193 132.516 61.9375C132.516 63.7708 132.208 65.4896 131.592 67.0938C130.99 68.6979 130.181 70.1159 129.164 71.3477C128.147 72.5651 127.023 73.5247 125.791 74.2266C124.574 74.9141 123.349 75.2578 122.117 75.2578C121.029 75.2578 120.048 74.8496 119.174 74.0332C118.3 73.2168 117.863 72.0495 117.863 70.5312C117.863 70.1016 117.906 69.6289 117.992 69.1133L121.559 50.9805C121.816 49.7917 121.945 49.0326 121.945 48.7031C121.945 48.1589 121.072 47.8867 119.324 47.8867C119.238 47.8867 119.195 47.8008 119.195 47.6289C119.195 47.2852 119.31 46.9987 119.539 46.7695C121.387 46.5977 123.191 46.1966 124.953 45.5664C125.125 45.6523 125.211 45.9245 125.211 46.3828C125.211 46.6979 125.025 47.7721 124.652 49.6055L122.117 61.9805C123.034 60.4622 123.993 59.2448 124.996 58.3281C125.798 57.612 126.486 57.0964 127.059 56.7812C127.632 56.4661 128.176 56.3086 128.691 56.3086ZM127.445 58.6719C126.844 58.6719 126.077 59.209 125.146 60.2832C124.531 60.9993 123.929 61.8229 123.342 62.7539C122.769 63.6849 122.275 64.6374 121.859 65.6113C121.444 66.571 121.158 67.4661 121 68.2969C120.685 69.8724 120.728 71.1328 121.129 72.0781C121.53 73.0234 122.232 73.4961 123.234 73.4961C124.309 73.4961 125.333 72.9447 126.307 71.8418C127.266 70.7389 128.011 69.3783 128.541 67.7598C129.071 66.1413 129.336 64.5443 129.336 62.9688C129.336 62.3099 129.3 61.651 129.229 60.9922C129.171 60.3333 129.007 59.7819 128.734 59.3379C128.477 58.8939 128.047 58.6719 127.445 58.6719ZM146.609 56.3086C147.669 56.3086 148.715 56.4948 149.746 56.8672L147.125 70.4453C147.039 70.7891 146.996 71.1471 146.996 71.5195C146.996 72.2357 147.139 72.5938 147.426 72.5938C147.784 72.5938 148.214 72.3431 148.715 71.8418C149.216 71.3262 149.646 70.8893 150.004 70.5312L150.262 70.2305C150.319 70.2305 150.426 70.3665 150.584 70.6387C150.742 70.9108 150.82 71.1042 150.82 71.2188C150.577 71.6341 150.133 72.1641 149.488 72.8086C148.858 73.4531 148.171 74.026 147.426 74.5273C146.681 75.0143 146.008 75.2578 145.406 75.2578C144.948 75.2578 144.59 75.0501 144.332 74.6348C144.074 74.2194 143.945 73.6823 143.945 73.0234C143.945 72.5794 144.046 71.8203 144.246 70.7461L144.396 69.9941C144.439 69.7936 144.461 69.6719 144.461 69.6289C144.232 70.0586 143.902 70.5885 143.473 71.2188C143.043 71.8346 142.549 72.4505 141.99 73.0664C141.432 73.6823 140.844 74.1979 140.229 74.6133C139.613 75.0143 139.004 75.2148 138.402 75.2148C137.142 75.2148 136.146 74.6491 135.416 73.5176C134.686 72.3861 134.32 71.0182 134.32 69.4141C134.32 67.3659 134.929 65.3249 136.146 63.291C136.963 61.916 137.937 60.7057 139.068 59.6602C140.214 58.6146 141.439 57.7982 142.742 57.2109C144.046 56.6094 145.335 56.3086 146.609 56.3086ZM144.805 58.2852C143.96 58.2852 143.107 58.5859 142.248 59.1875C141.389 59.7747 140.601 60.5697 139.885 61.5723C139.169 62.5605 138.589 63.6634 138.145 64.8809C137.715 66.084 137.5 67.2943 137.5 68.5117C137.5 71.319 138.23 72.7227 139.691 72.7227C140.207 72.7227 140.766 72.4362 141.367 71.8633C141.969 71.2904 142.563 70.5312 143.15 69.5859C143.738 68.6406 144.253 67.6165 144.697 66.5137C145.156 65.3965 145.492 64.3008 145.707 63.2266L146.566 58.8438C146.223 58.4714 145.635 58.2852 144.805 58.2852ZM157.606 44.068C157.342 45.0947 157.004 46.2093 156.594 47.412C156.183 48.6147 155.728 49.8173 155.23 51.02C154.76 52.1933 154.291 53.308 153.822 54.364H150.962C151.167 53.5427 151.372 52.6627 151.578 51.724C151.812 50.7853 152.018 49.8467 152.194 48.908C152.399 47.94 152.575 47.0013 152.722 46.092C152.898 45.1827 153.044 44.3467 153.162 43.584H157.298L157.606 44.068Z" fill="white"/>
<path d="M0 14.4961C6.30012 20.0984 15.0791 19.1979 30.687 15.1421C32.2497 14.736 33.9168 14.9601 35.3059 15.7832L61.0905 31.063L35.3304 19.6141C33.9205 18.9874 32.3183 18.9353 30.8588 19.4358C12.5496 25.7159 4.73674 24.7283 0 14.4961Z" fill="url(#paint8_radial_692_1536)"/>
<path d="M16.5669 25.8858C22.7094 27.5488 34.4861 19.1752 43.5027 24.2129C35.7991 20.3448 24.9274 34.7378 16.5669 25.8858Z" fill="url(#paint9_radial_692_1536)"/>
<path d="M42.4528 34.1693C40.4746 32.9379 39.8039 31.791 39.5364 30.2054C39.314 28.8871 40.2138 27.6374 41.514 27.3262C46.4064 26.1551 49.6595 27.3172 54.8779 31.063C50.3759 26.3362 46.8249 25.2844 39.6469 25.78C38.7972 25.8387 38.0191 26.2751 37.5081 26.9564L36.1669 28.7446C35.6047 29.4943 35.6307 30.5432 36.2784 31.2205C38.4425 33.4837 39.9798 34.1156 42.4528 34.1693Z" fill="url(#paint10_radial_692_1536)"/>
<path d="M61.0905 28.9921C48.8725 19.5072 53.131 18.6378 60.0551 10.3543C56.6285 8.93238 54.8937 8.83857 52.8071 12.4252C51.2879 8.29387 49.7783 6.42726 45.559 4.14173C43.8524 8.52031 44.6321 10.6991 46.5945 14.4961C42.9378 12.0347 40.7471 11.3823 36.2402 13.4606C46.3046 17.727 45.2926 18.8748 61.0905 28.9921Z" fill="url(#paint11_radial_692_1536)"/>
<path d="M78.6929 22.7441C78.6929 22.1918 79.1406 21.7441 79.6929 21.7441H79.7638C80.3161 21.7441 80.7638 22.1918 80.7638 22.7441V25.9213C80.7638 26.4735 80.3161 26.9213 79.7638 26.9213H74.4803C73.3757 26.9213 72.4803 26.0258 72.4803 24.9213V19.6024C72.4803 18.4978 73.3757 17.6024 74.4803 17.6024H78.7281C80.6137 17.6024 82.4755 18.023 84.178 18.8337V18.8337C85.2965 19.3663 86.1249 20.3629 86.4441 21.5599L88.3399 28.6695C89.2063 31.9182 86.6836 35.0788 83.3237 34.9544L68.0679 34.3894C64.7776 34.2675 62.2002 31.5169 62.2923 28.2256L62.6948 13.8426C62.7856 10.5955 65.4441 8.01038 68.6924 8.01038H83.0387C86.0229 8.01038 88.8896 9.21712 90.915 11.4088C101.807 23.194 109.097 33.3225 115.395 32.2299C115.685 32.1796 115.968 32.3916 115.968 32.686V32.686C115.968 32.9325 115.766 33.1318 115.519 33.1285C109.37 33.045 105.37 32.4313 87.653 13.254C86.5367 12.0456 85.0793 11.1983 83.4735 10.8414L77.8584 9.59364C77.0431 9.41248 76.199 9.4035 75.3801 9.56728L71.091 10.4251C68.2865 10.986 66.2677 13.4485 66.2677 16.3086V27.0984C66.2677 29.8599 68.5063 32.0984 71.2677 32.0984H80.9055C83.1146 32.0984 84.9055 30.3076 84.9055 28.0984V22.6378C84.9055 20.4287 83.1146 18.6378 80.9055 18.6378H76.5512C75.4466 18.6378 74.5512 19.5332 74.5512 20.6378V24.8858C74.5512 25.4381 74.9989 25.8858 75.5512 25.8858H77.6929C78.2452 25.8858 78.6929 25.4381 78.6929 24.8858V22.7441Z" fill="url(#paint12_radial_692_1536)"/>
<path d="M104.412 33.0631C96.4743 29.9513 88.3242 12.4066 78.6929 13.4606C91.6665 19.2326 92.9183 31.4785 104.412 33.0631Z" fill="url(#paint13_radial_692_1536)"/>
<path d="M111.827 30.0276C106.485 21.6827 106.361 16.9143 110.791 8.28346C105.363 9.71409 97.6256 19.5114 111.827 30.0276Z" fill="url(#paint14_radial_692_1536)"/>
<path d="M118.039 10.3543C113.102 14.0549 110.405 23.2793 118.039 32.0984C106.33 25.6888 109.793 12.7713 118.039 0V10.3543Z" fill="url(#paint15_radial_692_1536)"/>
<path d="M236.079 14.4961C229.778 20.0984 221 19.1979 205.392 15.1421C203.829 14.736 202.162 14.9601 200.773 15.7832L174.988 31.063L200.748 19.6141C202.158 18.9874 203.76 18.9353 205.22 19.4358C223.529 25.7159 231.342 24.7283 236.079 14.4961Z" fill="url(#paint16_radial_692_1536)"/>
<path d="M219.512 25.8858C213.369 27.5488 201.593 19.1752 192.576 24.2129C200.279 20.3448 211.151 34.7378 219.512 25.8858Z" fill="url(#paint17_radial_692_1536)"/>
<path d="M193.626 34.1693C195.604 32.9379 196.275 31.791 196.542 30.2054C196.765 28.8871 195.865 27.6374 194.565 27.3262C189.672 26.1551 186.419 27.3172 181.201 31.063C185.703 26.3362 189.254 25.2844 196.432 25.78C197.281 25.8387 198.06 26.2751 198.571 26.9564L199.912 28.7446C200.474 29.4943 200.448 30.5432 199.8 31.2205C197.636 33.4837 196.099 34.1156 193.626 34.1693Z" fill="url(#paint18_radial_692_1536)"/>
<path d="M174.988 28.9921C187.206 19.5072 182.948 18.6378 176.024 10.3543C179.45 8.93238 181.185 8.83857 183.272 12.4252C184.791 8.29387 186.3 6.42726 190.52 4.14173C192.226 8.52031 191.446 10.6991 189.484 14.4961C193.141 12.0347 195.331 11.3823 199.838 13.4606C189.774 17.727 190.786 18.8748 174.988 28.9921Z" fill="url(#paint19_radial_692_1536)"/>
<path d="M157.386 22.7441C157.386 22.1918 156.938 21.7441 156.386 21.7441H156.315C155.763 21.7441 155.315 22.1918 155.315 22.7441V25.9213C155.315 26.4735 155.763 26.9213 156.315 26.9213H161.598C162.703 26.9213 163.598 26.0258 163.598 24.9213V19.6024C163.598 18.4978 162.703 17.6024 161.598 17.6024H157.351C155.465 17.6024 153.603 18.023 151.901 18.8337V18.8337C150.782 19.3663 149.954 20.3629 149.635 21.5599L147.739 28.6695C146.872 31.9182 149.395 35.0788 152.755 34.9544L168.011 34.3894C171.301 34.2675 173.878 31.5169 173.786 28.2256L173.384 13.8426C173.293 10.5955 170.635 8.01038 167.386 8.01038H153.04C150.056 8.01038 147.189 9.21712 145.164 11.4088C134.272 23.194 126.982 33.3225 120.683 32.2299C120.393 32.1796 120.11 32.3916 120.11 32.686V32.686C120.11 32.9325 120.313 33.1318 120.559 33.1285C126.708 33.045 130.709 32.4313 148.426 13.254C149.542 12.0456 150.999 11.1983 152.605 10.8414L158.22 9.59364C159.035 9.41248 159.88 9.4035 160.698 9.56728L164.988 10.4251C167.792 10.986 169.811 13.4485 169.811 16.3086V27.0984C169.811 29.8599 167.572 32.0984 164.811 32.0984H155.173C152.964 32.0984 151.173 30.3076 151.173 28.0984V22.6378C151.173 20.4287 152.964 18.6378 155.173 18.6378H159.527C160.632 18.6378 161.527 19.5332 161.527 20.6378V24.8858C161.527 25.4381 161.08 25.8858 160.527 25.8858H158.386C157.833 25.8858 157.386 25.4381 157.386 24.8858V22.7441Z" fill="url(#paint20_radial_692_1536)"/>
<path d="M131.666 33.0631C139.604 29.9513 147.754 12.4066 157.386 13.4606C144.412 19.2326 143.16 31.4785 131.666 33.0631Z" fill="url(#paint21_radial_692_1536)"/>
<path d="M124.252 30.0276C129.594 21.6827 129.718 16.9143 125.287 8.28346C130.716 9.71409 138.453 19.5114 124.252 30.0276Z" fill="url(#paint22_radial_692_1536)"/>
<path d="M118.039 10.3543C122.976 14.0549 125.673 23.2793 118.039 32.0984C129.749 25.6888 126.286 12.7713 118.039 0V10.3543Z" fill="url(#paint23_radial_692_1536)"/>
<defs>
<radialGradient id="paint0_radial_692_1536" cx="0" cy="0" r="1" gradientUnits="userSpaceOnUse" gradientTransform="translate(79.7285 111.309) scale(38.311 20.1909)">
<stop stop-color="#E1E1E1"/>
<stop offset="1" stop-color="#FFF4DA"/>
</radialGradient>
<radialGradient id="paint1_radial_692_1536" cx="0" cy="0" r="1" gradientUnits="userSpaceOnUse" gradientTransform="translate(79.7285 111.309) scale(38.311 20.1909)">
<stop stop-color="#E1E1E1"/>
<stop offset="1" stop-color="#FFF4DA"/>
</radialGradient>
<radialGradient id="paint2_radial_692_1536" cx="0" cy="0" r="1" gradientUnits="userSpaceOnUse" gradientTransform="translate(79.7285 111.309) scale(38.311 20.1909)">
<stop stop-color="#E1E1E1"/>
<stop offset="1" stop-color="#FFF4DA"/>
</radialGradient>
<radialGradient id="paint3_radial_692_1536" cx="0" cy="0" r="1" gradientUnits="userSpaceOnUse" gradientTransform="translate(79.7285 111.309) scale(38.311 20.1909)">
<stop stop-color="#E1E1E1"/>
<stop offset="1" stop-color="#FFF4DA"/>
</radialGradient>
<radialGradient id="paint4_radial_692_1536" cx="0" cy="0" r="1" gradientUnits="userSpaceOnUse" gradientTransform="translate(156.351 111.309) rotate(180) scale(38.311 20.1909)">
<stop stop-color="#E1E1E1"/>
<stop offset="1" stop-color="#FFF4DA"/>
</radialGradient>
<radialGradient id="paint5_radial_692_1536" cx="0" cy="0" r="1" gradientUnits="userSpaceOnUse" gradientTransform="translate(156.351 111.309) rotate(180) scale(38.311 20.1909)">
<stop stop-color="#E1E1E1"/>
<stop offset="1" stop-color="#FFF4DA"/>
</radialGradient>
<radialGradient id="paint6_radial_692_1536" cx="0" cy="0" r="1" gradientUnits="userSpaceOnUse" gradientTransform="translate(156.351 111.309) rotate(180) scale(38.311 20.1909)">
<stop stop-color="#E1E1E1"/>
<stop offset="1" stop-color="#FFF4DA"/>
</radialGradient>
<radialGradient id="paint7_radial_692_1536" cx="0" cy="0" r="1" gradientUnits="userSpaceOnUse" gradientTransform="translate(156.351 111.309) rotate(180) scale(38.311 20.1909)">
<stop stop-color="#E1E1E1"/>
<stop offset="1" stop-color="#FFF4DA"/>
</radialGradient>
<radialGradient id="paint8_radial_692_1536" cx="0" cy="0" r="1" gradientUnits="userSpaceOnUse" gradientTransform="translate(59.0197 17.6024) scale(59.0197 17.6024)">
<stop stop-color="#E1E1E1"/>
<stop offset="1" stop-color="#FFF4DA"/>
</radialGradient>
<radialGradient id="paint9_radial_692_1536" cx="0" cy="0" r="1" gradientUnits="userSpaceOnUse" gradientTransform="translate(59.0197 17.6024) scale(59.0197 17.6024)">
<stop stop-color="#E1E1E1"/>
<stop offset="1" stop-color="#FFF4DA"/>
</radialGradient>
<radialGradient id="paint10_radial_692_1536" cx="0" cy="0" r="1" gradientUnits="userSpaceOnUse" gradientTransform="translate(59.0197 17.6024) scale(59.0197 17.6024)">
<stop stop-color="#E1E1E1"/>
<stop offset="1" stop-color="#FFF4DA"/>
</radialGradient>
<radialGradient id="paint11_radial_692_1536" cx="0" cy="0" r="1" gradientUnits="userSpaceOnUse" gradientTransform="translate(59.0197 17.6024) scale(59.0197 17.6024)">
<stop stop-color="#E1E1E1"/>
<stop offset="1" stop-color="#FFF4DA"/>
</radialGradient>
<radialGradient id="paint12_radial_692_1536" cx="0" cy="0" r="1" gradientUnits="userSpaceOnUse" gradientTransform="translate(59.0197 17.6024) scale(59.0197 17.6024)">
<stop stop-color="#E1E1E1"/>
<stop offset="1" stop-color="#FFF4DA"/>
</radialGradient>
<radialGradient id="paint13_radial_692_1536" cx="0" cy="0" r="1" gradientUnits="userSpaceOnUse" gradientTransform="translate(59.0197 17.6024) scale(59.0197 17.6024)">
<stop stop-color="#E1E1E1"/>
<stop offset="1" stop-color="#FFF4DA"/>
</radialGradient>
<radialGradient id="paint14_radial_692_1536" cx="0" cy="0" r="1" gradientUnits="userSpaceOnUse" gradientTransform="translate(59.0197 17.6024) scale(59.0197 17.6024)">
<stop stop-color="#E1E1E1"/>
<stop offset="1" stop-color="#FFF4DA"/>
</radialGradient>
<radialGradient id="paint15_radial_692_1536" cx="0" cy="0" r="1" gradientUnits="userSpaceOnUse" gradientTransform="translate(59.0197 17.6024) scale(59.0197 17.6024)">
<stop stop-color="#E1E1E1"/>
<stop offset="1" stop-color="#FFF4DA"/>
</radialGradient>
<radialGradient id="paint16_radial_692_1536" cx="0" cy="0" r="1" gradientUnits="userSpaceOnUse" gradientTransform="translate(177.059 17.6024) rotate(180) scale(59.0197 17.6024)">
<stop stop-color="#E1E1E1"/>
<stop offset="1" stop-color="#FFF4DA"/>
</radialGradient>
<radialGradient id="paint17_radial_692_1536" cx="0" cy="0" r="1" gradientUnits="userSpaceOnUse" gradientTransform="translate(177.059 17.6024) rotate(180) scale(59.0197 17.6024)">
<stop stop-color="#E1E1E1"/>
<stop offset="1" stop-color="#FFF4DA"/>
</radialGradient>
<radialGradient id="paint18_radial_692_1536" cx="0" cy="0" r="1" gradientUnits="userSpaceOnUse" gradientTransform="translate(177.059 17.6024) rotate(180) scale(59.0197 17.6024)">
<stop stop-color="#E1E1E1"/>
<stop offset="1" stop-color="#FFF4DA"/>
</radialGradient>
<radialGradient id="paint19_radial_692_1536" cx="0" cy="0" r="1" gradientUnits="userSpaceOnUse" gradientTransform="translate(177.059 17.6024) rotate(180) scale(59.0197 17.6024)">
<stop stop-color="#E1E1E1"/>
<stop offset="1" stop-color="#FFF4DA"/>
</radialGradient>
<radialGradient id="paint20_radial_692_1536" cx="0" cy="0" r="1" gradientUnits="userSpaceOnUse" gradientTransform="translate(177.059 17.6024) rotate(180) scale(59.0197 17.6024)">
<stop stop-color="#E1E1E1"/>
<stop offset="1" stop-color="#FFF4DA"/>
</radialGradient>
<radialGradient id="paint21_radial_692_1536" cx="0" cy="0" r="1" gradientUnits="userSpaceOnUse" gradientTransform="translate(177.059 17.6024) rotate(180) scale(59.0197 17.6024)">
<stop stop-color="#E1E1E1"/>
<stop offset="1" stop-color="#FFF4DA"/>
</radialGradient>
<radialGradient id="paint22_radial_692_1536" cx="0" cy="0" r="1" gradientUnits="userSpaceOnUse" gradientTransform="translate(177.059 17.6024) rotate(180) scale(59.0197 17.6024)">
<stop stop-color="#E1E1E1"/>
<stop offset="1" stop-color="#FFF4DA"/>
</radialGradient>
<radialGradient id="paint23_radial_692_1536" cx="0" cy="0" r="1" gradientUnits="userSpaceOnUse" gradientTransform="translate(177.059 17.6024) rotate(180) scale(59.0197 17.6024)">
<stop stop-color="#E1E1E1"/>
<stop offset="1" stop-color="#FFF4DA"/>
</radialGradient>
</defs>
</svg>
