<svg width="237" height="132" viewBox="0 0 237 132" fill="none" xmlns="http://www.w3.org/2000/svg">
<path d="M50.7125 108.06C49.3889 108.487 47.9214 108.504 46.7169 107.809C44.5794 106.575 44.1412 105.154 44.5234 102.508V102.508C42.8798 103.056 42.063 104.953 43.0339 106.388C43.9977 107.812 45.0937 108.974 46.6267 110.246C47.9171 111.316 49.5696 111.855 51.2458 111.812C56.4406 111.679 59.0349 110.851 62.1257 108.72C61.1051 110.641 61.1618 111.76 61.9885 113.6C62.0605 113.76 62.2568 113.822 62.4077 113.731C64.0825 112.73 65.0039 111.892 66.2674 109.756C66.2154 114.032 66.9843 113.977 70.4091 114.933C67.5194 110.86 68.0525 109.221 70.1981 106.254C70.9958 105.151 72.1259 104.331 73.4053 103.866L78.5776 101.985C81.3342 100.982 84.3487 100.942 87.1313 101.869L104.173 107.55C104.307 107.435 104.442 107.326 104.578 107.223V104.508C104.578 103.403 105.474 102.508 106.578 102.508H108.791C109.896 102.508 110.791 103.403 110.791 104.508V105.614H111.826V103.472C111.826 102.368 110.931 101.472 109.826 101.472H105.543C104.438 101.472 103.543 102.368 103.543 103.472V106.65C98.7736 103.748 93.5321 101.584 86.7257 99.7769C82.8456 98.747 78.7534 99.0145 74.9328 100.247L50.7125 108.06Z" fill="url(#paint0_radial_692_1520)"/>
<path fill-rule="evenodd" clip-rule="evenodd" d="M118.039 111.827V108.721C115.458 105.74 114.163 105.799 111.826 105.614H110.791C108.063 105.589 106.222 105.979 104.578 107.223V107.685L104.173 107.55C103.27 108.327 102.409 109.382 101.472 110.791C94.4225 108.167 92.2419 105.859 84.6304 104.117C82.7927 103.696 80.8379 103.854 79.1733 104.739C77.1406 105.82 75.7478 107.075 74.4004 109.235C73.7976 110.201 73.7049 111.42 74.2146 112.438C75.0495 114.107 76.2498 115.417 79.1376 117.128C80.1186 117.709 81.3505 117.62 82.2784 116.957L86.28 114.099C87.2184 113.429 87.4128 112.09 86.6211 111.251C84.8302 109.354 83.7227 109.09 81.7989 109.756C83.0242 110.067 83.7473 110.456 84.396 111.688C84.7596 112.378 84.5518 113.216 84 113.767L82.2754 115.492C81.3706 116.397 79.9663 116.664 78.9055 115.948C77.3915 114.927 76.4781 113.802 75.4876 112.283C74.8937 111.372 74.8539 110.185 75.48 109.296C77.188 106.871 79.0763 106.022 82.8343 105.614C87.5138 105.758 93.9734 109.592 101.472 112.862C101.61 115.305 101.827 117.608 105.43 119.531C106.15 119.915 107.027 119.733 107.604 119.156L110.252 116.508C110.55 116.21 110.55 115.727 110.252 115.429V115.429C109.971 115.149 109.521 115.134 109.21 115.381C104.882 118.812 103.349 117.017 102.508 112.862C108.784 113.743 111.6 112.063 112.862 106.65H114.933L118.039 111.827ZM102.508 111.827C105.324 107.593 107.416 106.549 111.826 106.65C109.581 111.782 107.623 113.001 102.508 111.827Z" fill="url(#paint1_radial_692_1520)"/>
<path d="M118.039 114.933V111.827C116.112 115.763 116.189 118.074 110.791 119.075C111.96 121.038 112.806 121.636 114.933 121.146C115.324 125.201 115.717 127.472 118.039 131.5V125.287C116.703 121.107 116.952 118.865 118.039 114.933Z" fill="url(#paint2_radial_692_1520)"/>
<path d="M115.968 98.3662C116.06 94.792 116.696 93.3936 118.039 91.1182V105.614C115.722 100.811 114.342 99.4138 111.826 99.4015C113.364 97.8121 114.276 97.3638 115.968 98.3662Z" fill="url(#paint3_radial_692_1520)"/>
<path d="M185.366 108.06C186.689 108.487 188.157 108.504 189.361 107.809C191.499 106.575 191.937 105.154 191.555 102.508V102.508C193.198 103.056 194.015 104.953 193.044 106.388C192.08 107.812 190.984 108.974 189.451 110.246C188.161 111.316 186.509 111.855 184.832 111.812C179.637 111.679 177.043 110.851 173.952 108.72C174.973 110.641 174.916 111.76 174.09 113.6C174.018 113.76 173.821 113.822 173.67 113.731C171.996 112.73 171.074 111.892 169.811 109.756C169.863 114.032 169.094 113.977 165.669 114.933C168.559 110.86 168.026 109.221 165.88 106.254C165.082 105.151 163.952 104.331 162.673 103.866L157.5 101.985C154.744 100.982 151.729 100.942 148.947 101.869L131.905 107.55C131.771 107.435 131.636 107.326 131.5 107.223V104.508C131.5 103.403 130.604 102.508 129.5 102.508H127.287C126.183 102.508 125.287 103.403 125.287 104.508V105.614H124.252V103.472C124.252 102.368 125.147 101.472 126.252 101.472H130.535C131.64 101.472 132.535 102.368 132.535 103.472V106.65C137.304 103.748 142.546 101.584 149.352 99.7769C153.232 98.747 157.325 99.0145 161.145 100.247L185.366 108.06Z" fill="url(#paint4_radial_692_1520)"/>
<path fill-rule="evenodd" clip-rule="evenodd" d="M118.039 111.827V108.721C120.62 105.74 121.915 105.799 124.252 105.614H125.287C128.015 105.589 129.856 105.979 131.5 107.223V107.685L131.905 107.55C132.808 108.327 133.669 109.382 134.606 110.791C141.656 108.167 143.836 105.859 151.448 104.117C153.285 103.696 155.24 103.854 156.905 104.739C158.938 105.82 160.33 107.075 161.678 109.235C162.281 110.201 162.373 111.42 161.863 112.438C161.029 114.107 159.828 115.417 156.941 117.128C155.96 117.709 154.728 117.62 153.8 116.957L149.798 114.099C148.86 113.429 148.665 112.09 149.457 111.251C151.248 109.354 152.355 109.09 154.279 109.756C153.054 110.067 152.331 110.456 151.682 111.688C151.319 112.378 151.526 113.216 152.078 113.767L153.803 115.492C154.708 116.397 156.112 116.664 157.173 115.948C158.687 114.927 159.6 113.802 160.591 112.283C161.184 111.372 161.224 110.185 160.598 109.296C158.89 106.871 157.002 106.022 153.244 105.614C148.564 105.758 142.105 109.592 134.606 112.862C134.468 115.305 134.251 117.608 130.648 119.531C129.928 119.915 129.051 119.733 128.474 119.156L125.826 116.508C125.528 116.21 125.528 115.727 125.826 115.429V115.429C126.107 115.149 126.557 115.134 126.868 115.381C131.196 118.812 132.729 117.017 133.571 112.862C127.294 113.743 124.478 112.063 123.216 106.65H121.145L118.039 111.827ZM133.571 111.827C130.754 107.593 128.662 106.549 124.252 106.65C126.497 111.782 128.455 113.001 133.571 111.827Z" fill="url(#paint5_radial_692_1520)"/>
<path d="M118.039 114.933V111.827C119.967 115.763 119.889 118.074 125.287 119.075C124.119 121.038 123.273 121.636 121.145 121.146C120.754 125.201 120.361 127.472 118.039 131.5V125.287C119.375 121.107 119.126 118.865 118.039 114.933Z" fill="url(#paint6_radial_692_1520)"/>
<path d="M120.11 98.3662C120.019 94.792 119.382 93.3936 118.039 91.1182V105.614C120.356 100.811 121.736 99.4138 124.252 99.4015C122.714 97.8121 121.802 97.3638 120.11 98.3662Z" fill="url(#paint7_radial_692_1520)"/>
<path d="M89.2539 67.6094C89.2539 66.75 88.9102 65.9121 88.2227 65.0957C87.5352 64.2793 86.7044 63.5345 85.7305 62.8613C85.2435 62.5319 84.7565 62.1953 84.2695 61.8516C83.7826 61.5078 83.2884 61.1569 82.7871 60.7988C81.7988 60.097 80.9609 59.2734 80.2734 58.3281C79.5859 57.3828 79.2422 56.3802 79.2422 55.3203C79.2422 53.6016 79.6719 52.069 80.5312 50.7227C81.4049 49.3763 82.5651 48.3164 84.0117 47.543C85.4727 46.7695 87.0911 46.3828 88.8672 46.3828C89.6263 46.3828 90.5859 46.5404 91.7461 46.8555C92.3333 47.013 92.849 47.1419 93.293 47.2422C93.737 47.3281 94.1094 47.3854 94.4102 47.4141C94.3099 48.2018 94.2096 48.9967 94.1094 49.7988C94.0234 50.5866 93.9375 51.3815 93.8516 52.1836C93.7656 53 93.7012 53.487 93.6582 53.6445C93.6152 53.7878 93.5508 53.8594 93.4648 53.8594C93.0495 53.8594 92.7201 53.7734 92.4766 53.6016C92.4193 53.5872 92.3906 53.4154 92.3906 53.0859C92.3906 52.1836 92.1901 51.3672 91.7891 50.6367C91.388 49.9062 90.8581 49.3262 90.1992 48.8965C89.5404 48.4525 88.8242 48.2305 88.0508 48.2305C86.418 48.2305 85.1003 48.7246 84.0977 49.7129C83.0951 50.7012 82.5938 51.9401 82.5938 53.4297C82.5938 54.9479 83.2956 56.2656 84.6992 57.3828C85.5013 58.013 86.4395 58.6934 87.5137 59.4238C88.6022 60.14 89.5475 60.8346 90.3496 61.5078C90.9368 61.9948 91.5169 62.6895 92.0898 63.5918C92.6628 64.4941 92.9492 65.4466 92.9492 66.4492C92.9492 67.3372 92.7344 68.2826 92.3047 69.2852C91.875 70.2878 91.2591 71.2402 90.457 72.1426C89.6549 73.0449 88.5951 73.7897 87.2773 74.377C85.9596 74.9642 84.513 75.2578 82.9375 75.2578C81.3906 75.2578 79.1133 74.9141 76.1055 74.2266C76.1628 73.3099 76.2057 72.5651 76.2344 71.9922C76.263 71.4049 76.2773 70.9896 76.2773 70.7461C76.2773 70.1159 76.263 69.4857 76.2344 68.8555C76.2057 68.2253 76.1914 67.7526 76.1914 67.4375C76.1914 67.237 76.4635 67.1367 77.0078 67.1367C77.2799 67.1367 77.5521 67.2513 77.8242 67.4805C77.8242 68.082 77.8887 68.6836 78.0176 69.2852C78.1465 69.8867 78.39 70.5312 78.748 71.2188C79.1061 71.9062 79.679 72.4577 80.4668 72.873C81.2546 73.2884 82.207 73.4961 83.3242 73.4961C84.3411 73.4961 85.3008 73.2598 86.2031 72.7871C87.1055 72.3145 87.8359 71.6413 88.3945 70.7676C88.9674 69.8796 89.2539 68.8268 89.2539 67.6094ZM107.773 56.3086C108.833 56.3086 109.879 56.4948 110.91 56.8672L108.289 70.4453C108.203 70.7891 108.16 71.1471 108.16 71.5195C108.16 72.2357 108.303 72.5938 108.59 72.5938C108.948 72.5938 109.378 72.3431 109.879 71.8418C110.38 71.3262 110.81 70.8893 111.168 70.5312L111.426 70.2305C111.483 70.2305 111.59 70.3665 111.748 70.6387C111.906 70.9108 111.984 71.1042 111.984 71.2188C111.741 71.6341 111.297 72.1641 110.652 72.8086C110.022 73.4531 109.335 74.026 108.59 74.5273C107.845 75.0143 107.172 75.2578 106.57 75.2578C106.112 75.2578 105.754 75.0501 105.496 74.6348C105.238 74.2194 105.109 73.6823 105.109 73.0234C105.109 72.5794 105.21 71.8203 105.41 70.7461L105.561 69.9941C105.604 69.7936 105.625 69.6719 105.625 69.6289C105.396 70.0586 105.066 70.5885 104.637 71.2188C104.207 71.8346 103.713 72.4505 103.154 73.0664C102.596 73.6823 102.008 74.1979 101.393 74.6133C100.777 75.0143 100.168 75.2148 99.5664 75.2148C98.306 75.2148 97.3105 74.6491 96.5801 73.5176C95.8496 72.3861 95.4844 71.0182 95.4844 69.4141C95.4844 67.3659 96.0931 65.3249 97.3105 63.291C98.127 61.916 99.1009 60.7057 100.232 59.6602C101.378 58.6146 102.603 57.7982 103.906 57.2109C105.21 56.6094 106.499 56.3086 107.773 56.3086ZM105.969 58.2852C105.124 58.2852 104.271 58.5859 103.412 59.1875C102.553 59.7747 101.765 60.5697 101.049 61.5723C100.333 62.5605 99.7526 63.6634 99.3086 64.8809C98.8789 66.084 98.6641 67.2943 98.6641 68.5117C98.6641 71.319 99.3945 72.7227 100.855 72.7227C101.371 72.7227 101.93 72.4362 102.531 71.8633C103.133 71.2904 103.727 70.5312 104.314 69.5859C104.902 68.6406 105.417 67.6165 105.861 66.5137C106.32 65.3965 106.656 64.3008 106.871 63.2266L107.73 58.8438C107.387 58.4714 106.799 58.2852 105.969 58.2852ZM122.684 47.2422C123.113 47.2422 123.479 47.4141 123.779 47.7578C124.08 48.1016 124.23 48.5026 124.23 48.9609C124.23 49.6484 124.008 50.25 123.564 50.7656C123.12 51.2812 122.569 51.5391 121.91 51.5391C121.452 51.5391 121.094 51.36 120.836 51.002C120.578 50.6439 120.449 50.207 120.449 49.6914C120.449 49.0326 120.664 48.4596 121.094 47.9727C121.523 47.4857 122.053 47.2422 122.684 47.2422ZM121.438 56.3086C121.896 56.3086 122.254 56.5163 122.512 56.9316C122.77 57.347 122.898 57.8841 122.898 58.543C122.898 59.1159 122.812 59.875 122.641 60.8203L120.277 73.0664C119.676 76.1745 118.73 78.5951 117.441 80.3281C116.639 81.4167 115.665 82.3978 114.52 83.2715C113.374 84.1452 112.357 84.7539 111.469 85.0977C111.211 84.8971 111.082 84.6107 111.082 84.2383C112.514 83.4076 113.775 82.097 114.863 80.3066C115.952 78.5163 116.725 76.4323 117.184 74.0547L119.633 61.7656C119.776 60.7773 119.848 60.2044 119.848 60.0469C119.848 59.3307 119.704 58.9727 119.418 58.9727C119.174 58.9727 118.809 59.2018 118.322 59.6602C118.093 59.8893 117.842 60.14 117.57 60.4121C117.312 60.6842 117.141 60.8776 117.055 60.9922C116.997 60.9922 116.89 60.8561 116.732 60.584C116.575 60.3118 116.496 60.1185 116.496 60.0039C116.725 59.6172 117.141 59.1374 117.742 58.5645C118.344 57.9772 118.988 57.4544 119.676 56.9961C120.363 56.5378 120.951 56.3086 121.438 56.3086ZM144.684 46.3828L144.039 49.6055L140 70.4453C139.914 70.7891 139.871 71.1471 139.871 71.5195C139.871 72.2357 140.014 72.5938 140.301 72.5938C140.659 72.5938 141.089 72.3431 141.59 71.8418C142.091 71.3262 142.521 70.8893 142.879 70.5312L143.137 70.2305C143.194 70.2305 143.301 70.3665 143.459 70.6387C143.617 70.9108 143.695 71.1042 143.695 71.2188C143.452 71.6341 143.008 72.1641 142.363 72.8086C141.733 73.4531 141.046 74.026 140.301 74.5273C139.556 75.0143 138.883 75.2578 138.281 75.2578C137.823 75.2578 137.465 75.0501 137.207 74.6348C136.949 74.2194 136.82 73.6823 136.82 73.0234C136.82 72.5938 136.921 71.8346 137.121 70.7461C137.15 70.6029 137.2 70.388 137.271 70.1016C137.343 69.8151 137.379 69.6432 137.379 69.5859C137.193 69.9154 136.985 70.252 136.756 70.5957C136.541 70.9395 136.312 71.2904 136.068 71.6484C135.739 72.1354 135.295 72.6582 134.736 73.2168C134.192 73.7611 133.612 74.2337 132.996 74.6348C132.395 75.0215 131.836 75.2148 131.32 75.2148C130.003 75.2148 128.986 74.6491 128.27 73.5176C127.553 72.3861 127.195 71.0182 127.195 69.4141C127.195 67.8672 127.553 66.3203 128.27 64.7734C129 63.2266 129.96 61.8158 131.148 60.541C132.337 59.2663 133.648 58.2422 135.08 57.4688C136.527 56.6953 137.966 56.3086 139.398 56.3086H139.957L141.16 49.9062C141.246 49.4909 141.289 49.0898 141.289 48.7031C141.289 48.1589 140.415 47.8867 138.668 47.8867C138.582 47.8867 138.539 47.8008 138.539 47.6289C138.539 47.2852 138.654 46.9987 138.883 46.7695C140.831 46.5977 142.678 46.1966 144.426 45.5664C144.598 45.6667 144.684 45.9388 144.684 46.3828ZM138.582 63.1406L139.098 60.3477C139.212 59.8034 139.155 59.3236 138.926 58.9082C138.697 58.4928 138.31 58.2852 137.766 58.2852C136.892 58.2852 136.018 58.5859 135.145 59.1875C134.271 59.7891 133.476 60.5911 132.76 61.5938C132.044 62.582 131.464 63.6849 131.02 64.9023C130.59 66.1055 130.375 67.3229 130.375 68.5547C130.375 71.3333 131.105 72.7227 132.566 72.7227C133.096 72.7227 133.662 72.4362 134.264 71.8633C134.88 71.276 135.474 70.5098 136.047 69.5645C136.62 68.6191 137.128 67.5879 137.572 66.4707C138.031 65.3392 138.367 64.2292 138.582 63.1406ZM159.035 56.3086C160.095 56.3086 161.141 56.4948 162.172 56.8672L159.551 70.4453C159.465 70.7891 159.422 71.1471 159.422 71.5195C159.422 72.2357 159.565 72.5938 159.852 72.5938C160.21 72.5938 160.639 72.3431 161.141 71.8418C161.642 71.3262 162.072 70.8893 162.43 70.5312L162.688 70.2305C162.745 70.2305 162.852 70.3665 163.01 70.6387C163.167 70.9108 163.246 71.1042 163.246 71.2188C163.003 71.6341 162.559 72.1641 161.914 72.8086C161.284 73.4531 160.596 74.026 159.852 74.5273C159.107 75.0143 158.434 75.2578 157.832 75.2578C157.374 75.2578 157.016 75.0501 156.758 74.6348C156.5 74.2194 156.371 73.6823 156.371 73.0234C156.371 72.5794 156.471 71.8203 156.672 70.7461L156.822 69.9941C156.865 69.7936 156.887 69.6719 156.887 69.6289C156.658 70.0586 156.328 70.5885 155.898 71.2188C155.469 71.8346 154.975 72.4505 154.416 73.0664C153.857 73.6823 153.27 74.1979 152.654 74.6133C152.038 75.0143 151.43 75.2148 150.828 75.2148C149.568 75.2148 148.572 74.6491 147.842 73.5176C147.111 72.3861 146.746 71.0182 146.746 69.4141C146.746 67.3659 147.355 65.3249 148.572 63.291C149.389 61.916 150.363 60.7057 151.494 59.6602C152.64 58.6146 153.865 57.7982 155.168 57.2109C156.471 56.6094 157.76 56.3086 159.035 56.3086ZM157.23 58.2852C156.385 58.2852 155.533 58.5859 154.674 59.1875C153.814 59.7747 153.027 60.5697 152.311 61.5723C151.594 62.5605 151.014 63.6634 150.57 64.8809C150.141 66.084 149.926 67.2943 149.926 68.5117C149.926 71.319 150.656 72.7227 152.117 72.7227C152.633 72.7227 153.191 72.4362 153.793 71.8633C154.395 71.2904 154.989 70.5312 155.576 69.5859C156.163 68.6406 156.679 67.6165 157.123 66.5137C157.581 65.3965 157.918 64.3008 158.133 63.2266L158.992 58.8438C158.648 58.4714 158.061 58.2852 157.23 58.2852Z" fill="white"/>
<path d="M0 14.4961C6.30012 20.0984 15.0791 19.1979 30.687 15.1421C32.2497 14.736 33.9168 14.9601 35.3059 15.7832L61.0905 31.063L35.3304 19.6141C33.9205 18.9874 32.3183 18.9353 30.8588 19.4358C12.5496 25.7159 4.73674 24.7283 0 14.4961Z" fill="url(#paint8_radial_692_1520)"/>
<path d="M16.5669 25.8858C22.7094 27.5488 34.4861 19.1752 43.5027 24.2129C35.7991 20.3448 24.9274 34.7378 16.5669 25.8858Z" fill="url(#paint9_radial_692_1520)"/>
<path d="M42.4528 34.1693C40.4746 32.9379 39.8039 31.791 39.5364 30.2054C39.314 28.8871 40.2138 27.6374 41.514 27.3262C46.4064 26.1551 49.6595 27.3172 54.8779 31.063C50.3759 26.3362 46.8249 25.2844 39.6469 25.78C38.7972 25.8387 38.0191 26.2751 37.5081 26.9564L36.1669 28.7446C35.6047 29.4943 35.6307 30.5432 36.2784 31.2205C38.4425 33.4837 39.9798 34.1156 42.4528 34.1693Z" fill="url(#paint10_radial_692_1520)"/>
<path d="M61.0905 28.9921C48.8725 19.5072 53.131 18.6378 60.0551 10.3543C56.6285 8.93238 54.8937 8.83857 52.8071 12.4252C51.2879 8.29387 49.7783 6.42726 45.559 4.14173C43.8524 8.52031 44.6321 10.6991 46.5945 14.4961C42.9378 12.0347 40.7471 11.3823 36.2402 13.4606C46.3046 17.727 45.2926 18.8748 61.0905 28.9921Z" fill="url(#paint11_radial_692_1520)"/>
<path d="M78.6929 22.7441C78.6929 22.1918 79.1406 21.7441 79.6929 21.7441H79.7638C80.3161 21.7441 80.7638 22.1918 80.7638 22.7441V25.9213C80.7638 26.4735 80.3161 26.9213 79.7638 26.9213H74.4803C73.3757 26.9213 72.4803 26.0258 72.4803 24.9213V19.6024C72.4803 18.4978 73.3757 17.6024 74.4803 17.6024H78.7281C80.6137 17.6024 82.4755 18.023 84.178 18.8337V18.8337C85.2965 19.3663 86.1249 20.3629 86.4441 21.5599L88.3399 28.6695C89.2063 31.9182 86.6836 35.0788 83.3237 34.9544L68.0679 34.3894C64.7776 34.2675 62.2002 31.5169 62.2923 28.2256L62.6948 13.8426C62.7856 10.5955 65.4441 8.01038 68.6924 8.01038H83.0387C86.0229 8.01038 88.8896 9.21712 90.915 11.4088C101.807 23.194 109.097 33.3225 115.395 32.2299C115.685 32.1796 115.968 32.3916 115.968 32.686V32.686C115.968 32.9325 115.766 33.1318 115.519 33.1285C109.37 33.045 105.37 32.4313 87.653 13.254C86.5367 12.0456 85.0793 11.1983 83.4735 10.8414L77.8584 9.59364C77.0431 9.41248 76.199 9.4035 75.3801 9.56728L71.091 10.4251C68.2865 10.986 66.2677 13.4485 66.2677 16.3086V27.0984C66.2677 29.8599 68.5063 32.0984 71.2677 32.0984H80.9055C83.1146 32.0984 84.9055 30.3076 84.9055 28.0984V22.6378C84.9055 20.4287 83.1146 18.6378 80.9055 18.6378H76.5512C75.4466 18.6378 74.5512 19.5332 74.5512 20.6378V24.8858C74.5512 25.4381 74.9989 25.8858 75.5512 25.8858H77.6929C78.2452 25.8858 78.6929 25.4381 78.6929 24.8858V22.7441Z" fill="url(#paint12_radial_692_1520)"/>
<path d="M104.412 33.0631C96.4743 29.9513 88.3242 12.4066 78.6929 13.4606C91.6665 19.2326 92.9183 31.4785 104.412 33.0631Z" fill="url(#paint13_radial_692_1520)"/>
<path d="M111.827 30.0276C106.485 21.6827 106.361 16.9143 110.791 8.28346C105.363 9.71409 97.6256 19.5114 111.827 30.0276Z" fill="url(#paint14_radial_692_1520)"/>
<path d="M118.039 10.3543C113.102 14.0549 110.405 23.2793 118.039 32.0984C106.33 25.6888 109.793 12.7713 118.039 0V10.3543Z" fill="url(#paint15_radial_692_1520)"/>
<path d="M236.079 14.4961C229.778 20.0984 221 19.1979 205.392 15.1421C203.829 14.736 202.162 14.9601 200.773 15.7832L174.988 31.063L200.748 19.6141C202.158 18.9874 203.76 18.9353 205.22 19.4358C223.529 25.7159 231.342 24.7283 236.079 14.4961Z" fill="url(#paint16_radial_692_1520)"/>
<path d="M219.512 25.8858C213.369 27.5488 201.593 19.1752 192.576 24.2129C200.279 20.3448 211.151 34.7378 219.512 25.8858Z" fill="url(#paint17_radial_692_1520)"/>
<path d="M193.626 34.1693C195.604 32.9379 196.275 31.791 196.542 30.2054C196.765 28.8871 195.865 27.6374 194.565 27.3262C189.672 26.1551 186.419 27.3172 181.201 31.063C185.703 26.3362 189.254 25.2844 196.432 25.78C197.281 25.8387 198.06 26.2751 198.571 26.9564L199.912 28.7446C200.474 29.4943 200.448 30.5432 199.8 31.2205C197.636 33.4837 196.099 34.1156 193.626 34.1693Z" fill="url(#paint18_radial_692_1520)"/>
<path d="M174.988 28.9921C187.206 19.5072 182.948 18.6378 176.024 10.3543C179.45 8.93238 181.185 8.83857 183.272 12.4252C184.791 8.29387 186.3 6.42726 190.52 4.14173C192.226 8.52031 191.446 10.6991 189.484 14.4961C193.141 12.0347 195.331 11.3823 199.838 13.4606C189.774 17.727 190.786 18.8748 174.988 28.9921Z" fill="url(#paint19_radial_692_1520)"/>
<path d="M157.386 22.7441C157.386 22.1918 156.938 21.7441 156.386 21.7441H156.315C155.763 21.7441 155.315 22.1918 155.315 22.7441V25.9213C155.315 26.4735 155.763 26.9213 156.315 26.9213H161.598C162.703 26.9213 163.598 26.0258 163.598 24.9213V19.6024C163.598 18.4978 162.703 17.6024 161.598 17.6024H157.351C155.465 17.6024 153.603 18.023 151.901 18.8337V18.8337C150.782 19.3663 149.954 20.3629 149.635 21.5599L147.739 28.6695C146.872 31.9182 149.395 35.0788 152.755 34.9544L168.011 34.3894C171.301 34.2675 173.878 31.5169 173.786 28.2256L173.384 13.8426C173.293 10.5955 170.635 8.01038 167.386 8.01038H153.04C150.056 8.01038 147.189 9.21712 145.164 11.4088C134.272 23.194 126.982 33.3225 120.683 32.2299C120.393 32.1796 120.11 32.3916 120.11 32.686V32.686C120.11 32.9325 120.313 33.1318 120.559 33.1285C126.708 33.045 130.709 32.4313 148.426 13.254C149.542 12.0456 150.999 11.1983 152.605 10.8414L158.22 9.59364C159.035 9.41248 159.88 9.4035 160.698 9.56728L164.988 10.4251C167.792 10.986 169.811 13.4485 169.811 16.3086V27.0984C169.811 29.8599 167.572 32.0984 164.811 32.0984H155.173C152.964 32.0984 151.173 30.3076 151.173 28.0984V22.6378C151.173 20.4287 152.964 18.6378 155.173 18.6378H159.527C160.632 18.6378 161.527 19.5332 161.527 20.6378V24.8858C161.527 25.4381 161.08 25.8858 160.527 25.8858H158.386C157.833 25.8858 157.386 25.4381 157.386 24.8858V22.7441Z" fill="url(#paint20_radial_692_1520)"/>
<path d="M131.666 33.0631C139.604 29.9513 147.754 12.4066 157.386 13.4606C144.412 19.2326 143.16 31.4785 131.666 33.0631Z" fill="url(#paint21_radial_692_1520)"/>
<path d="M124.252 30.0276C129.594 21.6827 129.718 16.9143 125.287 8.28346C130.716 9.71409 138.453 19.5114 124.252 30.0276Z" fill="url(#paint22_radial_692_1520)"/>
<path d="M118.039 10.3543C122.976 14.0549 125.673 23.2793 118.039 32.0984C129.749 25.6888 126.286 12.7713 118.039 0V10.3543Z" fill="url(#paint23_radial_692_1520)"/>
<defs>
<radialGradient id="paint0_radial_692_1520" cx="0" cy="0" r="1" gradientUnits="userSpaceOnUse" gradientTransform="translate(79.728 111.309) scale(38.311 20.1909)">
<stop stop-color="#E1E1E1"/>
<stop offset="1" stop-color="#FFF4DA"/>
</radialGradient>
<radialGradient id="paint1_radial_692_1520" cx="0" cy="0" r="1" gradientUnits="userSpaceOnUse" gradientTransform="translate(79.728 111.309) scale(38.311 20.1909)">
<stop stop-color="#E1E1E1"/>
<stop offset="1" stop-color="#FFF4DA"/>
</radialGradient>
<radialGradient id="paint2_radial_692_1520" cx="0" cy="0" r="1" gradientUnits="userSpaceOnUse" gradientTransform="translate(79.728 111.309) scale(38.311 20.1909)">
<stop stop-color="#E1E1E1"/>
<stop offset="1" stop-color="#FFF4DA"/>
</radialGradient>
<radialGradient id="paint3_radial_692_1520" cx="0" cy="0" r="1" gradientUnits="userSpaceOnUse" gradientTransform="translate(79.728 111.309) scale(38.311 20.1909)">
<stop stop-color="#E1E1E1"/>
<stop offset="1" stop-color="#FFF4DA"/>
</radialGradient>
<radialGradient id="paint4_radial_692_1520" cx="0" cy="0" r="1" gradientUnits="userSpaceOnUse" gradientTransform="translate(156.35 111.309) rotate(180) scale(38.311 20.1909)">
<stop stop-color="#E1E1E1"/>
<stop offset="1" stop-color="#FFF4DA"/>
</radialGradient>
<radialGradient id="paint5_radial_692_1520" cx="0" cy="0" r="1" gradientUnits="userSpaceOnUse" gradientTransform="translate(156.35 111.309) rotate(180) scale(38.311 20.1909)">
<stop stop-color="#E1E1E1"/>
<stop offset="1" stop-color="#FFF4DA"/>
</radialGradient>
<radialGradient id="paint6_radial_692_1520" cx="0" cy="0" r="1" gradientUnits="userSpaceOnUse" gradientTransform="translate(156.35 111.309) rotate(180) scale(38.311 20.1909)">
<stop stop-color="#E1E1E1"/>
<stop offset="1" stop-color="#FFF4DA"/>
</radialGradient>
<radialGradient id="paint7_radial_692_1520" cx="0" cy="0" r="1" gradientUnits="userSpaceOnUse" gradientTransform="translate(156.35 111.309) rotate(180) scale(38.311 20.1909)">
<stop stop-color="#E1E1E1"/>
<stop offset="1" stop-color="#FFF4DA"/>
</radialGradient>
<radialGradient id="paint8_radial_692_1520" cx="0" cy="0" r="1" gradientUnits="userSpaceOnUse" gradientTransform="translate(59.0197 17.6024) scale(59.0197 17.6024)">
<stop stop-color="#E1E1E1"/>
<stop offset="1" stop-color="#FFF4DA"/>
</radialGradient>
<radialGradient id="paint9_radial_692_1520" cx="0" cy="0" r="1" gradientUnits="userSpaceOnUse" gradientTransform="translate(59.0197 17.6024) scale(59.0197 17.6024)">
<stop stop-color="#E1E1E1"/>
<stop offset="1" stop-color="#FFF4DA"/>
</radialGradient>
<radialGradient id="paint10_radial_692_1520" cx="0" cy="0" r="1" gradientUnits="userSpaceOnUse" gradientTransform="translate(59.0197 17.6024) scale(59.0197 17.6024)">
<stop stop-color="#E1E1E1"/>
<stop offset="1" stop-color="#FFF4DA"/>
</radialGradient>
<radialGradient id="paint11_radial_692_1520" cx="0" cy="0" r="1" gradientUnits="userSpaceOnUse" gradientTransform="translate(59.0197 17.6024) scale(59.0197 17.6024)">
<stop stop-color="#E1E1E1"/>
<stop offset="1" stop-color="#FFF4DA"/>
</radialGradient>
<radialGradient id="paint12_radial_692_1520" cx="0" cy="0" r="1" gradientUnits="userSpaceOnUse" gradientTransform="translate(59.0197 17.6024) scale(59.0197 17.6024)">
<stop stop-color="#E1E1E1"/>
<stop offset="1" stop-color="#FFF4DA"/>
</radialGradient>
<radialGradient id="paint13_radial_692_1520" cx="0" cy="0" r="1" gradientUnits="userSpaceOnUse" gradientTransform="translate(59.0197 17.6024) scale(59.0197 17.6024)">
<stop stop-color="#E1E1E1"/>
<stop offset="1" stop-color="#FFF4DA"/>
</radialGradient>
<radialGradient id="paint14_radial_692_1520" cx="0" cy="0" r="1" gradientUnits="userSpaceOnUse" gradientTransform="translate(59.0197 17.6024) scale(59.0197 17.6024)">
<stop stop-color="#E1E1E1"/>
<stop offset="1" stop-color="#FFF4DA"/>
</radialGradient>
<radialGradient id="paint15_radial_692_1520" cx="0" cy="0" r="1" gradientUnits="userSpaceOnUse" gradientTransform="translate(59.0197 17.6024) scale(59.0197 17.6024)">
<stop stop-color="#E1E1E1"/>
<stop offset="1" stop-color="#FFF4DA"/>
</radialGradient>
<radialGradient id="paint16_radial_692_1520" cx="0" cy="0" r="1" gradientUnits="userSpaceOnUse" gradientTransform="translate(177.059 17.6024) rotate(180) scale(59.0197 17.6024)">
<stop stop-color="#E1E1E1"/>
<stop offset="1" stop-color="#FFF4DA"/>
</radialGradient>
<radialGradient id="paint17_radial_692_1520" cx="0" cy="0" r="1" gradientUnits="userSpaceOnUse" gradientTransform="translate(177.059 17.6024) rotate(180) scale(59.0197 17.6024)">
<stop stop-color="#E1E1E1"/>
<stop offset="1" stop-color="#FFF4DA"/>
</radialGradient>
<radialGradient id="paint18_radial_692_1520" cx="0" cy="0" r="1" gradientUnits="userSpaceOnUse" gradientTransform="translate(177.059 17.6024) rotate(180) scale(59.0197 17.6024)">
<stop stop-color="#E1E1E1"/>
<stop offset="1" stop-color="#FFF4DA"/>
</radialGradient>
<radialGradient id="paint19_radial_692_1520" cx="0" cy="0" r="1" gradientUnits="userSpaceOnUse" gradientTransform="translate(177.059 17.6024) rotate(180) scale(59.0197 17.6024)">
<stop stop-color="#E1E1E1"/>
<stop offset="1" stop-color="#FFF4DA"/>
</radialGradient>
<radialGradient id="paint20_radial_692_1520" cx="0" cy="0" r="1" gradientUnits="userSpaceOnUse" gradientTransform="translate(177.059 17.6024) rotate(180) scale(59.0197 17.6024)">
<stop stop-color="#E1E1E1"/>
<stop offset="1" stop-color="#FFF4DA"/>
</radialGradient>
<radialGradient id="paint21_radial_692_1520" cx="0" cy="0" r="1" gradientUnits="userSpaceOnUse" gradientTransform="translate(177.059 17.6024) rotate(180) scale(59.0197 17.6024)">
<stop stop-color="#E1E1E1"/>
<stop offset="1" stop-color="#FFF4DA"/>
</radialGradient>
<radialGradient id="paint22_radial_692_1520" cx="0" cy="0" r="1" gradientUnits="userSpaceOnUse" gradientTransform="translate(177.059 17.6024) rotate(180) scale(59.0197 17.6024)">
<stop stop-color="#E1E1E1"/>
<stop offset="1" stop-color="#FFF4DA"/>
</radialGradient>
<radialGradient id="paint23_radial_692_1520" cx="0" cy="0" r="1" gradientUnits="userSpaceOnUse" gradientTransform="translate(177.059 17.6024) rotate(180) scale(59.0197 17.6024)">
<stop stop-color="#E1E1E1"/>
<stop offset="1" stop-color="#FFF4DA"/>
</radialGradient>
</defs>
</svg>
