<svg width="237" height="132" viewBox="0 0 237 132" fill="none" xmlns="http://www.w3.org/2000/svg">
<path d="M50.713 108.06C49.3894 108.487 47.9219 108.504 46.7174 107.809C44.5799 106.575 44.1417 105.154 44.5239 102.508V102.508C42.8803 103.056 42.0634 104.953 43.0344 106.388C43.9981 107.812 45.0942 108.974 46.6272 110.246C47.9176 111.316 49.57 111.855 51.2463 111.812C56.4411 111.679 59.0354 110.851 62.1261 108.72C61.1055 110.641 61.1623 111.76 61.9889 113.6C62.061 113.76 62.2573 113.822 62.4081 113.731C64.083 112.73 65.0044 111.892 66.2679 109.756C66.2159 114.032 66.9848 113.977 70.4096 114.933C67.5199 110.86 68.053 109.221 70.1985 106.254C70.9963 105.151 72.1264 104.331 73.4058 103.866L78.5781 101.985C81.3347 100.982 84.3491 100.942 87.1317 101.869L104.174 107.55C104.308 107.435 104.443 107.326 104.579 107.223V104.508C104.579 103.403 105.474 102.508 106.579 102.508H108.791C109.896 102.508 110.791 103.403 110.791 104.508V105.614H111.827V103.472C111.827 102.368 110.931 101.472 109.827 101.472H105.543C104.439 101.472 103.543 102.368 103.543 103.472V106.65C98.7741 103.748 93.5326 101.584 86.7262 99.7769C82.8461 98.747 78.7539 99.0145 74.9333 100.247L50.713 108.06Z" fill="url(#paint0_radial_692_2050)"/>
<path fill-rule="evenodd" clip-rule="evenodd" d="M118.04 111.827V108.721C115.458 105.74 114.164 105.799 111.827 105.614H110.791C108.063 105.589 106.223 105.979 104.579 107.223V107.685L104.174 107.55C103.27 108.327 102.41 109.382 101.473 110.791C94.423 108.167 92.2423 105.859 84.6309 104.117C82.7932 103.696 80.8384 103.854 79.1738 104.739C77.1411 105.82 75.7483 107.075 74.4009 109.235C73.7981 110.201 73.7054 111.42 74.2151 112.438C75.05 114.107 76.2503 115.417 79.1381 117.128C80.1191 117.709 81.351 117.62 82.2789 116.957L86.2804 114.099C87.2189 113.429 87.4133 112.09 86.6216 111.251C84.8307 109.354 83.7232 109.09 81.7994 109.756C83.0247 110.067 83.7478 110.456 84.3965 111.688C84.7601 112.378 84.5523 113.216 84.0005 113.767L82.2759 115.492C81.3711 116.397 79.9668 116.664 78.906 115.948C77.392 114.927 76.4786 113.802 75.488 112.283C74.8942 111.372 74.8544 110.185 75.4804 109.296C77.1885 106.871 79.0768 106.022 82.8348 105.614C87.5143 105.758 93.9739 109.592 101.473 112.862C101.611 115.305 101.827 117.608 105.431 119.531C106.15 119.915 107.027 119.733 107.604 119.156L110.252 116.508C110.55 116.21 110.55 115.727 110.252 115.429V115.429C109.972 115.149 109.522 115.134 109.211 115.381C104.883 118.812 103.35 117.017 102.508 112.862C108.785 113.743 111.601 112.063 112.862 106.65H114.933L118.04 111.827ZM102.508 111.827C105.324 107.593 107.417 106.549 111.827 106.65C109.582 111.782 107.624 113.001 102.508 111.827Z" fill="url(#paint1_radial_692_2050)"/>
<path d="M118.04 114.933V111.827C116.112 115.763 116.189 118.074 110.791 119.075C111.96 121.038 112.806 121.636 114.933 121.146C115.325 125.201 115.718 127.472 118.04 131.5V125.287C116.703 121.107 116.953 118.865 118.04 114.933Z" fill="url(#paint2_radial_692_2050)"/>
<path d="M115.969 98.3662C116.06 94.792 116.696 93.3936 118.04 91.1182V105.614C115.723 100.811 114.342 99.4138 111.827 99.4015C113.365 97.8121 114.277 97.3638 115.969 98.3662Z" fill="url(#paint3_radial_692_2050)"/>
<path d="M185.366 108.06C186.69 108.487 188.157 108.504 189.362 107.809C191.499 106.575 191.937 105.154 191.555 102.508V102.508C193.199 103.056 194.016 104.953 193.045 106.388C192.081 107.812 190.985 108.974 189.452 110.246C188.161 111.316 186.509 111.855 184.833 111.812C179.638 111.679 177.044 110.851 173.953 108.72C174.974 110.641 174.917 111.76 174.09 113.6C174.018 113.76 173.822 113.822 173.671 113.731C171.996 112.73 171.075 111.892 169.811 109.756C169.863 114.032 169.094 113.977 165.669 114.933C168.559 110.86 168.026 109.221 165.881 106.254C165.083 105.151 163.953 104.331 162.673 103.866L157.501 101.985C154.744 100.982 151.73 100.942 148.947 101.869L131.905 107.55C131.771 107.435 131.636 107.326 131.5 107.223V104.508C131.5 103.403 130.605 102.508 129.5 102.508H127.288C126.183 102.508 125.288 103.403 125.288 104.508V105.614H124.252V103.472C124.252 102.368 125.148 101.472 126.252 101.472H130.536C131.64 101.472 132.536 102.368 132.536 103.472V106.65C137.305 103.748 142.547 101.584 149.353 99.7769C153.233 98.747 157.325 99.0145 161.146 100.247L185.366 108.06Z" fill="url(#paint4_radial_692_2050)"/>
<path fill-rule="evenodd" clip-rule="evenodd" d="M118.04 111.827V108.721C120.621 105.74 121.915 105.799 124.252 105.614H125.288C128.016 105.589 129.856 105.979 131.5 107.223V107.685L131.905 107.55C132.809 108.327 133.669 109.382 134.607 110.791C141.656 108.167 143.837 105.859 151.448 104.117C153.286 103.696 155.241 103.854 156.905 104.739C158.938 105.82 160.331 107.075 161.678 109.235C162.281 110.201 162.374 111.42 161.864 112.438C161.029 114.107 159.829 115.417 156.941 117.128C155.96 117.709 154.728 117.62 153.8 116.957L149.799 114.099C148.86 113.429 148.666 112.09 149.457 111.251C151.248 109.354 152.356 109.09 154.28 109.756C153.054 110.067 152.331 110.456 151.683 111.688C151.319 112.378 151.527 113.216 152.079 113.767L153.803 115.492C154.708 116.397 156.112 116.664 157.173 115.948C158.687 114.927 159.601 113.802 160.591 112.283C161.185 111.372 161.225 110.185 160.599 109.296C158.891 106.871 157.002 106.022 153.244 105.614C148.565 105.758 142.105 109.592 134.607 112.862C134.468 115.305 134.252 117.608 130.648 119.531C129.929 119.915 129.052 119.733 128.475 119.156L125.827 116.508C125.529 116.21 125.529 115.727 125.827 115.429V115.429C126.107 115.149 126.557 115.134 126.868 115.381C131.196 118.812 132.729 117.017 133.571 112.862C127.294 113.743 124.479 112.063 123.217 106.65H121.146L118.04 111.827ZM133.571 111.827C130.755 107.593 128.662 106.549 124.252 106.65C126.497 111.782 128.455 113.001 133.571 111.827Z" fill="url(#paint5_radial_692_2050)"/>
<path d="M118.04 114.933V111.827C119.967 115.763 119.89 118.074 125.288 119.075C124.119 121.038 123.273 121.636 121.146 121.146C120.755 125.201 120.362 127.472 118.04 131.5V125.287C119.376 121.107 119.126 118.865 118.04 114.933Z" fill="url(#paint6_radial_692_2050)"/>
<path d="M120.11 98.3662C120.019 94.792 119.383 93.3936 118.04 91.1182V105.614C120.356 100.811 121.737 99.4138 124.252 99.4015C122.714 97.8121 121.802 97.3638 120.11 98.3662Z" fill="url(#paint7_radial_692_2050)"/>
<path d="M86.2539 67.6094C86.2539 66.75 85.9102 65.9121 85.2227 65.0957C84.5352 64.2793 83.7044 63.5345 82.7305 62.8613C82.2435 62.5319 81.7565 62.1953 81.2695 61.8516C80.7826 61.5078 80.2884 61.1569 79.7871 60.7988C78.7988 60.097 77.9609 59.2734 77.2734 58.3281C76.5859 57.3828 76.2422 56.3802 76.2422 55.3203C76.2422 53.6016 76.6719 52.069 77.5312 50.7227C78.4049 49.3763 79.5651 48.3164 81.0117 47.543C82.4727 46.7695 84.0911 46.3828 85.8672 46.3828C86.6263 46.3828 87.5859 46.5404 88.7461 46.8555C89.3333 47.013 89.849 47.1419 90.293 47.2422C90.737 47.3281 91.1094 47.3854 91.4102 47.4141C91.3099 48.2018 91.2096 48.9967 91.1094 49.7988C91.0234 50.5866 90.9375 51.3815 90.8516 52.1836C90.7656 53 90.7012 53.487 90.6582 53.6445C90.6152 53.7878 90.5508 53.8594 90.4648 53.8594C90.0495 53.8594 89.7201 53.7734 89.4766 53.6016C89.4193 53.5872 89.3906 53.4154 89.3906 53.0859C89.3906 52.1836 89.1901 51.3672 88.7891 50.6367C88.388 49.9062 87.8581 49.3262 87.1992 48.8965C86.5404 48.4525 85.8242 48.2305 85.0508 48.2305C83.418 48.2305 82.1003 48.7246 81.0977 49.7129C80.0951 50.7012 79.5938 51.9401 79.5938 53.4297C79.5938 54.9479 80.2956 56.2656 81.6992 57.3828C82.5013 58.013 83.4395 58.6934 84.5137 59.4238C85.6022 60.14 86.5475 60.8346 87.3496 61.5078C87.9368 61.9948 88.5169 62.6895 89.0898 63.5918C89.6628 64.4941 89.9492 65.4466 89.9492 66.4492C89.9492 67.3372 89.7344 68.2826 89.3047 69.2852C88.875 70.2878 88.2591 71.2402 87.457 72.1426C86.6549 73.0449 85.5951 73.7897 84.2773 74.377C82.9596 74.9642 81.513 75.2578 79.9375 75.2578C78.3906 75.2578 76.1133 74.9141 73.1055 74.2266C73.1628 73.3099 73.2057 72.5651 73.2344 71.9922C73.263 71.4049 73.2773 70.9896 73.2773 70.7461C73.2773 70.1159 73.263 69.4857 73.2344 68.8555C73.2057 68.2253 73.1914 67.7526 73.1914 67.4375C73.1914 67.237 73.4635 67.1367 74.0078 67.1367C74.2799 67.1367 74.5521 67.2513 74.8242 67.4805C74.8242 68.082 74.8887 68.6836 75.0176 69.2852C75.1465 69.8867 75.39 70.5312 75.748 71.2188C76.1061 71.9062 76.679 72.4577 77.4668 72.873C78.2546 73.2884 79.207 73.4961 80.3242 73.4961C81.3411 73.4961 82.3008 73.2598 83.2031 72.7871C84.1055 72.3145 84.8359 71.6413 85.3945 70.7676C85.9674 69.8796 86.2539 68.8268 86.2539 67.6094ZM106.062 56.3086C107.495 56.3086 108.211 57.2539 108.211 59.1445C108.211 60.4766 108.01 62.0378 107.609 63.8281L106.191 70.4453C106.105 70.7891 106.062 71.1471 106.062 71.5195C106.062 72.2357 106.206 72.5938 106.492 72.5938C106.85 72.5938 107.28 72.3431 107.781 71.8418C108.283 71.3262 108.712 70.8893 109.07 70.5312L109.328 70.2305C109.385 70.2305 109.493 70.3665 109.65 70.6387C109.808 70.9108 109.887 71.1042 109.887 71.2188C109.643 71.6341 109.199 72.1641 108.555 72.8086C107.924 73.4531 107.237 74.026 106.492 74.5273C105.747 75.0143 105.074 75.2578 104.473 75.2578C104.014 75.2578 103.656 75.0501 103.398 74.6348C103.141 74.2194 103.012 73.6823 103.012 73.0234C103.012 72.5938 103.112 71.8346 103.312 70.7461L104.816 63.6562C105.017 62.6823 105.117 61.9089 105.117 61.3359C105.117 60.1042 104.845 59.4883 104.301 59.4883C103.828 59.4883 103.191 59.8464 102.389 60.5625C101.587 61.2643 100.749 62.2025 99.875 63.377C99.0156 64.5514 98.235 65.862 97.5332 67.3086C96.8314 68.7409 96.3372 70.1875 96.0508 71.6484L95.3203 75C94.9336 75.1146 94.4896 75.1719 93.9883 75.1719C93.5013 75.1719 93.0143 75.1146 92.5273 75L97.168 50.9805C97.4258 49.7057 97.5547 48.9466 97.5547 48.7031C97.5547 48.1589 96.681 47.8867 94.9336 47.8867C94.8477 47.8867 94.8047 47.8008 94.8047 47.6289C94.8047 47.2852 94.9193 46.9987 95.1484 46.7695C97.0104 46.5977 98.8151 46.1966 100.562 45.5664C100.734 45.6523 100.82 45.9245 100.82 46.3828C100.82 46.5833 100.634 47.6576 100.262 49.6055L97.2969 64.7734C97.569 64.2865 98.1921 63.3984 99.166 62.1094C99.8105 61.2643 100.555 60.3978 101.4 59.5098C102.26 58.6074 103.105 57.8483 103.936 57.2324C104.781 56.6165 105.49 56.3086 106.062 56.3086ZM124.582 56.3086C125.642 56.3086 126.688 56.4948 127.719 56.8672L125.098 70.4453C125.012 70.7891 124.969 71.1471 124.969 71.5195C124.969 72.2357 125.112 72.5938 125.398 72.5938C125.757 72.5938 126.186 72.3431 126.688 71.8418C127.189 71.3262 127.618 70.8893 127.977 70.5312L128.234 70.2305C128.292 70.2305 128.399 70.3665 128.557 70.6387C128.714 70.9108 128.793 71.1042 128.793 71.2188C128.549 71.6341 128.105 72.1641 127.461 72.8086C126.831 73.4531 126.143 74.026 125.398 74.5273C124.654 75.0143 123.98 75.2578 123.379 75.2578C122.921 75.2578 122.562 75.0501 122.305 74.6348C122.047 74.2194 121.918 73.6823 121.918 73.0234C121.918 72.5794 122.018 71.8203 122.219 70.7461L122.369 69.9941C122.412 69.7936 122.434 69.6719 122.434 69.6289C122.204 70.0586 121.875 70.5885 121.445 71.2188C121.016 71.8346 120.521 72.4505 119.963 73.0664C119.404 73.6823 118.817 74.1979 118.201 74.6133C117.585 75.0143 116.977 75.2148 116.375 75.2148C115.115 75.2148 114.119 74.6491 113.389 73.5176C112.658 72.3861 112.293 71.0182 112.293 69.4141C112.293 67.3659 112.902 65.3249 114.119 63.291C114.936 61.916 115.91 60.7057 117.041 59.6602C118.187 58.6146 119.411 57.7982 120.715 57.2109C122.018 56.6094 123.307 56.3086 124.582 56.3086ZM122.777 58.2852C121.932 58.2852 121.08 58.5859 120.221 59.1875C119.361 59.7747 118.574 60.5697 117.857 61.5723C117.141 62.5605 116.561 63.6634 116.117 64.8809C115.688 66.084 115.473 67.2943 115.473 68.5117C115.473 71.319 116.203 72.7227 117.664 72.7227C118.18 72.7227 118.738 72.4362 119.34 71.8633C119.941 71.2904 120.536 70.5312 121.123 69.5859C121.71 68.6406 122.226 67.6165 122.67 66.5137C123.128 65.3965 123.465 64.3008 123.68 63.2266L124.539 58.8438C124.195 58.4714 123.608 58.2852 122.777 58.2852ZM137.301 56.3086C137.759 56.3086 138.117 56.5163 138.375 56.9316C138.633 57.347 138.762 57.8841 138.762 58.543C138.762 59.1732 138.676 59.9323 138.504 60.8203L137.816 64.4297C138.174 63.5846 138.633 62.6966 139.191 61.7656C139.764 60.8203 140.373 59.9323 141.018 59.1016C141.662 58.2708 142.299 57.5977 142.93 57.082C143.56 56.5664 144.118 56.3086 144.605 56.3086C145.579 56.3086 146.367 56.7669 146.969 57.6836C146.969 59.6029 146.439 60.5625 145.379 60.5625C145.15 60.5625 144.878 60.3835 144.562 60.0254C144.247 59.6673 143.918 59.4883 143.574 59.4883C143.159 59.4883 142.615 59.832 141.941 60.5195C141.268 61.207 140.574 62.1094 139.857 63.2266C139.141 64.3294 138.497 65.5254 137.924 66.8145C137.351 68.0892 136.957 69.3138 136.742 70.4883L135.926 75C135.439 75.0859 134.966 75.1289 134.508 75.1289C133.964 75.1289 133.434 75.0859 132.918 75L135.496 61.7656C135.639 60.7773 135.711 60.2044 135.711 60.0469C135.711 59.3307 135.568 58.9727 135.281 58.9727C135.038 58.9727 134.673 59.2018 134.186 59.6602C133.956 59.8893 133.706 60.14 133.434 60.4121C133.176 60.6842 133.004 60.8776 132.918 60.9922C132.861 60.9922 132.753 60.8561 132.596 60.584C132.438 60.3118 132.359 60.1185 132.359 60.0039C132.589 59.6172 133.004 59.1374 133.605 58.5645C134.207 57.9772 134.852 57.4544 135.539 56.9961C136.227 56.5378 136.814 56.3086 137.301 56.3086ZM160.762 56.3086C162.194 56.3086 162.91 57.2539 162.91 59.1445C162.91 60.4766 162.71 62.0378 162.309 63.8281L160.891 70.4453C160.805 70.7891 160.762 71.1471 160.762 71.5195C160.762 72.2357 160.905 72.5938 161.191 72.5938C161.549 72.5938 161.979 72.3431 162.48 71.8418C162.982 71.3262 163.411 70.8893 163.77 70.5312L164.027 70.2305C164.085 70.2305 164.192 70.3665 164.35 70.6387C164.507 70.9108 164.586 71.1042 164.586 71.2188C164.342 71.6341 163.898 72.1641 163.254 72.8086C162.624 73.4531 161.936 74.026 161.191 74.5273C160.447 75.0143 159.773 75.2578 159.172 75.2578C158.714 75.2578 158.355 75.0501 158.098 74.6348C157.84 74.2194 157.711 73.6823 157.711 73.0234C157.711 72.5938 157.811 71.8346 158.012 70.7461L159.516 63.6562C159.716 62.6823 159.816 61.9089 159.816 61.3359C159.816 60.1042 159.544 59.4883 159 59.4883C158.527 59.4883 157.89 59.8464 157.088 60.5625C156.286 61.2643 155.448 62.2025 154.574 63.377C153.715 64.5514 152.934 65.862 152.232 67.3086C151.531 68.7409 151.036 70.1875 150.75 71.6484L150.02 75C149.633 75.1146 149.189 75.1719 148.688 75.1719C148.201 75.1719 147.714 75.1146 147.227 75L151.867 50.9805C152.125 49.7057 152.254 48.9466 152.254 48.7031C152.254 48.1589 151.38 47.8867 149.633 47.8867C149.547 47.8867 149.504 47.8008 149.504 47.6289C149.504 47.2852 149.618 46.9987 149.848 46.7695C151.71 46.5977 153.514 46.1966 155.262 45.5664C155.434 45.6523 155.52 45.9245 155.52 46.3828C155.52 46.5833 155.333 47.6576 154.961 49.6055L151.996 64.7734C152.268 64.2865 152.891 63.3984 153.865 62.1094C154.51 61.2643 155.255 60.3978 156.1 59.5098C156.959 58.6074 157.804 57.8483 158.635 57.2324C159.48 56.6165 160.189 56.3086 160.762 56.3086Z" fill="white"/>
<path d="M0 14.4961C6.30012 20.0984 15.0791 19.1979 30.687 15.1421C32.2497 14.736 33.9168 14.9601 35.3059 15.7832L61.0905 31.063L35.3304 19.6141C33.9205 18.9874 32.3183 18.9353 30.8588 19.4358C12.5496 25.7159 4.73674 24.7283 0 14.4961Z" fill="url(#paint8_radial_692_2050)"/>
<path d="M16.5669 25.8858C22.7094 27.5488 34.4861 19.1752 43.5027 24.2129C35.7991 20.3448 24.9274 34.7378 16.5669 25.8858Z" fill="url(#paint9_radial_692_2050)"/>
<path d="M42.4528 34.1693C40.4746 32.9379 39.8039 31.791 39.5364 30.2054C39.314 28.8871 40.2138 27.6374 41.514 27.3262C46.4064 26.1551 49.6595 27.3172 54.8779 31.063C50.3759 26.3362 46.8249 25.2844 39.6469 25.78C38.7972 25.8387 38.0191 26.2751 37.5081 26.9564L36.1669 28.7446C35.6047 29.4943 35.6307 30.5432 36.2784 31.2205C38.4425 33.4837 39.9798 34.1156 42.4528 34.1693Z" fill="url(#paint10_radial_692_2050)"/>
<path d="M61.0905 28.9921C48.8725 19.5072 53.131 18.6378 60.0551 10.3543C56.6285 8.93238 54.8937 8.83857 52.8071 12.4252C51.2879 8.29387 49.7783 6.42726 45.559 4.14173C43.8524 8.52031 44.6321 10.6991 46.5945 14.4961C42.9378 12.0347 40.7471 11.3823 36.2402 13.4606C46.3046 17.727 45.2926 18.8748 61.0905 28.9921Z" fill="url(#paint11_radial_692_2050)"/>
<path d="M78.6929 22.7441C78.6929 22.1918 79.1406 21.7441 79.6929 21.7441H79.7638C80.3161 21.7441 80.7638 22.1918 80.7638 22.7441V25.9213C80.7638 26.4735 80.3161 26.9213 79.7638 26.9213H74.4803C73.3757 26.9213 72.4803 26.0258 72.4803 24.9213V19.6024C72.4803 18.4978 73.3757 17.6024 74.4803 17.6024H78.7281C80.6137 17.6024 82.4755 18.023 84.178 18.8337V18.8337C85.2965 19.3663 86.1249 20.3629 86.4441 21.5599L88.3399 28.6695C89.2063 31.9182 86.6836 35.0788 83.3237 34.9544L68.0679 34.3894C64.7776 34.2675 62.2002 31.5169 62.2923 28.2256L62.6948 13.8426C62.7856 10.5955 65.4441 8.01038 68.6924 8.01038H83.0387C86.0229 8.01038 88.8896 9.21712 90.915 11.4088C101.807 23.194 109.097 33.3225 115.395 32.2299C115.685 32.1796 115.968 32.3916 115.968 32.686V32.686C115.968 32.9325 115.766 33.1318 115.519 33.1285C109.37 33.045 105.37 32.4313 87.653 13.254C86.5367 12.0456 85.0793 11.1983 83.4735 10.8414L77.8584 9.59364C77.0431 9.41248 76.199 9.4035 75.3801 9.56728L71.091 10.4251C68.2865 10.986 66.2677 13.4485 66.2677 16.3086V27.0984C66.2677 29.8599 68.5063 32.0984 71.2677 32.0984H80.9055C83.1146 32.0984 84.9055 30.3076 84.9055 28.0984V22.6378C84.9055 20.4287 83.1146 18.6378 80.9055 18.6378H76.5512C75.4466 18.6378 74.5512 19.5332 74.5512 20.6378V24.8858C74.5512 25.4381 74.9989 25.8858 75.5512 25.8858H77.6929C78.2452 25.8858 78.6929 25.4381 78.6929 24.8858V22.7441Z" fill="url(#paint12_radial_692_2050)"/>
<path d="M104.412 33.0631C96.4743 29.9513 88.3242 12.4066 78.6929 13.4606C91.6665 19.2326 92.9183 31.4785 104.412 33.0631Z" fill="url(#paint13_radial_692_2050)"/>
<path d="M111.827 30.0276C106.485 21.6827 106.361 16.9143 110.791 8.28346C105.363 9.71409 97.6256 19.5114 111.827 30.0276Z" fill="url(#paint14_radial_692_2050)"/>
<path d="M118.039 10.3543C113.102 14.0549 110.405 23.2793 118.039 32.0984C106.33 25.6888 109.793 12.7713 118.039 0V10.3543Z" fill="url(#paint15_radial_692_2050)"/>
<path d="M236.079 14.4961C229.778 20.0984 221 19.1979 205.392 15.1421C203.829 14.736 202.162 14.9601 200.773 15.7832L174.988 31.063L200.748 19.6141C202.158 18.9874 203.76 18.9353 205.22 19.4358C223.529 25.7159 231.342 24.7283 236.079 14.4961Z" fill="url(#paint16_radial_692_2050)"/>
<path d="M219.512 25.8858C213.369 27.5488 201.593 19.1752 192.576 24.2129C200.279 20.3448 211.151 34.7378 219.512 25.8858Z" fill="url(#paint17_radial_692_2050)"/>
<path d="M193.626 34.1693C195.604 32.9379 196.275 31.791 196.542 30.2054C196.765 28.8871 195.865 27.6374 194.565 27.3262C189.672 26.1551 186.419 27.3172 181.201 31.063C185.703 26.3362 189.254 25.2844 196.432 25.78C197.281 25.8387 198.06 26.2751 198.571 26.9564L199.912 28.7446C200.474 29.4943 200.448 30.5432 199.8 31.2205C197.636 33.4837 196.099 34.1156 193.626 34.1693Z" fill="url(#paint18_radial_692_2050)"/>
<path d="M174.988 28.9921C187.206 19.5072 182.948 18.6378 176.024 10.3543C179.45 8.93238 181.185 8.83857 183.272 12.4252C184.791 8.29387 186.3 6.42726 190.52 4.14173C192.226 8.52031 191.446 10.6991 189.484 14.4961C193.141 12.0347 195.331 11.3823 199.838 13.4606C189.774 17.727 190.786 18.8748 174.988 28.9921Z" fill="url(#paint19_radial_692_2050)"/>
<path d="M157.386 22.7441C157.386 22.1918 156.938 21.7441 156.386 21.7441H156.315C155.763 21.7441 155.315 22.1918 155.315 22.7441V25.9213C155.315 26.4735 155.763 26.9213 156.315 26.9213H161.598C162.703 26.9213 163.598 26.0258 163.598 24.9213V19.6024C163.598 18.4978 162.703 17.6024 161.598 17.6024H157.351C155.465 17.6024 153.603 18.023 151.901 18.8337V18.8337C150.782 19.3663 149.954 20.3629 149.635 21.5599L147.739 28.6695C146.872 31.9182 149.395 35.0788 152.755 34.9544L168.011 34.3894C171.301 34.2675 173.878 31.5169 173.786 28.2256L173.384 13.8426C173.293 10.5955 170.635 8.01038 167.386 8.01038H153.04C150.056 8.01038 147.189 9.21712 145.164 11.4088C134.272 23.194 126.982 33.3225 120.683 32.2299C120.393 32.1796 120.11 32.3916 120.11 32.686V32.686C120.11 32.9325 120.313 33.1318 120.559 33.1285C126.708 33.045 130.709 32.4313 148.426 13.254C149.542 12.0456 150.999 11.1983 152.605 10.8414L158.22 9.59364C159.035 9.41248 159.88 9.4035 160.698 9.56728L164.988 10.4251C167.792 10.986 169.811 13.4485 169.811 16.3086V27.0984C169.811 29.8599 167.572 32.0984 164.811 32.0984H155.173C152.964 32.0984 151.173 30.3076 151.173 28.0984V22.6378C151.173 20.4287 152.964 18.6378 155.173 18.6378H159.527C160.632 18.6378 161.527 19.5332 161.527 20.6378V24.8858C161.527 25.4381 161.08 25.8858 160.527 25.8858H158.386C157.833 25.8858 157.386 25.4381 157.386 24.8858V22.7441Z" fill="url(#paint20_radial_692_2050)"/>
<path d="M131.666 33.0631C139.604 29.9513 147.754 12.4066 157.386 13.4606C144.412 19.2326 143.16 31.4785 131.666 33.0631Z" fill="url(#paint21_radial_692_2050)"/>
<path d="M124.252 30.0276C129.594 21.6827 129.718 16.9143 125.287 8.28346C130.716 9.71409 138.453 19.5114 124.252 30.0276Z" fill="url(#paint22_radial_692_2050)"/>
<path d="M118.039 10.3543C122.976 14.0549 125.673 23.2793 118.039 32.0984C129.749 25.6888 126.286 12.7713 118.039 0V10.3543Z" fill="url(#paint23_radial_692_2050)"/>
<defs>
<radialGradient id="paint0_radial_692_2050" cx="0" cy="0" r="1" gradientUnits="userSpaceOnUse" gradientTransform="translate(79.7285 111.309) scale(38.311 20.1909)">
<stop stop-color="#E1E1E1"/>
<stop offset="1" stop-color="#FFF4DA"/>
</radialGradient>
<radialGradient id="paint1_radial_692_2050" cx="0" cy="0" r="1" gradientUnits="userSpaceOnUse" gradientTransform="translate(79.7285 111.309) scale(38.311 20.1909)">
<stop stop-color="#E1E1E1"/>
<stop offset="1" stop-color="#FFF4DA"/>
</radialGradient>
<radialGradient id="paint2_radial_692_2050" cx="0" cy="0" r="1" gradientUnits="userSpaceOnUse" gradientTransform="translate(79.7285 111.309) scale(38.311 20.1909)">
<stop stop-color="#E1E1E1"/>
<stop offset="1" stop-color="#FFF4DA"/>
</radialGradient>
<radialGradient id="paint3_radial_692_2050" cx="0" cy="0" r="1" gradientUnits="userSpaceOnUse" gradientTransform="translate(79.7285 111.309) scale(38.311 20.1909)">
<stop stop-color="#E1E1E1"/>
<stop offset="1" stop-color="#FFF4DA"/>
</radialGradient>
<radialGradient id="paint4_radial_692_2050" cx="0" cy="0" r="1" gradientUnits="userSpaceOnUse" gradientTransform="translate(156.351 111.309) rotate(180) scale(38.311 20.1909)">
<stop stop-color="#E1E1E1"/>
<stop offset="1" stop-color="#FFF4DA"/>
</radialGradient>
<radialGradient id="paint5_radial_692_2050" cx="0" cy="0" r="1" gradientUnits="userSpaceOnUse" gradientTransform="translate(156.351 111.309) rotate(180) scale(38.311 20.1909)">
<stop stop-color="#E1E1E1"/>
<stop offset="1" stop-color="#FFF4DA"/>
</radialGradient>
<radialGradient id="paint6_radial_692_2050" cx="0" cy="0" r="1" gradientUnits="userSpaceOnUse" gradientTransform="translate(156.351 111.309) rotate(180) scale(38.311 20.1909)">
<stop stop-color="#E1E1E1"/>
<stop offset="1" stop-color="#FFF4DA"/>
</radialGradient>
<radialGradient id="paint7_radial_692_2050" cx="0" cy="0" r="1" gradientUnits="userSpaceOnUse" gradientTransform="translate(156.351 111.309) rotate(180) scale(38.311 20.1909)">
<stop stop-color="#E1E1E1"/>
<stop offset="1" stop-color="#FFF4DA"/>
</radialGradient>
<radialGradient id="paint8_radial_692_2050" cx="0" cy="0" r="1" gradientUnits="userSpaceOnUse" gradientTransform="translate(59.0197 17.6024) scale(59.0197 17.6024)">
<stop stop-color="#E1E1E1"/>
<stop offset="1" stop-color="#FFF4DA"/>
</radialGradient>
<radialGradient id="paint9_radial_692_2050" cx="0" cy="0" r="1" gradientUnits="userSpaceOnUse" gradientTransform="translate(59.0197 17.6024) scale(59.0197 17.6024)">
<stop stop-color="#E1E1E1"/>
<stop offset="1" stop-color="#FFF4DA"/>
</radialGradient>
<radialGradient id="paint10_radial_692_2050" cx="0" cy="0" r="1" gradientUnits="userSpaceOnUse" gradientTransform="translate(59.0197 17.6024) scale(59.0197 17.6024)">
<stop stop-color="#E1E1E1"/>
<stop offset="1" stop-color="#FFF4DA"/>
</radialGradient>
<radialGradient id="paint11_radial_692_2050" cx="0" cy="0" r="1" gradientUnits="userSpaceOnUse" gradientTransform="translate(59.0197 17.6024) scale(59.0197 17.6024)">
<stop stop-color="#E1E1E1"/>
<stop offset="1" stop-color="#FFF4DA"/>
</radialGradient>
<radialGradient id="paint12_radial_692_2050" cx="0" cy="0" r="1" gradientUnits="userSpaceOnUse" gradientTransform="translate(59.0197 17.6024) scale(59.0197 17.6024)">
<stop stop-color="#E1E1E1"/>
<stop offset="1" stop-color="#FFF4DA"/>
</radialGradient>
<radialGradient id="paint13_radial_692_2050" cx="0" cy="0" r="1" gradientUnits="userSpaceOnUse" gradientTransform="translate(59.0197 17.6024) scale(59.0197 17.6024)">
<stop stop-color="#E1E1E1"/>
<stop offset="1" stop-color="#FFF4DA"/>
</radialGradient>
<radialGradient id="paint14_radial_692_2050" cx="0" cy="0" r="1" gradientUnits="userSpaceOnUse" gradientTransform="translate(59.0197 17.6024) scale(59.0197 17.6024)">
<stop stop-color="#E1E1E1"/>
<stop offset="1" stop-color="#FFF4DA"/>
</radialGradient>
<radialGradient id="paint15_radial_692_2050" cx="0" cy="0" r="1" gradientUnits="userSpaceOnUse" gradientTransform="translate(59.0197 17.6024) scale(59.0197 17.6024)">
<stop stop-color="#E1E1E1"/>
<stop offset="1" stop-color="#FFF4DA"/>
</radialGradient>
<radialGradient id="paint16_radial_692_2050" cx="0" cy="0" r="1" gradientUnits="userSpaceOnUse" gradientTransform="translate(177.059 17.6024) rotate(180) scale(59.0197 17.6024)">
<stop stop-color="#E1E1E1"/>
<stop offset="1" stop-color="#FFF4DA"/>
</radialGradient>
<radialGradient id="paint17_radial_692_2050" cx="0" cy="0" r="1" gradientUnits="userSpaceOnUse" gradientTransform="translate(177.059 17.6024) rotate(180) scale(59.0197 17.6024)">
<stop stop-color="#E1E1E1"/>
<stop offset="1" stop-color="#FFF4DA"/>
</radialGradient>
<radialGradient id="paint18_radial_692_2050" cx="0" cy="0" r="1" gradientUnits="userSpaceOnUse" gradientTransform="translate(177.059 17.6024) rotate(180) scale(59.0197 17.6024)">
<stop stop-color="#E1E1E1"/>
<stop offset="1" stop-color="#FFF4DA"/>
</radialGradient>
<radialGradient id="paint19_radial_692_2050" cx="0" cy="0" r="1" gradientUnits="userSpaceOnUse" gradientTransform="translate(177.059 17.6024) rotate(180) scale(59.0197 17.6024)">
<stop stop-color="#E1E1E1"/>
<stop offset="1" stop-color="#FFF4DA"/>
</radialGradient>
<radialGradient id="paint20_radial_692_2050" cx="0" cy="0" r="1" gradientUnits="userSpaceOnUse" gradientTransform="translate(177.059 17.6024) rotate(180) scale(59.0197 17.6024)">
<stop stop-color="#E1E1E1"/>
<stop offset="1" stop-color="#FFF4DA"/>
</radialGradient>
<radialGradient id="paint21_radial_692_2050" cx="0" cy="0" r="1" gradientUnits="userSpaceOnUse" gradientTransform="translate(177.059 17.6024) rotate(180) scale(59.0197 17.6024)">
<stop stop-color="#E1E1E1"/>
<stop offset="1" stop-color="#FFF4DA"/>
</radialGradient>
<radialGradient id="paint22_radial_692_2050" cx="0" cy="0" r="1" gradientUnits="userSpaceOnUse" gradientTransform="translate(177.059 17.6024) rotate(180) scale(59.0197 17.6024)">
<stop stop-color="#E1E1E1"/>
<stop offset="1" stop-color="#FFF4DA"/>
</radialGradient>
<radialGradient id="paint23_radial_692_2050" cx="0" cy="0" r="1" gradientUnits="userSpaceOnUse" gradientTransform="translate(177.059 17.6024) rotate(180) scale(59.0197 17.6024)">
<stop stop-color="#E1E1E1"/>
<stop offset="1" stop-color="#FFF4DA"/>
</radialGradient>
</defs>
</svg>
