<svg width="237" height="132" viewBox="0 0 237 132" fill="none" xmlns="http://www.w3.org/2000/svg">
<path d="M50.7125 108.06C49.3889 108.487 47.9214 108.504 46.7169 107.809C44.5794 106.575 44.1412 105.154 44.5234 102.508V102.508C42.8798 103.056 42.063 104.953 43.0339 106.388C43.9977 107.812 45.0937 108.974 46.6267 110.246C47.9171 111.316 49.5696 111.855 51.2458 111.812C56.4406 111.679 59.0349 110.851 62.1257 108.72C61.1051 110.641 61.1618 111.76 61.9885 113.6C62.0605 113.76 62.2568 113.822 62.4077 113.731C64.0825 112.73 65.0039 111.892 66.2674 109.756C66.2154 114.032 66.9843 113.977 70.4091 114.933C67.5194 110.86 68.0525 109.221 70.1981 106.254C70.9958 105.151 72.1259 104.331 73.4053 103.866L78.5776 101.985C81.3342 100.982 84.3487 100.942 87.1313 101.869L104.173 107.55C104.307 107.435 104.442 107.326 104.578 107.223V104.508C104.578 103.403 105.474 102.508 106.578 102.508H108.791C109.896 102.508 110.791 103.403 110.791 104.508V105.614H111.826V103.472C111.826 102.368 110.931 101.472 109.826 101.472H105.543C104.438 101.472 103.543 102.368 103.543 103.472V106.65C98.7736 103.748 93.5321 101.584 86.7257 99.7769C82.8456 98.747 78.7534 99.0145 74.9328 100.247L50.7125 108.06Z" fill="url(#paint0_radial_692_1986)"/>
<path fill-rule="evenodd" clip-rule="evenodd" d="M118.039 111.827V108.721C115.458 105.74 114.163 105.799 111.826 105.614H110.791C108.063 105.589 106.222 105.979 104.578 107.223V107.685L104.173 107.55C103.27 108.327 102.409 109.382 101.472 110.791C94.4225 108.167 92.2419 105.859 84.6304 104.117C82.7927 103.696 80.8379 103.854 79.1733 104.739C77.1406 105.82 75.7478 107.075 74.4004 109.235C73.7976 110.201 73.7049 111.42 74.2146 112.438C75.0495 114.107 76.2498 115.417 79.1376 117.128C80.1186 117.709 81.3505 117.62 82.2784 116.957L86.28 114.099C87.2184 113.429 87.4128 112.09 86.6211 111.251C84.8302 109.354 83.7227 109.09 81.7989 109.756C83.0242 110.067 83.7473 110.456 84.396 111.688C84.7596 112.378 84.5518 113.216 84 113.767L82.2754 115.492C81.3706 116.397 79.9663 116.664 78.9055 115.948C77.3915 114.927 76.4781 113.802 75.4876 112.283C74.8937 111.372 74.8539 110.185 75.48 109.296C77.188 106.871 79.0763 106.022 82.8343 105.614C87.5138 105.758 93.9734 109.592 101.472 112.862C101.61 115.305 101.827 117.608 105.43 119.531C106.15 119.915 107.027 119.733 107.604 119.156L110.252 116.508C110.55 116.21 110.55 115.727 110.252 115.429V115.429C109.971 115.149 109.521 115.134 109.21 115.381C104.882 118.812 103.349 117.017 102.508 112.862C108.784 113.743 111.6 112.063 112.862 106.65H114.933L118.039 111.827ZM102.508 111.827C105.324 107.593 107.416 106.549 111.826 106.65C109.581 111.782 107.623 113.001 102.508 111.827Z" fill="url(#paint1_radial_692_1986)"/>
<path d="M118.039 114.933V111.827C116.112 115.763 116.189 118.074 110.791 119.075C111.96 121.038 112.806 121.636 114.933 121.146C115.324 125.201 115.717 127.472 118.039 131.5V125.287C116.703 121.107 116.952 118.865 118.039 114.933Z" fill="url(#paint2_radial_692_1986)"/>
<path d="M115.968 98.3662C116.06 94.792 116.696 93.3936 118.039 91.1182V105.614C115.722 100.811 114.342 99.4138 111.826 99.4015C113.364 97.8121 114.276 97.3638 115.968 98.3662Z" fill="url(#paint3_radial_692_1986)"/>
<path d="M185.366 108.06C186.689 108.487 188.157 108.504 189.361 107.809C191.499 106.575 191.937 105.154 191.555 102.508V102.508C193.198 103.056 194.015 104.953 193.044 106.388C192.08 107.812 190.984 108.974 189.451 110.246C188.161 111.316 186.509 111.855 184.832 111.812C179.637 111.679 177.043 110.851 173.952 108.72C174.973 110.641 174.916 111.76 174.09 113.6C174.018 113.76 173.821 113.822 173.67 113.731C171.996 112.73 171.074 111.892 169.811 109.756C169.863 114.032 169.094 113.977 165.669 114.933C168.559 110.86 168.026 109.221 165.88 106.254C165.082 105.151 163.952 104.331 162.673 103.866L157.5 101.985C154.744 100.982 151.729 100.942 148.947 101.869L131.905 107.55C131.771 107.435 131.636 107.326 131.5 107.223V104.508C131.5 103.403 130.604 102.508 129.5 102.508H127.287C126.183 102.508 125.287 103.403 125.287 104.508V105.614H124.252V103.472C124.252 102.368 125.147 101.472 126.252 101.472H130.535C131.64 101.472 132.535 102.368 132.535 103.472V106.65C137.304 103.748 142.546 101.584 149.352 99.7769C153.232 98.747 157.325 99.0145 161.145 100.247L185.366 108.06Z" fill="url(#paint4_radial_692_1986)"/>
<path fill-rule="evenodd" clip-rule="evenodd" d="M118.039 111.827V108.721C120.62 105.74 121.915 105.799 124.252 105.614H125.287C128.015 105.589 129.856 105.979 131.5 107.223V107.685L131.905 107.55C132.808 108.327 133.669 109.382 134.606 110.791C141.656 108.167 143.836 105.859 151.448 104.117C153.285 103.696 155.24 103.854 156.905 104.739C158.938 105.82 160.33 107.075 161.678 109.235C162.281 110.201 162.373 111.42 161.863 112.438C161.029 114.107 159.828 115.417 156.941 117.128C155.96 117.709 154.728 117.62 153.8 116.957L149.798 114.099C148.86 113.429 148.665 112.09 149.457 111.251C151.248 109.354 152.355 109.09 154.279 109.756C153.054 110.067 152.331 110.456 151.682 111.688C151.319 112.378 151.526 113.216 152.078 113.767L153.803 115.492C154.708 116.397 156.112 116.664 157.173 115.948C158.687 114.927 159.6 113.802 160.591 112.283C161.184 111.372 161.224 110.185 160.598 109.296C158.89 106.871 157.002 106.022 153.244 105.614C148.564 105.758 142.105 109.592 134.606 112.862C134.468 115.305 134.251 117.608 130.648 119.531C129.928 119.915 129.051 119.733 128.474 119.156L125.826 116.508C125.528 116.21 125.528 115.727 125.826 115.429V115.429C126.107 115.149 126.557 115.134 126.868 115.381C131.196 118.812 132.729 117.017 133.571 112.862C127.294 113.743 124.478 112.063 123.216 106.65H121.145L118.039 111.827ZM133.571 111.827C130.754 107.593 128.662 106.549 124.252 106.65C126.497 111.782 128.455 113.001 133.571 111.827Z" fill="url(#paint5_radial_692_1986)"/>
<path d="M118.039 114.933V111.827C119.967 115.763 119.889 118.074 125.287 119.075C124.119 121.038 123.273 121.636 121.145 121.146C120.754 125.201 120.361 127.472 118.039 131.5V125.287C119.375 121.107 119.126 118.865 118.039 114.933Z" fill="url(#paint6_radial_692_1986)"/>
<path d="M120.11 98.3662C120.019 94.792 119.382 93.3936 118.039 91.1182V105.614C120.356 100.811 121.736 99.4138 124.252 99.4015C122.714 97.8121 121.802 97.3638 120.11 98.3662Z" fill="url(#paint7_radial_692_1986)"/>
<path d="M86.2461 68.8984L89.2109 53.6445C89.5833 51.625 89.7695 50.2357 89.7695 49.4766C89.7695 49.2904 89.7337 49.14 89.6621 49.0254C89.5618 48.8965 89.0964 48.7891 88.2656 48.7031C87.4349 48.6172 86.5182 48.5742 85.5156 48.5742C84.513 48.5742 83.7109 48.6745 83.1094 48.875C82.5221 49.0612 82.0208 49.4264 81.6055 49.9707C81.2044 50.515 80.7604 51.3242 80.2734 52.3984C80.2161 52.5417 80.0729 52.6133 79.8438 52.6133C79.4714 52.6133 79.1849 52.513 78.9844 52.3125L80.875 46.168C81.9492 46.4831 82.8516 46.6406 83.582 46.6406C84.4128 46.6406 85.3438 46.6621 86.375 46.7051C87.4062 46.748 88.4375 46.791 89.4688 46.834C90.5143 46.877 91.4453 46.8984 92.2617 46.8984C93.1068 46.8984 94.0521 46.877 95.0977 46.834C96.1576 46.791 97.2103 46.748 98.2559 46.7051C99.3158 46.6621 100.268 46.6406 101.113 46.6406C101.758 46.6406 102.703 46.4831 103.949 46.168L103.52 52.3125C103.247 52.513 102.918 52.6133 102.531 52.6133C102.273 52.6133 102.145 52.5417 102.145 52.3984C102.145 50.8516 101.865 49.8275 101.307 49.3262C100.748 48.8249 99.7956 48.5742 98.4492 48.5742C95.6133 48.5742 94.0951 48.7891 93.8945 49.2188C93.694 49.6484 93.4935 50.2214 93.293 50.9375C93.0924 51.6536 92.8919 52.513 92.6914 53.5156L89.6836 69.0273C89.3685 70.5599 89.2109 71.849 89.2109 72.8945C89.2109 73.1237 89.4043 73.3314 89.791 73.5176C90.1777 73.7038 90.5573 73.8255 90.9297 73.8828L91.5312 73.9688C91.5885 73.9688 91.6172 74.026 91.6172 74.1406C91.6172 74.4557 91.5312 74.7852 91.3594 75.1289C90.0417 75.0573 89.0104 75.0072 88.2656 74.9785C87.5208 74.9355 87.0625 74.9141 86.8906 74.9141C86.862 74.9141 86.4538 74.9355 85.666 74.9785C84.8783 75.0072 83.7109 75.0573 82.1641 75.1289C82.1068 75.0716 82.0781 74.957 82.0781 74.7852C82.0781 74.2409 82.1784 73.9688 82.3789 73.9688C82.6081 73.9688 82.9232 73.9258 83.3242 73.8398C83.7396 73.7539 84.1263 73.6393 84.4844 73.4961C84.8424 73.3529 85.0573 73.1953 85.1289 73.0234C85.5443 72.0781 85.9167 70.7031 86.2461 68.8984ZM110.867 56.3086C112.557 56.3086 113.868 56.8958 114.799 58.0703C115.73 59.2448 116.195 60.8633 116.195 62.9258C116.195 64.401 115.909 65.8691 115.336 67.3301C114.763 68.7767 114.011 70.0944 113.08 71.2832C112.149 72.472 111.125 73.4245 110.008 74.1406C108.891 74.8568 107.788 75.2148 106.699 75.2148C104.98 75.2148 103.67 74.6562 102.768 73.5391C101.865 72.4219 101.414 70.832 101.414 68.7695C101.414 67.2799 101.693 65.8047 102.252 64.3438C102.825 62.8685 103.577 61.5293 104.508 60.3262C105.439 59.1087 106.456 58.1348 107.559 57.4043C108.676 56.6738 109.779 56.3086 110.867 56.3086ZM110.352 58.0703C109.635 58.0703 108.941 58.3854 108.268 59.0156C107.594 59.6315 106.986 60.4408 106.441 61.4434C105.897 62.446 105.467 63.5417 105.152 64.7305C104.837 65.9193 104.68 67.0794 104.68 68.2109C104.68 69.8724 104.945 71.1615 105.475 72.0781C106.005 72.9948 106.671 73.4531 107.473 73.4531C108.189 73.4531 108.869 73.1452 109.514 72.5293C110.173 71.8991 110.76 71.0827 111.275 70.0801C111.791 69.0632 112.192 67.9603 112.479 66.7715C112.779 65.5827 112.93 64.4154 112.93 63.2695C112.93 61.5794 112.701 60.2904 112.242 59.4023C111.784 58.5143 111.154 58.0703 110.352 58.0703ZM125.09 56.3086C125.548 56.3086 125.906 56.5163 126.164 56.9316C126.422 57.347 126.551 57.8841 126.551 58.543C126.551 59.1732 126.465 59.9323 126.293 60.8203L125.605 64.4297C125.964 63.5846 126.422 62.6966 126.98 61.7656C127.553 60.8203 128.162 59.9323 128.807 59.1016C129.451 58.2708 130.089 57.5977 130.719 57.082C131.349 56.5664 131.908 56.3086 132.395 56.3086C133.368 56.3086 134.156 56.7669 134.758 57.6836C134.758 59.6029 134.228 60.5625 133.168 60.5625C132.939 60.5625 132.667 60.3835 132.352 60.0254C132.036 59.6673 131.707 59.4883 131.363 59.4883C130.948 59.4883 130.404 59.832 129.73 60.5195C129.057 61.207 128.363 62.1094 127.646 63.2266C126.93 64.3294 126.286 65.5254 125.713 66.8145C125.14 68.0892 124.746 69.3138 124.531 70.4883L123.715 75C123.228 75.0859 122.755 75.1289 122.297 75.1289C121.753 75.1289 121.223 75.0859 120.707 75L123.285 61.7656C123.428 60.7773 123.5 60.2044 123.5 60.0469C123.5 59.3307 123.357 58.9727 123.07 58.9727C122.827 58.9727 122.462 59.2018 121.975 59.6602C121.745 59.8893 121.495 60.14 121.223 60.4121C120.965 60.6842 120.793 60.8776 120.707 60.9922C120.65 60.9922 120.542 60.8561 120.385 60.584C120.227 60.3118 120.148 60.1185 120.148 60.0039C120.378 59.6172 120.793 59.1374 121.395 58.5645C121.996 57.9772 122.641 57.4544 123.328 56.9961C124.016 56.5378 124.603 56.3086 125.09 56.3086ZM142.363 47.2422C142.793 47.2422 143.158 47.4141 143.459 47.7578C143.76 48.1016 143.91 48.5026 143.91 48.9609C143.91 49.6484 143.688 50.25 143.244 50.7656C142.8 51.2812 142.249 51.5391 141.59 51.5391C141.132 51.5391 140.773 51.36 140.516 51.002C140.258 50.6439 140.129 50.207 140.129 49.6914C140.129 49.0326 140.344 48.4596 140.773 47.9727C141.203 47.4857 141.733 47.2422 142.363 47.2422ZM141.117 56.3086C141.576 56.3086 141.934 56.5163 142.191 56.9316C142.449 57.347 142.578 57.8841 142.578 58.543C142.578 59.1302 142.492 59.8893 142.32 60.8203L140.43 70.4453C140.344 70.7891 140.301 71.1471 140.301 71.5195C140.301 72.2357 140.444 72.5938 140.73 72.5938C141.089 72.5938 141.518 72.3431 142.02 71.8418C142.521 71.3262 142.951 70.8893 143.309 70.5312L143.566 70.2305C143.624 70.2305 143.731 70.3665 143.889 70.6387C144.046 70.9108 144.125 71.1042 144.125 71.2188C143.882 71.6341 143.438 72.1641 142.793 72.8086C142.163 73.4531 141.475 74.026 140.73 74.5273C139.986 75.0143 139.312 75.2578 138.711 75.2578C138.253 75.2578 137.895 75.0501 137.637 74.6348C137.379 74.2194 137.25 73.6823 137.25 73.0234C137.25 72.5938 137.35 71.8346 137.551 70.7461L139.312 61.7656C139.456 60.9206 139.527 60.3477 139.527 60.0469C139.527 59.3307 139.384 58.9727 139.098 58.9727C138.926 58.9727 138.689 59.0872 138.389 59.3164C138.102 59.5456 137.823 59.8034 137.551 60.0898C137.279 60.362 137.078 60.5768 136.949 60.7344L136.734 60.9922C136.677 60.9922 136.57 60.8561 136.412 60.584C136.255 60.3118 136.176 60.1185 136.176 60.0039C136.405 59.6172 136.82 59.1374 137.422 58.5645C138.023 57.9772 138.668 57.4544 139.355 56.9961C140.043 56.5378 140.63 56.3086 141.117 56.3086ZM159.637 56.3086C160.897 56.3086 162.043 56.4948 163.074 56.8672L160.453 70.4453L158.52 81.3164C158.462 81.7174 158.434 82.0182 158.434 82.2188C158.434 82.6914 158.584 83.0208 158.885 83.207C159.2 83.4076 159.708 83.5078 160.41 83.5078C160.467 83.5078 160.496 83.5938 160.496 83.7656C160.496 84.224 160.424 84.5677 160.281 84.7969C160.181 84.7969 160.059 84.7969 159.916 84.7969C159.773 84.7969 159.601 84.7897 159.4 84.7754C159.214 84.7611 159.049 84.7539 158.906 84.7539C158.763 84.7539 158.648 84.7539 158.562 84.7539C156.471 84.7539 154.395 84.8685 152.332 85.0977C152.332 85.026 152.325 84.9473 152.311 84.8613C152.296 84.7754 152.289 84.6823 152.289 84.582C152.289 84.0664 152.361 83.8086 152.504 83.8086C152.762 83.8086 153.041 83.7871 153.342 83.7441C153.643 83.7012 154.058 83.472 154.588 83.0566C155.118 82.6413 155.454 82.0612 155.598 81.3164L157.789 69.6289C157.589 69.9727 157.359 70.3307 157.102 70.7031C156.858 71.0612 156.586 71.4264 156.285 71.7988C155.884 72.3001 155.397 72.8158 154.824 73.3457C154.251 73.8757 153.664 74.3197 153.062 74.6777C152.475 75.0358 151.931 75.2148 151.43 75.2148C150.169 75.2148 149.167 74.6491 148.422 73.5176C147.677 72.3861 147.305 71.0182 147.305 69.4141C147.305 67.3802 147.921 65.3392 149.152 63.291C149.983 61.916 150.964 60.7057 152.096 59.6602C153.242 58.6146 154.466 57.7982 155.77 57.2109C157.073 56.6094 158.362 56.3086 159.637 56.3086ZM157.789 58.2852C156.858 58.2852 155.956 58.5788 155.082 59.166C154.208 59.7533 153.428 60.5267 152.74 61.4863C152.053 62.446 151.501 63.513 151.086 64.6875C150.685 65.8477 150.484 67.0078 150.484 68.168C150.484 71.2044 151.229 72.7227 152.719 72.7227C153.249 72.7227 153.829 72.4362 154.459 71.8633C155.104 71.276 155.734 70.5098 156.35 69.5645C156.965 68.6191 157.51 67.5951 157.982 66.4922C158.469 65.375 158.82 64.2865 159.035 63.2266L159.895 58.8438C159.551 58.4714 158.849 58.2852 157.789 58.2852Z" fill="white"/>
<path d="M0 14.4961C6.30012 20.0984 15.0791 19.1979 30.687 15.1421C32.2497 14.736 33.9168 14.9601 35.3059 15.7832L61.0905 31.063L35.3304 19.6141C33.9205 18.9874 32.3183 18.9353 30.8588 19.4358C12.5496 25.7159 4.73674 24.7283 0 14.4961Z" fill="url(#paint8_radial_692_1986)"/>
<path d="M16.5669 25.8858C22.7094 27.5488 34.4861 19.1752 43.5027 24.2129C35.7991 20.3448 24.9274 34.7378 16.5669 25.8858Z" fill="url(#paint9_radial_692_1986)"/>
<path d="M42.4528 34.1693C40.4746 32.9379 39.8039 31.791 39.5364 30.2054C39.314 28.8871 40.2138 27.6374 41.514 27.3262C46.4064 26.1551 49.6595 27.3172 54.8779 31.063C50.3759 26.3362 46.8249 25.2844 39.6469 25.78C38.7972 25.8387 38.0191 26.2751 37.5081 26.9564L36.1669 28.7446C35.6047 29.4943 35.6307 30.5432 36.2784 31.2205C38.4425 33.4837 39.9798 34.1156 42.4528 34.1693Z" fill="url(#paint10_radial_692_1986)"/>
<path d="M61.0905 28.9921C48.8725 19.5072 53.131 18.6378 60.0551 10.3543C56.6285 8.93238 54.8937 8.83857 52.8071 12.4252C51.2879 8.29387 49.7783 6.42726 45.559 4.14173C43.8524 8.52031 44.6321 10.6991 46.5945 14.4961C42.9378 12.0347 40.7471 11.3823 36.2402 13.4606C46.3046 17.727 45.2926 18.8748 61.0905 28.9921Z" fill="url(#paint11_radial_692_1986)"/>
<path d="M78.6929 22.7441C78.6929 22.1918 79.1406 21.7441 79.6929 21.7441H79.7638C80.3161 21.7441 80.7638 22.1918 80.7638 22.7441V25.9213C80.7638 26.4735 80.3161 26.9213 79.7638 26.9213H74.4803C73.3757 26.9213 72.4803 26.0258 72.4803 24.9213V19.6024C72.4803 18.4978 73.3757 17.6024 74.4803 17.6024H78.7281C80.6137 17.6024 82.4755 18.023 84.178 18.8337V18.8337C85.2965 19.3663 86.1249 20.3629 86.4441 21.5599L88.3399 28.6695C89.2063 31.9182 86.6836 35.0788 83.3237 34.9544L68.0679 34.3894C64.7776 34.2675 62.2002 31.5169 62.2923 28.2256L62.6948 13.8426C62.7856 10.5955 65.4441 8.01038 68.6924 8.01038H83.0387C86.0229 8.01038 88.8896 9.21712 90.915 11.4088C101.807 23.194 109.097 33.3225 115.395 32.2299C115.685 32.1796 115.968 32.3916 115.968 32.686V32.686C115.968 32.9325 115.766 33.1318 115.519 33.1285C109.37 33.045 105.37 32.4313 87.653 13.254C86.5367 12.0456 85.0793 11.1983 83.4735 10.8414L77.8584 9.59364C77.0431 9.41248 76.199 9.4035 75.3801 9.56728L71.091 10.4251C68.2865 10.986 66.2677 13.4485 66.2677 16.3086V27.0984C66.2677 29.8599 68.5063 32.0984 71.2677 32.0984H80.9055C83.1146 32.0984 84.9055 30.3076 84.9055 28.0984V22.6378C84.9055 20.4287 83.1146 18.6378 80.9055 18.6378H76.5512C75.4466 18.6378 74.5512 19.5332 74.5512 20.6378V24.8858C74.5512 25.4381 74.9989 25.8858 75.5512 25.8858H77.6929C78.2452 25.8858 78.6929 25.4381 78.6929 24.8858V22.7441Z" fill="url(#paint12_radial_692_1986)"/>
<path d="M104.412 33.0631C96.4743 29.9513 88.3242 12.4066 78.6929 13.4606C91.6665 19.2326 92.9183 31.4785 104.412 33.0631Z" fill="url(#paint13_radial_692_1986)"/>
<path d="M111.827 30.0276C106.485 21.6827 106.361 16.9143 110.791 8.28346C105.363 9.71409 97.6256 19.5114 111.827 30.0276Z" fill="url(#paint14_radial_692_1986)"/>
<path d="M118.039 10.3543C113.102 14.0549 110.405 23.2793 118.039 32.0984C106.33 25.6888 109.793 12.7713 118.039 0V10.3543Z" fill="url(#paint15_radial_692_1986)"/>
<path d="M236.079 14.4961C229.779 20.0984 221 19.1979 205.392 15.1421C203.829 14.736 202.162 14.9601 200.773 15.7832L174.989 31.063L200.749 19.6141C202.159 18.9874 203.761 18.9353 205.22 19.4358C223.529 25.7159 231.342 24.7283 236.079 14.4961Z" fill="url(#paint16_radial_692_1986)"/>
<path d="M219.512 25.8858C213.37 27.5488 201.593 19.1752 192.576 24.2129C200.28 20.3448 211.152 34.7378 219.512 25.8858Z" fill="url(#paint17_radial_692_1986)"/>
<path d="M193.626 34.1693C195.605 32.9379 196.275 31.791 196.543 30.2054C196.765 28.8871 195.865 27.6374 194.565 27.3262C189.673 26.1551 186.42 27.3172 181.201 31.063C185.703 26.3362 189.254 25.2844 196.432 25.78C197.282 25.8387 198.06 26.2751 198.571 26.9564L199.912 28.7446C200.474 29.4943 200.448 30.5432 199.801 31.2205C197.637 33.4837 196.099 34.1156 193.626 34.1693Z" fill="url(#paint18_radial_692_1986)"/>
<path d="M174.989 28.9921C187.207 19.5072 182.948 18.6378 176.024 10.3543C179.451 8.93238 181.185 8.83857 183.272 12.4252C184.791 8.29387 186.301 6.42726 190.52 4.14173C192.227 8.52031 191.447 10.6991 189.485 14.4961C193.141 12.0347 195.332 11.3823 199.839 13.4606C189.775 17.727 190.787 18.8748 174.989 28.9921Z" fill="url(#paint19_radial_692_1986)"/>
<path d="M157.386 22.7441C157.386 22.1918 156.938 21.7441 156.386 21.7441H156.315C155.763 21.7441 155.315 22.1918 155.315 22.7441V25.9213C155.315 26.4735 155.763 26.9213 156.315 26.9213H161.599C162.703 26.9213 163.599 26.0258 163.599 24.9213V19.6024C163.599 18.4978 162.703 17.6024 161.599 17.6024H157.351C155.465 17.6024 153.604 18.023 151.901 18.8337V18.8337C150.783 19.3663 149.954 20.3629 149.635 21.5599L147.739 28.6695C146.873 31.9182 149.396 35.0788 152.755 34.9544L168.011 34.3894C171.301 34.2675 173.879 31.5169 173.787 28.2256L173.384 13.8426C173.293 10.5955 170.635 8.01038 167.387 8.01038H153.04C150.056 8.01038 147.19 9.21712 145.164 11.4088C134.273 23.194 126.982 33.3225 120.684 32.2299C120.394 32.1796 120.111 32.3916 120.111 32.686V32.686C120.111 32.9325 120.313 33.1318 120.56 33.1285C126.709 33.045 130.709 32.4313 148.426 13.254C149.542 12.0456 151 11.1983 152.606 10.8414L158.221 9.59364C159.036 9.41248 159.88 9.4035 160.699 9.56728L164.988 10.4251C167.793 10.986 169.811 13.4485 169.811 16.3086V27.0984C169.811 29.8599 167.573 32.0984 164.811 32.0984H155.174C152.964 32.0984 151.174 30.3076 151.174 28.0984V22.6378C151.174 20.4287 152.964 18.6378 155.174 18.6378H159.528C160.633 18.6378 161.528 19.5332 161.528 20.6378V24.8858C161.528 25.4381 161.08 25.8858 160.528 25.8858H158.386C157.834 25.8858 157.386 25.4381 157.386 24.8858V22.7441Z" fill="url(#paint20_radial_692_1986)"/>
<path d="M131.667 33.0631C139.605 29.9513 147.755 12.4066 157.386 13.4606C144.413 19.2326 143.161 31.4785 131.667 33.0631Z" fill="url(#paint21_radial_692_1986)"/>
<path d="M124.252 30.0276C129.594 21.6827 129.718 16.9143 125.288 8.28346C130.716 9.71409 138.454 19.5114 124.252 30.0276Z" fill="url(#paint22_radial_692_1986)"/>
<path d="M118.04 10.3543C122.977 14.0549 125.674 23.2793 118.04 32.0984C129.75 25.6888 126.286 12.7713 118.04 0V10.3543Z" fill="url(#paint23_radial_692_1986)"/>
<defs>
<radialGradient id="paint0_radial_692_1986" cx="0" cy="0" r="1" gradientUnits="userSpaceOnUse" gradientTransform="translate(79.728 111.309) scale(38.311 20.1909)">
<stop stop-color="#E1E1E1"/>
<stop offset="1" stop-color="#FFF4DA"/>
</radialGradient>
<radialGradient id="paint1_radial_692_1986" cx="0" cy="0" r="1" gradientUnits="userSpaceOnUse" gradientTransform="translate(79.728 111.309) scale(38.311 20.1909)">
<stop stop-color="#E1E1E1"/>
<stop offset="1" stop-color="#FFF4DA"/>
</radialGradient>
<radialGradient id="paint2_radial_692_1986" cx="0" cy="0" r="1" gradientUnits="userSpaceOnUse" gradientTransform="translate(79.728 111.309) scale(38.311 20.1909)">
<stop stop-color="#E1E1E1"/>
<stop offset="1" stop-color="#FFF4DA"/>
</radialGradient>
<radialGradient id="paint3_radial_692_1986" cx="0" cy="0" r="1" gradientUnits="userSpaceOnUse" gradientTransform="translate(79.728 111.309) scale(38.311 20.1909)">
<stop stop-color="#E1E1E1"/>
<stop offset="1" stop-color="#FFF4DA"/>
</radialGradient>
<radialGradient id="paint4_radial_692_1986" cx="0" cy="0" r="1" gradientUnits="userSpaceOnUse" gradientTransform="translate(156.35 111.309) rotate(180) scale(38.311 20.1909)">
<stop stop-color="#E1E1E1"/>
<stop offset="1" stop-color="#FFF4DA"/>
</radialGradient>
<radialGradient id="paint5_radial_692_1986" cx="0" cy="0" r="1" gradientUnits="userSpaceOnUse" gradientTransform="translate(156.35 111.309) rotate(180) scale(38.311 20.1909)">
<stop stop-color="#E1E1E1"/>
<stop offset="1" stop-color="#FFF4DA"/>
</radialGradient>
<radialGradient id="paint6_radial_692_1986" cx="0" cy="0" r="1" gradientUnits="userSpaceOnUse" gradientTransform="translate(156.35 111.309) rotate(180) scale(38.311 20.1909)">
<stop stop-color="#E1E1E1"/>
<stop offset="1" stop-color="#FFF4DA"/>
</radialGradient>
<radialGradient id="paint7_radial_692_1986" cx="0" cy="0" r="1" gradientUnits="userSpaceOnUse" gradientTransform="translate(156.35 111.309) rotate(180) scale(38.311 20.1909)">
<stop stop-color="#E1E1E1"/>
<stop offset="1" stop-color="#FFF4DA"/>
</radialGradient>
<radialGradient id="paint8_radial_692_1986" cx="0" cy="0" r="1" gradientUnits="userSpaceOnUse" gradientTransform="translate(59.0197 17.6024) scale(59.0197 17.6024)">
<stop stop-color="#E1E1E1"/>
<stop offset="1" stop-color="#FFF4DA"/>
</radialGradient>
<radialGradient id="paint9_radial_692_1986" cx="0" cy="0" r="1" gradientUnits="userSpaceOnUse" gradientTransform="translate(59.0197 17.6024) scale(59.0197 17.6024)">
<stop stop-color="#E1E1E1"/>
<stop offset="1" stop-color="#FFF4DA"/>
</radialGradient>
<radialGradient id="paint10_radial_692_1986" cx="0" cy="0" r="1" gradientUnits="userSpaceOnUse" gradientTransform="translate(59.0197 17.6024) scale(59.0197 17.6024)">
<stop stop-color="#E1E1E1"/>
<stop offset="1" stop-color="#FFF4DA"/>
</radialGradient>
<radialGradient id="paint11_radial_692_1986" cx="0" cy="0" r="1" gradientUnits="userSpaceOnUse" gradientTransform="translate(59.0197 17.6024) scale(59.0197 17.6024)">
<stop stop-color="#E1E1E1"/>
<stop offset="1" stop-color="#FFF4DA"/>
</radialGradient>
<radialGradient id="paint12_radial_692_1986" cx="0" cy="0" r="1" gradientUnits="userSpaceOnUse" gradientTransform="translate(59.0197 17.6024) scale(59.0197 17.6024)">
<stop stop-color="#E1E1E1"/>
<stop offset="1" stop-color="#FFF4DA"/>
</radialGradient>
<radialGradient id="paint13_radial_692_1986" cx="0" cy="0" r="1" gradientUnits="userSpaceOnUse" gradientTransform="translate(59.0197 17.6024) scale(59.0197 17.6024)">
<stop stop-color="#E1E1E1"/>
<stop offset="1" stop-color="#FFF4DA"/>
</radialGradient>
<radialGradient id="paint14_radial_692_1986" cx="0" cy="0" r="1" gradientUnits="userSpaceOnUse" gradientTransform="translate(59.0197 17.6024) scale(59.0197 17.6024)">
<stop stop-color="#E1E1E1"/>
<stop offset="1" stop-color="#FFF4DA"/>
</radialGradient>
<radialGradient id="paint15_radial_692_1986" cx="0" cy="0" r="1" gradientUnits="userSpaceOnUse" gradientTransform="translate(59.0197 17.6024) scale(59.0197 17.6024)">
<stop stop-color="#E1E1E1"/>
<stop offset="1" stop-color="#FFF4DA"/>
</radialGradient>
<radialGradient id="paint16_radial_692_1986" cx="0" cy="0" r="1" gradientUnits="userSpaceOnUse" gradientTransform="translate(177.059 17.6024) rotate(180) scale(59.0197 17.6024)">
<stop stop-color="#E1E1E1"/>
<stop offset="1" stop-color="#FFF4DA"/>
</radialGradient>
<radialGradient id="paint17_radial_692_1986" cx="0" cy="0" r="1" gradientUnits="userSpaceOnUse" gradientTransform="translate(177.059 17.6024) rotate(180) scale(59.0197 17.6024)">
<stop stop-color="#E1E1E1"/>
<stop offset="1" stop-color="#FFF4DA"/>
</radialGradient>
<radialGradient id="paint18_radial_692_1986" cx="0" cy="0" r="1" gradientUnits="userSpaceOnUse" gradientTransform="translate(177.059 17.6024) rotate(180) scale(59.0197 17.6024)">
<stop stop-color="#E1E1E1"/>
<stop offset="1" stop-color="#FFF4DA"/>
</radialGradient>
<radialGradient id="paint19_radial_692_1986" cx="0" cy="0" r="1" gradientUnits="userSpaceOnUse" gradientTransform="translate(177.059 17.6024) rotate(180) scale(59.0197 17.6024)">
<stop stop-color="#E1E1E1"/>
<stop offset="1" stop-color="#FFF4DA"/>
</radialGradient>
<radialGradient id="paint20_radial_692_1986" cx="0" cy="0" r="1" gradientUnits="userSpaceOnUse" gradientTransform="translate(177.059 17.6024) rotate(180) scale(59.0197 17.6024)">
<stop stop-color="#E1E1E1"/>
<stop offset="1" stop-color="#FFF4DA"/>
</radialGradient>
<radialGradient id="paint21_radial_692_1986" cx="0" cy="0" r="1" gradientUnits="userSpaceOnUse" gradientTransform="translate(177.059 17.6024) rotate(180) scale(59.0197 17.6024)">
<stop stop-color="#E1E1E1"/>
<stop offset="1" stop-color="#FFF4DA"/>
</radialGradient>
<radialGradient id="paint22_radial_692_1986" cx="0" cy="0" r="1" gradientUnits="userSpaceOnUse" gradientTransform="translate(177.059 17.6024) rotate(180) scale(59.0197 17.6024)">
<stop stop-color="#E1E1E1"/>
<stop offset="1" stop-color="#FFF4DA"/>
</radialGradient>
<radialGradient id="paint23_radial_692_1986" cx="0" cy="0" r="1" gradientUnits="userSpaceOnUse" gradientTransform="translate(177.059 17.6024) rotate(180) scale(59.0197 17.6024)">
<stop stop-color="#E1E1E1"/>
<stop offset="1" stop-color="#FFF4DA"/>
</radialGradient>
</defs>
</svg>
