<svg width="73" height="70" viewBox="0 0 73 70" fill="none" xmlns="http://www.w3.org/2000/svg">
<path d="M37.5415 34.5309L37.4438 10.0571L37.4328 9.97292L34.7878 31.8694L37.5415 34.5309Z" fill="#FFAB33"/>
<path d="M37.5415 34.5309L40.2952 31.8694L37.4438 10.0571L37.5415 34.5309Z" fill="#FFAB33"/>
<path d="M37.7375 59.1033L37.6398 34.6295L34.8861 37.291L37.7375 59.1033Z" fill="#FFAB33"/>
<path d="M40.3935 37.291L37.6398 34.6295L37.7375 59.1033L37.7485 59.1875L40.3935 37.291Z" fill="#FFAB33"/>
<path d="M37.5415 34.6295L34.7878 31.8694L13.0258 34.7274L37.5415 34.6295Z" fill="#FFAB33"/>
<path d="M34.7878 37.3896L37.5415 34.6295L13.0258 34.7274L12.9419 34.7384L34.7878 37.3896Z" fill="#FFAB33"/>
<path d="M37.6398 34.6295L62.0571 34.5316L62.1411 34.5206L40.2952 31.8694L37.6398 34.6295Z" fill="#FFAB33"/>
<path d="M37.6398 34.6295L40.2952 37.3896L62.0571 34.5316L37.6398 34.6295Z" fill="#FFAB33"/>
<path d="M40.0985 30.0951L49.5397 22.7021L42.1637 32.0666L40.2952 31.8694L40.0985 30.0951Z" fill="#FFAB33"/>
<path d="M42.1637 37.1924L49.5397 46.6555L40.0985 39.3611L40.3935 37.3896L42.1637 37.1924Z" fill="#FFAB33"/>
<path d="M35.0828 39.1639L25.6416 46.557L33.0176 37.1924L34.8861 37.3896L35.0828 39.1639Z" fill="#FFAB33"/>
<path d="M32.8209 32.0666L25.5432 22.6035L34.9845 29.9965L34.7878 31.8694L32.8209 32.0666Z" fill="#FFAB33"/>
<path d="M1 32.1494H1.06491L1.53697 32.1612C1.81234 32.1652 2.11525 32.1652 2.44569 32.1612C2.82727 32.1533 3.0161 32.1494 3.01216 32.1494H3.08887V32.5752H2.83514C2.66598 32.5752 2.58141 32.5792 2.58141 32.587L3.01216 33.7345C3.30327 34.5152 3.44882 34.8996 3.44882 34.8878C3.44882 34.9114 3.5629 34.6137 3.79106 33.9947C4.01923 33.3875 4.13331 33.0819 4.13331 33.0779L4.0389 32.8236L3.95038 32.5752H3.38391V32.1494H3.44882L3.92088 32.1612C4.19625 32.1652 4.49719 32.1652 4.8237 32.1612C5.21315 32.1533 5.40591 32.1494 5.40197 32.1494H5.47868V32.5752H5.21905C5.04989 32.5752 4.96532 32.5772 4.96532 32.5811L5.40197 33.7404L5.83863 34.8937L6.71194 32.5811C6.71194 32.5772 6.61753 32.5752 6.42871 32.5752H6.13957V32.1494H6.19858C6.19464 32.1494 6.35003 32.1533 6.66474 32.1612C6.93224 32.1652 7.1604 32.1652 7.34923 32.1612C7.56559 32.1533 7.67573 32.1494 7.67967 32.1494H7.72687V32.5752H7.1663L7.1486 32.6225C7.14467 32.6422 6.9224 33.2337 6.48181 34.3969C6.03335 35.5837 5.81306 36.1692 5.82093 36.1535C5.79732 36.2008 5.76585 36.2303 5.72651 36.2422C5.70685 36.2501 5.65177 36.254 5.56129 36.254C5.44328 36.254 5.36853 36.2402 5.33706 36.2126C5.31739 36.1929 5.30559 36.1771 5.30166 36.1653C5.29773 36.1613 5.13841 35.7454 4.8237 34.9173L4.36344 33.693L3.90318 34.9173C3.58847 35.7454 3.42915 36.1613 3.42522 36.1653C3.42128 36.1771 3.40948 36.1929 3.38981 36.2126C3.35834 36.2402 3.2836 36.254 3.16558 36.254C3.0751 36.254 3.02003 36.2501 3.00036 36.2422C2.96102 36.2303 2.92955 36.2008 2.90595 36.1535C2.91382 36.1692 2.69352 35.5837 2.24506 34.3969C1.80447 33.2337 1.58221 32.6422 1.57828 32.6225L1.56057 32.5752H1V32.1494Z" fill="#B68D40"/>
<path d="M35.1163 1H36.7508L36.7744 1.01183C36.7862 1.01577 37.1343 1.43964 37.8188 2.28343C38.5151 3.143 38.8574 3.56687 38.8456 3.55504L38.8633 3.57278V1.42584H38.226V1H38.285L38.7157 1.01183C38.9675 1.01577 39.2193 1.01577 39.471 1.01183C39.7543 1.00394 39.8979 1 39.9018 1H39.9608V1.42584H39.3235V3.20017C39.3235 4.37912 39.3196 4.97648 39.3117 4.99225C39.3038 5.0159 39.2881 5.03365 39.2645 5.04548C39.2488 5.05336 39.1917 5.05731 39.0934 5.05731C38.995 5.05731 38.938 5.05336 38.9223 5.04548C38.9144 5.04153 38.464 4.49149 37.571 3.39535C36.6701 2.2716 36.2236 1.71762 36.2315 1.73339L36.2138 1.71565V4.63147H36.8511V5.05731H36.7921C36.796 5.05731 36.6524 5.05336 36.3613 5.04548C36.1096 5.04153 35.8578 5.04153 35.606 5.04548C35.3149 5.05336 35.1713 5.05731 35.1753 5.05731H35.1163V4.63147H35.7536V1.42584H35.1163V1Z" fill="#B68D40"/>
<path d="M67.9639 32.382H71.6282V32.4057C71.6322 32.4214 71.6637 32.6758 71.7227 33.1686C71.7738 33.6497 71.8033 33.904 71.8112 33.9316V33.9553H71.3863L71.3745 33.8547C71.3391 33.5984 71.2919 33.4032 71.2329 33.2692C71.111 33.0208 70.8848 32.8729 70.5543 32.8256C70.4481 32.8138 70.2494 32.8079 69.9583 32.8079H69.5866V34.1031H69.6928C69.8738 34.1031 70.0055 34.0814 70.0882 34.0381C70.155 34.0105 70.2042 33.9671 70.2357 33.9079C70.2907 33.8173 70.3183 33.6773 70.3183 33.488V33.4111H70.7431V35.2209H70.3183V35.1441C70.3183 34.9548 70.2907 34.8148 70.2357 34.7241C70.2042 34.665 70.155 34.6216 70.0882 34.594C70.0055 34.5506 69.8738 34.529 69.6928 34.529H69.5866V35.978H69.9701C70.2494 35.978 70.4068 35.976 70.4422 35.9721C70.8434 35.9445 71.1267 35.8144 71.2919 35.5817C71.3116 35.5581 71.3371 35.5127 71.3686 35.4457C71.4394 35.3077 71.5004 35.0908 71.5515 34.7951C71.5594 34.7162 71.5673 34.6689 71.5751 34.6532V34.6354H72V34.6532C71.9961 34.661 71.9508 34.9489 71.8643 35.5167C71.7777 36.0884 71.7325 36.3782 71.7286 36.3861V36.4038H67.9639V35.978H68.6012V32.8079H67.9639V32.382Z" fill="#B68D40"/>
<path d="M37.2012 64.8168C37.3664 64.801 37.5257 64.8069 37.6792 64.8345C37.8955 64.8661 38.1001 64.9449 38.2929 65.0711C38.3165 65.0908 38.3342 65.0987 38.346 65.0948C38.3656 65.0751 38.4168 65.0297 38.4994 64.9588C38.6017 64.872 38.6548 64.8267 38.6587 64.8227C38.6705 64.8148 38.698 64.8109 38.7413 64.8109C38.7885 64.8109 38.818 64.8148 38.8298 64.8227C38.8495 64.8345 38.8613 64.8621 38.8652 64.9055C38.8692 64.9607 38.8711 65.1658 38.8711 65.5206C38.8711 65.9622 38.8574 66.1929 38.8298 66.2126C38.8141 66.2205 38.757 66.2244 38.6587 66.2244C38.5604 66.2244 38.5033 66.2205 38.4876 66.2126C38.464 66.2008 38.4482 66.1594 38.4404 66.0884C38.4168 65.9622 38.3794 65.8459 38.3283 65.7395C38.281 65.6409 38.2161 65.5541 38.1335 65.4792C37.9644 65.3136 37.7283 65.2249 37.4254 65.2131C37.1029 65.2012 36.8983 65.3077 36.8118 65.5324C36.7921 65.5876 36.7823 65.6507 36.7823 65.7217C36.7823 65.8006 36.796 65.8696 36.8236 65.9287C36.8826 66.0509 36.9888 66.1416 37.1422 66.2008C37.1697 66.2166 37.3212 66.252 37.5966 66.3072C37.8798 66.3664 38.0372 66.4019 38.0686 66.4137C38.2417 66.4571 38.3971 66.53 38.5348 66.6325C38.818 66.8415 38.9891 67.1274 39.0481 67.4901C39.0639 67.6005 39.0639 67.7385 39.0481 67.9041C39.0245 68.054 38.9793 68.1979 38.9124 68.3359C38.8338 68.4976 38.7295 68.6277 38.5997 68.7262C38.4187 68.8642 38.2004 68.951 37.9447 68.9865C37.8464 69.0023 37.6949 69.0042 37.4903 68.9924C37.4707 68.9885 37.4549 68.9865 37.4431 68.9865C37.1048 68.951 36.8334 68.8662 36.6288 68.7322C36.6052 68.7164 36.5875 68.7105 36.5757 68.7144C36.5561 68.7341 36.5049 68.7795 36.4223 68.8504C36.32 68.9372 36.2669 68.9825 36.263 68.9865C36.2512 68.9944 36.2236 68.9983 36.1804 68.9983C36.1332 68.9983 36.1037 68.9944 36.0919 68.9865C36.0722 68.9747 36.0604 68.947 36.0565 68.9037C36.0525 68.8485 36.0506 68.6454 36.0506 68.2945C36.0506 67.8647 36.0545 67.6439 36.0624 67.6321C36.0663 67.6242 36.0742 67.6143 36.086 67.6025C36.1056 67.5907 36.1627 67.5848 36.2571 67.5848C36.3594 67.5848 36.4184 67.5887 36.4341 67.5966C36.4616 67.6124 36.4754 67.6538 36.4754 67.7208C36.4872 67.9337 36.562 68.1092 36.6996 68.2472C36.8019 68.3497 36.9435 68.4305 37.1245 68.4897C37.3566 68.5646 37.5887 68.5902 37.8208 68.5666C37.8523 68.5626 37.8798 68.5587 37.9034 68.5547C38.0135 68.5311 38.104 68.4838 38.1748 68.4128C38.2535 68.3339 38.3047 68.2275 38.3283 68.0934C38.3597 67.8923 38.3047 67.7208 38.163 67.5788C38.104 67.5118 38.0273 67.4645 37.9329 67.4369C37.9172 67.429 37.7598 67.3916 37.4608 67.3245C37.1776 67.2693 37.0163 67.2338 36.977 67.2181C36.6859 67.1353 36.4577 66.9795 36.2925 66.7508C36.1233 66.5261 36.0427 66.2737 36.0506 65.9938C36.0624 65.7138 36.145 65.4733 36.2984 65.2722C36.4439 65.0751 36.6564 64.939 36.9357 64.8641C37.0301 64.8405 37.1186 64.8247 37.2012 64.8168Z" fill="#B68D40"/>
<path d="M16.2004 28.9122L16.7905 28.8136L17.1838 29.2079L16.5938 29.3065L16.2004 28.9122Z" fill="#B68D40"/>
<path d="M18.474 23.6839L19.0681 23.7546L19.3357 24.2435L18.7417 24.1727L18.474 23.6839Z" fill="#B68D40"/>
<path d="M21.8619 19.0907L22.4399 19.2457L22.6353 19.7677L22.0574 19.6128L21.8619 19.0907Z" fill="#B68D40"/>
<path d="M26.4809 15.5824L26.9998 15.8809L27.0549 16.4357L26.5361 16.1373L26.4809 15.5824Z" fill="#B68D40"/>
<path d="M31.8781 13.3889L32.2696 13.8422L32.139 14.3843L31.7474 13.9309L31.8781 13.3889Z" fill="#B68D40"/>
<path d="M43.2163 13.3675L43.3049 13.9605L42.9051 14.3483L42.8165 13.7553L43.2163 13.3675Z" fill="#B68D40"/>
<path d="M48.597 15.5708L48.5272 16.1663L48.0399 16.4352L48.1097 15.8397L48.597 15.5708Z" fill="#B68D40"/>
<path d="M53.1216 19.0297L52.9381 19.6004L52.408 19.7696L52.5915 19.1989L53.1216 19.0297Z" fill="#B68D40"/>
<path d="M56.5008 23.6534L56.1736 24.1553L55.6177 24.1784L55.945 23.6765L56.5008 23.6534Z" fill="#B68D40"/>
<path d="M58.7532 29.0597L58.2851 29.4331L57.7502 29.2799L58.2183 28.9065L58.7532 29.0597Z" fill="#B68D40"/>
<path d="M58.902 40.3111L58.3247 40.4684L57.8939 40.1155L58.4712 39.9582L58.902 40.3111Z" fill="#B68D40"/>
<path d="M56.5404 45.6793L55.9422 45.6792L55.6188 45.2254L56.2171 45.2255L56.5404 45.6793Z" fill="#B68D40"/>
<path d="M53.1246 50.197L52.5499 50.0304L52.365 49.5045L52.9397 49.6711L53.1246 50.197Z" fill="#B68D40"/>
<path d="M48.6764 53.907L48.1656 53.595L48.125 53.0389L48.6358 53.3508L48.6764 53.907Z" fill="#B68D40"/>
<path d="M43.2031 55.969L42.7833 55.5418L42.8789 54.9924L43.2987 55.4196L43.2031 55.969Z" fill="#B68D40"/>
<path d="M31.8773 55.9367L31.7551 55.3497L32.1322 54.9398L32.2544 55.5267L31.8773 55.9367Z" fill="#B68D40"/>
<path d="M26.4544 53.9218L26.4718 53.3225L26.9337 53.0117L26.9163 53.611L26.4544 53.9218Z" fill="#B68D40"/>
<path d="M21.8803 50.3133L22.0693 49.7444L22.601 49.5803L22.4119 50.1492L21.8803 50.3133Z" fill="#B68D40"/>
<path d="M18.4316 45.6303L18.7926 45.1522L19.3487 45.1676L18.9877 45.6457L18.4316 45.6303Z" fill="#B68D40"/>
<path d="M16.2289 40.3995L16.6846 40.011L17.2242 40.1468L16.7685 40.5352L16.2289 40.3995Z" fill="#B68D40"/>
<path d="M37.5415 34.5309L34.7878 31.8694M37.5415 34.5309L40.2952 31.8694M37.5415 34.5309L37.4438 10.0571M34.7878 31.8694L37.4328 9.97292M34.7878 31.8694L37.5415 34.6295M34.7878 31.8694L13.0258 34.7274M34.7878 31.8694L34.9845 29.9965L25.5432 22.6035L32.8209 32.0666L34.7878 31.8694ZM37.4328 9.97292L37.4431 9.88743L37.4438 10.0571M37.4328 9.97292L37.4438 10.0571M40.2952 31.8694L37.4438 10.0571M40.2952 31.8694L37.6398 34.6295M40.2952 31.8694L62.1411 34.5206M40.2952 31.8694L42.1637 32.0666L49.5397 22.7021L40.0985 30.0951L40.2952 31.8694ZM37.6398 34.6295L40.3935 37.291L37.7485 59.1875M37.6398 34.6295L34.8861 37.291L37.7375 59.1033M37.6398 34.6295L37.7375 59.1033M37.6398 34.6295L40.2952 37.3896L62.0571 34.5316M37.6398 34.6295L62.0571 34.5316M37.7485 59.1875L37.7382 59.273L37.7375 59.1033M37.7485 59.1875L37.7375 59.1033M37.5415 34.6295L34.7878 37.3896L12.9419 34.7384M37.5415 34.6295L13.0258 34.7274M12.9419 34.7384L12.8566 34.7281L13.0258 34.7274M12.9419 34.7384L13.0258 34.7274M62.1411 34.5206L62.2263 34.5309L62.0571 34.5316M62.1411 34.5206L62.0571 34.5316M24.5378 27.1379L25.5432 27.7293M29.9911 21.6177L30.5668 22.6338M33.6726 20.1803L33.9663 21.3112M41.49 20.2377L41.1803 21.3642M45.0414 21.6816L44.4434 22.6847M50.4551 27.1603L49.4413 27.7373M52.0858 30.8502L50.9576 31.1446M51.9421 38.4886L50.8182 38.1782M50.527 42.1211L49.5216 41.5297M45.1221 47.6716L44.5464 46.6555M41.5768 49.1562L41.2467 48.0356M33.7555 49.1747L34.0155 48.0356M30.1655 47.7437L30.7556 46.7359M24.6581 42.1291L25.6719 41.5521M23.0846 38.5443L24.2128 38.2499M23.0846 30.7405L24.2221 30.9967M9.2178 34.7281H12.1682M37.5415 6.33877V9.29599M65.7668 34.6295H62.8164M37.5415 60.0616V63.0188M50.0314 34.6295C50.0314 41.5979 44.3955 47.247 37.4431 47.247C30.4908 47.247 24.8548 41.5979 24.8548 34.6295C24.8548 27.6611 30.4908 22.012 37.4431 22.012C44.3955 22.012 50.0314 27.6611 50.0314 34.6295ZM51.2407 42.614C46.8412 50.2519 37.0973 52.8688 29.4771 48.4591C21.8569 44.0493 19.246 34.2829 23.6456 26.645C28.0451 19.0072 37.789 16.3903 45.4092 20.8C53.0294 25.2097 55.6402 34.9762 51.2407 42.614ZM55.1585 44.8812C49.5098 54.6878 36.9991 58.0478 27.2151 52.386C17.4312 46.7241 14.079 34.1844 19.7277 24.3778C25.3765 14.5712 37.8872 11.2112 47.6711 16.873C57.4551 22.5349 60.8073 35.0746 55.1585 44.8812ZM57.2026 46.0641C50.9021 57.0022 36.9479 60.7499 26.035 54.4348C15.1221 48.1196 11.3831 34.1331 17.6836 23.1949C23.9842 12.2568 37.9384 8.50907 48.8513 14.8242C59.7642 21.1394 63.5032 35.1259 57.2026 46.0641ZM51.0149 34.6295C51.0149 42.1424 44.9386 48.2327 37.4431 48.2327C29.9477 48.2327 23.8714 42.1424 23.8714 34.6295C23.8714 27.1167 29.9477 21.0263 37.4431 21.0263C44.9386 21.0263 51.0149 27.1167 51.0149 34.6295ZM52.9818 34.6295C52.9818 43.2312 46.0249 50.2042 37.4431 50.2042C28.8613 50.2042 21.9044 43.2312 21.9044 34.6295C21.9044 26.0278 28.8613 19.0548 37.4431 19.0548C46.0249 19.0548 52.9818 26.0278 52.9818 34.6295ZM42.1637 37.1924L49.5397 46.6555L40.0985 39.3611L40.3935 37.3896L42.1637 37.1924ZM35.0828 39.1639L25.6416 46.557L33.0176 37.1924L34.8861 37.3896L35.0828 39.1639ZM1 32.1494H1.06491L1.53697 32.1612C1.81234 32.1652 2.11525 32.1652 2.44569 32.1612C2.82727 32.1533 3.0161 32.1494 3.01216 32.1494H3.08887V32.5752H2.83514C2.66598 32.5752 2.58141 32.5792 2.58141 32.587L3.01216 33.7345C3.30327 34.5152 3.44882 34.8996 3.44882 34.8878C3.44882 34.9114 3.5629 34.6137 3.79106 33.9947C4.01923 33.3875 4.13331 33.0819 4.13331 33.0779L4.0389 32.8236L3.95038 32.5752H3.38391V32.1494H3.44882L3.92088 32.1612C4.19625 32.1652 4.49719 32.1652 4.8237 32.1612C5.21315 32.1533 5.40591 32.1494 5.40197 32.1494H5.47868V32.5752H5.21905C5.04989 32.5752 4.96532 32.5772 4.96532 32.5811L5.40197 33.7404L5.83863 34.8937L6.71194 32.5811C6.71194 32.5772 6.61753 32.5752 6.42871 32.5752H6.13957V32.1494H6.19858C6.19464 32.1494 6.35003 32.1533 6.66474 32.1612C6.93224 32.1652 7.1604 32.1652 7.34923 32.1612C7.56559 32.1533 7.67573 32.1494 7.67967 32.1494H7.72687V32.5752H7.1663L7.1486 32.6225C7.14467 32.6422 6.9224 33.2337 6.48181 34.3969C6.03335 35.5837 5.81306 36.1692 5.82093 36.1535C5.79732 36.2008 5.76585 36.2303 5.72651 36.2422C5.70685 36.2501 5.65177 36.254 5.56129 36.254C5.44328 36.254 5.36853 36.2402 5.33706 36.2126C5.31739 36.1929 5.30559 36.1771 5.30166 36.1653C5.29773 36.1613 5.13841 35.7454 4.8237 34.9173L4.36344 33.693L3.90318 34.9173C3.58847 35.7454 3.42915 36.1613 3.42522 36.1653C3.42128 36.1771 3.40948 36.1929 3.38981 36.2126C3.35834 36.2402 3.2836 36.254 3.16558 36.254C3.0751 36.254 3.02003 36.2501 3.00036 36.2422C2.96102 36.2303 2.92955 36.2008 2.90595 36.1535C2.91382 36.1692 2.69352 35.5837 2.24506 34.3969C1.80447 33.2337 1.58221 32.6422 1.57828 32.6225L1.56057 32.5752H1V32.1494ZM35.1163 1V1.42584H35.7536V4.63147H35.1163V5.05731H35.1753C35.1713 5.05731 35.3149 5.05336 35.606 5.04548C35.8578 5.04153 36.1096 5.04153 36.3613 5.04548C36.6524 5.05336 36.796 5.05731 36.7921 5.05731H36.8511V4.63147H36.2138V1.71565L36.2315 1.73339C36.2236 1.71762 36.6701 2.2716 37.571 3.39535C38.464 4.49149 38.9144 5.04153 38.9223 5.04548C38.938 5.05336 38.995 5.05731 39.0934 5.05731C39.1917 5.05731 39.2488 5.05336 39.2645 5.04548C39.2881 5.03365 39.3038 5.0159 39.3117 4.99225C39.3196 4.97648 39.3235 4.37912 39.3235 3.20017V1.42584H39.9608V1H39.9018C39.8979 1 39.7543 1.00394 39.471 1.01183C39.2193 1.01577 38.9675 1.01577 38.7157 1.01183L38.285 1H38.226V1.42584H38.8633V3.57278L38.8456 3.55504C38.8574 3.56687 38.5151 3.143 37.8188 2.28343C37.1343 1.43964 36.7862 1.01577 36.7744 1.01183L36.7508 1H35.1163ZM67.9639 32.382V32.8079H68.6012V35.978H67.9639V36.4038H71.7286V36.3861C71.7325 36.3782 71.7777 36.0884 71.8643 35.5167C71.9508 34.9489 71.9961 34.661 72 34.6532V34.6354H71.5751V34.6532C71.5673 34.6689 71.5594 34.7162 71.5515 34.7951C71.5004 35.0908 71.4394 35.3077 71.3686 35.4457C71.3371 35.5127 71.3116 35.5581 71.2919 35.5817C71.1267 35.8144 70.8434 35.9445 70.4422 35.9721C70.4068 35.976 70.2494 35.978 69.9701 35.978H69.5866V34.529H69.6928C69.8738 34.529 70.0055 34.5506 70.0882 34.594C70.155 34.6216 70.2042 34.665 70.2357 34.7241C70.2907 34.8148 70.3183 34.9548 70.3183 35.1441V35.2209H70.7431V33.4111H70.3183V33.488C70.3183 33.6773 70.2907 33.8173 70.2357 33.9079C70.2042 33.9671 70.155 34.0105 70.0882 34.0381C70.0055 34.0814 69.8738 34.1031 69.6928 34.1031H69.5866V32.8079H69.9583C70.2494 32.8079 70.4481 32.8138 70.5543 32.8256C70.8848 32.8729 71.111 33.0208 71.2329 33.2692C71.2919 33.4032 71.3391 33.5984 71.3745 33.8547L71.3863 33.9553H71.8112V33.9316C71.8033 33.904 71.7738 33.6497 71.7227 33.1686C71.6637 32.6758 71.6322 32.4214 71.6282 32.4057V32.382H67.9639ZM37.2012 64.8168C37.3664 64.801 37.5257 64.8069 37.6792 64.8345C37.8955 64.8661 38.1001 64.9449 38.2929 65.0711C38.3165 65.0908 38.3342 65.0987 38.346 65.0948C38.3656 65.0751 38.4168 65.0297 38.4994 64.9588C38.6017 64.872 38.6548 64.8267 38.6587 64.8227C38.6705 64.8148 38.698 64.8109 38.7413 64.8109C38.7885 64.8109 38.818 64.8148 38.8298 64.8227C38.8495 64.8345 38.8613 64.8621 38.8652 64.9055C38.8692 64.9607 38.8711 65.1658 38.8711 65.5206C38.8711 65.9622 38.8574 66.1929 38.8298 66.2126C38.8141 66.2205 38.757 66.2244 38.6587 66.2244C38.5604 66.2244 38.5033 66.2205 38.4876 66.2126C38.464 66.2008 38.4482 66.1594 38.4404 66.0884C38.4168 65.9622 38.3794 65.8459 38.3283 65.7395C38.281 65.6409 38.2161 65.5541 38.1335 65.4792C37.9644 65.3136 37.7283 65.2249 37.4254 65.2131C37.1029 65.2012 36.8983 65.3077 36.8118 65.5324C36.7921 65.5876 36.7823 65.6507 36.7823 65.7217C36.7823 65.8006 36.796 65.8696 36.8236 65.9287C36.8826 66.0509 36.9888 66.1416 37.1422 66.2008C37.1697 66.2166 37.3212 66.252 37.5966 66.3072C37.8798 66.3664 38.0372 66.4019 38.0686 66.4137C38.2417 66.4571 38.3971 66.53 38.5348 66.6325C38.818 66.8415 38.9891 67.1274 39.0481 67.4901C39.0639 67.6005 39.0639 67.7385 39.0481 67.9041C39.0245 68.054 38.9793 68.1979 38.9124 68.3359C38.8338 68.4976 38.7295 68.6277 38.5997 68.7262C38.4187 68.8642 38.2004 68.951 37.9447 68.9865C37.8464 69.0023 37.6949 69.0042 37.4903 68.9924C37.4707 68.9885 37.4549 68.9865 37.4431 68.9865C37.1048 68.951 36.8334 68.8662 36.6288 68.7322C36.6052 68.7164 36.5875 68.7105 36.5757 68.7144C36.5561 68.7341 36.5049 68.7795 36.4223 68.8504C36.32 68.9372 36.2669 68.9825 36.263 68.9865C36.2512 68.9944 36.2236 68.9983 36.1804 68.9983C36.1332 68.9983 36.1037 68.9944 36.0919 68.9865C36.0722 68.9747 36.0604 68.947 36.0565 68.9037C36.0525 68.8485 36.0506 68.6454 36.0506 68.2945C36.0506 67.8647 36.0545 67.6439 36.0624 67.6321C36.0663 67.6242 36.0742 67.6143 36.086 67.6025C36.1056 67.5907 36.1627 67.5848 36.2571 67.5848C36.3594 67.5848 36.4184 67.5887 36.4341 67.5966C36.4616 67.6124 36.4754 67.6538 36.4754 67.7208C36.4872 67.9337 36.562 68.1092 36.6996 68.2472C36.8019 68.3497 36.9435 68.4305 37.1245 68.4897C37.3566 68.5646 37.5887 68.5902 37.8208 68.5666C37.8523 68.5626 37.8798 68.5587 37.9034 68.5547C38.0135 68.5311 38.104 68.4838 38.1748 68.4128C38.2535 68.3339 38.3047 68.2275 38.3283 68.0934C38.3597 67.8923 38.3047 67.7208 38.163 67.5788C38.104 67.5118 38.0273 67.4645 37.9329 67.4369C37.9172 67.429 37.7598 67.3916 37.4608 67.3245C37.1776 67.2693 37.0163 67.2338 36.977 67.2181C36.6859 67.1353 36.4577 66.9795 36.2925 66.7508C36.1233 66.5261 36.0427 66.2737 36.0506 65.9938C36.0624 65.7138 36.145 65.4733 36.2984 65.2722C36.4439 65.0751 36.6564 64.939 36.9357 64.8641C37.0301 64.8405 37.1186 64.8247 37.2012 64.8168ZM16.2004 28.9122L16.7905 28.8136L17.1838 29.2079L16.5938 29.3065L16.2004 28.9122ZM18.474 23.6839L19.0681 23.7546L19.3357 24.2435L18.7417 24.1727L18.474 23.6839ZM21.8619 19.0907L22.4399 19.2457L22.6353 19.7677L22.0574 19.6128L21.8619 19.0907ZM26.4809 15.5824L26.9998 15.8809L27.0549 16.4357L26.5361 16.1373L26.4809 15.5824ZM31.8781 13.3889L32.2696 13.8422L32.139 14.3843L31.7474 13.9309L31.8781 13.3889ZM43.2163 13.3675L43.3049 13.9605L42.9051 14.3483L42.8165 13.7553L43.2163 13.3675ZM48.597 15.5708L48.5272 16.1663L48.0399 16.4352L48.1097 15.8397L48.597 15.5708ZM53.1216 19.0297L52.9381 19.6004L52.408 19.7696L52.5915 19.1989L53.1216 19.0297ZM56.5008 23.6534L56.1736 24.1553L55.6177 24.1784L55.945 23.6765L56.5008 23.6534ZM58.7532 29.0597L58.2851 29.4331L57.7502 29.2799L58.2183 28.9065L58.7532 29.0597ZM58.902 40.3111L58.3247 40.4684L57.8939 40.1155L58.4712 39.9582L58.902 40.3111ZM56.5404 45.6793L55.9422 45.6792L55.6188 45.2254L56.2171 45.2255L56.5404 45.6793ZM53.1246 50.197L52.5499 50.0304L52.365 49.5045L52.9397 49.6711L53.1246 50.197ZM48.6764 53.907L48.1656 53.595L48.125 53.0389L48.6358 53.3508L48.6764 53.907ZM43.2031 55.969L42.7833 55.5418L42.8789 54.9924L43.2987 55.4196L43.2031 55.969ZM31.8773 55.9367L31.7551 55.3497L32.1322 54.9398L32.2544 55.5267L31.8773 55.9367ZM26.4544 53.9218L26.4718 53.3225L26.9337 53.0117L26.9163 53.611L26.4544 53.9218ZM21.8803 50.3133L22.0693 49.7444L22.601 49.5803L22.4119 50.1492L21.8803 50.3133ZM18.4316 45.6303L18.7926 45.1522L19.3487 45.1676L18.9877 45.6457L18.4316 45.6303ZM16.2289 40.3995L16.6846 40.011L17.2242 40.1468L16.7685 40.5352L16.2289 40.3995Z" stroke="#B68D40" stroke-width="0.2"/>
</svg>
