<svg width="107" height="58" viewBox="0 0 107 58" fill="none" xmlns="http://www.w3.org/2000/svg">
<path d="M24.0636 13.88C24.5169 14.0933 24.9969 14.3733 25.5036 14.72C26.0103 15.04 26.4769 15.3867 26.9036 15.76C27.3303 16.1067 27.6903 16.4533 27.9836 16.8C28.2769 17.12 28.4236 17.3733 28.4236 17.56C28.0503 17.48 27.6369 17.4133 27.1836 17.36C26.7569 17.3067 26.3436 17.28 25.9436 17.28C24.5036 17.28 23.1036 17.6 21.7436 18.24C20.3836 18.8533 19.0903 19.7467 17.8636 20.92C16.6369 22.0933 15.5036 23.5333 14.4636 25.24C13.4503 26.92 12.5703 28.8267 11.8236 30.96C11.2103 32.7467 10.7169 34.52 10.3436 36.28C9.97026 38.0133 9.78359 39.4667 9.78359 40.64C9.78359 42.1333 10.0903 42.9067 10.7036 42.96C10.8636 42.96 11.1303 42.9867 11.5036 43.04C11.9036 43.12 12.3169 43.2133 12.7436 43.32C13.1969 43.4267 13.6369 43.5333 14.0636 43.64C14.5169 43.7733 14.8903 43.8933 15.1836 44C16.1969 43.9467 17.3836 43.48 18.7436 42.6C20.1036 41.72 21.4369 40.5467 22.7436 39.08C23.8903 37.8 24.9169 36.4 25.8236 34.88C26.7569 33.3333 27.5436 31.72 28.1836 30.04C28.8236 28.3333 29.3036 26.5867 29.6236 24.8C29.9703 23.0133 30.1436 21.24 30.1436 19.48C30.1436 18.9467 30.1303 18.4267 30.1036 17.92C30.0769 17.4133 30.0369 17.0667 29.9836 16.88C31.0769 17.4133 31.8503 18.04 32.3036 18.76C32.7569 19.48 32.9836 20.4 32.9836 21.52C32.9836 23.12 32.7303 24.84 32.2236 26.68C31.7169 28.52 31.0103 30.36 30.1036 32.2C29.2236 34.04 28.1703 35.8133 26.9436 37.52C25.7169 39.2 24.3836 40.7067 22.9436 42.04C21.0503 43.8 19.5036 44.7867 18.3036 45C19.0236 45.3733 19.8503 45.7733 20.7836 46.2C21.7169 46.6533 22.6236 47.0667 23.5036 47.44C24.3836 47.84 25.1703 48.1733 25.8636 48.44C26.5569 48.7067 27.0236 48.8533 27.2636 48.88C27.5303 48.8533 27.8769 48.68 28.3036 48.36C28.7303 48.0667 29.0903 47.7067 29.3836 47.28C29.5169 47.44 29.6369 47.6533 29.7436 47.92C29.8769 48.1867 29.9569 48.3867 29.9836 48.52C29.8769 48.8933 29.6503 49.32 29.3036 49.8C28.9836 50.3067 28.6103 50.7867 28.1836 51.24C27.7569 51.72 27.3169 52.1333 26.8636 52.48C26.4369 52.8267 26.0636 53.04 25.7436 53.12C25.2903 53.0933 24.8636 53.0267 24.4636 52.92C24.0903 52.84 23.6769 52.6933 23.2236 52.48C22.7703 52.2933 22.2636 52.0133 21.7036 51.64C21.1436 51.2933 20.4503 50.84 19.6236 50.28C18.1569 49.2667 16.8769 48.4267 15.7836 47.76C14.6903 47.0933 13.6903 46.56 12.7836 46.16C11.8769 45.76 11.0236 45.48 10.2236 45.32C9.42359 45.16 8.59693 45.08 7.74359 45.08C4.75693 45.08 3.10359 46.08 2.78359 48.08C2.38359 47.8933 2.15693 47.64 2.10359 47.32C2.26359 45.96 2.75693 44.92 3.58359 44.2C4.43693 43.48 5.74359 43.0133 7.50359 42.8C6.27693 41.7333 5.66359 39.8667 5.66359 37.2C5.66359 35.3333 5.87693 33.4533 6.30359 31.56C6.75693 29.64 7.35693 27.8 8.10359 26.04C8.87693 24.28 9.77026 22.64 10.7836 21.12C11.8236 19.5733 12.9303 18.2267 14.1036 17.08C15.3036 15.9333 16.5436 15.04 17.8236 14.4C19.1036 13.7333 20.3703 13.4 21.6236 13.4C22.0769 13.4 22.4903 13.44 22.8636 13.52C23.2636 13.6 23.6636 13.72 24.0636 13.88ZM43.4202 42.12C42.9135 41.6933 42.5668 41.16 42.3802 40.52C42.2202 39.88 42.1402 39.3333 42.1402 38.88C42.1402 38.32 42.2068 37.84 42.3402 37.44C42.2335 37.44 41.9935 37.6533 41.6202 38.08C41.2468 38.5067 40.8335 39.0133 40.3802 39.6C39.9535 40.1867 39.5268 40.76 39.1002 41.32C38.6735 41.88 38.3535 42.2933 38.1402 42.56C37.7935 42.9333 37.4602 43.2267 37.1402 43.44C36.8468 43.6533 36.6068 43.7733 36.4202 43.8C35.9935 43.7733 35.5402 43.68 35.0602 43.52C34.6068 43.3867 34.1668 43.1867 33.7402 42.92C33.3402 42.6533 32.9802 42.3333 32.6602 41.96C32.3668 41.5867 32.1668 41.16 32.0602 40.68C32.0602 39.9333 32.0735 39.32 32.1002 38.84C32.1535 38.36 32.2468 37.84 32.3802 37.28C32.6202 36.2667 32.9668 35.12 33.4202 33.84C33.9002 32.56 34.4468 31.3067 35.0602 30.08C35.6735 28.8267 36.3535 27.6667 37.1002 26.6C37.8735 25.5067 38.6868 24.6533 39.5402 24.04C39.7802 24.04 40.0602 24.0667 40.3802 24.12C40.7002 24.1467 41.0202 24.2133 41.3402 24.32C41.6868 24.4267 42.0068 24.56 42.3002 24.72C42.6202 24.8533 42.8868 25.04 43.1002 25.28C42.8602 25.5467 42.2468 26.44 41.2602 27.96C40.3002 29.48 39.2202 31.6667 38.0202 34.52C37.8868 34.8133 37.7268 35.24 37.5402 35.8C37.3535 36.36 37.1668 36.9467 36.9802 37.56C36.7935 38.1733 36.6335 38.7733 36.5002 39.36C36.3935 39.9467 36.3402 40.4133 36.3402 40.76C36.3402 40.9733 36.3668 41.1333 36.4202 41.24C36.5002 41.3467 36.5668 41.4267 36.6202 41.48C37.0202 41.32 37.5268 40.88 38.1402 40.16C38.7535 39.44 39.6068 38.3333 40.7002 36.84C40.9668 36.4667 41.2735 36.04 41.6202 35.56C41.9935 35.08 42.3668 34.5733 42.7402 34.04C43.1135 33.48 43.4602 32.9067 43.7802 32.32C44.1268 31.7333 44.4068 31.1467 44.6202 30.56C44.7268 30.24 44.8602 29.8667 45.0202 29.44C45.2068 28.9867 45.4202 28.52 45.6602 28.04C45.9268 27.56 46.2202 27.08 46.5402 26.6C46.8868 26.0933 47.2868 25.6267 47.7402 25.2C48.0868 25.2 48.4602 25.24 48.8602 25.32C49.2602 25.4 49.6335 25.5067 49.9802 25.64C50.3535 25.7467 50.6735 25.88 50.9402 26.04C51.2068 26.1733 51.4068 26.32 51.5402 26.48C51.0602 27.6533 50.5268 28.8133 49.9402 29.96C49.3535 31.1067 48.8068 32.24 48.3002 33.36C47.7935 34.4533 47.3668 35.5467 47.0202 36.64C46.6735 37.7333 46.5002 38.8 46.5002 39.84C46.5002 40.4 46.5402 40.8933 46.6202 41.32C46.7268 41.72 46.8335 42.0667 46.9402 42.36C47.0468 42.6267 47.1402 42.8533 47.2202 43.04C47.3268 43.2267 47.3802 43.3867 47.3802 43.52C47.3802 43.5467 47.3535 43.5867 47.3002 43.64C47.2735 43.6667 47.2468 43.68 47.2202 43.68C47.0335 43.68 46.7935 43.64 46.5002 43.56C46.2068 43.48 45.8735 43.36 45.5002 43.2C45.1535 43.0667 44.7935 42.9067 44.4202 42.72C44.0735 42.5333 43.7402 42.3333 43.4202 42.12ZM51.3458 42.2C51.4791 41.4267 51.7058 40.4133 52.0258 39.16C52.3724 37.88 52.7724 36.5333 53.2258 35.12C53.6791 33.68 54.1591 32.24 54.6658 30.8C55.1724 29.36 55.6658 28.0667 56.1458 26.92C56.4924 26.0933 56.7991 25.4533 57.0658 25C57.3324 24.52 57.6258 24.12 57.9458 23.8C58.3191 23.8533 58.7058 23.9467 59.1058 24.08C59.5058 24.2133 59.8924 24.3733 60.2658 24.56C60.6391 24.7467 60.9724 24.9467 61.2658 25.16C61.5591 25.3467 61.7858 25.5333 61.9458 25.72C61.2258 26.5733 60.5858 27.5467 60.0258 28.64C59.4924 29.7333 58.9458 31.1333 58.3858 32.84C59.8258 31.56 61.0924 30.3333 62.1858 29.16C63.3058 27.9867 64.3458 26.68 65.3058 25.24C65.4658 25.1067 65.7458 25.04 66.1458 25.04C66.5191 25.04 66.8791 25.1067 67.2258 25.24C67.5724 25.3467 67.8124 25.5067 67.9458 25.72C67.4658 27 67.2258 28.2667 67.2258 29.52C67.2258 30.6933 67.3991 31.5733 67.7458 32.16C67.7191 32.32 67.5324 32.6267 67.1858 33.08C66.8658 33.5333 66.5058 33.96 66.1058 34.36C65.3858 33.9867 64.7458 33.48 64.1858 32.84C63.6258 32.1733 63.2124 31.4533 62.9458 30.68C61.6924 31.56 60.6258 32.4267 59.7458 33.28C58.8658 34.1067 58.1058 35.04 57.4658 36.08C56.8524 37.0933 56.3191 38.2667 55.8658 39.6C55.4391 40.9333 55.0258 42.52 54.6258 44.36C54.3858 44.3333 54.0924 44.24 53.7458 44.08C53.4258 43.9467 53.0924 43.7733 52.7458 43.56C52.4258 43.3467 52.1324 43.12 51.8658 42.88C51.5991 42.64 51.4258 42.4133 51.3458 42.2ZM73.1586 44.4C71.6386 44.24 70.4253 43.5733 69.5186 42.4C68.6119 41.2267 68.1586 39.7333 68.1586 37.92C68.1586 36.8533 68.3186 35.7467 68.6386 34.6C68.9586 33.4533 69.4119 32.3467 69.9986 31.28C70.5853 30.1867 71.2786 29.16 72.0786 28.2C72.8786 27.24 73.7453 26.4133 74.6786 25.72C76.1453 24.6267 77.5186 24.08 78.7986 24.08C79.6519 24.5333 80.4919 25.48 81.3186 26.92C81.4519 26.92 81.5719 26.92 81.6786 26.92C81.7853 26.8933 81.9053 26.88 82.0386 26.88C83.4519 26.88 84.1586 28.1333 84.1586 30.64C84.1586 32.32 83.8786 33.92 83.3186 35.44C82.7853 36.9333 82.0253 38.2933 81.0386 39.52C80.0786 40.7467 78.9186 41.7867 77.5586 42.64C76.2253 43.4667 74.7586 44.0533 73.1586 44.4ZM75.1986 31.8C74.7453 32.4133 74.3186 33.08 73.9186 33.8C73.5186 34.52 73.1719 35.2533 72.8786 36C72.5853 36.72 72.3586 37.4267 72.1986 38.12C72.0386 38.7867 71.9586 39.3867 71.9586 39.92C71.9586 40.56 72.0653 41.1733 72.2786 41.76C72.4919 42.3467 72.7319 42.68 72.9986 42.76C74.1986 42.4933 75.2919 42 76.2786 41.28C77.2919 40.5333 78.1586 39.6133 78.8786 38.52C79.6253 37.4267 80.1986 36.1867 80.5986 34.8C81.0253 33.4133 81.2386 31.9333 81.2386 30.36C81.2386 29.6667 81.1986 29.12 81.1186 28.72C81.0386 28.32 80.9053 27.9733 80.7186 27.68C79.5453 28.0267 78.4919 28.5867 77.5586 29.36C76.6519 30.1333 75.8653 30.9467 75.1986 31.8ZM92.5748 23.6C93.2682 23.8133 93.9215 24.2933 94.5348 25.04C95.1482 25.76 95.6015 26.56 95.8948 27.44C95.6015 28.16 95.1482 29.0267 94.5348 30.04C93.9215 31.0533 93.3082 32.0933 92.6948 33.16C92.0815 34.2 91.5215 35.2 91.0148 36.16C90.5348 37.0933 90.2548 37.8667 90.1748 38.48C90.6015 38.0267 91.0682 37.5067 91.5748 36.92C92.1082 36.3067 92.6148 35.7067 93.0948 35.12C93.6015 34.5067 94.0682 33.96 94.4948 33.48C94.9215 32.9733 95.2548 32.6 95.4948 32.36C96.0015 31.8267 96.6015 31.2133 97.2948 30.52C97.9882 29.8 98.7082 29.1333 99.4548 28.52C100.228 27.88 101.002 27.3467 101.775 26.92C102.548 26.4667 103.255 26.24 103.895 26.24C104.588 26.24 105.162 26.48 105.615 26.96C106.095 27.4133 106.468 27.8933 106.735 28.4C106.735 28.4533 106.628 28.5333 106.415 28.64C106.228 28.72 105.948 28.9733 105.575 29.4C105.202 29.88 104.775 30.5467 104.295 31.4C103.842 32.2267 103.388 33.1333 102.935 34.12C102.508 35.08 102.148 36.0667 101.855 37.08C101.562 38.0933 101.415 39.0133 101.415 39.84C101.415 40.5067 101.495 40.9333 101.655 41.12C101.842 41.3067 102.095 41.4 102.415 41.4C102.708 41.4 103.015 41.3333 103.335 41.2C103.655 41.0667 103.908 41 104.095 41C104.202 41.0533 104.282 41.1733 104.335 41.36C104.415 41.52 104.455 41.6667 104.455 41.8C104.242 41.9867 103.988 42.1733 103.695 42.36C103.402 42.5467 103.095 42.72 102.775 42.88C102.455 43.04 102.135 43.1733 101.815 43.28C101.522 43.3867 101.255 43.44 101.015 43.44C100.242 43.44 99.6015 43.32 99.0948 43.08C98.6148 42.8667 98.2282 42.5733 97.9348 42.2C97.6682 41.8267 97.4815 41.3867 97.3748 40.88C97.2682 40.3467 97.2148 39.7867 97.2148 39.2C97.2148 38.88 97.2415 38.52 97.2948 38.12C97.3482 37.72 97.4548 37.2533 97.6148 36.72C97.7748 36.16 98.0015 35.5067 98.2948 34.76C98.5882 33.9867 98.9615 33.0667 99.4148 32C99.3615 32 99.0015 32.1867 98.3348 32.56C97.6682 32.9333 96.9482 33.5067 96.1748 34.28C94.9215 35.48 93.7882 36.6667 92.7748 37.84C91.7882 39.0133 90.7748 40.32 89.7348 41.76C89.1482 42.5867 88.6282 43.28 88.1748 43.84C87.7482 44.4267 87.3748 44.8133 87.0548 45C86.4948 44.68 86.0815 44.2267 85.8148 43.64C85.5482 43.08 85.3482 42.4933 85.2148 41.88C85.2148 41.3733 85.2815 40.7333 85.4148 39.96C85.5748 39.1867 85.7748 38.3333 86.0148 37.4C86.2815 36.44 86.6015 35.44 86.9748 34.4C87.3482 33.36 87.7615 32.32 88.2148 31.28C89.2282 28.9333 90.1482 27.0933 90.9748 25.76C91.8282 24.4267 92.3615 23.7067 92.5748 23.6Z" fill="#B68D40"/>
</svg>
