<svg width="77" height="42" viewBox="0 0 77 42" fill="none" xmlns="http://www.w3.org/2000/svg">
<path d="M38 26L74 11.5L73.8073 11.0181C73.3727 9.93174 72.1024 9.44879 71.0559 9.97206L70 10.5V2.04354C70 1.21159 69.0299 0.731707 68.3304 1.1821C57.7772 7.97723 44.5759 4.56755 38 16.5C31.5692 4.58257 18.9233 7.5084 7.59073 0.986301C6.89839 0.587849 6 1.07025 6 1.86905V10.5L4.79786 9.9848C3.71008 9.5186 2.5 10.3165 2.5 11.5L38 26Z" fill="#B68D40"/>
<path d="M19 42L38 32L57 42H65.6265C66.6593 42 67.0143 40.6249 66.1105 40.125L46 29L75.226 16.7439C76.2035 16.334 76.6598 15.2061 76.2422 14.2318C75.8308 13.2718 74.724 12.8207 73.7587 13.2197L38 28L2.55271 13.5412C1.33396 13.0441 0 13.9407 0 15.2569C0 16.0089 0.454452 16.6863 1.15024 16.9714L30.5 29L9.96946 40.1207C9.05714 40.6149 9.40817 42 10.4457 42H19Z" fill="#B68D40"/>
<path d="M38 26L74 11.5L73.8073 11.0181C73.3727 9.93174 72.1024 9.44879 71.0559 9.97206L70 10.5V2.04354C70 1.21159 69.0299 0.731707 68.3304 1.1821C57.7772 7.97723 44.5759 4.56755 38 16.5C31.5692 4.58257 18.9233 7.5084 7.59073 0.986301C6.89839 0.587849 6 1.07025 6 1.86905V10.5L4.79786 9.9848C3.71008 9.5186 2.5 10.3165 2.5 11.5L38 26Z" stroke="#B68D40"/>
<path d="M19 42L38 32L57 42H65.6265C66.6593 42 67.0143 40.6249 66.1105 40.125L46 29L75.226 16.7439C76.2035 16.334 76.6598 15.2061 76.2422 14.2318C75.8308 13.2718 74.724 12.8207 73.7587 13.2197L38 28L2.55271 13.5412C1.33396 13.0441 0 13.9407 0 15.2569C0 16.0089 0.454452 16.6863 1.15024 16.9714L30.5 29L9.96946 40.1207C9.05714 40.6149 9.40817 42 10.4457 42H19Z" stroke="#B68D40"/>
</svg>
