<svg width="23" height="18" viewBox="0 0 23 18" fill="none" xmlns="http://www.w3.org/2000/svg">
<path d="M20.4995 9.99994V8.29294C20.4995 3.85094 16.715 0.131941 12.0634 0.00294118C9.66576 -0.0480588 7.43896 0.738941 5.73649 2.25894C4.89716 3.00226 4.23031 3.89417 3.77618 4.88086C3.32204 5.86755 3.09003 6.92858 3.09413 7.99994V9.99994C1.89425 9.99994 0.918457 10.8969 0.918457 11.9999V15.9999C0.918457 17.1029 1.89425 17.9999 3.09413 17.9999H5.26981V7.99994C5.2666 7.19643 5.44047 6.40065 5.78093 5.66059C6.12139 4.92053 6.62139 4.25153 7.25076 3.69394C7.87749 3.13312 8.62086 2.6943 9.43638 2.40374C10.2519 2.11318 11.1228 1.97686 11.997 2.00294C15.4868 2.09894 18.3239 4.92094 18.3239 8.29294V17.9999H20.4995C21.6994 17.9999 22.6752 17.1029 22.6752 15.9999V11.9999C22.6752 10.8969 21.6994 9.99994 20.4995 9.99994Z" fill="#B68D40"/>
<path d="M6.35742 10H8.5331V18H6.35742V10ZM15.0601 10H17.2358V18H15.0601V10Z" fill="#B68D40"/>
</svg>
