<svg width="237" height="132" viewBox="0 0 237 132" fill="none" xmlns="http://www.w3.org/2000/svg">
<path d="M50.713 108.06C49.3894 108.487 47.9219 108.504 46.7174 107.809C44.5799 106.575 44.1417 105.154 44.5239 102.508V102.508C42.8803 103.056 42.0634 104.953 43.0344 106.388C43.9981 107.812 45.0942 108.974 46.6272 110.246C47.9176 111.316 49.57 111.855 51.2463 111.812C56.4411 111.679 59.0354 110.851 62.1261 108.72C61.1055 110.641 61.1623 111.76 61.9889 113.6C62.061 113.76 62.2573 113.822 62.4081 113.731C64.083 112.73 65.0044 111.892 66.2679 109.756C66.2159 114.032 66.9848 113.977 70.4096 114.933C67.5199 110.86 68.053 109.221 70.1985 106.254C70.9963 105.151 72.1264 104.331 73.4058 103.866L78.5781 101.985C81.3347 100.982 84.3491 100.942 87.1317 101.869L104.174 107.55C104.308 107.435 104.443 107.326 104.579 107.223V104.508C104.579 103.403 105.474 102.508 106.579 102.508H108.791C109.896 102.508 110.791 103.403 110.791 104.508V105.614H111.827V103.472C111.827 102.368 110.931 101.472 109.827 101.472H105.543C104.439 101.472 103.543 102.368 103.543 103.472V106.65C98.7741 103.748 93.5326 101.584 86.7262 99.7769C82.8461 98.747 78.7539 99.0145 74.9333 100.247L50.713 108.06Z" fill="url(#paint0_radial_692_1738)"/>
<path fill-rule="evenodd" clip-rule="evenodd" d="M118.04 111.827V108.721C115.458 105.74 114.164 105.799 111.827 105.614H110.791C108.063 105.589 106.223 105.979 104.579 107.223V107.685L104.174 107.55C103.27 108.327 102.41 109.382 101.473 110.791C94.423 108.167 92.2423 105.859 84.6309 104.117C82.7932 103.696 80.8384 103.854 79.1738 104.739C77.1411 105.82 75.7483 107.075 74.4009 109.235C73.7981 110.201 73.7054 111.42 74.2151 112.438C75.05 114.107 76.2503 115.417 79.1381 117.128C80.1191 117.709 81.351 117.62 82.2789 116.957L86.2804 114.099C87.2189 113.429 87.4133 112.09 86.6216 111.251C84.8307 109.354 83.7232 109.09 81.7994 109.756C83.0247 110.067 83.7478 110.456 84.3965 111.688C84.7601 112.378 84.5523 113.216 84.0005 113.767L82.2759 115.492C81.3711 116.397 79.9668 116.664 78.906 115.948C77.392 114.927 76.4786 113.802 75.488 112.283C74.8942 111.372 74.8544 110.185 75.4804 109.296C77.1885 106.871 79.0768 106.022 82.8348 105.614C87.5143 105.758 93.9739 109.592 101.473 112.862C101.611 115.305 101.827 117.608 105.431 119.531C106.15 119.915 107.027 119.733 107.604 119.156L110.252 116.508C110.55 116.21 110.55 115.727 110.252 115.429V115.429C109.972 115.149 109.522 115.134 109.211 115.381C104.883 118.812 103.35 117.017 102.508 112.862C108.785 113.743 111.601 112.063 112.862 106.65H114.933L118.04 111.827ZM102.508 111.827C105.324 107.593 107.417 106.549 111.827 106.65C109.582 111.782 107.624 113.001 102.508 111.827Z" fill="url(#paint1_radial_692_1738)"/>
<path d="M118.04 114.933V111.827C116.112 115.763 116.189 118.074 110.791 119.075C111.96 121.038 112.806 121.636 114.933 121.146C115.325 125.201 115.718 127.472 118.04 131.5V125.287C116.703 121.107 116.953 118.865 118.04 114.933Z" fill="url(#paint2_radial_692_1738)"/>
<path d="M115.969 98.3662C116.06 94.792 116.696 93.3936 118.04 91.1182V105.614C115.723 100.811 114.342 99.4138 111.827 99.4015C113.365 97.8121 114.277 97.3638 115.969 98.3662Z" fill="url(#paint3_radial_692_1738)"/>
<path d="M185.366 108.06C186.69 108.487 188.157 108.504 189.362 107.809C191.499 106.575 191.937 105.154 191.555 102.508V102.508C193.199 103.056 194.016 104.953 193.045 106.388C192.081 107.812 190.985 108.974 189.452 110.246C188.161 111.316 186.509 111.855 184.833 111.812C179.638 111.679 177.044 110.851 173.953 108.72C174.974 110.641 174.917 111.76 174.09 113.6C174.018 113.76 173.822 113.822 173.671 113.731C171.996 112.73 171.075 111.892 169.811 109.756C169.863 114.032 169.094 113.977 165.669 114.933C168.559 110.86 168.026 109.221 165.881 106.254C165.083 105.151 163.953 104.331 162.673 103.866L157.501 101.985C154.744 100.982 151.73 100.942 148.947 101.869L131.905 107.55C131.771 107.435 131.636 107.326 131.5 107.223V104.508C131.5 103.403 130.605 102.508 129.5 102.508H127.288C126.183 102.508 125.288 103.403 125.288 104.508V105.614H124.252V103.472C124.252 102.368 125.148 101.472 126.252 101.472H130.536C131.64 101.472 132.536 102.368 132.536 103.472V106.65C137.305 103.748 142.547 101.584 149.353 99.7769C153.233 98.747 157.325 99.0145 161.146 100.247L185.366 108.06Z" fill="url(#paint4_radial_692_1738)"/>
<path fill-rule="evenodd" clip-rule="evenodd" d="M118.04 111.827V108.721C120.621 105.74 121.915 105.799 124.252 105.614H125.288C128.016 105.589 129.856 105.979 131.5 107.223V107.685L131.905 107.55C132.809 108.327 133.669 109.382 134.607 110.791C141.656 108.167 143.837 105.859 151.448 104.117C153.286 103.696 155.241 103.854 156.905 104.739C158.938 105.82 160.331 107.075 161.678 109.235C162.281 110.201 162.374 111.42 161.864 112.438C161.029 114.107 159.829 115.417 156.941 117.128C155.96 117.709 154.728 117.62 153.8 116.957L149.799 114.099C148.86 113.429 148.666 112.09 149.457 111.251C151.248 109.354 152.356 109.09 154.28 109.756C153.054 110.067 152.331 110.456 151.683 111.688C151.319 112.378 151.527 113.216 152.079 113.767L153.803 115.492C154.708 116.397 156.112 116.664 157.173 115.948C158.687 114.927 159.601 113.802 160.591 112.283C161.185 111.372 161.225 110.185 160.599 109.296C158.891 106.871 157.002 106.022 153.244 105.614C148.565 105.758 142.105 109.592 134.607 112.862C134.468 115.305 134.252 117.608 130.648 119.531C129.929 119.915 129.052 119.733 128.475 119.156L125.827 116.508C125.529 116.21 125.529 115.727 125.827 115.429V115.429C126.107 115.149 126.557 115.134 126.868 115.381C131.196 118.812 132.729 117.017 133.571 112.862C127.294 113.743 124.479 112.063 123.217 106.65H121.146L118.04 111.827ZM133.571 111.827C130.755 107.593 128.662 106.549 124.252 106.65C126.497 111.782 128.455 113.001 133.571 111.827Z" fill="url(#paint5_radial_692_1738)"/>
<path d="M118.04 114.933V111.827C119.967 115.763 119.89 118.074 125.288 119.075C124.119 121.038 123.273 121.636 121.146 121.146C120.755 125.201 120.362 127.472 118.04 131.5V125.287C119.376 121.107 119.126 118.865 118.04 114.933Z" fill="url(#paint6_radial_692_1738)"/>
<path d="M120.11 98.3662C120.019 94.792 119.383 93.3936 118.04 91.1182V105.614C120.356 100.811 121.737 99.4138 124.252 99.4015C122.714 97.8121 121.802 97.3638 120.11 98.3662Z" fill="url(#paint7_radial_692_1738)"/>
<path d="M68.7344 64.7305C68.7344 64.5586 68.5553 64.4512 68.1973 64.4082C67.8392 64.3652 67.3021 64.3366 66.5859 64.3223C65.8841 64.3079 65.1536 64.3008 64.3945 64.3008C64.0938 64.3008 63.6068 64.3223 62.9336 64.3652C62.2747 64.3939 61.4297 64.444 60.3984 64.5156C60.3125 64.5156 59.9258 65.0885 59.2383 66.2344C58.7799 66.9935 58.3145 67.8171 57.8418 68.7051C57.3835 69.5931 56.9967 70.4023 56.6816 71.1328C56.3809 71.849 56.2305 72.3503 56.2305 72.6367C56.2305 72.9232 56.3809 73.1667 56.6816 73.3672C56.9967 73.5677 57.3405 73.7181 57.7129 73.8184C58.0996 73.9186 58.3932 73.9688 58.5938 73.9688C58.651 73.9688 58.6797 74.0547 58.6797 74.2266C58.6797 74.556 58.6081 74.8568 58.4648 75.1289C57.1328 75.0573 56.123 75.0072 55.4355 74.9785C54.7624 74.9355 54.4115 74.9141 54.3828 74.9141C54.125 74.9141 53.7025 74.9284 53.1152 74.957C52.528 74.9857 51.9479 75.0143 51.375 75.043C50.8021 75.0859 50.401 75.1146 50.1719 75.1289C50.1146 75.0716 50.0859 74.957 50.0859 74.7852C50.0859 74.2409 50.1862 73.9688 50.3867 73.9688C50.7018 73.9688 51.1387 73.8828 51.6973 73.7109C52.2559 73.5391 52.6497 73.3242 52.8789 73.0664C53.5091 72.3646 54.3828 71.0182 55.5 69.0273L67.3594 47.7148C67.7891 46.9414 68.3477 46.5547 69.0352 46.5547C69.1641 46.5547 69.2786 46.5833 69.3789 46.6406L72.9453 69.3281C73.2318 71.1328 73.4036 72.1641 73.4609 72.4219C73.5182 72.7083 73.7116 72.9733 74.041 73.2168C74.3704 73.446 74.7214 73.6322 75.0938 73.7754C75.4805 73.9043 75.7669 73.9688 75.9531 73.9688C76.0104 73.9688 76.0391 74.0404 76.0391 74.1836C76.0391 74.5417 75.9674 74.8568 75.8242 75.1289C74.4922 75.0573 73.4538 75.0072 72.709 74.9785C71.9642 74.9355 71.513 74.9141 71.3555 74.9141C71.0833 74.9141 70.8184 74.9212 70.5605 74.9355C70.3171 74.9355 70.0736 74.9427 69.8301 74.957C69.3861 74.9857 68.8633 75.0143 68.2617 75.043C67.6745 75.0716 67.1732 75.1003 66.7578 75.1289C66.7292 75.1003 66.7148 75.0143 66.7148 74.8711C66.7148 74.2695 66.8151 73.9688 67.0156 73.9688C67.3021 73.9688 67.7031 73.8828 68.2188 73.7109C68.7344 73.5391 69.0638 73.3385 69.207 73.1094C69.4076 72.6654 69.5078 71.9922 69.5078 71.0898C69.5078 70.6029 69.25 68.4831 68.7344 64.7305ZM64.9531 62.1953C65.612 62.1953 66.2064 62.1882 66.7363 62.1738C67.2806 62.1595 67.7604 62.138 68.1758 62.1094C68.2904 62.1094 68.3477 62.0521 68.3477 61.9375C68.3477 61.7513 68.2546 61.0781 68.0684 59.918C67.9538 59.1159 67.8177 58.2064 67.6602 57.1895C67.5026 56.1725 67.3522 55.2201 67.209 54.332C67.0801 53.444 66.987 52.7995 66.9297 52.3984C63.4062 58.7721 61.6445 61.9948 61.6445 62.0664C61.6445 62.1237 61.6589 62.1523 61.6875 62.1523C62.0169 62.1667 62.4538 62.181 62.998 62.1953C63.5423 62.1953 64.194 62.1953 64.9531 62.1953ZM84.6328 56.3086C85.0911 56.3086 85.4492 56.5163 85.707 56.9316C85.9648 57.347 86.0938 57.8841 86.0938 58.543C86.0938 59.1732 86.0078 59.9323 85.8359 60.8203L85.0625 64.7734C85.3346 64.2865 85.9577 63.3984 86.9316 62.1094C87.5762 61.2643 88.321 60.3978 89.166 59.5098C90.0254 58.6074 90.8704 57.8483 91.7012 57.2324C92.5462 56.6165 93.2552 56.3086 93.8281 56.3086C95.2604 56.3086 95.9766 57.2539 95.9766 59.1445C95.9766 60.4766 95.776 62.0378 95.375 63.8281L93.957 70.4453C93.8711 70.7891 93.8281 71.1471 93.8281 71.5195C93.8281 72.2357 93.9714 72.5938 94.2578 72.5938C94.6159 72.5938 95.0456 72.3431 95.5469 71.8418C96.0482 71.3262 96.4779 70.8893 96.8359 70.5312L97.0938 70.2305C97.151 70.2305 97.2585 70.3665 97.416 70.6387C97.5736 70.9108 97.6523 71.1042 97.6523 71.2188C97.4089 71.6341 96.9648 72.1641 96.3203 72.8086C95.6901 73.4531 95.0026 74.026 94.2578 74.5273C93.513 75.0143 92.8398 75.2578 92.2383 75.2578C91.7799 75.2578 91.4219 75.0501 91.1641 74.6348C90.9062 74.2194 90.7773 73.6823 90.7773 73.0234C90.7773 72.5938 90.8776 71.8346 91.0781 70.7461L92.582 63.6562C92.7826 62.6823 92.8828 61.9089 92.8828 61.3359C92.8828 60.1042 92.6107 59.4883 92.0664 59.4883C91.5938 59.4883 90.9564 59.8464 90.1543 60.5625C89.3522 61.2643 88.5143 62.2025 87.6406 63.377C86.7812 64.5514 86.0007 65.862 85.2988 67.3086C84.597 68.7409 84.1029 70.1875 83.8164 71.6484L83.0859 75C82.6992 75.1146 82.2552 75.1719 81.7539 75.1719C81.2669 75.1719 80.7799 75.1146 80.293 75L82.8281 61.7656C82.9714 60.7773 83.043 60.2044 83.043 60.0469C83.043 59.3307 82.8997 58.9727 82.6133 58.9727C82.3698 58.9727 82.0046 59.2018 81.5176 59.6602C81.2884 59.8893 81.0378 60.14 80.7656 60.4121C80.5078 60.6842 80.3359 60.8776 80.25 60.9922C80.1927 60.9922 80.0853 60.8561 79.9277 60.584C79.7702 60.3118 79.6914 60.1185 79.6914 60.0039C79.9206 59.6172 80.3359 59.1374 80.9375 58.5645C81.5391 57.9772 82.1836 57.4544 82.8711 56.9961C83.5586 56.5378 84.1458 56.3086 84.6328 56.3086ZM113.68 56.3086C114.539 56.3086 115.291 56.5879 115.936 57.1465C116.58 57.7051 116.902 58.3997 116.902 59.2305C116.902 61.0924 116.079 62.625 114.432 63.8281C112.785 65.0312 110.672 65.8477 108.094 66.2773C109.798 68.8411 111.109 70.5456 112.025 71.3906C112.913 72.2214 113.68 72.6367 114.324 72.6367C114.84 72.6367 115.334 72.4219 115.807 71.9922C116.279 71.5625 116.63 71.1471 116.859 70.7461C116.945 70.7461 117.081 70.8607 117.268 71.0898C117.454 71.319 117.547 71.4909 117.547 71.6055C117.461 71.9206 117.182 72.3646 116.709 72.9375C116.251 73.5104 115.714 74.026 115.098 74.4844C114.482 74.9427 113.895 75.1719 113.336 75.1719C112.605 75.1719 111.854 74.9212 111.08 74.4199C110.321 73.9043 109.691 73.3242 109.189 72.6797C109.003 72.4505 108.839 72.25 108.695 72.0781C108.552 71.8919 108.423 71.7272 108.309 71.584C108.094 71.3262 107.8 70.9036 107.428 70.3164L106.676 69.1133C106.447 68.7409 106.21 68.3327 105.967 67.8887C105.723 67.4303 105.501 67.0651 105.301 66.793L103.711 75C103.224 75.1432 102.751 75.2148 102.293 75.2148C101.906 75.2148 101.434 75.1432 100.875 75L105.559 50.9805C105.816 49.7917 105.945 49.0326 105.945 48.7031C105.945 48.1589 105.072 47.8867 103.324 47.8867C103.238 47.8867 103.195 47.8008 103.195 47.6289C103.195 47.2852 103.31 46.9987 103.539 46.7695C105.387 46.5977 107.191 46.1966 108.953 45.5664C109.125 45.6523 109.211 45.9245 109.211 46.3828C109.211 46.6979 109.025 47.7721 108.652 49.6055L106.418 61.1641L106.891 60.6055C107.335 60.0755 107.908 59.4811 108.609 58.8223C109.311 58.1491 110.099 57.5618 110.973 57.0605C111.846 56.5592 112.749 56.3086 113.68 56.3086ZM112.133 58.3281C111.674 58.3281 111.102 58.6146 110.414 59.1875C109.727 59.7461 109.046 60.4193 108.373 61.207C107.7 61.9948 107.134 62.7539 106.676 63.4844C106.217 64.2005 105.988 64.7161 105.988 65.0312C105.988 65.0885 106.017 65.1172 106.074 65.1172C106.132 65.1172 106.196 65.1172 106.268 65.1172C106.339 65.1029 106.425 65.0885 106.525 65.0742C106.712 65.0456 107.07 64.9811 107.6 64.8809C108.13 64.7806 108.645 64.6589 109.146 64.5156C109.877 64.3008 110.6 64 111.316 63.6133C112.047 63.2266 112.648 62.7467 113.121 62.1738C113.608 61.6009 113.852 60.9349 113.852 60.1758C113.852 58.944 113.279 58.3281 112.133 58.3281ZM133.102 56.3086C134.161 56.3086 135.207 56.4948 136.238 56.8672L133.617 70.4453C133.531 70.7891 133.488 71.1471 133.488 71.5195C133.488 72.2357 133.632 72.5938 133.918 72.5938C134.276 72.5938 134.706 72.3431 135.207 71.8418C135.708 71.3262 136.138 70.8893 136.496 70.5312L136.754 70.2305C136.811 70.2305 136.919 70.3665 137.076 70.6387C137.234 70.9108 137.312 71.1042 137.312 71.2188C137.069 71.6341 136.625 72.1641 135.98 72.8086C135.35 73.4531 134.663 74.026 133.918 74.5273C133.173 75.0143 132.5 75.2578 131.898 75.2578C131.44 75.2578 131.082 75.0501 130.824 74.6348C130.566 74.2194 130.438 73.6823 130.438 73.0234C130.438 72.5794 130.538 71.8203 130.738 70.7461L130.889 69.9941C130.932 69.7936 130.953 69.6719 130.953 69.6289C130.724 70.0586 130.395 70.5885 129.965 71.2188C129.535 71.8346 129.041 72.4505 128.482 73.0664C127.924 73.6823 127.337 74.1979 126.721 74.6133C126.105 75.0143 125.496 75.2148 124.895 75.2148C123.634 75.2148 122.639 74.6491 121.908 73.5176C121.178 72.3861 120.812 71.0182 120.812 69.4141C120.812 67.3659 121.421 65.3249 122.639 63.291C123.455 61.916 124.429 60.7057 125.561 59.6602C126.706 58.6146 127.931 57.7982 129.234 57.2109C130.538 56.6094 131.827 56.3086 133.102 56.3086ZM131.297 58.2852C130.452 58.2852 129.6 58.5859 128.74 59.1875C127.881 59.7747 127.093 60.5697 126.377 61.5723C125.661 62.5605 125.081 63.6634 124.637 64.8809C124.207 66.084 123.992 67.2943 123.992 68.5117C123.992 71.319 124.723 72.7227 126.184 72.7227C126.699 72.7227 127.258 72.4362 127.859 71.8633C128.461 71.2904 129.055 70.5312 129.643 69.5859C130.23 68.6406 130.745 67.6165 131.189 66.5137C131.648 65.3965 131.984 64.3008 132.199 63.2266L133.059 58.8438C132.715 58.4714 132.128 58.2852 131.297 58.2852ZM151.02 56.3086C152.28 56.3086 153.232 56.8672 153.877 57.9844C154.521 59.1016 154.844 60.4193 154.844 61.9375C154.844 63.7708 154.536 65.4896 153.92 67.0938C153.318 68.6979 152.509 70.1159 151.492 71.3477C150.475 72.5651 149.351 73.5247 148.119 74.2266C146.902 74.9141 145.677 75.2578 144.445 75.2578C143.357 75.2578 142.376 74.8496 141.502 74.0332C140.628 73.2168 140.191 72.0495 140.191 70.5312C140.191 70.1016 140.234 69.6289 140.32 69.1133L143.887 50.9805C144.145 49.7917 144.273 49.0326 144.273 48.7031C144.273 48.1589 143.4 47.8867 141.652 47.8867C141.566 47.8867 141.523 47.8008 141.523 47.6289C141.523 47.2852 141.638 46.9987 141.867 46.7695C143.715 46.5977 145.52 46.1966 147.281 45.5664C147.453 45.6523 147.539 45.9245 147.539 46.3828C147.539 46.6979 147.353 47.7721 146.98 49.6055L144.445 61.9805C145.362 60.4622 146.322 59.2448 147.324 58.3281C148.126 57.612 148.814 57.0964 149.387 56.7812C149.96 56.4661 150.504 56.3086 151.02 56.3086ZM149.773 58.6719C149.172 58.6719 148.406 59.209 147.475 60.2832C146.859 60.9993 146.257 61.8229 145.67 62.7539C145.097 63.6849 144.603 64.6374 144.188 65.6113C143.772 66.571 143.486 67.4661 143.328 68.2969C143.013 69.8724 143.056 71.1328 143.457 72.0781C143.858 73.0234 144.56 73.4961 145.562 73.4961C146.637 73.4961 147.661 72.9447 148.635 71.8418C149.594 70.7389 150.339 69.3783 150.869 67.7598C151.399 66.1413 151.664 64.5443 151.664 62.9688C151.664 62.3099 151.628 61.651 151.557 60.9922C151.499 60.3333 151.335 59.7819 151.062 59.3379C150.805 58.8939 150.375 58.6719 149.773 58.6719ZM162.02 56.3086C162.478 56.3086 162.836 56.5163 163.094 56.9316C163.352 57.347 163.48 57.8841 163.48 58.543C163.48 59.3021 163.395 60.0612 163.223 60.8203L161.719 67.9102C161.518 68.7839 161.418 69.5573 161.418 70.2305C161.418 71.4622 161.69 72.0781 162.234 72.0781C162.549 72.0781 162.936 71.8991 163.395 71.541C163.867 71.1829 164.354 70.7246 164.855 70.166C165.371 69.6074 165.851 69.0345 166.295 68.4473C167.111 67.373 167.885 66.0625 168.615 64.5156C169.346 62.9688 169.854 61.4362 170.141 59.918L170.871 56.5664C171.258 56.4518 171.702 56.3945 172.203 56.3945C172.69 56.3945 173.177 56.4518 173.664 56.5664L171 70.4453C170.914 70.7891 170.871 71.1471 170.871 71.5195C170.871 72.2357 171.014 72.5938 171.301 72.5938C171.659 72.5938 172.089 72.3431 172.59 71.8418C173.091 71.3262 173.521 70.8893 173.879 70.5312L174.137 70.2305C174.194 70.2305 174.301 70.3665 174.459 70.6387C174.617 70.9108 174.695 71.1042 174.695 71.2188C174.452 71.6341 174.008 72.1641 173.363 72.8086C172.733 73.4531 172.046 74.026 171.301 74.5273C170.556 75.0143 169.883 75.2578 169.281 75.2578C168.823 75.2578 168.465 75.0501 168.207 74.6348C167.949 74.2194 167.82 73.6823 167.82 73.0234C167.82 72.5938 167.921 71.8346 168.121 70.7461L168.895 66.793C168.622 67.3086 168.035 68.1966 167.133 69.457C166.546 70.2734 165.837 71.1328 165.006 72.0352C164.189 72.9375 163.373 73.7038 162.557 74.334C161.74 74.9499 161.046 75.2578 160.473 75.2578C159.04 75.2578 158.324 74.3125 158.324 72.4219C158.324 71.0755 158.525 69.5143 158.926 67.7383L160.215 61.7656C160.358 60.7773 160.43 60.2044 160.43 60.0469C160.43 59.3307 160.286 58.9727 160 58.9727C159.757 58.9727 159.391 59.2018 158.904 59.6602C158.675 59.8893 158.424 60.14 158.152 60.4121C157.895 60.6842 157.723 60.8776 157.637 60.9922C157.579 60.9922 157.472 60.8561 157.314 60.584C157.157 60.3118 157.078 60.1185 157.078 60.0039C157.307 59.6172 157.723 59.1374 158.324 58.5645C158.926 57.9772 159.57 57.4544 160.258 56.9961C160.945 56.5378 161.533 56.3086 162.02 56.3086ZM178.52 56.9531H181.527L182.559 51.7109C182.645 51.4245 183.346 51.2812 184.664 51.2812C184.951 51.2812 185.208 51.2956 185.438 51.3242L184.363 56.9531H188.273C188.417 56.9531 188.488 57.1393 188.488 57.5117C188.488 57.8411 188.359 58.2565 188.102 58.7578H184.02L181.742 70.4453C181.656 70.7891 181.613 71.1471 181.613 71.5195C181.613 72.2357 181.757 72.5938 182.043 72.5938C182.401 72.5938 182.831 72.3431 183.332 71.8418C183.833 71.3262 184.263 70.8893 184.621 70.5312L184.879 70.2305C184.936 70.2305 185.044 70.3665 185.201 70.6387C185.359 70.9108 185.438 71.1042 185.438 71.2188C185.194 71.6341 184.75 72.1641 184.105 72.8086C183.475 73.4531 182.788 74.026 182.043 74.5273C181.298 75.0143 180.625 75.2578 180.023 75.2578C179.565 75.2578 179.207 75.0501 178.949 74.6348C178.691 74.2194 178.562 73.6823 178.562 73.0234C178.562 72.5938 178.663 71.8346 178.863 70.7461L181.184 58.7578H178.133C178.047 58.7578 178.004 58.6003 178.004 58.2852C178.004 57.9128 178.176 57.4688 178.52 56.9531Z" fill="white"/>
<path d="M0 14.4961C6.30012 20.0984 15.0791 19.1979 30.687 15.1421C32.2497 14.736 33.9168 14.9601 35.3059 15.7832L61.0905 31.063L35.3304 19.6141C33.9205 18.9874 32.3183 18.9353 30.8588 19.4358C12.5496 25.7159 4.73674 24.7283 0 14.4961Z" fill="url(#paint8_radial_692_1738)"/>
<path d="M16.5669 25.8858C22.7094 27.5488 34.4861 19.1752 43.5027 24.2129C35.7991 20.3448 24.9274 34.7378 16.5669 25.8858Z" fill="url(#paint9_radial_692_1738)"/>
<path d="M42.4528 34.1693C40.4746 32.9379 39.8039 31.791 39.5364 30.2054C39.314 28.8871 40.2138 27.6374 41.514 27.3262C46.4064 26.1551 49.6595 27.3172 54.8779 31.063C50.3759 26.3362 46.8249 25.2844 39.6469 25.78C38.7972 25.8387 38.0191 26.2751 37.5081 26.9564L36.1669 28.7446C35.6047 29.4943 35.6307 30.5432 36.2784 31.2205C38.4425 33.4837 39.9798 34.1156 42.4528 34.1693Z" fill="url(#paint10_radial_692_1738)"/>
<path d="M61.0905 28.9921C48.8725 19.5072 53.131 18.6378 60.0551 10.3543C56.6285 8.93238 54.8937 8.83857 52.8071 12.4252C51.2879 8.29387 49.7783 6.42726 45.559 4.14173C43.8524 8.52031 44.6321 10.6991 46.5945 14.4961C42.9378 12.0347 40.7471 11.3823 36.2402 13.4606C46.3046 17.727 45.2926 18.8748 61.0905 28.9921Z" fill="url(#paint11_radial_692_1738)"/>
<path d="M78.6929 22.7441C78.6929 22.1918 79.1406 21.7441 79.6929 21.7441H79.7638C80.3161 21.7441 80.7638 22.1918 80.7638 22.7441V25.9213C80.7638 26.4735 80.3161 26.9213 79.7638 26.9213H74.4803C73.3757 26.9213 72.4803 26.0258 72.4803 24.9213V19.6024C72.4803 18.4978 73.3757 17.6024 74.4803 17.6024H78.7281C80.6137 17.6024 82.4755 18.023 84.178 18.8337V18.8337C85.2965 19.3663 86.1249 20.3629 86.4441 21.5599L88.3399 28.6695C89.2063 31.9182 86.6836 35.0788 83.3237 34.9544L68.0679 34.3894C64.7776 34.2675 62.2002 31.5169 62.2923 28.2256L62.6948 13.8426C62.7856 10.5955 65.4441 8.01038 68.6924 8.01038H83.0387C86.0229 8.01038 88.8896 9.21712 90.915 11.4088C101.807 23.194 109.097 33.3225 115.395 32.2299C115.685 32.1796 115.968 32.3916 115.968 32.686V32.686C115.968 32.9325 115.766 33.1318 115.519 33.1285C109.37 33.045 105.37 32.4313 87.653 13.254C86.5367 12.0456 85.0793 11.1983 83.4735 10.8414L77.8584 9.59364C77.0431 9.41248 76.199 9.4035 75.3801 9.56728L71.091 10.4251C68.2865 10.986 66.2677 13.4485 66.2677 16.3086V27.0984C66.2677 29.8599 68.5063 32.0984 71.2677 32.0984H80.9055C83.1146 32.0984 84.9055 30.3076 84.9055 28.0984V22.6378C84.9055 20.4287 83.1146 18.6378 80.9055 18.6378H76.5512C75.4466 18.6378 74.5512 19.5332 74.5512 20.6378V24.8858C74.5512 25.4381 74.9989 25.8858 75.5512 25.8858H77.6929C78.2452 25.8858 78.6929 25.4381 78.6929 24.8858V22.7441Z" fill="url(#paint12_radial_692_1738)"/>
<path d="M104.412 33.0631C96.4743 29.9513 88.3242 12.4066 78.6929 13.4606C91.6665 19.2326 92.9183 31.4785 104.412 33.0631Z" fill="url(#paint13_radial_692_1738)"/>
<path d="M111.827 30.0276C106.485 21.6827 106.361 16.9143 110.791 8.28346C105.363 9.71409 97.6256 19.5114 111.827 30.0276Z" fill="url(#paint14_radial_692_1738)"/>
<path d="M118.039 10.3543C113.102 14.0549 110.405 23.2793 118.039 32.0984C106.33 25.6888 109.793 12.7713 118.039 0V10.3543Z" fill="url(#paint15_radial_692_1738)"/>
<path d="M236.079 14.4961C229.778 20.0984 221 19.1979 205.392 15.1421C203.829 14.736 202.162 14.9601 200.773 15.7832L174.988 31.063L200.748 19.6141C202.158 18.9874 203.76 18.9353 205.22 19.4358C223.529 25.7159 231.342 24.7283 236.079 14.4961Z" fill="url(#paint16_radial_692_1738)"/>
<path d="M219.512 25.8858C213.369 27.5488 201.593 19.1752 192.576 24.2129C200.279 20.3448 211.151 34.7378 219.512 25.8858Z" fill="url(#paint17_radial_692_1738)"/>
<path d="M193.626 34.1693C195.604 32.9379 196.275 31.791 196.542 30.2054C196.765 28.8871 195.865 27.6374 194.565 27.3262C189.672 26.1551 186.419 27.3172 181.201 31.063C185.703 26.3362 189.254 25.2844 196.432 25.78C197.281 25.8387 198.06 26.2751 198.571 26.9564L199.912 28.7446C200.474 29.4943 200.448 30.5432 199.8 31.2205C197.636 33.4837 196.099 34.1156 193.626 34.1693Z" fill="url(#paint18_radial_692_1738)"/>
<path d="M174.988 28.9921C187.206 19.5072 182.948 18.6378 176.024 10.3543C179.45 8.93238 181.185 8.83857 183.272 12.4252C184.791 8.29387 186.3 6.42726 190.52 4.14173C192.226 8.52031 191.446 10.6991 189.484 14.4961C193.141 12.0347 195.331 11.3823 199.838 13.4606C189.774 17.727 190.786 18.8748 174.988 28.9921Z" fill="url(#paint19_radial_692_1738)"/>
<path d="M157.386 22.7441C157.386 22.1918 156.938 21.7441 156.386 21.7441H156.315C155.763 21.7441 155.315 22.1918 155.315 22.7441V25.9213C155.315 26.4735 155.763 26.9213 156.315 26.9213H161.598C162.703 26.9213 163.598 26.0258 163.598 24.9213V19.6024C163.598 18.4978 162.703 17.6024 161.598 17.6024H157.351C155.465 17.6024 153.603 18.023 151.901 18.8337V18.8337C150.782 19.3663 149.954 20.3629 149.635 21.5599L147.739 28.6695C146.872 31.9182 149.395 35.0788 152.755 34.9544L168.011 34.3894C171.301 34.2675 173.878 31.5169 173.786 28.2256L173.384 13.8426C173.293 10.5955 170.635 8.01038 167.386 8.01038H153.04C150.056 8.01038 147.189 9.21712 145.164 11.4088C134.272 23.194 126.982 33.3225 120.683 32.2299C120.393 32.1796 120.11 32.3916 120.11 32.686V32.686C120.11 32.9325 120.313 33.1318 120.559 33.1285C126.708 33.045 130.709 32.4313 148.426 13.254C149.542 12.0456 150.999 11.1983 152.605 10.8414L158.22 9.59364C159.035 9.41248 159.88 9.4035 160.698 9.56728L164.988 10.4251C167.792 10.986 169.811 13.4485 169.811 16.3086V27.0984C169.811 29.8599 167.572 32.0984 164.811 32.0984H155.173C152.964 32.0984 151.173 30.3076 151.173 28.0984V22.6378C151.173 20.4287 152.964 18.6378 155.173 18.6378H159.527C160.632 18.6378 161.527 19.5332 161.527 20.6378V24.8858C161.527 25.4381 161.08 25.8858 160.527 25.8858H158.386C157.833 25.8858 157.386 25.4381 157.386 24.8858V22.7441Z" fill="url(#paint20_radial_692_1738)"/>
<path d="M131.666 33.0631C139.604 29.9513 147.754 12.4066 157.386 13.4606C144.412 19.2326 143.16 31.4785 131.666 33.0631Z" fill="url(#paint21_radial_692_1738)"/>
<path d="M124.252 30.0276C129.594 21.6827 129.718 16.9143 125.287 8.28346C130.716 9.71409 138.453 19.5114 124.252 30.0276Z" fill="url(#paint22_radial_692_1738)"/>
<path d="M118.039 10.3543C122.976 14.0549 125.673 23.2793 118.039 32.0984C129.749 25.6888 126.286 12.7713 118.039 0V10.3543Z" fill="url(#paint23_radial_692_1738)"/>
<defs>
<radialGradient id="paint0_radial_692_1738" cx="0" cy="0" r="1" gradientUnits="userSpaceOnUse" gradientTransform="translate(79.7285 111.309) scale(38.311 20.1909)">
<stop stop-color="#E1E1E1"/>
<stop offset="1" stop-color="#FFF4DA"/>
</radialGradient>
<radialGradient id="paint1_radial_692_1738" cx="0" cy="0" r="1" gradientUnits="userSpaceOnUse" gradientTransform="translate(79.7285 111.309) scale(38.311 20.1909)">
<stop stop-color="#E1E1E1"/>
<stop offset="1" stop-color="#FFF4DA"/>
</radialGradient>
<radialGradient id="paint2_radial_692_1738" cx="0" cy="0" r="1" gradientUnits="userSpaceOnUse" gradientTransform="translate(79.7285 111.309) scale(38.311 20.1909)">
<stop stop-color="#E1E1E1"/>
<stop offset="1" stop-color="#FFF4DA"/>
</radialGradient>
<radialGradient id="paint3_radial_692_1738" cx="0" cy="0" r="1" gradientUnits="userSpaceOnUse" gradientTransform="translate(79.7285 111.309) scale(38.311 20.1909)">
<stop stop-color="#E1E1E1"/>
<stop offset="1" stop-color="#FFF4DA"/>
</radialGradient>
<radialGradient id="paint4_radial_692_1738" cx="0" cy="0" r="1" gradientUnits="userSpaceOnUse" gradientTransform="translate(156.351 111.309) rotate(180) scale(38.311 20.1909)">
<stop stop-color="#E1E1E1"/>
<stop offset="1" stop-color="#FFF4DA"/>
</radialGradient>
<radialGradient id="paint5_radial_692_1738" cx="0" cy="0" r="1" gradientUnits="userSpaceOnUse" gradientTransform="translate(156.351 111.309) rotate(180) scale(38.311 20.1909)">
<stop stop-color="#E1E1E1"/>
<stop offset="1" stop-color="#FFF4DA"/>
</radialGradient>
<radialGradient id="paint6_radial_692_1738" cx="0" cy="0" r="1" gradientUnits="userSpaceOnUse" gradientTransform="translate(156.351 111.309) rotate(180) scale(38.311 20.1909)">
<stop stop-color="#E1E1E1"/>
<stop offset="1" stop-color="#FFF4DA"/>
</radialGradient>
<radialGradient id="paint7_radial_692_1738" cx="0" cy="0" r="1" gradientUnits="userSpaceOnUse" gradientTransform="translate(156.351 111.309) rotate(180) scale(38.311 20.1909)">
<stop stop-color="#E1E1E1"/>
<stop offset="1" stop-color="#FFF4DA"/>
</radialGradient>
<radialGradient id="paint8_radial_692_1738" cx="0" cy="0" r="1" gradientUnits="userSpaceOnUse" gradientTransform="translate(59.0197 17.6024) scale(59.0197 17.6024)">
<stop stop-color="#E1E1E1"/>
<stop offset="1" stop-color="#FFF4DA"/>
</radialGradient>
<radialGradient id="paint9_radial_692_1738" cx="0" cy="0" r="1" gradientUnits="userSpaceOnUse" gradientTransform="translate(59.0197 17.6024) scale(59.0197 17.6024)">
<stop stop-color="#E1E1E1"/>
<stop offset="1" stop-color="#FFF4DA"/>
</radialGradient>
<radialGradient id="paint10_radial_692_1738" cx="0" cy="0" r="1" gradientUnits="userSpaceOnUse" gradientTransform="translate(59.0197 17.6024) scale(59.0197 17.6024)">
<stop stop-color="#E1E1E1"/>
<stop offset="1" stop-color="#FFF4DA"/>
</radialGradient>
<radialGradient id="paint11_radial_692_1738" cx="0" cy="0" r="1" gradientUnits="userSpaceOnUse" gradientTransform="translate(59.0197 17.6024) scale(59.0197 17.6024)">
<stop stop-color="#E1E1E1"/>
<stop offset="1" stop-color="#FFF4DA"/>
</radialGradient>
<radialGradient id="paint12_radial_692_1738" cx="0" cy="0" r="1" gradientUnits="userSpaceOnUse" gradientTransform="translate(59.0197 17.6024) scale(59.0197 17.6024)">
<stop stop-color="#E1E1E1"/>
<stop offset="1" stop-color="#FFF4DA"/>
</radialGradient>
<radialGradient id="paint13_radial_692_1738" cx="0" cy="0" r="1" gradientUnits="userSpaceOnUse" gradientTransform="translate(59.0197 17.6024) scale(59.0197 17.6024)">
<stop stop-color="#E1E1E1"/>
<stop offset="1" stop-color="#FFF4DA"/>
</radialGradient>
<radialGradient id="paint14_radial_692_1738" cx="0" cy="0" r="1" gradientUnits="userSpaceOnUse" gradientTransform="translate(59.0197 17.6024) scale(59.0197 17.6024)">
<stop stop-color="#E1E1E1"/>
<stop offset="1" stop-color="#FFF4DA"/>
</radialGradient>
<radialGradient id="paint15_radial_692_1738" cx="0" cy="0" r="1" gradientUnits="userSpaceOnUse" gradientTransform="translate(59.0197 17.6024) scale(59.0197 17.6024)">
<stop stop-color="#E1E1E1"/>
<stop offset="1" stop-color="#FFF4DA"/>
</radialGradient>
<radialGradient id="paint16_radial_692_1738" cx="0" cy="0" r="1" gradientUnits="userSpaceOnUse" gradientTransform="translate(177.059 17.6024) rotate(180) scale(59.0197 17.6024)">
<stop stop-color="#E1E1E1"/>
<stop offset="1" stop-color="#FFF4DA"/>
</radialGradient>
<radialGradient id="paint17_radial_692_1738" cx="0" cy="0" r="1" gradientUnits="userSpaceOnUse" gradientTransform="translate(177.059 17.6024) rotate(180) scale(59.0197 17.6024)">
<stop stop-color="#E1E1E1"/>
<stop offset="1" stop-color="#FFF4DA"/>
</radialGradient>
<radialGradient id="paint18_radial_692_1738" cx="0" cy="0" r="1" gradientUnits="userSpaceOnUse" gradientTransform="translate(177.059 17.6024) rotate(180) scale(59.0197 17.6024)">
<stop stop-color="#E1E1E1"/>
<stop offset="1" stop-color="#FFF4DA"/>
</radialGradient>
<radialGradient id="paint19_radial_692_1738" cx="0" cy="0" r="1" gradientUnits="userSpaceOnUse" gradientTransform="translate(177.059 17.6024) rotate(180) scale(59.0197 17.6024)">
<stop stop-color="#E1E1E1"/>
<stop offset="1" stop-color="#FFF4DA"/>
</radialGradient>
<radialGradient id="paint20_radial_692_1738" cx="0" cy="0" r="1" gradientUnits="userSpaceOnUse" gradientTransform="translate(177.059 17.6024) rotate(180) scale(59.0197 17.6024)">
<stop stop-color="#E1E1E1"/>
<stop offset="1" stop-color="#FFF4DA"/>
</radialGradient>
<radialGradient id="paint21_radial_692_1738" cx="0" cy="0" r="1" gradientUnits="userSpaceOnUse" gradientTransform="translate(177.059 17.6024) rotate(180) scale(59.0197 17.6024)">
<stop stop-color="#E1E1E1"/>
<stop offset="1" stop-color="#FFF4DA"/>
</radialGradient>
<radialGradient id="paint22_radial_692_1738" cx="0" cy="0" r="1" gradientUnits="userSpaceOnUse" gradientTransform="translate(177.059 17.6024) rotate(180) scale(59.0197 17.6024)">
<stop stop-color="#E1E1E1"/>
<stop offset="1" stop-color="#FFF4DA"/>
</radialGradient>
<radialGradient id="paint23_radial_692_1738" cx="0" cy="0" r="1" gradientUnits="userSpaceOnUse" gradientTransform="translate(177.059 17.6024) rotate(180) scale(59.0197 17.6024)">
<stop stop-color="#E1E1E1"/>
<stop offset="1" stop-color="#FFF4DA"/>
</radialGradient>
</defs>
</svg>
