<svg width="237" height="132" viewBox="0 0 237 132" fill="none" xmlns="http://www.w3.org/2000/svg">
<path d="M50.713 108.06C49.3894 108.487 47.9219 108.504 46.7174 107.809C44.5799 106.575 44.1417 105.154 44.5239 102.508V102.508C42.8803 103.056 42.0634 104.953 43.0344 106.388C43.9981 107.812 45.0942 108.974 46.6272 110.246C47.9176 111.316 49.57 111.855 51.2463 111.812C56.4411 111.679 59.0354 110.851 62.1261 108.72C61.1055 110.641 61.1623 111.76 61.9889 113.6C62.061 113.76 62.2573 113.822 62.4081 113.731C64.083 112.73 65.0044 111.892 66.2679 109.756C66.2159 114.032 66.9848 113.977 70.4096 114.933C67.5199 110.86 68.053 109.221 70.1985 106.254C70.9963 105.151 72.1264 104.331 73.4058 103.866L78.5781 101.985C81.3347 100.982 84.3491 100.942 87.1317 101.869L104.174 107.55C104.308 107.435 104.443 107.326 104.579 107.223V104.508C104.579 103.403 105.474 102.508 106.579 102.508H108.791C109.896 102.508 110.791 103.403 110.791 104.508V105.614H111.827V103.472C111.827 102.368 110.931 101.472 109.827 101.472H105.543C104.439 101.472 103.543 102.368 103.543 103.472V106.65C98.7741 103.748 93.5326 101.584 86.7262 99.7769C82.8461 98.747 78.7539 99.0145 74.9333 100.247L50.713 108.06Z" fill="url(#paint0_radial_692_2018)"/>
<path fill-rule="evenodd" clip-rule="evenodd" d="M118.04 111.827V108.721C115.458 105.74 114.164 105.799 111.827 105.614H110.791C108.063 105.589 106.223 105.979 104.579 107.223V107.685L104.174 107.55C103.27 108.327 102.41 109.382 101.473 110.791C94.423 108.167 92.2423 105.859 84.6309 104.117C82.7932 103.696 80.8384 103.854 79.1738 104.739C77.1411 105.82 75.7483 107.075 74.4009 109.235C73.7981 110.201 73.7054 111.42 74.2151 112.438C75.05 114.107 76.2503 115.417 79.1381 117.128C80.1191 117.709 81.351 117.62 82.2789 116.957L86.2804 114.099C87.2189 113.429 87.4133 112.09 86.6216 111.251C84.8307 109.354 83.7232 109.09 81.7994 109.756C83.0247 110.067 83.7478 110.456 84.3965 111.688C84.7601 112.378 84.5523 113.216 84.0005 113.767L82.2759 115.492C81.3711 116.397 79.9668 116.664 78.906 115.948C77.392 114.927 76.4786 113.802 75.488 112.283C74.8942 111.372 74.8544 110.185 75.4804 109.296C77.1885 106.871 79.0768 106.022 82.8348 105.614C87.5143 105.758 93.9739 109.592 101.473 112.862C101.611 115.305 101.827 117.608 105.431 119.531C106.15 119.915 107.027 119.733 107.604 119.156L110.252 116.508C110.55 116.21 110.55 115.727 110.252 115.429V115.429C109.972 115.149 109.522 115.134 109.211 115.381C104.883 118.812 103.35 117.017 102.508 112.862C108.785 113.743 111.601 112.063 112.862 106.65H114.933L118.04 111.827ZM102.508 111.827C105.324 107.593 107.417 106.549 111.827 106.65C109.582 111.782 107.624 113.001 102.508 111.827Z" fill="url(#paint1_radial_692_2018)"/>
<path d="M118.04 114.933V111.827C116.112 115.763 116.189 118.074 110.791 119.075C111.96 121.038 112.806 121.636 114.933 121.146C115.325 125.201 115.718 127.472 118.04 131.5V125.287C116.703 121.107 116.953 118.865 118.04 114.933Z" fill="url(#paint2_radial_692_2018)"/>
<path d="M115.969 98.3662C116.06 94.792 116.696 93.3936 118.04 91.1182V105.614C115.723 100.811 114.342 99.4138 111.827 99.4015C113.365 97.8121 114.277 97.3638 115.969 98.3662Z" fill="url(#paint3_radial_692_2018)"/>
<path d="M185.366 108.06C186.69 108.487 188.157 108.504 189.362 107.809C191.499 106.575 191.937 105.154 191.555 102.508V102.508C193.199 103.056 194.016 104.953 193.045 106.388C192.081 107.812 190.985 108.974 189.452 110.246C188.161 111.316 186.509 111.855 184.833 111.812C179.638 111.679 177.044 110.851 173.953 108.72C174.974 110.641 174.917 111.76 174.09 113.6C174.018 113.76 173.822 113.822 173.671 113.731C171.996 112.73 171.075 111.892 169.811 109.756C169.863 114.032 169.094 113.977 165.669 114.933C168.559 110.86 168.026 109.221 165.881 106.254C165.083 105.151 163.953 104.331 162.673 103.866L157.501 101.985C154.744 100.982 151.73 100.942 148.947 101.869L131.905 107.55C131.771 107.435 131.636 107.326 131.5 107.223V104.508C131.5 103.403 130.605 102.508 129.5 102.508H127.288C126.183 102.508 125.288 103.403 125.288 104.508V105.614H124.252V103.472C124.252 102.368 125.148 101.472 126.252 101.472H130.536C131.64 101.472 132.536 102.368 132.536 103.472V106.65C137.305 103.748 142.547 101.584 149.353 99.7769C153.233 98.747 157.325 99.0145 161.146 100.247L185.366 108.06Z" fill="url(#paint4_radial_692_2018)"/>
<path fill-rule="evenodd" clip-rule="evenodd" d="M118.04 111.827V108.721C120.621 105.74 121.915 105.799 124.252 105.614H125.288C128.016 105.589 129.856 105.979 131.5 107.223V107.685L131.905 107.55C132.809 108.327 133.669 109.382 134.607 110.791C141.656 108.167 143.837 105.859 151.448 104.117C153.286 103.696 155.241 103.854 156.905 104.739C158.938 105.82 160.331 107.075 161.678 109.235C162.281 110.201 162.374 111.42 161.864 112.438C161.029 114.107 159.829 115.417 156.941 117.128C155.96 117.709 154.728 117.62 153.8 116.957L149.799 114.099C148.86 113.429 148.666 112.09 149.457 111.251C151.248 109.354 152.356 109.09 154.28 109.756C153.054 110.067 152.331 110.456 151.683 111.688C151.319 112.378 151.527 113.216 152.079 113.767L153.803 115.492C154.708 116.397 156.112 116.664 157.173 115.948C158.687 114.927 159.601 113.802 160.591 112.283C161.185 111.372 161.225 110.185 160.599 109.296C158.891 106.871 157.002 106.022 153.244 105.614C148.565 105.758 142.105 109.592 134.607 112.862C134.468 115.305 134.252 117.608 130.648 119.531C129.929 119.915 129.052 119.733 128.475 119.156L125.827 116.508C125.529 116.21 125.529 115.727 125.827 115.429V115.429C126.107 115.149 126.557 115.134 126.868 115.381C131.196 118.812 132.729 117.017 133.571 112.862C127.294 113.743 124.479 112.063 123.217 106.65H121.146L118.04 111.827ZM133.571 111.827C130.755 107.593 128.662 106.549 124.252 106.65C126.497 111.782 128.455 113.001 133.571 111.827Z" fill="url(#paint5_radial_692_2018)"/>
<path d="M118.04 114.933V111.827C119.967 115.763 119.89 118.074 125.288 119.075C124.119 121.038 123.273 121.636 121.146 121.146C120.755 125.201 120.362 127.472 118.04 131.5V125.287C119.376 121.107 119.126 118.865 118.04 114.933Z" fill="url(#paint6_radial_692_2018)"/>
<path d="M120.11 98.3662C120.019 94.792 119.383 93.3936 118.04 91.1182V105.614C120.356 100.811 121.737 99.4138 124.252 99.4015C122.714 97.8121 121.802 97.3638 120.11 98.3662Z" fill="url(#paint7_radial_692_2018)"/>
<path d="M95.1172 65.7617C95.1172 67.3229 94.6302 68.8125 93.6562 70.2305C92.6966 71.6341 91.3288 72.7799 89.5527 73.668C87.791 74.556 85.6927 75 83.2578 75H77.8008L73.0742 75.1289C73.0456 75.1003 73.0312 74.9714 73.0312 74.7422C73.0312 74.1693 73.1315 73.8828 73.332 73.8828C73.5612 73.8828 73.8835 73.8398 74.2988 73.7539C74.7142 73.6536 75.1009 73.5319 75.459 73.3887C75.8314 73.2311 76.0534 73.0664 76.125 72.8945C76.526 72.0781 76.8984 70.7461 77.2422 68.8984L80.3359 52.9141C80.651 51.3242 80.8086 49.9922 80.8086 48.918C80.8086 48.7747 80.651 48.6243 80.3359 48.4668C80.0208 48.3092 79.6699 48.1732 79.2832 48.0586C78.9108 47.944 78.6172 47.8867 78.4023 47.8867C78.3451 47.8867 78.3164 47.8294 78.3164 47.7148C78.3164 47.2565 78.4167 46.9271 78.6172 46.7266C79.276 46.7552 79.985 46.7767 80.7441 46.791C81.5176 46.8053 82.3411 46.8125 83.2148 46.8125C83.888 46.8125 84.4967 46.8125 85.041 46.8125C85.5996 46.8125 86.0938 46.8053 86.5234 46.791C86.9531 46.7767 87.3613 46.7695 87.748 46.7695C88.1348 46.7695 88.5 46.7695 88.8438 46.7695C89.6458 46.7695 90.4408 46.8626 91.2285 47.0488C92.0163 47.235 92.7754 47.5286 93.5059 47.9297C94.2363 48.3307 94.8307 48.9108 95.2891 49.6699C95.7474 50.429 95.9766 51.3099 95.9766 52.3125C95.9766 52.9714 95.8763 53.6374 95.6758 54.3105C95.4753 54.9551 95.2174 55.5065 94.9023 55.9648C94.5872 56.4232 94.2292 56.8529 93.8281 57.2539C93.3411 57.7409 92.8112 58.1777 92.2383 58.5645C91.6654 58.9368 91.1927 59.2018 90.8203 59.3594L90.5625 59.4883C91.1354 59.5742 91.7728 59.9108 92.4746 60.498C93.1908 61.0853 93.8066 61.8372 94.3223 62.7539C94.8522 63.6706 95.1172 64.6732 95.1172 65.7617ZM92.3242 52.8281C92.3242 49.9635 90.849 48.5312 87.8984 48.5312C85.8216 48.5312 84.7474 48.7174 84.6758 49.0898L82.7422 58.4141C82.6992 58.5859 82.821 58.7148 83.1074 58.8008C83.4082 58.8724 83.7663 58.9225 84.1816 58.9512C84.597 58.9655 84.9622 58.9727 85.2773 58.9727C86.194 58.9727 86.9818 58.9154 87.6406 58.8008C88.2995 58.6862 89.0299 58.4427 89.832 58.0703C91.4935 57.2969 92.3242 55.5495 92.3242 52.8281ZM91.25 65.9336C91.25 64.4154 90.7773 63.1764 89.832 62.2168C88.8867 61.2572 87.3685 60.7773 85.2773 60.7773C83.2435 60.7773 82.1836 60.9922 82.0977 61.4219L80.4648 70.0156C80.3216 70.832 80.25 71.5195 80.25 72.0781C80.25 72.6081 80.472 72.9375 80.916 73.0664C81.36 73.181 81.9974 73.2383 82.8281 73.2383C84.819 73.2383 86.2083 73.0521 86.9961 72.6797C88.1706 72.1354 89.1732 71.2617 90.0039 70.0586C90.8346 68.8555 91.25 67.4805 91.25 65.9336ZM109.77 56.3086C110.829 56.3086 111.875 56.4948 112.906 56.8672L110.285 70.4453C110.199 70.7891 110.156 71.1471 110.156 71.5195C110.156 72.2357 110.299 72.5938 110.586 72.5938C110.944 72.5938 111.374 72.3431 111.875 71.8418C112.376 71.3262 112.806 70.8893 113.164 70.5312L113.422 70.2305C113.479 70.2305 113.587 70.3665 113.744 70.6387C113.902 70.9108 113.98 71.1042 113.98 71.2188C113.737 71.6341 113.293 72.1641 112.648 72.8086C112.018 73.4531 111.331 74.026 110.586 74.5273C109.841 75.0143 109.168 75.2578 108.566 75.2578C108.108 75.2578 107.75 75.0501 107.492 74.6348C107.234 74.2194 107.105 73.6823 107.105 73.0234C107.105 72.5794 107.206 71.8203 107.406 70.7461L107.557 69.9941C107.6 69.7936 107.621 69.6719 107.621 69.6289C107.392 70.0586 107.062 70.5885 106.633 71.2188C106.203 71.8346 105.709 72.4505 105.15 73.0664C104.592 73.6823 104.005 74.1979 103.389 74.6133C102.773 75.0143 102.164 75.2148 101.562 75.2148C100.302 75.2148 99.3066 74.6491 98.5762 73.5176C97.8457 72.3861 97.4805 71.0182 97.4805 69.4141C97.4805 67.3659 98.0892 65.3249 99.3066 63.291C100.123 61.916 101.097 60.7057 102.229 59.6602C103.374 58.6146 104.599 57.7982 105.902 57.2109C107.206 56.6094 108.495 56.3086 109.77 56.3086ZM107.965 58.2852C107.12 58.2852 106.268 58.5859 105.408 59.1875C104.549 59.7747 103.761 60.5697 103.045 61.5723C102.329 62.5605 101.749 63.6634 101.305 64.8809C100.875 66.084 100.66 67.2943 100.66 68.5117C100.66 71.319 101.391 72.7227 102.852 72.7227C103.367 72.7227 103.926 72.4362 104.527 71.8633C105.129 71.2904 105.723 70.5312 106.311 69.5859C106.898 68.6406 107.413 67.6165 107.857 66.5137C108.316 65.3965 108.652 64.3008 108.867 63.2266L109.727 58.8438C109.383 58.4714 108.796 58.2852 107.965 58.2852ZM117.59 70.7461L121.629 49.9062C121.715 49.4766 121.758 49.0755 121.758 48.7031C121.758 48.1589 120.884 47.8867 119.137 47.8867C119.051 47.8867 119.008 47.8008 119.008 47.6289C119.008 47.2852 119.122 46.9987 119.352 46.7695C121.271 46.5977 123.104 46.1966 124.852 45.5664C125.023 45.6523 125.109 45.9245 125.109 46.3828C125.109 46.6979 124.923 47.7721 124.551 49.6055L120.469 70.4453C120.383 70.7891 120.34 71.1471 120.34 71.5195C120.34 72.2357 120.483 72.5938 120.77 72.5938C120.941 72.5938 121.149 72.515 121.393 72.3574C121.636 72.1999 121.887 72.0065 122.145 71.7773C122.402 71.5482 122.696 71.2546 123.025 70.8965C123.355 70.5241 123.548 70.3021 123.605 70.2305C123.691 70.2305 123.806 70.3665 123.949 70.6387C124.092 70.9108 124.164 71.1042 124.164 71.2188C123.921 71.6341 123.477 72.1641 122.832 72.8086C122.202 73.4531 121.514 74.026 120.77 74.5273C120.025 75.0143 119.352 75.2578 118.75 75.2578C118.32 75.2578 117.969 75.0501 117.697 74.6348C117.425 74.2194 117.289 73.6823 117.289 73.0234C117.289 72.5794 117.389 71.8203 117.59 70.7461ZM139.332 56.3086C140.392 56.3086 141.438 56.4948 142.469 56.8672L139.848 70.4453C139.762 70.7891 139.719 71.1471 139.719 71.5195C139.719 72.2357 139.862 72.5938 140.148 72.5938C140.507 72.5938 140.936 72.3431 141.438 71.8418C141.939 71.3262 142.368 70.8893 142.727 70.5312L142.984 70.2305C143.042 70.2305 143.149 70.3665 143.307 70.6387C143.464 70.9108 143.543 71.1042 143.543 71.2188C143.299 71.6341 142.855 72.1641 142.211 72.8086C141.581 73.4531 140.893 74.026 140.148 74.5273C139.404 75.0143 138.73 75.2578 138.129 75.2578C137.671 75.2578 137.312 75.0501 137.055 74.6348C136.797 74.2194 136.668 73.6823 136.668 73.0234C136.668 72.5794 136.768 71.8203 136.969 70.7461L137.119 69.9941C137.162 69.7936 137.184 69.6719 137.184 69.6289C136.954 70.0586 136.625 70.5885 136.195 71.2188C135.766 71.8346 135.271 72.4505 134.713 73.0664C134.154 73.6823 133.567 74.1979 132.951 74.6133C132.335 75.0143 131.727 75.2148 131.125 75.2148C129.865 75.2148 128.869 74.6491 128.139 73.5176C127.408 72.3861 127.043 71.0182 127.043 69.4141C127.043 67.3659 127.652 65.3249 128.869 63.291C129.686 61.916 130.66 60.7057 131.791 59.6602C132.937 58.6146 134.161 57.7982 135.465 57.2109C136.768 56.6094 138.057 56.3086 139.332 56.3086ZM137.527 58.2852C136.682 58.2852 135.83 58.5859 134.971 59.1875C134.111 59.7747 133.324 60.5697 132.607 61.5723C131.891 62.5605 131.311 63.6634 130.867 64.8809C130.438 66.084 130.223 67.2943 130.223 68.5117C130.223 71.319 130.953 72.7227 132.414 72.7227C132.93 72.7227 133.488 72.4362 134.09 71.8633C134.691 71.2904 135.286 70.5312 135.873 69.5859C136.46 68.6406 136.976 67.6165 137.42 66.5137C137.878 65.3965 138.215 64.3008 138.43 63.2266L139.289 58.8438C138.945 58.4714 138.358 58.2852 137.527 58.2852ZM163.781 46.3828L163.137 49.6055L159.098 70.4453C159.012 70.7891 158.969 71.1471 158.969 71.5195C158.969 72.2357 159.112 72.5938 159.398 72.5938C159.757 72.5938 160.186 72.3431 160.688 71.8418C161.189 71.3262 161.618 70.8893 161.977 70.5312L162.234 70.2305C162.292 70.2305 162.399 70.3665 162.557 70.6387C162.714 70.9108 162.793 71.1042 162.793 71.2188C162.549 71.6341 162.105 72.1641 161.461 72.8086C160.831 73.4531 160.143 74.026 159.398 74.5273C158.654 75.0143 157.98 75.2578 157.379 75.2578C156.921 75.2578 156.562 75.0501 156.305 74.6348C156.047 74.2194 155.918 73.6823 155.918 73.0234C155.918 72.5938 156.018 71.8346 156.219 70.7461C156.247 70.6029 156.298 70.388 156.369 70.1016C156.441 69.8151 156.477 69.6432 156.477 69.5859C156.29 69.9154 156.083 70.252 155.854 70.5957C155.639 70.9395 155.41 71.2904 155.166 71.6484C154.837 72.1354 154.393 72.6582 153.834 73.2168C153.29 73.7611 152.71 74.2337 152.094 74.6348C151.492 75.0215 150.934 75.2148 150.418 75.2148C149.1 75.2148 148.083 74.6491 147.367 73.5176C146.651 72.3861 146.293 71.0182 146.293 69.4141C146.293 67.8672 146.651 66.3203 147.367 64.7734C148.098 63.2266 149.057 61.8158 150.246 60.541C151.435 59.2663 152.745 58.2422 154.178 57.4688C155.624 56.6953 157.064 56.3086 158.496 56.3086H159.055L160.258 49.9062C160.344 49.4909 160.387 49.0898 160.387 48.7031C160.387 48.1589 159.513 47.8867 157.766 47.8867C157.68 47.8867 157.637 47.8008 157.637 47.6289C157.637 47.2852 157.751 46.9987 157.98 46.7695C159.928 46.5977 161.776 46.1966 163.523 45.5664C163.695 45.6667 163.781 45.9388 163.781 46.3828ZM157.68 63.1406L158.195 60.3477C158.31 59.8034 158.253 59.3236 158.023 58.9082C157.794 58.4928 157.408 58.2852 156.863 58.2852C155.99 58.2852 155.116 58.5859 154.242 59.1875C153.368 59.7891 152.574 60.5911 151.857 61.5938C151.141 62.582 150.561 63.6849 150.117 64.9023C149.688 66.1055 149.473 67.3229 149.473 68.5547C149.473 71.3333 150.203 72.7227 151.664 72.7227C152.194 72.7227 152.76 72.4362 153.361 71.8633C153.977 71.276 154.572 70.5098 155.145 69.5645C155.717 68.6191 156.226 67.5879 156.67 66.4707C157.128 65.3392 157.465 64.2292 157.68 63.1406Z" fill="white"/>
<path d="M0 14.4961C6.30012 20.0984 15.0791 19.1979 30.687 15.1421C32.2497 14.736 33.9168 14.9601 35.3059 15.7832L61.0905 31.063L35.3304 19.6141C33.9205 18.9874 32.3183 18.9353 30.8588 19.4358C12.5496 25.7159 4.73674 24.7283 0 14.4961Z" fill="url(#paint8_radial_692_2018)"/>
<path d="M16.5669 25.8858C22.7094 27.5488 34.4861 19.1752 43.5027 24.2129C35.7991 20.3448 24.9274 34.7378 16.5669 25.8858Z" fill="url(#paint9_radial_692_2018)"/>
<path d="M42.4528 34.1693C40.4746 32.9379 39.8039 31.791 39.5364 30.2054C39.314 28.8871 40.2138 27.6374 41.514 27.3262C46.4064 26.1551 49.6595 27.3172 54.8779 31.063C50.3759 26.3362 46.8249 25.2844 39.6469 25.78C38.7972 25.8387 38.0191 26.2751 37.5081 26.9564L36.1669 28.7446C35.6047 29.4943 35.6307 30.5432 36.2784 31.2205C38.4425 33.4837 39.9798 34.1156 42.4528 34.1693Z" fill="url(#paint10_radial_692_2018)"/>
<path d="M61.0905 28.9921C48.8725 19.5072 53.131 18.6378 60.0551 10.3543C56.6285 8.93238 54.8937 8.83857 52.8071 12.4252C51.2879 8.29387 49.7783 6.42726 45.559 4.14173C43.8524 8.52031 44.6321 10.6991 46.5945 14.4961C42.9378 12.0347 40.7471 11.3823 36.2402 13.4606C46.3046 17.727 45.2926 18.8748 61.0905 28.9921Z" fill="url(#paint11_radial_692_2018)"/>
<path d="M78.6929 22.7441C78.6929 22.1918 79.1406 21.7441 79.6929 21.7441H79.7638C80.3161 21.7441 80.7638 22.1918 80.7638 22.7441V25.9213C80.7638 26.4735 80.3161 26.9213 79.7638 26.9213H74.4803C73.3757 26.9213 72.4803 26.0258 72.4803 24.9213V19.6024C72.4803 18.4978 73.3757 17.6024 74.4803 17.6024H78.7281C80.6137 17.6024 82.4755 18.023 84.178 18.8337V18.8337C85.2965 19.3663 86.1249 20.3629 86.4441 21.5599L88.3399 28.6695C89.2063 31.9182 86.6836 35.0788 83.3237 34.9544L68.0679 34.3894C64.7776 34.2675 62.2002 31.5169 62.2923 28.2256L62.6948 13.8426C62.7856 10.5955 65.4441 8.01038 68.6924 8.01038H83.0387C86.0229 8.01038 88.8896 9.21712 90.915 11.4088C101.807 23.194 109.097 33.3225 115.395 32.2299C115.685 32.1796 115.968 32.3916 115.968 32.686V32.686C115.968 32.9325 115.766 33.1318 115.519 33.1285C109.37 33.045 105.37 32.4313 87.653 13.254C86.5367 12.0456 85.0793 11.1983 83.4735 10.8414L77.8584 9.59364C77.0431 9.41248 76.199 9.4035 75.3801 9.56728L71.091 10.4251C68.2865 10.986 66.2677 13.4485 66.2677 16.3086V27.0984C66.2677 29.8599 68.5063 32.0984 71.2677 32.0984H80.9055C83.1146 32.0984 84.9055 30.3076 84.9055 28.0984V22.6378C84.9055 20.4287 83.1146 18.6378 80.9055 18.6378H76.5512C75.4466 18.6378 74.5512 19.5332 74.5512 20.6378V24.8858C74.5512 25.4381 74.9989 25.8858 75.5512 25.8858H77.6929C78.2452 25.8858 78.6929 25.4381 78.6929 24.8858V22.7441Z" fill="url(#paint12_radial_692_2018)"/>
<path d="M104.412 33.0631C96.4743 29.9513 88.3242 12.4066 78.6929 13.4606C91.6665 19.2326 92.9183 31.4785 104.412 33.0631Z" fill="url(#paint13_radial_692_2018)"/>
<path d="M111.827 30.0276C106.485 21.6827 106.361 16.9143 110.791 8.28346C105.363 9.71409 97.6256 19.5114 111.827 30.0276Z" fill="url(#paint14_radial_692_2018)"/>
<path d="M118.039 10.3543C113.102 14.0549 110.405 23.2793 118.039 32.0984C106.33 25.6888 109.793 12.7713 118.039 0V10.3543Z" fill="url(#paint15_radial_692_2018)"/>
<path d="M236.079 14.4961C229.778 20.0984 221 19.1979 205.392 15.1421C203.829 14.736 202.162 14.9601 200.773 15.7832L174.988 31.063L200.748 19.6141C202.158 18.9874 203.76 18.9353 205.22 19.4358C223.529 25.7159 231.342 24.7283 236.079 14.4961Z" fill="url(#paint16_radial_692_2018)"/>
<path d="M219.512 25.8858C213.369 27.5488 201.593 19.1752 192.576 24.2129C200.279 20.3448 211.151 34.7378 219.512 25.8858Z" fill="url(#paint17_radial_692_2018)"/>
<path d="M193.626 34.1693C195.604 32.9379 196.275 31.791 196.542 30.2054C196.765 28.8871 195.865 27.6374 194.565 27.3262C189.672 26.1551 186.419 27.3172 181.201 31.063C185.703 26.3362 189.254 25.2844 196.432 25.78C197.281 25.8387 198.06 26.2751 198.571 26.9564L199.912 28.7446C200.474 29.4943 200.448 30.5432 199.8 31.2205C197.636 33.4837 196.099 34.1156 193.626 34.1693Z" fill="url(#paint18_radial_692_2018)"/>
<path d="M174.988 28.9921C187.206 19.5072 182.948 18.6378 176.024 10.3543C179.45 8.93238 181.185 8.83857 183.272 12.4252C184.791 8.29387 186.3 6.42726 190.52 4.14173C192.226 8.52031 191.446 10.6991 189.484 14.4961C193.141 12.0347 195.331 11.3823 199.838 13.4606C189.774 17.727 190.786 18.8748 174.988 28.9921Z" fill="url(#paint19_radial_692_2018)"/>
<path d="M157.386 22.7441C157.386 22.1918 156.938 21.7441 156.386 21.7441H156.315C155.763 21.7441 155.315 22.1918 155.315 22.7441V25.9213C155.315 26.4735 155.763 26.9213 156.315 26.9213H161.598C162.703 26.9213 163.598 26.0258 163.598 24.9213V19.6024C163.598 18.4978 162.703 17.6024 161.598 17.6024H157.351C155.465 17.6024 153.603 18.023 151.901 18.8337V18.8337C150.782 19.3663 149.954 20.3629 149.635 21.5599L147.739 28.6695C146.872 31.9182 149.395 35.0788 152.755 34.9544L168.011 34.3894C171.301 34.2675 173.878 31.5169 173.786 28.2256L173.384 13.8426C173.293 10.5955 170.635 8.01038 167.386 8.01038H153.04C150.056 8.01038 147.189 9.21712 145.164 11.4088C134.272 23.194 126.982 33.3225 120.683 32.2299C120.393 32.1796 120.11 32.3916 120.11 32.686V32.686C120.11 32.9325 120.313 33.1318 120.559 33.1285C126.708 33.045 130.709 32.4313 148.426 13.254C149.542 12.0456 150.999 11.1983 152.605 10.8414L158.22 9.59364C159.035 9.41248 159.88 9.4035 160.698 9.56728L164.988 10.4251C167.792 10.986 169.811 13.4485 169.811 16.3086V27.0984C169.811 29.8599 167.572 32.0984 164.811 32.0984H155.173C152.964 32.0984 151.173 30.3076 151.173 28.0984V22.6378C151.173 20.4287 152.964 18.6378 155.173 18.6378H159.527C160.632 18.6378 161.527 19.5332 161.527 20.6378V24.8858C161.527 25.4381 161.08 25.8858 160.527 25.8858H158.386C157.833 25.8858 157.386 25.4381 157.386 24.8858V22.7441Z" fill="url(#paint20_radial_692_2018)"/>
<path d="M131.666 33.0631C139.604 29.9513 147.754 12.4066 157.386 13.4606C144.412 19.2326 143.16 31.4785 131.666 33.0631Z" fill="url(#paint21_radial_692_2018)"/>
<path d="M124.252 30.0276C129.594 21.6827 129.718 16.9143 125.287 8.28346C130.716 9.71409 138.453 19.5114 124.252 30.0276Z" fill="url(#paint22_radial_692_2018)"/>
<path d="M118.039 10.3543C122.976 14.0549 125.673 23.2793 118.039 32.0984C129.749 25.6888 126.286 12.7713 118.039 0V10.3543Z" fill="url(#paint23_radial_692_2018)"/>
<defs>
<radialGradient id="paint0_radial_692_2018" cx="0" cy="0" r="1" gradientUnits="userSpaceOnUse" gradientTransform="translate(79.7285 111.309) scale(38.311 20.1909)">
<stop stop-color="#E1E1E1"/>
<stop offset="1" stop-color="#FFF4DA"/>
</radialGradient>
<radialGradient id="paint1_radial_692_2018" cx="0" cy="0" r="1" gradientUnits="userSpaceOnUse" gradientTransform="translate(79.7285 111.309) scale(38.311 20.1909)">
<stop stop-color="#E1E1E1"/>
<stop offset="1" stop-color="#FFF4DA"/>
</radialGradient>
<radialGradient id="paint2_radial_692_2018" cx="0" cy="0" r="1" gradientUnits="userSpaceOnUse" gradientTransform="translate(79.7285 111.309) scale(38.311 20.1909)">
<stop stop-color="#E1E1E1"/>
<stop offset="1" stop-color="#FFF4DA"/>
</radialGradient>
<radialGradient id="paint3_radial_692_2018" cx="0" cy="0" r="1" gradientUnits="userSpaceOnUse" gradientTransform="translate(79.7285 111.309) scale(38.311 20.1909)">
<stop stop-color="#E1E1E1"/>
<stop offset="1" stop-color="#FFF4DA"/>
</radialGradient>
<radialGradient id="paint4_radial_692_2018" cx="0" cy="0" r="1" gradientUnits="userSpaceOnUse" gradientTransform="translate(156.351 111.309) rotate(180) scale(38.311 20.1909)">
<stop stop-color="#E1E1E1"/>
<stop offset="1" stop-color="#FFF4DA"/>
</radialGradient>
<radialGradient id="paint5_radial_692_2018" cx="0" cy="0" r="1" gradientUnits="userSpaceOnUse" gradientTransform="translate(156.351 111.309) rotate(180) scale(38.311 20.1909)">
<stop stop-color="#E1E1E1"/>
<stop offset="1" stop-color="#FFF4DA"/>
</radialGradient>
<radialGradient id="paint6_radial_692_2018" cx="0" cy="0" r="1" gradientUnits="userSpaceOnUse" gradientTransform="translate(156.351 111.309) rotate(180) scale(38.311 20.1909)">
<stop stop-color="#E1E1E1"/>
<stop offset="1" stop-color="#FFF4DA"/>
</radialGradient>
<radialGradient id="paint7_radial_692_2018" cx="0" cy="0" r="1" gradientUnits="userSpaceOnUse" gradientTransform="translate(156.351 111.309) rotate(180) scale(38.311 20.1909)">
<stop stop-color="#E1E1E1"/>
<stop offset="1" stop-color="#FFF4DA"/>
</radialGradient>
<radialGradient id="paint8_radial_692_2018" cx="0" cy="0" r="1" gradientUnits="userSpaceOnUse" gradientTransform="translate(59.0197 17.6024) scale(59.0197 17.6024)">
<stop stop-color="#E1E1E1"/>
<stop offset="1" stop-color="#FFF4DA"/>
</radialGradient>
<radialGradient id="paint9_radial_692_2018" cx="0" cy="0" r="1" gradientUnits="userSpaceOnUse" gradientTransform="translate(59.0197 17.6024) scale(59.0197 17.6024)">
<stop stop-color="#E1E1E1"/>
<stop offset="1" stop-color="#FFF4DA"/>
</radialGradient>
<radialGradient id="paint10_radial_692_2018" cx="0" cy="0" r="1" gradientUnits="userSpaceOnUse" gradientTransform="translate(59.0197 17.6024) scale(59.0197 17.6024)">
<stop stop-color="#E1E1E1"/>
<stop offset="1" stop-color="#FFF4DA"/>
</radialGradient>
<radialGradient id="paint11_radial_692_2018" cx="0" cy="0" r="1" gradientUnits="userSpaceOnUse" gradientTransform="translate(59.0197 17.6024) scale(59.0197 17.6024)">
<stop stop-color="#E1E1E1"/>
<stop offset="1" stop-color="#FFF4DA"/>
</radialGradient>
<radialGradient id="paint12_radial_692_2018" cx="0" cy="0" r="1" gradientUnits="userSpaceOnUse" gradientTransform="translate(59.0197 17.6024) scale(59.0197 17.6024)">
<stop stop-color="#E1E1E1"/>
<stop offset="1" stop-color="#FFF4DA"/>
</radialGradient>
<radialGradient id="paint13_radial_692_2018" cx="0" cy="0" r="1" gradientUnits="userSpaceOnUse" gradientTransform="translate(59.0197 17.6024) scale(59.0197 17.6024)">
<stop stop-color="#E1E1E1"/>
<stop offset="1" stop-color="#FFF4DA"/>
</radialGradient>
<radialGradient id="paint14_radial_692_2018" cx="0" cy="0" r="1" gradientUnits="userSpaceOnUse" gradientTransform="translate(59.0197 17.6024) scale(59.0197 17.6024)">
<stop stop-color="#E1E1E1"/>
<stop offset="1" stop-color="#FFF4DA"/>
</radialGradient>
<radialGradient id="paint15_radial_692_2018" cx="0" cy="0" r="1" gradientUnits="userSpaceOnUse" gradientTransform="translate(59.0197 17.6024) scale(59.0197 17.6024)">
<stop stop-color="#E1E1E1"/>
<stop offset="1" stop-color="#FFF4DA"/>
</radialGradient>
<radialGradient id="paint16_radial_692_2018" cx="0" cy="0" r="1" gradientUnits="userSpaceOnUse" gradientTransform="translate(177.059 17.6024) rotate(180) scale(59.0197 17.6024)">
<stop stop-color="#E1E1E1"/>
<stop offset="1" stop-color="#FFF4DA"/>
</radialGradient>
<radialGradient id="paint17_radial_692_2018" cx="0" cy="0" r="1" gradientUnits="userSpaceOnUse" gradientTransform="translate(177.059 17.6024) rotate(180) scale(59.0197 17.6024)">
<stop stop-color="#E1E1E1"/>
<stop offset="1" stop-color="#FFF4DA"/>
</radialGradient>
<radialGradient id="paint18_radial_692_2018" cx="0" cy="0" r="1" gradientUnits="userSpaceOnUse" gradientTransform="translate(177.059 17.6024) rotate(180) scale(59.0197 17.6024)">
<stop stop-color="#E1E1E1"/>
<stop offset="1" stop-color="#FFF4DA"/>
</radialGradient>
<radialGradient id="paint19_radial_692_2018" cx="0" cy="0" r="1" gradientUnits="userSpaceOnUse" gradientTransform="translate(177.059 17.6024) rotate(180) scale(59.0197 17.6024)">
<stop stop-color="#E1E1E1"/>
<stop offset="1" stop-color="#FFF4DA"/>
</radialGradient>
<radialGradient id="paint20_radial_692_2018" cx="0" cy="0" r="1" gradientUnits="userSpaceOnUse" gradientTransform="translate(177.059 17.6024) rotate(180) scale(59.0197 17.6024)">
<stop stop-color="#E1E1E1"/>
<stop offset="1" stop-color="#FFF4DA"/>
</radialGradient>
<radialGradient id="paint21_radial_692_2018" cx="0" cy="0" r="1" gradientUnits="userSpaceOnUse" gradientTransform="translate(177.059 17.6024) rotate(180) scale(59.0197 17.6024)">
<stop stop-color="#E1E1E1"/>
<stop offset="1" stop-color="#FFF4DA"/>
</radialGradient>
<radialGradient id="paint22_radial_692_2018" cx="0" cy="0" r="1" gradientUnits="userSpaceOnUse" gradientTransform="translate(177.059 17.6024) rotate(180) scale(59.0197 17.6024)">
<stop stop-color="#E1E1E1"/>
<stop offset="1" stop-color="#FFF4DA"/>
</radialGradient>
<radialGradient id="paint23_radial_692_2018" cx="0" cy="0" r="1" gradientUnits="userSpaceOnUse" gradientTransform="translate(177.059 17.6024) rotate(180) scale(59.0197 17.6024)">
<stop stop-color="#E1E1E1"/>
<stop offset="1" stop-color="#FFF4DA"/>
</radialGradient>
</defs>
</svg>
