<svg width="237" height="132" viewBox="0 0 237 132" fill="none" xmlns="http://www.w3.org/2000/svg">
<path d="M50.7125 108.06C49.3889 108.487 47.9214 108.504 46.7169 107.809C44.5794 106.575 44.1412 105.154 44.5234 102.508V102.508C42.8798 103.056 42.063 104.953 43.0339 106.388C43.9977 107.812 45.0937 108.974 46.6267 110.246C47.9171 111.316 49.5696 111.855 51.2458 111.812C56.4406 111.679 59.0349 110.851 62.1257 108.72C61.1051 110.641 61.1618 111.76 61.9885 113.6C62.0605 113.76 62.2568 113.822 62.4077 113.731C64.0825 112.73 65.0039 111.892 66.2674 109.756C66.2154 114.032 66.9843 113.977 70.4091 114.933C67.5194 110.86 68.0525 109.221 70.1981 106.254C70.9958 105.151 72.1259 104.331 73.4053 103.866L78.5776 101.985C81.3342 100.982 84.3487 100.942 87.1313 101.869L104.173 107.55C104.307 107.435 104.442 107.326 104.578 107.223V104.508C104.578 103.403 105.474 102.508 106.578 102.508H108.791C109.896 102.508 110.791 103.403 110.791 104.508V105.614H111.826V103.472C111.826 102.368 110.931 101.472 109.826 101.472H105.543C104.438 101.472 103.543 102.368 103.543 103.472V106.65C98.7736 103.748 93.5321 101.584 86.7257 99.7769C82.8456 98.747 78.7534 99.0145 74.9328 100.247L50.7125 108.06Z" fill="url(#paint0_radial_692_1592)"/>
<path fill-rule="evenodd" clip-rule="evenodd" d="M118.039 111.827V108.721C115.458 105.74 114.163 105.799 111.826 105.614H110.791C108.063 105.589 106.222 105.979 104.578 107.223V107.685L104.173 107.55C103.27 108.327 102.409 109.382 101.472 110.791C94.4225 108.167 92.2419 105.859 84.6304 104.117C82.7927 103.696 80.8379 103.854 79.1733 104.739C77.1406 105.82 75.7478 107.075 74.4004 109.235C73.7976 110.201 73.7049 111.42 74.2146 112.438C75.0495 114.107 76.2498 115.417 79.1376 117.128C80.1186 117.709 81.3505 117.62 82.2784 116.957L86.28 114.099C87.2184 113.429 87.4128 112.09 86.6211 111.251C84.8302 109.354 83.7227 109.09 81.7989 109.756C83.0242 110.067 83.7473 110.456 84.396 111.688C84.7596 112.378 84.5518 113.216 84 113.767L82.2754 115.492C81.3706 116.397 79.9663 116.664 78.9055 115.948C77.3915 114.927 76.4781 113.802 75.4876 112.283C74.8937 111.372 74.8539 110.185 75.48 109.296C77.188 106.871 79.0763 106.022 82.8343 105.614C87.5138 105.758 93.9734 109.592 101.472 112.862C101.61 115.305 101.827 117.608 105.43 119.531C106.15 119.915 107.027 119.733 107.604 119.156L110.252 116.508C110.55 116.21 110.55 115.727 110.252 115.429V115.429C109.971 115.149 109.521 115.134 109.21 115.381C104.882 118.812 103.349 117.017 102.508 112.862C108.784 113.743 111.6 112.063 112.862 106.65H114.933L118.039 111.827ZM102.508 111.827C105.324 107.593 107.416 106.549 111.826 106.65C109.581 111.782 107.623 113.001 102.508 111.827Z" fill="url(#paint1_radial_692_1592)"/>
<path d="M118.039 114.933V111.827C116.112 115.763 116.189 118.074 110.791 119.075C111.96 121.038 112.806 121.636 114.933 121.146C115.324 125.201 115.717 127.472 118.039 131.5V125.287C116.703 121.107 116.952 118.865 118.039 114.933Z" fill="url(#paint2_radial_692_1592)"/>
<path d="M115.968 98.3662C116.06 94.792 116.696 93.3936 118.039 91.1182V105.614C115.722 100.811 114.342 99.4138 111.826 99.4015C113.364 97.8121 114.276 97.3638 115.968 98.3662Z" fill="url(#paint3_radial_692_1592)"/>
<path d="M185.366 108.06C186.689 108.487 188.157 108.504 189.361 107.809C191.499 106.575 191.937 105.154 191.555 102.508V102.508C193.198 103.056 194.015 104.953 193.044 106.388C192.08 107.812 190.984 108.974 189.451 110.246C188.161 111.316 186.509 111.855 184.832 111.812C179.637 111.679 177.043 110.851 173.952 108.72C174.973 110.641 174.916 111.76 174.09 113.6C174.018 113.76 173.821 113.822 173.67 113.731C171.996 112.73 171.074 111.892 169.811 109.756C169.863 114.032 169.094 113.977 165.669 114.933C168.559 110.86 168.026 109.221 165.88 106.254C165.082 105.151 163.952 104.331 162.673 103.866L157.5 101.985C154.744 100.982 151.729 100.942 148.947 101.869L131.905 107.55C131.771 107.435 131.636 107.326 131.5 107.223V104.508C131.5 103.403 130.604 102.508 129.5 102.508H127.287C126.183 102.508 125.287 103.403 125.287 104.508V105.614H124.252V103.472C124.252 102.368 125.147 101.472 126.252 101.472H130.535C131.64 101.472 132.535 102.368 132.535 103.472V106.65C137.304 103.748 142.546 101.584 149.352 99.7769C153.232 98.747 157.325 99.0145 161.145 100.247L185.366 108.06Z" fill="url(#paint4_radial_692_1592)"/>
<path fill-rule="evenodd" clip-rule="evenodd" d="M118.039 111.827V108.721C120.62 105.74 121.915 105.799 124.252 105.614H125.287C128.015 105.589 129.856 105.979 131.5 107.223V107.685L131.905 107.55C132.808 108.327 133.669 109.382 134.606 110.791C141.656 108.167 143.836 105.859 151.448 104.117C153.285 103.696 155.24 103.854 156.905 104.739C158.938 105.82 160.33 107.075 161.678 109.235C162.281 110.201 162.373 111.42 161.863 112.438C161.029 114.107 159.828 115.417 156.941 117.128C155.96 117.709 154.728 117.62 153.8 116.957L149.798 114.099C148.86 113.429 148.665 112.09 149.457 111.251C151.248 109.354 152.355 109.09 154.279 109.756C153.054 110.067 152.331 110.456 151.682 111.688C151.319 112.378 151.526 113.216 152.078 113.767L153.803 115.492C154.708 116.397 156.112 116.664 157.173 115.948C158.687 114.927 159.6 113.802 160.591 112.283C161.184 111.372 161.224 110.185 160.598 109.296C158.89 106.871 157.002 106.022 153.244 105.614C148.564 105.758 142.105 109.592 134.606 112.862C134.468 115.305 134.251 117.608 130.648 119.531C129.928 119.915 129.051 119.733 128.474 119.156L125.826 116.508C125.528 116.21 125.528 115.727 125.826 115.429V115.429C126.107 115.149 126.557 115.134 126.868 115.381C131.196 118.812 132.729 117.017 133.571 112.862C127.294 113.743 124.478 112.063 123.216 106.65H121.145L118.039 111.827ZM133.571 111.827C130.754 107.593 128.662 106.549 124.252 106.65C126.497 111.782 128.455 113.001 133.571 111.827Z" fill="url(#paint5_radial_692_1592)"/>
<path d="M118.039 114.933V111.827C119.967 115.763 119.889 118.074 125.287 119.075C124.119 121.038 123.273 121.636 121.145 121.146C120.754 125.201 120.361 127.472 118.039 131.5V125.287C119.375 121.107 119.126 118.865 118.039 114.933Z" fill="url(#paint6_radial_692_1592)"/>
<path d="M120.11 98.3662C120.019 94.792 119.382 93.3936 118.039 91.1182V105.614C120.356 100.811 121.736 99.4138 124.252 99.4015C122.714 97.8121 121.802 97.3638 120.11 98.3662Z" fill="url(#paint7_radial_692_1592)"/>
<path d="M62.8438 74.9141C62.8438 74.9141 62.4427 74.9355 61.6406 74.9785C60.8529 75.0072 59.6641 75.0573 58.0742 75.1289C58.0456 75.1003 58.0312 74.9857 58.0312 74.7852C58.0312 74.2409 58.1029 73.9688 58.2461 73.9688C58.4609 73.9688 58.7832 73.9186 59.2129 73.8184C59.6426 73.7038 60.0508 73.5677 60.4375 73.4102C60.8242 73.2383 61.0534 73.0664 61.125 72.8945C61.526 72.0781 61.8984 70.7461 62.2422 68.8984L65.3359 52.9141C65.7083 50.8229 65.8659 49.4909 65.8086 48.918C65.7943 48.7604 65.6296 48.6029 65.3145 48.4453C64.9993 48.2878 64.6556 48.1589 64.2832 48.0586C63.9108 47.944 63.6172 47.8867 63.4023 47.8867C63.3451 47.8867 63.3164 47.8294 63.3164 47.7148C63.3164 47.2565 63.4167 46.9271 63.6172 46.7266C64.276 46.7552 64.985 46.7767 65.7441 46.791C66.5176 46.8053 67.3411 46.8125 68.2148 46.8125C68.7878 46.8125 69.5684 46.7982 70.5566 46.7695C71.5592 46.7409 72.7695 46.6979 74.1875 46.6406C75.6055 46.5833 76.8587 46.5404 77.9473 46.5117C79.0358 46.4831 79.9596 46.4688 80.7188 46.4688C80.7044 46.6693 80.6901 46.9128 80.6758 47.1992C80.6758 47.4714 80.6758 47.7865 80.6758 48.1445C80.6758 48.388 80.6758 48.6888 80.6758 49.0469C80.6901 49.3906 80.7044 49.7917 80.7188 50.25C80.7331 50.7083 80.7402 51.1094 80.7402 51.4531C80.7546 51.7969 80.7617 52.0833 80.7617 52.3125C80.6185 52.4557 80.3607 52.5273 79.9883 52.5273C79.6445 52.5273 79.4727 52.4271 79.4727 52.2266C79.3867 50.6224 79.0143 49.6055 78.3555 49.1758C77.6966 48.7461 76.651 48.5312 75.2188 48.5312H72.8984C70.8789 48.5312 69.7904 48.7174 69.6328 49.0898C69.3177 49.9492 69.0599 50.9089 68.8594 51.9688L67.4844 59.4883C67.4844 59.6602 67.6562 59.7604 68 59.7891C68.3438 59.8177 68.7018 59.832 69.0742 59.832H71.0078C71.9531 59.832 72.6979 59.8105 73.2422 59.7676C73.7865 59.7246 74.2161 59.61 74.5312 59.4238C74.8464 59.2376 75.1185 58.9368 75.3477 58.5215C75.5911 58.1061 75.8776 57.526 76.207 56.7812C76.293 56.5807 76.4935 56.4805 76.8086 56.4805C77.1523 56.4805 77.3672 56.5521 77.4531 56.6953L75.8633 64.9453C75.6771 65.0599 75.4766 65.1172 75.2617 65.1172C74.875 65.1172 74.6745 65.0026 74.6602 64.7734C74.6458 64.043 74.5885 63.4629 74.4883 63.0332C74.431 62.7611 74.3809 62.5677 74.3379 62.4531C74.2949 62.3385 74.1875 62.2096 74.0156 62.0664C73.7435 61.8372 72.3542 61.7227 69.8477 61.7227C67.9714 61.7227 66.9974 61.8516 66.9258 62.1094L65.4648 69.5C65.2357 70.6029 65.1211 71.7344 65.1211 72.8945C65.1211 73.1237 65.3646 73.3314 65.8516 73.5176C66.3385 73.7038 66.8255 73.8255 67.3125 73.8828L68.043 73.9688C68.1003 73.9688 68.1289 74.0833 68.1289 74.3125C68.1289 74.6849 68.043 74.957 67.8711 75.1289C66.5391 75.0573 65.4505 75.0072 64.6055 74.9785C63.7747 74.9355 63.1875 74.9141 62.8438 74.9141ZM86.7773 56.3086C87.2357 56.3086 87.5938 56.5163 87.8516 56.9316C88.1094 57.347 88.2383 57.8841 88.2383 58.543C88.2383 59.3021 88.1523 60.0612 87.9805 60.8203L86.4766 67.9102C86.276 68.7839 86.1758 69.5573 86.1758 70.2305C86.1758 71.4622 86.4479 72.0781 86.9922 72.0781C87.3073 72.0781 87.694 71.8991 88.1523 71.541C88.625 71.1829 89.112 70.7246 89.6133 70.166C90.1289 69.6074 90.6087 69.0345 91.0527 68.4473C91.8691 67.373 92.6426 66.0625 93.373 64.5156C94.1035 62.9688 94.612 61.4362 94.8984 59.918L95.6289 56.5664C96.0156 56.4518 96.4596 56.3945 96.9609 56.3945C97.4479 56.3945 97.9349 56.4518 98.4219 56.5664L95.7578 70.4453C95.6719 70.7891 95.6289 71.1471 95.6289 71.5195C95.6289 72.2357 95.7721 72.5938 96.0586 72.5938C96.4167 72.5938 96.8464 72.3431 97.3477 71.8418C97.849 71.3262 98.2786 70.8893 98.6367 70.5312L98.8945 70.2305C98.9518 70.2305 99.0592 70.3665 99.2168 70.6387C99.3743 70.9108 99.4531 71.1042 99.4531 71.2188C99.2096 71.6341 98.7656 72.1641 98.1211 72.8086C97.4909 73.4531 96.8034 74.026 96.0586 74.5273C95.3138 75.0143 94.6406 75.2578 94.0391 75.2578C93.5807 75.2578 93.2227 75.0501 92.9648 74.6348C92.707 74.2194 92.5781 73.6823 92.5781 73.0234C92.5781 72.5938 92.6784 71.8346 92.8789 70.7461L93.6523 66.793C93.3802 67.3086 92.793 68.1966 91.8906 69.457C91.3034 70.2734 90.5944 71.1328 89.7637 72.0352C88.9473 72.9375 88.1309 73.7038 87.3145 74.334C86.498 74.9499 85.8034 75.2578 85.2305 75.2578C83.7982 75.2578 83.082 74.3125 83.082 72.4219C83.082 71.0755 83.2826 69.5143 83.6836 67.7383L84.9727 61.7656C85.1159 60.7773 85.1875 60.2044 85.1875 60.0469C85.1875 59.3307 85.0443 58.9727 84.7578 58.9727C84.5143 58.9727 84.1491 59.2018 83.6621 59.6602C83.4329 59.8893 83.1823 60.14 82.9102 60.4121C82.6523 60.6842 82.4805 60.8776 82.3945 60.9922C82.3372 60.9922 82.2298 60.8561 82.0723 60.584C81.9147 60.3118 81.8359 60.1185 81.8359 60.0039C82.0651 59.6172 82.4805 59.1374 83.082 58.5645C83.6836 57.9772 84.3281 57.4544 85.0156 56.9961C85.7031 56.5378 86.2904 56.3086 86.7773 56.3086ZM110.109 56.1797C111.742 56.1797 113.031 56.724 113.977 57.8125C114.12 58.1419 114.191 58.4427 114.191 58.7148C114.191 59.2305 114.055 59.6745 113.783 60.0469C113.511 60.4193 113.16 60.6055 112.73 60.6055C112.344 60.6055 111.986 60.3978 111.656 59.9824C111.341 59.5671 110.947 59.1445 110.475 58.7148C110.002 58.2852 109.379 58.0703 108.605 58.0703C108.004 58.0703 107.531 58.2708 107.188 58.6719C106.844 59.0729 106.672 59.5312 106.672 60.0469C106.672 60.7917 106.951 61.5866 107.51 62.4316C108.068 63.2767 108.677 64.0286 109.336 64.6875C109.995 65.3464 110.604 66.1484 111.162 67.0938C111.721 68.0391 112 68.9987 112 69.9727C112 71.5482 111.427 72.8229 110.281 73.7969C109.135 74.7708 107.66 75.2578 105.855 75.2578C104.223 75.2578 102.934 74.7135 101.988 73.625C101.845 73.3958 101.773 73.1237 101.773 72.8086C101.773 72.293 101.91 71.8346 102.182 71.4336C102.454 71.0326 102.805 70.832 103.234 70.832C103.621 70.832 103.979 71.0397 104.309 71.4551C104.624 71.8704 105.018 72.293 105.49 72.7227C105.963 73.1523 106.586 73.3672 107.359 73.3672C107.99 73.3672 108.498 73.1595 108.885 72.7441C109.271 72.3288 109.465 71.8776 109.465 71.3906C109.465 70.6458 109.186 69.8509 108.627 69.0059C108.068 68.1608 107.46 67.4089 106.801 66.75C106.142 66.0911 105.533 65.2891 104.975 64.3438C104.416 63.3984 104.137 62.4388 104.137 61.4648C104.137 60.6628 104.402 59.8535 104.932 59.0371C105.462 58.2207 106.178 57.5404 107.08 56.9961C107.982 56.4518 108.992 56.1797 110.109 56.1797ZM123.859 56.1797C125.492 56.1797 126.781 56.724 127.727 57.8125C127.87 58.1419 127.941 58.4427 127.941 58.7148C127.941 59.2305 127.805 59.6745 127.533 60.0469C127.261 60.4193 126.91 60.6055 126.48 60.6055C126.094 60.6055 125.736 60.3978 125.406 59.9824C125.091 59.5671 124.697 59.1445 124.225 58.7148C123.752 58.2852 123.129 58.0703 122.355 58.0703C121.754 58.0703 121.281 58.2708 120.938 58.6719C120.594 59.0729 120.422 59.5312 120.422 60.0469C120.422 60.7917 120.701 61.5866 121.26 62.4316C121.818 63.2767 122.427 64.0286 123.086 64.6875C123.745 65.3464 124.354 66.1484 124.912 67.0938C125.471 68.0391 125.75 68.9987 125.75 69.9727C125.75 71.5482 125.177 72.8229 124.031 73.7969C122.885 74.7708 121.41 75.2578 119.605 75.2578C117.973 75.2578 116.684 74.7135 115.738 73.625C115.595 73.3958 115.523 73.1237 115.523 72.8086C115.523 72.293 115.66 71.8346 115.932 71.4336C116.204 71.0326 116.555 70.832 116.984 70.832C117.371 70.832 117.729 71.0397 118.059 71.4551C118.374 71.8704 118.768 72.293 119.24 72.7227C119.713 73.1523 120.336 73.3672 121.109 73.3672C121.74 73.3672 122.248 73.1595 122.635 72.7441C123.021 72.3288 123.215 71.8776 123.215 71.3906C123.215 70.6458 122.936 69.8509 122.377 69.0059C121.818 68.1608 121.21 67.4089 120.551 66.75C119.892 66.0911 119.283 65.2891 118.725 64.3438C118.166 63.3984 117.887 62.4388 117.887 61.4648C117.887 60.6628 118.152 59.8535 118.682 59.0371C119.212 58.2207 119.928 57.5404 120.83 56.9961C121.732 56.4518 122.742 56.1797 123.859 56.1797ZM136.578 47.2422C137.008 47.2422 137.373 47.4141 137.674 47.7578C137.975 48.1016 138.125 48.5026 138.125 48.9609C138.125 49.6484 137.903 50.25 137.459 50.7656C137.015 51.2812 136.464 51.5391 135.805 51.5391C135.346 51.5391 134.988 51.36 134.73 51.002C134.473 50.6439 134.344 50.207 134.344 49.6914C134.344 49.0326 134.559 48.4596 134.988 47.9727C135.418 47.4857 135.948 47.2422 136.578 47.2422ZM135.332 56.3086C135.79 56.3086 136.148 56.5163 136.406 56.9316C136.664 57.347 136.793 57.8841 136.793 58.543C136.793 59.1302 136.707 59.8893 136.535 60.8203L134.645 70.4453C134.559 70.7891 134.516 71.1471 134.516 71.5195C134.516 72.2357 134.659 72.5938 134.945 72.5938C135.303 72.5938 135.733 72.3431 136.234 71.8418C136.736 71.3262 137.165 70.8893 137.523 70.5312L137.781 70.2305C137.839 70.2305 137.946 70.3665 138.104 70.6387C138.261 70.9108 138.34 71.1042 138.34 71.2188C138.096 71.6341 137.652 72.1641 137.008 72.8086C136.378 73.4531 135.69 74.026 134.945 74.5273C134.201 75.0143 133.527 75.2578 132.926 75.2578C132.467 75.2578 132.109 75.0501 131.852 74.6348C131.594 74.2194 131.465 73.6823 131.465 73.0234C131.465 72.5938 131.565 71.8346 131.766 70.7461L133.527 61.7656C133.671 60.9206 133.742 60.3477 133.742 60.0469C133.742 59.3307 133.599 58.9727 133.312 58.9727C133.141 58.9727 132.904 59.0872 132.604 59.3164C132.317 59.5456 132.038 59.8034 131.766 60.0898C131.493 60.362 131.293 60.5768 131.164 60.7344L130.949 60.9922C130.892 60.9922 130.785 60.8561 130.627 60.584C130.469 60.3118 130.391 60.1185 130.391 60.0039C130.62 59.6172 131.035 59.1374 131.637 58.5645C132.238 57.9772 132.883 57.4544 133.57 56.9961C134.258 56.5378 134.845 56.3086 135.332 56.3086ZM142.164 70.7461L146.203 49.9062C146.289 49.4766 146.332 49.0755 146.332 48.7031C146.332 48.1589 145.458 47.8867 143.711 47.8867C143.625 47.8867 143.582 47.8008 143.582 47.6289C143.582 47.2852 143.697 46.9987 143.926 46.7695C145.845 46.5977 147.678 46.1966 149.426 45.5664C149.598 45.6523 149.684 45.9245 149.684 46.3828C149.684 46.6979 149.497 47.7721 149.125 49.6055L145.043 70.4453C144.957 70.7891 144.914 71.1471 144.914 71.5195C144.914 72.2357 145.057 72.5938 145.344 72.5938C145.516 72.5938 145.723 72.515 145.967 72.3574C146.21 72.1999 146.461 72.0065 146.719 71.7773C146.977 71.5482 147.27 71.2546 147.6 70.8965C147.929 70.5241 148.122 70.3021 148.18 70.2305C148.266 70.2305 148.38 70.3665 148.523 70.6387C148.667 70.9108 148.738 71.1042 148.738 71.2188C148.495 71.6341 148.051 72.1641 147.406 72.8086C146.776 73.4531 146.089 74.026 145.344 74.5273C144.599 75.0143 143.926 75.2578 143.324 75.2578C142.895 75.2578 142.544 75.0501 142.271 74.6348C141.999 74.2194 141.863 73.6823 141.863 73.0234C141.863 72.5794 141.964 71.8203 142.164 70.7461ZM163.906 56.3086C164.966 56.3086 166.012 56.4948 167.043 56.8672L164.422 70.4453C164.336 70.7891 164.293 71.1471 164.293 71.5195C164.293 72.2357 164.436 72.5938 164.723 72.5938C165.081 72.5938 165.51 72.3431 166.012 71.8418C166.513 71.3262 166.943 70.8893 167.301 70.5312L167.559 70.2305C167.616 70.2305 167.723 70.3665 167.881 70.6387C168.038 70.9108 168.117 71.1042 168.117 71.2188C167.874 71.6341 167.43 72.1641 166.785 72.8086C166.155 73.4531 165.467 74.026 164.723 74.5273C163.978 75.0143 163.305 75.2578 162.703 75.2578C162.245 75.2578 161.887 75.0501 161.629 74.6348C161.371 74.2194 161.242 73.6823 161.242 73.0234C161.242 72.5794 161.342 71.8203 161.543 70.7461L161.693 69.9941C161.736 69.7936 161.758 69.6719 161.758 69.6289C161.529 70.0586 161.199 70.5885 160.77 71.2188C160.34 71.8346 159.846 72.4505 159.287 73.0664C158.729 73.6823 158.141 74.1979 157.525 74.6133C156.91 75.0143 156.301 75.2148 155.699 75.2148C154.439 75.2148 153.443 74.6491 152.713 73.5176C151.982 72.3861 151.617 71.0182 151.617 69.4141C151.617 67.3659 152.226 65.3249 153.443 63.291C154.26 61.916 155.234 60.7057 156.365 59.6602C157.511 58.6146 158.736 57.7982 160.039 57.2109C161.342 56.6094 162.632 56.3086 163.906 56.3086ZM162.102 58.2852C161.257 58.2852 160.404 58.5859 159.545 59.1875C158.686 59.7747 157.898 60.5697 157.182 61.5723C156.465 62.5605 155.885 63.6634 155.441 64.8809C155.012 66.084 154.797 67.2943 154.797 68.5117C154.797 71.319 155.527 72.7227 156.988 72.7227C157.504 72.7227 158.062 72.4362 158.664 71.8633C159.266 71.2904 159.86 70.5312 160.447 69.5859C161.035 68.6406 161.55 67.6165 161.994 66.5137C162.452 65.3965 162.789 64.3008 163.004 63.2266L163.863 58.8438C163.52 58.4714 162.932 58.2852 162.102 58.2852ZM172.113 56.9531H175.121L176.152 51.7109C176.238 51.4245 176.94 51.2812 178.258 51.2812C178.544 51.2812 178.802 51.2956 179.031 51.3242L177.957 56.9531H181.867C182.01 56.9531 182.082 57.1393 182.082 57.5117C182.082 57.8411 181.953 58.2565 181.695 58.7578H177.613L175.336 70.4453C175.25 70.7891 175.207 71.1471 175.207 71.5195C175.207 72.2357 175.35 72.5938 175.637 72.5938C175.995 72.5938 176.424 72.3431 176.926 71.8418C177.427 71.3262 177.857 70.8893 178.215 70.5312L178.473 70.2305C178.53 70.2305 178.637 70.3665 178.795 70.6387C178.952 70.9108 179.031 71.1042 179.031 71.2188C178.788 71.6341 178.344 72.1641 177.699 72.8086C177.069 73.4531 176.382 74.026 175.637 74.5273C174.892 75.0143 174.219 75.2578 173.617 75.2578C173.159 75.2578 172.801 75.0501 172.543 74.6348C172.285 74.2194 172.156 73.6823 172.156 73.0234C172.156 72.5938 172.257 71.8346 172.457 70.7461L174.777 58.7578H171.727C171.641 58.7578 171.598 58.6003 171.598 58.2852C171.598 57.9128 171.77 57.4688 172.113 56.9531Z" fill="white"/>
<path d="M0 14.4961C6.30012 20.0984 15.0791 19.1979 30.687 15.1421C32.2497 14.736 33.9168 14.9601 35.3059 15.7832L61.0905 31.063L35.3304 19.6141C33.9205 18.9874 32.3183 18.9353 30.8588 19.4358C12.5496 25.7159 4.73674 24.7283 0 14.4961Z" fill="url(#paint8_radial_692_1592)"/>
<path d="M16.5669 25.8858C22.7094 27.5488 34.4861 19.1752 43.5027 24.2129C35.7991 20.3448 24.9274 34.7378 16.5669 25.8858Z" fill="url(#paint9_radial_692_1592)"/>
<path d="M42.4528 34.1693C40.4746 32.9379 39.8039 31.791 39.5364 30.2054C39.314 28.8871 40.2138 27.6374 41.514 27.3262C46.4064 26.1551 49.6595 27.3172 54.8779 31.063C50.3759 26.3362 46.8249 25.2844 39.6469 25.78C38.7972 25.8387 38.0191 26.2751 37.5081 26.9564L36.1669 28.7446C35.6047 29.4943 35.6307 30.5432 36.2784 31.2205C38.4425 33.4837 39.9798 34.1156 42.4528 34.1693Z" fill="url(#paint10_radial_692_1592)"/>
<path d="M61.0905 28.9921C48.8725 19.5072 53.131 18.6378 60.0551 10.3543C56.6285 8.93238 54.8937 8.83857 52.8071 12.4252C51.2879 8.29387 49.7783 6.42726 45.559 4.14173C43.8524 8.52031 44.6321 10.6991 46.5945 14.4961C42.9378 12.0347 40.7471 11.3823 36.2402 13.4606C46.3046 17.727 45.2926 18.8748 61.0905 28.9921Z" fill="url(#paint11_radial_692_1592)"/>
<path d="M78.6929 22.7441C78.6929 22.1918 79.1406 21.7441 79.6929 21.7441H79.7638C80.3161 21.7441 80.7638 22.1918 80.7638 22.7441V25.9213C80.7638 26.4735 80.3161 26.9213 79.7638 26.9213H74.4803C73.3757 26.9213 72.4803 26.0258 72.4803 24.9213V19.6024C72.4803 18.4978 73.3757 17.6024 74.4803 17.6024H78.7281C80.6137 17.6024 82.4755 18.023 84.178 18.8337V18.8337C85.2965 19.3663 86.1249 20.3629 86.4441 21.5599L88.3399 28.6695C89.2063 31.9182 86.6836 35.0788 83.3237 34.9544L68.0679 34.3894C64.7776 34.2675 62.2002 31.5169 62.2923 28.2256L62.6948 13.8426C62.7856 10.5955 65.4441 8.01038 68.6924 8.01038H83.0387C86.0229 8.01038 88.8896 9.21712 90.915 11.4088C101.807 23.194 109.097 33.3225 115.395 32.2299C115.685 32.1796 115.968 32.3916 115.968 32.686V32.686C115.968 32.9325 115.766 33.1318 115.519 33.1285C109.37 33.045 105.37 32.4313 87.653 13.254C86.5367 12.0456 85.0793 11.1983 83.4735 10.8414L77.8584 9.59364C77.0431 9.41248 76.199 9.4035 75.3801 9.56728L71.091 10.4251C68.2865 10.986 66.2677 13.4485 66.2677 16.3086V27.0984C66.2677 29.8599 68.5063 32.0984 71.2677 32.0984H80.9055C83.1146 32.0984 84.9055 30.3076 84.9055 28.0984V22.6378C84.9055 20.4287 83.1146 18.6378 80.9055 18.6378H76.5512C75.4466 18.6378 74.5512 19.5332 74.5512 20.6378V24.8858C74.5512 25.4381 74.9989 25.8858 75.5512 25.8858H77.6929C78.2452 25.8858 78.6929 25.4381 78.6929 24.8858V22.7441Z" fill="url(#paint12_radial_692_1592)"/>
<path d="M104.412 33.0631C96.4743 29.9513 88.3242 12.4066 78.6929 13.4606C91.6665 19.2326 92.9183 31.4785 104.412 33.0631Z" fill="url(#paint13_radial_692_1592)"/>
<path d="M111.827 30.0276C106.485 21.6827 106.361 16.9143 110.791 8.28346C105.363 9.71409 97.6256 19.5114 111.827 30.0276Z" fill="url(#paint14_radial_692_1592)"/>
<path d="M118.039 10.3543C113.102 14.0549 110.405 23.2793 118.039 32.0984C106.33 25.6888 109.793 12.7713 118.039 0V10.3543Z" fill="url(#paint15_radial_692_1592)"/>
<path d="M236.079 14.4961C229.779 20.0984 221 19.1979 205.392 15.1421C203.829 14.736 202.162 14.9601 200.773 15.7832L174.989 31.063L200.749 19.6141C202.159 18.9874 203.761 18.9353 205.22 19.4358C223.529 25.7159 231.342 24.7283 236.079 14.4961Z" fill="url(#paint16_radial_692_1592)"/>
<path d="M219.512 25.8858C213.37 27.5488 201.593 19.1752 192.576 24.2129C200.28 20.3448 211.152 34.7378 219.512 25.8858Z" fill="url(#paint17_radial_692_1592)"/>
<path d="M193.626 34.1693C195.605 32.9379 196.275 31.791 196.543 30.2054C196.765 28.8871 195.865 27.6374 194.565 27.3262C189.673 26.1551 186.42 27.3172 181.201 31.063C185.703 26.3362 189.254 25.2844 196.432 25.78C197.282 25.8387 198.06 26.2751 198.571 26.9564L199.912 28.7446C200.474 29.4943 200.448 30.5432 199.801 31.2205C197.637 33.4837 196.099 34.1156 193.626 34.1693Z" fill="url(#paint18_radial_692_1592)"/>
<path d="M174.989 28.9921C187.207 19.5072 182.948 18.6378 176.024 10.3543C179.451 8.93238 181.185 8.83857 183.272 12.4252C184.791 8.29387 186.301 6.42726 190.52 4.14173C192.227 8.52031 191.447 10.6991 189.485 14.4961C193.141 12.0347 195.332 11.3823 199.839 13.4606C189.775 17.727 190.787 18.8748 174.989 28.9921Z" fill="url(#paint19_radial_692_1592)"/>
<path d="M157.386 22.7441C157.386 22.1918 156.938 21.7441 156.386 21.7441H156.315C155.763 21.7441 155.315 22.1918 155.315 22.7441V25.9213C155.315 26.4735 155.763 26.9213 156.315 26.9213H161.599C162.703 26.9213 163.599 26.0258 163.599 24.9213V19.6024C163.599 18.4978 162.703 17.6024 161.599 17.6024H157.351C155.465 17.6024 153.604 18.023 151.901 18.8337V18.8337C150.783 19.3663 149.954 20.3629 149.635 21.5599L147.739 28.6695C146.873 31.9182 149.396 35.0788 152.755 34.9544L168.011 34.3894C171.301 34.2675 173.879 31.5169 173.787 28.2256L173.384 13.8426C173.293 10.5955 170.635 8.01038 167.387 8.01038H153.04C150.056 8.01038 147.19 9.21712 145.164 11.4088C134.273 23.194 126.982 33.3225 120.684 32.2299C120.394 32.1796 120.111 32.3916 120.111 32.686V32.686C120.111 32.9325 120.313 33.1318 120.56 33.1285C126.709 33.045 130.709 32.4313 148.426 13.254C149.542 12.0456 151 11.1983 152.606 10.8414L158.221 9.59364C159.036 9.41248 159.88 9.4035 160.699 9.56728L164.988 10.4251C167.793 10.986 169.811 13.4485 169.811 16.3086V27.0984C169.811 29.8599 167.573 32.0984 164.811 32.0984H155.174C152.964 32.0984 151.174 30.3076 151.174 28.0984V22.6378C151.174 20.4287 152.964 18.6378 155.174 18.6378H159.528C160.633 18.6378 161.528 19.5332 161.528 20.6378V24.8858C161.528 25.4381 161.08 25.8858 160.528 25.8858H158.386C157.834 25.8858 157.386 25.4381 157.386 24.8858V22.7441Z" fill="url(#paint20_radial_692_1592)"/>
<path d="M131.667 33.0631C139.605 29.9513 147.755 12.4066 157.386 13.4606C144.413 19.2326 143.161 31.4785 131.667 33.0631Z" fill="url(#paint21_radial_692_1592)"/>
<path d="M124.252 30.0276C129.594 21.6827 129.718 16.9143 125.288 8.28346C130.716 9.71409 138.454 19.5114 124.252 30.0276Z" fill="url(#paint22_radial_692_1592)"/>
<path d="M118.04 10.3543C122.977 14.0549 125.674 23.2793 118.04 32.0984C129.75 25.6888 126.286 12.7713 118.04 0V10.3543Z" fill="url(#paint23_radial_692_1592)"/>
<defs>
<radialGradient id="paint0_radial_692_1592" cx="0" cy="0" r="1" gradientUnits="userSpaceOnUse" gradientTransform="translate(79.728 111.309) scale(38.311 20.1909)">
<stop stop-color="#E1E1E1"/>
<stop offset="1" stop-color="#FFF4DA"/>
</radialGradient>
<radialGradient id="paint1_radial_692_1592" cx="0" cy="0" r="1" gradientUnits="userSpaceOnUse" gradientTransform="translate(79.728 111.309) scale(38.311 20.1909)">
<stop stop-color="#E1E1E1"/>
<stop offset="1" stop-color="#FFF4DA"/>
</radialGradient>
<radialGradient id="paint2_radial_692_1592" cx="0" cy="0" r="1" gradientUnits="userSpaceOnUse" gradientTransform="translate(79.728 111.309) scale(38.311 20.1909)">
<stop stop-color="#E1E1E1"/>
<stop offset="1" stop-color="#FFF4DA"/>
</radialGradient>
<radialGradient id="paint3_radial_692_1592" cx="0" cy="0" r="1" gradientUnits="userSpaceOnUse" gradientTransform="translate(79.728 111.309) scale(38.311 20.1909)">
<stop stop-color="#E1E1E1"/>
<stop offset="1" stop-color="#FFF4DA"/>
</radialGradient>
<radialGradient id="paint4_radial_692_1592" cx="0" cy="0" r="1" gradientUnits="userSpaceOnUse" gradientTransform="translate(156.35 111.309) rotate(180) scale(38.311 20.1909)">
<stop stop-color="#E1E1E1"/>
<stop offset="1" stop-color="#FFF4DA"/>
</radialGradient>
<radialGradient id="paint5_radial_692_1592" cx="0" cy="0" r="1" gradientUnits="userSpaceOnUse" gradientTransform="translate(156.35 111.309) rotate(180) scale(38.311 20.1909)">
<stop stop-color="#E1E1E1"/>
<stop offset="1" stop-color="#FFF4DA"/>
</radialGradient>
<radialGradient id="paint6_radial_692_1592" cx="0" cy="0" r="1" gradientUnits="userSpaceOnUse" gradientTransform="translate(156.35 111.309) rotate(180) scale(38.311 20.1909)">
<stop stop-color="#E1E1E1"/>
<stop offset="1" stop-color="#FFF4DA"/>
</radialGradient>
<radialGradient id="paint7_radial_692_1592" cx="0" cy="0" r="1" gradientUnits="userSpaceOnUse" gradientTransform="translate(156.35 111.309) rotate(180) scale(38.311 20.1909)">
<stop stop-color="#E1E1E1"/>
<stop offset="1" stop-color="#FFF4DA"/>
</radialGradient>
<radialGradient id="paint8_radial_692_1592" cx="0" cy="0" r="1" gradientUnits="userSpaceOnUse" gradientTransform="translate(59.0197 17.6024) scale(59.0197 17.6024)">
<stop stop-color="#E1E1E1"/>
<stop offset="1" stop-color="#FFF4DA"/>
</radialGradient>
<radialGradient id="paint9_radial_692_1592" cx="0" cy="0" r="1" gradientUnits="userSpaceOnUse" gradientTransform="translate(59.0197 17.6024) scale(59.0197 17.6024)">
<stop stop-color="#E1E1E1"/>
<stop offset="1" stop-color="#FFF4DA"/>
</radialGradient>
<radialGradient id="paint10_radial_692_1592" cx="0" cy="0" r="1" gradientUnits="userSpaceOnUse" gradientTransform="translate(59.0197 17.6024) scale(59.0197 17.6024)">
<stop stop-color="#E1E1E1"/>
<stop offset="1" stop-color="#FFF4DA"/>
</radialGradient>
<radialGradient id="paint11_radial_692_1592" cx="0" cy="0" r="1" gradientUnits="userSpaceOnUse" gradientTransform="translate(59.0197 17.6024) scale(59.0197 17.6024)">
<stop stop-color="#E1E1E1"/>
<stop offset="1" stop-color="#FFF4DA"/>
</radialGradient>
<radialGradient id="paint12_radial_692_1592" cx="0" cy="0" r="1" gradientUnits="userSpaceOnUse" gradientTransform="translate(59.0197 17.6024) scale(59.0197 17.6024)">
<stop stop-color="#E1E1E1"/>
<stop offset="1" stop-color="#FFF4DA"/>
</radialGradient>
<radialGradient id="paint13_radial_692_1592" cx="0" cy="0" r="1" gradientUnits="userSpaceOnUse" gradientTransform="translate(59.0197 17.6024) scale(59.0197 17.6024)">
<stop stop-color="#E1E1E1"/>
<stop offset="1" stop-color="#FFF4DA"/>
</radialGradient>
<radialGradient id="paint14_radial_692_1592" cx="0" cy="0" r="1" gradientUnits="userSpaceOnUse" gradientTransform="translate(59.0197 17.6024) scale(59.0197 17.6024)">
<stop stop-color="#E1E1E1"/>
<stop offset="1" stop-color="#FFF4DA"/>
</radialGradient>
<radialGradient id="paint15_radial_692_1592" cx="0" cy="0" r="1" gradientUnits="userSpaceOnUse" gradientTransform="translate(59.0197 17.6024) scale(59.0197 17.6024)">
<stop stop-color="#E1E1E1"/>
<stop offset="1" stop-color="#FFF4DA"/>
</radialGradient>
<radialGradient id="paint16_radial_692_1592" cx="0" cy="0" r="1" gradientUnits="userSpaceOnUse" gradientTransform="translate(177.059 17.6024) rotate(180) scale(59.0197 17.6024)">
<stop stop-color="#E1E1E1"/>
<stop offset="1" stop-color="#FFF4DA"/>
</radialGradient>
<radialGradient id="paint17_radial_692_1592" cx="0" cy="0" r="1" gradientUnits="userSpaceOnUse" gradientTransform="translate(177.059 17.6024) rotate(180) scale(59.0197 17.6024)">
<stop stop-color="#E1E1E1"/>
<stop offset="1" stop-color="#FFF4DA"/>
</radialGradient>
<radialGradient id="paint18_radial_692_1592" cx="0" cy="0" r="1" gradientUnits="userSpaceOnUse" gradientTransform="translate(177.059 17.6024) rotate(180) scale(59.0197 17.6024)">
<stop stop-color="#E1E1E1"/>
<stop offset="1" stop-color="#FFF4DA"/>
</radialGradient>
<radialGradient id="paint19_radial_692_1592" cx="0" cy="0" r="1" gradientUnits="userSpaceOnUse" gradientTransform="translate(177.059 17.6024) rotate(180) scale(59.0197 17.6024)">
<stop stop-color="#E1E1E1"/>
<stop offset="1" stop-color="#FFF4DA"/>
</radialGradient>
<radialGradient id="paint20_radial_692_1592" cx="0" cy="0" r="1" gradientUnits="userSpaceOnUse" gradientTransform="translate(177.059 17.6024) rotate(180) scale(59.0197 17.6024)">
<stop stop-color="#E1E1E1"/>
<stop offset="1" stop-color="#FFF4DA"/>
</radialGradient>
<radialGradient id="paint21_radial_692_1592" cx="0" cy="0" r="1" gradientUnits="userSpaceOnUse" gradientTransform="translate(177.059 17.6024) rotate(180) scale(59.0197 17.6024)">
<stop stop-color="#E1E1E1"/>
<stop offset="1" stop-color="#FFF4DA"/>
</radialGradient>
<radialGradient id="paint22_radial_692_1592" cx="0" cy="0" r="1" gradientUnits="userSpaceOnUse" gradientTransform="translate(177.059 17.6024) rotate(180) scale(59.0197 17.6024)">
<stop stop-color="#E1E1E1"/>
<stop offset="1" stop-color="#FFF4DA"/>
</radialGradient>
<radialGradient id="paint23_radial_692_1592" cx="0" cy="0" r="1" gradientUnits="userSpaceOnUse" gradientTransform="translate(177.059 17.6024) rotate(180) scale(59.0197 17.6024)">
<stop stop-color="#E1E1E1"/>
<stop offset="1" stop-color="#FFF4DA"/>
</radialGradient>
</defs>
</svg>
