<svg width="237" height="132" viewBox="0 0 237 132" fill="none" xmlns="http://www.w3.org/2000/svg">
<path d="M50.713 108.06C49.3894 108.487 47.9219 108.504 46.7174 107.809C44.5799 106.575 44.1417 105.154 44.5239 102.508V102.508C42.8803 103.056 42.0634 104.953 43.0344 106.388C43.9981 107.812 45.0942 108.974 46.6272 110.246C47.9176 111.316 49.57 111.855 51.2463 111.812C56.4411 111.679 59.0354 110.851 62.1261 108.72C61.1055 110.641 61.1623 111.76 61.9889 113.6C62.061 113.76 62.2573 113.822 62.4081 113.731C64.083 112.73 65.0044 111.892 66.2679 109.756C66.2159 114.032 66.9848 113.977 70.4096 114.933C67.5199 110.86 68.053 109.221 70.1985 106.254C70.9963 105.151 72.1264 104.331 73.4058 103.866L78.5781 101.985C81.3347 100.982 84.3491 100.942 87.1317 101.869L104.174 107.55C104.308 107.435 104.443 107.326 104.579 107.223V104.508C104.579 103.403 105.474 102.508 106.579 102.508H108.791C109.896 102.508 110.791 103.403 110.791 104.508V105.614H111.827V103.472C111.827 102.368 110.931 101.472 109.827 101.472H105.543C104.439 101.472 103.543 102.368 103.543 103.472V106.65C98.7741 103.748 93.5326 101.584 86.7262 99.7769C82.8461 98.747 78.7539 99.0145 74.9333 100.247L50.713 108.06Z" fill="url(#paint0_radial_692_2002)"/>
<path fill-rule="evenodd" clip-rule="evenodd" d="M118.04 111.827V108.721C115.458 105.74 114.164 105.799 111.827 105.614H110.791C108.063 105.589 106.223 105.979 104.579 107.223V107.685L104.174 107.55C103.27 108.327 102.41 109.382 101.473 110.791C94.423 108.167 92.2423 105.859 84.6309 104.117C82.7932 103.696 80.8384 103.854 79.1738 104.739C77.1411 105.82 75.7483 107.075 74.4009 109.235C73.7981 110.201 73.7054 111.42 74.2151 112.438C75.05 114.107 76.2503 115.417 79.1381 117.128C80.1191 117.709 81.351 117.62 82.2789 116.957L86.2804 114.099C87.2189 113.429 87.4133 112.09 86.6216 111.251C84.8307 109.354 83.7232 109.09 81.7994 109.756C83.0247 110.067 83.7478 110.456 84.3965 111.688C84.7601 112.378 84.5523 113.216 84.0005 113.767L82.2759 115.492C81.3711 116.397 79.9668 116.664 78.906 115.948C77.392 114.927 76.4786 113.802 75.488 112.283C74.8942 111.372 74.8544 110.185 75.4804 109.296C77.1885 106.871 79.0768 106.022 82.8348 105.614C87.5143 105.758 93.9739 109.592 101.473 112.862C101.611 115.305 101.827 117.608 105.431 119.531C106.15 119.915 107.027 119.733 107.604 119.156L110.252 116.508C110.55 116.21 110.55 115.727 110.252 115.429V115.429C109.972 115.149 109.522 115.134 109.211 115.381C104.883 118.812 103.35 117.017 102.508 112.862C108.785 113.743 111.601 112.063 112.862 106.65H114.933L118.04 111.827ZM102.508 111.827C105.324 107.593 107.417 106.549 111.827 106.65C109.582 111.782 107.624 113.001 102.508 111.827Z" fill="url(#paint1_radial_692_2002)"/>
<path d="M118.04 114.933V111.827C116.112 115.763 116.189 118.074 110.791 119.075C111.96 121.038 112.806 121.636 114.933 121.146C115.325 125.201 115.718 127.472 118.04 131.5V125.287C116.703 121.107 116.953 118.865 118.04 114.933Z" fill="url(#paint2_radial_692_2002)"/>
<path d="M115.969 98.3662C116.06 94.792 116.696 93.3936 118.04 91.1182V105.614C115.723 100.811 114.342 99.4138 111.827 99.4015C113.365 97.8121 114.277 97.3638 115.969 98.3662Z" fill="url(#paint3_radial_692_2002)"/>
<path d="M185.366 108.06C186.69 108.487 188.157 108.504 189.362 107.809C191.499 106.575 191.937 105.154 191.555 102.508V102.508C193.199 103.056 194.016 104.953 193.045 106.388C192.081 107.812 190.985 108.974 189.452 110.246C188.161 111.316 186.509 111.855 184.833 111.812C179.638 111.679 177.044 110.851 173.953 108.72C174.974 110.641 174.917 111.76 174.09 113.6C174.018 113.76 173.822 113.822 173.671 113.731C171.996 112.73 171.075 111.892 169.811 109.756C169.863 114.032 169.094 113.977 165.669 114.933C168.559 110.86 168.026 109.221 165.881 106.254C165.083 105.151 163.953 104.331 162.673 103.866L157.501 101.985C154.744 100.982 151.73 100.942 148.947 101.869L131.905 107.55C131.771 107.435 131.636 107.326 131.5 107.223V104.508C131.5 103.403 130.605 102.508 129.5 102.508H127.288C126.183 102.508 125.288 103.403 125.288 104.508V105.614H124.252V103.472C124.252 102.368 125.148 101.472 126.252 101.472H130.536C131.64 101.472 132.536 102.368 132.536 103.472V106.65C137.305 103.748 142.547 101.584 149.353 99.7769C153.233 98.747 157.325 99.0145 161.146 100.247L185.366 108.06Z" fill="url(#paint4_radial_692_2002)"/>
<path fill-rule="evenodd" clip-rule="evenodd" d="M118.04 111.827V108.721C120.621 105.74 121.915 105.799 124.252 105.614H125.288C128.016 105.589 129.856 105.979 131.5 107.223V107.685L131.905 107.55C132.809 108.327 133.669 109.382 134.607 110.791C141.656 108.167 143.837 105.859 151.448 104.117C153.286 103.696 155.241 103.854 156.905 104.739C158.938 105.82 160.331 107.075 161.678 109.235C162.281 110.201 162.374 111.42 161.864 112.438C161.029 114.107 159.829 115.417 156.941 117.128C155.96 117.709 154.728 117.62 153.8 116.957L149.799 114.099C148.86 113.429 148.666 112.09 149.457 111.251C151.248 109.354 152.356 109.09 154.28 109.756C153.054 110.067 152.331 110.456 151.683 111.688C151.319 112.378 151.527 113.216 152.079 113.767L153.803 115.492C154.708 116.397 156.112 116.664 157.173 115.948C158.687 114.927 159.601 113.802 160.591 112.283C161.185 111.372 161.225 110.185 160.599 109.296C158.891 106.871 157.002 106.022 153.244 105.614C148.565 105.758 142.105 109.592 134.607 112.862C134.468 115.305 134.252 117.608 130.648 119.531C129.929 119.915 129.052 119.733 128.475 119.156L125.827 116.508C125.529 116.21 125.529 115.727 125.827 115.429V115.429C126.107 115.149 126.557 115.134 126.868 115.381C131.196 118.812 132.729 117.017 133.571 112.862C127.294 113.743 124.479 112.063 123.217 106.65H121.146L118.04 111.827ZM133.571 111.827C130.755 107.593 128.662 106.549 124.252 106.65C126.497 111.782 128.455 113.001 133.571 111.827Z" fill="url(#paint5_radial_692_2002)"/>
<path d="M118.04 114.933V111.827C119.967 115.763 119.89 118.074 125.288 119.075C124.119 121.038 123.273 121.636 121.146 121.146C120.755 125.201 120.362 127.472 118.04 131.5V125.287C119.376 121.107 119.126 118.865 118.04 114.933Z" fill="url(#paint6_radial_692_2002)"/>
<path d="M120.11 98.3662C120.019 94.792 119.383 93.3936 118.04 91.1182V105.614C120.356 100.811 121.737 99.4138 124.252 99.4015C122.714 97.8121 121.802 97.3638 120.11 98.3662Z" fill="url(#paint7_radial_692_2002)"/>
<path d="M68.8633 46.3398C70.8255 46.3398 73.8763 46.9844 78.0156 48.2734C77.5859 51.138 77.2852 53 77.1133 53.8594C77.099 54.1172 76.7695 54.2461 76.125 54.2461C75.8672 54.2461 75.7096 54.1745 75.6523 54.0312C75.6523 53.6016 75.638 53.222 75.6094 52.8926C75.5807 52.5632 75.4375 52.0762 75.1797 51.4316C74.9219 50.7728 74.571 50.2357 74.127 49.8203C73.6829 49.3906 72.9883 49.0039 72.043 48.6602C71.0977 48.3164 69.9661 48.1445 68.6484 48.1445C66.543 48.1445 64.5592 48.9251 62.6973 50.4863C61.4368 51.5176 60.3555 52.7422 59.4531 54.1602C58.5651 55.5638 57.8776 57.0534 57.3906 58.6289C56.9036 60.1901 56.6602 61.737 56.6602 63.2695C56.6602 65.1029 56.9824 66.793 57.627 68.3398C58.2715 69.8724 59.1953 71.1042 60.3984 72.0352C61.6159 72.9518 63.0625 73.4102 64.7383 73.4102C67.0872 73.4102 68.8776 73.0951 70.1094 72.4648C70.3385 72.3646 70.4961 72.1211 70.582 71.7344L71.7852 65.6328L71.8281 65.4609C71.9141 65.0885 71.957 64.7161 71.957 64.3438C71.957 64.1719 71.7637 64 71.377 63.8281C70.9902 63.6562 70.5605 63.513 70.0879 63.3984C69.6152 63.2839 69.25 63.2266 68.9922 63.2266C68.9349 63.2266 68.9062 63.1549 68.9062 63.0117C68.9062 62.6107 69.0208 62.2956 69.25 62.0664C70.7969 62.138 71.957 62.1953 72.7305 62.2383C73.5182 62.2669 73.9193 62.2812 73.9336 62.2812C74.1341 62.2812 74.6211 62.2669 75.3945 62.2383C76.1823 62.1953 77.2565 62.138 78.6172 62.0664C78.6172 62.8398 78.5312 63.2266 78.3594 63.2266C78.0443 63.2266 77.6432 63.291 77.1562 63.4199C76.6836 63.5345 76.2467 63.7135 75.8457 63.957C75.459 64.1862 75.237 64.487 75.1797 64.8594L74.1484 70.832C74.1484 70.8893 74.1413 70.9395 74.127 70.9824C74.1126 71.0254 74.1055 71.0755 74.1055 71.1328C74.1055 71.2331 74.1055 71.3405 74.1055 71.4551C74.1198 71.5697 74.1341 71.6842 74.1484 71.7988C74.1628 71.9134 74.1699 72.0137 74.1699 72.0996C74.1842 72.1855 74.1914 72.25 74.1914 72.293C74.1914 72.6654 73.862 72.9805 73.2031 73.2383C73.0026 73.3385 72.6302 73.4889 72.0859 73.6895C71.556 73.8757 71.0117 74.0547 70.4531 74.2266C69.9089 74.3984 69.5078 74.513 69.25 74.5703C68.9206 74.6276 68.4909 74.7135 67.9609 74.8281C67.4453 74.9427 66.9583 75.0215 66.5 75.0645C66.0417 75.1074 65.4902 75.1504 64.8457 75.1934C64.2012 75.2363 63.5352 75.2578 62.8477 75.2578C60.8281 75.2578 59.0449 74.7708 57.498 73.7969C55.9512 72.8086 54.7409 71.4766 53.8672 69.8008C53.0078 68.1107 52.5781 66.2057 52.5781 64.0859C52.5781 61.293 53.3086 58.5358 54.7695 55.8145C55.7435 53.9811 56.9681 52.3555 58.4434 50.9375C59.9329 49.5052 61.5658 48.3809 63.3418 47.5645C65.1322 46.748 66.9727 46.3398 68.8633 46.3398ZM83.6408 44.068C83.3768 45.0947 83.0394 46.2093 82.6288 47.412C82.2181 48.6147 81.7634 49.8173 81.2648 51.02C80.7954 52.1933 80.3261 53.308 79.8568 54.364H76.9968C77.2021 53.5427 77.4074 52.6627 77.6128 51.724C77.8474 50.7853 78.0528 49.8467 78.2288 48.908C78.4341 47.94 78.6101 47.0013 78.7568 46.092C78.9328 45.1827 79.0794 44.3467 79.1968 43.584H83.3328L83.6408 44.068ZM96.5352 56.3086C98.2253 56.3086 99.5358 56.8958 100.467 58.0703C101.398 59.2448 101.863 60.8633 101.863 62.9258C101.863 64.401 101.577 65.8691 101.004 67.3301C100.431 68.7767 99.679 70.0944 98.748 71.2832C97.8171 72.472 96.793 73.4245 95.6758 74.1406C94.5586 74.8568 93.4557 75.2148 92.3672 75.2148C90.6484 75.2148 89.3379 74.6562 88.4355 73.5391C87.5332 72.4219 87.082 70.832 87.082 68.7695C87.082 67.2799 87.3613 65.8047 87.9199 64.3438C88.4928 62.8685 89.2448 61.5293 90.1758 60.3262C91.1068 59.1087 92.1237 58.1348 93.2266 57.4043C94.3438 56.6738 95.4466 56.3086 96.5352 56.3086ZM96.0195 58.0703C95.3034 58.0703 94.6087 58.3854 93.9355 59.0156C93.2624 59.6315 92.6536 60.4408 92.1094 61.4434C91.5651 62.446 91.1354 63.5417 90.8203 64.7305C90.5052 65.9193 90.3477 67.0794 90.3477 68.2109C90.3477 69.8724 90.6126 71.1615 91.1426 72.0781C91.6725 72.9948 92.3385 73.4531 93.1406 73.4531C93.8568 73.4531 94.5371 73.1452 95.1816 72.5293C95.8405 71.8991 96.4277 71.0827 96.9434 70.0801C97.459 69.0632 97.86 67.9603 98.1465 66.7715C98.4473 65.5827 98.5977 64.4154 98.5977 63.2695C98.5977 61.5794 98.3685 60.2904 97.9102 59.4023C97.4518 58.5143 96.8216 58.0703 96.0195 58.0703ZM113.078 56.1797C114.711 56.1797 116 56.724 116.945 57.8125C117.089 58.1419 117.16 58.4427 117.16 58.7148C117.16 59.2305 117.024 59.6745 116.752 60.0469C116.48 60.4193 116.129 60.6055 115.699 60.6055C115.312 60.6055 114.954 60.3978 114.625 59.9824C114.31 59.5671 113.916 59.1445 113.443 58.7148C112.971 58.2852 112.348 58.0703 111.574 58.0703C110.973 58.0703 110.5 58.2708 110.156 58.6719C109.812 59.0729 109.641 59.5312 109.641 60.0469C109.641 60.7917 109.92 61.5866 110.479 62.4316C111.037 63.2767 111.646 64.0286 112.305 64.6875C112.964 65.3464 113.572 66.1484 114.131 67.0938C114.689 68.0391 114.969 68.9987 114.969 69.9727C114.969 71.5482 114.396 72.8229 113.25 73.7969C112.104 74.7708 110.629 75.2578 108.824 75.2578C107.191 75.2578 105.902 74.7135 104.957 73.625C104.814 73.3958 104.742 73.1237 104.742 72.8086C104.742 72.293 104.878 71.8346 105.15 71.4336C105.423 71.0326 105.773 70.832 106.203 70.832C106.59 70.832 106.948 71.0397 107.277 71.4551C107.592 71.8704 107.986 72.293 108.459 72.7227C108.932 73.1523 109.555 73.3672 110.328 73.3672C110.958 73.3672 111.467 73.1595 111.854 72.7441C112.24 72.3288 112.434 71.8776 112.434 71.3906C112.434 70.6458 112.154 69.8509 111.596 69.0059C111.037 68.1608 110.428 67.4089 109.77 66.75C109.111 66.0911 108.502 65.2891 107.943 64.3438C107.385 63.3984 107.105 62.4388 107.105 61.4648C107.105 60.6628 107.37 59.8535 107.9 59.0371C108.43 58.2207 109.146 57.5404 110.049 56.9961C110.951 56.4518 111.961 56.1797 113.078 56.1797ZM131.984 56.3086C133.417 56.3086 134.133 57.2539 134.133 59.1445C134.133 60.4766 133.932 62.0378 133.531 63.8281L132.113 70.4453C132.027 70.7891 131.984 71.1471 131.984 71.5195C131.984 72.2357 132.128 72.5938 132.414 72.5938C132.772 72.5938 133.202 72.3431 133.703 71.8418C134.204 71.3262 134.634 70.8893 134.992 70.5312L135.25 70.2305C135.307 70.2305 135.415 70.3665 135.572 70.6387C135.73 70.9108 135.809 71.1042 135.809 71.2188C135.565 71.6341 135.121 72.1641 134.477 72.8086C133.846 73.4531 133.159 74.026 132.414 74.5273C131.669 75.0143 130.996 75.2578 130.395 75.2578C129.936 75.2578 129.578 75.0501 129.32 74.6348C129.062 74.2194 128.934 73.6823 128.934 73.0234C128.934 72.5938 129.034 71.8346 129.234 70.7461L130.738 63.6562C130.939 62.6823 131.039 61.9089 131.039 61.3359C131.039 60.1042 130.767 59.4883 130.223 59.4883C129.75 59.4883 129.113 59.8464 128.311 60.5625C127.508 61.2643 126.671 62.2025 125.797 63.377C124.938 64.5514 124.157 65.862 123.455 67.3086C122.753 68.7409 122.259 70.1875 121.973 71.6484L121.242 75C120.855 75.1146 120.411 75.1719 119.91 75.1719C119.423 75.1719 118.936 75.1146 118.449 75L123.09 50.9805C123.348 49.7057 123.477 48.9466 123.477 48.7031C123.477 48.1589 122.603 47.8867 120.855 47.8867C120.77 47.8867 120.727 47.8008 120.727 47.6289C120.727 47.2852 120.841 46.9987 121.07 46.7695C122.932 46.5977 124.737 46.1966 126.484 45.5664C126.656 45.6523 126.742 45.9245 126.742 46.3828C126.742 46.5833 126.556 47.6576 126.184 49.6055L123.219 64.7734C123.491 64.2865 124.114 63.3984 125.088 62.1094C125.732 61.2643 126.477 60.3978 127.322 59.5098C128.182 58.6074 129.027 57.8483 129.857 57.2324C130.702 56.6165 131.411 56.3086 131.984 56.3086ZM145.605 47.2422C146.035 47.2422 146.4 47.4141 146.701 47.7578C147.002 48.1016 147.152 48.5026 147.152 48.9609C147.152 49.6484 146.93 50.25 146.486 50.7656C146.042 51.2812 145.491 51.5391 144.832 51.5391C144.374 51.5391 144.016 51.36 143.758 51.002C143.5 50.6439 143.371 50.207 143.371 49.6914C143.371 49.0326 143.586 48.4596 144.016 47.9727C144.445 47.4857 144.975 47.2422 145.605 47.2422ZM144.359 56.3086C144.818 56.3086 145.176 56.5163 145.434 56.9316C145.691 57.347 145.82 57.8841 145.82 58.543C145.82 59.1302 145.734 59.8893 145.562 60.8203L143.672 70.4453C143.586 70.7891 143.543 71.1471 143.543 71.5195C143.543 72.2357 143.686 72.5938 143.973 72.5938C144.331 72.5938 144.76 72.3431 145.262 71.8418C145.763 71.3262 146.193 70.8893 146.551 70.5312L146.809 70.2305C146.866 70.2305 146.973 70.3665 147.131 70.6387C147.288 70.9108 147.367 71.1042 147.367 71.2188C147.124 71.6341 146.68 72.1641 146.035 72.8086C145.405 73.4531 144.717 74.026 143.973 74.5273C143.228 75.0143 142.555 75.2578 141.953 75.2578C141.495 75.2578 141.137 75.0501 140.879 74.6348C140.621 74.2194 140.492 73.6823 140.492 73.0234C140.492 72.5938 140.592 71.8346 140.793 70.7461L142.555 61.7656C142.698 60.9206 142.77 60.3477 142.77 60.0469C142.77 59.3307 142.626 58.9727 142.34 58.9727C142.168 58.9727 141.932 59.0872 141.631 59.3164C141.344 59.5456 141.065 59.8034 140.793 60.0898C140.521 60.362 140.32 60.5768 140.191 60.7344L139.977 60.9922C139.919 60.9922 139.812 60.8561 139.654 60.584C139.497 60.3118 139.418 60.1185 139.418 60.0039C139.647 59.6172 140.062 59.1374 140.664 58.5645C141.266 57.9772 141.91 57.4544 142.598 56.9961C143.285 56.5378 143.872 56.3086 144.359 56.3086ZM156.477 56.3086C157.336 56.3086 158.045 57.0391 158.604 58.5C159.176 59.9896 159.556 61.9017 159.742 64.2363C159.885 65.8118 159.986 67.1439 160.043 68.2324C160.115 69.321 160.158 70.2949 160.172 71.1543C160.201 72.0137 160.215 72.8945 160.215 73.7969C160.96 72.8802 161.719 71.7773 162.492 70.4883C163.266 69.1992 163.917 67.8743 164.447 66.5137C164.977 65.153 165.242 63.8997 165.242 62.7539C165.242 61.0781 164.884 59.5456 164.168 58.1562C164.54 56.9245 165.257 56.3086 166.316 56.3086C167.577 56.3086 168.207 57.4401 168.207 59.7031C168.207 62.8685 166.975 66.485 164.512 70.5527C163.28 72.5866 161.941 74.4772 160.494 76.2246C159.062 77.9863 157.615 79.526 156.154 80.8438C154.693 82.1615 153.311 83.1855 152.008 83.916C150.704 84.6465 149.573 85.0117 148.613 85.0117C147.868 85.0117 147.253 84.8398 146.766 84.4961C146.279 84.1523 146.035 83.737 146.035 83.25C146.035 82.3333 146.365 81.7031 147.023 81.3594C147.654 81.7318 148.613 81.918 149.902 81.918C152.294 81.918 154.357 80.6432 156.09 78.0938C156.749 77.1341 157.078 75.2148 157.078 72.3359C157.078 70.9323 157.042 69.5358 156.971 68.1465C156.899 66.7572 156.77 65.332 156.584 63.8711C156.484 63.0404 156.333 62.2526 156.133 61.5078C155.947 60.763 155.717 60.1543 155.445 59.6816C155.173 59.209 154.858 58.9727 154.5 58.9727C154.242 58.9727 153.855 59.2161 153.34 59.7031C152.824 60.1901 152.423 60.6198 152.137 60.9922C152.079 60.9922 151.972 60.8561 151.814 60.584C151.657 60.3118 151.578 60.1185 151.578 60.0039C151.664 59.7891 151.893 59.4811 152.266 59.0801C152.652 58.679 153.104 58.2637 153.619 57.834C154.135 57.4043 154.65 57.0462 155.166 56.7598C155.682 56.459 156.118 56.3086 156.477 56.3086ZM182.859 56.3086C183.919 56.3086 184.965 56.4948 185.996 56.8672L183.375 70.4453C183.289 70.7891 183.246 71.1471 183.246 71.5195C183.246 72.2357 183.389 72.5938 183.676 72.5938C184.034 72.5938 184.464 72.3431 184.965 71.8418C185.466 71.3262 185.896 70.8893 186.254 70.5312L186.512 70.2305C186.569 70.2305 186.676 70.3665 186.834 70.6387C186.992 70.9108 187.07 71.1042 187.07 71.2188C186.827 71.6341 186.383 72.1641 185.738 72.8086C185.108 73.4531 184.421 74.026 183.676 74.5273C182.931 75.0143 182.258 75.2578 181.656 75.2578C181.198 75.2578 180.84 75.0501 180.582 74.6348C180.324 74.2194 180.195 73.6823 180.195 73.0234C180.195 72.5794 180.296 71.8203 180.496 70.7461L180.646 69.9941C180.689 69.7936 180.711 69.6719 180.711 69.6289C180.482 70.0586 180.152 70.5885 179.723 71.2188C179.293 71.8346 178.799 72.4505 178.24 73.0664C177.682 73.6823 177.094 74.1979 176.479 74.6133C175.863 75.0143 175.254 75.2148 174.652 75.2148C173.392 75.2148 172.396 74.6491 171.666 73.5176C170.936 72.3861 170.57 71.0182 170.57 69.4141C170.57 67.3659 171.179 65.3249 172.396 63.291C173.213 61.916 174.187 60.7057 175.318 59.6602C176.464 58.6146 177.689 57.7982 178.992 57.2109C180.296 56.6094 181.585 56.3086 182.859 56.3086ZM181.055 58.2852C180.21 58.2852 179.357 58.5859 178.498 59.1875C177.639 59.7747 176.851 60.5697 176.135 61.5723C175.419 62.5605 174.839 63.6634 174.395 64.8809C173.965 66.084 173.75 67.2943 173.75 68.5117C173.75 71.319 174.48 72.7227 175.941 72.7227C176.457 72.7227 177.016 72.4362 177.617 71.8633C178.219 71.2904 178.813 70.5312 179.4 69.5859C179.988 68.6406 180.503 67.6165 180.947 66.5137C181.406 65.3965 181.742 64.3008 181.957 63.2266L182.816 58.8438C182.473 58.4714 181.885 58.2852 181.055 58.2852Z" fill="white"/>
<path d="M0 14.4961C6.30012 20.0984 15.0791 19.1979 30.687 15.1421C32.2497 14.736 33.9168 14.9601 35.3059 15.7832L61.0905 31.063L35.3304 19.6141C33.9205 18.9874 32.3183 18.9353 30.8588 19.4358C12.5496 25.7159 4.73674 24.7283 0 14.4961Z" fill="url(#paint8_radial_692_2002)"/>
<path d="M16.5669 25.8858C22.7094 27.5488 34.4861 19.1752 43.5027 24.2129C35.7991 20.3448 24.9274 34.7378 16.5669 25.8858Z" fill="url(#paint9_radial_692_2002)"/>
<path d="M42.4528 34.1693C40.4746 32.9379 39.8039 31.791 39.5364 30.2054C39.314 28.8871 40.2138 27.6374 41.514 27.3262C46.4064 26.1551 49.6595 27.3172 54.8779 31.063C50.3759 26.3362 46.8249 25.2844 39.6469 25.78C38.7972 25.8387 38.0191 26.2751 37.5081 26.9564L36.1669 28.7446C35.6047 29.4943 35.6307 30.5432 36.2784 31.2205C38.4425 33.4837 39.9798 34.1156 42.4528 34.1693Z" fill="url(#paint10_radial_692_2002)"/>
<path d="M61.0905 28.9921C48.8725 19.5072 53.131 18.6378 60.0551 10.3543C56.6285 8.93238 54.8937 8.83857 52.8071 12.4252C51.2879 8.29387 49.7783 6.42726 45.559 4.14173C43.8524 8.52031 44.6321 10.6991 46.5945 14.4961C42.9378 12.0347 40.7471 11.3823 36.2402 13.4606C46.3046 17.727 45.2926 18.8748 61.0905 28.9921Z" fill="url(#paint11_radial_692_2002)"/>
<path d="M78.6929 22.7441C78.6929 22.1918 79.1406 21.7441 79.6929 21.7441H79.7638C80.3161 21.7441 80.7638 22.1918 80.7638 22.7441V25.9213C80.7638 26.4735 80.3161 26.9213 79.7638 26.9213H74.4803C73.3757 26.9213 72.4803 26.0258 72.4803 24.9213V19.6024C72.4803 18.4978 73.3757 17.6024 74.4803 17.6024H78.7281C80.6137 17.6024 82.4755 18.023 84.178 18.8337V18.8337C85.2965 19.3663 86.1249 20.3629 86.4441 21.5599L88.3399 28.6695C89.2063 31.9182 86.6836 35.0788 83.3237 34.9544L68.0679 34.3894C64.7776 34.2675 62.2002 31.5169 62.2923 28.2256L62.6948 13.8426C62.7856 10.5955 65.4441 8.01038 68.6924 8.01038H83.0387C86.0229 8.01038 88.8896 9.21712 90.915 11.4088C101.807 23.194 109.097 33.3225 115.395 32.2299C115.685 32.1796 115.968 32.3916 115.968 32.686V32.686C115.968 32.9325 115.766 33.1318 115.519 33.1285C109.37 33.045 105.37 32.4313 87.653 13.254C86.5367 12.0456 85.0793 11.1983 83.4735 10.8414L77.8584 9.59364C77.0431 9.41248 76.199 9.4035 75.3801 9.56728L71.091 10.4251C68.2865 10.986 66.2677 13.4485 66.2677 16.3086V27.0984C66.2677 29.8599 68.5063 32.0984 71.2677 32.0984H80.9055C83.1146 32.0984 84.9055 30.3076 84.9055 28.0984V22.6378C84.9055 20.4287 83.1146 18.6378 80.9055 18.6378H76.5512C75.4466 18.6378 74.5512 19.5332 74.5512 20.6378V24.8858C74.5512 25.4381 74.9989 25.8858 75.5512 25.8858H77.6929C78.2452 25.8858 78.6929 25.4381 78.6929 24.8858V22.7441Z" fill="url(#paint12_radial_692_2002)"/>
<path d="M104.412 33.0631C96.4743 29.9513 88.3242 12.4066 78.6929 13.4606C91.6665 19.2326 92.9183 31.4785 104.412 33.0631Z" fill="url(#paint13_radial_692_2002)"/>
<path d="M111.827 30.0276C106.485 21.6827 106.361 16.9143 110.791 8.28346C105.363 9.71409 97.6256 19.5114 111.827 30.0276Z" fill="url(#paint14_radial_692_2002)"/>
<path d="M118.039 10.3543C113.102 14.0549 110.405 23.2793 118.039 32.0984C106.33 25.6888 109.793 12.7713 118.039 0V10.3543Z" fill="url(#paint15_radial_692_2002)"/>
<path d="M236.079 14.4961C229.778 20.0984 221 19.1979 205.392 15.1421C203.829 14.736 202.162 14.9601 200.773 15.7832L174.988 31.063L200.748 19.6141C202.158 18.9874 203.76 18.9353 205.22 19.4358C223.529 25.7159 231.342 24.7283 236.079 14.4961Z" fill="url(#paint16_radial_692_2002)"/>
<path d="M219.512 25.8858C213.369 27.5488 201.593 19.1752 192.576 24.2129C200.279 20.3448 211.151 34.7378 219.512 25.8858Z" fill="url(#paint17_radial_692_2002)"/>
<path d="M193.626 34.1693C195.604 32.9379 196.275 31.791 196.542 30.2054C196.765 28.8871 195.865 27.6374 194.565 27.3262C189.672 26.1551 186.419 27.3172 181.201 31.063C185.703 26.3362 189.254 25.2844 196.432 25.78C197.281 25.8387 198.06 26.2751 198.571 26.9564L199.912 28.7446C200.474 29.4943 200.448 30.5432 199.8 31.2205C197.636 33.4837 196.099 34.1156 193.626 34.1693Z" fill="url(#paint18_radial_692_2002)"/>
<path d="M174.988 28.9921C187.206 19.5072 182.948 18.6378 176.024 10.3543C179.45 8.93238 181.185 8.83857 183.272 12.4252C184.791 8.29387 186.3 6.42726 190.52 4.14173C192.226 8.52031 191.446 10.6991 189.484 14.4961C193.141 12.0347 195.331 11.3823 199.838 13.4606C189.774 17.727 190.786 18.8748 174.988 28.9921Z" fill="url(#paint19_radial_692_2002)"/>
<path d="M157.386 22.7441C157.386 22.1918 156.938 21.7441 156.386 21.7441H156.315C155.763 21.7441 155.315 22.1918 155.315 22.7441V25.9213C155.315 26.4735 155.763 26.9213 156.315 26.9213H161.598C162.703 26.9213 163.598 26.0258 163.598 24.9213V19.6024C163.598 18.4978 162.703 17.6024 161.598 17.6024H157.351C155.465 17.6024 153.603 18.023 151.901 18.8337V18.8337C150.782 19.3663 149.954 20.3629 149.635 21.5599L147.739 28.6695C146.872 31.9182 149.395 35.0788 152.755 34.9544L168.011 34.3894C171.301 34.2675 173.878 31.5169 173.786 28.2256L173.384 13.8426C173.293 10.5955 170.635 8.01038 167.386 8.01038H153.04C150.056 8.01038 147.189 9.21712 145.164 11.4088C134.272 23.194 126.982 33.3225 120.683 32.2299C120.393 32.1796 120.11 32.3916 120.11 32.686V32.686C120.11 32.9325 120.313 33.1318 120.559 33.1285C126.708 33.045 130.709 32.4313 148.426 13.254C149.542 12.0456 150.999 11.1983 152.605 10.8414L158.22 9.59364C159.035 9.41248 159.88 9.4035 160.698 9.56728L164.988 10.4251C167.792 10.986 169.811 13.4485 169.811 16.3086V27.0984C169.811 29.8599 167.572 32.0984 164.811 32.0984H155.173C152.964 32.0984 151.173 30.3076 151.173 28.0984V22.6378C151.173 20.4287 152.964 18.6378 155.173 18.6378H159.527C160.632 18.6378 161.527 19.5332 161.527 20.6378V24.8858C161.527 25.4381 161.08 25.8858 160.527 25.8858H158.386C157.833 25.8858 157.386 25.4381 157.386 24.8858V22.7441Z" fill="url(#paint20_radial_692_2002)"/>
<path d="M131.666 33.0631C139.604 29.9513 147.754 12.4066 157.386 13.4606C144.412 19.2326 143.16 31.4785 131.666 33.0631Z" fill="url(#paint21_radial_692_2002)"/>
<path d="M124.252 30.0276C129.594 21.6827 129.718 16.9143 125.287 8.28346C130.716 9.71409 138.453 19.5114 124.252 30.0276Z" fill="url(#paint22_radial_692_2002)"/>
<path d="M118.039 10.3543C122.976 14.0549 125.673 23.2793 118.039 32.0984C129.749 25.6888 126.286 12.7713 118.039 0V10.3543Z" fill="url(#paint23_radial_692_2002)"/>
<defs>
<radialGradient id="paint0_radial_692_2002" cx="0" cy="0" r="1" gradientUnits="userSpaceOnUse" gradientTransform="translate(79.7285 111.309) scale(38.311 20.1909)">
<stop stop-color="#E1E1E1"/>
<stop offset="1" stop-color="#FFF4DA"/>
</radialGradient>
<radialGradient id="paint1_radial_692_2002" cx="0" cy="0" r="1" gradientUnits="userSpaceOnUse" gradientTransform="translate(79.7285 111.309) scale(38.311 20.1909)">
<stop stop-color="#E1E1E1"/>
<stop offset="1" stop-color="#FFF4DA"/>
</radialGradient>
<radialGradient id="paint2_radial_692_2002" cx="0" cy="0" r="1" gradientUnits="userSpaceOnUse" gradientTransform="translate(79.7285 111.309) scale(38.311 20.1909)">
<stop stop-color="#E1E1E1"/>
<stop offset="1" stop-color="#FFF4DA"/>
</radialGradient>
<radialGradient id="paint3_radial_692_2002" cx="0" cy="0" r="1" gradientUnits="userSpaceOnUse" gradientTransform="translate(79.7285 111.309) scale(38.311 20.1909)">
<stop stop-color="#E1E1E1"/>
<stop offset="1" stop-color="#FFF4DA"/>
</radialGradient>
<radialGradient id="paint4_radial_692_2002" cx="0" cy="0" r="1" gradientUnits="userSpaceOnUse" gradientTransform="translate(156.351 111.309) rotate(180) scale(38.311 20.1909)">
<stop stop-color="#E1E1E1"/>
<stop offset="1" stop-color="#FFF4DA"/>
</radialGradient>
<radialGradient id="paint5_radial_692_2002" cx="0" cy="0" r="1" gradientUnits="userSpaceOnUse" gradientTransform="translate(156.351 111.309) rotate(180) scale(38.311 20.1909)">
<stop stop-color="#E1E1E1"/>
<stop offset="1" stop-color="#FFF4DA"/>
</radialGradient>
<radialGradient id="paint6_radial_692_2002" cx="0" cy="0" r="1" gradientUnits="userSpaceOnUse" gradientTransform="translate(156.351 111.309) rotate(180) scale(38.311 20.1909)">
<stop stop-color="#E1E1E1"/>
<stop offset="1" stop-color="#FFF4DA"/>
</radialGradient>
<radialGradient id="paint7_radial_692_2002" cx="0" cy="0" r="1" gradientUnits="userSpaceOnUse" gradientTransform="translate(156.351 111.309) rotate(180) scale(38.311 20.1909)">
<stop stop-color="#E1E1E1"/>
<stop offset="1" stop-color="#FFF4DA"/>
</radialGradient>
<radialGradient id="paint8_radial_692_2002" cx="0" cy="0" r="1" gradientUnits="userSpaceOnUse" gradientTransform="translate(59.0197 17.6024) scale(59.0197 17.6024)">
<stop stop-color="#E1E1E1"/>
<stop offset="1" stop-color="#FFF4DA"/>
</radialGradient>
<radialGradient id="paint9_radial_692_2002" cx="0" cy="0" r="1" gradientUnits="userSpaceOnUse" gradientTransform="translate(59.0197 17.6024) scale(59.0197 17.6024)">
<stop stop-color="#E1E1E1"/>
<stop offset="1" stop-color="#FFF4DA"/>
</radialGradient>
<radialGradient id="paint10_radial_692_2002" cx="0" cy="0" r="1" gradientUnits="userSpaceOnUse" gradientTransform="translate(59.0197 17.6024) scale(59.0197 17.6024)">
<stop stop-color="#E1E1E1"/>
<stop offset="1" stop-color="#FFF4DA"/>
</radialGradient>
<radialGradient id="paint11_radial_692_2002" cx="0" cy="0" r="1" gradientUnits="userSpaceOnUse" gradientTransform="translate(59.0197 17.6024) scale(59.0197 17.6024)">
<stop stop-color="#E1E1E1"/>
<stop offset="1" stop-color="#FFF4DA"/>
</radialGradient>
<radialGradient id="paint12_radial_692_2002" cx="0" cy="0" r="1" gradientUnits="userSpaceOnUse" gradientTransform="translate(59.0197 17.6024) scale(59.0197 17.6024)">
<stop stop-color="#E1E1E1"/>
<stop offset="1" stop-color="#FFF4DA"/>
</radialGradient>
<radialGradient id="paint13_radial_692_2002" cx="0" cy="0" r="1" gradientUnits="userSpaceOnUse" gradientTransform="translate(59.0197 17.6024) scale(59.0197 17.6024)">
<stop stop-color="#E1E1E1"/>
<stop offset="1" stop-color="#FFF4DA"/>
</radialGradient>
<radialGradient id="paint14_radial_692_2002" cx="0" cy="0" r="1" gradientUnits="userSpaceOnUse" gradientTransform="translate(59.0197 17.6024) scale(59.0197 17.6024)">
<stop stop-color="#E1E1E1"/>
<stop offset="1" stop-color="#FFF4DA"/>
</radialGradient>
<radialGradient id="paint15_radial_692_2002" cx="0" cy="0" r="1" gradientUnits="userSpaceOnUse" gradientTransform="translate(59.0197 17.6024) scale(59.0197 17.6024)">
<stop stop-color="#E1E1E1"/>
<stop offset="1" stop-color="#FFF4DA"/>
</radialGradient>
<radialGradient id="paint16_radial_692_2002" cx="0" cy="0" r="1" gradientUnits="userSpaceOnUse" gradientTransform="translate(177.059 17.6024) rotate(180) scale(59.0197 17.6024)">
<stop stop-color="#E1E1E1"/>
<stop offset="1" stop-color="#FFF4DA"/>
</radialGradient>
<radialGradient id="paint17_radial_692_2002" cx="0" cy="0" r="1" gradientUnits="userSpaceOnUse" gradientTransform="translate(177.059 17.6024) rotate(180) scale(59.0197 17.6024)">
<stop stop-color="#E1E1E1"/>
<stop offset="1" stop-color="#FFF4DA"/>
</radialGradient>
<radialGradient id="paint18_radial_692_2002" cx="0" cy="0" r="1" gradientUnits="userSpaceOnUse" gradientTransform="translate(177.059 17.6024) rotate(180) scale(59.0197 17.6024)">
<stop stop-color="#E1E1E1"/>
<stop offset="1" stop-color="#FFF4DA"/>
</radialGradient>
<radialGradient id="paint19_radial_692_2002" cx="0" cy="0" r="1" gradientUnits="userSpaceOnUse" gradientTransform="translate(177.059 17.6024) rotate(180) scale(59.0197 17.6024)">
<stop stop-color="#E1E1E1"/>
<stop offset="1" stop-color="#FFF4DA"/>
</radialGradient>
<radialGradient id="paint20_radial_692_2002" cx="0" cy="0" r="1" gradientUnits="userSpaceOnUse" gradientTransform="translate(177.059 17.6024) rotate(180) scale(59.0197 17.6024)">
<stop stop-color="#E1E1E1"/>
<stop offset="1" stop-color="#FFF4DA"/>
</radialGradient>
<radialGradient id="paint21_radial_692_2002" cx="0" cy="0" r="1" gradientUnits="userSpaceOnUse" gradientTransform="translate(177.059 17.6024) rotate(180) scale(59.0197 17.6024)">
<stop stop-color="#E1E1E1"/>
<stop offset="1" stop-color="#FFF4DA"/>
</radialGradient>
<radialGradient id="paint22_radial_692_2002" cx="0" cy="0" r="1" gradientUnits="userSpaceOnUse" gradientTransform="translate(177.059 17.6024) rotate(180) scale(59.0197 17.6024)">
<stop stop-color="#E1E1E1"/>
<stop offset="1" stop-color="#FFF4DA"/>
</radialGradient>
<radialGradient id="paint23_radial_692_2002" cx="0" cy="0" r="1" gradientUnits="userSpaceOnUse" gradientTransform="translate(177.059 17.6024) rotate(180) scale(59.0197 17.6024)">
<stop stop-color="#E1E1E1"/>
<stop offset="1" stop-color="#FFF4DA"/>
</radialGradient>
</defs>
</svg>
