<svg width="237" height="132" viewBox="0 0 237 132" fill="none" xmlns="http://www.w3.org/2000/svg">
<path d="M50.7125 108.06C49.3889 108.487 47.9214 108.504 46.7169 107.809C44.5794 106.575 44.1412 105.154 44.5234 102.508V102.508C42.8798 103.056 42.063 104.953 43.0339 106.388C43.9977 107.812 45.0937 108.974 46.6267 110.246C47.9171 111.316 49.5696 111.855 51.2458 111.812C56.4406 111.679 59.0349 110.851 62.1257 108.72C61.1051 110.641 61.1618 111.76 61.9885 113.6C62.0605 113.76 62.2568 113.822 62.4077 113.731C64.0825 112.73 65.0039 111.892 66.2674 109.756C66.2154 114.032 66.9843 113.977 70.4091 114.933C67.5194 110.86 68.0525 109.221 70.1981 106.254C70.9958 105.151 72.1259 104.331 73.4053 103.866L78.5776 101.985C81.3342 100.982 84.3487 100.942 87.1313 101.869L104.173 107.55C104.307 107.435 104.442 107.326 104.578 107.223V104.508C104.578 103.403 105.474 102.508 106.578 102.508H108.791C109.896 102.508 110.791 103.403 110.791 104.508V105.614H111.826V103.472C111.826 102.368 110.931 101.472 109.826 101.472H105.543C104.438 101.472 103.543 102.368 103.543 103.472V106.65C98.7736 103.748 93.5321 101.584 86.7257 99.7769C82.8456 98.747 78.7534 99.0145 74.9328 100.247L50.7125 108.06Z" fill="url(#paint0_radial_692_262)"/>
<path fill-rule="evenodd" clip-rule="evenodd" d="M118.039 111.827V108.721C115.458 105.74 114.163 105.799 111.826 105.614H110.791C108.063 105.589 106.222 105.979 104.578 107.223V107.685L104.173 107.55C103.27 108.327 102.409 109.382 101.472 110.791C94.4225 108.167 92.2419 105.859 84.6304 104.117C82.7927 103.696 80.8379 103.854 79.1733 104.739C77.1406 105.82 75.7478 107.075 74.4004 109.235C73.7976 110.201 73.7049 111.42 74.2146 112.438C75.0495 114.107 76.2498 115.417 79.1376 117.128C80.1186 117.709 81.3505 117.62 82.2784 116.957L86.28 114.099C87.2184 113.429 87.4128 112.09 86.6211 111.251C84.8302 109.354 83.7227 109.09 81.7989 109.756C83.0242 110.067 83.7473 110.456 84.396 111.688C84.7596 112.378 84.5518 113.216 84 113.767L82.2754 115.492C81.3706 116.397 79.9663 116.664 78.9055 115.948C77.3915 114.927 76.4781 113.802 75.4876 112.283C74.8937 111.372 74.8539 110.185 75.48 109.296C77.188 106.871 79.0763 106.022 82.8343 105.614C87.5138 105.758 93.9734 109.592 101.472 112.862C101.61 115.305 101.827 117.608 105.43 119.531C106.15 119.915 107.027 119.733 107.604 119.156L110.252 116.508C110.55 116.21 110.55 115.727 110.252 115.429V115.429C109.971 115.149 109.521 115.134 109.21 115.381C104.882 118.812 103.349 117.017 102.508 112.862C108.784 113.743 111.6 112.063 112.862 106.65H114.933L118.039 111.827ZM102.508 111.827C105.324 107.593 107.416 106.549 111.826 106.65C109.581 111.782 107.623 113.001 102.508 111.827Z" fill="url(#paint1_radial_692_262)"/>
<path d="M118.039 114.933V111.827C116.112 115.763 116.189 118.074 110.791 119.075C111.96 121.038 112.806 121.636 114.933 121.146C115.324 125.201 115.717 127.472 118.039 131.5V125.287C116.703 121.107 116.952 118.865 118.039 114.933Z" fill="url(#paint2_radial_692_262)"/>
<path d="M115.968 98.3662C116.06 94.792 116.696 93.3936 118.039 91.1182V105.614C115.722 100.811 114.342 99.4138 111.826 99.4015C113.364 97.8121 114.276 97.3638 115.968 98.3662Z" fill="url(#paint3_radial_692_262)"/>
<path d="M185.366 108.06C186.689 108.487 188.157 108.504 189.361 107.809C191.499 106.575 191.937 105.154 191.555 102.508V102.508C193.198 103.056 194.015 104.953 193.044 106.388C192.08 107.812 190.984 108.974 189.451 110.246C188.161 111.316 186.509 111.855 184.832 111.812C179.637 111.679 177.043 110.851 173.952 108.72C174.973 110.641 174.916 111.76 174.09 113.6C174.018 113.76 173.821 113.822 173.67 113.731C171.996 112.73 171.074 111.892 169.811 109.756C169.863 114.032 169.094 113.977 165.669 114.933C168.559 110.86 168.026 109.221 165.88 106.254C165.082 105.151 163.952 104.331 162.673 103.866L157.5 101.985C154.744 100.982 151.729 100.942 148.947 101.869L131.905 107.55C131.771 107.435 131.636 107.326 131.5 107.223V104.508C131.5 103.403 130.604 102.508 129.5 102.508H127.287C126.183 102.508 125.287 103.403 125.287 104.508V105.614H124.252V103.472C124.252 102.368 125.147 101.472 126.252 101.472H130.535C131.64 101.472 132.535 102.368 132.535 103.472V106.65C137.304 103.748 142.546 101.584 149.352 99.7769C153.232 98.747 157.325 99.0145 161.145 100.247L185.366 108.06Z" fill="url(#paint4_radial_692_262)"/>
<path fill-rule="evenodd" clip-rule="evenodd" d="M118.039 111.827V108.721C120.62 105.74 121.915 105.799 124.252 105.614H125.287C128.015 105.589 129.856 105.979 131.5 107.223V107.685L131.905 107.55C132.808 108.327 133.669 109.382 134.606 110.791C141.656 108.167 143.836 105.859 151.448 104.117C153.285 103.696 155.24 103.854 156.905 104.739C158.938 105.82 160.33 107.075 161.678 109.235C162.281 110.201 162.373 111.42 161.863 112.438C161.029 114.107 159.828 115.417 156.941 117.128C155.96 117.709 154.728 117.62 153.8 116.957L149.798 114.099C148.86 113.429 148.665 112.09 149.457 111.251C151.248 109.354 152.355 109.09 154.279 109.756C153.054 110.067 152.331 110.456 151.682 111.688C151.319 112.378 151.526 113.216 152.078 113.767L153.803 115.492C154.708 116.397 156.112 116.664 157.173 115.948C158.687 114.927 159.6 113.802 160.591 112.283C161.184 111.372 161.224 110.185 160.598 109.296C158.89 106.871 157.002 106.022 153.244 105.614C148.564 105.758 142.105 109.592 134.606 112.862C134.468 115.305 134.251 117.608 130.648 119.531C129.928 119.915 129.051 119.733 128.474 119.156L125.826 116.508C125.528 116.21 125.528 115.727 125.826 115.429V115.429C126.107 115.149 126.557 115.134 126.868 115.381C131.196 118.812 132.729 117.017 133.571 112.862C127.294 113.743 124.478 112.063 123.216 106.65H121.145L118.039 111.827ZM133.571 111.827C130.754 107.593 128.662 106.549 124.252 106.65C126.497 111.782 128.455 113.001 133.571 111.827Z" fill="url(#paint5_radial_692_262)"/>
<path d="M118.039 114.933V111.827C119.967 115.763 119.889 118.074 125.287 119.075C124.119 121.038 123.273 121.636 121.145 121.146C120.754 125.201 120.361 127.472 118.039 131.5V125.287C119.375 121.107 119.126 118.865 118.039 114.933Z" fill="url(#paint6_radial_692_262)"/>
<path d="M120.11 98.3662C120.019 94.792 119.382 93.3936 118.039 91.1182V105.614C120.356 100.811 121.736 99.4138 124.252 99.4015C122.714 97.8121 121.802 97.3638 120.11 98.3662Z" fill="url(#paint7_radial_692_262)"/>
<path d="M101.059 59.3164C104.797 59.3164 106.673 59.2018 106.688 58.9727L107.848 53C108.163 51.4674 108.32 50.1497 108.32 49.0469C108.32 48.832 108.17 48.6387 107.869 48.4668C107.583 48.2949 107.246 48.1589 106.859 48.0586C106.487 47.944 106.172 47.8867 105.914 47.8867C105.857 47.8867 105.828 47.8151 105.828 47.6719C105.828 47.2708 105.943 46.9557 106.172 46.7266C106.401 46.7409 106.788 46.7695 107.332 46.8125C107.891 46.8555 108.492 46.8984 109.137 46.9414C109.781 46.9701 110.34 46.9844 110.812 46.9844C111.514 46.9844 112.41 46.9414 113.498 46.8555C114.601 46.7695 115.238 46.7266 115.41 46.7266V46.8555C115.41 47.543 115.31 47.8867 115.109 47.8867C114.966 47.8867 114.694 47.944 114.293 48.0586C113.892 48.1589 113.505 48.2878 113.133 48.4453C112.76 48.5885 112.546 48.7318 112.488 48.875C112.073 49.7917 111.701 51.1237 111.371 52.8711L108.234 69.0273C107.919 70.5599 107.762 71.849 107.762 72.8945C107.762 73.1237 107.955 73.3314 108.342 73.5176C108.729 73.7038 109.122 73.8255 109.523 73.8828L110.082 73.9688C110.139 73.9688 110.168 74.026 110.168 74.1406C110.168 74.4557 110.082 74.7852 109.91 75.1289C108.578 75.0573 107.54 75.0072 106.795 74.9785C106.05 74.9355 105.599 74.9141 105.441 74.9141C105.398 74.9141 104.983 74.9355 104.195 74.9785C103.408 75.0072 102.247 75.0573 100.715 75.1289C100.658 75.0716 100.629 74.957 100.629 74.7852C100.629 74.2409 100.729 73.9688 100.93 73.9688C101.159 73.9688 101.474 73.9258 101.875 73.8398C102.29 73.7539 102.677 73.6393 103.035 73.4961C103.393 73.3529 103.608 73.1953 103.68 73.0234C104.095 72.0781 104.467 70.7031 104.797 68.8984L106.172 61.8086V61.7656C106.172 61.6224 105.835 61.5293 105.162 61.4863C104.503 61.4434 102.878 61.4219 100.285 61.4219C96.1745 61.4219 94.0833 61.5938 94.0117 61.9375L92.6367 69.0273C92.3216 70.5599 92.1641 71.849 92.1641 72.8945C92.1641 73.1237 92.3574 73.3314 92.7441 73.5176C93.1309 73.7038 93.5104 73.8255 93.8828 73.8828L94.4844 73.9688C94.5417 73.9688 94.5703 74.026 94.5703 74.1406C94.5703 74.4557 94.4844 74.7852 94.3125 75.1289C92.9948 75.0573 91.9635 75.0072 91.2188 74.9785C90.474 74.9355 90.0156 74.9141 89.8438 74.9141C89.8151 74.9141 89.4069 74.9355 88.6191 74.9785C87.8314 75.0072 86.6641 75.0573 85.1172 75.1289C85.0599 75.0716 85.0312 74.957 85.0312 74.7852C85.0312 74.2409 85.1315 73.9688 85.332 73.9688C85.5612 73.9688 85.8763 73.9258 86.2773 73.8398C86.6927 73.7539 87.0794 73.6393 87.4375 73.4961C87.7956 73.3529 88.0104 73.1953 88.082 73.0234C88.4974 72.0781 88.8698 70.7031 89.1992 68.8984L92.25 53C92.5651 51.4674 92.7227 50.1497 92.7227 49.0469C92.7227 48.832 92.5723 48.6387 92.2715 48.4668C91.985 48.2949 91.6484 48.1589 91.2617 48.0586C90.8893 47.944 90.5742 47.8867 90.3164 47.8867C90.2591 47.8867 90.2305 47.8151 90.2305 47.6719C90.2305 47.2708 90.3451 46.9557 90.5742 46.7266C90.8034 46.7409 91.1901 46.7695 91.7344 46.8125C92.293 46.8555 92.8945 46.8984 93.5391 46.9414C94.1836 46.9701 94.7422 46.9844 95.2148 46.9844C95.9023 46.9844 96.7832 46.9414 97.8574 46.8555C98.9316 46.7695 99.569 46.7266 99.7695 46.7266V46.8555C99.7695 47.543 99.6693 47.8867 99.4688 47.8867C99.3255 47.8867 99.0462 47.944 98.6309 48.0586C98.2298 48.1589 97.8359 48.2878 97.4492 48.4453C97.0768 48.5885 96.862 48.7318 96.8047 48.875C96.332 49.9779 95.9596 51.3099 95.6875 52.8711L94.6133 58.9297V58.9727C94.6133 59.1159 94.9928 59.209 95.752 59.252C96.5111 59.2949 98.2799 59.3164 101.059 59.3164ZM119.105 56.3086C119.564 56.3086 119.922 56.5163 120.18 56.9316C120.438 57.347 120.566 57.8841 120.566 58.543C120.566 59.3021 120.48 60.0612 120.309 60.8203L118.805 67.9102C118.604 68.7839 118.504 69.5573 118.504 70.2305C118.504 71.4622 118.776 72.0781 119.32 72.0781C119.635 72.0781 120.022 71.8991 120.48 71.541C120.953 71.1829 121.44 70.7246 121.941 70.166C122.457 69.6074 122.937 69.0345 123.381 68.4473C124.197 67.373 124.971 66.0625 125.701 64.5156C126.432 62.9688 126.94 61.4362 127.227 59.918L127.957 56.5664C128.344 56.4518 128.788 56.3945 129.289 56.3945C129.776 56.3945 130.263 56.4518 130.75 56.5664L128.086 70.4453C128 70.7891 127.957 71.1471 127.957 71.5195C127.957 72.2357 128.1 72.5938 128.387 72.5938C128.745 72.5938 129.174 72.3431 129.676 71.8418C130.177 71.3262 130.607 70.8893 130.965 70.5312L131.223 70.2305C131.28 70.2305 131.387 70.3665 131.545 70.6387C131.702 70.9108 131.781 71.1042 131.781 71.2188C131.538 71.6341 131.094 72.1641 130.449 72.8086C129.819 73.4531 129.132 74.026 128.387 74.5273C127.642 75.0143 126.969 75.2578 126.367 75.2578C125.909 75.2578 125.551 75.0501 125.293 74.6348C125.035 74.2194 124.906 73.6823 124.906 73.0234C124.906 72.5938 125.007 71.8346 125.207 70.7461L125.98 66.793C125.708 67.3086 125.121 68.1966 124.219 69.457C123.632 70.2734 122.923 71.1328 122.092 72.0352C121.275 72.9375 120.459 73.7038 119.643 74.334C118.826 74.9499 118.132 75.2578 117.559 75.2578C116.126 75.2578 115.41 74.3125 115.41 72.4219C115.41 71.0755 115.611 69.5143 116.012 67.7383L117.301 61.7656C117.444 60.7773 117.516 60.2044 117.516 60.0469C117.516 59.3307 117.372 58.9727 117.086 58.9727C116.842 58.9727 116.477 59.2018 115.99 59.6602C115.761 59.8893 115.51 60.14 115.238 60.4121C114.98 60.6842 114.809 60.8776 114.723 60.9922C114.665 60.9922 114.558 60.8561 114.4 60.584C114.243 60.3118 114.164 60.1185 114.164 60.0039C114.393 59.6172 114.809 59.1374 115.41 58.5645C116.012 57.9772 116.656 57.4544 117.344 56.9961C118.031 56.5378 118.618 56.3086 119.105 56.3086ZM151.848 46.3828L151.203 49.6055L147.164 70.4453C147.078 70.7891 147.035 71.1471 147.035 71.5195C147.035 72.2357 147.178 72.5938 147.465 72.5938C147.823 72.5938 148.253 72.3431 148.754 71.8418C149.255 71.3262 149.685 70.8893 150.043 70.5312L150.301 70.2305C150.358 70.2305 150.465 70.3665 150.623 70.6387C150.781 70.9108 150.859 71.1042 150.859 71.2188C150.616 71.6341 150.172 72.1641 149.527 72.8086C148.897 73.4531 148.21 74.026 147.465 74.5273C146.72 75.0143 146.047 75.2578 145.445 75.2578C144.987 75.2578 144.629 75.0501 144.371 74.6348C144.113 74.2194 143.984 73.6823 143.984 73.0234C143.984 72.5938 144.085 71.8346 144.285 70.7461C144.314 70.6029 144.364 70.388 144.436 70.1016C144.507 69.8151 144.543 69.6432 144.543 69.5859C144.357 69.9154 144.149 70.252 143.92 70.5957C143.705 70.9395 143.476 71.2904 143.232 71.6484C142.903 72.1354 142.459 72.6582 141.9 73.2168C141.356 73.7611 140.776 74.2337 140.16 74.6348C139.559 75.0215 139 75.2148 138.484 75.2148C137.167 75.2148 136.15 74.6491 135.434 73.5176C134.717 72.3861 134.359 71.0182 134.359 69.4141C134.359 67.8672 134.717 66.3203 135.434 64.7734C136.164 63.2266 137.124 61.8158 138.312 60.541C139.501 59.2663 140.812 58.2422 142.244 57.4688C143.691 56.6953 145.13 56.3086 146.562 56.3086H147.121L148.324 49.9062C148.41 49.4909 148.453 49.0898 148.453 48.7031C148.453 48.1589 147.579 47.8867 145.832 47.8867C145.746 47.8867 145.703 47.8008 145.703 47.6289C145.703 47.2852 145.818 46.9987 146.047 46.7695C147.995 46.5977 149.842 46.1966 151.59 45.5664C151.762 45.6667 151.848 45.9388 151.848 46.3828ZM145.746 63.1406L146.262 60.3477C146.376 59.8034 146.319 59.3236 146.09 58.9082C145.861 58.4928 145.474 58.2852 144.93 58.2852C144.056 58.2852 143.182 58.5859 142.309 59.1875C141.435 59.7891 140.64 60.5911 139.924 61.5938C139.208 62.582 138.628 63.6849 138.184 64.9023C137.754 66.1055 137.539 67.3229 137.539 68.5547C137.539 71.3333 138.27 72.7227 139.73 72.7227C140.26 72.7227 140.826 72.4362 141.428 71.8633C142.044 71.276 142.638 70.5098 143.211 69.5645C143.784 68.6191 144.292 67.5879 144.736 66.4707C145.195 65.3392 145.531 64.2292 145.746 63.1406Z" fill="white"/>
<path d="M0 14.4961C6.30012 20.0984 15.0791 19.1979 30.687 15.1421C32.2497 14.736 33.9168 14.9601 35.3059 15.7832L61.0905 31.063L35.3304 19.6141C33.9205 18.9874 32.3183 18.9353 30.8588 19.4358C12.5496 25.7159 4.73674 24.7283 0 14.4961Z" fill="url(#paint8_radial_692_262)"/>
<path d="M16.5669 25.8858C22.7094 27.5488 34.4861 19.1752 43.5027 24.2129C35.7991 20.3448 24.9274 34.7378 16.5669 25.8858Z" fill="url(#paint9_radial_692_262)"/>
<path d="M42.4528 34.1693C40.4746 32.9379 39.8039 31.791 39.5364 30.2054C39.314 28.8871 40.2138 27.6374 41.514 27.3262C46.4064 26.1551 49.6595 27.3172 54.8779 31.063C50.3759 26.3362 46.8249 25.2844 39.6469 25.78C38.7972 25.8387 38.0191 26.2751 37.5081 26.9564L36.1669 28.7446C35.6047 29.4943 35.6307 30.5432 36.2784 31.2205C38.4425 33.4837 39.9798 34.1156 42.4528 34.1693Z" fill="url(#paint10_radial_692_262)"/>
<path d="M61.0905 28.9921C48.8725 19.5072 53.131 18.6378 60.0551 10.3543C56.6285 8.93238 54.8937 8.83857 52.8071 12.4252C51.2879 8.29387 49.7783 6.42726 45.559 4.14173C43.8524 8.52031 44.6321 10.6991 46.5945 14.4961C42.9378 12.0347 40.7471 11.3823 36.2402 13.4606C46.3046 17.727 45.2926 18.8748 61.0905 28.9921Z" fill="url(#paint11_radial_692_262)"/>
<path d="M78.6929 22.7441C78.6929 22.1918 79.1406 21.7441 79.6929 21.7441H79.7638C80.3161 21.7441 80.7638 22.1918 80.7638 22.7441V25.9213C80.7638 26.4735 80.3161 26.9213 79.7638 26.9213H74.4803C73.3757 26.9213 72.4803 26.0258 72.4803 24.9213V19.6024C72.4803 18.4978 73.3757 17.6024 74.4803 17.6024H78.7281C80.6137 17.6024 82.4755 18.023 84.178 18.8337V18.8337C85.2965 19.3663 86.1249 20.3629 86.4441 21.5599L88.3399 28.6695C89.2063 31.9182 86.6836 35.0788 83.3237 34.9544L68.0679 34.3894C64.7776 34.2675 62.2002 31.5169 62.2923 28.2256L62.6948 13.8426C62.7856 10.5955 65.4441 8.01038 68.6924 8.01038H83.0387C86.0229 8.01038 88.8896 9.21712 90.915 11.4088C101.807 23.194 109.097 33.3225 115.395 32.2299C115.685 32.1796 115.968 32.3916 115.968 32.686V32.686C115.968 32.9325 115.766 33.1318 115.519 33.1285C109.37 33.045 105.37 32.4313 87.653 13.254C86.5367 12.0456 85.0793 11.1983 83.4735 10.8414L77.8584 9.59364C77.0431 9.41248 76.199 9.4035 75.3801 9.56728L71.091 10.4251C68.2865 10.986 66.2677 13.4485 66.2677 16.3086V27.0984C66.2677 29.8599 68.5063 32.0984 71.2677 32.0984H80.9055C83.1146 32.0984 84.9055 30.3076 84.9055 28.0984V22.6378C84.9055 20.4287 83.1146 18.6378 80.9055 18.6378H76.5512C75.4466 18.6378 74.5512 19.5332 74.5512 20.6378V24.8858C74.5512 25.4381 74.9989 25.8858 75.5512 25.8858H77.6929C78.2452 25.8858 78.6929 25.4381 78.6929 24.8858V22.7441Z" fill="url(#paint12_radial_692_262)"/>
<path d="M104.412 33.0631C96.4743 29.9513 88.3242 12.4066 78.6929 13.4606C91.6665 19.2326 92.9183 31.4785 104.412 33.0631Z" fill="url(#paint13_radial_692_262)"/>
<path d="M111.827 30.0276C106.485 21.6827 106.361 16.9143 110.791 8.28346C105.363 9.71409 97.6256 19.5114 111.827 30.0276Z" fill="url(#paint14_radial_692_262)"/>
<path d="M118.039 10.3543C113.102 14.0549 110.405 23.2793 118.039 32.0984C106.33 25.6888 109.793 12.7713 118.039 0V10.3543Z" fill="url(#paint15_radial_692_262)"/>
<path d="M236.079 14.4961C229.779 20.0984 221 19.1979 205.392 15.1421C203.829 14.736 202.162 14.9601 200.773 15.7832L174.989 31.063L200.749 19.6141C202.159 18.9874 203.761 18.9353 205.22 19.4358C223.529 25.7159 231.342 24.7283 236.079 14.4961Z" fill="url(#paint16_radial_692_262)"/>
<path d="M219.512 25.8858C213.37 27.5488 201.593 19.1752 192.576 24.2129C200.28 20.3448 211.152 34.7378 219.512 25.8858Z" fill="url(#paint17_radial_692_262)"/>
<path d="M193.626 34.1693C195.605 32.9379 196.275 31.791 196.543 30.2054C196.765 28.8871 195.865 27.6374 194.565 27.3262C189.673 26.1551 186.42 27.3172 181.201 31.063C185.703 26.3362 189.254 25.2844 196.432 25.78C197.282 25.8387 198.06 26.2751 198.571 26.9564L199.912 28.7446C200.474 29.4943 200.448 30.5432 199.801 31.2205C197.637 33.4837 196.099 34.1156 193.626 34.1693Z" fill="url(#paint18_radial_692_262)"/>
<path d="M174.989 28.9921C187.207 19.5072 182.948 18.6378 176.024 10.3543C179.451 8.93238 181.185 8.83857 183.272 12.4252C184.791 8.29387 186.301 6.42726 190.52 4.14173C192.227 8.52031 191.447 10.6991 189.485 14.4961C193.141 12.0347 195.332 11.3823 199.839 13.4606C189.775 17.727 190.787 18.8748 174.989 28.9921Z" fill="url(#paint19_radial_692_262)"/>
<path d="M157.386 22.7441C157.386 22.1918 156.938 21.7441 156.386 21.7441H156.315C155.763 21.7441 155.315 22.1918 155.315 22.7441V25.9213C155.315 26.4735 155.763 26.9213 156.315 26.9213H161.599C162.703 26.9213 163.599 26.0258 163.599 24.9213V19.6024C163.599 18.4978 162.703 17.6024 161.599 17.6024H157.351C155.465 17.6024 153.604 18.023 151.901 18.8337V18.8337C150.783 19.3663 149.954 20.3629 149.635 21.5599L147.739 28.6695C146.873 31.9182 149.396 35.0788 152.755 34.9544L168.011 34.3894C171.301 34.2675 173.879 31.5169 173.787 28.2256L173.384 13.8426C173.293 10.5955 170.635 8.01038 167.387 8.01038H153.04C150.056 8.01038 147.19 9.21712 145.164 11.4088C134.273 23.194 126.982 33.3225 120.684 32.2299C120.394 32.1796 120.111 32.3916 120.111 32.686V32.686C120.111 32.9325 120.313 33.1318 120.56 33.1285C126.709 33.045 130.709 32.4313 148.426 13.254C149.542 12.0456 151 11.1983 152.606 10.8414L158.221 9.59364C159.036 9.41248 159.88 9.4035 160.699 9.56728L164.988 10.4251C167.793 10.986 169.811 13.4485 169.811 16.3086V27.0984C169.811 29.8599 167.573 32.0984 164.811 32.0984H155.174C152.964 32.0984 151.174 30.3076 151.174 28.0984V22.6378C151.174 20.4287 152.964 18.6378 155.174 18.6378H159.528C160.633 18.6378 161.528 19.5332 161.528 20.6378V24.8858C161.528 25.4381 161.08 25.8858 160.528 25.8858H158.386C157.834 25.8858 157.386 25.4381 157.386 24.8858V22.7441Z" fill="url(#paint20_radial_692_262)"/>
<path d="M131.667 33.0631C139.605 29.9513 147.755 12.4066 157.386 13.4606C144.413 19.2326 143.161 31.4785 131.667 33.0631Z" fill="url(#paint21_radial_692_262)"/>
<path d="M124.252 30.0276C129.594 21.6827 129.718 16.9143 125.288 8.28346C130.716 9.71409 138.454 19.5114 124.252 30.0276Z" fill="url(#paint22_radial_692_262)"/>
<path d="M118.04 10.3543C122.977 14.0549 125.674 23.2793 118.04 32.0984C129.75 25.6888 126.286 12.7713 118.04 0V10.3543Z" fill="url(#paint23_radial_692_262)"/>
<defs>
<radialGradient id="paint0_radial_692_262" cx="0" cy="0" r="1" gradientUnits="userSpaceOnUse" gradientTransform="translate(79.728 111.309) scale(38.311 20.1909)">
<stop stop-color="#E1E1E1"/>
<stop offset="1" stop-color="#FFF4DA"/>
</radialGradient>
<radialGradient id="paint1_radial_692_262" cx="0" cy="0" r="1" gradientUnits="userSpaceOnUse" gradientTransform="translate(79.728 111.309) scale(38.311 20.1909)">
<stop stop-color="#E1E1E1"/>
<stop offset="1" stop-color="#FFF4DA"/>
</radialGradient>
<radialGradient id="paint2_radial_692_262" cx="0" cy="0" r="1" gradientUnits="userSpaceOnUse" gradientTransform="translate(79.728 111.309) scale(38.311 20.1909)">
<stop stop-color="#E1E1E1"/>
<stop offset="1" stop-color="#FFF4DA"/>
</radialGradient>
<radialGradient id="paint3_radial_692_262" cx="0" cy="0" r="1" gradientUnits="userSpaceOnUse" gradientTransform="translate(79.728 111.309) scale(38.311 20.1909)">
<stop stop-color="#E1E1E1"/>
<stop offset="1" stop-color="#FFF4DA"/>
</radialGradient>
<radialGradient id="paint4_radial_692_262" cx="0" cy="0" r="1" gradientUnits="userSpaceOnUse" gradientTransform="translate(156.35 111.309) rotate(180) scale(38.311 20.1909)">
<stop stop-color="#E1E1E1"/>
<stop offset="1" stop-color="#FFF4DA"/>
</radialGradient>
<radialGradient id="paint5_radial_692_262" cx="0" cy="0" r="1" gradientUnits="userSpaceOnUse" gradientTransform="translate(156.35 111.309) rotate(180) scale(38.311 20.1909)">
<stop stop-color="#E1E1E1"/>
<stop offset="1" stop-color="#FFF4DA"/>
</radialGradient>
<radialGradient id="paint6_radial_692_262" cx="0" cy="0" r="1" gradientUnits="userSpaceOnUse" gradientTransform="translate(156.35 111.309) rotate(180) scale(38.311 20.1909)">
<stop stop-color="#E1E1E1"/>
<stop offset="1" stop-color="#FFF4DA"/>
</radialGradient>
<radialGradient id="paint7_radial_692_262" cx="0" cy="0" r="1" gradientUnits="userSpaceOnUse" gradientTransform="translate(156.35 111.309) rotate(180) scale(38.311 20.1909)">
<stop stop-color="#E1E1E1"/>
<stop offset="1" stop-color="#FFF4DA"/>
</radialGradient>
<radialGradient id="paint8_radial_692_262" cx="0" cy="0" r="1" gradientUnits="userSpaceOnUse" gradientTransform="translate(59.0197 17.6024) scale(59.0197 17.6024)">
<stop stop-color="#E1E1E1"/>
<stop offset="1" stop-color="#FFF4DA"/>
</radialGradient>
<radialGradient id="paint9_radial_692_262" cx="0" cy="0" r="1" gradientUnits="userSpaceOnUse" gradientTransform="translate(59.0197 17.6024) scale(59.0197 17.6024)">
<stop stop-color="#E1E1E1"/>
<stop offset="1" stop-color="#FFF4DA"/>
</radialGradient>
<radialGradient id="paint10_radial_692_262" cx="0" cy="0" r="1" gradientUnits="userSpaceOnUse" gradientTransform="translate(59.0197 17.6024) scale(59.0197 17.6024)">
<stop stop-color="#E1E1E1"/>
<stop offset="1" stop-color="#FFF4DA"/>
</radialGradient>
<radialGradient id="paint11_radial_692_262" cx="0" cy="0" r="1" gradientUnits="userSpaceOnUse" gradientTransform="translate(59.0197 17.6024) scale(59.0197 17.6024)">
<stop stop-color="#E1E1E1"/>
<stop offset="1" stop-color="#FFF4DA"/>
</radialGradient>
<radialGradient id="paint12_radial_692_262" cx="0" cy="0" r="1" gradientUnits="userSpaceOnUse" gradientTransform="translate(59.0197 17.6024) scale(59.0197 17.6024)">
<stop stop-color="#E1E1E1"/>
<stop offset="1" stop-color="#FFF4DA"/>
</radialGradient>
<radialGradient id="paint13_radial_692_262" cx="0" cy="0" r="1" gradientUnits="userSpaceOnUse" gradientTransform="translate(59.0197 17.6024) scale(59.0197 17.6024)">
<stop stop-color="#E1E1E1"/>
<stop offset="1" stop-color="#FFF4DA"/>
</radialGradient>
<radialGradient id="paint14_radial_692_262" cx="0" cy="0" r="1" gradientUnits="userSpaceOnUse" gradientTransform="translate(59.0197 17.6024) scale(59.0197 17.6024)">
<stop stop-color="#E1E1E1"/>
<stop offset="1" stop-color="#FFF4DA"/>
</radialGradient>
<radialGradient id="paint15_radial_692_262" cx="0" cy="0" r="1" gradientUnits="userSpaceOnUse" gradientTransform="translate(59.0197 17.6024) scale(59.0197 17.6024)">
<stop stop-color="#E1E1E1"/>
<stop offset="1" stop-color="#FFF4DA"/>
</radialGradient>
<radialGradient id="paint16_radial_692_262" cx="0" cy="0" r="1" gradientUnits="userSpaceOnUse" gradientTransform="translate(177.059 17.6024) rotate(180) scale(59.0197 17.6024)">
<stop stop-color="#E1E1E1"/>
<stop offset="1" stop-color="#FFF4DA"/>
</radialGradient>
<radialGradient id="paint17_radial_692_262" cx="0" cy="0" r="1" gradientUnits="userSpaceOnUse" gradientTransform="translate(177.059 17.6024) rotate(180) scale(59.0197 17.6024)">
<stop stop-color="#E1E1E1"/>
<stop offset="1" stop-color="#FFF4DA"/>
</radialGradient>
<radialGradient id="paint18_radial_692_262" cx="0" cy="0" r="1" gradientUnits="userSpaceOnUse" gradientTransform="translate(177.059 17.6024) rotate(180) scale(59.0197 17.6024)">
<stop stop-color="#E1E1E1"/>
<stop offset="1" stop-color="#FFF4DA"/>
</radialGradient>
<radialGradient id="paint19_radial_692_262" cx="0" cy="0" r="1" gradientUnits="userSpaceOnUse" gradientTransform="translate(177.059 17.6024) rotate(180) scale(59.0197 17.6024)">
<stop stop-color="#E1E1E1"/>
<stop offset="1" stop-color="#FFF4DA"/>
</radialGradient>
<radialGradient id="paint20_radial_692_262" cx="0" cy="0" r="1" gradientUnits="userSpaceOnUse" gradientTransform="translate(177.059 17.6024) rotate(180) scale(59.0197 17.6024)">
<stop stop-color="#E1E1E1"/>
<stop offset="1" stop-color="#FFF4DA"/>
</radialGradient>
<radialGradient id="paint21_radial_692_262" cx="0" cy="0" r="1" gradientUnits="userSpaceOnUse" gradientTransform="translate(177.059 17.6024) rotate(180) scale(59.0197 17.6024)">
<stop stop-color="#E1E1E1"/>
<stop offset="1" stop-color="#FFF4DA"/>
</radialGradient>
<radialGradient id="paint22_radial_692_262" cx="0" cy="0" r="1" gradientUnits="userSpaceOnUse" gradientTransform="translate(177.059 17.6024) rotate(180) scale(59.0197 17.6024)">
<stop stop-color="#E1E1E1"/>
<stop offset="1" stop-color="#FFF4DA"/>
</radialGradient>
<radialGradient id="paint23_radial_692_262" cx="0" cy="0" r="1" gradientUnits="userSpaceOnUse" gradientTransform="translate(177.059 17.6024) rotate(180) scale(59.0197 17.6024)">
<stop stop-color="#E1E1E1"/>
<stop offset="1" stop-color="#FFF4DA"/>
</radialGradient>
</defs>
</svg>
