<svg width="237" height="132" viewBox="0 0 237 132" fill="none" xmlns="http://www.w3.org/2000/svg">
<path d="M50.7125 108.06C49.3889 108.487 47.9214 108.504 46.7169 107.809C44.5794 106.575 44.1412 105.154 44.5234 102.508V102.508C42.8798 103.056 42.063 104.953 43.0339 106.388C43.9977 107.812 45.0937 108.974 46.6267 110.246C47.9171 111.316 49.5696 111.855 51.2458 111.812C56.4406 111.679 59.0349 110.851 62.1257 108.72C61.1051 110.641 61.1618 111.76 61.9885 113.6C62.0605 113.76 62.2568 113.822 62.4077 113.731C64.0825 112.73 65.0039 111.892 66.2674 109.756C66.2154 114.032 66.9843 113.977 70.4091 114.933C67.5194 110.86 68.0525 109.221 70.1981 106.254C70.9958 105.151 72.1259 104.331 73.4053 103.866L78.5776 101.985C81.3342 100.982 84.3487 100.942 87.1313 101.869L104.173 107.55C104.307 107.435 104.442 107.326 104.578 107.223V104.508C104.578 103.403 105.474 102.508 106.578 102.508H108.791C109.896 102.508 110.791 103.403 110.791 104.508V105.614H111.826V103.472C111.826 102.368 110.931 101.472 109.826 101.472H105.543C104.438 101.472 103.543 102.368 103.543 103.472V106.65C98.7736 103.748 93.5321 101.584 86.7257 99.7769C82.8456 98.747 78.7534 99.0145 74.9328 100.247L50.7125 108.06Z" fill="url(#paint0_radial_692_1512)"/>
<path fill-rule="evenodd" clip-rule="evenodd" d="M118.039 111.827V108.721C115.458 105.74 114.163 105.799 111.826 105.614H110.791C108.063 105.589 106.222 105.979 104.578 107.223V107.685L104.173 107.55C103.27 108.327 102.409 109.382 101.472 110.791C94.4225 108.167 92.2419 105.859 84.6304 104.117C82.7927 103.696 80.8379 103.854 79.1733 104.739C77.1406 105.82 75.7478 107.075 74.4004 109.235C73.7976 110.201 73.7049 111.42 74.2146 112.438C75.0495 114.107 76.2498 115.417 79.1376 117.128C80.1186 117.709 81.3505 117.62 82.2784 116.957L86.28 114.099C87.2184 113.429 87.4128 112.09 86.6211 111.251C84.8302 109.354 83.7227 109.09 81.7989 109.756C83.0242 110.067 83.7473 110.456 84.396 111.688C84.7596 112.378 84.5518 113.216 84 113.767L82.2754 115.492C81.3706 116.397 79.9663 116.664 78.9055 115.948C77.3915 114.927 76.4781 113.802 75.4876 112.283C74.8937 111.372 74.8539 110.185 75.48 109.296C77.188 106.871 79.0763 106.022 82.8343 105.614C87.5138 105.758 93.9734 109.592 101.472 112.862C101.61 115.305 101.827 117.608 105.43 119.531C106.15 119.915 107.027 119.733 107.604 119.156L110.252 116.508C110.55 116.21 110.55 115.727 110.252 115.429V115.429C109.971 115.149 109.521 115.134 109.21 115.381C104.882 118.812 103.349 117.017 102.508 112.862C108.784 113.743 111.6 112.063 112.862 106.65H114.933L118.039 111.827ZM102.508 111.827C105.324 107.593 107.416 106.549 111.826 106.65C109.581 111.782 107.623 113.001 102.508 111.827Z" fill="url(#paint1_radial_692_1512)"/>
<path d="M118.039 114.933V111.827C116.112 115.763 116.189 118.074 110.791 119.075C111.96 121.038 112.806 121.636 114.933 121.146C115.324 125.201 115.717 127.472 118.039 131.5V125.287C116.703 121.107 116.952 118.865 118.039 114.933Z" fill="url(#paint2_radial_692_1512)"/>
<path d="M115.968 98.3662C116.06 94.792 116.696 93.3936 118.039 91.1182V105.614C115.722 100.811 114.342 99.4138 111.826 99.4015C113.364 97.8121 114.276 97.3638 115.968 98.3662Z" fill="url(#paint3_radial_692_1512)"/>
<path d="M185.366 108.06C186.689 108.487 188.157 108.504 189.361 107.809C191.499 106.575 191.937 105.154 191.555 102.508V102.508C193.198 103.056 194.015 104.953 193.044 106.388C192.08 107.812 190.984 108.974 189.451 110.246C188.161 111.316 186.509 111.855 184.832 111.812C179.637 111.679 177.043 110.851 173.952 108.72C174.973 110.641 174.916 111.76 174.09 113.6C174.018 113.76 173.821 113.822 173.67 113.731C171.996 112.73 171.074 111.892 169.811 109.756C169.863 114.032 169.094 113.977 165.669 114.933C168.559 110.86 168.026 109.221 165.88 106.254C165.082 105.151 163.952 104.331 162.673 103.866L157.5 101.985C154.744 100.982 151.729 100.942 148.947 101.869L131.905 107.55C131.771 107.435 131.636 107.326 131.5 107.223V104.508C131.5 103.403 130.604 102.508 129.5 102.508H127.287C126.183 102.508 125.287 103.403 125.287 104.508V105.614H124.252V103.472C124.252 102.368 125.147 101.472 126.252 101.472H130.535C131.64 101.472 132.535 102.368 132.535 103.472V106.65C137.304 103.748 142.546 101.584 149.352 99.7769C153.232 98.747 157.325 99.0145 161.145 100.247L185.366 108.06Z" fill="url(#paint4_radial_692_1512)"/>
<path fill-rule="evenodd" clip-rule="evenodd" d="M118.039 111.827V108.721C120.62 105.74 121.915 105.799 124.252 105.614H125.287C128.015 105.589 129.856 105.979 131.5 107.223V107.685L131.905 107.55C132.808 108.327 133.669 109.382 134.606 110.791C141.656 108.167 143.836 105.859 151.448 104.117C153.285 103.696 155.24 103.854 156.905 104.739C158.938 105.82 160.33 107.075 161.678 109.235C162.281 110.201 162.373 111.42 161.863 112.438C161.029 114.107 159.828 115.417 156.941 117.128C155.96 117.709 154.728 117.62 153.8 116.957L149.798 114.099C148.86 113.429 148.665 112.09 149.457 111.251C151.248 109.354 152.355 109.09 154.279 109.756C153.054 110.067 152.331 110.456 151.682 111.688C151.319 112.378 151.526 113.216 152.078 113.767L153.803 115.492C154.708 116.397 156.112 116.664 157.173 115.948C158.687 114.927 159.6 113.802 160.591 112.283C161.184 111.372 161.224 110.185 160.598 109.296C158.89 106.871 157.002 106.022 153.244 105.614C148.564 105.758 142.105 109.592 134.606 112.862C134.468 115.305 134.251 117.608 130.648 119.531C129.928 119.915 129.051 119.733 128.474 119.156L125.826 116.508C125.528 116.21 125.528 115.727 125.826 115.429V115.429C126.107 115.149 126.557 115.134 126.868 115.381C131.196 118.812 132.729 117.017 133.571 112.862C127.294 113.743 124.478 112.063 123.216 106.65H121.145L118.039 111.827ZM133.571 111.827C130.754 107.593 128.662 106.549 124.252 106.65C126.497 111.782 128.455 113.001 133.571 111.827Z" fill="url(#paint5_radial_692_1512)"/>
<path d="M118.039 114.933V111.827C119.967 115.763 119.889 118.074 125.287 119.075C124.119 121.038 123.273 121.636 121.145 121.146C120.754 125.201 120.361 127.472 118.039 131.5V125.287C119.375 121.107 119.126 118.865 118.039 114.933Z" fill="url(#paint6_radial_692_1512)"/>
<path d="M120.11 98.3662C120.019 94.792 119.382 93.3936 118.039 91.1182V105.614C120.356 100.811 121.736 99.4138 124.252 99.4015C122.714 97.8121 121.802 97.3638 120.11 98.3662Z" fill="url(#paint7_radial_692_1512)"/>
<path d="M64.7305 52.8711L61.6797 69.0273C61.3932 70.7174 61.25 71.7773 61.25 72.207C61.25 72.6367 61.3717 72.8945 61.6152 72.9805C61.8587 73.0664 62.625 73.1094 63.9141 73.1094H65.8477C68.3542 73.1094 70.0872 72.8659 71.0469 72.3789C71.5052 72.1497 72.0423 71.6413 72.6582 70.8535C73.2741 70.0658 73.8542 69.1276 74.3984 68.0391C74.4844 67.8672 74.6992 67.7812 75.043 67.7812C75.5443 67.7812 75.8451 67.8672 75.9453 68.0391C73.9401 71.7773 72.7656 74.1549 72.4219 75.1719C70.9323 75.1719 68.5833 75.1289 65.375 75.043C62.181 74.957 60.0039 74.9141 58.8438 74.9141L54.0742 75.1289C54.0456 75.1003 54.0312 74.9857 54.0312 74.7852C54.0312 74.0977 54.1315 73.7539 54.332 73.7539C54.5898 73.7539 54.9193 73.7181 55.3203 73.6465C55.7357 73.5605 56.1224 73.4531 56.4805 73.3242C56.8385 73.181 57.0534 73.0378 57.125 72.8945C57.526 72.0781 57.8984 70.7461 58.2422 68.8984L61.293 53C61.6081 51.4674 61.7656 50.1497 61.7656 49.0469C61.7656 48.832 61.6152 48.6387 61.3145 48.4668C61.028 48.2949 60.6914 48.1589 60.3047 48.0586C59.9323 47.944 59.6172 47.8867 59.3594 47.8867C59.3021 47.8867 59.2734 47.8151 59.2734 47.6719C59.2734 47.2708 59.388 46.9557 59.6172 46.7266C59.8464 46.7409 60.2331 46.7695 60.7773 46.8125C61.3359 46.8555 61.9375 46.8984 62.582 46.9414C63.2266 46.9701 63.7852 46.9844 64.2578 46.9844C64.9453 46.9844 65.8262 46.9414 66.9004 46.8555C67.9746 46.7695 68.612 46.7266 68.8125 46.7266V46.8555C68.8125 47.543 68.7122 47.8867 68.5117 47.8867C68.3685 47.8867 68.0892 47.944 67.6738 48.0586C67.2728 48.1589 66.8789 48.2878 66.4922 48.4453C66.1198 48.5885 65.9049 48.7318 65.8477 48.875C65.4609 49.7201 65.0885 51.0521 64.7305 52.8711ZM82.5625 56.3086C83.0208 56.3086 83.3789 56.5163 83.6367 56.9316C83.8945 57.347 84.0234 57.8841 84.0234 58.543C84.0234 59.3021 83.9375 60.0612 83.7656 60.8203L82.2617 67.9102C82.0612 68.7839 81.9609 69.5573 81.9609 70.2305C81.9609 71.4622 82.2331 72.0781 82.7773 72.0781C83.0924 72.0781 83.4792 71.8991 83.9375 71.541C84.4102 71.1829 84.8971 70.7246 85.3984 70.166C85.9141 69.6074 86.3939 69.0345 86.8379 68.4473C87.6543 67.373 88.4277 66.0625 89.1582 64.5156C89.8887 62.9688 90.3971 61.4362 90.6836 59.918L91.4141 56.5664C91.8008 56.4518 92.2448 56.3945 92.7461 56.3945C93.2331 56.3945 93.7201 56.4518 94.207 56.5664L91.543 70.4453C91.457 70.7891 91.4141 71.1471 91.4141 71.5195C91.4141 72.2357 91.5573 72.5938 91.8438 72.5938C92.2018 72.5938 92.6315 72.3431 93.1328 71.8418C93.6341 71.3262 94.0638 70.8893 94.4219 70.5312L94.6797 70.2305C94.737 70.2305 94.8444 70.3665 95.002 70.6387C95.1595 70.9108 95.2383 71.1042 95.2383 71.2188C94.9948 71.6341 94.5508 72.1641 93.9062 72.8086C93.276 73.4531 92.5885 74.026 91.8438 74.5273C91.099 75.0143 90.4258 75.2578 89.8242 75.2578C89.3659 75.2578 89.0078 75.0501 88.75 74.6348C88.4922 74.2194 88.3633 73.6823 88.3633 73.0234C88.3633 72.5938 88.4635 71.8346 88.6641 70.7461L89.4375 66.793C89.1654 67.3086 88.5781 68.1966 87.6758 69.457C87.0885 70.2734 86.3796 71.1328 85.5488 72.0352C84.7324 72.9375 83.916 73.7038 83.0996 74.334C82.2832 74.9499 81.5885 75.2578 81.0156 75.2578C79.5833 75.2578 78.8672 74.3125 78.8672 72.4219C78.8672 71.0755 79.0677 69.5143 79.4688 67.7383L80.7578 61.7656C80.901 60.7773 80.9727 60.2044 80.9727 60.0469C80.9727 59.3307 80.8294 58.9727 80.543 58.9727C80.2995 58.9727 79.9342 59.2018 79.4473 59.6602C79.2181 59.8893 78.9674 60.14 78.6953 60.4121C78.4375 60.6842 78.2656 60.8776 78.1797 60.9922C78.1224 60.9922 78.015 60.8561 77.8574 60.584C77.6999 60.3118 77.6211 60.1185 77.6211 60.0039C77.8503 59.6172 78.2656 59.1374 78.8672 58.5645C79.4688 57.9772 80.1133 57.4544 80.8008 56.9961C81.4883 56.5378 82.0755 56.3086 82.5625 56.3086ZM110.363 56.3086C111.624 56.3086 112.77 56.4948 113.801 56.8672L111.18 70.4453L109.246 81.3164C109.189 81.7174 109.16 82.0182 109.16 82.2188C109.16 82.6914 109.311 83.0208 109.611 83.207C109.926 83.4076 110.435 83.5078 111.137 83.5078C111.194 83.5078 111.223 83.5938 111.223 83.7656C111.223 84.224 111.151 84.5677 111.008 84.7969C110.908 84.7969 110.786 84.7969 110.643 84.7969C110.499 84.7969 110.327 84.7897 110.127 84.7754C109.941 84.7611 109.776 84.7539 109.633 84.7539C109.49 84.7539 109.375 84.7539 109.289 84.7539C107.198 84.7539 105.121 84.8685 103.059 85.0977C103.059 85.026 103.051 84.9473 103.037 84.8613C103.023 84.7754 103.016 84.6823 103.016 84.582C103.016 84.0664 103.087 83.8086 103.23 83.8086C103.488 83.8086 103.768 83.7871 104.068 83.7441C104.369 83.7012 104.785 83.472 105.314 83.0566C105.844 82.6413 106.181 82.0612 106.324 81.3164L108.516 69.6289C108.315 69.9727 108.086 70.3307 107.828 70.7031C107.585 71.0612 107.312 71.4264 107.012 71.7988C106.611 72.3001 106.124 72.8158 105.551 73.3457C104.978 73.8757 104.391 74.3197 103.789 74.6777C103.202 75.0358 102.658 75.2148 102.156 75.2148C100.896 75.2148 99.8932 74.6491 99.1484 73.5176C98.4036 72.3861 98.0312 71.0182 98.0312 69.4141C98.0312 67.3802 98.6471 65.3392 99.8789 63.291C100.71 61.916 101.691 60.7057 102.822 59.6602C103.968 58.6146 105.193 57.7982 106.496 57.2109C107.799 56.6094 109.089 56.3086 110.363 56.3086ZM108.516 58.2852C107.585 58.2852 106.682 58.5788 105.809 59.166C104.935 59.7533 104.154 60.5267 103.467 61.4863C102.779 62.446 102.228 63.513 101.812 64.6875C101.411 65.8477 101.211 67.0078 101.211 68.168C101.211 71.2044 101.956 72.7227 103.445 72.7227C103.975 72.7227 104.555 72.4362 105.186 71.8633C105.83 71.276 106.46 70.5098 107.076 69.5645C107.692 68.6191 108.236 67.5951 108.709 66.4922C109.196 65.375 109.547 64.2865 109.762 63.2266L110.621 58.8438C110.277 58.4714 109.576 58.2852 108.516 58.2852ZM129.484 56.3086C130.258 56.3086 130.852 56.5378 131.268 56.9961C131.683 57.4544 131.934 57.9342 132.02 58.4355C132.105 58.9368 132.148 59.5885 132.148 60.3906C132.148 60.9206 131.948 62.1953 131.547 64.2148C132.02 63.3984 132.607 62.5319 133.309 61.6152C134.01 60.6986 134.748 59.8392 135.521 59.0371C136.295 58.235 137.04 57.5833 137.756 57.082C138.472 56.5664 139.081 56.3086 139.582 56.3086C140.527 56.3086 141.172 56.5449 141.516 57.0176C141.859 57.4902 142.031 58.1992 142.031 59.1445C142.031 60.4766 141.831 62.0378 141.43 63.8281L140.012 70.4453C139.926 70.7891 139.883 71.1471 139.883 71.5195C139.883 72.2357 140.026 72.5938 140.312 72.5938C140.671 72.5938 141.1 72.3431 141.602 71.8418C142.103 71.3262 142.533 70.8893 142.891 70.5312L143.148 70.2305C143.206 70.2305 143.313 70.3665 143.471 70.6387C143.628 70.9108 143.707 71.1042 143.707 71.2188C143.464 71.6341 143.02 72.1641 142.375 72.8086C141.745 73.4531 141.057 74.026 140.312 74.5273C139.568 75.0143 138.895 75.2578 138.293 75.2578C137.835 75.2578 137.477 75.0501 137.219 74.6348C136.961 74.2194 136.832 73.6823 136.832 73.0234C136.832 72.5938 136.932 71.8346 137.133 70.7461L138.637 63.6562C138.837 62.6823 138.938 61.9089 138.938 61.3359C138.938 60.8346 138.895 60.4049 138.809 60.0469C138.737 59.6745 138.508 59.4883 138.121 59.4883C137.634 59.4883 136.997 59.832 136.209 60.5195C135.436 61.207 134.633 62.1165 133.803 63.248C132.972 64.3652 132.227 65.597 131.568 66.9434C130.91 68.2754 130.458 69.6003 130.215 70.918L129.441 75H126.562L128.969 62.7969C129.083 62.1523 129.141 61.6081 129.141 61.1641C129.141 60.0469 128.854 59.4883 128.281 59.4883C127.78 59.4883 127.143 59.8678 126.369 60.627C125.596 61.3861 124.801 62.3672 123.984 63.5703C123.168 64.7734 122.438 66.0553 121.793 67.416C121.148 68.7624 120.704 70.0299 120.461 71.2188L119.688 75C118.885 75.1146 118.398 75.1719 118.227 75.1719C118.083 75.1719 117.611 75.1146 116.809 75L119.387 61.7656C119.53 60.7773 119.602 60.2044 119.602 60.0469C119.602 59.3307 119.458 58.9727 119.172 58.9727C118.928 58.9727 118.563 59.2018 118.076 59.6602C117.847 59.8893 117.596 60.14 117.324 60.4121C117.066 60.6842 116.895 60.8776 116.809 60.9922C116.751 60.9922 116.644 60.8561 116.486 60.584C116.329 60.3118 116.25 60.1185 116.25 60.0039C116.479 59.6172 116.895 59.1374 117.496 58.5645C118.098 57.9772 118.742 57.4544 119.43 56.9961C120.117 56.5378 120.704 56.3086 121.191 56.3086C121.65 56.3086 122.008 56.5163 122.266 56.9316C122.523 57.347 122.652 57.8841 122.652 58.543C122.652 59.1732 122.566 59.9323 122.395 60.8203L121.621 64.8164C122.151 63.8997 122.76 62.9473 123.447 61.959C124.149 60.9707 124.865 60.0469 125.596 59.1875C126.34 58.3281 127.049 57.6335 127.723 57.1035C128.396 56.5736 128.983 56.3086 129.484 56.3086ZM155.652 56.3086C157.342 56.3086 158.653 56.8958 159.584 58.0703C160.515 59.2448 160.98 60.8633 160.98 62.9258C160.98 64.401 160.694 65.8691 160.121 67.3301C159.548 68.7767 158.796 70.0944 157.865 71.2832C156.934 72.472 155.91 73.4245 154.793 74.1406C153.676 74.8568 152.573 75.2148 151.484 75.2148C149.766 75.2148 148.455 74.6562 147.553 73.5391C146.65 72.4219 146.199 70.832 146.199 68.7695C146.199 67.2799 146.479 65.8047 147.037 64.3438C147.61 62.8685 148.362 61.5293 149.293 60.3262C150.224 59.1087 151.241 58.1348 152.344 57.4043C153.461 56.6738 154.564 56.3086 155.652 56.3086ZM155.137 58.0703C154.421 58.0703 153.726 58.3854 153.053 59.0156C152.38 59.6315 151.771 60.4408 151.227 61.4434C150.682 62.446 150.253 63.5417 149.938 64.7305C149.622 65.9193 149.465 67.0794 149.465 68.2109C149.465 69.8724 149.73 71.1615 150.26 72.0781C150.79 72.9948 151.456 73.4531 152.258 73.4531C152.974 73.4531 153.654 73.1452 154.299 72.5293C154.958 71.8991 155.545 71.0827 156.061 70.0801C156.576 69.0632 156.977 67.9603 157.264 66.7715C157.564 65.5827 157.715 64.4154 157.715 63.2695C157.715 61.5794 157.486 60.2904 157.027 59.4023C156.569 58.5143 155.939 58.0703 155.137 58.0703ZM169.574 56.3086C170.033 56.3086 170.391 56.5163 170.648 56.9316C170.906 57.347 171.035 57.8841 171.035 58.543C171.035 59.1732 170.949 59.9323 170.777 60.8203L170.004 64.7734C170.276 64.2865 170.899 63.3984 171.873 62.1094C172.518 61.2643 173.262 60.3978 174.107 59.5098C174.967 58.6074 175.812 57.8483 176.643 57.2324C177.488 56.6165 178.197 56.3086 178.77 56.3086C180.202 56.3086 180.918 57.2539 180.918 59.1445C180.918 60.4766 180.717 62.0378 180.316 63.8281L178.898 70.4453C178.812 70.7891 178.77 71.1471 178.77 71.5195C178.77 72.2357 178.913 72.5938 179.199 72.5938C179.557 72.5938 179.987 72.3431 180.488 71.8418C180.99 71.3262 181.419 70.8893 181.777 70.5312L182.035 70.2305C182.092 70.2305 182.2 70.3665 182.357 70.6387C182.515 70.9108 182.594 71.1042 182.594 71.2188C182.35 71.6341 181.906 72.1641 181.262 72.8086C180.632 73.4531 179.944 74.026 179.199 74.5273C178.454 75.0143 177.781 75.2578 177.18 75.2578C176.721 75.2578 176.363 75.0501 176.105 74.6348C175.848 74.2194 175.719 73.6823 175.719 73.0234C175.719 72.5938 175.819 71.8346 176.02 70.7461L177.523 63.6562C177.724 62.6823 177.824 61.9089 177.824 61.3359C177.824 60.1042 177.552 59.4883 177.008 59.4883C176.535 59.4883 175.898 59.8464 175.096 60.5625C174.294 61.2643 173.456 62.2025 172.582 63.377C171.723 64.5514 170.942 65.862 170.24 67.3086C169.538 68.7409 169.044 70.1875 168.758 71.6484L168.027 75C167.641 75.1146 167.197 75.1719 166.695 75.1719C166.208 75.1719 165.721 75.1146 165.234 75L167.77 61.7656C167.913 60.7773 167.984 60.2044 167.984 60.0469C167.984 59.3307 167.841 58.9727 167.555 58.9727C167.311 58.9727 166.946 59.2018 166.459 59.6602C166.23 59.8893 165.979 60.14 165.707 60.4121C165.449 60.6842 165.277 60.8776 165.191 60.9922C165.134 60.9922 165.027 60.8561 164.869 60.584C164.712 60.3118 164.633 60.1185 164.633 60.0039C164.862 59.6172 165.277 59.1374 165.879 58.5645C166.48 57.9772 167.125 57.4544 167.812 56.9961C168.5 56.5378 169.087 56.3086 169.574 56.3086Z" fill="white"/>
<path d="M0 14.4961C6.30012 20.0984 15.0791 19.1979 30.687 15.1421C32.2497 14.736 33.9168 14.9601 35.3059 15.7832L61.0905 31.063L35.3304 19.6141C33.9205 18.9874 32.3183 18.9353 30.8588 19.4358C12.5496 25.7159 4.73674 24.7283 0 14.4961Z" fill="url(#paint8_radial_692_1512)"/>
<path d="M16.5669 25.8858C22.7094 27.5488 34.4861 19.1752 43.5027 24.2129C35.7991 20.3448 24.9274 34.7378 16.5669 25.8858Z" fill="url(#paint9_radial_692_1512)"/>
<path d="M42.4528 34.1693C40.4746 32.9379 39.8039 31.791 39.5364 30.2054C39.314 28.8871 40.2138 27.6374 41.514 27.3262C46.4064 26.1551 49.6595 27.3172 54.8779 31.063C50.3759 26.3362 46.8249 25.2844 39.6469 25.78C38.7972 25.8387 38.0191 26.2751 37.5081 26.9564L36.1669 28.7446C35.6047 29.4943 35.6307 30.5432 36.2784 31.2205C38.4425 33.4837 39.9798 34.1156 42.4528 34.1693Z" fill="url(#paint10_radial_692_1512)"/>
<path d="M61.0905 28.9921C48.8725 19.5072 53.131 18.6378 60.0551 10.3543C56.6285 8.93238 54.8937 8.83857 52.8071 12.4252C51.2879 8.29387 49.7783 6.42726 45.559 4.14173C43.8524 8.52031 44.6321 10.6991 46.5945 14.4961C42.9378 12.0347 40.7471 11.3823 36.2402 13.4606C46.3046 17.727 45.2926 18.8748 61.0905 28.9921Z" fill="url(#paint11_radial_692_1512)"/>
<path d="M78.6929 22.7441C78.6929 22.1918 79.1406 21.7441 79.6929 21.7441H79.7638C80.3161 21.7441 80.7638 22.1918 80.7638 22.7441V25.9213C80.7638 26.4735 80.3161 26.9213 79.7638 26.9213H74.4803C73.3757 26.9213 72.4803 26.0258 72.4803 24.9213V19.6024C72.4803 18.4978 73.3757 17.6024 74.4803 17.6024H78.7281C80.6137 17.6024 82.4755 18.023 84.178 18.8337V18.8337C85.2965 19.3663 86.1249 20.3629 86.4441 21.5599L88.3399 28.6695C89.2063 31.9182 86.6836 35.0788 83.3237 34.9544L68.0679 34.3894C64.7776 34.2675 62.2002 31.5169 62.2923 28.2256L62.6948 13.8426C62.7856 10.5955 65.4441 8.01038 68.6924 8.01038H83.0387C86.0229 8.01038 88.8896 9.21712 90.915 11.4088C101.807 23.194 109.097 33.3225 115.395 32.2299C115.685 32.1796 115.968 32.3916 115.968 32.686V32.686C115.968 32.9325 115.766 33.1318 115.519 33.1285C109.37 33.045 105.37 32.4313 87.653 13.254C86.5367 12.0456 85.0793 11.1983 83.4735 10.8414L77.8584 9.59364C77.0431 9.41248 76.199 9.4035 75.3801 9.56728L71.091 10.4251C68.2865 10.986 66.2677 13.4485 66.2677 16.3086V27.0984C66.2677 29.8599 68.5063 32.0984 71.2677 32.0984H80.9055C83.1146 32.0984 84.9055 30.3076 84.9055 28.0984V22.6378C84.9055 20.4287 83.1146 18.6378 80.9055 18.6378H76.5512C75.4466 18.6378 74.5512 19.5332 74.5512 20.6378V24.8858C74.5512 25.4381 74.9989 25.8858 75.5512 25.8858H77.6929C78.2452 25.8858 78.6929 25.4381 78.6929 24.8858V22.7441Z" fill="url(#paint12_radial_692_1512)"/>
<path d="M104.412 33.0631C96.4743 29.9513 88.3242 12.4066 78.6929 13.4606C91.6665 19.2326 92.9183 31.4785 104.412 33.0631Z" fill="url(#paint13_radial_692_1512)"/>
<path d="M111.827 30.0276C106.485 21.6827 106.361 16.9143 110.791 8.28346C105.363 9.71409 97.6256 19.5114 111.827 30.0276Z" fill="url(#paint14_radial_692_1512)"/>
<path d="M118.039 10.3543C113.102 14.0549 110.405 23.2793 118.039 32.0984C106.33 25.6888 109.793 12.7713 118.039 0V10.3543Z" fill="url(#paint15_radial_692_1512)"/>
<path d="M236.079 14.4961C229.779 20.0984 221 19.1979 205.392 15.1421C203.829 14.736 202.162 14.9601 200.773 15.7832L174.989 31.063L200.749 19.6141C202.159 18.9874 203.761 18.9353 205.22 19.4358C223.529 25.7159 231.342 24.7283 236.079 14.4961Z" fill="url(#paint16_radial_692_1512)"/>
<path d="M219.512 25.8858C213.37 27.5488 201.593 19.1752 192.576 24.2129C200.28 20.3448 211.152 34.7378 219.512 25.8858Z" fill="url(#paint17_radial_692_1512)"/>
<path d="M193.626 34.1693C195.605 32.9379 196.275 31.791 196.543 30.2054C196.765 28.8871 195.865 27.6374 194.565 27.3262C189.673 26.1551 186.42 27.3172 181.201 31.063C185.703 26.3362 189.254 25.2844 196.432 25.78C197.282 25.8387 198.06 26.2751 198.571 26.9564L199.912 28.7446C200.474 29.4943 200.448 30.5432 199.801 31.2205C197.637 33.4837 196.099 34.1156 193.626 34.1693Z" fill="url(#paint18_radial_692_1512)"/>
<path d="M174.989 28.9921C187.207 19.5072 182.948 18.6378 176.024 10.3543C179.451 8.93238 181.185 8.83857 183.272 12.4252C184.791 8.29387 186.301 6.42726 190.52 4.14173C192.227 8.52031 191.447 10.6991 189.485 14.4961C193.141 12.0347 195.332 11.3823 199.839 13.4606C189.775 17.727 190.787 18.8748 174.989 28.9921Z" fill="url(#paint19_radial_692_1512)"/>
<path d="M157.386 22.7441C157.386 22.1918 156.938 21.7441 156.386 21.7441H156.315C155.763 21.7441 155.315 22.1918 155.315 22.7441V25.9213C155.315 26.4735 155.763 26.9213 156.315 26.9213H161.599C162.703 26.9213 163.599 26.0258 163.599 24.9213V19.6024C163.599 18.4978 162.703 17.6024 161.599 17.6024H157.351C155.465 17.6024 153.604 18.023 151.901 18.8337V18.8337C150.783 19.3663 149.954 20.3629 149.635 21.5599L147.739 28.6695C146.873 31.9182 149.396 35.0788 152.755 34.9544L168.011 34.3894C171.301 34.2675 173.879 31.5169 173.787 28.2256L173.384 13.8426C173.293 10.5955 170.635 8.01038 167.387 8.01038H153.04C150.056 8.01038 147.19 9.21712 145.164 11.4088C134.273 23.194 126.982 33.3225 120.684 32.2299C120.394 32.1796 120.111 32.3916 120.111 32.686V32.686C120.111 32.9325 120.313 33.1318 120.56 33.1285C126.709 33.045 130.709 32.4313 148.426 13.254C149.542 12.0456 151 11.1983 152.606 10.8414L158.221 9.59364C159.036 9.41248 159.88 9.4035 160.699 9.56728L164.988 10.4251C167.793 10.986 169.811 13.4485 169.811 16.3086V27.0984C169.811 29.8599 167.573 32.0984 164.811 32.0984H155.174C152.964 32.0984 151.174 30.3076 151.174 28.0984V22.6378C151.174 20.4287 152.964 18.6378 155.174 18.6378H159.528C160.633 18.6378 161.528 19.5332 161.528 20.6378V24.8858C161.528 25.4381 161.08 25.8858 160.528 25.8858H158.386C157.834 25.8858 157.386 25.4381 157.386 24.8858V22.7441Z" fill="url(#paint20_radial_692_1512)"/>
<path d="M131.667 33.0631C139.605 29.9513 147.755 12.4066 157.386 13.4606C144.413 19.2326 143.161 31.4785 131.667 33.0631Z" fill="url(#paint21_radial_692_1512)"/>
<path d="M124.252 30.0276C129.594 21.6827 129.718 16.9143 125.288 8.28346C130.716 9.71409 138.454 19.5114 124.252 30.0276Z" fill="url(#paint22_radial_692_1512)"/>
<path d="M118.04 10.3543C122.977 14.0549 125.674 23.2793 118.04 32.0984C129.75 25.6888 126.286 12.7713 118.04 0V10.3543Z" fill="url(#paint23_radial_692_1512)"/>
<defs>
<radialGradient id="paint0_radial_692_1512" cx="0" cy="0" r="1" gradientUnits="userSpaceOnUse" gradientTransform="translate(79.728 111.309) scale(38.311 20.1909)">
<stop stop-color="#E1E1E1"/>
<stop offset="1" stop-color="#FFF4DA"/>
</radialGradient>
<radialGradient id="paint1_radial_692_1512" cx="0" cy="0" r="1" gradientUnits="userSpaceOnUse" gradientTransform="translate(79.728 111.309) scale(38.311 20.1909)">
<stop stop-color="#E1E1E1"/>
<stop offset="1" stop-color="#FFF4DA"/>
</radialGradient>
<radialGradient id="paint2_radial_692_1512" cx="0" cy="0" r="1" gradientUnits="userSpaceOnUse" gradientTransform="translate(79.728 111.309) scale(38.311 20.1909)">
<stop stop-color="#E1E1E1"/>
<stop offset="1" stop-color="#FFF4DA"/>
</radialGradient>
<radialGradient id="paint3_radial_692_1512" cx="0" cy="0" r="1" gradientUnits="userSpaceOnUse" gradientTransform="translate(79.728 111.309) scale(38.311 20.1909)">
<stop stop-color="#E1E1E1"/>
<stop offset="1" stop-color="#FFF4DA"/>
</radialGradient>
<radialGradient id="paint4_radial_692_1512" cx="0" cy="0" r="1" gradientUnits="userSpaceOnUse" gradientTransform="translate(156.35 111.309) rotate(180) scale(38.311 20.1909)">
<stop stop-color="#E1E1E1"/>
<stop offset="1" stop-color="#FFF4DA"/>
</radialGradient>
<radialGradient id="paint5_radial_692_1512" cx="0" cy="0" r="1" gradientUnits="userSpaceOnUse" gradientTransform="translate(156.35 111.309) rotate(180) scale(38.311 20.1909)">
<stop stop-color="#E1E1E1"/>
<stop offset="1" stop-color="#FFF4DA"/>
</radialGradient>
<radialGradient id="paint6_radial_692_1512" cx="0" cy="0" r="1" gradientUnits="userSpaceOnUse" gradientTransform="translate(156.35 111.309) rotate(180) scale(38.311 20.1909)">
<stop stop-color="#E1E1E1"/>
<stop offset="1" stop-color="#FFF4DA"/>
</radialGradient>
<radialGradient id="paint7_radial_692_1512" cx="0" cy="0" r="1" gradientUnits="userSpaceOnUse" gradientTransform="translate(156.35 111.309) rotate(180) scale(38.311 20.1909)">
<stop stop-color="#E1E1E1"/>
<stop offset="1" stop-color="#FFF4DA"/>
</radialGradient>
<radialGradient id="paint8_radial_692_1512" cx="0" cy="0" r="1" gradientUnits="userSpaceOnUse" gradientTransform="translate(59.0197 17.6024) scale(59.0197 17.6024)">
<stop stop-color="#E1E1E1"/>
<stop offset="1" stop-color="#FFF4DA"/>
</radialGradient>
<radialGradient id="paint9_radial_692_1512" cx="0" cy="0" r="1" gradientUnits="userSpaceOnUse" gradientTransform="translate(59.0197 17.6024) scale(59.0197 17.6024)">
<stop stop-color="#E1E1E1"/>
<stop offset="1" stop-color="#FFF4DA"/>
</radialGradient>
<radialGradient id="paint10_radial_692_1512" cx="0" cy="0" r="1" gradientUnits="userSpaceOnUse" gradientTransform="translate(59.0197 17.6024) scale(59.0197 17.6024)">
<stop stop-color="#E1E1E1"/>
<stop offset="1" stop-color="#FFF4DA"/>
</radialGradient>
<radialGradient id="paint11_radial_692_1512" cx="0" cy="0" r="1" gradientUnits="userSpaceOnUse" gradientTransform="translate(59.0197 17.6024) scale(59.0197 17.6024)">
<stop stop-color="#E1E1E1"/>
<stop offset="1" stop-color="#FFF4DA"/>
</radialGradient>
<radialGradient id="paint12_radial_692_1512" cx="0" cy="0" r="1" gradientUnits="userSpaceOnUse" gradientTransform="translate(59.0197 17.6024) scale(59.0197 17.6024)">
<stop stop-color="#E1E1E1"/>
<stop offset="1" stop-color="#FFF4DA"/>
</radialGradient>
<radialGradient id="paint13_radial_692_1512" cx="0" cy="0" r="1" gradientUnits="userSpaceOnUse" gradientTransform="translate(59.0197 17.6024) scale(59.0197 17.6024)">
<stop stop-color="#E1E1E1"/>
<stop offset="1" stop-color="#FFF4DA"/>
</radialGradient>
<radialGradient id="paint14_radial_692_1512" cx="0" cy="0" r="1" gradientUnits="userSpaceOnUse" gradientTransform="translate(59.0197 17.6024) scale(59.0197 17.6024)">
<stop stop-color="#E1E1E1"/>
<stop offset="1" stop-color="#FFF4DA"/>
</radialGradient>
<radialGradient id="paint15_radial_692_1512" cx="0" cy="0" r="1" gradientUnits="userSpaceOnUse" gradientTransform="translate(59.0197 17.6024) scale(59.0197 17.6024)">
<stop stop-color="#E1E1E1"/>
<stop offset="1" stop-color="#FFF4DA"/>
</radialGradient>
<radialGradient id="paint16_radial_692_1512" cx="0" cy="0" r="1" gradientUnits="userSpaceOnUse" gradientTransform="translate(177.059 17.6024) rotate(180) scale(59.0197 17.6024)">
<stop stop-color="#E1E1E1"/>
<stop offset="1" stop-color="#FFF4DA"/>
</radialGradient>
<radialGradient id="paint17_radial_692_1512" cx="0" cy="0" r="1" gradientUnits="userSpaceOnUse" gradientTransform="translate(177.059 17.6024) rotate(180) scale(59.0197 17.6024)">
<stop stop-color="#E1E1E1"/>
<stop offset="1" stop-color="#FFF4DA"/>
</radialGradient>
<radialGradient id="paint18_radial_692_1512" cx="0" cy="0" r="1" gradientUnits="userSpaceOnUse" gradientTransform="translate(177.059 17.6024) rotate(180) scale(59.0197 17.6024)">
<stop stop-color="#E1E1E1"/>
<stop offset="1" stop-color="#FFF4DA"/>
</radialGradient>
<radialGradient id="paint19_radial_692_1512" cx="0" cy="0" r="1" gradientUnits="userSpaceOnUse" gradientTransform="translate(177.059 17.6024) rotate(180) scale(59.0197 17.6024)">
<stop stop-color="#E1E1E1"/>
<stop offset="1" stop-color="#FFF4DA"/>
</radialGradient>
<radialGradient id="paint20_radial_692_1512" cx="0" cy="0" r="1" gradientUnits="userSpaceOnUse" gradientTransform="translate(177.059 17.6024) rotate(180) scale(59.0197 17.6024)">
<stop stop-color="#E1E1E1"/>
<stop offset="1" stop-color="#FFF4DA"/>
</radialGradient>
<radialGradient id="paint21_radial_692_1512" cx="0" cy="0" r="1" gradientUnits="userSpaceOnUse" gradientTransform="translate(177.059 17.6024) rotate(180) scale(59.0197 17.6024)">
<stop stop-color="#E1E1E1"/>
<stop offset="1" stop-color="#FFF4DA"/>
</radialGradient>
<radialGradient id="paint22_radial_692_1512" cx="0" cy="0" r="1" gradientUnits="userSpaceOnUse" gradientTransform="translate(177.059 17.6024) rotate(180) scale(59.0197 17.6024)">
<stop stop-color="#E1E1E1"/>
<stop offset="1" stop-color="#FFF4DA"/>
</radialGradient>
<radialGradient id="paint23_radial_692_1512" cx="0" cy="0" r="1" gradientUnits="userSpaceOnUse" gradientTransform="translate(177.059 17.6024) rotate(180) scale(59.0197 17.6024)">
<stop stop-color="#E1E1E1"/>
<stop offset="1" stop-color="#FFF4DA"/>
</radialGradient>
</defs>
</svg>
