<svg width="237" height="132" viewBox="0 0 237 132" fill="none" xmlns="http://www.w3.org/2000/svg">
<path d="M50.713 108.06C49.3894 108.487 47.9219 108.504 46.7174 107.809C44.5799 106.575 44.1417 105.154 44.5239 102.508V102.508C42.8803 103.056 42.0634 104.953 43.0344 106.388C43.9981 107.812 45.0942 108.974 46.6272 110.246C47.9176 111.316 49.57 111.855 51.2463 111.812C56.4411 111.679 59.0354 110.851 62.1261 108.72C61.1055 110.641 61.1623 111.76 61.9889 113.6C62.061 113.76 62.2573 113.822 62.4081 113.731C64.083 112.73 65.0044 111.892 66.2679 109.756C66.2159 114.032 66.9848 113.977 70.4096 114.933C67.5199 110.86 68.053 109.221 70.1985 106.254C70.9963 105.151 72.1264 104.331 73.4058 103.866L78.5781 101.985C81.3347 100.982 84.3491 100.942 87.1317 101.869L104.174 107.55C104.308 107.435 104.443 107.326 104.579 107.223V104.508C104.579 103.403 105.474 102.508 106.579 102.508H108.791C109.896 102.508 110.791 103.403 110.791 104.508V105.614H111.827V103.472C111.827 102.368 110.931 101.472 109.827 101.472H105.543C104.439 101.472 103.543 102.368 103.543 103.472V106.65C98.7741 103.748 93.5326 101.584 86.7262 99.7769C82.8461 98.747 78.7539 99.0145 74.9333 100.247L50.713 108.06Z" fill="url(#paint0_radial_692_214)"/>
<path fill-rule="evenodd" clip-rule="evenodd" d="M118.04 111.827V108.721C115.458 105.74 114.164 105.799 111.827 105.614H110.791C108.063 105.589 106.223 105.979 104.579 107.223V107.685L104.174 107.55C103.27 108.327 102.41 109.382 101.473 110.791C94.423 108.167 92.2423 105.859 84.6309 104.117C82.7932 103.696 80.8384 103.854 79.1738 104.739C77.1411 105.82 75.7483 107.075 74.4009 109.235C73.7981 110.201 73.7054 111.42 74.2151 112.438C75.05 114.107 76.2503 115.417 79.1381 117.128C80.1191 117.709 81.351 117.62 82.2789 116.957L86.2804 114.099C87.2189 113.429 87.4133 112.09 86.6216 111.251C84.8307 109.354 83.7232 109.09 81.7994 109.756C83.0247 110.067 83.7478 110.456 84.3965 111.688C84.7601 112.378 84.5523 113.216 84.0005 113.767L82.2759 115.492C81.3711 116.397 79.9668 116.664 78.906 115.948C77.392 114.927 76.4786 113.802 75.488 112.283C74.8942 111.372 74.8544 110.185 75.4804 109.296C77.1885 106.871 79.0768 106.022 82.8348 105.614C87.5143 105.758 93.9739 109.592 101.473 112.862C101.611 115.305 101.827 117.608 105.431 119.531C106.15 119.915 107.027 119.733 107.604 119.156L110.252 116.508C110.55 116.21 110.55 115.727 110.252 115.429V115.429C109.972 115.149 109.522 115.134 109.211 115.381C104.883 118.812 103.35 117.017 102.508 112.862C108.785 113.743 111.601 112.063 112.862 106.65H114.933L118.04 111.827ZM102.508 111.827C105.324 107.593 107.417 106.549 111.827 106.65C109.582 111.782 107.624 113.001 102.508 111.827Z" fill="url(#paint1_radial_692_214)"/>
<path d="M118.04 114.933V111.827C116.112 115.763 116.189 118.074 110.791 119.075C111.96 121.038 112.806 121.636 114.933 121.146C115.325 125.201 115.718 127.472 118.04 131.5V125.287C116.703 121.107 116.953 118.865 118.04 114.933Z" fill="url(#paint2_radial_692_214)"/>
<path d="M115.969 98.3662C116.06 94.792 116.696 93.3936 118.04 91.1182V105.614C115.723 100.811 114.342 99.4138 111.827 99.4015C113.365 97.8121 114.277 97.3638 115.969 98.3662Z" fill="url(#paint3_radial_692_214)"/>
<path d="M185.366 108.06C186.69 108.487 188.157 108.504 189.362 107.809C191.499 106.575 191.937 105.154 191.555 102.508V102.508C193.199 103.056 194.016 104.953 193.045 106.388C192.081 107.812 190.985 108.974 189.452 110.246C188.161 111.316 186.509 111.855 184.833 111.812C179.638 111.679 177.044 110.851 173.953 108.72C174.974 110.641 174.917 111.76 174.09 113.6C174.018 113.76 173.822 113.822 173.671 113.731C171.996 112.73 171.075 111.892 169.811 109.756C169.863 114.032 169.094 113.977 165.669 114.933C168.559 110.86 168.026 109.221 165.881 106.254C165.083 105.151 163.953 104.331 162.673 103.866L157.501 101.985C154.744 100.982 151.73 100.942 148.947 101.869L131.905 107.55C131.771 107.435 131.636 107.326 131.5 107.223V104.508C131.5 103.403 130.605 102.508 129.5 102.508H127.288C126.183 102.508 125.288 103.403 125.288 104.508V105.614H124.252V103.472C124.252 102.368 125.148 101.472 126.252 101.472H130.536C131.64 101.472 132.536 102.368 132.536 103.472V106.65C137.305 103.748 142.547 101.584 149.353 99.7769C153.233 98.747 157.325 99.0145 161.146 100.247L185.366 108.06Z" fill="url(#paint4_radial_692_214)"/>
<path fill-rule="evenodd" clip-rule="evenodd" d="M118.04 111.827V108.721C120.621 105.74 121.915 105.799 124.252 105.614H125.288C128.016 105.589 129.856 105.979 131.5 107.223V107.685L131.905 107.55C132.809 108.327 133.669 109.382 134.607 110.791C141.656 108.167 143.837 105.859 151.448 104.117C153.286 103.696 155.241 103.854 156.905 104.739C158.938 105.82 160.331 107.075 161.678 109.235C162.281 110.201 162.374 111.42 161.864 112.438C161.029 114.107 159.829 115.417 156.941 117.128C155.96 117.709 154.728 117.62 153.8 116.957L149.799 114.099C148.86 113.429 148.666 112.09 149.457 111.251C151.248 109.354 152.356 109.09 154.28 109.756C153.054 110.067 152.331 110.456 151.683 111.688C151.319 112.378 151.527 113.216 152.079 113.767L153.803 115.492C154.708 116.397 156.112 116.664 157.173 115.948C158.687 114.927 159.601 113.802 160.591 112.283C161.185 111.372 161.225 110.185 160.599 109.296C158.891 106.871 157.002 106.022 153.244 105.614C148.565 105.758 142.105 109.592 134.607 112.862C134.468 115.305 134.252 117.608 130.648 119.531C129.929 119.915 129.052 119.733 128.475 119.156L125.827 116.508C125.529 116.21 125.529 115.727 125.827 115.429V115.429C126.107 115.149 126.557 115.134 126.868 115.381C131.196 118.812 132.729 117.017 133.571 112.862C127.294 113.743 124.479 112.063 123.217 106.65H121.146L118.04 111.827ZM133.571 111.827C130.755 107.593 128.662 106.549 124.252 106.65C126.497 111.782 128.455 113.001 133.571 111.827Z" fill="url(#paint5_radial_692_214)"/>
<path d="M118.04 114.933V111.827C119.967 115.763 119.89 118.074 125.288 119.075C124.119 121.038 123.273 121.636 121.146 121.146C120.755 125.201 120.362 127.472 118.04 131.5V125.287C119.376 121.107 119.126 118.865 118.04 114.933Z" fill="url(#paint6_radial_692_214)"/>
<path d="M120.11 98.3662C120.019 94.792 119.383 93.3936 118.04 91.1182V105.614C120.356 100.811 121.737 99.4138 124.252 99.4015C122.714 97.8121 121.802 97.3638 120.11 98.3662Z" fill="url(#paint7_radial_692_214)"/>
<path d="M85.5508 67.9531L93.1992 52.5273L95.9062 46.7266C96.6797 46.8125 97.8112 46.8555 99.3008 46.8555C99.8021 46.8555 100.361 46.8411 100.977 46.8125C101.607 46.7839 102.294 46.7409 103.039 46.6836C103.096 46.8268 103.096 47.0703 103.039 47.4141C102.982 47.7578 102.91 47.9297 102.824 47.9297C102.452 47.9297 102.058 48.0299 101.643 48.2305C101.227 48.431 100.919 48.6745 100.719 48.9609C100.461 49.3047 100.268 49.7201 100.139 50.207C100.024 50.651 99.888 51.5104 99.7305 52.7852L98.0547 69.1992C97.8828 70.6745 97.7969 71.806 97.7969 72.5938C97.7969 73.1953 98.0189 73.5749 98.4629 73.7324C98.7207 73.8184 99.0286 73.8828 99.3867 73.9258C99.7591 73.9544 100.06 73.9688 100.289 73.9688C100.346 73.9688 100.375 74.0977 100.375 74.3555C100.375 74.6992 100.289 74.957 100.117 75.1289C98.7852 75.0573 97.7253 75.0072 96.9375 74.9785C96.1641 74.9355 95.6628 74.9141 95.4336 74.9141C95.3906 74.9141 94.9896 74.9355 94.2305 74.9785C93.4857 75.0072 92.3828 75.0573 90.9219 75.1289C90.8646 75.0286 90.8359 74.957 90.8359 74.9141C90.8359 74.7422 90.8717 74.5417 90.9434 74.3125C91.015 74.0833 91.0794 73.9688 91.1367 73.9688C91.3945 73.9688 91.7168 73.9401 92.1035 73.8828C92.5046 73.8112 92.877 73.7181 93.2207 73.6035C93.5645 73.4746 93.7721 73.3385 93.8438 73.1953C94.1302 72.5365 94.3307 71.9277 94.4453 71.3691C94.474 71.2116 94.5169 70.8678 94.5742 70.3379C94.6315 69.8079 94.6745 69.4714 94.7031 69.3281L96.4219 52.5703C96.5078 51.7109 96.5508 51.1523 96.5508 50.8945C96.5508 50.7227 96.4648 50.6367 96.293 50.6367C96.2786 50.6367 96.2357 50.694 96.1641 50.8086L84.9492 73.668C84.806 73.9258 84.5339 74.2266 84.1328 74.5703C83.7318 74.9141 83.3594 75.0859 83.0156 75.0859C82.8867 75.0859 82.7721 75.0573 82.6719 75L79.0195 50.6367C79.0052 50.5794 78.9766 50.5508 78.9336 50.5508C78.8477 50.5508 78.8047 50.5794 78.8047 50.6367L73.7773 69.1562C73.2331 71.1328 72.9609 72.3216 72.9609 72.7227C72.9609 72.9232 73.1686 73.1237 73.584 73.3242C74.0137 73.5104 74.4648 73.668 74.9375 73.7969C75.4245 73.9115 75.7396 73.9688 75.8828 73.9688C75.9401 73.9688 75.9688 74.0547 75.9688 74.2266C75.9688 74.556 75.8971 74.8568 75.7539 75.1289C74.4219 75.0573 73.3835 75.0072 72.6387 74.9785C71.8939 74.9355 71.4427 74.9141 71.2852 74.9141C71.2422 74.9141 70.8268 74.9355 70.0391 74.9785C69.2513 75.0072 68.0911 75.0573 66.5586 75.1289C66.5013 75.0716 66.4727 74.9284 66.4727 74.6992C66.4727 74.2122 66.5729 73.9688 66.7734 73.9688C67.0026 73.9688 67.3678 73.9186 67.8691 73.8184C68.3704 73.7038 68.8431 73.5677 69.2871 73.4102C69.7454 73.2383 70.0104 73.0807 70.082 72.9375C70.5833 71.9922 71.056 70.7174 71.5 69.1133L76.1836 52.3125C76.2982 51.7539 76.4199 51.2025 76.5488 50.6582C76.6777 50.0996 76.7422 49.5625 76.7422 49.0469C76.7422 48.832 76.5417 48.6387 76.1406 48.4668C75.7396 48.2949 75.3027 48.1589 74.8301 48.0586C74.3717 47.944 74.0352 47.8867 73.8203 47.8867C73.763 47.8867 73.7344 47.7865 73.7344 47.5859C73.7344 47.1133 73.8203 46.8268 73.9922 46.7266C75.0521 46.7552 75.9186 46.7767 76.5918 46.791C77.265 46.8053 77.7448 46.8125 78.0312 46.8125C78.8477 46.8125 79.5924 46.8053 80.2656 46.791C80.9531 46.7767 81.569 46.7552 82.1133 46.7266C82.2422 47.901 82.5788 50.2643 83.123 53.8164C83.6673 57.3542 84.4193 62.0807 85.3789 67.9961C85.3789 68.0247 85.3932 68.0391 85.4219 68.0391C85.5078 68.0391 85.5508 68.0104 85.5508 67.9531ZM113.352 56.3086C115.042 56.3086 116.352 56.8958 117.283 58.0703C118.214 59.2448 118.68 60.8633 118.68 62.9258C118.68 64.401 118.393 65.8691 117.82 67.3301C117.247 68.7767 116.495 70.0944 115.564 71.2832C114.633 72.472 113.609 73.4245 112.492 74.1406C111.375 74.8568 110.272 75.2148 109.184 75.2148C107.465 75.2148 106.154 74.6562 105.252 73.5391C104.35 72.4219 103.898 70.832 103.898 68.7695C103.898 67.2799 104.178 65.8047 104.736 64.3438C105.309 62.8685 106.061 61.5293 106.992 60.3262C107.923 59.1087 108.94 58.1348 110.043 57.4043C111.16 56.6738 112.263 56.3086 113.352 56.3086ZM112.836 58.0703C112.12 58.0703 111.425 58.3854 110.752 59.0156C110.079 59.6315 109.47 60.4408 108.926 61.4434C108.382 62.446 107.952 63.5417 107.637 64.7305C107.322 65.9193 107.164 67.0794 107.164 68.2109C107.164 69.8724 107.429 71.1615 107.959 72.0781C108.489 72.9948 109.155 73.4531 109.957 73.4531C110.673 73.4531 111.354 73.1452 111.998 72.5293C112.657 71.8991 113.244 71.0827 113.76 70.0801C114.275 69.0632 114.676 67.9603 114.963 66.7715C115.264 65.5827 115.414 64.4154 115.414 63.2695C115.414 61.5794 115.185 60.2904 114.727 59.4023C114.268 58.5143 113.638 58.0703 112.836 58.0703ZM128.863 47.2422C129.293 47.2422 129.658 47.4141 129.959 47.7578C130.26 48.1016 130.41 48.5026 130.41 48.9609C130.41 49.6484 130.188 50.25 129.744 50.7656C129.3 51.2812 128.749 51.5391 128.09 51.5391C127.632 51.5391 127.273 51.36 127.016 51.002C126.758 50.6439 126.629 50.207 126.629 49.6914C126.629 49.0326 126.844 48.4596 127.273 47.9727C127.703 47.4857 128.233 47.2422 128.863 47.2422ZM127.617 56.3086C128.076 56.3086 128.434 56.5163 128.691 56.9316C128.949 57.347 129.078 57.8841 129.078 58.543C129.078 59.1302 128.992 59.8893 128.82 60.8203L126.93 70.4453C126.844 70.7891 126.801 71.1471 126.801 71.5195C126.801 72.2357 126.944 72.5938 127.23 72.5938C127.589 72.5938 128.018 72.3431 128.52 71.8418C129.021 71.3262 129.451 70.8893 129.809 70.5312L130.066 70.2305C130.124 70.2305 130.231 70.3665 130.389 70.6387C130.546 70.9108 130.625 71.1042 130.625 71.2188C130.382 71.6341 129.938 72.1641 129.293 72.8086C128.663 73.4531 127.975 74.026 127.23 74.5273C126.486 75.0143 125.812 75.2578 125.211 75.2578C124.753 75.2578 124.395 75.0501 124.137 74.6348C123.879 74.2194 123.75 73.6823 123.75 73.0234C123.75 72.5938 123.85 71.8346 124.051 70.7461L125.812 61.7656C125.956 60.9206 126.027 60.3477 126.027 60.0469C126.027 59.3307 125.884 58.9727 125.598 58.9727C125.426 58.9727 125.189 59.0872 124.889 59.3164C124.602 59.5456 124.323 59.8034 124.051 60.0898C123.779 60.362 123.578 60.5768 123.449 60.7344L123.234 60.9922C123.177 60.9922 123.07 60.8561 122.912 60.584C122.755 60.3118 122.676 60.1185 122.676 60.0039C122.905 59.6172 123.32 59.1374 123.922 58.5645C124.523 57.9772 125.168 57.4544 125.855 56.9961C126.543 56.5378 127.13 56.3086 127.617 56.3086ZM151.078 46.3828L150.434 49.6055L146.395 70.4453C146.309 70.7891 146.266 71.1471 146.266 71.5195C146.266 72.2357 146.409 72.5938 146.695 72.5938C147.053 72.5938 147.483 72.3431 147.984 71.8418C148.486 71.3262 148.915 70.8893 149.273 70.5312L149.531 70.2305C149.589 70.2305 149.696 70.3665 149.854 70.6387C150.011 70.9108 150.09 71.1042 150.09 71.2188C149.846 71.6341 149.402 72.1641 148.758 72.8086C148.128 73.4531 147.44 74.026 146.695 74.5273C145.951 75.0143 145.277 75.2578 144.676 75.2578C144.217 75.2578 143.859 75.0501 143.602 74.6348C143.344 74.2194 143.215 73.6823 143.215 73.0234C143.215 72.5938 143.315 71.8346 143.516 70.7461C143.544 70.6029 143.594 70.388 143.666 70.1016C143.738 69.8151 143.773 69.6432 143.773 69.5859C143.587 69.9154 143.38 70.252 143.15 70.5957C142.936 70.9395 142.706 71.2904 142.463 71.6484C142.133 72.1354 141.689 72.6582 141.131 73.2168C140.587 73.7611 140.007 74.2337 139.391 74.6348C138.789 75.0215 138.23 75.2148 137.715 75.2148C136.397 75.2148 135.38 74.6491 134.664 73.5176C133.948 72.3861 133.59 71.0182 133.59 69.4141C133.59 67.8672 133.948 66.3203 134.664 64.7734C135.395 63.2266 136.354 61.8158 137.543 60.541C138.732 59.2663 140.042 58.2422 141.475 57.4688C142.921 56.6953 144.361 56.3086 145.793 56.3086H146.352L147.555 49.9062C147.641 49.4909 147.684 49.0898 147.684 48.7031C147.684 48.1589 146.81 47.8867 145.062 47.8867C144.977 47.8867 144.934 47.8008 144.934 47.6289C144.934 47.2852 145.048 46.9987 145.277 46.7695C147.225 46.5977 149.073 46.1966 150.82 45.5664C150.992 45.6667 151.078 45.9388 151.078 46.3828ZM144.977 63.1406L145.492 60.3477C145.607 59.8034 145.549 59.3236 145.32 58.9082C145.091 58.4928 144.704 58.2852 144.16 58.2852C143.286 58.2852 142.413 58.5859 141.539 59.1875C140.665 59.7891 139.87 60.5911 139.154 61.5938C138.438 62.582 137.858 63.6849 137.414 64.9023C136.984 66.1055 136.77 67.3229 136.77 68.5547C136.77 71.3333 137.5 72.7227 138.961 72.7227C139.491 72.7227 140.057 72.4362 140.658 71.8633C141.274 71.276 141.868 70.5098 142.441 69.5645C143.014 68.6191 143.523 67.5879 143.967 66.4707C144.425 65.3392 144.762 64.2292 144.977 63.1406ZM165.43 56.3086C166.49 56.3086 167.535 56.4948 168.566 56.8672L165.945 70.4453C165.859 70.7891 165.816 71.1471 165.816 71.5195C165.816 72.2357 165.96 72.5938 166.246 72.5938C166.604 72.5938 167.034 72.3431 167.535 71.8418C168.036 71.3262 168.466 70.8893 168.824 70.5312L169.082 70.2305C169.139 70.2305 169.247 70.3665 169.404 70.6387C169.562 70.9108 169.641 71.1042 169.641 71.2188C169.397 71.6341 168.953 72.1641 168.309 72.8086C167.678 73.4531 166.991 74.026 166.246 74.5273C165.501 75.0143 164.828 75.2578 164.227 75.2578C163.768 75.2578 163.41 75.0501 163.152 74.6348C162.895 74.2194 162.766 73.6823 162.766 73.0234C162.766 72.5794 162.866 71.8203 163.066 70.7461L163.217 69.9941C163.26 69.7936 163.281 69.6719 163.281 69.6289C163.052 70.0586 162.723 70.5885 162.293 71.2188C161.863 71.8346 161.369 72.4505 160.811 73.0664C160.252 73.6823 159.665 74.1979 159.049 74.6133C158.433 75.0143 157.824 75.2148 157.223 75.2148C155.962 75.2148 154.967 74.6491 154.236 73.5176C153.506 72.3861 153.141 71.0182 153.141 69.4141C153.141 67.3659 153.749 65.3249 154.967 63.291C155.783 61.916 156.757 60.7057 157.889 59.6602C159.035 58.6146 160.259 57.7982 161.562 57.2109C162.866 56.6094 164.155 56.3086 165.43 56.3086ZM163.625 58.2852C162.78 58.2852 161.928 58.5859 161.068 59.1875C160.209 59.7747 159.421 60.5697 158.705 61.5723C157.989 62.5605 157.409 63.6634 156.965 64.8809C156.535 66.084 156.32 67.2943 156.32 68.5117C156.32 71.319 157.051 72.7227 158.512 72.7227C159.027 72.7227 159.586 72.4362 160.188 71.8633C160.789 71.2904 161.383 70.5312 161.971 69.5859C162.558 68.6406 163.074 67.6165 163.518 66.5137C163.976 65.3965 164.312 64.3008 164.527 63.2266L165.387 58.8438C165.043 58.4714 164.456 58.2852 163.625 58.2852Z" fill="white"/>
<path d="M0 14.4961C6.30012 20.0984 15.0791 19.1979 30.687 15.1421C32.2497 14.736 33.9168 14.9601 35.3059 15.7832L61.0905 31.063L35.3304 19.6141C33.9205 18.9874 32.3183 18.9353 30.8588 19.4358C12.5496 25.7159 4.73674 24.7283 0 14.4961Z" fill="url(#paint8_radial_692_214)"/>
<path d="M16.5669 25.8858C22.7094 27.5488 34.4861 19.1752 43.5027 24.2129C35.7991 20.3448 24.9274 34.7378 16.5669 25.8858Z" fill="url(#paint9_radial_692_214)"/>
<path d="M42.4528 34.1693C40.4746 32.9379 39.8039 31.791 39.5364 30.2054C39.314 28.8871 40.2138 27.6374 41.514 27.3262C46.4064 26.1551 49.6595 27.3172 54.8779 31.063C50.3759 26.3362 46.8249 25.2844 39.6469 25.78C38.7972 25.8387 38.0191 26.2751 37.5081 26.9564L36.1669 28.7446C35.6047 29.4943 35.6307 30.5432 36.2784 31.2205C38.4425 33.4837 39.9798 34.1156 42.4528 34.1693Z" fill="url(#paint10_radial_692_214)"/>
<path d="M61.0905 28.9921C48.8725 19.5072 53.131 18.6378 60.0551 10.3543C56.6285 8.93238 54.8937 8.83857 52.8071 12.4252C51.2879 8.29387 49.7783 6.42726 45.559 4.14173C43.8524 8.52031 44.6321 10.6991 46.5945 14.4961C42.9378 12.0347 40.7471 11.3823 36.2402 13.4606C46.3046 17.727 45.2926 18.8748 61.0905 28.9921Z" fill="url(#paint11_radial_692_214)"/>
<path d="M78.6929 22.7441C78.6929 22.1918 79.1406 21.7441 79.6929 21.7441H79.7638C80.3161 21.7441 80.7638 22.1918 80.7638 22.7441V25.9213C80.7638 26.4735 80.3161 26.9213 79.7638 26.9213H74.4803C73.3757 26.9213 72.4803 26.0258 72.4803 24.9213V19.6024C72.4803 18.4978 73.3757 17.6024 74.4803 17.6024H78.7281C80.6137 17.6024 82.4755 18.023 84.178 18.8337V18.8337C85.2965 19.3663 86.1249 20.3629 86.4441 21.5599L88.3399 28.6695C89.2063 31.9182 86.6836 35.0788 83.3237 34.9544L68.0679 34.3894C64.7776 34.2675 62.2002 31.5169 62.2923 28.2256L62.6948 13.8426C62.7856 10.5955 65.4441 8.01038 68.6924 8.01038H83.0387C86.0229 8.01038 88.8896 9.21712 90.915 11.4088C101.807 23.194 109.097 33.3225 115.395 32.2299C115.685 32.1796 115.968 32.3916 115.968 32.686V32.686C115.968 32.9325 115.766 33.1318 115.519 33.1285C109.37 33.045 105.37 32.4313 87.653 13.254C86.5367 12.0456 85.0793 11.1983 83.4735 10.8414L77.8584 9.59364C77.0431 9.41248 76.199 9.4035 75.3801 9.56728L71.091 10.4251C68.2865 10.986 66.2677 13.4485 66.2677 16.3086V27.0984C66.2677 29.8599 68.5063 32.0984 71.2677 32.0984H80.9055C83.1146 32.0984 84.9055 30.3076 84.9055 28.0984V22.6378C84.9055 20.4287 83.1146 18.6378 80.9055 18.6378H76.5512C75.4466 18.6378 74.5512 19.5332 74.5512 20.6378V24.8858C74.5512 25.4381 74.9989 25.8858 75.5512 25.8858H77.6929C78.2452 25.8858 78.6929 25.4381 78.6929 24.8858V22.7441Z" fill="url(#paint12_radial_692_214)"/>
<path d="M104.412 33.0631C96.4743 29.9513 88.3242 12.4066 78.6929 13.4606C91.6665 19.2326 92.9183 31.4785 104.412 33.0631Z" fill="url(#paint13_radial_692_214)"/>
<path d="M111.827 30.0276C106.485 21.6827 106.361 16.9143 110.791 8.28346C105.363 9.71409 97.6256 19.5114 111.827 30.0276Z" fill="url(#paint14_radial_692_214)"/>
<path d="M118.039 10.3543C113.102 14.0549 110.405 23.2793 118.039 32.0984C106.33 25.6888 109.793 12.7713 118.039 0V10.3543Z" fill="url(#paint15_radial_692_214)"/>
<path d="M236.079 14.4961C229.778 20.0984 221 19.1979 205.392 15.1421C203.829 14.736 202.162 14.9601 200.773 15.7832L174.988 31.063L200.748 19.6141C202.158 18.9874 203.76 18.9353 205.22 19.4358C223.529 25.7159 231.342 24.7283 236.079 14.4961Z" fill="url(#paint16_radial_692_214)"/>
<path d="M219.512 25.8858C213.369 27.5488 201.593 19.1752 192.576 24.2129C200.279 20.3448 211.151 34.7378 219.512 25.8858Z" fill="url(#paint17_radial_692_214)"/>
<path d="M193.626 34.1693C195.604 32.9379 196.275 31.791 196.542 30.2054C196.765 28.8871 195.865 27.6374 194.565 27.3262C189.672 26.1551 186.419 27.3172 181.201 31.063C185.703 26.3362 189.254 25.2844 196.432 25.78C197.281 25.8387 198.06 26.2751 198.571 26.9564L199.912 28.7446C200.474 29.4943 200.448 30.5432 199.8 31.2205C197.636 33.4837 196.099 34.1156 193.626 34.1693Z" fill="url(#paint18_radial_692_214)"/>
<path d="M174.988 28.9921C187.206 19.5072 182.948 18.6378 176.024 10.3543C179.45 8.93238 181.185 8.83857 183.272 12.4252C184.791 8.29387 186.3 6.42726 190.52 4.14173C192.226 8.52031 191.446 10.6991 189.484 14.4961C193.141 12.0347 195.331 11.3823 199.838 13.4606C189.774 17.727 190.786 18.8748 174.988 28.9921Z" fill="url(#paint19_radial_692_214)"/>
<path d="M157.386 22.7441C157.386 22.1918 156.938 21.7441 156.386 21.7441H156.315C155.763 21.7441 155.315 22.1918 155.315 22.7441V25.9213C155.315 26.4735 155.763 26.9213 156.315 26.9213H161.598C162.703 26.9213 163.598 26.0258 163.598 24.9213V19.6024C163.598 18.4978 162.703 17.6024 161.598 17.6024H157.351C155.465 17.6024 153.603 18.023 151.901 18.8337V18.8337C150.782 19.3663 149.954 20.3629 149.635 21.5599L147.739 28.6695C146.872 31.9182 149.395 35.0788 152.755 34.9544L168.011 34.3894C171.301 34.2675 173.878 31.5169 173.786 28.2256L173.384 13.8426C173.293 10.5955 170.635 8.01038 167.386 8.01038H153.04C150.056 8.01038 147.189 9.21712 145.164 11.4088C134.272 23.194 126.982 33.3225 120.683 32.2299C120.393 32.1796 120.11 32.3916 120.11 32.686V32.686C120.11 32.9325 120.313 33.1318 120.559 33.1285C126.708 33.045 130.709 32.4313 148.426 13.254C149.542 12.0456 150.999 11.1983 152.605 10.8414L158.22 9.59364C159.035 9.41248 159.88 9.4035 160.698 9.56728L164.988 10.4251C167.792 10.986 169.811 13.4485 169.811 16.3086V27.0984C169.811 29.8599 167.572 32.0984 164.811 32.0984H155.173C152.964 32.0984 151.173 30.3076 151.173 28.0984V22.6378C151.173 20.4287 152.964 18.6378 155.173 18.6378H159.527C160.632 18.6378 161.527 19.5332 161.527 20.6378V24.8858C161.527 25.4381 161.08 25.8858 160.527 25.8858H158.386C157.833 25.8858 157.386 25.4381 157.386 24.8858V22.7441Z" fill="url(#paint20_radial_692_214)"/>
<path d="M131.666 33.0631C139.604 29.9513 147.754 12.4066 157.386 13.4606C144.412 19.2326 143.16 31.4785 131.666 33.0631Z" fill="url(#paint21_radial_692_214)"/>
<path d="M124.252 30.0276C129.594 21.6827 129.718 16.9143 125.287 8.28346C130.716 9.71409 138.453 19.5114 124.252 30.0276Z" fill="url(#paint22_radial_692_214)"/>
<path d="M118.039 10.3543C122.976 14.0549 125.673 23.2793 118.039 32.0984C129.749 25.6888 126.286 12.7713 118.039 0V10.3543Z" fill="url(#paint23_radial_692_214)"/>
<defs>
<radialGradient id="paint0_radial_692_214" cx="0" cy="0" r="1" gradientUnits="userSpaceOnUse" gradientTransform="translate(79.7285 111.309) scale(38.311 20.1909)">
<stop stop-color="#E1E1E1"/>
<stop offset="1" stop-color="#FFF4DA"/>
</radialGradient>
<radialGradient id="paint1_radial_692_214" cx="0" cy="0" r="1" gradientUnits="userSpaceOnUse" gradientTransform="translate(79.7285 111.309) scale(38.311 20.1909)">
<stop stop-color="#E1E1E1"/>
<stop offset="1" stop-color="#FFF4DA"/>
</radialGradient>
<radialGradient id="paint2_radial_692_214" cx="0" cy="0" r="1" gradientUnits="userSpaceOnUse" gradientTransform="translate(79.7285 111.309) scale(38.311 20.1909)">
<stop stop-color="#E1E1E1"/>
<stop offset="1" stop-color="#FFF4DA"/>
</radialGradient>
<radialGradient id="paint3_radial_692_214" cx="0" cy="0" r="1" gradientUnits="userSpaceOnUse" gradientTransform="translate(79.7285 111.309) scale(38.311 20.1909)">
<stop stop-color="#E1E1E1"/>
<stop offset="1" stop-color="#FFF4DA"/>
</radialGradient>
<radialGradient id="paint4_radial_692_214" cx="0" cy="0" r="1" gradientUnits="userSpaceOnUse" gradientTransform="translate(156.351 111.309) rotate(180) scale(38.311 20.1909)">
<stop stop-color="#E1E1E1"/>
<stop offset="1" stop-color="#FFF4DA"/>
</radialGradient>
<radialGradient id="paint5_radial_692_214" cx="0" cy="0" r="1" gradientUnits="userSpaceOnUse" gradientTransform="translate(156.351 111.309) rotate(180) scale(38.311 20.1909)">
<stop stop-color="#E1E1E1"/>
<stop offset="1" stop-color="#FFF4DA"/>
</radialGradient>
<radialGradient id="paint6_radial_692_214" cx="0" cy="0" r="1" gradientUnits="userSpaceOnUse" gradientTransform="translate(156.351 111.309) rotate(180) scale(38.311 20.1909)">
<stop stop-color="#E1E1E1"/>
<stop offset="1" stop-color="#FFF4DA"/>
</radialGradient>
<radialGradient id="paint7_radial_692_214" cx="0" cy="0" r="1" gradientUnits="userSpaceOnUse" gradientTransform="translate(156.351 111.309) rotate(180) scale(38.311 20.1909)">
<stop stop-color="#E1E1E1"/>
<stop offset="1" stop-color="#FFF4DA"/>
</radialGradient>
<radialGradient id="paint8_radial_692_214" cx="0" cy="0" r="1" gradientUnits="userSpaceOnUse" gradientTransform="translate(59.0197 17.6024) scale(59.0197 17.6024)">
<stop stop-color="#E1E1E1"/>
<stop offset="1" stop-color="#FFF4DA"/>
</radialGradient>
<radialGradient id="paint9_radial_692_214" cx="0" cy="0" r="1" gradientUnits="userSpaceOnUse" gradientTransform="translate(59.0197 17.6024) scale(59.0197 17.6024)">
<stop stop-color="#E1E1E1"/>
<stop offset="1" stop-color="#FFF4DA"/>
</radialGradient>
<radialGradient id="paint10_radial_692_214" cx="0" cy="0" r="1" gradientUnits="userSpaceOnUse" gradientTransform="translate(59.0197 17.6024) scale(59.0197 17.6024)">
<stop stop-color="#E1E1E1"/>
<stop offset="1" stop-color="#FFF4DA"/>
</radialGradient>
<radialGradient id="paint11_radial_692_214" cx="0" cy="0" r="1" gradientUnits="userSpaceOnUse" gradientTransform="translate(59.0197 17.6024) scale(59.0197 17.6024)">
<stop stop-color="#E1E1E1"/>
<stop offset="1" stop-color="#FFF4DA"/>
</radialGradient>
<radialGradient id="paint12_radial_692_214" cx="0" cy="0" r="1" gradientUnits="userSpaceOnUse" gradientTransform="translate(59.0197 17.6024) scale(59.0197 17.6024)">
<stop stop-color="#E1E1E1"/>
<stop offset="1" stop-color="#FFF4DA"/>
</radialGradient>
<radialGradient id="paint13_radial_692_214" cx="0" cy="0" r="1" gradientUnits="userSpaceOnUse" gradientTransform="translate(59.0197 17.6024) scale(59.0197 17.6024)">
<stop stop-color="#E1E1E1"/>
<stop offset="1" stop-color="#FFF4DA"/>
</radialGradient>
<radialGradient id="paint14_radial_692_214" cx="0" cy="0" r="1" gradientUnits="userSpaceOnUse" gradientTransform="translate(59.0197 17.6024) scale(59.0197 17.6024)">
<stop stop-color="#E1E1E1"/>
<stop offset="1" stop-color="#FFF4DA"/>
</radialGradient>
<radialGradient id="paint15_radial_692_214" cx="0" cy="0" r="1" gradientUnits="userSpaceOnUse" gradientTransform="translate(59.0197 17.6024) scale(59.0197 17.6024)">
<stop stop-color="#E1E1E1"/>
<stop offset="1" stop-color="#FFF4DA"/>
</radialGradient>
<radialGradient id="paint16_radial_692_214" cx="0" cy="0" r="1" gradientUnits="userSpaceOnUse" gradientTransform="translate(177.059 17.6024) rotate(180) scale(59.0197 17.6024)">
<stop stop-color="#E1E1E1"/>
<stop offset="1" stop-color="#FFF4DA"/>
</radialGradient>
<radialGradient id="paint17_radial_692_214" cx="0" cy="0" r="1" gradientUnits="userSpaceOnUse" gradientTransform="translate(177.059 17.6024) rotate(180) scale(59.0197 17.6024)">
<stop stop-color="#E1E1E1"/>
<stop offset="1" stop-color="#FFF4DA"/>
</radialGradient>
<radialGradient id="paint18_radial_692_214" cx="0" cy="0" r="1" gradientUnits="userSpaceOnUse" gradientTransform="translate(177.059 17.6024) rotate(180) scale(59.0197 17.6024)">
<stop stop-color="#E1E1E1"/>
<stop offset="1" stop-color="#FFF4DA"/>
</radialGradient>
<radialGradient id="paint19_radial_692_214" cx="0" cy="0" r="1" gradientUnits="userSpaceOnUse" gradientTransform="translate(177.059 17.6024) rotate(180) scale(59.0197 17.6024)">
<stop stop-color="#E1E1E1"/>
<stop offset="1" stop-color="#FFF4DA"/>
</radialGradient>
<radialGradient id="paint20_radial_692_214" cx="0" cy="0" r="1" gradientUnits="userSpaceOnUse" gradientTransform="translate(177.059 17.6024) rotate(180) scale(59.0197 17.6024)">
<stop stop-color="#E1E1E1"/>
<stop offset="1" stop-color="#FFF4DA"/>
</radialGradient>
<radialGradient id="paint21_radial_692_214" cx="0" cy="0" r="1" gradientUnits="userSpaceOnUse" gradientTransform="translate(177.059 17.6024) rotate(180) scale(59.0197 17.6024)">
<stop stop-color="#E1E1E1"/>
<stop offset="1" stop-color="#FFF4DA"/>
</radialGradient>
<radialGradient id="paint22_radial_692_214" cx="0" cy="0" r="1" gradientUnits="userSpaceOnUse" gradientTransform="translate(177.059 17.6024) rotate(180) scale(59.0197 17.6024)">
<stop stop-color="#E1E1E1"/>
<stop offset="1" stop-color="#FFF4DA"/>
</radialGradient>
<radialGradient id="paint23_radial_692_214" cx="0" cy="0" r="1" gradientUnits="userSpaceOnUse" gradientTransform="translate(177.059 17.6024) rotate(180) scale(59.0197 17.6024)">
<stop stop-color="#E1E1E1"/>
<stop offset="1" stop-color="#FFF4DA"/>
</radialGradient>
</defs>
</svg>
