<svg width="237" height="132" viewBox="0 0 237 132" fill="none" xmlns="http://www.w3.org/2000/svg">
<path d="M50.7125 108.06C49.3889 108.487 47.9214 108.504 46.7169 107.809C44.5794 106.575 44.1412 105.154 44.5234 102.508V102.508C42.8798 103.056 42.063 104.953 43.0339 106.388C43.9977 107.812 45.0937 108.974 46.6267 110.246C47.9171 111.316 49.5696 111.855 51.2458 111.812C56.4406 111.679 59.0349 110.851 62.1257 108.72C61.1051 110.641 61.1618 111.76 61.9885 113.6C62.0605 113.76 62.2568 113.822 62.4077 113.731C64.0825 112.73 65.0039 111.892 66.2674 109.756C66.2154 114.032 66.9843 113.977 70.4091 114.933C67.5194 110.86 68.0525 109.221 70.1981 106.254C70.9958 105.151 72.1259 104.331 73.4053 103.866L78.5776 101.985C81.3342 100.982 84.3487 100.942 87.1313 101.869L104.173 107.55C104.307 107.435 104.442 107.326 104.578 107.223V104.508C104.578 103.403 105.474 102.508 106.578 102.508H108.791C109.896 102.508 110.791 103.403 110.791 104.508V105.614H111.826V103.472C111.826 102.368 110.931 101.472 109.826 101.472H105.543C104.438 101.472 103.543 102.368 103.543 103.472V106.65C98.7736 103.748 93.5321 101.584 86.7257 99.7769C82.8456 98.747 78.7534 99.0145 74.9328 100.247L50.7125 108.06Z" fill="url(#paint0_radial_692_2154)"/>
<path fill-rule="evenodd" clip-rule="evenodd" d="M118.039 111.827V108.721C115.458 105.74 114.163 105.799 111.826 105.614H110.791C108.063 105.589 106.222 105.979 104.578 107.223V107.685L104.173 107.55C103.27 108.327 102.409 109.382 101.472 110.791C94.4225 108.167 92.2419 105.859 84.6304 104.117C82.7927 103.696 80.8379 103.854 79.1733 104.739C77.1406 105.82 75.7478 107.075 74.4004 109.235C73.7976 110.201 73.7049 111.42 74.2146 112.438C75.0495 114.107 76.2498 115.417 79.1376 117.128C80.1186 117.709 81.3505 117.62 82.2784 116.957L86.28 114.099C87.2184 113.429 87.4128 112.09 86.6211 111.251C84.8302 109.354 83.7227 109.09 81.7989 109.756C83.0242 110.067 83.7473 110.456 84.396 111.688C84.7596 112.378 84.5518 113.216 84 113.767L82.2754 115.492C81.3706 116.397 79.9663 116.664 78.9055 115.948C77.3915 114.927 76.4781 113.802 75.4876 112.283C74.8937 111.372 74.8539 110.185 75.48 109.296C77.188 106.871 79.0763 106.022 82.8343 105.614C87.5138 105.758 93.9734 109.592 101.472 112.862C101.61 115.305 101.827 117.608 105.43 119.531C106.15 119.915 107.027 119.733 107.604 119.156L110.252 116.508C110.55 116.21 110.55 115.727 110.252 115.429V115.429C109.971 115.149 109.521 115.134 109.21 115.381C104.882 118.812 103.349 117.017 102.508 112.862C108.784 113.743 111.6 112.063 112.862 106.65H114.933L118.039 111.827ZM102.508 111.827C105.324 107.593 107.416 106.549 111.826 106.65C109.581 111.782 107.623 113.001 102.508 111.827Z" fill="url(#paint1_radial_692_2154)"/>
<path d="M118.039 114.933V111.827C116.112 115.763 116.189 118.074 110.791 119.075C111.96 121.038 112.806 121.636 114.933 121.146C115.324 125.201 115.717 127.472 118.039 131.5V125.287C116.703 121.107 116.952 118.865 118.039 114.933Z" fill="url(#paint2_radial_692_2154)"/>
<path d="M115.968 98.3662C116.06 94.792 116.696 93.3936 118.039 91.1182V105.614C115.722 100.811 114.342 99.4138 111.826 99.4015C113.364 97.8121 114.276 97.3638 115.968 98.3662Z" fill="url(#paint3_radial_692_2154)"/>
<path d="M185.366 108.06C186.689 108.487 188.157 108.504 189.361 107.809C191.499 106.575 191.937 105.154 191.555 102.508V102.508C193.198 103.056 194.015 104.953 193.044 106.388C192.08 107.812 190.984 108.974 189.451 110.246C188.161 111.316 186.509 111.855 184.832 111.812C179.637 111.679 177.043 110.851 173.952 108.72C174.973 110.641 174.916 111.76 174.09 113.6C174.018 113.76 173.821 113.822 173.67 113.731C171.996 112.73 171.074 111.892 169.811 109.756C169.863 114.032 169.094 113.977 165.669 114.933C168.559 110.86 168.026 109.221 165.88 106.254C165.082 105.151 163.952 104.331 162.673 103.866L157.5 101.985C154.744 100.982 151.729 100.942 148.947 101.869L131.905 107.55C131.771 107.435 131.636 107.326 131.5 107.223V104.508C131.5 103.403 130.604 102.508 129.5 102.508H127.287C126.183 102.508 125.287 103.403 125.287 104.508V105.614H124.252V103.472C124.252 102.368 125.147 101.472 126.252 101.472H130.535C131.64 101.472 132.535 102.368 132.535 103.472V106.65C137.304 103.748 142.546 101.584 149.352 99.7769C153.232 98.747 157.325 99.0145 161.145 100.247L185.366 108.06Z" fill="url(#paint4_radial_692_2154)"/>
<path fill-rule="evenodd" clip-rule="evenodd" d="M118.039 111.827V108.721C120.62 105.74 121.915 105.799 124.252 105.614H125.287C128.015 105.589 129.856 105.979 131.5 107.223V107.685L131.905 107.55C132.808 108.327 133.669 109.382 134.606 110.791C141.656 108.167 143.836 105.859 151.448 104.117C153.285 103.696 155.24 103.854 156.905 104.739C158.938 105.82 160.33 107.075 161.678 109.235C162.281 110.201 162.373 111.42 161.863 112.438C161.029 114.107 159.828 115.417 156.941 117.128C155.96 117.709 154.728 117.62 153.8 116.957L149.798 114.099C148.86 113.429 148.665 112.09 149.457 111.251C151.248 109.354 152.355 109.09 154.279 109.756C153.054 110.067 152.331 110.456 151.682 111.688C151.319 112.378 151.526 113.216 152.078 113.767L153.803 115.492C154.708 116.397 156.112 116.664 157.173 115.948C158.687 114.927 159.6 113.802 160.591 112.283C161.184 111.372 161.224 110.185 160.598 109.296C158.89 106.871 157.002 106.022 153.244 105.614C148.564 105.758 142.105 109.592 134.606 112.862C134.468 115.305 134.251 117.608 130.648 119.531C129.928 119.915 129.051 119.733 128.474 119.156L125.826 116.508C125.528 116.21 125.528 115.727 125.826 115.429V115.429C126.107 115.149 126.557 115.134 126.868 115.381C131.196 118.812 132.729 117.017 133.571 112.862C127.294 113.743 124.478 112.063 123.216 106.65H121.145L118.039 111.827ZM133.571 111.827C130.754 107.593 128.662 106.549 124.252 106.65C126.497 111.782 128.455 113.001 133.571 111.827Z" fill="url(#paint5_radial_692_2154)"/>
<path d="M118.039 114.933V111.827C119.967 115.763 119.889 118.074 125.287 119.075C124.119 121.038 123.273 121.636 121.145 121.146C120.754 125.201 120.361 127.472 118.039 131.5V125.287C119.375 121.107 119.126 118.865 118.039 114.933Z" fill="url(#paint6_radial_692_2154)"/>
<path d="M120.11 98.3662C120.019 94.792 119.382 93.3936 118.039 91.1182V105.614C120.356 100.811 121.736 99.4138 124.252 99.4015C122.714 97.8121 121.802 97.3638 120.11 98.3662Z" fill="url(#paint7_radial_692_2154)"/>
<path d="M86.5508 67.9531L94.1992 52.5273L96.9062 46.7266C97.6797 46.8125 98.8112 46.8555 100.301 46.8555C100.802 46.8555 101.361 46.8411 101.977 46.8125C102.607 46.7839 103.294 46.7409 104.039 46.6836C104.096 46.8268 104.096 47.0703 104.039 47.4141C103.982 47.7578 103.91 47.9297 103.824 47.9297C103.452 47.9297 103.058 48.0299 102.643 48.2305C102.227 48.431 101.919 48.6745 101.719 48.9609C101.461 49.3047 101.268 49.7201 101.139 50.207C101.024 50.651 100.888 51.5104 100.73 52.7852L99.0547 69.1992C98.8828 70.6745 98.7969 71.806 98.7969 72.5938C98.7969 73.1953 99.0189 73.5749 99.4629 73.7324C99.7207 73.8184 100.029 73.8828 100.387 73.9258C100.759 73.9544 101.06 73.9688 101.289 73.9688C101.346 73.9688 101.375 74.0977 101.375 74.3555C101.375 74.6992 101.289 74.957 101.117 75.1289C99.7852 75.0573 98.7253 75.0072 97.9375 74.9785C97.1641 74.9355 96.6628 74.9141 96.4336 74.9141C96.3906 74.9141 95.9896 74.9355 95.2305 74.9785C94.4857 75.0072 93.3828 75.0573 91.9219 75.1289C91.8646 75.0286 91.8359 74.957 91.8359 74.9141C91.8359 74.7422 91.8717 74.5417 91.9434 74.3125C92.015 74.0833 92.0794 73.9688 92.1367 73.9688C92.3945 73.9688 92.7168 73.9401 93.1035 73.8828C93.5046 73.8112 93.877 73.7181 94.2207 73.6035C94.5645 73.4746 94.7721 73.3385 94.8438 73.1953C95.1302 72.5365 95.3307 71.9277 95.4453 71.3691C95.474 71.2116 95.5169 70.8678 95.5742 70.3379C95.6315 69.8079 95.6745 69.4714 95.7031 69.3281L97.4219 52.5703C97.5078 51.7109 97.5508 51.1523 97.5508 50.8945C97.5508 50.7227 97.4648 50.6367 97.293 50.6367C97.2786 50.6367 97.2357 50.694 97.1641 50.8086L85.9492 73.668C85.806 73.9258 85.5339 74.2266 85.1328 74.5703C84.7318 74.9141 84.3594 75.0859 84.0156 75.0859C83.8867 75.0859 83.7721 75.0573 83.6719 75L80.0195 50.6367C80.0052 50.5794 79.9766 50.5508 79.9336 50.5508C79.8477 50.5508 79.8047 50.5794 79.8047 50.6367L74.7773 69.1562C74.2331 71.1328 73.9609 72.3216 73.9609 72.7227C73.9609 72.9232 74.1686 73.1237 74.584 73.3242C75.0137 73.5104 75.4648 73.668 75.9375 73.7969C76.4245 73.9115 76.7396 73.9688 76.8828 73.9688C76.9401 73.9688 76.9688 74.0547 76.9688 74.2266C76.9688 74.556 76.8971 74.8568 76.7539 75.1289C75.4219 75.0573 74.3835 75.0072 73.6387 74.9785C72.8939 74.9355 72.4427 74.9141 72.2852 74.9141C72.2422 74.9141 71.8268 74.9355 71.0391 74.9785C70.2513 75.0072 69.0911 75.0573 67.5586 75.1289C67.5013 75.0716 67.4727 74.9284 67.4727 74.6992C67.4727 74.2122 67.5729 73.9688 67.7734 73.9688C68.0026 73.9688 68.3678 73.9186 68.8691 73.8184C69.3704 73.7038 69.8431 73.5677 70.2871 73.4102C70.7454 73.2383 71.0104 73.0807 71.082 72.9375C71.5833 71.9922 72.056 70.7174 72.5 69.1133L77.1836 52.3125C77.2982 51.7539 77.4199 51.2025 77.5488 50.6582C77.6777 50.0996 77.7422 49.5625 77.7422 49.0469C77.7422 48.832 77.5417 48.6387 77.1406 48.4668C76.7396 48.2949 76.3027 48.1589 75.8301 48.0586C75.3717 47.944 75.0352 47.8867 74.8203 47.8867C74.763 47.8867 74.7344 47.7865 74.7344 47.5859C74.7344 47.1133 74.8203 46.8268 74.9922 46.7266C76.0521 46.7552 76.9186 46.7767 77.5918 46.791C78.265 46.8053 78.7448 46.8125 79.0312 46.8125C79.8477 46.8125 80.5924 46.8053 81.2656 46.791C81.9531 46.7767 82.569 46.7552 83.1133 46.7266C83.2422 47.901 83.5788 50.2643 84.123 53.8164C84.6673 57.3542 85.4193 62.0807 86.3789 67.9961C86.3789 68.0247 86.3932 68.0391 86.4219 68.0391C86.5078 68.0391 86.5508 68.0104 86.5508 67.9531ZM114.352 56.3086C116.042 56.3086 117.352 56.8958 118.283 58.0703C119.214 59.2448 119.68 60.8633 119.68 62.9258C119.68 64.401 119.393 65.8691 118.82 67.3301C118.247 68.7767 117.495 70.0944 116.564 71.2832C115.633 72.472 114.609 73.4245 113.492 74.1406C112.375 74.8568 111.272 75.2148 110.184 75.2148C108.465 75.2148 107.154 74.6562 106.252 73.5391C105.35 72.4219 104.898 70.832 104.898 68.7695C104.898 67.2799 105.178 65.8047 105.736 64.3438C106.309 62.8685 107.061 61.5293 107.992 60.3262C108.923 59.1087 109.94 58.1348 111.043 57.4043C112.16 56.6738 113.263 56.3086 114.352 56.3086ZM113.836 58.0703C113.12 58.0703 112.425 58.3854 111.752 59.0156C111.079 59.6315 110.47 60.4408 109.926 61.4434C109.382 62.446 108.952 63.5417 108.637 64.7305C108.322 65.9193 108.164 67.0794 108.164 68.2109C108.164 69.8724 108.429 71.1615 108.959 72.0781C109.489 72.9948 110.155 73.4531 110.957 73.4531C111.673 73.4531 112.354 73.1452 112.998 72.5293C113.657 71.8991 114.244 71.0827 114.76 70.0801C115.275 69.0632 115.676 67.9603 115.963 66.7715C116.264 65.5827 116.414 64.4154 116.414 63.2695C116.414 61.5794 116.185 60.2904 115.727 59.4023C115.268 58.5143 114.638 58.0703 113.836 58.0703ZM126.852 44.068C126.588 45.0947 126.25 46.2093 125.84 47.412C125.429 48.6147 124.974 49.8173 124.476 51.02C124.006 52.1933 123.537 53.308 123.068 54.364H120.208C120.413 53.5427 120.618 52.6627 120.824 51.724C121.058 50.7853 121.264 49.8467 121.44 48.908C121.645 47.94 121.821 47.0013 121.968 46.092C122.144 45.1827 122.29 44.3467 122.408 43.584H126.544L126.852 44.068ZM135.535 56.3086C135.993 56.3086 136.352 56.5163 136.609 56.9316C136.867 57.347 136.996 57.8841 136.996 58.543C136.996 59.3021 136.91 60.0612 136.738 60.8203L135.234 67.9102C135.034 68.7839 134.934 69.5573 134.934 70.2305C134.934 71.4622 135.206 72.0781 135.75 72.0781C136.065 72.0781 136.452 71.8991 136.91 71.541C137.383 71.1829 137.87 70.7246 138.371 70.166C138.887 69.6074 139.367 69.0345 139.811 68.4473C140.627 67.373 141.4 66.0625 142.131 64.5156C142.861 62.9688 143.37 61.4362 143.656 59.918L144.387 56.5664C144.773 56.4518 145.217 56.3945 145.719 56.3945C146.206 56.3945 146.693 56.4518 147.18 56.5664L144.516 70.4453C144.43 70.7891 144.387 71.1471 144.387 71.5195C144.387 72.2357 144.53 72.5938 144.816 72.5938C145.174 72.5938 145.604 72.3431 146.105 71.8418C146.607 71.3262 147.036 70.8893 147.395 70.5312L147.652 70.2305C147.71 70.2305 147.817 70.3665 147.975 70.6387C148.132 70.9108 148.211 71.1042 148.211 71.2188C147.967 71.6341 147.523 72.1641 146.879 72.8086C146.249 73.4531 145.561 74.026 144.816 74.5273C144.072 75.0143 143.398 75.2578 142.797 75.2578C142.339 75.2578 141.98 75.0501 141.723 74.6348C141.465 74.2194 141.336 73.6823 141.336 73.0234C141.336 72.5938 141.436 71.8346 141.637 70.7461L142.41 66.793C142.138 67.3086 141.551 68.1966 140.648 69.457C140.061 70.2734 139.352 71.1328 138.521 72.0352C137.705 72.9375 136.889 73.7038 136.072 74.334C135.256 74.9499 134.561 75.2578 133.988 75.2578C132.556 75.2578 131.84 74.3125 131.84 72.4219C131.84 71.0755 132.04 69.5143 132.441 67.7383L133.73 61.7656C133.874 60.7773 133.945 60.2044 133.945 60.0469C133.945 59.3307 133.802 58.9727 133.516 58.9727C133.272 58.9727 132.907 59.2018 132.42 59.6602C132.191 59.8893 131.94 60.14 131.668 60.4121C131.41 60.6842 131.238 60.8776 131.152 60.9922C131.095 60.9922 130.988 60.8561 130.83 60.584C130.673 60.3118 130.594 60.1185 130.594 60.0039C130.823 59.6172 131.238 59.1374 131.84 58.5645C132.441 57.9772 133.086 57.4544 133.773 56.9961C134.461 56.5378 135.048 56.3086 135.535 56.3086ZM156.246 56.3086C156.704 56.3086 157.062 56.5163 157.32 56.9316C157.578 57.347 157.707 57.8841 157.707 58.543C157.707 59.1732 157.621 59.9323 157.449 60.8203L156.676 64.7734C156.948 64.2865 157.571 63.3984 158.545 62.1094C159.189 61.2643 159.934 60.3978 160.779 59.5098C161.639 58.6074 162.484 57.8483 163.314 57.2324C164.16 56.6165 164.868 56.3086 165.441 56.3086C166.874 56.3086 167.59 57.2539 167.59 59.1445C167.59 60.4766 167.389 62.0378 166.988 63.8281L165.57 70.4453C165.484 70.7891 165.441 71.1471 165.441 71.5195C165.441 72.2357 165.585 72.5938 165.871 72.5938C166.229 72.5938 166.659 72.3431 167.16 71.8418C167.661 71.3262 168.091 70.8893 168.449 70.5312L168.707 70.2305C168.764 70.2305 168.872 70.3665 169.029 70.6387C169.187 70.9108 169.266 71.1042 169.266 71.2188C169.022 71.6341 168.578 72.1641 167.934 72.8086C167.303 73.4531 166.616 74.026 165.871 74.5273C165.126 75.0143 164.453 75.2578 163.852 75.2578C163.393 75.2578 163.035 75.0501 162.777 74.6348C162.52 74.2194 162.391 73.6823 162.391 73.0234C162.391 72.5938 162.491 71.8346 162.691 70.7461L164.195 63.6562C164.396 62.6823 164.496 61.9089 164.496 61.3359C164.496 60.1042 164.224 59.4883 163.68 59.4883C163.207 59.4883 162.57 59.8464 161.768 60.5625C160.965 61.2643 160.128 62.2025 159.254 63.377C158.395 64.5514 157.614 65.862 156.912 67.3086C156.21 68.7409 155.716 70.1875 155.43 71.6484L154.699 75C154.312 75.1146 153.868 75.1719 153.367 75.1719C152.88 75.1719 152.393 75.1146 151.906 75L154.441 61.7656C154.585 60.7773 154.656 60.2044 154.656 60.0469C154.656 59.3307 154.513 58.9727 154.227 58.9727C153.983 58.9727 153.618 59.2018 153.131 59.6602C152.902 59.8893 152.651 60.14 152.379 60.4121C152.121 60.6842 151.949 60.8776 151.863 60.9922C151.806 60.9922 151.699 60.8561 151.541 60.584C151.383 60.3118 151.305 60.1185 151.305 60.0039C151.534 59.6172 151.949 59.1374 152.551 58.5645C153.152 57.9772 153.797 57.4544 154.484 56.9961C155.172 56.5378 155.759 56.3086 156.246 56.3086Z" fill="white"/>
<path d="M0 14.4961C6.30012 20.0984 15.0791 19.1979 30.687 15.1421C32.2497 14.736 33.9168 14.9601 35.3059 15.7832L61.0905 31.063L35.3304 19.6141C33.9205 18.9874 32.3183 18.9353 30.8588 19.4358C12.5496 25.7159 4.73674 24.7283 0 14.4961Z" fill="url(#paint8_radial_692_2154)"/>
<path d="M16.5669 25.8858C22.7094 27.5488 34.4861 19.1752 43.5027 24.2129C35.7991 20.3448 24.9274 34.7378 16.5669 25.8858Z" fill="url(#paint9_radial_692_2154)"/>
<path d="M42.4528 34.1693C40.4746 32.9379 39.8039 31.791 39.5364 30.2054C39.314 28.8871 40.2138 27.6374 41.514 27.3262C46.4064 26.1551 49.6595 27.3172 54.8779 31.063C50.3759 26.3362 46.8249 25.2844 39.6469 25.78C38.7972 25.8387 38.0191 26.2751 37.5081 26.9564L36.1669 28.7446C35.6047 29.4943 35.6307 30.5432 36.2784 31.2205C38.4425 33.4837 39.9798 34.1156 42.4528 34.1693Z" fill="url(#paint10_radial_692_2154)"/>
<path d="M61.0905 28.9921C48.8725 19.5072 53.131 18.6378 60.0551 10.3543C56.6285 8.93238 54.8937 8.83857 52.8071 12.4252C51.2879 8.29387 49.7783 6.42726 45.559 4.14173C43.8524 8.52031 44.6321 10.6991 46.5945 14.4961C42.9378 12.0347 40.7471 11.3823 36.2402 13.4606C46.3046 17.727 45.2926 18.8748 61.0905 28.9921Z" fill="url(#paint11_radial_692_2154)"/>
<path d="M78.6929 22.7441C78.6929 22.1918 79.1406 21.7441 79.6929 21.7441H79.7638C80.3161 21.7441 80.7638 22.1918 80.7638 22.7441V25.9213C80.7638 26.4735 80.3161 26.9213 79.7638 26.9213H74.4803C73.3757 26.9213 72.4803 26.0258 72.4803 24.9213V19.6024C72.4803 18.4978 73.3757 17.6024 74.4803 17.6024H78.7281C80.6137 17.6024 82.4755 18.023 84.178 18.8337V18.8337C85.2965 19.3663 86.1249 20.3629 86.4441 21.5599L88.3399 28.6695C89.2063 31.9182 86.6836 35.0788 83.3237 34.9544L68.0679 34.3894C64.7776 34.2675 62.2002 31.5169 62.2923 28.2256L62.6948 13.8426C62.7856 10.5955 65.4441 8.01038 68.6924 8.01038H83.0387C86.0229 8.01038 88.8896 9.21712 90.915 11.4088C101.807 23.194 109.097 33.3225 115.395 32.2299C115.685 32.1796 115.968 32.3916 115.968 32.686V32.686C115.968 32.9325 115.766 33.1318 115.519 33.1285C109.37 33.045 105.37 32.4313 87.653 13.254C86.5367 12.0456 85.0793 11.1983 83.4735 10.8414L77.8584 9.59364C77.0431 9.41248 76.199 9.4035 75.3801 9.56728L71.091 10.4251C68.2865 10.986 66.2677 13.4485 66.2677 16.3086V27.0984C66.2677 29.8599 68.5063 32.0984 71.2677 32.0984H80.9055C83.1146 32.0984 84.9055 30.3076 84.9055 28.0984V22.6378C84.9055 20.4287 83.1146 18.6378 80.9055 18.6378H76.5512C75.4466 18.6378 74.5512 19.5332 74.5512 20.6378V24.8858C74.5512 25.4381 74.9989 25.8858 75.5512 25.8858H77.6929C78.2452 25.8858 78.6929 25.4381 78.6929 24.8858V22.7441Z" fill="url(#paint12_radial_692_2154)"/>
<path d="M104.412 33.0631C96.4743 29.9513 88.3242 12.4066 78.6929 13.4606C91.6665 19.2326 92.9183 31.4785 104.412 33.0631Z" fill="url(#paint13_radial_692_2154)"/>
<path d="M111.827 30.0276C106.485 21.6827 106.361 16.9143 110.791 8.28346C105.363 9.71409 97.6256 19.5114 111.827 30.0276Z" fill="url(#paint14_radial_692_2154)"/>
<path d="M118.039 10.3543C113.102 14.0549 110.405 23.2793 118.039 32.0984C106.33 25.6888 109.793 12.7713 118.039 0V10.3543Z" fill="url(#paint15_radial_692_2154)"/>
<path d="M236.079 14.4961C229.778 20.0984 221 19.1979 205.392 15.1421C203.829 14.736 202.162 14.9601 200.773 15.7832L174.988 31.063L200.748 19.6141C202.158 18.9874 203.76 18.9353 205.22 19.4358C223.529 25.7159 231.342 24.7283 236.079 14.4961Z" fill="url(#paint16_radial_692_2154)"/>
<path d="M219.512 25.8858C213.369 27.5488 201.593 19.1752 192.576 24.2129C200.279 20.3448 211.151 34.7378 219.512 25.8858Z" fill="url(#paint17_radial_692_2154)"/>
<path d="M193.626 34.1693C195.604 32.9379 196.275 31.791 196.542 30.2054C196.765 28.8871 195.865 27.6374 194.565 27.3262C189.672 26.1551 186.419 27.3172 181.201 31.063C185.703 26.3362 189.254 25.2844 196.432 25.78C197.281 25.8387 198.06 26.2751 198.571 26.9564L199.912 28.7446C200.474 29.4943 200.448 30.5432 199.8 31.2205C197.636 33.4837 196.099 34.1156 193.626 34.1693Z" fill="url(#paint18_radial_692_2154)"/>
<path d="M174.988 28.9921C187.206 19.5072 182.948 18.6378 176.024 10.3543C179.45 8.93238 181.185 8.83857 183.272 12.4252C184.791 8.29387 186.3 6.42726 190.52 4.14173C192.226 8.52031 191.446 10.6991 189.484 14.4961C193.141 12.0347 195.331 11.3823 199.838 13.4606C189.774 17.727 190.786 18.8748 174.988 28.9921Z" fill="url(#paint19_radial_692_2154)"/>
<path d="M157.386 22.7441C157.386 22.1918 156.938 21.7441 156.386 21.7441H156.315C155.763 21.7441 155.315 22.1918 155.315 22.7441V25.9213C155.315 26.4735 155.763 26.9213 156.315 26.9213H161.598C162.703 26.9213 163.598 26.0258 163.598 24.9213V19.6024C163.598 18.4978 162.703 17.6024 161.598 17.6024H157.351C155.465 17.6024 153.603 18.023 151.901 18.8337V18.8337C150.782 19.3663 149.954 20.3629 149.635 21.5599L147.739 28.6695C146.872 31.9182 149.395 35.0788 152.755 34.9544L168.011 34.3894C171.301 34.2675 173.878 31.5169 173.786 28.2256L173.384 13.8426C173.293 10.5955 170.635 8.01038 167.386 8.01038H153.04C150.056 8.01038 147.189 9.21712 145.164 11.4088C134.272 23.194 126.982 33.3225 120.683 32.2299C120.393 32.1796 120.11 32.3916 120.11 32.686V32.686C120.11 32.9325 120.313 33.1318 120.559 33.1285C126.708 33.045 130.709 32.4313 148.426 13.254C149.542 12.0456 150.999 11.1983 152.605 10.8414L158.22 9.59364C159.035 9.41248 159.88 9.4035 160.698 9.56728L164.988 10.4251C167.792 10.986 169.811 13.4485 169.811 16.3086V27.0984C169.811 29.8599 167.572 32.0984 164.811 32.0984H155.173C152.964 32.0984 151.173 30.3076 151.173 28.0984V22.6378C151.173 20.4287 152.964 18.6378 155.173 18.6378H159.527C160.632 18.6378 161.527 19.5332 161.527 20.6378V24.8858C161.527 25.4381 161.08 25.8858 160.527 25.8858H158.386C157.833 25.8858 157.386 25.4381 157.386 24.8858V22.7441Z" fill="url(#paint20_radial_692_2154)"/>
<path d="M131.666 33.0631C139.604 29.9513 147.754 12.4066 157.386 13.4606C144.412 19.2326 143.16 31.4785 131.666 33.0631Z" fill="url(#paint21_radial_692_2154)"/>
<path d="M124.252 30.0276C129.594 21.6827 129.718 16.9143 125.287 8.28346C130.716 9.71409 138.453 19.5114 124.252 30.0276Z" fill="url(#paint22_radial_692_2154)"/>
<path d="M118.039 10.3543C122.976 14.0549 125.673 23.2793 118.039 32.0984C129.749 25.6888 126.286 12.7713 118.039 0V10.3543Z" fill="url(#paint23_radial_692_2154)"/>
<defs>
<radialGradient id="paint0_radial_692_2154" cx="0" cy="0" r="1" gradientUnits="userSpaceOnUse" gradientTransform="translate(79.728 111.309) scale(38.311 20.1909)">
<stop stop-color="#E1E1E1"/>
<stop offset="1" stop-color="#FFF4DA"/>
</radialGradient>
<radialGradient id="paint1_radial_692_2154" cx="0" cy="0" r="1" gradientUnits="userSpaceOnUse" gradientTransform="translate(79.728 111.309) scale(38.311 20.1909)">
<stop stop-color="#E1E1E1"/>
<stop offset="1" stop-color="#FFF4DA"/>
</radialGradient>
<radialGradient id="paint2_radial_692_2154" cx="0" cy="0" r="1" gradientUnits="userSpaceOnUse" gradientTransform="translate(79.728 111.309) scale(38.311 20.1909)">
<stop stop-color="#E1E1E1"/>
<stop offset="1" stop-color="#FFF4DA"/>
</radialGradient>
<radialGradient id="paint3_radial_692_2154" cx="0" cy="0" r="1" gradientUnits="userSpaceOnUse" gradientTransform="translate(79.728 111.309) scale(38.311 20.1909)">
<stop stop-color="#E1E1E1"/>
<stop offset="1" stop-color="#FFF4DA"/>
</radialGradient>
<radialGradient id="paint4_radial_692_2154" cx="0" cy="0" r="1" gradientUnits="userSpaceOnUse" gradientTransform="translate(156.35 111.309) rotate(180) scale(38.311 20.1909)">
<stop stop-color="#E1E1E1"/>
<stop offset="1" stop-color="#FFF4DA"/>
</radialGradient>
<radialGradient id="paint5_radial_692_2154" cx="0" cy="0" r="1" gradientUnits="userSpaceOnUse" gradientTransform="translate(156.35 111.309) rotate(180) scale(38.311 20.1909)">
<stop stop-color="#E1E1E1"/>
<stop offset="1" stop-color="#FFF4DA"/>
</radialGradient>
<radialGradient id="paint6_radial_692_2154" cx="0" cy="0" r="1" gradientUnits="userSpaceOnUse" gradientTransform="translate(156.35 111.309) rotate(180) scale(38.311 20.1909)">
<stop stop-color="#E1E1E1"/>
<stop offset="1" stop-color="#FFF4DA"/>
</radialGradient>
<radialGradient id="paint7_radial_692_2154" cx="0" cy="0" r="1" gradientUnits="userSpaceOnUse" gradientTransform="translate(156.35 111.309) rotate(180) scale(38.311 20.1909)">
<stop stop-color="#E1E1E1"/>
<stop offset="1" stop-color="#FFF4DA"/>
</radialGradient>
<radialGradient id="paint8_radial_692_2154" cx="0" cy="0" r="1" gradientUnits="userSpaceOnUse" gradientTransform="translate(59.0197 17.6024) scale(59.0197 17.6024)">
<stop stop-color="#E1E1E1"/>
<stop offset="1" stop-color="#FFF4DA"/>
</radialGradient>
<radialGradient id="paint9_radial_692_2154" cx="0" cy="0" r="1" gradientUnits="userSpaceOnUse" gradientTransform="translate(59.0197 17.6024) scale(59.0197 17.6024)">
<stop stop-color="#E1E1E1"/>
<stop offset="1" stop-color="#FFF4DA"/>
</radialGradient>
<radialGradient id="paint10_radial_692_2154" cx="0" cy="0" r="1" gradientUnits="userSpaceOnUse" gradientTransform="translate(59.0197 17.6024) scale(59.0197 17.6024)">
<stop stop-color="#E1E1E1"/>
<stop offset="1" stop-color="#FFF4DA"/>
</radialGradient>
<radialGradient id="paint11_radial_692_2154" cx="0" cy="0" r="1" gradientUnits="userSpaceOnUse" gradientTransform="translate(59.0197 17.6024) scale(59.0197 17.6024)">
<stop stop-color="#E1E1E1"/>
<stop offset="1" stop-color="#FFF4DA"/>
</radialGradient>
<radialGradient id="paint12_radial_692_2154" cx="0" cy="0" r="1" gradientUnits="userSpaceOnUse" gradientTransform="translate(59.0197 17.6024) scale(59.0197 17.6024)">
<stop stop-color="#E1E1E1"/>
<stop offset="1" stop-color="#FFF4DA"/>
</radialGradient>
<radialGradient id="paint13_radial_692_2154" cx="0" cy="0" r="1" gradientUnits="userSpaceOnUse" gradientTransform="translate(59.0197 17.6024) scale(59.0197 17.6024)">
<stop stop-color="#E1E1E1"/>
<stop offset="1" stop-color="#FFF4DA"/>
</radialGradient>
<radialGradient id="paint14_radial_692_2154" cx="0" cy="0" r="1" gradientUnits="userSpaceOnUse" gradientTransform="translate(59.0197 17.6024) scale(59.0197 17.6024)">
<stop stop-color="#E1E1E1"/>
<stop offset="1" stop-color="#FFF4DA"/>
</radialGradient>
<radialGradient id="paint15_radial_692_2154" cx="0" cy="0" r="1" gradientUnits="userSpaceOnUse" gradientTransform="translate(59.0197 17.6024) scale(59.0197 17.6024)">
<stop stop-color="#E1E1E1"/>
<stop offset="1" stop-color="#FFF4DA"/>
</radialGradient>
<radialGradient id="paint16_radial_692_2154" cx="0" cy="0" r="1" gradientUnits="userSpaceOnUse" gradientTransform="translate(177.059 17.6024) rotate(180) scale(59.0197 17.6024)">
<stop stop-color="#E1E1E1"/>
<stop offset="1" stop-color="#FFF4DA"/>
</radialGradient>
<radialGradient id="paint17_radial_692_2154" cx="0" cy="0" r="1" gradientUnits="userSpaceOnUse" gradientTransform="translate(177.059 17.6024) rotate(180) scale(59.0197 17.6024)">
<stop stop-color="#E1E1E1"/>
<stop offset="1" stop-color="#FFF4DA"/>
</radialGradient>
<radialGradient id="paint18_radial_692_2154" cx="0" cy="0" r="1" gradientUnits="userSpaceOnUse" gradientTransform="translate(177.059 17.6024) rotate(180) scale(59.0197 17.6024)">
<stop stop-color="#E1E1E1"/>
<stop offset="1" stop-color="#FFF4DA"/>
</radialGradient>
<radialGradient id="paint19_radial_692_2154" cx="0" cy="0" r="1" gradientUnits="userSpaceOnUse" gradientTransform="translate(177.059 17.6024) rotate(180) scale(59.0197 17.6024)">
<stop stop-color="#E1E1E1"/>
<stop offset="1" stop-color="#FFF4DA"/>
</radialGradient>
<radialGradient id="paint20_radial_692_2154" cx="0" cy="0" r="1" gradientUnits="userSpaceOnUse" gradientTransform="translate(177.059 17.6024) rotate(180) scale(59.0197 17.6024)">
<stop stop-color="#E1E1E1"/>
<stop offset="1" stop-color="#FFF4DA"/>
</radialGradient>
<radialGradient id="paint21_radial_692_2154" cx="0" cy="0" r="1" gradientUnits="userSpaceOnUse" gradientTransform="translate(177.059 17.6024) rotate(180) scale(59.0197 17.6024)">
<stop stop-color="#E1E1E1"/>
<stop offset="1" stop-color="#FFF4DA"/>
</radialGradient>
<radialGradient id="paint22_radial_692_2154" cx="0" cy="0" r="1" gradientUnits="userSpaceOnUse" gradientTransform="translate(177.059 17.6024) rotate(180) scale(59.0197 17.6024)">
<stop stop-color="#E1E1E1"/>
<stop offset="1" stop-color="#FFF4DA"/>
</radialGradient>
<radialGradient id="paint23_radial_692_2154" cx="0" cy="0" r="1" gradientUnits="userSpaceOnUse" gradientTransform="translate(177.059 17.6024) rotate(180) scale(59.0197 17.6024)">
<stop stop-color="#E1E1E1"/>
<stop offset="1" stop-color="#FFF4DA"/>
</radialGradient>
</defs>
</svg>
