<svg width="237" height="132" viewBox="0 0 237 132" fill="none" xmlns="http://www.w3.org/2000/svg">
<path d="M50.713 108.06C49.3894 108.487 47.9219 108.504 46.7174 107.809C44.5799 106.575 44.1417 105.154 44.5239 102.508V102.508C42.8803 103.056 42.0634 104.953 43.0344 106.388C43.9981 107.812 45.0942 108.974 46.6272 110.246C47.9176 111.316 49.57 111.855 51.2463 111.812C56.4411 111.679 59.0354 110.851 62.1261 108.72C61.1055 110.641 61.1623 111.76 61.9889 113.6C62.061 113.76 62.2573 113.822 62.4081 113.731C64.083 112.73 65.0044 111.892 66.2679 109.756C66.2159 114.032 66.9848 113.977 70.4096 114.933C67.5199 110.86 68.053 109.221 70.1985 106.254C70.9963 105.151 72.1264 104.331 73.4058 103.866L78.5781 101.985C81.3347 100.982 84.3491 100.942 87.1317 101.869L104.174 107.55C104.308 107.435 104.443 107.326 104.579 107.223V104.508C104.579 103.403 105.474 102.508 106.579 102.508H108.791C109.896 102.508 110.791 103.403 110.791 104.508V105.614H111.827V103.472C111.827 102.368 110.931 101.472 109.827 101.472H105.543C104.439 101.472 103.543 102.368 103.543 103.472V106.65C98.7741 103.748 93.5326 101.584 86.7262 99.7769C82.8461 98.747 78.7539 99.0145 74.9333 100.247L50.713 108.06Z" fill="url(#paint0_radial_692_1762)"/>
<path fill-rule="evenodd" clip-rule="evenodd" d="M118.04 111.827V108.721C115.458 105.74 114.164 105.799 111.827 105.614H110.791C108.063 105.589 106.223 105.979 104.579 107.223V107.685L104.174 107.55C103.27 108.327 102.41 109.382 101.473 110.791C94.423 108.167 92.2423 105.859 84.6309 104.117C82.7932 103.696 80.8384 103.854 79.1738 104.739C77.1411 105.82 75.7483 107.075 74.4009 109.235C73.7981 110.201 73.7054 111.42 74.2151 112.438C75.05 114.107 76.2503 115.417 79.1381 117.128C80.1191 117.709 81.351 117.62 82.2789 116.957L86.2804 114.099C87.2189 113.429 87.4133 112.09 86.6216 111.251C84.8307 109.354 83.7232 109.09 81.7994 109.756C83.0247 110.067 83.7478 110.456 84.3965 111.688C84.7601 112.378 84.5523 113.216 84.0005 113.767L82.2759 115.492C81.3711 116.397 79.9668 116.664 78.906 115.948C77.392 114.927 76.4786 113.802 75.488 112.283C74.8942 111.372 74.8544 110.185 75.4804 109.296C77.1885 106.871 79.0768 106.022 82.8348 105.614C87.5143 105.758 93.9739 109.592 101.473 112.862C101.611 115.305 101.827 117.608 105.431 119.531C106.15 119.915 107.027 119.733 107.604 119.156L110.252 116.508C110.55 116.21 110.55 115.727 110.252 115.429V115.429C109.972 115.149 109.522 115.134 109.211 115.381C104.883 118.812 103.35 117.017 102.508 112.862C108.785 113.743 111.601 112.063 112.862 106.65H114.933L118.04 111.827ZM102.508 111.827C105.324 107.593 107.417 106.549 111.827 106.65C109.582 111.782 107.624 113.001 102.508 111.827Z" fill="url(#paint1_radial_692_1762)"/>
<path d="M118.04 114.933V111.827C116.112 115.763 116.189 118.074 110.791 119.075C111.96 121.038 112.806 121.636 114.933 121.146C115.325 125.201 115.718 127.472 118.04 131.5V125.287C116.703 121.107 116.953 118.865 118.04 114.933Z" fill="url(#paint2_radial_692_1762)"/>
<path d="M115.969 98.3662C116.06 94.792 116.696 93.3936 118.04 91.1182V105.614C115.723 100.811 114.342 99.4138 111.827 99.4015C113.365 97.8121 114.277 97.3638 115.969 98.3662Z" fill="url(#paint3_radial_692_1762)"/>
<path d="M185.366 108.06C186.69 108.487 188.157 108.504 189.362 107.809C191.499 106.575 191.937 105.154 191.555 102.508V102.508C193.199 103.056 194.016 104.953 193.045 106.388C192.081 107.812 190.985 108.974 189.452 110.246C188.161 111.316 186.509 111.855 184.833 111.812C179.638 111.679 177.044 110.851 173.953 108.72C174.974 110.641 174.917 111.76 174.09 113.6C174.018 113.76 173.822 113.822 173.671 113.731C171.996 112.73 171.075 111.892 169.811 109.756C169.863 114.032 169.094 113.977 165.669 114.933C168.559 110.86 168.026 109.221 165.881 106.254C165.083 105.151 163.953 104.331 162.673 103.866L157.501 101.985C154.744 100.982 151.73 100.942 148.947 101.869L131.905 107.55C131.771 107.435 131.636 107.326 131.5 107.223V104.508C131.5 103.403 130.605 102.508 129.5 102.508H127.288C126.183 102.508 125.288 103.403 125.288 104.508V105.614H124.252V103.472C124.252 102.368 125.148 101.472 126.252 101.472H130.536C131.64 101.472 132.536 102.368 132.536 103.472V106.65C137.305 103.748 142.547 101.584 149.353 99.7769C153.233 98.747 157.325 99.0145 161.146 100.247L185.366 108.06Z" fill="url(#paint4_radial_692_1762)"/>
<path fill-rule="evenodd" clip-rule="evenodd" d="M118.04 111.827V108.721C120.621 105.74 121.915 105.799 124.252 105.614H125.288C128.016 105.589 129.856 105.979 131.5 107.223V107.685L131.905 107.55C132.809 108.327 133.669 109.382 134.607 110.791C141.656 108.167 143.837 105.859 151.448 104.117C153.286 103.696 155.241 103.854 156.905 104.739C158.938 105.82 160.331 107.075 161.678 109.235C162.281 110.201 162.374 111.42 161.864 112.438C161.029 114.107 159.829 115.417 156.941 117.128C155.96 117.709 154.728 117.62 153.8 116.957L149.799 114.099C148.86 113.429 148.666 112.09 149.457 111.251C151.248 109.354 152.356 109.09 154.28 109.756C153.054 110.067 152.331 110.456 151.683 111.688C151.319 112.378 151.527 113.216 152.079 113.767L153.803 115.492C154.708 116.397 156.112 116.664 157.173 115.948C158.687 114.927 159.601 113.802 160.591 112.283C161.185 111.372 161.225 110.185 160.599 109.296C158.891 106.871 157.002 106.022 153.244 105.614C148.565 105.758 142.105 109.592 134.607 112.862C134.468 115.305 134.252 117.608 130.648 119.531C129.929 119.915 129.052 119.733 128.475 119.156L125.827 116.508C125.529 116.21 125.529 115.727 125.827 115.429V115.429C126.107 115.149 126.557 115.134 126.868 115.381C131.196 118.812 132.729 117.017 133.571 112.862C127.294 113.743 124.479 112.063 123.217 106.65H121.146L118.04 111.827ZM133.571 111.827C130.755 107.593 128.662 106.549 124.252 106.65C126.497 111.782 128.455 113.001 133.571 111.827Z" fill="url(#paint5_radial_692_1762)"/>
<path d="M118.04 114.933V111.827C119.967 115.763 119.89 118.074 125.288 119.075C124.119 121.038 123.273 121.636 121.146 121.146C120.755 125.201 120.362 127.472 118.04 131.5V125.287C119.376 121.107 119.126 118.865 118.04 114.933Z" fill="url(#paint6_radial_692_1762)"/>
<path d="M120.11 98.3662C120.019 94.792 119.383 93.3936 118.04 91.1182V105.614C120.356 100.811 121.737 99.4138 124.252 99.4015C122.714 97.8121 121.802 97.3638 120.11 98.3662Z" fill="url(#paint7_radial_692_1762)"/>
<path d="M60.5508 67.9531L68.1992 52.5273L70.9062 46.7266C71.6797 46.8125 72.8112 46.8555 74.3008 46.8555C74.8021 46.8555 75.3607 46.8411 75.9766 46.8125C76.6068 46.7839 77.2943 46.7409 78.0391 46.6836C78.0964 46.8268 78.0964 47.0703 78.0391 47.4141C77.9818 47.7578 77.9102 47.9297 77.8242 47.9297C77.4518 47.9297 77.0579 48.0299 76.6426 48.2305C76.2272 48.431 75.9193 48.6745 75.7188 48.9609C75.4609 49.3047 75.2676 49.7201 75.1387 50.207C75.0241 50.651 74.888 51.5104 74.7305 52.7852L73.0547 69.1992C72.8828 70.6745 72.7969 71.806 72.7969 72.5938C72.7969 73.1953 73.0189 73.5749 73.4629 73.7324C73.7207 73.8184 74.0286 73.8828 74.3867 73.9258C74.7591 73.9544 75.0599 73.9688 75.2891 73.9688C75.3464 73.9688 75.375 74.0977 75.375 74.3555C75.375 74.6992 75.2891 74.957 75.1172 75.1289C73.7852 75.0573 72.7253 75.0072 71.9375 74.9785C71.1641 74.9355 70.6628 74.9141 70.4336 74.9141C70.3906 74.9141 69.9896 74.9355 69.2305 74.9785C68.4857 75.0072 67.3828 75.0573 65.9219 75.1289C65.8646 75.0286 65.8359 74.957 65.8359 74.9141C65.8359 74.7422 65.8717 74.5417 65.9434 74.3125C66.015 74.0833 66.0794 73.9688 66.1367 73.9688C66.3945 73.9688 66.7168 73.9401 67.1035 73.8828C67.5046 73.8112 67.877 73.7181 68.2207 73.6035C68.5645 73.4746 68.7721 73.3385 68.8438 73.1953C69.1302 72.5365 69.3307 71.9277 69.4453 71.3691C69.474 71.2116 69.5169 70.8678 69.5742 70.3379C69.6315 69.8079 69.6745 69.4714 69.7031 69.3281L71.4219 52.5703C71.5078 51.7109 71.5508 51.1523 71.5508 50.8945C71.5508 50.7227 71.4648 50.6367 71.293 50.6367C71.2786 50.6367 71.2357 50.694 71.1641 50.8086L59.9492 73.668C59.806 73.9258 59.5339 74.2266 59.1328 74.5703C58.7318 74.9141 58.3594 75.0859 58.0156 75.0859C57.8867 75.0859 57.7721 75.0573 57.6719 75L54.0195 50.6367C54.0052 50.5794 53.9766 50.5508 53.9336 50.5508C53.8477 50.5508 53.8047 50.5794 53.8047 50.6367L48.7773 69.1562C48.2331 71.1328 47.9609 72.3216 47.9609 72.7227C47.9609 72.9232 48.1686 73.1237 48.584 73.3242C49.0137 73.5104 49.4648 73.668 49.9375 73.7969C50.4245 73.9115 50.7396 73.9688 50.8828 73.9688C50.9401 73.9688 50.9688 74.0547 50.9688 74.2266C50.9688 74.556 50.8971 74.8568 50.7539 75.1289C49.4219 75.0573 48.3835 75.0072 47.6387 74.9785C46.8939 74.9355 46.4427 74.9141 46.2852 74.9141C46.2422 74.9141 45.8268 74.9355 45.0391 74.9785C44.2513 75.0072 43.0911 75.0573 41.5586 75.1289C41.5013 75.0716 41.4727 74.9284 41.4727 74.6992C41.4727 74.2122 41.5729 73.9688 41.7734 73.9688C42.0026 73.9688 42.3678 73.9186 42.8691 73.8184C43.3704 73.7038 43.8431 73.5677 44.2871 73.4102C44.7454 73.2383 45.0104 73.0807 45.082 72.9375C45.5833 71.9922 46.056 70.7174 46.5 69.1133L51.1836 52.3125C51.2982 51.7539 51.4199 51.2025 51.5488 50.6582C51.6777 50.0996 51.7422 49.5625 51.7422 49.0469C51.7422 48.832 51.5417 48.6387 51.1406 48.4668C50.7396 48.2949 50.3027 48.1589 49.8301 48.0586C49.3717 47.944 49.0352 47.8867 48.8203 47.8867C48.763 47.8867 48.7344 47.7865 48.7344 47.5859C48.7344 47.1133 48.8203 46.8268 48.9922 46.7266C50.0521 46.7552 50.9186 46.7767 51.5918 46.791C52.265 46.8053 52.7448 46.8125 53.0312 46.8125C53.8477 46.8125 54.5924 46.8053 55.2656 46.791C55.9531 46.7767 56.569 46.7552 57.1133 46.7266C57.2422 47.901 57.5788 50.2643 58.123 53.8164C58.6673 57.3542 59.4193 62.0807 60.3789 67.9961C60.3789 68.0247 60.3932 68.0391 60.4219 68.0391C60.5078 68.0391 60.5508 68.0104 60.5508 67.9531ZM84.1406 56.3086C84.599 56.3086 84.957 56.5163 85.2148 56.9316C85.4727 57.347 85.6016 57.8841 85.6016 58.543C85.6016 59.3021 85.5156 60.0612 85.3438 60.8203L83.8398 67.9102C83.6393 68.7839 83.5391 69.5573 83.5391 70.2305C83.5391 71.4622 83.8112 72.0781 84.3555 72.0781C84.6706 72.0781 85.0573 71.8991 85.5156 71.541C85.9883 71.1829 86.4753 70.7246 86.9766 70.166C87.4922 69.6074 87.972 69.0345 88.416 68.4473C89.2324 67.373 90.0059 66.0625 90.7363 64.5156C91.4668 62.9688 91.9753 61.4362 92.2617 59.918L92.9922 56.5664C93.3789 56.4518 93.8229 56.3945 94.3242 56.3945C94.8112 56.3945 95.2982 56.4518 95.7852 56.5664L93.1211 70.4453C93.0352 70.7891 92.9922 71.1471 92.9922 71.5195C92.9922 72.2357 93.1354 72.5938 93.4219 72.5938C93.7799 72.5938 94.2096 72.3431 94.7109 71.8418C95.2122 71.3262 95.6419 70.8893 96 70.5312L96.2578 70.2305C96.3151 70.2305 96.4225 70.3665 96.5801 70.6387C96.7376 70.9108 96.8164 71.1042 96.8164 71.2188C96.5729 71.6341 96.1289 72.1641 95.4844 72.8086C94.8542 73.4531 94.1667 74.026 93.4219 74.5273C92.6771 75.0143 92.0039 75.2578 91.4023 75.2578C90.944 75.2578 90.5859 75.0501 90.3281 74.6348C90.0703 74.2194 89.9414 73.6823 89.9414 73.0234C89.9414 72.5938 90.0417 71.8346 90.2422 70.7461L91.0156 66.793C90.7435 67.3086 90.1562 68.1966 89.2539 69.457C88.6667 70.2734 87.9577 71.1328 87.127 72.0352C86.3105 72.9375 85.4941 73.7038 84.6777 74.334C83.8613 74.9499 83.1667 75.2578 82.5938 75.2578C81.1615 75.2578 80.4453 74.3125 80.4453 72.4219C80.4453 71.0755 80.6458 69.5143 81.0469 67.7383L82.3359 61.7656C82.4792 60.7773 82.5508 60.2044 82.5508 60.0469C82.5508 59.3307 82.4076 58.9727 82.1211 58.9727C81.8776 58.9727 81.5124 59.2018 81.0254 59.6602C80.7962 59.8893 80.5456 60.14 80.2734 60.4121C80.0156 60.6842 79.8438 60.8776 79.7578 60.9922C79.7005 60.9922 79.5931 60.8561 79.4355 60.584C79.278 60.3118 79.1992 60.1185 79.1992 60.0039C79.4284 59.6172 79.8438 59.1374 80.4453 58.5645C81.0469 57.9772 81.6914 57.4544 82.3789 56.9961C83.0664 56.5378 83.6536 56.3086 84.1406 56.3086ZM107.344 47.2422C107.773 47.2422 108.139 47.4141 108.439 47.7578C108.74 48.1016 108.891 48.5026 108.891 48.9609C108.891 49.6484 108.669 50.25 108.225 50.7656C107.781 51.2812 107.229 51.5391 106.57 51.5391C106.112 51.5391 105.754 51.36 105.496 51.002C105.238 50.6439 105.109 50.207 105.109 49.6914C105.109 49.0326 105.324 48.4596 105.754 47.9727C106.184 47.4857 106.714 47.2422 107.344 47.2422ZM106.098 56.3086C106.556 56.3086 106.914 56.5163 107.172 56.9316C107.43 57.347 107.559 57.8841 107.559 58.543C107.559 59.1159 107.473 59.875 107.301 60.8203L104.938 73.0664C104.336 76.1745 103.391 78.5951 102.102 80.3281C101.299 81.4167 100.326 82.3978 99.1797 83.2715C98.0339 84.1452 97.0169 84.7539 96.1289 85.0977C95.8711 84.8971 95.7422 84.6107 95.7422 84.2383C97.1745 83.4076 98.4349 82.097 99.5234 80.3066C100.612 78.5163 101.385 76.4323 101.844 74.0547L104.293 61.7656C104.436 60.7773 104.508 60.2044 104.508 60.0469C104.508 59.3307 104.365 58.9727 104.078 58.9727C103.835 58.9727 103.469 59.2018 102.982 59.6602C102.753 59.8893 102.503 60.14 102.23 60.4121C101.973 60.6842 101.801 60.8776 101.715 60.9922C101.658 60.9922 101.55 60.8561 101.393 60.584C101.235 60.3118 101.156 60.1185 101.156 60.0039C101.385 59.6172 101.801 59.1374 102.402 58.5645C103.004 57.9772 103.648 57.4544 104.336 56.9961C105.023 56.5378 105.611 56.3086 106.098 56.3086ZM121.094 56.3086C122.784 56.3086 124.094 56.8958 125.025 58.0703C125.956 59.2448 126.422 60.8633 126.422 62.9258C126.422 64.401 126.135 65.8691 125.562 67.3301C124.99 68.7767 124.238 70.0944 123.307 71.2832C122.376 72.472 121.352 73.4245 120.234 74.1406C119.117 74.8568 118.014 75.2148 116.926 75.2148C115.207 75.2148 113.896 74.6562 112.994 73.5391C112.092 72.4219 111.641 70.832 111.641 68.7695C111.641 67.2799 111.92 65.8047 112.479 64.3438C113.051 62.8685 113.803 61.5293 114.734 60.3262C115.665 59.1087 116.682 58.1348 117.785 57.4043C118.902 56.6738 120.005 56.3086 121.094 56.3086ZM120.578 58.0703C119.862 58.0703 119.167 58.3854 118.494 59.0156C117.821 59.6315 117.212 60.4408 116.668 61.4434C116.124 62.446 115.694 63.5417 115.379 64.7305C115.064 65.9193 114.906 67.0794 114.906 68.2109C114.906 69.8724 115.171 71.1615 115.701 72.0781C116.231 72.9948 116.897 73.4531 117.699 73.4531C118.415 73.4531 119.096 73.1452 119.74 72.5293C120.399 71.8991 120.986 71.0827 121.502 70.0801C122.018 69.0632 122.419 67.9603 122.705 66.7715C123.006 65.5827 123.156 64.4154 123.156 63.2695C123.156 61.5794 122.927 60.2904 122.469 59.4023C122.01 58.5143 121.38 58.0703 120.578 58.0703ZM147.047 46.3828L146.402 49.6055L142.363 70.4453C142.277 70.7891 142.234 71.1471 142.234 71.5195C142.234 72.2357 142.378 72.5938 142.664 72.5938C143.022 72.5938 143.452 72.3431 143.953 71.8418C144.454 71.3262 144.884 70.8893 145.242 70.5312L145.5 70.2305C145.557 70.2305 145.665 70.3665 145.822 70.6387C145.98 70.9108 146.059 71.1042 146.059 71.2188C145.815 71.6341 145.371 72.1641 144.727 72.8086C144.096 73.4531 143.409 74.026 142.664 74.5273C141.919 75.0143 141.246 75.2578 140.645 75.2578C140.186 75.2578 139.828 75.0501 139.57 74.6348C139.312 74.2194 139.184 73.6823 139.184 73.0234C139.184 72.5938 139.284 71.8346 139.484 70.7461C139.513 70.6029 139.563 70.388 139.635 70.1016C139.706 69.8151 139.742 69.6432 139.742 69.5859C139.556 69.9154 139.348 70.252 139.119 70.5957C138.904 70.9395 138.675 71.2904 138.432 71.6484C138.102 72.1354 137.658 72.6582 137.1 73.2168C136.555 73.7611 135.975 74.2337 135.359 74.6348C134.758 75.0215 134.199 75.2148 133.684 75.2148C132.366 75.2148 131.349 74.6491 130.633 73.5176C129.917 72.3861 129.559 71.0182 129.559 69.4141C129.559 67.8672 129.917 66.3203 130.633 64.7734C131.363 63.2266 132.323 61.8158 133.512 60.541C134.701 59.2663 136.011 58.2422 137.443 57.4688C138.89 56.6953 140.329 56.3086 141.762 56.3086H142.32L143.523 49.9062C143.609 49.4909 143.652 49.0898 143.652 48.7031C143.652 48.1589 142.779 47.8867 141.031 47.8867C140.945 47.8867 140.902 47.8008 140.902 47.6289C140.902 47.2852 141.017 46.9987 141.246 46.7695C143.194 46.5977 145.042 46.1966 146.789 45.5664C146.961 45.6667 147.047 45.9388 147.047 46.3828ZM140.945 63.1406L141.461 60.3477C141.576 59.8034 141.518 59.3236 141.289 58.9082C141.06 58.4928 140.673 58.2852 140.129 58.2852C139.255 58.2852 138.382 58.5859 137.508 59.1875C136.634 59.7891 135.839 60.5911 135.123 61.5938C134.407 62.582 133.827 63.6849 133.383 64.9023C132.953 66.1055 132.738 67.3229 132.738 68.5547C132.738 71.3333 133.469 72.7227 134.93 72.7227C135.46 72.7227 136.025 72.4362 136.627 71.8633C137.243 71.276 137.837 70.5098 138.41 69.5645C138.983 68.6191 139.492 67.5879 139.936 66.4707C140.394 65.3392 140.73 64.2292 140.945 63.1406ZM161.398 56.3086C162.458 56.3086 163.504 56.4948 164.535 56.8672L161.914 70.4453C161.828 70.7891 161.785 71.1471 161.785 71.5195C161.785 72.2357 161.928 72.5938 162.215 72.5938C162.573 72.5938 163.003 72.3431 163.504 71.8418C164.005 71.3262 164.435 70.8893 164.793 70.5312L165.051 70.2305C165.108 70.2305 165.215 70.3665 165.373 70.6387C165.531 70.9108 165.609 71.1042 165.609 71.2188C165.366 71.6341 164.922 72.1641 164.277 72.8086C163.647 73.4531 162.96 74.026 162.215 74.5273C161.47 75.0143 160.797 75.2578 160.195 75.2578C159.737 75.2578 159.379 75.0501 159.121 74.6348C158.863 74.2194 158.734 73.6823 158.734 73.0234C158.734 72.5794 158.835 71.8203 159.035 70.7461L159.186 69.9941C159.229 69.7936 159.25 69.6719 159.25 69.6289C159.021 70.0586 158.691 70.5885 158.262 71.2188C157.832 71.8346 157.338 72.4505 156.779 73.0664C156.221 73.6823 155.633 74.1979 155.018 74.6133C154.402 75.0143 153.793 75.2148 153.191 75.2148C151.931 75.2148 150.936 74.6491 150.205 73.5176C149.475 72.3861 149.109 71.0182 149.109 69.4141C149.109 67.3659 149.718 65.3249 150.936 63.291C151.752 61.916 152.726 60.7057 153.857 59.6602C155.003 58.6146 156.228 57.7982 157.531 57.2109C158.835 56.6094 160.124 56.3086 161.398 56.3086ZM159.594 58.2852C158.749 58.2852 157.896 58.5859 157.037 59.1875C156.178 59.7747 155.39 60.5697 154.674 61.5723C153.958 62.5605 153.378 63.6634 152.934 64.8809C152.504 66.084 152.289 67.2943 152.289 68.5117C152.289 71.319 153.02 72.7227 154.48 72.7227C154.996 72.7227 155.555 72.4362 156.156 71.8633C156.758 71.2904 157.352 70.5312 157.939 69.5859C158.527 68.6406 159.042 67.6165 159.486 66.5137C159.945 65.3965 160.281 64.3008 160.496 63.2266L161.355 58.8438C161.012 58.4714 160.424 58.2852 159.594 58.2852ZM169.219 70.7461L173.258 49.9062C173.344 49.4766 173.387 49.0755 173.387 48.7031C173.387 48.1589 172.513 47.8867 170.766 47.8867C170.68 47.8867 170.637 47.8008 170.637 47.6289C170.637 47.2852 170.751 46.9987 170.98 46.7695C172.9 46.5977 174.733 46.1966 176.48 45.5664C176.652 45.6523 176.738 45.9245 176.738 46.3828C176.738 46.6979 176.552 47.7721 176.18 49.6055L172.098 70.4453C172.012 70.7891 171.969 71.1471 171.969 71.5195C171.969 72.2357 172.112 72.5938 172.398 72.5938C172.57 72.5938 172.778 72.515 173.021 72.3574C173.265 72.1999 173.516 72.0065 173.773 71.7773C174.031 71.5482 174.325 71.2546 174.654 70.8965C174.984 70.5241 175.177 70.3021 175.234 70.2305C175.32 70.2305 175.435 70.3665 175.578 70.6387C175.721 70.9108 175.793 71.1042 175.793 71.2188C175.549 71.6341 175.105 72.1641 174.461 72.8086C173.831 73.4531 173.143 74.026 172.398 74.5273C171.654 75.0143 170.98 75.2578 170.379 75.2578C169.949 75.2578 169.598 75.0501 169.326 74.6348C169.054 74.2194 168.918 73.6823 168.918 73.0234C168.918 72.5794 169.018 71.8203 169.219 70.7461ZM190.961 56.3086C192.021 56.3086 193.066 56.4948 194.098 56.8672L191.477 70.4453C191.391 70.7891 191.348 71.1471 191.348 71.5195C191.348 72.2357 191.491 72.5938 191.777 72.5938C192.135 72.5938 192.565 72.3431 193.066 71.8418C193.568 71.3262 193.997 70.8893 194.355 70.5312L194.613 70.2305C194.671 70.2305 194.778 70.3665 194.936 70.6387C195.093 70.9108 195.172 71.1042 195.172 71.2188C194.928 71.6341 194.484 72.1641 193.84 72.8086C193.21 73.4531 192.522 74.026 191.777 74.5273C191.033 75.0143 190.359 75.2578 189.758 75.2578C189.299 75.2578 188.941 75.0501 188.684 74.6348C188.426 74.2194 188.297 73.6823 188.297 73.0234C188.297 72.5794 188.397 71.8203 188.598 70.7461L188.748 69.9941C188.791 69.7936 188.812 69.6719 188.812 69.6289C188.583 70.0586 188.254 70.5885 187.824 71.2188C187.395 71.8346 186.9 72.4505 186.342 73.0664C185.783 73.6823 185.196 74.1979 184.58 74.6133C183.964 75.0143 183.355 75.2148 182.754 75.2148C181.493 75.2148 180.498 74.6491 179.768 73.5176C179.037 72.3861 178.672 71.0182 178.672 69.4141C178.672 67.3659 179.281 65.3249 180.498 63.291C181.314 61.916 182.288 60.7057 183.42 59.6602C184.566 58.6146 185.79 57.7982 187.094 57.2109C188.397 56.6094 189.686 56.3086 190.961 56.3086ZM189.156 58.2852C188.311 58.2852 187.459 58.5859 186.6 59.1875C185.74 59.7747 184.952 60.5697 184.236 61.5723C183.52 62.5605 182.94 63.6634 182.496 64.8809C182.066 66.084 181.852 67.2943 181.852 68.5117C181.852 71.319 182.582 72.7227 184.043 72.7227C184.559 72.7227 185.117 72.4362 185.719 71.8633C186.32 71.2904 186.915 70.5312 187.502 69.5859C188.089 68.6406 188.605 67.6165 189.049 66.5137C189.507 65.3965 189.844 64.3008 190.059 63.2266L190.918 58.8438C190.574 58.4714 189.987 58.2852 189.156 58.2852Z" fill="white"/>
<path d="M0 14.4961C6.30012 20.0984 15.0791 19.1979 30.687 15.1421C32.2497 14.736 33.9168 14.9601 35.3059 15.7832L61.0905 31.063L35.3304 19.6141C33.9205 18.9874 32.3183 18.9353 30.8588 19.4358C12.5496 25.7159 4.73674 24.7283 0 14.4961Z" fill="url(#paint8_radial_692_1762)"/>
<path d="M16.5669 25.8858C22.7094 27.5488 34.4861 19.1752 43.5027 24.2129C35.7991 20.3448 24.9274 34.7378 16.5669 25.8858Z" fill="url(#paint9_radial_692_1762)"/>
<path d="M42.4528 34.1693C40.4746 32.9379 39.8039 31.791 39.5364 30.2054C39.314 28.8871 40.2138 27.6374 41.514 27.3262C46.4064 26.1551 49.6595 27.3172 54.8779 31.063C50.3759 26.3362 46.8249 25.2844 39.6469 25.78C38.7972 25.8387 38.0191 26.2751 37.5081 26.9564L36.1669 28.7446C35.6047 29.4943 35.6307 30.5432 36.2784 31.2205C38.4425 33.4837 39.9798 34.1156 42.4528 34.1693Z" fill="url(#paint10_radial_692_1762)"/>
<path d="M61.0905 28.9921C48.8725 19.5072 53.131 18.6378 60.0551 10.3543C56.6285 8.93238 54.8937 8.83857 52.8071 12.4252C51.2879 8.29387 49.7783 6.42726 45.559 4.14173C43.8524 8.52031 44.6321 10.6991 46.5945 14.4961C42.9378 12.0347 40.7471 11.3823 36.2402 13.4606C46.3046 17.727 45.2926 18.8748 61.0905 28.9921Z" fill="url(#paint11_radial_692_1762)"/>
<path d="M78.6929 22.7441C78.6929 22.1918 79.1406 21.7441 79.6929 21.7441H79.7638C80.3161 21.7441 80.7638 22.1918 80.7638 22.7441V25.9213C80.7638 26.4735 80.3161 26.9213 79.7638 26.9213H74.4803C73.3757 26.9213 72.4803 26.0258 72.4803 24.9213V19.6024C72.4803 18.4978 73.3757 17.6024 74.4803 17.6024H78.7281C80.6137 17.6024 82.4755 18.023 84.178 18.8337V18.8337C85.2965 19.3663 86.1249 20.3629 86.4441 21.5599L88.3399 28.6695C89.2063 31.9182 86.6836 35.0788 83.3237 34.9544L68.0679 34.3894C64.7776 34.2675 62.2002 31.5169 62.2923 28.2256L62.6948 13.8426C62.7856 10.5955 65.4441 8.01038 68.6924 8.01038H83.0387C86.0229 8.01038 88.8896 9.21712 90.915 11.4088C101.807 23.194 109.097 33.3225 115.395 32.2299C115.685 32.1796 115.968 32.3916 115.968 32.686V32.686C115.968 32.9325 115.766 33.1318 115.519 33.1285C109.37 33.045 105.37 32.4313 87.653 13.254C86.5367 12.0456 85.0793 11.1983 83.4735 10.8414L77.8584 9.59364C77.0431 9.41248 76.199 9.4035 75.3801 9.56728L71.091 10.4251C68.2865 10.986 66.2677 13.4485 66.2677 16.3086V27.0984C66.2677 29.8599 68.5063 32.0984 71.2677 32.0984H80.9055C83.1146 32.0984 84.9055 30.3076 84.9055 28.0984V22.6378C84.9055 20.4287 83.1146 18.6378 80.9055 18.6378H76.5512C75.4466 18.6378 74.5512 19.5332 74.5512 20.6378V24.8858C74.5512 25.4381 74.9989 25.8858 75.5512 25.8858H77.6929C78.2452 25.8858 78.6929 25.4381 78.6929 24.8858V22.7441Z" fill="url(#paint12_radial_692_1762)"/>
<path d="M104.412 33.0631C96.4743 29.9513 88.3242 12.4066 78.6929 13.4606C91.6665 19.2326 92.9183 31.4785 104.412 33.0631Z" fill="url(#paint13_radial_692_1762)"/>
<path d="M111.827 30.0276C106.485 21.6827 106.361 16.9143 110.791 8.28346C105.363 9.71409 97.6256 19.5114 111.827 30.0276Z" fill="url(#paint14_radial_692_1762)"/>
<path d="M118.039 10.3543C113.102 14.0549 110.405 23.2793 118.039 32.0984C106.33 25.6888 109.793 12.7713 118.039 0V10.3543Z" fill="url(#paint15_radial_692_1762)"/>
<path d="M236.079 14.4961C229.778 20.0984 221 19.1979 205.392 15.1421C203.829 14.736 202.162 14.9601 200.773 15.7832L174.988 31.063L200.748 19.6141C202.158 18.9874 203.76 18.9353 205.22 19.4358C223.529 25.7159 231.342 24.7283 236.079 14.4961Z" fill="url(#paint16_radial_692_1762)"/>
<path d="M219.512 25.8858C213.369 27.5488 201.593 19.1752 192.576 24.2129C200.279 20.3448 211.151 34.7378 219.512 25.8858Z" fill="url(#paint17_radial_692_1762)"/>
<path d="M193.626 34.1693C195.604 32.9379 196.275 31.791 196.542 30.2054C196.765 28.8871 195.865 27.6374 194.565 27.3262C189.672 26.1551 186.419 27.3172 181.201 31.063C185.703 26.3362 189.254 25.2844 196.432 25.78C197.281 25.8387 198.06 26.2751 198.571 26.9564L199.912 28.7446C200.474 29.4943 200.448 30.5432 199.8 31.2205C197.636 33.4837 196.099 34.1156 193.626 34.1693Z" fill="url(#paint18_radial_692_1762)"/>
<path d="M174.988 28.9921C187.206 19.5072 182.948 18.6378 176.024 10.3543C179.45 8.93238 181.185 8.83857 183.272 12.4252C184.791 8.29387 186.3 6.42726 190.52 4.14173C192.226 8.52031 191.446 10.6991 189.484 14.4961C193.141 12.0347 195.331 11.3823 199.838 13.4606C189.774 17.727 190.786 18.8748 174.988 28.9921Z" fill="url(#paint19_radial_692_1762)"/>
<path d="M157.386 22.7441C157.386 22.1918 156.938 21.7441 156.386 21.7441H156.315C155.763 21.7441 155.315 22.1918 155.315 22.7441V25.9213C155.315 26.4735 155.763 26.9213 156.315 26.9213H161.598C162.703 26.9213 163.598 26.0258 163.598 24.9213V19.6024C163.598 18.4978 162.703 17.6024 161.598 17.6024H157.351C155.465 17.6024 153.603 18.023 151.901 18.8337V18.8337C150.782 19.3663 149.954 20.3629 149.635 21.5599L147.739 28.6695C146.872 31.9182 149.395 35.0788 152.755 34.9544L168.011 34.3894C171.301 34.2675 173.878 31.5169 173.786 28.2256L173.384 13.8426C173.293 10.5955 170.635 8.01038 167.386 8.01038H153.04C150.056 8.01038 147.189 9.21712 145.164 11.4088C134.272 23.194 126.982 33.3225 120.683 32.2299C120.393 32.1796 120.11 32.3916 120.11 32.686V32.686C120.11 32.9325 120.313 33.1318 120.559 33.1285C126.708 33.045 130.709 32.4313 148.426 13.254C149.542 12.0456 150.999 11.1983 152.605 10.8414L158.22 9.59364C159.035 9.41248 159.88 9.4035 160.698 9.56728L164.988 10.4251C167.792 10.986 169.811 13.4485 169.811 16.3086V27.0984C169.811 29.8599 167.572 32.0984 164.811 32.0984H155.173C152.964 32.0984 151.173 30.3076 151.173 28.0984V22.6378C151.173 20.4287 152.964 18.6378 155.173 18.6378H159.527C160.632 18.6378 161.527 19.5332 161.527 20.6378V24.8858C161.527 25.4381 161.08 25.8858 160.527 25.8858H158.386C157.833 25.8858 157.386 25.4381 157.386 24.8858V22.7441Z" fill="url(#paint20_radial_692_1762)"/>
<path d="M131.666 33.0631C139.604 29.9513 147.754 12.4066 157.386 13.4606C144.412 19.2326 143.16 31.4785 131.666 33.0631Z" fill="url(#paint21_radial_692_1762)"/>
<path d="M124.252 30.0276C129.594 21.6827 129.718 16.9143 125.287 8.28346C130.716 9.71409 138.453 19.5114 124.252 30.0276Z" fill="url(#paint22_radial_692_1762)"/>
<path d="M118.039 10.3543C122.976 14.0549 125.673 23.2793 118.039 32.0984C129.749 25.6888 126.286 12.7713 118.039 0V10.3543Z" fill="url(#paint23_radial_692_1762)"/>
<defs>
<radialGradient id="paint0_radial_692_1762" cx="0" cy="0" r="1" gradientUnits="userSpaceOnUse" gradientTransform="translate(79.7285 111.309) scale(38.311 20.1909)">
<stop stop-color="#E1E1E1"/>
<stop offset="1" stop-color="#FFF4DA"/>
</radialGradient>
<radialGradient id="paint1_radial_692_1762" cx="0" cy="0" r="1" gradientUnits="userSpaceOnUse" gradientTransform="translate(79.7285 111.309) scale(38.311 20.1909)">
<stop stop-color="#E1E1E1"/>
<stop offset="1" stop-color="#FFF4DA"/>
</radialGradient>
<radialGradient id="paint2_radial_692_1762" cx="0" cy="0" r="1" gradientUnits="userSpaceOnUse" gradientTransform="translate(79.7285 111.309) scale(38.311 20.1909)">
<stop stop-color="#E1E1E1"/>
<stop offset="1" stop-color="#FFF4DA"/>
</radialGradient>
<radialGradient id="paint3_radial_692_1762" cx="0" cy="0" r="1" gradientUnits="userSpaceOnUse" gradientTransform="translate(79.7285 111.309) scale(38.311 20.1909)">
<stop stop-color="#E1E1E1"/>
<stop offset="1" stop-color="#FFF4DA"/>
</radialGradient>
<radialGradient id="paint4_radial_692_1762" cx="0" cy="0" r="1" gradientUnits="userSpaceOnUse" gradientTransform="translate(156.351 111.309) rotate(180) scale(38.311 20.1909)">
<stop stop-color="#E1E1E1"/>
<stop offset="1" stop-color="#FFF4DA"/>
</radialGradient>
<radialGradient id="paint5_radial_692_1762" cx="0" cy="0" r="1" gradientUnits="userSpaceOnUse" gradientTransform="translate(156.351 111.309) rotate(180) scale(38.311 20.1909)">
<stop stop-color="#E1E1E1"/>
<stop offset="1" stop-color="#FFF4DA"/>
</radialGradient>
<radialGradient id="paint6_radial_692_1762" cx="0" cy="0" r="1" gradientUnits="userSpaceOnUse" gradientTransform="translate(156.351 111.309) rotate(180) scale(38.311 20.1909)">
<stop stop-color="#E1E1E1"/>
<stop offset="1" stop-color="#FFF4DA"/>
</radialGradient>
<radialGradient id="paint7_radial_692_1762" cx="0" cy="0" r="1" gradientUnits="userSpaceOnUse" gradientTransform="translate(156.351 111.309) rotate(180) scale(38.311 20.1909)">
<stop stop-color="#E1E1E1"/>
<stop offset="1" stop-color="#FFF4DA"/>
</radialGradient>
<radialGradient id="paint8_radial_692_1762" cx="0" cy="0" r="1" gradientUnits="userSpaceOnUse" gradientTransform="translate(59.0197 17.6024) scale(59.0197 17.6024)">
<stop stop-color="#E1E1E1"/>
<stop offset="1" stop-color="#FFF4DA"/>
</radialGradient>
<radialGradient id="paint9_radial_692_1762" cx="0" cy="0" r="1" gradientUnits="userSpaceOnUse" gradientTransform="translate(59.0197 17.6024) scale(59.0197 17.6024)">
<stop stop-color="#E1E1E1"/>
<stop offset="1" stop-color="#FFF4DA"/>
</radialGradient>
<radialGradient id="paint10_radial_692_1762" cx="0" cy="0" r="1" gradientUnits="userSpaceOnUse" gradientTransform="translate(59.0197 17.6024) scale(59.0197 17.6024)">
<stop stop-color="#E1E1E1"/>
<stop offset="1" stop-color="#FFF4DA"/>
</radialGradient>
<radialGradient id="paint11_radial_692_1762" cx="0" cy="0" r="1" gradientUnits="userSpaceOnUse" gradientTransform="translate(59.0197 17.6024) scale(59.0197 17.6024)">
<stop stop-color="#E1E1E1"/>
<stop offset="1" stop-color="#FFF4DA"/>
</radialGradient>
<radialGradient id="paint12_radial_692_1762" cx="0" cy="0" r="1" gradientUnits="userSpaceOnUse" gradientTransform="translate(59.0197 17.6024) scale(59.0197 17.6024)">
<stop stop-color="#E1E1E1"/>
<stop offset="1" stop-color="#FFF4DA"/>
</radialGradient>
<radialGradient id="paint13_radial_692_1762" cx="0" cy="0" r="1" gradientUnits="userSpaceOnUse" gradientTransform="translate(59.0197 17.6024) scale(59.0197 17.6024)">
<stop stop-color="#E1E1E1"/>
<stop offset="1" stop-color="#FFF4DA"/>
</radialGradient>
<radialGradient id="paint14_radial_692_1762" cx="0" cy="0" r="1" gradientUnits="userSpaceOnUse" gradientTransform="translate(59.0197 17.6024) scale(59.0197 17.6024)">
<stop stop-color="#E1E1E1"/>
<stop offset="1" stop-color="#FFF4DA"/>
</radialGradient>
<radialGradient id="paint15_radial_692_1762" cx="0" cy="0" r="1" gradientUnits="userSpaceOnUse" gradientTransform="translate(59.0197 17.6024) scale(59.0197 17.6024)">
<stop stop-color="#E1E1E1"/>
<stop offset="1" stop-color="#FFF4DA"/>
</radialGradient>
<radialGradient id="paint16_radial_692_1762" cx="0" cy="0" r="1" gradientUnits="userSpaceOnUse" gradientTransform="translate(177.059 17.6024) rotate(180) scale(59.0197 17.6024)">
<stop stop-color="#E1E1E1"/>
<stop offset="1" stop-color="#FFF4DA"/>
</radialGradient>
<radialGradient id="paint17_radial_692_1762" cx="0" cy="0" r="1" gradientUnits="userSpaceOnUse" gradientTransform="translate(177.059 17.6024) rotate(180) scale(59.0197 17.6024)">
<stop stop-color="#E1E1E1"/>
<stop offset="1" stop-color="#FFF4DA"/>
</radialGradient>
<radialGradient id="paint18_radial_692_1762" cx="0" cy="0" r="1" gradientUnits="userSpaceOnUse" gradientTransform="translate(177.059 17.6024) rotate(180) scale(59.0197 17.6024)">
<stop stop-color="#E1E1E1"/>
<stop offset="1" stop-color="#FFF4DA"/>
</radialGradient>
<radialGradient id="paint19_radial_692_1762" cx="0" cy="0" r="1" gradientUnits="userSpaceOnUse" gradientTransform="translate(177.059 17.6024) rotate(180) scale(59.0197 17.6024)">
<stop stop-color="#E1E1E1"/>
<stop offset="1" stop-color="#FFF4DA"/>
</radialGradient>
<radialGradient id="paint20_radial_692_1762" cx="0" cy="0" r="1" gradientUnits="userSpaceOnUse" gradientTransform="translate(177.059 17.6024) rotate(180) scale(59.0197 17.6024)">
<stop stop-color="#E1E1E1"/>
<stop offset="1" stop-color="#FFF4DA"/>
</radialGradient>
<radialGradient id="paint21_radial_692_1762" cx="0" cy="0" r="1" gradientUnits="userSpaceOnUse" gradientTransform="translate(177.059 17.6024) rotate(180) scale(59.0197 17.6024)">
<stop stop-color="#E1E1E1"/>
<stop offset="1" stop-color="#FFF4DA"/>
</radialGradient>
<radialGradient id="paint22_radial_692_1762" cx="0" cy="0" r="1" gradientUnits="userSpaceOnUse" gradientTransform="translate(177.059 17.6024) rotate(180) scale(59.0197 17.6024)">
<stop stop-color="#E1E1E1"/>
<stop offset="1" stop-color="#FFF4DA"/>
</radialGradient>
<radialGradient id="paint23_radial_692_1762" cx="0" cy="0" r="1" gradientUnits="userSpaceOnUse" gradientTransform="translate(177.059 17.6024) rotate(180) scale(59.0197 17.6024)">
<stop stop-color="#E1E1E1"/>
<stop offset="1" stop-color="#FFF4DA"/>
</radialGradient>
</defs>
</svg>
