<svg width="237" height="132" viewBox="0 0 237 132" fill="none" xmlns="http://www.w3.org/2000/svg">
<path d="M50.713 108.06C49.3894 108.487 47.9219 108.504 46.7174 107.809C44.5799 106.575 44.1417 105.154 44.5239 102.508V102.508C42.8803 103.056 42.0634 104.953 43.0344 106.388C43.9981 107.812 45.0942 108.974 46.6272 110.246C47.9176 111.316 49.57 111.855 51.2463 111.812C56.4411 111.679 59.0354 110.851 62.1261 108.72C61.1055 110.641 61.1623 111.76 61.9889 113.6C62.061 113.76 62.2573 113.822 62.4081 113.731C64.083 112.73 65.0044 111.892 66.2679 109.756C66.2159 114.032 66.9848 113.977 70.4096 114.933C67.5199 110.86 68.053 109.221 70.1985 106.254C70.9963 105.151 72.1264 104.331 73.4058 103.866L78.5781 101.985C81.3347 100.982 84.3491 100.942 87.1317 101.869L104.174 107.55C104.308 107.435 104.443 107.326 104.579 107.223V104.508C104.579 103.403 105.474 102.508 106.579 102.508H108.791C109.896 102.508 110.791 103.403 110.791 104.508V105.614H111.827V103.472C111.827 102.368 110.931 101.472 109.827 101.472H105.543C104.439 101.472 103.543 102.368 103.543 103.472V106.65C98.7741 103.748 93.5326 101.584 86.7262 99.7769C82.8461 98.747 78.7539 99.0145 74.9333 100.247L50.713 108.06Z" fill="url(#paint0_radial_692_1962)"/>
<path fill-rule="evenodd" clip-rule="evenodd" d="M118.04 111.827V108.721C115.458 105.74 114.164 105.799 111.827 105.614H110.791C108.063 105.589 106.223 105.979 104.579 107.223V107.685L104.174 107.55C103.27 108.327 102.41 109.382 101.473 110.791C94.423 108.167 92.2423 105.859 84.6309 104.117C82.7932 103.696 80.8384 103.854 79.1738 104.739C77.1411 105.82 75.7483 107.075 74.4009 109.235C73.7981 110.201 73.7054 111.42 74.2151 112.438C75.05 114.107 76.2503 115.417 79.1381 117.128C80.1191 117.709 81.351 117.62 82.2789 116.957L86.2804 114.099C87.2189 113.429 87.4133 112.09 86.6216 111.251C84.8307 109.354 83.7232 109.09 81.7994 109.756C83.0247 110.067 83.7478 110.456 84.3965 111.688C84.7601 112.378 84.5523 113.216 84.0005 113.767L82.2759 115.492C81.3711 116.397 79.9668 116.664 78.906 115.948C77.392 114.927 76.4786 113.802 75.488 112.283C74.8942 111.372 74.8544 110.185 75.4804 109.296C77.1885 106.871 79.0768 106.022 82.8348 105.614C87.5143 105.758 93.9739 109.592 101.473 112.862C101.611 115.305 101.827 117.608 105.431 119.531C106.15 119.915 107.027 119.733 107.604 119.156L110.252 116.508C110.55 116.21 110.55 115.727 110.252 115.429V115.429C109.972 115.149 109.522 115.134 109.211 115.381C104.883 118.812 103.35 117.017 102.508 112.862C108.785 113.743 111.601 112.063 112.862 106.65H114.933L118.04 111.827ZM102.508 111.827C105.324 107.593 107.417 106.549 111.827 106.65C109.582 111.782 107.624 113.001 102.508 111.827Z" fill="url(#paint1_radial_692_1962)"/>
<path d="M118.04 114.933V111.827C116.112 115.763 116.189 118.074 110.791 119.075C111.96 121.038 112.806 121.636 114.933 121.146C115.325 125.201 115.718 127.472 118.04 131.5V125.287C116.703 121.107 116.953 118.865 118.04 114.933Z" fill="url(#paint2_radial_692_1962)"/>
<path d="M115.969 98.3662C116.06 94.792 116.696 93.3936 118.04 91.1182V105.614C115.723 100.811 114.342 99.4138 111.827 99.4015C113.365 97.8121 114.277 97.3638 115.969 98.3662Z" fill="url(#paint3_radial_692_1962)"/>
<path d="M185.366 108.06C186.69 108.487 188.157 108.504 189.362 107.809C191.499 106.575 191.937 105.154 191.555 102.508V102.508C193.199 103.056 194.016 104.953 193.045 106.388C192.081 107.812 190.985 108.974 189.452 110.246C188.161 111.316 186.509 111.855 184.833 111.812C179.638 111.679 177.044 110.851 173.953 108.72C174.974 110.641 174.917 111.76 174.09 113.6C174.018 113.76 173.822 113.822 173.671 113.731C171.996 112.73 171.075 111.892 169.811 109.756C169.863 114.032 169.094 113.977 165.669 114.933C168.559 110.86 168.026 109.221 165.881 106.254C165.083 105.151 163.953 104.331 162.673 103.866L157.501 101.985C154.744 100.982 151.73 100.942 148.947 101.869L131.905 107.55C131.771 107.435 131.636 107.326 131.5 107.223V104.508C131.5 103.403 130.605 102.508 129.5 102.508H127.288C126.183 102.508 125.288 103.403 125.288 104.508V105.614H124.252V103.472C124.252 102.368 125.148 101.472 126.252 101.472H130.536C131.64 101.472 132.536 102.368 132.536 103.472V106.65C137.305 103.748 142.547 101.584 149.353 99.7769C153.233 98.747 157.325 99.0145 161.146 100.247L185.366 108.06Z" fill="url(#paint4_radial_692_1962)"/>
<path fill-rule="evenodd" clip-rule="evenodd" d="M118.04 111.827V108.721C120.621 105.74 121.915 105.799 124.252 105.614H125.288C128.016 105.589 129.856 105.979 131.5 107.223V107.685L131.905 107.55C132.809 108.327 133.669 109.382 134.607 110.791C141.656 108.167 143.837 105.859 151.448 104.117C153.286 103.696 155.241 103.854 156.905 104.739C158.938 105.82 160.331 107.075 161.678 109.235C162.281 110.201 162.374 111.42 161.864 112.438C161.029 114.107 159.829 115.417 156.941 117.128C155.96 117.709 154.728 117.62 153.8 116.957L149.799 114.099C148.86 113.429 148.666 112.09 149.457 111.251C151.248 109.354 152.356 109.09 154.28 109.756C153.054 110.067 152.331 110.456 151.683 111.688C151.319 112.378 151.527 113.216 152.079 113.767L153.803 115.492C154.708 116.397 156.112 116.664 157.173 115.948C158.687 114.927 159.601 113.802 160.591 112.283C161.185 111.372 161.225 110.185 160.599 109.296C158.891 106.871 157.002 106.022 153.244 105.614C148.565 105.758 142.105 109.592 134.607 112.862C134.468 115.305 134.252 117.608 130.648 119.531C129.929 119.915 129.052 119.733 128.475 119.156L125.827 116.508C125.529 116.21 125.529 115.727 125.827 115.429V115.429C126.107 115.149 126.557 115.134 126.868 115.381C131.196 118.812 132.729 117.017 133.571 112.862C127.294 113.743 124.479 112.063 123.217 106.65H121.146L118.04 111.827ZM133.571 111.827C130.755 107.593 128.662 106.549 124.252 106.65C126.497 111.782 128.455 113.001 133.571 111.827Z" fill="url(#paint5_radial_692_1962)"/>
<path d="M118.04 114.933V111.827C119.967 115.763 119.89 118.074 125.288 119.075C124.119 121.038 123.273 121.636 121.146 121.146C120.755 125.201 120.362 127.472 118.04 131.5V125.287C119.376 121.107 119.126 118.865 118.04 114.933Z" fill="url(#paint6_radial_692_1962)"/>
<path d="M120.11 98.3662C120.019 94.792 119.383 93.3936 118.04 91.1182V105.614C120.356 100.811 121.737 99.4138 124.252 99.4015C122.714 97.8121 121.802 97.3638 120.11 98.3662Z" fill="url(#paint7_radial_692_1962)"/>
<path d="M53.5508 67.9531L61.1992 52.5273L63.9062 46.7266C64.6797 46.8125 65.8112 46.8555 67.3008 46.8555C67.8021 46.8555 68.3607 46.8411 68.9766 46.8125C69.6068 46.7839 70.2943 46.7409 71.0391 46.6836C71.0964 46.8268 71.0964 47.0703 71.0391 47.4141C70.9818 47.7578 70.9102 47.9297 70.8242 47.9297C70.4518 47.9297 70.0579 48.0299 69.6426 48.2305C69.2272 48.431 68.9193 48.6745 68.7188 48.9609C68.4609 49.3047 68.2676 49.7201 68.1387 50.207C68.0241 50.651 67.888 51.5104 67.7305 52.7852L66.0547 69.1992C65.8828 70.6745 65.7969 71.806 65.7969 72.5938C65.7969 73.1953 66.0189 73.5749 66.4629 73.7324C66.7207 73.8184 67.0286 73.8828 67.3867 73.9258C67.7591 73.9544 68.0599 73.9688 68.2891 73.9688C68.3464 73.9688 68.375 74.0977 68.375 74.3555C68.375 74.6992 68.2891 74.957 68.1172 75.1289C66.7852 75.0573 65.7253 75.0072 64.9375 74.9785C64.1641 74.9355 63.6628 74.9141 63.4336 74.9141C63.3906 74.9141 62.9896 74.9355 62.2305 74.9785C61.4857 75.0072 60.3828 75.0573 58.9219 75.1289C58.8646 75.0286 58.8359 74.957 58.8359 74.9141C58.8359 74.7422 58.8717 74.5417 58.9434 74.3125C59.015 74.0833 59.0794 73.9688 59.1367 73.9688C59.3945 73.9688 59.7168 73.9401 60.1035 73.8828C60.5046 73.8112 60.877 73.7181 61.2207 73.6035C61.5645 73.4746 61.7721 73.3385 61.8438 73.1953C62.1302 72.5365 62.3307 71.9277 62.4453 71.3691C62.474 71.2116 62.5169 70.8678 62.5742 70.3379C62.6315 69.8079 62.6745 69.4714 62.7031 69.3281L64.4219 52.5703C64.5078 51.7109 64.5508 51.1523 64.5508 50.8945C64.5508 50.7227 64.4648 50.6367 64.293 50.6367C64.2786 50.6367 64.2357 50.694 64.1641 50.8086L52.9492 73.668C52.806 73.9258 52.5339 74.2266 52.1328 74.5703C51.7318 74.9141 51.3594 75.0859 51.0156 75.0859C50.8867 75.0859 50.7721 75.0573 50.6719 75L47.0195 50.6367C47.0052 50.5794 46.9766 50.5508 46.9336 50.5508C46.8477 50.5508 46.8047 50.5794 46.8047 50.6367L41.7773 69.1562C41.2331 71.1328 40.9609 72.3216 40.9609 72.7227C40.9609 72.9232 41.1686 73.1237 41.584 73.3242C42.0137 73.5104 42.4648 73.668 42.9375 73.7969C43.4245 73.9115 43.7396 73.9688 43.8828 73.9688C43.9401 73.9688 43.9688 74.0547 43.9688 74.2266C43.9688 74.556 43.8971 74.8568 43.7539 75.1289C42.4219 75.0573 41.3835 75.0072 40.6387 74.9785C39.8939 74.9355 39.4427 74.9141 39.2852 74.9141C39.2422 74.9141 38.8268 74.9355 38.0391 74.9785C37.2513 75.0072 36.0911 75.0573 34.5586 75.1289C34.5013 75.0716 34.4727 74.9284 34.4727 74.6992C34.4727 74.2122 34.5729 73.9688 34.7734 73.9688C35.0026 73.9688 35.3678 73.9186 35.8691 73.8184C36.3704 73.7038 36.8431 73.5677 37.2871 73.4102C37.7454 73.2383 38.0104 73.0807 38.082 72.9375C38.5833 71.9922 39.056 70.7174 39.5 69.1133L44.1836 52.3125C44.2982 51.7539 44.4199 51.2025 44.5488 50.6582C44.6777 50.0996 44.7422 49.5625 44.7422 49.0469C44.7422 48.832 44.5417 48.6387 44.1406 48.4668C43.7396 48.2949 43.3027 48.1589 42.8301 48.0586C42.3717 47.944 42.0352 47.8867 41.8203 47.8867C41.763 47.8867 41.7344 47.7865 41.7344 47.5859C41.7344 47.1133 41.8203 46.8268 41.9922 46.7266C43.0521 46.7552 43.9186 46.7767 44.5918 46.791C45.265 46.8053 45.7448 46.8125 46.0312 46.8125C46.8477 46.8125 47.5924 46.8053 48.2656 46.791C48.9531 46.7767 49.569 46.7552 50.1133 46.7266C50.2422 47.901 50.5788 50.2643 51.123 53.8164C51.6673 57.3542 52.4193 62.0807 53.3789 67.9961C53.3789 68.0247 53.3932 68.0391 53.4219 68.0391C53.5078 68.0391 53.5508 68.0104 53.5508 67.9531ZM77.1406 56.3086C77.599 56.3086 77.957 56.5163 78.2148 56.9316C78.4727 57.347 78.6016 57.8841 78.6016 58.543C78.6016 59.3021 78.5156 60.0612 78.3438 60.8203L76.8398 67.9102C76.6393 68.7839 76.5391 69.5573 76.5391 70.2305C76.5391 71.4622 76.8112 72.0781 77.3555 72.0781C77.6706 72.0781 78.0573 71.8991 78.5156 71.541C78.9883 71.1829 79.4753 70.7246 79.9766 70.166C80.4922 69.6074 80.972 69.0345 81.416 68.4473C82.2324 67.373 83.0059 66.0625 83.7363 64.5156C84.4668 62.9688 84.9753 61.4362 85.2617 59.918L85.9922 56.5664C86.3789 56.4518 86.8229 56.3945 87.3242 56.3945C87.8112 56.3945 88.2982 56.4518 88.7852 56.5664L86.1211 70.4453C86.0352 70.7891 85.9922 71.1471 85.9922 71.5195C85.9922 72.2357 86.1354 72.5938 86.4219 72.5938C86.7799 72.5938 87.2096 72.3431 87.7109 71.8418C88.2122 71.3262 88.6419 70.8893 89 70.5312L89.2578 70.2305C89.3151 70.2305 89.4225 70.3665 89.5801 70.6387C89.7376 70.9108 89.8164 71.1042 89.8164 71.2188C89.5729 71.6341 89.1289 72.1641 88.4844 72.8086C87.8542 73.4531 87.1667 74.026 86.4219 74.5273C85.6771 75.0143 85.0039 75.2578 84.4023 75.2578C83.944 75.2578 83.5859 75.0501 83.3281 74.6348C83.0703 74.2194 82.9414 73.6823 82.9414 73.0234C82.9414 72.5938 83.0417 71.8346 83.2422 70.7461L84.0156 66.793C83.7435 67.3086 83.1562 68.1966 82.2539 69.457C81.6667 70.2734 80.9577 71.1328 80.127 72.0352C79.3105 72.9375 78.4941 73.7038 77.6777 74.334C76.8613 74.9499 76.1667 75.2578 75.5938 75.2578C74.1615 75.2578 73.4453 74.3125 73.4453 72.4219C73.4453 71.0755 73.6458 69.5143 74.0469 67.7383L75.3359 61.7656C75.4792 60.7773 75.5508 60.2044 75.5508 60.0469C75.5508 59.3307 75.4076 58.9727 75.1211 58.9727C74.8776 58.9727 74.5124 59.2018 74.0254 59.6602C73.7962 59.8893 73.5456 60.14 73.2734 60.4121C73.0156 60.6842 72.8438 60.8776 72.7578 60.9922C72.7005 60.9922 72.5931 60.8561 72.4355 60.584C72.278 60.3118 72.1992 60.1185 72.1992 60.0039C72.4284 59.6172 72.8438 59.1374 73.4453 58.5645C74.0469 57.9772 74.6914 57.4544 75.3789 56.9961C76.0664 56.5378 76.6536 56.3086 77.1406 56.3086ZM93.6406 56.9531H96.6484L97.6797 51.7109C97.7656 51.4245 98.4674 51.2812 99.7852 51.2812C100.072 51.2812 100.329 51.2956 100.559 51.3242L99.4844 56.9531H103.395C103.538 56.9531 103.609 57.1393 103.609 57.5117C103.609 57.8411 103.48 58.2565 103.223 58.7578H99.1406L96.8633 70.4453C96.7773 70.7891 96.7344 71.1471 96.7344 71.5195C96.7344 72.2357 96.8776 72.5938 97.1641 72.5938C97.5221 72.5938 97.9518 72.3431 98.4531 71.8418C98.9544 71.3262 99.3841 70.8893 99.7422 70.5312L100 70.2305C100.057 70.2305 100.165 70.3665 100.322 70.6387C100.48 70.9108 100.559 71.1042 100.559 71.2188C100.315 71.6341 99.8711 72.1641 99.2266 72.8086C98.5964 73.4531 97.9089 74.026 97.1641 74.5273C96.4193 75.0143 95.7461 75.2578 95.1445 75.2578C94.6862 75.2578 94.3281 75.0501 94.0703 74.6348C93.8125 74.2194 93.6836 73.6823 93.6836 73.0234C93.6836 72.5938 93.7839 71.8346 93.9844 70.7461L96.3047 58.7578H93.2539C93.168 58.7578 93.125 58.6003 93.125 58.2852C93.125 57.9128 93.2969 57.4688 93.6406 56.9531ZM112.891 56.3086C114.581 56.3086 115.891 56.8958 116.822 58.0703C117.753 59.2448 118.219 60.8633 118.219 62.9258C118.219 64.401 117.932 65.8691 117.359 67.3301C116.786 68.7767 116.035 70.0944 115.104 71.2832C114.173 72.472 113.148 73.4245 112.031 74.1406C110.914 74.8568 109.811 75.2148 108.723 75.2148C107.004 75.2148 105.693 74.6562 104.791 73.5391C103.889 72.4219 103.438 70.832 103.438 68.7695C103.438 67.2799 103.717 65.8047 104.275 64.3438C104.848 62.8685 105.6 61.5293 106.531 60.3262C107.462 59.1087 108.479 58.1348 109.582 57.4043C110.699 56.6738 111.802 56.3086 112.891 56.3086ZM112.375 58.0703C111.659 58.0703 110.964 58.3854 110.291 59.0156C109.618 59.6315 109.009 60.4408 108.465 61.4434C107.921 62.446 107.491 63.5417 107.176 64.7305C106.861 65.9193 106.703 67.0794 106.703 68.2109C106.703 69.8724 106.968 71.1615 107.498 72.0781C108.028 72.9948 108.694 73.4531 109.496 73.4531C110.212 73.4531 110.893 73.1452 111.537 72.5293C112.196 71.8991 112.783 71.0827 113.299 70.0801C113.814 69.0632 114.215 67.9603 114.502 66.7715C114.803 65.5827 114.953 64.4154 114.953 63.2695C114.953 61.5794 114.724 60.2904 114.266 59.4023C113.807 58.5143 113.177 58.0703 112.375 58.0703ZM135.621 44.9648C137.454 44.9648 138.629 45.4518 139.145 46.4258C139.145 48.2878 138.629 49.2188 137.598 49.2188C137.139 49.2188 136.731 49.0039 136.373 48.5742C136.029 48.1302 135.678 47.6934 135.32 47.2637C134.977 46.8197 134.561 46.5977 134.074 46.5977C133.158 46.5977 132.184 47.5358 131.152 49.4121C130.135 51.2598 129.333 53.8737 128.746 57.2539V57.3398C128.746 57.4544 128.789 57.5117 128.875 57.5117H133.816C133.96 57.5117 134.031 57.6836 134.031 58.0273C134.031 58.5 133.874 58.987 133.559 59.4883H128.531C128.374 59.4883 128.288 59.6029 128.273 59.832L125.91 72.6797C125.223 76.6615 124.012 79.6979 122.279 81.7891C120.546 83.8802 118.663 84.9258 116.629 84.9258C115.626 84.9258 114.839 84.7467 114.266 84.3887C113.693 84.0306 113.32 83.6224 113.148 83.1641C113.12 82.5052 113.277 81.918 113.621 81.4023C113.965 80.8867 114.395 80.6289 114.91 80.6289C115.311 80.6289 115.662 80.8438 115.963 81.2734C116.249 81.7174 116.557 82.1543 116.887 82.584C117.202 83.028 117.603 83.25 118.09 83.25C118.663 83.25 119.2 82.9134 119.701 82.2402C120.217 81.5814 120.682 80.7578 121.098 79.7695C121.513 78.7812 121.857 77.793 122.129 76.8047C122.401 75.8164 122.587 75 122.688 74.3555L125.266 59.7891V59.7031C125.266 59.5599 125.223 59.4883 125.137 59.4883H122.344C122.286 59.4883 122.258 59.4453 122.258 59.3594C122.258 59.1875 122.365 58.9583 122.58 58.6719C122.795 58.3711 123.06 58.1061 123.375 57.877C123.704 57.6335 124.02 57.5117 124.32 57.5117H125.566C125.681 57.5117 125.767 57.3828 125.824 57.125C126.211 54.776 126.898 52.6849 127.887 50.8516C128.889 49.0182 130.064 47.5788 131.41 46.5332C132.771 45.4876 134.174 44.9648 135.621 44.9648ZM148.684 44.9648C150.517 44.9648 151.691 45.4518 152.207 46.4258C152.207 48.2878 151.691 49.2188 150.66 49.2188C150.202 49.2188 149.794 49.0039 149.436 48.5742C149.092 48.1302 148.741 47.6934 148.383 47.2637C148.039 46.8197 147.624 46.5977 147.137 46.5977C146.22 46.5977 145.246 47.5358 144.215 49.4121C143.198 51.2598 142.396 53.8737 141.809 57.2539V57.3398C141.809 57.4544 141.852 57.5117 141.938 57.5117H146.879C147.022 57.5117 147.094 57.6836 147.094 58.0273C147.094 58.5 146.936 58.987 146.621 59.4883H141.594C141.436 59.4883 141.35 59.6029 141.336 59.832L138.973 72.6797C138.285 76.6615 137.075 79.6979 135.342 81.7891C133.609 83.8802 131.725 84.9258 129.691 84.9258C128.689 84.9258 127.901 84.7467 127.328 84.3887C126.755 84.0306 126.383 83.6224 126.211 83.1641C126.182 82.5052 126.34 81.918 126.684 81.4023C127.027 80.8867 127.457 80.6289 127.973 80.6289C128.374 80.6289 128.725 80.8438 129.025 81.2734C129.312 81.7174 129.62 82.1543 129.949 82.584C130.264 83.028 130.665 83.25 131.152 83.25C131.725 83.25 132.262 82.9134 132.764 82.2402C133.279 81.5814 133.745 80.7578 134.16 79.7695C134.576 78.7812 134.919 77.793 135.191 76.8047C135.464 75.8164 135.65 75 135.75 74.3555L138.328 59.7891V59.7031C138.328 59.5599 138.285 59.4883 138.199 59.4883H135.406C135.349 59.4883 135.32 59.4453 135.32 59.3594C135.32 59.1875 135.428 58.9583 135.643 58.6719C135.857 58.3711 136.122 58.1061 136.438 57.877C136.767 57.6335 137.082 57.5117 137.383 57.5117H138.629C138.743 57.5117 138.829 57.3828 138.887 57.125C139.273 54.776 139.961 52.6849 140.949 50.8516C141.952 49.0182 143.126 47.5788 144.473 46.5332C145.833 45.4876 147.237 44.9648 148.684 44.9648ZM154.527 47.2422C154.957 47.2422 155.322 47.4141 155.623 47.7578C155.924 48.1016 156.074 48.5026 156.074 48.9609C156.074 49.6484 155.852 50.25 155.408 50.7656C154.964 51.2812 154.413 51.5391 153.754 51.5391C153.296 51.5391 152.938 51.36 152.68 51.002C152.422 50.6439 152.293 50.207 152.293 49.6914C152.293 49.0326 152.508 48.4596 152.938 47.9727C153.367 47.4857 153.897 47.2422 154.527 47.2422ZM153.281 56.3086C153.74 56.3086 154.098 56.5163 154.355 56.9316C154.613 57.347 154.742 57.8841 154.742 58.543C154.742 59.1302 154.656 59.8893 154.484 60.8203L152.594 70.4453C152.508 70.7891 152.465 71.1471 152.465 71.5195C152.465 72.2357 152.608 72.5938 152.895 72.5938C153.253 72.5938 153.682 72.3431 154.184 71.8418C154.685 71.3262 155.115 70.8893 155.473 70.5312L155.73 70.2305C155.788 70.2305 155.895 70.3665 156.053 70.6387C156.21 70.9108 156.289 71.1042 156.289 71.2188C156.046 71.6341 155.602 72.1641 154.957 72.8086C154.327 73.4531 153.639 74.026 152.895 74.5273C152.15 75.0143 151.477 75.2578 150.875 75.2578C150.417 75.2578 150.059 75.0501 149.801 74.6348C149.543 74.2194 149.414 73.6823 149.414 73.0234C149.414 72.5938 149.514 71.8346 149.715 70.7461L151.477 61.7656C151.62 60.9206 151.691 60.3477 151.691 60.0469C151.691 59.3307 151.548 58.9727 151.262 58.9727C151.09 58.9727 150.854 59.0872 150.553 59.3164C150.266 59.5456 149.987 59.8034 149.715 60.0898C149.443 60.362 149.242 60.5768 149.113 60.7344L148.898 60.9922C148.841 60.9922 148.734 60.8561 148.576 60.584C148.419 60.3118 148.34 60.1185 148.34 60.0039C148.569 59.6172 148.984 59.1374 149.586 58.5645C150.188 57.9772 150.832 57.4544 151.52 56.9961C152.207 56.5378 152.794 56.3086 153.281 56.3086ZM173.52 44.9648C175.353 44.9648 176.527 45.4518 177.043 46.4258C177.043 48.2878 176.527 49.2188 175.496 49.2188C175.038 49.2188 174.63 49.0039 174.271 48.5742C173.928 48.1302 173.577 47.6934 173.219 47.2637C172.875 46.8197 172.46 46.5977 171.973 46.5977C171.056 46.5977 170.082 47.5358 169.051 49.4121C168.034 51.2598 167.232 53.8737 166.645 57.2539V57.3398C166.645 57.4544 166.688 57.5117 166.773 57.5117H171.715C171.858 57.5117 171.93 57.6836 171.93 58.0273C171.93 58.5 171.772 58.987 171.457 59.4883H166.43C166.272 59.4883 166.186 59.6029 166.172 59.832L163.809 72.6797C163.121 76.6615 161.911 79.6979 160.178 81.7891C158.445 83.8802 156.561 84.9258 154.527 84.9258C153.525 84.9258 152.737 84.7467 152.164 84.3887C151.591 84.0306 151.219 83.6224 151.047 83.1641C151.018 82.5052 151.176 81.918 151.52 81.4023C151.863 80.8867 152.293 80.6289 152.809 80.6289C153.21 80.6289 153.561 80.8438 153.861 81.2734C154.148 81.7174 154.456 82.1543 154.785 82.584C155.1 83.028 155.501 83.25 155.988 83.25C156.561 83.25 157.098 82.9134 157.6 82.2402C158.115 81.5814 158.581 80.7578 158.996 79.7695C159.411 78.7812 159.755 77.793 160.027 76.8047C160.299 75.8164 160.486 75 160.586 74.3555L163.164 59.7891V59.7031C163.164 59.5599 163.121 59.4883 163.035 59.4883H160.242C160.185 59.4883 160.156 59.4453 160.156 59.3594C160.156 59.1875 160.264 58.9583 160.479 58.6719C160.693 58.3711 160.958 58.1061 161.273 57.877C161.603 57.6335 161.918 57.5117 162.219 57.5117H163.465C163.579 57.5117 163.665 57.3828 163.723 57.125C164.109 54.776 164.797 52.6849 165.785 50.8516C166.788 49.0182 167.962 47.5788 169.309 46.5332C170.669 45.4876 172.073 44.9648 173.52 44.9648ZM179.363 47.2422C179.793 47.2422 180.158 47.4141 180.459 47.7578C180.76 48.1016 180.91 48.5026 180.91 48.9609C180.91 49.6484 180.688 50.25 180.244 50.7656C179.8 51.2812 179.249 51.5391 178.59 51.5391C178.132 51.5391 177.773 51.36 177.516 51.002C177.258 50.6439 177.129 50.207 177.129 49.6914C177.129 49.0326 177.344 48.4596 177.773 47.9727C178.203 47.4857 178.733 47.2422 179.363 47.2422ZM178.117 56.3086C178.576 56.3086 178.934 56.5163 179.191 56.9316C179.449 57.347 179.578 57.8841 179.578 58.543C179.578 59.1302 179.492 59.8893 179.32 60.8203L177.43 70.4453C177.344 70.7891 177.301 71.1471 177.301 71.5195C177.301 72.2357 177.444 72.5938 177.73 72.5938C178.089 72.5938 178.518 72.3431 179.02 71.8418C179.521 71.3262 179.951 70.8893 180.309 70.5312L180.566 70.2305C180.624 70.2305 180.731 70.3665 180.889 70.6387C181.046 70.9108 181.125 71.1042 181.125 71.2188C180.882 71.6341 180.438 72.1641 179.793 72.8086C179.163 73.4531 178.475 74.026 177.73 74.5273C176.986 75.0143 176.312 75.2578 175.711 75.2578C175.253 75.2578 174.895 75.0501 174.637 74.6348C174.379 74.2194 174.25 73.6823 174.25 73.0234C174.25 72.5938 174.35 71.8346 174.551 70.7461L176.312 61.7656C176.456 60.9206 176.527 60.3477 176.527 60.0469C176.527 59.3307 176.384 58.9727 176.098 58.9727C175.926 58.9727 175.689 59.0872 175.389 59.3164C175.102 59.5456 174.823 59.8034 174.551 60.0898C174.279 60.362 174.078 60.5768 173.949 60.7344L173.734 60.9922C173.677 60.9922 173.57 60.8561 173.412 60.584C173.255 60.3118 173.176 60.1185 173.176 60.0039C173.405 59.6172 173.82 59.1374 174.422 58.5645C175.023 57.9772 175.668 57.4544 176.355 56.9961C177.043 56.5378 177.63 56.3086 178.117 56.3086ZM189.547 56.3086C190.005 56.3086 190.363 56.5163 190.621 56.9316C190.879 57.347 191.008 57.8841 191.008 58.543C191.008 59.1732 190.922 59.9323 190.75 60.8203L189.977 64.7734C190.249 64.2865 190.872 63.3984 191.846 62.1094C192.49 61.2643 193.235 60.3978 194.08 59.5098C194.939 58.6074 195.785 57.8483 196.615 57.2324C197.46 56.6165 198.169 56.3086 198.742 56.3086C200.174 56.3086 200.891 57.2539 200.891 59.1445C200.891 60.4766 200.69 62.0378 200.289 63.8281L198.871 70.4453C198.785 70.7891 198.742 71.1471 198.742 71.5195C198.742 72.2357 198.885 72.5938 199.172 72.5938C199.53 72.5938 199.96 72.3431 200.461 71.8418C200.962 71.3262 201.392 70.8893 201.75 70.5312L202.008 70.2305C202.065 70.2305 202.173 70.3665 202.33 70.6387C202.488 70.9108 202.566 71.1042 202.566 71.2188C202.323 71.6341 201.879 72.1641 201.234 72.8086C200.604 73.4531 199.917 74.026 199.172 74.5273C198.427 75.0143 197.754 75.2578 197.152 75.2578C196.694 75.2578 196.336 75.0501 196.078 74.6348C195.82 74.2194 195.691 73.6823 195.691 73.0234C195.691 72.5938 195.792 71.8346 195.992 70.7461L197.496 63.6562C197.697 62.6823 197.797 61.9089 197.797 61.3359C197.797 60.1042 197.525 59.4883 196.98 59.4883C196.508 59.4883 195.87 59.8464 195.068 60.5625C194.266 61.2643 193.428 62.2025 192.555 63.377C191.695 64.5514 190.915 65.862 190.213 67.3086C189.511 68.7409 189.017 70.1875 188.73 71.6484L188 75C187.613 75.1146 187.169 75.1719 186.668 75.1719C186.181 75.1719 185.694 75.1146 185.207 75L187.742 61.7656C187.885 60.7773 187.957 60.2044 187.957 60.0469C187.957 59.3307 187.814 58.9727 187.527 58.9727C187.284 58.9727 186.919 59.2018 186.432 59.6602C186.202 59.8893 185.952 60.14 185.68 60.4121C185.422 60.6842 185.25 60.8776 185.164 60.9922C185.107 60.9922 184.999 60.8561 184.842 60.584C184.684 60.3118 184.605 60.1185 184.605 60.0039C184.835 59.6172 185.25 59.1374 185.852 58.5645C186.453 57.9772 187.098 57.4544 187.785 56.9961C188.473 56.5378 189.06 56.3086 189.547 56.3086Z" fill="white"/>
<path d="M0 14.4961C6.30012 20.0984 15.0791 19.1979 30.687 15.1421C32.2497 14.736 33.9168 14.9601 35.3059 15.7832L61.0905 31.063L35.3304 19.6141C33.9205 18.9874 32.3183 18.9353 30.8588 19.4358C12.5496 25.7159 4.73674 24.7283 0 14.4961Z" fill="url(#paint8_radial_692_1962)"/>
<path d="M16.5669 25.8858C22.7094 27.5488 34.4861 19.1752 43.5027 24.2129C35.7991 20.3448 24.9274 34.7378 16.5669 25.8858Z" fill="url(#paint9_radial_692_1962)"/>
<path d="M42.4528 34.1693C40.4746 32.9379 39.8039 31.791 39.5364 30.2054C39.314 28.8871 40.2138 27.6374 41.514 27.3262C46.4064 26.1551 49.6595 27.3172 54.8779 31.063C50.3759 26.3362 46.8249 25.2844 39.6469 25.78C38.7972 25.8387 38.0191 26.2751 37.5081 26.9564L36.1669 28.7446C35.6047 29.4943 35.6307 30.5432 36.2784 31.2205C38.4425 33.4837 39.9798 34.1156 42.4528 34.1693Z" fill="url(#paint10_radial_692_1962)"/>
<path d="M61.0905 28.9921C48.8725 19.5072 53.131 18.6378 60.0551 10.3543C56.6285 8.93238 54.8937 8.83857 52.8071 12.4252C51.2879 8.29387 49.7783 6.42726 45.559 4.14173C43.8524 8.52031 44.6321 10.6991 46.5945 14.4961C42.9378 12.0347 40.7471 11.3823 36.2402 13.4606C46.3046 17.727 45.2926 18.8748 61.0905 28.9921Z" fill="url(#paint11_radial_692_1962)"/>
<path d="M78.6929 22.7441C78.6929 22.1918 79.1406 21.7441 79.6929 21.7441H79.7638C80.3161 21.7441 80.7638 22.1918 80.7638 22.7441V25.9213C80.7638 26.4735 80.3161 26.9213 79.7638 26.9213H74.4803C73.3757 26.9213 72.4803 26.0258 72.4803 24.9213V19.6024C72.4803 18.4978 73.3757 17.6024 74.4803 17.6024H78.7281C80.6137 17.6024 82.4755 18.023 84.178 18.8337V18.8337C85.2965 19.3663 86.1249 20.3629 86.4441 21.5599L88.3399 28.6695C89.2063 31.9182 86.6836 35.0788 83.3237 34.9544L68.0679 34.3894C64.7776 34.2675 62.2002 31.5169 62.2923 28.2256L62.6948 13.8426C62.7856 10.5955 65.4441 8.01038 68.6924 8.01038H83.0387C86.0229 8.01038 88.8896 9.21712 90.915 11.4088C101.807 23.194 109.097 33.3225 115.395 32.2299C115.685 32.1796 115.968 32.3916 115.968 32.686V32.686C115.968 32.9325 115.766 33.1318 115.519 33.1285C109.37 33.045 105.37 32.4313 87.653 13.254C86.5367 12.0456 85.0793 11.1983 83.4735 10.8414L77.8584 9.59364C77.0431 9.41248 76.199 9.4035 75.3801 9.56728L71.091 10.4251C68.2865 10.986 66.2677 13.4485 66.2677 16.3086V27.0984C66.2677 29.8599 68.5063 32.0984 71.2677 32.0984H80.9055C83.1146 32.0984 84.9055 30.3076 84.9055 28.0984V22.6378C84.9055 20.4287 83.1146 18.6378 80.9055 18.6378H76.5512C75.4466 18.6378 74.5512 19.5332 74.5512 20.6378V24.8858C74.5512 25.4381 74.9989 25.8858 75.5512 25.8858H77.6929C78.2452 25.8858 78.6929 25.4381 78.6929 24.8858V22.7441Z" fill="url(#paint12_radial_692_1962)"/>
<path d="M104.412 33.0631C96.4743 29.9513 88.3242 12.4066 78.6929 13.4606C91.6665 19.2326 92.9183 31.4785 104.412 33.0631Z" fill="url(#paint13_radial_692_1962)"/>
<path d="M111.827 30.0276C106.485 21.6827 106.361 16.9143 110.791 8.28346C105.363 9.71409 97.6256 19.5114 111.827 30.0276Z" fill="url(#paint14_radial_692_1962)"/>
<path d="M118.039 10.3543C113.102 14.0549 110.405 23.2793 118.039 32.0984C106.33 25.6888 109.793 12.7713 118.039 0V10.3543Z" fill="url(#paint15_radial_692_1962)"/>
<path d="M236.079 14.4961C229.778 20.0984 221 19.1979 205.392 15.1421C203.829 14.736 202.162 14.9601 200.773 15.7832L174.988 31.063L200.748 19.6141C202.158 18.9874 203.76 18.9353 205.22 19.4358C223.529 25.7159 231.342 24.7283 236.079 14.4961Z" fill="url(#paint16_radial_692_1962)"/>
<path d="M219.512 25.8858C213.369 27.5488 201.593 19.1752 192.576 24.2129C200.279 20.3448 211.151 34.7378 219.512 25.8858Z" fill="url(#paint17_radial_692_1962)"/>
<path d="M193.626 34.1693C195.604 32.9379 196.275 31.791 196.542 30.2054C196.765 28.8871 195.865 27.6374 194.565 27.3262C189.672 26.1551 186.419 27.3172 181.201 31.063C185.703 26.3362 189.254 25.2844 196.432 25.78C197.281 25.8387 198.06 26.2751 198.571 26.9564L199.912 28.7446C200.474 29.4943 200.448 30.5432 199.8 31.2205C197.636 33.4837 196.099 34.1156 193.626 34.1693Z" fill="url(#paint18_radial_692_1962)"/>
<path d="M174.988 28.9921C187.206 19.5072 182.948 18.6378 176.024 10.3543C179.45 8.93238 181.185 8.83857 183.272 12.4252C184.791 8.29387 186.3 6.42726 190.52 4.14173C192.226 8.52031 191.446 10.6991 189.484 14.4961C193.141 12.0347 195.331 11.3823 199.838 13.4606C189.774 17.727 190.786 18.8748 174.988 28.9921Z" fill="url(#paint19_radial_692_1962)"/>
<path d="M157.386 22.7441C157.386 22.1918 156.938 21.7441 156.386 21.7441H156.315C155.763 21.7441 155.315 22.1918 155.315 22.7441V25.9213C155.315 26.4735 155.763 26.9213 156.315 26.9213H161.598C162.703 26.9213 163.598 26.0258 163.598 24.9213V19.6024C163.598 18.4978 162.703 17.6024 161.598 17.6024H157.351C155.465 17.6024 153.603 18.023 151.901 18.8337V18.8337C150.782 19.3663 149.954 20.3629 149.635 21.5599L147.739 28.6695C146.872 31.9182 149.395 35.0788 152.755 34.9544L168.011 34.3894C171.301 34.2675 173.878 31.5169 173.786 28.2256L173.384 13.8426C173.293 10.5955 170.635 8.01038 167.386 8.01038H153.04C150.056 8.01038 147.189 9.21712 145.164 11.4088C134.272 23.194 126.982 33.3225 120.683 32.2299C120.393 32.1796 120.11 32.3916 120.11 32.686V32.686C120.11 32.9325 120.313 33.1318 120.559 33.1285C126.708 33.045 130.709 32.4313 148.426 13.254C149.542 12.0456 150.999 11.1983 152.605 10.8414L158.22 9.59364C159.035 9.41248 159.88 9.4035 160.698 9.56728L164.988 10.4251C167.792 10.986 169.811 13.4485 169.811 16.3086V27.0984C169.811 29.8599 167.572 32.0984 164.811 32.0984H155.173C152.964 32.0984 151.173 30.3076 151.173 28.0984V22.6378C151.173 20.4287 152.964 18.6378 155.173 18.6378H159.527C160.632 18.6378 161.527 19.5332 161.527 20.6378V24.8858C161.527 25.4381 161.08 25.8858 160.527 25.8858H158.386C157.833 25.8858 157.386 25.4381 157.386 24.8858V22.7441Z" fill="url(#paint20_radial_692_1962)"/>
<path d="M131.666 33.0631C139.604 29.9513 147.754 12.4066 157.386 13.4606C144.412 19.2326 143.16 31.4785 131.666 33.0631Z" fill="url(#paint21_radial_692_1962)"/>
<path d="M124.252 30.0276C129.594 21.6827 129.718 16.9143 125.287 8.28346C130.716 9.71409 138.453 19.5114 124.252 30.0276Z" fill="url(#paint22_radial_692_1962)"/>
<path d="M118.039 10.3543C122.976 14.0549 125.673 23.2793 118.039 32.0984C129.749 25.6888 126.286 12.7713 118.039 0V10.3543Z" fill="url(#paint23_radial_692_1962)"/>
<defs>
<radialGradient id="paint0_radial_692_1962" cx="0" cy="0" r="1" gradientUnits="userSpaceOnUse" gradientTransform="translate(79.7285 111.309) scale(38.311 20.1909)">
<stop stop-color="#E1E1E1"/>
<stop offset="1" stop-color="#FFF4DA"/>
</radialGradient>
<radialGradient id="paint1_radial_692_1962" cx="0" cy="0" r="1" gradientUnits="userSpaceOnUse" gradientTransform="translate(79.7285 111.309) scale(38.311 20.1909)">
<stop stop-color="#E1E1E1"/>
<stop offset="1" stop-color="#FFF4DA"/>
</radialGradient>
<radialGradient id="paint2_radial_692_1962" cx="0" cy="0" r="1" gradientUnits="userSpaceOnUse" gradientTransform="translate(79.7285 111.309) scale(38.311 20.1909)">
<stop stop-color="#E1E1E1"/>
<stop offset="1" stop-color="#FFF4DA"/>
</radialGradient>
<radialGradient id="paint3_radial_692_1962" cx="0" cy="0" r="1" gradientUnits="userSpaceOnUse" gradientTransform="translate(79.7285 111.309) scale(38.311 20.1909)">
<stop stop-color="#E1E1E1"/>
<stop offset="1" stop-color="#FFF4DA"/>
</radialGradient>
<radialGradient id="paint4_radial_692_1962" cx="0" cy="0" r="1" gradientUnits="userSpaceOnUse" gradientTransform="translate(156.351 111.309) rotate(180) scale(38.311 20.1909)">
<stop stop-color="#E1E1E1"/>
<stop offset="1" stop-color="#FFF4DA"/>
</radialGradient>
<radialGradient id="paint5_radial_692_1962" cx="0" cy="0" r="1" gradientUnits="userSpaceOnUse" gradientTransform="translate(156.351 111.309) rotate(180) scale(38.311 20.1909)">
<stop stop-color="#E1E1E1"/>
<stop offset="1" stop-color="#FFF4DA"/>
</radialGradient>
<radialGradient id="paint6_radial_692_1962" cx="0" cy="0" r="1" gradientUnits="userSpaceOnUse" gradientTransform="translate(156.351 111.309) rotate(180) scale(38.311 20.1909)">
<stop stop-color="#E1E1E1"/>
<stop offset="1" stop-color="#FFF4DA"/>
</radialGradient>
<radialGradient id="paint7_radial_692_1962" cx="0" cy="0" r="1" gradientUnits="userSpaceOnUse" gradientTransform="translate(156.351 111.309) rotate(180) scale(38.311 20.1909)">
<stop stop-color="#E1E1E1"/>
<stop offset="1" stop-color="#FFF4DA"/>
</radialGradient>
<radialGradient id="paint8_radial_692_1962" cx="0" cy="0" r="1" gradientUnits="userSpaceOnUse" gradientTransform="translate(59.0197 17.6024) scale(59.0197 17.6024)">
<stop stop-color="#E1E1E1"/>
<stop offset="1" stop-color="#FFF4DA"/>
</radialGradient>
<radialGradient id="paint9_radial_692_1962" cx="0" cy="0" r="1" gradientUnits="userSpaceOnUse" gradientTransform="translate(59.0197 17.6024) scale(59.0197 17.6024)">
<stop stop-color="#E1E1E1"/>
<stop offset="1" stop-color="#FFF4DA"/>
</radialGradient>
<radialGradient id="paint10_radial_692_1962" cx="0" cy="0" r="1" gradientUnits="userSpaceOnUse" gradientTransform="translate(59.0197 17.6024) scale(59.0197 17.6024)">
<stop stop-color="#E1E1E1"/>
<stop offset="1" stop-color="#FFF4DA"/>
</radialGradient>
<radialGradient id="paint11_radial_692_1962" cx="0" cy="0" r="1" gradientUnits="userSpaceOnUse" gradientTransform="translate(59.0197 17.6024) scale(59.0197 17.6024)">
<stop stop-color="#E1E1E1"/>
<stop offset="1" stop-color="#FFF4DA"/>
</radialGradient>
<radialGradient id="paint12_radial_692_1962" cx="0" cy="0" r="1" gradientUnits="userSpaceOnUse" gradientTransform="translate(59.0197 17.6024) scale(59.0197 17.6024)">
<stop stop-color="#E1E1E1"/>
<stop offset="1" stop-color="#FFF4DA"/>
</radialGradient>
<radialGradient id="paint13_radial_692_1962" cx="0" cy="0" r="1" gradientUnits="userSpaceOnUse" gradientTransform="translate(59.0197 17.6024) scale(59.0197 17.6024)">
<stop stop-color="#E1E1E1"/>
<stop offset="1" stop-color="#FFF4DA"/>
</radialGradient>
<radialGradient id="paint14_radial_692_1962" cx="0" cy="0" r="1" gradientUnits="userSpaceOnUse" gradientTransform="translate(59.0197 17.6024) scale(59.0197 17.6024)">
<stop stop-color="#E1E1E1"/>
<stop offset="1" stop-color="#FFF4DA"/>
</radialGradient>
<radialGradient id="paint15_radial_692_1962" cx="0" cy="0" r="1" gradientUnits="userSpaceOnUse" gradientTransform="translate(59.0197 17.6024) scale(59.0197 17.6024)">
<stop stop-color="#E1E1E1"/>
<stop offset="1" stop-color="#FFF4DA"/>
</radialGradient>
<radialGradient id="paint16_radial_692_1962" cx="0" cy="0" r="1" gradientUnits="userSpaceOnUse" gradientTransform="translate(177.059 17.6024) rotate(180) scale(59.0197 17.6024)">
<stop stop-color="#E1E1E1"/>
<stop offset="1" stop-color="#FFF4DA"/>
</radialGradient>
<radialGradient id="paint17_radial_692_1962" cx="0" cy="0" r="1" gradientUnits="userSpaceOnUse" gradientTransform="translate(177.059 17.6024) rotate(180) scale(59.0197 17.6024)">
<stop stop-color="#E1E1E1"/>
<stop offset="1" stop-color="#FFF4DA"/>
</radialGradient>
<radialGradient id="paint18_radial_692_1962" cx="0" cy="0" r="1" gradientUnits="userSpaceOnUse" gradientTransform="translate(177.059 17.6024) rotate(180) scale(59.0197 17.6024)">
<stop stop-color="#E1E1E1"/>
<stop offset="1" stop-color="#FFF4DA"/>
</radialGradient>
<radialGradient id="paint19_radial_692_1962" cx="0" cy="0" r="1" gradientUnits="userSpaceOnUse" gradientTransform="translate(177.059 17.6024) rotate(180) scale(59.0197 17.6024)">
<stop stop-color="#E1E1E1"/>
<stop offset="1" stop-color="#FFF4DA"/>
</radialGradient>
<radialGradient id="paint20_radial_692_1962" cx="0" cy="0" r="1" gradientUnits="userSpaceOnUse" gradientTransform="translate(177.059 17.6024) rotate(180) scale(59.0197 17.6024)">
<stop stop-color="#E1E1E1"/>
<stop offset="1" stop-color="#FFF4DA"/>
</radialGradient>
<radialGradient id="paint21_radial_692_1962" cx="0" cy="0" r="1" gradientUnits="userSpaceOnUse" gradientTransform="translate(177.059 17.6024) rotate(180) scale(59.0197 17.6024)">
<stop stop-color="#E1E1E1"/>
<stop offset="1" stop-color="#FFF4DA"/>
</radialGradient>
<radialGradient id="paint22_radial_692_1962" cx="0" cy="0" r="1" gradientUnits="userSpaceOnUse" gradientTransform="translate(177.059 17.6024) rotate(180) scale(59.0197 17.6024)">
<stop stop-color="#E1E1E1"/>
<stop offset="1" stop-color="#FFF4DA"/>
</radialGradient>
<radialGradient id="paint23_radial_692_1962" cx="0" cy="0" r="1" gradientUnits="userSpaceOnUse" gradientTransform="translate(177.059 17.6024) rotate(180) scale(59.0197 17.6024)">
<stop stop-color="#E1E1E1"/>
<stop offset="1" stop-color="#FFF4DA"/>
</radialGradient>
</defs>
</svg>
