<svg width="237" height="132" viewBox="0 0 237 132" fill="none" xmlns="http://www.w3.org/2000/svg">
<path d="M50.713 108.06C49.3894 108.487 47.9219 108.504 46.7174 107.809C44.5799 106.575 44.1417 105.154 44.5239 102.508V102.508C42.8803 103.056 42.0634 104.953 43.0344 106.388C43.9981 107.812 45.0942 108.974 46.6272 110.246C47.9176 111.316 49.57 111.855 51.2463 111.812C56.4411 111.679 59.0354 110.851 62.1261 108.72C61.1055 110.641 61.1623 111.76 61.9889 113.6C62.061 113.76 62.2573 113.822 62.4081 113.731C64.083 112.73 65.0044 111.892 66.2679 109.756C66.2159 114.032 66.9848 113.977 70.4096 114.933C67.5199 110.86 68.053 109.221 70.1985 106.254C70.9963 105.151 72.1264 104.331 73.4058 103.866L78.5781 101.985C81.3347 100.982 84.3491 100.942 87.1317 101.869L104.174 107.55C104.308 107.435 104.443 107.326 104.579 107.223V104.508C104.579 103.403 105.474 102.508 106.579 102.508H108.791C109.896 102.508 110.791 103.403 110.791 104.508V105.614H111.827V103.472C111.827 102.368 110.931 101.472 109.827 101.472H105.543C104.439 101.472 103.543 102.368 103.543 103.472V106.65C98.7741 103.748 93.5326 101.584 86.7262 99.7769C82.8461 98.747 78.7539 99.0145 74.9333 100.247L50.713 108.06Z" fill="url(#paint0_radial_692_1930)"/>
<path fill-rule="evenodd" clip-rule="evenodd" d="M118.04 111.827V108.721C115.458 105.74 114.164 105.799 111.827 105.614H110.791C108.063 105.589 106.223 105.979 104.579 107.223V107.685L104.174 107.55C103.27 108.327 102.41 109.382 101.473 110.791C94.423 108.167 92.2423 105.859 84.6309 104.117C82.7932 103.696 80.8384 103.854 79.1738 104.739C77.1411 105.82 75.7483 107.075 74.4009 109.235C73.7981 110.201 73.7054 111.42 74.2151 112.438C75.05 114.107 76.2503 115.417 79.1381 117.128C80.1191 117.709 81.351 117.62 82.2789 116.957L86.2804 114.099C87.2189 113.429 87.4133 112.09 86.6216 111.251C84.8307 109.354 83.7232 109.09 81.7994 109.756C83.0247 110.067 83.7478 110.456 84.3965 111.688C84.7601 112.378 84.5523 113.216 84.0005 113.767L82.2759 115.492C81.3711 116.397 79.9668 116.664 78.906 115.948C77.392 114.927 76.4786 113.802 75.488 112.283C74.8942 111.372 74.8544 110.185 75.4804 109.296C77.1885 106.871 79.0768 106.022 82.8348 105.614C87.5143 105.758 93.9739 109.592 101.473 112.862C101.611 115.305 101.827 117.608 105.431 119.531C106.15 119.915 107.027 119.733 107.604 119.156L110.252 116.508C110.55 116.21 110.55 115.727 110.252 115.429V115.429C109.972 115.149 109.522 115.134 109.211 115.381C104.883 118.812 103.35 117.017 102.508 112.862C108.785 113.743 111.601 112.063 112.862 106.65H114.933L118.04 111.827ZM102.508 111.827C105.324 107.593 107.417 106.549 111.827 106.65C109.582 111.782 107.624 113.001 102.508 111.827Z" fill="url(#paint1_radial_692_1930)"/>
<path d="M118.04 114.933V111.827C116.112 115.763 116.189 118.074 110.791 119.075C111.96 121.038 112.806 121.636 114.933 121.146C115.325 125.201 115.718 127.472 118.04 131.5V125.287C116.703 121.107 116.953 118.865 118.04 114.933Z" fill="url(#paint2_radial_692_1930)"/>
<path d="M115.969 98.3662C116.06 94.792 116.696 93.3936 118.04 91.1182V105.614C115.723 100.811 114.342 99.4138 111.827 99.4015C113.365 97.8121 114.277 97.3638 115.969 98.3662Z" fill="url(#paint3_radial_692_1930)"/>
<path d="M185.366 108.06C186.69 108.487 188.157 108.504 189.362 107.809C191.499 106.575 191.937 105.154 191.555 102.508V102.508C193.199 103.056 194.016 104.953 193.045 106.388C192.081 107.812 190.985 108.974 189.452 110.246C188.161 111.316 186.509 111.855 184.833 111.812C179.638 111.679 177.044 110.851 173.953 108.72C174.974 110.641 174.917 111.76 174.09 113.6C174.018 113.76 173.822 113.822 173.671 113.731C171.996 112.73 171.075 111.892 169.811 109.756C169.863 114.032 169.094 113.977 165.669 114.933C168.559 110.86 168.026 109.221 165.881 106.254C165.083 105.151 163.953 104.331 162.673 103.866L157.501 101.985C154.744 100.982 151.73 100.942 148.947 101.869L131.905 107.55C131.771 107.435 131.636 107.326 131.5 107.223V104.508C131.5 103.403 130.605 102.508 129.5 102.508H127.288C126.183 102.508 125.288 103.403 125.288 104.508V105.614H124.252V103.472C124.252 102.368 125.148 101.472 126.252 101.472H130.536C131.64 101.472 132.536 102.368 132.536 103.472V106.65C137.305 103.748 142.547 101.584 149.353 99.7769C153.233 98.747 157.325 99.0145 161.146 100.247L185.366 108.06Z" fill="url(#paint4_radial_692_1930)"/>
<path fill-rule="evenodd" clip-rule="evenodd" d="M118.04 111.827V108.721C120.621 105.74 121.915 105.799 124.252 105.614H125.288C128.016 105.589 129.856 105.979 131.5 107.223V107.685L131.905 107.55C132.809 108.327 133.669 109.382 134.607 110.791C141.656 108.167 143.837 105.859 151.448 104.117C153.286 103.696 155.241 103.854 156.905 104.739C158.938 105.82 160.331 107.075 161.678 109.235C162.281 110.201 162.374 111.42 161.864 112.438C161.029 114.107 159.829 115.417 156.941 117.128C155.96 117.709 154.728 117.62 153.8 116.957L149.799 114.099C148.86 113.429 148.666 112.09 149.457 111.251C151.248 109.354 152.356 109.09 154.28 109.756C153.054 110.067 152.331 110.456 151.683 111.688C151.319 112.378 151.527 113.216 152.079 113.767L153.803 115.492C154.708 116.397 156.112 116.664 157.173 115.948C158.687 114.927 159.601 113.802 160.591 112.283C161.185 111.372 161.225 110.185 160.599 109.296C158.891 106.871 157.002 106.022 153.244 105.614C148.565 105.758 142.105 109.592 134.607 112.862C134.468 115.305 134.252 117.608 130.648 119.531C129.929 119.915 129.052 119.733 128.475 119.156L125.827 116.508C125.529 116.21 125.529 115.727 125.827 115.429V115.429C126.107 115.149 126.557 115.134 126.868 115.381C131.196 118.812 132.729 117.017 133.571 112.862C127.294 113.743 124.479 112.063 123.217 106.65H121.146L118.04 111.827ZM133.571 111.827C130.755 107.593 128.662 106.549 124.252 106.65C126.497 111.782 128.455 113.001 133.571 111.827Z" fill="url(#paint5_radial_692_1930)"/>
<path d="M118.04 114.933V111.827C119.967 115.763 119.89 118.074 125.288 119.075C124.119 121.038 123.273 121.636 121.146 121.146C120.755 125.201 120.362 127.472 118.04 131.5V125.287C119.376 121.107 119.126 118.865 118.04 114.933Z" fill="url(#paint6_radial_692_1930)"/>
<path d="M120.11 98.3662C120.019 94.792 119.383 93.3936 118.04 91.1182V105.614C120.356 100.811 121.737 99.4138 124.252 99.4015C122.714 97.8121 121.802 97.3638 120.11 98.3662Z" fill="url(#paint7_radial_692_1930)"/>
<path d="M72.043 46.8984C72.3008 46.8984 72.7663 46.8841 73.4395 46.8555C74.1126 46.8268 74.9935 46.7839 76.082 46.7266C76.2969 47.5716 76.6764 48.7318 77.2207 50.207C77.7793 51.6823 78.4453 53.3366 79.2188 55.1699C79.9922 56.9889 80.8158 58.8652 81.6895 60.7988C82.5775 62.7181 83.4583 64.5443 84.332 66.2773C84.4323 65.9909 84.5182 65.7044 84.5898 65.418C84.6758 65.1172 84.7474 64.8164 84.8047 64.5156L86.9961 52.957C87.3685 51.0521 87.5547 49.7344 87.5547 49.0039C87.5547 48.7747 87.3613 48.5814 86.9746 48.4238C86.6022 48.252 86.1725 48.123 85.6855 48.0371C85.2129 47.9368 84.8333 47.8867 84.5469 47.8867C84.4896 47.8867 84.4609 47.7865 84.4609 47.5859C84.4609 47.1706 84.5612 46.8841 84.7617 46.7266C86.237 46.7982 87.347 46.8555 88.0918 46.8984C88.8509 46.9271 89.2448 46.9414 89.2734 46.9414C89.474 46.9414 89.9609 46.9271 90.7344 46.8984C91.5221 46.8555 92.5964 46.7982 93.957 46.7266C93.957 47.5 93.8711 47.8867 93.6992 47.8867C93.513 47.8867 93.1549 47.9368 92.625 48.0371C92.1094 48.1374 91.6152 48.2591 91.1426 48.4023C90.6699 48.5456 90.4049 48.6888 90.3477 48.832C89.9753 49.7917 89.6172 51.1237 89.2734 52.8281L86.0508 69.1562C85.9648 69.6003 85.8717 70.1087 85.7715 70.6816C85.6712 71.2546 85.5638 71.8919 85.4492 72.5938C85.3346 73.2956 85.2415 73.8613 85.1699 74.291C85.0983 74.7207 85.0482 75.0143 85.0195 75.1719C84.9049 75.2865 84.7617 75.3438 84.5898 75.3438C84.1888 75.3438 83.8164 75.0143 83.4727 74.3555L72.9023 50.0352L69.0781 68.9414C68.7917 70.3737 68.6484 71.6484 68.6484 72.7656C68.6484 72.9948 68.8776 73.2096 69.3359 73.4102C69.7943 73.6107 70.2526 73.7539 70.7109 73.8398L71.4414 73.9688C71.4987 73.9688 71.5273 74.0404 71.5273 74.1836C71.5273 74.5417 71.4557 74.8568 71.3125 75.1289C69.9948 75.0573 68.9635 75.0072 68.2188 74.9785C67.474 74.9355 67.0156 74.9141 66.8438 74.9141C66.8151 74.9141 66.4069 74.9355 65.6191 74.9785C64.8314 75.0072 63.6641 75.0573 62.1172 75.1289C62.0599 75.0716 62.0312 74.957 62.0312 74.7852C62.0312 74.2409 62.1315 73.9688 62.332 73.9688C62.5612 73.9688 62.9264 73.9186 63.4277 73.8184C63.929 73.7038 64.4017 73.5677 64.8457 73.4102C65.304 73.2383 65.569 73.0807 65.6406 72.9375C65.9701 72.3073 66.3568 70.9323 66.8008 68.8125L70.1094 52.8281C70.3672 51.5534 70.4961 50.2643 70.4961 48.9609C70.4961 48.7318 70.3171 48.5384 69.959 48.3809C69.6009 48.2233 69.1927 48.1016 68.7344 48.0156C68.276 47.9297 67.8893 47.8867 67.5742 47.8867C67.5169 47.8867 67.4883 47.7865 67.4883 47.5859C67.4883 47.1706 67.5885 46.8841 67.7891 46.7266C68.9062 46.7839 69.8158 46.8268 70.5176 46.8555C71.2337 46.8841 71.7422 46.8984 72.043 46.8984ZM104.57 56.3086C105.63 56.3086 106.676 56.4948 107.707 56.8672L105.086 70.4453C105 70.7891 104.957 71.1471 104.957 71.5195C104.957 72.2357 105.1 72.5938 105.387 72.5938C105.745 72.5938 106.174 72.3431 106.676 71.8418C107.177 71.3262 107.607 70.8893 107.965 70.5312L108.223 70.2305C108.28 70.2305 108.387 70.3665 108.545 70.6387C108.702 70.9108 108.781 71.1042 108.781 71.2188C108.538 71.6341 108.094 72.1641 107.449 72.8086C106.819 73.4531 106.132 74.026 105.387 74.5273C104.642 75.0143 103.969 75.2578 103.367 75.2578C102.909 75.2578 102.551 75.0501 102.293 74.6348C102.035 74.2194 101.906 73.6823 101.906 73.0234C101.906 72.5794 102.007 71.8203 102.207 70.7461L102.357 69.9941C102.4 69.7936 102.422 69.6719 102.422 69.6289C102.193 70.0586 101.863 70.5885 101.434 71.2188C101.004 71.8346 100.51 72.4505 99.9512 73.0664C99.3926 73.6823 98.8053 74.1979 98.1895 74.6133C97.5736 75.0143 96.9648 75.2148 96.3633 75.2148C95.1029 75.2148 94.1074 74.6491 93.377 73.5176C92.6465 72.3861 92.2812 71.0182 92.2812 69.4141C92.2812 67.3659 92.89 65.3249 94.1074 63.291C94.9238 61.916 95.8978 60.7057 97.0293 59.6602C98.1751 58.6146 99.3997 57.7982 100.703 57.2109C102.007 56.6094 103.296 56.3086 104.57 56.3086ZM102.766 58.2852C101.921 58.2852 101.068 58.5859 100.209 59.1875C99.3496 59.7747 98.5618 60.5697 97.8457 61.5723C97.1296 62.5605 96.5495 63.6634 96.1055 64.8809C95.6758 66.084 95.4609 67.2943 95.4609 68.5117C95.4609 71.319 96.1914 72.7227 97.6523 72.7227C98.168 72.7227 98.7266 72.4362 99.3281 71.8633C99.9297 71.2904 100.524 70.5312 101.111 69.5859C101.699 68.6406 102.214 67.6165 102.658 66.5137C103.117 65.3965 103.453 64.3008 103.668 63.2266L104.527 58.8438C104.184 58.4714 103.596 58.2852 102.766 58.2852ZM117.203 56.3086C117.518 56.3086 118.435 56.4876 119.953 56.8457C121.471 57.2038 122.717 57.3828 123.691 57.3828C124.107 57.3828 124.579 57.2038 125.109 56.8457C125.639 56.4876 126.112 56.3086 126.527 56.3086C126.871 56.3086 127.043 56.6667 127.043 57.3828C127.043 57.5547 125.969 58.8223 123.82 61.1855C121.643 63.5775 119.509 65.9049 117.418 68.168L114.195 71.6055C114.195 71.6198 114.324 71.5625 114.582 71.4336C114.854 71.3047 115.133 71.1758 115.42 71.0469C115.721 70.9036 115.9 70.832 115.957 70.832C116.759 70.832 117.762 71.0898 118.965 71.6055C120.168 72.1211 120.97 72.3789 121.371 72.3789C121.6 72.3789 121.837 72.293 122.08 72.1211C122.324 71.9492 122.553 71.7272 122.768 71.4551C122.825 71.3835 122.954 71.1901 123.154 70.875C123.369 70.5456 123.57 70.2305 123.756 69.9297C123.956 69.6289 124.064 69.4714 124.078 69.457C124.193 69.2995 124.314 69.3424 124.443 69.5859C124.587 69.8438 124.665 70.0729 124.68 70.2734C124.536 70.7604 124.229 71.3835 123.756 72.1426C123.298 72.8874 122.76 73.5534 122.145 74.1406C121.543 74.7135 120.956 75 120.383 75C120.125 75 119.208 74.8138 117.633 74.4414C116.057 74.069 114.811 73.8828 113.895 73.8828C113.493 73.8828 113.021 74.069 112.477 74.4414C111.932 74.8138 111.46 75 111.059 75C110.715 75 110.543 74.6276 110.543 73.8828C110.543 73.6823 111.61 72.4076 113.744 70.0586C114.804 68.8841 115.871 67.7168 116.945 66.5566C118.02 65.3965 119.094 64.2435 120.168 63.0977L123.348 59.6602L123.09 59.875C122.889 59.9896 122.646 60.1185 122.359 60.2617C122.073 60.4049 121.829 60.4766 121.629 60.4766C120.827 60.4766 119.824 60.2188 118.621 59.7031C117.418 59.1875 116.616 58.9297 116.215 58.9297C115.986 58.9297 115.749 59.0156 115.506 59.1875C115.262 59.3594 115.033 59.5814 114.818 59.8535C114.747 59.9538 114.611 60.1615 114.41 60.4766C114.21 60.7917 114.023 61.0924 113.852 61.3789C113.68 61.6654 113.579 61.8229 113.551 61.8516C113.408 61.9948 113.279 61.9518 113.164 61.7227C113.035 61.4505 112.964 61.207 112.949 60.9922C113.107 60.4909 113.408 59.875 113.852 59.1445C114.31 58.3997 114.84 57.7409 115.441 57.168C116.043 56.5951 116.63 56.3086 117.203 56.3086ZM135.938 47.2422C136.367 47.2422 136.732 47.4141 137.033 47.7578C137.334 48.1016 137.484 48.5026 137.484 48.9609C137.484 49.6484 137.262 50.25 136.818 50.7656C136.374 51.2812 135.823 51.5391 135.164 51.5391C134.706 51.5391 134.348 51.36 134.09 51.002C133.832 50.6439 133.703 50.207 133.703 49.6914C133.703 49.0326 133.918 48.4596 134.348 47.9727C134.777 47.4857 135.307 47.2422 135.938 47.2422ZM134.691 56.3086C135.15 56.3086 135.508 56.5163 135.766 56.9316C136.023 57.347 136.152 57.8841 136.152 58.543C136.152 59.1302 136.066 59.8893 135.895 60.8203L134.004 70.4453C133.918 70.7891 133.875 71.1471 133.875 71.5195C133.875 72.2357 134.018 72.5938 134.305 72.5938C134.663 72.5938 135.092 72.3431 135.594 71.8418C136.095 71.3262 136.525 70.8893 136.883 70.5312L137.141 70.2305C137.198 70.2305 137.305 70.3665 137.463 70.6387C137.62 70.9108 137.699 71.1042 137.699 71.2188C137.456 71.6341 137.012 72.1641 136.367 72.8086C135.737 73.4531 135.049 74.026 134.305 74.5273C133.56 75.0143 132.887 75.2578 132.285 75.2578C131.827 75.2578 131.469 75.0501 131.211 74.6348C130.953 74.2194 130.824 73.6823 130.824 73.0234C130.824 72.5938 130.924 71.8346 131.125 70.7461L132.887 61.7656C133.03 60.9206 133.102 60.3477 133.102 60.0469C133.102 59.3307 132.958 58.9727 132.672 58.9727C132.5 58.9727 132.264 59.0872 131.963 59.3164C131.676 59.5456 131.397 59.8034 131.125 60.0898C130.853 60.362 130.652 60.5768 130.523 60.7344L130.309 60.9922C130.251 60.9922 130.144 60.8561 129.986 60.584C129.829 60.3118 129.75 60.1185 129.75 60.0039C129.979 59.6172 130.395 59.1374 130.996 58.5645C131.598 57.9772 132.242 57.4544 132.93 56.9961C133.617 56.5378 134.204 56.3086 134.691 56.3086ZM144.699 44.068C144.435 45.0947 144.098 46.2093 143.687 47.412C143.277 48.6147 142.822 49.8173 142.323 51.02C141.854 52.1933 141.385 53.308 140.915 54.364H138.055C138.261 53.5427 138.466 52.6627 138.671 51.724C138.906 50.7853 139.111 49.8467 139.287 48.908C139.493 47.94 139.669 47.0013 139.815 46.092C139.991 45.1827 140.138 44.3467 140.255 43.584H144.391L144.699 44.068ZM160.301 56.3086C161.361 56.3086 162.406 56.4948 163.438 56.8672L160.816 70.4453C160.73 70.7891 160.688 71.1471 160.688 71.5195C160.688 72.2357 160.831 72.5938 161.117 72.5938C161.475 72.5938 161.905 72.3431 162.406 71.8418C162.908 71.3262 163.337 70.8893 163.695 70.5312L163.953 70.2305C164.01 70.2305 164.118 70.3665 164.275 70.6387C164.433 70.9108 164.512 71.1042 164.512 71.2188C164.268 71.6341 163.824 72.1641 163.18 72.8086C162.549 73.4531 161.862 74.026 161.117 74.5273C160.372 75.0143 159.699 75.2578 159.098 75.2578C158.639 75.2578 158.281 75.0501 158.023 74.6348C157.766 74.2194 157.637 73.6823 157.637 73.0234C157.637 72.5794 157.737 71.8203 157.938 70.7461L158.088 69.9941C158.131 69.7936 158.152 69.6719 158.152 69.6289C157.923 70.0586 157.594 70.5885 157.164 71.2188C156.734 71.8346 156.24 72.4505 155.682 73.0664C155.123 73.6823 154.536 74.1979 153.92 74.6133C153.304 75.0143 152.695 75.2148 152.094 75.2148C150.833 75.2148 149.838 74.6491 149.107 73.5176C148.377 72.3861 148.012 71.0182 148.012 69.4141C148.012 67.3659 148.62 65.3249 149.838 63.291C150.654 61.916 151.628 60.7057 152.76 59.6602C153.906 58.6146 155.13 57.7982 156.434 57.2109C157.737 56.6094 159.026 56.3086 160.301 56.3086ZM158.496 58.2852C157.651 58.2852 156.799 58.5859 155.939 59.1875C155.08 59.7747 154.292 60.5697 153.576 61.5723C152.86 62.5605 152.28 63.6634 151.836 64.8809C151.406 66.084 151.191 67.2943 151.191 68.5117C151.191 71.319 151.922 72.7227 153.383 72.7227C153.898 72.7227 154.457 72.4362 155.059 71.8633C155.66 71.2904 156.255 70.5312 156.842 69.5859C157.429 68.6406 157.945 67.6165 158.389 66.5137C158.847 65.3965 159.184 64.3008 159.398 63.2266L160.258 58.8438C159.914 58.4714 159.327 58.2852 158.496 58.2852ZM168.508 56.9531H171.516L172.547 51.7109C172.633 51.4245 173.335 51.2812 174.652 51.2812C174.939 51.2812 175.197 51.2956 175.426 51.3242L174.352 56.9531H178.262C178.405 56.9531 178.477 57.1393 178.477 57.5117C178.477 57.8411 178.348 58.2565 178.09 58.7578H174.008L171.73 70.4453C171.645 70.7891 171.602 71.1471 171.602 71.5195C171.602 72.2357 171.745 72.5938 172.031 72.5938C172.389 72.5938 172.819 72.3431 173.32 71.8418C173.822 71.3262 174.251 70.8893 174.609 70.5312L174.867 70.2305C174.924 70.2305 175.032 70.3665 175.189 70.6387C175.347 70.9108 175.426 71.1042 175.426 71.2188C175.182 71.6341 174.738 72.1641 174.094 72.8086C173.464 73.4531 172.776 74.026 172.031 74.5273C171.286 75.0143 170.613 75.2578 170.012 75.2578C169.553 75.2578 169.195 75.0501 168.938 74.6348C168.68 74.2194 168.551 73.6823 168.551 73.0234C168.551 72.5938 168.651 71.8346 168.852 70.7461L171.172 58.7578H168.121C168.035 58.7578 167.992 58.6003 167.992 58.2852C167.992 57.9128 168.164 57.4688 168.508 56.9531Z" fill="white"/>
<path d="M0 14.4961C6.30012 20.0984 15.0791 19.1979 30.687 15.1421C32.2497 14.736 33.9168 14.9601 35.3059 15.7832L61.0905 31.063L35.3304 19.6141C33.9205 18.9874 32.3183 18.9353 30.8588 19.4358C12.5496 25.7159 4.73674 24.7283 0 14.4961Z" fill="url(#paint8_radial_692_1930)"/>
<path d="M16.5669 25.8858C22.7094 27.5488 34.4861 19.1752 43.5027 24.2129C35.7991 20.3448 24.9274 34.7378 16.5669 25.8858Z" fill="url(#paint9_radial_692_1930)"/>
<path d="M42.4528 34.1693C40.4746 32.9379 39.8039 31.791 39.5364 30.2054C39.314 28.8871 40.2138 27.6374 41.514 27.3262C46.4064 26.1551 49.6595 27.3172 54.8779 31.063C50.3759 26.3362 46.8249 25.2844 39.6469 25.78C38.7972 25.8387 38.0191 26.2751 37.5081 26.9564L36.1669 28.7446C35.6047 29.4943 35.6307 30.5432 36.2784 31.2205C38.4425 33.4837 39.9798 34.1156 42.4528 34.1693Z" fill="url(#paint10_radial_692_1930)"/>
<path d="M61.0905 28.9921C48.8725 19.5072 53.131 18.6378 60.0551 10.3543C56.6285 8.93238 54.8937 8.83857 52.8071 12.4252C51.2879 8.29387 49.7783 6.42726 45.559 4.14173C43.8524 8.52031 44.6321 10.6991 46.5945 14.4961C42.9378 12.0347 40.7471 11.3823 36.2402 13.4606C46.3046 17.727 45.2926 18.8748 61.0905 28.9921Z" fill="url(#paint11_radial_692_1930)"/>
<path d="M78.6929 22.7441C78.6929 22.1918 79.1406 21.7441 79.6929 21.7441H79.7638C80.3161 21.7441 80.7638 22.1918 80.7638 22.7441V25.9213C80.7638 26.4735 80.3161 26.9213 79.7638 26.9213H74.4803C73.3757 26.9213 72.4803 26.0258 72.4803 24.9213V19.6024C72.4803 18.4978 73.3757 17.6024 74.4803 17.6024H78.7281C80.6137 17.6024 82.4755 18.023 84.178 18.8337V18.8337C85.2965 19.3663 86.1249 20.3629 86.4441 21.5599L88.3399 28.6695C89.2063 31.9182 86.6836 35.0788 83.3237 34.9544L68.0679 34.3894C64.7776 34.2675 62.2002 31.5169 62.2923 28.2256L62.6948 13.8426C62.7856 10.5955 65.4441 8.01038 68.6924 8.01038H83.0387C86.0229 8.01038 88.8896 9.21712 90.915 11.4088C101.807 23.194 109.097 33.3225 115.395 32.2299C115.685 32.1796 115.968 32.3916 115.968 32.686V32.686C115.968 32.9325 115.766 33.1318 115.519 33.1285C109.37 33.045 105.37 32.4313 87.653 13.254C86.5367 12.0456 85.0793 11.1983 83.4735 10.8414L77.8584 9.59364C77.0431 9.41248 76.199 9.4035 75.3801 9.56728L71.091 10.4251C68.2865 10.986 66.2677 13.4485 66.2677 16.3086V27.0984C66.2677 29.8599 68.5063 32.0984 71.2677 32.0984H80.9055C83.1146 32.0984 84.9055 30.3076 84.9055 28.0984V22.6378C84.9055 20.4287 83.1146 18.6378 80.9055 18.6378H76.5512C75.4466 18.6378 74.5512 19.5332 74.5512 20.6378V24.8858C74.5512 25.4381 74.9989 25.8858 75.5512 25.8858H77.6929C78.2452 25.8858 78.6929 25.4381 78.6929 24.8858V22.7441Z" fill="url(#paint12_radial_692_1930)"/>
<path d="M104.412 33.0631C96.4743 29.9513 88.3242 12.4066 78.6929 13.4606C91.6665 19.2326 92.9183 31.4785 104.412 33.0631Z" fill="url(#paint13_radial_692_1930)"/>
<path d="M111.827 30.0276C106.485 21.6827 106.361 16.9143 110.791 8.28346C105.363 9.71409 97.6256 19.5114 111.827 30.0276Z" fill="url(#paint14_radial_692_1930)"/>
<path d="M118.039 10.3543C113.102 14.0549 110.405 23.2793 118.039 32.0984C106.33 25.6888 109.793 12.7713 118.039 0V10.3543Z" fill="url(#paint15_radial_692_1930)"/>
<path d="M236.079 14.4961C229.778 20.0984 221 19.1979 205.392 15.1421C203.829 14.736 202.162 14.9601 200.773 15.7832L174.988 31.063L200.748 19.6141C202.158 18.9874 203.76 18.9353 205.22 19.4358C223.529 25.7159 231.342 24.7283 236.079 14.4961Z" fill="url(#paint16_radial_692_1930)"/>
<path d="M219.512 25.8858C213.369 27.5488 201.593 19.1752 192.576 24.2129C200.279 20.3448 211.151 34.7378 219.512 25.8858Z" fill="url(#paint17_radial_692_1930)"/>
<path d="M193.626 34.1693C195.604 32.9379 196.275 31.791 196.542 30.2054C196.765 28.8871 195.865 27.6374 194.565 27.3262C189.672 26.1551 186.419 27.3172 181.201 31.063C185.703 26.3362 189.254 25.2844 196.432 25.78C197.281 25.8387 198.06 26.2751 198.571 26.9564L199.912 28.7446C200.474 29.4943 200.448 30.5432 199.8 31.2205C197.636 33.4837 196.099 34.1156 193.626 34.1693Z" fill="url(#paint18_radial_692_1930)"/>
<path d="M174.988 28.9921C187.206 19.5072 182.948 18.6378 176.024 10.3543C179.45 8.93238 181.185 8.83857 183.272 12.4252C184.791 8.29387 186.3 6.42726 190.52 4.14173C192.226 8.52031 191.446 10.6991 189.484 14.4961C193.141 12.0347 195.331 11.3823 199.838 13.4606C189.774 17.727 190.786 18.8748 174.988 28.9921Z" fill="url(#paint19_radial_692_1930)"/>
<path d="M157.386 22.7441C157.386 22.1918 156.938 21.7441 156.386 21.7441H156.315C155.763 21.7441 155.315 22.1918 155.315 22.7441V25.9213C155.315 26.4735 155.763 26.9213 156.315 26.9213H161.598C162.703 26.9213 163.598 26.0258 163.598 24.9213V19.6024C163.598 18.4978 162.703 17.6024 161.598 17.6024H157.351C155.465 17.6024 153.603 18.023 151.901 18.8337V18.8337C150.782 19.3663 149.954 20.3629 149.635 21.5599L147.739 28.6695C146.872 31.9182 149.395 35.0788 152.755 34.9544L168.011 34.3894C171.301 34.2675 173.878 31.5169 173.786 28.2256L173.384 13.8426C173.293 10.5955 170.635 8.01038 167.386 8.01038H153.04C150.056 8.01038 147.189 9.21712 145.164 11.4088C134.272 23.194 126.982 33.3225 120.683 32.2299C120.393 32.1796 120.11 32.3916 120.11 32.686V32.686C120.11 32.9325 120.313 33.1318 120.559 33.1285C126.708 33.045 130.709 32.4313 148.426 13.254C149.542 12.0456 150.999 11.1983 152.605 10.8414L158.22 9.59364C159.035 9.41248 159.88 9.4035 160.698 9.56728L164.988 10.4251C167.792 10.986 169.811 13.4485 169.811 16.3086V27.0984C169.811 29.8599 167.572 32.0984 164.811 32.0984H155.173C152.964 32.0984 151.173 30.3076 151.173 28.0984V22.6378C151.173 20.4287 152.964 18.6378 155.173 18.6378H159.527C160.632 18.6378 161.527 19.5332 161.527 20.6378V24.8858C161.527 25.4381 161.08 25.8858 160.527 25.8858H158.386C157.833 25.8858 157.386 25.4381 157.386 24.8858V22.7441Z" fill="url(#paint20_radial_692_1930)"/>
<path d="M131.666 33.0631C139.604 29.9513 147.754 12.4066 157.386 13.4606C144.412 19.2326 143.16 31.4785 131.666 33.0631Z" fill="url(#paint21_radial_692_1930)"/>
<path d="M124.252 30.0276C129.594 21.6827 129.718 16.9143 125.287 8.28346C130.716 9.71409 138.453 19.5114 124.252 30.0276Z" fill="url(#paint22_radial_692_1930)"/>
<path d="M118.039 10.3543C122.976 14.0549 125.673 23.2793 118.039 32.0984C129.749 25.6888 126.286 12.7713 118.039 0V10.3543Z" fill="url(#paint23_radial_692_1930)"/>
<defs>
<radialGradient id="paint0_radial_692_1930" cx="0" cy="0" r="1" gradientUnits="userSpaceOnUse" gradientTransform="translate(79.7285 111.309) scale(38.311 20.1909)">
<stop stop-color="#E1E1E1"/>
<stop offset="1" stop-color="#FFF4DA"/>
</radialGradient>
<radialGradient id="paint1_radial_692_1930" cx="0" cy="0" r="1" gradientUnits="userSpaceOnUse" gradientTransform="translate(79.7285 111.309) scale(38.311 20.1909)">
<stop stop-color="#E1E1E1"/>
<stop offset="1" stop-color="#FFF4DA"/>
</radialGradient>
<radialGradient id="paint2_radial_692_1930" cx="0" cy="0" r="1" gradientUnits="userSpaceOnUse" gradientTransform="translate(79.7285 111.309) scale(38.311 20.1909)">
<stop stop-color="#E1E1E1"/>
<stop offset="1" stop-color="#FFF4DA"/>
</radialGradient>
<radialGradient id="paint3_radial_692_1930" cx="0" cy="0" r="1" gradientUnits="userSpaceOnUse" gradientTransform="translate(79.7285 111.309) scale(38.311 20.1909)">
<stop stop-color="#E1E1E1"/>
<stop offset="1" stop-color="#FFF4DA"/>
</radialGradient>
<radialGradient id="paint4_radial_692_1930" cx="0" cy="0" r="1" gradientUnits="userSpaceOnUse" gradientTransform="translate(156.351 111.309) rotate(180) scale(38.311 20.1909)">
<stop stop-color="#E1E1E1"/>
<stop offset="1" stop-color="#FFF4DA"/>
</radialGradient>
<radialGradient id="paint5_radial_692_1930" cx="0" cy="0" r="1" gradientUnits="userSpaceOnUse" gradientTransform="translate(156.351 111.309) rotate(180) scale(38.311 20.1909)">
<stop stop-color="#E1E1E1"/>
<stop offset="1" stop-color="#FFF4DA"/>
</radialGradient>
<radialGradient id="paint6_radial_692_1930" cx="0" cy="0" r="1" gradientUnits="userSpaceOnUse" gradientTransform="translate(156.351 111.309) rotate(180) scale(38.311 20.1909)">
<stop stop-color="#E1E1E1"/>
<stop offset="1" stop-color="#FFF4DA"/>
</radialGradient>
<radialGradient id="paint7_radial_692_1930" cx="0" cy="0" r="1" gradientUnits="userSpaceOnUse" gradientTransform="translate(156.351 111.309) rotate(180) scale(38.311 20.1909)">
<stop stop-color="#E1E1E1"/>
<stop offset="1" stop-color="#FFF4DA"/>
</radialGradient>
<radialGradient id="paint8_radial_692_1930" cx="0" cy="0" r="1" gradientUnits="userSpaceOnUse" gradientTransform="translate(59.0197 17.6024) scale(59.0197 17.6024)">
<stop stop-color="#E1E1E1"/>
<stop offset="1" stop-color="#FFF4DA"/>
</radialGradient>
<radialGradient id="paint9_radial_692_1930" cx="0" cy="0" r="1" gradientUnits="userSpaceOnUse" gradientTransform="translate(59.0197 17.6024) scale(59.0197 17.6024)">
<stop stop-color="#E1E1E1"/>
<stop offset="1" stop-color="#FFF4DA"/>
</radialGradient>
<radialGradient id="paint10_radial_692_1930" cx="0" cy="0" r="1" gradientUnits="userSpaceOnUse" gradientTransform="translate(59.0197 17.6024) scale(59.0197 17.6024)">
<stop stop-color="#E1E1E1"/>
<stop offset="1" stop-color="#FFF4DA"/>
</radialGradient>
<radialGradient id="paint11_radial_692_1930" cx="0" cy="0" r="1" gradientUnits="userSpaceOnUse" gradientTransform="translate(59.0197 17.6024) scale(59.0197 17.6024)">
<stop stop-color="#E1E1E1"/>
<stop offset="1" stop-color="#FFF4DA"/>
</radialGradient>
<radialGradient id="paint12_radial_692_1930" cx="0" cy="0" r="1" gradientUnits="userSpaceOnUse" gradientTransform="translate(59.0197 17.6024) scale(59.0197 17.6024)">
<stop stop-color="#E1E1E1"/>
<stop offset="1" stop-color="#FFF4DA"/>
</radialGradient>
<radialGradient id="paint13_radial_692_1930" cx="0" cy="0" r="1" gradientUnits="userSpaceOnUse" gradientTransform="translate(59.0197 17.6024) scale(59.0197 17.6024)">
<stop stop-color="#E1E1E1"/>
<stop offset="1" stop-color="#FFF4DA"/>
</radialGradient>
<radialGradient id="paint14_radial_692_1930" cx="0" cy="0" r="1" gradientUnits="userSpaceOnUse" gradientTransform="translate(59.0197 17.6024) scale(59.0197 17.6024)">
<stop stop-color="#E1E1E1"/>
<stop offset="1" stop-color="#FFF4DA"/>
</radialGradient>
<radialGradient id="paint15_radial_692_1930" cx="0" cy="0" r="1" gradientUnits="userSpaceOnUse" gradientTransform="translate(59.0197 17.6024) scale(59.0197 17.6024)">
<stop stop-color="#E1E1E1"/>
<stop offset="1" stop-color="#FFF4DA"/>
</radialGradient>
<radialGradient id="paint16_radial_692_1930" cx="0" cy="0" r="1" gradientUnits="userSpaceOnUse" gradientTransform="translate(177.059 17.6024) rotate(180) scale(59.0197 17.6024)">
<stop stop-color="#E1E1E1"/>
<stop offset="1" stop-color="#FFF4DA"/>
</radialGradient>
<radialGradient id="paint17_radial_692_1930" cx="0" cy="0" r="1" gradientUnits="userSpaceOnUse" gradientTransform="translate(177.059 17.6024) rotate(180) scale(59.0197 17.6024)">
<stop stop-color="#E1E1E1"/>
<stop offset="1" stop-color="#FFF4DA"/>
</radialGradient>
<radialGradient id="paint18_radial_692_1930" cx="0" cy="0" r="1" gradientUnits="userSpaceOnUse" gradientTransform="translate(177.059 17.6024) rotate(180) scale(59.0197 17.6024)">
<stop stop-color="#E1E1E1"/>
<stop offset="1" stop-color="#FFF4DA"/>
</radialGradient>
<radialGradient id="paint19_radial_692_1930" cx="0" cy="0" r="1" gradientUnits="userSpaceOnUse" gradientTransform="translate(177.059 17.6024) rotate(180) scale(59.0197 17.6024)">
<stop stop-color="#E1E1E1"/>
<stop offset="1" stop-color="#FFF4DA"/>
</radialGradient>
<radialGradient id="paint20_radial_692_1930" cx="0" cy="0" r="1" gradientUnits="userSpaceOnUse" gradientTransform="translate(177.059 17.6024) rotate(180) scale(59.0197 17.6024)">
<stop stop-color="#E1E1E1"/>
<stop offset="1" stop-color="#FFF4DA"/>
</radialGradient>
<radialGradient id="paint21_radial_692_1930" cx="0" cy="0" r="1" gradientUnits="userSpaceOnUse" gradientTransform="translate(177.059 17.6024) rotate(180) scale(59.0197 17.6024)">
<stop stop-color="#E1E1E1"/>
<stop offset="1" stop-color="#FFF4DA"/>
</radialGradient>
<radialGradient id="paint22_radial_692_1930" cx="0" cy="0" r="1" gradientUnits="userSpaceOnUse" gradientTransform="translate(177.059 17.6024) rotate(180) scale(59.0197 17.6024)">
<stop stop-color="#E1E1E1"/>
<stop offset="1" stop-color="#FFF4DA"/>
</radialGradient>
<radialGradient id="paint23_radial_692_1930" cx="0" cy="0" r="1" gradientUnits="userSpaceOnUse" gradientTransform="translate(177.059 17.6024) rotate(180) scale(59.0197 17.6024)">
<stop stop-color="#E1E1E1"/>
<stop offset="1" stop-color="#FFF4DA"/>
</radialGradient>
</defs>
</svg>
