<svg width="237" height="132" viewBox="0 0 237 132" fill="none" xmlns="http://www.w3.org/2000/svg">
<path d="M50.713 108.06C49.3894 108.487 47.9219 108.504 46.7174 107.809C44.5799 106.575 44.1417 105.154 44.5239 102.508V102.508C42.8803 103.056 42.0634 104.953 43.0344 106.388C43.9981 107.812 45.0942 108.974 46.6272 110.246C47.9176 111.316 49.57 111.855 51.2463 111.812C56.4411 111.679 59.0354 110.851 62.1261 108.72C61.1055 110.641 61.1623 111.76 61.9889 113.6C62.061 113.76 62.2573 113.822 62.4081 113.731C64.083 112.73 65.0044 111.892 66.2679 109.756C66.2159 114.032 66.9848 113.977 70.4096 114.933C67.5199 110.86 68.053 109.221 70.1985 106.254C70.9963 105.151 72.1264 104.331 73.4058 103.866L78.5781 101.985C81.3347 100.982 84.3491 100.942 87.1317 101.869L104.174 107.55C104.308 107.435 104.443 107.326 104.579 107.223V104.508C104.579 103.403 105.474 102.508 106.579 102.508H108.791C109.896 102.508 110.791 103.403 110.791 104.508V105.614H111.827V103.472C111.827 102.368 110.931 101.472 109.827 101.472H105.543C104.439 101.472 103.543 102.368 103.543 103.472V106.65C98.7741 103.748 93.5326 101.584 86.7262 99.7769C82.8461 98.747 78.7539 99.0145 74.9333 100.247L50.713 108.06Z" fill="url(#paint0_radial_692_2098)"/>
<path fill-rule="evenodd" clip-rule="evenodd" d="M118.04 111.827V108.721C115.458 105.74 114.164 105.799 111.827 105.614H110.791C108.063 105.589 106.223 105.979 104.579 107.223V107.685L104.174 107.55C103.27 108.327 102.41 109.382 101.473 110.791C94.423 108.167 92.2423 105.859 84.6309 104.117C82.7932 103.696 80.8384 103.854 79.1738 104.739C77.1411 105.82 75.7483 107.075 74.4009 109.235C73.7981 110.201 73.7054 111.42 74.2151 112.438C75.05 114.107 76.2503 115.417 79.1381 117.128C80.1191 117.709 81.351 117.62 82.2789 116.957L86.2804 114.099C87.2189 113.429 87.4133 112.09 86.6216 111.251C84.8307 109.354 83.7232 109.09 81.7994 109.756C83.0247 110.067 83.7478 110.456 84.3965 111.688C84.7601 112.378 84.5523 113.216 84.0005 113.767L82.2759 115.492C81.3711 116.397 79.9668 116.664 78.906 115.948C77.392 114.927 76.4786 113.802 75.488 112.283C74.8942 111.372 74.8544 110.185 75.4804 109.296C77.1885 106.871 79.0768 106.022 82.8348 105.614C87.5143 105.758 93.9739 109.592 101.473 112.862C101.611 115.305 101.827 117.608 105.431 119.531C106.15 119.915 107.027 119.733 107.604 119.156L110.252 116.508C110.55 116.21 110.55 115.727 110.252 115.429V115.429C109.972 115.149 109.522 115.134 109.211 115.381C104.883 118.812 103.35 117.017 102.508 112.862C108.785 113.743 111.601 112.063 112.862 106.65H114.933L118.04 111.827ZM102.508 111.827C105.324 107.593 107.417 106.549 111.827 106.65C109.582 111.782 107.624 113.001 102.508 111.827Z" fill="url(#paint1_radial_692_2098)"/>
<path d="M118.04 114.933V111.827C116.112 115.763 116.189 118.074 110.791 119.075C111.96 121.038 112.806 121.636 114.933 121.146C115.325 125.201 115.718 127.472 118.04 131.5V125.287C116.703 121.107 116.953 118.865 118.04 114.933Z" fill="url(#paint2_radial_692_2098)"/>
<path d="M115.969 98.3662C116.06 94.792 116.696 93.3936 118.04 91.1182V105.614C115.723 100.811 114.342 99.4138 111.827 99.4015C113.365 97.8121 114.277 97.3638 115.969 98.3662Z" fill="url(#paint3_radial_692_2098)"/>
<path d="M185.366 108.06C186.69 108.487 188.157 108.504 189.362 107.809C191.499 106.575 191.937 105.154 191.555 102.508V102.508C193.199 103.056 194.016 104.953 193.045 106.388C192.081 107.812 190.985 108.974 189.452 110.246C188.161 111.316 186.509 111.855 184.833 111.812C179.638 111.679 177.044 110.851 173.953 108.72C174.974 110.641 174.917 111.76 174.09 113.6C174.018 113.76 173.822 113.822 173.671 113.731C171.996 112.73 171.075 111.892 169.811 109.756C169.863 114.032 169.094 113.977 165.669 114.933C168.559 110.86 168.026 109.221 165.881 106.254C165.083 105.151 163.953 104.331 162.673 103.866L157.501 101.985C154.744 100.982 151.73 100.942 148.947 101.869L131.905 107.55C131.771 107.435 131.636 107.326 131.5 107.223V104.508C131.5 103.403 130.605 102.508 129.5 102.508H127.288C126.183 102.508 125.288 103.403 125.288 104.508V105.614H124.252V103.472C124.252 102.368 125.148 101.472 126.252 101.472H130.536C131.64 101.472 132.536 102.368 132.536 103.472V106.65C137.305 103.748 142.547 101.584 149.353 99.7769C153.233 98.747 157.325 99.0145 161.146 100.247L185.366 108.06Z" fill="url(#paint4_radial_692_2098)"/>
<path fill-rule="evenodd" clip-rule="evenodd" d="M118.04 111.827V108.721C120.621 105.74 121.915 105.799 124.252 105.614H125.288C128.016 105.589 129.856 105.979 131.5 107.223V107.685L131.905 107.55C132.809 108.327 133.669 109.382 134.607 110.791C141.656 108.167 143.837 105.859 151.448 104.117C153.286 103.696 155.241 103.854 156.905 104.739C158.938 105.82 160.331 107.075 161.678 109.235C162.281 110.201 162.374 111.42 161.864 112.438C161.029 114.107 159.829 115.417 156.941 117.128C155.96 117.709 154.728 117.62 153.8 116.957L149.799 114.099C148.86 113.429 148.666 112.09 149.457 111.251C151.248 109.354 152.356 109.09 154.28 109.756C153.054 110.067 152.331 110.456 151.683 111.688C151.319 112.378 151.527 113.216 152.079 113.767L153.803 115.492C154.708 116.397 156.112 116.664 157.173 115.948C158.687 114.927 159.601 113.802 160.591 112.283C161.185 111.372 161.225 110.185 160.599 109.296C158.891 106.871 157.002 106.022 153.244 105.614C148.565 105.758 142.105 109.592 134.607 112.862C134.468 115.305 134.252 117.608 130.648 119.531C129.929 119.915 129.052 119.733 128.475 119.156L125.827 116.508C125.529 116.21 125.529 115.727 125.827 115.429V115.429C126.107 115.149 126.557 115.134 126.868 115.381C131.196 118.812 132.729 117.017 133.571 112.862C127.294 113.743 124.479 112.063 123.217 106.65H121.146L118.04 111.827ZM133.571 111.827C130.755 107.593 128.662 106.549 124.252 106.65C126.497 111.782 128.455 113.001 133.571 111.827Z" fill="url(#paint5_radial_692_2098)"/>
<path d="M118.04 114.933V111.827C119.967 115.763 119.89 118.074 125.288 119.075C124.119 121.038 123.273 121.636 121.146 121.146C120.755 125.201 120.362 127.472 118.04 131.5V125.287C119.376 121.107 119.126 118.865 118.04 114.933Z" fill="url(#paint6_radial_692_2098)"/>
<path d="M120.11 98.3662C120.019 94.792 119.383 93.3936 118.04 91.1182V105.614C120.356 100.811 121.737 99.4138 124.252 99.4015C122.714 97.8121 121.802 97.3638 120.11 98.3662Z" fill="url(#paint7_radial_692_2098)"/>
<path d="M81.5625 46.3398C83.4961 46.3398 85.2292 46.8411 86.7617 47.8438C88.3086 48.832 89.5332 50.1641 90.4355 51.8398C91.3379 53.5156 91.7891 55.3776 91.7891 57.4258C91.7891 60.5339 91.0514 63.4701 89.5762 66.2344C88.6022 68.082 87.3848 69.7005 85.9238 71.0898C84.4629 72.4648 82.8587 73.5319 81.1113 74.291C79.3783 75.0501 77.5807 75.4297 75.7188 75.4297C73.6849 75.4297 71.9017 74.9284 70.3691 73.9258C68.8509 72.9232 67.6693 71.5482 66.8242 69.8008C65.9935 68.0534 65.5781 66.0768 65.5781 63.8711C65.5781 60.8919 66.3659 58.0345 67.9414 55.2988C69.0013 53.4655 70.2617 51.8828 71.7227 50.5508C73.1836 49.2044 74.7591 48.166 76.4492 47.4355C78.1393 46.7051 79.8438 46.3398 81.5625 46.3398ZM80.5742 48.1445C79.0273 48.1445 77.5807 48.5814 76.2344 49.4551C74.9023 50.3145 73.7279 51.4746 72.7109 52.9355C71.694 54.3965 70.8991 56.0436 70.3262 57.877C69.7676 59.7103 69.4883 61.5938 69.4883 63.5273C69.4883 65.4753 69.7747 67.2083 70.3477 68.7266C70.9206 70.2305 71.7513 71.4193 72.8398 72.293C73.9427 73.1523 75.2747 73.582 76.8359 73.582C78.3255 73.582 79.7292 73.1452 81.0469 72.2715C82.3789 71.3835 83.5534 70.1947 84.5703 68.7051C85.5872 67.2155 86.3822 65.5469 86.9551 63.6992C87.5423 61.8516 87.8359 59.9609 87.8359 58.0273C87.8359 56.1081 87.5495 54.4108 86.9766 52.9355C86.418 51.446 85.5944 50.2786 84.5059 49.4336C83.4316 48.5742 82.1211 48.1445 80.5742 48.1445ZM110.438 46.3828L109.793 49.6055L105.754 70.4453C105.668 70.7891 105.625 71.1471 105.625 71.5195C105.625 72.2357 105.768 72.5938 106.055 72.5938C106.413 72.5938 106.842 72.3431 107.344 71.8418C107.845 71.3262 108.275 70.8893 108.633 70.5312L108.891 70.2305C108.948 70.2305 109.055 70.3665 109.213 70.6387C109.37 70.9108 109.449 71.1042 109.449 71.2188C109.206 71.6341 108.762 72.1641 108.117 72.8086C107.487 73.4531 106.799 74.026 106.055 74.5273C105.31 75.0143 104.637 75.2578 104.035 75.2578C103.577 75.2578 103.219 75.0501 102.961 74.6348C102.703 74.2194 102.574 73.6823 102.574 73.0234C102.574 72.5938 102.674 71.8346 102.875 70.7461C102.904 70.6029 102.954 70.388 103.025 70.1016C103.097 69.8151 103.133 69.6432 103.133 69.5859C102.947 69.9154 102.739 70.252 102.51 70.5957C102.295 70.9395 102.066 71.2904 101.822 71.6484C101.493 72.1354 101.049 72.6582 100.49 73.2168C99.946 73.7611 99.3659 74.2337 98.75 74.6348C98.1484 75.0215 97.5898 75.2148 97.0742 75.2148C95.7565 75.2148 94.7396 74.6491 94.0234 73.5176C93.3073 72.3861 92.9492 71.0182 92.9492 69.4141C92.9492 67.8672 93.3073 66.3203 94.0234 64.7734C94.7539 63.2266 95.7135 61.8158 96.9023 60.541C98.0911 59.2663 99.4017 58.2422 100.834 57.4688C102.281 56.6953 103.72 56.3086 105.152 56.3086H105.711L106.914 49.9062C107 49.4909 107.043 49.0898 107.043 48.7031C107.043 48.1589 106.169 47.8867 104.422 47.8867C104.336 47.8867 104.293 47.8008 104.293 47.6289C104.293 47.2852 104.408 46.9987 104.637 46.7695C106.585 46.5977 108.432 46.1966 110.18 45.5664C110.352 45.6667 110.438 45.9388 110.438 46.3828ZM104.336 63.1406L104.852 60.3477C104.966 59.8034 104.909 59.3236 104.68 58.9082C104.451 58.4928 104.064 58.2852 103.52 58.2852C102.646 58.2852 101.772 58.5859 100.898 59.1875C100.025 59.7891 99.2298 60.5911 98.5137 61.5938C97.7975 62.582 97.2174 63.6849 96.7734 64.9023C96.3438 66.1055 96.1289 67.3229 96.1289 68.5547C96.1289 71.3333 96.8594 72.7227 98.3203 72.7227C98.8503 72.7227 99.416 72.4362 100.018 71.8633C100.633 71.276 101.228 70.5098 101.801 69.5645C102.374 68.6191 102.882 67.5879 103.326 66.4707C103.785 65.3392 104.121 64.2292 104.336 63.1406ZM119.891 47.2422C120.32 47.2422 120.686 47.4141 120.986 47.7578C121.287 48.1016 121.438 48.5026 121.438 48.9609C121.438 49.6484 121.215 50.25 120.771 50.7656C120.327 51.2812 119.776 51.5391 119.117 51.5391C118.659 51.5391 118.301 51.36 118.043 51.002C117.785 50.6439 117.656 50.207 117.656 49.6914C117.656 49.0326 117.871 48.4596 118.301 47.9727C118.73 47.4857 119.26 47.2422 119.891 47.2422ZM118.645 56.3086C119.103 56.3086 119.461 56.5163 119.719 56.9316C119.977 57.347 120.105 57.8841 120.105 58.543C120.105 59.1302 120.02 59.8893 119.848 60.8203L117.957 70.4453C117.871 70.7891 117.828 71.1471 117.828 71.5195C117.828 72.2357 117.971 72.5938 118.258 72.5938C118.616 72.5938 119.046 72.3431 119.547 71.8418C120.048 71.3262 120.478 70.8893 120.836 70.5312L121.094 70.2305C121.151 70.2305 121.258 70.3665 121.416 70.6387C121.574 70.9108 121.652 71.1042 121.652 71.2188C121.409 71.6341 120.965 72.1641 120.32 72.8086C119.69 73.4531 119.003 74.026 118.258 74.5273C117.513 75.0143 116.84 75.2578 116.238 75.2578C115.78 75.2578 115.422 75.0501 115.164 74.6348C114.906 74.2194 114.777 73.6823 114.777 73.0234C114.777 72.5938 114.878 71.8346 115.078 70.7461L116.84 61.7656C116.983 60.9206 117.055 60.3477 117.055 60.0469C117.055 59.3307 116.911 58.9727 116.625 58.9727C116.453 58.9727 116.217 59.0872 115.916 59.3164C115.63 59.5456 115.35 59.8034 115.078 60.0898C114.806 60.362 114.605 60.5768 114.477 60.7344L114.262 60.9922C114.204 60.9922 114.097 60.8561 113.939 60.584C113.782 60.3118 113.703 60.1185 113.703 60.0039C113.932 59.6172 114.348 59.1374 114.949 58.5645C115.551 57.9772 116.195 57.4544 116.883 56.9961C117.57 56.5378 118.158 56.3086 118.645 56.3086ZM130.762 56.3086C131.621 56.3086 132.33 57.0391 132.889 58.5C133.462 59.9896 133.841 61.9017 134.027 64.2363C134.171 65.8118 134.271 67.1439 134.328 68.2324C134.4 69.321 134.443 70.2949 134.457 71.1543C134.486 72.0137 134.5 72.8945 134.5 73.7969C135.245 72.8802 136.004 71.7773 136.777 70.4883C137.551 69.1992 138.202 67.8743 138.732 66.5137C139.262 65.153 139.527 63.8997 139.527 62.7539C139.527 61.0781 139.169 59.5456 138.453 58.1562C138.826 56.9245 139.542 56.3086 140.602 56.3086C141.862 56.3086 142.492 57.4401 142.492 59.7031C142.492 62.8685 141.26 66.485 138.797 70.5527C137.565 72.5866 136.226 74.4772 134.779 76.2246C133.347 77.9863 131.9 79.526 130.439 80.8438C128.979 82.1615 127.596 83.1855 126.293 83.916C124.99 84.6465 123.858 85.0117 122.898 85.0117C122.154 85.0117 121.538 84.8398 121.051 84.4961C120.564 84.1523 120.32 83.737 120.32 83.25C120.32 82.3333 120.65 81.7031 121.309 81.3594C121.939 81.7318 122.898 81.918 124.188 81.918C126.579 81.918 128.642 80.6432 130.375 78.0938C131.034 77.1341 131.363 75.2148 131.363 72.3359C131.363 70.9323 131.327 69.5358 131.256 68.1465C131.184 66.7572 131.055 65.332 130.869 63.8711C130.769 63.0404 130.618 62.2526 130.418 61.5078C130.232 60.763 130.003 60.1543 129.73 59.6816C129.458 59.209 129.143 58.9727 128.785 58.9727C128.527 58.9727 128.141 59.2161 127.625 59.7031C127.109 60.1901 126.708 60.6198 126.422 60.9922C126.365 60.9922 126.257 60.8561 126.1 60.584C125.942 60.3118 125.863 60.1185 125.863 60.0039C125.949 59.7891 126.178 59.4811 126.551 59.0801C126.938 58.679 127.389 58.2637 127.904 57.834C128.42 57.4043 128.936 57.0462 129.451 56.7598C129.967 56.459 130.404 56.3086 130.762 56.3086ZM157.145 56.3086C158.204 56.3086 159.25 56.4948 160.281 56.8672L157.66 70.4453C157.574 70.7891 157.531 71.1471 157.531 71.5195C157.531 72.2357 157.674 72.5938 157.961 72.5938C158.319 72.5938 158.749 72.3431 159.25 71.8418C159.751 71.3262 160.181 70.8893 160.539 70.5312L160.797 70.2305C160.854 70.2305 160.962 70.3665 161.119 70.6387C161.277 70.9108 161.355 71.1042 161.355 71.2188C161.112 71.6341 160.668 72.1641 160.023 72.8086C159.393 73.4531 158.706 74.026 157.961 74.5273C157.216 75.0143 156.543 75.2578 155.941 75.2578C155.483 75.2578 155.125 75.0501 154.867 74.6348C154.609 74.2194 154.48 73.6823 154.48 73.0234C154.48 72.5794 154.581 71.8203 154.781 70.7461L154.932 69.9941C154.975 69.7936 154.996 69.6719 154.996 69.6289C154.767 70.0586 154.438 70.5885 154.008 71.2188C153.578 71.8346 153.084 72.4505 152.525 73.0664C151.967 73.6823 151.38 74.1979 150.764 74.6133C150.148 75.0143 149.539 75.2148 148.938 75.2148C147.677 75.2148 146.682 74.6491 145.951 73.5176C145.221 72.3861 144.855 71.0182 144.855 69.4141C144.855 67.3659 145.464 65.3249 146.682 63.291C147.498 61.916 148.472 60.7057 149.604 59.6602C150.749 58.6146 151.974 57.7982 153.277 57.2109C154.581 56.6094 155.87 56.3086 157.145 56.3086ZM155.34 58.2852C154.495 58.2852 153.643 58.5859 152.783 59.1875C151.924 59.7747 151.136 60.5697 150.42 61.5723C149.704 62.5605 149.124 63.6634 148.68 64.8809C148.25 66.084 148.035 67.2943 148.035 68.5117C148.035 71.319 148.766 72.7227 150.227 72.7227C150.742 72.7227 151.301 72.4362 151.902 71.8633C152.504 71.2904 153.098 70.5312 153.686 69.5859C154.273 68.6406 154.788 67.6165 155.232 66.5137C155.691 65.3965 156.027 64.3008 156.242 63.2266L157.102 58.8438C156.758 58.4714 156.171 58.2852 155.34 58.2852ZM165.352 56.9531H168.359L169.391 51.7109C169.477 51.4245 170.178 51.2812 171.496 51.2812C171.783 51.2812 172.04 51.2956 172.27 51.3242L171.195 56.9531H175.105C175.249 56.9531 175.32 57.1393 175.32 57.5117C175.32 57.8411 175.191 58.2565 174.934 58.7578H170.852L168.574 70.4453C168.488 70.7891 168.445 71.1471 168.445 71.5195C168.445 72.2357 168.589 72.5938 168.875 72.5938C169.233 72.5938 169.663 72.3431 170.164 71.8418C170.665 71.3262 171.095 70.8893 171.453 70.5312L171.711 70.2305C171.768 70.2305 171.876 70.3665 172.033 70.6387C172.191 70.9108 172.27 71.1042 172.27 71.2188C172.026 71.6341 171.582 72.1641 170.938 72.8086C170.307 73.4531 169.62 74.026 168.875 74.5273C168.13 75.0143 167.457 75.2578 166.855 75.2578C166.397 75.2578 166.039 75.0501 165.781 74.6348C165.523 74.2194 165.395 73.6823 165.395 73.0234C165.395 72.5938 165.495 71.8346 165.695 70.7461L168.016 58.7578H164.965C164.879 58.7578 164.836 58.6003 164.836 58.2852C164.836 57.9128 165.008 57.4688 165.352 56.9531Z" fill="white"/>
<path d="M0 14.4961C6.30012 20.0984 15.0791 19.1979 30.687 15.1421C32.2497 14.736 33.9168 14.9601 35.3059 15.7832L61.0905 31.063L35.3304 19.6141C33.9205 18.9874 32.3183 18.9353 30.8588 19.4358C12.5496 25.7159 4.73674 24.7283 0 14.4961Z" fill="url(#paint8_radial_692_2098)"/>
<path d="M16.5669 25.8858C22.7094 27.5488 34.4861 19.1752 43.5027 24.2129C35.7991 20.3448 24.9274 34.7378 16.5669 25.8858Z" fill="url(#paint9_radial_692_2098)"/>
<path d="M42.4528 34.1693C40.4746 32.9379 39.8039 31.791 39.5364 30.2054C39.314 28.8871 40.2138 27.6374 41.514 27.3262C46.4064 26.1551 49.6595 27.3172 54.8779 31.063C50.3759 26.3362 46.8249 25.2844 39.6469 25.78C38.7972 25.8387 38.0191 26.2751 37.5081 26.9564L36.1669 28.7446C35.6047 29.4943 35.6307 30.5432 36.2784 31.2205C38.4425 33.4837 39.9798 34.1156 42.4528 34.1693Z" fill="url(#paint10_radial_692_2098)"/>
<path d="M61.0905 28.9921C48.8725 19.5072 53.131 18.6378 60.0551 10.3543C56.6285 8.93238 54.8937 8.83857 52.8071 12.4252C51.2879 8.29387 49.7783 6.42726 45.559 4.14173C43.8524 8.52031 44.6321 10.6991 46.5945 14.4961C42.9378 12.0347 40.7471 11.3823 36.2402 13.4606C46.3046 17.727 45.2926 18.8748 61.0905 28.9921Z" fill="url(#paint11_radial_692_2098)"/>
<path d="M78.6929 22.7441C78.6929 22.1918 79.1406 21.7441 79.6929 21.7441H79.7638C80.3161 21.7441 80.7638 22.1918 80.7638 22.7441V25.9213C80.7638 26.4735 80.3161 26.9213 79.7638 26.9213H74.4803C73.3757 26.9213 72.4803 26.0258 72.4803 24.9213V19.6024C72.4803 18.4978 73.3757 17.6024 74.4803 17.6024H78.7281C80.6137 17.6024 82.4755 18.023 84.178 18.8337V18.8337C85.2965 19.3663 86.1249 20.3629 86.4441 21.5599L88.3399 28.6695C89.2063 31.9182 86.6836 35.0788 83.3237 34.9544L68.0679 34.3894C64.7776 34.2675 62.2002 31.5169 62.2923 28.2256L62.6948 13.8426C62.7856 10.5955 65.4441 8.01038 68.6924 8.01038H83.0387C86.0229 8.01038 88.8896 9.21712 90.915 11.4088C101.807 23.194 109.097 33.3225 115.395 32.2299C115.685 32.1796 115.968 32.3916 115.968 32.686V32.686C115.968 32.9325 115.766 33.1318 115.519 33.1285C109.37 33.045 105.37 32.4313 87.653 13.254C86.5367 12.0456 85.0793 11.1983 83.4735 10.8414L77.8584 9.59364C77.0431 9.41248 76.199 9.4035 75.3801 9.56728L71.091 10.4251C68.2865 10.986 66.2677 13.4485 66.2677 16.3086V27.0984C66.2677 29.8599 68.5063 32.0984 71.2677 32.0984H80.9055C83.1146 32.0984 84.9055 30.3076 84.9055 28.0984V22.6378C84.9055 20.4287 83.1146 18.6378 80.9055 18.6378H76.5512C75.4466 18.6378 74.5512 19.5332 74.5512 20.6378V24.8858C74.5512 25.4381 74.9989 25.8858 75.5512 25.8858H77.6929C78.2452 25.8858 78.6929 25.4381 78.6929 24.8858V22.7441Z" fill="url(#paint12_radial_692_2098)"/>
<path d="M104.412 33.0631C96.4743 29.9513 88.3242 12.4066 78.6929 13.4606C91.6665 19.2326 92.9183 31.4785 104.412 33.0631Z" fill="url(#paint13_radial_692_2098)"/>
<path d="M111.827 30.0276C106.485 21.6827 106.361 16.9143 110.791 8.28346C105.363 9.71409 97.6256 19.5114 111.827 30.0276Z" fill="url(#paint14_radial_692_2098)"/>
<path d="M118.039 10.3543C113.102 14.0549 110.405 23.2793 118.039 32.0984C106.33 25.6888 109.793 12.7713 118.039 0V10.3543Z" fill="url(#paint15_radial_692_2098)"/>
<path d="M236.079 14.4961C229.778 20.0984 221 19.1979 205.392 15.1421C203.829 14.736 202.162 14.9601 200.773 15.7832L174.988 31.063L200.748 19.6141C202.158 18.9874 203.76 18.9353 205.22 19.4358C223.529 25.7159 231.342 24.7283 236.079 14.4961Z" fill="url(#paint16_radial_692_2098)"/>
<path d="M219.512 25.8858C213.369 27.5488 201.593 19.1752 192.576 24.2129C200.279 20.3448 211.151 34.7378 219.512 25.8858Z" fill="url(#paint17_radial_692_2098)"/>
<path d="M193.626 34.1693C195.604 32.9379 196.275 31.791 196.542 30.2054C196.765 28.8871 195.865 27.6374 194.565 27.3262C189.672 26.1551 186.419 27.3172 181.201 31.063C185.703 26.3362 189.254 25.2844 196.432 25.78C197.281 25.8387 198.06 26.2751 198.571 26.9564L199.912 28.7446C200.474 29.4943 200.448 30.5432 199.8 31.2205C197.636 33.4837 196.099 34.1156 193.626 34.1693Z" fill="url(#paint18_radial_692_2098)"/>
<path d="M174.988 28.9921C187.206 19.5072 182.948 18.6378 176.024 10.3543C179.45 8.93238 181.185 8.83857 183.272 12.4252C184.791 8.29387 186.3 6.42726 190.52 4.14173C192.226 8.52031 191.446 10.6991 189.484 14.4961C193.141 12.0347 195.331 11.3823 199.838 13.4606C189.774 17.727 190.786 18.8748 174.988 28.9921Z" fill="url(#paint19_radial_692_2098)"/>
<path d="M157.386 22.7441C157.386 22.1918 156.938 21.7441 156.386 21.7441H156.315C155.763 21.7441 155.315 22.1918 155.315 22.7441V25.9213C155.315 26.4735 155.763 26.9213 156.315 26.9213H161.598C162.703 26.9213 163.598 26.0258 163.598 24.9213V19.6024C163.598 18.4978 162.703 17.6024 161.598 17.6024H157.351C155.465 17.6024 153.603 18.023 151.901 18.8337V18.8337C150.782 19.3663 149.954 20.3629 149.635 21.5599L147.739 28.6695C146.872 31.9182 149.395 35.0788 152.755 34.9544L168.011 34.3894C171.301 34.2675 173.878 31.5169 173.786 28.2256L173.384 13.8426C173.293 10.5955 170.635 8.01038 167.386 8.01038H153.04C150.056 8.01038 147.189 9.21712 145.164 11.4088C134.272 23.194 126.982 33.3225 120.683 32.2299C120.393 32.1796 120.11 32.3916 120.11 32.686V32.686C120.11 32.9325 120.313 33.1318 120.559 33.1285C126.708 33.045 130.709 32.4313 148.426 13.254C149.542 12.0456 150.999 11.1983 152.605 10.8414L158.22 9.59364C159.035 9.41248 159.88 9.4035 160.698 9.56728L164.988 10.4251C167.792 10.986 169.811 13.4485 169.811 16.3086V27.0984C169.811 29.8599 167.572 32.0984 164.811 32.0984H155.173C152.964 32.0984 151.173 30.3076 151.173 28.0984V22.6378C151.173 20.4287 152.964 18.6378 155.173 18.6378H159.527C160.632 18.6378 161.527 19.5332 161.527 20.6378V24.8858C161.527 25.4381 161.08 25.8858 160.527 25.8858H158.386C157.833 25.8858 157.386 25.4381 157.386 24.8858V22.7441Z" fill="url(#paint20_radial_692_2098)"/>
<path d="M131.666 33.0631C139.604 29.9513 147.754 12.4066 157.386 13.4606C144.412 19.2326 143.16 31.4785 131.666 33.0631Z" fill="url(#paint21_radial_692_2098)"/>
<path d="M124.252 30.0276C129.594 21.6827 129.718 16.9143 125.287 8.28346C130.716 9.71409 138.453 19.5114 124.252 30.0276Z" fill="url(#paint22_radial_692_2098)"/>
<path d="M118.039 10.3543C122.976 14.0549 125.673 23.2793 118.039 32.0984C129.749 25.6888 126.286 12.7713 118.039 0V10.3543Z" fill="url(#paint23_radial_692_2098)"/>
<defs>
<radialGradient id="paint0_radial_692_2098" cx="0" cy="0" r="1" gradientUnits="userSpaceOnUse" gradientTransform="translate(79.7285 111.309) scale(38.311 20.1909)">
<stop stop-color="#E1E1E1"/>
<stop offset="1" stop-color="#FFF4DA"/>
</radialGradient>
<radialGradient id="paint1_radial_692_2098" cx="0" cy="0" r="1" gradientUnits="userSpaceOnUse" gradientTransform="translate(79.7285 111.309) scale(38.311 20.1909)">
<stop stop-color="#E1E1E1"/>
<stop offset="1" stop-color="#FFF4DA"/>
</radialGradient>
<radialGradient id="paint2_radial_692_2098" cx="0" cy="0" r="1" gradientUnits="userSpaceOnUse" gradientTransform="translate(79.7285 111.309) scale(38.311 20.1909)">
<stop stop-color="#E1E1E1"/>
<stop offset="1" stop-color="#FFF4DA"/>
</radialGradient>
<radialGradient id="paint3_radial_692_2098" cx="0" cy="0" r="1" gradientUnits="userSpaceOnUse" gradientTransform="translate(79.7285 111.309) scale(38.311 20.1909)">
<stop stop-color="#E1E1E1"/>
<stop offset="1" stop-color="#FFF4DA"/>
</radialGradient>
<radialGradient id="paint4_radial_692_2098" cx="0" cy="0" r="1" gradientUnits="userSpaceOnUse" gradientTransform="translate(156.351 111.309) rotate(180) scale(38.311 20.1909)">
<stop stop-color="#E1E1E1"/>
<stop offset="1" stop-color="#FFF4DA"/>
</radialGradient>
<radialGradient id="paint5_radial_692_2098" cx="0" cy="0" r="1" gradientUnits="userSpaceOnUse" gradientTransform="translate(156.351 111.309) rotate(180) scale(38.311 20.1909)">
<stop stop-color="#E1E1E1"/>
<stop offset="1" stop-color="#FFF4DA"/>
</radialGradient>
<radialGradient id="paint6_radial_692_2098" cx="0" cy="0" r="1" gradientUnits="userSpaceOnUse" gradientTransform="translate(156.351 111.309) rotate(180) scale(38.311 20.1909)">
<stop stop-color="#E1E1E1"/>
<stop offset="1" stop-color="#FFF4DA"/>
</radialGradient>
<radialGradient id="paint7_radial_692_2098" cx="0" cy="0" r="1" gradientUnits="userSpaceOnUse" gradientTransform="translate(156.351 111.309) rotate(180) scale(38.311 20.1909)">
<stop stop-color="#E1E1E1"/>
<stop offset="1" stop-color="#FFF4DA"/>
</radialGradient>
<radialGradient id="paint8_radial_692_2098" cx="0" cy="0" r="1" gradientUnits="userSpaceOnUse" gradientTransform="translate(59.0197 17.6024) scale(59.0197 17.6024)">
<stop stop-color="#E1E1E1"/>
<stop offset="1" stop-color="#FFF4DA"/>
</radialGradient>
<radialGradient id="paint9_radial_692_2098" cx="0" cy="0" r="1" gradientUnits="userSpaceOnUse" gradientTransform="translate(59.0197 17.6024) scale(59.0197 17.6024)">
<stop stop-color="#E1E1E1"/>
<stop offset="1" stop-color="#FFF4DA"/>
</radialGradient>
<radialGradient id="paint10_radial_692_2098" cx="0" cy="0" r="1" gradientUnits="userSpaceOnUse" gradientTransform="translate(59.0197 17.6024) scale(59.0197 17.6024)">
<stop stop-color="#E1E1E1"/>
<stop offset="1" stop-color="#FFF4DA"/>
</radialGradient>
<radialGradient id="paint11_radial_692_2098" cx="0" cy="0" r="1" gradientUnits="userSpaceOnUse" gradientTransform="translate(59.0197 17.6024) scale(59.0197 17.6024)">
<stop stop-color="#E1E1E1"/>
<stop offset="1" stop-color="#FFF4DA"/>
</radialGradient>
<radialGradient id="paint12_radial_692_2098" cx="0" cy="0" r="1" gradientUnits="userSpaceOnUse" gradientTransform="translate(59.0197 17.6024) scale(59.0197 17.6024)">
<stop stop-color="#E1E1E1"/>
<stop offset="1" stop-color="#FFF4DA"/>
</radialGradient>
<radialGradient id="paint13_radial_692_2098" cx="0" cy="0" r="1" gradientUnits="userSpaceOnUse" gradientTransform="translate(59.0197 17.6024) scale(59.0197 17.6024)">
<stop stop-color="#E1E1E1"/>
<stop offset="1" stop-color="#FFF4DA"/>
</radialGradient>
<radialGradient id="paint14_radial_692_2098" cx="0" cy="0" r="1" gradientUnits="userSpaceOnUse" gradientTransform="translate(59.0197 17.6024) scale(59.0197 17.6024)">
<stop stop-color="#E1E1E1"/>
<stop offset="1" stop-color="#FFF4DA"/>
</radialGradient>
<radialGradient id="paint15_radial_692_2098" cx="0" cy="0" r="1" gradientUnits="userSpaceOnUse" gradientTransform="translate(59.0197 17.6024) scale(59.0197 17.6024)">
<stop stop-color="#E1E1E1"/>
<stop offset="1" stop-color="#FFF4DA"/>
</radialGradient>
<radialGradient id="paint16_radial_692_2098" cx="0" cy="0" r="1" gradientUnits="userSpaceOnUse" gradientTransform="translate(177.059 17.6024) rotate(180) scale(59.0197 17.6024)">
<stop stop-color="#E1E1E1"/>
<stop offset="1" stop-color="#FFF4DA"/>
</radialGradient>
<radialGradient id="paint17_radial_692_2098" cx="0" cy="0" r="1" gradientUnits="userSpaceOnUse" gradientTransform="translate(177.059 17.6024) rotate(180) scale(59.0197 17.6024)">
<stop stop-color="#E1E1E1"/>
<stop offset="1" stop-color="#FFF4DA"/>
</radialGradient>
<radialGradient id="paint18_radial_692_2098" cx="0" cy="0" r="1" gradientUnits="userSpaceOnUse" gradientTransform="translate(177.059 17.6024) rotate(180) scale(59.0197 17.6024)">
<stop stop-color="#E1E1E1"/>
<stop offset="1" stop-color="#FFF4DA"/>
</radialGradient>
<radialGradient id="paint19_radial_692_2098" cx="0" cy="0" r="1" gradientUnits="userSpaceOnUse" gradientTransform="translate(177.059 17.6024) rotate(180) scale(59.0197 17.6024)">
<stop stop-color="#E1E1E1"/>
<stop offset="1" stop-color="#FFF4DA"/>
</radialGradient>
<radialGradient id="paint20_radial_692_2098" cx="0" cy="0" r="1" gradientUnits="userSpaceOnUse" gradientTransform="translate(177.059 17.6024) rotate(180) scale(59.0197 17.6024)">
<stop stop-color="#E1E1E1"/>
<stop offset="1" stop-color="#FFF4DA"/>
</radialGradient>
<radialGradient id="paint21_radial_692_2098" cx="0" cy="0" r="1" gradientUnits="userSpaceOnUse" gradientTransform="translate(177.059 17.6024) rotate(180) scale(59.0197 17.6024)">
<stop stop-color="#E1E1E1"/>
<stop offset="1" stop-color="#FFF4DA"/>
</radialGradient>
<radialGradient id="paint22_radial_692_2098" cx="0" cy="0" r="1" gradientUnits="userSpaceOnUse" gradientTransform="translate(177.059 17.6024) rotate(180) scale(59.0197 17.6024)">
<stop stop-color="#E1E1E1"/>
<stop offset="1" stop-color="#FFF4DA"/>
</radialGradient>
<radialGradient id="paint23_radial_692_2098" cx="0" cy="0" r="1" gradientUnits="userSpaceOnUse" gradientTransform="translate(177.059 17.6024) rotate(180) scale(59.0197 17.6024)">
<stop stop-color="#E1E1E1"/>
<stop offset="1" stop-color="#FFF4DA"/>
</radialGradient>
</defs>
</svg>
