<svg width="237" height="132" viewBox="0 0 237 132" fill="none" xmlns="http://www.w3.org/2000/svg">
<path d="M50.713 108.06C49.3894 108.487 47.9219 108.504 46.7174 107.809C44.5799 106.575 44.1417 105.154 44.5239 102.508V102.508C42.8803 103.056 42.0634 104.953 43.0344 106.388C43.9981 107.812 45.0942 108.974 46.6272 110.246C47.9176 111.316 49.57 111.855 51.2463 111.812C56.4411 111.679 59.0354 110.851 62.1261 108.72C61.1055 110.641 61.1623 111.76 61.9889 113.6C62.061 113.76 62.2573 113.822 62.4081 113.731C64.083 112.73 65.0044 111.892 66.2679 109.756C66.2159 114.032 66.9848 113.977 70.4096 114.933C67.5199 110.86 68.053 109.221 70.1985 106.254C70.9963 105.151 72.1264 104.331 73.4058 103.866L78.5781 101.985C81.3347 100.982 84.3491 100.942 87.1317 101.869L104.174 107.55C104.308 107.435 104.443 107.326 104.579 107.223V104.508C104.579 103.403 105.474 102.508 106.579 102.508H108.791C109.896 102.508 110.791 103.403 110.791 104.508V105.614H111.827V103.472C111.827 102.368 110.931 101.472 109.827 101.472H105.543C104.439 101.472 103.543 102.368 103.543 103.472V106.65C98.7741 103.748 93.5326 101.584 86.7262 99.7769C82.8461 98.747 78.7539 99.0145 74.9333 100.247L50.713 108.06Z" fill="url(#paint0_radial_692_1842)"/>
<path fill-rule="evenodd" clip-rule="evenodd" d="M118.04 111.827V108.721C115.458 105.74 114.164 105.799 111.827 105.614H110.791C108.063 105.589 106.223 105.979 104.579 107.223V107.685L104.174 107.55C103.27 108.327 102.41 109.382 101.473 110.791C94.423 108.167 92.2423 105.859 84.6309 104.117C82.7932 103.696 80.8384 103.854 79.1738 104.739C77.1411 105.82 75.7483 107.075 74.4009 109.235C73.7981 110.201 73.7054 111.42 74.2151 112.438C75.05 114.107 76.2503 115.417 79.1381 117.128C80.1191 117.709 81.351 117.62 82.2789 116.957L86.2804 114.099C87.2189 113.429 87.4133 112.09 86.6216 111.251C84.8307 109.354 83.7232 109.09 81.7994 109.756C83.0247 110.067 83.7478 110.456 84.3965 111.688C84.7601 112.378 84.5523 113.216 84.0005 113.767L82.2759 115.492C81.3711 116.397 79.9668 116.664 78.906 115.948C77.392 114.927 76.4786 113.802 75.488 112.283C74.8942 111.372 74.8544 110.185 75.4804 109.296C77.1885 106.871 79.0768 106.022 82.8348 105.614C87.5143 105.758 93.9739 109.592 101.473 112.862C101.611 115.305 101.827 117.608 105.431 119.531C106.15 119.915 107.027 119.733 107.604 119.156L110.252 116.508C110.55 116.21 110.55 115.727 110.252 115.429V115.429C109.972 115.149 109.522 115.134 109.211 115.381C104.883 118.812 103.35 117.017 102.508 112.862C108.785 113.743 111.601 112.063 112.862 106.65H114.933L118.04 111.827ZM102.508 111.827C105.324 107.593 107.417 106.549 111.827 106.65C109.582 111.782 107.624 113.001 102.508 111.827Z" fill="url(#paint1_radial_692_1842)"/>
<path d="M118.04 114.933V111.827C116.112 115.763 116.189 118.074 110.791 119.075C111.96 121.038 112.806 121.636 114.933 121.146C115.325 125.201 115.718 127.472 118.04 131.5V125.287C116.703 121.107 116.953 118.865 118.04 114.933Z" fill="url(#paint2_radial_692_1842)"/>
<path d="M115.969 98.3662C116.06 94.792 116.696 93.3936 118.04 91.1182V105.614C115.723 100.811 114.342 99.4138 111.827 99.4015C113.365 97.8121 114.277 97.3638 115.969 98.3662Z" fill="url(#paint3_radial_692_1842)"/>
<path d="M185.366 108.06C186.69 108.487 188.157 108.504 189.362 107.809C191.499 106.575 191.937 105.154 191.555 102.508V102.508C193.199 103.056 194.016 104.953 193.045 106.388C192.081 107.812 190.985 108.974 189.452 110.246C188.161 111.316 186.509 111.855 184.833 111.812C179.638 111.679 177.044 110.851 173.953 108.72C174.974 110.641 174.917 111.76 174.09 113.6C174.018 113.76 173.822 113.822 173.671 113.731C171.996 112.73 171.075 111.892 169.811 109.756C169.863 114.032 169.094 113.977 165.669 114.933C168.559 110.86 168.026 109.221 165.881 106.254C165.083 105.151 163.953 104.331 162.673 103.866L157.501 101.985C154.744 100.982 151.73 100.942 148.947 101.869L131.905 107.55C131.771 107.435 131.636 107.326 131.5 107.223V104.508C131.5 103.403 130.605 102.508 129.5 102.508H127.288C126.183 102.508 125.288 103.403 125.288 104.508V105.614H124.252V103.472C124.252 102.368 125.148 101.472 126.252 101.472H130.536C131.64 101.472 132.536 102.368 132.536 103.472V106.65C137.305 103.748 142.547 101.584 149.353 99.7769C153.233 98.747 157.325 99.0145 161.146 100.247L185.366 108.06Z" fill="url(#paint4_radial_692_1842)"/>
<path fill-rule="evenodd" clip-rule="evenodd" d="M118.04 111.827V108.721C120.621 105.74 121.915 105.799 124.252 105.614H125.288C128.016 105.589 129.856 105.979 131.5 107.223V107.685L131.905 107.55C132.809 108.327 133.669 109.382 134.607 110.791C141.656 108.167 143.837 105.859 151.448 104.117C153.286 103.696 155.241 103.854 156.905 104.739C158.938 105.82 160.331 107.075 161.678 109.235C162.281 110.201 162.374 111.42 161.864 112.438C161.029 114.107 159.829 115.417 156.941 117.128C155.96 117.709 154.728 117.62 153.8 116.957L149.799 114.099C148.86 113.429 148.666 112.09 149.457 111.251C151.248 109.354 152.356 109.09 154.28 109.756C153.054 110.067 152.331 110.456 151.683 111.688C151.319 112.378 151.527 113.216 152.079 113.767L153.803 115.492C154.708 116.397 156.112 116.664 157.173 115.948C158.687 114.927 159.601 113.802 160.591 112.283C161.185 111.372 161.225 110.185 160.599 109.296C158.891 106.871 157.002 106.022 153.244 105.614C148.565 105.758 142.105 109.592 134.607 112.862C134.468 115.305 134.252 117.608 130.648 119.531C129.929 119.915 129.052 119.733 128.475 119.156L125.827 116.508C125.529 116.21 125.529 115.727 125.827 115.429V115.429C126.107 115.149 126.557 115.134 126.868 115.381C131.196 118.812 132.729 117.017 133.571 112.862C127.294 113.743 124.479 112.063 123.217 106.65H121.146L118.04 111.827ZM133.571 111.827C130.755 107.593 128.662 106.549 124.252 106.65C126.497 111.782 128.455 113.001 133.571 111.827Z" fill="url(#paint5_radial_692_1842)"/>
<path d="M118.04 114.933V111.827C119.967 115.763 119.89 118.074 125.288 119.075C124.119 121.038 123.273 121.636 121.146 121.146C120.755 125.201 120.362 127.472 118.04 131.5V125.287C119.376 121.107 119.126 118.865 118.04 114.933Z" fill="url(#paint6_radial_692_1842)"/>
<path d="M120.11 98.3662C120.019 94.792 119.383 93.3936 118.04 91.1182V105.614C120.356 100.811 121.737 99.4138 124.252 99.4015C122.714 97.8121 121.802 97.3638 120.11 98.3662Z" fill="url(#paint7_radial_692_1842)"/>
<path d="M83.5625 46.3398C85.4961 46.3398 87.2292 46.8411 88.7617 47.8438C90.3086 48.832 91.5332 50.1641 92.4355 51.8398C93.3379 53.5156 93.7891 55.3776 93.7891 57.4258C93.7891 59.4023 93.4668 61.3431 92.8223 63.248C92.1777 65.1387 91.2754 66.8861 90.1152 68.4902C88.9551 70.0944 87.6016 71.4622 86.0547 72.5938C83.4193 74.5273 80.3542 75.8307 76.8594 76.5039C77.7044 76.6042 79.7096 77.3346 82.875 78.6953C86.0117 80.0417 88.5469 80.7148 90.4805 80.7148C91.1966 80.7148 91.9557 80.5645 92.7578 80.2637C93.5742 79.9772 94.3405 79.6263 95.0566 79.2109C95.7728 78.7956 96.3385 78.4089 96.7539 78.0508C97.4128 78.3659 97.7422 78.7096 97.7422 79.082C97.3984 79.5404 96.7611 80.0775 95.8301 80.6934C94.8991 81.3092 93.8177 81.8464 92.5859 82.3047C91.3685 82.763 90.1367 82.9922 88.8906 82.9922C87.0286 82.9922 85.2311 82.6986 83.498 82.1113C81.765 81.5241 79.7096 80.7148 77.332 79.6836C74.9401 78.6523 72.5911 77.8359 70.2852 77.2344C70.2852 77.1198 70.3783 76.9264 70.5645 76.6543C70.7507 76.3822 70.9154 76.2174 71.0586 76.1602C71.4596 76.1458 72.9779 75.8307 75.6133 75.2148C73.9805 74.8854 72.5625 74.1908 71.3594 73.1309C70.1562 72.071 69.2253 70.7461 68.5664 69.1562C67.9076 67.5521 67.5781 65.7904 67.5781 63.8711C67.5781 60.8919 68.3659 58.0345 69.9414 55.2988C71.0013 53.4655 72.2617 51.8828 73.7227 50.5508C75.1836 49.2044 76.7591 48.166 78.4492 47.4355C80.1393 46.7051 81.8438 46.3398 83.5625 46.3398ZM82.5742 48.1445C81.0273 48.1445 79.5807 48.5814 78.2344 49.4551C76.9023 50.3145 75.7279 51.4746 74.7109 52.9355C73.694 54.3965 72.8991 56.0436 72.3262 57.877C71.7676 59.7103 71.4883 61.5938 71.4883 63.5273C71.4883 65.4753 71.7747 67.2083 72.3477 68.7266C72.9206 70.2305 73.7513 71.4193 74.8398 72.293C75.9427 73.1523 77.2747 73.582 78.8359 73.582C80.3255 73.582 81.7292 73.1452 83.0469 72.2715C84.3789 71.3835 85.5534 70.1947 86.5703 68.7051C87.5872 67.2155 88.3822 65.5469 88.9551 63.6992C89.5423 61.8516 89.8359 59.9609 89.8359 58.0273C89.8359 56.1081 89.5495 54.4108 88.9766 52.9355C88.418 51.446 87.5944 50.2786 86.5059 49.4336C85.4316 48.5742 84.1211 48.1445 82.5742 48.1445ZM106.895 56.3086C107.954 56.3086 109 56.4948 110.031 56.8672L107.41 70.4453C107.324 70.7891 107.281 71.1471 107.281 71.5195C107.281 72.2357 107.424 72.5938 107.711 72.5938C108.069 72.5938 108.499 72.3431 109 71.8418C109.501 71.3262 109.931 70.8893 110.289 70.5312L110.547 70.2305C110.604 70.2305 110.712 70.3665 110.869 70.6387C111.027 70.9108 111.105 71.1042 111.105 71.2188C110.862 71.6341 110.418 72.1641 109.773 72.8086C109.143 73.4531 108.456 74.026 107.711 74.5273C106.966 75.0143 106.293 75.2578 105.691 75.2578C105.233 75.2578 104.875 75.0501 104.617 74.6348C104.359 74.2194 104.23 73.6823 104.23 73.0234C104.23 72.5794 104.331 71.8203 104.531 70.7461L104.682 69.9941C104.725 69.7936 104.746 69.6719 104.746 69.6289C104.517 70.0586 104.188 70.5885 103.758 71.2188C103.328 71.8346 102.834 72.4505 102.275 73.0664C101.717 73.6823 101.13 74.1979 100.514 74.6133C99.8978 75.0143 99.2891 75.2148 98.6875 75.2148C97.4271 75.2148 96.4316 74.6491 95.7012 73.5176C94.9707 72.3861 94.6055 71.0182 94.6055 69.4141C94.6055 67.3659 95.2142 65.3249 96.4316 63.291C97.248 61.916 98.222 60.7057 99.3535 59.6602C100.499 58.6146 101.724 57.7982 103.027 57.2109C104.331 56.6094 105.62 56.3086 106.895 56.3086ZM105.09 58.2852C104.245 58.2852 103.393 58.5859 102.533 59.1875C101.674 59.7747 100.886 60.5697 100.17 61.5723C99.4538 62.5605 98.8737 63.6634 98.4297 64.8809C98 66.084 97.7852 67.2943 97.7852 68.5117C97.7852 71.319 98.5156 72.7227 99.9766 72.7227C100.492 72.7227 101.051 72.4362 101.652 71.8633C102.254 71.2904 102.848 70.5312 103.436 69.5859C104.023 68.6406 104.538 67.6165 104.982 66.5137C105.441 65.3965 105.777 64.3008 105.992 63.2266L106.852 58.8438C106.508 58.4714 105.921 58.2852 105.09 58.2852ZM114.715 70.7461L118.754 49.9062C118.84 49.4766 118.883 49.0755 118.883 48.7031C118.883 48.1589 118.009 47.8867 116.262 47.8867C116.176 47.8867 116.133 47.8008 116.133 47.6289C116.133 47.2852 116.247 46.9987 116.477 46.7695C118.396 46.5977 120.229 46.1966 121.977 45.5664C122.148 45.6523 122.234 45.9245 122.234 46.3828C122.234 46.6979 122.048 47.7721 121.676 49.6055L117.594 70.4453C117.508 70.7891 117.465 71.1471 117.465 71.5195C117.465 72.2357 117.608 72.5938 117.895 72.5938C118.066 72.5938 118.274 72.515 118.518 72.3574C118.761 72.1999 119.012 72.0065 119.27 71.7773C119.527 71.5482 119.821 71.2546 120.15 70.8965C120.48 70.5241 120.673 70.3021 120.73 70.2305C120.816 70.2305 120.931 70.3665 121.074 70.6387C121.217 70.9108 121.289 71.1042 121.289 71.2188C121.046 71.6341 120.602 72.1641 119.957 72.8086C119.327 73.4531 118.639 74.026 117.895 74.5273C117.15 75.0143 116.477 75.2578 115.875 75.2578C115.445 75.2578 115.094 75.0501 114.822 74.6348C114.55 74.2194 114.414 73.6823 114.414 73.0234C114.414 72.5794 114.514 71.8203 114.715 70.7461ZM136.457 56.3086C137.517 56.3086 138.562 56.4948 139.594 56.8672L136.973 70.4453C136.887 70.7891 136.844 71.1471 136.844 71.5195C136.844 72.2357 136.987 72.5938 137.273 72.5938C137.632 72.5938 138.061 72.3431 138.562 71.8418C139.064 71.3262 139.493 70.8893 139.852 70.5312L140.109 70.2305C140.167 70.2305 140.274 70.3665 140.432 70.6387C140.589 70.9108 140.668 71.1042 140.668 71.2188C140.424 71.6341 139.98 72.1641 139.336 72.8086C138.706 73.4531 138.018 74.026 137.273 74.5273C136.529 75.0143 135.855 75.2578 135.254 75.2578C134.796 75.2578 134.438 75.0501 134.18 74.6348C133.922 74.2194 133.793 73.6823 133.793 73.0234C133.793 72.5794 133.893 71.8203 134.094 70.7461L134.244 69.9941C134.287 69.7936 134.309 69.6719 134.309 69.6289C134.079 70.0586 133.75 70.5885 133.32 71.2188C132.891 71.8346 132.396 72.4505 131.838 73.0664C131.279 73.6823 130.692 74.1979 130.076 74.6133C129.46 75.0143 128.852 75.2148 128.25 75.2148C126.99 75.2148 125.994 74.6491 125.264 73.5176C124.533 72.3861 124.168 71.0182 124.168 69.4141C124.168 67.3659 124.777 65.3249 125.994 63.291C126.811 61.916 127.785 60.7057 128.916 59.6602C130.062 58.6146 131.286 57.7982 132.59 57.2109C133.893 56.6094 135.182 56.3086 136.457 56.3086ZM134.652 58.2852C133.807 58.2852 132.955 58.5859 132.096 59.1875C131.236 59.7747 130.449 60.5697 129.732 61.5723C129.016 62.5605 128.436 63.6634 127.992 64.8809C127.562 66.084 127.348 67.2943 127.348 68.5117C127.348 71.319 128.078 72.7227 129.539 72.7227C130.055 72.7227 130.613 72.4362 131.215 71.8633C131.816 71.2904 132.411 70.5312 132.998 69.5859C133.585 68.6406 134.101 67.6165 134.545 66.5137C135.003 65.3965 135.34 64.3008 135.555 63.2266L136.414 58.8438C136.07 58.4714 135.483 58.2852 134.652 58.2852ZM157.254 56.3086C158.027 56.3086 158.622 56.5378 159.037 56.9961C159.452 57.4544 159.703 57.9342 159.789 58.4355C159.875 58.9368 159.918 59.5885 159.918 60.3906C159.918 60.9206 159.717 62.1953 159.316 64.2148C159.789 63.3984 160.376 62.5319 161.078 61.6152C161.78 60.6986 162.518 59.8392 163.291 59.0371C164.064 58.235 164.809 57.5833 165.525 57.082C166.242 56.5664 166.85 56.3086 167.352 56.3086C168.297 56.3086 168.941 56.5449 169.285 57.0176C169.629 57.4902 169.801 58.1992 169.801 59.1445C169.801 60.4766 169.6 62.0378 169.199 63.8281L167.781 70.4453C167.695 70.7891 167.652 71.1471 167.652 71.5195C167.652 72.2357 167.796 72.5938 168.082 72.5938C168.44 72.5938 168.87 72.3431 169.371 71.8418C169.872 71.3262 170.302 70.8893 170.66 70.5312L170.918 70.2305C170.975 70.2305 171.083 70.3665 171.24 70.6387C171.398 70.9108 171.477 71.1042 171.477 71.2188C171.233 71.6341 170.789 72.1641 170.145 72.8086C169.514 73.4531 168.827 74.026 168.082 74.5273C167.337 75.0143 166.664 75.2578 166.062 75.2578C165.604 75.2578 165.246 75.0501 164.988 74.6348C164.73 74.2194 164.602 73.6823 164.602 73.0234C164.602 72.5938 164.702 71.8346 164.902 70.7461L166.406 63.6562C166.607 62.6823 166.707 61.9089 166.707 61.3359C166.707 60.8346 166.664 60.4049 166.578 60.0469C166.507 59.6745 166.277 59.4883 165.891 59.4883C165.404 59.4883 164.766 59.832 163.979 60.5195C163.205 61.207 162.403 62.1165 161.572 63.248C160.742 64.3652 159.997 65.597 159.338 66.9434C158.679 68.2754 158.228 69.6003 157.984 70.918L157.211 75H154.332L156.738 62.7969C156.853 62.1523 156.91 61.6081 156.91 61.1641C156.91 60.0469 156.624 59.4883 156.051 59.4883C155.549 59.4883 154.912 59.8678 154.139 60.627C153.365 61.3861 152.57 62.3672 151.754 63.5703C150.938 64.7734 150.207 66.0553 149.562 67.416C148.918 68.7624 148.474 70.0299 148.23 71.2188L147.457 75C146.655 75.1146 146.168 75.1719 145.996 75.1719C145.853 75.1719 145.38 75.1146 144.578 75L147.156 61.7656C147.299 60.7773 147.371 60.2044 147.371 60.0469C147.371 59.3307 147.228 58.9727 146.941 58.9727C146.698 58.9727 146.333 59.2018 145.846 59.6602C145.617 59.8893 145.366 60.14 145.094 60.4121C144.836 60.6842 144.664 60.8776 144.578 60.9922C144.521 60.9922 144.413 60.8561 144.256 60.584C144.098 60.3118 144.02 60.1185 144.02 60.0039C144.249 59.6172 144.664 59.1374 145.266 58.5645C145.867 57.9772 146.512 57.4544 147.199 56.9961C147.887 56.5378 148.474 56.3086 148.961 56.3086C149.419 56.3086 149.777 56.5163 150.035 56.9316C150.293 57.347 150.422 57.8841 150.422 58.543C150.422 59.1732 150.336 59.9323 150.164 60.8203L149.391 64.8164C149.921 63.8997 150.529 62.9473 151.217 61.959C151.919 60.9707 152.635 60.0469 153.365 59.1875C154.11 58.3281 154.819 57.6335 155.492 57.1035C156.165 56.5736 156.753 56.3086 157.254 56.3086Z" fill="white"/>
<path d="M0 14.4961C6.30012 20.0984 15.0791 19.1979 30.687 15.1421C32.2497 14.736 33.9168 14.9601 35.3059 15.7832L61.0905 31.063L35.3304 19.6141C33.9205 18.9874 32.3183 18.9353 30.8588 19.4358C12.5496 25.7159 4.73674 24.7283 0 14.4961Z" fill="url(#paint8_radial_692_1842)"/>
<path d="M16.5669 25.8858C22.7094 27.5488 34.4861 19.1752 43.5027 24.2129C35.7991 20.3448 24.9274 34.7378 16.5669 25.8858Z" fill="url(#paint9_radial_692_1842)"/>
<path d="M42.4528 34.1693C40.4746 32.9379 39.8039 31.791 39.5364 30.2054C39.314 28.8871 40.2138 27.6374 41.514 27.3262C46.4064 26.1551 49.6595 27.3172 54.8779 31.063C50.3759 26.3362 46.8249 25.2844 39.6469 25.78C38.7972 25.8387 38.0191 26.2751 37.5081 26.9564L36.1669 28.7446C35.6047 29.4943 35.6307 30.5432 36.2784 31.2205C38.4425 33.4837 39.9798 34.1156 42.4528 34.1693Z" fill="url(#paint10_radial_692_1842)"/>
<path d="M61.0905 28.9921C48.8725 19.5072 53.131 18.6378 60.0551 10.3543C56.6285 8.93238 54.8937 8.83857 52.8071 12.4252C51.2879 8.29387 49.7783 6.42726 45.559 4.14173C43.8524 8.52031 44.6321 10.6991 46.5945 14.4961C42.9378 12.0347 40.7471 11.3823 36.2402 13.4606C46.3046 17.727 45.2926 18.8748 61.0905 28.9921Z" fill="url(#paint11_radial_692_1842)"/>
<path d="M78.6929 22.7441C78.6929 22.1918 79.1406 21.7441 79.6929 21.7441H79.7638C80.3161 21.7441 80.7638 22.1918 80.7638 22.7441V25.9213C80.7638 26.4735 80.3161 26.9213 79.7638 26.9213H74.4803C73.3757 26.9213 72.4803 26.0258 72.4803 24.9213V19.6024C72.4803 18.4978 73.3757 17.6024 74.4803 17.6024H78.7281C80.6137 17.6024 82.4755 18.023 84.178 18.8337V18.8337C85.2965 19.3663 86.1249 20.3629 86.4441 21.5599L88.3399 28.6695C89.2063 31.9182 86.6836 35.0788 83.3237 34.9544L68.0679 34.3894C64.7776 34.2675 62.2002 31.5169 62.2923 28.2256L62.6948 13.8426C62.7856 10.5955 65.4441 8.01038 68.6924 8.01038H83.0387C86.0229 8.01038 88.8896 9.21712 90.915 11.4088C101.807 23.194 109.097 33.3225 115.395 32.2299C115.685 32.1796 115.968 32.3916 115.968 32.686V32.686C115.968 32.9325 115.766 33.1318 115.519 33.1285C109.37 33.045 105.37 32.4313 87.653 13.254C86.5367 12.0456 85.0793 11.1983 83.4735 10.8414L77.8584 9.59364C77.0431 9.41248 76.199 9.4035 75.3801 9.56728L71.091 10.4251C68.2865 10.986 66.2677 13.4485 66.2677 16.3086V27.0984C66.2677 29.8599 68.5063 32.0984 71.2677 32.0984H80.9055C83.1146 32.0984 84.9055 30.3076 84.9055 28.0984V22.6378C84.9055 20.4287 83.1146 18.6378 80.9055 18.6378H76.5512C75.4466 18.6378 74.5512 19.5332 74.5512 20.6378V24.8858C74.5512 25.4381 74.9989 25.8858 75.5512 25.8858H77.6929C78.2452 25.8858 78.6929 25.4381 78.6929 24.8858V22.7441Z" fill="url(#paint12_radial_692_1842)"/>
<path d="M104.412 33.0631C96.4743 29.9513 88.3242 12.4066 78.6929 13.4606C91.6665 19.2326 92.9183 31.4785 104.412 33.0631Z" fill="url(#paint13_radial_692_1842)"/>
<path d="M111.827 30.0276C106.485 21.6827 106.361 16.9143 110.791 8.28346C105.363 9.71409 97.6256 19.5114 111.827 30.0276Z" fill="url(#paint14_radial_692_1842)"/>
<path d="M118.039 10.3543C113.102 14.0549 110.405 23.2793 118.039 32.0984C106.33 25.6888 109.793 12.7713 118.039 0V10.3543Z" fill="url(#paint15_radial_692_1842)"/>
<path d="M236.079 14.4961C229.778 20.0984 221 19.1979 205.392 15.1421C203.829 14.736 202.162 14.9601 200.773 15.7832L174.988 31.063L200.748 19.6141C202.158 18.9874 203.76 18.9353 205.22 19.4358C223.529 25.7159 231.342 24.7283 236.079 14.4961Z" fill="url(#paint16_radial_692_1842)"/>
<path d="M219.512 25.8858C213.369 27.5488 201.593 19.1752 192.576 24.2129C200.279 20.3448 211.151 34.7378 219.512 25.8858Z" fill="url(#paint17_radial_692_1842)"/>
<path d="M193.626 34.1693C195.604 32.9379 196.275 31.791 196.542 30.2054C196.765 28.8871 195.865 27.6374 194.565 27.3262C189.672 26.1551 186.419 27.3172 181.201 31.063C185.703 26.3362 189.254 25.2844 196.432 25.78C197.281 25.8387 198.06 26.2751 198.571 26.9564L199.912 28.7446C200.474 29.4943 200.448 30.5432 199.8 31.2205C197.636 33.4837 196.099 34.1156 193.626 34.1693Z" fill="url(#paint18_radial_692_1842)"/>
<path d="M174.988 28.9921C187.206 19.5072 182.948 18.6378 176.024 10.3543C179.45 8.93238 181.185 8.83857 183.272 12.4252C184.791 8.29387 186.3 6.42726 190.52 4.14173C192.226 8.52031 191.446 10.6991 189.484 14.4961C193.141 12.0347 195.331 11.3823 199.838 13.4606C189.774 17.727 190.786 18.8748 174.988 28.9921Z" fill="url(#paint19_radial_692_1842)"/>
<path d="M157.386 22.7441C157.386 22.1918 156.938 21.7441 156.386 21.7441H156.315C155.763 21.7441 155.315 22.1918 155.315 22.7441V25.9213C155.315 26.4735 155.763 26.9213 156.315 26.9213H161.598C162.703 26.9213 163.598 26.0258 163.598 24.9213V19.6024C163.598 18.4978 162.703 17.6024 161.598 17.6024H157.351C155.465 17.6024 153.603 18.023 151.901 18.8337V18.8337C150.782 19.3663 149.954 20.3629 149.635 21.5599L147.739 28.6695C146.872 31.9182 149.395 35.0788 152.755 34.9544L168.011 34.3894C171.301 34.2675 173.878 31.5169 173.786 28.2256L173.384 13.8426C173.293 10.5955 170.635 8.01038 167.386 8.01038H153.04C150.056 8.01038 147.189 9.21712 145.164 11.4088C134.272 23.194 126.982 33.3225 120.683 32.2299C120.393 32.1796 120.11 32.3916 120.11 32.686V32.686C120.11 32.9325 120.313 33.1318 120.559 33.1285C126.708 33.045 130.709 32.4313 148.426 13.254C149.542 12.0456 150.999 11.1983 152.605 10.8414L158.22 9.59364C159.035 9.41248 159.88 9.4035 160.698 9.56728L164.988 10.4251C167.792 10.986 169.811 13.4485 169.811 16.3086V27.0984C169.811 29.8599 167.572 32.0984 164.811 32.0984H155.173C152.964 32.0984 151.173 30.3076 151.173 28.0984V22.6378C151.173 20.4287 152.964 18.6378 155.173 18.6378H159.527C160.632 18.6378 161.527 19.5332 161.527 20.6378V24.8858C161.527 25.4381 161.08 25.8858 160.527 25.8858H158.386C157.833 25.8858 157.386 25.4381 157.386 24.8858V22.7441Z" fill="url(#paint20_radial_692_1842)"/>
<path d="M131.666 33.0631C139.604 29.9513 147.754 12.4066 157.386 13.4606C144.412 19.2326 143.16 31.4785 131.666 33.0631Z" fill="url(#paint21_radial_692_1842)"/>
<path d="M124.252 30.0276C129.594 21.6827 129.718 16.9143 125.287 8.28346C130.716 9.71409 138.453 19.5114 124.252 30.0276Z" fill="url(#paint22_radial_692_1842)"/>
<path d="M118.039 10.3543C122.976 14.0549 125.673 23.2793 118.039 32.0984C129.749 25.6888 126.286 12.7713 118.039 0V10.3543Z" fill="url(#paint23_radial_692_1842)"/>
<defs>
<radialGradient id="paint0_radial_692_1842" cx="0" cy="0" r="1" gradientUnits="userSpaceOnUse" gradientTransform="translate(79.7285 111.309) scale(38.311 20.1909)">
<stop stop-color="#E1E1E1"/>
<stop offset="1" stop-color="#FFF4DA"/>
</radialGradient>
<radialGradient id="paint1_radial_692_1842" cx="0" cy="0" r="1" gradientUnits="userSpaceOnUse" gradientTransform="translate(79.7285 111.309) scale(38.311 20.1909)">
<stop stop-color="#E1E1E1"/>
<stop offset="1" stop-color="#FFF4DA"/>
</radialGradient>
<radialGradient id="paint2_radial_692_1842" cx="0" cy="0" r="1" gradientUnits="userSpaceOnUse" gradientTransform="translate(79.7285 111.309) scale(38.311 20.1909)">
<stop stop-color="#E1E1E1"/>
<stop offset="1" stop-color="#FFF4DA"/>
</radialGradient>
<radialGradient id="paint3_radial_692_1842" cx="0" cy="0" r="1" gradientUnits="userSpaceOnUse" gradientTransform="translate(79.7285 111.309) scale(38.311 20.1909)">
<stop stop-color="#E1E1E1"/>
<stop offset="1" stop-color="#FFF4DA"/>
</radialGradient>
<radialGradient id="paint4_radial_692_1842" cx="0" cy="0" r="1" gradientUnits="userSpaceOnUse" gradientTransform="translate(156.351 111.309) rotate(180) scale(38.311 20.1909)">
<stop stop-color="#E1E1E1"/>
<stop offset="1" stop-color="#FFF4DA"/>
</radialGradient>
<radialGradient id="paint5_radial_692_1842" cx="0" cy="0" r="1" gradientUnits="userSpaceOnUse" gradientTransform="translate(156.351 111.309) rotate(180) scale(38.311 20.1909)">
<stop stop-color="#E1E1E1"/>
<stop offset="1" stop-color="#FFF4DA"/>
</radialGradient>
<radialGradient id="paint6_radial_692_1842" cx="0" cy="0" r="1" gradientUnits="userSpaceOnUse" gradientTransform="translate(156.351 111.309) rotate(180) scale(38.311 20.1909)">
<stop stop-color="#E1E1E1"/>
<stop offset="1" stop-color="#FFF4DA"/>
</radialGradient>
<radialGradient id="paint7_radial_692_1842" cx="0" cy="0" r="1" gradientUnits="userSpaceOnUse" gradientTransform="translate(156.351 111.309) rotate(180) scale(38.311 20.1909)">
<stop stop-color="#E1E1E1"/>
<stop offset="1" stop-color="#FFF4DA"/>
</radialGradient>
<radialGradient id="paint8_radial_692_1842" cx="0" cy="0" r="1" gradientUnits="userSpaceOnUse" gradientTransform="translate(59.0197 17.6024) scale(59.0197 17.6024)">
<stop stop-color="#E1E1E1"/>
<stop offset="1" stop-color="#FFF4DA"/>
</radialGradient>
<radialGradient id="paint9_radial_692_1842" cx="0" cy="0" r="1" gradientUnits="userSpaceOnUse" gradientTransform="translate(59.0197 17.6024) scale(59.0197 17.6024)">
<stop stop-color="#E1E1E1"/>
<stop offset="1" stop-color="#FFF4DA"/>
</radialGradient>
<radialGradient id="paint10_radial_692_1842" cx="0" cy="0" r="1" gradientUnits="userSpaceOnUse" gradientTransform="translate(59.0197 17.6024) scale(59.0197 17.6024)">
<stop stop-color="#E1E1E1"/>
<stop offset="1" stop-color="#FFF4DA"/>
</radialGradient>
<radialGradient id="paint11_radial_692_1842" cx="0" cy="0" r="1" gradientUnits="userSpaceOnUse" gradientTransform="translate(59.0197 17.6024) scale(59.0197 17.6024)">
<stop stop-color="#E1E1E1"/>
<stop offset="1" stop-color="#FFF4DA"/>
</radialGradient>
<radialGradient id="paint12_radial_692_1842" cx="0" cy="0" r="1" gradientUnits="userSpaceOnUse" gradientTransform="translate(59.0197 17.6024) scale(59.0197 17.6024)">
<stop stop-color="#E1E1E1"/>
<stop offset="1" stop-color="#FFF4DA"/>
</radialGradient>
<radialGradient id="paint13_radial_692_1842" cx="0" cy="0" r="1" gradientUnits="userSpaceOnUse" gradientTransform="translate(59.0197 17.6024) scale(59.0197 17.6024)">
<stop stop-color="#E1E1E1"/>
<stop offset="1" stop-color="#FFF4DA"/>
</radialGradient>
<radialGradient id="paint14_radial_692_1842" cx="0" cy="0" r="1" gradientUnits="userSpaceOnUse" gradientTransform="translate(59.0197 17.6024) scale(59.0197 17.6024)">
<stop stop-color="#E1E1E1"/>
<stop offset="1" stop-color="#FFF4DA"/>
</radialGradient>
<radialGradient id="paint15_radial_692_1842" cx="0" cy="0" r="1" gradientUnits="userSpaceOnUse" gradientTransform="translate(59.0197 17.6024) scale(59.0197 17.6024)">
<stop stop-color="#E1E1E1"/>
<stop offset="1" stop-color="#FFF4DA"/>
</radialGradient>
<radialGradient id="paint16_radial_692_1842" cx="0" cy="0" r="1" gradientUnits="userSpaceOnUse" gradientTransform="translate(177.059 17.6024) rotate(180) scale(59.0197 17.6024)">
<stop stop-color="#E1E1E1"/>
<stop offset="1" stop-color="#FFF4DA"/>
</radialGradient>
<radialGradient id="paint17_radial_692_1842" cx="0" cy="0" r="1" gradientUnits="userSpaceOnUse" gradientTransform="translate(177.059 17.6024) rotate(180) scale(59.0197 17.6024)">
<stop stop-color="#E1E1E1"/>
<stop offset="1" stop-color="#FFF4DA"/>
</radialGradient>
<radialGradient id="paint18_radial_692_1842" cx="0" cy="0" r="1" gradientUnits="userSpaceOnUse" gradientTransform="translate(177.059 17.6024) rotate(180) scale(59.0197 17.6024)">
<stop stop-color="#E1E1E1"/>
<stop offset="1" stop-color="#FFF4DA"/>
</radialGradient>
<radialGradient id="paint19_radial_692_1842" cx="0" cy="0" r="1" gradientUnits="userSpaceOnUse" gradientTransform="translate(177.059 17.6024) rotate(180) scale(59.0197 17.6024)">
<stop stop-color="#E1E1E1"/>
<stop offset="1" stop-color="#FFF4DA"/>
</radialGradient>
<radialGradient id="paint20_radial_692_1842" cx="0" cy="0" r="1" gradientUnits="userSpaceOnUse" gradientTransform="translate(177.059 17.6024) rotate(180) scale(59.0197 17.6024)">
<stop stop-color="#E1E1E1"/>
<stop offset="1" stop-color="#FFF4DA"/>
</radialGradient>
<radialGradient id="paint21_radial_692_1842" cx="0" cy="0" r="1" gradientUnits="userSpaceOnUse" gradientTransform="translate(177.059 17.6024) rotate(180) scale(59.0197 17.6024)">
<stop stop-color="#E1E1E1"/>
<stop offset="1" stop-color="#FFF4DA"/>
</radialGradient>
<radialGradient id="paint22_radial_692_1842" cx="0" cy="0" r="1" gradientUnits="userSpaceOnUse" gradientTransform="translate(177.059 17.6024) rotate(180) scale(59.0197 17.6024)">
<stop stop-color="#E1E1E1"/>
<stop offset="1" stop-color="#FFF4DA"/>
</radialGradient>
<radialGradient id="paint23_radial_692_1842" cx="0" cy="0" r="1" gradientUnits="userSpaceOnUse" gradientTransform="translate(177.059 17.6024) rotate(180) scale(59.0197 17.6024)">
<stop stop-color="#E1E1E1"/>
<stop offset="1" stop-color="#FFF4DA"/>
</radialGradient>
</defs>
</svg>
