<svg width="237" height="132" viewBox="0 0 237 132" fill="none" xmlns="http://www.w3.org/2000/svg">
<path d="M50.713 108.06C49.3894 108.487 47.9219 108.504 46.7174 107.809C44.5799 106.575 44.1417 105.154 44.5239 102.508V102.508C42.8803 103.056 42.0634 104.953 43.0344 106.388C43.9981 107.812 45.0942 108.974 46.6272 110.246C47.9176 111.316 49.57 111.855 51.2463 111.812C56.4411 111.679 59.0354 110.851 62.1261 108.72C61.1055 110.641 61.1623 111.76 61.9889 113.6C62.061 113.76 62.2573 113.822 62.4081 113.731C64.083 112.73 65.0044 111.892 66.2679 109.756C66.2159 114.032 66.9848 113.977 70.4096 114.933C67.5199 110.86 68.053 109.221 70.1985 106.254C70.9963 105.151 72.1264 104.331 73.4058 103.866L78.5781 101.985C81.3347 100.982 84.3491 100.942 87.1317 101.869L104.174 107.55C104.308 107.435 104.443 107.326 104.579 107.223V104.508C104.579 103.403 105.474 102.508 106.579 102.508H108.791C109.896 102.508 110.791 103.403 110.791 104.508V105.614H111.827V103.472C111.827 102.368 110.931 101.472 109.827 101.472H105.543C104.439 101.472 103.543 102.368 103.543 103.472V106.65C98.7741 103.748 93.5326 101.584 86.7262 99.7769C82.8461 98.747 78.7539 99.0145 74.9333 100.247L50.713 108.06Z" fill="url(#paint0_radial_692_1504)"/>
<path fill-rule="evenodd" clip-rule="evenodd" d="M118.04 111.827V108.721C115.458 105.74 114.164 105.799 111.827 105.614H110.791C108.063 105.589 106.223 105.979 104.579 107.223V107.685L104.174 107.55C103.27 108.327 102.41 109.382 101.473 110.791C94.423 108.167 92.2423 105.859 84.6309 104.117C82.7932 103.696 80.8384 103.854 79.1738 104.739C77.1411 105.82 75.7483 107.075 74.4009 109.235C73.7981 110.201 73.7054 111.42 74.2151 112.438C75.05 114.107 76.2503 115.417 79.1381 117.128C80.1191 117.709 81.351 117.62 82.2789 116.957L86.2804 114.099C87.2189 113.429 87.4133 112.09 86.6216 111.251C84.8307 109.354 83.7232 109.09 81.7994 109.756C83.0247 110.067 83.7478 110.456 84.3965 111.688C84.7601 112.378 84.5523 113.216 84.0005 113.767L82.2759 115.492C81.3711 116.397 79.9668 116.664 78.906 115.948C77.392 114.927 76.4786 113.802 75.488 112.283C74.8942 111.372 74.8544 110.185 75.4804 109.296C77.1885 106.871 79.0768 106.022 82.8348 105.614C87.5143 105.758 93.9739 109.592 101.473 112.862C101.611 115.305 101.827 117.608 105.431 119.531C106.15 119.915 107.027 119.733 107.604 119.156L110.252 116.508C110.55 116.21 110.55 115.727 110.252 115.429V115.429C109.972 115.149 109.522 115.134 109.211 115.381C104.883 118.812 103.35 117.017 102.508 112.862C108.785 113.743 111.601 112.063 112.862 106.65H114.933L118.04 111.827ZM102.508 111.827C105.324 107.593 107.417 106.549 111.827 106.65C109.582 111.782 107.624 113.001 102.508 111.827Z" fill="url(#paint1_radial_692_1504)"/>
<path d="M118.04 114.933V111.827C116.112 115.763 116.189 118.074 110.791 119.075C111.96 121.038 112.806 121.636 114.933 121.146C115.325 125.201 115.718 127.472 118.04 131.5V125.287C116.703 121.107 116.953 118.865 118.04 114.933Z" fill="url(#paint2_radial_692_1504)"/>
<path d="M115.969 98.3662C116.06 94.792 116.696 93.3936 118.04 91.1182V105.614C115.723 100.811 114.342 99.4138 111.827 99.4015C113.365 97.8121 114.277 97.3638 115.969 98.3662Z" fill="url(#paint3_radial_692_1504)"/>
<path d="M185.366 108.06C186.69 108.487 188.157 108.504 189.362 107.809C191.499 106.575 191.937 105.154 191.555 102.508V102.508C193.199 103.056 194.016 104.953 193.045 106.388C192.081 107.812 190.985 108.974 189.452 110.246C188.161 111.316 186.509 111.855 184.833 111.812C179.638 111.679 177.044 110.851 173.953 108.72C174.974 110.641 174.917 111.76 174.09 113.6C174.018 113.76 173.822 113.822 173.671 113.731C171.996 112.73 171.075 111.892 169.811 109.756C169.863 114.032 169.094 113.977 165.669 114.933C168.559 110.86 168.026 109.221 165.881 106.254C165.083 105.151 163.953 104.331 162.673 103.866L157.501 101.985C154.744 100.982 151.73 100.942 148.947 101.869L131.905 107.55C131.771 107.435 131.636 107.326 131.5 107.223V104.508C131.5 103.403 130.605 102.508 129.5 102.508H127.288C126.183 102.508 125.288 103.403 125.288 104.508V105.614H124.252V103.472C124.252 102.368 125.148 101.472 126.252 101.472H130.536C131.64 101.472 132.536 102.368 132.536 103.472V106.65C137.305 103.748 142.547 101.584 149.353 99.7769C153.233 98.747 157.325 99.0145 161.146 100.247L185.366 108.06Z" fill="url(#paint4_radial_692_1504)"/>
<path fill-rule="evenodd" clip-rule="evenodd" d="M118.04 111.827V108.721C120.621 105.74 121.915 105.799 124.252 105.614H125.288C128.016 105.589 129.856 105.979 131.5 107.223V107.685L131.905 107.55C132.809 108.327 133.669 109.382 134.607 110.791C141.656 108.167 143.837 105.859 151.448 104.117C153.286 103.696 155.241 103.854 156.905 104.739C158.938 105.82 160.331 107.075 161.678 109.235C162.281 110.201 162.374 111.42 161.864 112.438C161.029 114.107 159.829 115.417 156.941 117.128C155.96 117.709 154.728 117.62 153.8 116.957L149.799 114.099C148.86 113.429 148.666 112.09 149.457 111.251C151.248 109.354 152.356 109.09 154.28 109.756C153.054 110.067 152.331 110.456 151.683 111.688C151.319 112.378 151.527 113.216 152.079 113.767L153.803 115.492C154.708 116.397 156.112 116.664 157.173 115.948C158.687 114.927 159.601 113.802 160.591 112.283C161.185 111.372 161.225 110.185 160.599 109.296C158.891 106.871 157.002 106.022 153.244 105.614C148.565 105.758 142.105 109.592 134.607 112.862C134.468 115.305 134.252 117.608 130.648 119.531C129.929 119.915 129.052 119.733 128.475 119.156L125.827 116.508C125.529 116.21 125.529 115.727 125.827 115.429V115.429C126.107 115.149 126.557 115.134 126.868 115.381C131.196 118.812 132.729 117.017 133.571 112.862C127.294 113.743 124.479 112.063 123.217 106.65H121.146L118.04 111.827ZM133.571 111.827C130.755 107.593 128.662 106.549 124.252 106.65C126.497 111.782 128.455 113.001 133.571 111.827Z" fill="url(#paint5_radial_692_1504)"/>
<path d="M118.04 114.933V111.827C119.967 115.763 119.89 118.074 125.288 119.075C124.119 121.038 123.273 121.636 121.146 121.146C120.755 125.201 120.362 127.472 118.04 131.5V125.287C119.376 121.107 119.126 118.865 118.04 114.933Z" fill="url(#paint6_radial_692_1504)"/>
<path d="M120.11 98.3662C120.019 94.792 119.383 93.3936 118.04 91.1182V105.614C120.356 100.811 121.737 99.4138 124.252 99.4015C122.714 97.8121 121.802 97.3638 120.11 98.3662Z" fill="url(#paint7_radial_692_1504)"/>
<path d="M84.6719 46.7266C85.474 46.7266 86.2904 46.8197 87.1211 47.0059C87.9518 47.1921 88.7754 47.4928 89.5918 47.9082C90.4082 48.3236 91.0742 48.9323 91.5898 49.7344C92.1055 50.5365 92.3633 51.4818 92.3633 52.5703C92.3633 53.4583 92.1699 54.332 91.7832 55.1914C91.3965 56.0508 90.9382 56.7741 90.4082 57.3613C89.8353 57.9772 89.2194 58.5358 88.5605 59.0371C87.8587 59.5671 87.2643 59.9681 86.7773 60.2402C86.2904 60.5124 85.8464 60.7487 85.4453 60.9492C85.1875 61.0352 85.1159 61.207 85.2305 61.4648C85.6029 62.7253 86.0469 64.0286 86.5625 65.375C87.0781 66.7214 87.6081 67.9674 88.1523 69.1133C88.6966 70.2448 89.1836 71.1471 89.6133 71.8203C89.8568 72.2214 90.1361 72.5794 90.4512 72.8945C90.7663 73.1953 91.0742 73.3958 91.375 73.4961C91.4609 73.5247 91.5326 73.5534 91.5898 73.582C91.6615 73.5964 91.7188 73.6178 91.7617 73.6465C91.8333 73.6751 91.9694 73.7038 92.1699 73.7324C92.2988 73.7467 92.4993 73.7539 92.7715 73.7539C93.0579 73.7539 93.237 73.7539 93.3086 73.7539C93.5091 74.2982 93.5234 74.6992 93.3516 74.957C92.6784 75.1003 91.8477 75.1719 90.8594 75.1719C88.9544 75.1719 87.3932 74.2409 86.1758 72.3789C85.5599 71.4479 84.901 70.1374 84.1992 68.4473C83.4974 66.7572 82.7526 64.6875 81.9648 62.2383C81.8216 61.8372 81.1914 61.6367 80.0742 61.6367C79.1862 61.6367 78.599 61.6725 78.3125 61.7441C78.069 61.8014 77.9115 62.0091 77.8398 62.3672L76.5938 69.0273C76.2786 70.5599 76.1211 71.849 76.1211 72.8945C76.1211 73.1237 76.3145 73.3314 76.7012 73.5176C77.0879 73.7038 77.4674 73.8255 77.8398 73.8828L78.4414 73.9688C78.4987 73.9688 78.5273 74.026 78.5273 74.1406C78.5273 74.4557 78.4414 74.7852 78.2695 75.1289C76.9375 75.0573 75.8991 75.0072 75.1543 74.9785C74.4095 74.9355 73.9583 74.9141 73.8008 74.9141C73.7578 74.9141 73.3424 74.9355 72.5547 74.9785C71.7669 75.0072 70.6068 75.0573 69.0742 75.1289C69.0169 75.0716 68.9883 74.957 68.9883 74.7852C68.9883 74.2409 69.0885 73.9688 69.2891 73.9688C69.5182 73.9688 69.8333 73.9258 70.2344 73.8398C70.6497 73.7539 71.0365 73.6393 71.3945 73.4961C71.7526 73.3529 71.9674 73.1953 72.0391 73.0234C72.3398 72.293 72.7122 70.918 73.1562 68.8984L76.6797 51.1094C76.8229 50.3932 76.8945 49.6771 76.8945 48.9609C76.8945 48.6172 76.6081 48.3522 76.0352 48.166C75.4622 47.9798 74.9896 47.8867 74.6172 47.8867C74.5599 47.8867 74.5312 47.7865 74.5312 47.5859C74.5312 47.1706 74.6315 46.8841 74.832 46.7266C76.0638 46.8125 77.5534 46.8555 79.3008 46.8555C80.1029 46.8555 80.998 46.834 81.9863 46.791C82.9746 46.748 83.8698 46.7266 84.6719 46.7266ZM83.9844 48.3164C82.5234 48.3164 81.5996 48.3594 81.2129 48.4453C80.8405 48.5312 80.6185 48.7604 80.5469 49.1328L78.4844 59.1445V59.2305C78.4844 59.6602 79.1576 59.875 80.5039 59.875C81.8073 59.875 83.0677 59.6243 84.2852 59.123C85.4883 58.6217 86.5267 57.7767 87.4004 56.5879C88.2741 55.3991 88.7109 53.9883 88.7109 52.3555C88.7109 49.6628 87.1354 48.3164 83.9844 48.3164ZM101.645 56.3086C102.103 56.3086 102.461 56.5163 102.719 56.9316C102.977 57.347 103.105 57.8841 103.105 58.543C103.105 59.3021 103.02 60.0612 102.848 60.8203L101.344 67.9102C101.143 68.7839 101.043 69.5573 101.043 70.2305C101.043 71.4622 101.315 72.0781 101.859 72.0781C102.174 72.0781 102.561 71.8991 103.02 71.541C103.492 71.1829 103.979 70.7246 104.48 70.166C104.996 69.6074 105.476 69.0345 105.92 68.4473C106.736 67.373 107.51 66.0625 108.24 64.5156C108.971 62.9688 109.479 61.4362 109.766 59.918L110.496 56.5664C110.883 56.4518 111.327 56.3945 111.828 56.3945C112.315 56.3945 112.802 56.4518 113.289 56.5664L110.625 70.4453C110.539 70.7891 110.496 71.1471 110.496 71.5195C110.496 72.2357 110.639 72.5938 110.926 72.5938C111.284 72.5938 111.714 72.3431 112.215 71.8418C112.716 71.3262 113.146 70.8893 113.504 70.5312L113.762 70.2305C113.819 70.2305 113.926 70.3665 114.084 70.6387C114.242 70.9108 114.32 71.1042 114.32 71.2188C114.077 71.6341 113.633 72.1641 112.988 72.8086C112.358 73.4531 111.671 74.026 110.926 74.5273C110.181 75.0143 109.508 75.2578 108.906 75.2578C108.448 75.2578 108.09 75.0501 107.832 74.6348C107.574 74.2194 107.445 73.6823 107.445 73.0234C107.445 72.5938 107.546 71.8346 107.746 70.7461L108.52 66.793C108.247 67.3086 107.66 68.1966 106.758 69.457C106.171 70.2734 105.462 71.1328 104.631 72.0352C103.814 72.9375 102.998 73.7038 102.182 74.334C101.365 74.9499 100.671 75.2578 100.098 75.2578C98.6654 75.2578 97.9492 74.3125 97.9492 72.4219C97.9492 71.0755 98.1497 69.5143 98.5508 67.7383L99.8398 61.7656C99.9831 60.7773 100.055 60.2044 100.055 60.0469C100.055 59.3307 99.9115 58.9727 99.625 58.9727C99.3815 58.9727 99.0163 59.2018 98.5293 59.6602C98.3001 59.8893 98.0495 60.14 97.7773 60.4121C97.5195 60.6842 97.3477 60.8776 97.2617 60.9922C97.2044 60.9922 97.097 60.8561 96.9395 60.584C96.7819 60.3118 96.7031 60.1185 96.7031 60.0039C96.9323 59.6172 97.3477 59.1374 97.9492 58.5645C98.5508 57.9772 99.1953 57.4544 99.8828 56.9961C100.57 56.5378 101.158 56.3086 101.645 56.3086ZM130.734 56.3086C131.508 56.3086 132.102 56.5378 132.518 56.9961C132.933 57.4544 133.184 57.9342 133.27 58.4355C133.355 58.9368 133.398 59.5885 133.398 60.3906C133.398 60.9206 133.198 62.1953 132.797 64.2148C133.27 63.3984 133.857 62.5319 134.559 61.6152C135.26 60.6986 135.998 59.8392 136.771 59.0371C137.545 58.235 138.29 57.5833 139.006 57.082C139.722 56.5664 140.331 56.3086 140.832 56.3086C141.777 56.3086 142.422 56.5449 142.766 57.0176C143.109 57.4902 143.281 58.1992 143.281 59.1445C143.281 60.4766 143.081 62.0378 142.68 63.8281L141.262 70.4453C141.176 70.7891 141.133 71.1471 141.133 71.5195C141.133 72.2357 141.276 72.5938 141.562 72.5938C141.921 72.5938 142.35 72.3431 142.852 71.8418C143.353 71.3262 143.783 70.8893 144.141 70.5312L144.398 70.2305C144.456 70.2305 144.563 70.3665 144.721 70.6387C144.878 70.9108 144.957 71.1042 144.957 71.2188C144.714 71.6341 144.27 72.1641 143.625 72.8086C142.995 73.4531 142.307 74.026 141.562 74.5273C140.818 75.0143 140.145 75.2578 139.543 75.2578C139.085 75.2578 138.727 75.0501 138.469 74.6348C138.211 74.2194 138.082 73.6823 138.082 73.0234C138.082 72.5938 138.182 71.8346 138.383 70.7461L139.887 63.6562C140.087 62.6823 140.188 61.9089 140.188 61.3359C140.188 60.8346 140.145 60.4049 140.059 60.0469C139.987 59.6745 139.758 59.4883 139.371 59.4883C138.884 59.4883 138.247 59.832 137.459 60.5195C136.686 61.207 135.883 62.1165 135.053 63.248C134.222 64.3652 133.477 65.597 132.818 66.9434C132.16 68.2754 131.708 69.6003 131.465 70.918L130.691 75H127.812L130.219 62.7969C130.333 62.1523 130.391 61.6081 130.391 61.1641C130.391 60.0469 130.104 59.4883 129.531 59.4883C129.03 59.4883 128.393 59.8678 127.619 60.627C126.846 61.3861 126.051 62.3672 125.234 63.5703C124.418 64.7734 123.688 66.0553 123.043 67.416C122.398 68.7624 121.954 70.0299 121.711 71.2188L120.938 75C120.135 75.1146 119.648 75.1719 119.477 75.1719C119.333 75.1719 118.861 75.1146 118.059 75L120.637 61.7656C120.78 60.7773 120.852 60.2044 120.852 60.0469C120.852 59.3307 120.708 58.9727 120.422 58.9727C120.178 58.9727 119.813 59.2018 119.326 59.6602C119.097 59.8893 118.846 60.14 118.574 60.4121C118.316 60.6842 118.145 60.8776 118.059 60.9922C118.001 60.9922 117.894 60.8561 117.736 60.584C117.579 60.3118 117.5 60.1185 117.5 60.0039C117.729 59.6172 118.145 59.1374 118.746 58.5645C119.348 57.9772 119.992 57.4544 120.68 56.9961C121.367 56.5378 121.954 56.3086 122.441 56.3086C122.9 56.3086 123.258 56.5163 123.516 56.9316C123.773 57.347 123.902 57.8841 123.902 58.543C123.902 59.1732 123.816 59.9323 123.645 60.8203L122.871 64.8164C123.401 63.8997 124.01 62.9473 124.697 61.959C125.399 60.9707 126.115 60.0469 126.846 59.1875C127.59 58.3281 128.299 57.6335 128.973 57.1035C129.646 56.5736 130.233 56.3086 130.734 56.3086Z" fill="white"/>
<path d="M0 14.4961C6.30012 20.0984 15.0791 19.1979 30.687 15.1421C32.2497 14.736 33.9168 14.9601 35.3059 15.7832L61.0905 31.063L35.3304 19.6141C33.9205 18.9874 32.3183 18.9353 30.8588 19.4358C12.5496 25.7159 4.73674 24.7283 0 14.4961Z" fill="url(#paint8_radial_692_1504)"/>
<path d="M16.5669 25.8858C22.7094 27.5488 34.4861 19.1752 43.5027 24.2129C35.7991 20.3448 24.9274 34.7378 16.5669 25.8858Z" fill="url(#paint9_radial_692_1504)"/>
<path d="M42.4528 34.1693C40.4746 32.9379 39.8039 31.791 39.5364 30.2054C39.314 28.8871 40.2138 27.6374 41.514 27.3262C46.4064 26.1551 49.6595 27.3172 54.8779 31.063C50.3759 26.3362 46.8249 25.2844 39.6469 25.78C38.7972 25.8387 38.0191 26.2751 37.5081 26.9564L36.1669 28.7446C35.6047 29.4943 35.6307 30.5432 36.2784 31.2205C38.4425 33.4837 39.9798 34.1156 42.4528 34.1693Z" fill="url(#paint10_radial_692_1504)"/>
<path d="M61.0905 28.9921C48.8725 19.5072 53.131 18.6378 60.0551 10.3543C56.6285 8.93238 54.8937 8.83857 52.8071 12.4252C51.2879 8.29387 49.7783 6.42726 45.559 4.14173C43.8524 8.52031 44.6321 10.6991 46.5945 14.4961C42.9378 12.0347 40.7471 11.3823 36.2402 13.4606C46.3046 17.727 45.2926 18.8748 61.0905 28.9921Z" fill="url(#paint11_radial_692_1504)"/>
<path d="M78.6929 22.7441C78.6929 22.1918 79.1406 21.7441 79.6929 21.7441H79.7638C80.3161 21.7441 80.7638 22.1918 80.7638 22.7441V25.9213C80.7638 26.4735 80.3161 26.9213 79.7638 26.9213H74.4803C73.3757 26.9213 72.4803 26.0258 72.4803 24.9213V19.6024C72.4803 18.4978 73.3757 17.6024 74.4803 17.6024H78.7281C80.6137 17.6024 82.4755 18.023 84.178 18.8337V18.8337C85.2965 19.3663 86.1249 20.3629 86.4441 21.5599L88.3399 28.6695C89.2063 31.9182 86.6836 35.0788 83.3237 34.9544L68.0679 34.3894C64.7776 34.2675 62.2002 31.5169 62.2923 28.2256L62.6948 13.8426C62.7856 10.5955 65.4441 8.01038 68.6924 8.01038H83.0387C86.0229 8.01038 88.8896 9.21712 90.915 11.4088C101.807 23.194 109.097 33.3225 115.395 32.2299C115.685 32.1796 115.968 32.3916 115.968 32.686V32.686C115.968 32.9325 115.766 33.1318 115.519 33.1285C109.37 33.045 105.37 32.4313 87.653 13.254C86.5367 12.0456 85.0793 11.1983 83.4735 10.8414L77.8584 9.59364C77.0431 9.41248 76.199 9.4035 75.3801 9.56728L71.091 10.4251C68.2865 10.986 66.2677 13.4485 66.2677 16.3086V27.0984C66.2677 29.8599 68.5063 32.0984 71.2677 32.0984H80.9055C83.1146 32.0984 84.9055 30.3076 84.9055 28.0984V22.6378C84.9055 20.4287 83.1146 18.6378 80.9055 18.6378H76.5512C75.4466 18.6378 74.5512 19.5332 74.5512 20.6378V24.8858C74.5512 25.4381 74.9989 25.8858 75.5512 25.8858H77.6929C78.2452 25.8858 78.6929 25.4381 78.6929 24.8858V22.7441Z" fill="url(#paint12_radial_692_1504)"/>
<path d="M104.412 33.0631C96.4743 29.9513 88.3242 12.4066 78.6929 13.4606C91.6665 19.2326 92.9183 31.4785 104.412 33.0631Z" fill="url(#paint13_radial_692_1504)"/>
<path d="M111.827 30.0276C106.485 21.6827 106.361 16.9143 110.791 8.28346C105.363 9.71409 97.6256 19.5114 111.827 30.0276Z" fill="url(#paint14_radial_692_1504)"/>
<path d="M118.039 10.3543C113.102 14.0549 110.405 23.2793 118.039 32.0984C106.33 25.6888 109.793 12.7713 118.039 0V10.3543Z" fill="url(#paint15_radial_692_1504)"/>
<path d="M236.079 14.4961C229.778 20.0984 221 19.1979 205.392 15.1421C203.829 14.736 202.162 14.9601 200.773 15.7832L174.988 31.063L200.748 19.6141C202.158 18.9874 203.76 18.9353 205.22 19.4358C223.529 25.7159 231.342 24.7283 236.079 14.4961Z" fill="url(#paint16_radial_692_1504)"/>
<path d="M219.512 25.8858C213.369 27.5488 201.593 19.1752 192.576 24.2129C200.279 20.3448 211.151 34.7378 219.512 25.8858Z" fill="url(#paint17_radial_692_1504)"/>
<path d="M193.626 34.1693C195.604 32.9379 196.275 31.791 196.542 30.2054C196.765 28.8871 195.865 27.6374 194.565 27.3262C189.672 26.1551 186.419 27.3172 181.201 31.063C185.703 26.3362 189.254 25.2844 196.432 25.78C197.281 25.8387 198.06 26.2751 198.571 26.9564L199.912 28.7446C200.474 29.4943 200.448 30.5432 199.8 31.2205C197.636 33.4837 196.099 34.1156 193.626 34.1693Z" fill="url(#paint18_radial_692_1504)"/>
<path d="M174.988 28.9921C187.206 19.5072 182.948 18.6378 176.024 10.3543C179.45 8.93238 181.185 8.83857 183.272 12.4252C184.791 8.29387 186.3 6.42726 190.52 4.14173C192.226 8.52031 191.446 10.6991 189.484 14.4961C193.141 12.0347 195.331 11.3823 199.838 13.4606C189.774 17.727 190.786 18.8748 174.988 28.9921Z" fill="url(#paint19_radial_692_1504)"/>
<path d="M157.386 22.7441C157.386 22.1918 156.938 21.7441 156.386 21.7441H156.315C155.763 21.7441 155.315 22.1918 155.315 22.7441V25.9213C155.315 26.4735 155.763 26.9213 156.315 26.9213H161.598C162.703 26.9213 163.598 26.0258 163.598 24.9213V19.6024C163.598 18.4978 162.703 17.6024 161.598 17.6024H157.351C155.465 17.6024 153.603 18.023 151.901 18.8337V18.8337C150.782 19.3663 149.954 20.3629 149.635 21.5599L147.739 28.6695C146.872 31.9182 149.395 35.0788 152.755 34.9544L168.011 34.3894C171.301 34.2675 173.878 31.5169 173.786 28.2256L173.384 13.8426C173.293 10.5955 170.635 8.01038 167.386 8.01038H153.04C150.056 8.01038 147.189 9.21712 145.164 11.4088C134.272 23.194 126.982 33.3225 120.683 32.2299C120.393 32.1796 120.11 32.3916 120.11 32.686V32.686C120.11 32.9325 120.313 33.1318 120.559 33.1285C126.708 33.045 130.709 32.4313 148.426 13.254C149.542 12.0456 150.999 11.1983 152.605 10.8414L158.22 9.59364C159.035 9.41248 159.88 9.4035 160.698 9.56728L164.988 10.4251C167.792 10.986 169.811 13.4485 169.811 16.3086V27.0984C169.811 29.8599 167.572 32.0984 164.811 32.0984H155.173C152.964 32.0984 151.173 30.3076 151.173 28.0984V22.6378C151.173 20.4287 152.964 18.6378 155.173 18.6378H159.527C160.632 18.6378 161.527 19.5332 161.527 20.6378V24.8858C161.527 25.4381 161.08 25.8858 160.527 25.8858H158.386C157.833 25.8858 157.386 25.4381 157.386 24.8858V22.7441Z" fill="url(#paint20_radial_692_1504)"/>
<path d="M131.666 33.0631C139.604 29.9513 147.754 12.4066 157.386 13.4606C144.412 19.2326 143.16 31.4785 131.666 33.0631Z" fill="url(#paint21_radial_692_1504)"/>
<path d="M124.252 30.0276C129.594 21.6827 129.718 16.9143 125.287 8.28346C130.716 9.71409 138.453 19.5114 124.252 30.0276Z" fill="url(#paint22_radial_692_1504)"/>
<path d="M118.039 10.3543C122.976 14.0549 125.673 23.2793 118.039 32.0984C129.749 25.6888 126.286 12.7713 118.039 0V10.3543Z" fill="url(#paint23_radial_692_1504)"/>
<defs>
<radialGradient id="paint0_radial_692_1504" cx="0" cy="0" r="1" gradientUnits="userSpaceOnUse" gradientTransform="translate(79.7285 111.309) scale(38.311 20.1909)">
<stop stop-color="#E1E1E1"/>
<stop offset="1" stop-color="#FFF4DA"/>
</radialGradient>
<radialGradient id="paint1_radial_692_1504" cx="0" cy="0" r="1" gradientUnits="userSpaceOnUse" gradientTransform="translate(79.7285 111.309) scale(38.311 20.1909)">
<stop stop-color="#E1E1E1"/>
<stop offset="1" stop-color="#FFF4DA"/>
</radialGradient>
<radialGradient id="paint2_radial_692_1504" cx="0" cy="0" r="1" gradientUnits="userSpaceOnUse" gradientTransform="translate(79.7285 111.309) scale(38.311 20.1909)">
<stop stop-color="#E1E1E1"/>
<stop offset="1" stop-color="#FFF4DA"/>
</radialGradient>
<radialGradient id="paint3_radial_692_1504" cx="0" cy="0" r="1" gradientUnits="userSpaceOnUse" gradientTransform="translate(79.7285 111.309) scale(38.311 20.1909)">
<stop stop-color="#E1E1E1"/>
<stop offset="1" stop-color="#FFF4DA"/>
</radialGradient>
<radialGradient id="paint4_radial_692_1504" cx="0" cy="0" r="1" gradientUnits="userSpaceOnUse" gradientTransform="translate(156.351 111.309) rotate(180) scale(38.311 20.1909)">
<stop stop-color="#E1E1E1"/>
<stop offset="1" stop-color="#FFF4DA"/>
</radialGradient>
<radialGradient id="paint5_radial_692_1504" cx="0" cy="0" r="1" gradientUnits="userSpaceOnUse" gradientTransform="translate(156.351 111.309) rotate(180) scale(38.311 20.1909)">
<stop stop-color="#E1E1E1"/>
<stop offset="1" stop-color="#FFF4DA"/>
</radialGradient>
<radialGradient id="paint6_radial_692_1504" cx="0" cy="0" r="1" gradientUnits="userSpaceOnUse" gradientTransform="translate(156.351 111.309) rotate(180) scale(38.311 20.1909)">
<stop stop-color="#E1E1E1"/>
<stop offset="1" stop-color="#FFF4DA"/>
</radialGradient>
<radialGradient id="paint7_radial_692_1504" cx="0" cy="0" r="1" gradientUnits="userSpaceOnUse" gradientTransform="translate(156.351 111.309) rotate(180) scale(38.311 20.1909)">
<stop stop-color="#E1E1E1"/>
<stop offset="1" stop-color="#FFF4DA"/>
</radialGradient>
<radialGradient id="paint8_radial_692_1504" cx="0" cy="0" r="1" gradientUnits="userSpaceOnUse" gradientTransform="translate(59.0197 17.6024) scale(59.0197 17.6024)">
<stop stop-color="#E1E1E1"/>
<stop offset="1" stop-color="#FFF4DA"/>
</radialGradient>
<radialGradient id="paint9_radial_692_1504" cx="0" cy="0" r="1" gradientUnits="userSpaceOnUse" gradientTransform="translate(59.0197 17.6024) scale(59.0197 17.6024)">
<stop stop-color="#E1E1E1"/>
<stop offset="1" stop-color="#FFF4DA"/>
</radialGradient>
<radialGradient id="paint10_radial_692_1504" cx="0" cy="0" r="1" gradientUnits="userSpaceOnUse" gradientTransform="translate(59.0197 17.6024) scale(59.0197 17.6024)">
<stop stop-color="#E1E1E1"/>
<stop offset="1" stop-color="#FFF4DA"/>
</radialGradient>
<radialGradient id="paint11_radial_692_1504" cx="0" cy="0" r="1" gradientUnits="userSpaceOnUse" gradientTransform="translate(59.0197 17.6024) scale(59.0197 17.6024)">
<stop stop-color="#E1E1E1"/>
<stop offset="1" stop-color="#FFF4DA"/>
</radialGradient>
<radialGradient id="paint12_radial_692_1504" cx="0" cy="0" r="1" gradientUnits="userSpaceOnUse" gradientTransform="translate(59.0197 17.6024) scale(59.0197 17.6024)">
<stop stop-color="#E1E1E1"/>
<stop offset="1" stop-color="#FFF4DA"/>
</radialGradient>
<radialGradient id="paint13_radial_692_1504" cx="0" cy="0" r="1" gradientUnits="userSpaceOnUse" gradientTransform="translate(59.0197 17.6024) scale(59.0197 17.6024)">
<stop stop-color="#E1E1E1"/>
<stop offset="1" stop-color="#FFF4DA"/>
</radialGradient>
<radialGradient id="paint14_radial_692_1504" cx="0" cy="0" r="1" gradientUnits="userSpaceOnUse" gradientTransform="translate(59.0197 17.6024) scale(59.0197 17.6024)">
<stop stop-color="#E1E1E1"/>
<stop offset="1" stop-color="#FFF4DA"/>
</radialGradient>
<radialGradient id="paint15_radial_692_1504" cx="0" cy="0" r="1" gradientUnits="userSpaceOnUse" gradientTransform="translate(59.0197 17.6024) scale(59.0197 17.6024)">
<stop stop-color="#E1E1E1"/>
<stop offset="1" stop-color="#FFF4DA"/>
</radialGradient>
<radialGradient id="paint16_radial_692_1504" cx="0" cy="0" r="1" gradientUnits="userSpaceOnUse" gradientTransform="translate(177.059 17.6024) rotate(180) scale(59.0197 17.6024)">
<stop stop-color="#E1E1E1"/>
<stop offset="1" stop-color="#FFF4DA"/>
</radialGradient>
<radialGradient id="paint17_radial_692_1504" cx="0" cy="0" r="1" gradientUnits="userSpaceOnUse" gradientTransform="translate(177.059 17.6024) rotate(180) scale(59.0197 17.6024)">
<stop stop-color="#E1E1E1"/>
<stop offset="1" stop-color="#FFF4DA"/>
</radialGradient>
<radialGradient id="paint18_radial_692_1504" cx="0" cy="0" r="1" gradientUnits="userSpaceOnUse" gradientTransform="translate(177.059 17.6024) rotate(180) scale(59.0197 17.6024)">
<stop stop-color="#E1E1E1"/>
<stop offset="1" stop-color="#FFF4DA"/>
</radialGradient>
<radialGradient id="paint19_radial_692_1504" cx="0" cy="0" r="1" gradientUnits="userSpaceOnUse" gradientTransform="translate(177.059 17.6024) rotate(180) scale(59.0197 17.6024)">
<stop stop-color="#E1E1E1"/>
<stop offset="1" stop-color="#FFF4DA"/>
</radialGradient>
<radialGradient id="paint20_radial_692_1504" cx="0" cy="0" r="1" gradientUnits="userSpaceOnUse" gradientTransform="translate(177.059 17.6024) rotate(180) scale(59.0197 17.6024)">
<stop stop-color="#E1E1E1"/>
<stop offset="1" stop-color="#FFF4DA"/>
</radialGradient>
<radialGradient id="paint21_radial_692_1504" cx="0" cy="0" r="1" gradientUnits="userSpaceOnUse" gradientTransform="translate(177.059 17.6024) rotate(180) scale(59.0197 17.6024)">
<stop stop-color="#E1E1E1"/>
<stop offset="1" stop-color="#FFF4DA"/>
</radialGradient>
<radialGradient id="paint22_radial_692_1504" cx="0" cy="0" r="1" gradientUnits="userSpaceOnUse" gradientTransform="translate(177.059 17.6024) rotate(180) scale(59.0197 17.6024)">
<stop stop-color="#E1E1E1"/>
<stop offset="1" stop-color="#FFF4DA"/>
</radialGradient>
<radialGradient id="paint23_radial_692_1504" cx="0" cy="0" r="1" gradientUnits="userSpaceOnUse" gradientTransform="translate(177.059 17.6024) rotate(180) scale(59.0197 17.6024)">
<stop stop-color="#E1E1E1"/>
<stop offset="1" stop-color="#FFF4DA"/>
</radialGradient>
</defs>
</svg>
