<svg width="237" height="132" viewBox="0 0 237 132" fill="none" xmlns="http://www.w3.org/2000/svg">
<path d="M50.7125 108.06C49.3889 108.487 47.9214 108.504 46.7169 107.809C44.5794 106.575 44.1412 105.154 44.5234 102.508V102.508C42.8798 103.056 42.063 104.953 43.0339 106.388C43.9977 107.812 45.0937 108.974 46.6267 110.246C47.9171 111.316 49.5696 111.855 51.2458 111.812C56.4406 111.679 59.0349 110.851 62.1257 108.72C61.1051 110.641 61.1618 111.76 61.9885 113.6C62.0605 113.76 62.2568 113.822 62.4077 113.731C64.0825 112.73 65.0039 111.892 66.2674 109.756C66.2154 114.032 66.9843 113.977 70.4091 114.933C67.5194 110.86 68.0525 109.221 70.1981 106.254C70.9958 105.151 72.1259 104.331 73.4053 103.866L78.5776 101.985C81.3342 100.982 84.3487 100.942 87.1313 101.869L104.173 107.55C104.307 107.435 104.442 107.326 104.578 107.223V104.508C104.578 103.403 105.474 102.508 106.578 102.508H108.791C109.896 102.508 110.791 103.403 110.791 104.508V105.614H111.826V103.472C111.826 102.368 110.931 101.472 109.826 101.472H105.543C104.438 101.472 103.543 102.368 103.543 103.472V106.65C98.7736 103.748 93.5321 101.584 86.7257 99.7769C82.8456 98.747 78.7534 99.0145 74.9328 100.247L50.7125 108.06Z" fill="url(#paint0_radial_692_2026)"/>
<path fill-rule="evenodd" clip-rule="evenodd" d="M118.039 111.827V108.721C115.458 105.74 114.163 105.799 111.826 105.614H110.791C108.063 105.589 106.222 105.979 104.578 107.223V107.685L104.173 107.55C103.27 108.327 102.409 109.382 101.472 110.791C94.4225 108.167 92.2419 105.859 84.6304 104.117C82.7927 103.696 80.8379 103.854 79.1733 104.739C77.1406 105.82 75.7478 107.075 74.4004 109.235C73.7976 110.201 73.7049 111.42 74.2146 112.438C75.0495 114.107 76.2498 115.417 79.1376 117.128C80.1186 117.709 81.3505 117.62 82.2784 116.957L86.28 114.099C87.2184 113.429 87.4128 112.09 86.6211 111.251C84.8302 109.354 83.7227 109.09 81.7989 109.756C83.0242 110.067 83.7473 110.456 84.396 111.688C84.7596 112.378 84.5518 113.216 84 113.767L82.2754 115.492C81.3706 116.397 79.9663 116.664 78.9055 115.948C77.3915 114.927 76.4781 113.802 75.4876 112.283C74.8937 111.372 74.8539 110.185 75.48 109.296C77.188 106.871 79.0763 106.022 82.8343 105.614C87.5138 105.758 93.9734 109.592 101.472 112.862C101.61 115.305 101.827 117.608 105.43 119.531C106.15 119.915 107.027 119.733 107.604 119.156L110.252 116.508C110.55 116.21 110.55 115.727 110.252 115.429V115.429C109.971 115.149 109.521 115.134 109.21 115.381C104.882 118.812 103.349 117.017 102.508 112.862C108.784 113.743 111.6 112.063 112.862 106.65H114.933L118.039 111.827ZM102.508 111.827C105.324 107.593 107.416 106.549 111.826 106.65C109.581 111.782 107.623 113.001 102.508 111.827Z" fill="url(#paint1_radial_692_2026)"/>
<path d="M118.039 114.933V111.827C116.112 115.763 116.189 118.074 110.791 119.075C111.96 121.038 112.806 121.636 114.933 121.146C115.324 125.201 115.717 127.472 118.039 131.5V125.287C116.703 121.107 116.952 118.865 118.039 114.933Z" fill="url(#paint2_radial_692_2026)"/>
<path d="M115.968 98.3662C116.06 94.792 116.696 93.3936 118.039 91.1182V105.614C115.722 100.811 114.342 99.4138 111.826 99.4015C113.364 97.8121 114.276 97.3638 115.968 98.3662Z" fill="url(#paint3_radial_692_2026)"/>
<path d="M185.366 108.06C186.689 108.487 188.157 108.504 189.361 107.809C191.499 106.575 191.937 105.154 191.555 102.508V102.508C193.198 103.056 194.015 104.953 193.044 106.388C192.08 107.812 190.984 108.974 189.451 110.246C188.161 111.316 186.509 111.855 184.832 111.812C179.637 111.679 177.043 110.851 173.952 108.72C174.973 110.641 174.916 111.76 174.09 113.6C174.018 113.76 173.821 113.822 173.67 113.731C171.996 112.73 171.074 111.892 169.811 109.756C169.863 114.032 169.094 113.977 165.669 114.933C168.559 110.86 168.026 109.221 165.88 106.254C165.082 105.151 163.952 104.331 162.673 103.866L157.5 101.985C154.744 100.982 151.729 100.942 148.947 101.869L131.905 107.55C131.771 107.435 131.636 107.326 131.5 107.223V104.508C131.5 103.403 130.604 102.508 129.5 102.508H127.287C126.183 102.508 125.287 103.403 125.287 104.508V105.614H124.252V103.472C124.252 102.368 125.147 101.472 126.252 101.472H130.535C131.64 101.472 132.535 102.368 132.535 103.472V106.65C137.304 103.748 142.546 101.584 149.352 99.7769C153.232 98.747 157.325 99.0145 161.145 100.247L185.366 108.06Z" fill="url(#paint4_radial_692_2026)"/>
<path fill-rule="evenodd" clip-rule="evenodd" d="M118.039 111.827V108.721C120.62 105.74 121.915 105.799 124.252 105.614H125.287C128.015 105.589 129.856 105.979 131.5 107.223V107.685L131.905 107.55C132.808 108.327 133.669 109.382 134.606 110.791C141.656 108.167 143.836 105.859 151.448 104.117C153.285 103.696 155.24 103.854 156.905 104.739C158.938 105.82 160.33 107.075 161.678 109.235C162.281 110.201 162.373 111.42 161.863 112.438C161.029 114.107 159.828 115.417 156.941 117.128C155.96 117.709 154.728 117.62 153.8 116.957L149.798 114.099C148.86 113.429 148.665 112.09 149.457 111.251C151.248 109.354 152.355 109.09 154.279 109.756C153.054 110.067 152.331 110.456 151.682 111.688C151.319 112.378 151.526 113.216 152.078 113.767L153.803 115.492C154.708 116.397 156.112 116.664 157.173 115.948C158.687 114.927 159.6 113.802 160.591 112.283C161.184 111.372 161.224 110.185 160.598 109.296C158.89 106.871 157.002 106.022 153.244 105.614C148.564 105.758 142.105 109.592 134.606 112.862C134.468 115.305 134.251 117.608 130.648 119.531C129.928 119.915 129.051 119.733 128.474 119.156L125.826 116.508C125.528 116.21 125.528 115.727 125.826 115.429V115.429C126.107 115.149 126.557 115.134 126.868 115.381C131.196 118.812 132.729 117.017 133.571 112.862C127.294 113.743 124.478 112.063 123.216 106.65H121.145L118.039 111.827ZM133.571 111.827C130.754 107.593 128.662 106.549 124.252 106.65C126.497 111.782 128.455 113.001 133.571 111.827Z" fill="url(#paint5_radial_692_2026)"/>
<path d="M118.039 114.933V111.827C119.967 115.763 119.889 118.074 125.287 119.075C124.119 121.038 123.273 121.636 121.145 121.146C120.754 125.201 120.361 127.472 118.039 131.5V125.287C119.375 121.107 119.126 118.865 118.039 114.933Z" fill="url(#paint6_radial_692_2026)"/>
<path d="M120.11 98.3662C120.019 94.792 119.382 93.3936 118.039 91.1182V105.614C120.356 100.811 121.736 99.4138 124.252 99.4015C122.714 97.8121 121.802 97.3638 120.11 98.3662Z" fill="url(#paint7_radial_692_2026)"/>
<path d="M82.2539 67.6094C82.2539 66.75 81.9102 65.9121 81.2227 65.0957C80.5352 64.2793 79.7044 63.5345 78.7305 62.8613C78.2435 62.5319 77.7565 62.1953 77.2695 61.8516C76.7826 61.5078 76.2884 61.1569 75.7871 60.7988C74.7988 60.097 73.9609 59.2734 73.2734 58.3281C72.5859 57.3828 72.2422 56.3802 72.2422 55.3203C72.2422 53.6016 72.6719 52.069 73.5312 50.7227C74.4049 49.3763 75.5651 48.3164 77.0117 47.543C78.4727 46.7695 80.0911 46.3828 81.8672 46.3828C82.6263 46.3828 83.5859 46.5404 84.7461 46.8555C85.3333 47.013 85.849 47.1419 86.293 47.2422C86.737 47.3281 87.1094 47.3854 87.4102 47.4141C87.3099 48.2018 87.2096 48.9967 87.1094 49.7988C87.0234 50.5866 86.9375 51.3815 86.8516 52.1836C86.7656 53 86.7012 53.487 86.6582 53.6445C86.6152 53.7878 86.5508 53.8594 86.4648 53.8594C86.0495 53.8594 85.7201 53.7734 85.4766 53.6016C85.4193 53.5872 85.3906 53.4154 85.3906 53.0859C85.3906 52.1836 85.1901 51.3672 84.7891 50.6367C84.388 49.9062 83.8581 49.3262 83.1992 48.8965C82.5404 48.4525 81.8242 48.2305 81.0508 48.2305C79.418 48.2305 78.1003 48.7246 77.0977 49.7129C76.0951 50.7012 75.5938 51.9401 75.5938 53.4297C75.5938 54.9479 76.2956 56.2656 77.6992 57.3828C78.5013 58.013 79.4395 58.6934 80.5137 59.4238C81.6022 60.14 82.5475 60.8346 83.3496 61.5078C83.9368 61.9948 84.5169 62.6895 85.0898 63.5918C85.6628 64.4941 85.9492 65.4466 85.9492 66.4492C85.9492 67.3372 85.7344 68.2826 85.3047 69.2852C84.875 70.2878 84.2591 71.2402 83.457 72.1426C82.6549 73.0449 81.5951 73.7897 80.2773 74.377C78.9596 74.9642 77.513 75.2578 75.9375 75.2578C74.3906 75.2578 72.1133 74.9141 69.1055 74.2266C69.1628 73.3099 69.2057 72.5651 69.2344 71.9922C69.263 71.4049 69.2773 70.9896 69.2773 70.7461C69.2773 70.1159 69.263 69.4857 69.2344 68.8555C69.2057 68.2253 69.1914 67.7526 69.1914 67.4375C69.1914 67.237 69.4635 67.1367 70.0078 67.1367C70.2799 67.1367 70.5521 67.2513 70.8242 67.4805C70.8242 68.082 70.8887 68.6836 71.0176 69.2852C71.1465 69.8867 71.39 70.5312 71.748 71.2188C72.1061 71.9062 72.679 72.4577 73.4668 72.873C74.2546 73.2884 75.207 73.4961 76.3242 73.4961C77.3411 73.4961 78.3008 73.2598 79.2031 72.7871C80.1055 72.3145 80.8359 71.6413 81.3945 70.7676C81.9674 69.8796 82.2539 68.8268 82.2539 67.6094ZM102.062 56.3086C103.495 56.3086 104.211 57.2539 104.211 59.1445C104.211 60.4766 104.01 62.0378 103.609 63.8281L102.191 70.4453C102.105 70.7891 102.062 71.1471 102.062 71.5195C102.062 72.2357 102.206 72.5938 102.492 72.5938C102.85 72.5938 103.28 72.3431 103.781 71.8418C104.283 71.3262 104.712 70.8893 105.07 70.5312L105.328 70.2305C105.385 70.2305 105.493 70.3665 105.65 70.6387C105.808 70.9108 105.887 71.1042 105.887 71.2188C105.643 71.6341 105.199 72.1641 104.555 72.8086C103.924 73.4531 103.237 74.026 102.492 74.5273C101.747 75.0143 101.074 75.2578 100.473 75.2578C100.014 75.2578 99.6562 75.0501 99.3984 74.6348C99.1406 74.2194 99.0117 73.6823 99.0117 73.0234C99.0117 72.5938 99.112 71.8346 99.3125 70.7461L100.816 63.6562C101.017 62.6823 101.117 61.9089 101.117 61.3359C101.117 60.1042 100.845 59.4883 100.301 59.4883C99.8281 59.4883 99.1908 59.8464 98.3887 60.5625C97.5866 61.2643 96.7487 62.2025 95.875 63.377C95.0156 64.5514 94.235 65.862 93.5332 67.3086C92.8314 68.7409 92.3372 70.1875 92.0508 71.6484L91.3203 75C90.9336 75.1146 90.4896 75.1719 89.9883 75.1719C89.5013 75.1719 89.0143 75.1146 88.5273 75L93.168 50.9805C93.4258 49.7057 93.5547 48.9466 93.5547 48.7031C93.5547 48.1589 92.681 47.8867 90.9336 47.8867C90.8477 47.8867 90.8047 47.8008 90.8047 47.6289C90.8047 47.2852 90.9193 46.9987 91.1484 46.7695C93.0104 46.5977 94.8151 46.1966 96.5625 45.5664C96.7344 45.6523 96.8203 45.9245 96.8203 46.3828C96.8203 46.5833 96.6341 47.6576 96.2617 49.6055L93.2969 64.7734C93.569 64.2865 94.1921 63.3984 95.166 62.1094C95.8105 61.2643 96.5553 60.3978 97.4004 59.5098C98.2598 58.6074 99.1048 57.8483 99.9355 57.2324C100.781 56.6165 101.49 56.3086 102.062 56.3086ZM120.582 56.3086C121.642 56.3086 122.688 56.4948 123.719 56.8672L121.098 70.4453C121.012 70.7891 120.969 71.1471 120.969 71.5195C120.969 72.2357 121.112 72.5938 121.398 72.5938C121.757 72.5938 122.186 72.3431 122.688 71.8418C123.189 71.3262 123.618 70.8893 123.977 70.5312L124.234 70.2305C124.292 70.2305 124.399 70.3665 124.557 70.6387C124.714 70.9108 124.793 71.1042 124.793 71.2188C124.549 71.6341 124.105 72.1641 123.461 72.8086C122.831 73.4531 122.143 74.026 121.398 74.5273C120.654 75.0143 119.98 75.2578 119.379 75.2578C118.921 75.2578 118.562 75.0501 118.305 74.6348C118.047 74.2194 117.918 73.6823 117.918 73.0234C117.918 72.5794 118.018 71.8203 118.219 70.7461L118.369 69.9941C118.412 69.7936 118.434 69.6719 118.434 69.6289C118.204 70.0586 117.875 70.5885 117.445 71.2188C117.016 71.8346 116.521 72.4505 115.963 73.0664C115.404 73.6823 114.817 74.1979 114.201 74.6133C113.585 75.0143 112.977 75.2148 112.375 75.2148C111.115 75.2148 110.119 74.6491 109.389 73.5176C108.658 72.3861 108.293 71.0182 108.293 69.4141C108.293 67.3659 108.902 65.3249 110.119 63.291C110.936 61.916 111.91 60.7057 113.041 59.6602C114.187 58.6146 115.411 57.7982 116.715 57.2109C118.018 56.6094 119.307 56.3086 120.582 56.3086ZM118.777 58.2852C117.932 58.2852 117.08 58.5859 116.221 59.1875C115.361 59.7747 114.574 60.5697 113.857 61.5723C113.141 62.5605 112.561 63.6634 112.117 64.8809C111.688 66.084 111.473 67.2943 111.473 68.5117C111.473 71.319 112.203 72.7227 113.664 72.7227C114.18 72.7227 114.738 72.4362 115.34 71.8633C115.941 71.2904 116.536 70.5312 117.123 69.5859C117.71 68.6406 118.226 67.6165 118.67 66.5137C119.128 65.3965 119.465 64.3008 119.68 63.2266L120.539 58.8438C120.195 58.4714 119.608 58.2852 118.777 58.2852ZM141.379 56.3086C142.152 56.3086 142.747 56.5378 143.162 56.9961C143.577 57.4544 143.828 57.9342 143.914 58.4355C144 58.9368 144.043 59.5885 144.043 60.3906C144.043 60.9206 143.842 62.1953 143.441 64.2148C143.914 63.3984 144.501 62.5319 145.203 61.6152C145.905 60.6986 146.643 59.8392 147.416 59.0371C148.189 58.235 148.934 57.5833 149.65 57.082C150.367 56.5664 150.975 56.3086 151.477 56.3086C152.422 56.3086 153.066 56.5449 153.41 57.0176C153.754 57.4902 153.926 58.1992 153.926 59.1445C153.926 60.4766 153.725 62.0378 153.324 63.8281L151.906 70.4453C151.82 70.7891 151.777 71.1471 151.777 71.5195C151.777 72.2357 151.921 72.5938 152.207 72.5938C152.565 72.5938 152.995 72.3431 153.496 71.8418C153.997 71.3262 154.427 70.8893 154.785 70.5312L155.043 70.2305C155.1 70.2305 155.208 70.3665 155.365 70.6387C155.523 70.9108 155.602 71.1042 155.602 71.2188C155.358 71.6341 154.914 72.1641 154.27 72.8086C153.639 73.4531 152.952 74.026 152.207 74.5273C151.462 75.0143 150.789 75.2578 150.188 75.2578C149.729 75.2578 149.371 75.0501 149.113 74.6348C148.855 74.2194 148.727 73.6823 148.727 73.0234C148.727 72.5938 148.827 71.8346 149.027 70.7461L150.531 63.6562C150.732 62.6823 150.832 61.9089 150.832 61.3359C150.832 60.8346 150.789 60.4049 150.703 60.0469C150.632 59.6745 150.402 59.4883 150.016 59.4883C149.529 59.4883 148.891 59.832 148.104 60.5195C147.33 61.207 146.528 62.1165 145.697 63.248C144.867 64.3652 144.122 65.597 143.463 66.9434C142.804 68.2754 142.353 69.6003 142.109 70.918L141.336 75H138.457L140.863 62.7969C140.978 62.1523 141.035 61.6081 141.035 61.1641C141.035 60.0469 140.749 59.4883 140.176 59.4883C139.674 59.4883 139.037 59.8678 138.264 60.627C137.49 61.3861 136.695 62.3672 135.879 63.5703C135.062 64.7734 134.332 66.0553 133.688 67.416C133.043 68.7624 132.599 70.0299 132.355 71.2188L131.582 75C130.78 75.1146 130.293 75.1719 130.121 75.1719C129.978 75.1719 129.505 75.1146 128.703 75L131.281 61.7656C131.424 60.7773 131.496 60.2044 131.496 60.0469C131.496 59.3307 131.353 58.9727 131.066 58.9727C130.823 58.9727 130.458 59.2018 129.971 59.6602C129.742 59.8893 129.491 60.14 129.219 60.4121C128.961 60.6842 128.789 60.8776 128.703 60.9922C128.646 60.9922 128.538 60.8561 128.381 60.584C128.223 60.3118 128.145 60.1185 128.145 60.0039C128.374 59.6172 128.789 59.1374 129.391 58.5645C129.992 57.9772 130.637 57.4544 131.324 56.9961C132.012 56.5378 132.599 56.3086 133.086 56.3086C133.544 56.3086 133.902 56.5163 134.16 56.9316C134.418 57.347 134.547 57.8841 134.547 58.543C134.547 59.1732 134.461 59.9323 134.289 60.8203L133.516 64.8164C134.046 63.8997 134.654 62.9473 135.342 61.959C136.044 60.9707 136.76 60.0469 137.49 59.1875C138.235 58.3281 138.944 57.6335 139.617 57.1035C140.29 56.5736 140.878 56.3086 141.379 56.3086ZM166.387 56.1797C168.02 56.1797 169.309 56.724 170.254 57.8125C170.397 58.1419 170.469 58.4427 170.469 58.7148C170.469 59.2305 170.333 59.6745 170.061 60.0469C169.788 60.4193 169.438 60.6055 169.008 60.6055C168.621 60.6055 168.263 60.3978 167.934 59.9824C167.618 59.5671 167.225 59.1445 166.752 58.7148C166.279 58.2852 165.656 58.0703 164.883 58.0703C164.281 58.0703 163.809 58.2708 163.465 58.6719C163.121 59.0729 162.949 59.5312 162.949 60.0469C162.949 60.7917 163.229 61.5866 163.787 62.4316C164.346 63.2767 164.954 64.0286 165.613 64.6875C166.272 65.3464 166.881 66.1484 167.439 67.0938C167.998 68.0391 168.277 68.9987 168.277 69.9727C168.277 71.5482 167.704 72.8229 166.559 73.7969C165.413 74.7708 163.938 75.2578 162.133 75.2578C160.5 75.2578 159.211 74.7135 158.266 73.625C158.122 73.3958 158.051 73.1237 158.051 72.8086C158.051 72.293 158.187 71.8346 158.459 71.4336C158.731 71.0326 159.082 70.832 159.512 70.832C159.898 70.832 160.257 71.0397 160.586 71.4551C160.901 71.8704 161.295 72.293 161.768 72.7227C162.24 73.1523 162.863 73.3672 163.637 73.3672C164.267 73.3672 164.775 73.1595 165.162 72.7441C165.549 72.3288 165.742 71.8776 165.742 71.3906C165.742 70.6458 165.463 69.8509 164.904 69.0059C164.346 68.1608 163.737 67.4089 163.078 66.75C162.419 66.0911 161.811 65.2891 161.252 64.3438C160.693 63.3984 160.414 62.4388 160.414 61.4648C160.414 60.6628 160.679 59.8535 161.209 59.0371C161.739 58.2207 162.455 57.5404 163.357 56.9961C164.26 56.4518 165.27 56.1797 166.387 56.1797Z" fill="white"/>
<path d="M0 14.4961C6.30012 20.0984 15.0791 19.1979 30.687 15.1421C32.2497 14.736 33.9168 14.9601 35.3059 15.7832L61.0905 31.063L35.3304 19.6141C33.9205 18.9874 32.3183 18.9353 30.8588 19.4358C12.5496 25.7159 4.73674 24.7283 0 14.4961Z" fill="url(#paint8_radial_692_2026)"/>
<path d="M16.5669 25.8858C22.7094 27.5488 34.4861 19.1752 43.5027 24.2129C35.7991 20.3448 24.9274 34.7378 16.5669 25.8858Z" fill="url(#paint9_radial_692_2026)"/>
<path d="M42.4528 34.1693C40.4746 32.9379 39.8039 31.791 39.5364 30.2054C39.314 28.8871 40.2138 27.6374 41.514 27.3262C46.4064 26.1551 49.6595 27.3172 54.8779 31.063C50.3759 26.3362 46.8249 25.2844 39.6469 25.78C38.7972 25.8387 38.0191 26.2751 37.5081 26.9564L36.1669 28.7446C35.6047 29.4943 35.6307 30.5432 36.2784 31.2205C38.4425 33.4837 39.9798 34.1156 42.4528 34.1693Z" fill="url(#paint10_radial_692_2026)"/>
<path d="M61.0905 28.9921C48.8725 19.5072 53.131 18.6378 60.0551 10.3543C56.6285 8.93238 54.8937 8.83857 52.8071 12.4252C51.2879 8.29387 49.7783 6.42726 45.559 4.14173C43.8524 8.52031 44.6321 10.6991 46.5945 14.4961C42.9378 12.0347 40.7471 11.3823 36.2402 13.4606C46.3046 17.727 45.2926 18.8748 61.0905 28.9921Z" fill="url(#paint11_radial_692_2026)"/>
<path d="M78.6929 22.7441C78.6929 22.1918 79.1406 21.7441 79.6929 21.7441H79.7638C80.3161 21.7441 80.7638 22.1918 80.7638 22.7441V25.9213C80.7638 26.4735 80.3161 26.9213 79.7638 26.9213H74.4803C73.3757 26.9213 72.4803 26.0258 72.4803 24.9213V19.6024C72.4803 18.4978 73.3757 17.6024 74.4803 17.6024H78.7281C80.6137 17.6024 82.4755 18.023 84.178 18.8337V18.8337C85.2965 19.3663 86.1249 20.3629 86.4441 21.5599L88.3399 28.6695C89.2063 31.9182 86.6836 35.0788 83.3237 34.9544L68.0679 34.3894C64.7776 34.2675 62.2002 31.5169 62.2923 28.2256L62.6948 13.8426C62.7856 10.5955 65.4441 8.01038 68.6924 8.01038H83.0387C86.0229 8.01038 88.8896 9.21712 90.915 11.4088C101.807 23.194 109.097 33.3225 115.395 32.2299C115.685 32.1796 115.968 32.3916 115.968 32.686V32.686C115.968 32.9325 115.766 33.1318 115.519 33.1285C109.37 33.045 105.37 32.4313 87.653 13.254C86.5367 12.0456 85.0793 11.1983 83.4735 10.8414L77.8584 9.59364C77.0431 9.41248 76.199 9.4035 75.3801 9.56728L71.091 10.4251C68.2865 10.986 66.2677 13.4485 66.2677 16.3086V27.0984C66.2677 29.8599 68.5063 32.0984 71.2677 32.0984H80.9055C83.1146 32.0984 84.9055 30.3076 84.9055 28.0984V22.6378C84.9055 20.4287 83.1146 18.6378 80.9055 18.6378H76.5512C75.4466 18.6378 74.5512 19.5332 74.5512 20.6378V24.8858C74.5512 25.4381 74.9989 25.8858 75.5512 25.8858H77.6929C78.2452 25.8858 78.6929 25.4381 78.6929 24.8858V22.7441Z" fill="url(#paint12_radial_692_2026)"/>
<path d="M104.412 33.0631C96.4743 29.9513 88.3242 12.4066 78.6929 13.4606C91.6665 19.2326 92.9183 31.4785 104.412 33.0631Z" fill="url(#paint13_radial_692_2026)"/>
<path d="M111.827 30.0276C106.485 21.6827 106.361 16.9143 110.791 8.28346C105.363 9.71409 97.6256 19.5114 111.827 30.0276Z" fill="url(#paint14_radial_692_2026)"/>
<path d="M118.039 10.3543C113.102 14.0549 110.405 23.2793 118.039 32.0984C106.33 25.6888 109.793 12.7713 118.039 0V10.3543Z" fill="url(#paint15_radial_692_2026)"/>
<path d="M236.079 14.4961C229.779 20.0984 221 19.1979 205.392 15.1421C203.829 14.736 202.162 14.9601 200.773 15.7832L174.989 31.063L200.749 19.6141C202.159 18.9874 203.761 18.9353 205.22 19.4358C223.529 25.7159 231.342 24.7283 236.079 14.4961Z" fill="url(#paint16_radial_692_2026)"/>
<path d="M219.512 25.8858C213.37 27.5488 201.593 19.1752 192.576 24.2129C200.28 20.3448 211.152 34.7378 219.512 25.8858Z" fill="url(#paint17_radial_692_2026)"/>
<path d="M193.626 34.1693C195.605 32.9379 196.275 31.791 196.543 30.2054C196.765 28.8871 195.865 27.6374 194.565 27.3262C189.673 26.1551 186.42 27.3172 181.201 31.063C185.703 26.3362 189.254 25.2844 196.432 25.78C197.282 25.8387 198.06 26.2751 198.571 26.9564L199.912 28.7446C200.474 29.4943 200.448 30.5432 199.801 31.2205C197.637 33.4837 196.099 34.1156 193.626 34.1693Z" fill="url(#paint18_radial_692_2026)"/>
<path d="M174.989 28.9921C187.207 19.5072 182.948 18.6378 176.024 10.3543C179.451 8.93238 181.185 8.83857 183.272 12.4252C184.791 8.29387 186.301 6.42726 190.52 4.14173C192.227 8.52031 191.447 10.6991 189.485 14.4961C193.141 12.0347 195.332 11.3823 199.839 13.4606C189.775 17.727 190.787 18.8748 174.989 28.9921Z" fill="url(#paint19_radial_692_2026)"/>
<path d="M157.386 22.7441C157.386 22.1918 156.938 21.7441 156.386 21.7441H156.315C155.763 21.7441 155.315 22.1918 155.315 22.7441V25.9213C155.315 26.4735 155.763 26.9213 156.315 26.9213H161.599C162.703 26.9213 163.599 26.0258 163.599 24.9213V19.6024C163.599 18.4978 162.703 17.6024 161.599 17.6024H157.351C155.465 17.6024 153.604 18.023 151.901 18.8337V18.8337C150.783 19.3663 149.954 20.3629 149.635 21.5599L147.739 28.6695C146.873 31.9182 149.396 35.0788 152.755 34.9544L168.011 34.3894C171.301 34.2675 173.879 31.5169 173.787 28.2256L173.384 13.8426C173.293 10.5955 170.635 8.01038 167.387 8.01038H153.04C150.056 8.01038 147.19 9.21712 145.164 11.4088C134.273 23.194 126.982 33.3225 120.684 32.2299C120.394 32.1796 120.111 32.3916 120.111 32.686V32.686C120.111 32.9325 120.313 33.1318 120.56 33.1285C126.709 33.045 130.709 32.4313 148.426 13.254C149.542 12.0456 151 11.1983 152.606 10.8414L158.221 9.59364C159.036 9.41248 159.88 9.4035 160.699 9.56728L164.988 10.4251C167.793 10.986 169.811 13.4485 169.811 16.3086V27.0984C169.811 29.8599 167.573 32.0984 164.811 32.0984H155.174C152.964 32.0984 151.174 30.3076 151.174 28.0984V22.6378C151.174 20.4287 152.964 18.6378 155.174 18.6378H159.528C160.633 18.6378 161.528 19.5332 161.528 20.6378V24.8858C161.528 25.4381 161.08 25.8858 160.528 25.8858H158.386C157.834 25.8858 157.386 25.4381 157.386 24.8858V22.7441Z" fill="url(#paint20_radial_692_2026)"/>
<path d="M131.667 33.0631C139.605 29.9513 147.755 12.4066 157.386 13.4606C144.413 19.2326 143.161 31.4785 131.667 33.0631Z" fill="url(#paint21_radial_692_2026)"/>
<path d="M124.252 30.0276C129.594 21.6827 129.718 16.9143 125.288 8.28346C130.716 9.71409 138.454 19.5114 124.252 30.0276Z" fill="url(#paint22_radial_692_2026)"/>
<path d="M118.04 10.3543C122.977 14.0549 125.674 23.2793 118.04 32.0984C129.75 25.6888 126.286 12.7713 118.04 0V10.3543Z" fill="url(#paint23_radial_692_2026)"/>
<defs>
<radialGradient id="paint0_radial_692_2026" cx="0" cy="0" r="1" gradientUnits="userSpaceOnUse" gradientTransform="translate(79.728 111.309) scale(38.311 20.1909)">
<stop stop-color="#E1E1E1"/>
<stop offset="1" stop-color="#FFF4DA"/>
</radialGradient>
<radialGradient id="paint1_radial_692_2026" cx="0" cy="0" r="1" gradientUnits="userSpaceOnUse" gradientTransform="translate(79.728 111.309) scale(38.311 20.1909)">
<stop stop-color="#E1E1E1"/>
<stop offset="1" stop-color="#FFF4DA"/>
</radialGradient>
<radialGradient id="paint2_radial_692_2026" cx="0" cy="0" r="1" gradientUnits="userSpaceOnUse" gradientTransform="translate(79.728 111.309) scale(38.311 20.1909)">
<stop stop-color="#E1E1E1"/>
<stop offset="1" stop-color="#FFF4DA"/>
</radialGradient>
<radialGradient id="paint3_radial_692_2026" cx="0" cy="0" r="1" gradientUnits="userSpaceOnUse" gradientTransform="translate(79.728 111.309) scale(38.311 20.1909)">
<stop stop-color="#E1E1E1"/>
<stop offset="1" stop-color="#FFF4DA"/>
</radialGradient>
<radialGradient id="paint4_radial_692_2026" cx="0" cy="0" r="1" gradientUnits="userSpaceOnUse" gradientTransform="translate(156.35 111.309) rotate(180) scale(38.311 20.1909)">
<stop stop-color="#E1E1E1"/>
<stop offset="1" stop-color="#FFF4DA"/>
</radialGradient>
<radialGradient id="paint5_radial_692_2026" cx="0" cy="0" r="1" gradientUnits="userSpaceOnUse" gradientTransform="translate(156.35 111.309) rotate(180) scale(38.311 20.1909)">
<stop stop-color="#E1E1E1"/>
<stop offset="1" stop-color="#FFF4DA"/>
</radialGradient>
<radialGradient id="paint6_radial_692_2026" cx="0" cy="0" r="1" gradientUnits="userSpaceOnUse" gradientTransform="translate(156.35 111.309) rotate(180) scale(38.311 20.1909)">
<stop stop-color="#E1E1E1"/>
<stop offset="1" stop-color="#FFF4DA"/>
</radialGradient>
<radialGradient id="paint7_radial_692_2026" cx="0" cy="0" r="1" gradientUnits="userSpaceOnUse" gradientTransform="translate(156.35 111.309) rotate(180) scale(38.311 20.1909)">
<stop stop-color="#E1E1E1"/>
<stop offset="1" stop-color="#FFF4DA"/>
</radialGradient>
<radialGradient id="paint8_radial_692_2026" cx="0" cy="0" r="1" gradientUnits="userSpaceOnUse" gradientTransform="translate(59.0197 17.6024) scale(59.0197 17.6024)">
<stop stop-color="#E1E1E1"/>
<stop offset="1" stop-color="#FFF4DA"/>
</radialGradient>
<radialGradient id="paint9_radial_692_2026" cx="0" cy="0" r="1" gradientUnits="userSpaceOnUse" gradientTransform="translate(59.0197 17.6024) scale(59.0197 17.6024)">
<stop stop-color="#E1E1E1"/>
<stop offset="1" stop-color="#FFF4DA"/>
</radialGradient>
<radialGradient id="paint10_radial_692_2026" cx="0" cy="0" r="1" gradientUnits="userSpaceOnUse" gradientTransform="translate(59.0197 17.6024) scale(59.0197 17.6024)">
<stop stop-color="#E1E1E1"/>
<stop offset="1" stop-color="#FFF4DA"/>
</radialGradient>
<radialGradient id="paint11_radial_692_2026" cx="0" cy="0" r="1" gradientUnits="userSpaceOnUse" gradientTransform="translate(59.0197 17.6024) scale(59.0197 17.6024)">
<stop stop-color="#E1E1E1"/>
<stop offset="1" stop-color="#FFF4DA"/>
</radialGradient>
<radialGradient id="paint12_radial_692_2026" cx="0" cy="0" r="1" gradientUnits="userSpaceOnUse" gradientTransform="translate(59.0197 17.6024) scale(59.0197 17.6024)">
<stop stop-color="#E1E1E1"/>
<stop offset="1" stop-color="#FFF4DA"/>
</radialGradient>
<radialGradient id="paint13_radial_692_2026" cx="0" cy="0" r="1" gradientUnits="userSpaceOnUse" gradientTransform="translate(59.0197 17.6024) scale(59.0197 17.6024)">
<stop stop-color="#E1E1E1"/>
<stop offset="1" stop-color="#FFF4DA"/>
</radialGradient>
<radialGradient id="paint14_radial_692_2026" cx="0" cy="0" r="1" gradientUnits="userSpaceOnUse" gradientTransform="translate(59.0197 17.6024) scale(59.0197 17.6024)">
<stop stop-color="#E1E1E1"/>
<stop offset="1" stop-color="#FFF4DA"/>
</radialGradient>
<radialGradient id="paint15_radial_692_2026" cx="0" cy="0" r="1" gradientUnits="userSpaceOnUse" gradientTransform="translate(59.0197 17.6024) scale(59.0197 17.6024)">
<stop stop-color="#E1E1E1"/>
<stop offset="1" stop-color="#FFF4DA"/>
</radialGradient>
<radialGradient id="paint16_radial_692_2026" cx="0" cy="0" r="1" gradientUnits="userSpaceOnUse" gradientTransform="translate(177.059 17.6024) rotate(180) scale(59.0197 17.6024)">
<stop stop-color="#E1E1E1"/>
<stop offset="1" stop-color="#FFF4DA"/>
</radialGradient>
<radialGradient id="paint17_radial_692_2026" cx="0" cy="0" r="1" gradientUnits="userSpaceOnUse" gradientTransform="translate(177.059 17.6024) rotate(180) scale(59.0197 17.6024)">
<stop stop-color="#E1E1E1"/>
<stop offset="1" stop-color="#FFF4DA"/>
</radialGradient>
<radialGradient id="paint18_radial_692_2026" cx="0" cy="0" r="1" gradientUnits="userSpaceOnUse" gradientTransform="translate(177.059 17.6024) rotate(180) scale(59.0197 17.6024)">
<stop stop-color="#E1E1E1"/>
<stop offset="1" stop-color="#FFF4DA"/>
</radialGradient>
<radialGradient id="paint19_radial_692_2026" cx="0" cy="0" r="1" gradientUnits="userSpaceOnUse" gradientTransform="translate(177.059 17.6024) rotate(180) scale(59.0197 17.6024)">
<stop stop-color="#E1E1E1"/>
<stop offset="1" stop-color="#FFF4DA"/>
</radialGradient>
<radialGradient id="paint20_radial_692_2026" cx="0" cy="0" r="1" gradientUnits="userSpaceOnUse" gradientTransform="translate(177.059 17.6024) rotate(180) scale(59.0197 17.6024)">
<stop stop-color="#E1E1E1"/>
<stop offset="1" stop-color="#FFF4DA"/>
</radialGradient>
<radialGradient id="paint21_radial_692_2026" cx="0" cy="0" r="1" gradientUnits="userSpaceOnUse" gradientTransform="translate(177.059 17.6024) rotate(180) scale(59.0197 17.6024)">
<stop stop-color="#E1E1E1"/>
<stop offset="1" stop-color="#FFF4DA"/>
</radialGradient>
<radialGradient id="paint22_radial_692_2026" cx="0" cy="0" r="1" gradientUnits="userSpaceOnUse" gradientTransform="translate(177.059 17.6024) rotate(180) scale(59.0197 17.6024)">
<stop stop-color="#E1E1E1"/>
<stop offset="1" stop-color="#FFF4DA"/>
</radialGradient>
<radialGradient id="paint23_radial_692_2026" cx="0" cy="0" r="1" gradientUnits="userSpaceOnUse" gradientTransform="translate(177.059 17.6024) rotate(180) scale(59.0197 17.6024)">
<stop stop-color="#E1E1E1"/>
<stop offset="1" stop-color="#FFF4DA"/>
</radialGradient>
</defs>
</svg>
