<svg width="237" height="132" viewBox="0 0 237 132" fill="none" xmlns="http://www.w3.org/2000/svg">
<path d="M50.7125 108.06C49.3889 108.487 47.9214 108.504 46.7169 107.809C44.5794 106.575 44.1412 105.154 44.5234 102.508V102.508C42.8798 103.056 42.063 104.953 43.0339 106.388C43.9977 107.812 45.0937 108.974 46.6267 110.246C47.9171 111.316 49.5696 111.855 51.2458 111.812C56.4406 111.679 59.0349 110.851 62.1257 108.72C61.1051 110.641 61.1618 111.76 61.9885 113.6C62.0605 113.76 62.2568 113.822 62.4077 113.731C64.0825 112.73 65.0039 111.892 66.2674 109.756C66.2154 114.032 66.9843 113.977 70.4091 114.933C67.5194 110.86 68.0525 109.221 70.1981 106.254C70.9958 105.151 72.1259 104.331 73.4053 103.866L78.5776 101.985C81.3342 100.982 84.3487 100.942 87.1313 101.869L104.173 107.55C104.307 107.435 104.442 107.326 104.578 107.223V104.508C104.578 103.403 105.474 102.508 106.578 102.508H108.791C109.896 102.508 110.791 103.403 110.791 104.508V105.614H111.826V103.472C111.826 102.368 110.931 101.472 109.826 101.472H105.543C104.438 101.472 103.543 102.368 103.543 103.472V106.65C98.7736 103.748 93.5321 101.584 86.7257 99.7769C82.8456 98.747 78.7534 99.0145 74.9328 100.247L50.7125 108.06Z" fill="url(#paint0_radial_692_1600)"/>
<path fill-rule="evenodd" clip-rule="evenodd" d="M118.039 111.827V108.721C115.458 105.74 114.163 105.799 111.826 105.614H110.791C108.063 105.589 106.222 105.979 104.578 107.223V107.685L104.173 107.55C103.27 108.327 102.409 109.382 101.472 110.791C94.4225 108.167 92.2419 105.859 84.6304 104.117C82.7927 103.696 80.8379 103.854 79.1733 104.739C77.1406 105.82 75.7478 107.075 74.4004 109.235C73.7976 110.201 73.7049 111.42 74.2146 112.438C75.0495 114.107 76.2498 115.417 79.1376 117.128C80.1186 117.709 81.3505 117.62 82.2784 116.957L86.28 114.099C87.2184 113.429 87.4128 112.09 86.6211 111.251C84.8302 109.354 83.7227 109.09 81.7989 109.756C83.0242 110.067 83.7473 110.456 84.396 111.688C84.7596 112.378 84.5518 113.216 84 113.767L82.2754 115.492C81.3706 116.397 79.9663 116.664 78.9055 115.948C77.3915 114.927 76.4781 113.802 75.4876 112.283C74.8937 111.372 74.8539 110.185 75.48 109.296C77.188 106.871 79.0763 106.022 82.8343 105.614C87.5138 105.758 93.9734 109.592 101.472 112.862C101.61 115.305 101.827 117.608 105.43 119.531C106.15 119.915 107.027 119.733 107.604 119.156L110.252 116.508C110.55 116.21 110.55 115.727 110.252 115.429V115.429C109.971 115.149 109.521 115.134 109.21 115.381C104.882 118.812 103.349 117.017 102.508 112.862C108.784 113.743 111.6 112.063 112.862 106.65H114.933L118.039 111.827ZM102.508 111.827C105.324 107.593 107.416 106.549 111.826 106.65C109.581 111.782 107.623 113.001 102.508 111.827Z" fill="url(#paint1_radial_692_1600)"/>
<path d="M118.039 114.933V111.827C116.112 115.763 116.189 118.074 110.791 119.075C111.96 121.038 112.806 121.636 114.933 121.146C115.324 125.201 115.717 127.472 118.039 131.5V125.287C116.703 121.107 116.952 118.865 118.039 114.933Z" fill="url(#paint2_radial_692_1600)"/>
<path d="M115.968 98.3662C116.06 94.792 116.696 93.3936 118.039 91.1182V105.614C115.722 100.811 114.342 99.4138 111.826 99.4015C113.364 97.8121 114.276 97.3638 115.968 98.3662Z" fill="url(#paint3_radial_692_1600)"/>
<path d="M185.366 108.06C186.689 108.487 188.157 108.504 189.361 107.809C191.499 106.575 191.937 105.154 191.555 102.508V102.508C193.198 103.056 194.015 104.953 193.044 106.388C192.08 107.812 190.984 108.974 189.451 110.246C188.161 111.316 186.509 111.855 184.832 111.812C179.637 111.679 177.043 110.851 173.952 108.72C174.973 110.641 174.916 111.76 174.09 113.6C174.018 113.76 173.821 113.822 173.67 113.731C171.996 112.73 171.074 111.892 169.811 109.756C169.863 114.032 169.094 113.977 165.669 114.933C168.559 110.86 168.026 109.221 165.88 106.254C165.082 105.151 163.952 104.331 162.673 103.866L157.5 101.985C154.744 100.982 151.729 100.942 148.947 101.869L131.905 107.55C131.771 107.435 131.636 107.326 131.5 107.223V104.508C131.5 103.403 130.604 102.508 129.5 102.508H127.287C126.183 102.508 125.287 103.403 125.287 104.508V105.614H124.252V103.472C124.252 102.368 125.147 101.472 126.252 101.472H130.535C131.64 101.472 132.535 102.368 132.535 103.472V106.65C137.304 103.748 142.546 101.584 149.352 99.7769C153.232 98.747 157.325 99.0145 161.145 100.247L185.366 108.06Z" fill="url(#paint4_radial_692_1600)"/>
<path fill-rule="evenodd" clip-rule="evenodd" d="M118.039 111.827V108.721C120.62 105.74 121.915 105.799 124.252 105.614H125.287C128.015 105.589 129.856 105.979 131.5 107.223V107.685L131.905 107.55C132.808 108.327 133.669 109.382 134.606 110.791C141.656 108.167 143.836 105.859 151.448 104.117C153.285 103.696 155.24 103.854 156.905 104.739C158.938 105.82 160.33 107.075 161.678 109.235C162.281 110.201 162.373 111.42 161.863 112.438C161.029 114.107 159.828 115.417 156.941 117.128C155.96 117.709 154.728 117.62 153.8 116.957L149.798 114.099C148.86 113.429 148.665 112.09 149.457 111.251C151.248 109.354 152.355 109.09 154.279 109.756C153.054 110.067 152.331 110.456 151.682 111.688C151.319 112.378 151.526 113.216 152.078 113.767L153.803 115.492C154.708 116.397 156.112 116.664 157.173 115.948C158.687 114.927 159.6 113.802 160.591 112.283C161.184 111.372 161.224 110.185 160.598 109.296C158.89 106.871 157.002 106.022 153.244 105.614C148.564 105.758 142.105 109.592 134.606 112.862C134.468 115.305 134.251 117.608 130.648 119.531C129.928 119.915 129.051 119.733 128.474 119.156L125.826 116.508C125.528 116.21 125.528 115.727 125.826 115.429V115.429C126.107 115.149 126.557 115.134 126.868 115.381C131.196 118.812 132.729 117.017 133.571 112.862C127.294 113.743 124.478 112.063 123.216 106.65H121.145L118.039 111.827ZM133.571 111.827C130.754 107.593 128.662 106.549 124.252 106.65C126.497 111.782 128.455 113.001 133.571 111.827Z" fill="url(#paint5_radial_692_1600)"/>
<path d="M118.039 114.933V111.827C119.967 115.763 119.889 118.074 125.287 119.075C124.119 121.038 123.273 121.636 121.145 121.146C120.754 125.201 120.361 127.472 118.039 131.5V125.287C119.375 121.107 119.126 118.865 118.039 114.933Z" fill="url(#paint6_radial_692_1600)"/>
<path d="M120.11 98.3662C120.019 94.792 119.382 93.3936 118.039 91.1182V105.614C120.356 100.811 121.736 99.4138 124.252 99.4015C122.714 97.8121 121.802 97.3638 120.11 98.3662Z" fill="url(#paint7_radial_692_1600)"/>
<path d="M84.2539 67.6094C84.2539 66.75 83.9102 65.9121 83.2227 65.0957C82.5352 64.2793 81.7044 63.5345 80.7305 62.8613C80.2435 62.5319 79.7565 62.1953 79.2695 61.8516C78.7826 61.5078 78.2884 61.1569 77.7871 60.7988C76.7988 60.097 75.9609 59.2734 75.2734 58.3281C74.5859 57.3828 74.2422 56.3802 74.2422 55.3203C74.2422 53.6016 74.6719 52.069 75.5312 50.7227C76.4049 49.3763 77.5651 48.3164 79.0117 47.543C80.4727 46.7695 82.0911 46.3828 83.8672 46.3828C84.6263 46.3828 85.5859 46.5404 86.7461 46.8555C87.3333 47.013 87.849 47.1419 88.293 47.2422C88.737 47.3281 89.1094 47.3854 89.4102 47.4141C89.3099 48.2018 89.2096 48.9967 89.1094 49.7988C89.0234 50.5866 88.9375 51.3815 88.8516 52.1836C88.7656 53 88.7012 53.487 88.6582 53.6445C88.6152 53.7878 88.5508 53.8594 88.4648 53.8594C88.0495 53.8594 87.7201 53.7734 87.4766 53.6016C87.4193 53.5872 87.3906 53.4154 87.3906 53.0859C87.3906 52.1836 87.1901 51.3672 86.7891 50.6367C86.388 49.9062 85.8581 49.3262 85.1992 48.8965C84.5404 48.4525 83.8242 48.2305 83.0508 48.2305C81.418 48.2305 80.1003 48.7246 79.0977 49.7129C78.0951 50.7012 77.5938 51.9401 77.5938 53.4297C77.5938 54.9479 78.2956 56.2656 79.6992 57.3828C80.5013 58.013 81.4395 58.6934 82.5137 59.4238C83.6022 60.14 84.5475 60.8346 85.3496 61.5078C85.9368 61.9948 86.5169 62.6895 87.0898 63.5918C87.6628 64.4941 87.9492 65.4466 87.9492 66.4492C87.9492 67.3372 87.7344 68.2826 87.3047 69.2852C86.875 70.2878 86.2591 71.2402 85.457 72.1426C84.6549 73.0449 83.5951 73.7897 82.2773 74.377C80.9596 74.9642 79.513 75.2578 77.9375 75.2578C76.3906 75.2578 74.1133 74.9141 71.1055 74.2266C71.1628 73.3099 71.2057 72.5651 71.2344 71.9922C71.263 71.4049 71.2773 70.9896 71.2773 70.7461C71.2773 70.1159 71.263 69.4857 71.2344 68.8555C71.2057 68.2253 71.1914 67.7526 71.1914 67.4375C71.1914 67.237 71.4635 67.1367 72.0078 67.1367C72.2799 67.1367 72.5521 67.2513 72.8242 67.4805C72.8242 68.082 72.8887 68.6836 73.0176 69.2852C73.1465 69.8867 73.39 70.5312 73.748 71.2188C74.1061 71.9062 74.679 72.4577 75.4668 72.873C76.2546 73.2884 77.207 73.4961 78.3242 73.4961C79.3411 73.4961 80.3008 73.2598 81.2031 72.7871C82.1055 72.3145 82.8359 71.6413 83.3945 70.7676C83.9674 69.8796 84.2539 68.8268 84.2539 67.6094ZM104.062 56.3086C105.495 56.3086 106.211 57.2539 106.211 59.1445C106.211 60.4766 106.01 62.0378 105.609 63.8281L104.191 70.4453C104.105 70.7891 104.062 71.1471 104.062 71.5195C104.062 72.2357 104.206 72.5938 104.492 72.5938C104.85 72.5938 105.28 72.3431 105.781 71.8418C106.283 71.3262 106.712 70.8893 107.07 70.5312L107.328 70.2305C107.385 70.2305 107.493 70.3665 107.65 70.6387C107.808 70.9108 107.887 71.1042 107.887 71.2188C107.643 71.6341 107.199 72.1641 106.555 72.8086C105.924 73.4531 105.237 74.026 104.492 74.5273C103.747 75.0143 103.074 75.2578 102.473 75.2578C102.014 75.2578 101.656 75.0501 101.398 74.6348C101.141 74.2194 101.012 73.6823 101.012 73.0234C101.012 72.5938 101.112 71.8346 101.312 70.7461L102.816 63.6562C103.017 62.6823 103.117 61.9089 103.117 61.3359C103.117 60.1042 102.845 59.4883 102.301 59.4883C101.828 59.4883 101.191 59.8464 100.389 60.5625C99.5866 61.2643 98.7487 62.2025 97.875 63.377C97.0156 64.5514 96.235 65.862 95.5332 67.3086C94.8314 68.7409 94.3372 70.1875 94.0508 71.6484L93.3203 75C92.9336 75.1146 92.4896 75.1719 91.9883 75.1719C91.5013 75.1719 91.0143 75.1146 90.5273 75L95.168 50.9805C95.4258 49.7057 95.5547 48.9466 95.5547 48.7031C95.5547 48.1589 94.681 47.8867 92.9336 47.8867C92.8477 47.8867 92.8047 47.8008 92.8047 47.6289C92.8047 47.2852 92.9193 46.9987 93.1484 46.7695C95.0104 46.5977 96.8151 46.1966 98.5625 45.5664C98.7344 45.6523 98.8203 45.9245 98.8203 46.3828C98.8203 46.5833 98.6341 47.6576 98.2617 49.6055L95.2969 64.7734C95.569 64.2865 96.1921 63.3984 97.166 62.1094C97.8105 61.2643 98.5553 60.3978 99.4004 59.5098C100.26 58.6074 101.105 57.8483 101.936 57.2324C102.781 56.6165 103.49 56.3086 104.062 56.3086ZM119.875 56.3086C121.565 56.3086 122.876 56.8958 123.807 58.0703C124.738 59.2448 125.203 60.8633 125.203 62.9258C125.203 64.401 124.917 65.8691 124.344 67.3301C123.771 68.7767 123.019 70.0944 122.088 71.2832C121.157 72.472 120.133 73.4245 119.016 74.1406C117.898 74.8568 116.796 75.2148 115.707 75.2148C113.988 75.2148 112.678 74.6562 111.775 73.5391C110.873 72.4219 110.422 70.832 110.422 68.7695C110.422 67.2799 110.701 65.8047 111.26 64.3438C111.833 62.8685 112.585 61.5293 113.516 60.3262C114.447 59.1087 115.464 58.1348 116.566 57.4043C117.684 56.6738 118.786 56.3086 119.875 56.3086ZM119.359 58.0703C118.643 58.0703 117.949 58.3854 117.275 59.0156C116.602 59.6315 115.993 60.4408 115.449 61.4434C114.905 62.446 114.475 63.5417 114.16 64.7305C113.845 65.9193 113.688 67.0794 113.688 68.2109C113.688 69.8724 113.952 71.1615 114.482 72.0781C115.012 72.9948 115.678 73.4531 116.48 73.4531C117.197 73.4531 117.877 73.1452 118.521 72.5293C119.18 71.8991 119.768 71.0827 120.283 70.0801C120.799 69.0632 121.2 67.9603 121.486 66.7715C121.787 65.5827 121.938 64.4154 121.938 63.2695C121.938 61.5794 121.708 60.2904 121.25 59.4023C120.792 58.5143 120.161 58.0703 119.359 58.0703ZM132.375 44.068C132.111 45.0947 131.774 46.2093 131.363 47.412C130.952 48.6147 130.498 49.8173 129.999 51.02C129.53 52.1933 129.06 53.308 128.591 54.364H125.731C125.936 53.5427 126.142 52.6627 126.347 51.724C126.582 50.7853 126.787 49.8467 126.963 48.908C127.168 47.94 127.344 47.0013 127.491 46.092C127.667 45.1827 127.814 44.3467 127.931 43.584H132.067L132.375 44.068ZM141.789 56.3086C142.247 56.3086 142.605 56.5163 142.863 56.9316C143.121 57.347 143.25 57.8841 143.25 58.543C143.25 59.1732 143.164 59.9323 142.992 60.8203L142.305 64.4297C142.663 63.5846 143.121 62.6966 143.68 61.7656C144.253 60.8203 144.861 59.9323 145.506 59.1016C146.15 58.2708 146.788 57.5977 147.418 57.082C148.048 56.5664 148.607 56.3086 149.094 56.3086C150.068 56.3086 150.855 56.7669 151.457 57.6836C151.457 59.6029 150.927 60.5625 149.867 60.5625C149.638 60.5625 149.366 60.3835 149.051 60.0254C148.736 59.6673 148.406 59.4883 148.062 59.4883C147.647 59.4883 147.103 59.832 146.43 60.5195C145.757 61.207 145.062 62.1094 144.346 63.2266C143.63 64.3294 142.985 65.5254 142.412 66.8145C141.839 68.0892 141.445 69.3138 141.23 70.4883L140.414 75C139.927 75.0859 139.454 75.1289 138.996 75.1289C138.452 75.1289 137.922 75.0859 137.406 75L139.984 61.7656C140.128 60.7773 140.199 60.2044 140.199 60.0469C140.199 59.3307 140.056 58.9727 139.77 58.9727C139.526 58.9727 139.161 59.2018 138.674 59.6602C138.445 59.8893 138.194 60.14 137.922 60.4121C137.664 60.6842 137.492 60.8776 137.406 60.9922C137.349 60.9922 137.242 60.8561 137.084 60.584C136.926 60.3118 136.848 60.1185 136.848 60.0039C137.077 59.6172 137.492 59.1374 138.094 58.5645C138.695 57.9772 139.34 57.4544 140.027 56.9961C140.715 56.5378 141.302 56.3086 141.789 56.3086ZM161.254 56.3086C162.944 56.3086 164.255 56.8958 165.186 58.0703C166.117 59.2448 166.582 60.8633 166.582 62.9258C166.582 64.401 166.296 65.8691 165.723 67.3301C165.15 68.7767 164.398 70.0944 163.467 71.2832C162.536 72.472 161.512 73.4245 160.395 74.1406C159.277 74.8568 158.174 75.2148 157.086 75.2148C155.367 75.2148 154.057 74.6562 153.154 73.5391C152.252 72.4219 151.801 70.832 151.801 68.7695C151.801 67.2799 152.08 65.8047 152.639 64.3438C153.212 62.8685 153.964 61.5293 154.895 60.3262C155.826 59.1087 156.842 58.1348 157.945 57.4043C159.062 56.6738 160.165 56.3086 161.254 56.3086ZM160.738 58.0703C160.022 58.0703 159.327 58.3854 158.654 59.0156C157.981 59.6315 157.372 60.4408 156.828 61.4434C156.284 62.446 155.854 63.5417 155.539 64.7305C155.224 65.9193 155.066 67.0794 155.066 68.2109C155.066 69.8724 155.331 71.1615 155.861 72.0781C156.391 72.9948 157.057 73.4531 157.859 73.4531C158.576 73.4531 159.256 73.1452 159.9 72.5293C160.559 71.8991 161.146 71.0827 161.662 70.0801C162.178 69.0632 162.579 67.9603 162.865 66.7715C163.166 65.5827 163.316 64.4154 163.316 63.2695C163.316 61.5794 163.087 60.2904 162.629 59.4023C162.171 58.5143 161.54 58.0703 160.738 58.0703Z" fill="white"/>
<path d="M0 14.4961C6.30012 20.0984 15.0791 19.1979 30.687 15.1421C32.2497 14.736 33.9168 14.9601 35.3059 15.7832L61.0905 31.063L35.3304 19.6141C33.9205 18.9874 32.3183 18.9353 30.8588 19.4358C12.5496 25.7159 4.73674 24.7283 0 14.4961Z" fill="url(#paint8_radial_692_1600)"/>
<path d="M16.5669 25.8858C22.7094 27.5488 34.4861 19.1752 43.5027 24.2129C35.7991 20.3448 24.9274 34.7378 16.5669 25.8858Z" fill="url(#paint9_radial_692_1600)"/>
<path d="M42.4528 34.1693C40.4746 32.9379 39.8039 31.791 39.5364 30.2054C39.314 28.8871 40.2138 27.6374 41.514 27.3262C46.4064 26.1551 49.6595 27.3172 54.8779 31.063C50.3759 26.3362 46.8249 25.2844 39.6469 25.78C38.7972 25.8387 38.0191 26.2751 37.5081 26.9564L36.1669 28.7446C35.6047 29.4943 35.6307 30.5432 36.2784 31.2205C38.4425 33.4837 39.9798 34.1156 42.4528 34.1693Z" fill="url(#paint10_radial_692_1600)"/>
<path d="M61.0905 28.9921C48.8725 19.5072 53.131 18.6378 60.0551 10.3543C56.6285 8.93238 54.8937 8.83857 52.8071 12.4252C51.2879 8.29387 49.7783 6.42726 45.559 4.14173C43.8524 8.52031 44.6321 10.6991 46.5945 14.4961C42.9378 12.0347 40.7471 11.3823 36.2402 13.4606C46.3046 17.727 45.2926 18.8748 61.0905 28.9921Z" fill="url(#paint11_radial_692_1600)"/>
<path d="M78.6929 22.7441C78.6929 22.1918 79.1406 21.7441 79.6929 21.7441H79.7638C80.3161 21.7441 80.7638 22.1918 80.7638 22.7441V25.9213C80.7638 26.4735 80.3161 26.9213 79.7638 26.9213H74.4803C73.3757 26.9213 72.4803 26.0258 72.4803 24.9213V19.6024C72.4803 18.4978 73.3757 17.6024 74.4803 17.6024H78.7281C80.6137 17.6024 82.4755 18.023 84.178 18.8337V18.8337C85.2965 19.3663 86.1249 20.3629 86.4441 21.5599L88.3399 28.6695C89.2063 31.9182 86.6836 35.0788 83.3237 34.9544L68.0679 34.3894C64.7776 34.2675 62.2002 31.5169 62.2923 28.2256L62.6948 13.8426C62.7856 10.5955 65.4441 8.01038 68.6924 8.01038H83.0387C86.0229 8.01038 88.8896 9.21712 90.915 11.4088C101.807 23.194 109.097 33.3225 115.395 32.2299C115.685 32.1796 115.968 32.3916 115.968 32.686V32.686C115.968 32.9325 115.766 33.1318 115.519 33.1285C109.37 33.045 105.37 32.4313 87.653 13.254C86.5367 12.0456 85.0793 11.1983 83.4735 10.8414L77.8584 9.59364C77.0431 9.41248 76.199 9.4035 75.3801 9.56728L71.091 10.4251C68.2865 10.986 66.2677 13.4485 66.2677 16.3086V27.0984C66.2677 29.8599 68.5063 32.0984 71.2677 32.0984H80.9055C83.1146 32.0984 84.9055 30.3076 84.9055 28.0984V22.6378C84.9055 20.4287 83.1146 18.6378 80.9055 18.6378H76.5512C75.4466 18.6378 74.5512 19.5332 74.5512 20.6378V24.8858C74.5512 25.4381 74.9989 25.8858 75.5512 25.8858H77.6929C78.2452 25.8858 78.6929 25.4381 78.6929 24.8858V22.7441Z" fill="url(#paint12_radial_692_1600)"/>
<path d="M104.412 33.0631C96.4743 29.9513 88.3242 12.4066 78.6929 13.4606C91.6665 19.2326 92.9183 31.4785 104.412 33.0631Z" fill="url(#paint13_radial_692_1600)"/>
<path d="M111.827 30.0276C106.485 21.6827 106.361 16.9143 110.791 8.28346C105.363 9.71409 97.6256 19.5114 111.827 30.0276Z" fill="url(#paint14_radial_692_1600)"/>
<path d="M118.039 10.3543C113.102 14.0549 110.405 23.2793 118.039 32.0984C106.33 25.6888 109.793 12.7713 118.039 0V10.3543Z" fill="url(#paint15_radial_692_1600)"/>
<path d="M236.079 14.4961C229.778 20.0984 221 19.1979 205.392 15.1421C203.829 14.736 202.162 14.9601 200.773 15.7832L174.988 31.063L200.748 19.6141C202.158 18.9874 203.76 18.9353 205.22 19.4358C223.529 25.7159 231.342 24.7283 236.079 14.4961Z" fill="url(#paint16_radial_692_1600)"/>
<path d="M219.512 25.8858C213.369 27.5488 201.593 19.1752 192.576 24.2129C200.279 20.3448 211.151 34.7378 219.512 25.8858Z" fill="url(#paint17_radial_692_1600)"/>
<path d="M193.626 34.1693C195.604 32.9379 196.275 31.791 196.542 30.2054C196.765 28.8871 195.865 27.6374 194.565 27.3262C189.672 26.1551 186.419 27.3172 181.201 31.063C185.703 26.3362 189.254 25.2844 196.432 25.78C197.281 25.8387 198.06 26.2751 198.571 26.9564L199.912 28.7446C200.474 29.4943 200.448 30.5432 199.8 31.2205C197.636 33.4837 196.099 34.1156 193.626 34.1693Z" fill="url(#paint18_radial_692_1600)"/>
<path d="M174.988 28.9921C187.206 19.5072 182.948 18.6378 176.024 10.3543C179.45 8.93238 181.185 8.83857 183.272 12.4252C184.791 8.29387 186.3 6.42726 190.52 4.14173C192.226 8.52031 191.446 10.6991 189.484 14.4961C193.141 12.0347 195.331 11.3823 199.838 13.4606C189.774 17.727 190.786 18.8748 174.988 28.9921Z" fill="url(#paint19_radial_692_1600)"/>
<path d="M157.386 22.7441C157.386 22.1918 156.938 21.7441 156.386 21.7441H156.315C155.763 21.7441 155.315 22.1918 155.315 22.7441V25.9213C155.315 26.4735 155.763 26.9213 156.315 26.9213H161.598C162.703 26.9213 163.598 26.0258 163.598 24.9213V19.6024C163.598 18.4978 162.703 17.6024 161.598 17.6024H157.351C155.465 17.6024 153.603 18.023 151.901 18.8337V18.8337C150.782 19.3663 149.954 20.3629 149.635 21.5599L147.739 28.6695C146.872 31.9182 149.395 35.0788 152.755 34.9544L168.011 34.3894C171.301 34.2675 173.878 31.5169 173.786 28.2256L173.384 13.8426C173.293 10.5955 170.635 8.01038 167.386 8.01038H153.04C150.056 8.01038 147.189 9.21712 145.164 11.4088C134.272 23.194 126.982 33.3225 120.683 32.2299C120.393 32.1796 120.11 32.3916 120.11 32.686V32.686C120.11 32.9325 120.313 33.1318 120.559 33.1285C126.708 33.045 130.709 32.4313 148.426 13.254C149.542 12.0456 150.999 11.1983 152.605 10.8414L158.22 9.59364C159.035 9.41248 159.88 9.4035 160.698 9.56728L164.988 10.4251C167.792 10.986 169.811 13.4485 169.811 16.3086V27.0984C169.811 29.8599 167.572 32.0984 164.811 32.0984H155.173C152.964 32.0984 151.173 30.3076 151.173 28.0984V22.6378C151.173 20.4287 152.964 18.6378 155.173 18.6378H159.527C160.632 18.6378 161.527 19.5332 161.527 20.6378V24.8858C161.527 25.4381 161.08 25.8858 160.527 25.8858H158.386C157.833 25.8858 157.386 25.4381 157.386 24.8858V22.7441Z" fill="url(#paint20_radial_692_1600)"/>
<path d="M131.666 33.0631C139.604 29.9513 147.754 12.4066 157.386 13.4606C144.412 19.2326 143.16 31.4785 131.666 33.0631Z" fill="url(#paint21_radial_692_1600)"/>
<path d="M124.252 30.0276C129.594 21.6827 129.718 16.9143 125.287 8.28346C130.716 9.71409 138.453 19.5114 124.252 30.0276Z" fill="url(#paint22_radial_692_1600)"/>
<path d="M118.039 10.3543C122.976 14.0549 125.673 23.2793 118.039 32.0984C129.749 25.6888 126.286 12.7713 118.039 0V10.3543Z" fill="url(#paint23_radial_692_1600)"/>
<defs>
<radialGradient id="paint0_radial_692_1600" cx="0" cy="0" r="1" gradientUnits="userSpaceOnUse" gradientTransform="translate(79.728 111.309) scale(38.311 20.1909)">
<stop stop-color="#E1E1E1"/>
<stop offset="1" stop-color="#FFF4DA"/>
</radialGradient>
<radialGradient id="paint1_radial_692_1600" cx="0" cy="0" r="1" gradientUnits="userSpaceOnUse" gradientTransform="translate(79.728 111.309) scale(38.311 20.1909)">
<stop stop-color="#E1E1E1"/>
<stop offset="1" stop-color="#FFF4DA"/>
</radialGradient>
<radialGradient id="paint2_radial_692_1600" cx="0" cy="0" r="1" gradientUnits="userSpaceOnUse" gradientTransform="translate(79.728 111.309) scale(38.311 20.1909)">
<stop stop-color="#E1E1E1"/>
<stop offset="1" stop-color="#FFF4DA"/>
</radialGradient>
<radialGradient id="paint3_radial_692_1600" cx="0" cy="0" r="1" gradientUnits="userSpaceOnUse" gradientTransform="translate(79.728 111.309) scale(38.311 20.1909)">
<stop stop-color="#E1E1E1"/>
<stop offset="1" stop-color="#FFF4DA"/>
</radialGradient>
<radialGradient id="paint4_radial_692_1600" cx="0" cy="0" r="1" gradientUnits="userSpaceOnUse" gradientTransform="translate(156.35 111.309) rotate(180) scale(38.311 20.1909)">
<stop stop-color="#E1E1E1"/>
<stop offset="1" stop-color="#FFF4DA"/>
</radialGradient>
<radialGradient id="paint5_radial_692_1600" cx="0" cy="0" r="1" gradientUnits="userSpaceOnUse" gradientTransform="translate(156.35 111.309) rotate(180) scale(38.311 20.1909)">
<stop stop-color="#E1E1E1"/>
<stop offset="1" stop-color="#FFF4DA"/>
</radialGradient>
<radialGradient id="paint6_radial_692_1600" cx="0" cy="0" r="1" gradientUnits="userSpaceOnUse" gradientTransform="translate(156.35 111.309) rotate(180) scale(38.311 20.1909)">
<stop stop-color="#E1E1E1"/>
<stop offset="1" stop-color="#FFF4DA"/>
</radialGradient>
<radialGradient id="paint7_radial_692_1600" cx="0" cy="0" r="1" gradientUnits="userSpaceOnUse" gradientTransform="translate(156.35 111.309) rotate(180) scale(38.311 20.1909)">
<stop stop-color="#E1E1E1"/>
<stop offset="1" stop-color="#FFF4DA"/>
</radialGradient>
<radialGradient id="paint8_radial_692_1600" cx="0" cy="0" r="1" gradientUnits="userSpaceOnUse" gradientTransform="translate(59.0197 17.6024) scale(59.0197 17.6024)">
<stop stop-color="#E1E1E1"/>
<stop offset="1" stop-color="#FFF4DA"/>
</radialGradient>
<radialGradient id="paint9_radial_692_1600" cx="0" cy="0" r="1" gradientUnits="userSpaceOnUse" gradientTransform="translate(59.0197 17.6024) scale(59.0197 17.6024)">
<stop stop-color="#E1E1E1"/>
<stop offset="1" stop-color="#FFF4DA"/>
</radialGradient>
<radialGradient id="paint10_radial_692_1600" cx="0" cy="0" r="1" gradientUnits="userSpaceOnUse" gradientTransform="translate(59.0197 17.6024) scale(59.0197 17.6024)">
<stop stop-color="#E1E1E1"/>
<stop offset="1" stop-color="#FFF4DA"/>
</radialGradient>
<radialGradient id="paint11_radial_692_1600" cx="0" cy="0" r="1" gradientUnits="userSpaceOnUse" gradientTransform="translate(59.0197 17.6024) scale(59.0197 17.6024)">
<stop stop-color="#E1E1E1"/>
<stop offset="1" stop-color="#FFF4DA"/>
</radialGradient>
<radialGradient id="paint12_radial_692_1600" cx="0" cy="0" r="1" gradientUnits="userSpaceOnUse" gradientTransform="translate(59.0197 17.6024) scale(59.0197 17.6024)">
<stop stop-color="#E1E1E1"/>
<stop offset="1" stop-color="#FFF4DA"/>
</radialGradient>
<radialGradient id="paint13_radial_692_1600" cx="0" cy="0" r="1" gradientUnits="userSpaceOnUse" gradientTransform="translate(59.0197 17.6024) scale(59.0197 17.6024)">
<stop stop-color="#E1E1E1"/>
<stop offset="1" stop-color="#FFF4DA"/>
</radialGradient>
<radialGradient id="paint14_radial_692_1600" cx="0" cy="0" r="1" gradientUnits="userSpaceOnUse" gradientTransform="translate(59.0197 17.6024) scale(59.0197 17.6024)">
<stop stop-color="#E1E1E1"/>
<stop offset="1" stop-color="#FFF4DA"/>
</radialGradient>
<radialGradient id="paint15_radial_692_1600" cx="0" cy="0" r="1" gradientUnits="userSpaceOnUse" gradientTransform="translate(59.0197 17.6024) scale(59.0197 17.6024)">
<stop stop-color="#E1E1E1"/>
<stop offset="1" stop-color="#FFF4DA"/>
</radialGradient>
<radialGradient id="paint16_radial_692_1600" cx="0" cy="0" r="1" gradientUnits="userSpaceOnUse" gradientTransform="translate(177.059 17.6024) rotate(180) scale(59.0197 17.6024)">
<stop stop-color="#E1E1E1"/>
<stop offset="1" stop-color="#FFF4DA"/>
</radialGradient>
<radialGradient id="paint17_radial_692_1600" cx="0" cy="0" r="1" gradientUnits="userSpaceOnUse" gradientTransform="translate(177.059 17.6024) rotate(180) scale(59.0197 17.6024)">
<stop stop-color="#E1E1E1"/>
<stop offset="1" stop-color="#FFF4DA"/>
</radialGradient>
<radialGradient id="paint18_radial_692_1600" cx="0" cy="0" r="1" gradientUnits="userSpaceOnUse" gradientTransform="translate(177.059 17.6024) rotate(180) scale(59.0197 17.6024)">
<stop stop-color="#E1E1E1"/>
<stop offset="1" stop-color="#FFF4DA"/>
</radialGradient>
<radialGradient id="paint19_radial_692_1600" cx="0" cy="0" r="1" gradientUnits="userSpaceOnUse" gradientTransform="translate(177.059 17.6024) rotate(180) scale(59.0197 17.6024)">
<stop stop-color="#E1E1E1"/>
<stop offset="1" stop-color="#FFF4DA"/>
</radialGradient>
<radialGradient id="paint20_radial_692_1600" cx="0" cy="0" r="1" gradientUnits="userSpaceOnUse" gradientTransform="translate(177.059 17.6024) rotate(180) scale(59.0197 17.6024)">
<stop stop-color="#E1E1E1"/>
<stop offset="1" stop-color="#FFF4DA"/>
</radialGradient>
<radialGradient id="paint21_radial_692_1600" cx="0" cy="0" r="1" gradientUnits="userSpaceOnUse" gradientTransform="translate(177.059 17.6024) rotate(180) scale(59.0197 17.6024)">
<stop stop-color="#E1E1E1"/>
<stop offset="1" stop-color="#FFF4DA"/>
</radialGradient>
<radialGradient id="paint22_radial_692_1600" cx="0" cy="0" r="1" gradientUnits="userSpaceOnUse" gradientTransform="translate(177.059 17.6024) rotate(180) scale(59.0197 17.6024)">
<stop stop-color="#E1E1E1"/>
<stop offset="1" stop-color="#FFF4DA"/>
</radialGradient>
<radialGradient id="paint23_radial_692_1600" cx="0" cy="0" r="1" gradientUnits="userSpaceOnUse" gradientTransform="translate(177.059 17.6024) rotate(180) scale(59.0197 17.6024)">
<stop stop-color="#E1E1E1"/>
<stop offset="1" stop-color="#FFF4DA"/>
</radialGradient>
</defs>
</svg>
