<svg width="237" height="132" viewBox="0 0 237 132" fill="none" xmlns="http://www.w3.org/2000/svg">
<path d="M50.713 108.06C49.3894 108.487 47.9219 108.504 46.7174 107.809C44.5799 106.575 44.1417 105.154 44.5239 102.508V102.508C42.8803 103.056 42.0634 104.953 43.0344 106.388C43.9981 107.812 45.0942 108.974 46.6272 110.246C47.9176 111.316 49.57 111.855 51.2463 111.812C56.4411 111.679 59.0354 110.851 62.1261 108.72C61.1055 110.641 61.1623 111.76 61.9889 113.6C62.061 113.76 62.2573 113.822 62.4081 113.731C64.083 112.73 65.0044 111.892 66.2679 109.756C66.2159 114.032 66.9848 113.977 70.4096 114.933C67.5199 110.86 68.053 109.221 70.1985 106.254C70.9963 105.151 72.1264 104.331 73.4058 103.866L78.5781 101.985C81.3347 100.982 84.3491 100.942 87.1317 101.869L104.174 107.55C104.308 107.435 104.443 107.326 104.579 107.223V104.508C104.579 103.403 105.474 102.508 106.579 102.508H108.791C109.896 102.508 110.791 103.403 110.791 104.508V105.614H111.827V103.472C111.827 102.368 110.931 101.472 109.827 101.472H105.543C104.439 101.472 103.543 102.368 103.543 103.472V106.65C98.7741 103.748 93.5326 101.584 86.7262 99.7769C82.8461 98.747 78.7539 99.0145 74.9333 100.247L50.713 108.06Z" fill="url(#paint0_radial_692_1810)"/>
<path fill-rule="evenodd" clip-rule="evenodd" d="M118.04 111.827V108.721C115.458 105.74 114.164 105.799 111.827 105.614H110.791C108.063 105.589 106.223 105.979 104.579 107.223V107.685L104.174 107.55C103.27 108.327 102.41 109.382 101.473 110.791C94.423 108.167 92.2423 105.859 84.6309 104.117C82.7932 103.696 80.8384 103.854 79.1738 104.739C77.1411 105.82 75.7483 107.075 74.4009 109.235C73.7981 110.201 73.7054 111.42 74.2151 112.438C75.05 114.107 76.2503 115.417 79.1381 117.128C80.1191 117.709 81.351 117.62 82.2789 116.957L86.2804 114.099C87.2189 113.429 87.4133 112.09 86.6216 111.251C84.8307 109.354 83.7232 109.09 81.7994 109.756C83.0247 110.067 83.7478 110.456 84.3965 111.688C84.7601 112.378 84.5523 113.216 84.0005 113.767L82.2759 115.492C81.3711 116.397 79.9668 116.664 78.906 115.948C77.392 114.927 76.4786 113.802 75.488 112.283C74.8942 111.372 74.8544 110.185 75.4804 109.296C77.1885 106.871 79.0768 106.022 82.8348 105.614C87.5143 105.758 93.9739 109.592 101.473 112.862C101.611 115.305 101.827 117.608 105.431 119.531C106.15 119.915 107.027 119.733 107.604 119.156L110.252 116.508C110.55 116.21 110.55 115.727 110.252 115.429V115.429C109.972 115.149 109.522 115.134 109.211 115.381C104.883 118.812 103.35 117.017 102.508 112.862C108.785 113.743 111.601 112.063 112.862 106.65H114.933L118.04 111.827ZM102.508 111.827C105.324 107.593 107.417 106.549 111.827 106.65C109.582 111.782 107.624 113.001 102.508 111.827Z" fill="url(#paint1_radial_692_1810)"/>
<path d="M118.04 114.933V111.827C116.112 115.763 116.189 118.074 110.791 119.075C111.96 121.038 112.806 121.636 114.933 121.146C115.325 125.201 115.718 127.472 118.04 131.5V125.287C116.703 121.107 116.953 118.865 118.04 114.933Z" fill="url(#paint2_radial_692_1810)"/>
<path d="M115.969 98.3662C116.06 94.792 116.696 93.3936 118.04 91.1182V105.614C115.723 100.811 114.342 99.4138 111.827 99.4015C113.365 97.8121 114.277 97.3638 115.969 98.3662Z" fill="url(#paint3_radial_692_1810)"/>
<path d="M185.366 108.06C186.69 108.487 188.157 108.504 189.362 107.809C191.499 106.575 191.937 105.154 191.555 102.508V102.508C193.199 103.056 194.016 104.953 193.045 106.388C192.081 107.812 190.985 108.974 189.452 110.246C188.161 111.316 186.509 111.855 184.833 111.812C179.638 111.679 177.044 110.851 173.953 108.72C174.974 110.641 174.917 111.76 174.09 113.6C174.018 113.76 173.822 113.822 173.671 113.731C171.996 112.73 171.075 111.892 169.811 109.756C169.863 114.032 169.094 113.977 165.669 114.933C168.559 110.86 168.026 109.221 165.881 106.254C165.083 105.151 163.953 104.331 162.673 103.866L157.501 101.985C154.744 100.982 151.73 100.942 148.947 101.869L131.905 107.55C131.771 107.435 131.636 107.326 131.5 107.223V104.508C131.5 103.403 130.605 102.508 129.5 102.508H127.288C126.183 102.508 125.288 103.403 125.288 104.508V105.614H124.252V103.472C124.252 102.368 125.148 101.472 126.252 101.472H130.536C131.64 101.472 132.536 102.368 132.536 103.472V106.65C137.305 103.748 142.547 101.584 149.353 99.7769C153.233 98.747 157.325 99.0145 161.146 100.247L185.366 108.06Z" fill="url(#paint4_radial_692_1810)"/>
<path fill-rule="evenodd" clip-rule="evenodd" d="M118.04 111.827V108.721C120.621 105.74 121.915 105.799 124.252 105.614H125.288C128.016 105.589 129.856 105.979 131.5 107.223V107.685L131.905 107.55C132.809 108.327 133.669 109.382 134.607 110.791C141.656 108.167 143.837 105.859 151.448 104.117C153.286 103.696 155.241 103.854 156.905 104.739C158.938 105.82 160.331 107.075 161.678 109.235C162.281 110.201 162.374 111.42 161.864 112.438C161.029 114.107 159.829 115.417 156.941 117.128C155.96 117.709 154.728 117.62 153.8 116.957L149.799 114.099C148.86 113.429 148.666 112.09 149.457 111.251C151.248 109.354 152.356 109.09 154.28 109.756C153.054 110.067 152.331 110.456 151.683 111.688C151.319 112.378 151.527 113.216 152.079 113.767L153.803 115.492C154.708 116.397 156.112 116.664 157.173 115.948C158.687 114.927 159.601 113.802 160.591 112.283C161.185 111.372 161.225 110.185 160.599 109.296C158.891 106.871 157.002 106.022 153.244 105.614C148.565 105.758 142.105 109.592 134.607 112.862C134.468 115.305 134.252 117.608 130.648 119.531C129.929 119.915 129.052 119.733 128.475 119.156L125.827 116.508C125.529 116.21 125.529 115.727 125.827 115.429V115.429C126.107 115.149 126.557 115.134 126.868 115.381C131.196 118.812 132.729 117.017 133.571 112.862C127.294 113.743 124.479 112.063 123.217 106.65H121.146L118.04 111.827ZM133.571 111.827C130.755 107.593 128.662 106.549 124.252 106.65C126.497 111.782 128.455 113.001 133.571 111.827Z" fill="url(#paint5_radial_692_1810)"/>
<path d="M118.04 114.933V111.827C119.967 115.763 119.89 118.074 125.288 119.075C124.119 121.038 123.273 121.636 121.146 121.146C120.755 125.201 120.362 127.472 118.04 131.5V125.287C119.376 121.107 119.126 118.865 118.04 114.933Z" fill="url(#paint6_radial_692_1810)"/>
<path d="M120.11 98.3662C120.019 94.792 119.383 93.3936 118.04 91.1182V105.614C120.356 100.811 121.737 99.4138 124.252 99.4015C122.714 97.8121 121.802 97.3638 120.11 98.3662Z" fill="url(#paint7_radial_692_1810)"/>
<path d="M57.2461 68.8984L60.2109 53.6445C60.5833 51.625 60.7695 50.2357 60.7695 49.4766C60.7695 49.2904 60.7337 49.14 60.6621 49.0254C60.5618 48.8965 60.0964 48.7891 59.2656 48.7031C58.4349 48.6172 57.5182 48.5742 56.5156 48.5742C55.513 48.5742 54.7109 48.6745 54.1094 48.875C53.5221 49.0612 53.0208 49.4264 52.6055 49.9707C52.2044 50.515 51.7604 51.3242 51.2734 52.3984C51.2161 52.5417 51.0729 52.6133 50.8438 52.6133C50.4714 52.6133 50.1849 52.513 49.9844 52.3125L51.875 46.168C52.9492 46.4831 53.8516 46.6406 54.582 46.6406C55.4128 46.6406 56.3438 46.6621 57.375 46.7051C58.4062 46.748 59.4375 46.791 60.4688 46.834C61.5143 46.877 62.4453 46.8984 63.2617 46.8984C64.1068 46.8984 65.0521 46.877 66.0977 46.834C67.1576 46.791 68.2103 46.748 69.2559 46.7051C70.3158 46.6621 71.2682 46.6406 72.1133 46.6406C72.7578 46.6406 73.7031 46.4831 74.9492 46.168L74.5195 52.3125C74.2474 52.513 73.918 52.6133 73.5312 52.6133C73.2734 52.6133 73.1445 52.5417 73.1445 52.3984C73.1445 50.8516 72.8652 49.8275 72.3066 49.3262C71.748 48.8249 70.7956 48.5742 69.4492 48.5742C66.6133 48.5742 65.0951 48.7891 64.8945 49.2188C64.694 49.6484 64.4935 50.2214 64.293 50.9375C64.0924 51.6536 63.8919 52.513 63.6914 53.5156L60.6836 69.0273C60.3685 70.5599 60.2109 71.849 60.2109 72.8945C60.2109 73.1237 60.4043 73.3314 60.791 73.5176C61.1777 73.7038 61.5573 73.8255 61.9297 73.8828L62.5312 73.9688C62.5885 73.9688 62.6172 74.026 62.6172 74.1406C62.6172 74.4557 62.5312 74.7852 62.3594 75.1289C61.0417 75.0573 60.0104 75.0072 59.2656 74.9785C58.5208 74.9355 58.0625 74.9141 57.8906 74.9141C57.862 74.9141 57.4538 74.9355 56.666 74.9785C55.8783 75.0072 54.7109 75.0573 53.1641 75.1289C53.1068 75.0716 53.0781 74.957 53.0781 74.7852C53.0781 74.2409 53.1784 73.9688 53.3789 73.9688C53.6081 73.9688 53.9232 73.9258 54.3242 73.8398C54.7396 73.7539 55.1263 73.6393 55.4844 73.4961C55.8424 73.3529 56.0573 73.1953 56.1289 73.0234C56.5443 72.0781 56.9167 70.7031 57.2461 68.8984ZM84.5742 56.3086C85.6341 56.3086 86.6797 56.4948 87.7109 56.8672L85.0898 70.4453C85.0039 70.7891 84.9609 71.1471 84.9609 71.5195C84.9609 72.2357 85.1042 72.5938 85.3906 72.5938C85.7487 72.5938 86.1784 72.3431 86.6797 71.8418C87.181 71.3262 87.6107 70.8893 87.9688 70.5312L88.2266 70.2305C88.2839 70.2305 88.3913 70.3665 88.5488 70.6387C88.7064 70.9108 88.7852 71.1042 88.7852 71.2188C88.5417 71.6341 88.0977 72.1641 87.4531 72.8086C86.8229 73.4531 86.1354 74.026 85.3906 74.5273C84.6458 75.0143 83.9727 75.2578 83.3711 75.2578C82.9128 75.2578 82.5547 75.0501 82.2969 74.6348C82.0391 74.2194 81.9102 73.6823 81.9102 73.0234C81.9102 72.5794 82.0104 71.8203 82.2109 70.7461L82.3613 69.9941C82.4043 69.7936 82.4258 69.6719 82.4258 69.6289C82.1966 70.0586 81.8672 70.5885 81.4375 71.2188C81.0078 71.8346 80.5137 72.4505 79.9551 73.0664C79.3965 73.6823 78.8092 74.1979 78.1934 74.6133C77.5775 75.0143 76.9688 75.2148 76.3672 75.2148C75.1068 75.2148 74.1113 74.6491 73.3809 73.5176C72.6504 72.3861 72.2852 71.0182 72.2852 69.4141C72.2852 67.3659 72.8939 65.3249 74.1113 63.291C74.9277 61.916 75.9017 60.7057 77.0332 59.6602C78.179 58.6146 79.4036 57.7982 80.707 57.2109C82.0104 56.6094 83.2995 56.3086 84.5742 56.3086ZM82.7695 58.2852C81.9245 58.2852 81.0723 58.5859 80.2129 59.1875C79.3535 59.7747 78.5658 60.5697 77.8496 61.5723C77.1335 62.5605 76.5534 63.6634 76.1094 64.8809C75.6797 66.084 75.4648 67.2943 75.4648 68.5117C75.4648 71.319 76.1953 72.7227 77.6562 72.7227C78.1719 72.7227 78.7305 72.4362 79.332 71.8633C79.9336 71.2904 80.528 70.5312 81.1152 69.5859C81.7025 68.6406 82.2181 67.6165 82.6621 66.5137C83.1204 65.3965 83.457 64.3008 83.6719 63.2266L84.5312 58.8438C84.1875 58.4714 83.6003 58.2852 82.7695 58.2852ZM100.945 56.2656C101.805 56.2656 102.75 56.459 103.781 56.8457C104.812 57.2324 105.815 57.4258 106.789 57.4258H108.637C108.809 57.4258 108.895 57.5404 108.895 57.7695C108.895 57.9701 108.844 58.2135 108.744 58.5C108.644 58.7865 108.536 58.987 108.422 59.1016H106.016C105.844 59.1016 105.758 59.1875 105.758 59.3594C105.93 60.3906 106.016 61.1354 106.016 61.5938C106.016 62.6536 105.865 63.6348 105.564 64.5371C105.264 65.4395 104.863 66.1771 104.361 66.75C103.86 67.3229 103.445 67.7526 103.115 68.0391C102.786 68.3255 102.449 68.569 102.105 68.7695C101.776 68.9701 101.196 69.2637 100.365 69.6504C99.6634 69.9798 99.026 70.3236 98.4531 70.6816C97.8802 71.0397 97.5938 71.3763 97.5938 71.6914C97.5938 71.9492 97.873 72.1999 98.4316 72.4434C98.9902 72.6725 99.6777 72.9303 100.494 73.2168C100.91 73.36 101.318 73.5176 101.719 73.6895C102.12 73.847 102.521 74.026 102.922 74.2266C103.724 74.6276 104.404 75.1862 104.963 75.9023C105.521 76.6185 105.801 77.4349 105.801 78.3516C105.801 80.3854 104.891 82.0039 103.072 83.207C101.253 84.4102 98.8112 85.0117 95.7461 85.0117C93.7695 85.0117 92.1582 84.6393 90.9121 83.8945C89.666 83.1497 89.043 82.1185 89.043 80.8008C89.043 79.8268 89.3724 78.9531 90.0312 78.1797C90.6901 77.4206 91.4922 76.7546 92.4375 76.1816C93.3971 75.6087 94.3281 75.1289 95.2305 74.7422L94.457 74.2266C93.7409 73.7253 93.3828 73.2096 93.3828 72.6797C93.3828 72.3503 93.6263 71.985 94.1133 71.584C94.6003 71.1829 95.1803 70.8105 95.8535 70.4668C96.5267 70.123 97.1354 69.8867 97.6797 69.7578C97.1641 69.7578 96.541 69.6146 95.8105 69.3281C95.1087 69.0417 94.4355 68.5189 93.791 67.7598C93.1465 67.0007 92.8242 66.1055 92.8242 65.0742C92.8242 63.4701 93.2109 62.002 93.9844 60.6699C94.7721 59.3379 95.7819 58.2708 97.0137 57.4688C98.2598 56.6667 99.5703 56.2656 100.945 56.2656ZM100.258 57.8984C99.4271 57.8984 98.6966 58.2207 98.0664 58.8652C97.4362 59.4954 96.9421 60.3047 96.584 61.293C96.2259 62.2812 96.0469 63.3125 96.0469 64.3867C96.0469 65.5039 96.276 66.4349 96.7344 67.1797C97.1927 67.9245 97.8372 68.2969 98.668 68.2969C99.4701 68.2969 100.186 68.0033 100.816 67.416C101.447 66.8145 101.941 66.0625 102.299 65.1602C102.657 64.2435 102.836 63.3125 102.836 62.3672C102.836 61.2214 102.607 60.1901 102.148 59.2734C101.69 58.3568 101.06 57.8984 100.258 57.8984ZM103.051 80.0703C103.051 79.1536 102.736 78.4017 102.105 77.8145C101.475 77.2272 100.695 76.7402 99.7637 76.3535C98.8327 75.9668 97.9232 75.6302 97.0352 75.3438C96.4909 75.5729 96.097 75.7448 95.8535 75.8594C95.61 75.974 95.2018 76.1888 94.6289 76.5039C93.9987 76.862 93.4401 77.306 92.9531 77.8359C92.4661 78.3659 92.2227 78.9961 92.2227 79.7266C92.2227 82.0182 94.099 83.1641 97.8516 83.1641C99.2552 83.1641 100.473 82.8704 101.504 82.2832C102.535 81.696 103.051 80.9583 103.051 80.0703ZM114.391 44.068C114.127 45.0947 113.789 46.2093 113.379 47.412C112.968 48.6147 112.513 49.8173 112.015 51.02C111.545 52.1933 111.076 53.308 110.607 54.364H107.747C107.952 53.5427 108.157 52.6627 108.363 51.724C108.597 50.7853 108.803 49.8467 108.979 48.908C109.184 47.94 109.36 47.0013 109.507 46.092C109.683 45.1827 109.829 44.3467 109.947 43.584H114.083L114.391 44.068ZM127.285 56.3086C128.975 56.3086 130.286 56.8958 131.217 58.0703C132.148 59.2448 132.613 60.8633 132.613 62.9258C132.613 64.401 132.327 65.8691 131.754 67.3301C131.181 68.7767 130.429 70.0944 129.498 71.2832C128.567 72.472 127.543 73.4245 126.426 74.1406C125.309 74.8568 124.206 75.2148 123.117 75.2148C121.398 75.2148 120.088 74.6562 119.186 73.5391C118.283 72.4219 117.832 70.832 117.832 68.7695C117.832 67.2799 118.111 65.8047 118.67 64.3438C119.243 62.8685 119.995 61.5293 120.926 60.3262C121.857 59.1087 122.874 58.1348 123.977 57.4043C125.094 56.6738 126.197 56.3086 127.285 56.3086ZM126.77 58.0703C126.053 58.0703 125.359 58.3854 124.686 59.0156C124.012 59.6315 123.404 60.4408 122.859 61.4434C122.315 62.446 121.885 63.5417 121.57 64.7305C121.255 65.9193 121.098 67.0794 121.098 68.2109C121.098 69.8724 121.363 71.1615 121.893 72.0781C122.423 72.9948 123.089 73.4531 123.891 73.4531C124.607 73.4531 125.287 73.1452 125.932 72.5293C126.59 71.8991 127.178 71.0827 127.693 70.0801C128.209 69.0632 128.61 67.9603 128.896 66.7715C129.197 65.5827 129.348 64.4154 129.348 63.2695C129.348 61.5794 129.118 60.2904 128.66 59.4023C128.202 58.5143 127.572 58.0703 126.77 58.0703ZM146.707 56.3086C147.967 56.3086 148.92 56.8672 149.564 57.9844C150.209 59.1016 150.531 60.4193 150.531 61.9375C150.531 63.7708 150.223 65.4896 149.607 67.0938C149.006 68.6979 148.197 70.1159 147.18 71.3477C146.163 72.5651 145.038 73.5247 143.807 74.2266C142.589 74.9141 141.365 75.2578 140.133 75.2578C139.044 75.2578 138.063 74.8496 137.189 74.0332C136.316 73.2168 135.879 72.0495 135.879 70.5312C135.879 70.1016 135.922 69.6289 136.008 69.1133L139.574 50.9805C139.832 49.7917 139.961 49.0326 139.961 48.7031C139.961 48.1589 139.087 47.8867 137.34 47.8867C137.254 47.8867 137.211 47.8008 137.211 47.6289C137.211 47.2852 137.326 46.9987 137.555 46.7695C139.402 46.5977 141.207 46.1966 142.969 45.5664C143.141 45.6523 143.227 45.9245 143.227 46.3828C143.227 46.6979 143.04 47.7721 142.668 49.6055L140.133 61.9805C141.049 60.4622 142.009 59.2448 143.012 58.3281C143.814 57.612 144.501 57.0964 145.074 56.7812C145.647 56.4661 146.191 56.3086 146.707 56.3086ZM145.461 58.6719C144.859 58.6719 144.093 59.209 143.162 60.2832C142.546 60.9993 141.945 61.8229 141.357 62.7539C140.785 63.6849 140.29 64.6374 139.875 65.6113C139.46 66.571 139.173 67.4661 139.016 68.2969C138.701 69.8724 138.743 71.1328 139.145 72.0781C139.546 73.0234 140.247 73.4961 141.25 73.4961C142.324 73.4961 143.348 72.9447 144.322 71.8418C145.282 70.7389 146.027 69.3783 146.557 67.7598C147.087 66.1413 147.352 64.5443 147.352 62.9688C147.352 62.3099 147.316 61.651 147.244 60.9922C147.187 60.3333 147.022 59.7819 146.75 59.3379C146.492 58.8939 146.062 58.6719 145.461 58.6719ZM157.707 56.3086C158.165 56.3086 158.523 56.5163 158.781 56.9316C159.039 57.347 159.168 57.8841 159.168 58.543C159.168 59.3021 159.082 60.0612 158.91 60.8203L157.406 67.9102C157.206 68.7839 157.105 69.5573 157.105 70.2305C157.105 71.4622 157.378 72.0781 157.922 72.0781C158.237 72.0781 158.624 71.8991 159.082 71.541C159.555 71.1829 160.042 70.7246 160.543 70.166C161.059 69.6074 161.538 69.0345 161.982 68.4473C162.799 67.373 163.572 66.0625 164.303 64.5156C165.033 62.9688 165.542 61.4362 165.828 59.918L166.559 56.5664C166.945 56.4518 167.389 56.3945 167.891 56.3945C168.378 56.3945 168.865 56.4518 169.352 56.5664L166.688 70.4453C166.602 70.7891 166.559 71.1471 166.559 71.5195C166.559 72.2357 166.702 72.5938 166.988 72.5938C167.346 72.5938 167.776 72.3431 168.277 71.8418C168.779 71.3262 169.208 70.8893 169.566 70.5312L169.824 70.2305C169.882 70.2305 169.989 70.3665 170.146 70.6387C170.304 70.9108 170.383 71.1042 170.383 71.2188C170.139 71.6341 169.695 72.1641 169.051 72.8086C168.421 73.4531 167.733 74.026 166.988 74.5273C166.243 75.0143 165.57 75.2578 164.969 75.2578C164.51 75.2578 164.152 75.0501 163.895 74.6348C163.637 74.2194 163.508 73.6823 163.508 73.0234C163.508 72.5938 163.608 71.8346 163.809 70.7461L164.582 66.793C164.31 67.3086 163.723 68.1966 162.82 69.457C162.233 70.2734 161.524 71.1328 160.693 72.0352C159.877 72.9375 159.061 73.7038 158.244 74.334C157.428 74.9499 156.733 75.2578 156.16 75.2578C154.728 75.2578 154.012 74.3125 154.012 72.4219C154.012 71.0755 154.212 69.5143 154.613 67.7383L155.902 61.7656C156.046 60.7773 156.117 60.2044 156.117 60.0469C156.117 59.3307 155.974 58.9727 155.688 58.9727C155.444 58.9727 155.079 59.2018 154.592 59.6602C154.363 59.8893 154.112 60.14 153.84 60.4121C153.582 60.6842 153.41 60.8776 153.324 60.9922C153.267 60.9922 153.16 60.8561 153.002 60.584C152.844 60.3118 152.766 60.1185 152.766 60.0039C152.995 59.6172 153.41 59.1374 154.012 58.5645C154.613 57.9772 155.258 57.4544 155.945 56.9961C156.633 56.5378 157.22 56.3086 157.707 56.3086ZM178.418 56.3086C178.876 56.3086 179.234 56.5163 179.492 56.9316C179.75 57.347 179.879 57.8841 179.879 58.543C179.879 59.1732 179.793 59.9323 179.621 60.8203L178.848 64.7734C179.12 64.2865 179.743 63.3984 180.717 62.1094C181.361 61.2643 182.106 60.3978 182.951 59.5098C183.811 58.6074 184.656 57.8483 185.486 57.2324C186.331 56.6165 187.04 56.3086 187.613 56.3086C189.046 56.3086 189.762 57.2539 189.762 59.1445C189.762 60.4766 189.561 62.0378 189.16 63.8281L187.742 70.4453C187.656 70.7891 187.613 71.1471 187.613 71.5195C187.613 72.2357 187.757 72.5938 188.043 72.5938C188.401 72.5938 188.831 72.3431 189.332 71.8418C189.833 71.3262 190.263 70.8893 190.621 70.5312L190.879 70.2305C190.936 70.2305 191.044 70.3665 191.201 70.6387C191.359 70.9108 191.438 71.1042 191.438 71.2188C191.194 71.6341 190.75 72.1641 190.105 72.8086C189.475 73.4531 188.788 74.026 188.043 74.5273C187.298 75.0143 186.625 75.2578 186.023 75.2578C185.565 75.2578 185.207 75.0501 184.949 74.6348C184.691 74.2194 184.562 73.6823 184.562 73.0234C184.562 72.5938 184.663 71.8346 184.863 70.7461L186.367 63.6562C186.568 62.6823 186.668 61.9089 186.668 61.3359C186.668 60.1042 186.396 59.4883 185.852 59.4883C185.379 59.4883 184.742 59.8464 183.939 60.5625C183.137 61.2643 182.299 62.2025 181.426 63.377C180.566 64.5514 179.786 65.862 179.084 67.3086C178.382 68.7409 177.888 70.1875 177.602 71.6484L176.871 75C176.484 75.1146 176.04 75.1719 175.539 75.1719C175.052 75.1719 174.565 75.1146 174.078 75L176.613 61.7656C176.757 60.7773 176.828 60.2044 176.828 60.0469C176.828 59.3307 176.685 58.9727 176.398 58.9727C176.155 58.9727 175.79 59.2018 175.303 59.6602C175.074 59.8893 174.823 60.14 174.551 60.4121C174.293 60.6842 174.121 60.8776 174.035 60.9922C173.978 60.9922 173.87 60.8561 173.713 60.584C173.555 60.3118 173.477 60.1185 173.477 60.0039C173.706 59.6172 174.121 59.1374 174.723 58.5645C175.324 57.9772 175.969 57.4544 176.656 56.9961C177.344 56.5378 177.931 56.3086 178.418 56.3086Z" fill="white"/>
<path d="M0 14.4961C6.30012 20.0984 15.0791 19.1979 30.687 15.1421C32.2497 14.736 33.9168 14.9601 35.3059 15.7832L61.0905 31.063L35.3304 19.6141C33.9205 18.9874 32.3183 18.9353 30.8588 19.4358C12.5496 25.7159 4.73674 24.7283 0 14.4961Z" fill="url(#paint8_radial_692_1810)"/>
<path d="M16.5669 25.8858C22.7094 27.5488 34.4861 19.1752 43.5027 24.2129C35.7991 20.3448 24.9274 34.7378 16.5669 25.8858Z" fill="url(#paint9_radial_692_1810)"/>
<path d="M42.4528 34.1693C40.4746 32.9379 39.8039 31.791 39.5364 30.2054C39.314 28.8871 40.2138 27.6374 41.514 27.3262C46.4064 26.1551 49.6595 27.3172 54.8779 31.063C50.3759 26.3362 46.8249 25.2844 39.6469 25.78C38.7972 25.8387 38.0191 26.2751 37.5081 26.9564L36.1669 28.7446C35.6047 29.4943 35.6307 30.5432 36.2784 31.2205C38.4425 33.4837 39.9798 34.1156 42.4528 34.1693Z" fill="url(#paint10_radial_692_1810)"/>
<path d="M61.0905 28.9921C48.8725 19.5072 53.131 18.6378 60.0551 10.3543C56.6285 8.93238 54.8937 8.83857 52.8071 12.4252C51.2879 8.29387 49.7783 6.42726 45.559 4.14173C43.8524 8.52031 44.6321 10.6991 46.5945 14.4961C42.9378 12.0347 40.7471 11.3823 36.2402 13.4606C46.3046 17.727 45.2926 18.8748 61.0905 28.9921Z" fill="url(#paint11_radial_692_1810)"/>
<path d="M78.6929 22.7441C78.6929 22.1918 79.1406 21.7441 79.6929 21.7441H79.7638C80.3161 21.7441 80.7638 22.1918 80.7638 22.7441V25.9213C80.7638 26.4735 80.3161 26.9213 79.7638 26.9213H74.4803C73.3757 26.9213 72.4803 26.0258 72.4803 24.9213V19.6024C72.4803 18.4978 73.3757 17.6024 74.4803 17.6024H78.7281C80.6137 17.6024 82.4755 18.023 84.178 18.8337V18.8337C85.2965 19.3663 86.1249 20.3629 86.4441 21.5599L88.3399 28.6695C89.2063 31.9182 86.6836 35.0788 83.3237 34.9544L68.0679 34.3894C64.7776 34.2675 62.2002 31.5169 62.2923 28.2256L62.6948 13.8426C62.7856 10.5955 65.4441 8.01038 68.6924 8.01038H83.0387C86.0229 8.01038 88.8896 9.21712 90.915 11.4088C101.807 23.194 109.097 33.3225 115.395 32.2299C115.685 32.1796 115.968 32.3916 115.968 32.686V32.686C115.968 32.9325 115.766 33.1318 115.519 33.1285C109.37 33.045 105.37 32.4313 87.653 13.254C86.5367 12.0456 85.0793 11.1983 83.4735 10.8414L77.8584 9.59364C77.0431 9.41248 76.199 9.4035 75.3801 9.56728L71.091 10.4251C68.2865 10.986 66.2677 13.4485 66.2677 16.3086V27.0984C66.2677 29.8599 68.5063 32.0984 71.2677 32.0984H80.9055C83.1146 32.0984 84.9055 30.3076 84.9055 28.0984V22.6378C84.9055 20.4287 83.1146 18.6378 80.9055 18.6378H76.5512C75.4466 18.6378 74.5512 19.5332 74.5512 20.6378V24.8858C74.5512 25.4381 74.9989 25.8858 75.5512 25.8858H77.6929C78.2452 25.8858 78.6929 25.4381 78.6929 24.8858V22.7441Z" fill="url(#paint12_radial_692_1810)"/>
<path d="M104.412 33.0631C96.4743 29.9513 88.3242 12.4066 78.6929 13.4606C91.6665 19.2326 92.9183 31.4785 104.412 33.0631Z" fill="url(#paint13_radial_692_1810)"/>
<path d="M111.827 30.0276C106.485 21.6827 106.361 16.9143 110.791 8.28346C105.363 9.71409 97.6256 19.5114 111.827 30.0276Z" fill="url(#paint14_radial_692_1810)"/>
<path d="M118.039 10.3543C113.102 14.0549 110.405 23.2793 118.039 32.0984C106.33 25.6888 109.793 12.7713 118.039 0V10.3543Z" fill="url(#paint15_radial_692_1810)"/>
<path d="M236.079 14.4961C229.778 20.0984 221 19.1979 205.392 15.1421C203.829 14.736 202.162 14.9601 200.773 15.7832L174.988 31.063L200.748 19.6141C202.158 18.9874 203.76 18.9353 205.22 19.4358C223.529 25.7159 231.342 24.7283 236.079 14.4961Z" fill="url(#paint16_radial_692_1810)"/>
<path d="M219.512 25.8858C213.369 27.5488 201.593 19.1752 192.576 24.2129C200.279 20.3448 211.151 34.7378 219.512 25.8858Z" fill="url(#paint17_radial_692_1810)"/>
<path d="M193.626 34.1693C195.604 32.9379 196.275 31.791 196.542 30.2054C196.765 28.8871 195.865 27.6374 194.565 27.3262C189.672 26.1551 186.419 27.3172 181.201 31.063C185.703 26.3362 189.254 25.2844 196.432 25.78C197.281 25.8387 198.06 26.2751 198.571 26.9564L199.912 28.7446C200.474 29.4943 200.448 30.5432 199.8 31.2205C197.636 33.4837 196.099 34.1156 193.626 34.1693Z" fill="url(#paint18_radial_692_1810)"/>
<path d="M174.988 28.9921C187.206 19.5072 182.948 18.6378 176.024 10.3543C179.45 8.93238 181.185 8.83857 183.272 12.4252C184.791 8.29387 186.3 6.42726 190.52 4.14173C192.226 8.52031 191.446 10.6991 189.484 14.4961C193.141 12.0347 195.331 11.3823 199.838 13.4606C189.774 17.727 190.786 18.8748 174.988 28.9921Z" fill="url(#paint19_radial_692_1810)"/>
<path d="M157.386 22.7441C157.386 22.1918 156.938 21.7441 156.386 21.7441H156.315C155.763 21.7441 155.315 22.1918 155.315 22.7441V25.9213C155.315 26.4735 155.763 26.9213 156.315 26.9213H161.598C162.703 26.9213 163.598 26.0258 163.598 24.9213V19.6024C163.598 18.4978 162.703 17.6024 161.598 17.6024H157.351C155.465 17.6024 153.603 18.023 151.901 18.8337V18.8337C150.782 19.3663 149.954 20.3629 149.635 21.5599L147.739 28.6695C146.872 31.9182 149.395 35.0788 152.755 34.9544L168.011 34.3894C171.301 34.2675 173.878 31.5169 173.786 28.2256L173.384 13.8426C173.293 10.5955 170.635 8.01038 167.386 8.01038H153.04C150.056 8.01038 147.189 9.21712 145.164 11.4088C134.272 23.194 126.982 33.3225 120.683 32.2299C120.393 32.1796 120.11 32.3916 120.11 32.686V32.686C120.11 32.9325 120.313 33.1318 120.559 33.1285C126.708 33.045 130.709 32.4313 148.426 13.254C149.542 12.0456 150.999 11.1983 152.605 10.8414L158.22 9.59364C159.035 9.41248 159.88 9.4035 160.698 9.56728L164.988 10.4251C167.792 10.986 169.811 13.4485 169.811 16.3086V27.0984C169.811 29.8599 167.572 32.0984 164.811 32.0984H155.173C152.964 32.0984 151.173 30.3076 151.173 28.0984V22.6378C151.173 20.4287 152.964 18.6378 155.173 18.6378H159.527C160.632 18.6378 161.527 19.5332 161.527 20.6378V24.8858C161.527 25.4381 161.08 25.8858 160.527 25.8858H158.386C157.833 25.8858 157.386 25.4381 157.386 24.8858V22.7441Z" fill="url(#paint20_radial_692_1810)"/>
<path d="M131.666 33.0631C139.604 29.9513 147.754 12.4066 157.386 13.4606C144.412 19.2326 143.16 31.4785 131.666 33.0631Z" fill="url(#paint21_radial_692_1810)"/>
<path d="M124.252 30.0276C129.594 21.6827 129.718 16.9143 125.287 8.28346C130.716 9.71409 138.453 19.5114 124.252 30.0276Z" fill="url(#paint22_radial_692_1810)"/>
<path d="M118.039 10.3543C122.976 14.0549 125.673 23.2793 118.039 32.0984C129.749 25.6888 126.286 12.7713 118.039 0V10.3543Z" fill="url(#paint23_radial_692_1810)"/>
<defs>
<radialGradient id="paint0_radial_692_1810" cx="0" cy="0" r="1" gradientUnits="userSpaceOnUse" gradientTransform="translate(79.7285 111.309) scale(38.311 20.1909)">
<stop stop-color="#E1E1E1"/>
<stop offset="1" stop-color="#FFF4DA"/>
</radialGradient>
<radialGradient id="paint1_radial_692_1810" cx="0" cy="0" r="1" gradientUnits="userSpaceOnUse" gradientTransform="translate(79.7285 111.309) scale(38.311 20.1909)">
<stop stop-color="#E1E1E1"/>
<stop offset="1" stop-color="#FFF4DA"/>
</radialGradient>
<radialGradient id="paint2_radial_692_1810" cx="0" cy="0" r="1" gradientUnits="userSpaceOnUse" gradientTransform="translate(79.7285 111.309) scale(38.311 20.1909)">
<stop stop-color="#E1E1E1"/>
<stop offset="1" stop-color="#FFF4DA"/>
</radialGradient>
<radialGradient id="paint3_radial_692_1810" cx="0" cy="0" r="1" gradientUnits="userSpaceOnUse" gradientTransform="translate(79.7285 111.309) scale(38.311 20.1909)">
<stop stop-color="#E1E1E1"/>
<stop offset="1" stop-color="#FFF4DA"/>
</radialGradient>
<radialGradient id="paint4_radial_692_1810" cx="0" cy="0" r="1" gradientUnits="userSpaceOnUse" gradientTransform="translate(156.351 111.309) rotate(180) scale(38.311 20.1909)">
<stop stop-color="#E1E1E1"/>
<stop offset="1" stop-color="#FFF4DA"/>
</radialGradient>
<radialGradient id="paint5_radial_692_1810" cx="0" cy="0" r="1" gradientUnits="userSpaceOnUse" gradientTransform="translate(156.351 111.309) rotate(180) scale(38.311 20.1909)">
<stop stop-color="#E1E1E1"/>
<stop offset="1" stop-color="#FFF4DA"/>
</radialGradient>
<radialGradient id="paint6_radial_692_1810" cx="0" cy="0" r="1" gradientUnits="userSpaceOnUse" gradientTransform="translate(156.351 111.309) rotate(180) scale(38.311 20.1909)">
<stop stop-color="#E1E1E1"/>
<stop offset="1" stop-color="#FFF4DA"/>
</radialGradient>
<radialGradient id="paint7_radial_692_1810" cx="0" cy="0" r="1" gradientUnits="userSpaceOnUse" gradientTransform="translate(156.351 111.309) rotate(180) scale(38.311 20.1909)">
<stop stop-color="#E1E1E1"/>
<stop offset="1" stop-color="#FFF4DA"/>
</radialGradient>
<radialGradient id="paint8_radial_692_1810" cx="0" cy="0" r="1" gradientUnits="userSpaceOnUse" gradientTransform="translate(59.0197 17.6024) scale(59.0197 17.6024)">
<stop stop-color="#E1E1E1"/>
<stop offset="1" stop-color="#FFF4DA"/>
</radialGradient>
<radialGradient id="paint9_radial_692_1810" cx="0" cy="0" r="1" gradientUnits="userSpaceOnUse" gradientTransform="translate(59.0197 17.6024) scale(59.0197 17.6024)">
<stop stop-color="#E1E1E1"/>
<stop offset="1" stop-color="#FFF4DA"/>
</radialGradient>
<radialGradient id="paint10_radial_692_1810" cx="0" cy="0" r="1" gradientUnits="userSpaceOnUse" gradientTransform="translate(59.0197 17.6024) scale(59.0197 17.6024)">
<stop stop-color="#E1E1E1"/>
<stop offset="1" stop-color="#FFF4DA"/>
</radialGradient>
<radialGradient id="paint11_radial_692_1810" cx="0" cy="0" r="1" gradientUnits="userSpaceOnUse" gradientTransform="translate(59.0197 17.6024) scale(59.0197 17.6024)">
<stop stop-color="#E1E1E1"/>
<stop offset="1" stop-color="#FFF4DA"/>
</radialGradient>
<radialGradient id="paint12_radial_692_1810" cx="0" cy="0" r="1" gradientUnits="userSpaceOnUse" gradientTransform="translate(59.0197 17.6024) scale(59.0197 17.6024)">
<stop stop-color="#E1E1E1"/>
<stop offset="1" stop-color="#FFF4DA"/>
</radialGradient>
<radialGradient id="paint13_radial_692_1810" cx="0" cy="0" r="1" gradientUnits="userSpaceOnUse" gradientTransform="translate(59.0197 17.6024) scale(59.0197 17.6024)">
<stop stop-color="#E1E1E1"/>
<stop offset="1" stop-color="#FFF4DA"/>
</radialGradient>
<radialGradient id="paint14_radial_692_1810" cx="0" cy="0" r="1" gradientUnits="userSpaceOnUse" gradientTransform="translate(59.0197 17.6024) scale(59.0197 17.6024)">
<stop stop-color="#E1E1E1"/>
<stop offset="1" stop-color="#FFF4DA"/>
</radialGradient>
<radialGradient id="paint15_radial_692_1810" cx="0" cy="0" r="1" gradientUnits="userSpaceOnUse" gradientTransform="translate(59.0197 17.6024) scale(59.0197 17.6024)">
<stop stop-color="#E1E1E1"/>
<stop offset="1" stop-color="#FFF4DA"/>
</radialGradient>
<radialGradient id="paint16_radial_692_1810" cx="0" cy="0" r="1" gradientUnits="userSpaceOnUse" gradientTransform="translate(177.059 17.6024) rotate(180) scale(59.0197 17.6024)">
<stop stop-color="#E1E1E1"/>
<stop offset="1" stop-color="#FFF4DA"/>
</radialGradient>
<radialGradient id="paint17_radial_692_1810" cx="0" cy="0" r="1" gradientUnits="userSpaceOnUse" gradientTransform="translate(177.059 17.6024) rotate(180) scale(59.0197 17.6024)">
<stop stop-color="#E1E1E1"/>
<stop offset="1" stop-color="#FFF4DA"/>
</radialGradient>
<radialGradient id="paint18_radial_692_1810" cx="0" cy="0" r="1" gradientUnits="userSpaceOnUse" gradientTransform="translate(177.059 17.6024) rotate(180) scale(59.0197 17.6024)">
<stop stop-color="#E1E1E1"/>
<stop offset="1" stop-color="#FFF4DA"/>
</radialGradient>
<radialGradient id="paint19_radial_692_1810" cx="0" cy="0" r="1" gradientUnits="userSpaceOnUse" gradientTransform="translate(177.059 17.6024) rotate(180) scale(59.0197 17.6024)">
<stop stop-color="#E1E1E1"/>
<stop offset="1" stop-color="#FFF4DA"/>
</radialGradient>
<radialGradient id="paint20_radial_692_1810" cx="0" cy="0" r="1" gradientUnits="userSpaceOnUse" gradientTransform="translate(177.059 17.6024) rotate(180) scale(59.0197 17.6024)">
<stop stop-color="#E1E1E1"/>
<stop offset="1" stop-color="#FFF4DA"/>
</radialGradient>
<radialGradient id="paint21_radial_692_1810" cx="0" cy="0" r="1" gradientUnits="userSpaceOnUse" gradientTransform="translate(177.059 17.6024) rotate(180) scale(59.0197 17.6024)">
<stop stop-color="#E1E1E1"/>
<stop offset="1" stop-color="#FFF4DA"/>
</radialGradient>
<radialGradient id="paint22_radial_692_1810" cx="0" cy="0" r="1" gradientUnits="userSpaceOnUse" gradientTransform="translate(177.059 17.6024) rotate(180) scale(59.0197 17.6024)">
<stop stop-color="#E1E1E1"/>
<stop offset="1" stop-color="#FFF4DA"/>
</radialGradient>
<radialGradient id="paint23_radial_692_1810" cx="0" cy="0" r="1" gradientUnits="userSpaceOnUse" gradientTransform="translate(177.059 17.6024) rotate(180) scale(59.0197 17.6024)">
<stop stop-color="#E1E1E1"/>
<stop offset="1" stop-color="#FFF4DA"/>
</radialGradient>
</defs>
</svg>
