<svg width="237" height="132" viewBox="0 0 237 132" fill="none" xmlns="http://www.w3.org/2000/svg">
<path d="M50.713 108.06C49.3894 108.487 47.9219 108.504 46.7174 107.809C44.5799 106.575 44.1417 105.154 44.5239 102.508V102.508C42.8803 103.056 42.0634 104.953 43.0344 106.388C43.9981 107.812 45.0942 108.974 46.6272 110.246C47.9176 111.316 49.57 111.855 51.2463 111.812C56.4411 111.679 59.0354 110.851 62.1261 108.72C61.1055 110.641 61.1623 111.76 61.9889 113.6C62.061 113.76 62.2573 113.822 62.4081 113.731C64.083 112.73 65.0044 111.892 66.2679 109.756C66.2159 114.032 66.9848 113.977 70.4096 114.933C67.5199 110.86 68.053 109.221 70.1985 106.254C70.9963 105.151 72.1264 104.331 73.4058 103.866L78.5781 101.985C81.3347 100.982 84.3491 100.942 87.1317 101.869L104.174 107.55C104.308 107.435 104.443 107.326 104.579 107.223V104.508C104.579 103.403 105.474 102.508 106.579 102.508H108.791C109.896 102.508 110.791 103.403 110.791 104.508V105.614H111.827V103.472C111.827 102.368 110.931 101.472 109.827 101.472H105.543C104.439 101.472 103.543 102.368 103.543 103.472V106.65C98.7741 103.748 93.5326 101.584 86.7262 99.7769C82.8461 98.747 78.7539 99.0145 74.9333 100.247L50.713 108.06Z" fill="url(#paint0_radial_692_2090)"/>
<path fill-rule="evenodd" clip-rule="evenodd" d="M118.04 111.827V108.721C115.458 105.74 114.164 105.799 111.827 105.614H110.791C108.063 105.589 106.223 105.979 104.579 107.223V107.685L104.174 107.55C103.27 108.327 102.41 109.382 101.473 110.791C94.423 108.167 92.2423 105.859 84.6309 104.117C82.7932 103.696 80.8384 103.854 79.1738 104.739C77.1411 105.82 75.7483 107.075 74.4009 109.235C73.7981 110.201 73.7054 111.42 74.2151 112.438C75.05 114.107 76.2503 115.417 79.1381 117.128C80.1191 117.709 81.351 117.62 82.2789 116.957L86.2804 114.099C87.2189 113.429 87.4133 112.09 86.6216 111.251C84.8307 109.354 83.7232 109.09 81.7994 109.756C83.0247 110.067 83.7478 110.456 84.3965 111.688C84.7601 112.378 84.5523 113.216 84.0005 113.767L82.2759 115.492C81.3711 116.397 79.9668 116.664 78.906 115.948C77.392 114.927 76.4786 113.802 75.488 112.283C74.8942 111.372 74.8544 110.185 75.4804 109.296C77.1885 106.871 79.0768 106.022 82.8348 105.614C87.5143 105.758 93.9739 109.592 101.473 112.862C101.611 115.305 101.827 117.608 105.431 119.531C106.15 119.915 107.027 119.733 107.604 119.156L110.252 116.508C110.55 116.21 110.55 115.727 110.252 115.429V115.429C109.972 115.149 109.522 115.134 109.211 115.381C104.883 118.812 103.35 117.017 102.508 112.862C108.785 113.743 111.601 112.063 112.862 106.65H114.933L118.04 111.827ZM102.508 111.827C105.324 107.593 107.417 106.549 111.827 106.65C109.582 111.782 107.624 113.001 102.508 111.827Z" fill="url(#paint1_radial_692_2090)"/>
<path d="M118.04 114.933V111.827C116.112 115.763 116.189 118.074 110.791 119.075C111.96 121.038 112.806 121.636 114.933 121.146C115.325 125.201 115.718 127.472 118.04 131.5V125.287C116.703 121.107 116.953 118.865 118.04 114.933Z" fill="url(#paint2_radial_692_2090)"/>
<path d="M115.969 98.3662C116.06 94.792 116.696 93.3936 118.04 91.1182V105.614C115.723 100.811 114.342 99.4138 111.827 99.4015C113.365 97.8121 114.277 97.3638 115.969 98.3662Z" fill="url(#paint3_radial_692_2090)"/>
<path d="M185.366 108.06C186.69 108.487 188.157 108.504 189.362 107.809C191.499 106.575 191.937 105.154 191.555 102.508V102.508C193.199 103.056 194.016 104.953 193.045 106.388C192.081 107.812 190.985 108.974 189.452 110.246C188.161 111.316 186.509 111.855 184.833 111.812C179.638 111.679 177.044 110.851 173.953 108.72C174.974 110.641 174.917 111.76 174.09 113.6C174.018 113.76 173.822 113.822 173.671 113.731C171.996 112.73 171.075 111.892 169.811 109.756C169.863 114.032 169.094 113.977 165.669 114.933C168.559 110.86 168.026 109.221 165.881 106.254C165.083 105.151 163.953 104.331 162.673 103.866L157.501 101.985C154.744 100.982 151.73 100.942 148.947 101.869L131.905 107.55C131.771 107.435 131.636 107.326 131.5 107.223V104.508C131.5 103.403 130.605 102.508 129.5 102.508H127.288C126.183 102.508 125.288 103.403 125.288 104.508V105.614H124.252V103.472C124.252 102.368 125.148 101.472 126.252 101.472H130.536C131.64 101.472 132.536 102.368 132.536 103.472V106.65C137.305 103.748 142.547 101.584 149.353 99.7769C153.233 98.747 157.325 99.0145 161.146 100.247L185.366 108.06Z" fill="url(#paint4_radial_692_2090)"/>
<path fill-rule="evenodd" clip-rule="evenodd" d="M118.04 111.827V108.721C120.621 105.74 121.915 105.799 124.252 105.614H125.288C128.016 105.589 129.856 105.979 131.5 107.223V107.685L131.905 107.55C132.809 108.327 133.669 109.382 134.607 110.791C141.656 108.167 143.837 105.859 151.448 104.117C153.286 103.696 155.241 103.854 156.905 104.739C158.938 105.82 160.331 107.075 161.678 109.235C162.281 110.201 162.374 111.42 161.864 112.438C161.029 114.107 159.829 115.417 156.941 117.128C155.96 117.709 154.728 117.62 153.8 116.957L149.799 114.099C148.86 113.429 148.666 112.09 149.457 111.251C151.248 109.354 152.356 109.09 154.28 109.756C153.054 110.067 152.331 110.456 151.683 111.688C151.319 112.378 151.527 113.216 152.079 113.767L153.803 115.492C154.708 116.397 156.112 116.664 157.173 115.948C158.687 114.927 159.601 113.802 160.591 112.283C161.185 111.372 161.225 110.185 160.599 109.296C158.891 106.871 157.002 106.022 153.244 105.614C148.565 105.758 142.105 109.592 134.607 112.862C134.468 115.305 134.252 117.608 130.648 119.531C129.929 119.915 129.052 119.733 128.475 119.156L125.827 116.508C125.529 116.21 125.529 115.727 125.827 115.429V115.429C126.107 115.149 126.557 115.134 126.868 115.381C131.196 118.812 132.729 117.017 133.571 112.862C127.294 113.743 124.479 112.063 123.217 106.65H121.146L118.04 111.827ZM133.571 111.827C130.755 107.593 128.662 106.549 124.252 106.65C126.497 111.782 128.455 113.001 133.571 111.827Z" fill="url(#paint5_radial_692_2090)"/>
<path d="M118.04 114.933V111.827C119.967 115.763 119.89 118.074 125.288 119.075C124.119 121.038 123.273 121.636 121.146 121.146C120.755 125.201 120.362 127.472 118.04 131.5V125.287C119.376 121.107 119.126 118.865 118.04 114.933Z" fill="url(#paint6_radial_692_2090)"/>
<path d="M120.11 98.3662C120.019 94.792 119.383 93.3936 118.04 91.1182V105.614C120.356 100.811 121.737 99.4138 124.252 99.4015C122.714 97.8121 121.802 97.3638 120.11 98.3662Z" fill="url(#paint7_radial_692_2090)"/>
<path d="M72.8789 46.8125C73.5378 46.8268 74.2539 46.8411 75.0273 46.8555C75.8008 46.8555 76.6315 46.8555 77.5195 46.8555C78.4935 46.8555 79.3242 46.8411 80.0117 46.8125C80.6992 46.7839 81.2292 46.7552 81.6016 46.7266C82.0599 46.6979 82.6829 46.6478 83.4707 46.5762C84.2728 46.5046 85.0247 46.4401 85.7266 46.3828C85.7839 46.4115 85.8268 46.6335 85.8555 47.0488C85.8841 47.4642 85.8841 47.7148 85.8555 47.8008C85.8268 47.9154 84.1797 49.9635 80.9141 53.9453C77.6484 57.9128 74.3828 61.8659 71.1172 65.8047L66.2617 71.7344C66.0326 71.9779 65.918 72.2214 65.918 72.4648C65.918 72.694 66.0612 72.8086 66.3477 72.8086H75.3711C76.1016 72.8086 76.8464 72.694 77.6055 72.4648C78.3789 72.2214 78.9661 71.8776 79.3672 71.4336C79.4818 71.3047 79.582 71.1901 79.668 71.0898C79.7682 70.9896 79.8542 70.9036 79.9258 70.832C80.069 70.6888 80.2266 70.4668 80.3984 70.166C80.513 69.9655 80.6777 69.6432 80.8926 69.1992C81.1074 68.7552 81.2148 68.5117 81.2148 68.4688C81.3008 68.2396 81.6875 68.125 82.375 68.125C82.6758 68.125 82.8763 68.2109 82.9766 68.3828C82.4753 69.6146 82.0169 70.7819 81.6016 71.8848C81.2005 72.9876 80.8424 74.026 80.5273 75H60.7188C60.6042 74.7995 60.5469 74.556 60.5469 74.2695C60.5469 73.7969 60.6615 73.4245 60.8906 73.1523L80.9141 48.875H75.6719C75.3854 48.875 75.1061 48.875 74.834 48.875C74.5618 48.875 74.2969 48.8822 74.0391 48.8965C73.638 48.9108 73.2656 48.918 72.9219 48.918C72.5781 48.918 72.3633 48.918 72.2773 48.918C71.0599 48.9323 70.0788 49.1042 69.334 49.4336C68.6035 49.7487 67.9733 50.2858 67.4434 51.0449C66.9277 51.804 66.362 52.8568 65.7461 54.2031C65.6602 54.3177 65.5169 54.375 65.3164 54.375C64.8008 54.375 64.4141 54.2461 64.1562 53.9883C64.3424 53.487 64.6361 52.6061 65.0371 51.3457C65.4382 50.0853 65.9466 48.4453 66.5625 46.4258C66.6914 46.4688 67.0423 46.5117 67.6152 46.5547C68.1882 46.5977 68.8398 46.6406 69.5703 46.6836C70.3008 46.7266 70.974 46.7624 71.5898 46.791C72.2201 46.8053 72.6497 46.8125 72.8789 46.8125ZM97.543 56.3086C98.6029 56.3086 99.6484 56.4948 100.68 56.8672L98.0586 70.4453C97.9727 70.7891 97.9297 71.1471 97.9297 71.5195C97.9297 72.2357 98.0729 72.5938 98.3594 72.5938C98.7174 72.5938 99.1471 72.3431 99.6484 71.8418C100.15 71.3262 100.579 70.8893 100.938 70.5312L101.195 70.2305C101.253 70.2305 101.36 70.3665 101.518 70.6387C101.675 70.9108 101.754 71.1042 101.754 71.2188C101.51 71.6341 101.066 72.1641 100.422 72.8086C99.7917 73.4531 99.1042 74.026 98.3594 74.5273C97.6146 75.0143 96.9414 75.2578 96.3398 75.2578C95.8815 75.2578 95.5234 75.0501 95.2656 74.6348C95.0078 74.2194 94.8789 73.6823 94.8789 73.0234C94.8789 72.5794 94.9792 71.8203 95.1797 70.7461L95.3301 69.9941C95.373 69.7936 95.3945 69.6719 95.3945 69.6289C95.1654 70.0586 94.8359 70.5885 94.4062 71.2188C93.9766 71.8346 93.4824 72.4505 92.9238 73.0664C92.3652 73.6823 91.778 74.1979 91.1621 74.6133C90.5462 75.0143 89.9375 75.2148 89.3359 75.2148C88.0755 75.2148 87.0801 74.6491 86.3496 73.5176C85.6191 72.3861 85.2539 71.0182 85.2539 69.4141C85.2539 67.3659 85.8626 65.3249 87.0801 63.291C87.8965 61.916 88.8704 60.7057 90.002 59.6602C91.1478 58.6146 92.3724 57.7982 93.6758 57.2109C94.9792 56.6094 96.2682 56.3086 97.543 56.3086ZM95.7383 58.2852C94.8932 58.2852 94.041 58.5859 93.1816 59.1875C92.3223 59.7747 91.5345 60.5697 90.8184 61.5723C90.1022 62.5605 89.5221 63.6634 89.0781 64.8809C88.6484 66.084 88.4336 67.2943 88.4336 68.5117C88.4336 71.319 89.1641 72.7227 90.625 72.7227C91.1406 72.7227 91.6992 72.4362 92.3008 71.8633C92.9023 71.2904 93.4967 70.5312 94.084 69.5859C94.6712 68.6406 95.1868 67.6165 95.6309 66.5137C96.0892 65.3965 96.4258 64.3008 96.6406 63.2266L97.5 58.8438C97.1562 58.4714 96.569 58.2852 95.7383 58.2852ZM105.363 70.7461L109.402 49.9062C109.488 49.4766 109.531 49.0755 109.531 48.7031C109.531 48.1589 108.658 47.8867 106.91 47.8867C106.824 47.8867 106.781 47.8008 106.781 47.6289C106.781 47.2852 106.896 46.9987 107.125 46.7695C109.044 46.5977 110.878 46.1966 112.625 45.5664C112.797 45.6523 112.883 45.9245 112.883 46.3828C112.883 46.6979 112.697 47.7721 112.324 49.6055L108.242 70.4453C108.156 70.7891 108.113 71.1471 108.113 71.5195C108.113 72.2357 108.257 72.5938 108.543 72.5938C108.715 72.5938 108.923 72.515 109.166 72.3574C109.41 72.1999 109.66 72.0065 109.918 71.7773C110.176 71.5482 110.469 71.2546 110.799 70.8965C111.128 70.5241 111.322 70.3021 111.379 70.2305C111.465 70.2305 111.579 70.3665 111.723 70.6387C111.866 70.9108 111.938 71.1042 111.938 71.2188C111.694 71.6341 111.25 72.1641 110.605 72.8086C109.975 73.4531 109.288 74.026 108.543 74.5273C107.798 75.0143 107.125 75.2578 106.523 75.2578C106.094 75.2578 105.743 75.0501 105.471 74.6348C105.199 74.2194 105.062 73.6823 105.062 73.0234C105.062 72.5794 105.163 71.8203 105.363 70.7461ZM120.832 56.3086C121.147 56.3086 122.064 56.4876 123.582 56.8457C125.1 57.2038 126.346 57.3828 127.32 57.3828C127.736 57.3828 128.208 57.2038 128.738 56.8457C129.268 56.4876 129.741 56.3086 130.156 56.3086C130.5 56.3086 130.672 56.6667 130.672 57.3828C130.672 57.5547 129.598 58.8223 127.449 61.1855C125.272 63.5775 123.138 65.9049 121.047 68.168L117.824 71.6055C117.824 71.6198 117.953 71.5625 118.211 71.4336C118.483 71.3047 118.762 71.1758 119.049 71.0469C119.35 70.9036 119.529 70.832 119.586 70.832C120.388 70.832 121.391 71.0898 122.594 71.6055C123.797 72.1211 124.599 72.3789 125 72.3789C125.229 72.3789 125.465 72.293 125.709 72.1211C125.952 71.9492 126.182 71.7272 126.396 71.4551C126.454 71.3835 126.583 71.1901 126.783 70.875C126.998 70.5456 127.199 70.2305 127.385 69.9297C127.585 69.6289 127.693 69.4714 127.707 69.457C127.822 69.2995 127.943 69.3424 128.072 69.5859C128.215 69.8438 128.294 70.0729 128.309 70.2734C128.165 70.7604 127.857 71.3835 127.385 72.1426C126.926 72.8874 126.389 73.5534 125.773 74.1406C125.172 74.7135 124.585 75 124.012 75C123.754 75 122.837 74.8138 121.262 74.4414C119.686 74.069 118.44 73.8828 117.523 73.8828C117.122 73.8828 116.65 74.069 116.105 74.4414C115.561 74.8138 115.089 75 114.688 75C114.344 75 114.172 74.6276 114.172 73.8828C114.172 73.6823 115.239 72.4076 117.373 70.0586C118.433 68.8841 119.5 67.7168 120.574 66.5566C121.648 65.3965 122.723 64.2435 123.797 63.0977L126.977 59.6602L126.719 59.875C126.518 59.9896 126.275 60.1185 125.988 60.2617C125.702 60.4049 125.458 60.4766 125.258 60.4766C124.456 60.4766 123.453 60.2188 122.25 59.7031C121.047 59.1875 120.245 58.9297 119.844 58.9297C119.615 58.9297 119.378 59.0156 119.135 59.1875C118.891 59.3594 118.662 59.5814 118.447 59.8535C118.376 59.9538 118.24 60.1615 118.039 60.4766C117.839 60.7917 117.652 61.0924 117.48 61.3789C117.309 61.6654 117.208 61.8229 117.18 61.8516C117.036 61.9948 116.908 61.9518 116.793 61.7227C116.664 61.4505 116.592 61.207 116.578 60.9922C116.736 60.4909 117.036 59.875 117.48 59.1445C117.939 58.3997 118.469 57.7409 119.07 57.168C119.672 56.5951 120.259 56.3086 120.832 56.3086ZM144.465 56.3086C145.525 56.3086 146.57 56.4948 147.602 56.8672L144.98 70.4453C144.895 70.7891 144.852 71.1471 144.852 71.5195C144.852 72.2357 144.995 72.5938 145.281 72.5938C145.639 72.5938 146.069 72.3431 146.57 71.8418C147.072 71.3262 147.501 70.8893 147.859 70.5312L148.117 70.2305C148.174 70.2305 148.282 70.3665 148.439 70.6387C148.597 70.9108 148.676 71.1042 148.676 71.2188C148.432 71.6341 147.988 72.1641 147.344 72.8086C146.714 73.4531 146.026 74.026 145.281 74.5273C144.536 75.0143 143.863 75.2578 143.262 75.2578C142.803 75.2578 142.445 75.0501 142.188 74.6348C141.93 74.2194 141.801 73.6823 141.801 73.0234C141.801 72.5794 141.901 71.8203 142.102 70.7461L142.252 69.9941C142.295 69.7936 142.316 69.6719 142.316 69.6289C142.087 70.0586 141.758 70.5885 141.328 71.2188C140.898 71.8346 140.404 72.4505 139.846 73.0664C139.287 73.6823 138.7 74.1979 138.084 74.6133C137.468 75.0143 136.859 75.2148 136.258 75.2148C134.997 75.2148 134.002 74.6491 133.271 73.5176C132.541 72.3861 132.176 71.0182 132.176 69.4141C132.176 67.3659 132.785 65.3249 134.002 63.291C134.818 61.916 135.792 60.7057 136.924 59.6602C138.07 58.6146 139.294 57.7982 140.598 57.2109C141.901 56.6094 143.19 56.3086 144.465 56.3086ZM142.66 58.2852C141.815 58.2852 140.963 58.5859 140.104 59.1875C139.244 59.7747 138.456 60.5697 137.74 61.5723C137.024 62.5605 136.444 63.6634 136 64.8809C135.57 66.084 135.355 67.2943 135.355 68.5117C135.355 71.319 136.086 72.7227 137.547 72.7227C138.062 72.7227 138.621 72.4362 139.223 71.8633C139.824 71.2904 140.419 70.5312 141.006 69.5859C141.593 68.6406 142.109 67.6165 142.553 66.5137C143.011 65.3965 143.348 64.3008 143.562 63.2266L144.422 58.8438C144.078 58.4714 143.491 58.2852 142.66 58.2852ZM152.285 70.7461L156.324 49.9062C156.41 49.4766 156.453 49.0755 156.453 48.7031C156.453 48.1589 155.579 47.8867 153.832 47.8867C153.746 47.8867 153.703 47.8008 153.703 47.6289C153.703 47.2852 153.818 46.9987 154.047 46.7695C155.966 46.5977 157.799 46.1966 159.547 45.5664C159.719 45.6523 159.805 45.9245 159.805 46.3828C159.805 46.6979 159.618 47.7721 159.246 49.6055L155.164 70.4453C155.078 70.7891 155.035 71.1471 155.035 71.5195C155.035 72.2357 155.178 72.5938 155.465 72.5938C155.637 72.5938 155.844 72.515 156.088 72.3574C156.331 72.1999 156.582 72.0065 156.84 71.7773C157.098 71.5482 157.391 71.2546 157.721 70.8965C158.05 70.5241 158.243 70.3021 158.301 70.2305C158.387 70.2305 158.501 70.3665 158.645 70.6387C158.788 70.9108 158.859 71.1042 158.859 71.2188C158.616 71.6341 158.172 72.1641 157.527 72.8086C156.897 73.4531 156.21 74.026 155.465 74.5273C154.72 75.0143 154.047 75.2578 153.445 75.2578C153.016 75.2578 152.665 75.0501 152.393 74.6348C152.12 74.2194 151.984 73.6823 151.984 73.0234C151.984 72.5794 152.085 71.8203 152.285 70.7461ZM174.027 56.3086C175.087 56.3086 176.133 56.4948 177.164 56.8672L174.543 70.4453C174.457 70.7891 174.414 71.1471 174.414 71.5195C174.414 72.2357 174.557 72.5938 174.844 72.5938C175.202 72.5938 175.632 72.3431 176.133 71.8418C176.634 71.3262 177.064 70.8893 177.422 70.5312L177.68 70.2305C177.737 70.2305 177.844 70.3665 178.002 70.6387C178.16 70.9108 178.238 71.1042 178.238 71.2188C177.995 71.6341 177.551 72.1641 176.906 72.8086C176.276 73.4531 175.589 74.026 174.844 74.5273C174.099 75.0143 173.426 75.2578 172.824 75.2578C172.366 75.2578 172.008 75.0501 171.75 74.6348C171.492 74.2194 171.363 73.6823 171.363 73.0234C171.363 72.5794 171.464 71.8203 171.664 70.7461L171.814 69.9941C171.857 69.7936 171.879 69.6719 171.879 69.6289C171.65 70.0586 171.32 70.5885 170.891 71.2188C170.461 71.8346 169.967 72.4505 169.408 73.0664C168.85 73.6823 168.262 74.1979 167.646 74.6133C167.031 75.0143 166.422 75.2148 165.82 75.2148C164.56 75.2148 163.564 74.6491 162.834 73.5176C162.104 72.3861 161.738 71.0182 161.738 69.4141C161.738 67.3659 162.347 65.3249 163.564 63.291C164.381 61.916 165.355 60.7057 166.486 59.6602C167.632 58.6146 168.857 57.7982 170.16 57.2109C171.464 56.6094 172.753 56.3086 174.027 56.3086ZM172.223 58.2852C171.378 58.2852 170.525 58.5859 169.666 59.1875C168.807 59.7747 168.019 60.5697 167.303 61.5723C166.587 62.5605 166.007 63.6634 165.562 64.8809C165.133 66.084 164.918 67.2943 164.918 68.5117C164.918 71.319 165.648 72.7227 167.109 72.7227C167.625 72.7227 168.184 72.4362 168.785 71.8633C169.387 71.2904 169.981 70.5312 170.568 69.5859C171.156 68.6406 171.671 67.6165 172.115 66.5137C172.574 65.3965 172.91 64.3008 173.125 63.2266L173.984 58.8438C173.641 58.4714 173.053 58.2852 172.223 58.2852Z" fill="white"/>
<path d="M0 14.4961C6.30012 20.0984 15.0791 19.1979 30.687 15.1421C32.2497 14.736 33.9168 14.9601 35.3059 15.7832L61.0905 31.063L35.3304 19.6141C33.9205 18.9874 32.3183 18.9353 30.8588 19.4358C12.5496 25.7159 4.73674 24.7283 0 14.4961Z" fill="url(#paint8_radial_692_2090)"/>
<path d="M16.5669 25.8858C22.7094 27.5488 34.4861 19.1752 43.5027 24.2129C35.7991 20.3448 24.9274 34.7378 16.5669 25.8858Z" fill="url(#paint9_radial_692_2090)"/>
<path d="M42.4528 34.1693C40.4746 32.9379 39.8039 31.791 39.5364 30.2054C39.314 28.8871 40.2138 27.6374 41.514 27.3262C46.4064 26.1551 49.6595 27.3172 54.8779 31.063C50.3759 26.3362 46.8249 25.2844 39.6469 25.78C38.7972 25.8387 38.0191 26.2751 37.5081 26.9564L36.1669 28.7446C35.6047 29.4943 35.6307 30.5432 36.2784 31.2205C38.4425 33.4837 39.9798 34.1156 42.4528 34.1693Z" fill="url(#paint10_radial_692_2090)"/>
<path d="M61.0905 28.9921C48.8725 19.5072 53.131 18.6378 60.0551 10.3543C56.6285 8.93238 54.8937 8.83857 52.8071 12.4252C51.2879 8.29387 49.7783 6.42726 45.559 4.14173C43.8524 8.52031 44.6321 10.6991 46.5945 14.4961C42.9378 12.0347 40.7471 11.3823 36.2402 13.4606C46.3046 17.727 45.2926 18.8748 61.0905 28.9921Z" fill="url(#paint11_radial_692_2090)"/>
<path d="M78.6929 22.7441C78.6929 22.1918 79.1406 21.7441 79.6929 21.7441H79.7638C80.3161 21.7441 80.7638 22.1918 80.7638 22.7441V25.9213C80.7638 26.4735 80.3161 26.9213 79.7638 26.9213H74.4803C73.3757 26.9213 72.4803 26.0258 72.4803 24.9213V19.6024C72.4803 18.4978 73.3757 17.6024 74.4803 17.6024H78.7281C80.6137 17.6024 82.4755 18.023 84.178 18.8337V18.8337C85.2965 19.3663 86.1249 20.3629 86.4441 21.5599L88.3399 28.6695C89.2063 31.9182 86.6836 35.0788 83.3237 34.9544L68.0679 34.3894C64.7776 34.2675 62.2002 31.5169 62.2923 28.2256L62.6948 13.8426C62.7856 10.5955 65.4441 8.01038 68.6924 8.01038H83.0387C86.0229 8.01038 88.8896 9.21712 90.915 11.4088C101.807 23.194 109.097 33.3225 115.395 32.2299C115.685 32.1796 115.968 32.3916 115.968 32.686V32.686C115.968 32.9325 115.766 33.1318 115.519 33.1285C109.37 33.045 105.37 32.4313 87.653 13.254C86.5367 12.0456 85.0793 11.1983 83.4735 10.8414L77.8584 9.59364C77.0431 9.41248 76.199 9.4035 75.3801 9.56728L71.091 10.4251C68.2865 10.986 66.2677 13.4485 66.2677 16.3086V27.0984C66.2677 29.8599 68.5063 32.0984 71.2677 32.0984H80.9055C83.1146 32.0984 84.9055 30.3076 84.9055 28.0984V22.6378C84.9055 20.4287 83.1146 18.6378 80.9055 18.6378H76.5512C75.4466 18.6378 74.5512 19.5332 74.5512 20.6378V24.8858C74.5512 25.4381 74.9989 25.8858 75.5512 25.8858H77.6929C78.2452 25.8858 78.6929 25.4381 78.6929 24.8858V22.7441Z" fill="url(#paint12_radial_692_2090)"/>
<path d="M104.412 33.0631C96.4743 29.9513 88.3242 12.4066 78.6929 13.4606C91.6665 19.2326 92.9183 31.4785 104.412 33.0631Z" fill="url(#paint13_radial_692_2090)"/>
<path d="M111.827 30.0276C106.485 21.6827 106.361 16.9143 110.791 8.28346C105.363 9.71409 97.6256 19.5114 111.827 30.0276Z" fill="url(#paint14_radial_692_2090)"/>
<path d="M118.039 10.3543C113.102 14.0549 110.405 23.2793 118.039 32.0984C106.33 25.6888 109.793 12.7713 118.039 0V10.3543Z" fill="url(#paint15_radial_692_2090)"/>
<path d="M236.079 14.4961C229.778 20.0984 221 19.1979 205.392 15.1421C203.829 14.736 202.162 14.9601 200.773 15.7832L174.988 31.063L200.748 19.6141C202.158 18.9874 203.76 18.9353 205.22 19.4358C223.529 25.7159 231.342 24.7283 236.079 14.4961Z" fill="url(#paint16_radial_692_2090)"/>
<path d="M219.512 25.8858C213.369 27.5488 201.593 19.1752 192.576 24.2129C200.279 20.3448 211.151 34.7378 219.512 25.8858Z" fill="url(#paint17_radial_692_2090)"/>
<path d="M193.626 34.1693C195.604 32.9379 196.275 31.791 196.542 30.2054C196.765 28.8871 195.865 27.6374 194.565 27.3262C189.672 26.1551 186.419 27.3172 181.201 31.063C185.703 26.3362 189.254 25.2844 196.432 25.78C197.281 25.8387 198.06 26.2751 198.571 26.9564L199.912 28.7446C200.474 29.4943 200.448 30.5432 199.8 31.2205C197.636 33.4837 196.099 34.1156 193.626 34.1693Z" fill="url(#paint18_radial_692_2090)"/>
<path d="M174.988 28.9921C187.206 19.5072 182.948 18.6378 176.024 10.3543C179.45 8.93238 181.185 8.83857 183.272 12.4252C184.791 8.29387 186.3 6.42726 190.52 4.14173C192.226 8.52031 191.446 10.6991 189.484 14.4961C193.141 12.0347 195.331 11.3823 199.838 13.4606C189.774 17.727 190.786 18.8748 174.988 28.9921Z" fill="url(#paint19_radial_692_2090)"/>
<path d="M157.386 22.7441C157.386 22.1918 156.938 21.7441 156.386 21.7441H156.315C155.763 21.7441 155.315 22.1918 155.315 22.7441V25.9213C155.315 26.4735 155.763 26.9213 156.315 26.9213H161.598C162.703 26.9213 163.598 26.0258 163.598 24.9213V19.6024C163.598 18.4978 162.703 17.6024 161.598 17.6024H157.351C155.465 17.6024 153.603 18.023 151.901 18.8337V18.8337C150.782 19.3663 149.954 20.3629 149.635 21.5599L147.739 28.6695C146.872 31.9182 149.395 35.0788 152.755 34.9544L168.011 34.3894C171.301 34.2675 173.878 31.5169 173.786 28.2256L173.384 13.8426C173.293 10.5955 170.635 8.01038 167.386 8.01038H153.04C150.056 8.01038 147.189 9.21712 145.164 11.4088C134.272 23.194 126.982 33.3225 120.683 32.2299C120.393 32.1796 120.11 32.3916 120.11 32.686V32.686C120.11 32.9325 120.313 33.1318 120.559 33.1285C126.708 33.045 130.709 32.4313 148.426 13.254C149.542 12.0456 150.999 11.1983 152.605 10.8414L158.22 9.59364C159.035 9.41248 159.88 9.4035 160.698 9.56728L164.988 10.4251C167.792 10.986 169.811 13.4485 169.811 16.3086V27.0984C169.811 29.8599 167.572 32.0984 164.811 32.0984H155.173C152.964 32.0984 151.173 30.3076 151.173 28.0984V22.6378C151.173 20.4287 152.964 18.6378 155.173 18.6378H159.527C160.632 18.6378 161.527 19.5332 161.527 20.6378V24.8858C161.527 25.4381 161.08 25.8858 160.527 25.8858H158.386C157.833 25.8858 157.386 25.4381 157.386 24.8858V22.7441Z" fill="url(#paint20_radial_692_2090)"/>
<path d="M131.666 33.0631C139.604 29.9513 147.754 12.4066 157.386 13.4606C144.412 19.2326 143.16 31.4785 131.666 33.0631Z" fill="url(#paint21_radial_692_2090)"/>
<path d="M124.252 30.0276C129.594 21.6827 129.718 16.9143 125.287 8.28346C130.716 9.71409 138.453 19.5114 124.252 30.0276Z" fill="url(#paint22_radial_692_2090)"/>
<path d="M118.039 10.3543C122.976 14.0549 125.673 23.2793 118.039 32.0984C129.749 25.6888 126.286 12.7713 118.039 0V10.3543Z" fill="url(#paint23_radial_692_2090)"/>
<defs>
<radialGradient id="paint0_radial_692_2090" cx="0" cy="0" r="1" gradientUnits="userSpaceOnUse" gradientTransform="translate(79.7285 111.309) scale(38.311 20.1909)">
<stop stop-color="#E1E1E1"/>
<stop offset="1" stop-color="#FFF4DA"/>
</radialGradient>
<radialGradient id="paint1_radial_692_2090" cx="0" cy="0" r="1" gradientUnits="userSpaceOnUse" gradientTransform="translate(79.7285 111.309) scale(38.311 20.1909)">
<stop stop-color="#E1E1E1"/>
<stop offset="1" stop-color="#FFF4DA"/>
</radialGradient>
<radialGradient id="paint2_radial_692_2090" cx="0" cy="0" r="1" gradientUnits="userSpaceOnUse" gradientTransform="translate(79.7285 111.309) scale(38.311 20.1909)">
<stop stop-color="#E1E1E1"/>
<stop offset="1" stop-color="#FFF4DA"/>
</radialGradient>
<radialGradient id="paint3_radial_692_2090" cx="0" cy="0" r="1" gradientUnits="userSpaceOnUse" gradientTransform="translate(79.7285 111.309) scale(38.311 20.1909)">
<stop stop-color="#E1E1E1"/>
<stop offset="1" stop-color="#FFF4DA"/>
</radialGradient>
<radialGradient id="paint4_radial_692_2090" cx="0" cy="0" r="1" gradientUnits="userSpaceOnUse" gradientTransform="translate(156.351 111.309) rotate(180) scale(38.311 20.1909)">
<stop stop-color="#E1E1E1"/>
<stop offset="1" stop-color="#FFF4DA"/>
</radialGradient>
<radialGradient id="paint5_radial_692_2090" cx="0" cy="0" r="1" gradientUnits="userSpaceOnUse" gradientTransform="translate(156.351 111.309) rotate(180) scale(38.311 20.1909)">
<stop stop-color="#E1E1E1"/>
<stop offset="1" stop-color="#FFF4DA"/>
</radialGradient>
<radialGradient id="paint6_radial_692_2090" cx="0" cy="0" r="1" gradientUnits="userSpaceOnUse" gradientTransform="translate(156.351 111.309) rotate(180) scale(38.311 20.1909)">
<stop stop-color="#E1E1E1"/>
<stop offset="1" stop-color="#FFF4DA"/>
</radialGradient>
<radialGradient id="paint7_radial_692_2090" cx="0" cy="0" r="1" gradientUnits="userSpaceOnUse" gradientTransform="translate(156.351 111.309) rotate(180) scale(38.311 20.1909)">
<stop stop-color="#E1E1E1"/>
<stop offset="1" stop-color="#FFF4DA"/>
</radialGradient>
<radialGradient id="paint8_radial_692_2090" cx="0" cy="0" r="1" gradientUnits="userSpaceOnUse" gradientTransform="translate(59.0197 17.6024) scale(59.0197 17.6024)">
<stop stop-color="#E1E1E1"/>
<stop offset="1" stop-color="#FFF4DA"/>
</radialGradient>
<radialGradient id="paint9_radial_692_2090" cx="0" cy="0" r="1" gradientUnits="userSpaceOnUse" gradientTransform="translate(59.0197 17.6024) scale(59.0197 17.6024)">
<stop stop-color="#E1E1E1"/>
<stop offset="1" stop-color="#FFF4DA"/>
</radialGradient>
<radialGradient id="paint10_radial_692_2090" cx="0" cy="0" r="1" gradientUnits="userSpaceOnUse" gradientTransform="translate(59.0197 17.6024) scale(59.0197 17.6024)">
<stop stop-color="#E1E1E1"/>
<stop offset="1" stop-color="#FFF4DA"/>
</radialGradient>
<radialGradient id="paint11_radial_692_2090" cx="0" cy="0" r="1" gradientUnits="userSpaceOnUse" gradientTransform="translate(59.0197 17.6024) scale(59.0197 17.6024)">
<stop stop-color="#E1E1E1"/>
<stop offset="1" stop-color="#FFF4DA"/>
</radialGradient>
<radialGradient id="paint12_radial_692_2090" cx="0" cy="0" r="1" gradientUnits="userSpaceOnUse" gradientTransform="translate(59.0197 17.6024) scale(59.0197 17.6024)">
<stop stop-color="#E1E1E1"/>
<stop offset="1" stop-color="#FFF4DA"/>
</radialGradient>
<radialGradient id="paint13_radial_692_2090" cx="0" cy="0" r="1" gradientUnits="userSpaceOnUse" gradientTransform="translate(59.0197 17.6024) scale(59.0197 17.6024)">
<stop stop-color="#E1E1E1"/>
<stop offset="1" stop-color="#FFF4DA"/>
</radialGradient>
<radialGradient id="paint14_radial_692_2090" cx="0" cy="0" r="1" gradientUnits="userSpaceOnUse" gradientTransform="translate(59.0197 17.6024) scale(59.0197 17.6024)">
<stop stop-color="#E1E1E1"/>
<stop offset="1" stop-color="#FFF4DA"/>
</radialGradient>
<radialGradient id="paint15_radial_692_2090" cx="0" cy="0" r="1" gradientUnits="userSpaceOnUse" gradientTransform="translate(59.0197 17.6024) scale(59.0197 17.6024)">
<stop stop-color="#E1E1E1"/>
<stop offset="1" stop-color="#FFF4DA"/>
</radialGradient>
<radialGradient id="paint16_radial_692_2090" cx="0" cy="0" r="1" gradientUnits="userSpaceOnUse" gradientTransform="translate(177.059 17.6024) rotate(180) scale(59.0197 17.6024)">
<stop stop-color="#E1E1E1"/>
<stop offset="1" stop-color="#FFF4DA"/>
</radialGradient>
<radialGradient id="paint17_radial_692_2090" cx="0" cy="0" r="1" gradientUnits="userSpaceOnUse" gradientTransform="translate(177.059 17.6024) rotate(180) scale(59.0197 17.6024)">
<stop stop-color="#E1E1E1"/>
<stop offset="1" stop-color="#FFF4DA"/>
</radialGradient>
<radialGradient id="paint18_radial_692_2090" cx="0" cy="0" r="1" gradientUnits="userSpaceOnUse" gradientTransform="translate(177.059 17.6024) rotate(180) scale(59.0197 17.6024)">
<stop stop-color="#E1E1E1"/>
<stop offset="1" stop-color="#FFF4DA"/>
</radialGradient>
<radialGradient id="paint19_radial_692_2090" cx="0" cy="0" r="1" gradientUnits="userSpaceOnUse" gradientTransform="translate(177.059 17.6024) rotate(180) scale(59.0197 17.6024)">
<stop stop-color="#E1E1E1"/>
<stop offset="1" stop-color="#FFF4DA"/>
</radialGradient>
<radialGradient id="paint20_radial_692_2090" cx="0" cy="0" r="1" gradientUnits="userSpaceOnUse" gradientTransform="translate(177.059 17.6024) rotate(180) scale(59.0197 17.6024)">
<stop stop-color="#E1E1E1"/>
<stop offset="1" stop-color="#FFF4DA"/>
</radialGradient>
<radialGradient id="paint21_radial_692_2090" cx="0" cy="0" r="1" gradientUnits="userSpaceOnUse" gradientTransform="translate(177.059 17.6024) rotate(180) scale(59.0197 17.6024)">
<stop stop-color="#E1E1E1"/>
<stop offset="1" stop-color="#FFF4DA"/>
</radialGradient>
<radialGradient id="paint22_radial_692_2090" cx="0" cy="0" r="1" gradientUnits="userSpaceOnUse" gradientTransform="translate(177.059 17.6024) rotate(180) scale(59.0197 17.6024)">
<stop stop-color="#E1E1E1"/>
<stop offset="1" stop-color="#FFF4DA"/>
</radialGradient>
<radialGradient id="paint23_radial_692_2090" cx="0" cy="0" r="1" gradientUnits="userSpaceOnUse" gradientTransform="translate(177.059 17.6024) rotate(180) scale(59.0197 17.6024)">
<stop stop-color="#E1E1E1"/>
<stop offset="1" stop-color="#FFF4DA"/>
</radialGradient>
</defs>
</svg>
