<svg width="237" height="132" viewBox="0 0 237 132" fill="none" xmlns="http://www.w3.org/2000/svg">
<path d="M50.713 108.06C49.3894 108.487 47.9219 108.504 46.7174 107.809C44.5799 106.575 44.1417 105.154 44.5239 102.508V102.508C42.8803 103.056 42.0634 104.953 43.0344 106.388C43.9981 107.812 45.0942 108.974 46.6272 110.246C47.9176 111.316 49.57 111.855 51.2463 111.812C56.4411 111.679 59.0354 110.851 62.1261 108.72C61.1055 110.641 61.1623 111.76 61.9889 113.6C62.061 113.76 62.2573 113.822 62.4081 113.731C64.083 112.73 65.0044 111.892 66.2679 109.756C66.2159 114.032 66.9848 113.977 70.4096 114.933C67.5199 110.86 68.053 109.221 70.1985 106.254C70.9963 105.151 72.1264 104.331 73.4058 103.866L78.5781 101.985C81.3347 100.982 84.3491 100.942 87.1317 101.869L104.174 107.55C104.308 107.435 104.443 107.326 104.579 107.223V104.508C104.579 103.403 105.474 102.508 106.579 102.508H108.791C109.896 102.508 110.791 103.403 110.791 104.508V105.614H111.827V103.472C111.827 102.368 110.931 101.472 109.827 101.472H105.543C104.439 101.472 103.543 102.368 103.543 103.472V106.65C98.7741 103.748 93.5326 101.584 86.7262 99.7769C82.8461 98.747 78.7539 99.0145 74.9333 100.247L50.713 108.06Z" fill="url(#paint0_radial_692_1608)"/>
<path fill-rule="evenodd" clip-rule="evenodd" d="M118.04 111.827V108.721C115.458 105.74 114.164 105.799 111.827 105.614H110.791C108.063 105.589 106.223 105.979 104.579 107.223V107.685L104.174 107.55C103.27 108.327 102.41 109.382 101.473 110.791C94.423 108.167 92.2423 105.859 84.6309 104.117C82.7932 103.696 80.8384 103.854 79.1738 104.739C77.1411 105.82 75.7483 107.075 74.4009 109.235C73.7981 110.201 73.7054 111.42 74.2151 112.438C75.05 114.107 76.2503 115.417 79.1381 117.128C80.1191 117.709 81.351 117.62 82.2789 116.957L86.2804 114.099C87.2189 113.429 87.4133 112.09 86.6216 111.251C84.8307 109.354 83.7232 109.09 81.7994 109.756C83.0247 110.067 83.7478 110.456 84.3965 111.688C84.7601 112.378 84.5523 113.216 84.0005 113.767L82.2759 115.492C81.3711 116.397 79.9668 116.664 78.906 115.948C77.392 114.927 76.4786 113.802 75.488 112.283C74.8942 111.372 74.8544 110.185 75.4804 109.296C77.1885 106.871 79.0768 106.022 82.8348 105.614C87.5143 105.758 93.9739 109.592 101.473 112.862C101.611 115.305 101.827 117.608 105.431 119.531C106.15 119.915 107.027 119.733 107.604 119.156L110.252 116.508C110.55 116.21 110.55 115.727 110.252 115.429V115.429C109.972 115.149 109.522 115.134 109.211 115.381C104.883 118.812 103.35 117.017 102.508 112.862C108.785 113.743 111.601 112.063 112.862 106.65H114.933L118.04 111.827ZM102.508 111.827C105.324 107.593 107.417 106.549 111.827 106.65C109.582 111.782 107.624 113.001 102.508 111.827Z" fill="url(#paint1_radial_692_1608)"/>
<path d="M118.04 114.933V111.827C116.112 115.763 116.189 118.074 110.791 119.075C111.96 121.038 112.806 121.636 114.933 121.146C115.325 125.201 115.718 127.472 118.04 131.5V125.287C116.703 121.107 116.953 118.865 118.04 114.933Z" fill="url(#paint2_radial_692_1608)"/>
<path d="M115.969 98.3662C116.06 94.792 116.696 93.3936 118.04 91.1182V105.614C115.723 100.811 114.342 99.4138 111.827 99.4015C113.365 97.8121 114.277 97.3638 115.969 98.3662Z" fill="url(#paint3_radial_692_1608)"/>
<path d="M185.366 108.06C186.69 108.487 188.157 108.504 189.362 107.809C191.499 106.575 191.937 105.154 191.555 102.508V102.508C193.199 103.056 194.016 104.953 193.045 106.388C192.081 107.812 190.985 108.974 189.452 110.246C188.161 111.316 186.509 111.855 184.833 111.812C179.638 111.679 177.044 110.851 173.953 108.72C174.974 110.641 174.917 111.76 174.09 113.6C174.018 113.76 173.822 113.822 173.671 113.731C171.996 112.73 171.075 111.892 169.811 109.756C169.863 114.032 169.094 113.977 165.669 114.933C168.559 110.86 168.026 109.221 165.881 106.254C165.083 105.151 163.953 104.331 162.673 103.866L157.501 101.985C154.744 100.982 151.73 100.942 148.947 101.869L131.905 107.55C131.771 107.435 131.636 107.326 131.5 107.223V104.508C131.5 103.403 130.605 102.508 129.5 102.508H127.288C126.183 102.508 125.288 103.403 125.288 104.508V105.614H124.252V103.472C124.252 102.368 125.148 101.472 126.252 101.472H130.536C131.64 101.472 132.536 102.368 132.536 103.472V106.65C137.305 103.748 142.547 101.584 149.353 99.7769C153.233 98.747 157.325 99.0145 161.146 100.247L185.366 108.06Z" fill="url(#paint4_radial_692_1608)"/>
<path fill-rule="evenodd" clip-rule="evenodd" d="M118.04 111.827V108.721C120.621 105.74 121.915 105.799 124.252 105.614H125.288C128.016 105.589 129.856 105.979 131.5 107.223V107.685L131.905 107.55C132.809 108.327 133.669 109.382 134.607 110.791C141.656 108.167 143.837 105.859 151.448 104.117C153.286 103.696 155.241 103.854 156.905 104.739C158.938 105.82 160.331 107.075 161.678 109.235C162.281 110.201 162.374 111.42 161.864 112.438C161.029 114.107 159.829 115.417 156.941 117.128C155.96 117.709 154.728 117.62 153.8 116.957L149.799 114.099C148.86 113.429 148.666 112.09 149.457 111.251C151.248 109.354 152.356 109.09 154.28 109.756C153.054 110.067 152.331 110.456 151.683 111.688C151.319 112.378 151.527 113.216 152.079 113.767L153.803 115.492C154.708 116.397 156.112 116.664 157.173 115.948C158.687 114.927 159.601 113.802 160.591 112.283C161.185 111.372 161.225 110.185 160.599 109.296C158.891 106.871 157.002 106.022 153.244 105.614C148.565 105.758 142.105 109.592 134.607 112.862C134.468 115.305 134.252 117.608 130.648 119.531C129.929 119.915 129.052 119.733 128.475 119.156L125.827 116.508C125.529 116.21 125.529 115.727 125.827 115.429V115.429C126.107 115.149 126.557 115.134 126.868 115.381C131.196 118.812 132.729 117.017 133.571 112.862C127.294 113.743 124.479 112.063 123.217 106.65H121.146L118.04 111.827ZM133.571 111.827C130.755 107.593 128.662 106.549 124.252 106.65C126.497 111.782 128.455 113.001 133.571 111.827Z" fill="url(#paint5_radial_692_1608)"/>
<path d="M118.04 114.933V111.827C119.967 115.763 119.89 118.074 125.288 119.075C124.119 121.038 123.273 121.636 121.146 121.146C120.755 125.201 120.362 127.472 118.04 131.5V125.287C119.376 121.107 119.126 118.865 118.04 114.933Z" fill="url(#paint6_radial_692_1608)"/>
<path d="M120.11 98.3662C120.019 94.792 119.383 93.3936 118.04 91.1182V105.614C120.356 100.811 121.737 99.4138 124.252 99.4015C122.714 97.8121 121.802 97.3638 120.11 98.3662Z" fill="url(#paint7_radial_692_1608)"/>
<path d="M74.8789 46.8125C75.5378 46.8268 76.2539 46.8411 77.0273 46.8555C77.8008 46.8555 78.6315 46.8555 79.5195 46.8555C80.4935 46.8555 81.3242 46.8411 82.0117 46.8125C82.6992 46.7839 83.2292 46.7552 83.6016 46.7266C84.0599 46.6979 84.6829 46.6478 85.4707 46.5762C86.2728 46.5046 87.0247 46.4401 87.7266 46.3828C87.7839 46.4115 87.8268 46.6335 87.8555 47.0488C87.8841 47.4642 87.8841 47.7148 87.8555 47.8008C87.8268 47.9154 86.1797 49.9635 82.9141 53.9453C79.6484 57.9128 76.3828 61.8659 73.1172 65.8047L68.2617 71.7344C68.0326 71.9779 67.918 72.2214 67.918 72.4648C67.918 72.694 68.0612 72.8086 68.3477 72.8086H77.3711C78.1016 72.8086 78.8464 72.694 79.6055 72.4648C80.3789 72.2214 80.9661 71.8776 81.3672 71.4336C81.4818 71.3047 81.582 71.1901 81.668 71.0898C81.7682 70.9896 81.8542 70.9036 81.9258 70.832C82.069 70.6888 82.2266 70.4668 82.3984 70.166C82.513 69.9655 82.6777 69.6432 82.8926 69.1992C83.1074 68.7552 83.2148 68.5117 83.2148 68.4688C83.3008 68.2396 83.6875 68.125 84.375 68.125C84.6758 68.125 84.8763 68.2109 84.9766 68.3828C84.4753 69.6146 84.0169 70.7819 83.6016 71.8848C83.2005 72.9876 82.8424 74.026 82.5273 75H62.7188C62.6042 74.7995 62.5469 74.556 62.5469 74.2695C62.5469 73.7969 62.6615 73.4245 62.8906 73.1523L82.9141 48.875H77.6719C77.3854 48.875 77.1061 48.875 76.834 48.875C76.5618 48.875 76.2969 48.8822 76.0391 48.8965C75.638 48.9108 75.2656 48.918 74.9219 48.918C74.5781 48.918 74.3633 48.918 74.2773 48.918C73.0599 48.9323 72.0788 49.1042 71.334 49.4336C70.6035 49.7487 69.9733 50.2858 69.4434 51.0449C68.9277 51.804 68.362 52.8568 67.7461 54.2031C67.6602 54.3177 67.5169 54.375 67.3164 54.375C66.8008 54.375 66.4141 54.2461 66.1562 53.9883C66.3424 53.487 66.6361 52.6061 67.0371 51.3457C67.4382 50.0853 67.9466 48.4453 68.5625 46.4258C68.6914 46.4688 69.0423 46.5117 69.6152 46.5547C70.1882 46.5977 70.8398 46.6406 71.5703 46.6836C72.3008 46.7266 72.974 46.7624 73.5898 46.791C74.2201 46.8053 74.6497 46.8125 74.8789 46.8125ZM92.625 56.3086C93.0833 56.3086 93.4414 56.5163 93.6992 56.9316C93.957 57.347 94.0859 57.8841 94.0859 58.543C94.0859 59.3021 94 60.0612 93.8281 60.8203L92.3242 67.9102C92.1237 68.7839 92.0234 69.5573 92.0234 70.2305C92.0234 71.4622 92.2956 72.0781 92.8398 72.0781C93.1549 72.0781 93.5417 71.8991 94 71.541C94.4727 71.1829 94.9596 70.7246 95.4609 70.166C95.9766 69.6074 96.4564 69.0345 96.9004 68.4473C97.7168 67.373 98.4902 66.0625 99.2207 64.5156C99.9512 62.9688 100.46 61.4362 100.746 59.918L101.477 56.5664C101.863 56.4518 102.307 56.3945 102.809 56.3945C103.296 56.3945 103.783 56.4518 104.27 56.5664L101.605 70.4453C101.52 70.7891 101.477 71.1471 101.477 71.5195C101.477 72.2357 101.62 72.5938 101.906 72.5938C102.264 72.5938 102.694 72.3431 103.195 71.8418C103.697 71.3262 104.126 70.8893 104.484 70.5312L104.742 70.2305C104.799 70.2305 104.907 70.3665 105.064 70.6387C105.222 70.9108 105.301 71.1042 105.301 71.2188C105.057 71.6341 104.613 72.1641 103.969 72.8086C103.339 73.4531 102.651 74.026 101.906 74.5273C101.161 75.0143 100.488 75.2578 99.8867 75.2578C99.4284 75.2578 99.0703 75.0501 98.8125 74.6348C98.5547 74.2194 98.4258 73.6823 98.4258 73.0234C98.4258 72.5938 98.526 71.8346 98.7266 70.7461L99.5 66.793C99.2279 67.3086 98.6406 68.1966 97.7383 69.457C97.151 70.2734 96.4421 71.1328 95.6113 72.0352C94.7949 72.9375 93.9785 73.7038 93.1621 74.334C92.3457 74.9499 91.651 75.2578 91.0781 75.2578C89.6458 75.2578 88.9297 74.3125 88.9297 72.4219C88.9297 71.0755 89.1302 69.5143 89.5312 67.7383L90.8203 61.7656C90.9635 60.7773 91.0352 60.2044 91.0352 60.0469C91.0352 59.3307 90.8919 58.9727 90.6055 58.9727C90.362 58.9727 89.9967 59.2018 89.5098 59.6602C89.2806 59.8893 89.0299 60.14 88.7578 60.4121C88.5 60.6842 88.3281 60.8776 88.2422 60.9922C88.1849 60.9922 88.0775 60.8561 87.9199 60.584C87.7624 60.3118 87.6836 60.1185 87.6836 60.0039C87.9128 59.6172 88.3281 59.1374 88.9297 58.5645C89.5312 57.9772 90.1758 57.4544 90.8633 56.9961C91.5508 56.5378 92.138 56.3086 92.625 56.3086ZM113.68 56.3086C114.883 56.3086 115.857 57.5547 116.602 60.0469L117.504 63.0977L120.039 58.7578C120.984 57.125 122.188 56.3086 123.648 56.3086C124.637 56.3086 125.467 56.5951 126.141 57.168C126.37 57.612 126.484 57.9844 126.484 58.2852C126.484 58.7148 126.334 59.0801 126.033 59.3809C125.732 59.6816 125.424 59.832 125.109 59.832C124.723 59.832 124.3 59.61 123.842 59.166C123.383 58.722 122.947 58.5 122.531 58.5C122.188 58.5 121.801 58.8724 121.371 59.6172L118.148 65.1172L119.996 71.1758C120.283 72.1497 120.669 72.6367 121.156 72.6367C121.586 72.6367 122.044 72.4147 122.531 71.9707C123.018 71.5267 123.362 71.1185 123.562 70.7461C123.677 70.7461 123.82 70.8607 123.992 71.0898C124.164 71.319 124.25 71.4909 124.25 71.6055C124.193 71.9206 123.921 72.3717 123.434 72.959C122.961 73.5319 122.395 74.0547 121.736 74.5273C121.092 74.9857 120.469 75.2148 119.867 75.2148C118.678 75.2148 117.704 73.9688 116.945 71.4766L115.957 68.125L113.25 72.8086C112.305 74.4414 111.102 75.2578 109.641 75.2578C108.652 75.2578 107.822 74.9714 107.148 74.3984C106.919 73.9974 106.805 73.625 106.805 73.2812C106.805 72.8516 106.955 72.4863 107.256 72.1855C107.557 71.8848 107.865 71.7344 108.18 71.7344C108.566 71.7344 108.989 71.9564 109.447 72.4004C109.906 72.8444 110.342 73.0664 110.758 73.0664C111.102 73.0664 111.488 72.694 111.918 71.9492L115.312 66.1055L113.551 60.3477C113.264 59.3737 112.878 58.8867 112.391 58.8867C111.961 58.8867 111.503 59.1087 111.016 59.5527C110.529 59.9967 110.185 60.4049 109.984 60.7773C109.87 60.7773 109.727 60.6628 109.555 60.4336C109.383 60.2044 109.297 60.0326 109.297 59.918C109.354 59.5885 109.619 59.1374 110.092 58.5645C110.579 57.9915 111.152 57.4759 111.811 57.0176C112.469 56.5449 113.092 56.3086 113.68 56.3086ZM134.09 56.3086C134.548 56.3086 134.906 56.5163 135.164 56.9316C135.422 57.347 135.551 57.8841 135.551 58.543C135.551 59.1732 135.465 59.9323 135.293 60.8203L134.605 64.4297C134.964 63.5846 135.422 62.6966 135.98 61.7656C136.553 60.8203 137.162 59.9323 137.807 59.1016C138.451 58.2708 139.089 57.5977 139.719 57.082C140.349 56.5664 140.908 56.3086 141.395 56.3086C142.368 56.3086 143.156 56.7669 143.758 57.6836C143.758 59.6029 143.228 60.5625 142.168 60.5625C141.939 60.5625 141.667 60.3835 141.352 60.0254C141.036 59.6673 140.707 59.4883 140.363 59.4883C139.948 59.4883 139.404 59.832 138.73 60.5195C138.057 61.207 137.363 62.1094 136.646 63.2266C135.93 64.3294 135.286 65.5254 134.713 66.8145C134.14 68.0892 133.746 69.3138 133.531 70.4883L132.715 75C132.228 75.0859 131.755 75.1289 131.297 75.1289C130.753 75.1289 130.223 75.0859 129.707 75L132.285 61.7656C132.428 60.7773 132.5 60.2044 132.5 60.0469C132.5 59.3307 132.357 58.9727 132.07 58.9727C131.827 58.9727 131.462 59.2018 130.975 59.6602C130.745 59.8893 130.495 60.14 130.223 60.4121C129.965 60.6842 129.793 60.8776 129.707 60.9922C129.65 60.9922 129.542 60.8561 129.385 60.584C129.227 60.3118 129.148 60.1185 129.148 60.0039C129.378 59.6172 129.793 59.1374 130.395 58.5645C130.996 57.9772 131.641 57.4544 132.328 56.9961C133.016 56.5378 133.603 56.3086 134.09 56.3086ZM149.344 56.3086C149.802 56.3086 150.16 56.5163 150.418 56.9316C150.676 57.347 150.805 57.8841 150.805 58.543C150.805 59.3021 150.719 60.0612 150.547 60.8203L149.043 67.9102C148.842 68.7839 148.742 69.5573 148.742 70.2305C148.742 71.4622 149.014 72.0781 149.559 72.0781C149.874 72.0781 150.26 71.8991 150.719 71.541C151.191 71.1829 151.678 70.7246 152.18 70.166C152.695 69.6074 153.175 69.0345 153.619 68.4473C154.436 67.373 155.209 66.0625 155.939 64.5156C156.67 62.9688 157.178 61.4362 157.465 59.918L158.195 56.5664C158.582 56.4518 159.026 56.3945 159.527 56.3945C160.014 56.3945 160.501 56.4518 160.988 56.5664L158.324 70.4453C158.238 70.7891 158.195 71.1471 158.195 71.5195C158.195 72.2357 158.339 72.5938 158.625 72.5938C158.983 72.5938 159.413 72.3431 159.914 71.8418C160.415 71.3262 160.845 70.8893 161.203 70.5312L161.461 70.2305C161.518 70.2305 161.626 70.3665 161.783 70.6387C161.941 70.9108 162.02 71.1042 162.02 71.2188C161.776 71.6341 161.332 72.1641 160.688 72.8086C160.057 73.4531 159.37 74.026 158.625 74.5273C157.88 75.0143 157.207 75.2578 156.605 75.2578C156.147 75.2578 155.789 75.0501 155.531 74.6348C155.273 74.2194 155.145 73.6823 155.145 73.0234C155.145 72.5938 155.245 71.8346 155.445 70.7461L156.219 66.793C155.947 67.3086 155.359 68.1966 154.457 69.457C153.87 70.2734 153.161 71.1328 152.33 72.0352C151.514 72.9375 150.697 73.7038 149.881 74.334C149.064 74.9499 148.37 75.2578 147.797 75.2578C146.365 75.2578 145.648 74.3125 145.648 72.4219C145.648 71.0755 145.849 69.5143 146.25 67.7383L147.539 61.7656C147.682 60.7773 147.754 60.2044 147.754 60.0469C147.754 59.3307 147.611 58.9727 147.324 58.9727C147.081 58.9727 146.715 59.2018 146.229 59.6602C145.999 59.8893 145.749 60.14 145.477 60.4121C145.219 60.6842 145.047 60.8776 144.961 60.9922C144.904 60.9922 144.796 60.8561 144.639 60.584C144.481 60.3118 144.402 60.1185 144.402 60.0039C144.632 59.6172 145.047 59.1374 145.648 58.5645C146.25 57.9772 146.895 57.4544 147.582 56.9961C148.27 56.5378 148.857 56.3086 149.344 56.3086ZM178.863 44.9648C180.697 44.9648 181.871 45.4518 182.387 46.4258C182.387 48.2878 181.871 49.2188 180.84 49.2188C180.382 49.2188 179.973 49.0039 179.615 48.5742C179.271 48.1302 178.921 47.6934 178.562 47.2637C178.219 46.8197 177.803 46.5977 177.316 46.5977C176.4 46.5977 175.426 47.5358 174.395 49.4121C173.378 51.2598 172.576 53.8737 171.988 57.2539V57.3398C171.988 57.4544 172.031 57.5117 172.117 57.5117H177.059C177.202 57.5117 177.273 57.6836 177.273 58.0273C177.273 58.5 177.116 58.987 176.801 59.4883H171.773C171.616 59.4883 171.53 59.6029 171.516 59.832L169.152 72.6797C168.465 76.6615 167.255 79.6979 165.521 81.7891C163.788 83.8802 161.905 84.9258 159.871 84.9258C158.868 84.9258 158.081 84.7467 157.508 84.3887C156.935 84.0306 156.562 83.6224 156.391 83.1641C156.362 82.5052 156.52 81.918 156.863 81.4023C157.207 80.8867 157.637 80.6289 158.152 80.6289C158.553 80.6289 158.904 80.8438 159.205 81.2734C159.492 81.7174 159.799 82.1543 160.129 82.584C160.444 83.028 160.845 83.25 161.332 83.25C161.905 83.25 162.442 82.9134 162.943 82.2402C163.459 81.5814 163.924 80.7578 164.34 79.7695C164.755 78.7812 165.099 77.793 165.371 76.8047C165.643 75.8164 165.829 75 165.93 74.3555L168.508 59.7891V59.7031C168.508 59.5599 168.465 59.4883 168.379 59.4883H165.586C165.529 59.4883 165.5 59.4453 165.5 59.3594C165.5 59.1875 165.607 58.9583 165.822 58.6719C166.037 58.3711 166.302 58.1061 166.617 57.877C166.947 57.6335 167.262 57.5117 167.562 57.5117H168.809C168.923 57.5117 169.009 57.3828 169.066 57.125C169.453 54.776 170.141 52.6849 171.129 50.8516C172.132 49.0182 173.306 47.5788 174.652 46.5332C176.013 45.4876 177.417 44.9648 178.863 44.9648Z" fill="white"/>
<path d="M0 14.4961C6.30012 20.0984 15.0791 19.1979 30.687 15.1421C32.2497 14.736 33.9168 14.9601 35.3059 15.7832L61.0905 31.063L35.3304 19.6141C33.9205 18.9874 32.3183 18.9353 30.8588 19.4358C12.5496 25.7159 4.73674 24.7283 0 14.4961Z" fill="url(#paint8_radial_692_1608)"/>
<path d="M16.5669 25.8858C22.7094 27.5488 34.4861 19.1752 43.5027 24.2129C35.7991 20.3448 24.9274 34.7378 16.5669 25.8858Z" fill="url(#paint9_radial_692_1608)"/>
<path d="M42.4528 34.1693C40.4746 32.9379 39.8039 31.791 39.5364 30.2054C39.314 28.8871 40.2138 27.6374 41.514 27.3262C46.4064 26.1551 49.6595 27.3172 54.8779 31.063C50.3759 26.3362 46.8249 25.2844 39.6469 25.78C38.7972 25.8387 38.0191 26.2751 37.5081 26.9564L36.1669 28.7446C35.6047 29.4943 35.6307 30.5432 36.2784 31.2205C38.4425 33.4837 39.9798 34.1156 42.4528 34.1693Z" fill="url(#paint10_radial_692_1608)"/>
<path d="M61.0905 28.9921C48.8725 19.5072 53.131 18.6378 60.0551 10.3543C56.6285 8.93238 54.8937 8.83857 52.8071 12.4252C51.2879 8.29387 49.7783 6.42726 45.559 4.14173C43.8524 8.52031 44.6321 10.6991 46.5945 14.4961C42.9378 12.0347 40.7471 11.3823 36.2402 13.4606C46.3046 17.727 45.2926 18.8748 61.0905 28.9921Z" fill="url(#paint11_radial_692_1608)"/>
<path d="M78.6929 22.7441C78.6929 22.1918 79.1406 21.7441 79.6929 21.7441H79.7638C80.3161 21.7441 80.7638 22.1918 80.7638 22.7441V25.9213C80.7638 26.4735 80.3161 26.9213 79.7638 26.9213H74.4803C73.3757 26.9213 72.4803 26.0258 72.4803 24.9213V19.6024C72.4803 18.4978 73.3757 17.6024 74.4803 17.6024H78.7281C80.6137 17.6024 82.4755 18.023 84.178 18.8337V18.8337C85.2965 19.3663 86.1249 20.3629 86.4441 21.5599L88.3399 28.6695C89.2063 31.9182 86.6836 35.0788 83.3237 34.9544L68.0679 34.3894C64.7776 34.2675 62.2002 31.5169 62.2923 28.2256L62.6948 13.8426C62.7856 10.5955 65.4441 8.01038 68.6924 8.01038H83.0387C86.0229 8.01038 88.8896 9.21712 90.915 11.4088C101.807 23.194 109.097 33.3225 115.395 32.2299C115.685 32.1796 115.968 32.3916 115.968 32.686V32.686C115.968 32.9325 115.766 33.1318 115.519 33.1285C109.37 33.045 105.37 32.4313 87.653 13.254C86.5367 12.0456 85.0793 11.1983 83.4735 10.8414L77.8584 9.59364C77.0431 9.41248 76.199 9.4035 75.3801 9.56728L71.091 10.4251C68.2865 10.986 66.2677 13.4485 66.2677 16.3086V27.0984C66.2677 29.8599 68.5063 32.0984 71.2677 32.0984H80.9055C83.1146 32.0984 84.9055 30.3076 84.9055 28.0984V22.6378C84.9055 20.4287 83.1146 18.6378 80.9055 18.6378H76.5512C75.4466 18.6378 74.5512 19.5332 74.5512 20.6378V24.8858C74.5512 25.4381 74.9989 25.8858 75.5512 25.8858H77.6929C78.2452 25.8858 78.6929 25.4381 78.6929 24.8858V22.7441Z" fill="url(#paint12_radial_692_1608)"/>
<path d="M104.412 33.0631C96.4743 29.9513 88.3242 12.4066 78.6929 13.4606C91.6665 19.2326 92.9183 31.4785 104.412 33.0631Z" fill="url(#paint13_radial_692_1608)"/>
<path d="M111.827 30.0276C106.485 21.6827 106.361 16.9143 110.791 8.28346C105.363 9.71409 97.6256 19.5114 111.827 30.0276Z" fill="url(#paint14_radial_692_1608)"/>
<path d="M118.039 10.3543C113.102 14.0549 110.405 23.2793 118.039 32.0984C106.33 25.6888 109.793 12.7713 118.039 0V10.3543Z" fill="url(#paint15_radial_692_1608)"/>
<path d="M236.079 14.4961C229.778 20.0984 221 19.1979 205.392 15.1421C203.829 14.736 202.162 14.9601 200.773 15.7832L174.988 31.063L200.748 19.6141C202.158 18.9874 203.76 18.9353 205.22 19.4358C223.529 25.7159 231.342 24.7283 236.079 14.4961Z" fill="url(#paint16_radial_692_1608)"/>
<path d="M219.512 25.8858C213.369 27.5488 201.593 19.1752 192.576 24.2129C200.279 20.3448 211.151 34.7378 219.512 25.8858Z" fill="url(#paint17_radial_692_1608)"/>
<path d="M193.626 34.1693C195.604 32.9379 196.275 31.791 196.542 30.2054C196.765 28.8871 195.865 27.6374 194.565 27.3262C189.672 26.1551 186.419 27.3172 181.201 31.063C185.703 26.3362 189.254 25.2844 196.432 25.78C197.281 25.8387 198.06 26.2751 198.571 26.9564L199.912 28.7446C200.474 29.4943 200.448 30.5432 199.8 31.2205C197.636 33.4837 196.099 34.1156 193.626 34.1693Z" fill="url(#paint18_radial_692_1608)"/>
<path d="M174.988 28.9921C187.206 19.5072 182.948 18.6378 176.024 10.3543C179.45 8.93238 181.185 8.83857 183.272 12.4252C184.791 8.29387 186.3 6.42726 190.52 4.14173C192.226 8.52031 191.446 10.6991 189.484 14.4961C193.141 12.0347 195.331 11.3823 199.838 13.4606C189.774 17.727 190.786 18.8748 174.988 28.9921Z" fill="url(#paint19_radial_692_1608)"/>
<path d="M157.386 22.7441C157.386 22.1918 156.938 21.7441 156.386 21.7441H156.315C155.763 21.7441 155.315 22.1918 155.315 22.7441V25.9213C155.315 26.4735 155.763 26.9213 156.315 26.9213H161.598C162.703 26.9213 163.598 26.0258 163.598 24.9213V19.6024C163.598 18.4978 162.703 17.6024 161.598 17.6024H157.351C155.465 17.6024 153.603 18.023 151.901 18.8337V18.8337C150.782 19.3663 149.954 20.3629 149.635 21.5599L147.739 28.6695C146.872 31.9182 149.395 35.0788 152.755 34.9544L168.011 34.3894C171.301 34.2675 173.878 31.5169 173.786 28.2256L173.384 13.8426C173.293 10.5955 170.635 8.01038 167.386 8.01038H153.04C150.056 8.01038 147.189 9.21712 145.164 11.4088C134.272 23.194 126.982 33.3225 120.683 32.2299C120.393 32.1796 120.11 32.3916 120.11 32.686V32.686C120.11 32.9325 120.313 33.1318 120.559 33.1285C126.708 33.045 130.709 32.4313 148.426 13.254C149.542 12.0456 150.999 11.1983 152.605 10.8414L158.22 9.59364C159.035 9.41248 159.88 9.4035 160.698 9.56728L164.988 10.4251C167.792 10.986 169.811 13.4485 169.811 16.3086V27.0984C169.811 29.8599 167.572 32.0984 164.811 32.0984H155.173C152.964 32.0984 151.173 30.3076 151.173 28.0984V22.6378C151.173 20.4287 152.964 18.6378 155.173 18.6378H159.527C160.632 18.6378 161.527 19.5332 161.527 20.6378V24.8858C161.527 25.4381 161.08 25.8858 160.527 25.8858H158.386C157.833 25.8858 157.386 25.4381 157.386 24.8858V22.7441Z" fill="url(#paint20_radial_692_1608)"/>
<path d="M131.666 33.0631C139.604 29.9513 147.754 12.4066 157.386 13.4606C144.412 19.2326 143.16 31.4785 131.666 33.0631Z" fill="url(#paint21_radial_692_1608)"/>
<path d="M124.252 30.0276C129.594 21.6827 129.718 16.9143 125.287 8.28346C130.716 9.71409 138.453 19.5114 124.252 30.0276Z" fill="url(#paint22_radial_692_1608)"/>
<path d="M118.039 10.3543C122.976 14.0549 125.673 23.2793 118.039 32.0984C129.749 25.6888 126.286 12.7713 118.039 0V10.3543Z" fill="url(#paint23_radial_692_1608)"/>
<defs>
<radialGradient id="paint0_radial_692_1608" cx="0" cy="0" r="1" gradientUnits="userSpaceOnUse" gradientTransform="translate(79.7285 111.309) scale(38.311 20.1909)">
<stop stop-color="#E1E1E1"/>
<stop offset="1" stop-color="#FFF4DA"/>
</radialGradient>
<radialGradient id="paint1_radial_692_1608" cx="0" cy="0" r="1" gradientUnits="userSpaceOnUse" gradientTransform="translate(79.7285 111.309) scale(38.311 20.1909)">
<stop stop-color="#E1E1E1"/>
<stop offset="1" stop-color="#FFF4DA"/>
</radialGradient>
<radialGradient id="paint2_radial_692_1608" cx="0" cy="0" r="1" gradientUnits="userSpaceOnUse" gradientTransform="translate(79.7285 111.309) scale(38.311 20.1909)">
<stop stop-color="#E1E1E1"/>
<stop offset="1" stop-color="#FFF4DA"/>
</radialGradient>
<radialGradient id="paint3_radial_692_1608" cx="0" cy="0" r="1" gradientUnits="userSpaceOnUse" gradientTransform="translate(79.7285 111.309) scale(38.311 20.1909)">
<stop stop-color="#E1E1E1"/>
<stop offset="1" stop-color="#FFF4DA"/>
</radialGradient>
<radialGradient id="paint4_radial_692_1608" cx="0" cy="0" r="1" gradientUnits="userSpaceOnUse" gradientTransform="translate(156.351 111.309) rotate(180) scale(38.311 20.1909)">
<stop stop-color="#E1E1E1"/>
<stop offset="1" stop-color="#FFF4DA"/>
</radialGradient>
<radialGradient id="paint5_radial_692_1608" cx="0" cy="0" r="1" gradientUnits="userSpaceOnUse" gradientTransform="translate(156.351 111.309) rotate(180) scale(38.311 20.1909)">
<stop stop-color="#E1E1E1"/>
<stop offset="1" stop-color="#FFF4DA"/>
</radialGradient>
<radialGradient id="paint6_radial_692_1608" cx="0" cy="0" r="1" gradientUnits="userSpaceOnUse" gradientTransform="translate(156.351 111.309) rotate(180) scale(38.311 20.1909)">
<stop stop-color="#E1E1E1"/>
<stop offset="1" stop-color="#FFF4DA"/>
</radialGradient>
<radialGradient id="paint7_radial_692_1608" cx="0" cy="0" r="1" gradientUnits="userSpaceOnUse" gradientTransform="translate(156.351 111.309) rotate(180) scale(38.311 20.1909)">
<stop stop-color="#E1E1E1"/>
<stop offset="1" stop-color="#FFF4DA"/>
</radialGradient>
<radialGradient id="paint8_radial_692_1608" cx="0" cy="0" r="1" gradientUnits="userSpaceOnUse" gradientTransform="translate(59.0197 17.6024) scale(59.0197 17.6024)">
<stop stop-color="#E1E1E1"/>
<stop offset="1" stop-color="#FFF4DA"/>
</radialGradient>
<radialGradient id="paint9_radial_692_1608" cx="0" cy="0" r="1" gradientUnits="userSpaceOnUse" gradientTransform="translate(59.0197 17.6024) scale(59.0197 17.6024)">
<stop stop-color="#E1E1E1"/>
<stop offset="1" stop-color="#FFF4DA"/>
</radialGradient>
<radialGradient id="paint10_radial_692_1608" cx="0" cy="0" r="1" gradientUnits="userSpaceOnUse" gradientTransform="translate(59.0197 17.6024) scale(59.0197 17.6024)">
<stop stop-color="#E1E1E1"/>
<stop offset="1" stop-color="#FFF4DA"/>
</radialGradient>
<radialGradient id="paint11_radial_692_1608" cx="0" cy="0" r="1" gradientUnits="userSpaceOnUse" gradientTransform="translate(59.0197 17.6024) scale(59.0197 17.6024)">
<stop stop-color="#E1E1E1"/>
<stop offset="1" stop-color="#FFF4DA"/>
</radialGradient>
<radialGradient id="paint12_radial_692_1608" cx="0" cy="0" r="1" gradientUnits="userSpaceOnUse" gradientTransform="translate(59.0197 17.6024) scale(59.0197 17.6024)">
<stop stop-color="#E1E1E1"/>
<stop offset="1" stop-color="#FFF4DA"/>
</radialGradient>
<radialGradient id="paint13_radial_692_1608" cx="0" cy="0" r="1" gradientUnits="userSpaceOnUse" gradientTransform="translate(59.0197 17.6024) scale(59.0197 17.6024)">
<stop stop-color="#E1E1E1"/>
<stop offset="1" stop-color="#FFF4DA"/>
</radialGradient>
<radialGradient id="paint14_radial_692_1608" cx="0" cy="0" r="1" gradientUnits="userSpaceOnUse" gradientTransform="translate(59.0197 17.6024) scale(59.0197 17.6024)">
<stop stop-color="#E1E1E1"/>
<stop offset="1" stop-color="#FFF4DA"/>
</radialGradient>
<radialGradient id="paint15_radial_692_1608" cx="0" cy="0" r="1" gradientUnits="userSpaceOnUse" gradientTransform="translate(59.0197 17.6024) scale(59.0197 17.6024)">
<stop stop-color="#E1E1E1"/>
<stop offset="1" stop-color="#FFF4DA"/>
</radialGradient>
<radialGradient id="paint16_radial_692_1608" cx="0" cy="0" r="1" gradientUnits="userSpaceOnUse" gradientTransform="translate(177.059 17.6024) rotate(180) scale(59.0197 17.6024)">
<stop stop-color="#E1E1E1"/>
<stop offset="1" stop-color="#FFF4DA"/>
</radialGradient>
<radialGradient id="paint17_radial_692_1608" cx="0" cy="0" r="1" gradientUnits="userSpaceOnUse" gradientTransform="translate(177.059 17.6024) rotate(180) scale(59.0197 17.6024)">
<stop stop-color="#E1E1E1"/>
<stop offset="1" stop-color="#FFF4DA"/>
</radialGradient>
<radialGradient id="paint18_radial_692_1608" cx="0" cy="0" r="1" gradientUnits="userSpaceOnUse" gradientTransform="translate(177.059 17.6024) rotate(180) scale(59.0197 17.6024)">
<stop stop-color="#E1E1E1"/>
<stop offset="1" stop-color="#FFF4DA"/>
</radialGradient>
<radialGradient id="paint19_radial_692_1608" cx="0" cy="0" r="1" gradientUnits="userSpaceOnUse" gradientTransform="translate(177.059 17.6024) rotate(180) scale(59.0197 17.6024)">
<stop stop-color="#E1E1E1"/>
<stop offset="1" stop-color="#FFF4DA"/>
</radialGradient>
<radialGradient id="paint20_radial_692_1608" cx="0" cy="0" r="1" gradientUnits="userSpaceOnUse" gradientTransform="translate(177.059 17.6024) rotate(180) scale(59.0197 17.6024)">
<stop stop-color="#E1E1E1"/>
<stop offset="1" stop-color="#FFF4DA"/>
</radialGradient>
<radialGradient id="paint21_radial_692_1608" cx="0" cy="0" r="1" gradientUnits="userSpaceOnUse" gradientTransform="translate(177.059 17.6024) rotate(180) scale(59.0197 17.6024)">
<stop stop-color="#E1E1E1"/>
<stop offset="1" stop-color="#FFF4DA"/>
</radialGradient>
<radialGradient id="paint22_radial_692_1608" cx="0" cy="0" r="1" gradientUnits="userSpaceOnUse" gradientTransform="translate(177.059 17.6024) rotate(180) scale(59.0197 17.6024)">
<stop stop-color="#E1E1E1"/>
<stop offset="1" stop-color="#FFF4DA"/>
</radialGradient>
<radialGradient id="paint23_radial_692_1608" cx="0" cy="0" r="1" gradientUnits="userSpaceOnUse" gradientTransform="translate(177.059 17.6024) rotate(180) scale(59.0197 17.6024)">
<stop stop-color="#E1E1E1"/>
<stop offset="1" stop-color="#FFF4DA"/>
</radialGradient>
</defs>
</svg>
