<svg width="363" height="357" viewBox="0 0 363 357" fill="none" xmlns="http://www.w3.org/2000/svg">
<circle cx="186" cy="174" r="61.5" stroke="white" stroke-width="5"/>
<circle cx="186" cy="174" r="80.5" transform="rotate(30 186 174)" stroke="#B68D40"/>
<circle cx="186" cy="174" r="103.5" transform="rotate(30 186 174)" stroke="white"/>
<circle cx="186" cy="174" r="115.5" transform="rotate(30 186 174)" stroke="#B68D40"/>
<circle cx="186" cy="174" r="68.5" stroke="#B68D40"/>
<circle cx="186" cy="174" r="78.5" stroke="white"/>
<path d="M186.5 173.5L186.003 49.3606L185.948 48.9336L172.5 160L186.5 173.5Z" fill="#D9D9D9"/>
<path d="M186.5 173.5L200.5 160L186.003 49.3606L186.5 173.5Z" fill="#D9D9D9"/>
<path d="M186.5 173.5L172.5 160L185.948 48.9336M186.5 173.5L200.5 160L186.003 49.3606M186.5 173.5L186.003 49.3606M185.948 48.9336L186 48.5L186.003 49.3606M185.948 48.9336L186.003 49.3606" stroke="#B68D40"/>
<path d="M187.497 298.139L187 174L173 187.5L187.497 298.139Z" fill="#D9D9D9"/>
<path d="M201 187.5L187 174L187.497 298.139L187.552 298.566L201 187.5Z" fill="#D9D9D9"/>
<path d="M187 174L201 187.5L187.552 298.566M187 174L173 187.5L187.497 298.139M187 174L187.497 298.139M187.552 298.566L187.5 299L187.497 298.139M187.552 298.566L187.497 298.139" stroke="#B68D40"/>
<path d="M186.5 174L172.5 160L61.8605 174.497L186.5 174Z" fill="#D9D9D9"/>
<path d="M172.5 188L186.5 174L61.8605 174.497L61.4336 174.552L172.5 188Z" fill="#D9D9D9"/>
<path d="M186.5 174L172.5 188L61.4336 174.552M186.5 174L172.5 160L61.8605 174.497M186.5 174L61.8605 174.497M61.4336 174.552L61 174.5L61.8605 174.497M61.4336 174.552L61.8605 174.497" stroke="#B68D40"/>
<path d="M187 174L311.139 173.503L311.566 173.448L200.5 160L187 174Z" fill="#D9D9D9"/>
<path d="M187 174L200.5 188L311.139 173.503L187 174Z" fill="#D9D9D9"/>
<path d="M187 174L200.5 160L311.566 173.448M187 174L200.5 188L311.139 173.503M187 174L311.139 173.503M311.566 173.448L312 173.5L311.139 173.503M311.566 173.448L311.139 173.503" stroke="#B68D40"/>
<path d="M199.5 151L247.5 113.5L210 161L200.5 160L199.5 151Z" fill="#D9D9D9" stroke="#B68D40"/>
<path d="M210 187L247.5 235L199.5 198L201 188L210 187Z" fill="#D9D9D9" stroke="#B68D40"/>
<path d="M174 197L126 234.5L163.5 187L173 188L174 197Z" fill="#D9D9D9" stroke="#B68D40"/>
<path d="M162.5 161L125.5 113L173.5 150.5L172.5 160L162.5 161Z" fill="#D9D9D9" stroke="#B68D40"/>
<path d="M120.388 136L125.5 139" stroke="#B68D40" stroke-width="3"/>
<path d="M148.113 108L151.04 113.154" stroke="#B68D40" stroke-width="3"/>
<path d="M166.83 100.709L168.323 106.445" stroke="#B68D40" stroke-width="3"/>
<path d="M206.575 101L205 106.714" stroke="#B68D40" stroke-width="3"/>
<path d="M224.63 108.324L221.59 113.412" stroke="#B68D40" stroke-width="3"/>
<path d="M252.154 136.114L247 139.04" stroke="#B68D40" stroke-width="3"/>
<path d="M260.445 154.83L254.709 156.324" stroke="#B68D40" stroke-width="3"/>
<path d="M259.714 193.575L254 192" stroke="#B68D40" stroke-width="3"/>
<path d="M252.52 212L247.408 209" stroke="#B68D40" stroke-width="3"/>
<path d="M225.041 240.154L222.114 235" stroke="#B68D40" stroke-width="3"/>
<path d="M207.016 247.684L205.338 242" stroke="#B68D40" stroke-width="3"/>
<path d="M167.252 247.778L168.573 242" stroke="#B68D40" stroke-width="3"/>
<path d="M149 240.519L152 235.408" stroke="#B68D40" stroke-width="3"/>
<path d="M121 212.041L126.154 209.114" stroke="#B68D40" stroke-width="3"/>
<path d="M113 193.857L118.736 192.364" stroke="#B68D40" stroke-width="3"/>
<path d="M113 154.274L118.783 155.573" stroke="#B68D40" stroke-width="3"/>
<path d="M0.72 162.5V161.42H1.05L3.45 161.48C4.85 161.5 6.39 161.5 8.07 161.48C10.01 161.44 10.97 161.42 10.95 161.42H11.34V162.5V163.58H10.05C9.19 163.58 8.76 163.6 8.76 163.64L10.95 169.46C12.43 173.42 13.17 175.37 13.17 175.31C13.17 175.43 13.75 173.92 14.91 170.78C16.07 167.7 16.65 166.15 16.65 166.13L16.17 164.84L15.72 163.58H14.28H12.84V162.5V161.42H13.17L15.57 161.48C16.97 161.5 18.5 161.5 20.16 161.48C22.14 161.44 23.12 161.42 23.1 161.42H23.49V162.5V163.58H22.17C21.31 163.58 20.88 163.59 20.88 163.61L23.1 169.49L25.32 175.34L29.76 163.61C29.76 163.59 29.28 163.58 28.32 163.58H26.85V162.5V161.42H27.15C27.13 161.42 27.92 161.44 29.52 161.48C30.88 161.5 32.04 161.5 33 161.48C34.1 161.44 34.66 161.42 34.68 161.42H34.92V162.5V163.58H33.51H32.07L31.98 163.82C31.96 163.92 30.83 166.92 28.59 172.82C26.31 178.84 25.19 181.81 25.23 181.73C25.11 181.97 24.95 182.12 24.75 182.18C24.65 182.22 24.37 182.24 23.91 182.24C23.31 182.24 22.93 182.17 22.77 182.03C22.67 181.93 22.61 181.85 22.59 181.79C22.57 181.77 21.76 179.66 20.16 175.46L17.82 169.25L15.48 175.46C13.88 179.66 13.07 181.77 13.05 181.79C13.03 181.85 12.97 181.93 12.87 182.03C12.71 182.17 12.33 182.24 11.73 182.24C11.27 182.24 10.99 182.22 10.89 182.18C10.69 182.12 10.53 181.97 10.41 181.73C10.45 181.81 9.33 178.84 7.05 172.82C4.81 166.92 3.68 163.92 3.66 163.82L3.57 163.58H2.13H0.72V162.5Z" fill="#B68D40"/>
<path d="M174.17 4.5V3.42H178.31H182.48L182.6 3.48C182.66 3.5 184.43 5.65 187.91 9.93C191.45 14.29 193.19 16.44 193.13 16.38L193.22 16.47V11.04V5.58H191.6H189.98V4.5V3.42H190.28L192.47 3.48C193.75 3.5 195.03 3.5 196.31 3.48C197.75 3.44 198.48 3.42 198.5 3.42H198.8V4.5V5.58H197.18H195.56V14.58C195.56 20.56 195.54 23.59 195.5 23.67C195.46 23.79 195.38 23.88 195.26 23.94C195.18 23.98 194.89 24 194.39 24C193.89 24 193.6 23.98 193.52 23.94C193.48 23.92 191.19 21.13 186.65 15.57C182.07 9.87 179.8 7.06 179.84 7.14L179.75 7.05V14.43V21.84H181.37H182.99V22.92V24H182.69C182.71 24 181.98 23.98 180.5 23.94C179.22 23.92 177.94 23.92 176.66 23.94C175.18 23.98 174.45 24 174.47 24H174.17V22.92V21.84H175.79H177.41V13.71V5.58H175.79H174.17V4.5Z" fill="#B68D40"/>
<path d="M341.17 163.68V162.6H350.47H359.8V162.72C359.82 162.8 359.98 164.09 360.28 166.59C360.54 169.03 360.69 170.32 360.73 170.46V170.58H359.65H358.57L358.51 170.07C358.33 168.77 358.09 167.78 357.79 167.1C357.17 165.84 356.02 165.09 354.34 164.85C353.8 164.79 352.79 164.76 351.31 164.76H349.42V168.03V171.33H349.96C350.88 171.33 351.55 171.22 351.97 171C352.31 170.86 352.56 170.64 352.72 170.34C353 169.88 353.14 169.17 353.14 168.21V167.82H354.22H355.3V172.41V177H354.22H353.14V176.61C353.14 175.65 353 174.94 352.72 174.48C352.56 174.18 352.31 173.96 351.97 173.82C351.55 173.6 350.88 173.49 349.96 173.49H349.42V177.15V180.84H351.37C352.79 180.84 353.59 180.83 353.77 180.81C355.81 180.67 357.25 180.01 358.09 178.83C358.19 178.71 358.32 178.48 358.48 178.14C358.84 177.44 359.15 176.34 359.41 174.84C359.45 174.44 359.49 174.2 359.53 174.12V174.03H360.61H361.69V174.12C361.67 174.16 361.44 175.62 361 178.5C360.56 181.4 360.33 182.87 360.31 182.91V183H350.74H341.17V181.92V180.84H342.79H344.41V172.8V164.76H342.79H341.17V163.68Z" fill="#B68D40"/>
<path d="M184.77 327.12C185.61 327.04 186.42 327.07 187.2 327.21C188.3 327.37 189.34 327.77 190.32 328.41C190.44 328.51 190.53 328.55 190.59 328.53C190.69 328.43 190.95 328.2 191.37 327.84C191.89 327.4 192.16 327.17 192.18 327.15C192.24 327.11 192.38 327.09 192.6 327.09C192.84 327.09 192.99 327.11 193.05 327.15C193.15 327.21 193.21 327.35 193.23 327.57C193.25 327.85 193.26 328.89 193.26 330.69C193.26 332.93 193.19 334.1 193.05 334.2C192.97 334.24 192.68 334.26 192.18 334.26C191.68 334.26 191.39 334.24 191.31 334.2C191.19 334.14 191.11 333.93 191.07 333.57C190.95 332.93 190.76 332.34 190.5 331.8C190.26 331.3 189.93 330.86 189.51 330.48C188.65 329.64 187.45 329.19 185.91 329.13C184.27 329.07 183.23 329.61 182.79 330.75C182.69 331.03 182.64 331.35 182.64 331.71C182.64 332.11 182.71 332.46 182.85 332.76C183.15 333.38 183.69 333.84 184.47 334.14C184.61 334.22 185.38 334.4 186.78 334.68C188.22 334.98 189.02 335.16 189.18 335.22C190.06 335.44 190.85 335.81 191.55 336.33C192.99 337.39 193.86 338.84 194.16 340.68C194.24 341.24 194.24 341.94 194.16 342.78C194.04 343.54 193.81 344.27 193.47 344.97C193.07 345.79 192.54 346.45 191.88 346.95C190.96 347.65 189.85 348.09 188.55 348.27C188.05 348.35 187.28 348.36 186.24 348.3C186.14 348.28 186.06 348.27 186 348.27C184.28 348.09 182.9 347.66 181.86 346.98C181.74 346.9 181.65 346.87 181.59 346.89C181.49 346.99 181.23 347.22 180.81 347.58C180.29 348.02 180.02 348.25 180 348.27C179.94 348.31 179.8 348.33 179.58 348.33C179.34 348.33 179.19 348.31 179.13 348.27C179.03 348.21 178.97 348.07 178.95 347.85C178.93 347.57 178.92 346.54 178.92 344.76C178.92 342.58 178.94 341.46 178.98 341.4C179 341.36 179.04 341.31 179.1 341.25C179.2 341.19 179.49 341.16 179.97 341.16C180.49 341.16 180.79 341.18 180.87 341.22C181.01 341.3 181.08 341.51 181.08 341.85C181.14 342.93 181.52 343.82 182.22 344.52C182.74 345.04 183.46 345.45 184.38 345.75C185.56 346.13 186.74 346.26 187.92 346.14C188.08 346.12 188.22 346.1 188.34 346.08C188.9 345.96 189.36 345.72 189.72 345.36C190.12 344.96 190.38 344.42 190.5 343.74C190.66 342.72 190.38 341.85 189.66 341.13C189.36 340.79 188.97 340.55 188.49 340.41C188.41 340.37 187.61 340.18 186.09 339.84C184.65 339.56 183.83 339.38 183.63 339.3C182.15 338.88 180.99 338.09 180.15 336.93C179.29 335.79 178.88 334.51 178.92 333.09C178.98 331.67 179.4 330.45 180.18 329.43C180.92 328.43 182 327.74 183.42 327.36C183.9 327.24 184.35 327.16 184.77 327.12Z" fill="#B68D40"/>
<path d="M42.5 174.5H57.5" stroke="#B68D40" stroke-width="2"/>
<path d="M186.5 30.5L186.5 45.5" stroke="#B68D40" stroke-width="2"/>
<path d="M330 174L315 174" stroke="#B68D40" stroke-width="2"/>
<path d="M186.5 303V318" stroke="#B68D40" stroke-width="2"/>
<path d="M78 145L81 144.5L83 146.5L80 147L78 145Z" fill="#B68D40" stroke="#B68D40"/>
<path d="M89.5594 118.48L92.5795 118.839L93.9403 121.319L90.9202 120.96L89.5594 118.48Z" fill="#B68D40" stroke="#B68D40"/>
<path d="M106.784 95.1823L109.722 95.968L110.716 98.6162L107.777 97.8305L106.784 95.1823Z" fill="#B68D40" stroke="#B68D40"/>
<path d="M130.267 77.3869L132.905 78.9007L133.185 81.7152L130.548 80.2014L130.267 77.3869Z" fill="#B68D40" stroke="#B68D40"/>
<path d="M157.707 66.2607L159.697 68.5601L159.033 71.3094L157.043 69.01L157.707 66.2607Z" fill="#B68D40" stroke="#B68D40"/>
<path d="M215.351 66.1522L215.802 69.16L213.769 71.1268L213.319 68.119L215.351 66.1522Z" fill="#B68D40" stroke="#B68D40"/>
<path d="M242.707 77.3278L242.352 80.3484L239.875 81.7126L240.23 78.692L242.707 77.3278Z" fill="#B68D40" stroke="#B68D40"/>
<path d="M265.711 94.8725L264.777 97.7672L262.083 98.6258L263.016 95.7311L265.711 94.8725Z" fill="#B68D40" stroke="#B68D40"/>
<path d="M282.891 118.325L281.227 120.871L278.401 120.989L280.065 118.443L282.891 118.325Z" fill="#B68D40" stroke="#B68D40"/>
<path d="M294.342 145.748L291.962 147.642L289.243 146.865L291.623 144.971L294.342 145.748Z" fill="#B68D40" stroke="#B68D40"/>
<path d="M295.098 202.819L292.163 203.617L289.973 201.827L292.908 201.029L295.098 202.819Z" fill="#B68D40" stroke="#B68D40"/>
<path d="M283.092 230.048L280.051 230.048L278.407 227.746L281.448 227.746L283.092 230.048Z" fill="#B68D40" stroke="#B68D40"/>
<path d="M265.726 252.963L262.804 252.119L261.864 249.451L264.786 250.296L265.726 252.963Z" fill="#B68D40" stroke="#B68D40"/>
<path d="M243.111 271.782L240.514 270.199L240.307 267.378L242.905 268.961L243.111 271.782Z" fill="#B68D40" stroke="#B68D40"/>
<path d="M215.284 282.241L213.15 280.074L213.636 277.288L215.77 279.454L215.284 282.241Z" fill="#B68D40" stroke="#B68D40"/>
<path d="M157.703 282.077L157.081 279.1L158.999 277.02L159.62 279.998L157.703 282.077Z" fill="#B68D40" stroke="#B68D40"/>
<path d="M130.132 271.857L130.221 268.817L132.569 267.24L132.481 270.281L130.132 271.857Z" fill="#B68D40" stroke="#B68D40"/>
<path d="M106.877 253.553L107.838 250.668L110.541 249.835L109.58 252.721L106.877 253.553Z" fill="#B68D40" stroke="#B68D40"/>
<path d="M89.3436 229.8L91.1792 227.375L94.0065 227.453L92.171 229.878L89.3436 229.8Z" fill="#B68D40" stroke="#B68D40"/>
<path d="M78.145 203.267L80.4621 201.297L83.2054 201.985L80.8884 203.956L78.145 203.267Z" fill="#B68D40" stroke="#B68D40"/>
</svg>
