<svg width="173" height="66" viewBox="0 0 173 66" fill="none" xmlns="http://www.w3.org/2000/svg">
<path d="M46.6577 45.96C46.6043 45.9867 46.551 46 46.4977 46C46.4443 46 46.3377 46 46.1777 46C45.8043 46 45.3643 45.9333 44.8577 45.8C44.3777 45.6933 43.8977 45.5467 43.4177 45.36C42.9643 45.2 42.5643 45.0133 42.2177 44.8C41.8977 44.5867 41.6977 44.4 41.6177 44.24C41.591 43.8667 41.5777 43.48 41.5777 43.08C41.5777 42.68 41.5777 42.2933 41.5777 41.92C41.5777 38.9333 41.791 35.8133 42.2177 32.56C42.671 29.3067 43.4043 25.7867 44.4177 22C44.5243 21.6267 44.631 21.16 44.7377 20.6C44.871 20.0133 45.0043 19.3867 45.1377 18.72C44.4977 19.2267 43.7377 20.04 42.8577 21.16C41.9777 22.2533 41.0443 23.56 40.0577 25.08C39.0977 26.5733 38.1243 28.2267 37.1377 30.04C36.1777 31.8267 35.2977 33.6533 34.4977 35.52C33.6977 37.36 33.0043 39.1867 32.4177 41C31.8577 42.8133 31.511 44.4933 31.3777 46.04C30.0977 45.6667 29.2043 45.2933 28.6977 44.92C28.2177 44.5467 27.9777 44.0933 27.9777 43.56C27.9777 43.08 28.1243 42.4 28.4177 41.52C28.711 40.64 29.1243 39.6 29.6577 38.4C30.191 37.2 30.8443 35.8667 31.6177 34.4C32.391 32.9067 33.2443 31.3067 34.1777 29.6C35.2443 27.6533 36.2843 25.8267 37.2977 24.12C38.3377 22.4133 39.351 20.8667 40.3377 19.48C41.3243 18.0933 42.2843 16.8933 43.2177 15.88C44.1777 14.8667 45.1243 14.0933 46.0577 13.56C46.431 13.56 46.9243 13.6533 47.5377 13.84C48.1777 14.0267 48.791 14.2533 49.3777 14.52C49.991 14.7867 50.5243 15.0667 50.9777 15.36C51.4577 15.6267 51.7243 15.8533 51.7777 16.04C51.4043 16.7867 50.9643 17.9067 50.4577 19.4C49.951 20.8933 49.431 22.5867 48.8977 24.48C48.391 26.3733 47.8977 28.3867 47.4177 30.52C46.9643 32.6267 46.6043 34.6533 46.3377 36.6C46.951 35.1333 47.6577 33.6133 48.4577 32.04C49.2843 30.44 50.151 28.8667 51.0577 27.32C51.9643 25.7467 52.8843 24.2267 53.8177 22.76C54.7777 21.2933 55.711 19.96 56.6177 18.76C57.5243 17.5333 58.3643 16.4667 59.1377 15.56C59.9377 14.6533 60.6443 13.9867 61.2577 13.56C61.631 13.56 62.1243 13.6533 62.7377 13.84C63.3777 14.0267 63.991 14.2533 64.5777 14.52C65.191 14.7867 65.7243 15.0667 66.1777 15.36C66.6577 15.6267 66.9243 15.8533 66.9777 16.04C66.1243 17.56 65.3777 19.4133 64.7377 21.6C64.0977 23.7867 63.551 26.08 63.0977 28.48C62.671 30.88 62.3377 33.2667 62.0977 35.64C61.8843 37.9867 61.7777 40.0933 61.7777 41.96C61.7777 42.5733 61.7777 43.2133 61.7777 43.88C61.7777 44.5467 61.8043 45.24 61.8577 45.96C61.4843 45.96 61.031 45.9067 60.4977 45.8C59.991 45.72 59.4843 45.6 58.9777 45.44C58.4977 45.28 58.0577 45.0933 57.6577 44.88C57.2577 44.6933 56.9777 44.48 56.8177 44.24C56.791 43.8667 56.7777 43.48 56.7777 43.08C56.7777 42.68 56.7777 42.2933 56.7777 41.92C56.7777 38.9333 56.991 35.8133 57.4177 32.56C57.871 29.3067 58.6043 25.7867 59.6177 22C59.7243 21.6267 59.8443 21.12 59.9777 20.48C60.111 19.84 60.2443 19.1733 60.3777 18.48C59.631 18.8533 58.7777 19.5733 57.8177 20.64C56.8843 21.68 55.9243 22.96 54.9377 24.48C53.9777 25.9733 53.0177 27.64 52.0577 29.48C51.1243 31.32 50.271 33.2 49.4977 35.12C48.751 37.0133 48.111 38.9067 47.5777 40.8C47.071 42.6667 46.7643 44.3867 46.6577 45.96ZM77.5764 42.12C77.0697 41.6933 76.7231 41.16 76.5364 40.52C76.3764 39.88 76.2964 39.3333 76.2964 38.88C76.2964 38.32 76.3631 37.84 76.4964 37.44C76.3897 37.44 76.1497 37.6533 75.7764 38.08C75.4031 38.5067 74.9897 39.0133 74.5364 39.6C74.1097 40.1867 73.6831 40.76 73.2564 41.32C72.8297 41.88 72.5097 42.2933 72.2964 42.56C71.9497 42.9333 71.6164 43.2267 71.2964 43.44C71.0031 43.6533 70.7631 43.7733 70.5764 43.8C70.1497 43.7733 69.6964 43.68 69.2164 43.52C68.7631 43.3867 68.3231 43.1867 67.8964 42.92C67.4964 42.6533 67.1364 42.3333 66.8164 41.96C66.5231 41.5867 66.3231 41.16 66.2164 40.68C66.2164 39.9333 66.2297 39.32 66.2564 38.84C66.3097 38.36 66.4031 37.84 66.5364 37.28C66.7764 36.2667 67.1231 35.12 67.5764 33.84C68.0564 32.56 68.6031 31.3067 69.2164 30.08C69.8297 28.8267 70.5097 27.6667 71.2564 26.6C72.0297 25.5067 72.8431 24.6533 73.6964 24.04C73.9364 24.04 74.2164 24.0667 74.5364 24.12C74.8564 24.1467 75.1764 24.2133 75.4964 24.32C75.8431 24.4267 76.1631 24.56 76.4564 24.72C76.7764 24.8533 77.0431 25.04 77.2564 25.28C77.0164 25.5467 76.4031 26.44 75.4164 27.96C74.4564 29.48 73.3764 31.6667 72.1764 34.52C72.0431 34.8133 71.8831 35.24 71.6964 35.8C71.5097 36.36 71.3231 36.9467 71.1364 37.56C70.9497 38.1733 70.7897 38.7733 70.6564 39.36C70.5497 39.9467 70.4964 40.4133 70.4964 40.76C70.4964 40.9733 70.5231 41.1333 70.5764 41.24C70.6564 41.3467 70.7231 41.4267 70.7764 41.48C71.1764 41.32 71.6831 40.88 72.2964 40.16C72.9097 39.44 73.7631 38.3333 74.8564 36.84C75.1231 36.4667 75.4297 36.04 75.7764 35.56C76.1497 35.08 76.5231 34.5733 76.8964 34.04C77.2697 33.48 77.6164 32.9067 77.9364 32.32C78.2831 31.7333 78.5631 31.1467 78.7764 30.56C78.8831 30.24 79.0164 29.8667 79.1764 29.44C79.3631 28.9867 79.5764 28.52 79.8164 28.04C80.0831 27.56 80.3764 27.08 80.6964 26.6C81.0431 26.0933 81.4431 25.6267 81.8964 25.2C82.2431 25.2 82.6164 25.24 83.0164 25.32C83.4164 25.4 83.7897 25.5067 84.1364 25.64C84.5097 25.7467 84.8297 25.88 85.0964 26.04C85.3631 26.1733 85.5631 26.32 85.6964 26.48C85.2164 27.6533 84.6831 28.8133 84.0964 29.96C83.5097 31.1067 82.9631 32.24 82.4564 33.36C81.9497 34.4533 81.5231 35.5467 81.1764 36.64C80.8297 37.7333 80.6564 38.8 80.6564 39.84C80.6564 40.4 80.6964 40.8933 80.7764 41.32C80.8831 41.72 80.9897 42.0667 81.0964 42.36C81.2031 42.6267 81.2964 42.8533 81.3764 43.04C81.4831 43.2267 81.5364 43.3867 81.5364 43.52C81.5364 43.5467 81.5097 43.5867 81.4564 43.64C81.4297 43.6667 81.4031 43.68 81.3764 43.68C81.1897 43.68 80.9497 43.64 80.6564 43.56C80.3631 43.48 80.0297 43.36 79.6564 43.2C79.3097 43.0667 78.9497 42.9067 78.5764 42.72C78.2297 42.5333 77.8964 42.3333 77.5764 42.12ZM100.262 27.08C100.235 27.5867 100.142 28.12 99.982 28.68C99.8487 29.2133 99.6754 29.7067 99.462 30.16C99.2487 30.5867 99.022 30.9467 98.782 31.24C98.542 31.5333 98.3154 31.68 98.102 31.68C97.8087 31.6533 97.6354 31.4533 97.582 31.08C97.582 31 97.6087 30.88 97.662 30.72C97.742 30.5333 97.822 30.3333 97.902 30.12C97.982 29.9067 98.0487 29.6933 98.102 29.48C98.182 29.2667 98.222 29.08 98.222 28.92C98.222 28.5467 98.1287 28.24 97.942 28C97.782 27.7333 97.5554 27.6 97.262 27.6C96.1954 27.6 95.382 28.2667 94.822 29.6C94.262 30.9333 93.982 32.8933 93.982 35.48C93.982 35.7467 93.9954 35.9067 94.022 35.96C94.582 35.9333 95.0754 35.92 95.502 35.92C95.9554 35.8933 96.3954 35.88 96.822 35.88C96.8487 35.9333 96.862 36.04 96.862 36.2C96.862 36.44 96.8087 36.6133 96.702 36.72C96.0887 36.8533 95.5954 36.9733 95.222 37.08C94.8754 37.16 94.6087 37.24 94.422 37.32C94.2354 37.4 94.1154 37.4933 94.062 37.6C94.0354 37.68 94.022 37.8 94.022 37.96C94.022 38.1733 94.022 38.3867 94.022 38.6C94.0487 38.8133 94.062 39.08 94.062 39.4C94.062 41.64 93.4487 43.44 92.222 44.8C91.022 46.16 89.342 46.9467 87.182 47.16C86.8087 47.1333 86.422 47.0267 86.022 46.84C85.622 46.6533 85.2354 46.4133 84.862 46.12C84.5154 45.8267 84.2087 45.4933 83.942 45.12C83.6754 44.7733 83.4887 44.4133 83.382 44.04C83.382 43.0267 83.5954 42.0667 84.022 41.16C84.4487 40.2267 85.022 39.4133 85.742 38.72C86.4887 38 87.3554 37.4267 88.342 37C89.3554 36.5467 90.4487 36.28 91.622 36.2C91.622 35.5333 91.5554 34.88 91.422 34.24C91.2887 33.6 91.142 32.9867 90.982 32.4C90.8487 31.7867 90.7154 31.2 90.582 30.64C90.4487 30.0533 90.382 29.48 90.382 28.92C90.382 28.2 90.5287 27.4933 90.822 26.8C91.1154 26.08 91.502 25.4267 91.982 24.84C92.462 24.2267 93.022 23.7067 93.662 23.28C94.302 22.8533 94.9687 22.56 95.662 22.4C95.9554 22.48 96.342 22.72 96.822 23.12C97.3287 23.4933 97.822 23.92 98.302 24.4C98.782 24.88 99.2087 25.3733 99.582 25.88C99.9554 26.36 100.182 26.76 100.262 27.08ZM87.062 45.32C87.702 45.0533 88.302 44.6667 88.862 44.16C89.4487 43.6533 89.9554 43.08 90.382 42.44C90.8087 41.8 91.142 41.12 91.382 40.4C91.6487 39.68 91.782 38.9733 91.782 38.28C91.2487 38.36 90.662 38.6133 90.022 39.04C89.382 39.44 88.782 39.9333 88.222 40.52C87.662 41.08 87.1954 41.6667 86.822 42.28C86.4487 42.8933 86.262 43.4267 86.262 43.88C86.262 44.4667 86.5287 44.9467 87.062 45.32ZM100.25 40.44C100.25 39.2667 100.53 37.6267 101.09 35.52C101.65 33.3867 102.437 30.9067 103.45 28.08C105.103 23.5733 106.65 19.8267 108.09 16.84C109.557 13.8267 110.983 11.48 112.37 9.8C112.69 9.85333 113.077 9.98666 113.53 10.2C114.01 10.4133 114.477 10.6533 114.93 10.92C115.383 11.16 115.783 11.4133 116.13 11.68C116.503 11.9467 116.743 12.16 116.85 12.32C114.77 14.7733 112.943 17.4133 111.37 20.24C109.797 23.0667 108.357 26.3067 107.05 29.96C105.93 33.1067 105.077 35.9467 104.49 38.48C103.903 40.9867 103.61 43.08 103.61 44.76C103.61 45.2133 103.61 45.4933 103.61 45.6C103.61 45.7067 103.623 45.8133 103.65 45.92C103.277 45.8667 102.957 45.7733 102.69 45.64C102.423 45.5067 102.25 45.3467 102.17 45.16C102.117 45.0267 101.97 44.8267 101.73 44.56C101.49 44.32 101.277 44.1333 101.09 44C100.85 43.84 100.65 43.4267 100.49 42.76C100.33 42.0667 100.25 41.2933 100.25 40.44ZM109.783 40.32C109.783 40.08 109.797 39.7867 109.823 39.44C109.877 39.0667 109.957 38.5867 110.063 38C110.17 37.3867 110.303 36.6533 110.463 35.8C110.65 34.9467 110.877 33.92 111.143 32.72C111.197 32.4533 111.317 32.0267 111.503 31.44C111.69 30.8533 111.93 30.24 112.223 29.6C112.543 28.9333 112.917 28.2933 113.343 27.68C113.797 27.0667 114.33 26.6133 114.943 26.32C115.397 26.4267 115.997 26.7067 116.743 27.16C117.49 27.5867 118.13 28.1867 118.663 28.96C118.05 29.6533 117.53 30.3467 117.103 31.04C116.703 31.7333 116.33 32.4533 115.983 33.2C115.663 33.9467 115.357 34.72 115.063 35.52C114.797 36.32 114.49 37.16 114.143 38.04C113.85 38.7867 113.583 39.56 113.343 40.36C113.103 41.1333 112.97 41.8133 112.943 42.4C112.943 42.88 112.93 43.2133 112.903 43.4C112.903 43.6133 112.837 43.72 112.703 43.72C112.597 43.72 112.383 43.6533 112.063 43.52C111.743 43.3867 111.41 43.1867 111.063 42.92C110.743 42.6267 110.45 42.2667 110.183 41.84C109.917 41.4133 109.783 40.9067 109.783 40.32ZM117.423 22.96C117.423 22.8 117.463 22.56 117.543 22.24C117.41 22.1067 117.29 21.9067 117.183 21.64C117.103 21.3733 117.063 21.1333 117.063 20.92C117.063 20.68 117.09 20.36 117.143 19.96C117.223 19.5333 117.317 19.08 117.423 18.6C117.53 18.12 117.663 17.6267 117.823 17.12C117.983 16.5867 118.143 16.1067 118.303 15.68C118.623 15.68 119.01 15.7733 119.463 15.96C119.943 16.12 120.423 16.3467 120.903 16.64C121.383 16.9067 121.823 17.2133 122.223 17.56C122.623 17.88 122.93 18.1867 123.143 18.48C122.85 18.7733 122.463 19.1867 121.983 19.72C121.503 20.2267 121.037 20.7733 120.583 21.36C120.13 21.92 119.717 22.4533 119.343 22.96C118.97 23.4667 118.73 23.8267 118.623 24.04C118.303 23.9867 118.023 23.8533 117.783 23.64C117.543 23.4 117.423 23.1733 117.423 22.96ZM142.316 30.72C141.89 30.7467 141.37 31.0267 140.756 31.56C140.143 32.0667 139.476 32.7333 138.756 33.56C138.063 34.36 137.33 35.2533 136.556 36.24C135.81 37.2267 135.076 38.2133 134.356 39.2C133.663 40.16 133.01 41.0667 132.396 41.92C131.783 42.7733 131.263 43.4533 130.836 43.96C130.25 43.72 129.743 43.3733 129.316 42.92C128.89 42.44 128.583 41.8533 128.396 41.16C128.53 40.3333 128.716 39.48 128.956 38.6C129.196 37.6933 129.503 36.76 129.876 35.8C130.276 34.84 130.756 33.84 131.316 32.8C131.903 31.7333 132.61 30.6133 133.436 29.44C133.036 29.4667 132.49 29.76 131.796 30.32C131.103 30.8533 130.356 31.56 129.556 32.44C128.756 33.2933 127.93 34.2667 127.076 35.36C126.223 36.4267 125.423 37.48 124.676 38.52C123.69 39.9067 122.863 41.12 122.196 42.16C121.556 43.2 121.09 43.8133 120.796 44C120.103 43.4933 119.623 42.9467 119.356 42.36C119.09 41.7733 118.89 41.12 118.756 40.4C118.783 39.76 118.876 38.96 119.036 38C119.223 37.04 119.476 36.0533 119.796 35.04C120.41 33.0933 121.196 31.16 122.156 29.24C123.143 27.32 124.09 25.56 124.996 23.96C125.743 24.12 126.41 24.3733 126.996 24.72C127.61 25.0667 128.25 25.5733 128.916 26.24C128.65 27.0667 128.236 27.9467 127.676 28.88C127.116 29.7867 126.53 30.7467 125.916 31.76C125.303 32.7733 124.743 33.8133 124.236 34.88C123.73 35.9467 123.396 37.0267 123.236 38.12C123.983 37.0533 124.863 35.8267 125.876 34.44C126.916 33.0533 127.97 31.7467 129.036 30.52C130.13 29.2933 131.21 28.2533 132.276 27.4C133.343 26.5467 134.303 26.12 135.156 26.12C135.476 26.12 135.823 26.1733 136.196 26.28C136.57 26.3867 136.916 26.52 137.236 26.68C137.556 26.84 137.823 27 138.036 27.16C138.25 27.2933 138.37 27.4 138.396 27.48C138.263 28.0133 137.943 28.7467 137.436 29.68C136.956 30.5867 136.436 31.5467 135.876 32.56C135.316 33.5733 134.796 34.56 134.316 35.52C133.836 36.4533 133.556 37.2 133.476 37.76C134.783 35.9733 136.01 34.36 137.156 32.92C138.303 31.4533 139.383 30.2 140.396 29.16C141.41 28.12 142.343 27.32 143.196 26.76C144.076 26.2 144.903 25.92 145.676 25.92C146.21 25.92 146.703 26.0667 147.156 26.36C147.636 26.6267 147.97 27.0267 148.156 27.56C147.916 28.36 147.516 29.32 146.956 30.44C146.423 31.56 145.876 32.7467 145.316 34C144.756 35.2267 144.25 36.44 143.796 37.64C143.37 38.84 143.156 39.92 143.156 40.88C143.156 41.44 143.236 41.8133 143.396 42C143.556 42.16 143.783 42.24 144.076 42.24C144.396 42.24 144.69 42.1867 144.956 42.08C145.25 41.9467 145.463 41.88 145.596 41.88C145.756 41.9867 145.85 42.12 145.876 42.28C145.903 42.44 145.916 42.5867 145.916 42.72C145.383 43.1467 144.836 43.4933 144.276 43.76C143.716 44.0533 143.09 44.2 142.396 44.2C141.756 44.2 141.223 44.0933 140.796 43.88C140.396 43.6667 140.063 43.3733 139.796 43C139.53 42.6267 139.343 42.2 139.236 41.72C139.13 41.24 139.076 40.72 139.076 40.16C139.076 39.2533 139.196 38.36 139.436 37.48C139.676 36.5733 139.956 35.72 140.276 34.92C140.623 34.0933 140.983 33.3333 141.356 32.64C141.73 31.92 142.05 31.28 142.316 30.72Z" fill="#B68D40"/>
<path d="M139.6 54.5C139.545 54.5 139.5 54.4552 139.5 54.4V51.5414C139.5 51.5149 139.511 51.4895 139.529 51.4707L141.329 49.6707C141.392 49.6077 141.5 49.6523 141.5 49.7414V52.4667C141.5 52.4883 141.493 52.5094 141.48 52.5267L140.03 54.46C140.011 54.4852 139.981 54.5 139.95 54.5H139.6Z" fill="#B68D40" stroke="#B68D40"/>
<path d="M32.7302 54.3724C32.7852 54.3679 32.8269 54.3196 32.8232 54.2645L32.6162 51.1855C32.6145 51.1607 32.6037 51.1375 32.5857 51.1205L30.708 49.3377C30.6422 49.2752 30.533 49.3278 30.5391 49.419L30.736 52.3474C30.7373 52.3675 30.7447 52.3866 30.7571 52.4022L32.3104 54.3628C32.3308 54.3886 32.3627 54.4024 32.3956 54.3997L32.7302 54.3724Z" fill="#B68D40" stroke="#B68D40"/>
<path d="M148.185 61.3864C148.13 61.3785 148.092 61.3279 148.1 61.2732L148.504 58.4433C148.508 58.4171 148.522 58.3934 148.543 58.3775L150.579 56.85C150.65 56.7966 150.751 56.8559 150.738 56.9441L150.353 59.642C150.35 59.6634 150.34 59.6833 150.325 59.6986L148.616 61.4075C148.594 61.4298 148.562 61.4403 148.531 61.4358L148.185 61.3864Z" fill="#B68D40" stroke="#B68D40"/>
<path d="M24.4868 61.2985C24.5405 61.2856 24.5753 61.2311 24.5645 61.177L23.9645 58.1619C23.9597 58.1373 23.9458 58.1159 23.9258 58.1018L21.8371 56.6285C21.7641 56.577 21.6636 56.646 21.6814 56.7355L22.2522 59.6041C22.2562 59.6239 22.266 59.6419 22.2804 59.6555L24.0697 61.3546C24.0931 61.3769 24.1262 61.3855 24.1583 61.3778L24.4868 61.2985Z" fill="#B68D40" stroke="#B68D40"/>
<path d="M143.1 52.5C143.045 52.5 143 52.4552 143 52.4V49.5414C143 49.5149 143.011 49.4895 143.029 49.4707L144.829 47.6707C144.892 47.6077 145 47.6523 145 47.7414V50.4667C145 50.4883 144.993 50.5094 144.98 50.5267L143.53 52.46C143.511 52.4852 143.481 52.5 143.45 52.5H143.1Z" fill="#B68D40" stroke="#B68D40"/>
<path d="M29.1777 52.5055C29.2327 52.501 29.2743 52.4527 29.2706 52.3976L29.0636 49.3186C29.062 49.2938 29.0511 49.2706 29.0332 49.2536L27.1555 47.4708C27.0896 47.4083 26.9804 47.4609 26.9866 47.5521L27.1834 50.4805C27.1848 50.5006 27.1921 50.5197 27.2045 50.5353L28.7578 52.4959C28.7782 52.5217 28.8101 52.5355 28.8431 52.5328L29.1777 52.5055Z" fill="#B68D40" stroke="#B68D40"/>
<path d="M151.932 59.9012C151.877 59.8934 151.84 59.8427 151.847 59.7881L152.251 56.9582C152.255 56.9319 152.269 56.9082 152.29 56.8923L154.327 55.3648C154.398 55.3114 154.498 55.3708 154.486 55.459L154.101 58.1569C154.097 58.1783 154.088 58.1981 154.072 58.2134L152.364 59.9224C152.341 59.9446 152.31 59.9551 152.279 59.9507L151.932 59.9012Z" fill="#B68D40" stroke="#B68D40"/>
<path d="M20.7304 60.0033C20.784 59.9904 20.8188 59.936 20.8081 59.8818L20.2081 56.8667C20.2032 56.8422 20.1894 56.8207 20.1693 56.8066L18.0806 55.3333C18.0076 55.2818 17.9071 55.3508 17.9249 55.4403L18.4958 58.3089C18.4997 58.3288 18.5095 58.3467 18.5239 58.3604L20.3132 60.0594C20.3366 60.0817 20.3698 60.0904 20.4018 60.0826L20.7304 60.0033Z" fill="#B68D40" stroke="#B68D40"/>
<path d="M150.1 47.5C150.045 47.5 150 47.4552 150 47.4V45.1481C150 45.1177 150.014 45.089 150.038 45.07L151.838 43.63C151.903 43.5776 152 43.6242 152 43.7081V45.8605C152 45.8859 151.99 45.9103 151.973 45.9288L150.53 47.4684C150.511 47.4886 150.484 47.5 150.457 47.5H150.1Z" fill="#B68D40" stroke="#B68D40"/>
<path d="M22.0004 47.699C22.0555 47.6945 22.0971 47.6462 22.0934 47.5911L21.9301 45.1621C21.9282 45.1335 21.914 45.1072 21.8913 45.09L20.0394 43.6922C19.9712 43.6408 19.8732 43.6948 19.8789 43.7806L20.0346 46.097C20.0362 46.1207 20.0462 46.143 20.0628 46.1598L21.581 47.6979C21.6014 47.7186 21.63 47.7292 21.6592 47.7268L22.0004 47.699Z" fill="#B68D40" stroke="#B68D40"/>
<path d="M159.569 55.9409C159.514 55.9331 159.476 55.8825 159.484 55.8278L159.802 53.5985C159.806 53.5684 159.824 53.5419 159.85 53.5265L161.836 52.3554C161.908 52.3128 161.997 52.3727 161.986 52.4557L161.681 54.5865C161.678 54.6116 161.665 54.6344 161.645 54.6503L159.998 55.9704C159.977 55.9877 159.949 55.9953 159.922 55.9914L159.569 55.9409Z" fill="#B68D40" stroke="#B68D40"/>
<path d="M13.0082 56.3625C13.0619 56.3495 13.0967 56.2951 13.0859 56.241L12.6126 53.8625C12.607 53.8342 12.5895 53.8102 12.5647 53.7967L10.551 52.7008C10.4771 52.6605 10.3878 52.7293 10.4046 52.8135L10.8561 55.0824C10.8607 55.1058 10.8736 55.1265 10.8923 55.1406L12.5926 56.427C12.6154 56.4442 12.6448 56.4502 12.6732 56.4434L13.0082 56.3625Z" fill="#B68D40" stroke="#B68D40"/>
<path d="M153.241 49C153.152 49 153.108 48.8923 153.171 48.8293L154.471 47.5293C154.489 47.5105 154.515 47.5 154.541 47.5H156.313C156.393 47.5 156.441 47.589 156.396 47.6555L155.53 48.9555C155.511 48.9833 155.48 49 155.446 49H154.5H153.241Z" fill="#B68D40" stroke="#B68D40"/>
<path d="M19.0615 49.556C19.148 49.549 19.1865 49.4425 19.124 49.3831L17.7498 48.0784C17.7295 48.0591 17.7019 48.0494 17.6738 48.0517L15.9472 48.1925C15.8696 48.1988 15.8275 48.2877 15.8722 48.3509L16.8199 49.6905C16.84 49.7188 16.8735 49.7344 16.9084 49.7316L17.8261 49.6568L19.0615 49.556Z" fill="#B68D40" stroke="#B68D40"/>
<path d="M162.467 57.87C162.378 57.8574 162.349 57.7444 162.421 57.691L163.891 56.5878C163.913 56.5719 163.939 56.565 163.965 56.5688L165.719 56.8192C165.798 56.8305 165.833 56.9254 165.78 56.9849L164.738 58.1493C164.716 58.1743 164.683 58.1864 164.649 58.1817L163.712 58.0479L162.467 57.87Z" fill="#B68D40" stroke="#B68D40"/>
<path d="M10.3365 58.6586C10.4211 58.6382 10.4452 58.5261 10.3755 58.477L8.84836 57.3998C8.82591 57.384 8.79761 57.3787 8.77035 57.3853L7.07871 57.7935C7.00281 57.8119 6.97287 57.907 7.02544 57.9628L8.13506 59.1407C8.15852 59.1656 8.19349 59.1758 8.22736 59.1677L9.12667 58.9506L10.3365 58.6586Z" fill="#B68D40" stroke="#B68D40"/>
<path d="M145.785 55.5C145.691 55.5 145.649 55.381 145.723 55.3219L147.961 53.5309C147.986 53.5114 148.018 53.5044 148.048 53.512L149.796 53.949C149.878 53.9695 149.899 54.0755 149.832 54.1261L148.027 55.48C148.009 55.493 147.988 55.5 147.967 55.5H147H145.785Z" fill="#B68D40" stroke="#B68D40"/>
<path d="M26.795 55.9347C26.8868 55.9272 26.9221 55.8098 26.8491 55.7547L24.5231 53.9991C24.4964 53.9789 24.4612 53.9738 24.4294 53.9853L22.7503 54.5958C22.6739 54.6236 22.6592 54.7256 22.7249 54.772L24.5954 56.0911C24.6142 56.1044 24.6372 56.1106 24.6603 56.1088L25.5983 56.0323L26.795 55.9347Z" fill="#B68D40" stroke="#B68D40"/>
<path d="M154.166 63.2507C154.073 63.2373 154.048 63.1136 154.13 63.0656L156.599 61.609C156.626 61.5932 156.659 61.5908 156.687 61.6026L158.356 62.2823C158.434 62.3141 158.44 62.4221 158.367 62.4626L156.388 63.5478C156.369 63.5582 156.347 63.5621 156.326 63.5591L155.369 63.4224L154.166 63.2507Z" fill="#B68D40" stroke="#B68D40"/>
<path d="M18.8109 63.7693C18.9007 63.7476 18.9202 63.6252 18.8406 63.5819L16.3135 62.2065C16.2847 62.1908 16.2495 62.1911 16.2198 62.2074L14.636 63.0731C14.564 63.1125 14.5628 63.2165 14.634 63.2523L16.6541 64.2666C16.6744 64.2767 16.6977 64.2793 16.7201 64.2739L17.6393 64.0521L18.8109 63.7693Z" fill="#B68D40" stroke="#B68D40"/>
<path d="M141.635 57.3713C141.531 57.3615 141.51 57.2179 141.607 57.1789L143.693 56.3445C143.713 56.3367 143.734 56.3353 143.755 56.3404L145.418 56.7561C145.512 56.7797 145.52 56.9111 145.429 56.9463L144.017 57.4932C144.006 57.4977 143.994 57.5 143.981 57.5H143L141.635 57.3713Z" fill="#B68D40" stroke="#B68D40"/>
<path d="M30.9842 57.6082C31.0852 57.5893 31.0976 57.4488 31.0013 57.4152L28.8826 56.6765C28.861 56.669 28.8374 56.6692 28.8157 56.6771L27.2081 57.2616C27.1187 57.294 27.1187 57.4206 27.2081 57.4506L28.6447 57.9324C28.6574 57.9367 28.6709 57.9383 28.6843 57.9372L29.6378 57.8595L30.9842 57.6082Z" fill="#B68D40" stroke="#B68D40"/>
<path d="M149.793 64.5165C149.691 64.492 149.691 64.3469 149.793 64.3221L151.976 63.791C151.996 63.786 152.018 63.7876 152.037 63.7955L153.625 64.4421C153.715 64.479 153.705 64.6101 153.61 64.6322L152.135 64.974C152.122 64.9768 152.11 64.9773 152.098 64.9756L151.126 64.8368L149.793 64.5165Z" fill="#B68D40" stroke="#B68D40"/>
<path d="M23.1721 64.7742C23.2695 64.7399 23.2634 64.598 23.1638 64.5798L20.9729 64.1786C20.9507 64.1745 20.9277 64.1783 20.9074 64.1894L19.3916 65.0179C19.3075 65.0639 19.3239 65.1901 19.4162 65.2058L20.8991 65.459C20.9121 65.4612 20.9255 65.4608 20.9385 65.4576L21.8727 65.2322L23.1721 64.7742Z" fill="#B68D40" stroke="#B68D40"/>
<path d="M149.76 52.5C149.668 52.5 149.625 52.3872 149.693 52.3258L151.686 50.5258C151.704 50.5092 151.728 50.5 151.753 50.5H153.759C153.848 50.5 153.892 50.6077 153.829 50.6707L152.029 52.4707C152.011 52.4895 151.985 52.5 151.959 52.5H151H149.76Z" fill="#B68D40" stroke="#B68D40"/>
<path d="M22.7058 53.0332C22.7947 53.0259 22.8319 52.9145 22.7646 52.8569L20.6781 51.071C20.6582 51.054 20.6322 51.0456 20.6059 51.0478L18.6464 51.2075C18.5599 51.2146 18.5214 51.3211 18.5839 51.3804L20.4811 53.1817C20.5014 53.201 20.529 53.2107 20.557 53.2084L21.4868 53.1326L22.7058 53.0332Z" fill="#B68D40" stroke="#B68D40"/>
<path d="M158.525 60.8426C158.435 60.8297 158.408 60.7119 158.483 60.6607L160.711 59.1605C160.731 59.1467 160.756 59.1409 160.781 59.1444L162.766 59.428C162.855 59.4406 162.884 59.5535 162.812 59.607L160.776 61.1345C160.755 61.1504 160.728 61.1572 160.702 61.1535L159.753 61.0179L158.525 60.8426Z" fill="#B68D40" stroke="#B68D40"/>
<path d="M14.3905 61.5334C14.4774 61.5124 14.4995 61.3957 14.4253 61.349L12.1314 59.9064C12.1096 59.8927 12.0831 59.8885 12.0576 59.8947L10.1381 60.3579C10.0535 60.3783 10.0295 60.4904 10.0991 60.5395L12.2077 62.0268C12.2302 62.0427 12.2585 62.048 12.2857 62.0414L13.1968 61.8215L14.3905 61.5334Z" fill="#B68D40" stroke="#B68D40"/>
<path d="M146.6 50.5C146.545 50.5 146.5 50.4552 146.5 50.4V47.5414C146.5 47.5149 146.511 47.4895 146.529 47.4707L148.329 45.6707C148.392 45.6077 148.5 45.6523 148.5 45.7414V48.4667C148.5 48.4883 148.493 48.5094 148.48 48.5267L147.03 50.46C147.011 50.4852 146.981 50.5 146.95 50.5H146.6Z" fill="#B68D40" stroke="#B68D40"/>
<path d="M25.6251 50.6384C25.6801 50.634 25.7218 50.5856 25.718 50.5305L25.5111 47.4516C25.5094 47.4268 25.4985 47.4036 25.4806 47.3866L23.6029 45.6038C23.5371 45.5413 23.4279 45.5938 23.434 45.685L23.6309 48.6135C23.6322 48.6335 23.6396 48.6526 23.652 48.6683L25.2052 50.6289C25.2256 50.6546 25.2576 50.6684 25.2905 50.6657L25.6251 50.6384Z" fill="#B68D40" stroke="#B68D40"/>
<path d="M155.68 58.4161C155.625 58.4083 155.587 58.3576 155.595 58.3029L155.999 55.4731C156.003 55.4468 156.017 55.4231 156.038 55.4072L158.074 53.8797C158.146 53.8263 158.246 53.8857 158.233 53.9739L157.848 56.6717C157.845 56.6932 157.835 56.713 157.82 56.7283L156.111 58.4373C156.089 58.4595 156.057 58.47 156.026 58.4656L155.68 58.4161Z" fill="#B68D40" stroke="#B68D40"/>
<path d="M16.9738 58.7081C17.0275 58.6952 17.0623 58.6407 17.0515 58.5866L16.4515 55.5715C16.4467 55.5469 16.4328 55.5255 16.4128 55.5114L14.3241 54.0381C14.2511 53.9866 14.1506 54.0556 14.1684 54.1451L14.7392 57.0137C14.7432 57.0336 14.753 57.0515 14.7674 57.0651L16.5567 58.7642C16.5801 58.7865 16.6132 58.7951 16.6453 58.7874L16.9738 58.7081Z" fill="#B68D40" stroke="#B68D40"/>
<path d="M153 44V42.544C153 42.516 153.012 42.4892 153.032 42.4703L158.207 37.7271C158.296 37.6449 158.427 37.7636 158.354 37.8608L153.18 44.76C153.122 44.8369 153 44.7961 153 44.7V44Z" fill="#B68D40"/>
<path d="M18.9263 44.1756L18.821 42.6081C18.8192 42.5818 18.8071 42.5573 18.7873 42.5402L13.3963 37.8554C13.3051 37.7762 13.1766 37.8996 13.2517 37.9943L18.7984 44.9956C18.8591 45.0723 18.9833 45.0228 18.9767 44.9246L18.9263 44.1756Z" fill="#B68D40"/>
<path d="M162.934 52.886L163.14 51.4446C163.144 51.4169 163.16 51.3921 163.183 51.3762L168.976 47.4121C169.076 47.3435 169.189 47.4794 169.103 47.5653L163.005 53.6638C162.937 53.7318 162.822 53.6741 162.835 53.579L162.934 52.886Z" fill="#B68D40"/>
<path d="M9.51233 52.3531L9.20686 50.8181C9.20168 50.7921 9.18649 50.7696 9.16461 50.7556L3.22493 46.9562C3.12454 46.892 3.01436 47.0348 3.1009 47.117L9.49222 53.186C9.56208 53.2523 9.67766 53.184 9.65849 53.0876L9.51233 52.3531Z" fill="#B68D40"/>
<path d="M157 46H155.728C155.641 46 155.596 45.8962 155.655 45.8322L160.963 40.0813C161.043 39.9949 161.181 40.0931 161.125 40.1965L158.028 45.9474C158.011 45.9798 157.977 46 157.94 46H157Z" fill="#B68D40"/>
<path d="M15.1753 46.638L16.4222 46.5364C16.5069 46.5295 16.5464 46.4267 16.4876 46.3662L10.8914 40.6078C10.8097 40.5238 10.6739 40.6278 10.7328 40.7294L14.1703 46.6638C14.1894 46.6966 14.2256 46.7155 14.2636 46.7124L15.1753 46.638Z" fill="#B68D40"/>
<path d="M166.611 55.4314L165.353 55.2516C165.266 55.2393 165.236 55.1301 165.304 55.0751L171.372 50.1324C171.463 50.0582 171.585 50.1747 171.515 50.2693L167.637 55.5247C167.615 55.5543 167.579 55.5695 167.542 55.5643L166.611 55.4314Z" fill="#B68D40"/>
<path d="M6.11495 56.3749L7.3362 56.0802C7.41895 56.0602 7.44443 55.9517 7.37831 55.9009L1.09823 51.0708C1.00658 51.0003 0.886663 51.1249 0.958065 51.2164L5.12348 56.5569C5.14652 56.5864 5.18453 56.5995 5.22154 56.5905L6.11495 56.3749Z" fill="#B68D40"/>
<path d="M89 56.0225C99.5 55.5225 102.5 63.5225 111.5 63.0225" stroke="#B68D40"/>
<path d="M81.2911 56.1385C71.034 56.4951 68.7967 62.7658 60.0002 63.0033" stroke="#B68D40"/>
<path d="M163.774 55.9179C164.005 55.7663 164.07 55.4563 163.918 55.2255C163.766 54.9947 163.456 54.9305 163.226 55.0821L163.774 55.9179ZM127.822 59.4671C135.731 62.486 141.633 63.6524 147.124 63.0176C152.615 62.3827 157.63 59.9535 163.774 55.9179L163.226 55.0821C157.125 59.0887 152.267 61.4162 147.009 62.0242C141.75 62.6322 136.024 61.5275 128.178 58.5329L127.822 59.4671Z" fill="#B68D40"/>
<path d="M8.88525 56.6296C8.65131 56.4864 8.58016 56.1787 8.72633 55.9422C8.87251 55.7057 9.18065 55.6301 9.41459 55.7732L8.88525 56.6296ZM44.6986 58.9564C37.4076 62.2248 31.6079 63.5966 26.0306 63.1569C20.456 62.7174 15.1654 60.4729 8.88525 56.6296L9.41459 55.7732C15.6391 59.5825 20.7735 61.7372 26.1228 62.1589C31.4693 62.5804 37.0924 61.2752 44.3014 58.0435L44.6986 58.9564Z" fill="#B68D40"/>
<path d="M128 59C141.818 56.6472 146.596 53.162 154.5 45.5" stroke="#B68D40"/>
<path d="M44.5 58.5C30.8742 57.0738 25.8234 53.4927 17.5737 45.9033" stroke="#B68D40"/>
<path d="M89 54.5C103.722 49.0575 111.81 49.8256 128 59" stroke="#B68D40"/>
<path d="M81.3598 54.4554C66.6309 49.7876 58.3598 49.9555 43.3598 58.4554" stroke="#B68D40"/>
<path d="M89 54.5C103.5 51 112.5 62.5 128 59" stroke="#B68D40"/>
<path d="M81.3598 54.4554C66.9871 51.8532 58.7063 60.9784 43.3598 58.4555" stroke="#B68D40"/>
<path d="M156.268 42.8658C156.182 42.9088 156.091 42.8176 156.134 42.7317L156.981 41.037C156.993 41.0133 157.014 40.9953 157.039 40.9869L158.31 40.5632C158.388 40.5372 158.463 40.6116 158.437 40.6897L158.013 41.9607C158.005 41.9859 157.987 42.0067 157.963 42.0185L156.268 42.8658Z" fill="#B68D40"/>
<path d="M15.6601 43.2179C15.7472 43.2573 15.8358 43.162 15.7902 43.0779L14.8346 41.3124C14.8219 41.289 14.8003 41.2717 14.7746 41.2646L13.5103 40.9122C13.4312 40.8902 13.3597 40.9686 13.3888 41.0454L13.8987 42.3897C13.9079 42.414 13.9263 42.4336 13.9499 42.4443L15.6601 43.2179Z" fill="#B68D40"/>
<path d="M165.285 53.88C165.193 53.9104 165.116 53.8072 165.171 53.7282L166.249 52.1704C166.264 52.1486 166.287 52.1337 166.313 52.1289L167.632 51.8892C167.713 51.8744 167.776 51.9586 167.739 52.0323L167.14 53.2306C167.128 53.2543 167.107 53.2724 167.082 53.2808L165.285 53.88Z" fill="#B68D40"/>
<path d="M7.29431 54.6054C7.38539 54.6308 7.46001 54.5223 7.404 54.4459L6.23166 52.8473C6.21608 52.8261 6.19254 52.8124 6.16631 52.8093L4.86852 52.6572C4.78766 52.6478 4.72754 52.7368 4.76636 52.8085L5.44329 54.0593C5.4556 54.082 5.47636 54.0987 5.50113 54.1056L7.29431 54.6054Z" fill="#B68D40"/>
<path d="M159 40L159.5 37.5L161.5 35L161 38L159 40Z" fill="#B68D40"/>
<path d="M12.795 40.3622L12.1279 37.7208L10 35.1985L10.7032 38.3761L12.795 40.3622Z" fill="#B68D40"/>
<path d="M169 50.4498L169.848 48.0456L172.182 45.8534L171.263 48.7526L169 50.4498Z" fill="#B68D40"/>
<path d="M3.42977 51.2221L2.43027 48.7111L-3.96972e-06 46.5454L1.10402 49.5816L3.42977 51.2221Z" fill="#B68D40"/>
</svg>
