<svg width="32" height="236" viewBox="0 0 32 236" fill="none" xmlns="http://www.w3.org/2000/svg">
<path d="M15 0L4 107C9.01357 103.541 12.7904 101.838 16.5 102.016L15 0Z" fill="#680102"/>
<path d="M27 107L15 0L16.5 102.016C19.7826 102.174 23.0125 103.806 27 107Z" fill="#8E0C16"/>
<path d="M4.00001 129L16 236V133.954C12.1797 134.285 8.59227 132.678 4.00001 129Z" fill="#2E3190"/>
<path d="M16 236L27 129C22.6593 131.994 19.2456 133.673 16 133.954V236Z" fill="#036CAE"/>
<path d="M32 118C32 126.837 24.8366 134 16 134C7.16344 134 0 126.837 0 118C0 109.163 7.16344 102 16 102C24.8366 102 32 109.163 32 118Z" fill="#B68D40"/>
<path d="M28 118C28 124.627 22.6274 130 16 130C9.37258 130 4 124.627 4 118C4 111.373 9.37258 106 16 106C22.6274 106 28 111.373 28 118Z" fill="white"/>
<path d="M2.63525 27.9795V23.5755L15.6353 19.9795V25.3936L2.63525 27.9795Z" fill="black"/>
<path d="M2.63525 30.2721L15.6353 27.9795V28.9795L14.4165 29.767L14.6353 31.4795H15.6353V44.9795L2.63525 43.6004V33.8859H3.12275V31.5544L2.63525 31.5933V30.2721Z" fill="black"/>
<path d="M15.6353 27.9795L26.6353 30.2122V31.6223H26.2893V33.9334H26.6353V43.7652L15.6353 44.9795V31.4795H16.6353V29.4795L15.6353 28.9795V27.9795Z" fill="#292F32"/>
<path d="M2.63525 27.9795V30.4795L15.6353 27.9795V24.9795L2.63525 27.9795Z" fill="#FFAB33"/>
<path d="M15.6353 19.9795L26.6353 23.6084V27.9795L15.6353 25.464V19.9795Z" fill="#282E33"/>
<path d="M6.93525 38.2522L9.63525 37.9795V43.9795L6.63525 43.7068L6.93525 38.2522Z" fill="#FFAB33"/>
<path d="M15.6353 24.9795V27.9795L26.6353 30.4795V27.9795L15.6353 24.9795Z" fill="#FED882"/>
<path d="M2.63525 31.4795H3.63525V33.9795H2.63525V31.4795Z" fill="#FFAB33"/>
<path d="M4.63525 30.9795L7.13525 30.4795V32.9795L4.63525 33.4795V30.9795Z" fill="#FFAB33"/>
<path d="M8.63525 30.4795L11.1353 29.9795V32.4795L8.63525 32.9795V30.4795Z" fill="#FFAB33"/>
<path d="M4.63525 30.9795L7.13525 30.4795V32.9795L4.63525 33.4795V30.9795Z" stroke="#FFAB33"/>
<path d="M8.63525 30.4795L11.1353 29.9795V32.4795L8.63525 32.9795V30.4795Z" stroke="#FFAB33"/>
<path d="M12.6353 29.4795L15.6353 28.9795V31.4795L12.6353 31.9795V29.4795Z" fill="#FFAB33"/>
<path d="M15.6353 28.9795L18.6353 29.4795V31.9795L15.6353 31.4795V28.9795Z" fill="#FED882"/>
<path d="M19.6353 29.9795L22.6353 30.4795V32.9795L19.6353 32.4795V29.9795Z" fill="#FED882"/>
<path d="M23.6353 30.9795L26.6353 31.4795V33.9795L23.6353 33.4795V30.9795Z" fill="#FED882"/>
</svg>
