<svg width="237" height="132" viewBox="0 0 237 132" fill="none" xmlns="http://www.w3.org/2000/svg">
<path d="M50.713 108.06C49.3894 108.487 47.9219 108.504 46.7174 107.809C44.5799 106.575 44.1417 105.154 44.5239 102.508V102.508C42.8803 103.056 42.0634 104.953 43.0344 106.388C43.9981 107.812 45.0942 108.974 46.6272 110.246C47.9176 111.316 49.57 111.855 51.2463 111.812C56.4411 111.679 59.0354 110.851 62.1261 108.72C61.1055 110.641 61.1623 111.76 61.9889 113.6C62.061 113.76 62.2573 113.822 62.4081 113.731C64.083 112.73 65.0044 111.892 66.2679 109.756C66.2159 114.032 66.9848 113.977 70.4096 114.933C67.5199 110.86 68.053 109.221 70.1985 106.254C70.9963 105.151 72.1264 104.331 73.4058 103.866L78.5781 101.985C81.3347 100.982 84.3491 100.942 87.1317 101.869L104.174 107.55C104.308 107.435 104.443 107.326 104.579 107.223V104.508C104.579 103.403 105.474 102.508 106.579 102.508H108.791C109.896 102.508 110.791 103.403 110.791 104.508V105.614H111.827V103.472C111.827 102.368 110.931 101.472 109.827 101.472H105.543C104.439 101.472 103.543 102.368 103.543 103.472V106.65C98.7741 103.748 93.5326 101.584 86.7262 99.7769C82.8461 98.747 78.7539 99.0145 74.9333 100.247L50.713 108.06Z" fill="url(#paint0_radial_692_1528)"/>
<path fill-rule="evenodd" clip-rule="evenodd" d="M118.04 111.827V108.721C115.458 105.74 114.164 105.799 111.827 105.614H110.791C108.063 105.589 106.223 105.979 104.579 107.223V107.685L104.174 107.55C103.27 108.327 102.41 109.382 101.473 110.791C94.423 108.167 92.2423 105.859 84.6309 104.117C82.7932 103.696 80.8384 103.854 79.1738 104.739C77.1411 105.82 75.7483 107.075 74.4009 109.235C73.7981 110.201 73.7054 111.42 74.2151 112.438C75.05 114.107 76.2503 115.417 79.1381 117.128C80.1191 117.709 81.351 117.62 82.2789 116.957L86.2804 114.099C87.2189 113.429 87.4133 112.09 86.6216 111.251C84.8307 109.354 83.7232 109.09 81.7994 109.756C83.0247 110.067 83.7478 110.456 84.3965 111.688C84.7601 112.378 84.5523 113.216 84.0005 113.767L82.2759 115.492C81.3711 116.397 79.9668 116.664 78.906 115.948C77.392 114.927 76.4786 113.802 75.488 112.283C74.8942 111.372 74.8544 110.185 75.4804 109.296C77.1885 106.871 79.0768 106.022 82.8348 105.614C87.5143 105.758 93.9739 109.592 101.473 112.862C101.611 115.305 101.827 117.608 105.431 119.531C106.15 119.915 107.027 119.733 107.604 119.156L110.252 116.508C110.55 116.21 110.55 115.727 110.252 115.429V115.429C109.972 115.149 109.522 115.134 109.211 115.381C104.883 118.812 103.35 117.017 102.508 112.862C108.785 113.743 111.601 112.063 112.862 106.65H114.933L118.04 111.827ZM102.508 111.827C105.324 107.593 107.417 106.549 111.827 106.65C109.582 111.782 107.624 113.001 102.508 111.827Z" fill="url(#paint1_radial_692_1528)"/>
<path d="M118.04 114.933V111.827C116.112 115.763 116.189 118.074 110.791 119.075C111.96 121.038 112.806 121.636 114.933 121.146C115.325 125.201 115.718 127.472 118.04 131.5V125.287C116.703 121.107 116.953 118.865 118.04 114.933Z" fill="url(#paint2_radial_692_1528)"/>
<path d="M115.969 98.3662C116.06 94.792 116.696 93.3936 118.04 91.1182V105.614C115.723 100.811 114.342 99.4138 111.827 99.4015C113.365 97.8121 114.277 97.3638 115.969 98.3662Z" fill="url(#paint3_radial_692_1528)"/>
<path d="M185.366 108.06C186.69 108.487 188.157 108.504 189.362 107.809C191.499 106.575 191.937 105.154 191.555 102.508V102.508C193.199 103.056 194.016 104.953 193.045 106.388C192.081 107.812 190.985 108.974 189.452 110.246C188.161 111.316 186.509 111.855 184.833 111.812C179.638 111.679 177.044 110.851 173.953 108.72C174.974 110.641 174.917 111.76 174.09 113.6C174.018 113.76 173.822 113.822 173.671 113.731C171.996 112.73 171.075 111.892 169.811 109.756C169.863 114.032 169.094 113.977 165.669 114.933C168.559 110.86 168.026 109.221 165.881 106.254C165.083 105.151 163.953 104.331 162.673 103.866L157.501 101.985C154.744 100.982 151.73 100.942 148.947 101.869L131.905 107.55C131.771 107.435 131.636 107.326 131.5 107.223V104.508C131.5 103.403 130.605 102.508 129.5 102.508H127.288C126.183 102.508 125.288 103.403 125.288 104.508V105.614H124.252V103.472C124.252 102.368 125.148 101.472 126.252 101.472H130.536C131.64 101.472 132.536 102.368 132.536 103.472V106.65C137.305 103.748 142.547 101.584 149.353 99.7769C153.233 98.747 157.325 99.0145 161.146 100.247L185.366 108.06Z" fill="url(#paint4_radial_692_1528)"/>
<path fill-rule="evenodd" clip-rule="evenodd" d="M118.04 111.827V108.721C120.621 105.74 121.915 105.799 124.252 105.614H125.288C128.016 105.589 129.856 105.979 131.5 107.223V107.685L131.905 107.55C132.809 108.327 133.669 109.382 134.607 110.791C141.656 108.167 143.837 105.859 151.448 104.117C153.286 103.696 155.241 103.854 156.905 104.739C158.938 105.82 160.331 107.075 161.678 109.235C162.281 110.201 162.374 111.42 161.864 112.438C161.029 114.107 159.829 115.417 156.941 117.128C155.96 117.709 154.728 117.62 153.8 116.957L149.799 114.099C148.86 113.429 148.666 112.09 149.457 111.251C151.248 109.354 152.356 109.09 154.28 109.756C153.054 110.067 152.331 110.456 151.683 111.688C151.319 112.378 151.527 113.216 152.079 113.767L153.803 115.492C154.708 116.397 156.112 116.664 157.173 115.948C158.687 114.927 159.601 113.802 160.591 112.283C161.185 111.372 161.225 110.185 160.599 109.296C158.891 106.871 157.002 106.022 153.244 105.614C148.565 105.758 142.105 109.592 134.607 112.862C134.468 115.305 134.252 117.608 130.648 119.531C129.929 119.915 129.052 119.733 128.475 119.156L125.827 116.508C125.529 116.21 125.529 115.727 125.827 115.429V115.429C126.107 115.149 126.557 115.134 126.868 115.381C131.196 118.812 132.729 117.017 133.571 112.862C127.294 113.743 124.479 112.063 123.217 106.65H121.146L118.04 111.827ZM133.571 111.827C130.755 107.593 128.662 106.549 124.252 106.65C126.497 111.782 128.455 113.001 133.571 111.827Z" fill="url(#paint5_radial_692_1528)"/>
<path d="M118.04 114.933V111.827C119.967 115.763 119.89 118.074 125.288 119.075C124.119 121.038 123.273 121.636 121.146 121.146C120.755 125.201 120.362 127.472 118.04 131.5V125.287C119.376 121.107 119.126 118.865 118.04 114.933Z" fill="url(#paint6_radial_692_1528)"/>
<path d="M120.11 98.3662C120.019 94.792 119.383 93.3936 118.04 91.1182V105.614C120.356 100.811 121.737 99.4138 124.252 99.4015C122.714 97.8121 121.802 97.3638 120.11 98.3662Z" fill="url(#paint7_radial_692_1528)"/>
<path d="M87.7344 64.7305C87.7344 64.5586 87.5553 64.4512 87.1973 64.4082C86.8392 64.3652 86.3021 64.3366 85.5859 64.3223C84.8841 64.3079 84.1536 64.3008 83.3945 64.3008C83.0938 64.3008 82.6068 64.3223 81.9336 64.3652C81.2747 64.3939 80.4297 64.444 79.3984 64.5156C79.3125 64.5156 78.9258 65.0885 78.2383 66.2344C77.7799 66.9935 77.3145 67.8171 76.8418 68.7051C76.3835 69.5931 75.9967 70.4023 75.6816 71.1328C75.3809 71.849 75.2305 72.3503 75.2305 72.6367C75.2305 72.9232 75.3809 73.1667 75.6816 73.3672C75.9967 73.5677 76.3405 73.7181 76.7129 73.8184C77.0996 73.9186 77.3932 73.9688 77.5938 73.9688C77.651 73.9688 77.6797 74.0547 77.6797 74.2266C77.6797 74.556 77.6081 74.8568 77.4648 75.1289C76.1328 75.0573 75.123 75.0072 74.4355 74.9785C73.7624 74.9355 73.4115 74.9141 73.3828 74.9141C73.125 74.9141 72.7025 74.9284 72.1152 74.957C71.528 74.9857 70.9479 75.0143 70.375 75.043C69.8021 75.0859 69.401 75.1146 69.1719 75.1289C69.1146 75.0716 69.0859 74.957 69.0859 74.7852C69.0859 74.2409 69.1862 73.9688 69.3867 73.9688C69.7018 73.9688 70.1387 73.8828 70.6973 73.7109C71.2559 73.5391 71.6497 73.3242 71.8789 73.0664C72.5091 72.3646 73.3828 71.0182 74.5 69.0273L86.3594 47.7148C86.7891 46.9414 87.3477 46.5547 88.0352 46.5547C88.1641 46.5547 88.2786 46.5833 88.3789 46.6406L91.9453 69.3281C92.2318 71.1328 92.4036 72.1641 92.4609 72.4219C92.5182 72.7083 92.7116 72.9733 93.041 73.2168C93.3704 73.446 93.7214 73.6322 94.0938 73.7754C94.4805 73.9043 94.7669 73.9688 94.9531 73.9688C95.0104 73.9688 95.0391 74.0404 95.0391 74.1836C95.0391 74.5417 94.9674 74.8568 94.8242 75.1289C93.4922 75.0573 92.4538 75.0072 91.709 74.9785C90.9642 74.9355 90.513 74.9141 90.3555 74.9141C90.0833 74.9141 89.8184 74.9212 89.5605 74.9355C89.3171 74.9355 89.0736 74.9427 88.8301 74.957C88.3861 74.9857 87.8633 75.0143 87.2617 75.043C86.6745 75.0716 86.1732 75.1003 85.7578 75.1289C85.7292 75.1003 85.7148 75.0143 85.7148 74.8711C85.7148 74.2695 85.8151 73.9688 86.0156 73.9688C86.3021 73.9688 86.7031 73.8828 87.2188 73.7109C87.7344 73.5391 88.0638 73.3385 88.207 73.1094C88.4076 72.6654 88.5078 71.9922 88.5078 71.0898C88.5078 70.6029 88.25 68.4831 87.7344 64.7305ZM83.9531 62.1953C84.612 62.1953 85.2064 62.1882 85.7363 62.1738C86.2806 62.1595 86.7604 62.138 87.1758 62.1094C87.2904 62.1094 87.3477 62.0521 87.3477 61.9375C87.3477 61.7513 87.2546 61.0781 87.0684 59.918C86.9538 59.1159 86.8177 58.2064 86.6602 57.1895C86.5026 56.1725 86.3522 55.2201 86.209 54.332C86.0801 53.444 85.987 52.7995 85.9297 52.3984C82.4062 58.7721 80.6445 61.9948 80.6445 62.0664C80.6445 62.1237 80.6589 62.1523 80.6875 62.1523C81.0169 62.1667 81.4538 62.181 81.998 62.1953C82.5423 62.1953 83.194 62.1953 83.9531 62.1953ZM111.41 56.3086C112.842 56.3086 113.559 57.2539 113.559 59.1445C113.559 60.4766 113.358 62.0378 112.957 63.8281L111.539 70.4453C111.453 70.7891 111.41 71.1471 111.41 71.5195C111.41 72.2357 111.553 72.5938 111.84 72.5938C112.198 72.5938 112.628 72.3431 113.129 71.8418C113.63 71.3262 114.06 70.8893 114.418 70.5312L114.676 70.2305C114.733 70.2305 114.84 70.3665 114.998 70.6387C115.156 70.9108 115.234 71.1042 115.234 71.2188C114.991 71.6341 114.547 72.1641 113.902 72.8086C113.272 73.4531 112.585 74.026 111.84 74.5273C111.095 75.0143 110.422 75.2578 109.82 75.2578C109.362 75.2578 109.004 75.0501 108.746 74.6348C108.488 74.2194 108.359 73.6823 108.359 73.0234C108.359 72.5938 108.46 71.8346 108.66 70.7461L110.164 63.6562C110.365 62.6823 110.465 61.9089 110.465 61.3359C110.465 60.1042 110.193 59.4883 109.648 59.4883C109.176 59.4883 108.538 59.8464 107.736 60.5625C106.934 61.2643 106.096 62.2025 105.223 63.377C104.363 64.5514 103.583 65.862 102.881 67.3086C102.179 68.7409 101.685 70.1875 101.398 71.6484L100.668 75C100.281 75.1146 99.8372 75.1719 99.3359 75.1719C98.849 75.1719 98.362 75.1146 97.875 75L102.516 50.9805C102.773 49.7057 102.902 48.9466 102.902 48.7031C102.902 48.1589 102.029 47.8867 100.281 47.8867C100.195 47.8867 100.152 47.8008 100.152 47.6289C100.152 47.2852 100.267 46.9987 100.496 46.7695C102.358 46.5977 104.163 46.1966 105.91 45.5664C106.082 45.6523 106.168 45.9245 106.168 46.3828C106.168 46.5833 105.982 47.6576 105.609 49.6055L102.645 64.7734C102.917 64.2865 103.54 63.3984 104.514 62.1094C105.158 61.2643 105.903 60.3978 106.748 59.5098C107.607 58.6074 108.452 57.8483 109.283 57.2324C110.128 56.6165 110.837 56.3086 111.41 56.3086ZM123.656 56.3086C123.971 56.3086 124.888 56.4876 126.406 56.8457C127.924 57.2038 129.171 57.3828 130.145 57.3828C130.56 57.3828 131.033 57.2038 131.562 56.8457C132.092 56.4876 132.565 56.3086 132.98 56.3086C133.324 56.3086 133.496 56.6667 133.496 57.3828C133.496 57.5547 132.422 58.8223 130.273 61.1855C128.096 63.5775 125.962 65.9049 123.871 68.168L120.648 71.6055C120.648 71.6198 120.777 71.5625 121.035 71.4336C121.307 71.3047 121.587 71.1758 121.873 71.0469C122.174 70.9036 122.353 70.832 122.41 70.832C123.212 70.832 124.215 71.0898 125.418 71.6055C126.621 72.1211 127.423 72.3789 127.824 72.3789C128.053 72.3789 128.29 72.293 128.533 72.1211C128.777 71.9492 129.006 71.7272 129.221 71.4551C129.278 71.3835 129.407 71.1901 129.607 70.875C129.822 70.5456 130.023 70.2305 130.209 69.9297C130.41 69.6289 130.517 69.4714 130.531 69.457C130.646 69.2995 130.768 69.3424 130.896 69.5859C131.04 69.8438 131.118 70.0729 131.133 70.2734C130.99 70.7604 130.682 71.3835 130.209 72.1426C129.751 72.8874 129.214 73.5534 128.598 74.1406C127.996 74.7135 127.409 75 126.836 75C126.578 75 125.661 74.8138 124.086 74.4414C122.51 74.069 121.264 73.8828 120.348 73.8828C119.947 73.8828 119.474 74.069 118.93 74.4414C118.385 74.8138 117.913 75 117.512 75C117.168 75 116.996 74.6276 116.996 73.8828C116.996 73.6823 118.063 72.4076 120.197 70.0586C121.257 68.8841 122.324 67.7168 123.398 66.5566C124.473 65.3965 125.547 64.2435 126.621 63.0977L129.801 59.6602L129.543 59.875C129.342 59.9896 129.099 60.1185 128.812 60.2617C128.526 60.4049 128.283 60.4766 128.082 60.4766C127.28 60.4766 126.277 60.2188 125.074 59.7031C123.871 59.1875 123.069 58.9297 122.668 58.9297C122.439 58.9297 122.202 59.0156 121.959 59.1875C121.715 59.3594 121.486 59.5814 121.271 59.8535C121.2 59.9538 121.064 60.1615 120.863 60.4766C120.663 60.7917 120.477 61.0924 120.305 61.3789C120.133 61.6654 120.033 61.8229 120.004 61.8516C119.861 61.9948 119.732 61.9518 119.617 61.7227C119.488 61.4505 119.417 61.207 119.402 60.9922C119.56 60.4909 119.861 59.875 120.305 59.1445C120.763 58.3997 121.293 57.7409 121.895 57.168C122.496 56.5951 123.083 56.3086 123.656 56.3086ZM144.582 56.3086C146.272 56.3086 147.583 56.8958 148.514 58.0703C149.445 59.2448 149.91 60.8633 149.91 62.9258C149.91 64.401 149.624 65.8691 149.051 67.3301C148.478 68.7767 147.726 70.0944 146.795 71.2832C145.864 72.472 144.84 73.4245 143.723 74.1406C142.605 74.8568 141.503 75.2148 140.414 75.2148C138.695 75.2148 137.385 74.6562 136.482 73.5391C135.58 72.4219 135.129 70.832 135.129 68.7695C135.129 67.2799 135.408 65.8047 135.967 64.3438C136.54 62.8685 137.292 61.5293 138.223 60.3262C139.154 59.1087 140.171 58.1348 141.273 57.4043C142.391 56.6738 143.493 56.3086 144.582 56.3086ZM144.066 58.0703C143.35 58.0703 142.656 58.3854 141.982 59.0156C141.309 59.6315 140.701 60.4408 140.156 61.4434C139.612 62.446 139.182 63.5417 138.867 64.7305C138.552 65.9193 138.395 67.0794 138.395 68.2109C138.395 69.8724 138.66 71.1615 139.189 72.0781C139.719 72.9948 140.385 73.4531 141.188 73.4531C141.904 73.4531 142.584 73.1452 143.229 72.5293C143.887 71.8991 144.475 71.0827 144.99 70.0801C145.506 69.0632 145.907 67.9603 146.193 66.7715C146.494 65.5827 146.645 64.4154 146.645 63.2695C146.645 61.5794 146.415 60.2904 145.957 59.4023C145.499 58.5143 144.868 58.0703 144.066 58.0703ZM164.004 56.3086C165.264 56.3086 166.217 56.8672 166.861 57.9844C167.506 59.1016 167.828 60.4193 167.828 61.9375C167.828 63.7708 167.52 65.4896 166.904 67.0938C166.303 68.6979 165.493 70.1159 164.477 71.3477C163.46 72.5651 162.335 73.5247 161.104 74.2266C159.886 74.9141 158.661 75.2578 157.43 75.2578C156.341 75.2578 155.36 74.8496 154.486 74.0332C153.613 73.2168 153.176 72.0495 153.176 70.5312C153.176 70.1016 153.219 69.6289 153.305 69.1133L156.871 50.9805C157.129 49.7917 157.258 49.0326 157.258 48.7031C157.258 48.1589 156.384 47.8867 154.637 47.8867C154.551 47.8867 154.508 47.8008 154.508 47.6289C154.508 47.2852 154.622 46.9987 154.852 46.7695C156.699 46.5977 158.504 46.1966 160.266 45.5664C160.438 45.6523 160.523 45.9245 160.523 46.3828C160.523 46.6979 160.337 47.7721 159.965 49.6055L157.43 61.9805C158.346 60.4622 159.306 59.2448 160.309 58.3281C161.111 57.612 161.798 57.0964 162.371 56.7812C162.944 56.4661 163.488 56.3086 164.004 56.3086ZM162.758 58.6719C162.156 58.6719 161.39 59.209 160.459 60.2832C159.843 60.9993 159.242 61.8229 158.654 62.7539C158.081 63.6849 157.587 64.6374 157.172 65.6113C156.757 66.571 156.47 67.4661 156.312 68.2969C155.997 69.8724 156.04 71.1328 156.441 72.0781C156.842 73.0234 157.544 73.4961 158.547 73.4961C159.621 73.4961 160.645 72.9447 161.619 71.8418C162.579 70.7389 163.324 69.3783 163.854 67.7598C164.383 66.1413 164.648 64.5443 164.648 62.9688C164.648 62.3099 164.613 61.651 164.541 60.9922C164.484 60.3333 164.319 59.7819 164.047 59.3379C163.789 58.8939 163.359 58.6719 162.758 58.6719Z" fill="white"/>
<path d="M0 14.4961C6.30012 20.0984 15.0791 19.1979 30.687 15.1421C32.2497 14.736 33.9168 14.9601 35.3059 15.7832L61.0905 31.063L35.3304 19.6141C33.9205 18.9874 32.3183 18.9353 30.8588 19.4358C12.5496 25.7159 4.73674 24.7283 0 14.4961Z" fill="url(#paint8_radial_692_1528)"/>
<path d="M16.5669 25.8858C22.7094 27.5488 34.4861 19.1752 43.5027 24.2129C35.7991 20.3448 24.9274 34.7378 16.5669 25.8858Z" fill="url(#paint9_radial_692_1528)"/>
<path d="M42.4528 34.1693C40.4746 32.9379 39.8039 31.791 39.5364 30.2054C39.314 28.8871 40.2138 27.6374 41.514 27.3262C46.4064 26.1551 49.6595 27.3172 54.8779 31.063C50.3759 26.3362 46.8249 25.2844 39.6469 25.78C38.7972 25.8387 38.0191 26.2751 37.5081 26.9564L36.1669 28.7446C35.6047 29.4943 35.6307 30.5432 36.2784 31.2205C38.4425 33.4837 39.9798 34.1156 42.4528 34.1693Z" fill="url(#paint10_radial_692_1528)"/>
<path d="M61.0905 28.9921C48.8725 19.5072 53.131 18.6378 60.0551 10.3543C56.6285 8.93238 54.8937 8.83857 52.8071 12.4252C51.2879 8.29387 49.7783 6.42726 45.559 4.14173C43.8524 8.52031 44.6321 10.6991 46.5945 14.4961C42.9378 12.0347 40.7471 11.3823 36.2402 13.4606C46.3046 17.727 45.2926 18.8748 61.0905 28.9921Z" fill="url(#paint11_radial_692_1528)"/>
<path d="M78.6929 22.7441C78.6929 22.1918 79.1406 21.7441 79.6929 21.7441H79.7638C80.3161 21.7441 80.7638 22.1918 80.7638 22.7441V25.9213C80.7638 26.4735 80.3161 26.9213 79.7638 26.9213H74.4803C73.3757 26.9213 72.4803 26.0258 72.4803 24.9213V19.6024C72.4803 18.4978 73.3757 17.6024 74.4803 17.6024H78.7281C80.6137 17.6024 82.4755 18.023 84.178 18.8337V18.8337C85.2965 19.3663 86.1249 20.3629 86.4441 21.5599L88.3399 28.6695C89.2063 31.9182 86.6836 35.0788 83.3237 34.9544L68.0679 34.3894C64.7776 34.2675 62.2002 31.5169 62.2923 28.2256L62.6948 13.8426C62.7856 10.5955 65.4441 8.01038 68.6924 8.01038H83.0387C86.0229 8.01038 88.8896 9.21712 90.915 11.4088C101.807 23.194 109.097 33.3225 115.395 32.2299C115.685 32.1796 115.968 32.3916 115.968 32.686V32.686C115.968 32.9325 115.766 33.1318 115.519 33.1285C109.37 33.045 105.37 32.4313 87.653 13.254C86.5367 12.0456 85.0793 11.1983 83.4735 10.8414L77.8584 9.59364C77.0431 9.41248 76.199 9.4035 75.3801 9.56728L71.091 10.4251C68.2865 10.986 66.2677 13.4485 66.2677 16.3086V27.0984C66.2677 29.8599 68.5063 32.0984 71.2677 32.0984H80.9055C83.1146 32.0984 84.9055 30.3076 84.9055 28.0984V22.6378C84.9055 20.4287 83.1146 18.6378 80.9055 18.6378H76.5512C75.4466 18.6378 74.5512 19.5332 74.5512 20.6378V24.8858C74.5512 25.4381 74.9989 25.8858 75.5512 25.8858H77.6929C78.2452 25.8858 78.6929 25.4381 78.6929 24.8858V22.7441Z" fill="url(#paint12_radial_692_1528)"/>
<path d="M104.412 33.0631C96.4743 29.9513 88.3242 12.4066 78.6929 13.4606C91.6665 19.2326 92.9183 31.4785 104.412 33.0631Z" fill="url(#paint13_radial_692_1528)"/>
<path d="M111.827 30.0276C106.485 21.6827 106.361 16.9143 110.791 8.28346C105.363 9.71409 97.6256 19.5114 111.827 30.0276Z" fill="url(#paint14_radial_692_1528)"/>
<path d="M118.039 10.3543C113.102 14.0549 110.405 23.2793 118.039 32.0984C106.33 25.6888 109.793 12.7713 118.039 0V10.3543Z" fill="url(#paint15_radial_692_1528)"/>
<path d="M236.079 14.4961C229.778 20.0984 221 19.1979 205.392 15.1421C203.829 14.736 202.162 14.9601 200.773 15.7832L174.988 31.063L200.748 19.6141C202.158 18.9874 203.76 18.9353 205.22 19.4358C223.529 25.7159 231.342 24.7283 236.079 14.4961Z" fill="url(#paint16_radial_692_1528)"/>
<path d="M219.512 25.8858C213.369 27.5488 201.593 19.1752 192.576 24.2129C200.279 20.3448 211.151 34.7378 219.512 25.8858Z" fill="url(#paint17_radial_692_1528)"/>
<path d="M193.626 34.1693C195.604 32.9379 196.275 31.791 196.542 30.2054C196.765 28.8871 195.865 27.6374 194.565 27.3262C189.672 26.1551 186.419 27.3172 181.201 31.063C185.703 26.3362 189.254 25.2844 196.432 25.78C197.281 25.8387 198.06 26.2751 198.571 26.9564L199.912 28.7446C200.474 29.4943 200.448 30.5432 199.8 31.2205C197.636 33.4837 196.099 34.1156 193.626 34.1693Z" fill="url(#paint18_radial_692_1528)"/>
<path d="M174.988 28.9921C187.206 19.5072 182.948 18.6378 176.024 10.3543C179.45 8.93238 181.185 8.83857 183.272 12.4252C184.791 8.29387 186.3 6.42726 190.52 4.14173C192.226 8.52031 191.446 10.6991 189.484 14.4961C193.141 12.0347 195.331 11.3823 199.838 13.4606C189.774 17.727 190.786 18.8748 174.988 28.9921Z" fill="url(#paint19_radial_692_1528)"/>
<path d="M157.386 22.7441C157.386 22.1918 156.938 21.7441 156.386 21.7441H156.315C155.763 21.7441 155.315 22.1918 155.315 22.7441V25.9213C155.315 26.4735 155.763 26.9213 156.315 26.9213H161.598C162.703 26.9213 163.598 26.0258 163.598 24.9213V19.6024C163.598 18.4978 162.703 17.6024 161.598 17.6024H157.351C155.465 17.6024 153.603 18.023 151.901 18.8337V18.8337C150.782 19.3663 149.954 20.3629 149.635 21.5599L147.739 28.6695C146.872 31.9182 149.395 35.0788 152.755 34.9544L168.011 34.3894C171.301 34.2675 173.878 31.5169 173.786 28.2256L173.384 13.8426C173.293 10.5955 170.635 8.01038 167.386 8.01038H153.04C150.056 8.01038 147.189 9.21712 145.164 11.4088C134.272 23.194 126.982 33.3225 120.683 32.2299C120.393 32.1796 120.11 32.3916 120.11 32.686V32.686C120.11 32.9325 120.313 33.1318 120.559 33.1285C126.708 33.045 130.709 32.4313 148.426 13.254C149.542 12.0456 150.999 11.1983 152.605 10.8414L158.22 9.59364C159.035 9.41248 159.88 9.4035 160.698 9.56728L164.988 10.4251C167.792 10.986 169.811 13.4485 169.811 16.3086V27.0984C169.811 29.8599 167.572 32.0984 164.811 32.0984H155.173C152.964 32.0984 151.173 30.3076 151.173 28.0984V22.6378C151.173 20.4287 152.964 18.6378 155.173 18.6378H159.527C160.632 18.6378 161.527 19.5332 161.527 20.6378V24.8858C161.527 25.4381 161.08 25.8858 160.527 25.8858H158.386C157.833 25.8858 157.386 25.4381 157.386 24.8858V22.7441Z" fill="url(#paint20_radial_692_1528)"/>
<path d="M131.666 33.0631C139.604 29.9513 147.754 12.4066 157.386 13.4606C144.412 19.2326 143.16 31.4785 131.666 33.0631Z" fill="url(#paint21_radial_692_1528)"/>
<path d="M124.252 30.0276C129.594 21.6827 129.718 16.9143 125.287 8.28346C130.716 9.71409 138.453 19.5114 124.252 30.0276Z" fill="url(#paint22_radial_692_1528)"/>
<path d="M118.039 10.3543C122.976 14.0549 125.673 23.2793 118.039 32.0984C129.749 25.6888 126.286 12.7713 118.039 0V10.3543Z" fill="url(#paint23_radial_692_1528)"/>
<defs>
<radialGradient id="paint0_radial_692_1528" cx="0" cy="0" r="1" gradientUnits="userSpaceOnUse" gradientTransform="translate(79.7285 111.309) scale(38.311 20.1909)">
<stop stop-color="#E1E1E1"/>
<stop offset="1" stop-color="#FFF4DA"/>
</radialGradient>
<radialGradient id="paint1_radial_692_1528" cx="0" cy="0" r="1" gradientUnits="userSpaceOnUse" gradientTransform="translate(79.7285 111.309) scale(38.311 20.1909)">
<stop stop-color="#E1E1E1"/>
<stop offset="1" stop-color="#FFF4DA"/>
</radialGradient>
<radialGradient id="paint2_radial_692_1528" cx="0" cy="0" r="1" gradientUnits="userSpaceOnUse" gradientTransform="translate(79.7285 111.309) scale(38.311 20.1909)">
<stop stop-color="#E1E1E1"/>
<stop offset="1" stop-color="#FFF4DA"/>
</radialGradient>
<radialGradient id="paint3_radial_692_1528" cx="0" cy="0" r="1" gradientUnits="userSpaceOnUse" gradientTransform="translate(79.7285 111.309) scale(38.311 20.1909)">
<stop stop-color="#E1E1E1"/>
<stop offset="1" stop-color="#FFF4DA"/>
</radialGradient>
<radialGradient id="paint4_radial_692_1528" cx="0" cy="0" r="1" gradientUnits="userSpaceOnUse" gradientTransform="translate(156.351 111.309) rotate(180) scale(38.311 20.1909)">
<stop stop-color="#E1E1E1"/>
<stop offset="1" stop-color="#FFF4DA"/>
</radialGradient>
<radialGradient id="paint5_radial_692_1528" cx="0" cy="0" r="1" gradientUnits="userSpaceOnUse" gradientTransform="translate(156.351 111.309) rotate(180) scale(38.311 20.1909)">
<stop stop-color="#E1E1E1"/>
<stop offset="1" stop-color="#FFF4DA"/>
</radialGradient>
<radialGradient id="paint6_radial_692_1528" cx="0" cy="0" r="1" gradientUnits="userSpaceOnUse" gradientTransform="translate(156.351 111.309) rotate(180) scale(38.311 20.1909)">
<stop stop-color="#E1E1E1"/>
<stop offset="1" stop-color="#FFF4DA"/>
</radialGradient>
<radialGradient id="paint7_radial_692_1528" cx="0" cy="0" r="1" gradientUnits="userSpaceOnUse" gradientTransform="translate(156.351 111.309) rotate(180) scale(38.311 20.1909)">
<stop stop-color="#E1E1E1"/>
<stop offset="1" stop-color="#FFF4DA"/>
</radialGradient>
<radialGradient id="paint8_radial_692_1528" cx="0" cy="0" r="1" gradientUnits="userSpaceOnUse" gradientTransform="translate(59.0197 17.6024) scale(59.0197 17.6024)">
<stop stop-color="#E1E1E1"/>
<stop offset="1" stop-color="#FFF4DA"/>
</radialGradient>
<radialGradient id="paint9_radial_692_1528" cx="0" cy="0" r="1" gradientUnits="userSpaceOnUse" gradientTransform="translate(59.0197 17.6024) scale(59.0197 17.6024)">
<stop stop-color="#E1E1E1"/>
<stop offset="1" stop-color="#FFF4DA"/>
</radialGradient>
<radialGradient id="paint10_radial_692_1528" cx="0" cy="0" r="1" gradientUnits="userSpaceOnUse" gradientTransform="translate(59.0197 17.6024) scale(59.0197 17.6024)">
<stop stop-color="#E1E1E1"/>
<stop offset="1" stop-color="#FFF4DA"/>
</radialGradient>
<radialGradient id="paint11_radial_692_1528" cx="0" cy="0" r="1" gradientUnits="userSpaceOnUse" gradientTransform="translate(59.0197 17.6024) scale(59.0197 17.6024)">
<stop stop-color="#E1E1E1"/>
<stop offset="1" stop-color="#FFF4DA"/>
</radialGradient>
<radialGradient id="paint12_radial_692_1528" cx="0" cy="0" r="1" gradientUnits="userSpaceOnUse" gradientTransform="translate(59.0197 17.6024) scale(59.0197 17.6024)">
<stop stop-color="#E1E1E1"/>
<stop offset="1" stop-color="#FFF4DA"/>
</radialGradient>
<radialGradient id="paint13_radial_692_1528" cx="0" cy="0" r="1" gradientUnits="userSpaceOnUse" gradientTransform="translate(59.0197 17.6024) scale(59.0197 17.6024)">
<stop stop-color="#E1E1E1"/>
<stop offset="1" stop-color="#FFF4DA"/>
</radialGradient>
<radialGradient id="paint14_radial_692_1528" cx="0" cy="0" r="1" gradientUnits="userSpaceOnUse" gradientTransform="translate(59.0197 17.6024) scale(59.0197 17.6024)">
<stop stop-color="#E1E1E1"/>
<stop offset="1" stop-color="#FFF4DA"/>
</radialGradient>
<radialGradient id="paint15_radial_692_1528" cx="0" cy="0" r="1" gradientUnits="userSpaceOnUse" gradientTransform="translate(59.0197 17.6024) scale(59.0197 17.6024)">
<stop stop-color="#E1E1E1"/>
<stop offset="1" stop-color="#FFF4DA"/>
</radialGradient>
<radialGradient id="paint16_radial_692_1528" cx="0" cy="0" r="1" gradientUnits="userSpaceOnUse" gradientTransform="translate(177.059 17.6024) rotate(180) scale(59.0197 17.6024)">
<stop stop-color="#E1E1E1"/>
<stop offset="1" stop-color="#FFF4DA"/>
</radialGradient>
<radialGradient id="paint17_radial_692_1528" cx="0" cy="0" r="1" gradientUnits="userSpaceOnUse" gradientTransform="translate(177.059 17.6024) rotate(180) scale(59.0197 17.6024)">
<stop stop-color="#E1E1E1"/>
<stop offset="1" stop-color="#FFF4DA"/>
</radialGradient>
<radialGradient id="paint18_radial_692_1528" cx="0" cy="0" r="1" gradientUnits="userSpaceOnUse" gradientTransform="translate(177.059 17.6024) rotate(180) scale(59.0197 17.6024)">
<stop stop-color="#E1E1E1"/>
<stop offset="1" stop-color="#FFF4DA"/>
</radialGradient>
<radialGradient id="paint19_radial_692_1528" cx="0" cy="0" r="1" gradientUnits="userSpaceOnUse" gradientTransform="translate(177.059 17.6024) rotate(180) scale(59.0197 17.6024)">
<stop stop-color="#E1E1E1"/>
<stop offset="1" stop-color="#FFF4DA"/>
</radialGradient>
<radialGradient id="paint20_radial_692_1528" cx="0" cy="0" r="1" gradientUnits="userSpaceOnUse" gradientTransform="translate(177.059 17.6024) rotate(180) scale(59.0197 17.6024)">
<stop stop-color="#E1E1E1"/>
<stop offset="1" stop-color="#FFF4DA"/>
</radialGradient>
<radialGradient id="paint21_radial_692_1528" cx="0" cy="0" r="1" gradientUnits="userSpaceOnUse" gradientTransform="translate(177.059 17.6024) rotate(180) scale(59.0197 17.6024)">
<stop stop-color="#E1E1E1"/>
<stop offset="1" stop-color="#FFF4DA"/>
</radialGradient>
<radialGradient id="paint22_radial_692_1528" cx="0" cy="0" r="1" gradientUnits="userSpaceOnUse" gradientTransform="translate(177.059 17.6024) rotate(180) scale(59.0197 17.6024)">
<stop stop-color="#E1E1E1"/>
<stop offset="1" stop-color="#FFF4DA"/>
</radialGradient>
<radialGradient id="paint23_radial_692_1528" cx="0" cy="0" r="1" gradientUnits="userSpaceOnUse" gradientTransform="translate(177.059 17.6024) rotate(180) scale(59.0197 17.6024)">
<stop stop-color="#E1E1E1"/>
<stop offset="1" stop-color="#FFF4DA"/>
</radialGradient>
</defs>
</svg>
