<svg width="237" height="132" viewBox="0 0 237 132" fill="none" xmlns="http://www.w3.org/2000/svg">
<path d="M50.713 108.06C49.3894 108.487 47.9219 108.504 46.7174 107.809C44.5799 106.575 44.1417 105.154 44.5239 102.508V102.508C42.8803 103.056 42.0634 104.953 43.0344 106.388C43.9981 107.812 45.0942 108.974 46.6272 110.246C47.9176 111.316 49.57 111.855 51.2463 111.812C56.4411 111.679 59.0354 110.851 62.1261 108.72C61.1055 110.641 61.1623 111.76 61.9889 113.6C62.061 113.76 62.2573 113.822 62.4081 113.731C64.083 112.73 65.0044 111.892 66.2679 109.756C66.2159 114.032 66.9848 113.977 70.4096 114.933C67.5199 110.86 68.053 109.221 70.1985 106.254C70.9963 105.151 72.1264 104.331 73.4058 103.866L78.5781 101.985C81.3347 100.982 84.3491 100.942 87.1317 101.869L104.174 107.55C104.308 107.435 104.443 107.326 104.579 107.223V104.508C104.579 103.403 105.474 102.508 106.579 102.508H108.791C109.896 102.508 110.791 103.403 110.791 104.508V105.614H111.827V103.472C111.827 102.368 110.931 101.472 109.827 101.472H105.543C104.439 101.472 103.543 102.368 103.543 103.472V106.65C98.7741 103.748 93.5326 101.584 86.7262 99.7769C82.8461 98.747 78.7539 99.0145 74.9333 100.247L50.713 108.06Z" fill="url(#paint0_radial_692_238)"/>
<path fill-rule="evenodd" clip-rule="evenodd" d="M118.04 111.827V108.721C115.458 105.74 114.164 105.799 111.827 105.614H110.791C108.063 105.589 106.223 105.979 104.579 107.223V107.685L104.174 107.55C103.27 108.327 102.41 109.382 101.473 110.791C94.423 108.167 92.2423 105.859 84.6309 104.117C82.7932 103.696 80.8384 103.854 79.1738 104.739C77.1411 105.82 75.7483 107.075 74.4009 109.235C73.7981 110.201 73.7054 111.42 74.2151 112.438C75.05 114.107 76.2503 115.417 79.1381 117.128C80.1191 117.709 81.351 117.62 82.2789 116.957L86.2804 114.099C87.2189 113.429 87.4133 112.09 86.6216 111.251C84.8307 109.354 83.7232 109.09 81.7994 109.756C83.0247 110.067 83.7478 110.456 84.3965 111.688C84.7601 112.378 84.5523 113.216 84.0005 113.767L82.2759 115.492C81.3711 116.397 79.9668 116.664 78.906 115.948C77.392 114.927 76.4786 113.802 75.488 112.283C74.8942 111.372 74.8544 110.185 75.4804 109.296C77.1885 106.871 79.0768 106.022 82.8348 105.614C87.5143 105.758 93.9739 109.592 101.473 112.862C101.611 115.305 101.827 117.608 105.431 119.531C106.15 119.915 107.027 119.733 107.604 119.156L110.252 116.508C110.55 116.21 110.55 115.727 110.252 115.429V115.429C109.972 115.149 109.522 115.134 109.211 115.381C104.883 118.812 103.35 117.017 102.508 112.862C108.785 113.743 111.601 112.063 112.862 106.65H114.933L118.04 111.827ZM102.508 111.827C105.324 107.593 107.417 106.549 111.827 106.65C109.582 111.782 107.624 113.001 102.508 111.827Z" fill="url(#paint1_radial_692_238)"/>
<path d="M118.04 114.933V111.827C116.112 115.763 116.189 118.074 110.791 119.075C111.96 121.038 112.806 121.636 114.933 121.146C115.325 125.201 115.718 127.472 118.04 131.5V125.287C116.703 121.107 116.953 118.865 118.04 114.933Z" fill="url(#paint2_radial_692_238)"/>
<path d="M115.969 98.3662C116.06 94.792 116.696 93.3936 118.04 91.1182V105.614C115.723 100.811 114.342 99.4138 111.827 99.4015C113.365 97.8121 114.277 97.3638 115.969 98.3662Z" fill="url(#paint3_radial_692_238)"/>
<path d="M185.366 108.06C186.69 108.487 188.157 108.504 189.362 107.809C191.499 106.575 191.937 105.154 191.555 102.508V102.508C193.199 103.056 194.016 104.953 193.045 106.388C192.081 107.812 190.985 108.974 189.452 110.246C188.161 111.316 186.509 111.855 184.833 111.812C179.638 111.679 177.044 110.851 173.953 108.72C174.974 110.641 174.917 111.76 174.09 113.6C174.018 113.76 173.822 113.822 173.671 113.731C171.996 112.73 171.075 111.892 169.811 109.756C169.863 114.032 169.094 113.977 165.669 114.933C168.559 110.86 168.026 109.221 165.881 106.254C165.083 105.151 163.953 104.331 162.673 103.866L157.501 101.985C154.744 100.982 151.73 100.942 148.947 101.869L131.905 107.55C131.771 107.435 131.636 107.326 131.5 107.223V104.508C131.5 103.403 130.605 102.508 129.5 102.508H127.288C126.183 102.508 125.288 103.403 125.288 104.508V105.614H124.252V103.472C124.252 102.368 125.148 101.472 126.252 101.472H130.536C131.64 101.472 132.536 102.368 132.536 103.472V106.65C137.305 103.748 142.547 101.584 149.353 99.7769C153.233 98.747 157.325 99.0145 161.146 100.247L185.366 108.06Z" fill="url(#paint4_radial_692_238)"/>
<path fill-rule="evenodd" clip-rule="evenodd" d="M118.04 111.827V108.721C120.621 105.74 121.915 105.799 124.252 105.614H125.288C128.016 105.589 129.856 105.979 131.5 107.223V107.685L131.905 107.55C132.809 108.327 133.669 109.382 134.607 110.791C141.656 108.167 143.837 105.859 151.448 104.117C153.286 103.696 155.241 103.854 156.905 104.739C158.938 105.82 160.331 107.075 161.678 109.235C162.281 110.201 162.374 111.42 161.864 112.438C161.029 114.107 159.829 115.417 156.941 117.128C155.96 117.709 154.728 117.62 153.8 116.957L149.799 114.099C148.86 113.429 148.666 112.09 149.457 111.251C151.248 109.354 152.356 109.09 154.28 109.756C153.054 110.067 152.331 110.456 151.683 111.688C151.319 112.378 151.527 113.216 152.079 113.767L153.803 115.492C154.708 116.397 156.112 116.664 157.173 115.948C158.687 114.927 159.601 113.802 160.591 112.283C161.185 111.372 161.225 110.185 160.599 109.296C158.891 106.871 157.002 106.022 153.244 105.614C148.565 105.758 142.105 109.592 134.607 112.862C134.468 115.305 134.252 117.608 130.648 119.531C129.929 119.915 129.052 119.733 128.475 119.156L125.827 116.508C125.529 116.21 125.529 115.727 125.827 115.429V115.429C126.107 115.149 126.557 115.134 126.868 115.381C131.196 118.812 132.729 117.017 133.571 112.862C127.294 113.743 124.479 112.063 123.217 106.65H121.146L118.04 111.827ZM133.571 111.827C130.755 107.593 128.662 106.549 124.252 106.65C126.497 111.782 128.455 113.001 133.571 111.827Z" fill="url(#paint5_radial_692_238)"/>
<path d="M118.04 114.933V111.827C119.967 115.763 119.89 118.074 125.288 119.075C124.119 121.038 123.273 121.636 121.146 121.146C120.755 125.201 120.362 127.472 118.04 131.5V125.287C119.376 121.107 119.126 118.865 118.04 114.933Z" fill="url(#paint6_radial_692_238)"/>
<path d="M120.11 98.3662C120.019 94.792 119.383 93.3936 118.04 91.1182V105.614C120.356 100.811 121.737 99.4138 124.252 99.4015C122.714 97.8121 121.802 97.3638 120.11 98.3662Z" fill="url(#paint7_radial_692_238)"/>
<path d="M92.7344 64.7305C92.7344 64.5586 92.5553 64.4512 92.1973 64.4082C91.8392 64.3652 91.3021 64.3366 90.5859 64.3223C89.8841 64.3079 89.1536 64.3008 88.3945 64.3008C88.0938 64.3008 87.6068 64.3223 86.9336 64.3652C86.2747 64.3939 85.4297 64.444 84.3984 64.5156C84.3125 64.5156 83.9258 65.0885 83.2383 66.2344C82.7799 66.9935 82.3145 67.8171 81.8418 68.7051C81.3835 69.5931 80.9967 70.4023 80.6816 71.1328C80.3809 71.849 80.2305 72.3503 80.2305 72.6367C80.2305 72.9232 80.3809 73.1667 80.6816 73.3672C80.9967 73.5677 81.3405 73.7181 81.7129 73.8184C82.0996 73.9186 82.3932 73.9688 82.5938 73.9688C82.651 73.9688 82.6797 74.0547 82.6797 74.2266C82.6797 74.556 82.6081 74.8568 82.4648 75.1289C81.1328 75.0573 80.123 75.0072 79.4355 74.9785C78.7624 74.9355 78.4115 74.9141 78.3828 74.9141C78.125 74.9141 77.7025 74.9284 77.1152 74.957C76.528 74.9857 75.9479 75.0143 75.375 75.043C74.8021 75.0859 74.401 75.1146 74.1719 75.1289C74.1146 75.0716 74.0859 74.957 74.0859 74.7852C74.0859 74.2409 74.1862 73.9688 74.3867 73.9688C74.7018 73.9688 75.1387 73.8828 75.6973 73.7109C76.2559 73.5391 76.6497 73.3242 76.8789 73.0664C77.5091 72.3646 78.3828 71.0182 79.5 69.0273L91.3594 47.7148C91.7891 46.9414 92.3477 46.5547 93.0352 46.5547C93.1641 46.5547 93.2786 46.5833 93.3789 46.6406L96.9453 69.3281C97.2318 71.1328 97.4036 72.1641 97.4609 72.4219C97.5182 72.7083 97.7116 72.9733 98.041 73.2168C98.3704 73.446 98.7214 73.6322 99.0938 73.7754C99.4805 73.9043 99.7669 73.9688 99.9531 73.9688C100.01 73.9688 100.039 74.0404 100.039 74.1836C100.039 74.5417 99.9674 74.8568 99.8242 75.1289C98.4922 75.0573 97.4538 75.0072 96.709 74.9785C95.9642 74.9355 95.513 74.9141 95.3555 74.9141C95.0833 74.9141 94.8184 74.9212 94.5605 74.9355C94.3171 74.9355 94.0736 74.9427 93.8301 74.957C93.3861 74.9857 92.8633 75.0143 92.2617 75.043C91.6745 75.0716 91.1732 75.1003 90.7578 75.1289C90.7292 75.1003 90.7148 75.0143 90.7148 74.8711C90.7148 74.2695 90.8151 73.9688 91.0156 73.9688C91.3021 73.9688 91.7031 73.8828 92.2188 73.7109C92.7344 73.5391 93.0638 73.3385 93.207 73.1094C93.4076 72.6654 93.5078 71.9922 93.5078 71.0898C93.5078 70.6029 93.25 68.4831 92.7344 64.7305ZM88.9531 62.1953C89.612 62.1953 90.2064 62.1882 90.7363 62.1738C91.2806 62.1595 91.7604 62.138 92.1758 62.1094C92.2904 62.1094 92.3477 62.0521 92.3477 61.9375C92.3477 61.7513 92.2546 61.0781 92.0684 59.918C91.9538 59.1159 91.8177 58.2064 91.6602 57.1895C91.5026 56.1725 91.3522 55.2201 91.209 54.332C91.0801 53.444 90.987 52.7995 90.9297 52.3984C87.4062 58.7721 85.6445 61.9948 85.6445 62.0664C85.6445 62.1237 85.6589 62.1523 85.6875 62.1523C86.0169 62.1667 86.4538 62.181 86.998 62.1953C87.5423 62.1953 88.194 62.1953 88.9531 62.1953ZM108.633 56.3086C109.091 56.3086 109.449 56.5163 109.707 56.9316C109.965 57.347 110.094 57.8841 110.094 58.543C110.094 59.1732 110.008 59.9323 109.836 60.8203L109.062 64.7734C109.335 64.2865 109.958 63.3984 110.932 62.1094C111.576 61.2643 112.321 60.3978 113.166 59.5098C114.025 58.6074 114.87 57.8483 115.701 57.2324C116.546 56.6165 117.255 56.3086 117.828 56.3086C119.26 56.3086 119.977 57.2539 119.977 59.1445C119.977 60.4766 119.776 62.0378 119.375 63.8281L117.957 70.4453C117.871 70.7891 117.828 71.1471 117.828 71.5195C117.828 72.2357 117.971 72.5938 118.258 72.5938C118.616 72.5938 119.046 72.3431 119.547 71.8418C120.048 71.3262 120.478 70.8893 120.836 70.5312L121.094 70.2305C121.151 70.2305 121.258 70.3665 121.416 70.6387C121.574 70.9108 121.652 71.1042 121.652 71.2188C121.409 71.6341 120.965 72.1641 120.32 72.8086C119.69 73.4531 119.003 74.026 118.258 74.5273C117.513 75.0143 116.84 75.2578 116.238 75.2578C115.78 75.2578 115.422 75.0501 115.164 74.6348C114.906 74.2194 114.777 73.6823 114.777 73.0234C114.777 72.5938 114.878 71.8346 115.078 70.7461L116.582 63.6562C116.783 62.6823 116.883 61.9089 116.883 61.3359C116.883 60.1042 116.611 59.4883 116.066 59.4883C115.594 59.4883 114.956 59.8464 114.154 60.5625C113.352 61.2643 112.514 62.2025 111.641 63.377C110.781 64.5514 110.001 65.862 109.299 67.3086C108.597 68.7409 108.103 70.1875 107.816 71.6484L107.086 75C106.699 75.1146 106.255 75.1719 105.754 75.1719C105.267 75.1719 104.78 75.1146 104.293 75L106.828 61.7656C106.971 60.7773 107.043 60.2044 107.043 60.0469C107.043 59.3307 106.9 58.9727 106.613 58.9727C106.37 58.9727 106.005 59.2018 105.518 59.6602C105.288 59.8893 105.038 60.14 104.766 60.4121C104.508 60.6842 104.336 60.8776 104.25 60.9922C104.193 60.9922 104.085 60.8561 103.928 60.584C103.77 60.3118 103.691 60.1185 103.691 60.0039C103.921 59.6172 104.336 59.1374 104.938 58.5645C105.539 57.9772 106.184 57.4544 106.871 56.9961C107.559 56.5378 108.146 56.3086 108.633 56.3086ZM138.582 44.9648C140.415 44.9648 141.59 45.4518 142.105 46.4258C142.105 48.2878 141.59 49.2188 140.559 49.2188C140.1 49.2188 139.692 49.0039 139.334 48.5742C138.99 48.1302 138.639 47.6934 138.281 47.2637C137.938 46.8197 137.522 46.5977 137.035 46.5977C136.118 46.5977 135.145 47.5358 134.113 49.4121C133.096 51.2598 132.294 53.8737 131.707 57.2539V57.3398C131.707 57.4544 131.75 57.5117 131.836 57.5117H136.777C136.921 57.5117 136.992 57.6836 136.992 58.0273C136.992 58.5 136.835 58.987 136.52 59.4883H131.492C131.335 59.4883 131.249 59.6029 131.234 59.832L128.871 72.6797C128.184 76.6615 126.973 79.6979 125.24 81.7891C123.507 83.8802 121.624 84.9258 119.59 84.9258C118.587 84.9258 117.799 84.7467 117.227 84.3887C116.654 84.0306 116.281 83.6224 116.109 83.1641C116.081 82.5052 116.238 81.918 116.582 81.4023C116.926 80.8867 117.355 80.6289 117.871 80.6289C118.272 80.6289 118.623 80.8438 118.924 81.2734C119.21 81.7174 119.518 82.1543 119.848 82.584C120.163 83.028 120.564 83.25 121.051 83.25C121.624 83.25 122.161 82.9134 122.662 82.2402C123.178 81.5814 123.643 80.7578 124.059 79.7695C124.474 78.7812 124.818 77.793 125.09 76.8047C125.362 75.8164 125.548 75 125.648 74.3555L128.227 59.7891V59.7031C128.227 59.5599 128.184 59.4883 128.098 59.4883H125.305C125.247 59.4883 125.219 59.4453 125.219 59.3594C125.219 59.1875 125.326 58.9583 125.541 58.6719C125.756 58.3711 126.021 58.1061 126.336 57.877C126.665 57.6335 126.98 57.5117 127.281 57.5117H128.527C128.642 57.5117 128.728 57.3828 128.785 57.125C129.172 54.776 129.859 52.6849 130.848 50.8516C131.85 49.0182 133.025 47.5788 134.371 46.5332C135.732 45.4876 137.135 44.9648 138.582 44.9648ZM146.617 56.3086C148.307 56.3086 149.618 56.8958 150.549 58.0703C151.48 59.2448 151.945 60.8633 151.945 62.9258C151.945 64.401 151.659 65.8691 151.086 67.3301C150.513 68.7767 149.761 70.0944 148.83 71.2832C147.899 72.472 146.875 73.4245 145.758 74.1406C144.641 74.8568 143.538 75.2148 142.449 75.2148C140.73 75.2148 139.42 74.6562 138.518 73.5391C137.615 72.4219 137.164 70.832 137.164 68.7695C137.164 67.2799 137.443 65.8047 138.002 64.3438C138.575 62.8685 139.327 61.5293 140.258 60.3262C141.189 59.1087 142.206 58.1348 143.309 57.4043C144.426 56.6738 145.529 56.3086 146.617 56.3086ZM146.102 58.0703C145.385 58.0703 144.691 58.3854 144.018 59.0156C143.344 59.6315 142.736 60.4408 142.191 61.4434C141.647 62.446 141.217 63.5417 140.902 64.7305C140.587 65.9193 140.43 67.0794 140.43 68.2109C140.43 69.8724 140.695 71.1615 141.225 72.0781C141.755 72.9948 142.421 73.4531 143.223 73.4531C143.939 73.4531 144.619 73.1452 145.264 72.5293C145.923 71.8991 146.51 71.0827 147.025 70.0801C147.541 69.0632 147.942 67.9603 148.229 66.7715C148.529 65.5827 148.68 64.4154 148.68 63.2695C148.68 61.5794 148.451 60.2904 147.992 59.4023C147.534 58.5143 146.904 58.0703 146.102 58.0703ZM155.941 70.7461L159.98 49.9062C160.066 49.4766 160.109 49.0755 160.109 48.7031C160.109 48.1589 159.236 47.8867 157.488 47.8867C157.402 47.8867 157.359 47.8008 157.359 47.6289C157.359 47.2852 157.474 46.9987 157.703 46.7695C159.622 46.5977 161.456 46.1966 163.203 45.5664C163.375 45.6523 163.461 45.9245 163.461 46.3828C163.461 46.6979 163.275 47.7721 162.902 49.6055L158.82 70.4453C158.734 70.7891 158.691 71.1471 158.691 71.5195C158.691 72.2357 158.835 72.5938 159.121 72.5938C159.293 72.5938 159.501 72.515 159.744 72.3574C159.988 72.1999 160.238 72.0065 160.496 71.7773C160.754 71.5482 161.048 71.2546 161.377 70.8965C161.706 70.5241 161.9 70.3021 161.957 70.2305C162.043 70.2305 162.158 70.3665 162.301 70.6387C162.444 70.9108 162.516 71.1042 162.516 71.2188C162.272 71.6341 161.828 72.1641 161.184 72.8086C160.553 73.4531 159.866 74.026 159.121 74.5273C158.376 75.0143 157.703 75.2578 157.102 75.2578C156.672 75.2578 156.321 75.0501 156.049 74.6348C155.777 74.2194 155.641 73.6823 155.641 73.0234C155.641 72.5794 155.741 71.8203 155.941 70.7461Z" fill="white"/>
<path d="M0 14.4961C6.30012 20.0984 15.0791 19.1979 30.687 15.1421C32.2497 14.736 33.9168 14.9601 35.3059 15.7832L61.0905 31.063L35.3304 19.6141C33.9205 18.9874 32.3183 18.9353 30.8588 19.4358C12.5496 25.7159 4.73674 24.7283 0 14.4961Z" fill="url(#paint8_radial_692_238)"/>
<path d="M16.5669 25.8858C22.7094 27.5488 34.4861 19.1752 43.5027 24.2129C35.7991 20.3448 24.9274 34.7378 16.5669 25.8858Z" fill="url(#paint9_radial_692_238)"/>
<path d="M42.4528 34.1693C40.4746 32.9379 39.8039 31.791 39.5364 30.2054C39.314 28.8871 40.2138 27.6374 41.514 27.3262C46.4064 26.1551 49.6595 27.3172 54.8779 31.063C50.3759 26.3362 46.8249 25.2844 39.6469 25.78C38.7972 25.8387 38.0191 26.2751 37.5081 26.9564L36.1669 28.7446C35.6047 29.4943 35.6307 30.5432 36.2784 31.2205C38.4425 33.4837 39.9798 34.1156 42.4528 34.1693Z" fill="url(#paint10_radial_692_238)"/>
<path d="M61.0905 28.9921C48.8725 19.5072 53.131 18.6378 60.0551 10.3543C56.6285 8.93238 54.8937 8.83857 52.8071 12.4252C51.2879 8.29387 49.7783 6.42726 45.559 4.14173C43.8524 8.52031 44.6321 10.6991 46.5945 14.4961C42.9378 12.0347 40.7471 11.3823 36.2402 13.4606C46.3046 17.727 45.2926 18.8748 61.0905 28.9921Z" fill="url(#paint11_radial_692_238)"/>
<path d="M78.6929 22.7441C78.6929 22.1918 79.1406 21.7441 79.6929 21.7441H79.7638C80.3161 21.7441 80.7638 22.1918 80.7638 22.7441V25.9213C80.7638 26.4735 80.3161 26.9213 79.7638 26.9213H74.4803C73.3757 26.9213 72.4803 26.0258 72.4803 24.9213V19.6024C72.4803 18.4978 73.3757 17.6024 74.4803 17.6024H78.7281C80.6137 17.6024 82.4755 18.023 84.178 18.8337V18.8337C85.2965 19.3663 86.1249 20.3629 86.4441 21.5599L88.3399 28.6695C89.2063 31.9182 86.6836 35.0788 83.3237 34.9544L68.0679 34.3894C64.7776 34.2675 62.2002 31.5169 62.2923 28.2256L62.6948 13.8426C62.7856 10.5955 65.4441 8.01038 68.6924 8.01038H83.0387C86.0229 8.01038 88.8896 9.21712 90.915 11.4088C101.807 23.194 109.097 33.3225 115.395 32.2299C115.685 32.1796 115.968 32.3916 115.968 32.686V32.686C115.968 32.9325 115.766 33.1318 115.519 33.1285C109.37 33.045 105.37 32.4313 87.653 13.254C86.5367 12.0456 85.0793 11.1983 83.4735 10.8414L77.8584 9.59364C77.0431 9.41248 76.199 9.4035 75.3801 9.56728L71.091 10.4251C68.2865 10.986 66.2677 13.4485 66.2677 16.3086V27.0984C66.2677 29.8599 68.5063 32.0984 71.2677 32.0984H80.9055C83.1146 32.0984 84.9055 30.3076 84.9055 28.0984V22.6378C84.9055 20.4287 83.1146 18.6378 80.9055 18.6378H76.5512C75.4466 18.6378 74.5512 19.5332 74.5512 20.6378V24.8858C74.5512 25.4381 74.9989 25.8858 75.5512 25.8858H77.6929C78.2452 25.8858 78.6929 25.4381 78.6929 24.8858V22.7441Z" fill="url(#paint12_radial_692_238)"/>
<path d="M104.412 33.0631C96.4743 29.9513 88.3242 12.4066 78.6929 13.4606C91.6665 19.2326 92.9183 31.4785 104.412 33.0631Z" fill="url(#paint13_radial_692_238)"/>
<path d="M111.827 30.0276C106.485 21.6827 106.361 16.9143 110.791 8.28346C105.363 9.71409 97.6256 19.5114 111.827 30.0276Z" fill="url(#paint14_radial_692_238)"/>
<path d="M118.039 10.3543C113.102 14.0549 110.405 23.2793 118.039 32.0984C106.33 25.6888 109.793 12.7713 118.039 0V10.3543Z" fill="url(#paint15_radial_692_238)"/>
<path d="M236.079 14.4961C229.778 20.0984 221 19.1979 205.392 15.1421C203.829 14.736 202.162 14.9601 200.773 15.7832L174.988 31.063L200.748 19.6141C202.158 18.9874 203.76 18.9353 205.22 19.4358C223.529 25.7159 231.342 24.7283 236.079 14.4961Z" fill="url(#paint16_radial_692_238)"/>
<path d="M219.512 25.8858C213.369 27.5488 201.593 19.1752 192.576 24.2129C200.279 20.3448 211.151 34.7378 219.512 25.8858Z" fill="url(#paint17_radial_692_238)"/>
<path d="M193.626 34.1693C195.604 32.9379 196.275 31.791 196.542 30.2054C196.765 28.8871 195.865 27.6374 194.565 27.3262C189.672 26.1551 186.419 27.3172 181.201 31.063C185.703 26.3362 189.254 25.2844 196.432 25.78C197.281 25.8387 198.06 26.2751 198.571 26.9564L199.912 28.7446C200.474 29.4943 200.448 30.5432 199.8 31.2205C197.636 33.4837 196.099 34.1156 193.626 34.1693Z" fill="url(#paint18_radial_692_238)"/>
<path d="M174.988 28.9921C187.206 19.5072 182.948 18.6378 176.024 10.3543C179.45 8.93238 181.185 8.83857 183.272 12.4252C184.791 8.29387 186.3 6.42726 190.52 4.14173C192.226 8.52031 191.446 10.6991 189.484 14.4961C193.141 12.0347 195.331 11.3823 199.838 13.4606C189.774 17.727 190.786 18.8748 174.988 28.9921Z" fill="url(#paint19_radial_692_238)"/>
<path d="M157.386 22.7441C157.386 22.1918 156.938 21.7441 156.386 21.7441H156.315C155.763 21.7441 155.315 22.1918 155.315 22.7441V25.9213C155.315 26.4735 155.763 26.9213 156.315 26.9213H161.598C162.703 26.9213 163.598 26.0258 163.598 24.9213V19.6024C163.598 18.4978 162.703 17.6024 161.598 17.6024H157.351C155.465 17.6024 153.603 18.023 151.901 18.8337V18.8337C150.782 19.3663 149.954 20.3629 149.635 21.5599L147.739 28.6695C146.872 31.9182 149.395 35.0788 152.755 34.9544L168.011 34.3894C171.301 34.2675 173.878 31.5169 173.786 28.2256L173.384 13.8426C173.293 10.5955 170.635 8.01038 167.386 8.01038H153.04C150.056 8.01038 147.189 9.21712 145.164 11.4088C134.272 23.194 126.982 33.3225 120.683 32.2299C120.393 32.1796 120.11 32.3916 120.11 32.686V32.686C120.11 32.9325 120.313 33.1318 120.559 33.1285C126.708 33.045 130.709 32.4313 148.426 13.254C149.542 12.0456 150.999 11.1983 152.605 10.8414L158.22 9.59364C159.035 9.41248 159.88 9.4035 160.698 9.56728L164.988 10.4251C167.792 10.986 169.811 13.4485 169.811 16.3086V27.0984C169.811 29.8599 167.572 32.0984 164.811 32.0984H155.173C152.964 32.0984 151.173 30.3076 151.173 28.0984V22.6378C151.173 20.4287 152.964 18.6378 155.173 18.6378H159.527C160.632 18.6378 161.527 19.5332 161.527 20.6378V24.8858C161.527 25.4381 161.08 25.8858 160.527 25.8858H158.386C157.833 25.8858 157.386 25.4381 157.386 24.8858V22.7441Z" fill="url(#paint20_radial_692_238)"/>
<path d="M131.666 33.0631C139.604 29.9513 147.754 12.4066 157.386 13.4606C144.412 19.2326 143.16 31.4785 131.666 33.0631Z" fill="url(#paint21_radial_692_238)"/>
<path d="M124.252 30.0276C129.594 21.6827 129.718 16.9143 125.287 8.28346C130.716 9.71409 138.453 19.5114 124.252 30.0276Z" fill="url(#paint22_radial_692_238)"/>
<path d="M118.039 10.3543C122.976 14.0549 125.673 23.2793 118.039 32.0984C129.749 25.6888 126.286 12.7713 118.039 0V10.3543Z" fill="url(#paint23_radial_692_238)"/>
<defs>
<radialGradient id="paint0_radial_692_238" cx="0" cy="0" r="1" gradientUnits="userSpaceOnUse" gradientTransform="translate(79.7285 111.309) scale(38.311 20.1909)">
<stop stop-color="#E1E1E1"/>
<stop offset="1" stop-color="#FFF4DA"/>
</radialGradient>
<radialGradient id="paint1_radial_692_238" cx="0" cy="0" r="1" gradientUnits="userSpaceOnUse" gradientTransform="translate(79.7285 111.309) scale(38.311 20.1909)">
<stop stop-color="#E1E1E1"/>
<stop offset="1" stop-color="#FFF4DA"/>
</radialGradient>
<radialGradient id="paint2_radial_692_238" cx="0" cy="0" r="1" gradientUnits="userSpaceOnUse" gradientTransform="translate(79.7285 111.309) scale(38.311 20.1909)">
<stop stop-color="#E1E1E1"/>
<stop offset="1" stop-color="#FFF4DA"/>
</radialGradient>
<radialGradient id="paint3_radial_692_238" cx="0" cy="0" r="1" gradientUnits="userSpaceOnUse" gradientTransform="translate(79.7285 111.309) scale(38.311 20.1909)">
<stop stop-color="#E1E1E1"/>
<stop offset="1" stop-color="#FFF4DA"/>
</radialGradient>
<radialGradient id="paint4_radial_692_238" cx="0" cy="0" r="1" gradientUnits="userSpaceOnUse" gradientTransform="translate(156.351 111.309) rotate(180) scale(38.311 20.1909)">
<stop stop-color="#E1E1E1"/>
<stop offset="1" stop-color="#FFF4DA"/>
</radialGradient>
<radialGradient id="paint5_radial_692_238" cx="0" cy="0" r="1" gradientUnits="userSpaceOnUse" gradientTransform="translate(156.351 111.309) rotate(180) scale(38.311 20.1909)">
<stop stop-color="#E1E1E1"/>
<stop offset="1" stop-color="#FFF4DA"/>
</radialGradient>
<radialGradient id="paint6_radial_692_238" cx="0" cy="0" r="1" gradientUnits="userSpaceOnUse" gradientTransform="translate(156.351 111.309) rotate(180) scale(38.311 20.1909)">
<stop stop-color="#E1E1E1"/>
<stop offset="1" stop-color="#FFF4DA"/>
</radialGradient>
<radialGradient id="paint7_radial_692_238" cx="0" cy="0" r="1" gradientUnits="userSpaceOnUse" gradientTransform="translate(156.351 111.309) rotate(180) scale(38.311 20.1909)">
<stop stop-color="#E1E1E1"/>
<stop offset="1" stop-color="#FFF4DA"/>
</radialGradient>
<radialGradient id="paint8_radial_692_238" cx="0" cy="0" r="1" gradientUnits="userSpaceOnUse" gradientTransform="translate(59.0197 17.6024) scale(59.0197 17.6024)">
<stop stop-color="#E1E1E1"/>
<stop offset="1" stop-color="#FFF4DA"/>
</radialGradient>
<radialGradient id="paint9_radial_692_238" cx="0" cy="0" r="1" gradientUnits="userSpaceOnUse" gradientTransform="translate(59.0197 17.6024) scale(59.0197 17.6024)">
<stop stop-color="#E1E1E1"/>
<stop offset="1" stop-color="#FFF4DA"/>
</radialGradient>
<radialGradient id="paint10_radial_692_238" cx="0" cy="0" r="1" gradientUnits="userSpaceOnUse" gradientTransform="translate(59.0197 17.6024) scale(59.0197 17.6024)">
<stop stop-color="#E1E1E1"/>
<stop offset="1" stop-color="#FFF4DA"/>
</radialGradient>
<radialGradient id="paint11_radial_692_238" cx="0" cy="0" r="1" gradientUnits="userSpaceOnUse" gradientTransform="translate(59.0197 17.6024) scale(59.0197 17.6024)">
<stop stop-color="#E1E1E1"/>
<stop offset="1" stop-color="#FFF4DA"/>
</radialGradient>
<radialGradient id="paint12_radial_692_238" cx="0" cy="0" r="1" gradientUnits="userSpaceOnUse" gradientTransform="translate(59.0197 17.6024) scale(59.0197 17.6024)">
<stop stop-color="#E1E1E1"/>
<stop offset="1" stop-color="#FFF4DA"/>
</radialGradient>
<radialGradient id="paint13_radial_692_238" cx="0" cy="0" r="1" gradientUnits="userSpaceOnUse" gradientTransform="translate(59.0197 17.6024) scale(59.0197 17.6024)">
<stop stop-color="#E1E1E1"/>
<stop offset="1" stop-color="#FFF4DA"/>
</radialGradient>
<radialGradient id="paint14_radial_692_238" cx="0" cy="0" r="1" gradientUnits="userSpaceOnUse" gradientTransform="translate(59.0197 17.6024) scale(59.0197 17.6024)">
<stop stop-color="#E1E1E1"/>
<stop offset="1" stop-color="#FFF4DA"/>
</radialGradient>
<radialGradient id="paint15_radial_692_238" cx="0" cy="0" r="1" gradientUnits="userSpaceOnUse" gradientTransform="translate(59.0197 17.6024) scale(59.0197 17.6024)">
<stop stop-color="#E1E1E1"/>
<stop offset="1" stop-color="#FFF4DA"/>
</radialGradient>
<radialGradient id="paint16_radial_692_238" cx="0" cy="0" r="1" gradientUnits="userSpaceOnUse" gradientTransform="translate(177.059 17.6024) rotate(180) scale(59.0197 17.6024)">
<stop stop-color="#E1E1E1"/>
<stop offset="1" stop-color="#FFF4DA"/>
</radialGradient>
<radialGradient id="paint17_radial_692_238" cx="0" cy="0" r="1" gradientUnits="userSpaceOnUse" gradientTransform="translate(177.059 17.6024) rotate(180) scale(59.0197 17.6024)">
<stop stop-color="#E1E1E1"/>
<stop offset="1" stop-color="#FFF4DA"/>
</radialGradient>
<radialGradient id="paint18_radial_692_238" cx="0" cy="0" r="1" gradientUnits="userSpaceOnUse" gradientTransform="translate(177.059 17.6024) rotate(180) scale(59.0197 17.6024)">
<stop stop-color="#E1E1E1"/>
<stop offset="1" stop-color="#FFF4DA"/>
</radialGradient>
<radialGradient id="paint19_radial_692_238" cx="0" cy="0" r="1" gradientUnits="userSpaceOnUse" gradientTransform="translate(177.059 17.6024) rotate(180) scale(59.0197 17.6024)">
<stop stop-color="#E1E1E1"/>
<stop offset="1" stop-color="#FFF4DA"/>
</radialGradient>
<radialGradient id="paint20_radial_692_238" cx="0" cy="0" r="1" gradientUnits="userSpaceOnUse" gradientTransform="translate(177.059 17.6024) rotate(180) scale(59.0197 17.6024)">
<stop stop-color="#E1E1E1"/>
<stop offset="1" stop-color="#FFF4DA"/>
</radialGradient>
<radialGradient id="paint21_radial_692_238" cx="0" cy="0" r="1" gradientUnits="userSpaceOnUse" gradientTransform="translate(177.059 17.6024) rotate(180) scale(59.0197 17.6024)">
<stop stop-color="#E1E1E1"/>
<stop offset="1" stop-color="#FFF4DA"/>
</radialGradient>
<radialGradient id="paint22_radial_692_238" cx="0" cy="0" r="1" gradientUnits="userSpaceOnUse" gradientTransform="translate(177.059 17.6024) rotate(180) scale(59.0197 17.6024)">
<stop stop-color="#E1E1E1"/>
<stop offset="1" stop-color="#FFF4DA"/>
</radialGradient>
<radialGradient id="paint23_radial_692_238" cx="0" cy="0" r="1" gradientUnits="userSpaceOnUse" gradientTransform="translate(177.059 17.6024) rotate(180) scale(59.0197 17.6024)">
<stop stop-color="#E1E1E1"/>
<stop offset="1" stop-color="#FFF4DA"/>
</radialGradient>
</defs>
</svg>
