<svg width="237" height="132" viewBox="0 0 237 132" fill="none" xmlns="http://www.w3.org/2000/svg">
<path d="M50.7125 108.06C49.3889 108.487 47.9214 108.504 46.7169 107.809C44.5794 106.575 44.1412 105.154 44.5234 102.508V102.508C42.8798 103.056 42.063 104.953 43.0339 106.388C43.9977 107.812 45.0937 108.974 46.6267 110.246C47.9171 111.316 49.5696 111.855 51.2458 111.812C56.4406 111.679 59.0349 110.851 62.1257 108.72C61.1051 110.641 61.1618 111.76 61.9885 113.6C62.0605 113.76 62.2568 113.822 62.4077 113.731C64.0825 112.73 65.0039 111.892 66.2674 109.756C66.2154 114.032 66.9843 113.977 70.4091 114.933C67.5194 110.86 68.0525 109.221 70.1981 106.254C70.9958 105.151 72.1259 104.331 73.4053 103.866L78.5776 101.985C81.3342 100.982 84.3487 100.942 87.1313 101.869L104.173 107.55C104.307 107.435 104.442 107.326 104.578 107.223V104.508C104.578 103.403 105.474 102.508 106.578 102.508H108.791C109.896 102.508 110.791 103.403 110.791 104.508V105.614H111.826V103.472C111.826 102.368 110.931 101.472 109.826 101.472H105.543C104.438 101.472 103.543 102.368 103.543 103.472V106.65C98.7736 103.748 93.5321 101.584 86.7257 99.7769C82.8456 98.747 78.7534 99.0145 74.9328 100.247L50.7125 108.06Z" fill="url(#paint0_radial_692_182)"/>
<path fill-rule="evenodd" clip-rule="evenodd" d="M118.039 111.827V108.721C115.458 105.74 114.163 105.799 111.826 105.614H110.791C108.063 105.589 106.222 105.979 104.578 107.223V107.685L104.173 107.55C103.27 108.327 102.409 109.382 101.472 110.791C94.4225 108.167 92.2419 105.859 84.6304 104.117C82.7927 103.696 80.8379 103.854 79.1733 104.739C77.1406 105.82 75.7478 107.075 74.4004 109.235C73.7976 110.201 73.7049 111.42 74.2146 112.438C75.0495 114.107 76.2498 115.417 79.1376 117.128C80.1186 117.709 81.3505 117.62 82.2784 116.957L86.28 114.099C87.2184 113.429 87.4128 112.09 86.6211 111.251C84.8302 109.354 83.7227 109.09 81.7989 109.756C83.0242 110.067 83.7473 110.456 84.396 111.688C84.7596 112.378 84.5518 113.216 84 113.767L82.2754 115.492C81.3706 116.397 79.9663 116.664 78.9055 115.948C77.3915 114.927 76.4781 113.802 75.4876 112.283C74.8937 111.372 74.8539 110.185 75.48 109.296C77.188 106.871 79.0763 106.022 82.8343 105.614C87.5138 105.758 93.9734 109.592 101.472 112.862C101.61 115.305 101.827 117.608 105.43 119.531C106.15 119.915 107.027 119.733 107.604 119.156L110.252 116.508C110.55 116.21 110.55 115.727 110.252 115.429V115.429C109.971 115.149 109.521 115.134 109.21 115.381C104.882 118.812 103.349 117.017 102.508 112.862C108.784 113.743 111.6 112.063 112.862 106.65H114.933L118.039 111.827ZM102.508 111.827C105.324 107.593 107.416 106.549 111.826 106.65C109.581 111.782 107.623 113.001 102.508 111.827Z" fill="url(#paint1_radial_692_182)"/>
<path d="M118.039 114.933V111.827C116.112 115.763 116.189 118.074 110.791 119.075C111.96 121.038 112.806 121.636 114.933 121.146C115.324 125.201 115.717 127.472 118.039 131.5V125.287C116.703 121.107 116.952 118.865 118.039 114.933Z" fill="url(#paint2_radial_692_182)"/>
<path d="M115.968 98.3662C116.06 94.792 116.696 93.3936 118.039 91.1182V105.614C115.722 100.811 114.342 99.4138 111.826 99.4015C113.364 97.8121 114.276 97.3638 115.968 98.3662Z" fill="url(#paint3_radial_692_182)"/>
<path d="M185.366 108.06C186.689 108.487 188.157 108.504 189.361 107.809C191.499 106.575 191.937 105.154 191.555 102.508V102.508C193.198 103.056 194.015 104.953 193.044 106.388C192.08 107.812 190.984 108.974 189.451 110.246C188.161 111.316 186.509 111.855 184.832 111.812C179.637 111.679 177.043 110.851 173.952 108.72C174.973 110.641 174.916 111.76 174.09 113.6C174.018 113.76 173.821 113.822 173.67 113.731C171.996 112.73 171.074 111.892 169.811 109.756C169.863 114.032 169.094 113.977 165.669 114.933C168.559 110.86 168.026 109.221 165.88 106.254C165.082 105.151 163.952 104.331 162.673 103.866L157.5 101.985C154.744 100.982 151.729 100.942 148.947 101.869L131.905 107.55C131.771 107.435 131.636 107.326 131.5 107.223V104.508C131.5 103.403 130.604 102.508 129.5 102.508H127.287C126.183 102.508 125.287 103.403 125.287 104.508V105.614H124.252V103.472C124.252 102.368 125.147 101.472 126.252 101.472H130.535C131.64 101.472 132.535 102.368 132.535 103.472V106.65C137.304 103.748 142.546 101.584 149.352 99.7769C153.232 98.747 157.325 99.0145 161.145 100.247L185.366 108.06Z" fill="url(#paint4_radial_692_182)"/>
<path fill-rule="evenodd" clip-rule="evenodd" d="M118.039 111.827V108.721C120.62 105.74 121.915 105.799 124.252 105.614H125.287C128.015 105.589 129.856 105.979 131.5 107.223V107.685L131.905 107.55C132.808 108.327 133.669 109.382 134.606 110.791C141.656 108.167 143.836 105.859 151.448 104.117C153.285 103.696 155.24 103.854 156.905 104.739C158.938 105.82 160.33 107.075 161.678 109.235C162.281 110.201 162.373 111.42 161.863 112.438C161.029 114.107 159.828 115.417 156.941 117.128C155.96 117.709 154.728 117.62 153.8 116.957L149.798 114.099C148.86 113.429 148.665 112.09 149.457 111.251C151.248 109.354 152.355 109.09 154.279 109.756C153.054 110.067 152.331 110.456 151.682 111.688C151.319 112.378 151.526 113.216 152.078 113.767L153.803 115.492C154.708 116.397 156.112 116.664 157.173 115.948C158.687 114.927 159.6 113.802 160.591 112.283C161.184 111.372 161.224 110.185 160.598 109.296C158.89 106.871 157.002 106.022 153.244 105.614C148.564 105.758 142.105 109.592 134.606 112.862C134.468 115.305 134.251 117.608 130.648 119.531C129.928 119.915 129.051 119.733 128.474 119.156L125.826 116.508C125.528 116.21 125.528 115.727 125.826 115.429V115.429C126.107 115.149 126.557 115.134 126.868 115.381C131.196 118.812 132.729 117.017 133.571 112.862C127.294 113.743 124.478 112.063 123.216 106.65H121.145L118.039 111.827ZM133.571 111.827C130.754 107.593 128.662 106.549 124.252 106.65C126.497 111.782 128.455 113.001 133.571 111.827Z" fill="url(#paint5_radial_692_182)"/>
<path d="M118.039 114.933V111.827C119.967 115.763 119.889 118.074 125.287 119.075C124.119 121.038 123.273 121.636 121.145 121.146C120.754 125.201 120.361 127.472 118.039 131.5V125.287C119.375 121.107 119.126 118.865 118.039 114.933Z" fill="url(#paint6_radial_692_182)"/>
<path d="M120.11 98.3662C120.019 94.792 119.382 93.3936 118.039 91.1182V105.614C120.356 100.811 121.736 99.4138 124.252 99.4015C122.714 97.8121 121.802 97.3638 120.11 98.3662Z" fill="url(#paint7_radial_692_182)"/>
<path d="M73.8438 74.9141C73.8438 74.9141 73.4427 74.9355 72.6406 74.9785C71.8529 75.0072 70.6641 75.0573 69.0742 75.1289C69.0456 75.1003 69.0312 74.9857 69.0312 74.7852C69.0312 74.2409 69.1029 73.9688 69.2461 73.9688C69.4609 73.9688 69.7832 73.9186 70.2129 73.8184C70.6426 73.7038 71.0508 73.5677 71.4375 73.4102C71.8242 73.2383 72.0534 73.0664 72.125 72.8945C72.526 72.0781 72.8984 70.7461 73.2422 68.8984L76.3359 52.9141C76.7083 50.8229 76.8659 49.4909 76.8086 48.918C76.7943 48.7604 76.6296 48.6029 76.3145 48.4453C75.9993 48.2878 75.6556 48.1589 75.2832 48.0586C74.9108 47.944 74.6172 47.8867 74.4023 47.8867C74.3451 47.8867 74.3164 47.8294 74.3164 47.7148C74.3164 47.2565 74.4167 46.9271 74.6172 46.7266C75.276 46.7552 75.985 46.7767 76.7441 46.791C77.5176 46.8053 78.3411 46.8125 79.2148 46.8125C79.7878 46.8125 80.5684 46.7982 81.5566 46.7695C82.5592 46.7409 83.7695 46.6979 85.1875 46.6406C86.6055 46.5833 87.8587 46.5404 88.9473 46.5117C90.0358 46.4831 90.9596 46.4688 91.7188 46.4688C91.7044 46.6693 91.6901 46.9128 91.6758 47.1992C91.6758 47.4714 91.6758 47.7865 91.6758 48.1445C91.6758 48.388 91.6758 48.6888 91.6758 49.0469C91.6901 49.3906 91.7044 49.7917 91.7188 50.25C91.7331 50.7083 91.7402 51.1094 91.7402 51.4531C91.7546 51.7969 91.7617 52.0833 91.7617 52.3125C91.6185 52.4557 91.3607 52.5273 90.9883 52.5273C90.6445 52.5273 90.4727 52.4271 90.4727 52.2266C90.3867 50.6224 90.0143 49.6055 89.3555 49.1758C88.6966 48.7461 87.651 48.5312 86.2188 48.5312H83.8984C81.8789 48.5312 80.7904 48.7174 80.6328 49.0898C80.3177 49.9492 80.0599 50.9089 79.8594 51.9688L78.4844 59.4883C78.4844 59.6602 78.6562 59.7604 79 59.7891C79.3438 59.8177 79.7018 59.832 80.0742 59.832H82.0078C82.9531 59.832 83.6979 59.8105 84.2422 59.7676C84.7865 59.7246 85.2161 59.61 85.5312 59.4238C85.8464 59.2376 86.1185 58.9368 86.3477 58.5215C86.5911 58.1061 86.8776 57.526 87.207 56.7812C87.293 56.5807 87.4935 56.4805 87.8086 56.4805C88.1523 56.4805 88.3672 56.5521 88.4531 56.6953L86.8633 64.9453C86.6771 65.0599 86.4766 65.1172 86.2617 65.1172C85.875 65.1172 85.6745 65.0026 85.6602 64.7734C85.6458 64.043 85.5885 63.4629 85.4883 63.0332C85.431 62.7611 85.3809 62.5677 85.3379 62.4531C85.2949 62.3385 85.1875 62.2096 85.0156 62.0664C84.7435 61.8372 83.3542 61.7227 80.8477 61.7227C78.9714 61.7227 77.9974 61.8516 77.9258 62.1094L76.4648 69.5C76.2357 70.6029 76.1211 71.7344 76.1211 72.8945C76.1211 73.1237 76.3646 73.3314 76.8516 73.5176C77.3385 73.7038 77.8255 73.8255 78.3125 73.8828L79.043 73.9688C79.1003 73.9688 79.1289 74.0833 79.1289 74.3125C79.1289 74.6849 79.043 74.957 78.8711 75.1289C77.5391 75.0573 76.4505 75.0072 75.6055 74.9785C74.7747 74.9355 74.1875 74.9141 73.8438 74.9141ZM100.227 56.3086C101.917 56.3086 103.227 56.8958 104.158 58.0703C105.089 59.2448 105.555 60.8633 105.555 62.9258C105.555 64.401 105.268 65.8691 104.695 67.3301C104.122 68.7767 103.37 70.0944 102.439 71.2832C101.508 72.472 100.484 73.4245 99.3672 74.1406C98.25 74.8568 97.1471 75.2148 96.0586 75.2148C94.3398 75.2148 93.0293 74.6562 92.127 73.5391C91.2246 72.4219 90.7734 70.832 90.7734 68.7695C90.7734 67.2799 91.0527 65.8047 91.6113 64.3438C92.1842 62.8685 92.9362 61.5293 93.8672 60.3262C94.7982 59.1087 95.8151 58.1348 96.918 57.4043C98.0352 56.6738 99.138 56.3086 100.227 56.3086ZM99.7109 58.0703C98.9948 58.0703 98.3001 58.3854 97.627 59.0156C96.9538 59.6315 96.3451 60.4408 95.8008 61.4434C95.2565 62.446 94.8268 63.5417 94.5117 64.7305C94.1966 65.9193 94.0391 67.0794 94.0391 68.2109C94.0391 69.8724 94.304 71.1615 94.834 72.0781C95.3639 72.9948 96.0299 73.4531 96.832 73.4531C97.5482 73.4531 98.2285 73.1452 98.873 72.5293C99.5319 71.8991 100.119 71.0827 100.635 70.0801C101.15 69.0632 101.551 67.9603 101.838 66.7715C102.139 65.5827 102.289 64.4154 102.289 63.2695C102.289 61.5794 102.06 60.2904 101.602 59.4023C101.143 58.5143 100.513 58.0703 99.7109 58.0703ZM109.938 56.9531H112.945L113.977 51.7109C114.062 51.4245 114.764 51.2812 116.082 51.2812C116.368 51.2812 116.626 51.2956 116.855 51.3242L115.781 56.9531H119.691C119.835 56.9531 119.906 57.1393 119.906 57.5117C119.906 57.8411 119.777 58.2565 119.52 58.7578H115.438L113.16 70.4453C113.074 70.7891 113.031 71.1471 113.031 71.5195C113.031 72.2357 113.174 72.5938 113.461 72.5938C113.819 72.5938 114.249 72.3431 114.75 71.8418C115.251 71.3262 115.681 70.8893 116.039 70.5312L116.297 70.2305C116.354 70.2305 116.462 70.3665 116.619 70.6387C116.777 70.9108 116.855 71.1042 116.855 71.2188C116.612 71.6341 116.168 72.1641 115.523 72.8086C114.893 73.4531 114.206 74.026 113.461 74.5273C112.716 75.0143 112.043 75.2578 111.441 75.2578C110.983 75.2578 110.625 75.0501 110.367 74.6348C110.109 74.2194 109.98 73.6823 109.98 73.0234C109.98 72.5938 110.081 71.8346 110.281 70.7461L112.602 58.7578H109.551C109.465 58.7578 109.422 58.6003 109.422 58.2852C109.422 57.9128 109.594 57.4688 109.938 56.9531ZM126.996 47.2422C127.426 47.2422 127.791 47.4141 128.092 47.7578C128.393 48.1016 128.543 48.5026 128.543 48.9609C128.543 49.6484 128.321 50.25 127.877 50.7656C127.433 51.2812 126.882 51.5391 126.223 51.5391C125.764 51.5391 125.406 51.36 125.148 51.002C124.891 50.6439 124.762 50.207 124.762 49.6914C124.762 49.0326 124.977 48.4596 125.406 47.9727C125.836 47.4857 126.366 47.2422 126.996 47.2422ZM125.75 56.3086C126.208 56.3086 126.566 56.5163 126.824 56.9316C127.082 57.347 127.211 57.8841 127.211 58.543C127.211 59.1302 127.125 59.8893 126.953 60.8203L125.062 70.4453C124.977 70.7891 124.934 71.1471 124.934 71.5195C124.934 72.2357 125.077 72.5938 125.363 72.5938C125.721 72.5938 126.151 72.3431 126.652 71.8418C127.154 71.3262 127.583 70.8893 127.941 70.5312L128.199 70.2305C128.257 70.2305 128.364 70.3665 128.521 70.6387C128.679 70.9108 128.758 71.1042 128.758 71.2188C128.514 71.6341 128.07 72.1641 127.426 72.8086C126.796 73.4531 126.108 74.026 125.363 74.5273C124.618 75.0143 123.945 75.2578 123.344 75.2578C122.885 75.2578 122.527 75.0501 122.27 74.6348C122.012 74.2194 121.883 73.6823 121.883 73.0234C121.883 72.5938 121.983 71.8346 122.184 70.7461L123.945 61.7656C124.089 60.9206 124.16 60.3477 124.16 60.0469C124.16 59.3307 124.017 58.9727 123.73 58.9727C123.559 58.9727 123.322 59.0872 123.021 59.3164C122.735 59.5456 122.456 59.8034 122.184 60.0898C121.911 60.362 121.711 60.5768 121.582 60.7344L121.367 60.9922C121.31 60.9922 121.202 60.8561 121.045 60.584C120.887 60.3118 120.809 60.1185 120.809 60.0039C121.038 59.6172 121.453 59.1374 122.055 58.5645C122.656 57.9772 123.301 57.4544 123.988 56.9961C124.676 56.5378 125.263 56.3086 125.75 56.3086ZM144.957 56.3086C146.389 56.3086 147.105 57.2539 147.105 59.1445C147.105 60.4766 146.905 62.0378 146.504 63.8281L145.086 70.4453C145 70.7891 144.957 71.1471 144.957 71.5195C144.957 72.2357 145.1 72.5938 145.387 72.5938C145.745 72.5938 146.174 72.3431 146.676 71.8418C147.177 71.3262 147.607 70.8893 147.965 70.5312L148.223 70.2305C148.28 70.2305 148.387 70.3665 148.545 70.6387C148.702 70.9108 148.781 71.1042 148.781 71.2188C148.538 71.6341 148.094 72.1641 147.449 72.8086C146.819 73.4531 146.132 74.026 145.387 74.5273C144.642 75.0143 143.969 75.2578 143.367 75.2578C142.909 75.2578 142.551 75.0501 142.293 74.6348C142.035 74.2194 141.906 73.6823 141.906 73.0234C141.906 72.5938 142.007 71.8346 142.207 70.7461L143.711 63.6562C143.911 62.6823 144.012 61.9089 144.012 61.3359C144.012 60.1042 143.74 59.4883 143.195 59.4883C142.723 59.4883 142.085 59.8464 141.283 60.5625C140.481 61.2643 139.643 62.2025 138.77 63.377C137.91 64.5514 137.13 65.862 136.428 67.3086C135.726 68.7409 135.232 70.1875 134.945 71.6484L134.215 75C133.828 75.1146 133.384 75.1719 132.883 75.1719C132.396 75.1719 131.909 75.1146 131.422 75L136.062 50.9805C136.32 49.7057 136.449 48.9466 136.449 48.7031C136.449 48.1589 135.576 47.8867 133.828 47.8867C133.742 47.8867 133.699 47.8008 133.699 47.6289C133.699 47.2852 133.814 46.9987 134.043 46.7695C135.905 46.5977 137.71 46.1966 139.457 45.5664C139.629 45.6523 139.715 45.9245 139.715 46.3828C139.715 46.5833 139.529 47.6576 139.156 49.6055L136.191 64.7734C136.464 64.2865 137.087 63.3984 138.061 62.1094C138.705 61.2643 139.45 60.3978 140.295 59.5098C141.154 58.6074 141.999 57.8483 142.83 57.2324C143.675 56.6165 144.384 56.3086 144.957 56.3086ZM163.477 56.3086C164.536 56.3086 165.582 56.4948 166.613 56.8672L163.992 70.4453C163.906 70.7891 163.863 71.1471 163.863 71.5195C163.863 72.2357 164.007 72.5938 164.293 72.5938C164.651 72.5938 165.081 72.3431 165.582 71.8418C166.083 71.3262 166.513 70.8893 166.871 70.5312L167.129 70.2305C167.186 70.2305 167.294 70.3665 167.451 70.6387C167.609 70.9108 167.688 71.1042 167.688 71.2188C167.444 71.6341 167 72.1641 166.355 72.8086C165.725 73.4531 165.038 74.026 164.293 74.5273C163.548 75.0143 162.875 75.2578 162.273 75.2578C161.815 75.2578 161.457 75.0501 161.199 74.6348C160.941 74.2194 160.812 73.6823 160.812 73.0234C160.812 72.5794 160.913 71.8203 161.113 70.7461L161.264 69.9941C161.307 69.7936 161.328 69.6719 161.328 69.6289C161.099 70.0586 160.77 70.5885 160.34 71.2188C159.91 71.8346 159.416 72.4505 158.857 73.0664C158.299 73.6823 157.712 74.1979 157.096 74.6133C156.48 75.0143 155.871 75.2148 155.27 75.2148C154.009 75.2148 153.014 74.6491 152.283 73.5176C151.553 72.3861 151.188 71.0182 151.188 69.4141C151.188 67.3659 151.796 65.3249 153.014 63.291C153.83 61.916 154.804 60.7057 155.936 59.6602C157.081 58.6146 158.306 57.7982 159.609 57.2109C160.913 56.6094 162.202 56.3086 163.477 56.3086ZM161.672 58.2852C160.827 58.2852 159.975 58.5859 159.115 59.1875C158.256 59.7747 157.468 60.5697 156.752 61.5723C156.036 62.5605 155.456 63.6634 155.012 64.8809C154.582 66.084 154.367 67.2943 154.367 68.5117C154.367 71.319 155.098 72.7227 156.559 72.7227C157.074 72.7227 157.633 72.4362 158.234 71.8633C158.836 71.2904 159.43 70.5312 160.018 69.5859C160.605 68.6406 161.12 67.6165 161.564 66.5137C162.023 65.3965 162.359 64.3008 162.574 63.2266L163.434 58.8438C163.09 58.4714 162.503 58.2852 161.672 58.2852Z" fill="url(#paint8_diamond_692_182)"/>
<path d="M0 14.4961C6.30012 20.0984 15.0791 19.1979 30.687 15.1421C32.2497 14.736 33.9168 14.9601 35.3059 15.7832L61.0905 31.063L35.3304 19.6141C33.9205 18.9874 32.3183 18.9353 30.8588 19.4358C12.5496 25.7159 4.73674 24.7283 0 14.4961Z" fill="url(#paint9_radial_692_182)"/>
<path d="M16.5669 25.8858C22.7094 27.5488 34.4861 19.1752 43.5027 24.2129C35.7991 20.3448 24.9274 34.7378 16.5669 25.8858Z" fill="url(#paint10_radial_692_182)"/>
<path d="M42.4528 34.1693C40.4746 32.9379 39.8039 31.791 39.5364 30.2054C39.314 28.8871 40.2138 27.6374 41.514 27.3262C46.4064 26.1551 49.6595 27.3172 54.8779 31.063C50.3759 26.3362 46.8249 25.2844 39.6469 25.78C38.7972 25.8387 38.0191 26.2751 37.5081 26.9564L36.1669 28.7446C35.6047 29.4943 35.6307 30.5432 36.2784 31.2205C38.4425 33.4837 39.9798 34.1156 42.4528 34.1693Z" fill="url(#paint11_radial_692_182)"/>
<path d="M61.0905 28.9921C48.8725 19.5072 53.131 18.6378 60.0551 10.3543C56.6285 8.93238 54.8937 8.83857 52.8071 12.4252C51.2879 8.29387 49.7783 6.42726 45.559 4.14173C43.8524 8.52031 44.6321 10.6991 46.5945 14.4961C42.9378 12.0347 40.7471 11.3823 36.2402 13.4606C46.3046 17.727 45.2926 18.8748 61.0905 28.9921Z" fill="url(#paint12_radial_692_182)"/>
<path d="M78.6929 22.7441C78.6929 22.1918 79.1406 21.7441 79.6929 21.7441H79.7638C80.3161 21.7441 80.7638 22.1918 80.7638 22.7441V25.9213C80.7638 26.4735 80.3161 26.9213 79.7638 26.9213H74.4803C73.3757 26.9213 72.4803 26.0258 72.4803 24.9213V19.6024C72.4803 18.4978 73.3757 17.6024 74.4803 17.6024H78.7281C80.6137 17.6024 82.4755 18.023 84.178 18.8337V18.8337C85.2965 19.3663 86.1249 20.3629 86.4441 21.5599L88.3399 28.6695C89.2063 31.9182 86.6836 35.0788 83.3237 34.9544L68.0679 34.3894C64.7776 34.2675 62.2002 31.5169 62.2923 28.2256L62.6948 13.8426C62.7856 10.5955 65.4441 8.01038 68.6924 8.01038H83.0387C86.0229 8.01038 88.8896 9.21712 90.915 11.4088C101.807 23.194 109.097 33.3225 115.395 32.2299C115.685 32.1796 115.968 32.3916 115.968 32.686V32.686C115.968 32.9325 115.766 33.1318 115.519 33.1285C109.37 33.045 105.37 32.4313 87.653 13.254C86.5367 12.0456 85.0793 11.1983 83.4735 10.8414L77.8584 9.59364C77.0431 9.41248 76.199 9.4035 75.3801 9.56728L71.091 10.4251C68.2865 10.986 66.2677 13.4485 66.2677 16.3086V27.0984C66.2677 29.8599 68.5063 32.0984 71.2677 32.0984H80.9055C83.1146 32.0984 84.9055 30.3076 84.9055 28.0984V22.6378C84.9055 20.4287 83.1146 18.6378 80.9055 18.6378H76.5512C75.4466 18.6378 74.5512 19.5332 74.5512 20.6378V24.8858C74.5512 25.4381 74.9989 25.8858 75.5512 25.8858H77.6929C78.2452 25.8858 78.6929 25.4381 78.6929 24.8858V22.7441Z" fill="url(#paint13_radial_692_182)"/>
<path d="M104.412 33.0631C96.4743 29.9513 88.3242 12.4066 78.6929 13.4606C91.6665 19.2326 92.9183 31.4785 104.412 33.0631Z" fill="url(#paint14_radial_692_182)"/>
<path d="M111.827 30.0276C106.485 21.6827 106.361 16.9143 110.791 8.28346C105.363 9.71409 97.6256 19.5114 111.827 30.0276Z" fill="url(#paint15_radial_692_182)"/>
<path d="M118.039 10.3543C113.102 14.0549 110.405 23.2793 118.039 32.0984C106.33 25.6888 109.793 12.7713 118.039 0V10.3543Z" fill="url(#paint16_radial_692_182)"/>
<path d="M236.079 14.4961C229.779 20.0984 221 19.1979 205.392 15.1421C203.829 14.736 202.162 14.9601 200.773 15.7832L174.989 31.063L200.749 19.6141C202.159 18.9874 203.761 18.9353 205.22 19.4358C223.529 25.7159 231.342 24.7283 236.079 14.4961Z" fill="url(#paint17_radial_692_182)"/>
<path d="M219.512 25.8858C213.37 27.5488 201.593 19.1752 192.576 24.2129C200.28 20.3448 211.152 34.7378 219.512 25.8858Z" fill="url(#paint18_radial_692_182)"/>
<path d="M193.626 34.1693C195.605 32.9379 196.275 31.791 196.543 30.2054C196.765 28.8871 195.865 27.6374 194.565 27.3262C189.673 26.1551 186.42 27.3172 181.201 31.063C185.703 26.3362 189.254 25.2844 196.432 25.78C197.282 25.8387 198.06 26.2751 198.571 26.9564L199.912 28.7446C200.474 29.4943 200.448 30.5432 199.801 31.2205C197.637 33.4837 196.099 34.1156 193.626 34.1693Z" fill="url(#paint19_radial_692_182)"/>
<path d="M174.989 28.9921C187.207 19.5072 182.948 18.6378 176.024 10.3543C179.451 8.93238 181.185 8.83857 183.272 12.4252C184.791 8.29387 186.301 6.42726 190.52 4.14173C192.227 8.52031 191.447 10.6991 189.485 14.4961C193.141 12.0347 195.332 11.3823 199.839 13.4606C189.775 17.727 190.787 18.8748 174.989 28.9921Z" fill="url(#paint20_radial_692_182)"/>
<path d="M157.386 22.7441C157.386 22.1918 156.938 21.7441 156.386 21.7441H156.315C155.763 21.7441 155.315 22.1918 155.315 22.7441V25.9213C155.315 26.4735 155.763 26.9213 156.315 26.9213H161.599C162.703 26.9213 163.599 26.0258 163.599 24.9213V19.6024C163.599 18.4978 162.703 17.6024 161.599 17.6024H157.351C155.465 17.6024 153.604 18.023 151.901 18.8337V18.8337C150.783 19.3663 149.954 20.3629 149.635 21.5599L147.739 28.6695C146.873 31.9182 149.396 35.0788 152.755 34.9544L168.011 34.3894C171.301 34.2675 173.879 31.5169 173.787 28.2256L173.384 13.8426C173.293 10.5955 170.635 8.01038 167.387 8.01038H153.04C150.056 8.01038 147.19 9.21712 145.164 11.4088C134.273 23.194 126.982 33.3225 120.684 32.2299C120.394 32.1796 120.111 32.3916 120.111 32.686V32.686C120.111 32.9325 120.313 33.1318 120.56 33.1285C126.709 33.045 130.709 32.4313 148.426 13.254C149.542 12.0456 151 11.1983 152.606 10.8414L158.221 9.59364C159.036 9.41248 159.88 9.4035 160.699 9.56728L164.988 10.4251C167.793 10.986 169.811 13.4485 169.811 16.3086V27.0984C169.811 29.8599 167.573 32.0984 164.811 32.0984H155.174C152.964 32.0984 151.174 30.3076 151.174 28.0984V22.6378C151.174 20.4287 152.964 18.6378 155.174 18.6378H159.528C160.633 18.6378 161.528 19.5332 161.528 20.6378V24.8858C161.528 25.4381 161.08 25.8858 160.528 25.8858H158.386C157.834 25.8858 157.386 25.4381 157.386 24.8858V22.7441Z" fill="url(#paint21_radial_692_182)"/>
<path d="M131.667 33.0631C139.605 29.9513 147.755 12.4066 157.386 13.4606C144.413 19.2326 143.161 31.4785 131.667 33.0631Z" fill="url(#paint22_radial_692_182)"/>
<path d="M124.252 30.0276C129.594 21.6827 129.718 16.9143 125.288 8.28346C130.716 9.71409 138.454 19.5114 124.252 30.0276Z" fill="url(#paint23_radial_692_182)"/>
<path d="M118.04 10.3543C122.977 14.0549 125.674 23.2793 118.04 32.0984C129.75 25.6888 126.286 12.7713 118.04 0V10.3543Z" fill="url(#paint24_radial_692_182)"/>
<defs>
<radialGradient id="paint0_radial_692_182" cx="0" cy="0" r="1" gradientUnits="userSpaceOnUse" gradientTransform="translate(79.728 111.309) scale(38.311 20.1909)">
<stop stop-color="#E1E1E1"/>
<stop offset="1" stop-color="#FFF4DA"/>
</radialGradient>
<radialGradient id="paint1_radial_692_182" cx="0" cy="0" r="1" gradientUnits="userSpaceOnUse" gradientTransform="translate(79.728 111.309) scale(38.311 20.1909)">
<stop stop-color="#E1E1E1"/>
<stop offset="1" stop-color="#FFF4DA"/>
</radialGradient>
<radialGradient id="paint2_radial_692_182" cx="0" cy="0" r="1" gradientUnits="userSpaceOnUse" gradientTransform="translate(79.728 111.309) scale(38.311 20.1909)">
<stop stop-color="#E1E1E1"/>
<stop offset="1" stop-color="#FFF4DA"/>
</radialGradient>
<radialGradient id="paint3_radial_692_182" cx="0" cy="0" r="1" gradientUnits="userSpaceOnUse" gradientTransform="translate(79.728 111.309) scale(38.311 20.1909)">
<stop stop-color="#E1E1E1"/>
<stop offset="1" stop-color="#FFF4DA"/>
</radialGradient>
<radialGradient id="paint4_radial_692_182" cx="0" cy="0" r="1" gradientUnits="userSpaceOnUse" gradientTransform="translate(156.35 111.309) rotate(180) scale(38.311 20.1909)">
<stop stop-color="#E1E1E1"/>
<stop offset="1" stop-color="#FFF4DA"/>
</radialGradient>
<radialGradient id="paint5_radial_692_182" cx="0" cy="0" r="1" gradientUnits="userSpaceOnUse" gradientTransform="translate(156.35 111.309) rotate(180) scale(38.311 20.1909)">
<stop stop-color="#E1E1E1"/>
<stop offset="1" stop-color="#FFF4DA"/>
</radialGradient>
<radialGradient id="paint6_radial_692_182" cx="0" cy="0" r="1" gradientUnits="userSpaceOnUse" gradientTransform="translate(156.35 111.309) rotate(180) scale(38.311 20.1909)">
<stop stop-color="#E1E1E1"/>
<stop offset="1" stop-color="#FFF4DA"/>
</radialGradient>
<radialGradient id="paint7_radial_692_182" cx="0" cy="0" r="1" gradientUnits="userSpaceOnUse" gradientTransform="translate(156.35 111.309) rotate(180) scale(38.311 20.1909)">
<stop stop-color="#E1E1E1"/>
<stop offset="1" stop-color="#FFF4DA"/>
</radialGradient>
<radialGradient id="paint8_diamond_692_182" cx="0" cy="0" r="1" gradientUnits="userSpaceOnUse" gradientTransform="translate(118.909 63.0816) rotate(90) scale(40.4082 40)">
<stop stop-color="white"/>
<stop offset="1" stop-color="white"/>
</radialGradient>
<radialGradient id="paint9_radial_692_182" cx="0" cy="0" r="1" gradientUnits="userSpaceOnUse" gradientTransform="translate(59.0197 17.6024) scale(59.0197 17.6024)">
<stop stop-color="#E1E1E1"/>
<stop offset="1" stop-color="#FFF4DA"/>
</radialGradient>
<radialGradient id="paint10_radial_692_182" cx="0" cy="0" r="1" gradientUnits="userSpaceOnUse" gradientTransform="translate(59.0197 17.6024) scale(59.0197 17.6024)">
<stop stop-color="#E1E1E1"/>
<stop offset="1" stop-color="#FFF4DA"/>
</radialGradient>
<radialGradient id="paint11_radial_692_182" cx="0" cy="0" r="1" gradientUnits="userSpaceOnUse" gradientTransform="translate(59.0197 17.6024) scale(59.0197 17.6024)">
<stop stop-color="#E1E1E1"/>
<stop offset="1" stop-color="#FFF4DA"/>
</radialGradient>
<radialGradient id="paint12_radial_692_182" cx="0" cy="0" r="1" gradientUnits="userSpaceOnUse" gradientTransform="translate(59.0197 17.6024) scale(59.0197 17.6024)">
<stop stop-color="#E1E1E1"/>
<stop offset="1" stop-color="#FFF4DA"/>
</radialGradient>
<radialGradient id="paint13_radial_692_182" cx="0" cy="0" r="1" gradientUnits="userSpaceOnUse" gradientTransform="translate(59.0197 17.6024) scale(59.0197 17.6024)">
<stop stop-color="#E1E1E1"/>
<stop offset="1" stop-color="#FFF4DA"/>
</radialGradient>
<radialGradient id="paint14_radial_692_182" cx="0" cy="0" r="1" gradientUnits="userSpaceOnUse" gradientTransform="translate(59.0197 17.6024) scale(59.0197 17.6024)">
<stop stop-color="#E1E1E1"/>
<stop offset="1" stop-color="#FFF4DA"/>
</radialGradient>
<radialGradient id="paint15_radial_692_182" cx="0" cy="0" r="1" gradientUnits="userSpaceOnUse" gradientTransform="translate(59.0197 17.6024) scale(59.0197 17.6024)">
<stop stop-color="#E1E1E1"/>
<stop offset="1" stop-color="#FFF4DA"/>
</radialGradient>
<radialGradient id="paint16_radial_692_182" cx="0" cy="0" r="1" gradientUnits="userSpaceOnUse" gradientTransform="translate(59.0197 17.6024) scale(59.0197 17.6024)">
<stop stop-color="#E1E1E1"/>
<stop offset="1" stop-color="#FFF4DA"/>
</radialGradient>
<radialGradient id="paint17_radial_692_182" cx="0" cy="0" r="1" gradientUnits="userSpaceOnUse" gradientTransform="translate(177.059 17.6024) rotate(180) scale(59.0197 17.6024)">
<stop stop-color="#E1E1E1"/>
<stop offset="1" stop-color="#FFF4DA"/>
</radialGradient>
<radialGradient id="paint18_radial_692_182" cx="0" cy="0" r="1" gradientUnits="userSpaceOnUse" gradientTransform="translate(177.059 17.6024) rotate(180) scale(59.0197 17.6024)">
<stop stop-color="#E1E1E1"/>
<stop offset="1" stop-color="#FFF4DA"/>
</radialGradient>
<radialGradient id="paint19_radial_692_182" cx="0" cy="0" r="1" gradientUnits="userSpaceOnUse" gradientTransform="translate(177.059 17.6024) rotate(180) scale(59.0197 17.6024)">
<stop stop-color="#E1E1E1"/>
<stop offset="1" stop-color="#FFF4DA"/>
</radialGradient>
<radialGradient id="paint20_radial_692_182" cx="0" cy="0" r="1" gradientUnits="userSpaceOnUse" gradientTransform="translate(177.059 17.6024) rotate(180) scale(59.0197 17.6024)">
<stop stop-color="#E1E1E1"/>
<stop offset="1" stop-color="#FFF4DA"/>
</radialGradient>
<radialGradient id="paint21_radial_692_182" cx="0" cy="0" r="1" gradientUnits="userSpaceOnUse" gradientTransform="translate(177.059 17.6024) rotate(180) scale(59.0197 17.6024)">
<stop stop-color="#E1E1E1"/>
<stop offset="1" stop-color="#FFF4DA"/>
</radialGradient>
<radialGradient id="paint22_radial_692_182" cx="0" cy="0" r="1" gradientUnits="userSpaceOnUse" gradientTransform="translate(177.059 17.6024) rotate(180) scale(59.0197 17.6024)">
<stop stop-color="#E1E1E1"/>
<stop offset="1" stop-color="#FFF4DA"/>
</radialGradient>
<radialGradient id="paint23_radial_692_182" cx="0" cy="0" r="1" gradientUnits="userSpaceOnUse" gradientTransform="translate(177.059 17.6024) rotate(180) scale(59.0197 17.6024)">
<stop stop-color="#E1E1E1"/>
<stop offset="1" stop-color="#FFF4DA"/>
</radialGradient>
<radialGradient id="paint24_radial_692_182" cx="0" cy="0" r="1" gradientUnits="userSpaceOnUse" gradientTransform="translate(177.059 17.6024) rotate(180) scale(59.0197 17.6024)">
<stop stop-color="#E1E1E1"/>
<stop offset="1" stop-color="#FFF4DA"/>
</radialGradient>
</defs>
</svg>
