<svg width="237" height="132" viewBox="0 0 237 132" fill="none" xmlns="http://www.w3.org/2000/svg">
<path d="M50.713 108.06C49.3894 108.487 47.9219 108.504 46.7174 107.809C44.5799 106.575 44.1417 105.154 44.5239 102.508V102.508C42.8803 103.056 42.0634 104.953 43.0344 106.388C43.9981 107.812 45.0942 108.974 46.6272 110.246C47.9176 111.316 49.57 111.855 51.2463 111.812C56.4411 111.679 59.0354 110.851 62.1261 108.72C61.1055 110.641 61.1623 111.76 61.9889 113.6C62.061 113.76 62.2573 113.822 62.4081 113.731C64.083 112.73 65.0044 111.892 66.2679 109.756C66.2159 114.032 66.9848 113.977 70.4096 114.933C67.5199 110.86 68.053 109.221 70.1985 106.254C70.9963 105.151 72.1264 104.331 73.4058 103.866L78.5781 101.985C81.3347 100.982 84.3491 100.942 87.1317 101.869L104.174 107.55C104.308 107.435 104.443 107.326 104.579 107.223V104.508C104.579 103.403 105.474 102.508 106.579 102.508H108.791C109.896 102.508 110.791 103.403 110.791 104.508V105.614H111.827V103.472C111.827 102.368 110.931 101.472 109.827 101.472H105.543C104.439 101.472 103.543 102.368 103.543 103.472V106.65C98.7741 103.748 93.5326 101.584 86.7262 99.7769C82.8461 98.747 78.7539 99.0145 74.9333 100.247L50.713 108.06Z" fill="url(#paint0_radial_692_1464)"/>
<path fill-rule="evenodd" clip-rule="evenodd" d="M118.04 111.827V108.721C115.458 105.74 114.164 105.799 111.827 105.614H110.791C108.063 105.589 106.223 105.979 104.579 107.223V107.685L104.174 107.55C103.27 108.327 102.41 109.382 101.473 110.791C94.423 108.167 92.2423 105.859 84.6309 104.117C82.7932 103.696 80.8384 103.854 79.1738 104.739C77.1411 105.82 75.7483 107.075 74.4009 109.235C73.7981 110.201 73.7054 111.42 74.2151 112.438C75.05 114.107 76.2503 115.417 79.1381 117.128C80.1191 117.709 81.351 117.62 82.2789 116.957L86.2804 114.099C87.2189 113.429 87.4133 112.09 86.6216 111.251C84.8307 109.354 83.7232 109.09 81.7994 109.756C83.0247 110.067 83.7478 110.456 84.3965 111.688C84.7601 112.378 84.5523 113.216 84.0005 113.767L82.2759 115.492C81.3711 116.397 79.9668 116.664 78.906 115.948C77.392 114.927 76.4786 113.802 75.488 112.283C74.8942 111.372 74.8544 110.185 75.4804 109.296C77.1885 106.871 79.0768 106.022 82.8348 105.614C87.5143 105.758 93.9739 109.592 101.473 112.862C101.611 115.305 101.827 117.608 105.431 119.531C106.15 119.915 107.027 119.733 107.604 119.156L110.252 116.508C110.55 116.21 110.55 115.727 110.252 115.429V115.429C109.972 115.149 109.522 115.134 109.211 115.381C104.883 118.812 103.35 117.017 102.508 112.862C108.785 113.743 111.601 112.063 112.862 106.65H114.933L118.04 111.827ZM102.508 111.827C105.324 107.593 107.417 106.549 111.827 106.65C109.582 111.782 107.624 113.001 102.508 111.827Z" fill="url(#paint1_radial_692_1464)"/>
<path d="M118.04 114.933V111.827C116.112 115.763 116.189 118.074 110.791 119.075C111.96 121.038 112.806 121.636 114.933 121.146C115.325 125.201 115.718 127.472 118.04 131.5V125.287C116.703 121.107 116.953 118.865 118.04 114.933Z" fill="url(#paint2_radial_692_1464)"/>
<path d="M115.969 98.3662C116.06 94.792 116.696 93.3936 118.04 91.1182V105.614C115.723 100.811 114.342 99.4138 111.827 99.4015C113.365 97.8121 114.277 97.3638 115.969 98.3662Z" fill="url(#paint3_radial_692_1464)"/>
<path d="M185.366 108.06C186.69 108.487 188.157 108.504 189.362 107.809C191.499 106.575 191.937 105.154 191.555 102.508V102.508C193.199 103.056 194.016 104.953 193.045 106.388C192.081 107.812 190.985 108.974 189.452 110.246C188.161 111.316 186.509 111.855 184.833 111.812C179.638 111.679 177.044 110.851 173.953 108.72C174.974 110.641 174.917 111.76 174.09 113.6C174.018 113.76 173.822 113.822 173.671 113.731C171.996 112.73 171.075 111.892 169.811 109.756C169.863 114.032 169.094 113.977 165.669 114.933C168.559 110.86 168.026 109.221 165.881 106.254C165.083 105.151 163.953 104.331 162.673 103.866L157.501 101.985C154.744 100.982 151.73 100.942 148.947 101.869L131.905 107.55C131.771 107.435 131.636 107.326 131.5 107.223V104.508C131.5 103.403 130.605 102.508 129.5 102.508H127.288C126.183 102.508 125.288 103.403 125.288 104.508V105.614H124.252V103.472C124.252 102.368 125.148 101.472 126.252 101.472H130.536C131.64 101.472 132.536 102.368 132.536 103.472V106.65C137.305 103.748 142.547 101.584 149.353 99.7769C153.233 98.747 157.325 99.0145 161.146 100.247L185.366 108.06Z" fill="url(#paint4_radial_692_1464)"/>
<path fill-rule="evenodd" clip-rule="evenodd" d="M118.04 111.827V108.721C120.621 105.74 121.915 105.799 124.252 105.614H125.288C128.016 105.589 129.856 105.979 131.5 107.223V107.685L131.905 107.55C132.809 108.327 133.669 109.382 134.607 110.791C141.656 108.167 143.837 105.859 151.448 104.117C153.286 103.696 155.241 103.854 156.905 104.739C158.938 105.82 160.331 107.075 161.678 109.235C162.281 110.201 162.374 111.42 161.864 112.438C161.029 114.107 159.829 115.417 156.941 117.128C155.96 117.709 154.728 117.62 153.8 116.957L149.799 114.099C148.86 113.429 148.666 112.09 149.457 111.251C151.248 109.354 152.356 109.09 154.28 109.756C153.054 110.067 152.331 110.456 151.683 111.688C151.319 112.378 151.527 113.216 152.079 113.767L153.803 115.492C154.708 116.397 156.112 116.664 157.173 115.948C158.687 114.927 159.601 113.802 160.591 112.283C161.185 111.372 161.225 110.185 160.599 109.296C158.891 106.871 157.002 106.022 153.244 105.614C148.565 105.758 142.105 109.592 134.607 112.862C134.468 115.305 134.252 117.608 130.648 119.531C129.929 119.915 129.052 119.733 128.475 119.156L125.827 116.508C125.529 116.21 125.529 115.727 125.827 115.429V115.429C126.107 115.149 126.557 115.134 126.868 115.381C131.196 118.812 132.729 117.017 133.571 112.862C127.294 113.743 124.479 112.063 123.217 106.65H121.146L118.04 111.827ZM133.571 111.827C130.755 107.593 128.662 106.549 124.252 106.65C126.497 111.782 128.455 113.001 133.571 111.827Z" fill="url(#paint5_radial_692_1464)"/>
<path d="M118.04 114.933V111.827C119.967 115.763 119.89 118.074 125.288 119.075C124.119 121.038 123.273 121.636 121.146 121.146C120.755 125.201 120.362 127.472 118.04 131.5V125.287C119.376 121.107 119.126 118.865 118.04 114.933Z" fill="url(#paint6_radial_692_1464)"/>
<path d="M120.11 98.3662C120.019 94.792 119.383 93.3936 118.04 91.1182V105.614C120.356 100.811 121.737 99.4138 124.252 99.4015C122.714 97.8121 121.802 97.3638 120.11 98.3662Z" fill="url(#paint7_radial_692_1464)"/>
<path d="M66.8438 74.9141C66.8438 74.9141 66.4427 74.9355 65.6406 74.9785C64.8529 75.0072 63.6641 75.0573 62.0742 75.1289C62.0456 75.1003 62.0312 74.9857 62.0312 74.7852C62.0312 74.2409 62.1029 73.9688 62.2461 73.9688C62.4609 73.9688 62.7832 73.9186 63.2129 73.8184C63.6426 73.7038 64.0508 73.5677 64.4375 73.4102C64.8242 73.2383 65.0534 73.0664 65.125 72.8945C65.526 72.0781 65.8984 70.7461 66.2422 68.8984L69.3359 52.9141C69.7083 50.8229 69.8659 49.4909 69.8086 48.918C69.7943 48.7604 69.6296 48.6029 69.3145 48.4453C68.9993 48.2878 68.6556 48.1589 68.2832 48.0586C67.9108 47.944 67.6172 47.8867 67.4023 47.8867C67.3451 47.8867 67.3164 47.8294 67.3164 47.7148C67.3164 47.2565 67.4167 46.9271 67.6172 46.7266C68.276 46.7552 68.985 46.7767 69.7441 46.791C70.5176 46.8053 71.3411 46.8125 72.2148 46.8125C72.7878 46.8125 73.5684 46.7982 74.5566 46.7695C75.5592 46.7409 76.7695 46.6979 78.1875 46.6406C79.6055 46.5833 80.8587 46.5404 81.9473 46.5117C83.0358 46.4831 83.9596 46.4688 84.7188 46.4688C84.7044 46.6693 84.6901 46.9128 84.6758 47.1992C84.6758 47.4714 84.6758 47.7865 84.6758 48.1445C84.6758 48.388 84.6758 48.6888 84.6758 49.0469C84.6901 49.3906 84.7044 49.7917 84.7188 50.25C84.7331 50.7083 84.7402 51.1094 84.7402 51.4531C84.7546 51.7969 84.7617 52.0833 84.7617 52.3125C84.6185 52.4557 84.3607 52.5273 83.9883 52.5273C83.6445 52.5273 83.4727 52.4271 83.4727 52.2266C83.3867 50.6224 83.0143 49.6055 82.3555 49.1758C81.6966 48.7461 80.651 48.5312 79.2188 48.5312H76.8984C74.8789 48.5312 73.7904 48.7174 73.6328 49.0898C73.3177 49.9492 73.0599 50.9089 72.8594 51.9688L71.4844 59.4883C71.4844 59.6602 71.6562 59.7604 72 59.7891C72.3438 59.8177 72.7018 59.832 73.0742 59.832H75.0078C75.9531 59.832 76.6979 59.8105 77.2422 59.7676C77.7865 59.7246 78.2161 59.61 78.5312 59.4238C78.8464 59.2376 79.1185 58.9368 79.3477 58.5215C79.5911 58.1061 79.8776 57.526 80.207 56.7812C80.293 56.5807 80.4935 56.4805 80.8086 56.4805C81.1523 56.4805 81.3672 56.5521 81.4531 56.6953L79.8633 64.9453C79.6771 65.0599 79.4766 65.1172 79.2617 65.1172C78.875 65.1172 78.6745 65.0026 78.6602 64.7734C78.6458 64.043 78.5885 63.4629 78.4883 63.0332C78.431 62.7611 78.3809 62.5677 78.3379 62.4531C78.2949 62.3385 78.1875 62.2096 78.0156 62.0664C77.7435 61.8372 76.3542 61.7227 73.8477 61.7227C71.9714 61.7227 70.9974 61.8516 70.9258 62.1094L69.4648 69.5C69.2357 70.6029 69.1211 71.7344 69.1211 72.8945C69.1211 73.1237 69.3646 73.3314 69.8516 73.5176C70.3385 73.7038 70.8255 73.8255 71.3125 73.8828L72.043 73.9688C72.1003 73.9688 72.1289 74.0833 72.1289 74.3125C72.1289 74.6849 72.043 74.957 71.8711 75.1289C70.5391 75.0573 69.4505 75.0072 68.6055 74.9785C67.7747 74.9355 67.1875 74.9141 66.8438 74.9141ZM90.7773 56.3086C91.2357 56.3086 91.5938 56.5163 91.8516 56.9316C92.1094 57.347 92.2383 57.8841 92.2383 58.543C92.2383 59.3021 92.1523 60.0612 91.9805 60.8203L90.4766 67.9102C90.276 68.7839 90.1758 69.5573 90.1758 70.2305C90.1758 71.4622 90.4479 72.0781 90.9922 72.0781C91.3073 72.0781 91.694 71.8991 92.1523 71.541C92.625 71.1829 93.112 70.7246 93.6133 70.166C94.1289 69.6074 94.6087 69.0345 95.0527 68.4473C95.8691 67.373 96.6426 66.0625 97.373 64.5156C98.1035 62.9688 98.612 61.4362 98.8984 59.918L99.6289 56.5664C100.016 56.4518 100.46 56.3945 100.961 56.3945C101.448 56.3945 101.935 56.4518 102.422 56.5664L99.7578 70.4453C99.6719 70.7891 99.6289 71.1471 99.6289 71.5195C99.6289 72.2357 99.7721 72.5938 100.059 72.5938C100.417 72.5938 100.846 72.3431 101.348 71.8418C101.849 71.3262 102.279 70.8893 102.637 70.5312L102.895 70.2305C102.952 70.2305 103.059 70.3665 103.217 70.6387C103.374 70.9108 103.453 71.1042 103.453 71.2188C103.21 71.6341 102.766 72.1641 102.121 72.8086C101.491 73.4531 100.803 74.026 100.059 74.5273C99.3138 75.0143 98.6406 75.2578 98.0391 75.2578C97.5807 75.2578 97.2227 75.0501 96.9648 74.6348C96.707 74.2194 96.5781 73.6823 96.5781 73.0234C96.5781 72.5938 96.6784 71.8346 96.8789 70.7461L97.6523 66.793C97.3802 67.3086 96.793 68.1966 95.8906 69.457C95.3034 70.2734 94.5944 71.1328 93.7637 72.0352C92.9473 72.9375 92.1309 73.7038 91.3145 74.334C90.498 74.9499 89.8034 75.2578 89.2305 75.2578C87.7982 75.2578 87.082 74.3125 87.082 72.4219C87.082 71.0755 87.2826 69.5143 87.6836 67.7383L88.9727 61.7656C89.1159 60.7773 89.1875 60.2044 89.1875 60.0469C89.1875 59.3307 89.0443 58.9727 88.7578 58.9727C88.5143 58.9727 88.1491 59.2018 87.6621 59.6602C87.4329 59.8893 87.1823 60.14 86.9102 60.4121C86.6523 60.6842 86.4805 60.8776 86.3945 60.9922C86.3372 60.9922 86.2298 60.8561 86.0723 60.584C85.9147 60.3118 85.8359 60.1185 85.8359 60.0039C86.0651 59.6172 86.4805 59.1374 87.082 58.5645C87.6836 57.9772 88.3281 57.4544 89.0156 56.9961C89.7031 56.5378 90.2904 56.3086 90.7773 56.3086ZM111.789 56.3086C112.247 56.3086 112.605 56.5163 112.863 56.9316C113.121 57.347 113.25 57.8841 113.25 58.543C113.25 59.1732 113.164 59.9323 112.992 60.8203L112.305 64.4297C112.663 63.5846 113.121 62.6966 113.68 61.7656C114.253 60.8203 114.861 59.9323 115.506 59.1016C116.15 58.2708 116.788 57.5977 117.418 57.082C118.048 56.5664 118.607 56.3086 119.094 56.3086C120.068 56.3086 120.855 56.7669 121.457 57.6836C121.457 59.6029 120.927 60.5625 119.867 60.5625C119.638 60.5625 119.366 60.3835 119.051 60.0254C118.736 59.6673 118.406 59.4883 118.062 59.4883C117.647 59.4883 117.103 59.832 116.43 60.5195C115.757 61.207 115.062 62.1094 114.346 63.2266C113.63 64.3294 112.985 65.5254 112.412 66.8145C111.839 68.0892 111.445 69.3138 111.23 70.4883L110.414 75C109.927 75.0859 109.454 75.1289 108.996 75.1289C108.452 75.1289 107.922 75.0859 107.406 75L109.984 61.7656C110.128 60.7773 110.199 60.2044 110.199 60.0469C110.199 59.3307 110.056 58.9727 109.77 58.9727C109.526 58.9727 109.161 59.2018 108.674 59.6602C108.445 59.8893 108.194 60.14 107.922 60.4121C107.664 60.6842 107.492 60.8776 107.406 60.9922C107.349 60.9922 107.242 60.8561 107.084 60.584C106.926 60.3118 106.848 60.1185 106.848 60.0039C107.077 59.6172 107.492 59.1374 108.094 58.5645C108.695 57.9772 109.34 57.4544 110.027 56.9961C110.715 56.5378 111.302 56.3086 111.789 56.3086ZM134.562 56.3086C135.823 56.3086 136.969 56.4948 138 56.8672L135.379 70.4453L133.445 81.3164C133.388 81.7174 133.359 82.0182 133.359 82.2188C133.359 82.6914 133.51 83.0208 133.811 83.207C134.126 83.4076 134.634 83.5078 135.336 83.5078C135.393 83.5078 135.422 83.5938 135.422 83.7656C135.422 84.224 135.35 84.5677 135.207 84.7969C135.107 84.7969 134.985 84.7969 134.842 84.7969C134.699 84.7969 134.527 84.7897 134.326 84.7754C134.14 84.7611 133.975 84.7539 133.832 84.7539C133.689 84.7539 133.574 84.7539 133.488 84.7539C131.397 84.7539 129.32 84.8685 127.258 85.0977C127.258 85.026 127.251 84.9473 127.236 84.8613C127.222 84.7754 127.215 84.6823 127.215 84.582C127.215 84.0664 127.286 83.8086 127.43 83.8086C127.688 83.8086 127.967 83.7871 128.268 83.7441C128.568 83.7012 128.984 83.472 129.514 83.0566C130.044 82.6413 130.38 82.0612 130.523 81.3164L132.715 69.6289C132.514 69.9727 132.285 70.3307 132.027 70.7031C131.784 71.0612 131.512 71.4264 131.211 71.7988C130.81 72.3001 130.323 72.8158 129.75 73.3457C129.177 73.8757 128.59 74.3197 127.988 74.6777C127.401 75.0358 126.857 75.2148 126.355 75.2148C125.095 75.2148 124.092 74.6491 123.348 73.5176C122.603 72.3861 122.23 71.0182 122.23 69.4141C122.23 67.3802 122.846 65.3392 124.078 63.291C124.909 61.916 125.89 60.7057 127.021 59.6602C128.167 58.6146 129.392 57.7982 130.695 57.2109C131.999 56.6094 133.288 56.3086 134.562 56.3086ZM132.715 58.2852C131.784 58.2852 130.882 58.5788 130.008 59.166C129.134 59.7533 128.354 60.5267 127.666 61.4863C126.979 62.446 126.427 63.513 126.012 64.6875C125.611 65.8477 125.41 67.0078 125.41 68.168C125.41 71.2044 126.155 72.7227 127.645 72.7227C128.174 72.7227 128.755 72.4362 129.385 71.8633C130.029 71.276 130.66 70.5098 131.275 69.5645C131.891 68.6191 132.436 67.5951 132.908 66.4922C133.395 65.375 133.746 64.2865 133.961 63.2266L134.82 58.8438C134.477 58.4714 133.775 58.2852 132.715 58.2852ZM149.086 56.3086C150.776 56.3086 152.087 56.8958 153.018 58.0703C153.949 59.2448 154.414 60.8633 154.414 62.9258C154.414 64.401 154.128 65.8691 153.555 67.3301C152.982 68.7767 152.23 70.0944 151.299 71.2832C150.368 72.472 149.344 73.4245 148.227 74.1406C147.109 74.8568 146.007 75.2148 144.918 75.2148C143.199 75.2148 141.889 74.6562 140.986 73.5391C140.084 72.4219 139.633 70.832 139.633 68.7695C139.633 67.2799 139.912 65.8047 140.471 64.3438C141.044 62.8685 141.796 61.5293 142.727 60.3262C143.658 59.1087 144.674 58.1348 145.777 57.4043C146.895 56.6738 147.997 56.3086 149.086 56.3086ZM148.57 58.0703C147.854 58.0703 147.16 58.3854 146.486 59.0156C145.813 59.6315 145.204 60.4408 144.66 61.4434C144.116 62.446 143.686 63.5417 143.371 64.7305C143.056 65.9193 142.898 67.0794 142.898 68.2109C142.898 69.8724 143.163 71.1615 143.693 72.0781C144.223 72.9948 144.889 73.4531 145.691 73.4531C146.408 73.4531 147.088 73.1452 147.732 72.5293C148.391 71.8991 148.979 71.0827 149.494 70.0801C150.01 69.0632 150.411 67.9603 150.697 66.7715C150.998 65.5827 151.148 64.4154 151.148 63.2695C151.148 61.5794 150.919 60.2904 150.461 59.4023C150.003 58.5143 149.372 58.0703 148.57 58.0703ZM163.008 56.3086C163.466 56.3086 163.824 56.5163 164.082 56.9316C164.34 57.347 164.469 57.8841 164.469 58.543C164.469 59.1732 164.383 59.9323 164.211 60.8203L163.438 64.7734C163.71 64.2865 164.333 63.3984 165.307 62.1094C165.951 61.2643 166.696 60.3978 167.541 59.5098C168.4 58.6074 169.245 57.8483 170.076 57.2324C170.921 56.6165 171.63 56.3086 172.203 56.3086C173.635 56.3086 174.352 57.2539 174.352 59.1445C174.352 60.4766 174.151 62.0378 173.75 63.8281L172.332 70.4453C172.246 70.7891 172.203 71.1471 172.203 71.5195C172.203 72.2357 172.346 72.5938 172.633 72.5938C172.991 72.5938 173.421 72.3431 173.922 71.8418C174.423 71.3262 174.853 70.8893 175.211 70.5312L175.469 70.2305C175.526 70.2305 175.633 70.3665 175.791 70.6387C175.949 70.9108 176.027 71.1042 176.027 71.2188C175.784 71.6341 175.34 72.1641 174.695 72.8086C174.065 73.4531 173.378 74.026 172.633 74.5273C171.888 75.0143 171.215 75.2578 170.613 75.2578C170.155 75.2578 169.797 75.0501 169.539 74.6348C169.281 74.2194 169.152 73.6823 169.152 73.0234C169.152 72.5938 169.253 71.8346 169.453 70.7461L170.957 63.6562C171.158 62.6823 171.258 61.9089 171.258 61.3359C171.258 60.1042 170.986 59.4883 170.441 59.4883C169.969 59.4883 169.331 59.8464 168.529 60.5625C167.727 61.2643 166.889 62.2025 166.016 63.377C165.156 64.5514 164.376 65.862 163.674 67.3086C162.972 68.7409 162.478 70.1875 162.191 71.6484L161.461 75C161.074 75.1146 160.63 75.1719 160.129 75.1719C159.642 75.1719 159.155 75.1146 158.668 75L161.203 61.7656C161.346 60.7773 161.418 60.2044 161.418 60.0469C161.418 59.3307 161.275 58.9727 160.988 58.9727C160.745 58.9727 160.38 59.2018 159.893 59.6602C159.663 59.8893 159.413 60.14 159.141 60.4121C158.883 60.6842 158.711 60.8776 158.625 60.9922C158.568 60.9922 158.46 60.8561 158.303 60.584C158.145 60.3118 158.066 60.1185 158.066 60.0039C158.296 59.6172 158.711 59.1374 159.312 58.5645C159.914 57.9772 160.559 57.4544 161.246 56.9961C161.934 56.5378 162.521 56.3086 163.008 56.3086Z" fill="white"/>
<path d="M0 14.4961C6.30012 20.0984 15.0791 19.1979 30.687 15.1421C32.2497 14.736 33.9168 14.9601 35.3059 15.7832L61.0905 31.063L35.3304 19.6141C33.9205 18.9874 32.3183 18.9353 30.8588 19.4358C12.5496 25.7159 4.73674 24.7283 0 14.4961Z" fill="url(#paint8_radial_692_1464)"/>
<path d="M16.5669 25.8858C22.7094 27.5488 34.4861 19.1752 43.5027 24.2129C35.7991 20.3448 24.9274 34.7378 16.5669 25.8858Z" fill="url(#paint9_radial_692_1464)"/>
<path d="M42.4528 34.1693C40.4746 32.9379 39.8039 31.791 39.5364 30.2054C39.314 28.8871 40.2138 27.6374 41.514 27.3262C46.4064 26.1551 49.6595 27.3172 54.8779 31.063C50.3759 26.3362 46.8249 25.2844 39.6469 25.78C38.7972 25.8387 38.0191 26.2751 37.5081 26.9564L36.1669 28.7446C35.6047 29.4943 35.6307 30.5432 36.2784 31.2205C38.4425 33.4837 39.9798 34.1156 42.4528 34.1693Z" fill="url(#paint10_radial_692_1464)"/>
<path d="M61.0905 28.9921C48.8725 19.5072 53.131 18.6378 60.0551 10.3543C56.6285 8.93238 54.8937 8.83857 52.8071 12.4252C51.2879 8.29387 49.7783 6.42726 45.559 4.14173C43.8524 8.52031 44.6321 10.6991 46.5945 14.4961C42.9378 12.0347 40.7471 11.3823 36.2402 13.4606C46.3046 17.727 45.2926 18.8748 61.0905 28.9921Z" fill="url(#paint11_radial_692_1464)"/>
<path d="M78.6929 22.7441C78.6929 22.1918 79.1406 21.7441 79.6929 21.7441H79.7638C80.3161 21.7441 80.7638 22.1918 80.7638 22.7441V25.9213C80.7638 26.4735 80.3161 26.9213 79.7638 26.9213H74.4803C73.3757 26.9213 72.4803 26.0258 72.4803 24.9213V19.6024C72.4803 18.4978 73.3757 17.6024 74.4803 17.6024H78.7281C80.6137 17.6024 82.4755 18.023 84.178 18.8337V18.8337C85.2965 19.3663 86.1249 20.3629 86.4441 21.5599L88.3399 28.6695C89.2063 31.9182 86.6836 35.0788 83.3237 34.9544L68.0679 34.3894C64.7776 34.2675 62.2002 31.5169 62.2923 28.2256L62.6948 13.8426C62.7856 10.5955 65.4441 8.01038 68.6924 8.01038H83.0387C86.0229 8.01038 88.8896 9.21712 90.915 11.4088C101.807 23.194 109.097 33.3225 115.395 32.2299C115.685 32.1796 115.968 32.3916 115.968 32.686V32.686C115.968 32.9325 115.766 33.1318 115.519 33.1285C109.37 33.045 105.37 32.4313 87.653 13.254C86.5367 12.0456 85.0793 11.1983 83.4735 10.8414L77.8584 9.59364C77.0431 9.41248 76.199 9.4035 75.3801 9.56728L71.091 10.4251C68.2865 10.986 66.2677 13.4485 66.2677 16.3086V27.0984C66.2677 29.8599 68.5063 32.0984 71.2677 32.0984H80.9055C83.1146 32.0984 84.9055 30.3076 84.9055 28.0984V22.6378C84.9055 20.4287 83.1146 18.6378 80.9055 18.6378H76.5512C75.4466 18.6378 74.5512 19.5332 74.5512 20.6378V24.8858C74.5512 25.4381 74.9989 25.8858 75.5512 25.8858H77.6929C78.2452 25.8858 78.6929 25.4381 78.6929 24.8858V22.7441Z" fill="url(#paint12_radial_692_1464)"/>
<path d="M104.412 33.0631C96.4743 29.9513 88.3242 12.4066 78.6929 13.4606C91.6665 19.2326 92.9183 31.4785 104.412 33.0631Z" fill="url(#paint13_radial_692_1464)"/>
<path d="M111.827 30.0276C106.485 21.6827 106.361 16.9143 110.791 8.28346C105.363 9.71409 97.6256 19.5114 111.827 30.0276Z" fill="url(#paint14_radial_692_1464)"/>
<path d="M118.039 10.3543C113.102 14.0549 110.405 23.2793 118.039 32.0984C106.33 25.6888 109.793 12.7713 118.039 0V10.3543Z" fill="url(#paint15_radial_692_1464)"/>
<path d="M236.079 14.4961C229.778 20.0984 221 19.1979 205.392 15.1421C203.829 14.736 202.162 14.9601 200.773 15.7832L174.988 31.063L200.748 19.6141C202.158 18.9874 203.76 18.9353 205.22 19.4358C223.529 25.7159 231.342 24.7283 236.079 14.4961Z" fill="url(#paint16_radial_692_1464)"/>
<path d="M219.512 25.8858C213.369 27.5488 201.593 19.1752 192.576 24.2129C200.279 20.3448 211.151 34.7378 219.512 25.8858Z" fill="url(#paint17_radial_692_1464)"/>
<path d="M193.626 34.1693C195.604 32.9379 196.275 31.791 196.542 30.2054C196.765 28.8871 195.865 27.6374 194.565 27.3262C189.672 26.1551 186.419 27.3172 181.201 31.063C185.703 26.3362 189.254 25.2844 196.432 25.78C197.281 25.8387 198.06 26.2751 198.571 26.9564L199.912 28.7446C200.474 29.4943 200.448 30.5432 199.8 31.2205C197.636 33.4837 196.099 34.1156 193.626 34.1693Z" fill="url(#paint18_radial_692_1464)"/>
<path d="M174.988 28.9921C187.206 19.5072 182.948 18.6378 176.024 10.3543C179.45 8.93238 181.185 8.83857 183.272 12.4252C184.791 8.29387 186.3 6.42726 190.52 4.14173C192.226 8.52031 191.446 10.6991 189.484 14.4961C193.141 12.0347 195.331 11.3823 199.838 13.4606C189.774 17.727 190.786 18.8748 174.988 28.9921Z" fill="url(#paint19_radial_692_1464)"/>
<path d="M157.386 22.7441C157.386 22.1918 156.938 21.7441 156.386 21.7441H156.315C155.763 21.7441 155.315 22.1918 155.315 22.7441V25.9213C155.315 26.4735 155.763 26.9213 156.315 26.9213H161.598C162.703 26.9213 163.598 26.0258 163.598 24.9213V19.6024C163.598 18.4978 162.703 17.6024 161.598 17.6024H157.351C155.465 17.6024 153.603 18.023 151.901 18.8337V18.8337C150.782 19.3663 149.954 20.3629 149.635 21.5599L147.739 28.6695C146.872 31.9182 149.395 35.0788 152.755 34.9544L168.011 34.3894C171.301 34.2675 173.878 31.5169 173.786 28.2256L173.384 13.8426C173.293 10.5955 170.635 8.01038 167.386 8.01038H153.04C150.056 8.01038 147.189 9.21712 145.164 11.4088C134.272 23.194 126.982 33.3225 120.683 32.2299C120.393 32.1796 120.11 32.3916 120.11 32.686V32.686C120.11 32.9325 120.313 33.1318 120.559 33.1285C126.708 33.045 130.709 32.4313 148.426 13.254C149.542 12.0456 150.999 11.1983 152.605 10.8414L158.22 9.59364C159.035 9.41248 159.88 9.4035 160.698 9.56728L164.988 10.4251C167.792 10.986 169.811 13.4485 169.811 16.3086V27.0984C169.811 29.8599 167.572 32.0984 164.811 32.0984H155.173C152.964 32.0984 151.173 30.3076 151.173 28.0984V22.6378C151.173 20.4287 152.964 18.6378 155.173 18.6378H159.527C160.632 18.6378 161.527 19.5332 161.527 20.6378V24.8858C161.527 25.4381 161.08 25.8858 160.527 25.8858H158.386C157.833 25.8858 157.386 25.4381 157.386 24.8858V22.7441Z" fill="url(#paint20_radial_692_1464)"/>
<path d="M131.666 33.0631C139.604 29.9513 147.754 12.4066 157.386 13.4606C144.412 19.2326 143.16 31.4785 131.666 33.0631Z" fill="url(#paint21_radial_692_1464)"/>
<path d="M124.252 30.0276C129.594 21.6827 129.718 16.9143 125.287 8.28346C130.716 9.71409 138.453 19.5114 124.252 30.0276Z" fill="url(#paint22_radial_692_1464)"/>
<path d="M118.039 10.3543C122.976 14.0549 125.673 23.2793 118.039 32.0984C129.749 25.6888 126.286 12.7713 118.039 0V10.3543Z" fill="url(#paint23_radial_692_1464)"/>
<defs>
<radialGradient id="paint0_radial_692_1464" cx="0" cy="0" r="1" gradientUnits="userSpaceOnUse" gradientTransform="translate(79.7285 111.309) scale(38.311 20.1909)">
<stop stop-color="#E1E1E1"/>
<stop offset="1" stop-color="#FFF4DA"/>
</radialGradient>
<radialGradient id="paint1_radial_692_1464" cx="0" cy="0" r="1" gradientUnits="userSpaceOnUse" gradientTransform="translate(79.7285 111.309) scale(38.311 20.1909)">
<stop stop-color="#E1E1E1"/>
<stop offset="1" stop-color="#FFF4DA"/>
</radialGradient>
<radialGradient id="paint2_radial_692_1464" cx="0" cy="0" r="1" gradientUnits="userSpaceOnUse" gradientTransform="translate(79.7285 111.309) scale(38.311 20.1909)">
<stop stop-color="#E1E1E1"/>
<stop offset="1" stop-color="#FFF4DA"/>
</radialGradient>
<radialGradient id="paint3_radial_692_1464" cx="0" cy="0" r="1" gradientUnits="userSpaceOnUse" gradientTransform="translate(79.7285 111.309) scale(38.311 20.1909)">
<stop stop-color="#E1E1E1"/>
<stop offset="1" stop-color="#FFF4DA"/>
</radialGradient>
<radialGradient id="paint4_radial_692_1464" cx="0" cy="0" r="1" gradientUnits="userSpaceOnUse" gradientTransform="translate(156.351 111.309) rotate(180) scale(38.311 20.1909)">
<stop stop-color="#E1E1E1"/>
<stop offset="1" stop-color="#FFF4DA"/>
</radialGradient>
<radialGradient id="paint5_radial_692_1464" cx="0" cy="0" r="1" gradientUnits="userSpaceOnUse" gradientTransform="translate(156.351 111.309) rotate(180) scale(38.311 20.1909)">
<stop stop-color="#E1E1E1"/>
<stop offset="1" stop-color="#FFF4DA"/>
</radialGradient>
<radialGradient id="paint6_radial_692_1464" cx="0" cy="0" r="1" gradientUnits="userSpaceOnUse" gradientTransform="translate(156.351 111.309) rotate(180) scale(38.311 20.1909)">
<stop stop-color="#E1E1E1"/>
<stop offset="1" stop-color="#FFF4DA"/>
</radialGradient>
<radialGradient id="paint7_radial_692_1464" cx="0" cy="0" r="1" gradientUnits="userSpaceOnUse" gradientTransform="translate(156.351 111.309) rotate(180) scale(38.311 20.1909)">
<stop stop-color="#E1E1E1"/>
<stop offset="1" stop-color="#FFF4DA"/>
</radialGradient>
<radialGradient id="paint8_radial_692_1464" cx="0" cy="0" r="1" gradientUnits="userSpaceOnUse" gradientTransform="translate(59.0197 17.6024) scale(59.0197 17.6024)">
<stop stop-color="#E1E1E1"/>
<stop offset="1" stop-color="#FFF4DA"/>
</radialGradient>
<radialGradient id="paint9_radial_692_1464" cx="0" cy="0" r="1" gradientUnits="userSpaceOnUse" gradientTransform="translate(59.0197 17.6024) scale(59.0197 17.6024)">
<stop stop-color="#E1E1E1"/>
<stop offset="1" stop-color="#FFF4DA"/>
</radialGradient>
<radialGradient id="paint10_radial_692_1464" cx="0" cy="0" r="1" gradientUnits="userSpaceOnUse" gradientTransform="translate(59.0197 17.6024) scale(59.0197 17.6024)">
<stop stop-color="#E1E1E1"/>
<stop offset="1" stop-color="#FFF4DA"/>
</radialGradient>
<radialGradient id="paint11_radial_692_1464" cx="0" cy="0" r="1" gradientUnits="userSpaceOnUse" gradientTransform="translate(59.0197 17.6024) scale(59.0197 17.6024)">
<stop stop-color="#E1E1E1"/>
<stop offset="1" stop-color="#FFF4DA"/>
</radialGradient>
<radialGradient id="paint12_radial_692_1464" cx="0" cy="0" r="1" gradientUnits="userSpaceOnUse" gradientTransform="translate(59.0197 17.6024) scale(59.0197 17.6024)">
<stop stop-color="#E1E1E1"/>
<stop offset="1" stop-color="#FFF4DA"/>
</radialGradient>
<radialGradient id="paint13_radial_692_1464" cx="0" cy="0" r="1" gradientUnits="userSpaceOnUse" gradientTransform="translate(59.0197 17.6024) scale(59.0197 17.6024)">
<stop stop-color="#E1E1E1"/>
<stop offset="1" stop-color="#FFF4DA"/>
</radialGradient>
<radialGradient id="paint14_radial_692_1464" cx="0" cy="0" r="1" gradientUnits="userSpaceOnUse" gradientTransform="translate(59.0197 17.6024) scale(59.0197 17.6024)">
<stop stop-color="#E1E1E1"/>
<stop offset="1" stop-color="#FFF4DA"/>
</radialGradient>
<radialGradient id="paint15_radial_692_1464" cx="0" cy="0" r="1" gradientUnits="userSpaceOnUse" gradientTransform="translate(59.0197 17.6024) scale(59.0197 17.6024)">
<stop stop-color="#E1E1E1"/>
<stop offset="1" stop-color="#FFF4DA"/>
</radialGradient>
<radialGradient id="paint16_radial_692_1464" cx="0" cy="0" r="1" gradientUnits="userSpaceOnUse" gradientTransform="translate(177.059 17.6024) rotate(180) scale(59.0197 17.6024)">
<stop stop-color="#E1E1E1"/>
<stop offset="1" stop-color="#FFF4DA"/>
</radialGradient>
<radialGradient id="paint17_radial_692_1464" cx="0" cy="0" r="1" gradientUnits="userSpaceOnUse" gradientTransform="translate(177.059 17.6024) rotate(180) scale(59.0197 17.6024)">
<stop stop-color="#E1E1E1"/>
<stop offset="1" stop-color="#FFF4DA"/>
</radialGradient>
<radialGradient id="paint18_radial_692_1464" cx="0" cy="0" r="1" gradientUnits="userSpaceOnUse" gradientTransform="translate(177.059 17.6024) rotate(180) scale(59.0197 17.6024)">
<stop stop-color="#E1E1E1"/>
<stop offset="1" stop-color="#FFF4DA"/>
</radialGradient>
<radialGradient id="paint19_radial_692_1464" cx="0" cy="0" r="1" gradientUnits="userSpaceOnUse" gradientTransform="translate(177.059 17.6024) rotate(180) scale(59.0197 17.6024)">
<stop stop-color="#E1E1E1"/>
<stop offset="1" stop-color="#FFF4DA"/>
</radialGradient>
<radialGradient id="paint20_radial_692_1464" cx="0" cy="0" r="1" gradientUnits="userSpaceOnUse" gradientTransform="translate(177.059 17.6024) rotate(180) scale(59.0197 17.6024)">
<stop stop-color="#E1E1E1"/>
<stop offset="1" stop-color="#FFF4DA"/>
</radialGradient>
<radialGradient id="paint21_radial_692_1464" cx="0" cy="0" r="1" gradientUnits="userSpaceOnUse" gradientTransform="translate(177.059 17.6024) rotate(180) scale(59.0197 17.6024)">
<stop stop-color="#E1E1E1"/>
<stop offset="1" stop-color="#FFF4DA"/>
</radialGradient>
<radialGradient id="paint22_radial_692_1464" cx="0" cy="0" r="1" gradientUnits="userSpaceOnUse" gradientTransform="translate(177.059 17.6024) rotate(180) scale(59.0197 17.6024)">
<stop stop-color="#E1E1E1"/>
<stop offset="1" stop-color="#FFF4DA"/>
</radialGradient>
<radialGradient id="paint23_radial_692_1464" cx="0" cy="0" r="1" gradientUnits="userSpaceOnUse" gradientTransform="translate(177.059 17.6024) rotate(180) scale(59.0197 17.6024)">
<stop stop-color="#E1E1E1"/>
<stop offset="1" stop-color="#FFF4DA"/>
</radialGradient>
</defs>
</svg>
