<svg width="237" height="132" viewBox="0 0 237 132" fill="none" xmlns="http://www.w3.org/2000/svg">
<path d="M50.713 108.06C49.3894 108.487 47.9219 108.504 46.7174 107.809C44.5799 106.575 44.1417 105.154 44.5239 102.508V102.508C42.8803 103.056 42.0634 104.953 43.0344 106.388C43.9981 107.812 45.0942 108.974 46.6272 110.246C47.9176 111.316 49.57 111.855 51.2463 111.812C56.4411 111.679 59.0354 110.851 62.1261 108.72C61.1055 110.641 61.1623 111.76 61.9889 113.6C62.061 113.76 62.2573 113.822 62.4081 113.731C64.083 112.73 65.0044 111.892 66.2679 109.756C66.2159 114.032 66.9848 113.977 70.4096 114.933C67.5199 110.86 68.053 109.221 70.1985 106.254C70.9963 105.151 72.1264 104.331 73.4058 103.866L78.5781 101.985C81.3347 100.982 84.3491 100.942 87.1317 101.869L104.174 107.55C104.308 107.435 104.443 107.326 104.579 107.223V104.508C104.579 103.403 105.474 102.508 106.579 102.508H108.791C109.896 102.508 110.791 103.403 110.791 104.508V105.614H111.827V103.472C111.827 102.368 110.931 101.472 109.827 101.472H105.543C104.439 101.472 103.543 102.368 103.543 103.472V106.65C98.7741 103.748 93.5326 101.584 86.7262 99.7769C82.8461 98.747 78.7539 99.0145 74.9333 100.247L50.713 108.06Z" fill="url(#paint0_radial_692_1584)"/>
<path fill-rule="evenodd" clip-rule="evenodd" d="M118.04 111.827V108.721C115.458 105.74 114.164 105.799 111.827 105.614H110.791C108.063 105.589 106.223 105.979 104.579 107.223V107.685L104.174 107.55C103.27 108.327 102.41 109.382 101.473 110.791C94.423 108.167 92.2423 105.859 84.6309 104.117C82.7932 103.696 80.8384 103.854 79.1738 104.739C77.1411 105.82 75.7483 107.075 74.4009 109.235C73.7981 110.201 73.7054 111.42 74.2151 112.438C75.05 114.107 76.2503 115.417 79.1381 117.128C80.1191 117.709 81.351 117.62 82.2789 116.957L86.2804 114.099C87.2189 113.429 87.4133 112.09 86.6216 111.251C84.8307 109.354 83.7232 109.09 81.7994 109.756C83.0247 110.067 83.7478 110.456 84.3965 111.688C84.7601 112.378 84.5523 113.216 84.0005 113.767L82.2759 115.492C81.3711 116.397 79.9668 116.664 78.906 115.948C77.392 114.927 76.4786 113.802 75.488 112.283C74.8942 111.372 74.8544 110.185 75.4804 109.296C77.1885 106.871 79.0768 106.022 82.8348 105.614C87.5143 105.758 93.9739 109.592 101.473 112.862C101.611 115.305 101.827 117.608 105.431 119.531C106.15 119.915 107.027 119.733 107.604 119.156L110.252 116.508C110.55 116.21 110.55 115.727 110.252 115.429V115.429C109.972 115.149 109.522 115.134 109.211 115.381C104.883 118.812 103.35 117.017 102.508 112.862C108.785 113.743 111.601 112.063 112.862 106.65H114.933L118.04 111.827ZM102.508 111.827C105.324 107.593 107.417 106.549 111.827 106.65C109.582 111.782 107.624 113.001 102.508 111.827Z" fill="url(#paint1_radial_692_1584)"/>
<path d="M118.04 114.933V111.827C116.112 115.763 116.189 118.074 110.791 119.075C111.96 121.038 112.806 121.636 114.933 121.146C115.325 125.201 115.718 127.472 118.04 131.5V125.287C116.703 121.107 116.953 118.865 118.04 114.933Z" fill="url(#paint2_radial_692_1584)"/>
<path d="M115.969 98.3662C116.06 94.792 116.696 93.3936 118.04 91.1182V105.614C115.723 100.811 114.342 99.4138 111.827 99.4015C113.365 97.8121 114.277 97.3638 115.969 98.3662Z" fill="url(#paint3_radial_692_1584)"/>
<path d="M185.366 108.06C186.69 108.487 188.157 108.504 189.362 107.809C191.499 106.575 191.937 105.154 191.555 102.508V102.508C193.199 103.056 194.016 104.953 193.045 106.388C192.081 107.812 190.985 108.974 189.452 110.246C188.161 111.316 186.509 111.855 184.833 111.812C179.638 111.679 177.044 110.851 173.953 108.72C174.974 110.641 174.917 111.76 174.09 113.6C174.018 113.76 173.822 113.822 173.671 113.731C171.996 112.73 171.075 111.892 169.811 109.756C169.863 114.032 169.094 113.977 165.669 114.933C168.559 110.86 168.026 109.221 165.881 106.254C165.083 105.151 163.953 104.331 162.673 103.866L157.501 101.985C154.744 100.982 151.73 100.942 148.947 101.869L131.905 107.55C131.771 107.435 131.636 107.326 131.5 107.223V104.508C131.5 103.403 130.605 102.508 129.5 102.508H127.288C126.183 102.508 125.288 103.403 125.288 104.508V105.614H124.252V103.472C124.252 102.368 125.148 101.472 126.252 101.472H130.536C131.64 101.472 132.536 102.368 132.536 103.472V106.65C137.305 103.748 142.547 101.584 149.353 99.7769C153.233 98.747 157.325 99.0145 161.146 100.247L185.366 108.06Z" fill="url(#paint4_radial_692_1584)"/>
<path fill-rule="evenodd" clip-rule="evenodd" d="M118.04 111.827V108.721C120.621 105.74 121.915 105.799 124.252 105.614H125.288C128.016 105.589 129.856 105.979 131.5 107.223V107.685L131.905 107.55C132.809 108.327 133.669 109.382 134.607 110.791C141.656 108.167 143.837 105.859 151.448 104.117C153.286 103.696 155.241 103.854 156.905 104.739C158.938 105.82 160.331 107.075 161.678 109.235C162.281 110.201 162.374 111.42 161.864 112.438C161.029 114.107 159.829 115.417 156.941 117.128C155.96 117.709 154.728 117.62 153.8 116.957L149.799 114.099C148.86 113.429 148.666 112.09 149.457 111.251C151.248 109.354 152.356 109.09 154.28 109.756C153.054 110.067 152.331 110.456 151.683 111.688C151.319 112.378 151.527 113.216 152.079 113.767L153.803 115.492C154.708 116.397 156.112 116.664 157.173 115.948C158.687 114.927 159.601 113.802 160.591 112.283C161.185 111.372 161.225 110.185 160.599 109.296C158.891 106.871 157.002 106.022 153.244 105.614C148.565 105.758 142.105 109.592 134.607 112.862C134.468 115.305 134.252 117.608 130.648 119.531C129.929 119.915 129.052 119.733 128.475 119.156L125.827 116.508C125.529 116.21 125.529 115.727 125.827 115.429V115.429C126.107 115.149 126.557 115.134 126.868 115.381C131.196 118.812 132.729 117.017 133.571 112.862C127.294 113.743 124.479 112.063 123.217 106.65H121.146L118.04 111.827ZM133.571 111.827C130.755 107.593 128.662 106.549 124.252 106.65C126.497 111.782 128.455 113.001 133.571 111.827Z" fill="url(#paint5_radial_692_1584)"/>
<path d="M118.04 114.933V111.827C119.967 115.763 119.89 118.074 125.288 119.075C124.119 121.038 123.273 121.636 121.146 121.146C120.755 125.201 120.362 127.472 118.04 131.5V125.287C119.376 121.107 119.126 118.865 118.04 114.933Z" fill="url(#paint6_radial_692_1584)"/>
<path d="M120.11 98.3662C120.019 94.792 119.383 93.3936 118.04 91.1182V105.614C120.356 100.811 121.737 99.4138 124.252 99.4015C122.714 97.8121 121.802 97.3638 120.11 98.3662Z" fill="url(#paint7_radial_692_1584)"/>
<path d="M90.8633 46.3398C92.8255 46.3398 95.8763 46.9844 100.016 48.2734C99.5859 51.138 99.2852 53 99.1133 53.8594C99.099 54.1172 98.7695 54.2461 98.125 54.2461C97.8672 54.2461 97.7096 54.1745 97.6523 54.0312C97.6523 53.6016 97.638 53.222 97.6094 52.8926C97.5807 52.5632 97.4375 52.0762 97.1797 51.4316C96.9219 50.7728 96.571 50.2357 96.127 49.8203C95.6829 49.3906 94.9883 49.0039 94.043 48.6602C93.0977 48.3164 91.9661 48.1445 90.6484 48.1445C88.543 48.1445 86.5592 48.9251 84.6973 50.4863C83.4368 51.5176 82.3555 52.7422 81.4531 54.1602C80.5651 55.5638 79.8776 57.0534 79.3906 58.6289C78.9036 60.1901 78.6602 61.737 78.6602 63.2695C78.6602 65.1029 78.9824 66.793 79.627 68.3398C80.2715 69.8724 81.1953 71.1042 82.3984 72.0352C83.6159 72.9518 85.0625 73.4102 86.7383 73.4102C89.0872 73.4102 90.8776 73.0951 92.1094 72.4648C92.3385 72.3646 92.4961 72.1211 92.582 71.7344L93.7852 65.6328L93.8281 65.4609C93.9141 65.0885 93.957 64.7161 93.957 64.3438C93.957 64.1719 93.7637 64 93.377 63.8281C92.9902 63.6562 92.5605 63.513 92.0879 63.3984C91.6152 63.2839 91.25 63.2266 90.9922 63.2266C90.9349 63.2266 90.9062 63.1549 90.9062 63.0117C90.9062 62.6107 91.0208 62.2956 91.25 62.0664C92.7969 62.138 93.957 62.1953 94.7305 62.2383C95.5182 62.2669 95.9193 62.2812 95.9336 62.2812C96.1341 62.2812 96.6211 62.2669 97.3945 62.2383C98.1823 62.1953 99.2565 62.138 100.617 62.0664C100.617 62.8398 100.531 63.2266 100.359 63.2266C100.044 63.2266 99.6432 63.291 99.1562 63.4199C98.6836 63.5345 98.2467 63.7135 97.8457 63.957C97.459 64.1862 97.237 64.487 97.1797 64.8594L96.1484 70.832C96.1484 70.8893 96.1413 70.9395 96.127 70.9824C96.1126 71.0254 96.1055 71.0755 96.1055 71.1328C96.1055 71.2331 96.1055 71.3405 96.1055 71.4551C96.1198 71.5697 96.1341 71.6842 96.1484 71.7988C96.1628 71.9134 96.1699 72.0137 96.1699 72.0996C96.1842 72.1855 96.1914 72.25 96.1914 72.293C96.1914 72.6654 95.862 72.9805 95.2031 73.2383C95.0026 73.3385 94.6302 73.4889 94.0859 73.6895C93.556 73.8757 93.0117 74.0547 92.4531 74.2266C91.9089 74.3984 91.5078 74.513 91.25 74.5703C90.9206 74.6276 90.4909 74.7135 89.9609 74.8281C89.4453 74.9427 88.9583 75.0215 88.5 75.0645C88.0417 75.1074 87.4902 75.1504 86.8457 75.1934C86.2012 75.2363 85.5352 75.2578 84.8477 75.2578C82.8281 75.2578 81.0449 74.7708 79.498 73.7969C77.9512 72.8086 76.7409 71.4766 75.8672 69.8008C75.0078 68.1107 74.5781 66.2057 74.5781 64.0859C74.5781 61.293 75.3086 58.5358 76.7695 55.8145C77.7435 53.9811 78.9681 52.3555 80.4434 50.9375C81.9329 49.5052 83.5658 48.3809 85.3418 47.5645C87.1322 46.748 88.9727 46.3398 90.8633 46.3398ZM105.641 44.068C105.377 45.0947 105.039 46.2093 104.629 47.412C104.218 48.6147 103.763 49.8173 103.265 51.02C102.795 52.1933 102.326 53.308 101.857 54.364H98.9968C99.2021 53.5427 99.4074 52.6627 99.6128 51.724C99.8474 50.7853 100.053 49.8467 100.229 48.908C100.434 47.94 100.61 47.0013 100.757 46.092C100.933 45.1827 101.079 44.3467 101.197 43.584H105.333L105.641 44.068ZM118.535 56.3086C120.225 56.3086 121.536 56.8958 122.467 58.0703C123.398 59.2448 123.863 60.8633 123.863 62.9258C123.863 64.401 123.577 65.8691 123.004 67.3301C122.431 68.7767 121.679 70.0944 120.748 71.2832C119.817 72.472 118.793 73.4245 117.676 74.1406C116.559 74.8568 115.456 75.2148 114.367 75.2148C112.648 75.2148 111.338 74.6562 110.436 73.5391C109.533 72.4219 109.082 70.832 109.082 68.7695C109.082 67.2799 109.361 65.8047 109.92 64.3438C110.493 62.8685 111.245 61.5293 112.176 60.3262C113.107 59.1087 114.124 58.1348 115.227 57.4043C116.344 56.6738 117.447 56.3086 118.535 56.3086ZM118.02 58.0703C117.303 58.0703 116.609 58.3854 115.936 59.0156C115.262 59.6315 114.654 60.4408 114.109 61.4434C113.565 62.446 113.135 63.5417 112.82 64.7305C112.505 65.9193 112.348 67.0794 112.348 68.2109C112.348 69.8724 112.613 71.1615 113.143 72.0781C113.673 72.9948 114.339 73.4531 115.141 73.4531C115.857 73.4531 116.537 73.1452 117.182 72.5293C117.84 71.8991 118.428 71.0827 118.943 70.0801C119.459 69.0632 119.86 67.9603 120.146 66.7715C120.447 65.5827 120.598 64.4154 120.598 63.2695C120.598 61.5794 120.368 60.2904 119.91 59.4023C119.452 58.5143 118.822 58.0703 118.02 58.0703ZM141.266 44.9648C143.099 44.9648 144.273 45.4518 144.789 46.4258C144.789 48.2878 144.273 49.2188 143.242 49.2188C142.784 49.2188 142.376 49.0039 142.018 48.5742C141.674 48.1302 141.323 47.6934 140.965 47.2637C140.621 46.8197 140.206 46.5977 139.719 46.5977C138.802 46.5977 137.828 47.5358 136.797 49.4121C135.78 51.2598 134.978 53.8737 134.391 57.2539V57.3398C134.391 57.4544 134.434 57.5117 134.52 57.5117H139.461C139.604 57.5117 139.676 57.6836 139.676 58.0273C139.676 58.5 139.518 58.987 139.203 59.4883H134.176C134.018 59.4883 133.932 59.6029 133.918 59.832L131.555 72.6797C130.867 76.6615 129.657 79.6979 127.924 81.7891C126.191 83.8802 124.307 84.9258 122.273 84.9258C121.271 84.9258 120.483 84.7467 119.91 84.3887C119.337 84.0306 118.965 83.6224 118.793 83.1641C118.764 82.5052 118.922 81.918 119.266 81.4023C119.609 80.8867 120.039 80.6289 120.555 80.6289C120.956 80.6289 121.307 80.8438 121.607 81.2734C121.894 81.7174 122.202 82.1543 122.531 82.584C122.846 83.028 123.247 83.25 123.734 83.25C124.307 83.25 124.844 82.9134 125.346 82.2402C125.861 81.5814 126.327 80.7578 126.742 79.7695C127.158 78.7812 127.501 77.793 127.773 76.8047C128.046 75.8164 128.232 75 128.332 74.3555L130.91 59.7891V59.7031C130.91 59.5599 130.867 59.4883 130.781 59.4883H127.988C127.931 59.4883 127.902 59.4453 127.902 59.3594C127.902 59.1875 128.01 58.9583 128.225 58.6719C128.439 58.3711 128.704 58.1061 129.02 57.877C129.349 57.6335 129.664 57.5117 129.965 57.5117H131.211C131.326 57.5117 131.411 57.3828 131.469 57.125C131.855 54.776 132.543 52.6849 133.531 50.8516C134.534 49.0182 135.708 47.5788 137.055 46.5332C138.415 45.4876 139.819 44.9648 141.266 44.9648ZM147.109 47.2422C147.539 47.2422 147.904 47.4141 148.205 47.7578C148.506 48.1016 148.656 48.5026 148.656 48.9609C148.656 49.6484 148.434 50.25 147.99 50.7656C147.546 51.2812 146.995 51.5391 146.336 51.5391C145.878 51.5391 145.52 51.36 145.262 51.002C145.004 50.6439 144.875 50.207 144.875 49.6914C144.875 49.0326 145.09 48.4596 145.52 47.9727C145.949 47.4857 146.479 47.2422 147.109 47.2422ZM145.863 56.3086C146.322 56.3086 146.68 56.5163 146.938 56.9316C147.195 57.347 147.324 57.8841 147.324 58.543C147.324 59.1302 147.238 59.8893 147.066 60.8203L145.176 70.4453C145.09 70.7891 145.047 71.1471 145.047 71.5195C145.047 72.2357 145.19 72.5938 145.477 72.5938C145.835 72.5938 146.264 72.3431 146.766 71.8418C147.267 71.3262 147.697 70.8893 148.055 70.5312L148.312 70.2305C148.37 70.2305 148.477 70.3665 148.635 70.6387C148.792 70.9108 148.871 71.1042 148.871 71.2188C148.628 71.6341 148.184 72.1641 147.539 72.8086C146.909 73.4531 146.221 74.026 145.477 74.5273C144.732 75.0143 144.059 75.2578 143.457 75.2578C142.999 75.2578 142.641 75.0501 142.383 74.6348C142.125 74.2194 141.996 73.6823 141.996 73.0234C141.996 72.5938 142.096 71.8346 142.297 70.7461L144.059 61.7656C144.202 60.9206 144.273 60.3477 144.273 60.0469C144.273 59.3307 144.13 58.9727 143.844 58.9727C143.672 58.9727 143.436 59.0872 143.135 59.3164C142.848 59.5456 142.569 59.8034 142.297 60.0898C142.025 60.362 141.824 60.5768 141.695 60.7344L141.48 60.9922C141.423 60.9922 141.316 60.8561 141.158 60.584C141.001 60.3118 140.922 60.1185 140.922 60.0039C141.151 59.6172 141.566 59.1374 142.168 58.5645C142.77 57.9772 143.414 57.4544 144.102 56.9961C144.789 56.5378 145.376 56.3086 145.863 56.3086ZM157.594 56.3086C158.052 56.3086 158.41 56.5163 158.668 56.9316C158.926 57.347 159.055 57.8841 159.055 58.543C159.055 59.1732 158.969 59.9323 158.797 60.8203L158.109 64.4297C158.467 63.5846 158.926 62.6966 159.484 61.7656C160.057 60.8203 160.666 59.9323 161.311 59.1016C161.955 58.2708 162.592 57.5977 163.223 57.082C163.853 56.5664 164.411 56.3086 164.898 56.3086C165.872 56.3086 166.66 56.7669 167.262 57.6836C167.262 59.6029 166.732 60.5625 165.672 60.5625C165.443 60.5625 165.171 60.3835 164.855 60.0254C164.54 59.6673 164.211 59.4883 163.867 59.4883C163.452 59.4883 162.908 59.832 162.234 60.5195C161.561 61.207 160.867 62.1094 160.15 63.2266C159.434 64.3294 158.79 65.5254 158.217 66.8145C157.644 68.0892 157.25 69.3138 157.035 70.4883L156.219 75C155.732 75.0859 155.259 75.1289 154.801 75.1289C154.257 75.1289 153.727 75.0859 153.211 75L155.789 61.7656C155.932 60.7773 156.004 60.2044 156.004 60.0469C156.004 59.3307 155.861 58.9727 155.574 58.9727C155.331 58.9727 154.965 59.2018 154.479 59.6602C154.249 59.8893 153.999 60.14 153.727 60.4121C153.469 60.6842 153.297 60.8776 153.211 60.9922C153.154 60.9922 153.046 60.8561 152.889 60.584C152.731 60.3118 152.652 60.1185 152.652 60.0039C152.882 59.6172 153.297 59.1374 153.898 58.5645C154.5 57.9772 155.145 57.4544 155.832 56.9961C156.52 56.5378 157.107 56.3086 157.594 56.3086Z" fill="white"/>
<path d="M0 14.4961C6.30012 20.0984 15.0791 19.1979 30.687 15.1421C32.2497 14.736 33.9168 14.9601 35.3059 15.7832L61.0905 31.063L35.3304 19.6141C33.9205 18.9874 32.3183 18.9353 30.8588 19.4358C12.5496 25.7159 4.73674 24.7283 0 14.4961Z" fill="url(#paint8_radial_692_1584)"/>
<path d="M16.5669 25.8858C22.7094 27.5488 34.4861 19.1752 43.5027 24.2129C35.7991 20.3448 24.9274 34.7378 16.5669 25.8858Z" fill="url(#paint9_radial_692_1584)"/>
<path d="M42.4528 34.1693C40.4746 32.9379 39.8039 31.791 39.5364 30.2054C39.314 28.8871 40.2138 27.6374 41.514 27.3262C46.4064 26.1551 49.6595 27.3172 54.8779 31.063C50.3759 26.3362 46.8249 25.2844 39.6469 25.78C38.7972 25.8387 38.0191 26.2751 37.5081 26.9564L36.1669 28.7446C35.6047 29.4943 35.6307 30.5432 36.2784 31.2205C38.4425 33.4837 39.9798 34.1156 42.4528 34.1693Z" fill="url(#paint10_radial_692_1584)"/>
<path d="M61.0905 28.9921C48.8725 19.5072 53.131 18.6378 60.0551 10.3543C56.6285 8.93238 54.8937 8.83857 52.8071 12.4252C51.2879 8.29387 49.7783 6.42726 45.559 4.14173C43.8524 8.52031 44.6321 10.6991 46.5945 14.4961C42.9378 12.0347 40.7471 11.3823 36.2402 13.4606C46.3046 17.727 45.2926 18.8748 61.0905 28.9921Z" fill="url(#paint11_radial_692_1584)"/>
<path d="M78.6929 22.7441C78.6929 22.1918 79.1406 21.7441 79.6929 21.7441H79.7638C80.3161 21.7441 80.7638 22.1918 80.7638 22.7441V25.9213C80.7638 26.4735 80.3161 26.9213 79.7638 26.9213H74.4803C73.3757 26.9213 72.4803 26.0258 72.4803 24.9213V19.6024C72.4803 18.4978 73.3757 17.6024 74.4803 17.6024H78.7281C80.6137 17.6024 82.4755 18.023 84.178 18.8337V18.8337C85.2965 19.3663 86.1249 20.3629 86.4441 21.5599L88.3399 28.6695C89.2063 31.9182 86.6836 35.0788 83.3237 34.9544L68.0679 34.3894C64.7776 34.2675 62.2002 31.5169 62.2923 28.2256L62.6948 13.8426C62.7856 10.5955 65.4441 8.01038 68.6924 8.01038H83.0387C86.0229 8.01038 88.8896 9.21712 90.915 11.4088C101.807 23.194 109.097 33.3225 115.395 32.2299C115.685 32.1796 115.968 32.3916 115.968 32.686V32.686C115.968 32.9325 115.766 33.1318 115.519 33.1285C109.37 33.045 105.37 32.4313 87.653 13.254C86.5367 12.0456 85.0793 11.1983 83.4735 10.8414L77.8584 9.59364C77.0431 9.41248 76.199 9.4035 75.3801 9.56728L71.091 10.4251C68.2865 10.986 66.2677 13.4485 66.2677 16.3086V27.0984C66.2677 29.8599 68.5063 32.0984 71.2677 32.0984H80.9055C83.1146 32.0984 84.9055 30.3076 84.9055 28.0984V22.6378C84.9055 20.4287 83.1146 18.6378 80.9055 18.6378H76.5512C75.4466 18.6378 74.5512 19.5332 74.5512 20.6378V24.8858C74.5512 25.4381 74.9989 25.8858 75.5512 25.8858H77.6929C78.2452 25.8858 78.6929 25.4381 78.6929 24.8858V22.7441Z" fill="url(#paint12_radial_692_1584)"/>
<path d="M104.412 33.0631C96.4743 29.9513 88.3242 12.4066 78.6929 13.4606C91.6665 19.2326 92.9183 31.4785 104.412 33.0631Z" fill="url(#paint13_radial_692_1584)"/>
<path d="M111.827 30.0276C106.485 21.6827 106.361 16.9143 110.791 8.28346C105.363 9.71409 97.6256 19.5114 111.827 30.0276Z" fill="url(#paint14_radial_692_1584)"/>
<path d="M118.039 10.3543C113.102 14.0549 110.405 23.2793 118.039 32.0984C106.33 25.6888 109.793 12.7713 118.039 0V10.3543Z" fill="url(#paint15_radial_692_1584)"/>
<path d="M236.079 14.4961C229.778 20.0984 221 19.1979 205.392 15.1421C203.829 14.736 202.162 14.9601 200.773 15.7832L174.988 31.063L200.748 19.6141C202.158 18.9874 203.76 18.9353 205.22 19.4358C223.529 25.7159 231.342 24.7283 236.079 14.4961Z" fill="url(#paint16_radial_692_1584)"/>
<path d="M219.512 25.8858C213.369 27.5488 201.593 19.1752 192.576 24.2129C200.279 20.3448 211.151 34.7378 219.512 25.8858Z" fill="url(#paint17_radial_692_1584)"/>
<path d="M193.626 34.1693C195.604 32.9379 196.275 31.791 196.542 30.2054C196.765 28.8871 195.865 27.6374 194.565 27.3262C189.672 26.1551 186.419 27.3172 181.201 31.063C185.703 26.3362 189.254 25.2844 196.432 25.78C197.281 25.8387 198.06 26.2751 198.571 26.9564L199.912 28.7446C200.474 29.4943 200.448 30.5432 199.8 31.2205C197.636 33.4837 196.099 34.1156 193.626 34.1693Z" fill="url(#paint18_radial_692_1584)"/>
<path d="M174.988 28.9921C187.206 19.5072 182.948 18.6378 176.024 10.3543C179.45 8.93238 181.185 8.83857 183.272 12.4252C184.791 8.29387 186.3 6.42726 190.52 4.14173C192.226 8.52031 191.446 10.6991 189.484 14.4961C193.141 12.0347 195.331 11.3823 199.838 13.4606C189.774 17.727 190.786 18.8748 174.988 28.9921Z" fill="url(#paint19_radial_692_1584)"/>
<path d="M157.386 22.7441C157.386 22.1918 156.938 21.7441 156.386 21.7441H156.315C155.763 21.7441 155.315 22.1918 155.315 22.7441V25.9213C155.315 26.4735 155.763 26.9213 156.315 26.9213H161.598C162.703 26.9213 163.598 26.0258 163.598 24.9213V19.6024C163.598 18.4978 162.703 17.6024 161.598 17.6024H157.351C155.465 17.6024 153.603 18.023 151.901 18.8337V18.8337C150.782 19.3663 149.954 20.3629 149.635 21.5599L147.739 28.6695C146.872 31.9182 149.395 35.0788 152.755 34.9544L168.011 34.3894C171.301 34.2675 173.878 31.5169 173.786 28.2256L173.384 13.8426C173.293 10.5955 170.635 8.01038 167.386 8.01038H153.04C150.056 8.01038 147.189 9.21712 145.164 11.4088C134.272 23.194 126.982 33.3225 120.683 32.2299C120.393 32.1796 120.11 32.3916 120.11 32.686V32.686C120.11 32.9325 120.313 33.1318 120.559 33.1285C126.708 33.045 130.709 32.4313 148.426 13.254C149.542 12.0456 150.999 11.1983 152.605 10.8414L158.22 9.59364C159.035 9.41248 159.88 9.4035 160.698 9.56728L164.988 10.4251C167.792 10.986 169.811 13.4485 169.811 16.3086V27.0984C169.811 29.8599 167.572 32.0984 164.811 32.0984H155.173C152.964 32.0984 151.173 30.3076 151.173 28.0984V22.6378C151.173 20.4287 152.964 18.6378 155.173 18.6378H159.527C160.632 18.6378 161.527 19.5332 161.527 20.6378V24.8858C161.527 25.4381 161.08 25.8858 160.527 25.8858H158.386C157.833 25.8858 157.386 25.4381 157.386 24.8858V22.7441Z" fill="url(#paint20_radial_692_1584)"/>
<path d="M131.666 33.0631C139.604 29.9513 147.754 12.4066 157.386 13.4606C144.412 19.2326 143.16 31.4785 131.666 33.0631Z" fill="url(#paint21_radial_692_1584)"/>
<path d="M124.252 30.0276C129.594 21.6827 129.718 16.9143 125.287 8.28346C130.716 9.71409 138.453 19.5114 124.252 30.0276Z" fill="url(#paint22_radial_692_1584)"/>
<path d="M118.039 10.3543C122.976 14.0549 125.673 23.2793 118.039 32.0984C129.749 25.6888 126.286 12.7713 118.039 0V10.3543Z" fill="url(#paint23_radial_692_1584)"/>
<defs>
<radialGradient id="paint0_radial_692_1584" cx="0" cy="0" r="1" gradientUnits="userSpaceOnUse" gradientTransform="translate(79.7285 111.309) scale(38.311 20.1909)">
<stop stop-color="#E1E1E1"/>
<stop offset="1" stop-color="#FFF4DA"/>
</radialGradient>
<radialGradient id="paint1_radial_692_1584" cx="0" cy="0" r="1" gradientUnits="userSpaceOnUse" gradientTransform="translate(79.7285 111.309) scale(38.311 20.1909)">
<stop stop-color="#E1E1E1"/>
<stop offset="1" stop-color="#FFF4DA"/>
</radialGradient>
<radialGradient id="paint2_radial_692_1584" cx="0" cy="0" r="1" gradientUnits="userSpaceOnUse" gradientTransform="translate(79.7285 111.309) scale(38.311 20.1909)">
<stop stop-color="#E1E1E1"/>
<stop offset="1" stop-color="#FFF4DA"/>
</radialGradient>
<radialGradient id="paint3_radial_692_1584" cx="0" cy="0" r="1" gradientUnits="userSpaceOnUse" gradientTransform="translate(79.7285 111.309) scale(38.311 20.1909)">
<stop stop-color="#E1E1E1"/>
<stop offset="1" stop-color="#FFF4DA"/>
</radialGradient>
<radialGradient id="paint4_radial_692_1584" cx="0" cy="0" r="1" gradientUnits="userSpaceOnUse" gradientTransform="translate(156.351 111.309) rotate(180) scale(38.311 20.1909)">
<stop stop-color="#E1E1E1"/>
<stop offset="1" stop-color="#FFF4DA"/>
</radialGradient>
<radialGradient id="paint5_radial_692_1584" cx="0" cy="0" r="1" gradientUnits="userSpaceOnUse" gradientTransform="translate(156.351 111.309) rotate(180) scale(38.311 20.1909)">
<stop stop-color="#E1E1E1"/>
<stop offset="1" stop-color="#FFF4DA"/>
</radialGradient>
<radialGradient id="paint6_radial_692_1584" cx="0" cy="0" r="1" gradientUnits="userSpaceOnUse" gradientTransform="translate(156.351 111.309) rotate(180) scale(38.311 20.1909)">
<stop stop-color="#E1E1E1"/>
<stop offset="1" stop-color="#FFF4DA"/>
</radialGradient>
<radialGradient id="paint7_radial_692_1584" cx="0" cy="0" r="1" gradientUnits="userSpaceOnUse" gradientTransform="translate(156.351 111.309) rotate(180) scale(38.311 20.1909)">
<stop stop-color="#E1E1E1"/>
<stop offset="1" stop-color="#FFF4DA"/>
</radialGradient>
<radialGradient id="paint8_radial_692_1584" cx="0" cy="0" r="1" gradientUnits="userSpaceOnUse" gradientTransform="translate(59.0197 17.6024) scale(59.0197 17.6024)">
<stop stop-color="#E1E1E1"/>
<stop offset="1" stop-color="#FFF4DA"/>
</radialGradient>
<radialGradient id="paint9_radial_692_1584" cx="0" cy="0" r="1" gradientUnits="userSpaceOnUse" gradientTransform="translate(59.0197 17.6024) scale(59.0197 17.6024)">
<stop stop-color="#E1E1E1"/>
<stop offset="1" stop-color="#FFF4DA"/>
</radialGradient>
<radialGradient id="paint10_radial_692_1584" cx="0" cy="0" r="1" gradientUnits="userSpaceOnUse" gradientTransform="translate(59.0197 17.6024) scale(59.0197 17.6024)">
<stop stop-color="#E1E1E1"/>
<stop offset="1" stop-color="#FFF4DA"/>
</radialGradient>
<radialGradient id="paint11_radial_692_1584" cx="0" cy="0" r="1" gradientUnits="userSpaceOnUse" gradientTransform="translate(59.0197 17.6024) scale(59.0197 17.6024)">
<stop stop-color="#E1E1E1"/>
<stop offset="1" stop-color="#FFF4DA"/>
</radialGradient>
<radialGradient id="paint12_radial_692_1584" cx="0" cy="0" r="1" gradientUnits="userSpaceOnUse" gradientTransform="translate(59.0197 17.6024) scale(59.0197 17.6024)">
<stop stop-color="#E1E1E1"/>
<stop offset="1" stop-color="#FFF4DA"/>
</radialGradient>
<radialGradient id="paint13_radial_692_1584" cx="0" cy="0" r="1" gradientUnits="userSpaceOnUse" gradientTransform="translate(59.0197 17.6024) scale(59.0197 17.6024)">
<stop stop-color="#E1E1E1"/>
<stop offset="1" stop-color="#FFF4DA"/>
</radialGradient>
<radialGradient id="paint14_radial_692_1584" cx="0" cy="0" r="1" gradientUnits="userSpaceOnUse" gradientTransform="translate(59.0197 17.6024) scale(59.0197 17.6024)">
<stop stop-color="#E1E1E1"/>
<stop offset="1" stop-color="#FFF4DA"/>
</radialGradient>
<radialGradient id="paint15_radial_692_1584" cx="0" cy="0" r="1" gradientUnits="userSpaceOnUse" gradientTransform="translate(59.0197 17.6024) scale(59.0197 17.6024)">
<stop stop-color="#E1E1E1"/>
<stop offset="1" stop-color="#FFF4DA"/>
</radialGradient>
<radialGradient id="paint16_radial_692_1584" cx="0" cy="0" r="1" gradientUnits="userSpaceOnUse" gradientTransform="translate(177.059 17.6024) rotate(180) scale(59.0197 17.6024)">
<stop stop-color="#E1E1E1"/>
<stop offset="1" stop-color="#FFF4DA"/>
</radialGradient>
<radialGradient id="paint17_radial_692_1584" cx="0" cy="0" r="1" gradientUnits="userSpaceOnUse" gradientTransform="translate(177.059 17.6024) rotate(180) scale(59.0197 17.6024)">
<stop stop-color="#E1E1E1"/>
<stop offset="1" stop-color="#FFF4DA"/>
</radialGradient>
<radialGradient id="paint18_radial_692_1584" cx="0" cy="0" r="1" gradientUnits="userSpaceOnUse" gradientTransform="translate(177.059 17.6024) rotate(180) scale(59.0197 17.6024)">
<stop stop-color="#E1E1E1"/>
<stop offset="1" stop-color="#FFF4DA"/>
</radialGradient>
<radialGradient id="paint19_radial_692_1584" cx="0" cy="0" r="1" gradientUnits="userSpaceOnUse" gradientTransform="translate(177.059 17.6024) rotate(180) scale(59.0197 17.6024)">
<stop stop-color="#E1E1E1"/>
<stop offset="1" stop-color="#FFF4DA"/>
</radialGradient>
<radialGradient id="paint20_radial_692_1584" cx="0" cy="0" r="1" gradientUnits="userSpaceOnUse" gradientTransform="translate(177.059 17.6024) rotate(180) scale(59.0197 17.6024)">
<stop stop-color="#E1E1E1"/>
<stop offset="1" stop-color="#FFF4DA"/>
</radialGradient>
<radialGradient id="paint21_radial_692_1584" cx="0" cy="0" r="1" gradientUnits="userSpaceOnUse" gradientTransform="translate(177.059 17.6024) rotate(180) scale(59.0197 17.6024)">
<stop stop-color="#E1E1E1"/>
<stop offset="1" stop-color="#FFF4DA"/>
</radialGradient>
<radialGradient id="paint22_radial_692_1584" cx="0" cy="0" r="1" gradientUnits="userSpaceOnUse" gradientTransform="translate(177.059 17.6024) rotate(180) scale(59.0197 17.6024)">
<stop stop-color="#E1E1E1"/>
<stop offset="1" stop-color="#FFF4DA"/>
</radialGradient>
<radialGradient id="paint23_radial_692_1584" cx="0" cy="0" r="1" gradientUnits="userSpaceOnUse" gradientTransform="translate(177.059 17.6024) rotate(180) scale(59.0197 17.6024)">
<stop stop-color="#E1E1E1"/>
<stop offset="1" stop-color="#FFF4DA"/>
</radialGradient>
</defs>
</svg>
