<svg width="237" height="132" viewBox="0 0 237 132" fill="none" xmlns="http://www.w3.org/2000/svg">
<path d="M50.7125 108.06C49.3889 108.487 47.9214 108.504 46.7169 107.809C44.5794 106.575 44.1412 105.154 44.5234 102.508V102.508C42.8798 103.056 42.063 104.953 43.0339 106.388C43.9977 107.812 45.0937 108.974 46.6267 110.246C47.9171 111.316 49.5696 111.855 51.2458 111.812C56.4406 111.679 59.0349 110.851 62.1257 108.72C61.1051 110.641 61.1618 111.76 61.9885 113.6C62.0605 113.76 62.2568 113.822 62.4077 113.731C64.0825 112.73 65.0039 111.892 66.2674 109.756C66.2154 114.032 66.9843 113.977 70.4091 114.933C67.5194 110.86 68.0525 109.221 70.1981 106.254C70.9958 105.151 72.1259 104.331 73.4053 103.866L78.5776 101.985C81.3342 100.982 84.3487 100.942 87.1313 101.869L104.173 107.55C104.307 107.435 104.442 107.326 104.578 107.223V104.508C104.578 103.403 105.474 102.508 106.578 102.508H108.791C109.896 102.508 110.791 103.403 110.791 104.508V105.614H111.826V103.472C111.826 102.368 110.931 101.472 109.826 101.472H105.543C104.438 101.472 103.543 102.368 103.543 103.472V106.65C98.7736 103.748 93.5321 101.584 86.7257 99.7769C82.8456 98.747 78.7534 99.0145 74.9328 100.247L50.7125 108.06Z" fill="url(#paint0_radial_692_1754)"/>
<path fill-rule="evenodd" clip-rule="evenodd" d="M118.039 111.827V108.721C115.458 105.74 114.163 105.799 111.826 105.614H110.791C108.063 105.589 106.222 105.979 104.578 107.223V107.685L104.173 107.55C103.27 108.327 102.409 109.382 101.472 110.791C94.4225 108.167 92.2419 105.859 84.6304 104.117C82.7927 103.696 80.8379 103.854 79.1733 104.739C77.1406 105.82 75.7478 107.075 74.4004 109.235C73.7976 110.201 73.7049 111.42 74.2146 112.438C75.0495 114.107 76.2498 115.417 79.1376 117.128C80.1186 117.709 81.3505 117.62 82.2784 116.957L86.28 114.099C87.2184 113.429 87.4128 112.09 86.6211 111.251C84.8302 109.354 83.7227 109.09 81.7989 109.756C83.0242 110.067 83.7473 110.456 84.396 111.688C84.7596 112.378 84.5518 113.216 84 113.767L82.2754 115.492C81.3706 116.397 79.9663 116.664 78.9055 115.948C77.3915 114.927 76.4781 113.802 75.4876 112.283C74.8937 111.372 74.8539 110.185 75.48 109.296C77.188 106.871 79.0763 106.022 82.8343 105.614C87.5138 105.758 93.9734 109.592 101.472 112.862C101.61 115.305 101.827 117.608 105.43 119.531C106.15 119.915 107.027 119.733 107.604 119.156L110.252 116.508C110.55 116.21 110.55 115.727 110.252 115.429V115.429C109.971 115.149 109.521 115.134 109.21 115.381C104.882 118.812 103.349 117.017 102.508 112.862C108.784 113.743 111.6 112.063 112.862 106.65H114.933L118.039 111.827ZM102.508 111.827C105.324 107.593 107.416 106.549 111.826 106.65C109.581 111.782 107.623 113.001 102.508 111.827Z" fill="url(#paint1_radial_692_1754)"/>
<path d="M118.039 114.933V111.827C116.112 115.763 116.189 118.074 110.791 119.075C111.96 121.038 112.806 121.636 114.933 121.146C115.324 125.201 115.717 127.472 118.039 131.5V125.287C116.703 121.107 116.952 118.865 118.039 114.933Z" fill="url(#paint2_radial_692_1754)"/>
<path d="M115.968 98.3662C116.06 94.792 116.696 93.3936 118.039 91.1182V105.614C115.722 100.811 114.342 99.4138 111.826 99.4015C113.364 97.8121 114.276 97.3638 115.968 98.3662Z" fill="url(#paint3_radial_692_1754)"/>
<path d="M185.366 108.06C186.689 108.487 188.157 108.504 189.361 107.809C191.499 106.575 191.937 105.154 191.555 102.508V102.508C193.198 103.056 194.015 104.953 193.044 106.388C192.08 107.812 190.984 108.974 189.451 110.246C188.161 111.316 186.509 111.855 184.832 111.812C179.637 111.679 177.043 110.851 173.952 108.72C174.973 110.641 174.916 111.76 174.09 113.6C174.018 113.76 173.821 113.822 173.67 113.731C171.996 112.73 171.074 111.892 169.811 109.756C169.863 114.032 169.094 113.977 165.669 114.933C168.559 110.86 168.026 109.221 165.88 106.254C165.082 105.151 163.952 104.331 162.673 103.866L157.5 101.985C154.744 100.982 151.729 100.942 148.947 101.869L131.905 107.55C131.771 107.435 131.636 107.326 131.5 107.223V104.508C131.5 103.403 130.604 102.508 129.5 102.508H127.287C126.183 102.508 125.287 103.403 125.287 104.508V105.614H124.252V103.472C124.252 102.368 125.147 101.472 126.252 101.472H130.535C131.64 101.472 132.535 102.368 132.535 103.472V106.65C137.304 103.748 142.546 101.584 149.352 99.7769C153.232 98.747 157.325 99.0145 161.145 100.247L185.366 108.06Z" fill="url(#paint4_radial_692_1754)"/>
<path fill-rule="evenodd" clip-rule="evenodd" d="M118.039 111.827V108.721C120.62 105.74 121.915 105.799 124.252 105.614H125.287C128.015 105.589 129.856 105.979 131.5 107.223V107.685L131.905 107.55C132.808 108.327 133.669 109.382 134.606 110.791C141.656 108.167 143.836 105.859 151.448 104.117C153.285 103.696 155.24 103.854 156.905 104.739C158.938 105.82 160.33 107.075 161.678 109.235C162.281 110.201 162.373 111.42 161.863 112.438C161.029 114.107 159.828 115.417 156.941 117.128C155.96 117.709 154.728 117.62 153.8 116.957L149.798 114.099C148.86 113.429 148.665 112.09 149.457 111.251C151.248 109.354 152.355 109.09 154.279 109.756C153.054 110.067 152.331 110.456 151.682 111.688C151.319 112.378 151.526 113.216 152.078 113.767L153.803 115.492C154.708 116.397 156.112 116.664 157.173 115.948C158.687 114.927 159.6 113.802 160.591 112.283C161.184 111.372 161.224 110.185 160.598 109.296C158.89 106.871 157.002 106.022 153.244 105.614C148.564 105.758 142.105 109.592 134.606 112.862C134.468 115.305 134.251 117.608 130.648 119.531C129.928 119.915 129.051 119.733 128.474 119.156L125.826 116.508C125.528 116.21 125.528 115.727 125.826 115.429V115.429C126.107 115.149 126.557 115.134 126.868 115.381C131.196 118.812 132.729 117.017 133.571 112.862C127.294 113.743 124.478 112.063 123.216 106.65H121.145L118.039 111.827ZM133.571 111.827C130.754 107.593 128.662 106.549 124.252 106.65C126.497 111.782 128.455 113.001 133.571 111.827Z" fill="url(#paint5_radial_692_1754)"/>
<path d="M118.039 114.933V111.827C119.967 115.763 119.889 118.074 125.287 119.075C124.119 121.038 123.273 121.636 121.145 121.146C120.754 125.201 120.361 127.472 118.039 131.5V125.287C119.375 121.107 119.126 118.865 118.039 114.933Z" fill="url(#paint6_radial_692_1754)"/>
<path d="M120.11 98.3662C120.019 94.792 119.382 93.3936 118.039 91.1182V105.614C120.356 100.811 121.736 99.4138 124.252 99.4015C122.714 97.8121 121.802 97.3638 120.11 98.3662Z" fill="url(#paint7_radial_692_1754)"/>
<path d="M86.0586 59.3164C89.7969 59.3164 91.6732 59.2018 91.6875 58.9727L92.8477 53C93.1628 51.4674 93.3203 50.1497 93.3203 49.0469C93.3203 48.832 93.1699 48.6387 92.8691 48.4668C92.5827 48.2949 92.2461 48.1589 91.8594 48.0586C91.487 47.944 91.1719 47.8867 90.9141 47.8867C90.8568 47.8867 90.8281 47.8151 90.8281 47.6719C90.8281 47.2708 90.9427 46.9557 91.1719 46.7266C91.401 46.7409 91.7878 46.7695 92.332 46.8125C92.8906 46.8555 93.4922 46.8984 94.1367 46.9414C94.7812 46.9701 95.3398 46.9844 95.8125 46.9844C96.5143 46.9844 97.4095 46.9414 98.498 46.8555C99.6009 46.7695 100.238 46.7266 100.41 46.7266V46.8555C100.41 47.543 100.31 47.8867 100.109 47.8867C99.9661 47.8867 99.694 47.944 99.293 48.0586C98.8919 48.1589 98.5052 48.2878 98.1328 48.4453C97.7604 48.5885 97.5456 48.7318 97.4883 48.875C97.0729 49.7917 96.7005 51.1237 96.3711 52.8711L93.2344 69.0273C92.9193 70.5599 92.7617 71.849 92.7617 72.8945C92.7617 73.1237 92.9551 73.3314 93.3418 73.5176C93.7285 73.7038 94.1224 73.8255 94.5234 73.8828L95.082 73.9688C95.1393 73.9688 95.168 74.026 95.168 74.1406C95.168 74.4557 95.082 74.7852 94.9102 75.1289C93.5781 75.0573 92.5397 75.0072 91.7949 74.9785C91.0501 74.9355 90.599 74.9141 90.4414 74.9141C90.3984 74.9141 89.9831 74.9355 89.1953 74.9785C88.4076 75.0072 87.2474 75.0573 85.7148 75.1289C85.6576 75.0716 85.6289 74.957 85.6289 74.7852C85.6289 74.2409 85.7292 73.9688 85.9297 73.9688C86.1589 73.9688 86.474 73.9258 86.875 73.8398C87.2904 73.7539 87.6771 73.6393 88.0352 73.4961C88.3932 73.3529 88.6081 73.1953 88.6797 73.0234C89.0951 72.0781 89.4674 70.7031 89.7969 68.8984L91.1719 61.8086V61.7656C91.1719 61.6224 90.8353 61.5293 90.1621 61.4863C89.5033 61.4434 87.8776 61.4219 85.2852 61.4219C81.1745 61.4219 79.0833 61.5938 79.0117 61.9375L77.6367 69.0273C77.3216 70.5599 77.1641 71.849 77.1641 72.8945C77.1641 73.1237 77.3574 73.3314 77.7441 73.5176C78.1309 73.7038 78.5104 73.8255 78.8828 73.8828L79.4844 73.9688C79.5417 73.9688 79.5703 74.026 79.5703 74.1406C79.5703 74.4557 79.4844 74.7852 79.3125 75.1289C77.9948 75.0573 76.9635 75.0072 76.2188 74.9785C75.474 74.9355 75.0156 74.9141 74.8438 74.9141C74.8151 74.9141 74.4069 74.9355 73.6191 74.9785C72.8314 75.0072 71.6641 75.0573 70.1172 75.1289C70.0599 75.0716 70.0312 74.957 70.0312 74.7852C70.0312 74.2409 70.1315 73.9688 70.332 73.9688C70.5612 73.9688 70.8763 73.9258 71.2773 73.8398C71.6927 73.7539 72.0794 73.6393 72.4375 73.4961C72.7956 73.3529 73.0104 73.1953 73.082 73.0234C73.4974 72.0781 73.8698 70.7031 74.1992 68.8984L77.25 53C77.5651 51.4674 77.7227 50.1497 77.7227 49.0469C77.7227 48.832 77.5723 48.6387 77.2715 48.4668C76.985 48.2949 76.6484 48.1589 76.2617 48.0586C75.8893 47.944 75.5742 47.8867 75.3164 47.8867C75.2591 47.8867 75.2305 47.8151 75.2305 47.6719C75.2305 47.2708 75.3451 46.9557 75.5742 46.7266C75.8034 46.7409 76.1901 46.7695 76.7344 46.8125C77.293 46.8555 77.8945 46.8984 78.5391 46.9414C79.1836 46.9701 79.7422 46.9844 80.2148 46.9844C80.9023 46.9844 81.7832 46.9414 82.8574 46.8555C83.9316 46.7695 84.569 46.7266 84.7695 46.7266V46.8555C84.7695 47.543 84.6693 47.8867 84.4688 47.8867C84.3255 47.8867 84.0462 47.944 83.6309 48.0586C83.2298 48.1589 82.8359 48.2878 82.4492 48.4453C82.0768 48.5885 81.862 48.7318 81.8047 48.875C81.332 49.9779 80.9596 51.3099 80.6875 52.8711L79.6133 58.9297V58.9727C79.6133 59.1159 79.9928 59.209 80.752 59.252C81.5111 59.2949 83.2799 59.3164 86.0586 59.3164ZM111.023 56.3086C112.083 56.3086 113.129 56.4948 114.16 56.8672L111.539 70.4453C111.453 70.7891 111.41 71.1471 111.41 71.5195C111.41 72.2357 111.553 72.5938 111.84 72.5938C112.198 72.5938 112.628 72.3431 113.129 71.8418C113.63 71.3262 114.06 70.8893 114.418 70.5312L114.676 70.2305C114.733 70.2305 114.84 70.3665 114.998 70.6387C115.156 70.9108 115.234 71.1042 115.234 71.2188C114.991 71.6341 114.547 72.1641 113.902 72.8086C113.272 73.4531 112.585 74.026 111.84 74.5273C111.095 75.0143 110.422 75.2578 109.82 75.2578C109.362 75.2578 109.004 75.0501 108.746 74.6348C108.488 74.2194 108.359 73.6823 108.359 73.0234C108.359 72.5794 108.46 71.8203 108.66 70.7461L108.811 69.9941C108.854 69.7936 108.875 69.6719 108.875 69.6289C108.646 70.0586 108.316 70.5885 107.887 71.2188C107.457 71.8346 106.963 72.4505 106.404 73.0664C105.846 73.6823 105.258 74.1979 104.643 74.6133C104.027 75.0143 103.418 75.2148 102.816 75.2148C101.556 75.2148 100.561 74.6491 99.8301 73.5176C99.0996 72.3861 98.7344 71.0182 98.7344 69.4141C98.7344 67.3659 99.3431 65.3249 100.561 63.291C101.377 61.916 102.351 60.7057 103.482 59.6602C104.628 58.6146 105.853 57.7982 107.156 57.2109C108.46 56.6094 109.749 56.3086 111.023 56.3086ZM109.219 58.2852C108.374 58.2852 107.521 58.5859 106.662 59.1875C105.803 59.7747 105.015 60.5697 104.299 61.5723C103.583 62.5605 103.003 63.6634 102.559 64.8809C102.129 66.084 101.914 67.2943 101.914 68.5117C101.914 71.319 102.645 72.7227 104.105 72.7227C104.621 72.7227 105.18 72.4362 105.781 71.8633C106.383 71.2904 106.977 70.5312 107.564 69.5859C108.152 68.6406 108.667 67.6165 109.111 66.5137C109.57 65.3965 109.906 64.3008 110.121 63.2266L110.98 58.8438C110.637 58.4714 110.049 58.2852 109.219 58.2852ZM135.473 46.3828L134.828 49.6055L130.789 70.4453C130.703 70.7891 130.66 71.1471 130.66 71.5195C130.66 72.2357 130.803 72.5938 131.09 72.5938C131.448 72.5938 131.878 72.3431 132.379 71.8418C132.88 71.3262 133.31 70.8893 133.668 70.5312L133.926 70.2305C133.983 70.2305 134.09 70.3665 134.248 70.6387C134.406 70.9108 134.484 71.1042 134.484 71.2188C134.241 71.6341 133.797 72.1641 133.152 72.8086C132.522 73.4531 131.835 74.026 131.09 74.5273C130.345 75.0143 129.672 75.2578 129.07 75.2578C128.612 75.2578 128.254 75.0501 127.996 74.6348C127.738 74.2194 127.609 73.6823 127.609 73.0234C127.609 72.5938 127.71 71.8346 127.91 70.7461C127.939 70.6029 127.989 70.388 128.061 70.1016C128.132 69.8151 128.168 69.6432 128.168 69.5859C127.982 69.9154 127.774 70.252 127.545 70.5957C127.33 70.9395 127.101 71.2904 126.857 71.6484C126.528 72.1354 126.084 72.6582 125.525 73.2168C124.981 73.7611 124.401 74.2337 123.785 74.6348C123.184 75.0215 122.625 75.2148 122.109 75.2148C120.792 75.2148 119.775 74.6491 119.059 73.5176C118.342 72.3861 117.984 71.0182 117.984 69.4141C117.984 67.8672 118.342 66.3203 119.059 64.7734C119.789 63.2266 120.749 61.8158 121.938 60.541C123.126 59.2663 124.437 58.2422 125.869 57.4688C127.316 56.6953 128.755 56.3086 130.188 56.3086H130.746L131.949 49.9062C132.035 49.4909 132.078 49.0898 132.078 48.7031C132.078 48.1589 131.204 47.8867 129.457 47.8867C129.371 47.8867 129.328 47.8008 129.328 47.6289C129.328 47.2852 129.443 46.9987 129.672 46.7695C131.62 46.5977 133.467 46.1966 135.215 45.5664C135.387 45.6667 135.473 45.9388 135.473 46.3828ZM129.371 63.1406L129.887 60.3477C130.001 59.8034 129.944 59.3236 129.715 58.9082C129.486 58.4928 129.099 58.2852 128.555 58.2852C127.681 58.2852 126.807 58.5859 125.934 59.1875C125.06 59.7891 124.265 60.5911 123.549 61.5938C122.833 62.582 122.253 63.6849 121.809 64.9023C121.379 66.1055 121.164 67.3229 121.164 68.5547C121.164 71.3333 121.895 72.7227 123.355 72.7227C123.885 72.7227 124.451 72.4362 125.053 71.8633C125.669 71.276 126.263 70.5098 126.836 69.5645C127.409 68.6191 127.917 67.5879 128.361 66.4707C128.82 65.3392 129.156 64.2292 129.371 63.1406ZM144.926 47.2422C145.355 47.2422 145.721 47.4141 146.021 47.7578C146.322 48.1016 146.473 48.5026 146.473 48.9609C146.473 49.6484 146.251 50.25 145.807 50.7656C145.363 51.2812 144.811 51.5391 144.152 51.5391C143.694 51.5391 143.336 51.36 143.078 51.002C142.82 50.6439 142.691 50.207 142.691 49.6914C142.691 49.0326 142.906 48.4596 143.336 47.9727C143.766 47.4857 144.296 47.2422 144.926 47.2422ZM143.68 56.3086C144.138 56.3086 144.496 56.5163 144.754 56.9316C145.012 57.347 145.141 57.8841 145.141 58.543C145.141 59.1302 145.055 59.8893 144.883 60.8203L142.992 70.4453C142.906 70.7891 142.863 71.1471 142.863 71.5195C142.863 72.2357 143.007 72.5938 143.293 72.5938C143.651 72.5938 144.081 72.3431 144.582 71.8418C145.083 71.3262 145.513 70.8893 145.871 70.5312L146.129 70.2305C146.186 70.2305 146.294 70.3665 146.451 70.6387C146.609 70.9108 146.688 71.1042 146.688 71.2188C146.444 71.6341 146 72.1641 145.355 72.8086C144.725 73.4531 144.038 74.026 143.293 74.5273C142.548 75.0143 141.875 75.2578 141.273 75.2578C140.815 75.2578 140.457 75.0501 140.199 74.6348C139.941 74.2194 139.812 73.6823 139.812 73.0234C139.812 72.5938 139.913 71.8346 140.113 70.7461L141.875 61.7656C142.018 60.9206 142.09 60.3477 142.09 60.0469C142.09 59.3307 141.947 58.9727 141.66 58.9727C141.488 58.9727 141.252 59.0872 140.951 59.3164C140.665 59.5456 140.385 59.8034 140.113 60.0898C139.841 60.362 139.641 60.5768 139.512 60.7344L139.297 60.9922C139.24 60.9922 139.132 60.8561 138.975 60.584C138.817 60.3118 138.738 60.1185 138.738 60.0039C138.967 59.6172 139.383 59.1374 139.984 58.5645C140.586 57.9772 141.23 57.4544 141.918 56.9961C142.605 56.5378 143.193 56.3086 143.68 56.3086ZM167.141 46.3828L166.496 49.6055L162.457 70.4453C162.371 70.7891 162.328 71.1471 162.328 71.5195C162.328 72.2357 162.471 72.5938 162.758 72.5938C163.116 72.5938 163.546 72.3431 164.047 71.8418C164.548 71.3262 164.978 70.8893 165.336 70.5312L165.594 70.2305C165.651 70.2305 165.758 70.3665 165.916 70.6387C166.074 70.9108 166.152 71.1042 166.152 71.2188C165.909 71.6341 165.465 72.1641 164.82 72.8086C164.19 73.4531 163.503 74.026 162.758 74.5273C162.013 75.0143 161.34 75.2578 160.738 75.2578C160.28 75.2578 159.922 75.0501 159.664 74.6348C159.406 74.2194 159.277 73.6823 159.277 73.0234C159.277 72.5938 159.378 71.8346 159.578 70.7461C159.607 70.6029 159.657 70.388 159.729 70.1016C159.8 69.8151 159.836 69.6432 159.836 69.5859C159.65 69.9154 159.442 70.252 159.213 70.5957C158.998 70.9395 158.769 71.2904 158.525 71.6484C158.196 72.1354 157.752 72.6582 157.193 73.2168C156.649 73.7611 156.069 74.2337 155.453 74.6348C154.852 75.0215 154.293 75.2148 153.777 75.2148C152.46 75.2148 151.443 74.6491 150.727 73.5176C150.01 72.3861 149.652 71.0182 149.652 69.4141C149.652 67.8672 150.01 66.3203 150.727 64.7734C151.457 63.2266 152.417 61.8158 153.605 60.541C154.794 59.2663 156.105 58.2422 157.537 57.4688C158.984 56.6953 160.423 56.3086 161.855 56.3086H162.414L163.617 49.9062C163.703 49.4909 163.746 49.0898 163.746 48.7031C163.746 48.1589 162.872 47.8867 161.125 47.8867C161.039 47.8867 160.996 47.8008 160.996 47.6289C160.996 47.2852 161.111 46.9987 161.34 46.7695C163.288 46.5977 165.135 46.1966 166.883 45.5664C167.055 45.6667 167.141 45.9388 167.141 46.3828ZM161.039 63.1406L161.555 60.3477C161.669 59.8034 161.612 59.3236 161.383 58.9082C161.154 58.4928 160.767 58.2852 160.223 58.2852C159.349 58.2852 158.475 58.5859 157.602 59.1875C156.728 59.7891 155.933 60.5911 155.217 61.5938C154.501 62.582 153.921 63.6849 153.477 64.9023C153.047 66.1055 152.832 67.3229 152.832 68.5547C152.832 71.3333 153.562 72.7227 155.023 72.7227C155.553 72.7227 156.119 72.4362 156.721 71.8633C157.337 71.276 157.931 70.5098 158.504 69.5645C159.077 68.6191 159.585 67.5879 160.029 66.4707C160.488 65.3392 160.824 64.2292 161.039 63.1406Z" fill="white"/>
<path d="M0 14.4961C6.30012 20.0984 15.0791 19.1979 30.687 15.1421C32.2497 14.736 33.9168 14.9601 35.3059 15.7832L61.0905 31.063L35.3304 19.6141C33.9205 18.9874 32.3183 18.9353 30.8588 19.4358C12.5496 25.7159 4.73674 24.7283 0 14.4961Z" fill="url(#paint8_radial_692_1754)"/>
<path d="M16.5669 25.8858C22.7094 27.5488 34.4861 19.1752 43.5027 24.2129C35.7991 20.3448 24.9274 34.7378 16.5669 25.8858Z" fill="url(#paint9_radial_692_1754)"/>
<path d="M42.4528 34.1693C40.4746 32.9379 39.8039 31.791 39.5364 30.2054C39.314 28.8871 40.2138 27.6374 41.514 27.3262C46.4064 26.1551 49.6595 27.3172 54.8779 31.063C50.3759 26.3362 46.8249 25.2844 39.6469 25.78C38.7972 25.8387 38.0191 26.2751 37.5081 26.9564L36.1669 28.7446C35.6047 29.4943 35.6307 30.5432 36.2784 31.2205C38.4425 33.4837 39.9798 34.1156 42.4528 34.1693Z" fill="url(#paint10_radial_692_1754)"/>
<path d="M61.0905 28.9921C48.8725 19.5072 53.131 18.6378 60.0551 10.3543C56.6285 8.93238 54.8937 8.83857 52.8071 12.4252C51.2879 8.29387 49.7783 6.42726 45.559 4.14173C43.8524 8.52031 44.6321 10.6991 46.5945 14.4961C42.9378 12.0347 40.7471 11.3823 36.2402 13.4606C46.3046 17.727 45.2926 18.8748 61.0905 28.9921Z" fill="url(#paint11_radial_692_1754)"/>
<path d="M78.6929 22.7441C78.6929 22.1918 79.1406 21.7441 79.6929 21.7441H79.7638C80.3161 21.7441 80.7638 22.1918 80.7638 22.7441V25.9213C80.7638 26.4735 80.3161 26.9213 79.7638 26.9213H74.4803C73.3757 26.9213 72.4803 26.0258 72.4803 24.9213V19.6024C72.4803 18.4978 73.3757 17.6024 74.4803 17.6024H78.7281C80.6137 17.6024 82.4755 18.023 84.178 18.8337V18.8337C85.2965 19.3663 86.1249 20.3629 86.4441 21.5599L88.3399 28.6695C89.2063 31.9182 86.6836 35.0788 83.3237 34.9544L68.0679 34.3894C64.7776 34.2675 62.2002 31.5169 62.2923 28.2256L62.6948 13.8426C62.7856 10.5955 65.4441 8.01038 68.6924 8.01038H83.0387C86.0229 8.01038 88.8896 9.21712 90.915 11.4088C101.807 23.194 109.097 33.3225 115.395 32.2299C115.685 32.1796 115.968 32.3916 115.968 32.686V32.686C115.968 32.9325 115.766 33.1318 115.519 33.1285C109.37 33.045 105.37 32.4313 87.653 13.254C86.5367 12.0456 85.0793 11.1983 83.4735 10.8414L77.8584 9.59364C77.0431 9.41248 76.199 9.4035 75.3801 9.56728L71.091 10.4251C68.2865 10.986 66.2677 13.4485 66.2677 16.3086V27.0984C66.2677 29.8599 68.5063 32.0984 71.2677 32.0984H80.9055C83.1146 32.0984 84.9055 30.3076 84.9055 28.0984V22.6378C84.9055 20.4287 83.1146 18.6378 80.9055 18.6378H76.5512C75.4466 18.6378 74.5512 19.5332 74.5512 20.6378V24.8858C74.5512 25.4381 74.9989 25.8858 75.5512 25.8858H77.6929C78.2452 25.8858 78.6929 25.4381 78.6929 24.8858V22.7441Z" fill="url(#paint12_radial_692_1754)"/>
<path d="M104.412 33.0631C96.4743 29.9513 88.3242 12.4066 78.6929 13.4606C91.6665 19.2326 92.9183 31.4785 104.412 33.0631Z" fill="url(#paint13_radial_692_1754)"/>
<path d="M111.827 30.0276C106.485 21.6827 106.361 16.9143 110.791 8.28346C105.363 9.71409 97.6256 19.5114 111.827 30.0276Z" fill="url(#paint14_radial_692_1754)"/>
<path d="M118.039 10.3543C113.102 14.0549 110.405 23.2793 118.039 32.0984C106.33 25.6888 109.793 12.7713 118.039 0V10.3543Z" fill="url(#paint15_radial_692_1754)"/>
<path d="M236.079 14.4961C229.778 20.0984 221 19.1979 205.392 15.1421C203.829 14.736 202.162 14.9601 200.773 15.7832L174.988 31.063L200.748 19.6141C202.158 18.9874 203.76 18.9353 205.22 19.4358C223.529 25.7159 231.342 24.7283 236.079 14.4961Z" fill="url(#paint16_radial_692_1754)"/>
<path d="M219.512 25.8858C213.369 27.5488 201.593 19.1752 192.576 24.2129C200.279 20.3448 211.151 34.7378 219.512 25.8858Z" fill="url(#paint17_radial_692_1754)"/>
<path d="M193.626 34.1693C195.604 32.9379 196.275 31.791 196.542 30.2054C196.765 28.8871 195.865 27.6374 194.565 27.3262C189.672 26.1551 186.419 27.3172 181.201 31.063C185.703 26.3362 189.254 25.2844 196.432 25.78C197.281 25.8387 198.06 26.2751 198.571 26.9564L199.912 28.7446C200.474 29.4943 200.448 30.5432 199.8 31.2205C197.636 33.4837 196.099 34.1156 193.626 34.1693Z" fill="url(#paint18_radial_692_1754)"/>
<path d="M174.988 28.9921C187.206 19.5072 182.948 18.6378 176.024 10.3543C179.45 8.93238 181.185 8.83857 183.272 12.4252C184.791 8.29387 186.3 6.42726 190.52 4.14173C192.226 8.52031 191.446 10.6991 189.484 14.4961C193.141 12.0347 195.331 11.3823 199.838 13.4606C189.774 17.727 190.786 18.8748 174.988 28.9921Z" fill="url(#paint19_radial_692_1754)"/>
<path d="M157.386 22.7441C157.386 22.1918 156.938 21.7441 156.386 21.7441H156.315C155.763 21.7441 155.315 22.1918 155.315 22.7441V25.9213C155.315 26.4735 155.763 26.9213 156.315 26.9213H161.598C162.703 26.9213 163.598 26.0258 163.598 24.9213V19.6024C163.598 18.4978 162.703 17.6024 161.598 17.6024H157.351C155.465 17.6024 153.603 18.023 151.901 18.8337V18.8337C150.782 19.3663 149.954 20.3629 149.635 21.5599L147.739 28.6695C146.872 31.9182 149.395 35.0788 152.755 34.9544L168.011 34.3894C171.301 34.2675 173.878 31.5169 173.786 28.2256L173.384 13.8426C173.293 10.5955 170.635 8.01038 167.386 8.01038H153.04C150.056 8.01038 147.189 9.21712 145.164 11.4088C134.272 23.194 126.982 33.3225 120.683 32.2299C120.393 32.1796 120.11 32.3916 120.11 32.686V32.686C120.11 32.9325 120.313 33.1318 120.559 33.1285C126.708 33.045 130.709 32.4313 148.426 13.254C149.542 12.0456 150.999 11.1983 152.605 10.8414L158.22 9.59364C159.035 9.41248 159.88 9.4035 160.698 9.56728L164.988 10.4251C167.792 10.986 169.811 13.4485 169.811 16.3086V27.0984C169.811 29.8599 167.572 32.0984 164.811 32.0984H155.173C152.964 32.0984 151.173 30.3076 151.173 28.0984V22.6378C151.173 20.4287 152.964 18.6378 155.173 18.6378H159.527C160.632 18.6378 161.527 19.5332 161.527 20.6378V24.8858C161.527 25.4381 161.08 25.8858 160.527 25.8858H158.386C157.833 25.8858 157.386 25.4381 157.386 24.8858V22.7441Z" fill="url(#paint20_radial_692_1754)"/>
<path d="M131.666 33.0631C139.604 29.9513 147.754 12.4066 157.386 13.4606C144.412 19.2326 143.16 31.4785 131.666 33.0631Z" fill="url(#paint21_radial_692_1754)"/>
<path d="M124.252 30.0276C129.594 21.6827 129.718 16.9143 125.287 8.28346C130.716 9.71409 138.453 19.5114 124.252 30.0276Z" fill="url(#paint22_radial_692_1754)"/>
<path d="M118.039 10.3543C122.976 14.0549 125.673 23.2793 118.039 32.0984C129.749 25.6888 126.286 12.7713 118.039 0V10.3543Z" fill="url(#paint23_radial_692_1754)"/>
<defs>
<radialGradient id="paint0_radial_692_1754" cx="0" cy="0" r="1" gradientUnits="userSpaceOnUse" gradientTransform="translate(79.728 111.309) scale(38.311 20.1909)">
<stop stop-color="#E1E1E1"/>
<stop offset="1" stop-color="#FFF4DA"/>
</radialGradient>
<radialGradient id="paint1_radial_692_1754" cx="0" cy="0" r="1" gradientUnits="userSpaceOnUse" gradientTransform="translate(79.728 111.309) scale(38.311 20.1909)">
<stop stop-color="#E1E1E1"/>
<stop offset="1" stop-color="#FFF4DA"/>
</radialGradient>
<radialGradient id="paint2_radial_692_1754" cx="0" cy="0" r="1" gradientUnits="userSpaceOnUse" gradientTransform="translate(79.728 111.309) scale(38.311 20.1909)">
<stop stop-color="#E1E1E1"/>
<stop offset="1" stop-color="#FFF4DA"/>
</radialGradient>
<radialGradient id="paint3_radial_692_1754" cx="0" cy="0" r="1" gradientUnits="userSpaceOnUse" gradientTransform="translate(79.728 111.309) scale(38.311 20.1909)">
<stop stop-color="#E1E1E1"/>
<stop offset="1" stop-color="#FFF4DA"/>
</radialGradient>
<radialGradient id="paint4_radial_692_1754" cx="0" cy="0" r="1" gradientUnits="userSpaceOnUse" gradientTransform="translate(156.35 111.309) rotate(180) scale(38.311 20.1909)">
<stop stop-color="#E1E1E1"/>
<stop offset="1" stop-color="#FFF4DA"/>
</radialGradient>
<radialGradient id="paint5_radial_692_1754" cx="0" cy="0" r="1" gradientUnits="userSpaceOnUse" gradientTransform="translate(156.35 111.309) rotate(180) scale(38.311 20.1909)">
<stop stop-color="#E1E1E1"/>
<stop offset="1" stop-color="#FFF4DA"/>
</radialGradient>
<radialGradient id="paint6_radial_692_1754" cx="0" cy="0" r="1" gradientUnits="userSpaceOnUse" gradientTransform="translate(156.35 111.309) rotate(180) scale(38.311 20.1909)">
<stop stop-color="#E1E1E1"/>
<stop offset="1" stop-color="#FFF4DA"/>
</radialGradient>
<radialGradient id="paint7_radial_692_1754" cx="0" cy="0" r="1" gradientUnits="userSpaceOnUse" gradientTransform="translate(156.35 111.309) rotate(180) scale(38.311 20.1909)">
<stop stop-color="#E1E1E1"/>
<stop offset="1" stop-color="#FFF4DA"/>
</radialGradient>
<radialGradient id="paint8_radial_692_1754" cx="0" cy="0" r="1" gradientUnits="userSpaceOnUse" gradientTransform="translate(59.0197 17.6024) scale(59.0197 17.6024)">
<stop stop-color="#E1E1E1"/>
<stop offset="1" stop-color="#FFF4DA"/>
</radialGradient>
<radialGradient id="paint9_radial_692_1754" cx="0" cy="0" r="1" gradientUnits="userSpaceOnUse" gradientTransform="translate(59.0197 17.6024) scale(59.0197 17.6024)">
<stop stop-color="#E1E1E1"/>
<stop offset="1" stop-color="#FFF4DA"/>
</radialGradient>
<radialGradient id="paint10_radial_692_1754" cx="0" cy="0" r="1" gradientUnits="userSpaceOnUse" gradientTransform="translate(59.0197 17.6024) scale(59.0197 17.6024)">
<stop stop-color="#E1E1E1"/>
<stop offset="1" stop-color="#FFF4DA"/>
</radialGradient>
<radialGradient id="paint11_radial_692_1754" cx="0" cy="0" r="1" gradientUnits="userSpaceOnUse" gradientTransform="translate(59.0197 17.6024) scale(59.0197 17.6024)">
<stop stop-color="#E1E1E1"/>
<stop offset="1" stop-color="#FFF4DA"/>
</radialGradient>
<radialGradient id="paint12_radial_692_1754" cx="0" cy="0" r="1" gradientUnits="userSpaceOnUse" gradientTransform="translate(59.0197 17.6024) scale(59.0197 17.6024)">
<stop stop-color="#E1E1E1"/>
<stop offset="1" stop-color="#FFF4DA"/>
</radialGradient>
<radialGradient id="paint13_radial_692_1754" cx="0" cy="0" r="1" gradientUnits="userSpaceOnUse" gradientTransform="translate(59.0197 17.6024) scale(59.0197 17.6024)">
<stop stop-color="#E1E1E1"/>
<stop offset="1" stop-color="#FFF4DA"/>
</radialGradient>
<radialGradient id="paint14_radial_692_1754" cx="0" cy="0" r="1" gradientUnits="userSpaceOnUse" gradientTransform="translate(59.0197 17.6024) scale(59.0197 17.6024)">
<stop stop-color="#E1E1E1"/>
<stop offset="1" stop-color="#FFF4DA"/>
</radialGradient>
<radialGradient id="paint15_radial_692_1754" cx="0" cy="0" r="1" gradientUnits="userSpaceOnUse" gradientTransform="translate(59.0197 17.6024) scale(59.0197 17.6024)">
<stop stop-color="#E1E1E1"/>
<stop offset="1" stop-color="#FFF4DA"/>
</radialGradient>
<radialGradient id="paint16_radial_692_1754" cx="0" cy="0" r="1" gradientUnits="userSpaceOnUse" gradientTransform="translate(177.059 17.6024) rotate(180) scale(59.0197 17.6024)">
<stop stop-color="#E1E1E1"/>
<stop offset="1" stop-color="#FFF4DA"/>
</radialGradient>
<radialGradient id="paint17_radial_692_1754" cx="0" cy="0" r="1" gradientUnits="userSpaceOnUse" gradientTransform="translate(177.059 17.6024) rotate(180) scale(59.0197 17.6024)">
<stop stop-color="#E1E1E1"/>
<stop offset="1" stop-color="#FFF4DA"/>
</radialGradient>
<radialGradient id="paint18_radial_692_1754" cx="0" cy="0" r="1" gradientUnits="userSpaceOnUse" gradientTransform="translate(177.059 17.6024) rotate(180) scale(59.0197 17.6024)">
<stop stop-color="#E1E1E1"/>
<stop offset="1" stop-color="#FFF4DA"/>
</radialGradient>
<radialGradient id="paint19_radial_692_1754" cx="0" cy="0" r="1" gradientUnits="userSpaceOnUse" gradientTransform="translate(177.059 17.6024) rotate(180) scale(59.0197 17.6024)">
<stop stop-color="#E1E1E1"/>
<stop offset="1" stop-color="#FFF4DA"/>
</radialGradient>
<radialGradient id="paint20_radial_692_1754" cx="0" cy="0" r="1" gradientUnits="userSpaceOnUse" gradientTransform="translate(177.059 17.6024) rotate(180) scale(59.0197 17.6024)">
<stop stop-color="#E1E1E1"/>
<stop offset="1" stop-color="#FFF4DA"/>
</radialGradient>
<radialGradient id="paint21_radial_692_1754" cx="0" cy="0" r="1" gradientUnits="userSpaceOnUse" gradientTransform="translate(177.059 17.6024) rotate(180) scale(59.0197 17.6024)">
<stop stop-color="#E1E1E1"/>
<stop offset="1" stop-color="#FFF4DA"/>
</radialGradient>
<radialGradient id="paint22_radial_692_1754" cx="0" cy="0" r="1" gradientUnits="userSpaceOnUse" gradientTransform="translate(177.059 17.6024) rotate(180) scale(59.0197 17.6024)">
<stop stop-color="#E1E1E1"/>
<stop offset="1" stop-color="#FFF4DA"/>
</radialGradient>
<radialGradient id="paint23_radial_692_1754" cx="0" cy="0" r="1" gradientUnits="userSpaceOnUse" gradientTransform="translate(177.059 17.6024) rotate(180) scale(59.0197 17.6024)">
<stop stop-color="#E1E1E1"/>
<stop offset="1" stop-color="#FFF4DA"/>
</radialGradient>
</defs>
</svg>
