<svg width="237" height="132" viewBox="0 0 237 132" fill="none" xmlns="http://www.w3.org/2000/svg">
<path d="M50.713 108.06C49.3894 108.487 47.9219 108.504 46.7174 107.809C44.5799 106.575 44.1417 105.154 44.5239 102.508V102.508C42.8803 103.056 42.0634 104.953 43.0344 106.388C43.9981 107.812 45.0942 108.974 46.6272 110.246C47.9176 111.316 49.57 111.855 51.2463 111.812C56.4411 111.679 59.0354 110.851 62.1261 108.72C61.1055 110.641 61.1623 111.76 61.9889 113.6C62.061 113.76 62.2573 113.822 62.4081 113.731C64.083 112.73 65.0044 111.892 66.2679 109.756C66.2159 114.032 66.9848 113.977 70.4096 114.933C67.5199 110.86 68.053 109.221 70.1985 106.254C70.9963 105.151 72.1264 104.331 73.4058 103.866L78.5781 101.985C81.3347 100.982 84.3491 100.942 87.1317 101.869L104.174 107.55C104.308 107.435 104.443 107.326 104.579 107.223V104.508C104.579 103.403 105.474 102.508 106.579 102.508H108.791C109.896 102.508 110.791 103.403 110.791 104.508V105.614H111.827V103.472C111.827 102.368 110.931 101.472 109.827 101.472H105.543C104.439 101.472 103.543 102.368 103.543 103.472V106.65C98.7741 103.748 93.5326 101.584 86.7262 99.7769C82.8461 98.747 78.7539 99.0145 74.9333 100.247L50.713 108.06Z" fill="url(#paint0_radial_692_286)"/>
<path fill-rule="evenodd" clip-rule="evenodd" d="M118.04 111.827V108.721C115.458 105.74 114.164 105.799 111.827 105.614H110.791C108.063 105.589 106.223 105.979 104.579 107.223V107.685L104.174 107.55C103.27 108.327 102.41 109.382 101.473 110.791C94.423 108.167 92.2423 105.859 84.6309 104.117C82.7932 103.696 80.8384 103.854 79.1738 104.739C77.1411 105.82 75.7483 107.075 74.4009 109.235C73.7981 110.201 73.7054 111.42 74.2151 112.438C75.05 114.107 76.2503 115.417 79.1381 117.128C80.1191 117.709 81.351 117.62 82.2789 116.957L86.2804 114.099C87.2189 113.429 87.4133 112.09 86.6216 111.251C84.8307 109.354 83.7232 109.09 81.7994 109.756C83.0247 110.067 83.7478 110.456 84.3965 111.688C84.7601 112.378 84.5523 113.216 84.0005 113.767L82.2759 115.492C81.3711 116.397 79.9668 116.664 78.906 115.948C77.392 114.927 76.4786 113.802 75.488 112.283C74.8942 111.372 74.8544 110.185 75.4804 109.296C77.1885 106.871 79.0768 106.022 82.8348 105.614C87.5143 105.758 93.9739 109.592 101.473 112.862C101.611 115.305 101.827 117.608 105.431 119.531C106.15 119.915 107.027 119.733 107.604 119.156L110.252 116.508C110.55 116.21 110.55 115.727 110.252 115.429V115.429C109.972 115.149 109.522 115.134 109.211 115.381C104.883 118.812 103.35 117.017 102.508 112.862C108.785 113.743 111.601 112.063 112.862 106.65H114.933L118.04 111.827ZM102.508 111.827C105.324 107.593 107.417 106.549 111.827 106.65C109.582 111.782 107.624 113.001 102.508 111.827Z" fill="url(#paint1_radial_692_286)"/>
<path d="M118.04 114.933V111.827C116.112 115.763 116.189 118.074 110.791 119.075C111.96 121.038 112.806 121.636 114.933 121.146C115.325 125.201 115.718 127.472 118.04 131.5V125.287C116.703 121.107 116.953 118.865 118.04 114.933Z" fill="url(#paint2_radial_692_286)"/>
<path d="M115.969 98.3662C116.06 94.792 116.696 93.3936 118.04 91.1182V105.614C115.723 100.811 114.342 99.4138 111.827 99.4015C113.365 97.8121 114.277 97.3638 115.969 98.3662Z" fill="url(#paint3_radial_692_286)"/>
<path d="M185.366 108.06C186.69 108.487 188.157 108.504 189.362 107.809C191.499 106.575 191.937 105.154 191.555 102.508V102.508C193.199 103.056 194.016 104.953 193.045 106.388C192.081 107.812 190.985 108.974 189.452 110.246C188.161 111.316 186.509 111.855 184.833 111.812C179.638 111.679 177.044 110.851 173.953 108.72C174.974 110.641 174.917 111.76 174.09 113.6C174.018 113.76 173.822 113.822 173.671 113.731C171.996 112.73 171.075 111.892 169.811 109.756C169.863 114.032 169.094 113.977 165.669 114.933C168.559 110.86 168.026 109.221 165.881 106.254C165.083 105.151 163.953 104.331 162.673 103.866L157.501 101.985C154.744 100.982 151.73 100.942 148.947 101.869L131.905 107.55C131.771 107.435 131.636 107.326 131.5 107.223V104.508C131.5 103.403 130.605 102.508 129.5 102.508H127.288C126.183 102.508 125.288 103.403 125.288 104.508V105.614H124.252V103.472C124.252 102.368 125.148 101.472 126.252 101.472H130.536C131.64 101.472 132.536 102.368 132.536 103.472V106.65C137.305 103.748 142.547 101.584 149.353 99.7769C153.233 98.747 157.325 99.0145 161.146 100.247L185.366 108.06Z" fill="url(#paint4_radial_692_286)"/>
<path fill-rule="evenodd" clip-rule="evenodd" d="M118.04 111.827V108.721C120.621 105.74 121.915 105.799 124.252 105.614H125.288C128.016 105.589 129.856 105.979 131.5 107.223V107.685L131.905 107.55C132.809 108.327 133.669 109.382 134.607 110.791C141.656 108.167 143.837 105.859 151.448 104.117C153.286 103.696 155.241 103.854 156.905 104.739C158.938 105.82 160.331 107.075 161.678 109.235C162.281 110.201 162.374 111.42 161.864 112.438C161.029 114.107 159.829 115.417 156.941 117.128C155.96 117.709 154.728 117.62 153.8 116.957L149.799 114.099C148.86 113.429 148.666 112.09 149.457 111.251C151.248 109.354 152.356 109.09 154.28 109.756C153.054 110.067 152.331 110.456 151.683 111.688C151.319 112.378 151.527 113.216 152.079 113.767L153.803 115.492C154.708 116.397 156.112 116.664 157.173 115.948C158.687 114.927 159.601 113.802 160.591 112.283C161.185 111.372 161.225 110.185 160.599 109.296C158.891 106.871 157.002 106.022 153.244 105.614C148.565 105.758 142.105 109.592 134.607 112.862C134.468 115.305 134.252 117.608 130.648 119.531C129.929 119.915 129.052 119.733 128.475 119.156L125.827 116.508C125.529 116.21 125.529 115.727 125.827 115.429V115.429C126.107 115.149 126.557 115.134 126.868 115.381C131.196 118.812 132.729 117.017 133.571 112.862C127.294 113.743 124.479 112.063 123.217 106.65H121.146L118.04 111.827ZM133.571 111.827C130.755 107.593 128.662 106.549 124.252 106.65C126.497 111.782 128.455 113.001 133.571 111.827Z" fill="url(#paint5_radial_692_286)"/>
<path d="M118.04 114.933V111.827C119.967 115.763 119.89 118.074 125.288 119.075C124.119 121.038 123.273 121.636 121.146 121.146C120.755 125.201 120.362 127.472 118.04 131.5V125.287C119.376 121.107 119.126 118.865 118.04 114.933Z" fill="url(#paint6_radial_692_286)"/>
<path d="M120.11 98.3662C120.019 94.792 119.383 93.3936 118.04 91.1182V105.614C120.356 100.811 121.737 99.4138 124.252 99.4015C122.714 97.8121 121.802 97.3638 120.11 98.3662Z" fill="url(#paint7_radial_692_286)"/>
<path d="M67.6875 52.8711L64.6367 69.0273C64.3216 70.5599 64.1641 71.849 64.1641 72.8945C64.1641 73.1237 64.3574 73.3314 64.7441 73.5176C65.1309 73.7038 65.5104 73.8255 65.8828 73.8828L66.4844 73.9688C66.5417 73.9688 66.5703 74.026 66.5703 74.1406C66.5703 74.4557 66.4844 74.7852 66.3125 75.1289C64.9948 75.0573 63.9635 75.0072 63.2188 74.9785C62.474 74.9355 62.0156 74.9141 61.8438 74.9141C61.8151 74.9141 61.4069 74.9355 60.6191 74.9785C59.8314 75.0072 58.6641 75.0573 57.1172 75.1289C57.0599 75.0716 57.0312 74.957 57.0312 74.7852C57.0312 74.2409 57.1315 73.9688 57.332 73.9688C57.5612 73.9688 57.8763 73.9258 58.2773 73.8398C58.6927 73.7539 59.0794 73.6393 59.4375 73.4961C59.7956 73.3529 60.0104 73.1953 60.082 73.0234C60.4974 72.0781 60.8698 70.7031 61.1992 68.8984L64.25 53C64.5651 51.4674 64.7227 50.1497 64.7227 49.0469C64.7227 48.832 64.5723 48.6387 64.2715 48.4668C63.985 48.2949 63.6484 48.1589 63.2617 48.0586C62.8893 47.944 62.5742 47.8867 62.3164 47.8867C62.2591 47.8867 62.2305 47.8151 62.2305 47.6719C62.2305 47.2708 62.3451 46.9557 62.5742 46.7266C62.8034 46.7409 63.1901 46.7695 63.7344 46.8125C64.293 46.8555 64.8945 46.8984 65.5391 46.9414C66.1836 46.9701 66.7422 46.9844 67.2148 46.9844C67.9023 46.9844 68.7832 46.9414 69.8574 46.8555C70.9316 46.7695 71.569 46.7266 71.7695 46.7266V46.8555C71.7695 47.543 71.6693 47.8867 71.4688 47.8867C71.3255 47.8867 71.0462 47.944 70.6309 48.0586C70.2298 48.1589 69.8359 48.2878 69.4492 48.4453C69.0768 48.5885 68.862 48.7318 68.8047 48.875C68.418 49.7201 68.0456 51.0521 67.6875 52.8711ZM81.3945 56.3086C82.6549 56.3086 83.6074 56.8672 84.252 57.9844C84.8965 59.1016 85.2188 60.4193 85.2188 61.9375C85.2188 63.7708 84.9108 65.4896 84.2949 67.0938C83.6934 68.6979 82.8841 70.1159 81.8672 71.3477C80.8503 72.5651 79.7259 73.5247 78.4941 74.2266C77.2767 74.9141 76.0521 75.2578 74.8203 75.2578C73.7318 75.2578 72.7507 74.8496 71.877 74.0332C71.0033 73.2168 70.5664 72.0495 70.5664 70.5312C70.5664 70.1016 70.6094 69.6289 70.6953 69.1133L74.2617 50.9805C74.5195 49.7917 74.6484 49.0326 74.6484 48.7031C74.6484 48.1589 73.7747 47.8867 72.0273 47.8867C71.9414 47.8867 71.8984 47.8008 71.8984 47.6289C71.8984 47.2852 72.013 46.9987 72.2422 46.7695C74.0898 46.5977 75.8945 46.1966 77.6562 45.5664C77.8281 45.6523 77.9141 45.9245 77.9141 46.3828C77.9141 46.6979 77.7279 47.7721 77.3555 49.6055L74.8203 61.9805C75.737 60.4622 76.6966 59.2448 77.6992 58.3281C78.5013 57.612 79.1888 57.0964 79.7617 56.7812C80.3346 56.4661 80.8789 56.3086 81.3945 56.3086ZM80.1484 58.6719C79.5469 58.6719 78.7806 59.209 77.8496 60.2832C77.2337 60.9993 76.6322 61.8229 76.0449 62.7539C75.472 63.6849 74.9779 64.6374 74.5625 65.6113C74.1471 66.571 73.8607 67.4661 73.7031 68.2969C73.388 69.8724 73.431 71.1328 73.832 72.0781C74.2331 73.0234 74.9349 73.4961 75.9375 73.4961C77.0117 73.4961 78.0358 72.9447 79.0098 71.8418C79.9694 70.7389 80.7142 69.3783 81.2441 67.7598C81.7741 66.1413 82.0391 64.5443 82.0391 62.9688C82.0391 62.3099 82.0033 61.651 81.9316 60.9922C81.8743 60.3333 81.7096 59.7819 81.4375 59.3379C81.1797 58.8939 80.75 58.6719 80.1484 58.6719ZM93.125 56.3086C93.5833 56.3086 93.9414 56.5163 94.1992 56.9316C94.457 57.347 94.5859 57.8841 94.5859 58.543C94.5859 59.1732 94.5 59.9323 94.3281 60.8203L93.6406 64.4297C93.9987 63.5846 94.457 62.6966 95.0156 61.7656C95.5885 60.8203 96.1973 59.9323 96.8418 59.1016C97.4863 58.2708 98.1237 57.5977 98.7539 57.082C99.3841 56.5664 99.9427 56.3086 100.43 56.3086C101.404 56.3086 102.191 56.7669 102.793 57.6836C102.793 59.6029 102.263 60.5625 101.203 60.5625C100.974 60.5625 100.702 60.3835 100.387 60.0254C100.072 59.6673 99.7422 59.4883 99.3984 59.4883C98.9831 59.4883 98.4388 59.832 97.7656 60.5195C97.0924 61.207 96.3978 62.1094 95.6816 63.2266C94.9655 64.3294 94.321 65.5254 93.748 66.8145C93.1751 68.0892 92.7812 69.3138 92.5664 70.4883L91.75 75C91.263 75.0859 90.7904 75.1289 90.332 75.1289C89.7878 75.1289 89.2578 75.0859 88.7422 75L91.3203 61.7656C91.4635 60.7773 91.5352 60.2044 91.5352 60.0469C91.5352 59.3307 91.3919 58.9727 91.1055 58.9727C90.862 58.9727 90.4967 59.2018 90.0098 59.6602C89.7806 59.8893 89.5299 60.14 89.2578 60.4121C89 60.6842 88.8281 60.8776 88.7422 60.9922C88.6849 60.9922 88.5775 60.8561 88.4199 60.584C88.2624 60.3118 88.1836 60.1185 88.1836 60.0039C88.4128 59.6172 88.8281 59.1374 89.4297 58.5645C90.0312 57.9772 90.6758 57.4544 91.3633 56.9961C92.0508 56.5378 92.638 56.3086 93.125 56.3086ZM112.59 56.3086C114.28 56.3086 115.59 56.8958 116.521 58.0703C117.452 59.2448 117.918 60.8633 117.918 62.9258C117.918 64.401 117.632 65.8691 117.059 67.3301C116.486 68.7767 115.734 70.0944 114.803 71.2832C113.872 72.472 112.848 73.4245 111.73 74.1406C110.613 74.8568 109.51 75.2148 108.422 75.2148C106.703 75.2148 105.393 74.6562 104.49 73.5391C103.588 72.4219 103.137 70.832 103.137 68.7695C103.137 67.2799 103.416 65.8047 103.975 64.3438C104.548 62.8685 105.299 61.5293 106.23 60.3262C107.161 59.1087 108.178 58.1348 109.281 57.4043C110.398 56.6738 111.501 56.3086 112.59 56.3086ZM112.074 58.0703C111.358 58.0703 110.663 58.3854 109.99 59.0156C109.317 59.6315 108.708 60.4408 108.164 61.4434C107.62 62.446 107.19 63.5417 106.875 64.7305C106.56 65.9193 106.402 67.0794 106.402 68.2109C106.402 69.8724 106.667 71.1615 107.197 72.0781C107.727 72.9948 108.393 73.4531 109.195 73.4531C109.911 73.4531 110.592 73.1452 111.236 72.5293C111.895 71.8991 112.482 71.0827 112.998 70.0801C113.514 69.0632 113.915 67.9603 114.201 66.7715C114.502 65.5827 114.652 64.4154 114.652 63.2695C114.652 61.5794 114.423 60.2904 113.965 59.4023C113.507 58.5143 112.876 58.0703 112.074 58.0703ZM134.289 56.3086C135.721 56.3086 136.438 57.2539 136.438 59.1445C136.438 60.4766 136.237 62.0378 135.836 63.8281L134.418 70.4453C134.332 70.7891 134.289 71.1471 134.289 71.5195C134.289 72.2357 134.432 72.5938 134.719 72.5938C135.077 72.5938 135.507 72.3431 136.008 71.8418C136.509 71.3262 136.939 70.8893 137.297 70.5312L137.555 70.2305C137.612 70.2305 137.719 70.3665 137.877 70.6387C138.035 70.9108 138.113 71.1042 138.113 71.2188C137.87 71.6341 137.426 72.1641 136.781 72.8086C136.151 73.4531 135.464 74.026 134.719 74.5273C133.974 75.0143 133.301 75.2578 132.699 75.2578C132.241 75.2578 131.883 75.0501 131.625 74.6348C131.367 74.2194 131.238 73.6823 131.238 73.0234C131.238 72.5938 131.339 71.8346 131.539 70.7461L133.043 63.6562C133.243 62.6823 133.344 61.9089 133.344 61.3359C133.344 60.1042 133.072 59.4883 132.527 59.4883C132.055 59.4883 131.417 59.8464 130.615 60.5625C129.813 61.2643 128.975 62.2025 128.102 63.377C127.242 64.5514 126.462 65.862 125.76 67.3086C125.058 68.7409 124.564 70.1875 124.277 71.6484L123.547 75C123.16 75.1146 122.716 75.1719 122.215 75.1719C121.728 75.1719 121.241 75.1146 120.754 75L125.395 50.9805C125.652 49.7057 125.781 48.9466 125.781 48.7031C125.781 48.1589 124.908 47.8867 123.16 47.8867C123.074 47.8867 123.031 47.8008 123.031 47.6289C123.031 47.2852 123.146 46.9987 123.375 46.7695C125.237 46.5977 127.042 46.1966 128.789 45.5664C128.961 45.6523 129.047 45.9245 129.047 46.3828C129.047 46.5833 128.861 47.6576 128.488 49.6055L125.523 64.7734C125.796 64.2865 126.419 63.3984 127.393 62.1094C128.037 61.2643 128.782 60.3978 129.627 59.5098C130.486 58.6074 131.331 57.8483 132.162 57.2324C133.007 56.6165 133.716 56.3086 134.289 56.3086ZM147.91 47.2422C148.34 47.2422 148.705 47.4141 149.006 47.7578C149.307 48.1016 149.457 48.5026 149.457 48.9609C149.457 49.6484 149.235 50.25 148.791 50.7656C148.347 51.2812 147.796 51.5391 147.137 51.5391C146.678 51.5391 146.32 51.36 146.062 51.002C145.805 50.6439 145.676 50.207 145.676 49.6914C145.676 49.0326 145.891 48.4596 146.32 47.9727C146.75 47.4857 147.28 47.2422 147.91 47.2422ZM146.664 56.3086C147.122 56.3086 147.48 56.5163 147.738 56.9316C147.996 57.347 148.125 57.8841 148.125 58.543C148.125 59.1302 148.039 59.8893 147.867 60.8203L145.977 70.4453C145.891 70.7891 145.848 71.1471 145.848 71.5195C145.848 72.2357 145.991 72.5938 146.277 72.5938C146.635 72.5938 147.065 72.3431 147.566 71.8418C148.068 71.3262 148.497 70.8893 148.855 70.5312L149.113 70.2305C149.171 70.2305 149.278 70.3665 149.436 70.6387C149.593 70.9108 149.672 71.1042 149.672 71.2188C149.428 71.6341 148.984 72.1641 148.34 72.8086C147.71 73.4531 147.022 74.026 146.277 74.5273C145.533 75.0143 144.859 75.2578 144.258 75.2578C143.799 75.2578 143.441 75.0501 143.184 74.6348C142.926 74.2194 142.797 73.6823 142.797 73.0234C142.797 72.5938 142.897 71.8346 143.098 70.7461L144.859 61.7656C145.003 60.9206 145.074 60.3477 145.074 60.0469C145.074 59.3307 144.931 58.9727 144.645 58.9727C144.473 58.9727 144.236 59.0872 143.936 59.3164C143.649 59.5456 143.37 59.8034 143.098 60.0898C142.826 60.362 142.625 60.5768 142.496 60.7344L142.281 60.9922C142.224 60.9922 142.117 60.8561 141.959 60.584C141.801 60.3118 141.723 60.1185 141.723 60.0039C141.952 59.6172 142.367 59.1374 142.969 58.5645C143.57 57.9772 144.215 57.4544 144.902 56.9961C145.59 56.5378 146.177 56.3086 146.664 56.3086ZM166.473 56.3086C167.246 56.3086 167.84 56.5378 168.256 56.9961C168.671 57.4544 168.922 57.9342 169.008 58.4355C169.094 58.9368 169.137 59.5885 169.137 60.3906C169.137 60.9206 168.936 62.1953 168.535 64.2148C169.008 63.3984 169.595 62.5319 170.297 61.6152C170.999 60.6986 171.736 59.8392 172.51 59.0371C173.283 58.235 174.028 57.5833 174.744 57.082C175.46 56.5664 176.069 56.3086 176.57 56.3086C177.516 56.3086 178.16 56.5449 178.504 57.0176C178.848 57.4902 179.02 58.1992 179.02 59.1445C179.02 60.4766 178.819 62.0378 178.418 63.8281L177 70.4453C176.914 70.7891 176.871 71.1471 176.871 71.5195C176.871 72.2357 177.014 72.5938 177.301 72.5938C177.659 72.5938 178.089 72.3431 178.59 71.8418C179.091 71.3262 179.521 70.8893 179.879 70.5312L180.137 70.2305C180.194 70.2305 180.301 70.3665 180.459 70.6387C180.617 70.9108 180.695 71.1042 180.695 71.2188C180.452 71.6341 180.008 72.1641 179.363 72.8086C178.733 73.4531 178.046 74.026 177.301 74.5273C176.556 75.0143 175.883 75.2578 175.281 75.2578C174.823 75.2578 174.465 75.0501 174.207 74.6348C173.949 74.2194 173.82 73.6823 173.82 73.0234C173.82 72.5938 173.921 71.8346 174.121 70.7461L175.625 63.6562C175.826 62.6823 175.926 61.9089 175.926 61.3359C175.926 60.8346 175.883 60.4049 175.797 60.0469C175.725 59.6745 175.496 59.4883 175.109 59.4883C174.622 59.4883 173.985 59.832 173.197 60.5195C172.424 61.207 171.622 62.1165 170.791 63.248C169.96 64.3652 169.215 65.597 168.557 66.9434C167.898 68.2754 167.447 69.6003 167.203 70.918L166.43 75H163.551L165.957 62.7969C166.072 62.1523 166.129 61.6081 166.129 61.1641C166.129 60.0469 165.842 59.4883 165.27 59.4883C164.768 59.4883 164.131 59.8678 163.357 60.627C162.584 61.3861 161.789 62.3672 160.973 63.5703C160.156 64.7734 159.426 66.0553 158.781 67.416C158.137 68.7624 157.693 70.0299 157.449 71.2188L156.676 75C155.874 75.1146 155.387 75.1719 155.215 75.1719C155.072 75.1719 154.599 75.1146 153.797 75L156.375 61.7656C156.518 60.7773 156.59 60.2044 156.59 60.0469C156.59 59.3307 156.447 58.9727 156.16 58.9727C155.917 58.9727 155.551 59.2018 155.064 59.6602C154.835 59.8893 154.585 60.14 154.312 60.4121C154.055 60.6842 153.883 60.8776 153.797 60.9922C153.74 60.9922 153.632 60.8561 153.475 60.584C153.317 60.3118 153.238 60.1185 153.238 60.0039C153.467 59.6172 153.883 59.1374 154.484 58.5645C155.086 57.9772 155.73 57.4544 156.418 56.9961C157.105 56.5378 157.693 56.3086 158.18 56.3086C158.638 56.3086 158.996 56.5163 159.254 56.9316C159.512 57.347 159.641 57.8841 159.641 58.543C159.641 59.1732 159.555 59.9323 159.383 60.8203L158.609 64.8164C159.139 63.8997 159.748 62.9473 160.436 61.959C161.137 60.9707 161.854 60.0469 162.584 59.1875C163.329 58.3281 164.038 57.6335 164.711 57.1035C165.384 56.5736 165.971 56.3086 166.473 56.3086Z" fill="white"/>
<path d="M0 14.4961C6.30012 20.0984 15.0791 19.1979 30.687 15.1421C32.2497 14.736 33.9168 14.9601 35.3059 15.7832L61.0905 31.063L35.3304 19.6141C33.9205 18.9874 32.3183 18.9353 30.8588 19.4358C12.5496 25.7159 4.73674 24.7283 0 14.4961Z" fill="url(#paint8_radial_692_286)"/>
<path d="M16.5669 25.8858C22.7094 27.5488 34.4861 19.1752 43.5027 24.2129C35.7991 20.3448 24.9274 34.7378 16.5669 25.8858Z" fill="url(#paint9_radial_692_286)"/>
<path d="M42.4528 34.1693C40.4746 32.9379 39.8039 31.791 39.5364 30.2054C39.314 28.8871 40.2138 27.6374 41.514 27.3262C46.4064 26.1551 49.6595 27.3172 54.8779 31.063C50.3759 26.3362 46.8249 25.2844 39.6469 25.78C38.7972 25.8387 38.0191 26.2751 37.5081 26.9564L36.1669 28.7446C35.6047 29.4943 35.6307 30.5432 36.2784 31.2205C38.4425 33.4837 39.9798 34.1156 42.4528 34.1693Z" fill="url(#paint10_radial_692_286)"/>
<path d="M61.0905 28.9921C48.8725 19.5072 53.131 18.6378 60.0551 10.3543C56.6285 8.93238 54.8937 8.83857 52.8071 12.4252C51.2879 8.29387 49.7783 6.42726 45.559 4.14173C43.8524 8.52031 44.6321 10.6991 46.5945 14.4961C42.9378 12.0347 40.7471 11.3823 36.2402 13.4606C46.3046 17.727 45.2926 18.8748 61.0905 28.9921Z" fill="url(#paint11_radial_692_286)"/>
<path d="M78.6929 22.7441C78.6929 22.1918 79.1406 21.7441 79.6929 21.7441H79.7638C80.3161 21.7441 80.7638 22.1918 80.7638 22.7441V25.9213C80.7638 26.4735 80.3161 26.9213 79.7638 26.9213H74.4803C73.3757 26.9213 72.4803 26.0258 72.4803 24.9213V19.6024C72.4803 18.4978 73.3757 17.6024 74.4803 17.6024H78.7281C80.6137 17.6024 82.4755 18.023 84.178 18.8337V18.8337C85.2965 19.3663 86.1249 20.3629 86.4441 21.5599L88.3399 28.6695C89.2063 31.9182 86.6836 35.0788 83.3237 34.9544L68.0679 34.3894C64.7776 34.2675 62.2002 31.5169 62.2923 28.2256L62.6948 13.8426C62.7856 10.5955 65.4441 8.01038 68.6924 8.01038H83.0387C86.0229 8.01038 88.8896 9.21712 90.915 11.4088C101.807 23.194 109.097 33.3225 115.395 32.2299C115.685 32.1796 115.968 32.3916 115.968 32.686V32.686C115.968 32.9325 115.766 33.1318 115.519 33.1285C109.37 33.045 105.37 32.4313 87.653 13.254C86.5367 12.0456 85.0793 11.1983 83.4735 10.8414L77.8584 9.59364C77.0431 9.41248 76.199 9.4035 75.3801 9.56728L71.091 10.4251C68.2865 10.986 66.2677 13.4485 66.2677 16.3086V27.0984C66.2677 29.8599 68.5063 32.0984 71.2677 32.0984H80.9055C83.1146 32.0984 84.9055 30.3076 84.9055 28.0984V22.6378C84.9055 20.4287 83.1146 18.6378 80.9055 18.6378H76.5512C75.4466 18.6378 74.5512 19.5332 74.5512 20.6378V24.8858C74.5512 25.4381 74.9989 25.8858 75.5512 25.8858H77.6929C78.2452 25.8858 78.6929 25.4381 78.6929 24.8858V22.7441Z" fill="url(#paint12_radial_692_286)"/>
<path d="M104.412 33.0631C96.4743 29.9513 88.3242 12.4066 78.6929 13.4606C91.6665 19.2326 92.9183 31.4785 104.412 33.0631Z" fill="url(#paint13_radial_692_286)"/>
<path d="M111.827 30.0276C106.485 21.6827 106.361 16.9143 110.791 8.28346C105.363 9.71409 97.6256 19.5114 111.827 30.0276Z" fill="url(#paint14_radial_692_286)"/>
<path d="M118.039 10.3543C113.102 14.0549 110.405 23.2793 118.039 32.0984C106.33 25.6888 109.793 12.7713 118.039 0V10.3543Z" fill="url(#paint15_radial_692_286)"/>
<path d="M236.079 14.4961C229.778 20.0984 221 19.1979 205.392 15.1421C203.829 14.736 202.162 14.9601 200.773 15.7832L174.988 31.063L200.748 19.6141C202.158 18.9874 203.76 18.9353 205.22 19.4358C223.529 25.7159 231.342 24.7283 236.079 14.4961Z" fill="url(#paint16_radial_692_286)"/>
<path d="M219.512 25.8858C213.369 27.5488 201.593 19.1752 192.576 24.2129C200.279 20.3448 211.151 34.7378 219.512 25.8858Z" fill="url(#paint17_radial_692_286)"/>
<path d="M193.626 34.1693C195.604 32.9379 196.275 31.791 196.542 30.2054C196.765 28.8871 195.865 27.6374 194.565 27.3262C189.672 26.1551 186.419 27.3172 181.201 31.063C185.703 26.3362 189.254 25.2844 196.432 25.78C197.281 25.8387 198.06 26.2751 198.571 26.9564L199.912 28.7446C200.474 29.4943 200.448 30.5432 199.8 31.2205C197.636 33.4837 196.099 34.1156 193.626 34.1693Z" fill="url(#paint18_radial_692_286)"/>
<path d="M174.988 28.9921C187.206 19.5072 182.948 18.6378 176.024 10.3543C179.45 8.93238 181.185 8.83857 183.272 12.4252C184.791 8.29387 186.3 6.42726 190.52 4.14173C192.226 8.52031 191.446 10.6991 189.484 14.4961C193.141 12.0347 195.331 11.3823 199.838 13.4606C189.774 17.727 190.786 18.8748 174.988 28.9921Z" fill="url(#paint19_radial_692_286)"/>
<path d="M157.386 22.7441C157.386 22.1918 156.938 21.7441 156.386 21.7441H156.315C155.763 21.7441 155.315 22.1918 155.315 22.7441V25.9213C155.315 26.4735 155.763 26.9213 156.315 26.9213H161.598C162.703 26.9213 163.598 26.0258 163.598 24.9213V19.6024C163.598 18.4978 162.703 17.6024 161.598 17.6024H157.351C155.465 17.6024 153.603 18.023 151.901 18.8337V18.8337C150.782 19.3663 149.954 20.3629 149.635 21.5599L147.739 28.6695C146.872 31.9182 149.395 35.0788 152.755 34.9544L168.011 34.3894C171.301 34.2675 173.878 31.5169 173.786 28.2256L173.384 13.8426C173.293 10.5955 170.635 8.01038 167.386 8.01038H153.04C150.056 8.01038 147.189 9.21712 145.164 11.4088C134.272 23.194 126.982 33.3225 120.683 32.2299C120.393 32.1796 120.11 32.3916 120.11 32.686V32.686C120.11 32.9325 120.313 33.1318 120.559 33.1285C126.708 33.045 130.709 32.4313 148.426 13.254C149.542 12.0456 150.999 11.1983 152.605 10.8414L158.22 9.59364C159.035 9.41248 159.88 9.4035 160.698 9.56728L164.988 10.4251C167.792 10.986 169.811 13.4485 169.811 16.3086V27.0984C169.811 29.8599 167.572 32.0984 164.811 32.0984H155.173C152.964 32.0984 151.173 30.3076 151.173 28.0984V22.6378C151.173 20.4287 152.964 18.6378 155.173 18.6378H159.527C160.632 18.6378 161.527 19.5332 161.527 20.6378V24.8858C161.527 25.4381 161.08 25.8858 160.527 25.8858H158.386C157.833 25.8858 157.386 25.4381 157.386 24.8858V22.7441Z" fill="url(#paint20_radial_692_286)"/>
<path d="M131.666 33.0631C139.604 29.9513 147.754 12.4066 157.386 13.4606C144.412 19.2326 143.16 31.4785 131.666 33.0631Z" fill="url(#paint21_radial_692_286)"/>
<path d="M124.252 30.0276C129.594 21.6827 129.718 16.9143 125.287 8.28346C130.716 9.71409 138.453 19.5114 124.252 30.0276Z" fill="url(#paint22_radial_692_286)"/>
<path d="M118.039 10.3543C122.976 14.0549 125.673 23.2793 118.039 32.0984C129.749 25.6888 126.286 12.7713 118.039 0V10.3543Z" fill="url(#paint23_radial_692_286)"/>
<defs>
<radialGradient id="paint0_radial_692_286" cx="0" cy="0" r="1" gradientUnits="userSpaceOnUse" gradientTransform="translate(79.7285 111.309) scale(38.311 20.1909)">
<stop stop-color="#E1E1E1"/>
<stop offset="1" stop-color="#FFF4DA"/>
</radialGradient>
<radialGradient id="paint1_radial_692_286" cx="0" cy="0" r="1" gradientUnits="userSpaceOnUse" gradientTransform="translate(79.7285 111.309) scale(38.311 20.1909)">
<stop stop-color="#E1E1E1"/>
<stop offset="1" stop-color="#FFF4DA"/>
</radialGradient>
<radialGradient id="paint2_radial_692_286" cx="0" cy="0" r="1" gradientUnits="userSpaceOnUse" gradientTransform="translate(79.7285 111.309) scale(38.311 20.1909)">
<stop stop-color="#E1E1E1"/>
<stop offset="1" stop-color="#FFF4DA"/>
</radialGradient>
<radialGradient id="paint3_radial_692_286" cx="0" cy="0" r="1" gradientUnits="userSpaceOnUse" gradientTransform="translate(79.7285 111.309) scale(38.311 20.1909)">
<stop stop-color="#E1E1E1"/>
<stop offset="1" stop-color="#FFF4DA"/>
</radialGradient>
<radialGradient id="paint4_radial_692_286" cx="0" cy="0" r="1" gradientUnits="userSpaceOnUse" gradientTransform="translate(156.351 111.309) rotate(180) scale(38.311 20.1909)">
<stop stop-color="#E1E1E1"/>
<stop offset="1" stop-color="#FFF4DA"/>
</radialGradient>
<radialGradient id="paint5_radial_692_286" cx="0" cy="0" r="1" gradientUnits="userSpaceOnUse" gradientTransform="translate(156.351 111.309) rotate(180) scale(38.311 20.1909)">
<stop stop-color="#E1E1E1"/>
<stop offset="1" stop-color="#FFF4DA"/>
</radialGradient>
<radialGradient id="paint6_radial_692_286" cx="0" cy="0" r="1" gradientUnits="userSpaceOnUse" gradientTransform="translate(156.351 111.309) rotate(180) scale(38.311 20.1909)">
<stop stop-color="#E1E1E1"/>
<stop offset="1" stop-color="#FFF4DA"/>
</radialGradient>
<radialGradient id="paint7_radial_692_286" cx="0" cy="0" r="1" gradientUnits="userSpaceOnUse" gradientTransform="translate(156.351 111.309) rotate(180) scale(38.311 20.1909)">
<stop stop-color="#E1E1E1"/>
<stop offset="1" stop-color="#FFF4DA"/>
</radialGradient>
<radialGradient id="paint8_radial_692_286" cx="0" cy="0" r="1" gradientUnits="userSpaceOnUse" gradientTransform="translate(59.0197 17.6024) scale(59.0197 17.6024)">
<stop stop-color="#E1E1E1"/>
<stop offset="1" stop-color="#FFF4DA"/>
</radialGradient>
<radialGradient id="paint9_radial_692_286" cx="0" cy="0" r="1" gradientUnits="userSpaceOnUse" gradientTransform="translate(59.0197 17.6024) scale(59.0197 17.6024)">
<stop stop-color="#E1E1E1"/>
<stop offset="1" stop-color="#FFF4DA"/>
</radialGradient>
<radialGradient id="paint10_radial_692_286" cx="0" cy="0" r="1" gradientUnits="userSpaceOnUse" gradientTransform="translate(59.0197 17.6024) scale(59.0197 17.6024)">
<stop stop-color="#E1E1E1"/>
<stop offset="1" stop-color="#FFF4DA"/>
</radialGradient>
<radialGradient id="paint11_radial_692_286" cx="0" cy="0" r="1" gradientUnits="userSpaceOnUse" gradientTransform="translate(59.0197 17.6024) scale(59.0197 17.6024)">
<stop stop-color="#E1E1E1"/>
<stop offset="1" stop-color="#FFF4DA"/>
</radialGradient>
<radialGradient id="paint12_radial_692_286" cx="0" cy="0" r="1" gradientUnits="userSpaceOnUse" gradientTransform="translate(59.0197 17.6024) scale(59.0197 17.6024)">
<stop stop-color="#E1E1E1"/>
<stop offset="1" stop-color="#FFF4DA"/>
</radialGradient>
<radialGradient id="paint13_radial_692_286" cx="0" cy="0" r="1" gradientUnits="userSpaceOnUse" gradientTransform="translate(59.0197 17.6024) scale(59.0197 17.6024)">
<stop stop-color="#E1E1E1"/>
<stop offset="1" stop-color="#FFF4DA"/>
</radialGradient>
<radialGradient id="paint14_radial_692_286" cx="0" cy="0" r="1" gradientUnits="userSpaceOnUse" gradientTransform="translate(59.0197 17.6024) scale(59.0197 17.6024)">
<stop stop-color="#E1E1E1"/>
<stop offset="1" stop-color="#FFF4DA"/>
</radialGradient>
<radialGradient id="paint15_radial_692_286" cx="0" cy="0" r="1" gradientUnits="userSpaceOnUse" gradientTransform="translate(59.0197 17.6024) scale(59.0197 17.6024)">
<stop stop-color="#E1E1E1"/>
<stop offset="1" stop-color="#FFF4DA"/>
</radialGradient>
<radialGradient id="paint16_radial_692_286" cx="0" cy="0" r="1" gradientUnits="userSpaceOnUse" gradientTransform="translate(177.059 17.6024) rotate(180) scale(59.0197 17.6024)">
<stop stop-color="#E1E1E1"/>
<stop offset="1" stop-color="#FFF4DA"/>
</radialGradient>
<radialGradient id="paint17_radial_692_286" cx="0" cy="0" r="1" gradientUnits="userSpaceOnUse" gradientTransform="translate(177.059 17.6024) rotate(180) scale(59.0197 17.6024)">
<stop stop-color="#E1E1E1"/>
<stop offset="1" stop-color="#FFF4DA"/>
</radialGradient>
<radialGradient id="paint18_radial_692_286" cx="0" cy="0" r="1" gradientUnits="userSpaceOnUse" gradientTransform="translate(177.059 17.6024) rotate(180) scale(59.0197 17.6024)">
<stop stop-color="#E1E1E1"/>
<stop offset="1" stop-color="#FFF4DA"/>
</radialGradient>
<radialGradient id="paint19_radial_692_286" cx="0" cy="0" r="1" gradientUnits="userSpaceOnUse" gradientTransform="translate(177.059 17.6024) rotate(180) scale(59.0197 17.6024)">
<stop stop-color="#E1E1E1"/>
<stop offset="1" stop-color="#FFF4DA"/>
</radialGradient>
<radialGradient id="paint20_radial_692_286" cx="0" cy="0" r="1" gradientUnits="userSpaceOnUse" gradientTransform="translate(177.059 17.6024) rotate(180) scale(59.0197 17.6024)">
<stop stop-color="#E1E1E1"/>
<stop offset="1" stop-color="#FFF4DA"/>
</radialGradient>
<radialGradient id="paint21_radial_692_286" cx="0" cy="0" r="1" gradientUnits="userSpaceOnUse" gradientTransform="translate(177.059 17.6024) rotate(180) scale(59.0197 17.6024)">
<stop stop-color="#E1E1E1"/>
<stop offset="1" stop-color="#FFF4DA"/>
</radialGradient>
<radialGradient id="paint22_radial_692_286" cx="0" cy="0" r="1" gradientUnits="userSpaceOnUse" gradientTransform="translate(177.059 17.6024) rotate(180) scale(59.0197 17.6024)">
<stop stop-color="#E1E1E1"/>
<stop offset="1" stop-color="#FFF4DA"/>
</radialGradient>
<radialGradient id="paint23_radial_692_286" cx="0" cy="0" r="1" gradientUnits="userSpaceOnUse" gradientTransform="translate(177.059 17.6024) rotate(180) scale(59.0197 17.6024)">
<stop stop-color="#E1E1E1"/>
<stop offset="1" stop-color="#FFF4DA"/>
</radialGradient>
</defs>
</svg>
