<svg width="237" height="132" viewBox="0 0 237 132" fill="none" xmlns="http://www.w3.org/2000/svg">
<path d="M50.7125 108.06C49.3889 108.487 47.9214 108.504 46.7169 107.809C44.5794 106.575 44.1412 105.154 44.5234 102.508V102.508C42.8798 103.056 42.063 104.953 43.0339 106.388C43.9977 107.812 45.0937 108.974 46.6267 110.246C47.9171 111.316 49.5696 111.855 51.2458 111.812C56.4406 111.679 59.0349 110.851 62.1257 108.72C61.1051 110.641 61.1618 111.76 61.9885 113.6C62.0605 113.76 62.2568 113.822 62.4077 113.731C64.0825 112.73 65.0039 111.892 66.2674 109.756C66.2154 114.032 66.9843 113.977 70.4091 114.933C67.5194 110.86 68.0525 109.221 70.1981 106.254C70.9958 105.151 72.1259 104.331 73.4053 103.866L78.5776 101.985C81.3342 100.982 84.3487 100.942 87.1313 101.869L104.173 107.55C104.307 107.435 104.442 107.326 104.578 107.223V104.508C104.578 103.403 105.474 102.508 106.578 102.508H108.791C109.896 102.508 110.791 103.403 110.791 104.508V105.614H111.826V103.472C111.826 102.368 110.931 101.472 109.826 101.472H105.543C104.438 101.472 103.543 102.368 103.543 103.472V106.65C98.7736 103.748 93.5321 101.584 86.7257 99.7769C82.8456 98.747 78.7534 99.0145 74.9328 100.247L50.7125 108.06Z" fill="url(#paint0_radial_692_1906)"/>
<path fill-rule="evenodd" clip-rule="evenodd" d="M118.039 111.827V108.721C115.458 105.74 114.163 105.799 111.826 105.614H110.791C108.063 105.589 106.222 105.979 104.578 107.223V107.685L104.173 107.55C103.27 108.327 102.409 109.382 101.472 110.791C94.4225 108.167 92.2419 105.859 84.6304 104.117C82.7927 103.696 80.8379 103.854 79.1733 104.739C77.1406 105.82 75.7478 107.075 74.4004 109.235C73.7976 110.201 73.7049 111.42 74.2146 112.438C75.0495 114.107 76.2498 115.417 79.1376 117.128C80.1186 117.709 81.3505 117.62 82.2784 116.957L86.28 114.099C87.2184 113.429 87.4128 112.09 86.6211 111.251C84.8302 109.354 83.7227 109.09 81.7989 109.756C83.0242 110.067 83.7473 110.456 84.396 111.688C84.7596 112.378 84.5518 113.216 84 113.767L82.2754 115.492C81.3706 116.397 79.9663 116.664 78.9055 115.948C77.3915 114.927 76.4781 113.802 75.4876 112.283C74.8937 111.372 74.8539 110.185 75.48 109.296C77.188 106.871 79.0763 106.022 82.8343 105.614C87.5138 105.758 93.9734 109.592 101.472 112.862C101.61 115.305 101.827 117.608 105.43 119.531C106.15 119.915 107.027 119.733 107.604 119.156L110.252 116.508C110.55 116.21 110.55 115.727 110.252 115.429V115.429C109.971 115.149 109.521 115.134 109.21 115.381C104.882 118.812 103.349 117.017 102.508 112.862C108.784 113.743 111.6 112.063 112.862 106.65H114.933L118.039 111.827ZM102.508 111.827C105.324 107.593 107.416 106.549 111.826 106.65C109.581 111.782 107.623 113.001 102.508 111.827Z" fill="url(#paint1_radial_692_1906)"/>
<path d="M118.039 114.933V111.827C116.112 115.763 116.189 118.074 110.791 119.075C111.96 121.038 112.806 121.636 114.933 121.146C115.324 125.201 115.717 127.472 118.039 131.5V125.287C116.703 121.107 116.952 118.865 118.039 114.933Z" fill="url(#paint2_radial_692_1906)"/>
<path d="M115.968 98.3662C116.06 94.792 116.696 93.3936 118.039 91.1182V105.614C115.722 100.811 114.342 99.4138 111.826 99.4015C113.364 97.8121 114.276 97.3638 115.968 98.3662Z" fill="url(#paint3_radial_692_1906)"/>
<path d="M185.366 108.06C186.689 108.487 188.157 108.504 189.361 107.809C191.499 106.575 191.937 105.154 191.555 102.508V102.508C193.198 103.056 194.015 104.953 193.044 106.388C192.08 107.812 190.984 108.974 189.451 110.246C188.161 111.316 186.509 111.855 184.832 111.812C179.637 111.679 177.043 110.851 173.952 108.72C174.973 110.641 174.916 111.76 174.09 113.6C174.018 113.76 173.821 113.822 173.67 113.731C171.996 112.73 171.074 111.892 169.811 109.756C169.863 114.032 169.094 113.977 165.669 114.933C168.559 110.86 168.026 109.221 165.88 106.254C165.082 105.151 163.952 104.331 162.673 103.866L157.5 101.985C154.744 100.982 151.729 100.942 148.947 101.869L131.905 107.55C131.771 107.435 131.636 107.326 131.5 107.223V104.508C131.5 103.403 130.604 102.508 129.5 102.508H127.287C126.183 102.508 125.287 103.403 125.287 104.508V105.614H124.252V103.472C124.252 102.368 125.147 101.472 126.252 101.472H130.535C131.64 101.472 132.535 102.368 132.535 103.472V106.65C137.304 103.748 142.546 101.584 149.352 99.7769C153.232 98.747 157.325 99.0145 161.145 100.247L185.366 108.06Z" fill="url(#paint4_radial_692_1906)"/>
<path fill-rule="evenodd" clip-rule="evenodd" d="M118.039 111.827V108.721C120.62 105.74 121.915 105.799 124.252 105.614H125.287C128.015 105.589 129.856 105.979 131.5 107.223V107.685L131.905 107.55C132.808 108.327 133.669 109.382 134.606 110.791C141.656 108.167 143.836 105.859 151.448 104.117C153.285 103.696 155.24 103.854 156.905 104.739C158.938 105.82 160.33 107.075 161.678 109.235C162.281 110.201 162.373 111.42 161.863 112.438C161.029 114.107 159.828 115.417 156.941 117.128C155.96 117.709 154.728 117.62 153.8 116.957L149.798 114.099C148.86 113.429 148.665 112.09 149.457 111.251C151.248 109.354 152.355 109.09 154.279 109.756C153.054 110.067 152.331 110.456 151.682 111.688C151.319 112.378 151.526 113.216 152.078 113.767L153.803 115.492C154.708 116.397 156.112 116.664 157.173 115.948C158.687 114.927 159.6 113.802 160.591 112.283C161.184 111.372 161.224 110.185 160.598 109.296C158.89 106.871 157.002 106.022 153.244 105.614C148.564 105.758 142.105 109.592 134.606 112.862C134.468 115.305 134.251 117.608 130.648 119.531C129.928 119.915 129.051 119.733 128.474 119.156L125.826 116.508C125.528 116.21 125.528 115.727 125.826 115.429V115.429C126.107 115.149 126.557 115.134 126.868 115.381C131.196 118.812 132.729 117.017 133.571 112.862C127.294 113.743 124.478 112.063 123.216 106.65H121.145L118.039 111.827ZM133.571 111.827C130.754 107.593 128.662 106.549 124.252 106.65C126.497 111.782 128.455 113.001 133.571 111.827Z" fill="url(#paint5_radial_692_1906)"/>
<path d="M118.039 114.933V111.827C119.967 115.763 119.889 118.074 125.287 119.075C124.119 121.038 123.273 121.636 121.145 121.146C120.754 125.201 120.361 127.472 118.039 131.5V125.287C119.375 121.107 119.126 118.865 118.039 114.933Z" fill="url(#paint6_radial_692_1906)"/>
<path d="M120.11 98.3662C120.019 94.792 119.382 93.3936 118.039 91.1182V105.614C120.356 100.811 121.736 99.4138 124.252 99.4015C122.714 97.8121 121.802 97.3638 120.11 98.3662Z" fill="url(#paint7_radial_692_1906)"/>
<path d="M86.6875 52.8711L83.6367 69.0273C83.3216 70.5599 83.1641 71.849 83.1641 72.8945C83.1641 73.1237 83.3574 73.3314 83.7441 73.5176C84.1309 73.7038 84.5104 73.8255 84.8828 73.8828L85.4844 73.9688C85.5417 73.9688 85.5703 74.026 85.5703 74.1406C85.5703 74.4557 85.4844 74.7852 85.3125 75.1289C83.9948 75.0573 82.9635 75.0072 82.2188 74.9785C81.474 74.9355 81.0156 74.9141 80.8438 74.9141C80.8151 74.9141 80.4069 74.9355 79.6191 74.9785C78.8314 75.0072 77.6641 75.0573 76.1172 75.1289C76.0599 75.0716 76.0312 74.957 76.0312 74.7852C76.0312 74.2409 76.1315 73.9688 76.332 73.9688C76.5612 73.9688 76.8763 73.9258 77.2773 73.8398C77.6927 73.7539 78.0794 73.6393 78.4375 73.4961C78.7956 73.3529 79.0104 73.1953 79.082 73.0234C79.4974 72.0781 79.8698 70.7031 80.1992 68.8984L83.25 53C83.5651 51.4674 83.7227 50.1497 83.7227 49.0469C83.7227 48.832 83.5723 48.6387 83.2715 48.4668C82.985 48.2949 82.6484 48.1589 82.2617 48.0586C81.8893 47.944 81.5742 47.8867 81.3164 47.8867C81.2591 47.8867 81.2305 47.8151 81.2305 47.6719C81.2305 47.2708 81.3451 46.9557 81.5742 46.7266C81.8034 46.7409 82.1901 46.7695 82.7344 46.8125C83.293 46.8555 83.8945 46.8984 84.5391 46.9414C85.1836 46.9701 85.7422 46.9844 86.2148 46.9844C86.9023 46.9844 87.7832 46.9414 88.8574 46.8555C89.9316 46.7695 90.569 46.7266 90.7695 46.7266V46.8555C90.7695 47.543 90.6693 47.8867 90.4688 47.8867C90.3255 47.8867 90.0462 47.944 89.6309 48.0586C89.2298 48.1589 88.8359 48.2878 88.4492 48.4453C88.0768 48.5885 87.862 48.7318 87.8047 48.875C87.418 49.7201 87.0456 51.0521 86.6875 52.8711ZM94.8945 56.3086C95.3529 56.3086 95.7109 56.5163 95.9688 56.9316C96.2266 57.347 96.3555 57.8841 96.3555 58.543C96.3555 59.1732 96.2695 59.9323 96.0977 60.8203L95.3242 64.7734C95.5964 64.2865 96.2194 63.3984 97.1934 62.1094C97.8379 61.2643 98.5827 60.3978 99.4277 59.5098C100.287 58.6074 101.132 57.8483 101.963 57.2324C102.808 56.6165 103.517 56.3086 104.09 56.3086C105.522 56.3086 106.238 57.2539 106.238 59.1445C106.238 60.4766 106.038 62.0378 105.637 63.8281L104.219 70.4453C104.133 70.7891 104.09 71.1471 104.09 71.5195C104.09 72.2357 104.233 72.5938 104.52 72.5938C104.878 72.5938 105.307 72.3431 105.809 71.8418C106.31 71.3262 106.74 70.8893 107.098 70.5312L107.355 70.2305C107.413 70.2305 107.52 70.3665 107.678 70.6387C107.835 70.9108 107.914 71.1042 107.914 71.2188C107.671 71.6341 107.227 72.1641 106.582 72.8086C105.952 73.4531 105.264 74.026 104.52 74.5273C103.775 75.0143 103.102 75.2578 102.5 75.2578C102.042 75.2578 101.684 75.0501 101.426 74.6348C101.168 74.2194 101.039 73.6823 101.039 73.0234C101.039 72.5938 101.139 71.8346 101.34 70.7461L102.844 63.6562C103.044 62.6823 103.145 61.9089 103.145 61.3359C103.145 60.1042 102.872 59.4883 102.328 59.4883C101.855 59.4883 101.218 59.8464 100.416 60.5625C99.6139 61.2643 98.776 62.2025 97.9023 63.377C97.043 64.5514 96.2624 65.862 95.5605 67.3086C94.8587 68.7409 94.3646 70.1875 94.0781 71.6484L93.3477 75C92.9609 75.1146 92.5169 75.1719 92.0156 75.1719C91.5286 75.1719 91.0417 75.1146 90.5547 75L93.0898 61.7656C93.2331 60.7773 93.3047 60.2044 93.3047 60.0469C93.3047 59.3307 93.1615 58.9727 92.875 58.9727C92.6315 58.9727 92.2663 59.2018 91.7793 59.6602C91.5501 59.8893 91.2995 60.14 91.0273 60.4121C90.7695 60.6842 90.5977 60.8776 90.5117 60.9922C90.4544 60.9922 90.347 60.8561 90.1895 60.584C90.0319 60.3118 89.9531 60.1185 89.9531 60.0039C90.1823 59.6172 90.5977 59.1374 91.1992 58.5645C91.8008 57.9772 92.4453 57.4544 93.1328 56.9961C93.8203 56.5378 94.4076 56.3086 94.8945 56.3086ZM118.656 56.1797C120.289 56.1797 121.578 56.724 122.523 57.8125C122.667 58.1419 122.738 58.4427 122.738 58.7148C122.738 59.2305 122.602 59.6745 122.33 60.0469C122.058 60.4193 121.707 60.6055 121.277 60.6055C120.891 60.6055 120.533 60.3978 120.203 59.9824C119.888 59.5671 119.494 59.1445 119.021 58.7148C118.549 58.2852 117.926 58.0703 117.152 58.0703C116.551 58.0703 116.078 58.2708 115.734 58.6719C115.391 59.0729 115.219 59.5312 115.219 60.0469C115.219 60.7917 115.498 61.5866 116.057 62.4316C116.615 63.2767 117.224 64.0286 117.883 64.6875C118.542 65.3464 119.15 66.1484 119.709 67.0938C120.268 68.0391 120.547 68.9987 120.547 69.9727C120.547 71.5482 119.974 72.8229 118.828 73.7969C117.682 74.7708 116.207 75.2578 114.402 75.2578C112.77 75.2578 111.48 74.7135 110.535 73.625C110.392 73.3958 110.32 73.1237 110.32 72.8086C110.32 72.293 110.456 71.8346 110.729 71.4336C111.001 71.0326 111.352 70.832 111.781 70.832C112.168 70.832 112.526 71.0397 112.855 71.4551C113.171 71.8704 113.564 72.293 114.037 72.7227C114.51 73.1523 115.133 73.3672 115.906 73.3672C116.536 73.3672 117.045 73.1595 117.432 72.7441C117.818 72.3288 118.012 71.8776 118.012 71.3906C118.012 70.6458 117.732 69.8509 117.174 69.0059C116.615 68.1608 116.007 67.4089 115.348 66.75C114.689 66.0911 114.08 65.2891 113.521 64.3438C112.963 63.3984 112.684 62.4388 112.684 61.4648C112.684 60.6628 112.949 59.8535 113.479 59.0371C114.008 58.2207 114.725 57.5404 115.627 56.9961C116.529 56.4518 117.539 56.1797 118.656 56.1797ZM133.566 56.3086C135.257 56.3086 136.567 56.8958 137.498 58.0703C138.429 59.2448 138.895 60.8633 138.895 62.9258C138.895 64.401 138.608 65.8691 138.035 67.3301C137.462 68.7767 136.71 70.0944 135.779 71.2832C134.848 72.472 133.824 73.4245 132.707 74.1406C131.59 74.8568 130.487 75.2148 129.398 75.2148C127.68 75.2148 126.369 74.6562 125.467 73.5391C124.564 72.4219 124.113 70.832 124.113 68.7695C124.113 67.2799 124.393 65.8047 124.951 64.3438C125.524 62.8685 126.276 61.5293 127.207 60.3262C128.138 59.1087 129.155 58.1348 130.258 57.4043C131.375 56.6738 132.478 56.3086 133.566 56.3086ZM133.051 58.0703C132.335 58.0703 131.64 58.3854 130.967 59.0156C130.294 59.6315 129.685 60.4408 129.141 61.4434C128.596 62.446 128.167 63.5417 127.852 64.7305C127.536 65.9193 127.379 67.0794 127.379 68.2109C127.379 69.8724 127.644 71.1615 128.174 72.0781C128.704 72.9948 129.37 73.4531 130.172 73.4531C130.888 73.4531 131.568 73.1452 132.213 72.5293C132.872 71.8991 133.459 71.0827 133.975 70.0801C134.49 69.0632 134.891 67.9603 135.178 66.7715C135.479 65.5827 135.629 64.4154 135.629 63.2695C135.629 61.5794 135.4 60.2904 134.941 59.4023C134.483 58.5143 133.853 58.0703 133.051 58.0703ZM147.488 56.3086C147.947 56.3086 148.305 56.5163 148.562 56.9316C148.82 57.347 148.949 57.8841 148.949 58.543C148.949 59.1732 148.863 59.9323 148.691 60.8203L147.918 64.7734C148.19 64.2865 148.813 63.3984 149.787 62.1094C150.432 61.2643 151.176 60.3978 152.021 59.5098C152.881 58.6074 153.726 57.8483 154.557 57.2324C155.402 56.6165 156.111 56.3086 156.684 56.3086C158.116 56.3086 158.832 57.2539 158.832 59.1445C158.832 60.4766 158.632 62.0378 158.23 63.8281L156.812 70.4453C156.727 70.7891 156.684 71.1471 156.684 71.5195C156.684 72.2357 156.827 72.5938 157.113 72.5938C157.471 72.5938 157.901 72.3431 158.402 71.8418C158.904 71.3262 159.333 70.8893 159.691 70.5312L159.949 70.2305C160.007 70.2305 160.114 70.3665 160.271 70.6387C160.429 70.9108 160.508 71.1042 160.508 71.2188C160.264 71.6341 159.82 72.1641 159.176 72.8086C158.546 73.4531 157.858 74.026 157.113 74.5273C156.368 75.0143 155.695 75.2578 155.094 75.2578C154.635 75.2578 154.277 75.0501 154.02 74.6348C153.762 74.2194 153.633 73.6823 153.633 73.0234C153.633 72.5938 153.733 71.8346 153.934 70.7461L155.438 63.6562C155.638 62.6823 155.738 61.9089 155.738 61.3359C155.738 60.1042 155.466 59.4883 154.922 59.4883C154.449 59.4883 153.812 59.8464 153.01 60.5625C152.208 61.2643 151.37 62.2025 150.496 63.377C149.637 64.5514 148.856 65.862 148.154 67.3086C147.452 68.7409 146.958 70.1875 146.672 71.6484L145.941 75C145.555 75.1146 145.111 75.1719 144.609 75.1719C144.122 75.1719 143.635 75.1146 143.148 75L145.684 61.7656C145.827 60.7773 145.898 60.2044 145.898 60.0469C145.898 59.3307 145.755 58.9727 145.469 58.9727C145.225 58.9727 144.86 59.2018 144.373 59.6602C144.144 59.8893 143.893 60.14 143.621 60.4121C143.363 60.6842 143.191 60.8776 143.105 60.9922C143.048 60.9922 142.941 60.8561 142.783 60.584C142.626 60.3118 142.547 60.1185 142.547 60.0039C142.776 59.6172 143.191 59.1374 143.793 58.5645C144.395 57.9772 145.039 57.4544 145.727 56.9961C146.414 56.5378 147.001 56.3086 147.488 56.3086Z" fill="white"/>
<path d="M0 14.4961C6.30012 20.0984 15.0791 19.1979 30.687 15.1421C32.2497 14.736 33.9168 14.9601 35.3059 15.7832L61.0905 31.063L35.3304 19.6141C33.9205 18.9874 32.3183 18.9353 30.8588 19.4358C12.5496 25.7159 4.73674 24.7283 0 14.4961Z" fill="url(#paint8_radial_692_1906)"/>
<path d="M16.5669 25.8858C22.7094 27.5488 34.4861 19.1752 43.5027 24.2129C35.7991 20.3448 24.9274 34.7378 16.5669 25.8858Z" fill="url(#paint9_radial_692_1906)"/>
<path d="M42.4528 34.1693C40.4746 32.9379 39.8039 31.791 39.5364 30.2054C39.314 28.8871 40.2138 27.6374 41.514 27.3262C46.4064 26.1551 49.6595 27.3172 54.8779 31.063C50.3759 26.3362 46.8249 25.2844 39.6469 25.78C38.7972 25.8387 38.0191 26.2751 37.5081 26.9564L36.1669 28.7446C35.6047 29.4943 35.6307 30.5432 36.2784 31.2205C38.4425 33.4837 39.9798 34.1156 42.4528 34.1693Z" fill="url(#paint10_radial_692_1906)"/>
<path d="M61.0905 28.9921C48.8725 19.5072 53.131 18.6378 60.0551 10.3543C56.6285 8.93238 54.8937 8.83857 52.8071 12.4252C51.2879 8.29387 49.7783 6.42726 45.559 4.14173C43.8524 8.52031 44.6321 10.6991 46.5945 14.4961C42.9378 12.0347 40.7471 11.3823 36.2402 13.4606C46.3046 17.727 45.2926 18.8748 61.0905 28.9921Z" fill="url(#paint11_radial_692_1906)"/>
<path d="M78.6929 22.7441C78.6929 22.1918 79.1406 21.7441 79.6929 21.7441H79.7638C80.3161 21.7441 80.7638 22.1918 80.7638 22.7441V25.9213C80.7638 26.4735 80.3161 26.9213 79.7638 26.9213H74.4803C73.3757 26.9213 72.4803 26.0258 72.4803 24.9213V19.6024C72.4803 18.4978 73.3757 17.6024 74.4803 17.6024H78.7281C80.6137 17.6024 82.4755 18.023 84.178 18.8337V18.8337C85.2965 19.3663 86.1249 20.3629 86.4441 21.5599L88.3399 28.6695C89.2063 31.9182 86.6836 35.0788 83.3237 34.9544L68.0679 34.3894C64.7776 34.2675 62.2002 31.5169 62.2923 28.2256L62.6948 13.8426C62.7856 10.5955 65.4441 8.01038 68.6924 8.01038H83.0387C86.0229 8.01038 88.8896 9.21712 90.915 11.4088C101.807 23.194 109.097 33.3225 115.395 32.2299C115.685 32.1796 115.968 32.3916 115.968 32.686V32.686C115.968 32.9325 115.766 33.1318 115.519 33.1285C109.37 33.045 105.37 32.4313 87.653 13.254C86.5367 12.0456 85.0793 11.1983 83.4735 10.8414L77.8584 9.59364C77.0431 9.41248 76.199 9.4035 75.3801 9.56728L71.091 10.4251C68.2865 10.986 66.2677 13.4485 66.2677 16.3086V27.0984C66.2677 29.8599 68.5063 32.0984 71.2677 32.0984H80.9055C83.1146 32.0984 84.9055 30.3076 84.9055 28.0984V22.6378C84.9055 20.4287 83.1146 18.6378 80.9055 18.6378H76.5512C75.4466 18.6378 74.5512 19.5332 74.5512 20.6378V24.8858C74.5512 25.4381 74.9989 25.8858 75.5512 25.8858H77.6929C78.2452 25.8858 78.6929 25.4381 78.6929 24.8858V22.7441Z" fill="url(#paint12_radial_692_1906)"/>
<path d="M104.412 33.0631C96.4743 29.9513 88.3242 12.4066 78.6929 13.4606C91.6665 19.2326 92.9183 31.4785 104.412 33.0631Z" fill="url(#paint13_radial_692_1906)"/>
<path d="M111.827 30.0276C106.485 21.6827 106.361 16.9143 110.791 8.28346C105.363 9.71409 97.6256 19.5114 111.827 30.0276Z" fill="url(#paint14_radial_692_1906)"/>
<path d="M118.039 10.3543C113.102 14.0549 110.405 23.2793 118.039 32.0984C106.33 25.6888 109.793 12.7713 118.039 0V10.3543Z" fill="url(#paint15_radial_692_1906)"/>
<path d="M236.079 14.4961C229.779 20.0984 221 19.1979 205.392 15.1421C203.829 14.736 202.162 14.9601 200.773 15.7832L174.989 31.063L200.749 19.6141C202.159 18.9874 203.761 18.9353 205.22 19.4358C223.529 25.7159 231.342 24.7283 236.079 14.4961Z" fill="url(#paint16_radial_692_1906)"/>
<path d="M219.512 25.8858C213.37 27.5488 201.593 19.1752 192.576 24.2129C200.28 20.3448 211.152 34.7378 219.512 25.8858Z" fill="url(#paint17_radial_692_1906)"/>
<path d="M193.626 34.1693C195.605 32.9379 196.275 31.791 196.543 30.2054C196.765 28.8871 195.865 27.6374 194.565 27.3262C189.673 26.1551 186.42 27.3172 181.201 31.063C185.703 26.3362 189.254 25.2844 196.432 25.78C197.282 25.8387 198.06 26.2751 198.571 26.9564L199.912 28.7446C200.474 29.4943 200.448 30.5432 199.801 31.2205C197.637 33.4837 196.099 34.1156 193.626 34.1693Z" fill="url(#paint18_radial_692_1906)"/>
<path d="M174.989 28.9921C187.207 19.5072 182.948 18.6378 176.024 10.3543C179.451 8.93238 181.185 8.83857 183.272 12.4252C184.791 8.29387 186.301 6.42726 190.52 4.14173C192.227 8.52031 191.447 10.6991 189.485 14.4961C193.141 12.0347 195.332 11.3823 199.839 13.4606C189.775 17.727 190.787 18.8748 174.989 28.9921Z" fill="url(#paint19_radial_692_1906)"/>
<path d="M157.386 22.7441C157.386 22.1918 156.938 21.7441 156.386 21.7441H156.315C155.763 21.7441 155.315 22.1918 155.315 22.7441V25.9213C155.315 26.4735 155.763 26.9213 156.315 26.9213H161.599C162.703 26.9213 163.599 26.0258 163.599 24.9213V19.6024C163.599 18.4978 162.703 17.6024 161.599 17.6024H157.351C155.465 17.6024 153.604 18.023 151.901 18.8337V18.8337C150.783 19.3663 149.954 20.3629 149.635 21.5599L147.739 28.6695C146.873 31.9182 149.396 35.0788 152.755 34.9544L168.011 34.3894C171.301 34.2675 173.879 31.5169 173.787 28.2256L173.384 13.8426C173.293 10.5955 170.635 8.01038 167.387 8.01038H153.04C150.056 8.01038 147.19 9.21712 145.164 11.4088C134.273 23.194 126.982 33.3225 120.684 32.2299C120.394 32.1796 120.111 32.3916 120.111 32.686V32.686C120.111 32.9325 120.313 33.1318 120.56 33.1285C126.709 33.045 130.709 32.4313 148.426 13.254C149.542 12.0456 151 11.1983 152.606 10.8414L158.221 9.59364C159.036 9.41248 159.88 9.4035 160.699 9.56728L164.988 10.4251C167.793 10.986 169.811 13.4485 169.811 16.3086V27.0984C169.811 29.8599 167.573 32.0984 164.811 32.0984H155.174C152.964 32.0984 151.174 30.3076 151.174 28.0984V22.6378C151.174 20.4287 152.964 18.6378 155.174 18.6378H159.528C160.633 18.6378 161.528 19.5332 161.528 20.6378V24.8858C161.528 25.4381 161.08 25.8858 160.528 25.8858H158.386C157.834 25.8858 157.386 25.4381 157.386 24.8858V22.7441Z" fill="url(#paint20_radial_692_1906)"/>
<path d="M131.667 33.0631C139.605 29.9513 147.755 12.4066 157.386 13.4606C144.413 19.2326 143.161 31.4785 131.667 33.0631Z" fill="url(#paint21_radial_692_1906)"/>
<path d="M124.252 30.0276C129.594 21.6827 129.718 16.9143 125.288 8.28346C130.716 9.71409 138.454 19.5114 124.252 30.0276Z" fill="url(#paint22_radial_692_1906)"/>
<path d="M118.04 10.3543C122.977 14.0549 125.674 23.2793 118.04 32.0984C129.75 25.6888 126.286 12.7713 118.04 0V10.3543Z" fill="url(#paint23_radial_692_1906)"/>
<defs>
<radialGradient id="paint0_radial_692_1906" cx="0" cy="0" r="1" gradientUnits="userSpaceOnUse" gradientTransform="translate(79.728 111.309) scale(38.311 20.1909)">
<stop stop-color="#E1E1E1"/>
<stop offset="1" stop-color="#FFF4DA"/>
</radialGradient>
<radialGradient id="paint1_radial_692_1906" cx="0" cy="0" r="1" gradientUnits="userSpaceOnUse" gradientTransform="translate(79.728 111.309) scale(38.311 20.1909)">
<stop stop-color="#E1E1E1"/>
<stop offset="1" stop-color="#FFF4DA"/>
</radialGradient>
<radialGradient id="paint2_radial_692_1906" cx="0" cy="0" r="1" gradientUnits="userSpaceOnUse" gradientTransform="translate(79.728 111.309) scale(38.311 20.1909)">
<stop stop-color="#E1E1E1"/>
<stop offset="1" stop-color="#FFF4DA"/>
</radialGradient>
<radialGradient id="paint3_radial_692_1906" cx="0" cy="0" r="1" gradientUnits="userSpaceOnUse" gradientTransform="translate(79.728 111.309) scale(38.311 20.1909)">
<stop stop-color="#E1E1E1"/>
<stop offset="1" stop-color="#FFF4DA"/>
</radialGradient>
<radialGradient id="paint4_radial_692_1906" cx="0" cy="0" r="1" gradientUnits="userSpaceOnUse" gradientTransform="translate(156.35 111.309) rotate(180) scale(38.311 20.1909)">
<stop stop-color="#E1E1E1"/>
<stop offset="1" stop-color="#FFF4DA"/>
</radialGradient>
<radialGradient id="paint5_radial_692_1906" cx="0" cy="0" r="1" gradientUnits="userSpaceOnUse" gradientTransform="translate(156.35 111.309) rotate(180) scale(38.311 20.1909)">
<stop stop-color="#E1E1E1"/>
<stop offset="1" stop-color="#FFF4DA"/>
</radialGradient>
<radialGradient id="paint6_radial_692_1906" cx="0" cy="0" r="1" gradientUnits="userSpaceOnUse" gradientTransform="translate(156.35 111.309) rotate(180) scale(38.311 20.1909)">
<stop stop-color="#E1E1E1"/>
<stop offset="1" stop-color="#FFF4DA"/>
</radialGradient>
<radialGradient id="paint7_radial_692_1906" cx="0" cy="0" r="1" gradientUnits="userSpaceOnUse" gradientTransform="translate(156.35 111.309) rotate(180) scale(38.311 20.1909)">
<stop stop-color="#E1E1E1"/>
<stop offset="1" stop-color="#FFF4DA"/>
</radialGradient>
<radialGradient id="paint8_radial_692_1906" cx="0" cy="0" r="1" gradientUnits="userSpaceOnUse" gradientTransform="translate(59.0197 17.6024) scale(59.0197 17.6024)">
<stop stop-color="#E1E1E1"/>
<stop offset="1" stop-color="#FFF4DA"/>
</radialGradient>
<radialGradient id="paint9_radial_692_1906" cx="0" cy="0" r="1" gradientUnits="userSpaceOnUse" gradientTransform="translate(59.0197 17.6024) scale(59.0197 17.6024)">
<stop stop-color="#E1E1E1"/>
<stop offset="1" stop-color="#FFF4DA"/>
</radialGradient>
<radialGradient id="paint10_radial_692_1906" cx="0" cy="0" r="1" gradientUnits="userSpaceOnUse" gradientTransform="translate(59.0197 17.6024) scale(59.0197 17.6024)">
<stop stop-color="#E1E1E1"/>
<stop offset="1" stop-color="#FFF4DA"/>
</radialGradient>
<radialGradient id="paint11_radial_692_1906" cx="0" cy="0" r="1" gradientUnits="userSpaceOnUse" gradientTransform="translate(59.0197 17.6024) scale(59.0197 17.6024)">
<stop stop-color="#E1E1E1"/>
<stop offset="1" stop-color="#FFF4DA"/>
</radialGradient>
<radialGradient id="paint12_radial_692_1906" cx="0" cy="0" r="1" gradientUnits="userSpaceOnUse" gradientTransform="translate(59.0197 17.6024) scale(59.0197 17.6024)">
<stop stop-color="#E1E1E1"/>
<stop offset="1" stop-color="#FFF4DA"/>
</radialGradient>
<radialGradient id="paint13_radial_692_1906" cx="0" cy="0" r="1" gradientUnits="userSpaceOnUse" gradientTransform="translate(59.0197 17.6024) scale(59.0197 17.6024)">
<stop stop-color="#E1E1E1"/>
<stop offset="1" stop-color="#FFF4DA"/>
</radialGradient>
<radialGradient id="paint14_radial_692_1906" cx="0" cy="0" r="1" gradientUnits="userSpaceOnUse" gradientTransform="translate(59.0197 17.6024) scale(59.0197 17.6024)">
<stop stop-color="#E1E1E1"/>
<stop offset="1" stop-color="#FFF4DA"/>
</radialGradient>
<radialGradient id="paint15_radial_692_1906" cx="0" cy="0" r="1" gradientUnits="userSpaceOnUse" gradientTransform="translate(59.0197 17.6024) scale(59.0197 17.6024)">
<stop stop-color="#E1E1E1"/>
<stop offset="1" stop-color="#FFF4DA"/>
</radialGradient>
<radialGradient id="paint16_radial_692_1906" cx="0" cy="0" r="1" gradientUnits="userSpaceOnUse" gradientTransform="translate(177.059 17.6024) rotate(180) scale(59.0197 17.6024)">
<stop stop-color="#E1E1E1"/>
<stop offset="1" stop-color="#FFF4DA"/>
</radialGradient>
<radialGradient id="paint17_radial_692_1906" cx="0" cy="0" r="1" gradientUnits="userSpaceOnUse" gradientTransform="translate(177.059 17.6024) rotate(180) scale(59.0197 17.6024)">
<stop stop-color="#E1E1E1"/>
<stop offset="1" stop-color="#FFF4DA"/>
</radialGradient>
<radialGradient id="paint18_radial_692_1906" cx="0" cy="0" r="1" gradientUnits="userSpaceOnUse" gradientTransform="translate(177.059 17.6024) rotate(180) scale(59.0197 17.6024)">
<stop stop-color="#E1E1E1"/>
<stop offset="1" stop-color="#FFF4DA"/>
</radialGradient>
<radialGradient id="paint19_radial_692_1906" cx="0" cy="0" r="1" gradientUnits="userSpaceOnUse" gradientTransform="translate(177.059 17.6024) rotate(180) scale(59.0197 17.6024)">
<stop stop-color="#E1E1E1"/>
<stop offset="1" stop-color="#FFF4DA"/>
</radialGradient>
<radialGradient id="paint20_radial_692_1906" cx="0" cy="0" r="1" gradientUnits="userSpaceOnUse" gradientTransform="translate(177.059 17.6024) rotate(180) scale(59.0197 17.6024)">
<stop stop-color="#E1E1E1"/>
<stop offset="1" stop-color="#FFF4DA"/>
</radialGradient>
<radialGradient id="paint21_radial_692_1906" cx="0" cy="0" r="1" gradientUnits="userSpaceOnUse" gradientTransform="translate(177.059 17.6024) rotate(180) scale(59.0197 17.6024)">
<stop stop-color="#E1E1E1"/>
<stop offset="1" stop-color="#FFF4DA"/>
</radialGradient>
<radialGradient id="paint22_radial_692_1906" cx="0" cy="0" r="1" gradientUnits="userSpaceOnUse" gradientTransform="translate(177.059 17.6024) rotate(180) scale(59.0197 17.6024)">
<stop stop-color="#E1E1E1"/>
<stop offset="1" stop-color="#FFF4DA"/>
</radialGradient>
<radialGradient id="paint23_radial_692_1906" cx="0" cy="0" r="1" gradientUnits="userSpaceOnUse" gradientTransform="translate(177.059 17.6024) rotate(180) scale(59.0197 17.6024)">
<stop stop-color="#E1E1E1"/>
<stop offset="1" stop-color="#FFF4DA"/>
</radialGradient>
</defs>
</svg>
