<svg width="237" height="132" viewBox="0 0 237 132" fill="none" xmlns="http://www.w3.org/2000/svg">
<path d="M50.7125 108.06C49.3889 108.487 47.9214 108.504 46.7169 107.809C44.5794 106.575 44.1412 105.154 44.5234 102.508V102.508C42.8798 103.056 42.063 104.953 43.0339 106.388C43.9977 107.812 45.0937 108.974 46.6267 110.246C47.9171 111.316 49.5696 111.855 51.2458 111.812C56.4406 111.679 59.0349 110.851 62.1257 108.72C61.1051 110.641 61.1618 111.76 61.9885 113.6C62.0605 113.76 62.2568 113.822 62.4077 113.731C64.0825 112.73 65.0039 111.892 66.2674 109.756C66.2154 114.032 66.9843 113.977 70.4091 114.933C67.5194 110.86 68.0525 109.221 70.1981 106.254C70.9958 105.151 72.1259 104.331 73.4053 103.866L78.5776 101.985C81.3342 100.982 84.3487 100.942 87.1313 101.869L104.173 107.55C104.307 107.435 104.442 107.326 104.578 107.223V104.508C104.578 103.403 105.474 102.508 106.578 102.508H108.791C109.896 102.508 110.791 103.403 110.791 104.508V105.614H111.826V103.472C111.826 102.368 110.931 101.472 109.826 101.472H105.543C104.438 101.472 103.543 102.368 103.543 103.472V106.65C98.7736 103.748 93.5321 101.584 86.7257 99.7769C82.8456 98.747 78.7534 99.0145 74.9328 100.247L50.7125 108.06Z" fill="url(#paint0_radial_692_2034)"/>
<path fill-rule="evenodd" clip-rule="evenodd" d="M118.039 111.827V108.721C115.458 105.74 114.163 105.799 111.826 105.614H110.791C108.063 105.589 106.222 105.979 104.578 107.223V107.685L104.173 107.55C103.27 108.327 102.409 109.382 101.472 110.791C94.4225 108.167 92.2419 105.859 84.6304 104.117C82.7927 103.696 80.8379 103.854 79.1733 104.739C77.1406 105.82 75.7478 107.075 74.4004 109.235C73.7976 110.201 73.7049 111.42 74.2146 112.438C75.0495 114.107 76.2498 115.417 79.1376 117.128C80.1186 117.709 81.3505 117.62 82.2784 116.957L86.28 114.099C87.2184 113.429 87.4128 112.09 86.6211 111.251C84.8302 109.354 83.7227 109.09 81.7989 109.756C83.0242 110.067 83.7473 110.456 84.396 111.688C84.7596 112.378 84.5518 113.216 84 113.767L82.2754 115.492C81.3706 116.397 79.9663 116.664 78.9055 115.948C77.3915 114.927 76.4781 113.802 75.4876 112.283C74.8937 111.372 74.8539 110.185 75.48 109.296C77.188 106.871 79.0763 106.022 82.8343 105.614C87.5138 105.758 93.9734 109.592 101.472 112.862C101.61 115.305 101.827 117.608 105.43 119.531C106.15 119.915 107.027 119.733 107.604 119.156L110.252 116.508C110.55 116.21 110.55 115.727 110.252 115.429V115.429C109.971 115.149 109.521 115.134 109.21 115.381C104.882 118.812 103.349 117.017 102.508 112.862C108.784 113.743 111.6 112.063 112.862 106.65H114.933L118.039 111.827ZM102.508 111.827C105.324 107.593 107.416 106.549 111.826 106.65C109.581 111.782 107.623 113.001 102.508 111.827Z" fill="url(#paint1_radial_692_2034)"/>
<path d="M118.039 114.933V111.827C116.112 115.763 116.189 118.074 110.791 119.075C111.96 121.038 112.806 121.636 114.933 121.146C115.324 125.201 115.717 127.472 118.039 131.5V125.287C116.703 121.107 116.952 118.865 118.039 114.933Z" fill="url(#paint2_radial_692_2034)"/>
<path d="M115.968 98.3662C116.06 94.792 116.696 93.3936 118.039 91.1182V105.614C115.722 100.811 114.342 99.4138 111.826 99.4015C113.364 97.8121 114.276 97.3638 115.968 98.3662Z" fill="url(#paint3_radial_692_2034)"/>
<path d="M185.366 108.06C186.689 108.487 188.157 108.504 189.361 107.809C191.499 106.575 191.937 105.154 191.555 102.508V102.508C193.198 103.056 194.015 104.953 193.044 106.388C192.08 107.812 190.984 108.974 189.451 110.246C188.161 111.316 186.509 111.855 184.832 111.812C179.637 111.679 177.043 110.851 173.952 108.72C174.973 110.641 174.916 111.76 174.09 113.6C174.018 113.76 173.821 113.822 173.67 113.731C171.996 112.73 171.074 111.892 169.811 109.756C169.863 114.032 169.094 113.977 165.669 114.933C168.559 110.86 168.026 109.221 165.88 106.254C165.082 105.151 163.952 104.331 162.673 103.866L157.5 101.985C154.744 100.982 151.729 100.942 148.947 101.869L131.905 107.55C131.771 107.435 131.636 107.326 131.5 107.223V104.508C131.5 103.403 130.604 102.508 129.5 102.508H127.287C126.183 102.508 125.287 103.403 125.287 104.508V105.614H124.252V103.472C124.252 102.368 125.147 101.472 126.252 101.472H130.535C131.64 101.472 132.535 102.368 132.535 103.472V106.65C137.304 103.748 142.546 101.584 149.352 99.7769C153.232 98.747 157.325 99.0145 161.145 100.247L185.366 108.06Z" fill="url(#paint4_radial_692_2034)"/>
<path fill-rule="evenodd" clip-rule="evenodd" d="M118.039 111.827V108.721C120.62 105.74 121.915 105.799 124.252 105.614H125.287C128.015 105.589 129.856 105.979 131.5 107.223V107.685L131.905 107.55C132.808 108.327 133.669 109.382 134.606 110.791C141.656 108.167 143.836 105.859 151.448 104.117C153.285 103.696 155.24 103.854 156.905 104.739C158.938 105.82 160.33 107.075 161.678 109.235C162.281 110.201 162.373 111.42 161.863 112.438C161.029 114.107 159.828 115.417 156.941 117.128C155.96 117.709 154.728 117.62 153.8 116.957L149.798 114.099C148.86 113.429 148.665 112.09 149.457 111.251C151.248 109.354 152.355 109.09 154.279 109.756C153.054 110.067 152.331 110.456 151.682 111.688C151.319 112.378 151.526 113.216 152.078 113.767L153.803 115.492C154.708 116.397 156.112 116.664 157.173 115.948C158.687 114.927 159.6 113.802 160.591 112.283C161.184 111.372 161.224 110.185 160.598 109.296C158.89 106.871 157.002 106.022 153.244 105.614C148.564 105.758 142.105 109.592 134.606 112.862C134.468 115.305 134.251 117.608 130.648 119.531C129.928 119.915 129.051 119.733 128.474 119.156L125.826 116.508C125.528 116.21 125.528 115.727 125.826 115.429V115.429C126.107 115.149 126.557 115.134 126.868 115.381C131.196 118.812 132.729 117.017 133.571 112.862C127.294 113.743 124.478 112.063 123.216 106.65H121.145L118.039 111.827ZM133.571 111.827C130.754 107.593 128.662 106.549 124.252 106.65C126.497 111.782 128.455 113.001 133.571 111.827Z" fill="url(#paint5_radial_692_2034)"/>
<path d="M118.039 114.933V111.827C119.967 115.763 119.889 118.074 125.287 119.075C124.119 121.038 123.273 121.636 121.145 121.146C120.754 125.201 120.361 127.472 118.039 131.5V125.287C119.375 121.107 119.126 118.865 118.039 114.933Z" fill="url(#paint6_radial_692_2034)"/>
<path d="M120.11 98.3662C120.019 94.792 119.382 93.3936 118.039 91.1182V105.614C120.356 100.811 121.736 99.4138 124.252 99.4015C122.714 97.8121 121.802 97.3638 120.11 98.3662Z" fill="url(#paint7_radial_692_2034)"/>
<path d="M94.7305 52.8711L91.6797 69.0273C91.3932 70.7174 91.25 71.7773 91.25 72.207C91.25 72.6367 91.3717 72.8945 91.6152 72.9805C91.8587 73.0664 92.625 73.1094 93.9141 73.1094H95.8477C98.3542 73.1094 100.087 72.8659 101.047 72.3789C101.505 72.1497 102.042 71.6413 102.658 70.8535C103.274 70.0658 103.854 69.1276 104.398 68.0391C104.484 67.8672 104.699 67.7812 105.043 67.7812C105.544 67.7812 105.845 67.8672 105.945 68.0391C103.94 71.7773 102.766 74.1549 102.422 75.1719C100.932 75.1719 98.5833 75.1289 95.375 75.043C92.181 74.957 90.0039 74.9141 88.8438 74.9141L84.0742 75.1289C84.0456 75.1003 84.0312 74.9857 84.0312 74.7852C84.0312 74.0977 84.1315 73.7539 84.332 73.7539C84.5898 73.7539 84.9193 73.7181 85.3203 73.6465C85.7357 73.5605 86.1224 73.4531 86.4805 73.3242C86.8385 73.181 87.0534 73.0378 87.125 72.8945C87.526 72.0781 87.8984 70.7461 88.2422 68.8984L91.293 53C91.6081 51.4674 91.7656 50.1497 91.7656 49.0469C91.7656 48.832 91.6152 48.6387 91.3145 48.4668C91.028 48.2949 90.6914 48.1589 90.3047 48.0586C89.9323 47.944 89.6172 47.8867 89.3594 47.8867C89.3021 47.8867 89.2734 47.8151 89.2734 47.6719C89.2734 47.2708 89.388 46.9557 89.6172 46.7266C89.8464 46.7409 90.2331 46.7695 90.7773 46.8125C91.3359 46.8555 91.9375 46.8984 92.582 46.9414C93.2266 46.9701 93.7852 46.9844 94.2578 46.9844C94.9453 46.9844 95.8262 46.9414 96.9004 46.8555C97.9746 46.7695 98.612 46.7266 98.8125 46.7266V46.8555C98.8125 47.543 98.7122 47.8867 98.5117 47.8867C98.3685 47.8867 98.0892 47.944 97.6738 48.0586C97.2728 48.1589 96.8789 48.2878 96.4922 48.4453C96.1198 48.5885 95.9049 48.7318 95.8477 48.875C95.4609 49.7201 95.0885 51.0521 94.7305 52.8711ZM119.48 56.3086C120.54 56.3086 121.586 56.4948 122.617 56.8672L119.996 70.4453C119.91 70.7891 119.867 71.1471 119.867 71.5195C119.867 72.2357 120.01 72.5938 120.297 72.5938C120.655 72.5938 121.085 72.3431 121.586 71.8418C122.087 71.3262 122.517 70.8893 122.875 70.5312L123.133 70.2305C123.19 70.2305 123.298 70.3665 123.455 70.6387C123.613 70.9108 123.691 71.1042 123.691 71.2188C123.448 71.6341 123.004 72.1641 122.359 72.8086C121.729 73.4531 121.042 74.026 120.297 74.5273C119.552 75.0143 118.879 75.2578 118.277 75.2578C117.819 75.2578 117.461 75.0501 117.203 74.6348C116.945 74.2194 116.816 73.6823 116.816 73.0234C116.816 72.5794 116.917 71.8203 117.117 70.7461L117.268 69.9941C117.311 69.7936 117.332 69.6719 117.332 69.6289C117.103 70.0586 116.773 70.5885 116.344 71.2188C115.914 71.8346 115.42 72.4505 114.861 73.0664C114.303 73.6823 113.715 74.1979 113.1 74.6133C112.484 75.0143 111.875 75.2148 111.273 75.2148C110.013 75.2148 109.018 74.6491 108.287 73.5176C107.557 72.3861 107.191 71.0182 107.191 69.4141C107.191 67.3659 107.8 65.3249 109.018 63.291C109.834 61.916 110.808 60.7057 111.939 59.6602C113.085 58.6146 114.31 57.7982 115.613 57.2109C116.917 56.6094 118.206 56.3086 119.48 56.3086ZM117.676 58.2852C116.831 58.2852 115.979 58.5859 115.119 59.1875C114.26 59.7747 113.472 60.5697 112.756 61.5723C112.04 62.5605 111.46 63.6634 111.016 64.8809C110.586 66.084 110.371 67.2943 110.371 68.5117C110.371 71.319 111.102 72.7227 112.562 72.7227C113.078 72.7227 113.637 72.4362 114.238 71.8633C114.84 71.2904 115.434 70.5312 116.021 69.5859C116.609 68.6406 117.124 67.6165 117.568 66.5137C118.027 65.3965 118.363 64.3008 118.578 63.2266L119.438 58.8438C119.094 58.4714 118.507 58.2852 117.676 58.2852ZM131.684 56.3086C132.543 56.3086 133.252 57.0391 133.811 58.5C134.383 59.9896 134.763 61.9017 134.949 64.2363C135.092 65.8118 135.193 67.1439 135.25 68.2324C135.322 69.321 135.365 70.2949 135.379 71.1543C135.408 72.0137 135.422 72.8945 135.422 73.7969C136.167 72.8802 136.926 71.7773 137.699 70.4883C138.473 69.1992 139.124 67.8743 139.654 66.5137C140.184 65.153 140.449 63.8997 140.449 62.7539C140.449 61.0781 140.091 59.5456 139.375 58.1562C139.747 56.9245 140.464 56.3086 141.523 56.3086C142.784 56.3086 143.414 57.4401 143.414 59.7031C143.414 62.8685 142.182 66.485 139.719 70.5527C138.487 72.5866 137.148 74.4772 135.701 76.2246C134.269 77.9863 132.822 79.526 131.361 80.8438C129.9 82.1615 128.518 83.1855 127.215 83.916C125.911 84.6465 124.78 85.0117 123.82 85.0117C123.076 85.0117 122.46 84.8398 121.973 84.4961C121.486 84.1523 121.242 83.737 121.242 83.25C121.242 82.3333 121.572 81.7031 122.23 81.3594C122.861 81.7318 123.82 81.918 125.109 81.918C127.501 81.918 129.564 80.6432 131.297 78.0938C131.956 77.1341 132.285 75.2148 132.285 72.3359C132.285 70.9323 132.249 69.5358 132.178 68.1465C132.106 66.7572 131.977 65.332 131.791 63.8711C131.691 63.0404 131.54 62.2526 131.34 61.5078C131.154 60.763 130.924 60.1543 130.652 59.6816C130.38 59.209 130.065 58.9727 129.707 58.9727C129.449 58.9727 129.062 59.2161 128.547 59.7031C128.031 60.1901 127.63 60.6198 127.344 60.9922C127.286 60.9922 127.179 60.8561 127.021 60.584C126.864 60.3118 126.785 60.1185 126.785 60.0039C126.871 59.7891 127.1 59.4811 127.473 59.0801C127.859 58.679 128.311 58.2637 128.826 57.834C129.342 57.4043 129.857 57.0462 130.373 56.7598C130.889 56.459 131.326 56.3086 131.684 56.3086ZM146.98 70.7461L151.02 49.9062C151.105 49.4766 151.148 49.0755 151.148 48.7031C151.148 48.1589 150.275 47.8867 148.527 47.8867C148.441 47.8867 148.398 47.8008 148.398 47.6289C148.398 47.2852 148.513 46.9987 148.742 46.7695C150.661 46.5977 152.495 46.1966 154.242 45.5664C154.414 45.6523 154.5 45.9245 154.5 46.3828C154.5 46.6979 154.314 47.7721 153.941 49.6055L149.859 70.4453C149.773 70.7891 149.73 71.1471 149.73 71.5195C149.73 72.2357 149.874 72.5938 150.16 72.5938C150.332 72.5938 150.54 72.515 150.783 72.3574C151.027 72.1999 151.277 72.0065 151.535 71.7773C151.793 71.5482 152.087 71.2546 152.416 70.8965C152.745 70.5241 152.939 70.3021 152.996 70.2305C153.082 70.2305 153.197 70.3665 153.34 70.6387C153.483 70.9108 153.555 71.1042 153.555 71.2188C153.311 71.6341 152.867 72.1641 152.223 72.8086C151.592 73.4531 150.905 74.026 150.16 74.5273C149.415 75.0143 148.742 75.2578 148.141 75.2578C147.711 75.2578 147.36 75.0501 147.088 74.6348C146.816 74.2194 146.68 73.6823 146.68 73.0234C146.68 72.5794 146.78 71.8203 146.98 70.7461Z" fill="white"/>
<path d="M0 14.4961C6.30012 20.0984 15.0791 19.1979 30.687 15.1421C32.2497 14.736 33.9168 14.9601 35.3059 15.7832L61.0905 31.063L35.3304 19.6141C33.9205 18.9874 32.3183 18.9353 30.8588 19.4358C12.5496 25.7159 4.73674 24.7283 0 14.4961Z" fill="url(#paint8_radial_692_2034)"/>
<path d="M16.5669 25.8858C22.7094 27.5488 34.4861 19.1752 43.5027 24.2129C35.7991 20.3448 24.9274 34.7378 16.5669 25.8858Z" fill="url(#paint9_radial_692_2034)"/>
<path d="M42.4528 34.1693C40.4746 32.9379 39.8039 31.791 39.5364 30.2054C39.314 28.8871 40.2138 27.6374 41.514 27.3262C46.4064 26.1551 49.6595 27.3172 54.8779 31.063C50.3759 26.3362 46.8249 25.2844 39.6469 25.78C38.7972 25.8387 38.0191 26.2751 37.5081 26.9564L36.1669 28.7446C35.6047 29.4943 35.6307 30.5432 36.2784 31.2205C38.4425 33.4837 39.9798 34.1156 42.4528 34.1693Z" fill="url(#paint10_radial_692_2034)"/>
<path d="M61.0905 28.9921C48.8725 19.5072 53.131 18.6378 60.0551 10.3543C56.6285 8.93238 54.8937 8.83857 52.8071 12.4252C51.2879 8.29387 49.7783 6.42726 45.559 4.14173C43.8524 8.52031 44.6321 10.6991 46.5945 14.4961C42.9378 12.0347 40.7471 11.3823 36.2402 13.4606C46.3046 17.727 45.2926 18.8748 61.0905 28.9921Z" fill="url(#paint11_radial_692_2034)"/>
<path d="M78.6929 22.7441C78.6929 22.1918 79.1406 21.7441 79.6929 21.7441H79.7638C80.3161 21.7441 80.7638 22.1918 80.7638 22.7441V25.9213C80.7638 26.4735 80.3161 26.9213 79.7638 26.9213H74.4803C73.3757 26.9213 72.4803 26.0258 72.4803 24.9213V19.6024C72.4803 18.4978 73.3757 17.6024 74.4803 17.6024H78.7281C80.6137 17.6024 82.4755 18.023 84.178 18.8337V18.8337C85.2965 19.3663 86.1249 20.3629 86.4441 21.5599L88.3399 28.6695C89.2063 31.9182 86.6836 35.0788 83.3237 34.9544L68.0679 34.3894C64.7776 34.2675 62.2002 31.5169 62.2923 28.2256L62.6948 13.8426C62.7856 10.5955 65.4441 8.01038 68.6924 8.01038H83.0387C86.0229 8.01038 88.8896 9.21712 90.915 11.4088C101.807 23.194 109.097 33.3225 115.395 32.2299C115.685 32.1796 115.968 32.3916 115.968 32.686V32.686C115.968 32.9325 115.766 33.1318 115.519 33.1285C109.37 33.045 105.37 32.4313 87.653 13.254C86.5367 12.0456 85.0793 11.1983 83.4735 10.8414L77.8584 9.59364C77.0431 9.41248 76.199 9.4035 75.3801 9.56728L71.091 10.4251C68.2865 10.986 66.2677 13.4485 66.2677 16.3086V27.0984C66.2677 29.8599 68.5063 32.0984 71.2677 32.0984H80.9055C83.1146 32.0984 84.9055 30.3076 84.9055 28.0984V22.6378C84.9055 20.4287 83.1146 18.6378 80.9055 18.6378H76.5512C75.4466 18.6378 74.5512 19.5332 74.5512 20.6378V24.8858C74.5512 25.4381 74.9989 25.8858 75.5512 25.8858H77.6929C78.2452 25.8858 78.6929 25.4381 78.6929 24.8858V22.7441Z" fill="url(#paint12_radial_692_2034)"/>
<path d="M104.412 33.0631C96.4743 29.9513 88.3242 12.4066 78.6929 13.4606C91.6665 19.2326 92.9183 31.4785 104.412 33.0631Z" fill="url(#paint13_radial_692_2034)"/>
<path d="M111.827 30.0276C106.485 21.6827 106.361 16.9143 110.791 8.28346C105.363 9.71409 97.6256 19.5114 111.827 30.0276Z" fill="url(#paint14_radial_692_2034)"/>
<path d="M118.039 10.3543C113.102 14.0549 110.405 23.2793 118.039 32.0984C106.33 25.6888 109.793 12.7713 118.039 0V10.3543Z" fill="url(#paint15_radial_692_2034)"/>
<path d="M236.079 14.4961C229.778 20.0984 221 19.1979 205.392 15.1421C203.829 14.736 202.162 14.9601 200.773 15.7832L174.988 31.063L200.748 19.6141C202.158 18.9874 203.76 18.9353 205.22 19.4358C223.529 25.7159 231.342 24.7283 236.079 14.4961Z" fill="url(#paint16_radial_692_2034)"/>
<path d="M219.512 25.8858C213.369 27.5488 201.593 19.1752 192.576 24.2129C200.279 20.3448 211.151 34.7378 219.512 25.8858Z" fill="url(#paint17_radial_692_2034)"/>
<path d="M193.626 34.1693C195.604 32.9379 196.275 31.791 196.542 30.2054C196.765 28.8871 195.865 27.6374 194.565 27.3262C189.672 26.1551 186.419 27.3172 181.201 31.063C185.703 26.3362 189.254 25.2844 196.432 25.78C197.281 25.8387 198.06 26.2751 198.571 26.9564L199.912 28.7446C200.474 29.4943 200.448 30.5432 199.8 31.2205C197.636 33.4837 196.099 34.1156 193.626 34.1693Z" fill="url(#paint18_radial_692_2034)"/>
<path d="M174.988 28.9921C187.206 19.5072 182.948 18.6378 176.024 10.3543C179.45 8.93238 181.185 8.83857 183.272 12.4252C184.791 8.29387 186.3 6.42726 190.52 4.14173C192.226 8.52031 191.446 10.6991 189.484 14.4961C193.141 12.0347 195.331 11.3823 199.838 13.4606C189.774 17.727 190.786 18.8748 174.988 28.9921Z" fill="url(#paint19_radial_692_2034)"/>
<path d="M157.386 22.7441C157.386 22.1918 156.938 21.7441 156.386 21.7441H156.315C155.763 21.7441 155.315 22.1918 155.315 22.7441V25.9213C155.315 26.4735 155.763 26.9213 156.315 26.9213H161.598C162.703 26.9213 163.598 26.0258 163.598 24.9213V19.6024C163.598 18.4978 162.703 17.6024 161.598 17.6024H157.351C155.465 17.6024 153.603 18.023 151.901 18.8337V18.8337C150.782 19.3663 149.954 20.3629 149.635 21.5599L147.739 28.6695C146.872 31.9182 149.395 35.0788 152.755 34.9544L168.011 34.3894C171.301 34.2675 173.878 31.5169 173.786 28.2256L173.384 13.8426C173.293 10.5955 170.635 8.01038 167.386 8.01038H153.04C150.056 8.01038 147.189 9.21712 145.164 11.4088C134.272 23.194 126.982 33.3225 120.683 32.2299C120.393 32.1796 120.11 32.3916 120.11 32.686V32.686C120.11 32.9325 120.313 33.1318 120.559 33.1285C126.708 33.045 130.709 32.4313 148.426 13.254C149.542 12.0456 150.999 11.1983 152.605 10.8414L158.22 9.59364C159.035 9.41248 159.88 9.4035 160.698 9.56728L164.988 10.4251C167.792 10.986 169.811 13.4485 169.811 16.3086V27.0984C169.811 29.8599 167.572 32.0984 164.811 32.0984H155.173C152.964 32.0984 151.173 30.3076 151.173 28.0984V22.6378C151.173 20.4287 152.964 18.6378 155.173 18.6378H159.527C160.632 18.6378 161.527 19.5332 161.527 20.6378V24.8858C161.527 25.4381 161.08 25.8858 160.527 25.8858H158.386C157.833 25.8858 157.386 25.4381 157.386 24.8858V22.7441Z" fill="url(#paint20_radial_692_2034)"/>
<path d="M131.666 33.0631C139.604 29.9513 147.754 12.4066 157.386 13.4606C144.412 19.2326 143.16 31.4785 131.666 33.0631Z" fill="url(#paint21_radial_692_2034)"/>
<path d="M124.252 30.0276C129.594 21.6827 129.718 16.9143 125.287 8.28346C130.716 9.71409 138.453 19.5114 124.252 30.0276Z" fill="url(#paint22_radial_692_2034)"/>
<path d="M118.039 10.3543C122.976 14.0549 125.673 23.2793 118.039 32.0984C129.749 25.6888 126.286 12.7713 118.039 0V10.3543Z" fill="url(#paint23_radial_692_2034)"/>
<defs>
<radialGradient id="paint0_radial_692_2034" cx="0" cy="0" r="1" gradientUnits="userSpaceOnUse" gradientTransform="translate(79.728 111.309) scale(38.311 20.1909)">
<stop stop-color="#E1E1E1"/>
<stop offset="1" stop-color="#FFF4DA"/>
</radialGradient>
<radialGradient id="paint1_radial_692_2034" cx="0" cy="0" r="1" gradientUnits="userSpaceOnUse" gradientTransform="translate(79.728 111.309) scale(38.311 20.1909)">
<stop stop-color="#E1E1E1"/>
<stop offset="1" stop-color="#FFF4DA"/>
</radialGradient>
<radialGradient id="paint2_radial_692_2034" cx="0" cy="0" r="1" gradientUnits="userSpaceOnUse" gradientTransform="translate(79.728 111.309) scale(38.311 20.1909)">
<stop stop-color="#E1E1E1"/>
<stop offset="1" stop-color="#FFF4DA"/>
</radialGradient>
<radialGradient id="paint3_radial_692_2034" cx="0" cy="0" r="1" gradientUnits="userSpaceOnUse" gradientTransform="translate(79.728 111.309) scale(38.311 20.1909)">
<stop stop-color="#E1E1E1"/>
<stop offset="1" stop-color="#FFF4DA"/>
</radialGradient>
<radialGradient id="paint4_radial_692_2034" cx="0" cy="0" r="1" gradientUnits="userSpaceOnUse" gradientTransform="translate(156.35 111.309) rotate(180) scale(38.311 20.1909)">
<stop stop-color="#E1E1E1"/>
<stop offset="1" stop-color="#FFF4DA"/>
</radialGradient>
<radialGradient id="paint5_radial_692_2034" cx="0" cy="0" r="1" gradientUnits="userSpaceOnUse" gradientTransform="translate(156.35 111.309) rotate(180) scale(38.311 20.1909)">
<stop stop-color="#E1E1E1"/>
<stop offset="1" stop-color="#FFF4DA"/>
</radialGradient>
<radialGradient id="paint6_radial_692_2034" cx="0" cy="0" r="1" gradientUnits="userSpaceOnUse" gradientTransform="translate(156.35 111.309) rotate(180) scale(38.311 20.1909)">
<stop stop-color="#E1E1E1"/>
<stop offset="1" stop-color="#FFF4DA"/>
</radialGradient>
<radialGradient id="paint7_radial_692_2034" cx="0" cy="0" r="1" gradientUnits="userSpaceOnUse" gradientTransform="translate(156.35 111.309) rotate(180) scale(38.311 20.1909)">
<stop stop-color="#E1E1E1"/>
<stop offset="1" stop-color="#FFF4DA"/>
</radialGradient>
<radialGradient id="paint8_radial_692_2034" cx="0" cy="0" r="1" gradientUnits="userSpaceOnUse" gradientTransform="translate(59.0197 17.6024) scale(59.0197 17.6024)">
<stop stop-color="#E1E1E1"/>
<stop offset="1" stop-color="#FFF4DA"/>
</radialGradient>
<radialGradient id="paint9_radial_692_2034" cx="0" cy="0" r="1" gradientUnits="userSpaceOnUse" gradientTransform="translate(59.0197 17.6024) scale(59.0197 17.6024)">
<stop stop-color="#E1E1E1"/>
<stop offset="1" stop-color="#FFF4DA"/>
</radialGradient>
<radialGradient id="paint10_radial_692_2034" cx="0" cy="0" r="1" gradientUnits="userSpaceOnUse" gradientTransform="translate(59.0197 17.6024) scale(59.0197 17.6024)">
<stop stop-color="#E1E1E1"/>
<stop offset="1" stop-color="#FFF4DA"/>
</radialGradient>
<radialGradient id="paint11_radial_692_2034" cx="0" cy="0" r="1" gradientUnits="userSpaceOnUse" gradientTransform="translate(59.0197 17.6024) scale(59.0197 17.6024)">
<stop stop-color="#E1E1E1"/>
<stop offset="1" stop-color="#FFF4DA"/>
</radialGradient>
<radialGradient id="paint12_radial_692_2034" cx="0" cy="0" r="1" gradientUnits="userSpaceOnUse" gradientTransform="translate(59.0197 17.6024) scale(59.0197 17.6024)">
<stop stop-color="#E1E1E1"/>
<stop offset="1" stop-color="#FFF4DA"/>
</radialGradient>
<radialGradient id="paint13_radial_692_2034" cx="0" cy="0" r="1" gradientUnits="userSpaceOnUse" gradientTransform="translate(59.0197 17.6024) scale(59.0197 17.6024)">
<stop stop-color="#E1E1E1"/>
<stop offset="1" stop-color="#FFF4DA"/>
</radialGradient>
<radialGradient id="paint14_radial_692_2034" cx="0" cy="0" r="1" gradientUnits="userSpaceOnUse" gradientTransform="translate(59.0197 17.6024) scale(59.0197 17.6024)">
<stop stop-color="#E1E1E1"/>
<stop offset="1" stop-color="#FFF4DA"/>
</radialGradient>
<radialGradient id="paint15_radial_692_2034" cx="0" cy="0" r="1" gradientUnits="userSpaceOnUse" gradientTransform="translate(59.0197 17.6024) scale(59.0197 17.6024)">
<stop stop-color="#E1E1E1"/>
<stop offset="1" stop-color="#FFF4DA"/>
</radialGradient>
<radialGradient id="paint16_radial_692_2034" cx="0" cy="0" r="1" gradientUnits="userSpaceOnUse" gradientTransform="translate(177.059 17.6024) rotate(180) scale(59.0197 17.6024)">
<stop stop-color="#E1E1E1"/>
<stop offset="1" stop-color="#FFF4DA"/>
</radialGradient>
<radialGradient id="paint17_radial_692_2034" cx="0" cy="0" r="1" gradientUnits="userSpaceOnUse" gradientTransform="translate(177.059 17.6024) rotate(180) scale(59.0197 17.6024)">
<stop stop-color="#E1E1E1"/>
<stop offset="1" stop-color="#FFF4DA"/>
</radialGradient>
<radialGradient id="paint18_radial_692_2034" cx="0" cy="0" r="1" gradientUnits="userSpaceOnUse" gradientTransform="translate(177.059 17.6024) rotate(180) scale(59.0197 17.6024)">
<stop stop-color="#E1E1E1"/>
<stop offset="1" stop-color="#FFF4DA"/>
</radialGradient>
<radialGradient id="paint19_radial_692_2034" cx="0" cy="0" r="1" gradientUnits="userSpaceOnUse" gradientTransform="translate(177.059 17.6024) rotate(180) scale(59.0197 17.6024)">
<stop stop-color="#E1E1E1"/>
<stop offset="1" stop-color="#FFF4DA"/>
</radialGradient>
<radialGradient id="paint20_radial_692_2034" cx="0" cy="0" r="1" gradientUnits="userSpaceOnUse" gradientTransform="translate(177.059 17.6024) rotate(180) scale(59.0197 17.6024)">
<stop stop-color="#E1E1E1"/>
<stop offset="1" stop-color="#FFF4DA"/>
</radialGradient>
<radialGradient id="paint21_radial_692_2034" cx="0" cy="0" r="1" gradientUnits="userSpaceOnUse" gradientTransform="translate(177.059 17.6024) rotate(180) scale(59.0197 17.6024)">
<stop stop-color="#E1E1E1"/>
<stop offset="1" stop-color="#FFF4DA"/>
</radialGradient>
<radialGradient id="paint22_radial_692_2034" cx="0" cy="0" r="1" gradientUnits="userSpaceOnUse" gradientTransform="translate(177.059 17.6024) rotate(180) scale(59.0197 17.6024)">
<stop stop-color="#E1E1E1"/>
<stop offset="1" stop-color="#FFF4DA"/>
</radialGradient>
<radialGradient id="paint23_radial_692_2034" cx="0" cy="0" r="1" gradientUnits="userSpaceOnUse" gradientTransform="translate(177.059 17.6024) rotate(180) scale(59.0197 17.6024)">
<stop stop-color="#E1E1E1"/>
<stop offset="1" stop-color="#FFF4DA"/>
</radialGradient>
</defs>
</svg>
