<svg width="237" height="132" viewBox="0 0 237 132" fill="none" xmlns="http://www.w3.org/2000/svg">
<path d="M50.713 108.06C49.3894 108.487 47.9219 108.504 46.7174 107.809C44.5799 106.575 44.1417 105.154 44.5239 102.508V102.508C42.8803 103.056 42.0634 104.953 43.0344 106.388C43.9981 107.812 45.0942 108.974 46.6272 110.246C47.9176 111.316 49.57 111.855 51.2463 111.812C56.4411 111.679 59.0354 110.851 62.1261 108.72C61.1055 110.641 61.1623 111.76 61.9889 113.6C62.061 113.76 62.2573 113.822 62.4081 113.731C64.083 112.73 65.0044 111.892 66.2679 109.756C66.2159 114.032 66.9848 113.977 70.4096 114.933C67.5199 110.86 68.053 109.221 70.1985 106.254C70.9963 105.151 72.1264 104.331 73.4058 103.866L78.5781 101.985C81.3347 100.982 84.3491 100.942 87.1317 101.869L104.174 107.55C104.308 107.435 104.443 107.326 104.579 107.223V104.508C104.579 103.403 105.474 102.508 106.579 102.508H108.791C109.896 102.508 110.791 103.403 110.791 104.508V105.614H111.827V103.472C111.827 102.368 110.931 101.472 109.827 101.472H105.543C104.439 101.472 103.543 102.368 103.543 103.472V106.65C98.7741 103.748 93.5326 101.584 86.7262 99.7769C82.8461 98.747 78.7539 99.0145 74.9333 100.247L50.713 108.06Z" fill="url(#paint0_radial_692_1858)"/>
<path fill-rule="evenodd" clip-rule="evenodd" d="M118.04 111.827V108.721C115.458 105.74 114.164 105.799 111.827 105.614H110.791C108.063 105.589 106.223 105.979 104.579 107.223V107.685L104.174 107.55C103.27 108.327 102.41 109.382 101.473 110.791C94.423 108.167 92.2423 105.859 84.6309 104.117C82.7932 103.696 80.8384 103.854 79.1738 104.739C77.1411 105.82 75.7483 107.075 74.4009 109.235C73.7981 110.201 73.7054 111.42 74.2151 112.438C75.05 114.107 76.2503 115.417 79.1381 117.128C80.1191 117.709 81.351 117.62 82.2789 116.957L86.2804 114.099C87.2189 113.429 87.4133 112.09 86.6216 111.251C84.8307 109.354 83.7232 109.09 81.7994 109.756C83.0247 110.067 83.7478 110.456 84.3965 111.688C84.7601 112.378 84.5523 113.216 84.0005 113.767L82.2759 115.492C81.3711 116.397 79.9668 116.664 78.906 115.948C77.392 114.927 76.4786 113.802 75.488 112.283C74.8942 111.372 74.8544 110.185 75.4804 109.296C77.1885 106.871 79.0768 106.022 82.8348 105.614C87.5143 105.758 93.9739 109.592 101.473 112.862C101.611 115.305 101.827 117.608 105.431 119.531C106.15 119.915 107.027 119.733 107.604 119.156L110.252 116.508C110.55 116.21 110.55 115.727 110.252 115.429V115.429C109.972 115.149 109.522 115.134 109.211 115.381C104.883 118.812 103.35 117.017 102.508 112.862C108.785 113.743 111.601 112.063 112.862 106.65H114.933L118.04 111.827ZM102.508 111.827C105.324 107.593 107.417 106.549 111.827 106.65C109.582 111.782 107.624 113.001 102.508 111.827Z" fill="url(#paint1_radial_692_1858)"/>
<path d="M118.04 114.933V111.827C116.112 115.763 116.189 118.074 110.791 119.075C111.96 121.038 112.806 121.636 114.933 121.146C115.325 125.201 115.718 127.472 118.04 131.5V125.287C116.703 121.107 116.953 118.865 118.04 114.933Z" fill="url(#paint2_radial_692_1858)"/>
<path d="M115.969 98.3662C116.06 94.792 116.696 93.3936 118.04 91.1182V105.614C115.723 100.811 114.342 99.4138 111.827 99.4015C113.365 97.8121 114.277 97.3638 115.969 98.3662Z" fill="url(#paint3_radial_692_1858)"/>
<path d="M185.366 108.06C186.69 108.487 188.157 108.504 189.362 107.809C191.499 106.575 191.937 105.154 191.555 102.508V102.508C193.199 103.056 194.016 104.953 193.045 106.388C192.081 107.812 190.985 108.974 189.452 110.246C188.161 111.316 186.509 111.855 184.833 111.812C179.638 111.679 177.044 110.851 173.953 108.72C174.974 110.641 174.917 111.76 174.09 113.6C174.018 113.76 173.822 113.822 173.671 113.731C171.996 112.73 171.075 111.892 169.811 109.756C169.863 114.032 169.094 113.977 165.669 114.933C168.559 110.86 168.026 109.221 165.881 106.254C165.083 105.151 163.953 104.331 162.673 103.866L157.501 101.985C154.744 100.982 151.73 100.942 148.947 101.869L131.905 107.55C131.771 107.435 131.636 107.326 131.5 107.223V104.508C131.5 103.403 130.605 102.508 129.5 102.508H127.288C126.183 102.508 125.288 103.403 125.288 104.508V105.614H124.252V103.472C124.252 102.368 125.148 101.472 126.252 101.472H130.536C131.64 101.472 132.536 102.368 132.536 103.472V106.65C137.305 103.748 142.547 101.584 149.353 99.7769C153.233 98.747 157.325 99.0145 161.146 100.247L185.366 108.06Z" fill="url(#paint4_radial_692_1858)"/>
<path fill-rule="evenodd" clip-rule="evenodd" d="M118.04 111.827V108.721C120.621 105.74 121.915 105.799 124.252 105.614H125.288C128.016 105.589 129.856 105.979 131.5 107.223V107.685L131.905 107.55C132.809 108.327 133.669 109.382 134.607 110.791C141.656 108.167 143.837 105.859 151.448 104.117C153.286 103.696 155.241 103.854 156.905 104.739C158.938 105.82 160.331 107.075 161.678 109.235C162.281 110.201 162.374 111.42 161.864 112.438C161.029 114.107 159.829 115.417 156.941 117.128C155.96 117.709 154.728 117.62 153.8 116.957L149.799 114.099C148.86 113.429 148.666 112.09 149.457 111.251C151.248 109.354 152.356 109.09 154.28 109.756C153.054 110.067 152.331 110.456 151.683 111.688C151.319 112.378 151.527 113.216 152.079 113.767L153.803 115.492C154.708 116.397 156.112 116.664 157.173 115.948C158.687 114.927 159.601 113.802 160.591 112.283C161.185 111.372 161.225 110.185 160.599 109.296C158.891 106.871 157.002 106.022 153.244 105.614C148.565 105.758 142.105 109.592 134.607 112.862C134.468 115.305 134.252 117.608 130.648 119.531C129.929 119.915 129.052 119.733 128.475 119.156L125.827 116.508C125.529 116.21 125.529 115.727 125.827 115.429V115.429C126.107 115.149 126.557 115.134 126.868 115.381C131.196 118.812 132.729 117.017 133.571 112.862C127.294 113.743 124.479 112.063 123.217 106.65H121.146L118.04 111.827ZM133.571 111.827C130.755 107.593 128.662 106.549 124.252 106.65C126.497 111.782 128.455 113.001 133.571 111.827Z" fill="url(#paint5_radial_692_1858)"/>
<path d="M118.04 114.933V111.827C119.967 115.763 119.89 118.074 125.288 119.075C124.119 121.038 123.273 121.636 121.146 121.146C120.755 125.201 120.362 127.472 118.04 131.5V125.287C119.376 121.107 119.126 118.865 118.04 114.933Z" fill="url(#paint6_radial_692_1858)"/>
<path d="M120.11 98.3662C120.019 94.792 119.383 93.3936 118.04 91.1182V105.614C120.356 100.811 121.737 99.4138 124.252 99.4015C122.714 97.8121 121.802 97.3638 120.11 98.3662Z" fill="url(#paint7_radial_692_1858)"/>
<path d="M81.5508 67.9531L89.1992 52.5273L91.9062 46.7266C92.6797 46.8125 93.8112 46.8555 95.3008 46.8555C95.8021 46.8555 96.3607 46.8411 96.9766 46.8125C97.6068 46.7839 98.2943 46.7409 99.0391 46.6836C99.0964 46.8268 99.0964 47.0703 99.0391 47.4141C98.9818 47.7578 98.9102 47.9297 98.8242 47.9297C98.4518 47.9297 98.0579 48.0299 97.6426 48.2305C97.2272 48.431 96.9193 48.6745 96.7188 48.9609C96.4609 49.3047 96.2676 49.7201 96.1387 50.207C96.0241 50.651 95.888 51.5104 95.7305 52.7852L94.0547 69.1992C93.8828 70.6745 93.7969 71.806 93.7969 72.5938C93.7969 73.1953 94.0189 73.5749 94.4629 73.7324C94.7207 73.8184 95.0286 73.8828 95.3867 73.9258C95.7591 73.9544 96.0599 73.9688 96.2891 73.9688C96.3464 73.9688 96.375 74.0977 96.375 74.3555C96.375 74.6992 96.2891 74.957 96.1172 75.1289C94.7852 75.0573 93.7253 75.0072 92.9375 74.9785C92.1641 74.9355 91.6628 74.9141 91.4336 74.9141C91.3906 74.9141 90.9896 74.9355 90.2305 74.9785C89.4857 75.0072 88.3828 75.0573 86.9219 75.1289C86.8646 75.0286 86.8359 74.957 86.8359 74.9141C86.8359 74.7422 86.8717 74.5417 86.9434 74.3125C87.015 74.0833 87.0794 73.9688 87.1367 73.9688C87.3945 73.9688 87.7168 73.9401 88.1035 73.8828C88.5046 73.8112 88.877 73.7181 89.2207 73.6035C89.5645 73.4746 89.7721 73.3385 89.8438 73.1953C90.1302 72.5365 90.3307 71.9277 90.4453 71.3691C90.474 71.2116 90.5169 70.8678 90.5742 70.3379C90.6315 69.8079 90.6745 69.4714 90.7031 69.3281L92.4219 52.5703C92.5078 51.7109 92.5508 51.1523 92.5508 50.8945C92.5508 50.7227 92.4648 50.6367 92.293 50.6367C92.2786 50.6367 92.2357 50.694 92.1641 50.8086L80.9492 73.668C80.806 73.9258 80.5339 74.2266 80.1328 74.5703C79.7318 74.9141 79.3594 75.0859 79.0156 75.0859C78.8867 75.0859 78.7721 75.0573 78.6719 75L75.0195 50.6367C75.0052 50.5794 74.9766 50.5508 74.9336 50.5508C74.8477 50.5508 74.8047 50.5794 74.8047 50.6367L69.7773 69.1562C69.2331 71.1328 68.9609 72.3216 68.9609 72.7227C68.9609 72.9232 69.1686 73.1237 69.584 73.3242C70.0137 73.5104 70.4648 73.668 70.9375 73.7969C71.4245 73.9115 71.7396 73.9688 71.8828 73.9688C71.9401 73.9688 71.9688 74.0547 71.9688 74.2266C71.9688 74.556 71.8971 74.8568 71.7539 75.1289C70.4219 75.0573 69.3835 75.0072 68.6387 74.9785C67.8939 74.9355 67.4427 74.9141 67.2852 74.9141C67.2422 74.9141 66.8268 74.9355 66.0391 74.9785C65.2513 75.0072 64.0911 75.0573 62.5586 75.1289C62.5013 75.0716 62.4727 74.9284 62.4727 74.6992C62.4727 74.2122 62.5729 73.9688 62.7734 73.9688C63.0026 73.9688 63.3678 73.9186 63.8691 73.8184C64.3704 73.7038 64.8431 73.5677 65.2871 73.4102C65.7454 73.2383 66.0104 73.0807 66.082 72.9375C66.5833 71.9922 67.056 70.7174 67.5 69.1133L72.1836 52.3125C72.2982 51.7539 72.4199 51.2025 72.5488 50.6582C72.6777 50.0996 72.7422 49.5625 72.7422 49.0469C72.7422 48.832 72.5417 48.6387 72.1406 48.4668C71.7396 48.2949 71.3027 48.1589 70.8301 48.0586C70.3717 47.944 70.0352 47.8867 69.8203 47.8867C69.763 47.8867 69.7344 47.7865 69.7344 47.5859C69.7344 47.1133 69.8203 46.8268 69.9922 46.7266C71.0521 46.7552 71.9186 46.7767 72.5918 46.791C73.265 46.8053 73.7448 46.8125 74.0312 46.8125C74.8477 46.8125 75.5924 46.8053 76.2656 46.791C76.9531 46.7767 77.569 46.7552 78.1133 46.7266C78.2422 47.901 78.5788 50.2643 79.123 53.8164C79.6673 57.3542 80.4193 62.0807 81.3789 67.9961C81.3789 68.0247 81.3932 68.0391 81.4219 68.0391C81.5078 68.0391 81.5508 68.0104 81.5508 67.9531ZM112.059 56.3086C113.118 56.3086 114.164 56.4948 115.195 56.8672L112.574 70.4453C112.488 70.7891 112.445 71.1471 112.445 71.5195C112.445 72.2357 112.589 72.5938 112.875 72.5938C113.233 72.5938 113.663 72.3431 114.164 71.8418C114.665 71.3262 115.095 70.8893 115.453 70.5312L115.711 70.2305C115.768 70.2305 115.876 70.3665 116.033 70.6387C116.191 70.9108 116.27 71.1042 116.27 71.2188C116.026 71.6341 115.582 72.1641 114.938 72.8086C114.307 73.4531 113.62 74.026 112.875 74.5273C112.13 75.0143 111.457 75.2578 110.855 75.2578C110.397 75.2578 110.039 75.0501 109.781 74.6348C109.523 74.2194 109.395 73.6823 109.395 73.0234C109.395 72.5794 109.495 71.8203 109.695 70.7461L109.846 69.9941C109.889 69.7936 109.91 69.6719 109.91 69.6289C109.681 70.0586 109.352 70.5885 108.922 71.2188C108.492 71.8346 107.998 72.4505 107.439 73.0664C106.881 73.6823 106.294 74.1979 105.678 74.6133C105.062 75.0143 104.453 75.2148 103.852 75.2148C102.591 75.2148 101.596 74.6491 100.865 73.5176C100.135 72.3861 99.7695 71.0182 99.7695 69.4141C99.7695 67.3659 100.378 65.3249 101.596 63.291C102.412 61.916 103.386 60.7057 104.518 59.6602C105.663 58.6146 106.888 57.7982 108.191 57.2109C109.495 56.6094 110.784 56.3086 112.059 56.3086ZM110.254 58.2852C109.409 58.2852 108.557 58.5859 107.697 59.1875C106.838 59.7747 106.05 60.5697 105.334 61.5723C104.618 62.5605 104.038 63.6634 103.594 64.8809C103.164 66.084 102.949 67.2943 102.949 68.5117C102.949 71.319 103.68 72.7227 105.141 72.7227C105.656 72.7227 106.215 72.4362 106.816 71.8633C107.418 71.2904 108.012 70.5312 108.6 69.5859C109.187 68.6406 109.702 67.6165 110.146 66.5137C110.605 65.3965 110.941 64.3008 111.156 63.2266L112.016 58.8438C111.672 58.4714 111.085 58.2852 110.254 58.2852ZM128.258 56.3086C129.948 56.3086 131.258 56.8958 132.189 58.0703C133.12 59.2448 133.586 60.8633 133.586 62.9258C133.586 64.401 133.299 65.8691 132.727 67.3301C132.154 68.7767 131.402 70.0944 130.471 71.2832C129.54 72.472 128.516 73.4245 127.398 74.1406C126.281 74.8568 125.178 75.2148 124.09 75.2148C122.371 75.2148 121.061 74.6562 120.158 73.5391C119.256 72.4219 118.805 70.832 118.805 68.7695C118.805 67.2799 119.084 65.8047 119.643 64.3438C120.215 62.8685 120.967 61.5293 121.898 60.3262C122.829 59.1087 123.846 58.1348 124.949 57.4043C126.066 56.6738 127.169 56.3086 128.258 56.3086ZM127.742 58.0703C127.026 58.0703 126.331 58.3854 125.658 59.0156C124.985 59.6315 124.376 60.4408 123.832 61.4434C123.288 62.446 122.858 63.5417 122.543 64.7305C122.228 65.9193 122.07 67.0794 122.07 68.2109C122.07 69.8724 122.335 71.1615 122.865 72.0781C123.395 72.9948 124.061 73.4531 124.863 73.4531C125.579 73.4531 126.26 73.1452 126.904 72.5293C127.563 71.8991 128.15 71.0827 128.666 70.0801C129.182 69.0632 129.583 67.9603 129.869 66.7715C130.17 65.5827 130.32 64.4154 130.32 63.2695C130.32 61.5794 130.091 60.2904 129.633 59.4023C129.174 58.5143 128.544 58.0703 127.742 58.0703ZM142.48 56.3086C142.939 56.3086 143.297 56.5163 143.555 56.9316C143.812 57.347 143.941 57.8841 143.941 58.543C143.941 59.1732 143.855 59.9323 143.684 60.8203L142.996 64.4297C143.354 63.5846 143.812 62.6966 144.371 61.7656C144.944 60.8203 145.553 59.9323 146.197 59.1016C146.842 58.2708 147.479 57.5977 148.109 57.082C148.74 56.5664 149.298 56.3086 149.785 56.3086C150.759 56.3086 151.547 56.7669 152.148 57.6836C152.148 59.6029 151.618 60.5625 150.559 60.5625C150.329 60.5625 150.057 60.3835 149.742 60.0254C149.427 59.6673 149.098 59.4883 148.754 59.4883C148.339 59.4883 147.794 59.832 147.121 60.5195C146.448 61.207 145.753 62.1094 145.037 63.2266C144.321 64.3294 143.676 65.5254 143.104 66.8145C142.531 68.0892 142.137 69.3138 141.922 70.4883L141.105 75C140.618 75.0859 140.146 75.1289 139.688 75.1289C139.143 75.1289 138.613 75.0859 138.098 75L140.676 61.7656C140.819 60.7773 140.891 60.2044 140.891 60.0469C140.891 59.3307 140.747 58.9727 140.461 58.9727C140.217 58.9727 139.852 59.2018 139.365 59.6602C139.136 59.8893 138.885 60.14 138.613 60.4121C138.355 60.6842 138.184 60.8776 138.098 60.9922C138.04 60.9922 137.933 60.8561 137.775 60.584C137.618 60.3118 137.539 60.1185 137.539 60.0039C137.768 59.6172 138.184 59.1374 138.785 58.5645C139.387 57.9772 140.031 57.4544 140.719 56.9961C141.406 56.5378 141.993 56.3086 142.48 56.3086ZM159.754 47.2422C160.184 47.2422 160.549 47.4141 160.85 47.7578C161.15 48.1016 161.301 48.5026 161.301 48.9609C161.301 49.6484 161.079 50.25 160.635 50.7656C160.191 51.2812 159.639 51.5391 158.98 51.5391C158.522 51.5391 158.164 51.36 157.906 51.002C157.648 50.6439 157.52 50.207 157.52 49.6914C157.52 49.0326 157.734 48.4596 158.164 47.9727C158.594 47.4857 159.124 47.2422 159.754 47.2422ZM158.508 56.3086C158.966 56.3086 159.324 56.5163 159.582 56.9316C159.84 57.347 159.969 57.8841 159.969 58.543C159.969 59.1302 159.883 59.8893 159.711 60.8203L157.82 70.4453C157.734 70.7891 157.691 71.1471 157.691 71.5195C157.691 72.2357 157.835 72.5938 158.121 72.5938C158.479 72.5938 158.909 72.3431 159.41 71.8418C159.911 71.3262 160.341 70.8893 160.699 70.5312L160.957 70.2305C161.014 70.2305 161.122 70.3665 161.279 70.6387C161.437 70.9108 161.516 71.1042 161.516 71.2188C161.272 71.6341 160.828 72.1641 160.184 72.8086C159.553 73.4531 158.866 74.026 158.121 74.5273C157.376 75.0143 156.703 75.2578 156.102 75.2578C155.643 75.2578 155.285 75.0501 155.027 74.6348C154.77 74.2194 154.641 73.6823 154.641 73.0234C154.641 72.5938 154.741 71.8346 154.941 70.7461L156.703 61.7656C156.846 60.9206 156.918 60.3477 156.918 60.0469C156.918 59.3307 156.775 58.9727 156.488 58.9727C156.316 58.9727 156.08 59.0872 155.779 59.3164C155.493 59.5456 155.214 59.8034 154.941 60.0898C154.669 60.362 154.469 60.5768 154.34 60.7344L154.125 60.9922C154.068 60.9922 153.96 60.8561 153.803 60.584C153.645 60.3118 153.566 60.1185 153.566 60.0039C153.796 59.6172 154.211 59.1374 154.812 58.5645C155.414 57.9772 156.059 57.4544 156.746 56.9961C157.434 56.5378 158.021 56.3086 158.508 56.3086ZM172.43 47.2422C172.859 47.2422 173.225 47.4141 173.525 47.7578C173.826 48.1016 173.977 48.5026 173.977 48.9609C173.977 49.6484 173.755 50.25 173.311 50.7656C172.867 51.2812 172.315 51.5391 171.656 51.5391C171.198 51.5391 170.84 51.36 170.582 51.002C170.324 50.6439 170.195 50.207 170.195 49.6914C170.195 49.0326 170.41 48.4596 170.84 47.9727C171.27 47.4857 171.799 47.2422 172.43 47.2422ZM171.184 56.3086C171.642 56.3086 172 56.5163 172.258 56.9316C172.516 57.347 172.645 57.8841 172.645 58.543C172.645 59.1159 172.559 59.875 172.387 60.8203L170.023 73.0664C169.422 76.1745 168.477 78.5951 167.188 80.3281C166.385 81.4167 165.411 82.3978 164.266 83.2715C163.12 84.1452 162.103 84.7539 161.215 85.0977C160.957 84.8971 160.828 84.6107 160.828 84.2383C162.26 83.4076 163.521 82.097 164.609 80.3066C165.698 78.5163 166.471 76.4323 166.93 74.0547L169.379 61.7656C169.522 60.7773 169.594 60.2044 169.594 60.0469C169.594 59.3307 169.451 58.9727 169.164 58.9727C168.921 58.9727 168.555 59.2018 168.068 59.6602C167.839 59.8893 167.589 60.14 167.316 60.4121C167.059 60.6842 166.887 60.8776 166.801 60.9922C166.743 60.9922 166.636 60.8561 166.479 60.584C166.321 60.3118 166.242 60.1185 166.242 60.0039C166.471 59.6172 166.887 59.1374 167.488 58.5645C168.09 57.9772 168.734 57.4544 169.422 56.9961C170.109 56.5378 170.697 56.3086 171.184 56.3086Z" fill="white"/>
<path d="M0 14.4961C6.30012 20.0984 15.0791 19.1979 30.687 15.1421C32.2497 14.736 33.9168 14.9601 35.3059 15.7832L61.0905 31.063L35.3304 19.6141C33.9205 18.9874 32.3183 18.9353 30.8588 19.4358C12.5496 25.7159 4.73674 24.7283 0 14.4961Z" fill="url(#paint8_radial_692_1858)"/>
<path d="M16.5669 25.8858C22.7094 27.5488 34.4861 19.1752 43.5027 24.2129C35.7991 20.3448 24.9274 34.7378 16.5669 25.8858Z" fill="url(#paint9_radial_692_1858)"/>
<path d="M42.4528 34.1693C40.4746 32.9379 39.8039 31.791 39.5364 30.2054C39.314 28.8871 40.2138 27.6374 41.514 27.3262C46.4064 26.1551 49.6595 27.3172 54.8779 31.063C50.3759 26.3362 46.8249 25.2844 39.6469 25.78C38.7972 25.8387 38.0191 26.2751 37.5081 26.9564L36.1669 28.7446C35.6047 29.4943 35.6307 30.5432 36.2784 31.2205C38.4425 33.4837 39.9798 34.1156 42.4528 34.1693Z" fill="url(#paint10_radial_692_1858)"/>
<path d="M61.0905 28.9921C48.8725 19.5072 53.131 18.6378 60.0551 10.3543C56.6285 8.93238 54.8937 8.83857 52.8071 12.4252C51.2879 8.29387 49.7783 6.42726 45.559 4.14173C43.8524 8.52031 44.6321 10.6991 46.5945 14.4961C42.9378 12.0347 40.7471 11.3823 36.2402 13.4606C46.3046 17.727 45.2926 18.8748 61.0905 28.9921Z" fill="url(#paint11_radial_692_1858)"/>
<path d="M78.6929 22.7441C78.6929 22.1918 79.1406 21.7441 79.6929 21.7441H79.7638C80.3161 21.7441 80.7638 22.1918 80.7638 22.7441V25.9213C80.7638 26.4735 80.3161 26.9213 79.7638 26.9213H74.4803C73.3757 26.9213 72.4803 26.0258 72.4803 24.9213V19.6024C72.4803 18.4978 73.3757 17.6024 74.4803 17.6024H78.7281C80.6137 17.6024 82.4755 18.023 84.178 18.8337V18.8337C85.2965 19.3663 86.1249 20.3629 86.4441 21.5599L88.3399 28.6695C89.2063 31.9182 86.6836 35.0788 83.3237 34.9544L68.0679 34.3894C64.7776 34.2675 62.2002 31.5169 62.2923 28.2256L62.6948 13.8426C62.7856 10.5955 65.4441 8.01038 68.6924 8.01038H83.0387C86.0229 8.01038 88.8896 9.21712 90.915 11.4088C101.807 23.194 109.097 33.3225 115.395 32.2299C115.685 32.1796 115.968 32.3916 115.968 32.686V32.686C115.968 32.9325 115.766 33.1318 115.519 33.1285C109.37 33.045 105.37 32.4313 87.653 13.254C86.5367 12.0456 85.0793 11.1983 83.4735 10.8414L77.8584 9.59364C77.0431 9.41248 76.199 9.4035 75.3801 9.56728L71.091 10.4251C68.2865 10.986 66.2677 13.4485 66.2677 16.3086V27.0984C66.2677 29.8599 68.5063 32.0984 71.2677 32.0984H80.9055C83.1146 32.0984 84.9055 30.3076 84.9055 28.0984V22.6378C84.9055 20.4287 83.1146 18.6378 80.9055 18.6378H76.5512C75.4466 18.6378 74.5512 19.5332 74.5512 20.6378V24.8858C74.5512 25.4381 74.9989 25.8858 75.5512 25.8858H77.6929C78.2452 25.8858 78.6929 25.4381 78.6929 24.8858V22.7441Z" fill="url(#paint12_radial_692_1858)"/>
<path d="M104.412 33.0631C96.4743 29.9513 88.3242 12.4066 78.6929 13.4606C91.6665 19.2326 92.9183 31.4785 104.412 33.0631Z" fill="url(#paint13_radial_692_1858)"/>
<path d="M111.827 30.0276C106.485 21.6827 106.361 16.9143 110.791 8.28346C105.363 9.71409 97.6256 19.5114 111.827 30.0276Z" fill="url(#paint14_radial_692_1858)"/>
<path d="M118.039 10.3543C113.102 14.0549 110.405 23.2793 118.039 32.0984C106.33 25.6888 109.793 12.7713 118.039 0V10.3543Z" fill="url(#paint15_radial_692_1858)"/>
<path d="M236.079 14.4961C229.778 20.0984 221 19.1979 205.392 15.1421C203.829 14.736 202.162 14.9601 200.773 15.7832L174.988 31.063L200.748 19.6141C202.158 18.9874 203.76 18.9353 205.22 19.4358C223.529 25.7159 231.342 24.7283 236.079 14.4961Z" fill="url(#paint16_radial_692_1858)"/>
<path d="M219.512 25.8858C213.369 27.5488 201.593 19.1752 192.576 24.2129C200.279 20.3448 211.151 34.7378 219.512 25.8858Z" fill="url(#paint17_radial_692_1858)"/>
<path d="M193.626 34.1693C195.604 32.9379 196.275 31.791 196.542 30.2054C196.765 28.8871 195.865 27.6374 194.565 27.3262C189.672 26.1551 186.419 27.3172 181.201 31.063C185.703 26.3362 189.254 25.2844 196.432 25.78C197.281 25.8387 198.06 26.2751 198.571 26.9564L199.912 28.7446C200.474 29.4943 200.448 30.5432 199.8 31.2205C197.636 33.4837 196.099 34.1156 193.626 34.1693Z" fill="url(#paint18_radial_692_1858)"/>
<path d="M174.988 28.9921C187.206 19.5072 182.948 18.6378 176.024 10.3543C179.45 8.93238 181.185 8.83857 183.272 12.4252C184.791 8.29387 186.3 6.42726 190.52 4.14173C192.226 8.52031 191.446 10.6991 189.484 14.4961C193.141 12.0347 195.331 11.3823 199.838 13.4606C189.774 17.727 190.786 18.8748 174.988 28.9921Z" fill="url(#paint19_radial_692_1858)"/>
<path d="M157.386 22.7441C157.386 22.1918 156.938 21.7441 156.386 21.7441H156.315C155.763 21.7441 155.315 22.1918 155.315 22.7441V25.9213C155.315 26.4735 155.763 26.9213 156.315 26.9213H161.598C162.703 26.9213 163.598 26.0258 163.598 24.9213V19.6024C163.598 18.4978 162.703 17.6024 161.598 17.6024H157.351C155.465 17.6024 153.603 18.023 151.901 18.8337V18.8337C150.782 19.3663 149.954 20.3629 149.635 21.5599L147.739 28.6695C146.872 31.9182 149.395 35.0788 152.755 34.9544L168.011 34.3894C171.301 34.2675 173.878 31.5169 173.786 28.2256L173.384 13.8426C173.293 10.5955 170.635 8.01038 167.386 8.01038H153.04C150.056 8.01038 147.189 9.21712 145.164 11.4088C134.272 23.194 126.982 33.3225 120.683 32.2299C120.393 32.1796 120.11 32.3916 120.11 32.686V32.686C120.11 32.9325 120.313 33.1318 120.559 33.1285C126.708 33.045 130.709 32.4313 148.426 13.254C149.542 12.0456 150.999 11.1983 152.605 10.8414L158.22 9.59364C159.035 9.41248 159.88 9.4035 160.698 9.56728L164.988 10.4251C167.792 10.986 169.811 13.4485 169.811 16.3086V27.0984C169.811 29.8599 167.572 32.0984 164.811 32.0984H155.173C152.964 32.0984 151.173 30.3076 151.173 28.0984V22.6378C151.173 20.4287 152.964 18.6378 155.173 18.6378H159.527C160.632 18.6378 161.527 19.5332 161.527 20.6378V24.8858C161.527 25.4381 161.08 25.8858 160.527 25.8858H158.386C157.833 25.8858 157.386 25.4381 157.386 24.8858V22.7441Z" fill="url(#paint20_radial_692_1858)"/>
<path d="M131.666 33.0631C139.604 29.9513 147.754 12.4066 157.386 13.4606C144.412 19.2326 143.16 31.4785 131.666 33.0631Z" fill="url(#paint21_radial_692_1858)"/>
<path d="M124.252 30.0276C129.594 21.6827 129.718 16.9143 125.287 8.28346C130.716 9.71409 138.453 19.5114 124.252 30.0276Z" fill="url(#paint22_radial_692_1858)"/>
<path d="M118.039 10.3543C122.976 14.0549 125.673 23.2793 118.039 32.0984C129.749 25.6888 126.286 12.7713 118.039 0V10.3543Z" fill="url(#paint23_radial_692_1858)"/>
<defs>
<radialGradient id="paint0_radial_692_1858" cx="0" cy="0" r="1" gradientUnits="userSpaceOnUse" gradientTransform="translate(79.7285 111.309) scale(38.311 20.1909)">
<stop stop-color="#E1E1E1"/>
<stop offset="1" stop-color="#FFF4DA"/>
</radialGradient>
<radialGradient id="paint1_radial_692_1858" cx="0" cy="0" r="1" gradientUnits="userSpaceOnUse" gradientTransform="translate(79.7285 111.309) scale(38.311 20.1909)">
<stop stop-color="#E1E1E1"/>
<stop offset="1" stop-color="#FFF4DA"/>
</radialGradient>
<radialGradient id="paint2_radial_692_1858" cx="0" cy="0" r="1" gradientUnits="userSpaceOnUse" gradientTransform="translate(79.7285 111.309) scale(38.311 20.1909)">
<stop stop-color="#E1E1E1"/>
<stop offset="1" stop-color="#FFF4DA"/>
</radialGradient>
<radialGradient id="paint3_radial_692_1858" cx="0" cy="0" r="1" gradientUnits="userSpaceOnUse" gradientTransform="translate(79.7285 111.309) scale(38.311 20.1909)">
<stop stop-color="#E1E1E1"/>
<stop offset="1" stop-color="#FFF4DA"/>
</radialGradient>
<radialGradient id="paint4_radial_692_1858" cx="0" cy="0" r="1" gradientUnits="userSpaceOnUse" gradientTransform="translate(156.351 111.309) rotate(180) scale(38.311 20.1909)">
<stop stop-color="#E1E1E1"/>
<stop offset="1" stop-color="#FFF4DA"/>
</radialGradient>
<radialGradient id="paint5_radial_692_1858" cx="0" cy="0" r="1" gradientUnits="userSpaceOnUse" gradientTransform="translate(156.351 111.309) rotate(180) scale(38.311 20.1909)">
<stop stop-color="#E1E1E1"/>
<stop offset="1" stop-color="#FFF4DA"/>
</radialGradient>
<radialGradient id="paint6_radial_692_1858" cx="0" cy="0" r="1" gradientUnits="userSpaceOnUse" gradientTransform="translate(156.351 111.309) rotate(180) scale(38.311 20.1909)">
<stop stop-color="#E1E1E1"/>
<stop offset="1" stop-color="#FFF4DA"/>
</radialGradient>
<radialGradient id="paint7_radial_692_1858" cx="0" cy="0" r="1" gradientUnits="userSpaceOnUse" gradientTransform="translate(156.351 111.309) rotate(180) scale(38.311 20.1909)">
<stop stop-color="#E1E1E1"/>
<stop offset="1" stop-color="#FFF4DA"/>
</radialGradient>
<radialGradient id="paint8_radial_692_1858" cx="0" cy="0" r="1" gradientUnits="userSpaceOnUse" gradientTransform="translate(59.0197 17.6024) scale(59.0197 17.6024)">
<stop stop-color="#E1E1E1"/>
<stop offset="1" stop-color="#FFF4DA"/>
</radialGradient>
<radialGradient id="paint9_radial_692_1858" cx="0" cy="0" r="1" gradientUnits="userSpaceOnUse" gradientTransform="translate(59.0197 17.6024) scale(59.0197 17.6024)">
<stop stop-color="#E1E1E1"/>
<stop offset="1" stop-color="#FFF4DA"/>
</radialGradient>
<radialGradient id="paint10_radial_692_1858" cx="0" cy="0" r="1" gradientUnits="userSpaceOnUse" gradientTransform="translate(59.0197 17.6024) scale(59.0197 17.6024)">
<stop stop-color="#E1E1E1"/>
<stop offset="1" stop-color="#FFF4DA"/>
</radialGradient>
<radialGradient id="paint11_radial_692_1858" cx="0" cy="0" r="1" gradientUnits="userSpaceOnUse" gradientTransform="translate(59.0197 17.6024) scale(59.0197 17.6024)">
<stop stop-color="#E1E1E1"/>
<stop offset="1" stop-color="#FFF4DA"/>
</radialGradient>
<radialGradient id="paint12_radial_692_1858" cx="0" cy="0" r="1" gradientUnits="userSpaceOnUse" gradientTransform="translate(59.0197 17.6024) scale(59.0197 17.6024)">
<stop stop-color="#E1E1E1"/>
<stop offset="1" stop-color="#FFF4DA"/>
</radialGradient>
<radialGradient id="paint13_radial_692_1858" cx="0" cy="0" r="1" gradientUnits="userSpaceOnUse" gradientTransform="translate(59.0197 17.6024) scale(59.0197 17.6024)">
<stop stop-color="#E1E1E1"/>
<stop offset="1" stop-color="#FFF4DA"/>
</radialGradient>
<radialGradient id="paint14_radial_692_1858" cx="0" cy="0" r="1" gradientUnits="userSpaceOnUse" gradientTransform="translate(59.0197 17.6024) scale(59.0197 17.6024)">
<stop stop-color="#E1E1E1"/>
<stop offset="1" stop-color="#FFF4DA"/>
</radialGradient>
<radialGradient id="paint15_radial_692_1858" cx="0" cy="0" r="1" gradientUnits="userSpaceOnUse" gradientTransform="translate(59.0197 17.6024) scale(59.0197 17.6024)">
<stop stop-color="#E1E1E1"/>
<stop offset="1" stop-color="#FFF4DA"/>
</radialGradient>
<radialGradient id="paint16_radial_692_1858" cx="0" cy="0" r="1" gradientUnits="userSpaceOnUse" gradientTransform="translate(177.059 17.6024) rotate(180) scale(59.0197 17.6024)">
<stop stop-color="#E1E1E1"/>
<stop offset="1" stop-color="#FFF4DA"/>
</radialGradient>
<radialGradient id="paint17_radial_692_1858" cx="0" cy="0" r="1" gradientUnits="userSpaceOnUse" gradientTransform="translate(177.059 17.6024) rotate(180) scale(59.0197 17.6024)">
<stop stop-color="#E1E1E1"/>
<stop offset="1" stop-color="#FFF4DA"/>
</radialGradient>
<radialGradient id="paint18_radial_692_1858" cx="0" cy="0" r="1" gradientUnits="userSpaceOnUse" gradientTransform="translate(177.059 17.6024) rotate(180) scale(59.0197 17.6024)">
<stop stop-color="#E1E1E1"/>
<stop offset="1" stop-color="#FFF4DA"/>
</radialGradient>
<radialGradient id="paint19_radial_692_1858" cx="0" cy="0" r="1" gradientUnits="userSpaceOnUse" gradientTransform="translate(177.059 17.6024) rotate(180) scale(59.0197 17.6024)">
<stop stop-color="#E1E1E1"/>
<stop offset="1" stop-color="#FFF4DA"/>
</radialGradient>
<radialGradient id="paint20_radial_692_1858" cx="0" cy="0" r="1" gradientUnits="userSpaceOnUse" gradientTransform="translate(177.059 17.6024) rotate(180) scale(59.0197 17.6024)">
<stop stop-color="#E1E1E1"/>
<stop offset="1" stop-color="#FFF4DA"/>
</radialGradient>
<radialGradient id="paint21_radial_692_1858" cx="0" cy="0" r="1" gradientUnits="userSpaceOnUse" gradientTransform="translate(177.059 17.6024) rotate(180) scale(59.0197 17.6024)">
<stop stop-color="#E1E1E1"/>
<stop offset="1" stop-color="#FFF4DA"/>
</radialGradient>
<radialGradient id="paint22_radial_692_1858" cx="0" cy="0" r="1" gradientUnits="userSpaceOnUse" gradientTransform="translate(177.059 17.6024) rotate(180) scale(59.0197 17.6024)">
<stop stop-color="#E1E1E1"/>
<stop offset="1" stop-color="#FFF4DA"/>
</radialGradient>
<radialGradient id="paint23_radial_692_1858" cx="0" cy="0" r="1" gradientUnits="userSpaceOnUse" gradientTransform="translate(177.059 17.6024) rotate(180) scale(59.0197 17.6024)">
<stop stop-color="#E1E1E1"/>
<stop offset="1" stop-color="#FFF4DA"/>
</radialGradient>
</defs>
</svg>
