<svg width="237" height="132" viewBox="0 0 237 132" fill="none" xmlns="http://www.w3.org/2000/svg">
<path d="M50.7125 108.06C49.3889 108.487 47.9214 108.504 46.7169 107.809C44.5794 106.575 44.1412 105.154 44.5234 102.508V102.508C42.8798 103.056 42.063 104.953 43.0339 106.388C43.9977 107.812 45.0937 108.974 46.6267 110.246C47.9171 111.316 49.5696 111.855 51.2458 111.812C56.4406 111.679 59.0349 110.851 62.1257 108.72C61.1051 110.641 61.1618 111.76 61.9885 113.6C62.0605 113.76 62.2568 113.822 62.4077 113.731C64.0825 112.73 65.0039 111.892 66.2674 109.756C66.2154 114.032 66.9843 113.977 70.4091 114.933C67.5194 110.86 68.0525 109.221 70.1981 106.254C70.9958 105.151 72.1259 104.331 73.4053 103.866L78.5776 101.985C81.3342 100.982 84.3487 100.942 87.1313 101.869L104.173 107.55C104.307 107.435 104.442 107.326 104.578 107.223V104.508C104.578 103.403 105.474 102.508 106.578 102.508H108.791C109.896 102.508 110.791 103.403 110.791 104.508V105.614H111.826V103.472C111.826 102.368 110.931 101.472 109.826 101.472H105.543C104.438 101.472 103.543 102.368 103.543 103.472V106.65C98.7736 103.748 93.5321 101.584 86.7257 99.7769C82.8456 98.747 78.7534 99.0145 74.9328 100.247L50.7125 108.06Z" fill="url(#paint0_radial_692_1834)"/>
<path fill-rule="evenodd" clip-rule="evenodd" d="M118.039 111.827V108.721C115.458 105.74 114.163 105.799 111.826 105.614H110.791C108.063 105.589 106.222 105.979 104.578 107.223V107.685L104.173 107.55C103.27 108.327 102.409 109.382 101.472 110.791C94.4225 108.167 92.2419 105.859 84.6304 104.117C82.7927 103.696 80.8379 103.854 79.1733 104.739C77.1406 105.82 75.7478 107.075 74.4004 109.235C73.7976 110.201 73.7049 111.42 74.2146 112.438C75.0495 114.107 76.2498 115.417 79.1376 117.128C80.1186 117.709 81.3505 117.62 82.2784 116.957L86.28 114.099C87.2184 113.429 87.4128 112.09 86.6211 111.251C84.8302 109.354 83.7227 109.09 81.7989 109.756C83.0242 110.067 83.7473 110.456 84.396 111.688C84.7596 112.378 84.5518 113.216 84 113.767L82.2754 115.492C81.3706 116.397 79.9663 116.664 78.9055 115.948C77.3915 114.927 76.4781 113.802 75.4876 112.283C74.8937 111.372 74.8539 110.185 75.48 109.296C77.188 106.871 79.0763 106.022 82.8343 105.614C87.5138 105.758 93.9734 109.592 101.472 112.862C101.61 115.305 101.827 117.608 105.43 119.531C106.15 119.915 107.027 119.733 107.604 119.156L110.252 116.508C110.55 116.21 110.55 115.727 110.252 115.429V115.429C109.971 115.149 109.521 115.134 109.21 115.381C104.882 118.812 103.349 117.017 102.508 112.862C108.784 113.743 111.6 112.063 112.862 106.65H114.933L118.039 111.827ZM102.508 111.827C105.324 107.593 107.416 106.549 111.826 106.65C109.581 111.782 107.623 113.001 102.508 111.827Z" fill="url(#paint1_radial_692_1834)"/>
<path d="M118.039 114.933V111.827C116.112 115.763 116.189 118.074 110.791 119.075C111.96 121.038 112.806 121.636 114.933 121.146C115.324 125.201 115.717 127.472 118.039 131.5V125.287C116.703 121.107 116.952 118.865 118.039 114.933Z" fill="url(#paint2_radial_692_1834)"/>
<path d="M115.968 98.3662C116.06 94.792 116.696 93.3936 118.039 91.1182V105.614C115.722 100.811 114.342 99.4138 111.826 99.4015C113.364 97.8121 114.276 97.3638 115.968 98.3662Z" fill="url(#paint3_radial_692_1834)"/>
<path d="M185.366 108.06C186.689 108.487 188.157 108.504 189.361 107.809C191.499 106.575 191.937 105.154 191.555 102.508V102.508C193.198 103.056 194.015 104.953 193.044 106.388C192.08 107.812 190.984 108.974 189.451 110.246C188.161 111.316 186.509 111.855 184.832 111.812C179.637 111.679 177.043 110.851 173.952 108.72C174.973 110.641 174.916 111.76 174.09 113.6C174.018 113.76 173.821 113.822 173.67 113.731C171.996 112.73 171.074 111.892 169.811 109.756C169.863 114.032 169.094 113.977 165.669 114.933C168.559 110.86 168.026 109.221 165.88 106.254C165.082 105.151 163.952 104.331 162.673 103.866L157.5 101.985C154.744 100.982 151.729 100.942 148.947 101.869L131.905 107.55C131.771 107.435 131.636 107.326 131.5 107.223V104.508C131.5 103.403 130.604 102.508 129.5 102.508H127.287C126.183 102.508 125.287 103.403 125.287 104.508V105.614H124.252V103.472C124.252 102.368 125.147 101.472 126.252 101.472H130.535C131.64 101.472 132.535 102.368 132.535 103.472V106.65C137.304 103.748 142.546 101.584 149.352 99.7769C153.232 98.747 157.325 99.0145 161.145 100.247L185.366 108.06Z" fill="url(#paint4_radial_692_1834)"/>
<path fill-rule="evenodd" clip-rule="evenodd" d="M118.039 111.827V108.721C120.62 105.74 121.915 105.799 124.252 105.614H125.287C128.015 105.589 129.856 105.979 131.5 107.223V107.685L131.905 107.55C132.808 108.327 133.669 109.382 134.606 110.791C141.656 108.167 143.836 105.859 151.448 104.117C153.285 103.696 155.24 103.854 156.905 104.739C158.938 105.82 160.33 107.075 161.678 109.235C162.281 110.201 162.373 111.42 161.863 112.438C161.029 114.107 159.828 115.417 156.941 117.128C155.96 117.709 154.728 117.62 153.8 116.957L149.798 114.099C148.86 113.429 148.665 112.09 149.457 111.251C151.248 109.354 152.355 109.09 154.279 109.756C153.054 110.067 152.331 110.456 151.682 111.688C151.319 112.378 151.526 113.216 152.078 113.767L153.803 115.492C154.708 116.397 156.112 116.664 157.173 115.948C158.687 114.927 159.6 113.802 160.591 112.283C161.184 111.372 161.224 110.185 160.598 109.296C158.89 106.871 157.002 106.022 153.244 105.614C148.564 105.758 142.105 109.592 134.606 112.862C134.468 115.305 134.251 117.608 130.648 119.531C129.928 119.915 129.051 119.733 128.474 119.156L125.826 116.508C125.528 116.21 125.528 115.727 125.826 115.429V115.429C126.107 115.149 126.557 115.134 126.868 115.381C131.196 118.812 132.729 117.017 133.571 112.862C127.294 113.743 124.478 112.063 123.216 106.65H121.145L118.039 111.827ZM133.571 111.827C130.754 107.593 128.662 106.549 124.252 106.65C126.497 111.782 128.455 113.001 133.571 111.827Z" fill="url(#paint5_radial_692_1834)"/>
<path d="M118.039 114.933V111.827C119.967 115.763 119.889 118.074 125.287 119.075C124.119 121.038 123.273 121.636 121.145 121.146C120.754 125.201 120.361 127.472 118.039 131.5V125.287C119.375 121.107 119.126 118.865 118.039 114.933Z" fill="url(#paint6_radial_692_1834)"/>
<path d="M120.11 98.3662C120.019 94.792 119.382 93.3936 118.039 91.1182V105.614C120.356 100.811 121.736 99.4138 124.252 99.4015C122.714 97.8121 121.802 97.3638 120.11 98.3662Z" fill="url(#paint7_radial_692_1834)"/>
<path d="M94.5508 67.9531L102.199 52.5273L104.906 46.7266C105.68 46.8125 106.811 46.8555 108.301 46.8555C108.802 46.8555 109.361 46.8411 109.977 46.8125C110.607 46.7839 111.294 46.7409 112.039 46.6836C112.096 46.8268 112.096 47.0703 112.039 47.4141C111.982 47.7578 111.91 47.9297 111.824 47.9297C111.452 47.9297 111.058 48.0299 110.643 48.2305C110.227 48.431 109.919 48.6745 109.719 48.9609C109.461 49.3047 109.268 49.7201 109.139 50.207C109.024 50.651 108.888 51.5104 108.73 52.7852L107.055 69.1992C106.883 70.6745 106.797 71.806 106.797 72.5938C106.797 73.1953 107.019 73.5749 107.463 73.7324C107.721 73.8184 108.029 73.8828 108.387 73.9258C108.759 73.9544 109.06 73.9688 109.289 73.9688C109.346 73.9688 109.375 74.0977 109.375 74.3555C109.375 74.6992 109.289 74.957 109.117 75.1289C107.785 75.0573 106.725 75.0072 105.938 74.9785C105.164 74.9355 104.663 74.9141 104.434 74.9141C104.391 74.9141 103.99 74.9355 103.23 74.9785C102.486 75.0072 101.383 75.0573 99.9219 75.1289C99.8646 75.0286 99.8359 74.957 99.8359 74.9141C99.8359 74.7422 99.8717 74.5417 99.9434 74.3125C100.015 74.0833 100.079 73.9688 100.137 73.9688C100.395 73.9688 100.717 73.9401 101.104 73.8828C101.505 73.8112 101.877 73.7181 102.221 73.6035C102.564 73.4746 102.772 73.3385 102.844 73.1953C103.13 72.5365 103.331 71.9277 103.445 71.3691C103.474 71.2116 103.517 70.8678 103.574 70.3379C103.632 69.8079 103.674 69.4714 103.703 69.3281L105.422 52.5703C105.508 51.7109 105.551 51.1523 105.551 50.8945C105.551 50.7227 105.465 50.6367 105.293 50.6367C105.279 50.6367 105.236 50.694 105.164 50.8086L93.9492 73.668C93.806 73.9258 93.5339 74.2266 93.1328 74.5703C92.7318 74.9141 92.3594 75.0859 92.0156 75.0859C91.8867 75.0859 91.7721 75.0573 91.6719 75L88.0195 50.6367C88.0052 50.5794 87.9766 50.5508 87.9336 50.5508C87.8477 50.5508 87.8047 50.5794 87.8047 50.6367L82.7773 69.1562C82.2331 71.1328 81.9609 72.3216 81.9609 72.7227C81.9609 72.9232 82.1686 73.1237 82.584 73.3242C83.0137 73.5104 83.4648 73.668 83.9375 73.7969C84.4245 73.9115 84.7396 73.9688 84.8828 73.9688C84.9401 73.9688 84.9688 74.0547 84.9688 74.2266C84.9688 74.556 84.8971 74.8568 84.7539 75.1289C83.4219 75.0573 82.3835 75.0072 81.6387 74.9785C80.8939 74.9355 80.4427 74.9141 80.2852 74.9141C80.2422 74.9141 79.8268 74.9355 79.0391 74.9785C78.2513 75.0072 77.0911 75.0573 75.5586 75.1289C75.5013 75.0716 75.4727 74.9284 75.4727 74.6992C75.4727 74.2122 75.5729 73.9688 75.7734 73.9688C76.0026 73.9688 76.3678 73.9186 76.8691 73.8184C77.3704 73.7038 77.8431 73.5677 78.2871 73.4102C78.7454 73.2383 79.0104 73.0807 79.082 72.9375C79.5833 71.9922 80.056 70.7174 80.5 69.1133L85.1836 52.3125C85.2982 51.7539 85.4199 51.2025 85.5488 50.6582C85.6777 50.0996 85.7422 49.5625 85.7422 49.0469C85.7422 48.832 85.5417 48.6387 85.1406 48.4668C84.7396 48.2949 84.3027 48.1589 83.8301 48.0586C83.3717 47.944 83.0352 47.8867 82.8203 47.8867C82.763 47.8867 82.7344 47.7865 82.7344 47.5859C82.7344 47.1133 82.8203 46.8268 82.9922 46.7266C84.0521 46.7552 84.9186 46.7767 85.5918 46.791C86.265 46.8053 86.7448 46.8125 87.0312 46.8125C87.8477 46.8125 88.5924 46.8053 89.2656 46.791C89.9531 46.7767 90.569 46.7552 91.1133 46.7266C91.2422 47.901 91.5788 50.2643 92.123 53.8164C92.6673 57.3542 93.4193 62.0807 94.3789 67.9961C94.3789 68.0247 94.3932 68.0391 94.4219 68.0391C94.5078 68.0391 94.5508 68.0104 94.5508 67.9531ZM118.141 56.3086C118.599 56.3086 118.957 56.5163 119.215 56.9316C119.473 57.347 119.602 57.8841 119.602 58.543C119.602 59.3021 119.516 60.0612 119.344 60.8203L117.84 67.9102C117.639 68.7839 117.539 69.5573 117.539 70.2305C117.539 71.4622 117.811 72.0781 118.355 72.0781C118.671 72.0781 119.057 71.8991 119.516 71.541C119.988 71.1829 120.475 70.7246 120.977 70.166C121.492 69.6074 121.972 69.0345 122.416 68.4473C123.232 67.373 124.006 66.0625 124.736 64.5156C125.467 62.9688 125.975 61.4362 126.262 59.918L126.992 56.5664C127.379 56.4518 127.823 56.3945 128.324 56.3945C128.811 56.3945 129.298 56.4518 129.785 56.5664L127.121 70.4453C127.035 70.7891 126.992 71.1471 126.992 71.5195C126.992 72.2357 127.135 72.5938 127.422 72.5938C127.78 72.5938 128.21 72.3431 128.711 71.8418C129.212 71.3262 129.642 70.8893 130 70.5312L130.258 70.2305C130.315 70.2305 130.423 70.3665 130.58 70.6387C130.738 70.9108 130.816 71.1042 130.816 71.2188C130.573 71.6341 130.129 72.1641 129.484 72.8086C128.854 73.4531 128.167 74.026 127.422 74.5273C126.677 75.0143 126.004 75.2578 125.402 75.2578C124.944 75.2578 124.586 75.0501 124.328 74.6348C124.07 74.2194 123.941 73.6823 123.941 73.0234C123.941 72.5938 124.042 71.8346 124.242 70.7461L125.016 66.793C124.743 67.3086 124.156 68.1966 123.254 69.457C122.667 70.2734 121.958 71.1328 121.127 72.0352C120.311 72.9375 119.494 73.7038 118.678 74.334C117.861 74.9499 117.167 75.2578 116.594 75.2578C115.161 75.2578 114.445 74.3125 114.445 72.4219C114.445 71.0755 114.646 69.5143 115.047 67.7383L116.336 61.7656C116.479 60.7773 116.551 60.2044 116.551 60.0469C116.551 59.3307 116.408 58.9727 116.121 58.9727C115.878 58.9727 115.512 59.2018 115.025 59.6602C114.796 59.8893 114.546 60.14 114.273 60.4121C114.016 60.6842 113.844 60.8776 113.758 60.9922C113.701 60.9922 113.593 60.8561 113.436 60.584C113.278 60.3118 113.199 60.1185 113.199 60.0039C113.428 59.6172 113.844 59.1374 114.445 58.5645C115.047 57.9772 115.691 57.4544 116.379 56.9961C117.066 56.5378 117.654 56.3086 118.141 56.3086ZM134.254 70.7461L138.293 49.9062C138.379 49.4766 138.422 49.0755 138.422 48.7031C138.422 48.1589 137.548 47.8867 135.801 47.8867C135.715 47.8867 135.672 47.8008 135.672 47.6289C135.672 47.2852 135.786 46.9987 136.016 46.7695C137.935 46.5977 139.768 46.1966 141.516 45.5664C141.688 45.6523 141.773 45.9245 141.773 46.3828C141.773 46.6979 141.587 47.7721 141.215 49.6055L137.133 70.4453C137.047 70.7891 137.004 71.1471 137.004 71.5195C137.004 72.2357 137.147 72.5938 137.434 72.5938C137.605 72.5938 137.813 72.515 138.057 72.3574C138.3 72.1999 138.551 72.0065 138.809 71.7773C139.066 71.5482 139.36 71.2546 139.689 70.8965C140.019 70.5241 140.212 70.3021 140.27 70.2305C140.355 70.2305 140.47 70.3665 140.613 70.6387C140.757 70.9108 140.828 71.1042 140.828 71.2188C140.585 71.6341 140.141 72.1641 139.496 72.8086C138.866 73.4531 138.178 74.026 137.434 74.5273C136.689 75.0143 136.016 75.2578 135.414 75.2578C134.984 75.2578 134.633 75.0501 134.361 74.6348C134.089 74.2194 133.953 73.6823 133.953 73.0234C133.953 72.5794 134.053 71.8203 134.254 70.7461ZM157.414 56.3086C158.273 56.3086 159.025 56.5879 159.67 57.1465C160.314 57.7051 160.637 58.3997 160.637 59.2305C160.637 61.0924 159.813 62.625 158.166 63.8281C156.519 65.0312 154.406 65.8477 151.828 66.2773C153.533 68.8411 154.843 70.5456 155.76 71.3906C156.648 72.2214 157.414 72.6367 158.059 72.6367C158.574 72.6367 159.068 72.4219 159.541 71.9922C160.014 71.5625 160.365 71.1471 160.594 70.7461C160.68 70.7461 160.816 70.8607 161.002 71.0898C161.188 71.319 161.281 71.4909 161.281 71.6055C161.195 71.9206 160.916 72.3646 160.443 72.9375C159.985 73.5104 159.448 74.026 158.832 74.4844C158.216 74.9427 157.629 75.1719 157.07 75.1719C156.34 75.1719 155.588 74.9212 154.814 74.4199C154.055 73.9043 153.425 73.3242 152.924 72.6797C152.738 72.4505 152.573 72.25 152.43 72.0781C152.286 71.8919 152.158 71.7272 152.043 71.584C151.828 71.3262 151.535 70.9036 151.162 70.3164L150.41 69.1133C150.181 68.7409 149.945 68.3327 149.701 67.8887C149.458 67.4303 149.236 67.0651 149.035 66.793L147.445 75C146.958 75.1432 146.486 75.2148 146.027 75.2148C145.641 75.2148 145.168 75.1432 144.609 75L149.293 50.9805C149.551 49.7917 149.68 49.0326 149.68 48.7031C149.68 48.1589 148.806 47.8867 147.059 47.8867C146.973 47.8867 146.93 47.8008 146.93 47.6289C146.93 47.2852 147.044 46.9987 147.273 46.7695C149.121 46.5977 150.926 46.1966 152.688 45.5664C152.859 45.6523 152.945 45.9245 152.945 46.3828C152.945 46.6979 152.759 47.7721 152.387 49.6055L150.152 61.1641L150.625 60.6055C151.069 60.0755 151.642 59.4811 152.344 58.8223C153.046 58.1491 153.833 57.5618 154.707 57.0605C155.581 56.5592 156.483 56.3086 157.414 56.3086ZM155.867 58.3281C155.409 58.3281 154.836 58.6146 154.148 59.1875C153.461 59.7461 152.781 60.4193 152.107 61.207C151.434 61.9948 150.868 62.7539 150.41 63.4844C149.952 64.2005 149.723 64.7161 149.723 65.0312C149.723 65.0885 149.751 65.1172 149.809 65.1172C149.866 65.1172 149.93 65.1172 150.002 65.1172C150.074 65.1029 150.16 65.0885 150.26 65.0742C150.446 65.0456 150.804 64.9811 151.334 64.8809C151.864 64.7806 152.38 64.6589 152.881 64.5156C153.611 64.3008 154.335 64 155.051 63.6133C155.781 63.2266 156.383 62.7467 156.855 62.1738C157.342 61.6009 157.586 60.9349 157.586 60.1758C157.586 58.944 157.013 58.3281 155.867 58.3281Z" fill="white"/>
<path d="M0 14.4961C6.30012 20.0984 15.0791 19.1979 30.687 15.1421C32.2497 14.736 33.9168 14.9601 35.3059 15.7832L61.0905 31.063L35.3304 19.6141C33.9205 18.9874 32.3183 18.9353 30.8588 19.4358C12.5496 25.7159 4.73674 24.7283 0 14.4961Z" fill="url(#paint8_radial_692_1834)"/>
<path d="M16.5669 25.8858C22.7094 27.5488 34.4861 19.1752 43.5027 24.2129C35.7991 20.3448 24.9274 34.7378 16.5669 25.8858Z" fill="url(#paint9_radial_692_1834)"/>
<path d="M42.4528 34.1693C40.4746 32.9379 39.8039 31.791 39.5364 30.2054C39.314 28.8871 40.2138 27.6374 41.514 27.3262C46.4064 26.1551 49.6595 27.3172 54.8779 31.063C50.3759 26.3362 46.8249 25.2844 39.6469 25.78C38.7972 25.8387 38.0191 26.2751 37.5081 26.9564L36.1669 28.7446C35.6047 29.4943 35.6307 30.5432 36.2784 31.2205C38.4425 33.4837 39.9798 34.1156 42.4528 34.1693Z" fill="url(#paint10_radial_692_1834)"/>
<path d="M61.0905 28.9921C48.8725 19.5072 53.131 18.6378 60.0551 10.3543C56.6285 8.93238 54.8937 8.83857 52.8071 12.4252C51.2879 8.29387 49.7783 6.42726 45.559 4.14173C43.8524 8.52031 44.6321 10.6991 46.5945 14.4961C42.9378 12.0347 40.7471 11.3823 36.2402 13.4606C46.3046 17.727 45.2926 18.8748 61.0905 28.9921Z" fill="url(#paint11_radial_692_1834)"/>
<path d="M78.6929 22.7441C78.6929 22.1918 79.1406 21.7441 79.6929 21.7441H79.7638C80.3161 21.7441 80.7638 22.1918 80.7638 22.7441V25.9213C80.7638 26.4735 80.3161 26.9213 79.7638 26.9213H74.4803C73.3757 26.9213 72.4803 26.0258 72.4803 24.9213V19.6024C72.4803 18.4978 73.3757 17.6024 74.4803 17.6024H78.7281C80.6137 17.6024 82.4755 18.023 84.178 18.8337V18.8337C85.2965 19.3663 86.1249 20.3629 86.4441 21.5599L88.3399 28.6695C89.2063 31.9182 86.6836 35.0788 83.3237 34.9544L68.0679 34.3894C64.7776 34.2675 62.2002 31.5169 62.2923 28.2256L62.6948 13.8426C62.7856 10.5955 65.4441 8.01038 68.6924 8.01038H83.0387C86.0229 8.01038 88.8896 9.21712 90.915 11.4088C101.807 23.194 109.097 33.3225 115.395 32.2299C115.685 32.1796 115.968 32.3916 115.968 32.686V32.686C115.968 32.9325 115.766 33.1318 115.519 33.1285C109.37 33.045 105.37 32.4313 87.653 13.254C86.5367 12.0456 85.0793 11.1983 83.4735 10.8414L77.8584 9.59364C77.0431 9.41248 76.199 9.4035 75.3801 9.56728L71.091 10.4251C68.2865 10.986 66.2677 13.4485 66.2677 16.3086V27.0984C66.2677 29.8599 68.5063 32.0984 71.2677 32.0984H80.9055C83.1146 32.0984 84.9055 30.3076 84.9055 28.0984V22.6378C84.9055 20.4287 83.1146 18.6378 80.9055 18.6378H76.5512C75.4466 18.6378 74.5512 19.5332 74.5512 20.6378V24.8858C74.5512 25.4381 74.9989 25.8858 75.5512 25.8858H77.6929C78.2452 25.8858 78.6929 25.4381 78.6929 24.8858V22.7441Z" fill="url(#paint12_radial_692_1834)"/>
<path d="M104.412 33.0631C96.4743 29.9513 88.3242 12.4066 78.6929 13.4606C91.6665 19.2326 92.9183 31.4785 104.412 33.0631Z" fill="url(#paint13_radial_692_1834)"/>
<path d="M111.827 30.0276C106.485 21.6827 106.361 16.9143 110.791 8.28346C105.363 9.71409 97.6256 19.5114 111.827 30.0276Z" fill="url(#paint14_radial_692_1834)"/>
<path d="M118.039 10.3543C113.102 14.0549 110.405 23.2793 118.039 32.0984C106.33 25.6888 109.793 12.7713 118.039 0V10.3543Z" fill="url(#paint15_radial_692_1834)"/>
<path d="M236.079 14.4961C229.778 20.0984 221 19.1979 205.392 15.1421C203.829 14.736 202.162 14.9601 200.773 15.7832L174.988 31.063L200.748 19.6141C202.158 18.9874 203.76 18.9353 205.22 19.4358C223.529 25.7159 231.342 24.7283 236.079 14.4961Z" fill="url(#paint16_radial_692_1834)"/>
<path d="M219.512 25.8858C213.369 27.5488 201.593 19.1752 192.576 24.2129C200.279 20.3448 211.151 34.7378 219.512 25.8858Z" fill="url(#paint17_radial_692_1834)"/>
<path d="M193.626 34.1693C195.604 32.9379 196.275 31.791 196.542 30.2054C196.765 28.8871 195.865 27.6374 194.565 27.3262C189.672 26.1551 186.419 27.3172 181.201 31.063C185.703 26.3362 189.254 25.2844 196.432 25.78C197.281 25.8387 198.06 26.2751 198.571 26.9564L199.912 28.7446C200.474 29.4943 200.448 30.5432 199.8 31.2205C197.636 33.4837 196.099 34.1156 193.626 34.1693Z" fill="url(#paint18_radial_692_1834)"/>
<path d="M174.988 28.9921C187.206 19.5072 182.948 18.6378 176.024 10.3543C179.45 8.93238 181.185 8.83857 183.272 12.4252C184.791 8.29387 186.3 6.42726 190.52 4.14173C192.226 8.52031 191.446 10.6991 189.484 14.4961C193.141 12.0347 195.331 11.3823 199.838 13.4606C189.774 17.727 190.786 18.8748 174.988 28.9921Z" fill="url(#paint19_radial_692_1834)"/>
<path d="M157.386 22.7441C157.386 22.1918 156.938 21.7441 156.386 21.7441H156.315C155.763 21.7441 155.315 22.1918 155.315 22.7441V25.9213C155.315 26.4735 155.763 26.9213 156.315 26.9213H161.598C162.703 26.9213 163.598 26.0258 163.598 24.9213V19.6024C163.598 18.4978 162.703 17.6024 161.598 17.6024H157.351C155.465 17.6024 153.603 18.023 151.901 18.8337V18.8337C150.782 19.3663 149.954 20.3629 149.635 21.5599L147.739 28.6695C146.872 31.9182 149.395 35.0788 152.755 34.9544L168.011 34.3894C171.301 34.2675 173.878 31.5169 173.786 28.2256L173.384 13.8426C173.293 10.5955 170.635 8.01038 167.386 8.01038H153.04C150.056 8.01038 147.189 9.21712 145.164 11.4088C134.272 23.194 126.982 33.3225 120.683 32.2299C120.393 32.1796 120.11 32.3916 120.11 32.686V32.686C120.11 32.9325 120.313 33.1318 120.559 33.1285C126.708 33.045 130.709 32.4313 148.426 13.254C149.542 12.0456 150.999 11.1983 152.605 10.8414L158.22 9.59364C159.035 9.41248 159.88 9.4035 160.698 9.56728L164.988 10.4251C167.792 10.986 169.811 13.4485 169.811 16.3086V27.0984C169.811 29.8599 167.572 32.0984 164.811 32.0984H155.173C152.964 32.0984 151.173 30.3076 151.173 28.0984V22.6378C151.173 20.4287 152.964 18.6378 155.173 18.6378H159.527C160.632 18.6378 161.527 19.5332 161.527 20.6378V24.8858C161.527 25.4381 161.08 25.8858 160.527 25.8858H158.386C157.833 25.8858 157.386 25.4381 157.386 24.8858V22.7441Z" fill="url(#paint20_radial_692_1834)"/>
<path d="M131.666 33.0631C139.604 29.9513 147.754 12.4066 157.386 13.4606C144.412 19.2326 143.16 31.4785 131.666 33.0631Z" fill="url(#paint21_radial_692_1834)"/>
<path d="M124.252 30.0276C129.594 21.6827 129.718 16.9143 125.287 8.28346C130.716 9.71409 138.453 19.5114 124.252 30.0276Z" fill="url(#paint22_radial_692_1834)"/>
<path d="M118.039 10.3543C122.976 14.0549 125.673 23.2793 118.039 32.0984C129.749 25.6888 126.286 12.7713 118.039 0V10.3543Z" fill="url(#paint23_radial_692_1834)"/>
<defs>
<radialGradient id="paint0_radial_692_1834" cx="0" cy="0" r="1" gradientUnits="userSpaceOnUse" gradientTransform="translate(79.728 111.309) scale(38.311 20.1909)">
<stop stop-color="#E1E1E1"/>
<stop offset="1" stop-color="#FFF4DA"/>
</radialGradient>
<radialGradient id="paint1_radial_692_1834" cx="0" cy="0" r="1" gradientUnits="userSpaceOnUse" gradientTransform="translate(79.728 111.309) scale(38.311 20.1909)">
<stop stop-color="#E1E1E1"/>
<stop offset="1" stop-color="#FFF4DA"/>
</radialGradient>
<radialGradient id="paint2_radial_692_1834" cx="0" cy="0" r="1" gradientUnits="userSpaceOnUse" gradientTransform="translate(79.728 111.309) scale(38.311 20.1909)">
<stop stop-color="#E1E1E1"/>
<stop offset="1" stop-color="#FFF4DA"/>
</radialGradient>
<radialGradient id="paint3_radial_692_1834" cx="0" cy="0" r="1" gradientUnits="userSpaceOnUse" gradientTransform="translate(79.728 111.309) scale(38.311 20.1909)">
<stop stop-color="#E1E1E1"/>
<stop offset="1" stop-color="#FFF4DA"/>
</radialGradient>
<radialGradient id="paint4_radial_692_1834" cx="0" cy="0" r="1" gradientUnits="userSpaceOnUse" gradientTransform="translate(156.35 111.309) rotate(180) scale(38.311 20.1909)">
<stop stop-color="#E1E1E1"/>
<stop offset="1" stop-color="#FFF4DA"/>
</radialGradient>
<radialGradient id="paint5_radial_692_1834" cx="0" cy="0" r="1" gradientUnits="userSpaceOnUse" gradientTransform="translate(156.35 111.309) rotate(180) scale(38.311 20.1909)">
<stop stop-color="#E1E1E1"/>
<stop offset="1" stop-color="#FFF4DA"/>
</radialGradient>
<radialGradient id="paint6_radial_692_1834" cx="0" cy="0" r="1" gradientUnits="userSpaceOnUse" gradientTransform="translate(156.35 111.309) rotate(180) scale(38.311 20.1909)">
<stop stop-color="#E1E1E1"/>
<stop offset="1" stop-color="#FFF4DA"/>
</radialGradient>
<radialGradient id="paint7_radial_692_1834" cx="0" cy="0" r="1" gradientUnits="userSpaceOnUse" gradientTransform="translate(156.35 111.309) rotate(180) scale(38.311 20.1909)">
<stop stop-color="#E1E1E1"/>
<stop offset="1" stop-color="#FFF4DA"/>
</radialGradient>
<radialGradient id="paint8_radial_692_1834" cx="0" cy="0" r="1" gradientUnits="userSpaceOnUse" gradientTransform="translate(59.0197 17.6024) scale(59.0197 17.6024)">
<stop stop-color="#E1E1E1"/>
<stop offset="1" stop-color="#FFF4DA"/>
</radialGradient>
<radialGradient id="paint9_radial_692_1834" cx="0" cy="0" r="1" gradientUnits="userSpaceOnUse" gradientTransform="translate(59.0197 17.6024) scale(59.0197 17.6024)">
<stop stop-color="#E1E1E1"/>
<stop offset="1" stop-color="#FFF4DA"/>
</radialGradient>
<radialGradient id="paint10_radial_692_1834" cx="0" cy="0" r="1" gradientUnits="userSpaceOnUse" gradientTransform="translate(59.0197 17.6024) scale(59.0197 17.6024)">
<stop stop-color="#E1E1E1"/>
<stop offset="1" stop-color="#FFF4DA"/>
</radialGradient>
<radialGradient id="paint11_radial_692_1834" cx="0" cy="0" r="1" gradientUnits="userSpaceOnUse" gradientTransform="translate(59.0197 17.6024) scale(59.0197 17.6024)">
<stop stop-color="#E1E1E1"/>
<stop offset="1" stop-color="#FFF4DA"/>
</radialGradient>
<radialGradient id="paint12_radial_692_1834" cx="0" cy="0" r="1" gradientUnits="userSpaceOnUse" gradientTransform="translate(59.0197 17.6024) scale(59.0197 17.6024)">
<stop stop-color="#E1E1E1"/>
<stop offset="1" stop-color="#FFF4DA"/>
</radialGradient>
<radialGradient id="paint13_radial_692_1834" cx="0" cy="0" r="1" gradientUnits="userSpaceOnUse" gradientTransform="translate(59.0197 17.6024) scale(59.0197 17.6024)">
<stop stop-color="#E1E1E1"/>
<stop offset="1" stop-color="#FFF4DA"/>
</radialGradient>
<radialGradient id="paint14_radial_692_1834" cx="0" cy="0" r="1" gradientUnits="userSpaceOnUse" gradientTransform="translate(59.0197 17.6024) scale(59.0197 17.6024)">
<stop stop-color="#E1E1E1"/>
<stop offset="1" stop-color="#FFF4DA"/>
</radialGradient>
<radialGradient id="paint15_radial_692_1834" cx="0" cy="0" r="1" gradientUnits="userSpaceOnUse" gradientTransform="translate(59.0197 17.6024) scale(59.0197 17.6024)">
<stop stop-color="#E1E1E1"/>
<stop offset="1" stop-color="#FFF4DA"/>
</radialGradient>
<radialGradient id="paint16_radial_692_1834" cx="0" cy="0" r="1" gradientUnits="userSpaceOnUse" gradientTransform="translate(177.059 17.6024) rotate(180) scale(59.0197 17.6024)">
<stop stop-color="#E1E1E1"/>
<stop offset="1" stop-color="#FFF4DA"/>
</radialGradient>
<radialGradient id="paint17_radial_692_1834" cx="0" cy="0" r="1" gradientUnits="userSpaceOnUse" gradientTransform="translate(177.059 17.6024) rotate(180) scale(59.0197 17.6024)">
<stop stop-color="#E1E1E1"/>
<stop offset="1" stop-color="#FFF4DA"/>
</radialGradient>
<radialGradient id="paint18_radial_692_1834" cx="0" cy="0" r="1" gradientUnits="userSpaceOnUse" gradientTransform="translate(177.059 17.6024) rotate(180) scale(59.0197 17.6024)">
<stop stop-color="#E1E1E1"/>
<stop offset="1" stop-color="#FFF4DA"/>
</radialGradient>
<radialGradient id="paint19_radial_692_1834" cx="0" cy="0" r="1" gradientUnits="userSpaceOnUse" gradientTransform="translate(177.059 17.6024) rotate(180) scale(59.0197 17.6024)">
<stop stop-color="#E1E1E1"/>
<stop offset="1" stop-color="#FFF4DA"/>
</radialGradient>
<radialGradient id="paint20_radial_692_1834" cx="0" cy="0" r="1" gradientUnits="userSpaceOnUse" gradientTransform="translate(177.059 17.6024) rotate(180) scale(59.0197 17.6024)">
<stop stop-color="#E1E1E1"/>
<stop offset="1" stop-color="#FFF4DA"/>
</radialGradient>
<radialGradient id="paint21_radial_692_1834" cx="0" cy="0" r="1" gradientUnits="userSpaceOnUse" gradientTransform="translate(177.059 17.6024) rotate(180) scale(59.0197 17.6024)">
<stop stop-color="#E1E1E1"/>
<stop offset="1" stop-color="#FFF4DA"/>
</radialGradient>
<radialGradient id="paint22_radial_692_1834" cx="0" cy="0" r="1" gradientUnits="userSpaceOnUse" gradientTransform="translate(177.059 17.6024) rotate(180) scale(59.0197 17.6024)">
<stop stop-color="#E1E1E1"/>
<stop offset="1" stop-color="#FFF4DA"/>
</radialGradient>
<radialGradient id="paint23_radial_692_1834" cx="0" cy="0" r="1" gradientUnits="userSpaceOnUse" gradientTransform="translate(177.059 17.6024) rotate(180) scale(59.0197 17.6024)">
<stop stop-color="#E1E1E1"/>
<stop offset="1" stop-color="#FFF4DA"/>
</radialGradient>
</defs>
</svg>
