<svg width="237" height="132" viewBox="0 0 237 132" fill="none" xmlns="http://www.w3.org/2000/svg">
<path d="M50.713 108.06C49.3894 108.487 47.9219 108.504 46.7174 107.809C44.5799 106.575 44.1417 105.154 44.5239 102.508V102.508C42.8803 103.056 42.0634 104.953 43.0344 106.388C43.9981 107.812 45.0942 108.974 46.6272 110.246C47.9176 111.316 49.57 111.855 51.2463 111.812C56.4411 111.679 59.0354 110.851 62.1261 108.72C61.1055 110.641 61.1623 111.76 61.9889 113.6C62.061 113.76 62.2573 113.822 62.4081 113.731C64.083 112.73 65.0044 111.892 66.2679 109.756C66.2159 114.032 66.9848 113.977 70.4096 114.933C67.5199 110.86 68.053 109.221 70.1985 106.254C70.9963 105.151 72.1264 104.331 73.4058 103.866L78.5781 101.985C81.3347 100.982 84.3491 100.942 87.1317 101.869L104.174 107.55C104.308 107.435 104.443 107.326 104.579 107.223V104.508C104.579 103.403 105.474 102.508 106.579 102.508H108.791C109.896 102.508 110.791 103.403 110.791 104.508V105.614H111.827V103.472C111.827 102.368 110.931 101.472 109.827 101.472H105.543C104.439 101.472 103.543 102.368 103.543 103.472V106.65C98.7741 103.748 93.5326 101.584 86.7262 99.7769C82.8461 98.747 78.7539 99.0145 74.9333 100.247L50.713 108.06Z" fill="url(#paint0_radial_692_1448)"/>
<path fill-rule="evenodd" clip-rule="evenodd" d="M118.04 111.827V108.721C115.458 105.74 114.164 105.799 111.827 105.614H110.791C108.063 105.589 106.223 105.979 104.579 107.223V107.685L104.174 107.55C103.27 108.327 102.41 109.382 101.473 110.791C94.423 108.167 92.2423 105.859 84.6309 104.117C82.7932 103.696 80.8384 103.854 79.1738 104.739C77.1411 105.82 75.7483 107.075 74.4009 109.235C73.7981 110.201 73.7054 111.42 74.2151 112.438C75.05 114.107 76.2503 115.417 79.1381 117.128C80.1191 117.709 81.351 117.62 82.2789 116.957L86.2804 114.099C87.2189 113.429 87.4133 112.09 86.6216 111.251C84.8307 109.354 83.7232 109.09 81.7994 109.756C83.0247 110.067 83.7478 110.456 84.3965 111.688C84.7601 112.378 84.5523 113.216 84.0005 113.767L82.2759 115.492C81.3711 116.397 79.9668 116.664 78.906 115.948C77.392 114.927 76.4786 113.802 75.488 112.283C74.8942 111.372 74.8544 110.185 75.4804 109.296C77.1885 106.871 79.0768 106.022 82.8348 105.614C87.5143 105.758 93.9739 109.592 101.473 112.862C101.611 115.305 101.827 117.608 105.431 119.531C106.15 119.915 107.027 119.733 107.604 119.156L110.252 116.508C110.55 116.21 110.55 115.727 110.252 115.429V115.429C109.972 115.149 109.522 115.134 109.211 115.381C104.883 118.812 103.35 117.017 102.508 112.862C108.785 113.743 111.601 112.063 112.862 106.65H114.933L118.04 111.827ZM102.508 111.827C105.324 107.593 107.417 106.549 111.827 106.65C109.582 111.782 107.624 113.001 102.508 111.827Z" fill="url(#paint1_radial_692_1448)"/>
<path d="M118.04 114.933V111.827C116.112 115.763 116.189 118.074 110.791 119.075C111.96 121.038 112.806 121.636 114.933 121.146C115.325 125.201 115.718 127.472 118.04 131.5V125.287C116.703 121.107 116.953 118.865 118.04 114.933Z" fill="url(#paint2_radial_692_1448)"/>
<path d="M115.969 98.3662C116.06 94.792 116.696 93.3936 118.04 91.1182V105.614C115.723 100.811 114.342 99.4138 111.827 99.4015C113.365 97.8121 114.277 97.3638 115.969 98.3662Z" fill="url(#paint3_radial_692_1448)"/>
<path d="M185.366 108.06C186.69 108.487 188.157 108.504 189.362 107.809C191.499 106.575 191.937 105.154 191.555 102.508V102.508C193.199 103.056 194.016 104.953 193.045 106.388C192.081 107.812 190.985 108.974 189.452 110.246C188.161 111.316 186.509 111.855 184.833 111.812C179.638 111.679 177.044 110.851 173.953 108.72C174.974 110.641 174.917 111.76 174.09 113.6C174.018 113.76 173.822 113.822 173.671 113.731C171.996 112.73 171.075 111.892 169.811 109.756C169.863 114.032 169.094 113.977 165.669 114.933C168.559 110.86 168.026 109.221 165.881 106.254C165.083 105.151 163.953 104.331 162.673 103.866L157.501 101.985C154.744 100.982 151.73 100.942 148.947 101.869L131.905 107.55C131.771 107.435 131.636 107.326 131.5 107.223V104.508C131.5 103.403 130.605 102.508 129.5 102.508H127.288C126.183 102.508 125.288 103.403 125.288 104.508V105.614H124.252V103.472C124.252 102.368 125.148 101.472 126.252 101.472H130.536C131.64 101.472 132.536 102.368 132.536 103.472V106.65C137.305 103.748 142.547 101.584 149.353 99.7769C153.233 98.747 157.325 99.0145 161.146 100.247L185.366 108.06Z" fill="url(#paint4_radial_692_1448)"/>
<path fill-rule="evenodd" clip-rule="evenodd" d="M118.04 111.827V108.721C120.621 105.74 121.915 105.799 124.252 105.614H125.288C128.016 105.589 129.856 105.979 131.5 107.223V107.685L131.905 107.55C132.809 108.327 133.669 109.382 134.607 110.791C141.656 108.167 143.837 105.859 151.448 104.117C153.286 103.696 155.241 103.854 156.905 104.739C158.938 105.82 160.331 107.075 161.678 109.235C162.281 110.201 162.374 111.42 161.864 112.438C161.029 114.107 159.829 115.417 156.941 117.128C155.96 117.709 154.728 117.62 153.8 116.957L149.799 114.099C148.86 113.429 148.666 112.09 149.457 111.251C151.248 109.354 152.356 109.09 154.28 109.756C153.054 110.067 152.331 110.456 151.683 111.688C151.319 112.378 151.527 113.216 152.079 113.767L153.803 115.492C154.708 116.397 156.112 116.664 157.173 115.948C158.687 114.927 159.601 113.802 160.591 112.283C161.185 111.372 161.225 110.185 160.599 109.296C158.891 106.871 157.002 106.022 153.244 105.614C148.565 105.758 142.105 109.592 134.607 112.862C134.468 115.305 134.252 117.608 130.648 119.531C129.929 119.915 129.052 119.733 128.475 119.156L125.827 116.508C125.529 116.21 125.529 115.727 125.827 115.429V115.429C126.107 115.149 126.557 115.134 126.868 115.381C131.196 118.812 132.729 117.017 133.571 112.862C127.294 113.743 124.479 112.063 123.217 106.65H121.146L118.04 111.827ZM133.571 111.827C130.755 107.593 128.662 106.549 124.252 106.65C126.497 111.782 128.455 113.001 133.571 111.827Z" fill="url(#paint5_radial_692_1448)"/>
<path d="M118.04 114.933V111.827C119.967 115.763 119.89 118.074 125.288 119.075C124.119 121.038 123.273 121.636 121.146 121.146C120.755 125.201 120.362 127.472 118.04 131.5V125.287C119.376 121.107 119.126 118.865 118.04 114.933Z" fill="url(#paint6_radial_692_1448)"/>
<path d="M120.11 98.3662C120.019 94.792 119.383 93.3936 118.04 91.1182V105.614C120.356 100.811 121.737 99.4138 124.252 99.4015C122.714 97.8121 121.802 97.3638 120.11 98.3662Z" fill="url(#paint7_radial_692_1448)"/>
<path d="M54.5508 67.9531L62.1992 52.5273L64.9062 46.7266C65.6797 46.8125 66.8112 46.8555 68.3008 46.8555C68.8021 46.8555 69.3607 46.8411 69.9766 46.8125C70.6068 46.7839 71.2943 46.7409 72.0391 46.6836C72.0964 46.8268 72.0964 47.0703 72.0391 47.4141C71.9818 47.7578 71.9102 47.9297 71.8242 47.9297C71.4518 47.9297 71.0579 48.0299 70.6426 48.2305C70.2272 48.431 69.9193 48.6745 69.7188 48.9609C69.4609 49.3047 69.2676 49.7201 69.1387 50.207C69.0241 50.651 68.888 51.5104 68.7305 52.7852L67.0547 69.1992C66.8828 70.6745 66.7969 71.806 66.7969 72.5938C66.7969 73.1953 67.0189 73.5749 67.4629 73.7324C67.7207 73.8184 68.0286 73.8828 68.3867 73.9258C68.7591 73.9544 69.0599 73.9688 69.2891 73.9688C69.3464 73.9688 69.375 74.0977 69.375 74.3555C69.375 74.6992 69.2891 74.957 69.1172 75.1289C67.7852 75.0573 66.7253 75.0072 65.9375 74.9785C65.1641 74.9355 64.6628 74.9141 64.4336 74.9141C64.3906 74.9141 63.9896 74.9355 63.2305 74.9785C62.4857 75.0072 61.3828 75.0573 59.9219 75.1289C59.8646 75.0286 59.8359 74.957 59.8359 74.9141C59.8359 74.7422 59.8717 74.5417 59.9434 74.3125C60.015 74.0833 60.0794 73.9688 60.1367 73.9688C60.3945 73.9688 60.7168 73.9401 61.1035 73.8828C61.5046 73.8112 61.877 73.7181 62.2207 73.6035C62.5645 73.4746 62.7721 73.3385 62.8438 73.1953C63.1302 72.5365 63.3307 71.9277 63.4453 71.3691C63.474 71.2116 63.5169 70.8678 63.5742 70.3379C63.6315 69.8079 63.6745 69.4714 63.7031 69.3281L65.4219 52.5703C65.5078 51.7109 65.5508 51.1523 65.5508 50.8945C65.5508 50.7227 65.4648 50.6367 65.293 50.6367C65.2786 50.6367 65.2357 50.694 65.1641 50.8086L53.9492 73.668C53.806 73.9258 53.5339 74.2266 53.1328 74.5703C52.7318 74.9141 52.3594 75.0859 52.0156 75.0859C51.8867 75.0859 51.7721 75.0573 51.6719 75L48.0195 50.6367C48.0052 50.5794 47.9766 50.5508 47.9336 50.5508C47.8477 50.5508 47.8047 50.5794 47.8047 50.6367L42.7773 69.1562C42.2331 71.1328 41.9609 72.3216 41.9609 72.7227C41.9609 72.9232 42.1686 73.1237 42.584 73.3242C43.0137 73.5104 43.4648 73.668 43.9375 73.7969C44.4245 73.9115 44.7396 73.9688 44.8828 73.9688C44.9401 73.9688 44.9688 74.0547 44.9688 74.2266C44.9688 74.556 44.8971 74.8568 44.7539 75.1289C43.4219 75.0573 42.3835 75.0072 41.6387 74.9785C40.8939 74.9355 40.4427 74.9141 40.2852 74.9141C40.2422 74.9141 39.8268 74.9355 39.0391 74.9785C38.2513 75.0072 37.0911 75.0573 35.5586 75.1289C35.5013 75.0716 35.4727 74.9284 35.4727 74.6992C35.4727 74.2122 35.5729 73.9688 35.7734 73.9688C36.0026 73.9688 36.3678 73.9186 36.8691 73.8184C37.3704 73.7038 37.8431 73.5677 38.2871 73.4102C38.7454 73.2383 39.0104 73.0807 39.082 72.9375C39.5833 71.9922 40.056 70.7174 40.5 69.1133L45.1836 52.3125C45.2982 51.7539 45.4199 51.2025 45.5488 50.6582C45.6777 50.0996 45.7422 49.5625 45.7422 49.0469C45.7422 48.832 45.5417 48.6387 45.1406 48.4668C44.7396 48.2949 44.3027 48.1589 43.8301 48.0586C43.3717 47.944 43.0352 47.8867 42.8203 47.8867C42.763 47.8867 42.7344 47.7865 42.7344 47.5859C42.7344 47.1133 42.8203 46.8268 42.9922 46.7266C44.0521 46.7552 44.9186 46.7767 45.5918 46.791C46.265 46.8053 46.7448 46.8125 47.0312 46.8125C47.8477 46.8125 48.5924 46.8053 49.2656 46.791C49.9531 46.7767 50.569 46.7552 51.1133 46.7266C51.2422 47.901 51.5788 50.2643 52.123 53.8164C52.6673 57.3542 53.4193 62.0807 54.3789 67.9961C54.3789 68.0247 54.3932 68.0391 54.4219 68.0391C54.5078 68.0391 54.5508 68.0104 54.5508 67.9531ZM78.1406 56.3086C78.599 56.3086 78.957 56.5163 79.2148 56.9316C79.4727 57.347 79.6016 57.8841 79.6016 58.543C79.6016 59.3021 79.5156 60.0612 79.3438 60.8203L77.8398 67.9102C77.6393 68.7839 77.5391 69.5573 77.5391 70.2305C77.5391 71.4622 77.8112 72.0781 78.3555 72.0781C78.6706 72.0781 79.0573 71.8991 79.5156 71.541C79.9883 71.1829 80.4753 70.7246 80.9766 70.166C81.4922 69.6074 81.972 69.0345 82.416 68.4473C83.2324 67.373 84.0059 66.0625 84.7363 64.5156C85.4668 62.9688 85.9753 61.4362 86.2617 59.918L86.9922 56.5664C87.3789 56.4518 87.8229 56.3945 88.3242 56.3945C88.8112 56.3945 89.2982 56.4518 89.7852 56.5664L87.1211 70.4453C87.0352 70.7891 86.9922 71.1471 86.9922 71.5195C86.9922 72.2357 87.1354 72.5938 87.4219 72.5938C87.7799 72.5938 88.2096 72.3431 88.7109 71.8418C89.2122 71.3262 89.6419 70.8893 90 70.5312L90.2578 70.2305C90.3151 70.2305 90.4225 70.3665 90.5801 70.6387C90.7376 70.9108 90.8164 71.1042 90.8164 71.2188C90.5729 71.6341 90.1289 72.1641 89.4844 72.8086C88.8542 73.4531 88.1667 74.026 87.4219 74.5273C86.6771 75.0143 86.0039 75.2578 85.4023 75.2578C84.944 75.2578 84.5859 75.0501 84.3281 74.6348C84.0703 74.2194 83.9414 73.6823 83.9414 73.0234C83.9414 72.5938 84.0417 71.8346 84.2422 70.7461L85.0156 66.793C84.7435 67.3086 84.1562 68.1966 83.2539 69.457C82.6667 70.2734 81.9577 71.1328 81.127 72.0352C80.3105 72.9375 79.4941 73.7038 78.6777 74.334C77.8613 74.9499 77.1667 75.2578 76.5938 75.2578C75.1615 75.2578 74.4453 74.3125 74.4453 72.4219C74.4453 71.0755 74.6458 69.5143 75.0469 67.7383L76.3359 61.7656C76.4792 60.7773 76.5508 60.2044 76.5508 60.0469C76.5508 59.3307 76.4076 58.9727 76.1211 58.9727C75.8776 58.9727 75.5124 59.2018 75.0254 59.6602C74.7962 59.8893 74.5456 60.14 74.2734 60.4121C74.0156 60.6842 73.8438 60.8776 73.7578 60.9922C73.7005 60.9922 73.5931 60.8561 73.4355 60.584C73.278 60.3118 73.1992 60.1185 73.1992 60.0039C73.4284 59.6172 73.8438 59.1374 74.4453 58.5645C75.0469 57.9772 75.6914 57.4544 76.3789 56.9961C77.0664 56.5378 77.6536 56.3086 78.1406 56.3086ZM95.1133 45.0078C95.7865 45.0078 96.1947 45.1582 96.3379 45.459C96.4954 45.7741 96.4883 46.5547 96.3164 47.8008C96.1445 48.7031 95.7363 50.0495 95.0918 51.8398C94.7767 52.7422 94.5046 53.5156 94.2754 54.1602C94.0605 54.8047 93.8958 55.3203 93.7812 55.707C93.7096 55.9792 93.5378 56.1654 93.2656 56.2656C92.9935 56.3516 92.7428 56.3587 92.5137 56.2871C92.2845 56.2012 92.1914 56.0365 92.2344 55.793C92.2917 55.2201 92.3346 54.6615 92.3633 54.1172C92.3919 53.5729 92.4062 53.0501 92.4062 52.5488C92.4062 51.6465 92.3776 50.7227 92.3203 49.7773C92.263 48.8177 92.2344 48.1159 92.2344 47.6719C92.2917 47.3424 92.4635 46.9701 92.75 46.5547C93.0365 46.1393 93.3874 45.7812 93.8027 45.4805C94.2181 45.1654 94.6549 45.0078 95.1133 45.0078ZM113.547 56.3086C114.32 56.3086 114.915 56.5378 115.33 56.9961C115.745 57.4544 115.996 57.9342 116.082 58.4355C116.168 58.9368 116.211 59.5885 116.211 60.3906C116.211 60.9206 116.01 62.1953 115.609 64.2148C116.082 63.3984 116.669 62.5319 117.371 61.6152C118.073 60.6986 118.811 59.8392 119.584 59.0371C120.357 58.235 121.102 57.5833 121.818 57.082C122.535 56.5664 123.143 56.3086 123.645 56.3086C124.59 56.3086 125.234 56.5449 125.578 57.0176C125.922 57.4902 126.094 58.1992 126.094 59.1445C126.094 60.4766 125.893 62.0378 125.492 63.8281L124.074 70.4453C123.988 70.7891 123.945 71.1471 123.945 71.5195C123.945 72.2357 124.089 72.5938 124.375 72.5938C124.733 72.5938 125.163 72.3431 125.664 71.8418C126.165 71.3262 126.595 70.8893 126.953 70.5312L127.211 70.2305C127.268 70.2305 127.376 70.3665 127.533 70.6387C127.691 70.9108 127.77 71.1042 127.77 71.2188C127.526 71.6341 127.082 72.1641 126.438 72.8086C125.807 73.4531 125.12 74.026 124.375 74.5273C123.63 75.0143 122.957 75.2578 122.355 75.2578C121.897 75.2578 121.539 75.0501 121.281 74.6348C121.023 74.2194 120.895 73.6823 120.895 73.0234C120.895 72.5938 120.995 71.8346 121.195 70.7461L122.699 63.6562C122.9 62.6823 123 61.9089 123 61.3359C123 60.8346 122.957 60.4049 122.871 60.0469C122.799 59.6745 122.57 59.4883 122.184 59.4883C121.697 59.4883 121.059 59.832 120.271 60.5195C119.498 61.207 118.696 62.1165 117.865 63.248C117.035 64.3652 116.29 65.597 115.631 66.9434C114.972 68.2754 114.521 69.6003 114.277 70.918L113.504 75H110.625L113.031 62.7969C113.146 62.1523 113.203 61.6081 113.203 61.1641C113.203 60.0469 112.917 59.4883 112.344 59.4883C111.842 59.4883 111.205 59.8678 110.432 60.627C109.658 61.3861 108.863 62.3672 108.047 63.5703C107.23 64.7734 106.5 66.0553 105.855 67.416C105.211 68.7624 104.767 70.0299 104.523 71.2188L103.75 75C102.948 75.1146 102.461 75.1719 102.289 75.1719C102.146 75.1719 101.673 75.1146 100.871 75L103.449 61.7656C103.592 60.7773 103.664 60.2044 103.664 60.0469C103.664 59.3307 103.521 58.9727 103.234 58.9727C102.991 58.9727 102.626 59.2018 102.139 59.6602C101.91 59.8893 101.659 60.14 101.387 60.4121C101.129 60.6842 100.957 60.8776 100.871 60.9922C100.814 60.9922 100.706 60.8561 100.549 60.584C100.391 60.3118 100.312 60.1185 100.312 60.0039C100.542 59.6172 100.957 59.1374 101.559 58.5645C102.16 57.9772 102.805 57.4544 103.492 56.9961C104.18 56.5378 104.767 56.3086 105.254 56.3086C105.712 56.3086 106.07 56.5163 106.328 56.9316C106.586 57.347 106.715 57.8841 106.715 58.543C106.715 59.1732 106.629 59.9323 106.457 60.8203L105.684 64.8164C106.214 63.8997 106.822 62.9473 107.51 61.959C108.212 60.9707 108.928 60.0469 109.658 59.1875C110.403 58.3281 111.112 57.6335 111.785 57.1035C112.458 56.5736 113.046 56.3086 113.547 56.3086ZM137.523 47.2422C137.953 47.2422 138.318 47.4141 138.619 47.7578C138.92 48.1016 139.07 48.5026 139.07 48.9609C139.07 49.6484 138.848 50.25 138.404 50.7656C137.96 51.2812 137.409 51.5391 136.75 51.5391C136.292 51.5391 135.934 51.36 135.676 51.002C135.418 50.6439 135.289 50.207 135.289 49.6914C135.289 49.0326 135.504 48.4596 135.934 47.9727C136.363 47.4857 136.893 47.2422 137.523 47.2422ZM136.277 56.3086C136.736 56.3086 137.094 56.5163 137.352 56.9316C137.609 57.347 137.738 57.8841 137.738 58.543C137.738 59.1302 137.652 59.8893 137.48 60.8203L135.59 70.4453C135.504 70.7891 135.461 71.1471 135.461 71.5195C135.461 72.2357 135.604 72.5938 135.891 72.5938C136.249 72.5938 136.678 72.3431 137.18 71.8418C137.681 71.3262 138.111 70.8893 138.469 70.5312L138.727 70.2305C138.784 70.2305 138.891 70.3665 139.049 70.6387C139.206 70.9108 139.285 71.1042 139.285 71.2188C139.042 71.6341 138.598 72.1641 137.953 72.8086C137.323 73.4531 136.635 74.026 135.891 74.5273C135.146 75.0143 134.473 75.2578 133.871 75.2578C133.413 75.2578 133.055 75.0501 132.797 74.6348C132.539 74.2194 132.41 73.6823 132.41 73.0234C132.41 72.5938 132.51 71.8346 132.711 70.7461L134.473 61.7656C134.616 60.9206 134.688 60.3477 134.688 60.0469C134.688 59.3307 134.544 58.9727 134.258 58.9727C134.086 58.9727 133.85 59.0872 133.549 59.3164C133.262 59.5456 132.983 59.8034 132.711 60.0898C132.439 60.362 132.238 60.5768 132.109 60.7344L131.895 60.9922C131.837 60.9922 131.73 60.8561 131.572 60.584C131.415 60.3118 131.336 60.1185 131.336 60.0039C131.565 59.6172 131.98 59.1374 132.582 58.5645C133.184 57.9772 133.828 57.4544 134.516 56.9961C135.203 56.5378 135.79 56.3086 136.277 56.3086ZM147.707 56.3086C148.165 56.3086 148.523 56.5163 148.781 56.9316C149.039 57.347 149.168 57.8841 149.168 58.543C149.168 59.1732 149.082 59.9323 148.91 60.8203L148.137 64.7734C148.409 64.2865 149.032 63.3984 150.006 62.1094C150.65 61.2643 151.395 60.3978 152.24 59.5098C153.1 58.6074 153.945 57.8483 154.775 57.2324C155.62 56.6165 156.329 56.3086 156.902 56.3086C158.335 56.3086 159.051 57.2539 159.051 59.1445C159.051 60.4766 158.85 62.0378 158.449 63.8281L157.031 70.4453C156.945 70.7891 156.902 71.1471 156.902 71.5195C156.902 72.2357 157.046 72.5938 157.332 72.5938C157.69 72.5938 158.12 72.3431 158.621 71.8418C159.122 71.3262 159.552 70.8893 159.91 70.5312L160.168 70.2305C160.225 70.2305 160.333 70.3665 160.49 70.6387C160.648 70.9108 160.727 71.1042 160.727 71.2188C160.483 71.6341 160.039 72.1641 159.395 72.8086C158.764 73.4531 158.077 74.026 157.332 74.5273C156.587 75.0143 155.914 75.2578 155.312 75.2578C154.854 75.2578 154.496 75.0501 154.238 74.6348C153.98 74.2194 153.852 73.6823 153.852 73.0234C153.852 72.5938 153.952 71.8346 154.152 70.7461L155.656 63.6562C155.857 62.6823 155.957 61.9089 155.957 61.3359C155.957 60.1042 155.685 59.4883 155.141 59.4883C154.668 59.4883 154.031 59.8464 153.229 60.5625C152.426 61.2643 151.589 62.2025 150.715 63.377C149.855 64.5514 149.075 65.862 148.373 67.3086C147.671 68.7409 147.177 70.1875 146.891 71.6484L146.16 75C145.773 75.1146 145.329 75.1719 144.828 75.1719C144.341 75.1719 143.854 75.1146 143.367 75L145.902 61.7656C146.046 60.7773 146.117 60.2044 146.117 60.0469C146.117 59.3307 145.974 58.9727 145.688 58.9727C145.444 58.9727 145.079 59.2018 144.592 59.6602C144.363 59.8893 144.112 60.14 143.84 60.4121C143.582 60.6842 143.41 60.8776 143.324 60.9922C143.267 60.9922 143.16 60.8561 143.002 60.584C142.844 60.3118 142.766 60.1185 142.766 60.0039C142.995 59.6172 143.41 59.1374 144.012 58.5645C144.613 57.9772 145.258 57.4544 145.945 56.9961C146.633 56.5378 147.22 56.3086 147.707 56.3086ZM168.418 56.3086C168.876 56.3086 169.234 56.5163 169.492 56.9316C169.75 57.347 169.879 57.8841 169.879 58.543C169.879 59.3021 169.793 60.0612 169.621 60.8203L168.117 67.9102C167.917 68.7839 167.816 69.5573 167.816 70.2305C167.816 71.4622 168.089 72.0781 168.633 72.0781C168.948 72.0781 169.335 71.8991 169.793 71.541C170.266 71.1829 170.753 70.7246 171.254 70.166C171.77 69.6074 172.249 69.0345 172.693 68.4473C173.51 67.373 174.283 66.0625 175.014 64.5156C175.744 62.9688 176.253 61.4362 176.539 59.918L177.27 56.5664C177.656 56.4518 178.1 56.3945 178.602 56.3945C179.089 56.3945 179.576 56.4518 180.062 56.5664L177.398 70.4453C177.312 70.7891 177.27 71.1471 177.27 71.5195C177.27 72.2357 177.413 72.5938 177.699 72.5938C178.057 72.5938 178.487 72.3431 178.988 71.8418C179.49 71.3262 179.919 70.8893 180.277 70.5312L180.535 70.2305C180.592 70.2305 180.7 70.3665 180.857 70.6387C181.015 70.9108 181.094 71.1042 181.094 71.2188C180.85 71.6341 180.406 72.1641 179.762 72.8086C179.132 73.4531 178.444 74.026 177.699 74.5273C176.954 75.0143 176.281 75.2578 175.68 75.2578C175.221 75.2578 174.863 75.0501 174.605 74.6348C174.348 74.2194 174.219 73.6823 174.219 73.0234C174.219 72.5938 174.319 71.8346 174.52 70.7461L175.293 66.793C175.021 67.3086 174.434 68.1966 173.531 69.457C172.944 70.2734 172.235 71.1328 171.404 72.0352C170.588 72.9375 169.771 73.7038 168.955 74.334C168.139 74.9499 167.444 75.2578 166.871 75.2578C165.439 75.2578 164.723 74.3125 164.723 72.4219C164.723 71.0755 164.923 69.5143 165.324 67.7383L166.613 61.7656C166.757 60.7773 166.828 60.2044 166.828 60.0469C166.828 59.3307 166.685 58.9727 166.398 58.9727C166.155 58.9727 165.79 59.2018 165.303 59.6602C165.074 59.8893 164.823 60.14 164.551 60.4121C164.293 60.6842 164.121 60.8776 164.035 60.9922C163.978 60.9922 163.87 60.8561 163.713 60.584C163.555 60.3118 163.477 60.1185 163.477 60.0039C163.706 59.6172 164.121 59.1374 164.723 58.5645C165.324 57.9772 165.969 57.4544 166.656 56.9961C167.344 56.5378 167.931 56.3086 168.418 56.3086ZM189.129 56.3086C189.587 56.3086 189.945 56.5163 190.203 56.9316C190.461 57.347 190.59 57.8841 190.59 58.543C190.59 59.1732 190.504 59.9323 190.332 60.8203L189.559 64.7734C189.831 64.2865 190.454 63.3984 191.428 62.1094C192.072 61.2643 192.817 60.3978 193.662 59.5098C194.521 58.6074 195.367 57.8483 196.197 57.2324C197.042 56.6165 197.751 56.3086 198.324 56.3086C199.757 56.3086 200.473 57.2539 200.473 59.1445C200.473 60.4766 200.272 62.0378 199.871 63.8281L198.453 70.4453C198.367 70.7891 198.324 71.1471 198.324 71.5195C198.324 72.2357 198.467 72.5938 198.754 72.5938C199.112 72.5938 199.542 72.3431 200.043 71.8418C200.544 71.3262 200.974 70.8893 201.332 70.5312L201.59 70.2305C201.647 70.2305 201.755 70.3665 201.912 70.6387C202.07 70.9108 202.148 71.1042 202.148 71.2188C201.905 71.6341 201.461 72.1641 200.816 72.8086C200.186 73.4531 199.499 74.026 198.754 74.5273C198.009 75.0143 197.336 75.2578 196.734 75.2578C196.276 75.2578 195.918 75.0501 195.66 74.6348C195.402 74.2194 195.273 73.6823 195.273 73.0234C195.273 72.5938 195.374 71.8346 195.574 70.7461L197.078 63.6562C197.279 62.6823 197.379 61.9089 197.379 61.3359C197.379 60.1042 197.107 59.4883 196.562 59.4883C196.09 59.4883 195.452 59.8464 194.65 60.5625C193.848 61.2643 193.01 62.2025 192.137 63.377C191.277 64.5514 190.497 65.862 189.795 67.3086C189.093 68.7409 188.599 70.1875 188.312 71.6484L187.582 75C187.195 75.1146 186.751 75.1719 186.25 75.1719C185.763 75.1719 185.276 75.1146 184.789 75L187.324 61.7656C187.467 60.7773 187.539 60.2044 187.539 60.0469C187.539 59.3307 187.396 58.9727 187.109 58.9727C186.866 58.9727 186.501 59.2018 186.014 59.6602C185.785 59.8893 185.534 60.14 185.262 60.4121C185.004 60.6842 184.832 60.8776 184.746 60.9922C184.689 60.9922 184.581 60.8561 184.424 60.584C184.266 60.3118 184.188 60.1185 184.188 60.0039C184.417 59.6172 184.832 59.1374 185.434 58.5645C186.035 57.9772 186.68 57.4544 187.367 56.9961C188.055 56.5378 188.642 56.3086 189.129 56.3086Z" fill="white"/>
<path d="M0 14.4961C6.30012 20.0984 15.0791 19.1979 30.687 15.1421C32.2497 14.736 33.9168 14.9601 35.3059 15.7832L61.0905 31.063L35.3304 19.6141C33.9205 18.9874 32.3183 18.9353 30.8588 19.4358C12.5496 25.7159 4.73674 24.7283 0 14.4961Z" fill="url(#paint8_radial_692_1448)"/>
<path d="M16.5669 25.8858C22.7094 27.5488 34.4861 19.1752 43.5027 24.2129C35.7991 20.3448 24.9274 34.7378 16.5669 25.8858Z" fill="url(#paint9_radial_692_1448)"/>
<path d="M42.4528 34.1693C40.4746 32.9379 39.8039 31.791 39.5364 30.2054C39.314 28.8871 40.2138 27.6374 41.514 27.3262C46.4064 26.1551 49.6595 27.3172 54.8779 31.063C50.3759 26.3362 46.8249 25.2844 39.6469 25.78C38.7972 25.8387 38.0191 26.2751 37.5081 26.9564L36.1669 28.7446C35.6047 29.4943 35.6307 30.5432 36.2784 31.2205C38.4425 33.4837 39.9798 34.1156 42.4528 34.1693Z" fill="url(#paint10_radial_692_1448)"/>
<path d="M61.0905 28.9921C48.8725 19.5072 53.131 18.6378 60.0551 10.3543C56.6285 8.93238 54.8937 8.83857 52.8071 12.4252C51.2879 8.29387 49.7783 6.42726 45.559 4.14173C43.8524 8.52031 44.6321 10.6991 46.5945 14.4961C42.9378 12.0347 40.7471 11.3823 36.2402 13.4606C46.3046 17.727 45.2926 18.8748 61.0905 28.9921Z" fill="url(#paint11_radial_692_1448)"/>
<path d="M78.6929 22.7441C78.6929 22.1918 79.1406 21.7441 79.6929 21.7441H79.7638C80.3161 21.7441 80.7638 22.1918 80.7638 22.7441V25.9213C80.7638 26.4735 80.3161 26.9213 79.7638 26.9213H74.4803C73.3757 26.9213 72.4803 26.0258 72.4803 24.9213V19.6024C72.4803 18.4978 73.3757 17.6024 74.4803 17.6024H78.7281C80.6137 17.6024 82.4755 18.023 84.178 18.8337V18.8337C85.2965 19.3663 86.1249 20.3629 86.4441 21.5599L88.3399 28.6695C89.2063 31.9182 86.6836 35.0788 83.3237 34.9544L68.0679 34.3894C64.7776 34.2675 62.2002 31.5169 62.2923 28.2256L62.6948 13.8426C62.7856 10.5955 65.4441 8.01038 68.6924 8.01038H83.0387C86.0229 8.01038 88.8896 9.21712 90.915 11.4088C101.807 23.194 109.097 33.3225 115.395 32.2299C115.685 32.1796 115.968 32.3916 115.968 32.686V32.686C115.968 32.9325 115.766 33.1318 115.519 33.1285C109.37 33.045 105.37 32.4313 87.653 13.254C86.5367 12.0456 85.0793 11.1983 83.4735 10.8414L77.8584 9.59364C77.0431 9.41248 76.199 9.4035 75.3801 9.56728L71.091 10.4251C68.2865 10.986 66.2677 13.4485 66.2677 16.3086V27.0984C66.2677 29.8599 68.5063 32.0984 71.2677 32.0984H80.9055C83.1146 32.0984 84.9055 30.3076 84.9055 28.0984V22.6378C84.9055 20.4287 83.1146 18.6378 80.9055 18.6378H76.5512C75.4466 18.6378 74.5512 19.5332 74.5512 20.6378V24.8858C74.5512 25.4381 74.9989 25.8858 75.5512 25.8858H77.6929C78.2452 25.8858 78.6929 25.4381 78.6929 24.8858V22.7441Z" fill="url(#paint12_radial_692_1448)"/>
<path d="M104.412 33.0631C96.4743 29.9513 88.3242 12.4066 78.6929 13.4606C91.6665 19.2326 92.9183 31.4785 104.412 33.0631Z" fill="url(#paint13_radial_692_1448)"/>
<path d="M111.827 30.0276C106.485 21.6827 106.361 16.9143 110.791 8.28346C105.363 9.71409 97.6256 19.5114 111.827 30.0276Z" fill="url(#paint14_radial_692_1448)"/>
<path d="M118.039 10.3543C113.102 14.0549 110.405 23.2793 118.039 32.0984C106.33 25.6888 109.793 12.7713 118.039 0V10.3543Z" fill="url(#paint15_radial_692_1448)"/>
<path d="M236.079 14.4961C229.778 20.0984 221 19.1979 205.392 15.1421C203.829 14.736 202.162 14.9601 200.773 15.7832L174.988 31.063L200.748 19.6141C202.158 18.9874 203.76 18.9353 205.22 19.4358C223.529 25.7159 231.342 24.7283 236.079 14.4961Z" fill="url(#paint16_radial_692_1448)"/>
<path d="M219.512 25.8858C213.369 27.5488 201.593 19.1752 192.576 24.2129C200.279 20.3448 211.151 34.7378 219.512 25.8858Z" fill="url(#paint17_radial_692_1448)"/>
<path d="M193.626 34.1693C195.604 32.9379 196.275 31.791 196.542 30.2054C196.765 28.8871 195.865 27.6374 194.565 27.3262C189.672 26.1551 186.419 27.3172 181.201 31.063C185.703 26.3362 189.254 25.2844 196.432 25.78C197.281 25.8387 198.06 26.2751 198.571 26.9564L199.912 28.7446C200.474 29.4943 200.448 30.5432 199.8 31.2205C197.636 33.4837 196.099 34.1156 193.626 34.1693Z" fill="url(#paint18_radial_692_1448)"/>
<path d="M174.988 28.9921C187.206 19.5072 182.948 18.6378 176.024 10.3543C179.45 8.93238 181.185 8.83857 183.272 12.4252C184.791 8.29387 186.3 6.42726 190.52 4.14173C192.226 8.52031 191.446 10.6991 189.484 14.4961C193.141 12.0347 195.331 11.3823 199.838 13.4606C189.774 17.727 190.786 18.8748 174.988 28.9921Z" fill="url(#paint19_radial_692_1448)"/>
<path d="M157.386 22.7441C157.386 22.1918 156.938 21.7441 156.386 21.7441H156.315C155.763 21.7441 155.315 22.1918 155.315 22.7441V25.9213C155.315 26.4735 155.763 26.9213 156.315 26.9213H161.598C162.703 26.9213 163.598 26.0258 163.598 24.9213V19.6024C163.598 18.4978 162.703 17.6024 161.598 17.6024H157.351C155.465 17.6024 153.603 18.023 151.901 18.8337V18.8337C150.782 19.3663 149.954 20.3629 149.635 21.5599L147.739 28.6695C146.872 31.9182 149.395 35.0788 152.755 34.9544L168.011 34.3894C171.301 34.2675 173.878 31.5169 173.786 28.2256L173.384 13.8426C173.293 10.5955 170.635 8.01038 167.386 8.01038H153.04C150.056 8.01038 147.189 9.21712 145.164 11.4088C134.272 23.194 126.982 33.3225 120.683 32.2299C120.393 32.1796 120.11 32.3916 120.11 32.686V32.686C120.11 32.9325 120.313 33.1318 120.559 33.1285C126.708 33.045 130.709 32.4313 148.426 13.254C149.542 12.0456 150.999 11.1983 152.605 10.8414L158.22 9.59364C159.035 9.41248 159.88 9.4035 160.698 9.56728L164.988 10.4251C167.792 10.986 169.811 13.4485 169.811 16.3086V27.0984C169.811 29.8599 167.572 32.0984 164.811 32.0984H155.173C152.964 32.0984 151.173 30.3076 151.173 28.0984V22.6378C151.173 20.4287 152.964 18.6378 155.173 18.6378H159.527C160.632 18.6378 161.527 19.5332 161.527 20.6378V24.8858C161.527 25.4381 161.08 25.8858 160.527 25.8858H158.386C157.833 25.8858 157.386 25.4381 157.386 24.8858V22.7441Z" fill="url(#paint20_radial_692_1448)"/>
<path d="M131.666 33.0631C139.604 29.9513 147.754 12.4066 157.386 13.4606C144.412 19.2326 143.16 31.4785 131.666 33.0631Z" fill="url(#paint21_radial_692_1448)"/>
<path d="M124.252 30.0276C129.594 21.6827 129.718 16.9143 125.287 8.28346C130.716 9.71409 138.453 19.5114 124.252 30.0276Z" fill="url(#paint22_radial_692_1448)"/>
<path d="M118.039 10.3543C122.976 14.0549 125.673 23.2793 118.039 32.0984C129.749 25.6888 126.286 12.7713 118.039 0V10.3543Z" fill="url(#paint23_radial_692_1448)"/>
<defs>
<radialGradient id="paint0_radial_692_1448" cx="0" cy="0" r="1" gradientUnits="userSpaceOnUse" gradientTransform="translate(79.7285 111.309) scale(38.311 20.1909)">
<stop stop-color="#E1E1E1"/>
<stop offset="1" stop-color="#FFF4DA"/>
</radialGradient>
<radialGradient id="paint1_radial_692_1448" cx="0" cy="0" r="1" gradientUnits="userSpaceOnUse" gradientTransform="translate(79.7285 111.309) scale(38.311 20.1909)">
<stop stop-color="#E1E1E1"/>
<stop offset="1" stop-color="#FFF4DA"/>
</radialGradient>
<radialGradient id="paint2_radial_692_1448" cx="0" cy="0" r="1" gradientUnits="userSpaceOnUse" gradientTransform="translate(79.7285 111.309) scale(38.311 20.1909)">
<stop stop-color="#E1E1E1"/>
<stop offset="1" stop-color="#FFF4DA"/>
</radialGradient>
<radialGradient id="paint3_radial_692_1448" cx="0" cy="0" r="1" gradientUnits="userSpaceOnUse" gradientTransform="translate(79.7285 111.309) scale(38.311 20.1909)">
<stop stop-color="#E1E1E1"/>
<stop offset="1" stop-color="#FFF4DA"/>
</radialGradient>
<radialGradient id="paint4_radial_692_1448" cx="0" cy="0" r="1" gradientUnits="userSpaceOnUse" gradientTransform="translate(156.351 111.309) rotate(180) scale(38.311 20.1909)">
<stop stop-color="#E1E1E1"/>
<stop offset="1" stop-color="#FFF4DA"/>
</radialGradient>
<radialGradient id="paint5_radial_692_1448" cx="0" cy="0" r="1" gradientUnits="userSpaceOnUse" gradientTransform="translate(156.351 111.309) rotate(180) scale(38.311 20.1909)">
<stop stop-color="#E1E1E1"/>
<stop offset="1" stop-color="#FFF4DA"/>
</radialGradient>
<radialGradient id="paint6_radial_692_1448" cx="0" cy="0" r="1" gradientUnits="userSpaceOnUse" gradientTransform="translate(156.351 111.309) rotate(180) scale(38.311 20.1909)">
<stop stop-color="#E1E1E1"/>
<stop offset="1" stop-color="#FFF4DA"/>
</radialGradient>
<radialGradient id="paint7_radial_692_1448" cx="0" cy="0" r="1" gradientUnits="userSpaceOnUse" gradientTransform="translate(156.351 111.309) rotate(180) scale(38.311 20.1909)">
<stop stop-color="#E1E1E1"/>
<stop offset="1" stop-color="#FFF4DA"/>
</radialGradient>
<radialGradient id="paint8_radial_692_1448" cx="0" cy="0" r="1" gradientUnits="userSpaceOnUse" gradientTransform="translate(59.0197 17.6024) scale(59.0197 17.6024)">
<stop stop-color="#E1E1E1"/>
<stop offset="1" stop-color="#FFF4DA"/>
</radialGradient>
<radialGradient id="paint9_radial_692_1448" cx="0" cy="0" r="1" gradientUnits="userSpaceOnUse" gradientTransform="translate(59.0197 17.6024) scale(59.0197 17.6024)">
<stop stop-color="#E1E1E1"/>
<stop offset="1" stop-color="#FFF4DA"/>
</radialGradient>
<radialGradient id="paint10_radial_692_1448" cx="0" cy="0" r="1" gradientUnits="userSpaceOnUse" gradientTransform="translate(59.0197 17.6024) scale(59.0197 17.6024)">
<stop stop-color="#E1E1E1"/>
<stop offset="1" stop-color="#FFF4DA"/>
</radialGradient>
<radialGradient id="paint11_radial_692_1448" cx="0" cy="0" r="1" gradientUnits="userSpaceOnUse" gradientTransform="translate(59.0197 17.6024) scale(59.0197 17.6024)">
<stop stop-color="#E1E1E1"/>
<stop offset="1" stop-color="#FFF4DA"/>
</radialGradient>
<radialGradient id="paint12_radial_692_1448" cx="0" cy="0" r="1" gradientUnits="userSpaceOnUse" gradientTransform="translate(59.0197 17.6024) scale(59.0197 17.6024)">
<stop stop-color="#E1E1E1"/>
<stop offset="1" stop-color="#FFF4DA"/>
</radialGradient>
<radialGradient id="paint13_radial_692_1448" cx="0" cy="0" r="1" gradientUnits="userSpaceOnUse" gradientTransform="translate(59.0197 17.6024) scale(59.0197 17.6024)">
<stop stop-color="#E1E1E1"/>
<stop offset="1" stop-color="#FFF4DA"/>
</radialGradient>
<radialGradient id="paint14_radial_692_1448" cx="0" cy="0" r="1" gradientUnits="userSpaceOnUse" gradientTransform="translate(59.0197 17.6024) scale(59.0197 17.6024)">
<stop stop-color="#E1E1E1"/>
<stop offset="1" stop-color="#FFF4DA"/>
</radialGradient>
<radialGradient id="paint15_radial_692_1448" cx="0" cy="0" r="1" gradientUnits="userSpaceOnUse" gradientTransform="translate(59.0197 17.6024) scale(59.0197 17.6024)">
<stop stop-color="#E1E1E1"/>
<stop offset="1" stop-color="#FFF4DA"/>
</radialGradient>
<radialGradient id="paint16_radial_692_1448" cx="0" cy="0" r="1" gradientUnits="userSpaceOnUse" gradientTransform="translate(177.059 17.6024) rotate(180) scale(59.0197 17.6024)">
<stop stop-color="#E1E1E1"/>
<stop offset="1" stop-color="#FFF4DA"/>
</radialGradient>
<radialGradient id="paint17_radial_692_1448" cx="0" cy="0" r="1" gradientUnits="userSpaceOnUse" gradientTransform="translate(177.059 17.6024) rotate(180) scale(59.0197 17.6024)">
<stop stop-color="#E1E1E1"/>
<stop offset="1" stop-color="#FFF4DA"/>
</radialGradient>
<radialGradient id="paint18_radial_692_1448" cx="0" cy="0" r="1" gradientUnits="userSpaceOnUse" gradientTransform="translate(177.059 17.6024) rotate(180) scale(59.0197 17.6024)">
<stop stop-color="#E1E1E1"/>
<stop offset="1" stop-color="#FFF4DA"/>
</radialGradient>
<radialGradient id="paint19_radial_692_1448" cx="0" cy="0" r="1" gradientUnits="userSpaceOnUse" gradientTransform="translate(177.059 17.6024) rotate(180) scale(59.0197 17.6024)">
<stop stop-color="#E1E1E1"/>
<stop offset="1" stop-color="#FFF4DA"/>
</radialGradient>
<radialGradient id="paint20_radial_692_1448" cx="0" cy="0" r="1" gradientUnits="userSpaceOnUse" gradientTransform="translate(177.059 17.6024) rotate(180) scale(59.0197 17.6024)">
<stop stop-color="#E1E1E1"/>
<stop offset="1" stop-color="#FFF4DA"/>
</radialGradient>
<radialGradient id="paint21_radial_692_1448" cx="0" cy="0" r="1" gradientUnits="userSpaceOnUse" gradientTransform="translate(177.059 17.6024) rotate(180) scale(59.0197 17.6024)">
<stop stop-color="#E1E1E1"/>
<stop offset="1" stop-color="#FFF4DA"/>
</radialGradient>
<radialGradient id="paint22_radial_692_1448" cx="0" cy="0" r="1" gradientUnits="userSpaceOnUse" gradientTransform="translate(177.059 17.6024) rotate(180) scale(59.0197 17.6024)">
<stop stop-color="#E1E1E1"/>
<stop offset="1" stop-color="#FFF4DA"/>
</radialGradient>
<radialGradient id="paint23_radial_692_1448" cx="0" cy="0" r="1" gradientUnits="userSpaceOnUse" gradientTransform="translate(177.059 17.6024) rotate(180) scale(59.0197 17.6024)">
<stop stop-color="#E1E1E1"/>
<stop offset="1" stop-color="#FFF4DA"/>
</radialGradient>
</defs>
</svg>
