<svg width="237" height="132" viewBox="0 0 237 132" fill="none" xmlns="http://www.w3.org/2000/svg">
<path d="M50.713 108.06C49.3894 108.487 47.9219 108.504 46.7174 107.809C44.5799 106.575 44.1417 105.154 44.5239 102.508V102.508C42.8803 103.056 42.0634 104.953 43.0344 106.388C43.9981 107.812 45.0942 108.974 46.6272 110.246C47.9176 111.316 49.57 111.855 51.2463 111.812C56.4411 111.679 59.0354 110.851 62.1261 108.72C61.1055 110.641 61.1623 111.76 61.9889 113.6C62.061 113.76 62.2573 113.822 62.4081 113.731C64.083 112.73 65.0044 111.892 66.2679 109.756C66.2159 114.032 66.9848 113.977 70.4096 114.933C67.5199 110.86 68.053 109.221 70.1985 106.254C70.9963 105.151 72.1264 104.331 73.4058 103.866L78.5781 101.985C81.3347 100.982 84.3491 100.942 87.1317 101.869L104.174 107.55C104.308 107.435 104.443 107.326 104.579 107.223V104.508C104.579 103.403 105.474 102.508 106.579 102.508H108.791C109.896 102.508 110.791 103.403 110.791 104.508V105.614H111.827V103.472C111.827 102.368 110.931 101.472 109.827 101.472H105.543C104.439 101.472 103.543 102.368 103.543 103.472V106.65C98.7741 103.748 93.5326 101.584 86.7262 99.7769C82.8461 98.747 78.7539 99.0145 74.9333 100.247L50.713 108.06Z" fill="url(#paint0_radial_692_1802)"/>
<path fill-rule="evenodd" clip-rule="evenodd" d="M118.04 111.827V108.721C115.458 105.74 114.164 105.799 111.827 105.614H110.791C108.063 105.589 106.223 105.979 104.579 107.223V107.685L104.174 107.55C103.27 108.327 102.41 109.382 101.473 110.791C94.423 108.167 92.2423 105.859 84.6309 104.117C82.7932 103.696 80.8384 103.854 79.1738 104.739C77.1411 105.82 75.7483 107.075 74.4009 109.235C73.7981 110.201 73.7054 111.42 74.2151 112.438C75.05 114.107 76.2503 115.417 79.1381 117.128C80.1191 117.709 81.351 117.62 82.2789 116.957L86.2804 114.099C87.2189 113.429 87.4133 112.09 86.6216 111.251C84.8307 109.354 83.7232 109.09 81.7994 109.756C83.0247 110.067 83.7478 110.456 84.3965 111.688C84.7601 112.378 84.5523 113.216 84.0005 113.767L82.2759 115.492C81.3711 116.397 79.9668 116.664 78.906 115.948C77.392 114.927 76.4786 113.802 75.488 112.283C74.8942 111.372 74.8544 110.185 75.4804 109.296C77.1885 106.871 79.0768 106.022 82.8348 105.614C87.5143 105.758 93.9739 109.592 101.473 112.862C101.611 115.305 101.827 117.608 105.431 119.531C106.15 119.915 107.027 119.733 107.604 119.156L110.252 116.508C110.55 116.21 110.55 115.727 110.252 115.429V115.429C109.972 115.149 109.522 115.134 109.211 115.381C104.883 118.812 103.35 117.017 102.508 112.862C108.785 113.743 111.601 112.063 112.862 106.65H114.933L118.04 111.827ZM102.508 111.827C105.324 107.593 107.417 106.549 111.827 106.65C109.582 111.782 107.624 113.001 102.508 111.827Z" fill="url(#paint1_radial_692_1802)"/>
<path d="M118.04 114.933V111.827C116.112 115.763 116.189 118.074 110.791 119.075C111.96 121.038 112.806 121.636 114.933 121.146C115.325 125.201 115.718 127.472 118.04 131.5V125.287C116.703 121.107 116.953 118.865 118.04 114.933Z" fill="url(#paint2_radial_692_1802)"/>
<path d="M115.969 98.3662C116.06 94.792 116.696 93.3936 118.04 91.1182V105.614C115.723 100.811 114.342 99.4138 111.827 99.4015C113.365 97.8121 114.277 97.3638 115.969 98.3662Z" fill="url(#paint3_radial_692_1802)"/>
<path d="M185.366 108.06C186.69 108.487 188.157 108.504 189.362 107.809C191.499 106.575 191.937 105.154 191.555 102.508V102.508C193.199 103.056 194.016 104.953 193.045 106.388C192.081 107.812 190.985 108.974 189.452 110.246C188.161 111.316 186.509 111.855 184.833 111.812C179.638 111.679 177.044 110.851 173.953 108.72C174.974 110.641 174.917 111.76 174.09 113.6C174.018 113.76 173.822 113.822 173.671 113.731C171.996 112.73 171.075 111.892 169.811 109.756C169.863 114.032 169.094 113.977 165.669 114.933C168.559 110.86 168.026 109.221 165.881 106.254C165.083 105.151 163.953 104.331 162.673 103.866L157.501 101.985C154.744 100.982 151.73 100.942 148.947 101.869L131.905 107.55C131.771 107.435 131.636 107.326 131.5 107.223V104.508C131.5 103.403 130.605 102.508 129.5 102.508H127.288C126.183 102.508 125.288 103.403 125.288 104.508V105.614H124.252V103.472C124.252 102.368 125.148 101.472 126.252 101.472H130.536C131.64 101.472 132.536 102.368 132.536 103.472V106.65C137.305 103.748 142.547 101.584 149.353 99.7769C153.233 98.747 157.325 99.0145 161.146 100.247L185.366 108.06Z" fill="url(#paint4_radial_692_1802)"/>
<path fill-rule="evenodd" clip-rule="evenodd" d="M118.04 111.827V108.721C120.621 105.74 121.915 105.799 124.252 105.614H125.288C128.016 105.589 129.856 105.979 131.5 107.223V107.685L131.905 107.55C132.809 108.327 133.669 109.382 134.607 110.791C141.656 108.167 143.837 105.859 151.448 104.117C153.286 103.696 155.241 103.854 156.905 104.739C158.938 105.82 160.331 107.075 161.678 109.235C162.281 110.201 162.374 111.42 161.864 112.438C161.029 114.107 159.829 115.417 156.941 117.128C155.96 117.709 154.728 117.62 153.8 116.957L149.799 114.099C148.86 113.429 148.666 112.09 149.457 111.251C151.248 109.354 152.356 109.09 154.28 109.756C153.054 110.067 152.331 110.456 151.683 111.688C151.319 112.378 151.527 113.216 152.079 113.767L153.803 115.492C154.708 116.397 156.112 116.664 157.173 115.948C158.687 114.927 159.601 113.802 160.591 112.283C161.185 111.372 161.225 110.185 160.599 109.296C158.891 106.871 157.002 106.022 153.244 105.614C148.565 105.758 142.105 109.592 134.607 112.862C134.468 115.305 134.252 117.608 130.648 119.531C129.929 119.915 129.052 119.733 128.475 119.156L125.827 116.508C125.529 116.21 125.529 115.727 125.827 115.429V115.429C126.107 115.149 126.557 115.134 126.868 115.381C131.196 118.812 132.729 117.017 133.571 112.862C127.294 113.743 124.479 112.063 123.217 106.65H121.146L118.04 111.827ZM133.571 111.827C130.755 107.593 128.662 106.549 124.252 106.65C126.497 111.782 128.455 113.001 133.571 111.827Z" fill="url(#paint5_radial_692_1802)"/>
<path d="M118.04 114.933V111.827C119.967 115.763 119.89 118.074 125.288 119.075C124.119 121.038 123.273 121.636 121.146 121.146C120.755 125.201 120.362 127.472 118.04 131.5V125.287C119.376 121.107 119.126 118.865 118.04 114.933Z" fill="url(#paint6_radial_692_1802)"/>
<path d="M120.11 98.3662C120.019 94.792 119.383 93.3936 118.04 91.1182V105.614C120.356 100.811 121.737 99.4138 124.252 99.4015C122.714 97.8121 121.802 97.3638 120.11 98.3662Z" fill="url(#paint7_radial_692_1802)"/>
<path d="M53.5508 67.9531L61.1992 52.5273L63.9062 46.7266C64.6797 46.8125 65.8112 46.8555 67.3008 46.8555C67.8021 46.8555 68.3607 46.8411 68.9766 46.8125C69.6068 46.7839 70.2943 46.7409 71.0391 46.6836C71.0964 46.8268 71.0964 47.0703 71.0391 47.4141C70.9818 47.7578 70.9102 47.9297 70.8242 47.9297C70.4518 47.9297 70.0579 48.0299 69.6426 48.2305C69.2272 48.431 68.9193 48.6745 68.7188 48.9609C68.4609 49.3047 68.2676 49.7201 68.1387 50.207C68.0241 50.651 67.888 51.5104 67.7305 52.7852L66.0547 69.1992C65.8828 70.6745 65.7969 71.806 65.7969 72.5938C65.7969 73.1953 66.0189 73.5749 66.4629 73.7324C66.7207 73.8184 67.0286 73.8828 67.3867 73.9258C67.7591 73.9544 68.0599 73.9688 68.2891 73.9688C68.3464 73.9688 68.375 74.0977 68.375 74.3555C68.375 74.6992 68.2891 74.957 68.1172 75.1289C66.7852 75.0573 65.7253 75.0072 64.9375 74.9785C64.1641 74.9355 63.6628 74.9141 63.4336 74.9141C63.3906 74.9141 62.9896 74.9355 62.2305 74.9785C61.4857 75.0072 60.3828 75.0573 58.9219 75.1289C58.8646 75.0286 58.8359 74.957 58.8359 74.9141C58.8359 74.7422 58.8717 74.5417 58.9434 74.3125C59.015 74.0833 59.0794 73.9688 59.1367 73.9688C59.3945 73.9688 59.7168 73.9401 60.1035 73.8828C60.5046 73.8112 60.877 73.7181 61.2207 73.6035C61.5645 73.4746 61.7721 73.3385 61.8438 73.1953C62.1302 72.5365 62.3307 71.9277 62.4453 71.3691C62.474 71.2116 62.5169 70.8678 62.5742 70.3379C62.6315 69.8079 62.6745 69.4714 62.7031 69.3281L64.4219 52.5703C64.5078 51.7109 64.5508 51.1523 64.5508 50.8945C64.5508 50.7227 64.4648 50.6367 64.293 50.6367C64.2786 50.6367 64.2357 50.694 64.1641 50.8086L52.9492 73.668C52.806 73.9258 52.5339 74.2266 52.1328 74.5703C51.7318 74.9141 51.3594 75.0859 51.0156 75.0859C50.8867 75.0859 50.7721 75.0573 50.6719 75L47.0195 50.6367C47.0052 50.5794 46.9766 50.5508 46.9336 50.5508C46.8477 50.5508 46.8047 50.5794 46.8047 50.6367L41.7773 69.1562C41.2331 71.1328 40.9609 72.3216 40.9609 72.7227C40.9609 72.9232 41.1686 73.1237 41.584 73.3242C42.0137 73.5104 42.4648 73.668 42.9375 73.7969C43.4245 73.9115 43.7396 73.9688 43.8828 73.9688C43.9401 73.9688 43.9688 74.0547 43.9688 74.2266C43.9688 74.556 43.8971 74.8568 43.7539 75.1289C42.4219 75.0573 41.3835 75.0072 40.6387 74.9785C39.8939 74.9355 39.4427 74.9141 39.2852 74.9141C39.2422 74.9141 38.8268 74.9355 38.0391 74.9785C37.2513 75.0072 36.0911 75.0573 34.5586 75.1289C34.5013 75.0716 34.4727 74.9284 34.4727 74.6992C34.4727 74.2122 34.5729 73.9688 34.7734 73.9688C35.0026 73.9688 35.3678 73.9186 35.8691 73.8184C36.3704 73.7038 36.8431 73.5677 37.2871 73.4102C37.7454 73.2383 38.0104 73.0807 38.082 72.9375C38.5833 71.9922 39.056 70.7174 39.5 69.1133L44.1836 52.3125C44.2982 51.7539 44.4199 51.2025 44.5488 50.6582C44.6777 50.0996 44.7422 49.5625 44.7422 49.0469C44.7422 48.832 44.5417 48.6387 44.1406 48.4668C43.7396 48.2949 43.3027 48.1589 42.8301 48.0586C42.3717 47.944 42.0352 47.8867 41.8203 47.8867C41.763 47.8867 41.7344 47.7865 41.7344 47.5859C41.7344 47.1133 41.8203 46.8268 41.9922 46.7266C43.0521 46.7552 43.9186 46.7767 44.5918 46.791C45.265 46.8053 45.7448 46.8125 46.0312 46.8125C46.8477 46.8125 47.5924 46.8053 48.2656 46.791C48.9531 46.7767 49.569 46.7552 50.1133 46.7266C50.2422 47.901 50.5788 50.2643 51.123 53.8164C51.6673 57.3542 52.4193 62.0807 53.3789 67.9961C53.3789 68.0247 53.3932 68.0391 53.4219 68.0391C53.5078 68.0391 53.5508 68.0104 53.5508 67.9531ZM77.1406 56.3086C77.599 56.3086 77.957 56.5163 78.2148 56.9316C78.4727 57.347 78.6016 57.8841 78.6016 58.543C78.6016 59.3021 78.5156 60.0612 78.3438 60.8203L76.8398 67.9102C76.6393 68.7839 76.5391 69.5573 76.5391 70.2305C76.5391 71.4622 76.8112 72.0781 77.3555 72.0781C77.6706 72.0781 78.0573 71.8991 78.5156 71.541C78.9883 71.1829 79.4753 70.7246 79.9766 70.166C80.4922 69.6074 80.972 69.0345 81.416 68.4473C82.2324 67.373 83.0059 66.0625 83.7363 64.5156C84.4668 62.9688 84.9753 61.4362 85.2617 59.918L85.9922 56.5664C86.3789 56.4518 86.8229 56.3945 87.3242 56.3945C87.8112 56.3945 88.2982 56.4518 88.7852 56.5664L86.1211 70.4453C86.0352 70.7891 85.9922 71.1471 85.9922 71.5195C85.9922 72.2357 86.1354 72.5938 86.4219 72.5938C86.7799 72.5938 87.2096 72.3431 87.7109 71.8418C88.2122 71.3262 88.6419 70.8893 89 70.5312L89.2578 70.2305C89.3151 70.2305 89.4225 70.3665 89.5801 70.6387C89.7376 70.9108 89.8164 71.1042 89.8164 71.2188C89.5729 71.6341 89.1289 72.1641 88.4844 72.8086C87.8542 73.4531 87.1667 74.026 86.4219 74.5273C85.6771 75.0143 85.0039 75.2578 84.4023 75.2578C83.944 75.2578 83.5859 75.0501 83.3281 74.6348C83.0703 74.2194 82.9414 73.6823 82.9414 73.0234C82.9414 72.5938 83.0417 71.8346 83.2422 70.7461L84.0156 66.793C83.7435 67.3086 83.1562 68.1966 82.2539 69.457C81.6667 70.2734 80.9577 71.1328 80.127 72.0352C79.3105 72.9375 78.4941 73.7038 77.6777 74.334C76.8613 74.9499 76.1667 75.2578 75.5938 75.2578C74.1615 75.2578 73.4453 74.3125 73.4453 72.4219C73.4453 71.0755 73.6458 69.5143 74.0469 67.7383L75.3359 61.7656C75.4792 60.7773 75.5508 60.2044 75.5508 60.0469C75.5508 59.3307 75.4076 58.9727 75.1211 58.9727C74.8776 58.9727 74.5124 59.2018 74.0254 59.6602C73.7962 59.8893 73.5456 60.14 73.2734 60.4121C73.0156 60.6842 72.8438 60.8776 72.7578 60.9922C72.7005 60.9922 72.5931 60.8561 72.4355 60.584C72.278 60.3118 72.1992 60.1185 72.1992 60.0039C72.4284 59.6172 72.8438 59.1374 73.4453 58.5645C74.0469 57.9772 74.6914 57.4544 75.3789 56.9961C76.0664 56.5378 76.6536 56.3086 77.1406 56.3086ZM97.8516 56.3086C98.3099 56.3086 98.668 56.5163 98.9258 56.9316C99.1836 57.347 99.3125 57.8841 99.3125 58.543C99.3125 59.1732 99.2266 59.9323 99.0547 60.8203L98.2812 64.7734C98.5534 64.2865 99.1764 63.3984 100.15 62.1094C100.795 61.2643 101.54 60.3978 102.385 59.5098C103.244 58.6074 104.089 57.8483 104.92 57.2324C105.765 56.6165 106.474 56.3086 107.047 56.3086C108.479 56.3086 109.195 57.2539 109.195 59.1445C109.195 60.4766 108.995 62.0378 108.594 63.8281L107.176 70.4453C107.09 70.7891 107.047 71.1471 107.047 71.5195C107.047 72.2357 107.19 72.5938 107.477 72.5938C107.835 72.5938 108.264 72.3431 108.766 71.8418C109.267 71.3262 109.697 70.8893 110.055 70.5312L110.312 70.2305C110.37 70.2305 110.477 70.3665 110.635 70.6387C110.792 70.9108 110.871 71.1042 110.871 71.2188C110.628 71.6341 110.184 72.1641 109.539 72.8086C108.909 73.4531 108.221 74.026 107.477 74.5273C106.732 75.0143 106.059 75.2578 105.457 75.2578C104.999 75.2578 104.641 75.0501 104.383 74.6348C104.125 74.2194 103.996 73.6823 103.996 73.0234C103.996 72.5938 104.096 71.8346 104.297 70.7461L105.801 63.6562C106.001 62.6823 106.102 61.9089 106.102 61.3359C106.102 60.1042 105.829 59.4883 105.285 59.4883C104.812 59.4883 104.175 59.8464 103.373 60.5625C102.571 61.2643 101.733 62.2025 100.859 63.377C100 64.5514 99.2194 65.862 98.5176 67.3086C97.8158 68.7409 97.3216 70.1875 97.0352 71.6484L96.3047 75C95.918 75.1146 95.474 75.1719 94.9727 75.1719C94.4857 75.1719 93.9987 75.1146 93.5117 75L96.0469 61.7656C96.1901 60.7773 96.2617 60.2044 96.2617 60.0469C96.2617 59.3307 96.1185 58.9727 95.832 58.9727C95.5885 58.9727 95.2233 59.2018 94.7363 59.6602C94.5072 59.8893 94.2565 60.14 93.9844 60.4121C93.7266 60.6842 93.5547 60.8776 93.4688 60.9922C93.4115 60.9922 93.304 60.8561 93.1465 60.584C92.9889 60.3118 92.9102 60.1185 92.9102 60.0039C93.1393 59.6172 93.5547 59.1374 94.1562 58.5645C94.7578 57.9772 95.4023 57.4544 96.0898 56.9961C96.7773 56.5378 97.3646 56.3086 97.8516 56.3086ZM122.773 56.3086C124.464 56.3086 125.774 56.8958 126.705 58.0703C127.636 59.2448 128.102 60.8633 128.102 62.9258C128.102 64.401 127.815 65.8691 127.242 67.3301C126.669 68.7767 125.917 70.0944 124.986 71.2832C124.055 72.472 123.031 73.4245 121.914 74.1406C120.797 74.8568 119.694 75.2148 118.605 75.2148C116.887 75.2148 115.576 74.6562 114.674 73.5391C113.771 72.4219 113.32 70.832 113.32 68.7695C113.32 67.2799 113.6 65.8047 114.158 64.3438C114.731 62.8685 115.483 61.5293 116.414 60.3262C117.345 59.1087 118.362 58.1348 119.465 57.4043C120.582 56.6738 121.685 56.3086 122.773 56.3086ZM122.258 58.0703C121.542 58.0703 120.847 58.3854 120.174 59.0156C119.501 59.6315 118.892 60.4408 118.348 61.4434C117.803 62.446 117.374 63.5417 117.059 64.7305C116.743 65.9193 116.586 67.0794 116.586 68.2109C116.586 69.8724 116.851 71.1615 117.381 72.0781C117.911 72.9948 118.577 73.4531 119.379 73.4531C120.095 73.4531 120.775 73.1452 121.42 72.5293C122.079 71.8991 122.666 71.0827 123.182 70.0801C123.697 69.0632 124.098 67.9603 124.385 66.7715C124.686 65.5827 124.836 64.4154 124.836 63.2695C124.836 61.5794 124.607 60.2904 124.148 59.4023C123.69 58.5143 123.06 58.0703 122.258 58.0703ZM145.504 44.9648C147.337 44.9648 148.512 45.4518 149.027 46.4258C149.027 48.2878 148.512 49.2188 147.48 49.2188C147.022 49.2188 146.614 49.0039 146.256 48.5742C145.912 48.1302 145.561 47.6934 145.203 47.2637C144.859 46.8197 144.444 46.5977 143.957 46.5977C143.04 46.5977 142.066 47.5358 141.035 49.4121C140.018 51.2598 139.216 53.8737 138.629 57.2539V57.3398C138.629 57.4544 138.672 57.5117 138.758 57.5117H143.699C143.842 57.5117 143.914 57.6836 143.914 58.0273C143.914 58.5 143.757 58.987 143.441 59.4883H138.414C138.257 59.4883 138.171 59.6029 138.156 59.832L135.793 72.6797C135.105 76.6615 133.895 79.6979 132.162 81.7891C130.429 83.8802 128.546 84.9258 126.512 84.9258C125.509 84.9258 124.721 84.7467 124.148 84.3887C123.576 84.0306 123.203 83.6224 123.031 83.1641C123.003 82.5052 123.16 81.918 123.504 81.4023C123.848 80.8867 124.277 80.6289 124.793 80.6289C125.194 80.6289 125.545 80.8438 125.846 81.2734C126.132 81.7174 126.44 82.1543 126.77 82.584C127.085 83.028 127.486 83.25 127.973 83.25C128.546 83.25 129.083 82.9134 129.584 82.2402C130.1 81.5814 130.565 80.7578 130.98 79.7695C131.396 78.7812 131.74 77.793 132.012 76.8047C132.284 75.8164 132.47 75 132.57 74.3555L135.148 59.7891V59.7031C135.148 59.5599 135.105 59.4883 135.02 59.4883H132.227C132.169 59.4883 132.141 59.4453 132.141 59.3594C132.141 59.1875 132.248 58.9583 132.463 58.6719C132.678 58.3711 132.943 58.1061 133.258 57.877C133.587 57.6335 133.902 57.5117 134.203 57.5117H135.449C135.564 57.5117 135.65 57.3828 135.707 57.125C136.094 54.776 136.781 52.6849 137.77 50.8516C138.772 49.0182 139.947 47.5788 141.293 46.5332C142.654 45.4876 144.057 44.9648 145.504 44.9648ZM151.348 47.2422C151.777 47.2422 152.143 47.4141 152.443 47.7578C152.744 48.1016 152.895 48.5026 152.895 48.9609C152.895 49.6484 152.673 50.25 152.229 50.7656C151.785 51.2812 151.233 51.5391 150.574 51.5391C150.116 51.5391 149.758 51.36 149.5 51.002C149.242 50.6439 149.113 50.207 149.113 49.6914C149.113 49.0326 149.328 48.4596 149.758 47.9727C150.188 47.4857 150.717 47.2422 151.348 47.2422ZM150.102 56.3086C150.56 56.3086 150.918 56.5163 151.176 56.9316C151.434 57.347 151.562 57.8841 151.562 58.543C151.562 59.1302 151.477 59.8893 151.305 60.8203L149.414 70.4453C149.328 70.7891 149.285 71.1471 149.285 71.5195C149.285 72.2357 149.428 72.5938 149.715 72.5938C150.073 72.5938 150.503 72.3431 151.004 71.8418C151.505 71.3262 151.935 70.8893 152.293 70.5312L152.551 70.2305C152.608 70.2305 152.715 70.3665 152.873 70.6387C153.031 70.9108 153.109 71.1042 153.109 71.2188C152.866 71.6341 152.422 72.1641 151.777 72.8086C151.147 73.4531 150.46 74.026 149.715 74.5273C148.97 75.0143 148.297 75.2578 147.695 75.2578C147.237 75.2578 146.879 75.0501 146.621 74.6348C146.363 74.2194 146.234 73.6823 146.234 73.0234C146.234 72.5938 146.335 71.8346 146.535 70.7461L148.297 61.7656C148.44 60.9206 148.512 60.3477 148.512 60.0469C148.512 59.3307 148.368 58.9727 148.082 58.9727C147.91 58.9727 147.674 59.0872 147.373 59.3164C147.087 59.5456 146.807 59.8034 146.535 60.0898C146.263 60.362 146.062 60.5768 145.934 60.7344L145.719 60.9922C145.661 60.9922 145.554 60.8561 145.396 60.584C145.239 60.3118 145.16 60.1185 145.16 60.0039C145.389 59.6172 145.805 59.1374 146.406 58.5645C147.008 57.9772 147.652 57.4544 148.34 56.9961C149.027 56.5378 149.615 56.3086 150.102 56.3086ZM168.621 56.3086C169.882 56.3086 171.027 56.4948 172.059 56.8672L169.438 70.4453L167.504 81.3164C167.447 81.7174 167.418 82.0182 167.418 82.2188C167.418 82.6914 167.568 83.0208 167.869 83.207C168.184 83.4076 168.693 83.5078 169.395 83.5078C169.452 83.5078 169.48 83.5938 169.48 83.7656C169.48 84.224 169.409 84.5677 169.266 84.7969C169.165 84.7969 169.044 84.7969 168.9 84.7969C168.757 84.7969 168.585 84.7897 168.385 84.7754C168.199 84.7611 168.034 84.7539 167.891 84.7539C167.747 84.7539 167.633 84.7539 167.547 84.7539C165.456 84.7539 163.379 84.8685 161.316 85.0977C161.316 85.026 161.309 84.9473 161.295 84.8613C161.281 84.7754 161.273 84.6823 161.273 84.582C161.273 84.0664 161.345 83.8086 161.488 83.8086C161.746 83.8086 162.025 83.7871 162.326 83.7441C162.627 83.7012 163.042 83.472 163.572 83.0566C164.102 82.6413 164.439 82.0612 164.582 81.3164L166.773 69.6289C166.573 69.9727 166.344 70.3307 166.086 70.7031C165.842 71.0612 165.57 71.4264 165.27 71.7988C164.868 72.3001 164.382 72.8158 163.809 73.3457C163.236 73.8757 162.648 74.3197 162.047 74.6777C161.46 75.0358 160.915 75.2148 160.414 75.2148C159.154 75.2148 158.151 74.6491 157.406 73.5176C156.661 72.3861 156.289 71.0182 156.289 69.4141C156.289 67.3802 156.905 65.3392 158.137 63.291C158.967 61.916 159.949 60.7057 161.08 59.6602C162.226 58.6146 163.451 57.7982 164.754 57.2109C166.057 56.6094 167.346 56.3086 168.621 56.3086ZM166.773 58.2852C165.842 58.2852 164.94 58.5788 164.066 59.166C163.193 59.7533 162.412 60.5267 161.725 61.4863C161.037 62.446 160.486 63.513 160.07 64.6875C159.669 65.8477 159.469 67.0078 159.469 68.168C159.469 71.2044 160.214 72.7227 161.703 72.7227C162.233 72.7227 162.813 72.4362 163.443 71.8633C164.088 71.276 164.718 70.5098 165.334 69.5645C165.95 68.6191 166.494 67.5951 166.967 66.4922C167.454 65.375 167.805 64.2865 168.02 63.2266L168.879 58.8438C168.535 58.4714 167.833 58.2852 166.773 58.2852ZM178.934 56.3086C179.392 56.3086 179.75 56.5163 180.008 56.9316C180.266 57.347 180.395 57.8841 180.395 58.543C180.395 59.3021 180.309 60.0612 180.137 60.8203L178.633 67.9102C178.432 68.7839 178.332 69.5573 178.332 70.2305C178.332 71.4622 178.604 72.0781 179.148 72.0781C179.464 72.0781 179.85 71.8991 180.309 71.541C180.781 71.1829 181.268 70.7246 181.77 70.166C182.285 69.6074 182.765 69.0345 183.209 68.4473C184.025 67.373 184.799 66.0625 185.529 64.5156C186.26 62.9688 186.768 61.4362 187.055 59.918L187.785 56.5664C188.172 56.4518 188.616 56.3945 189.117 56.3945C189.604 56.3945 190.091 56.4518 190.578 56.5664L187.914 70.4453C187.828 70.7891 187.785 71.1471 187.785 71.5195C187.785 72.2357 187.928 72.5938 188.215 72.5938C188.573 72.5938 189.003 72.3431 189.504 71.8418C190.005 71.3262 190.435 70.8893 190.793 70.5312L191.051 70.2305C191.108 70.2305 191.215 70.3665 191.373 70.6387C191.531 70.9108 191.609 71.1042 191.609 71.2188C191.366 71.6341 190.922 72.1641 190.277 72.8086C189.647 73.4531 188.96 74.026 188.215 74.5273C187.47 75.0143 186.797 75.2578 186.195 75.2578C185.737 75.2578 185.379 75.0501 185.121 74.6348C184.863 74.2194 184.734 73.6823 184.734 73.0234C184.734 72.5938 184.835 71.8346 185.035 70.7461L185.809 66.793C185.536 67.3086 184.949 68.1966 184.047 69.457C183.46 70.2734 182.751 71.1328 181.92 72.0352C181.104 72.9375 180.287 73.7038 179.471 74.334C178.654 74.9499 177.96 75.2578 177.387 75.2578C175.954 75.2578 175.238 74.3125 175.238 72.4219C175.238 71.0755 175.439 69.5143 175.84 67.7383L177.129 61.7656C177.272 60.7773 177.344 60.2044 177.344 60.0469C177.344 59.3307 177.201 58.9727 176.914 58.9727C176.671 58.9727 176.305 59.2018 175.818 59.6602C175.589 59.8893 175.339 60.14 175.066 60.4121C174.809 60.6842 174.637 60.8776 174.551 60.9922C174.493 60.9922 174.386 60.8561 174.229 60.584C174.071 60.3118 173.992 60.1185 173.992 60.0039C174.221 59.6172 174.637 59.1374 175.238 58.5645C175.84 57.9772 176.484 57.4544 177.172 56.9961C177.859 56.5378 178.447 56.3086 178.934 56.3086ZM199.645 56.3086C200.103 56.3086 200.461 56.5163 200.719 56.9316C200.977 57.347 201.105 57.8841 201.105 58.543C201.105 59.1732 201.02 59.9323 200.848 60.8203L200.074 64.7734C200.346 64.2865 200.969 63.3984 201.943 62.1094C202.588 61.2643 203.333 60.3978 204.178 59.5098C205.037 58.6074 205.882 57.8483 206.713 57.2324C207.558 56.6165 208.267 56.3086 208.84 56.3086C210.272 56.3086 210.988 57.2539 210.988 59.1445C210.988 60.4766 210.788 62.0378 210.387 63.8281L208.969 70.4453C208.883 70.7891 208.84 71.1471 208.84 71.5195C208.84 72.2357 208.983 72.5938 209.27 72.5938C209.628 72.5938 210.057 72.3431 210.559 71.8418C211.06 71.3262 211.49 70.8893 211.848 70.5312L212.105 70.2305C212.163 70.2305 212.27 70.3665 212.428 70.6387C212.585 70.9108 212.664 71.1042 212.664 71.2188C212.421 71.6341 211.977 72.1641 211.332 72.8086C210.702 73.4531 210.014 74.026 209.27 74.5273C208.525 75.0143 207.852 75.2578 207.25 75.2578C206.792 75.2578 206.434 75.0501 206.176 74.6348C205.918 74.2194 205.789 73.6823 205.789 73.0234C205.789 72.5938 205.889 71.8346 206.09 70.7461L207.594 63.6562C207.794 62.6823 207.895 61.9089 207.895 61.3359C207.895 60.1042 207.622 59.4883 207.078 59.4883C206.605 59.4883 205.968 59.8464 205.166 60.5625C204.364 61.2643 203.526 62.2025 202.652 63.377C201.793 64.5514 201.012 65.862 200.311 67.3086C199.609 68.7409 199.115 70.1875 198.828 71.6484L198.098 75C197.711 75.1146 197.267 75.1719 196.766 75.1719C196.279 75.1719 195.792 75.1146 195.305 75L197.84 61.7656C197.983 60.7773 198.055 60.2044 198.055 60.0469C198.055 59.3307 197.911 58.9727 197.625 58.9727C197.382 58.9727 197.016 59.2018 196.529 59.6602C196.3 59.8893 196.049 60.14 195.777 60.4121C195.52 60.6842 195.348 60.8776 195.262 60.9922C195.204 60.9922 195.097 60.8561 194.939 60.584C194.782 60.3118 194.703 60.1185 194.703 60.0039C194.932 59.6172 195.348 59.1374 195.949 58.5645C196.551 57.9772 197.195 57.4544 197.883 56.9961C198.57 56.5378 199.158 56.3086 199.645 56.3086Z" fill="white"/>
<path d="M0 14.4961C6.30012 20.0984 15.0791 19.1979 30.687 15.1421C32.2497 14.736 33.9168 14.9601 35.3059 15.7832L61.0905 31.063L35.3304 19.6141C33.9205 18.9874 32.3183 18.9353 30.8588 19.4358C12.5496 25.7159 4.73674 24.7283 0 14.4961Z" fill="url(#paint8_radial_692_1802)"/>
<path d="M16.5669 25.8858C22.7094 27.5488 34.4861 19.1752 43.5027 24.2129C35.7991 20.3448 24.9274 34.7378 16.5669 25.8858Z" fill="url(#paint9_radial_692_1802)"/>
<path d="M42.4528 34.1693C40.4746 32.9379 39.8039 31.791 39.5364 30.2054C39.314 28.8871 40.2138 27.6374 41.514 27.3262C46.4064 26.1551 49.6595 27.3172 54.8779 31.063C50.3759 26.3362 46.8249 25.2844 39.6469 25.78C38.7972 25.8387 38.0191 26.2751 37.5081 26.9564L36.1669 28.7446C35.6047 29.4943 35.6307 30.5432 36.2784 31.2205C38.4425 33.4837 39.9798 34.1156 42.4528 34.1693Z" fill="url(#paint10_radial_692_1802)"/>
<path d="M61.0905 28.9921C48.8725 19.5072 53.131 18.6378 60.0551 10.3543C56.6285 8.93238 54.8937 8.83857 52.8071 12.4252C51.2879 8.29387 49.7783 6.42726 45.559 4.14173C43.8524 8.52031 44.6321 10.6991 46.5945 14.4961C42.9378 12.0347 40.7471 11.3823 36.2402 13.4606C46.3046 17.727 45.2926 18.8748 61.0905 28.9921Z" fill="url(#paint11_radial_692_1802)"/>
<path d="M78.6929 22.7441C78.6929 22.1918 79.1406 21.7441 79.6929 21.7441H79.7638C80.3161 21.7441 80.7638 22.1918 80.7638 22.7441V25.9213C80.7638 26.4735 80.3161 26.9213 79.7638 26.9213H74.4803C73.3757 26.9213 72.4803 26.0258 72.4803 24.9213V19.6024C72.4803 18.4978 73.3757 17.6024 74.4803 17.6024H78.7281C80.6137 17.6024 82.4755 18.023 84.178 18.8337V18.8337C85.2965 19.3663 86.1249 20.3629 86.4441 21.5599L88.3399 28.6695C89.2063 31.9182 86.6836 35.0788 83.3237 34.9544L68.0679 34.3894C64.7776 34.2675 62.2002 31.5169 62.2923 28.2256L62.6948 13.8426C62.7856 10.5955 65.4441 8.01038 68.6924 8.01038H83.0387C86.0229 8.01038 88.8896 9.21712 90.915 11.4088C101.807 23.194 109.097 33.3225 115.395 32.2299C115.685 32.1796 115.968 32.3916 115.968 32.686V32.686C115.968 32.9325 115.766 33.1318 115.519 33.1285C109.37 33.045 105.37 32.4313 87.653 13.254C86.5367 12.0456 85.0793 11.1983 83.4735 10.8414L77.8584 9.59364C77.0431 9.41248 76.199 9.4035 75.3801 9.56728L71.091 10.4251C68.2865 10.986 66.2677 13.4485 66.2677 16.3086V27.0984C66.2677 29.8599 68.5063 32.0984 71.2677 32.0984H80.9055C83.1146 32.0984 84.9055 30.3076 84.9055 28.0984V22.6378C84.9055 20.4287 83.1146 18.6378 80.9055 18.6378H76.5512C75.4466 18.6378 74.5512 19.5332 74.5512 20.6378V24.8858C74.5512 25.4381 74.9989 25.8858 75.5512 25.8858H77.6929C78.2452 25.8858 78.6929 25.4381 78.6929 24.8858V22.7441Z" fill="url(#paint12_radial_692_1802)"/>
<path d="M104.412 33.0631C96.4743 29.9513 88.3242 12.4066 78.6929 13.4606C91.6665 19.2326 92.9183 31.4785 104.412 33.0631Z" fill="url(#paint13_radial_692_1802)"/>
<path d="M111.827 30.0276C106.485 21.6827 106.361 16.9143 110.791 8.28346C105.363 9.71409 97.6256 19.5114 111.827 30.0276Z" fill="url(#paint14_radial_692_1802)"/>
<path d="M118.039 10.3543C113.102 14.0549 110.405 23.2793 118.039 32.0984C106.33 25.6888 109.793 12.7713 118.039 0V10.3543Z" fill="url(#paint15_radial_692_1802)"/>
<path d="M236.079 14.4961C229.778 20.0984 221 19.1979 205.392 15.1421C203.829 14.736 202.162 14.9601 200.773 15.7832L174.988 31.063L200.748 19.6141C202.158 18.9874 203.76 18.9353 205.22 19.4358C223.529 25.7159 231.342 24.7283 236.079 14.4961Z" fill="url(#paint16_radial_692_1802)"/>
<path d="M219.512 25.8858C213.369 27.5488 201.593 19.1752 192.576 24.2129C200.279 20.3448 211.151 34.7378 219.512 25.8858Z" fill="url(#paint17_radial_692_1802)"/>
<path d="M193.626 34.1693C195.604 32.9379 196.275 31.791 196.542 30.2054C196.765 28.8871 195.865 27.6374 194.565 27.3262C189.672 26.1551 186.419 27.3172 181.201 31.063C185.703 26.3362 189.254 25.2844 196.432 25.78C197.281 25.8387 198.06 26.2751 198.571 26.9564L199.912 28.7446C200.474 29.4943 200.448 30.5432 199.8 31.2205C197.636 33.4837 196.099 34.1156 193.626 34.1693Z" fill="url(#paint18_radial_692_1802)"/>
<path d="M174.988 28.9921C187.206 19.5072 182.948 18.6378 176.024 10.3543C179.45 8.93238 181.185 8.83857 183.272 12.4252C184.791 8.29387 186.3 6.42726 190.52 4.14173C192.226 8.52031 191.446 10.6991 189.484 14.4961C193.141 12.0347 195.331 11.3823 199.838 13.4606C189.774 17.727 190.786 18.8748 174.988 28.9921Z" fill="url(#paint19_radial_692_1802)"/>
<path d="M157.386 22.7441C157.386 22.1918 156.938 21.7441 156.386 21.7441H156.315C155.763 21.7441 155.315 22.1918 155.315 22.7441V25.9213C155.315 26.4735 155.763 26.9213 156.315 26.9213H161.598C162.703 26.9213 163.598 26.0258 163.598 24.9213V19.6024C163.598 18.4978 162.703 17.6024 161.598 17.6024H157.351C155.465 17.6024 153.603 18.023 151.901 18.8337V18.8337C150.782 19.3663 149.954 20.3629 149.635 21.5599L147.739 28.6695C146.872 31.9182 149.395 35.0788 152.755 34.9544L168.011 34.3894C171.301 34.2675 173.878 31.5169 173.786 28.2256L173.384 13.8426C173.293 10.5955 170.635 8.01038 167.386 8.01038H153.04C150.056 8.01038 147.189 9.21712 145.164 11.4088C134.272 23.194 126.982 33.3225 120.683 32.2299C120.393 32.1796 120.11 32.3916 120.11 32.686V32.686C120.11 32.9325 120.313 33.1318 120.559 33.1285C126.708 33.045 130.709 32.4313 148.426 13.254C149.542 12.0456 150.999 11.1983 152.605 10.8414L158.22 9.59364C159.035 9.41248 159.88 9.4035 160.698 9.56728L164.988 10.4251C167.792 10.986 169.811 13.4485 169.811 16.3086V27.0984C169.811 29.8599 167.572 32.0984 164.811 32.0984H155.173C152.964 32.0984 151.173 30.3076 151.173 28.0984V22.6378C151.173 20.4287 152.964 18.6378 155.173 18.6378H159.527C160.632 18.6378 161.527 19.5332 161.527 20.6378V24.8858C161.527 25.4381 161.08 25.8858 160.527 25.8858H158.386C157.833 25.8858 157.386 25.4381 157.386 24.8858V22.7441Z" fill="url(#paint20_radial_692_1802)"/>
<path d="M131.666 33.0631C139.604 29.9513 147.754 12.4066 157.386 13.4606C144.412 19.2326 143.16 31.4785 131.666 33.0631Z" fill="url(#paint21_radial_692_1802)"/>
<path d="M124.252 30.0276C129.594 21.6827 129.718 16.9143 125.287 8.28346C130.716 9.71409 138.453 19.5114 124.252 30.0276Z" fill="url(#paint22_radial_692_1802)"/>
<path d="M118.039 10.3543C122.976 14.0549 125.673 23.2793 118.039 32.0984C129.749 25.6888 126.286 12.7713 118.039 0V10.3543Z" fill="url(#paint23_radial_692_1802)"/>
<defs>
<radialGradient id="paint0_radial_692_1802" cx="0" cy="0" r="1" gradientUnits="userSpaceOnUse" gradientTransform="translate(79.7285 111.309) scale(38.311 20.1909)">
<stop stop-color="#E1E1E1"/>
<stop offset="1" stop-color="#FFF4DA"/>
</radialGradient>
<radialGradient id="paint1_radial_692_1802" cx="0" cy="0" r="1" gradientUnits="userSpaceOnUse" gradientTransform="translate(79.7285 111.309) scale(38.311 20.1909)">
<stop stop-color="#E1E1E1"/>
<stop offset="1" stop-color="#FFF4DA"/>
</radialGradient>
<radialGradient id="paint2_radial_692_1802" cx="0" cy="0" r="1" gradientUnits="userSpaceOnUse" gradientTransform="translate(79.7285 111.309) scale(38.311 20.1909)">
<stop stop-color="#E1E1E1"/>
<stop offset="1" stop-color="#FFF4DA"/>
</radialGradient>
<radialGradient id="paint3_radial_692_1802" cx="0" cy="0" r="1" gradientUnits="userSpaceOnUse" gradientTransform="translate(79.7285 111.309) scale(38.311 20.1909)">
<stop stop-color="#E1E1E1"/>
<stop offset="1" stop-color="#FFF4DA"/>
</radialGradient>
<radialGradient id="paint4_radial_692_1802" cx="0" cy="0" r="1" gradientUnits="userSpaceOnUse" gradientTransform="translate(156.351 111.309) rotate(180) scale(38.311 20.1909)">
<stop stop-color="#E1E1E1"/>
<stop offset="1" stop-color="#FFF4DA"/>
</radialGradient>
<radialGradient id="paint5_radial_692_1802" cx="0" cy="0" r="1" gradientUnits="userSpaceOnUse" gradientTransform="translate(156.351 111.309) rotate(180) scale(38.311 20.1909)">
<stop stop-color="#E1E1E1"/>
<stop offset="1" stop-color="#FFF4DA"/>
</radialGradient>
<radialGradient id="paint6_radial_692_1802" cx="0" cy="0" r="1" gradientUnits="userSpaceOnUse" gradientTransform="translate(156.351 111.309) rotate(180) scale(38.311 20.1909)">
<stop stop-color="#E1E1E1"/>
<stop offset="1" stop-color="#FFF4DA"/>
</radialGradient>
<radialGradient id="paint7_radial_692_1802" cx="0" cy="0" r="1" gradientUnits="userSpaceOnUse" gradientTransform="translate(156.351 111.309) rotate(180) scale(38.311 20.1909)">
<stop stop-color="#E1E1E1"/>
<stop offset="1" stop-color="#FFF4DA"/>
</radialGradient>
<radialGradient id="paint8_radial_692_1802" cx="0" cy="0" r="1" gradientUnits="userSpaceOnUse" gradientTransform="translate(59.0197 17.6024) scale(59.0197 17.6024)">
<stop stop-color="#E1E1E1"/>
<stop offset="1" stop-color="#FFF4DA"/>
</radialGradient>
<radialGradient id="paint9_radial_692_1802" cx="0" cy="0" r="1" gradientUnits="userSpaceOnUse" gradientTransform="translate(59.0197 17.6024) scale(59.0197 17.6024)">
<stop stop-color="#E1E1E1"/>
<stop offset="1" stop-color="#FFF4DA"/>
</radialGradient>
<radialGradient id="paint10_radial_692_1802" cx="0" cy="0" r="1" gradientUnits="userSpaceOnUse" gradientTransform="translate(59.0197 17.6024) scale(59.0197 17.6024)">
<stop stop-color="#E1E1E1"/>
<stop offset="1" stop-color="#FFF4DA"/>
</radialGradient>
<radialGradient id="paint11_radial_692_1802" cx="0" cy="0" r="1" gradientUnits="userSpaceOnUse" gradientTransform="translate(59.0197 17.6024) scale(59.0197 17.6024)">
<stop stop-color="#E1E1E1"/>
<stop offset="1" stop-color="#FFF4DA"/>
</radialGradient>
<radialGradient id="paint12_radial_692_1802" cx="0" cy="0" r="1" gradientUnits="userSpaceOnUse" gradientTransform="translate(59.0197 17.6024) scale(59.0197 17.6024)">
<stop stop-color="#E1E1E1"/>
<stop offset="1" stop-color="#FFF4DA"/>
</radialGradient>
<radialGradient id="paint13_radial_692_1802" cx="0" cy="0" r="1" gradientUnits="userSpaceOnUse" gradientTransform="translate(59.0197 17.6024) scale(59.0197 17.6024)">
<stop stop-color="#E1E1E1"/>
<stop offset="1" stop-color="#FFF4DA"/>
</radialGradient>
<radialGradient id="paint14_radial_692_1802" cx="0" cy="0" r="1" gradientUnits="userSpaceOnUse" gradientTransform="translate(59.0197 17.6024) scale(59.0197 17.6024)">
<stop stop-color="#E1E1E1"/>
<stop offset="1" stop-color="#FFF4DA"/>
</radialGradient>
<radialGradient id="paint15_radial_692_1802" cx="0" cy="0" r="1" gradientUnits="userSpaceOnUse" gradientTransform="translate(59.0197 17.6024) scale(59.0197 17.6024)">
<stop stop-color="#E1E1E1"/>
<stop offset="1" stop-color="#FFF4DA"/>
</radialGradient>
<radialGradient id="paint16_radial_692_1802" cx="0" cy="0" r="1" gradientUnits="userSpaceOnUse" gradientTransform="translate(177.059 17.6024) rotate(180) scale(59.0197 17.6024)">
<stop stop-color="#E1E1E1"/>
<stop offset="1" stop-color="#FFF4DA"/>
</radialGradient>
<radialGradient id="paint17_radial_692_1802" cx="0" cy="0" r="1" gradientUnits="userSpaceOnUse" gradientTransform="translate(177.059 17.6024) rotate(180) scale(59.0197 17.6024)">
<stop stop-color="#E1E1E1"/>
<stop offset="1" stop-color="#FFF4DA"/>
</radialGradient>
<radialGradient id="paint18_radial_692_1802" cx="0" cy="0" r="1" gradientUnits="userSpaceOnUse" gradientTransform="translate(177.059 17.6024) rotate(180) scale(59.0197 17.6024)">
<stop stop-color="#E1E1E1"/>
<stop offset="1" stop-color="#FFF4DA"/>
</radialGradient>
<radialGradient id="paint19_radial_692_1802" cx="0" cy="0" r="1" gradientUnits="userSpaceOnUse" gradientTransform="translate(177.059 17.6024) rotate(180) scale(59.0197 17.6024)">
<stop stop-color="#E1E1E1"/>
<stop offset="1" stop-color="#FFF4DA"/>
</radialGradient>
<radialGradient id="paint20_radial_692_1802" cx="0" cy="0" r="1" gradientUnits="userSpaceOnUse" gradientTransform="translate(177.059 17.6024) rotate(180) scale(59.0197 17.6024)">
<stop stop-color="#E1E1E1"/>
<stop offset="1" stop-color="#FFF4DA"/>
</radialGradient>
<radialGradient id="paint21_radial_692_1802" cx="0" cy="0" r="1" gradientUnits="userSpaceOnUse" gradientTransform="translate(177.059 17.6024) rotate(180) scale(59.0197 17.6024)">
<stop stop-color="#E1E1E1"/>
<stop offset="1" stop-color="#FFF4DA"/>
</radialGradient>
<radialGradient id="paint22_radial_692_1802" cx="0" cy="0" r="1" gradientUnits="userSpaceOnUse" gradientTransform="translate(177.059 17.6024) rotate(180) scale(59.0197 17.6024)">
<stop stop-color="#E1E1E1"/>
<stop offset="1" stop-color="#FFF4DA"/>
</radialGradient>
<radialGradient id="paint23_radial_692_1802" cx="0" cy="0" r="1" gradientUnits="userSpaceOnUse" gradientTransform="translate(177.059 17.6024) rotate(180) scale(59.0197 17.6024)">
<stop stop-color="#E1E1E1"/>
<stop offset="1" stop-color="#FFF4DA"/>
</radialGradient>
</defs>
</svg>
