<svg width="237" height="132" viewBox="0 0 237 132" fill="none" xmlns="http://www.w3.org/2000/svg">
<path d="M50.713 108.06C49.3894 108.487 47.9219 108.504 46.7174 107.809C44.5799 106.575 44.1417 105.154 44.5239 102.508V102.508C42.8803 103.056 42.0634 104.953 43.0344 106.388C43.9981 107.812 45.0942 108.974 46.6272 110.246C47.9176 111.316 49.57 111.855 51.2463 111.812C56.4411 111.679 59.0354 110.851 62.1261 108.72C61.1055 110.641 61.1623 111.76 61.9889 113.6C62.061 113.76 62.2573 113.822 62.4081 113.731C64.083 112.73 65.0044 111.892 66.2679 109.756C66.2159 114.032 66.9848 113.977 70.4096 114.933C67.5199 110.86 68.053 109.221 70.1985 106.254C70.9963 105.151 72.1264 104.331 73.4058 103.866L78.5781 101.985C81.3347 100.982 84.3491 100.942 87.1317 101.869L104.174 107.55C104.308 107.435 104.443 107.326 104.579 107.223V104.508C104.579 103.403 105.474 102.508 106.579 102.508H108.791C109.896 102.508 110.791 103.403 110.791 104.508V105.614H111.827V103.472C111.827 102.368 110.931 101.472 109.827 101.472H105.543C104.439 101.472 103.543 102.368 103.543 103.472V106.65C98.7741 103.748 93.5326 101.584 86.7262 99.7769C82.8461 98.747 78.7539 99.0145 74.9333 100.247L50.713 108.06Z" fill="url(#paint0_radial_692_1688)"/>
<path fill-rule="evenodd" clip-rule="evenodd" d="M118.04 111.827V108.721C115.458 105.74 114.164 105.799 111.827 105.614H110.791C108.063 105.589 106.223 105.979 104.579 107.223V107.685L104.174 107.55C103.27 108.327 102.41 109.382 101.473 110.791C94.423 108.167 92.2423 105.859 84.6309 104.117C82.7932 103.696 80.8384 103.854 79.1738 104.739C77.1411 105.82 75.7483 107.075 74.4009 109.235C73.7981 110.201 73.7054 111.42 74.2151 112.438C75.05 114.107 76.2503 115.417 79.1381 117.128C80.1191 117.709 81.351 117.62 82.2789 116.957L86.2804 114.099C87.2189 113.429 87.4133 112.09 86.6216 111.251C84.8307 109.354 83.7232 109.09 81.7994 109.756C83.0247 110.067 83.7478 110.456 84.3965 111.688C84.7601 112.378 84.5523 113.216 84.0005 113.767L82.2759 115.492C81.3711 116.397 79.9668 116.664 78.906 115.948C77.392 114.927 76.4786 113.802 75.488 112.283C74.8942 111.372 74.8544 110.185 75.4804 109.296C77.1885 106.871 79.0768 106.022 82.8348 105.614C87.5143 105.758 93.9739 109.592 101.473 112.862C101.611 115.305 101.827 117.608 105.431 119.531C106.15 119.915 107.027 119.733 107.604 119.156L110.252 116.508C110.55 116.21 110.55 115.727 110.252 115.429V115.429C109.972 115.149 109.522 115.134 109.211 115.381C104.883 118.812 103.35 117.017 102.508 112.862C108.785 113.743 111.601 112.063 112.862 106.65H114.933L118.04 111.827ZM102.508 111.827C105.324 107.593 107.417 106.549 111.827 106.65C109.582 111.782 107.624 113.001 102.508 111.827Z" fill="url(#paint1_radial_692_1688)"/>
<path d="M118.04 114.933V111.827C116.112 115.763 116.189 118.074 110.791 119.075C111.96 121.038 112.806 121.636 114.933 121.146C115.325 125.201 115.718 127.472 118.04 131.5V125.287C116.703 121.107 116.953 118.865 118.04 114.933Z" fill="url(#paint2_radial_692_1688)"/>
<path d="M115.969 98.3662C116.06 94.792 116.696 93.3936 118.04 91.1182V105.614C115.723 100.811 114.342 99.4138 111.827 99.4015C113.365 97.8121 114.277 97.3638 115.969 98.3662Z" fill="url(#paint3_radial_692_1688)"/>
<path d="M185.366 108.06C186.69 108.487 188.157 108.504 189.362 107.809C191.499 106.575 191.937 105.154 191.555 102.508V102.508C193.199 103.056 194.016 104.953 193.045 106.388C192.081 107.812 190.985 108.974 189.452 110.246C188.161 111.316 186.509 111.855 184.833 111.812C179.638 111.679 177.044 110.851 173.953 108.72C174.974 110.641 174.917 111.76 174.09 113.6C174.018 113.76 173.822 113.822 173.671 113.731C171.996 112.73 171.075 111.892 169.811 109.756C169.863 114.032 169.094 113.977 165.669 114.933C168.559 110.86 168.026 109.221 165.881 106.254C165.083 105.151 163.953 104.331 162.673 103.866L157.501 101.985C154.744 100.982 151.73 100.942 148.947 101.869L131.905 107.55C131.771 107.435 131.636 107.326 131.5 107.223V104.508C131.5 103.403 130.605 102.508 129.5 102.508H127.288C126.183 102.508 125.288 103.403 125.288 104.508V105.614H124.252V103.472C124.252 102.368 125.148 101.472 126.252 101.472H130.536C131.64 101.472 132.536 102.368 132.536 103.472V106.65C137.305 103.748 142.547 101.584 149.353 99.7769C153.233 98.747 157.325 99.0145 161.146 100.247L185.366 108.06Z" fill="url(#paint4_radial_692_1688)"/>
<path fill-rule="evenodd" clip-rule="evenodd" d="M118.04 111.827V108.721C120.621 105.74 121.915 105.799 124.252 105.614H125.288C128.016 105.589 129.856 105.979 131.5 107.223V107.685L131.905 107.55C132.809 108.327 133.669 109.382 134.607 110.791C141.656 108.167 143.837 105.859 151.448 104.117C153.286 103.696 155.241 103.854 156.905 104.739C158.938 105.82 160.331 107.075 161.678 109.235C162.281 110.201 162.374 111.42 161.864 112.438C161.029 114.107 159.829 115.417 156.941 117.128C155.96 117.709 154.728 117.62 153.8 116.957L149.799 114.099C148.86 113.429 148.666 112.09 149.457 111.251C151.248 109.354 152.356 109.09 154.28 109.756C153.054 110.067 152.331 110.456 151.683 111.688C151.319 112.378 151.527 113.216 152.079 113.767L153.803 115.492C154.708 116.397 156.112 116.664 157.173 115.948C158.687 114.927 159.601 113.802 160.591 112.283C161.185 111.372 161.225 110.185 160.599 109.296C158.891 106.871 157.002 106.022 153.244 105.614C148.565 105.758 142.105 109.592 134.607 112.862C134.468 115.305 134.252 117.608 130.648 119.531C129.929 119.915 129.052 119.733 128.475 119.156L125.827 116.508C125.529 116.21 125.529 115.727 125.827 115.429V115.429C126.107 115.149 126.557 115.134 126.868 115.381C131.196 118.812 132.729 117.017 133.571 112.862C127.294 113.743 124.479 112.063 123.217 106.65H121.146L118.04 111.827ZM133.571 111.827C130.755 107.593 128.662 106.549 124.252 106.65C126.497 111.782 128.455 113.001 133.571 111.827Z" fill="url(#paint5_radial_692_1688)"/>
<path d="M118.04 114.933V111.827C119.967 115.763 119.89 118.074 125.288 119.075C124.119 121.038 123.273 121.636 121.146 121.146C120.755 125.201 120.362 127.472 118.04 131.5V125.287C119.376 121.107 119.126 118.865 118.04 114.933Z" fill="url(#paint6_radial_692_1688)"/>
<path d="M120.11 98.3662C120.019 94.792 119.383 93.3936 118.04 91.1182V105.614C120.356 100.811 121.737 99.4138 124.252 99.4015C122.714 97.8121 121.802 97.3638 120.11 98.3662Z" fill="url(#paint7_radial_692_1688)"/>
<path d="M84.043 46.8984C84.3008 46.8984 84.7663 46.8841 85.4395 46.8555C86.1126 46.8268 86.9935 46.7839 88.082 46.7266C88.2969 47.5716 88.6764 48.7318 89.2207 50.207C89.7793 51.6823 90.4453 53.3366 91.2188 55.1699C91.9922 56.9889 92.8158 58.8652 93.6895 60.7988C94.5775 62.7181 95.4583 64.5443 96.332 66.2773C96.4323 65.9909 96.5182 65.7044 96.5898 65.418C96.6758 65.1172 96.7474 64.8164 96.8047 64.5156L98.9961 52.957C99.3685 51.0521 99.5547 49.7344 99.5547 49.0039C99.5547 48.7747 99.3613 48.5814 98.9746 48.4238C98.6022 48.252 98.1725 48.123 97.6855 48.0371C97.2129 47.9368 96.8333 47.8867 96.5469 47.8867C96.4896 47.8867 96.4609 47.7865 96.4609 47.5859C96.4609 47.1706 96.5612 46.8841 96.7617 46.7266C98.237 46.7982 99.347 46.8555 100.092 46.8984C100.851 46.9271 101.245 46.9414 101.273 46.9414C101.474 46.9414 101.961 46.9271 102.734 46.8984C103.522 46.8555 104.596 46.7982 105.957 46.7266C105.957 47.5 105.871 47.8867 105.699 47.8867C105.513 47.8867 105.155 47.9368 104.625 48.0371C104.109 48.1374 103.615 48.2591 103.143 48.4023C102.67 48.5456 102.405 48.6888 102.348 48.832C101.975 49.7917 101.617 51.1237 101.273 52.8281L98.0508 69.1562C97.9648 69.6003 97.8717 70.1087 97.7715 70.6816C97.6712 71.2546 97.5638 71.8919 97.4492 72.5938C97.3346 73.2956 97.2415 73.8613 97.1699 74.291C97.0983 74.7207 97.0482 75.0143 97.0195 75.1719C96.9049 75.2865 96.7617 75.3438 96.5898 75.3438C96.1888 75.3438 95.8164 75.0143 95.4727 74.3555L84.9023 50.0352L81.0781 68.9414C80.7917 70.3737 80.6484 71.6484 80.6484 72.7656C80.6484 72.9948 80.8776 73.2096 81.3359 73.4102C81.7943 73.6107 82.2526 73.7539 82.7109 73.8398L83.4414 73.9688C83.4987 73.9688 83.5273 74.0404 83.5273 74.1836C83.5273 74.5417 83.4557 74.8568 83.3125 75.1289C81.9948 75.0573 80.9635 75.0072 80.2188 74.9785C79.474 74.9355 79.0156 74.9141 78.8438 74.9141C78.8151 74.9141 78.4069 74.9355 77.6191 74.9785C76.8314 75.0072 75.6641 75.0573 74.1172 75.1289C74.0599 75.0716 74.0312 74.957 74.0312 74.7852C74.0312 74.2409 74.1315 73.9688 74.332 73.9688C74.5612 73.9688 74.9264 73.9186 75.4277 73.8184C75.929 73.7038 76.4017 73.5677 76.8457 73.4102C77.304 73.2383 77.569 73.0807 77.6406 72.9375C77.9701 72.3073 78.3568 70.9323 78.8008 68.8125L82.1094 52.8281C82.3672 51.5534 82.4961 50.2643 82.4961 48.9609C82.4961 48.7318 82.3171 48.5384 81.959 48.3809C81.6009 48.2233 81.1927 48.1016 80.7344 48.0156C80.276 47.9297 79.8893 47.8867 79.5742 47.8867C79.5169 47.8867 79.4883 47.7865 79.4883 47.5859C79.4883 47.1706 79.5885 46.8841 79.7891 46.7266C80.9062 46.7839 81.8158 46.8268 82.5176 46.8555C83.2337 46.8841 83.7422 46.8984 84.043 46.8984ZM116.57 56.3086C117.63 56.3086 118.676 56.4948 119.707 56.8672L117.086 70.4453C117 70.7891 116.957 71.1471 116.957 71.5195C116.957 72.2357 117.1 72.5938 117.387 72.5938C117.745 72.5938 118.174 72.3431 118.676 71.8418C119.177 71.3262 119.607 70.8893 119.965 70.5312L120.223 70.2305C120.28 70.2305 120.387 70.3665 120.545 70.6387C120.702 70.9108 120.781 71.1042 120.781 71.2188C120.538 71.6341 120.094 72.1641 119.449 72.8086C118.819 73.4531 118.132 74.026 117.387 74.5273C116.642 75.0143 115.969 75.2578 115.367 75.2578C114.909 75.2578 114.551 75.0501 114.293 74.6348C114.035 74.2194 113.906 73.6823 113.906 73.0234C113.906 72.5794 114.007 71.8203 114.207 70.7461L114.357 69.9941C114.4 69.7936 114.422 69.6719 114.422 69.6289C114.193 70.0586 113.863 70.5885 113.434 71.2188C113.004 71.8346 112.51 72.4505 111.951 73.0664C111.393 73.6823 110.805 74.1979 110.189 74.6133C109.574 75.0143 108.965 75.2148 108.363 75.2148C107.103 75.2148 106.107 74.6491 105.377 73.5176C104.646 72.3861 104.281 71.0182 104.281 69.4141C104.281 67.3659 104.89 65.3249 106.107 63.291C106.924 61.916 107.898 60.7057 109.029 59.6602C110.175 58.6146 111.4 57.7982 112.703 57.2109C114.007 56.6094 115.296 56.3086 116.57 56.3086ZM114.766 58.2852C113.921 58.2852 113.068 58.5859 112.209 59.1875C111.35 59.7747 110.562 60.5697 109.846 61.5723C109.13 62.5605 108.549 63.6634 108.105 64.8809C107.676 66.084 107.461 67.2943 107.461 68.5117C107.461 71.319 108.191 72.7227 109.652 72.7227C110.168 72.7227 110.727 72.4362 111.328 71.8633C111.93 71.2904 112.524 70.5312 113.111 69.5859C113.699 68.6406 114.214 67.6165 114.658 66.5137C115.117 65.3965 115.453 64.3008 115.668 63.2266L116.527 58.8438C116.184 58.4714 115.596 58.2852 114.766 58.2852ZM131.48 47.2422C131.91 47.2422 132.275 47.4141 132.576 47.7578C132.877 48.1016 133.027 48.5026 133.027 48.9609C133.027 49.6484 132.805 50.25 132.361 50.7656C131.917 51.2812 131.366 51.5391 130.707 51.5391C130.249 51.5391 129.891 51.36 129.633 51.002C129.375 50.6439 129.246 50.207 129.246 49.6914C129.246 49.0326 129.461 48.4596 129.891 47.9727C130.32 47.4857 130.85 47.2422 131.48 47.2422ZM130.234 56.3086C130.693 56.3086 131.051 56.5163 131.309 56.9316C131.566 57.347 131.695 57.8841 131.695 58.543C131.695 59.1159 131.609 59.875 131.438 60.8203L129.074 73.0664C128.473 76.1745 127.527 78.5951 126.238 80.3281C125.436 81.4167 124.462 82.3978 123.316 83.2715C122.171 84.1452 121.154 84.7539 120.266 85.0977C120.008 84.8971 119.879 84.6107 119.879 84.2383C121.311 83.4076 122.572 82.097 123.66 80.3066C124.749 78.5163 125.522 76.4323 125.98 74.0547L128.43 61.7656C128.573 60.7773 128.645 60.2044 128.645 60.0469C128.645 59.3307 128.501 58.9727 128.215 58.9727C127.971 58.9727 127.606 59.2018 127.119 59.6602C126.89 59.8893 126.639 60.14 126.367 60.4121C126.109 60.6842 125.938 60.8776 125.852 60.9922C125.794 60.9922 125.687 60.8561 125.529 60.584C125.372 60.3118 125.293 60.1185 125.293 60.0039C125.522 59.6172 125.938 59.1374 126.539 58.5645C127.141 57.9772 127.785 57.4544 128.473 56.9961C129.16 56.5378 129.747 56.3086 130.234 56.3086ZM149.828 56.3086C150.602 56.3086 151.196 56.5378 151.611 56.9961C152.027 57.4544 152.277 57.9342 152.363 58.4355C152.449 58.9368 152.492 59.5885 152.492 60.3906C152.492 60.9206 152.292 62.1953 151.891 64.2148C152.363 63.3984 152.951 62.5319 153.652 61.6152C154.354 60.6986 155.092 59.8392 155.865 59.0371C156.639 58.235 157.383 57.5833 158.1 57.082C158.816 56.5664 159.424 56.3086 159.926 56.3086C160.871 56.3086 161.516 56.5449 161.859 57.0176C162.203 57.4902 162.375 58.1992 162.375 59.1445C162.375 60.4766 162.174 62.0378 161.773 63.8281L160.355 70.4453C160.27 70.7891 160.227 71.1471 160.227 71.5195C160.227 72.2357 160.37 72.5938 160.656 72.5938C161.014 72.5938 161.444 72.3431 161.945 71.8418C162.447 71.3262 162.876 70.8893 163.234 70.5312L163.492 70.2305C163.549 70.2305 163.657 70.3665 163.814 70.6387C163.972 70.9108 164.051 71.1042 164.051 71.2188C163.807 71.6341 163.363 72.1641 162.719 72.8086C162.089 73.4531 161.401 74.026 160.656 74.5273C159.911 75.0143 159.238 75.2578 158.637 75.2578C158.178 75.2578 157.82 75.0501 157.562 74.6348C157.305 74.2194 157.176 73.6823 157.176 73.0234C157.176 72.5938 157.276 71.8346 157.477 70.7461L158.98 63.6562C159.181 62.6823 159.281 61.9089 159.281 61.3359C159.281 60.8346 159.238 60.4049 159.152 60.0469C159.081 59.6745 158.852 59.4883 158.465 59.4883C157.978 59.4883 157.34 59.832 156.553 60.5195C155.779 61.207 154.977 62.1165 154.146 63.248C153.316 64.3652 152.571 65.597 151.912 66.9434C151.253 68.2754 150.802 69.6003 150.559 70.918L149.785 75H146.906L149.312 62.7969C149.427 62.1523 149.484 61.6081 149.484 61.1641C149.484 60.0469 149.198 59.4883 148.625 59.4883C148.124 59.4883 147.486 59.8678 146.713 60.627C145.939 61.3861 145.145 62.3672 144.328 63.5703C143.512 64.7734 142.781 66.0553 142.137 67.416C141.492 68.7624 141.048 70.0299 140.805 71.2188L140.031 75C139.229 75.1146 138.742 75.1719 138.57 75.1719C138.427 75.1719 137.954 75.1146 137.152 75L139.73 61.7656C139.874 60.7773 139.945 60.2044 139.945 60.0469C139.945 59.3307 139.802 58.9727 139.516 58.9727C139.272 58.9727 138.907 59.2018 138.42 59.6602C138.191 59.8893 137.94 60.14 137.668 60.4121C137.41 60.6842 137.238 60.8776 137.152 60.9922C137.095 60.9922 136.988 60.8561 136.83 60.584C136.673 60.3118 136.594 60.1185 136.594 60.0039C136.823 59.6172 137.238 59.1374 137.84 58.5645C138.441 57.9772 139.086 57.4544 139.773 56.9961C140.461 56.5378 141.048 56.3086 141.535 56.3086C141.993 56.3086 142.352 56.5163 142.609 56.9316C142.867 57.347 142.996 57.8841 142.996 58.543C142.996 59.1732 142.91 59.9323 142.738 60.8203L141.965 64.8164C142.495 63.8997 143.104 62.9473 143.791 61.959C144.493 60.9707 145.209 60.0469 145.939 59.1875C146.684 58.3281 147.393 57.6335 148.066 57.1035C148.74 56.5736 149.327 56.3086 149.828 56.3086Z" fill="white"/>
<path d="M0 14.4961C6.30012 20.0984 15.0791 19.1979 30.687 15.1421C32.2497 14.736 33.9168 14.9601 35.3059 15.7832L61.0905 31.063L35.3304 19.6141C33.9205 18.9874 32.3183 18.9353 30.8588 19.4358C12.5496 25.7159 4.73674 24.7283 0 14.4961Z" fill="url(#paint8_radial_692_1688)"/>
<path d="M16.5669 25.8858C22.7094 27.5488 34.4861 19.1752 43.5027 24.2129C35.7991 20.3448 24.9274 34.7378 16.5669 25.8858Z" fill="url(#paint9_radial_692_1688)"/>
<path d="M42.4528 34.1693C40.4746 32.9379 39.8039 31.791 39.5364 30.2054C39.314 28.8871 40.2138 27.6374 41.514 27.3262C46.4064 26.1551 49.6595 27.3172 54.8779 31.063C50.3759 26.3362 46.8249 25.2844 39.6469 25.78C38.7972 25.8387 38.0191 26.2751 37.5081 26.9564L36.1669 28.7446C35.6047 29.4943 35.6307 30.5432 36.2784 31.2205C38.4425 33.4837 39.9798 34.1156 42.4528 34.1693Z" fill="url(#paint10_radial_692_1688)"/>
<path d="M61.0905 28.9921C48.8725 19.5072 53.131 18.6378 60.0551 10.3543C56.6285 8.93238 54.8937 8.83857 52.8071 12.4252C51.2879 8.29387 49.7783 6.42726 45.559 4.14173C43.8524 8.52031 44.6321 10.6991 46.5945 14.4961C42.9378 12.0347 40.7471 11.3823 36.2402 13.4606C46.3046 17.727 45.2926 18.8748 61.0905 28.9921Z" fill="url(#paint11_radial_692_1688)"/>
<path d="M78.6929 22.7441C78.6929 22.1918 79.1406 21.7441 79.6929 21.7441H79.7638C80.3161 21.7441 80.7638 22.1918 80.7638 22.7441V25.9213C80.7638 26.4735 80.3161 26.9213 79.7638 26.9213H74.4803C73.3757 26.9213 72.4803 26.0258 72.4803 24.9213V19.6024C72.4803 18.4978 73.3757 17.6024 74.4803 17.6024H78.7281C80.6137 17.6024 82.4755 18.023 84.178 18.8337V18.8337C85.2965 19.3663 86.1249 20.3629 86.4441 21.5599L88.3399 28.6695C89.2063 31.9182 86.6836 35.0788 83.3237 34.9544L68.0679 34.3894C64.7776 34.2675 62.2002 31.5169 62.2923 28.2256L62.6948 13.8426C62.7856 10.5955 65.4441 8.01038 68.6924 8.01038H83.0387C86.0229 8.01038 88.8896 9.21712 90.915 11.4088C101.807 23.194 109.097 33.3225 115.395 32.2299C115.685 32.1796 115.968 32.3916 115.968 32.686V32.686C115.968 32.9325 115.766 33.1318 115.519 33.1285C109.37 33.045 105.37 32.4313 87.653 13.254C86.5367 12.0456 85.0793 11.1983 83.4735 10.8414L77.8584 9.59364C77.0431 9.41248 76.199 9.4035 75.3801 9.56728L71.091 10.4251C68.2865 10.986 66.2677 13.4485 66.2677 16.3086V27.0984C66.2677 29.8599 68.5063 32.0984 71.2677 32.0984H80.9055C83.1146 32.0984 84.9055 30.3076 84.9055 28.0984V22.6378C84.9055 20.4287 83.1146 18.6378 80.9055 18.6378H76.5512C75.4466 18.6378 74.5512 19.5332 74.5512 20.6378V24.8858C74.5512 25.4381 74.9989 25.8858 75.5512 25.8858H77.6929C78.2452 25.8858 78.6929 25.4381 78.6929 24.8858V22.7441Z" fill="url(#paint12_radial_692_1688)"/>
<path d="M104.412 33.0631C96.4743 29.9513 88.3242 12.4066 78.6929 13.4606C91.6665 19.2326 92.9183 31.4785 104.412 33.0631Z" fill="url(#paint13_radial_692_1688)"/>
<path d="M111.827 30.0276C106.485 21.6827 106.361 16.9143 110.791 8.28346C105.363 9.71409 97.6256 19.5114 111.827 30.0276Z" fill="url(#paint14_radial_692_1688)"/>
<path d="M118.039 10.3543C113.102 14.0549 110.405 23.2793 118.039 32.0984C106.33 25.6888 109.793 12.7713 118.039 0V10.3543Z" fill="url(#paint15_radial_692_1688)"/>
<path d="M236.079 14.4961C229.778 20.0984 221 19.1979 205.392 15.1421C203.829 14.736 202.162 14.9601 200.773 15.7832L174.988 31.063L200.748 19.6141C202.158 18.9874 203.76 18.9353 205.22 19.4358C223.529 25.7159 231.342 24.7283 236.079 14.4961Z" fill="url(#paint16_radial_692_1688)"/>
<path d="M219.512 25.8858C213.369 27.5488 201.593 19.1752 192.576 24.2129C200.279 20.3448 211.151 34.7378 219.512 25.8858Z" fill="url(#paint17_radial_692_1688)"/>
<path d="M193.626 34.1693C195.604 32.9379 196.275 31.791 196.542 30.2054C196.765 28.8871 195.865 27.6374 194.565 27.3262C189.672 26.1551 186.419 27.3172 181.201 31.063C185.703 26.3362 189.254 25.2844 196.432 25.78C197.281 25.8387 198.06 26.2751 198.571 26.9564L199.912 28.7446C200.474 29.4943 200.448 30.5432 199.8 31.2205C197.636 33.4837 196.099 34.1156 193.626 34.1693Z" fill="url(#paint18_radial_692_1688)"/>
<path d="M174.988 28.9921C187.206 19.5072 182.948 18.6378 176.024 10.3543C179.45 8.93238 181.185 8.83857 183.272 12.4252C184.791 8.29387 186.3 6.42726 190.52 4.14173C192.226 8.52031 191.446 10.6991 189.484 14.4961C193.141 12.0347 195.331 11.3823 199.838 13.4606C189.774 17.727 190.786 18.8748 174.988 28.9921Z" fill="url(#paint19_radial_692_1688)"/>
<path d="M157.386 22.7441C157.386 22.1918 156.938 21.7441 156.386 21.7441H156.315C155.763 21.7441 155.315 22.1918 155.315 22.7441V25.9213C155.315 26.4735 155.763 26.9213 156.315 26.9213H161.598C162.703 26.9213 163.598 26.0258 163.598 24.9213V19.6024C163.598 18.4978 162.703 17.6024 161.598 17.6024H157.351C155.465 17.6024 153.603 18.023 151.901 18.8337V18.8337C150.782 19.3663 149.954 20.3629 149.635 21.5599L147.739 28.6695C146.872 31.9182 149.395 35.0788 152.755 34.9544L168.011 34.3894C171.301 34.2675 173.878 31.5169 173.786 28.2256L173.384 13.8426C173.293 10.5955 170.635 8.01038 167.386 8.01038H153.04C150.056 8.01038 147.189 9.21712 145.164 11.4088C134.272 23.194 126.982 33.3225 120.683 32.2299C120.393 32.1796 120.11 32.3916 120.11 32.686V32.686C120.11 32.9325 120.313 33.1318 120.559 33.1285C126.708 33.045 130.709 32.4313 148.426 13.254C149.542 12.0456 150.999 11.1983 152.605 10.8414L158.22 9.59364C159.035 9.41248 159.88 9.4035 160.698 9.56728L164.988 10.4251C167.792 10.986 169.811 13.4485 169.811 16.3086V27.0984C169.811 29.8599 167.572 32.0984 164.811 32.0984H155.173C152.964 32.0984 151.173 30.3076 151.173 28.0984V22.6378C151.173 20.4287 152.964 18.6378 155.173 18.6378H159.527C160.632 18.6378 161.527 19.5332 161.527 20.6378V24.8858C161.527 25.4381 161.08 25.8858 160.527 25.8858H158.386C157.833 25.8858 157.386 25.4381 157.386 24.8858V22.7441Z" fill="url(#paint20_radial_692_1688)"/>
<path d="M131.666 33.0631C139.604 29.9513 147.754 12.4066 157.386 13.4606C144.412 19.2326 143.16 31.4785 131.666 33.0631Z" fill="url(#paint21_radial_692_1688)"/>
<path d="M124.252 30.0276C129.594 21.6827 129.718 16.9143 125.287 8.28346C130.716 9.71409 138.453 19.5114 124.252 30.0276Z" fill="url(#paint22_radial_692_1688)"/>
<path d="M118.039 10.3543C122.976 14.0549 125.673 23.2793 118.039 32.0984C129.749 25.6888 126.286 12.7713 118.039 0V10.3543Z" fill="url(#paint23_radial_692_1688)"/>
<defs>
<radialGradient id="paint0_radial_692_1688" cx="0" cy="0" r="1" gradientUnits="userSpaceOnUse" gradientTransform="translate(79.7285 111.309) scale(38.311 20.1909)">
<stop stop-color="#E1E1E1"/>
<stop offset="1" stop-color="#FFF4DA"/>
</radialGradient>
<radialGradient id="paint1_radial_692_1688" cx="0" cy="0" r="1" gradientUnits="userSpaceOnUse" gradientTransform="translate(79.7285 111.309) scale(38.311 20.1909)">
<stop stop-color="#E1E1E1"/>
<stop offset="1" stop-color="#FFF4DA"/>
</radialGradient>
<radialGradient id="paint2_radial_692_1688" cx="0" cy="0" r="1" gradientUnits="userSpaceOnUse" gradientTransform="translate(79.7285 111.309) scale(38.311 20.1909)">
<stop stop-color="#E1E1E1"/>
<stop offset="1" stop-color="#FFF4DA"/>
</radialGradient>
<radialGradient id="paint3_radial_692_1688" cx="0" cy="0" r="1" gradientUnits="userSpaceOnUse" gradientTransform="translate(79.7285 111.309) scale(38.311 20.1909)">
<stop stop-color="#E1E1E1"/>
<stop offset="1" stop-color="#FFF4DA"/>
</radialGradient>
<radialGradient id="paint4_radial_692_1688" cx="0" cy="0" r="1" gradientUnits="userSpaceOnUse" gradientTransform="translate(156.351 111.309) rotate(180) scale(38.311 20.1909)">
<stop stop-color="#E1E1E1"/>
<stop offset="1" stop-color="#FFF4DA"/>
</radialGradient>
<radialGradient id="paint5_radial_692_1688" cx="0" cy="0" r="1" gradientUnits="userSpaceOnUse" gradientTransform="translate(156.351 111.309) rotate(180) scale(38.311 20.1909)">
<stop stop-color="#E1E1E1"/>
<stop offset="1" stop-color="#FFF4DA"/>
</radialGradient>
<radialGradient id="paint6_radial_692_1688" cx="0" cy="0" r="1" gradientUnits="userSpaceOnUse" gradientTransform="translate(156.351 111.309) rotate(180) scale(38.311 20.1909)">
<stop stop-color="#E1E1E1"/>
<stop offset="1" stop-color="#FFF4DA"/>
</radialGradient>
<radialGradient id="paint7_radial_692_1688" cx="0" cy="0" r="1" gradientUnits="userSpaceOnUse" gradientTransform="translate(156.351 111.309) rotate(180) scale(38.311 20.1909)">
<stop stop-color="#E1E1E1"/>
<stop offset="1" stop-color="#FFF4DA"/>
</radialGradient>
<radialGradient id="paint8_radial_692_1688" cx="0" cy="0" r="1" gradientUnits="userSpaceOnUse" gradientTransform="translate(59.0197 17.6024) scale(59.0197 17.6024)">
<stop stop-color="#E1E1E1"/>
<stop offset="1" stop-color="#FFF4DA"/>
</radialGradient>
<radialGradient id="paint9_radial_692_1688" cx="0" cy="0" r="1" gradientUnits="userSpaceOnUse" gradientTransform="translate(59.0197 17.6024) scale(59.0197 17.6024)">
<stop stop-color="#E1E1E1"/>
<stop offset="1" stop-color="#FFF4DA"/>
</radialGradient>
<radialGradient id="paint10_radial_692_1688" cx="0" cy="0" r="1" gradientUnits="userSpaceOnUse" gradientTransform="translate(59.0197 17.6024) scale(59.0197 17.6024)">
<stop stop-color="#E1E1E1"/>
<stop offset="1" stop-color="#FFF4DA"/>
</radialGradient>
<radialGradient id="paint11_radial_692_1688" cx="0" cy="0" r="1" gradientUnits="userSpaceOnUse" gradientTransform="translate(59.0197 17.6024) scale(59.0197 17.6024)">
<stop stop-color="#E1E1E1"/>
<stop offset="1" stop-color="#FFF4DA"/>
</radialGradient>
<radialGradient id="paint12_radial_692_1688" cx="0" cy="0" r="1" gradientUnits="userSpaceOnUse" gradientTransform="translate(59.0197 17.6024) scale(59.0197 17.6024)">
<stop stop-color="#E1E1E1"/>
<stop offset="1" stop-color="#FFF4DA"/>
</radialGradient>
<radialGradient id="paint13_radial_692_1688" cx="0" cy="0" r="1" gradientUnits="userSpaceOnUse" gradientTransform="translate(59.0197 17.6024) scale(59.0197 17.6024)">
<stop stop-color="#E1E1E1"/>
<stop offset="1" stop-color="#FFF4DA"/>
</radialGradient>
<radialGradient id="paint14_radial_692_1688" cx="0" cy="0" r="1" gradientUnits="userSpaceOnUse" gradientTransform="translate(59.0197 17.6024) scale(59.0197 17.6024)">
<stop stop-color="#E1E1E1"/>
<stop offset="1" stop-color="#FFF4DA"/>
</radialGradient>
<radialGradient id="paint15_radial_692_1688" cx="0" cy="0" r="1" gradientUnits="userSpaceOnUse" gradientTransform="translate(59.0197 17.6024) scale(59.0197 17.6024)">
<stop stop-color="#E1E1E1"/>
<stop offset="1" stop-color="#FFF4DA"/>
</radialGradient>
<radialGradient id="paint16_radial_692_1688" cx="0" cy="0" r="1" gradientUnits="userSpaceOnUse" gradientTransform="translate(177.059 17.6024) rotate(180) scale(59.0197 17.6024)">
<stop stop-color="#E1E1E1"/>
<stop offset="1" stop-color="#FFF4DA"/>
</radialGradient>
<radialGradient id="paint17_radial_692_1688" cx="0" cy="0" r="1" gradientUnits="userSpaceOnUse" gradientTransform="translate(177.059 17.6024) rotate(180) scale(59.0197 17.6024)">
<stop stop-color="#E1E1E1"/>
<stop offset="1" stop-color="#FFF4DA"/>
</radialGradient>
<radialGradient id="paint18_radial_692_1688" cx="0" cy="0" r="1" gradientUnits="userSpaceOnUse" gradientTransform="translate(177.059 17.6024) rotate(180) scale(59.0197 17.6024)">
<stop stop-color="#E1E1E1"/>
<stop offset="1" stop-color="#FFF4DA"/>
</radialGradient>
<radialGradient id="paint19_radial_692_1688" cx="0" cy="0" r="1" gradientUnits="userSpaceOnUse" gradientTransform="translate(177.059 17.6024) rotate(180) scale(59.0197 17.6024)">
<stop stop-color="#E1E1E1"/>
<stop offset="1" stop-color="#FFF4DA"/>
</radialGradient>
<radialGradient id="paint20_radial_692_1688" cx="0" cy="0" r="1" gradientUnits="userSpaceOnUse" gradientTransform="translate(177.059 17.6024) rotate(180) scale(59.0197 17.6024)">
<stop stop-color="#E1E1E1"/>
<stop offset="1" stop-color="#FFF4DA"/>
</radialGradient>
<radialGradient id="paint21_radial_692_1688" cx="0" cy="0" r="1" gradientUnits="userSpaceOnUse" gradientTransform="translate(177.059 17.6024) rotate(180) scale(59.0197 17.6024)">
<stop stop-color="#E1E1E1"/>
<stop offset="1" stop-color="#FFF4DA"/>
</radialGradient>
<radialGradient id="paint22_radial_692_1688" cx="0" cy="0" r="1" gradientUnits="userSpaceOnUse" gradientTransform="translate(177.059 17.6024) rotate(180) scale(59.0197 17.6024)">
<stop stop-color="#E1E1E1"/>
<stop offset="1" stop-color="#FFF4DA"/>
</radialGradient>
<radialGradient id="paint23_radial_692_1688" cx="0" cy="0" r="1" gradientUnits="userSpaceOnUse" gradientTransform="translate(177.059 17.6024) rotate(180) scale(59.0197 17.6024)">
<stop stop-color="#E1E1E1"/>
<stop offset="1" stop-color="#FFF4DA"/>
</radialGradient>
</defs>
</svg>
