<svg width="237" height="132" viewBox="0 0 237 132" fill="none" xmlns="http://www.w3.org/2000/svg">
<path d="M50.7125 108.06C49.3889 108.487 47.9214 108.504 46.7169 107.809C44.5794 106.575 44.1412 105.154 44.5234 102.508V102.508C42.8798 103.056 42.063 104.953 43.0339 106.388C43.9977 107.812 45.0937 108.974 46.6267 110.246C47.9171 111.316 49.5696 111.855 51.2458 111.812C56.4406 111.679 59.0349 110.851 62.1257 108.72C61.1051 110.641 61.1618 111.76 61.9885 113.6C62.0605 113.76 62.2568 113.822 62.4077 113.731C64.0825 112.73 65.0039 111.892 66.2674 109.756C66.2154 114.032 66.9843 113.977 70.4091 114.933C67.5194 110.86 68.0525 109.221 70.1981 106.254C70.9958 105.151 72.1259 104.331 73.4053 103.866L78.5776 101.985C81.3342 100.982 84.3487 100.942 87.1313 101.869L104.173 107.55C104.307 107.435 104.442 107.326 104.578 107.223V104.508C104.578 103.403 105.474 102.508 106.578 102.508H108.791C109.896 102.508 110.791 103.403 110.791 104.508V105.614H111.826V103.472C111.826 102.368 110.931 101.472 109.826 101.472H105.543C104.438 101.472 103.543 102.368 103.543 103.472V106.65C98.7736 103.748 93.5321 101.584 86.7257 99.7769C82.8456 98.747 78.7534 99.0145 74.9328 100.247L50.7125 108.06Z" fill="url(#paint0_radial_692_1480)"/>
<path fill-rule="evenodd" clip-rule="evenodd" d="M118.039 111.827V108.721C115.458 105.74 114.163 105.799 111.826 105.614H110.791C108.063 105.589 106.222 105.979 104.578 107.223V107.685L104.173 107.55C103.27 108.327 102.409 109.382 101.472 110.791C94.4225 108.167 92.2419 105.859 84.6304 104.117C82.7927 103.696 80.8379 103.854 79.1733 104.739C77.1406 105.82 75.7478 107.075 74.4004 109.235C73.7976 110.201 73.7049 111.42 74.2146 112.438C75.0495 114.107 76.2498 115.417 79.1376 117.128C80.1186 117.709 81.3505 117.62 82.2784 116.957L86.28 114.099C87.2184 113.429 87.4128 112.09 86.6211 111.251C84.8302 109.354 83.7227 109.09 81.7989 109.756C83.0242 110.067 83.7473 110.456 84.396 111.688C84.7596 112.378 84.5518 113.216 84 113.767L82.2754 115.492C81.3706 116.397 79.9663 116.664 78.9055 115.948C77.3915 114.927 76.4781 113.802 75.4876 112.283C74.8937 111.372 74.8539 110.185 75.48 109.296C77.188 106.871 79.0763 106.022 82.8343 105.614C87.5138 105.758 93.9734 109.592 101.472 112.862C101.61 115.305 101.827 117.608 105.43 119.531C106.15 119.915 107.027 119.733 107.604 119.156L110.252 116.508C110.55 116.21 110.55 115.727 110.252 115.429V115.429C109.971 115.149 109.521 115.134 109.21 115.381C104.882 118.812 103.349 117.017 102.508 112.862C108.784 113.743 111.6 112.063 112.862 106.65H114.933L118.039 111.827ZM102.508 111.827C105.324 107.593 107.416 106.549 111.826 106.65C109.581 111.782 107.623 113.001 102.508 111.827Z" fill="url(#paint1_radial_692_1480)"/>
<path d="M118.039 114.933V111.827C116.112 115.763 116.189 118.074 110.791 119.075C111.96 121.038 112.806 121.636 114.933 121.146C115.324 125.201 115.717 127.472 118.039 131.5V125.287C116.703 121.107 116.952 118.865 118.039 114.933Z" fill="url(#paint2_radial_692_1480)"/>
<path d="M115.968 98.3662C116.06 94.792 116.696 93.3936 118.039 91.1182V105.614C115.722 100.811 114.342 99.4138 111.826 99.4015C113.364 97.8121 114.276 97.3638 115.968 98.3662Z" fill="url(#paint3_radial_692_1480)"/>
<path d="M185.366 108.06C186.689 108.487 188.157 108.504 189.361 107.809C191.499 106.575 191.937 105.154 191.555 102.508V102.508C193.198 103.056 194.015 104.953 193.044 106.388C192.08 107.812 190.984 108.974 189.451 110.246C188.161 111.316 186.509 111.855 184.832 111.812C179.637 111.679 177.043 110.851 173.952 108.72C174.973 110.641 174.916 111.76 174.09 113.6C174.018 113.76 173.821 113.822 173.67 113.731C171.996 112.73 171.074 111.892 169.811 109.756C169.863 114.032 169.094 113.977 165.669 114.933C168.559 110.86 168.026 109.221 165.88 106.254C165.082 105.151 163.952 104.331 162.673 103.866L157.5 101.985C154.744 100.982 151.729 100.942 148.947 101.869L131.905 107.55C131.771 107.435 131.636 107.326 131.5 107.223V104.508C131.5 103.403 130.604 102.508 129.5 102.508H127.287C126.183 102.508 125.287 103.403 125.287 104.508V105.614H124.252V103.472C124.252 102.368 125.147 101.472 126.252 101.472H130.535C131.64 101.472 132.535 102.368 132.535 103.472V106.65C137.304 103.748 142.546 101.584 149.352 99.7769C153.232 98.747 157.325 99.0145 161.145 100.247L185.366 108.06Z" fill="url(#paint4_radial_692_1480)"/>
<path fill-rule="evenodd" clip-rule="evenodd" d="M118.039 111.827V108.721C120.62 105.74 121.915 105.799 124.252 105.614H125.287C128.015 105.589 129.856 105.979 131.5 107.223V107.685L131.905 107.55C132.808 108.327 133.669 109.382 134.606 110.791C141.656 108.167 143.836 105.859 151.448 104.117C153.285 103.696 155.24 103.854 156.905 104.739C158.938 105.82 160.33 107.075 161.678 109.235C162.281 110.201 162.373 111.42 161.863 112.438C161.029 114.107 159.828 115.417 156.941 117.128C155.96 117.709 154.728 117.62 153.8 116.957L149.798 114.099C148.86 113.429 148.665 112.09 149.457 111.251C151.248 109.354 152.355 109.09 154.279 109.756C153.054 110.067 152.331 110.456 151.682 111.688C151.319 112.378 151.526 113.216 152.078 113.767L153.803 115.492C154.708 116.397 156.112 116.664 157.173 115.948C158.687 114.927 159.6 113.802 160.591 112.283C161.184 111.372 161.224 110.185 160.598 109.296C158.89 106.871 157.002 106.022 153.244 105.614C148.564 105.758 142.105 109.592 134.606 112.862C134.468 115.305 134.251 117.608 130.648 119.531C129.928 119.915 129.051 119.733 128.474 119.156L125.826 116.508C125.528 116.21 125.528 115.727 125.826 115.429V115.429C126.107 115.149 126.557 115.134 126.868 115.381C131.196 118.812 132.729 117.017 133.571 112.862C127.294 113.743 124.478 112.063 123.216 106.65H121.145L118.039 111.827ZM133.571 111.827C130.754 107.593 128.662 106.549 124.252 106.65C126.497 111.782 128.455 113.001 133.571 111.827Z" fill="url(#paint5_radial_692_1480)"/>
<path d="M118.039 114.933V111.827C119.967 115.763 119.889 118.074 125.287 119.075C124.119 121.038 123.273 121.636 121.145 121.146C120.754 125.201 120.361 127.472 118.039 131.5V125.287C119.375 121.107 119.126 118.865 118.039 114.933Z" fill="url(#paint6_radial_692_1480)"/>
<path d="M120.11 98.3662C120.019 94.792 119.382 93.3936 118.039 91.1182V105.614C120.356 100.811 121.736 99.4138 124.252 99.4015C122.714 97.8121 121.802 97.3638 120.11 98.3662Z" fill="url(#paint7_radial_692_1480)"/>
<path d="M85.043 46.8984C85.3008 46.8984 85.7663 46.8841 86.4395 46.8555C87.1126 46.8268 87.9935 46.7839 89.082 46.7266C89.2969 47.5716 89.6764 48.7318 90.2207 50.207C90.7793 51.6823 91.4453 53.3366 92.2188 55.1699C92.9922 56.9889 93.8158 58.8652 94.6895 60.7988C95.5775 62.7181 96.4583 64.5443 97.332 66.2773C97.4323 65.9909 97.5182 65.7044 97.5898 65.418C97.6758 65.1172 97.7474 64.8164 97.8047 64.5156L99.9961 52.957C100.368 51.0521 100.555 49.7344 100.555 49.0039C100.555 48.7747 100.361 48.5814 99.9746 48.4238C99.6022 48.252 99.1725 48.123 98.6855 48.0371C98.2129 47.9368 97.8333 47.8867 97.5469 47.8867C97.4896 47.8867 97.4609 47.7865 97.4609 47.5859C97.4609 47.1706 97.5612 46.8841 97.7617 46.7266C99.237 46.7982 100.347 46.8555 101.092 46.8984C101.851 46.9271 102.245 46.9414 102.273 46.9414C102.474 46.9414 102.961 46.9271 103.734 46.8984C104.522 46.8555 105.596 46.7982 106.957 46.7266C106.957 47.5 106.871 47.8867 106.699 47.8867C106.513 47.8867 106.155 47.9368 105.625 48.0371C105.109 48.1374 104.615 48.2591 104.143 48.4023C103.67 48.5456 103.405 48.6888 103.348 48.832C102.975 49.7917 102.617 51.1237 102.273 52.8281L99.0508 69.1562C98.9648 69.6003 98.8717 70.1087 98.7715 70.6816C98.6712 71.2546 98.5638 71.8919 98.4492 72.5938C98.3346 73.2956 98.2415 73.8613 98.1699 74.291C98.0983 74.7207 98.0482 75.0143 98.0195 75.1719C97.9049 75.2865 97.7617 75.3438 97.5898 75.3438C97.1888 75.3438 96.8164 75.0143 96.4727 74.3555L85.9023 50.0352L82.0781 68.9414C81.7917 70.3737 81.6484 71.6484 81.6484 72.7656C81.6484 72.9948 81.8776 73.2096 82.3359 73.4102C82.7943 73.6107 83.2526 73.7539 83.7109 73.8398L84.4414 73.9688C84.4987 73.9688 84.5273 74.0404 84.5273 74.1836C84.5273 74.5417 84.4557 74.8568 84.3125 75.1289C82.9948 75.0573 81.9635 75.0072 81.2188 74.9785C80.474 74.9355 80.0156 74.9141 79.8438 74.9141C79.8151 74.9141 79.4069 74.9355 78.6191 74.9785C77.8314 75.0072 76.6641 75.0573 75.1172 75.1289C75.0599 75.0716 75.0312 74.957 75.0312 74.7852C75.0312 74.2409 75.1315 73.9688 75.332 73.9688C75.5612 73.9688 75.9264 73.9186 76.4277 73.8184C76.929 73.7038 77.4017 73.5677 77.8457 73.4102C78.304 73.2383 78.569 73.0807 78.6406 72.9375C78.9701 72.3073 79.3568 70.9323 79.8008 68.8125L83.1094 52.8281C83.3672 51.5534 83.4961 50.2643 83.4961 48.9609C83.4961 48.7318 83.3171 48.5384 82.959 48.3809C82.6009 48.2233 82.1927 48.1016 81.7344 48.0156C81.276 47.9297 80.8893 47.8867 80.5742 47.8867C80.5169 47.8867 80.4883 47.7865 80.4883 47.5859C80.4883 47.1706 80.5885 46.8841 80.7891 46.7266C81.9062 46.7839 82.8158 46.8268 83.5176 46.8555C84.2337 46.8841 84.7422 46.8984 85.043 46.8984ZM117.57 56.3086C118.63 56.3086 119.676 56.4948 120.707 56.8672L118.086 70.4453C118 70.7891 117.957 71.1471 117.957 71.5195C117.957 72.2357 118.1 72.5938 118.387 72.5938C118.745 72.5938 119.174 72.3431 119.676 71.8418C120.177 71.3262 120.607 70.8893 120.965 70.5312L121.223 70.2305C121.28 70.2305 121.387 70.3665 121.545 70.6387C121.702 70.9108 121.781 71.1042 121.781 71.2188C121.538 71.6341 121.094 72.1641 120.449 72.8086C119.819 73.4531 119.132 74.026 118.387 74.5273C117.642 75.0143 116.969 75.2578 116.367 75.2578C115.909 75.2578 115.551 75.0501 115.293 74.6348C115.035 74.2194 114.906 73.6823 114.906 73.0234C114.906 72.5794 115.007 71.8203 115.207 70.7461L115.357 69.9941C115.4 69.7936 115.422 69.6719 115.422 69.6289C115.193 70.0586 114.863 70.5885 114.434 71.2188C114.004 71.8346 113.51 72.4505 112.951 73.0664C112.393 73.6823 111.805 74.1979 111.189 74.6133C110.574 75.0143 109.965 75.2148 109.363 75.2148C108.103 75.2148 107.107 74.6491 106.377 73.5176C105.646 72.3861 105.281 71.0182 105.281 69.4141C105.281 67.3659 105.89 65.3249 107.107 63.291C107.924 61.916 108.898 60.7057 110.029 59.6602C111.175 58.6146 112.4 57.7982 113.703 57.2109C115.007 56.6094 116.296 56.3086 117.57 56.3086ZM115.766 58.2852C114.921 58.2852 114.068 58.5859 113.209 59.1875C112.35 59.7747 111.562 60.5697 110.846 61.5723C110.13 62.5605 109.549 63.6634 109.105 64.8809C108.676 66.084 108.461 67.2943 108.461 68.5117C108.461 71.319 109.191 72.7227 110.652 72.7227C111.168 72.7227 111.727 72.4362 112.328 71.8633C112.93 71.2904 113.524 70.5312 114.111 69.5859C114.699 68.6406 115.214 67.6165 115.658 66.5137C116.117 65.3965 116.453 64.3008 116.668 63.2266L117.527 58.8438C117.184 58.4714 116.596 58.2852 115.766 58.2852ZM138.367 56.3086C139.141 56.3086 139.735 56.5378 140.15 56.9961C140.566 57.4544 140.816 57.9342 140.902 58.4355C140.988 58.9368 141.031 59.5885 141.031 60.3906C141.031 60.9206 140.831 62.1953 140.43 64.2148C140.902 63.3984 141.49 62.5319 142.191 61.6152C142.893 60.6986 143.631 59.8392 144.404 59.0371C145.178 58.235 145.923 57.5833 146.639 57.082C147.355 56.5664 147.964 56.3086 148.465 56.3086C149.41 56.3086 150.055 56.5449 150.398 57.0176C150.742 57.4902 150.914 58.1992 150.914 59.1445C150.914 60.4766 150.714 62.0378 150.312 63.8281L148.895 70.4453C148.809 70.7891 148.766 71.1471 148.766 71.5195C148.766 72.2357 148.909 72.5938 149.195 72.5938C149.553 72.5938 149.983 72.3431 150.484 71.8418C150.986 71.3262 151.415 70.8893 151.773 70.5312L152.031 70.2305C152.089 70.2305 152.196 70.3665 152.354 70.6387C152.511 70.9108 152.59 71.1042 152.59 71.2188C152.346 71.6341 151.902 72.1641 151.258 72.8086C150.628 73.4531 149.94 74.026 149.195 74.5273C148.451 75.0143 147.777 75.2578 147.176 75.2578C146.717 75.2578 146.359 75.0501 146.102 74.6348C145.844 74.2194 145.715 73.6823 145.715 73.0234C145.715 72.5938 145.815 71.8346 146.016 70.7461L147.52 63.6562C147.72 62.6823 147.82 61.9089 147.82 61.3359C147.82 60.8346 147.777 60.4049 147.691 60.0469C147.62 59.6745 147.391 59.4883 147.004 59.4883C146.517 59.4883 145.88 59.832 145.092 60.5195C144.318 61.207 143.516 62.1165 142.686 63.248C141.855 64.3652 141.11 65.597 140.451 66.9434C139.792 68.2754 139.341 69.6003 139.098 70.918L138.324 75H135.445L137.852 62.7969C137.966 62.1523 138.023 61.6081 138.023 61.1641C138.023 60.0469 137.737 59.4883 137.164 59.4883C136.663 59.4883 136.025 59.8678 135.252 60.627C134.479 61.3861 133.684 62.3672 132.867 63.5703C132.051 64.7734 131.32 66.0553 130.676 67.416C130.031 68.7624 129.587 70.0299 129.344 71.2188L128.57 75C127.768 75.1146 127.281 75.1719 127.109 75.1719C126.966 75.1719 126.493 75.1146 125.691 75L128.27 61.7656C128.413 60.7773 128.484 60.2044 128.484 60.0469C128.484 59.3307 128.341 58.9727 128.055 58.9727C127.811 58.9727 127.446 59.2018 126.959 59.6602C126.73 59.8893 126.479 60.14 126.207 60.4121C125.949 60.6842 125.777 60.8776 125.691 60.9922C125.634 60.9922 125.527 60.8561 125.369 60.584C125.212 60.3118 125.133 60.1185 125.133 60.0039C125.362 59.6172 125.777 59.1374 126.379 58.5645C126.98 57.9772 127.625 57.4544 128.312 56.9961C129 56.5378 129.587 56.3086 130.074 56.3086C130.533 56.3086 130.891 56.5163 131.148 56.9316C131.406 57.347 131.535 57.8841 131.535 58.543C131.535 59.1732 131.449 59.9323 131.277 60.8203L130.504 64.8164C131.034 63.8997 131.643 62.9473 132.33 61.959C133.032 60.9707 133.748 60.0469 134.479 59.1875C135.223 58.3281 135.932 57.6335 136.605 57.1035C137.279 56.5736 137.866 56.3086 138.367 56.3086ZM156.156 70.7461L160.195 49.9062C160.281 49.4766 160.324 49.0755 160.324 48.7031C160.324 48.1589 159.451 47.8867 157.703 47.8867C157.617 47.8867 157.574 47.8008 157.574 47.6289C157.574 47.2852 157.689 46.9987 157.918 46.7695C159.837 46.5977 161.671 46.1966 163.418 45.5664C163.59 45.6523 163.676 45.9245 163.676 46.3828C163.676 46.6979 163.49 47.7721 163.117 49.6055L159.035 70.4453C158.949 70.7891 158.906 71.1471 158.906 71.5195C158.906 72.2357 159.049 72.5938 159.336 72.5938C159.508 72.5938 159.715 72.515 159.959 72.3574C160.202 72.1999 160.453 72.0065 160.711 71.7773C160.969 71.5482 161.262 71.2546 161.592 70.8965C161.921 70.5241 162.115 70.3021 162.172 70.2305C162.258 70.2305 162.372 70.3665 162.516 70.6387C162.659 70.9108 162.73 71.1042 162.73 71.2188C162.487 71.6341 162.043 72.1641 161.398 72.8086C160.768 73.4531 160.081 74.026 159.336 74.5273C158.591 75.0143 157.918 75.2578 157.316 75.2578C156.887 75.2578 156.536 75.0501 156.264 74.6348C155.992 74.2194 155.855 73.6823 155.855 73.0234C155.855 72.5794 155.956 71.8203 156.156 70.7461Z" fill="white"/>
<path d="M0 14.4961C6.30012 20.0984 15.0791 19.1979 30.687 15.1421C32.2497 14.736 33.9168 14.9601 35.3059 15.7832L61.0905 31.063L35.3304 19.6141C33.9205 18.9874 32.3183 18.9353 30.8588 19.4358C12.5496 25.7159 4.73674 24.7283 0 14.4961Z" fill="url(#paint8_radial_692_1480)"/>
<path d="M16.5669 25.8858C22.7094 27.5488 34.4861 19.1752 43.5027 24.2129C35.7991 20.3448 24.9274 34.7378 16.5669 25.8858Z" fill="url(#paint9_radial_692_1480)"/>
<path d="M42.4528 34.1693C40.4746 32.9379 39.8039 31.791 39.5364 30.2054C39.314 28.8871 40.2138 27.6374 41.514 27.3262C46.4064 26.1551 49.6595 27.3172 54.8779 31.063C50.3759 26.3362 46.8249 25.2844 39.6469 25.78C38.7972 25.8387 38.0191 26.2751 37.5081 26.9564L36.1669 28.7446C35.6047 29.4943 35.6307 30.5432 36.2784 31.2205C38.4425 33.4837 39.9798 34.1156 42.4528 34.1693Z" fill="url(#paint10_radial_692_1480)"/>
<path d="M61.0905 28.9921C48.8725 19.5072 53.131 18.6378 60.0551 10.3543C56.6285 8.93238 54.8937 8.83857 52.8071 12.4252C51.2879 8.29387 49.7783 6.42726 45.559 4.14173C43.8524 8.52031 44.6321 10.6991 46.5945 14.4961C42.9378 12.0347 40.7471 11.3823 36.2402 13.4606C46.3046 17.727 45.2926 18.8748 61.0905 28.9921Z" fill="url(#paint11_radial_692_1480)"/>
<path d="M78.6929 22.7441C78.6929 22.1918 79.1406 21.7441 79.6929 21.7441H79.7638C80.3161 21.7441 80.7638 22.1918 80.7638 22.7441V25.9213C80.7638 26.4735 80.3161 26.9213 79.7638 26.9213H74.4803C73.3757 26.9213 72.4803 26.0258 72.4803 24.9213V19.6024C72.4803 18.4978 73.3757 17.6024 74.4803 17.6024H78.7281C80.6137 17.6024 82.4755 18.023 84.178 18.8337V18.8337C85.2965 19.3663 86.1249 20.3629 86.4441 21.5599L88.3399 28.6695C89.2063 31.9182 86.6836 35.0788 83.3237 34.9544L68.0679 34.3894C64.7776 34.2675 62.2002 31.5169 62.2923 28.2256L62.6948 13.8426C62.7856 10.5955 65.4441 8.01038 68.6924 8.01038H83.0387C86.0229 8.01038 88.8896 9.21712 90.915 11.4088C101.807 23.194 109.097 33.3225 115.395 32.2299C115.685 32.1796 115.968 32.3916 115.968 32.686V32.686C115.968 32.9325 115.766 33.1318 115.519 33.1285C109.37 33.045 105.37 32.4313 87.653 13.254C86.5367 12.0456 85.0793 11.1983 83.4735 10.8414L77.8584 9.59364C77.0431 9.41248 76.199 9.4035 75.3801 9.56728L71.091 10.4251C68.2865 10.986 66.2677 13.4485 66.2677 16.3086V27.0984C66.2677 29.8599 68.5063 32.0984 71.2677 32.0984H80.9055C83.1146 32.0984 84.9055 30.3076 84.9055 28.0984V22.6378C84.9055 20.4287 83.1146 18.6378 80.9055 18.6378H76.5512C75.4466 18.6378 74.5512 19.5332 74.5512 20.6378V24.8858C74.5512 25.4381 74.9989 25.8858 75.5512 25.8858H77.6929C78.2452 25.8858 78.6929 25.4381 78.6929 24.8858V22.7441Z" fill="url(#paint12_radial_692_1480)"/>
<path d="M104.412 33.0631C96.4743 29.9513 88.3242 12.4066 78.6929 13.4606C91.6665 19.2326 92.9183 31.4785 104.412 33.0631Z" fill="url(#paint13_radial_692_1480)"/>
<path d="M111.827 30.0276C106.485 21.6827 106.361 16.9143 110.791 8.28346C105.363 9.71409 97.6256 19.5114 111.827 30.0276Z" fill="url(#paint14_radial_692_1480)"/>
<path d="M118.039 10.3543C113.102 14.0549 110.405 23.2793 118.039 32.0984C106.33 25.6888 109.793 12.7713 118.039 0V10.3543Z" fill="url(#paint15_radial_692_1480)"/>
<path d="M236.079 14.4961C229.778 20.0984 221 19.1979 205.392 15.1421C203.829 14.736 202.162 14.9601 200.773 15.7832L174.988 31.063L200.748 19.6141C202.158 18.9874 203.76 18.9353 205.22 19.4358C223.529 25.7159 231.342 24.7283 236.079 14.4961Z" fill="url(#paint16_radial_692_1480)"/>
<path d="M219.512 25.8858C213.369 27.5488 201.593 19.1752 192.576 24.2129C200.279 20.3448 211.151 34.7378 219.512 25.8858Z" fill="url(#paint17_radial_692_1480)"/>
<path d="M193.626 34.1693C195.604 32.9379 196.275 31.791 196.542 30.2054C196.765 28.8871 195.865 27.6374 194.565 27.3262C189.672 26.1551 186.419 27.3172 181.201 31.063C185.703 26.3362 189.254 25.2844 196.432 25.78C197.281 25.8387 198.06 26.2751 198.571 26.9564L199.912 28.7446C200.474 29.4943 200.448 30.5432 199.8 31.2205C197.636 33.4837 196.099 34.1156 193.626 34.1693Z" fill="url(#paint18_radial_692_1480)"/>
<path d="M174.988 28.9921C187.206 19.5072 182.948 18.6378 176.024 10.3543C179.45 8.93238 181.185 8.83857 183.272 12.4252C184.791 8.29387 186.3 6.42726 190.52 4.14173C192.226 8.52031 191.446 10.6991 189.484 14.4961C193.141 12.0347 195.331 11.3823 199.838 13.4606C189.774 17.727 190.786 18.8748 174.988 28.9921Z" fill="url(#paint19_radial_692_1480)"/>
<path d="M157.386 22.7441C157.386 22.1918 156.938 21.7441 156.386 21.7441H156.315C155.763 21.7441 155.315 22.1918 155.315 22.7441V25.9213C155.315 26.4735 155.763 26.9213 156.315 26.9213H161.598C162.703 26.9213 163.598 26.0258 163.598 24.9213V19.6024C163.598 18.4978 162.703 17.6024 161.598 17.6024H157.351C155.465 17.6024 153.603 18.023 151.901 18.8337V18.8337C150.782 19.3663 149.954 20.3629 149.635 21.5599L147.739 28.6695C146.872 31.9182 149.395 35.0788 152.755 34.9544L168.011 34.3894C171.301 34.2675 173.878 31.5169 173.786 28.2256L173.384 13.8426C173.293 10.5955 170.635 8.01038 167.386 8.01038H153.04C150.056 8.01038 147.189 9.21712 145.164 11.4088C134.272 23.194 126.982 33.3225 120.683 32.2299C120.393 32.1796 120.11 32.3916 120.11 32.686V32.686C120.11 32.9325 120.313 33.1318 120.559 33.1285C126.708 33.045 130.709 32.4313 148.426 13.254C149.542 12.0456 150.999 11.1983 152.605 10.8414L158.22 9.59364C159.035 9.41248 159.88 9.4035 160.698 9.56728L164.988 10.4251C167.792 10.986 169.811 13.4485 169.811 16.3086V27.0984C169.811 29.8599 167.572 32.0984 164.811 32.0984H155.173C152.964 32.0984 151.173 30.3076 151.173 28.0984V22.6378C151.173 20.4287 152.964 18.6378 155.173 18.6378H159.527C160.632 18.6378 161.527 19.5332 161.527 20.6378V24.8858C161.527 25.4381 161.08 25.8858 160.527 25.8858H158.386C157.833 25.8858 157.386 25.4381 157.386 24.8858V22.7441Z" fill="url(#paint20_radial_692_1480)"/>
<path d="M131.666 33.0631C139.604 29.9513 147.754 12.4066 157.386 13.4606C144.412 19.2326 143.16 31.4785 131.666 33.0631Z" fill="url(#paint21_radial_692_1480)"/>
<path d="M124.252 30.0276C129.594 21.6827 129.718 16.9143 125.287 8.28346C130.716 9.71409 138.453 19.5114 124.252 30.0276Z" fill="url(#paint22_radial_692_1480)"/>
<path d="M118.039 10.3543C122.976 14.0549 125.673 23.2793 118.039 32.0984C129.749 25.6888 126.286 12.7713 118.039 0V10.3543Z" fill="url(#paint23_radial_692_1480)"/>
<defs>
<radialGradient id="paint0_radial_692_1480" cx="0" cy="0" r="1" gradientUnits="userSpaceOnUse" gradientTransform="translate(79.728 111.309) scale(38.311 20.1909)">
<stop stop-color="#E1E1E1"/>
<stop offset="1" stop-color="#FFF4DA"/>
</radialGradient>
<radialGradient id="paint1_radial_692_1480" cx="0" cy="0" r="1" gradientUnits="userSpaceOnUse" gradientTransform="translate(79.728 111.309) scale(38.311 20.1909)">
<stop stop-color="#E1E1E1"/>
<stop offset="1" stop-color="#FFF4DA"/>
</radialGradient>
<radialGradient id="paint2_radial_692_1480" cx="0" cy="0" r="1" gradientUnits="userSpaceOnUse" gradientTransform="translate(79.728 111.309) scale(38.311 20.1909)">
<stop stop-color="#E1E1E1"/>
<stop offset="1" stop-color="#FFF4DA"/>
</radialGradient>
<radialGradient id="paint3_radial_692_1480" cx="0" cy="0" r="1" gradientUnits="userSpaceOnUse" gradientTransform="translate(79.728 111.309) scale(38.311 20.1909)">
<stop stop-color="#E1E1E1"/>
<stop offset="1" stop-color="#FFF4DA"/>
</radialGradient>
<radialGradient id="paint4_radial_692_1480" cx="0" cy="0" r="1" gradientUnits="userSpaceOnUse" gradientTransform="translate(156.35 111.309) rotate(180) scale(38.311 20.1909)">
<stop stop-color="#E1E1E1"/>
<stop offset="1" stop-color="#FFF4DA"/>
</radialGradient>
<radialGradient id="paint5_radial_692_1480" cx="0" cy="0" r="1" gradientUnits="userSpaceOnUse" gradientTransform="translate(156.35 111.309) rotate(180) scale(38.311 20.1909)">
<stop stop-color="#E1E1E1"/>
<stop offset="1" stop-color="#FFF4DA"/>
</radialGradient>
<radialGradient id="paint6_radial_692_1480" cx="0" cy="0" r="1" gradientUnits="userSpaceOnUse" gradientTransform="translate(156.35 111.309) rotate(180) scale(38.311 20.1909)">
<stop stop-color="#E1E1E1"/>
<stop offset="1" stop-color="#FFF4DA"/>
</radialGradient>
<radialGradient id="paint7_radial_692_1480" cx="0" cy="0" r="1" gradientUnits="userSpaceOnUse" gradientTransform="translate(156.35 111.309) rotate(180) scale(38.311 20.1909)">
<stop stop-color="#E1E1E1"/>
<stop offset="1" stop-color="#FFF4DA"/>
</radialGradient>
<radialGradient id="paint8_radial_692_1480" cx="0" cy="0" r="1" gradientUnits="userSpaceOnUse" gradientTransform="translate(59.0197 17.6024) scale(59.0197 17.6024)">
<stop stop-color="#E1E1E1"/>
<stop offset="1" stop-color="#FFF4DA"/>
</radialGradient>
<radialGradient id="paint9_radial_692_1480" cx="0" cy="0" r="1" gradientUnits="userSpaceOnUse" gradientTransform="translate(59.0197 17.6024) scale(59.0197 17.6024)">
<stop stop-color="#E1E1E1"/>
<stop offset="1" stop-color="#FFF4DA"/>
</radialGradient>
<radialGradient id="paint10_radial_692_1480" cx="0" cy="0" r="1" gradientUnits="userSpaceOnUse" gradientTransform="translate(59.0197 17.6024) scale(59.0197 17.6024)">
<stop stop-color="#E1E1E1"/>
<stop offset="1" stop-color="#FFF4DA"/>
</radialGradient>
<radialGradient id="paint11_radial_692_1480" cx="0" cy="0" r="1" gradientUnits="userSpaceOnUse" gradientTransform="translate(59.0197 17.6024) scale(59.0197 17.6024)">
<stop stop-color="#E1E1E1"/>
<stop offset="1" stop-color="#FFF4DA"/>
</radialGradient>
<radialGradient id="paint12_radial_692_1480" cx="0" cy="0" r="1" gradientUnits="userSpaceOnUse" gradientTransform="translate(59.0197 17.6024) scale(59.0197 17.6024)">
<stop stop-color="#E1E1E1"/>
<stop offset="1" stop-color="#FFF4DA"/>
</radialGradient>
<radialGradient id="paint13_radial_692_1480" cx="0" cy="0" r="1" gradientUnits="userSpaceOnUse" gradientTransform="translate(59.0197 17.6024) scale(59.0197 17.6024)">
<stop stop-color="#E1E1E1"/>
<stop offset="1" stop-color="#FFF4DA"/>
</radialGradient>
<radialGradient id="paint14_radial_692_1480" cx="0" cy="0" r="1" gradientUnits="userSpaceOnUse" gradientTransform="translate(59.0197 17.6024) scale(59.0197 17.6024)">
<stop stop-color="#E1E1E1"/>
<stop offset="1" stop-color="#FFF4DA"/>
</radialGradient>
<radialGradient id="paint15_radial_692_1480" cx="0" cy="0" r="1" gradientUnits="userSpaceOnUse" gradientTransform="translate(59.0197 17.6024) scale(59.0197 17.6024)">
<stop stop-color="#E1E1E1"/>
<stop offset="1" stop-color="#FFF4DA"/>
</radialGradient>
<radialGradient id="paint16_radial_692_1480" cx="0" cy="0" r="1" gradientUnits="userSpaceOnUse" gradientTransform="translate(177.059 17.6024) rotate(180) scale(59.0197 17.6024)">
<stop stop-color="#E1E1E1"/>
<stop offset="1" stop-color="#FFF4DA"/>
</radialGradient>
<radialGradient id="paint17_radial_692_1480" cx="0" cy="0" r="1" gradientUnits="userSpaceOnUse" gradientTransform="translate(177.059 17.6024) rotate(180) scale(59.0197 17.6024)">
<stop stop-color="#E1E1E1"/>
<stop offset="1" stop-color="#FFF4DA"/>
</radialGradient>
<radialGradient id="paint18_radial_692_1480" cx="0" cy="0" r="1" gradientUnits="userSpaceOnUse" gradientTransform="translate(177.059 17.6024) rotate(180) scale(59.0197 17.6024)">
<stop stop-color="#E1E1E1"/>
<stop offset="1" stop-color="#FFF4DA"/>
</radialGradient>
<radialGradient id="paint19_radial_692_1480" cx="0" cy="0" r="1" gradientUnits="userSpaceOnUse" gradientTransform="translate(177.059 17.6024) rotate(180) scale(59.0197 17.6024)">
<stop stop-color="#E1E1E1"/>
<stop offset="1" stop-color="#FFF4DA"/>
</radialGradient>
<radialGradient id="paint20_radial_692_1480" cx="0" cy="0" r="1" gradientUnits="userSpaceOnUse" gradientTransform="translate(177.059 17.6024) rotate(180) scale(59.0197 17.6024)">
<stop stop-color="#E1E1E1"/>
<stop offset="1" stop-color="#FFF4DA"/>
</radialGradient>
<radialGradient id="paint21_radial_692_1480" cx="0" cy="0" r="1" gradientUnits="userSpaceOnUse" gradientTransform="translate(177.059 17.6024) rotate(180) scale(59.0197 17.6024)">
<stop stop-color="#E1E1E1"/>
<stop offset="1" stop-color="#FFF4DA"/>
</radialGradient>
<radialGradient id="paint22_radial_692_1480" cx="0" cy="0" r="1" gradientUnits="userSpaceOnUse" gradientTransform="translate(177.059 17.6024) rotate(180) scale(59.0197 17.6024)">
<stop stop-color="#E1E1E1"/>
<stop offset="1" stop-color="#FFF4DA"/>
</radialGradient>
<radialGradient id="paint23_radial_692_1480" cx="0" cy="0" r="1" gradientUnits="userSpaceOnUse" gradientTransform="translate(177.059 17.6024) rotate(180) scale(59.0197 17.6024)">
<stop stop-color="#E1E1E1"/>
<stop offset="1" stop-color="#FFF4DA"/>
</radialGradient>
</defs>
</svg>
