<svg width="237" height="132" viewBox="0 0 237 132" fill="none" xmlns="http://www.w3.org/2000/svg">
<path d="M50.713 108.06C49.3894 108.487 47.9219 108.504 46.7174 107.809C44.5799 106.575 44.1417 105.154 44.5239 102.508V102.508C42.8803 103.056 42.0634 104.953 43.0344 106.388C43.9981 107.812 45.0942 108.974 46.6272 110.246C47.9176 111.316 49.57 111.855 51.2463 111.812C56.4411 111.679 59.0354 110.851 62.1261 108.72C61.1055 110.641 61.1623 111.76 61.9889 113.6C62.061 113.76 62.2573 113.822 62.4081 113.731C64.083 112.73 65.0044 111.892 66.2679 109.756C66.2159 114.032 66.9848 113.977 70.4096 114.933C67.5199 110.86 68.053 109.221 70.1985 106.254C70.9963 105.151 72.1264 104.331 73.4058 103.866L78.5781 101.985C81.3347 100.982 84.3491 100.942 87.1317 101.869L104.174 107.55C104.308 107.435 104.443 107.326 104.579 107.223V104.508C104.579 103.403 105.474 102.508 106.579 102.508H108.791C109.896 102.508 110.791 103.403 110.791 104.508V105.614H111.827V103.472C111.827 102.368 110.931 101.472 109.827 101.472H105.543C104.439 101.472 103.543 102.368 103.543 103.472V106.65C98.7741 103.748 93.5326 101.584 86.7262 99.7769C82.8461 98.747 78.7539 99.0145 74.9333 100.247L50.713 108.06Z" fill="url(#paint0_radial_692_1696)"/>
<path fill-rule="evenodd" clip-rule="evenodd" d="M118.04 111.827V108.721C115.458 105.74 114.164 105.799 111.827 105.614H110.791C108.063 105.589 106.223 105.979 104.579 107.223V107.685L104.174 107.55C103.27 108.327 102.41 109.382 101.473 110.791C94.423 108.167 92.2423 105.859 84.6309 104.117C82.7932 103.696 80.8384 103.854 79.1738 104.739C77.1411 105.82 75.7483 107.075 74.4009 109.235C73.7981 110.201 73.7054 111.42 74.2151 112.438C75.05 114.107 76.2503 115.417 79.1381 117.128C80.1191 117.709 81.351 117.62 82.2789 116.957L86.2804 114.099C87.2189 113.429 87.4133 112.09 86.6216 111.251C84.8307 109.354 83.7232 109.09 81.7994 109.756C83.0247 110.067 83.7478 110.456 84.3965 111.688C84.7601 112.378 84.5523 113.216 84.0005 113.767L82.2759 115.492C81.3711 116.397 79.9668 116.664 78.906 115.948C77.392 114.927 76.4786 113.802 75.488 112.283C74.8942 111.372 74.8544 110.185 75.4804 109.296C77.1885 106.871 79.0768 106.022 82.8348 105.614C87.5143 105.758 93.9739 109.592 101.473 112.862C101.611 115.305 101.827 117.608 105.431 119.531C106.15 119.915 107.027 119.733 107.604 119.156L110.252 116.508C110.55 116.21 110.55 115.727 110.252 115.429V115.429C109.972 115.149 109.522 115.134 109.211 115.381C104.883 118.812 103.35 117.017 102.508 112.862C108.785 113.743 111.601 112.063 112.862 106.65H114.933L118.04 111.827ZM102.508 111.827C105.324 107.593 107.417 106.549 111.827 106.65C109.582 111.782 107.624 113.001 102.508 111.827Z" fill="url(#paint1_radial_692_1696)"/>
<path d="M118.04 114.933V111.827C116.112 115.763 116.189 118.074 110.791 119.075C111.96 121.038 112.806 121.636 114.933 121.146C115.325 125.201 115.718 127.472 118.04 131.5V125.287C116.703 121.107 116.953 118.865 118.04 114.933Z" fill="url(#paint2_radial_692_1696)"/>
<path d="M115.969 98.3662C116.06 94.792 116.696 93.3936 118.04 91.1182V105.614C115.723 100.811 114.342 99.4138 111.827 99.4015C113.365 97.8121 114.277 97.3638 115.969 98.3662Z" fill="url(#paint3_radial_692_1696)"/>
<path d="M185.366 108.06C186.69 108.487 188.157 108.504 189.362 107.809C191.499 106.575 191.937 105.154 191.555 102.508V102.508C193.199 103.056 194.016 104.953 193.045 106.388C192.081 107.812 190.985 108.974 189.452 110.246C188.161 111.316 186.509 111.855 184.833 111.812C179.638 111.679 177.044 110.851 173.953 108.72C174.974 110.641 174.917 111.76 174.09 113.6C174.018 113.76 173.822 113.822 173.671 113.731C171.996 112.73 171.075 111.892 169.811 109.756C169.863 114.032 169.094 113.977 165.669 114.933C168.559 110.86 168.026 109.221 165.881 106.254C165.083 105.151 163.953 104.331 162.673 103.866L157.501 101.985C154.744 100.982 151.73 100.942 148.947 101.869L131.905 107.55C131.771 107.435 131.636 107.326 131.5 107.223V104.508C131.5 103.403 130.605 102.508 129.5 102.508H127.288C126.183 102.508 125.288 103.403 125.288 104.508V105.614H124.252V103.472C124.252 102.368 125.148 101.472 126.252 101.472H130.536C131.64 101.472 132.536 102.368 132.536 103.472V106.65C137.305 103.748 142.547 101.584 149.353 99.7769C153.233 98.747 157.325 99.0145 161.146 100.247L185.366 108.06Z" fill="url(#paint4_radial_692_1696)"/>
<path fill-rule="evenodd" clip-rule="evenodd" d="M118.04 111.827V108.721C120.621 105.74 121.915 105.799 124.252 105.614H125.288C128.016 105.589 129.856 105.979 131.5 107.223V107.685L131.905 107.55C132.809 108.327 133.669 109.382 134.607 110.791C141.656 108.167 143.837 105.859 151.448 104.117C153.286 103.696 155.241 103.854 156.905 104.739C158.938 105.82 160.331 107.075 161.678 109.235C162.281 110.201 162.374 111.42 161.864 112.438C161.029 114.107 159.829 115.417 156.941 117.128C155.96 117.709 154.728 117.62 153.8 116.957L149.799 114.099C148.86 113.429 148.666 112.09 149.457 111.251C151.248 109.354 152.356 109.09 154.28 109.756C153.054 110.067 152.331 110.456 151.683 111.688C151.319 112.378 151.527 113.216 152.079 113.767L153.803 115.492C154.708 116.397 156.112 116.664 157.173 115.948C158.687 114.927 159.601 113.802 160.591 112.283C161.185 111.372 161.225 110.185 160.599 109.296C158.891 106.871 157.002 106.022 153.244 105.614C148.565 105.758 142.105 109.592 134.607 112.862C134.468 115.305 134.252 117.608 130.648 119.531C129.929 119.915 129.052 119.733 128.475 119.156L125.827 116.508C125.529 116.21 125.529 115.727 125.827 115.429V115.429C126.107 115.149 126.557 115.134 126.868 115.381C131.196 118.812 132.729 117.017 133.571 112.862C127.294 113.743 124.479 112.063 123.217 106.65H121.146L118.04 111.827ZM133.571 111.827C130.755 107.593 128.662 106.549 124.252 106.65C126.497 111.782 128.455 113.001 133.571 111.827Z" fill="url(#paint5_radial_692_1696)"/>
<path d="M118.04 114.933V111.827C119.967 115.763 119.89 118.074 125.288 119.075C124.119 121.038 123.273 121.636 121.146 121.146C120.755 125.201 120.362 127.472 118.04 131.5V125.287C119.376 121.107 119.126 118.865 118.04 114.933Z" fill="url(#paint6_radial_692_1696)"/>
<path d="M120.11 98.3662C120.019 94.792 119.383 93.3936 118.04 91.1182V105.614C120.356 100.811 121.737 99.4138 124.252 99.4015C122.714 97.8121 121.802 97.3638 120.11 98.3662Z" fill="url(#paint7_radial_692_1696)"/>
<path d="M80.5625 46.3398C82.4961 46.3398 84.2292 46.8411 85.7617 47.8438C87.3086 48.832 88.5332 50.1641 89.4355 51.8398C90.3379 53.5156 90.7891 55.3776 90.7891 57.4258C90.7891 59.4023 90.4668 61.3431 89.8223 63.248C89.1777 65.1387 88.2754 66.8861 87.1152 68.4902C85.9551 70.0944 84.6016 71.4622 83.0547 72.5938C80.4193 74.5273 77.3542 75.8307 73.8594 76.5039C74.7044 76.6042 76.7096 77.3346 79.875 78.6953C83.0117 80.0417 85.5469 80.7148 87.4805 80.7148C88.1966 80.7148 88.9557 80.5645 89.7578 80.2637C90.5742 79.9772 91.3405 79.6263 92.0566 79.2109C92.7728 78.7956 93.3385 78.4089 93.7539 78.0508C94.4128 78.3659 94.7422 78.7096 94.7422 79.082C94.3984 79.5404 93.7611 80.0775 92.8301 80.6934C91.8991 81.3092 90.8177 81.8464 89.5859 82.3047C88.3685 82.763 87.1367 82.9922 85.8906 82.9922C84.0286 82.9922 82.2311 82.6986 80.498 82.1113C78.765 81.5241 76.7096 80.7148 74.332 79.6836C71.9401 78.6523 69.5911 77.8359 67.2852 77.2344C67.2852 77.1198 67.3783 76.9264 67.5645 76.6543C67.7507 76.3822 67.9154 76.2174 68.0586 76.1602C68.4596 76.1458 69.9779 75.8307 72.6133 75.2148C70.9805 74.8854 69.5625 74.1908 68.3594 73.1309C67.1562 72.071 66.2253 70.7461 65.5664 69.1562C64.9076 67.5521 64.5781 65.7904 64.5781 63.8711C64.5781 60.8919 65.3659 58.0345 66.9414 55.2988C68.0013 53.4655 69.2617 51.8828 70.7227 50.5508C72.1836 49.2044 73.7591 48.166 75.4492 47.4355C77.1393 46.7051 78.8438 46.3398 80.5625 46.3398ZM79.5742 48.1445C78.0273 48.1445 76.5807 48.5814 75.2344 49.4551C73.9023 50.3145 72.7279 51.4746 71.7109 52.9355C70.694 54.3965 69.8991 56.0436 69.3262 57.877C68.7676 59.7103 68.4883 61.5938 68.4883 63.5273C68.4883 65.4753 68.7747 67.2083 69.3477 68.7266C69.9206 70.2305 70.7513 71.4193 71.8398 72.293C72.9427 73.1523 74.2747 73.582 75.8359 73.582C77.3255 73.582 78.7292 73.1452 80.0469 72.2715C81.3789 71.3835 82.5534 70.1947 83.5703 68.7051C84.5872 67.2155 85.3822 65.5469 85.9551 63.6992C86.5423 61.8516 86.8359 59.9609 86.8359 58.0273C86.8359 56.1081 86.5495 54.4108 85.9766 52.9355C85.418 51.446 84.5944 50.2786 83.5059 49.4336C82.4316 48.5742 81.1211 48.1445 79.5742 48.1445ZM103.895 56.3086C104.954 56.3086 106 56.4948 107.031 56.8672L104.41 70.4453C104.324 70.7891 104.281 71.1471 104.281 71.5195C104.281 72.2357 104.424 72.5938 104.711 72.5938C105.069 72.5938 105.499 72.3431 106 71.8418C106.501 71.3262 106.931 70.8893 107.289 70.5312L107.547 70.2305C107.604 70.2305 107.712 70.3665 107.869 70.6387C108.027 70.9108 108.105 71.1042 108.105 71.2188C107.862 71.6341 107.418 72.1641 106.773 72.8086C106.143 73.4531 105.456 74.026 104.711 74.5273C103.966 75.0143 103.293 75.2578 102.691 75.2578C102.233 75.2578 101.875 75.0501 101.617 74.6348C101.359 74.2194 101.23 73.6823 101.23 73.0234C101.23 72.5794 101.331 71.8203 101.531 70.7461L101.682 69.9941C101.725 69.7936 101.746 69.6719 101.746 69.6289C101.517 70.0586 101.188 70.5885 100.758 71.2188C100.328 71.8346 99.834 72.4505 99.2754 73.0664C98.7168 73.6823 98.1296 74.1979 97.5137 74.6133C96.8978 75.0143 96.2891 75.2148 95.6875 75.2148C94.4271 75.2148 93.4316 74.6491 92.7012 73.5176C91.9707 72.3861 91.6055 71.0182 91.6055 69.4141C91.6055 67.3659 92.2142 65.3249 93.4316 63.291C94.248 61.916 95.222 60.7057 96.3535 59.6602C97.4993 58.6146 98.724 57.7982 100.027 57.2109C101.331 56.6094 102.62 56.3086 103.895 56.3086ZM102.09 58.2852C101.245 58.2852 100.393 58.5859 99.5332 59.1875C98.6738 59.7747 97.8861 60.5697 97.1699 61.5723C96.4538 62.5605 95.8737 63.6634 95.4297 64.8809C95 66.084 94.7852 67.2943 94.7852 68.5117C94.7852 71.319 95.5156 72.7227 96.9766 72.7227C97.4922 72.7227 98.0508 72.4362 98.6523 71.8633C99.2539 71.2904 99.8483 70.5312 100.436 69.5859C101.023 68.6406 101.538 67.6165 101.982 66.5137C102.441 65.3965 102.777 64.3008 102.992 63.2266L103.852 58.8438C103.508 58.4714 102.921 58.2852 102.09 58.2852ZM124.691 56.3086C125.465 56.3086 126.059 56.5378 126.475 56.9961C126.89 57.4544 127.141 57.9342 127.227 58.4355C127.312 58.9368 127.355 59.5885 127.355 60.3906C127.355 60.9206 127.155 62.1953 126.754 64.2148C127.227 63.3984 127.814 62.5319 128.516 61.6152C129.217 60.6986 129.955 59.8392 130.729 59.0371C131.502 58.235 132.247 57.5833 132.963 57.082C133.679 56.5664 134.288 56.3086 134.789 56.3086C135.734 56.3086 136.379 56.5449 136.723 57.0176C137.066 57.4902 137.238 58.1992 137.238 59.1445C137.238 60.4766 137.038 62.0378 136.637 63.8281L135.219 70.4453C135.133 70.7891 135.09 71.1471 135.09 71.5195C135.09 72.2357 135.233 72.5938 135.52 72.5938C135.878 72.5938 136.307 72.3431 136.809 71.8418C137.31 71.3262 137.74 70.8893 138.098 70.5312L138.355 70.2305C138.413 70.2305 138.52 70.3665 138.678 70.6387C138.835 70.9108 138.914 71.1042 138.914 71.2188C138.671 71.6341 138.227 72.1641 137.582 72.8086C136.952 73.4531 136.264 74.026 135.52 74.5273C134.775 75.0143 134.102 75.2578 133.5 75.2578C133.042 75.2578 132.684 75.0501 132.426 74.6348C132.168 74.2194 132.039 73.6823 132.039 73.0234C132.039 72.5938 132.139 71.8346 132.34 70.7461L133.844 63.6562C134.044 62.6823 134.145 61.9089 134.145 61.3359C134.145 60.8346 134.102 60.4049 134.016 60.0469C133.944 59.6745 133.715 59.4883 133.328 59.4883C132.841 59.4883 132.204 59.832 131.416 60.5195C130.643 61.207 129.84 62.1165 129.01 63.248C128.179 64.3652 127.434 65.597 126.775 66.9434C126.117 68.2754 125.665 69.6003 125.422 70.918L124.648 75H121.77L124.176 62.7969C124.29 62.1523 124.348 61.6081 124.348 61.1641C124.348 60.0469 124.061 59.4883 123.488 59.4883C122.987 59.4883 122.35 59.8678 121.576 60.627C120.803 61.3861 120.008 62.3672 119.191 63.5703C118.375 64.7734 117.645 66.0553 117 67.416C116.355 68.7624 115.911 70.0299 115.668 71.2188L114.895 75C114.092 75.1146 113.605 75.1719 113.434 75.1719C113.29 75.1719 112.818 75.1146 112.016 75L114.594 61.7656C114.737 60.7773 114.809 60.2044 114.809 60.0469C114.809 59.3307 114.665 58.9727 114.379 58.9727C114.135 58.9727 113.77 59.2018 113.283 59.6602C113.054 59.8893 112.803 60.14 112.531 60.4121C112.273 60.6842 112.102 60.8776 112.016 60.9922C111.958 60.9922 111.851 60.8561 111.693 60.584C111.536 60.3118 111.457 60.1185 111.457 60.0039C111.686 59.6172 112.102 59.1374 112.703 58.5645C113.305 57.9772 113.949 57.4544 114.637 56.9961C115.324 56.5378 115.911 56.3086 116.398 56.3086C116.857 56.3086 117.215 56.5163 117.473 56.9316C117.73 57.347 117.859 57.8841 117.859 58.543C117.859 59.1732 117.773 59.9323 117.602 60.8203L116.828 64.8164C117.358 63.8997 117.967 62.9473 118.654 61.959C119.356 60.9707 120.072 60.0469 120.803 59.1875C121.548 58.3281 122.257 57.6335 122.93 57.1035C123.603 56.5736 124.19 56.3086 124.691 56.3086ZM153.566 56.3086C154.626 56.3086 155.672 56.4948 156.703 56.8672L154.082 70.4453C153.996 70.7891 153.953 71.1471 153.953 71.5195C153.953 72.2357 154.096 72.5938 154.383 72.5938C154.741 72.5938 155.171 72.3431 155.672 71.8418C156.173 71.3262 156.603 70.8893 156.961 70.5312L157.219 70.2305C157.276 70.2305 157.383 70.3665 157.541 70.6387C157.699 70.9108 157.777 71.1042 157.777 71.2188C157.534 71.6341 157.09 72.1641 156.445 72.8086C155.815 73.4531 155.128 74.026 154.383 74.5273C153.638 75.0143 152.965 75.2578 152.363 75.2578C151.905 75.2578 151.547 75.0501 151.289 74.6348C151.031 74.2194 150.902 73.6823 150.902 73.0234C150.902 72.5794 151.003 71.8203 151.203 70.7461L151.354 69.9941C151.396 69.7936 151.418 69.6719 151.418 69.6289C151.189 70.0586 150.859 70.5885 150.43 71.2188C150 71.8346 149.506 72.4505 148.947 73.0664C148.389 73.6823 147.801 74.1979 147.186 74.6133C146.57 75.0143 145.961 75.2148 145.359 75.2148C144.099 75.2148 143.104 74.6491 142.373 73.5176C141.643 72.3861 141.277 71.0182 141.277 69.4141C141.277 67.3659 141.886 65.3249 143.104 63.291C143.92 61.916 144.894 60.7057 146.025 59.6602C147.171 58.6146 148.396 57.7982 149.699 57.2109C151.003 56.6094 152.292 56.3086 153.566 56.3086ZM151.762 58.2852C150.917 58.2852 150.064 58.5859 149.205 59.1875C148.346 59.7747 147.558 60.5697 146.842 61.5723C146.126 62.5605 145.546 63.6634 145.102 64.8809C144.672 66.084 144.457 67.2943 144.457 68.5117C144.457 71.319 145.188 72.7227 146.648 72.7227C147.164 72.7227 147.723 72.4362 148.324 71.8633C148.926 71.2904 149.52 70.5312 150.107 69.5859C150.695 68.6406 151.21 67.6165 151.654 66.5137C152.113 65.3965 152.449 64.3008 152.664 63.2266L153.523 58.8438C153.18 58.4714 152.592 58.2852 151.762 58.2852ZM166.285 56.3086C166.743 56.3086 167.102 56.5163 167.359 56.9316C167.617 57.347 167.746 57.8841 167.746 58.543C167.746 59.1732 167.66 59.9323 167.488 60.8203L166.801 64.4297C167.159 63.5846 167.617 62.6966 168.176 61.7656C168.749 60.8203 169.357 59.9323 170.002 59.1016C170.646 58.2708 171.284 57.5977 171.914 57.082C172.544 56.5664 173.103 56.3086 173.59 56.3086C174.564 56.3086 175.352 56.7669 175.953 57.6836C175.953 59.6029 175.423 60.5625 174.363 60.5625C174.134 60.5625 173.862 60.3835 173.547 60.0254C173.232 59.6673 172.902 59.4883 172.559 59.4883C172.143 59.4883 171.599 59.832 170.926 60.5195C170.253 61.207 169.558 62.1094 168.842 63.2266C168.126 64.3294 167.481 65.5254 166.908 66.8145C166.335 68.0892 165.941 69.3138 165.727 70.4883L164.91 75C164.423 75.0859 163.951 75.1289 163.492 75.1289C162.948 75.1289 162.418 75.0859 161.902 75L164.48 61.7656C164.624 60.7773 164.695 60.2044 164.695 60.0469C164.695 59.3307 164.552 58.9727 164.266 58.9727C164.022 58.9727 163.657 59.2018 163.17 59.6602C162.941 59.8893 162.69 60.14 162.418 60.4121C162.16 60.6842 161.988 60.8776 161.902 60.9922C161.845 60.9922 161.738 60.8561 161.58 60.584C161.423 60.3118 161.344 60.1185 161.344 60.0039C161.573 59.6172 161.988 59.1374 162.59 58.5645C163.191 57.9772 163.836 57.4544 164.523 56.9961C165.211 56.5378 165.798 56.3086 166.285 56.3086Z" fill="white"/>
<path d="M0 14.4961C6.30012 20.0984 15.0791 19.1979 30.687 15.1421C32.2497 14.736 33.9168 14.9601 35.3059 15.7832L61.0905 31.063L35.3304 19.6141C33.9205 18.9874 32.3183 18.9353 30.8588 19.4358C12.5496 25.7159 4.73674 24.7283 0 14.4961Z" fill="url(#paint8_radial_692_1696)"/>
<path d="M16.5669 25.8858C22.7094 27.5488 34.4861 19.1752 43.5027 24.2129C35.7991 20.3448 24.9274 34.7378 16.5669 25.8858Z" fill="url(#paint9_radial_692_1696)"/>
<path d="M42.4528 34.1693C40.4746 32.9379 39.8039 31.791 39.5364 30.2054C39.314 28.8871 40.2138 27.6374 41.514 27.3262C46.4064 26.1551 49.6595 27.3172 54.8779 31.063C50.3759 26.3362 46.8249 25.2844 39.6469 25.78C38.7972 25.8387 38.0191 26.2751 37.5081 26.9564L36.1669 28.7446C35.6047 29.4943 35.6307 30.5432 36.2784 31.2205C38.4425 33.4837 39.9798 34.1156 42.4528 34.1693Z" fill="url(#paint10_radial_692_1696)"/>
<path d="M61.0905 28.9921C48.8725 19.5072 53.131 18.6378 60.0551 10.3543C56.6285 8.93238 54.8937 8.83857 52.8071 12.4252C51.2879 8.29387 49.7783 6.42726 45.559 4.14173C43.8524 8.52031 44.6321 10.6991 46.5945 14.4961C42.9378 12.0347 40.7471 11.3823 36.2402 13.4606C46.3046 17.727 45.2926 18.8748 61.0905 28.9921Z" fill="url(#paint11_radial_692_1696)"/>
<path d="M78.6929 22.7441C78.6929 22.1918 79.1406 21.7441 79.6929 21.7441H79.7638C80.3161 21.7441 80.7638 22.1918 80.7638 22.7441V25.9213C80.7638 26.4735 80.3161 26.9213 79.7638 26.9213H74.4803C73.3757 26.9213 72.4803 26.0258 72.4803 24.9213V19.6024C72.4803 18.4978 73.3757 17.6024 74.4803 17.6024H78.7281C80.6137 17.6024 82.4755 18.023 84.178 18.8337V18.8337C85.2965 19.3663 86.1249 20.3629 86.4441 21.5599L88.3399 28.6695C89.2063 31.9182 86.6836 35.0788 83.3237 34.9544L68.0679 34.3894C64.7776 34.2675 62.2002 31.5169 62.2923 28.2256L62.6948 13.8426C62.7856 10.5955 65.4441 8.01038 68.6924 8.01038H83.0387C86.0229 8.01038 88.8896 9.21712 90.915 11.4088C101.807 23.194 109.097 33.3225 115.395 32.2299C115.685 32.1796 115.968 32.3916 115.968 32.686V32.686C115.968 32.9325 115.766 33.1318 115.519 33.1285C109.37 33.045 105.37 32.4313 87.653 13.254C86.5367 12.0456 85.0793 11.1983 83.4735 10.8414L77.8584 9.59364C77.0431 9.41248 76.199 9.4035 75.3801 9.56728L71.091 10.4251C68.2865 10.986 66.2677 13.4485 66.2677 16.3086V27.0984C66.2677 29.8599 68.5063 32.0984 71.2677 32.0984H80.9055C83.1146 32.0984 84.9055 30.3076 84.9055 28.0984V22.6378C84.9055 20.4287 83.1146 18.6378 80.9055 18.6378H76.5512C75.4466 18.6378 74.5512 19.5332 74.5512 20.6378V24.8858C74.5512 25.4381 74.9989 25.8858 75.5512 25.8858H77.6929C78.2452 25.8858 78.6929 25.4381 78.6929 24.8858V22.7441Z" fill="url(#paint12_radial_692_1696)"/>
<path d="M104.412 33.0631C96.4743 29.9513 88.3242 12.4066 78.6929 13.4606C91.6665 19.2326 92.9183 31.4785 104.412 33.0631Z" fill="url(#paint13_radial_692_1696)"/>
<path d="M111.827 30.0276C106.485 21.6827 106.361 16.9143 110.791 8.28346C105.363 9.71409 97.6256 19.5114 111.827 30.0276Z" fill="url(#paint14_radial_692_1696)"/>
<path d="M118.039 10.3543C113.102 14.0549 110.405 23.2793 118.039 32.0984C106.33 25.6888 109.793 12.7713 118.039 0V10.3543Z" fill="url(#paint15_radial_692_1696)"/>
<path d="M236.079 14.4961C229.778 20.0984 221 19.1979 205.392 15.1421C203.829 14.736 202.162 14.9601 200.773 15.7832L174.988 31.063L200.748 19.6141C202.158 18.9874 203.76 18.9353 205.22 19.4358C223.529 25.7159 231.342 24.7283 236.079 14.4961Z" fill="url(#paint16_radial_692_1696)"/>
<path d="M219.512 25.8858C213.369 27.5488 201.593 19.1752 192.576 24.2129C200.279 20.3448 211.151 34.7378 219.512 25.8858Z" fill="url(#paint17_radial_692_1696)"/>
<path d="M193.626 34.1693C195.604 32.9379 196.275 31.791 196.542 30.2054C196.765 28.8871 195.865 27.6374 194.565 27.3262C189.672 26.1551 186.419 27.3172 181.201 31.063C185.703 26.3362 189.254 25.2844 196.432 25.78C197.281 25.8387 198.06 26.2751 198.571 26.9564L199.912 28.7446C200.474 29.4943 200.448 30.5432 199.8 31.2205C197.636 33.4837 196.099 34.1156 193.626 34.1693Z" fill="url(#paint18_radial_692_1696)"/>
<path d="M174.988 28.9921C187.206 19.5072 182.948 18.6378 176.024 10.3543C179.45 8.93238 181.185 8.83857 183.272 12.4252C184.791 8.29387 186.3 6.42726 190.52 4.14173C192.226 8.52031 191.446 10.6991 189.484 14.4961C193.141 12.0347 195.331 11.3823 199.838 13.4606C189.774 17.727 190.786 18.8748 174.988 28.9921Z" fill="url(#paint19_radial_692_1696)"/>
<path d="M157.386 22.7441C157.386 22.1918 156.938 21.7441 156.386 21.7441H156.315C155.763 21.7441 155.315 22.1918 155.315 22.7441V25.9213C155.315 26.4735 155.763 26.9213 156.315 26.9213H161.598C162.703 26.9213 163.598 26.0258 163.598 24.9213V19.6024C163.598 18.4978 162.703 17.6024 161.598 17.6024H157.351C155.465 17.6024 153.603 18.023 151.901 18.8337V18.8337C150.782 19.3663 149.954 20.3629 149.635 21.5599L147.739 28.6695C146.872 31.9182 149.395 35.0788 152.755 34.9544L168.011 34.3894C171.301 34.2675 173.878 31.5169 173.786 28.2256L173.384 13.8426C173.293 10.5955 170.635 8.01038 167.386 8.01038H153.04C150.056 8.01038 147.189 9.21712 145.164 11.4088C134.272 23.194 126.982 33.3225 120.683 32.2299C120.393 32.1796 120.11 32.3916 120.11 32.686V32.686C120.11 32.9325 120.313 33.1318 120.559 33.1285C126.708 33.045 130.709 32.4313 148.426 13.254C149.542 12.0456 150.999 11.1983 152.605 10.8414L158.22 9.59364C159.035 9.41248 159.88 9.4035 160.698 9.56728L164.988 10.4251C167.792 10.986 169.811 13.4485 169.811 16.3086V27.0984C169.811 29.8599 167.572 32.0984 164.811 32.0984H155.173C152.964 32.0984 151.173 30.3076 151.173 28.0984V22.6378C151.173 20.4287 152.964 18.6378 155.173 18.6378H159.527C160.632 18.6378 161.527 19.5332 161.527 20.6378V24.8858C161.527 25.4381 161.08 25.8858 160.527 25.8858H158.386C157.833 25.8858 157.386 25.4381 157.386 24.8858V22.7441Z" fill="url(#paint20_radial_692_1696)"/>
<path d="M131.666 33.0631C139.604 29.9513 147.754 12.4066 157.386 13.4606C144.412 19.2326 143.16 31.4785 131.666 33.0631Z" fill="url(#paint21_radial_692_1696)"/>
<path d="M124.252 30.0276C129.594 21.6827 129.718 16.9143 125.287 8.28346C130.716 9.71409 138.453 19.5114 124.252 30.0276Z" fill="url(#paint22_radial_692_1696)"/>
<path d="M118.039 10.3543C122.976 14.0549 125.673 23.2793 118.039 32.0984C129.749 25.6888 126.286 12.7713 118.039 0V10.3543Z" fill="url(#paint23_radial_692_1696)"/>
<defs>
<radialGradient id="paint0_radial_692_1696" cx="0" cy="0" r="1" gradientUnits="userSpaceOnUse" gradientTransform="translate(79.7285 111.309) scale(38.311 20.1909)">
<stop stop-color="#E1E1E1"/>
<stop offset="1" stop-color="#FFF4DA"/>
</radialGradient>
<radialGradient id="paint1_radial_692_1696" cx="0" cy="0" r="1" gradientUnits="userSpaceOnUse" gradientTransform="translate(79.7285 111.309) scale(38.311 20.1909)">
<stop stop-color="#E1E1E1"/>
<stop offset="1" stop-color="#FFF4DA"/>
</radialGradient>
<radialGradient id="paint2_radial_692_1696" cx="0" cy="0" r="1" gradientUnits="userSpaceOnUse" gradientTransform="translate(79.7285 111.309) scale(38.311 20.1909)">
<stop stop-color="#E1E1E1"/>
<stop offset="1" stop-color="#FFF4DA"/>
</radialGradient>
<radialGradient id="paint3_radial_692_1696" cx="0" cy="0" r="1" gradientUnits="userSpaceOnUse" gradientTransform="translate(79.7285 111.309) scale(38.311 20.1909)">
<stop stop-color="#E1E1E1"/>
<stop offset="1" stop-color="#FFF4DA"/>
</radialGradient>
<radialGradient id="paint4_radial_692_1696" cx="0" cy="0" r="1" gradientUnits="userSpaceOnUse" gradientTransform="translate(156.351 111.309) rotate(180) scale(38.311 20.1909)">
<stop stop-color="#E1E1E1"/>
<stop offset="1" stop-color="#FFF4DA"/>
</radialGradient>
<radialGradient id="paint5_radial_692_1696" cx="0" cy="0" r="1" gradientUnits="userSpaceOnUse" gradientTransform="translate(156.351 111.309) rotate(180) scale(38.311 20.1909)">
<stop stop-color="#E1E1E1"/>
<stop offset="1" stop-color="#FFF4DA"/>
</radialGradient>
<radialGradient id="paint6_radial_692_1696" cx="0" cy="0" r="1" gradientUnits="userSpaceOnUse" gradientTransform="translate(156.351 111.309) rotate(180) scale(38.311 20.1909)">
<stop stop-color="#E1E1E1"/>
<stop offset="1" stop-color="#FFF4DA"/>
</radialGradient>
<radialGradient id="paint7_radial_692_1696" cx="0" cy="0" r="1" gradientUnits="userSpaceOnUse" gradientTransform="translate(156.351 111.309) rotate(180) scale(38.311 20.1909)">
<stop stop-color="#E1E1E1"/>
<stop offset="1" stop-color="#FFF4DA"/>
</radialGradient>
<radialGradient id="paint8_radial_692_1696" cx="0" cy="0" r="1" gradientUnits="userSpaceOnUse" gradientTransform="translate(59.0197 17.6024) scale(59.0197 17.6024)">
<stop stop-color="#E1E1E1"/>
<stop offset="1" stop-color="#FFF4DA"/>
</radialGradient>
<radialGradient id="paint9_radial_692_1696" cx="0" cy="0" r="1" gradientUnits="userSpaceOnUse" gradientTransform="translate(59.0197 17.6024) scale(59.0197 17.6024)">
<stop stop-color="#E1E1E1"/>
<stop offset="1" stop-color="#FFF4DA"/>
</radialGradient>
<radialGradient id="paint10_radial_692_1696" cx="0" cy="0" r="1" gradientUnits="userSpaceOnUse" gradientTransform="translate(59.0197 17.6024) scale(59.0197 17.6024)">
<stop stop-color="#E1E1E1"/>
<stop offset="1" stop-color="#FFF4DA"/>
</radialGradient>
<radialGradient id="paint11_radial_692_1696" cx="0" cy="0" r="1" gradientUnits="userSpaceOnUse" gradientTransform="translate(59.0197 17.6024) scale(59.0197 17.6024)">
<stop stop-color="#E1E1E1"/>
<stop offset="1" stop-color="#FFF4DA"/>
</radialGradient>
<radialGradient id="paint12_radial_692_1696" cx="0" cy="0" r="1" gradientUnits="userSpaceOnUse" gradientTransform="translate(59.0197 17.6024) scale(59.0197 17.6024)">
<stop stop-color="#E1E1E1"/>
<stop offset="1" stop-color="#FFF4DA"/>
</radialGradient>
<radialGradient id="paint13_radial_692_1696" cx="0" cy="0" r="1" gradientUnits="userSpaceOnUse" gradientTransform="translate(59.0197 17.6024) scale(59.0197 17.6024)">
<stop stop-color="#E1E1E1"/>
<stop offset="1" stop-color="#FFF4DA"/>
</radialGradient>
<radialGradient id="paint14_radial_692_1696" cx="0" cy="0" r="1" gradientUnits="userSpaceOnUse" gradientTransform="translate(59.0197 17.6024) scale(59.0197 17.6024)">
<stop stop-color="#E1E1E1"/>
<stop offset="1" stop-color="#FFF4DA"/>
</radialGradient>
<radialGradient id="paint15_radial_692_1696" cx="0" cy="0" r="1" gradientUnits="userSpaceOnUse" gradientTransform="translate(59.0197 17.6024) scale(59.0197 17.6024)">
<stop stop-color="#E1E1E1"/>
<stop offset="1" stop-color="#FFF4DA"/>
</radialGradient>
<radialGradient id="paint16_radial_692_1696" cx="0" cy="0" r="1" gradientUnits="userSpaceOnUse" gradientTransform="translate(177.059 17.6024) rotate(180) scale(59.0197 17.6024)">
<stop stop-color="#E1E1E1"/>
<stop offset="1" stop-color="#FFF4DA"/>
</radialGradient>
<radialGradient id="paint17_radial_692_1696" cx="0" cy="0" r="1" gradientUnits="userSpaceOnUse" gradientTransform="translate(177.059 17.6024) rotate(180) scale(59.0197 17.6024)">
<stop stop-color="#E1E1E1"/>
<stop offset="1" stop-color="#FFF4DA"/>
</radialGradient>
<radialGradient id="paint18_radial_692_1696" cx="0" cy="0" r="1" gradientUnits="userSpaceOnUse" gradientTransform="translate(177.059 17.6024) rotate(180) scale(59.0197 17.6024)">
<stop stop-color="#E1E1E1"/>
<stop offset="1" stop-color="#FFF4DA"/>
</radialGradient>
<radialGradient id="paint19_radial_692_1696" cx="0" cy="0" r="1" gradientUnits="userSpaceOnUse" gradientTransform="translate(177.059 17.6024) rotate(180) scale(59.0197 17.6024)">
<stop stop-color="#E1E1E1"/>
<stop offset="1" stop-color="#FFF4DA"/>
</radialGradient>
<radialGradient id="paint20_radial_692_1696" cx="0" cy="0" r="1" gradientUnits="userSpaceOnUse" gradientTransform="translate(177.059 17.6024) rotate(180) scale(59.0197 17.6024)">
<stop stop-color="#E1E1E1"/>
<stop offset="1" stop-color="#FFF4DA"/>
</radialGradient>
<radialGradient id="paint21_radial_692_1696" cx="0" cy="0" r="1" gradientUnits="userSpaceOnUse" gradientTransform="translate(177.059 17.6024) rotate(180) scale(59.0197 17.6024)">
<stop stop-color="#E1E1E1"/>
<stop offset="1" stop-color="#FFF4DA"/>
</radialGradient>
<radialGradient id="paint22_radial_692_1696" cx="0" cy="0" r="1" gradientUnits="userSpaceOnUse" gradientTransform="translate(177.059 17.6024) rotate(180) scale(59.0197 17.6024)">
<stop stop-color="#E1E1E1"/>
<stop offset="1" stop-color="#FFF4DA"/>
</radialGradient>
<radialGradient id="paint23_radial_692_1696" cx="0" cy="0" r="1" gradientUnits="userSpaceOnUse" gradientTransform="translate(177.059 17.6024) rotate(180) scale(59.0197 17.6024)">
<stop stop-color="#E1E1E1"/>
<stop offset="1" stop-color="#FFF4DA"/>
</radialGradient>
</defs>
</svg>
