<svg width="237" height="132" viewBox="0 0 237 132" fill="none" xmlns="http://www.w3.org/2000/svg">
<path d="M50.713 108.06C49.3894 108.487 47.9219 108.504 46.7174 107.809C44.5799 106.575 44.1417 105.154 44.5239 102.508V102.508C42.8803 103.056 42.0634 104.953 43.0344 106.388C43.9981 107.812 45.0942 108.974 46.6272 110.246C47.9176 111.316 49.57 111.855 51.2463 111.812C56.4411 111.679 59.0354 110.851 62.1261 108.72C61.1055 110.641 61.1623 111.76 61.9889 113.6C62.061 113.76 62.2573 113.822 62.4081 113.731C64.083 112.73 65.0044 111.892 66.2679 109.756C66.2159 114.032 66.9848 113.977 70.4096 114.933C67.5199 110.86 68.053 109.221 70.1985 106.254C70.9963 105.151 72.1264 104.331 73.4058 103.866L78.5781 101.985C81.3347 100.982 84.3491 100.942 87.1317 101.869L104.174 107.55C104.308 107.435 104.443 107.326 104.579 107.223V104.508C104.579 103.403 105.474 102.508 106.579 102.508H108.791C109.896 102.508 110.791 103.403 110.791 104.508V105.614H111.827V103.472C111.827 102.368 110.931 101.472 109.827 101.472H105.543C104.439 101.472 103.543 102.368 103.543 103.472V106.65C98.7741 103.748 93.5326 101.584 86.7262 99.7769C82.8461 98.747 78.7539 99.0145 74.9333 100.247L50.713 108.06Z" fill="url(#paint0_radial_692_1898)"/>
<path fill-rule="evenodd" clip-rule="evenodd" d="M118.04 111.827V108.721C115.458 105.74 114.164 105.799 111.827 105.614H110.791C108.063 105.589 106.223 105.979 104.579 107.223V107.685L104.174 107.55C103.27 108.327 102.41 109.382 101.473 110.791C94.423 108.167 92.2423 105.859 84.6309 104.117C82.7932 103.696 80.8384 103.854 79.1738 104.739C77.1411 105.82 75.7483 107.075 74.4009 109.235C73.7981 110.201 73.7054 111.42 74.2151 112.438C75.05 114.107 76.2503 115.417 79.1381 117.128C80.1191 117.709 81.351 117.62 82.2789 116.957L86.2804 114.099C87.2189 113.429 87.4133 112.09 86.6216 111.251C84.8307 109.354 83.7232 109.09 81.7994 109.756C83.0247 110.067 83.7478 110.456 84.3965 111.688C84.7601 112.378 84.5523 113.216 84.0005 113.767L82.2759 115.492C81.3711 116.397 79.9668 116.664 78.906 115.948C77.392 114.927 76.4786 113.802 75.488 112.283C74.8942 111.372 74.8544 110.185 75.4804 109.296C77.1885 106.871 79.0768 106.022 82.8348 105.614C87.5143 105.758 93.9739 109.592 101.473 112.862C101.611 115.305 101.827 117.608 105.431 119.531C106.15 119.915 107.027 119.733 107.604 119.156L110.252 116.508C110.55 116.21 110.55 115.727 110.252 115.429V115.429C109.972 115.149 109.522 115.134 109.211 115.381C104.883 118.812 103.35 117.017 102.508 112.862C108.785 113.743 111.601 112.063 112.862 106.65H114.933L118.04 111.827ZM102.508 111.827C105.324 107.593 107.417 106.549 111.827 106.65C109.582 111.782 107.624 113.001 102.508 111.827Z" fill="url(#paint1_radial_692_1898)"/>
<path d="M118.04 114.933V111.827C116.112 115.763 116.189 118.074 110.791 119.075C111.96 121.038 112.806 121.636 114.933 121.146C115.325 125.201 115.718 127.472 118.04 131.5V125.287C116.703 121.107 116.953 118.865 118.04 114.933Z" fill="url(#paint2_radial_692_1898)"/>
<path d="M115.969 98.3662C116.06 94.792 116.696 93.3936 118.04 91.1182V105.614C115.723 100.811 114.342 99.4138 111.827 99.4015C113.365 97.8121 114.277 97.3638 115.969 98.3662Z" fill="url(#paint3_radial_692_1898)"/>
<path d="M185.366 108.06C186.69 108.487 188.157 108.504 189.362 107.809C191.499 106.575 191.937 105.154 191.555 102.508V102.508C193.199 103.056 194.016 104.953 193.045 106.388C192.081 107.812 190.985 108.974 189.452 110.246C188.161 111.316 186.509 111.855 184.833 111.812C179.638 111.679 177.044 110.851 173.953 108.72C174.974 110.641 174.917 111.76 174.09 113.6C174.018 113.76 173.822 113.822 173.671 113.731C171.996 112.73 171.075 111.892 169.811 109.756C169.863 114.032 169.094 113.977 165.669 114.933C168.559 110.86 168.026 109.221 165.881 106.254C165.083 105.151 163.953 104.331 162.673 103.866L157.501 101.985C154.744 100.982 151.73 100.942 148.947 101.869L131.905 107.55C131.771 107.435 131.636 107.326 131.5 107.223V104.508C131.5 103.403 130.605 102.508 129.5 102.508H127.288C126.183 102.508 125.288 103.403 125.288 104.508V105.614H124.252V103.472C124.252 102.368 125.148 101.472 126.252 101.472H130.536C131.64 101.472 132.536 102.368 132.536 103.472V106.65C137.305 103.748 142.547 101.584 149.353 99.7769C153.233 98.747 157.325 99.0145 161.146 100.247L185.366 108.06Z" fill="url(#paint4_radial_692_1898)"/>
<path fill-rule="evenodd" clip-rule="evenodd" d="M118.04 111.827V108.721C120.621 105.74 121.915 105.799 124.252 105.614H125.288C128.016 105.589 129.856 105.979 131.5 107.223V107.685L131.905 107.55C132.809 108.327 133.669 109.382 134.607 110.791C141.656 108.167 143.837 105.859 151.448 104.117C153.286 103.696 155.241 103.854 156.905 104.739C158.938 105.82 160.331 107.075 161.678 109.235C162.281 110.201 162.374 111.42 161.864 112.438C161.029 114.107 159.829 115.417 156.941 117.128C155.96 117.709 154.728 117.62 153.8 116.957L149.799 114.099C148.86 113.429 148.666 112.09 149.457 111.251C151.248 109.354 152.356 109.09 154.28 109.756C153.054 110.067 152.331 110.456 151.683 111.688C151.319 112.378 151.527 113.216 152.079 113.767L153.803 115.492C154.708 116.397 156.112 116.664 157.173 115.948C158.687 114.927 159.601 113.802 160.591 112.283C161.185 111.372 161.225 110.185 160.599 109.296C158.891 106.871 157.002 106.022 153.244 105.614C148.565 105.758 142.105 109.592 134.607 112.862C134.468 115.305 134.252 117.608 130.648 119.531C129.929 119.915 129.052 119.733 128.475 119.156L125.827 116.508C125.529 116.21 125.529 115.727 125.827 115.429V115.429C126.107 115.149 126.557 115.134 126.868 115.381C131.196 118.812 132.729 117.017 133.571 112.862C127.294 113.743 124.479 112.063 123.217 106.65H121.146L118.04 111.827ZM133.571 111.827C130.755 107.593 128.662 106.549 124.252 106.65C126.497 111.782 128.455 113.001 133.571 111.827Z" fill="url(#paint5_radial_692_1898)"/>
<path d="M118.04 114.933V111.827C119.967 115.763 119.89 118.074 125.288 119.075C124.119 121.038 123.273 121.636 121.146 121.146C120.755 125.201 120.362 127.472 118.04 131.5V125.287C119.376 121.107 119.126 118.865 118.04 114.933Z" fill="url(#paint6_radial_692_1898)"/>
<path d="M120.11 98.3662C120.019 94.792 119.383 93.3936 118.04 91.1182V105.614C120.356 100.811 121.737 99.4138 124.252 99.4015C122.714 97.8121 121.802 97.3638 120.11 98.3662Z" fill="url(#paint7_radial_692_1898)"/>
<path d="M67.5625 46.3398C69.4961 46.3398 71.2292 46.8411 72.7617 47.8438C74.3086 48.832 75.5332 50.1641 76.4355 51.8398C77.3379 53.5156 77.7891 55.3776 77.7891 57.4258C77.7891 59.4023 77.4668 61.3431 76.8223 63.248C76.1777 65.1387 75.2754 66.8861 74.1152 68.4902C72.9551 70.0944 71.6016 71.4622 70.0547 72.5938C67.4193 74.5273 64.3542 75.8307 60.8594 76.5039C61.7044 76.6042 63.7096 77.3346 66.875 78.6953C70.0117 80.0417 72.5469 80.7148 74.4805 80.7148C75.1966 80.7148 75.9557 80.5645 76.7578 80.2637C77.5742 79.9772 78.3405 79.6263 79.0566 79.2109C79.7728 78.7956 80.3385 78.4089 80.7539 78.0508C81.4128 78.3659 81.7422 78.7096 81.7422 79.082C81.3984 79.5404 80.7611 80.0775 79.8301 80.6934C78.8991 81.3092 77.8177 81.8464 76.5859 82.3047C75.3685 82.763 74.1367 82.9922 72.8906 82.9922C71.0286 82.9922 69.2311 82.6986 67.498 82.1113C65.765 81.5241 63.7096 80.7148 61.332 79.6836C58.9401 78.6523 56.5911 77.8359 54.2852 77.2344C54.2852 77.1198 54.3783 76.9264 54.5645 76.6543C54.7507 76.3822 54.9154 76.2174 55.0586 76.1602C55.4596 76.1458 56.9779 75.8307 59.6133 75.2148C57.9805 74.8854 56.5625 74.1908 55.3594 73.1309C54.1562 72.071 53.2253 70.7461 52.5664 69.1562C51.9076 67.5521 51.5781 65.7904 51.5781 63.8711C51.5781 60.8919 52.3659 58.0345 53.9414 55.2988C55.0013 53.4655 56.2617 51.8828 57.7227 50.5508C59.1836 49.2044 60.7591 48.166 62.4492 47.4355C64.1393 46.7051 65.8438 46.3398 67.5625 46.3398ZM66.5742 48.1445C65.0273 48.1445 63.5807 48.5814 62.2344 49.4551C60.9023 50.3145 59.7279 51.4746 58.7109 52.9355C57.694 54.3965 56.8991 56.0436 56.3262 57.877C55.7676 59.7103 55.4883 61.5938 55.4883 63.5273C55.4883 65.4753 55.7747 67.2083 56.3477 68.7266C56.9206 70.2305 57.7513 71.4193 58.8398 72.293C59.9427 73.1523 61.2747 73.582 62.8359 73.582C64.3255 73.582 65.7292 73.1452 67.0469 72.2715C68.3789 71.3835 69.5534 70.1947 70.5703 68.7051C71.5872 67.2155 72.3822 65.5469 72.9551 63.6992C73.5423 61.8516 73.8359 59.9609 73.8359 58.0273C73.8359 56.1081 73.5495 54.4108 72.9766 52.9355C72.418 51.446 71.5944 50.2786 70.5059 49.4336C69.4316 48.5742 68.1211 48.1445 66.5742 48.1445ZM85.9961 47.2422C86.4258 47.2422 86.791 47.4141 87.0918 47.7578C87.3926 48.1016 87.543 48.5026 87.543 48.9609C87.543 49.6484 87.321 50.25 86.877 50.7656C86.4329 51.2812 85.8815 51.5391 85.2227 51.5391C84.7643 51.5391 84.4062 51.36 84.1484 51.002C83.8906 50.6439 83.7617 50.207 83.7617 49.6914C83.7617 49.0326 83.9766 48.4596 84.4062 47.9727C84.8359 47.4857 85.3659 47.2422 85.9961 47.2422ZM84.75 56.3086C85.2083 56.3086 85.5664 56.5163 85.8242 56.9316C86.082 57.347 86.2109 57.8841 86.2109 58.543C86.2109 59.1302 86.125 59.8893 85.9531 60.8203L84.0625 70.4453C83.9766 70.7891 83.9336 71.1471 83.9336 71.5195C83.9336 72.2357 84.0768 72.5938 84.3633 72.5938C84.7214 72.5938 85.151 72.3431 85.6523 71.8418C86.1536 71.3262 86.5833 70.8893 86.9414 70.5312L87.1992 70.2305C87.2565 70.2305 87.3639 70.3665 87.5215 70.6387C87.679 70.9108 87.7578 71.1042 87.7578 71.2188C87.5143 71.6341 87.0703 72.1641 86.4258 72.8086C85.7956 73.4531 85.1081 74.026 84.3633 74.5273C83.6185 75.0143 82.9453 75.2578 82.3438 75.2578C81.8854 75.2578 81.5273 75.0501 81.2695 74.6348C81.0117 74.2194 80.8828 73.6823 80.8828 73.0234C80.8828 72.5938 80.9831 71.8346 81.1836 70.7461L82.9453 61.7656C83.0885 60.9206 83.1602 60.3477 83.1602 60.0469C83.1602 59.3307 83.0169 58.9727 82.7305 58.9727C82.5586 58.9727 82.3223 59.0872 82.0215 59.3164C81.735 59.5456 81.4557 59.8034 81.1836 60.0898C80.9115 60.362 80.7109 60.5768 80.582 60.7344L80.3672 60.9922C80.3099 60.9922 80.2025 60.8561 80.0449 60.584C79.8874 60.3118 79.8086 60.1185 79.8086 60.0039C80.0378 59.6172 80.4531 59.1374 81.0547 58.5645C81.6562 57.9772 82.3008 57.4544 82.9883 56.9961C83.6758 56.5378 84.263 56.3086 84.75 56.3086ZM96.8672 56.3086C97.7266 56.3086 98.4355 57.0391 98.9941 58.5C99.5671 59.9896 99.9466 61.9017 100.133 64.2363C100.276 65.8118 100.376 67.1439 100.434 68.2324C100.505 69.321 100.548 70.2949 100.562 71.1543C100.591 72.0137 100.605 72.8945 100.605 73.7969C101.35 72.8802 102.109 71.7773 102.883 70.4883C103.656 69.1992 104.308 67.8743 104.838 66.5137C105.368 65.153 105.633 63.8997 105.633 62.7539C105.633 61.0781 105.275 59.5456 104.559 58.1562C104.931 56.9245 105.647 56.3086 106.707 56.3086C107.967 56.3086 108.598 57.4401 108.598 59.7031C108.598 62.8685 107.366 66.485 104.902 70.5527C103.671 72.5866 102.331 74.4772 100.885 76.2246C99.4525 77.9863 98.0059 79.526 96.5449 80.8438C95.084 82.1615 93.7018 83.1855 92.3984 83.916C91.0951 84.6465 89.9635 85.0117 89.0039 85.0117C88.2591 85.0117 87.6432 84.8398 87.1562 84.4961C86.6693 84.1523 86.4258 83.737 86.4258 83.25C86.4258 82.3333 86.7552 81.7031 87.4141 81.3594C88.0443 81.7318 89.0039 81.918 90.293 81.918C92.6849 81.918 94.7474 80.6432 96.4805 78.0938C97.1393 77.1341 97.4688 75.2148 97.4688 72.3359C97.4688 70.9323 97.4329 69.5358 97.3613 68.1465C97.2897 66.7572 97.1608 65.332 96.9746 63.8711C96.8743 63.0404 96.724 62.2526 96.5234 61.5078C96.3372 60.763 96.1081 60.1543 95.8359 59.6816C95.5638 59.209 95.2487 58.9727 94.8906 58.9727C94.6328 58.9727 94.2461 59.2161 93.7305 59.7031C93.2148 60.1901 92.8138 60.6198 92.5273 60.9922C92.4701 60.9922 92.3626 60.8561 92.2051 60.584C92.0475 60.3118 91.9688 60.1185 91.9688 60.0039C92.0547 59.7891 92.2839 59.4811 92.6562 59.0801C93.043 58.679 93.4941 58.2637 94.0098 57.834C94.5254 57.4043 95.041 57.0462 95.5566 56.7598C96.0723 56.459 96.5091 56.3086 96.8672 56.3086ZM120.543 56.3086C122.233 56.3086 123.544 56.8958 124.475 58.0703C125.406 59.2448 125.871 60.8633 125.871 62.9258C125.871 64.401 125.585 65.8691 125.012 67.3301C124.439 68.7767 123.687 70.0944 122.756 71.2832C121.825 72.472 120.801 73.4245 119.684 74.1406C118.566 74.8568 117.464 75.2148 116.375 75.2148C114.656 75.2148 113.346 74.6562 112.443 73.5391C111.541 72.4219 111.09 70.832 111.09 68.7695C111.09 67.2799 111.369 65.8047 111.928 64.3438C112.501 62.8685 113.253 61.5293 114.184 60.3262C115.115 59.1087 116.132 58.1348 117.234 57.4043C118.352 56.6738 119.454 56.3086 120.543 56.3086ZM120.027 58.0703C119.311 58.0703 118.617 58.3854 117.943 59.0156C117.27 59.6315 116.661 60.4408 116.117 61.4434C115.573 62.446 115.143 63.5417 114.828 64.7305C114.513 65.9193 114.355 67.0794 114.355 68.2109C114.355 69.8724 114.62 71.1615 115.15 72.0781C115.68 72.9948 116.346 73.4531 117.148 73.4531C117.865 73.4531 118.545 73.1452 119.189 72.5293C119.848 71.8991 120.436 71.0827 120.951 70.0801C121.467 69.0632 121.868 67.9603 122.154 66.7715C122.455 65.5827 122.605 64.4154 122.605 63.2695C122.605 61.5794 122.376 60.2904 121.918 59.4023C121.46 58.5143 120.829 58.0703 120.027 58.0703ZM142.844 56.3086C143.617 56.3086 144.212 56.5378 144.627 56.9961C145.042 57.4544 145.293 57.9342 145.379 58.4355C145.465 58.9368 145.508 59.5885 145.508 60.3906C145.508 60.9206 145.307 62.1953 144.906 64.2148C145.379 63.3984 145.966 62.5319 146.668 61.6152C147.37 60.6986 148.107 59.8392 148.881 59.0371C149.654 58.235 150.399 57.5833 151.115 57.082C151.831 56.5664 152.44 56.3086 152.941 56.3086C153.887 56.3086 154.531 56.5449 154.875 57.0176C155.219 57.4902 155.391 58.1992 155.391 59.1445C155.391 60.4766 155.19 62.0378 154.789 63.8281L153.371 70.4453C153.285 70.7891 153.242 71.1471 153.242 71.5195C153.242 72.2357 153.385 72.5938 153.672 72.5938C154.03 72.5938 154.46 72.3431 154.961 71.8418C155.462 71.3262 155.892 70.8893 156.25 70.5312L156.508 70.2305C156.565 70.2305 156.673 70.3665 156.83 70.6387C156.988 70.9108 157.066 71.1042 157.066 71.2188C156.823 71.6341 156.379 72.1641 155.734 72.8086C155.104 73.4531 154.417 74.026 153.672 74.5273C152.927 75.0143 152.254 75.2578 151.652 75.2578C151.194 75.2578 150.836 75.0501 150.578 74.6348C150.32 74.2194 150.191 73.6823 150.191 73.0234C150.191 72.5938 150.292 71.8346 150.492 70.7461L151.996 63.6562C152.197 62.6823 152.297 61.9089 152.297 61.3359C152.297 60.8346 152.254 60.4049 152.168 60.0469C152.096 59.6745 151.867 59.4883 151.48 59.4883C150.993 59.4883 150.356 59.832 149.568 60.5195C148.795 61.207 147.993 62.1165 147.162 63.248C146.331 64.3652 145.587 65.597 144.928 66.9434C144.269 68.2754 143.818 69.6003 143.574 70.918L142.801 75H139.922L142.328 62.7969C142.443 62.1523 142.5 61.6081 142.5 61.1641C142.5 60.0469 142.214 59.4883 141.641 59.4883C141.139 59.4883 140.502 59.8678 139.729 60.627C138.955 61.3861 138.16 62.3672 137.344 63.5703C136.527 64.7734 135.797 66.0553 135.152 67.416C134.508 68.7624 134.064 70.0299 133.82 71.2188L133.047 75C132.245 75.1146 131.758 75.1719 131.586 75.1719C131.443 75.1719 130.97 75.1146 130.168 75L132.746 61.7656C132.889 60.7773 132.961 60.2044 132.961 60.0469C132.961 59.3307 132.818 58.9727 132.531 58.9727C132.288 58.9727 131.923 59.2018 131.436 59.6602C131.206 59.8893 130.956 60.14 130.684 60.4121C130.426 60.6842 130.254 60.8776 130.168 60.9922C130.111 60.9922 130.003 60.8561 129.846 60.584C129.688 60.3118 129.609 60.1185 129.609 60.0039C129.839 59.6172 130.254 59.1374 130.855 58.5645C131.457 57.9772 132.102 57.4544 132.789 56.9961C133.477 56.5378 134.064 56.3086 134.551 56.3086C135.009 56.3086 135.367 56.5163 135.625 56.9316C135.883 57.347 136.012 57.8841 136.012 58.543C136.012 59.1732 135.926 59.9323 135.754 60.8203L134.98 64.8164C135.51 63.8997 136.119 62.9473 136.807 61.959C137.508 60.9707 138.225 60.0469 138.955 59.1875C139.7 58.3281 140.409 57.6335 141.082 57.1035C141.755 56.5736 142.342 56.3086 142.844 56.3086ZM171.719 56.3086C172.779 56.3086 173.824 56.4948 174.855 56.8672L172.234 70.4453C172.148 70.7891 172.105 71.1471 172.105 71.5195C172.105 72.2357 172.249 72.5938 172.535 72.5938C172.893 72.5938 173.323 72.3431 173.824 71.8418C174.326 71.3262 174.755 70.8893 175.113 70.5312L175.371 70.2305C175.428 70.2305 175.536 70.3665 175.693 70.6387C175.851 70.9108 175.93 71.1042 175.93 71.2188C175.686 71.6341 175.242 72.1641 174.598 72.8086C173.967 73.4531 173.28 74.026 172.535 74.5273C171.79 75.0143 171.117 75.2578 170.516 75.2578C170.057 75.2578 169.699 75.0501 169.441 74.6348C169.184 74.2194 169.055 73.6823 169.055 73.0234C169.055 72.5794 169.155 71.8203 169.355 70.7461L169.506 69.9941C169.549 69.7936 169.57 69.6719 169.57 69.6289C169.341 70.0586 169.012 70.5885 168.582 71.2188C168.152 71.8346 167.658 72.4505 167.1 73.0664C166.541 73.6823 165.954 74.1979 165.338 74.6133C164.722 75.0143 164.113 75.2148 163.512 75.2148C162.251 75.2148 161.256 74.6491 160.525 73.5176C159.795 72.3861 159.43 71.0182 159.43 69.4141C159.43 67.3659 160.038 65.3249 161.256 63.291C162.072 61.916 163.046 60.7057 164.178 59.6602C165.324 58.6146 166.548 57.7982 167.852 57.2109C169.155 56.6094 170.444 56.3086 171.719 56.3086ZM169.914 58.2852C169.069 58.2852 168.217 58.5859 167.357 59.1875C166.498 59.7747 165.71 60.5697 164.994 61.5723C164.278 62.5605 163.698 63.6634 163.254 64.8809C162.824 66.084 162.609 67.2943 162.609 68.5117C162.609 71.319 163.34 72.7227 164.801 72.7227C165.316 72.7227 165.875 72.4362 166.477 71.8633C167.078 71.2904 167.673 70.5312 168.26 69.5859C168.847 68.6406 169.363 67.6165 169.807 66.5137C170.265 65.3965 170.602 64.3008 170.816 63.2266L171.676 58.8438C171.332 58.4714 170.745 58.2852 169.914 58.2852ZM179.926 56.9531H182.934L183.965 51.7109C184.051 51.4245 184.753 51.2812 186.07 51.2812C186.357 51.2812 186.615 51.2956 186.844 51.3242L185.77 56.9531H189.68C189.823 56.9531 189.895 57.1393 189.895 57.5117C189.895 57.8411 189.766 58.2565 189.508 58.7578H185.426L183.148 70.4453C183.062 70.7891 183.02 71.1471 183.02 71.5195C183.02 72.2357 183.163 72.5938 183.449 72.5938C183.807 72.5938 184.237 72.3431 184.738 71.8418C185.24 71.3262 185.669 70.8893 186.027 70.5312L186.285 70.2305C186.342 70.2305 186.45 70.3665 186.607 70.6387C186.765 70.9108 186.844 71.1042 186.844 71.2188C186.6 71.6341 186.156 72.1641 185.512 72.8086C184.882 73.4531 184.194 74.026 183.449 74.5273C182.704 75.0143 182.031 75.2578 181.43 75.2578C180.971 75.2578 180.613 75.0501 180.355 74.6348C180.098 74.2194 179.969 73.6823 179.969 73.0234C179.969 72.5938 180.069 71.8346 180.27 70.7461L182.59 58.7578H179.539C179.453 58.7578 179.41 58.6003 179.41 58.2852C179.41 57.9128 179.582 57.4688 179.926 56.9531Z" fill="white"/>
<path d="M0 14.4961C6.30012 20.0984 15.0791 19.1979 30.687 15.1421C32.2497 14.736 33.9168 14.9601 35.3059 15.7832L61.0905 31.063L35.3304 19.6141C33.9205 18.9874 32.3183 18.9353 30.8588 19.4358C12.5496 25.7159 4.73674 24.7283 0 14.4961Z" fill="url(#paint8_radial_692_1898)"/>
<path d="M16.5669 25.8858C22.7094 27.5488 34.4861 19.1752 43.5027 24.2129C35.7991 20.3448 24.9274 34.7378 16.5669 25.8858Z" fill="url(#paint9_radial_692_1898)"/>
<path d="M42.4528 34.1693C40.4746 32.9379 39.8039 31.791 39.5364 30.2054C39.314 28.8871 40.2138 27.6374 41.514 27.3262C46.4064 26.1551 49.6595 27.3172 54.8779 31.063C50.3759 26.3362 46.8249 25.2844 39.6469 25.78C38.7972 25.8387 38.0191 26.2751 37.5081 26.9564L36.1669 28.7446C35.6047 29.4943 35.6307 30.5432 36.2784 31.2205C38.4425 33.4837 39.9798 34.1156 42.4528 34.1693Z" fill="url(#paint10_radial_692_1898)"/>
<path d="M61.0905 28.9921C48.8725 19.5072 53.131 18.6378 60.0551 10.3543C56.6285 8.93238 54.8937 8.83857 52.8071 12.4252C51.2879 8.29387 49.7783 6.42726 45.559 4.14173C43.8524 8.52031 44.6321 10.6991 46.5945 14.4961C42.9378 12.0347 40.7471 11.3823 36.2402 13.4606C46.3046 17.727 45.2926 18.8748 61.0905 28.9921Z" fill="url(#paint11_radial_692_1898)"/>
<path d="M78.6929 22.7441C78.6929 22.1918 79.1406 21.7441 79.6929 21.7441H79.7638C80.3161 21.7441 80.7638 22.1918 80.7638 22.7441V25.9213C80.7638 26.4735 80.3161 26.9213 79.7638 26.9213H74.4803C73.3757 26.9213 72.4803 26.0258 72.4803 24.9213V19.6024C72.4803 18.4978 73.3757 17.6024 74.4803 17.6024H78.7281C80.6137 17.6024 82.4755 18.023 84.178 18.8337V18.8337C85.2965 19.3663 86.1249 20.3629 86.4441 21.5599L88.3399 28.6695C89.2063 31.9182 86.6836 35.0788 83.3237 34.9544L68.0679 34.3894C64.7776 34.2675 62.2002 31.5169 62.2923 28.2256L62.6948 13.8426C62.7856 10.5955 65.4441 8.01038 68.6924 8.01038H83.0387C86.0229 8.01038 88.8896 9.21712 90.915 11.4088C101.807 23.194 109.097 33.3225 115.395 32.2299C115.685 32.1796 115.968 32.3916 115.968 32.686V32.686C115.968 32.9325 115.766 33.1318 115.519 33.1285C109.37 33.045 105.37 32.4313 87.653 13.254C86.5367 12.0456 85.0793 11.1983 83.4735 10.8414L77.8584 9.59364C77.0431 9.41248 76.199 9.4035 75.3801 9.56728L71.091 10.4251C68.2865 10.986 66.2677 13.4485 66.2677 16.3086V27.0984C66.2677 29.8599 68.5063 32.0984 71.2677 32.0984H80.9055C83.1146 32.0984 84.9055 30.3076 84.9055 28.0984V22.6378C84.9055 20.4287 83.1146 18.6378 80.9055 18.6378H76.5512C75.4466 18.6378 74.5512 19.5332 74.5512 20.6378V24.8858C74.5512 25.4381 74.9989 25.8858 75.5512 25.8858H77.6929C78.2452 25.8858 78.6929 25.4381 78.6929 24.8858V22.7441Z" fill="url(#paint12_radial_692_1898)"/>
<path d="M104.412 33.0631C96.4743 29.9513 88.3242 12.4066 78.6929 13.4606C91.6665 19.2326 92.9183 31.4785 104.412 33.0631Z" fill="url(#paint13_radial_692_1898)"/>
<path d="M111.827 30.0276C106.485 21.6827 106.361 16.9143 110.791 8.28346C105.363 9.71409 97.6256 19.5114 111.827 30.0276Z" fill="url(#paint14_radial_692_1898)"/>
<path d="M118.039 10.3543C113.102 14.0549 110.405 23.2793 118.039 32.0984C106.33 25.6888 109.793 12.7713 118.039 0V10.3543Z" fill="url(#paint15_radial_692_1898)"/>
<path d="M236.079 14.4961C229.778 20.0984 221 19.1979 205.392 15.1421C203.829 14.736 202.162 14.9601 200.773 15.7832L174.988 31.063L200.748 19.6141C202.158 18.9874 203.76 18.9353 205.22 19.4358C223.529 25.7159 231.342 24.7283 236.079 14.4961Z" fill="url(#paint16_radial_692_1898)"/>
<path d="M219.512 25.8858C213.369 27.5488 201.593 19.1752 192.576 24.2129C200.279 20.3448 211.151 34.7378 219.512 25.8858Z" fill="url(#paint17_radial_692_1898)"/>
<path d="M193.626 34.1693C195.604 32.9379 196.275 31.791 196.542 30.2054C196.765 28.8871 195.865 27.6374 194.565 27.3262C189.672 26.1551 186.419 27.3172 181.201 31.063C185.703 26.3362 189.254 25.2844 196.432 25.78C197.281 25.8387 198.06 26.2751 198.571 26.9564L199.912 28.7446C200.474 29.4943 200.448 30.5432 199.8 31.2205C197.636 33.4837 196.099 34.1156 193.626 34.1693Z" fill="url(#paint18_radial_692_1898)"/>
<path d="M174.988 28.9921C187.206 19.5072 182.948 18.6378 176.024 10.3543C179.45 8.93238 181.185 8.83857 183.272 12.4252C184.791 8.29387 186.3 6.42726 190.52 4.14173C192.226 8.52031 191.446 10.6991 189.484 14.4961C193.141 12.0347 195.331 11.3823 199.838 13.4606C189.774 17.727 190.786 18.8748 174.988 28.9921Z" fill="url(#paint19_radial_692_1898)"/>
<path d="M157.386 22.7441C157.386 22.1918 156.938 21.7441 156.386 21.7441H156.315C155.763 21.7441 155.315 22.1918 155.315 22.7441V25.9213C155.315 26.4735 155.763 26.9213 156.315 26.9213H161.598C162.703 26.9213 163.598 26.0258 163.598 24.9213V19.6024C163.598 18.4978 162.703 17.6024 161.598 17.6024H157.351C155.465 17.6024 153.603 18.023 151.901 18.8337V18.8337C150.782 19.3663 149.954 20.3629 149.635 21.5599L147.739 28.6695C146.872 31.9182 149.395 35.0788 152.755 34.9544L168.011 34.3894C171.301 34.2675 173.878 31.5169 173.786 28.2256L173.384 13.8426C173.293 10.5955 170.635 8.01038 167.386 8.01038H153.04C150.056 8.01038 147.189 9.21712 145.164 11.4088C134.272 23.194 126.982 33.3225 120.683 32.2299C120.393 32.1796 120.11 32.3916 120.11 32.686V32.686C120.11 32.9325 120.313 33.1318 120.559 33.1285C126.708 33.045 130.709 32.4313 148.426 13.254C149.542 12.0456 150.999 11.1983 152.605 10.8414L158.22 9.59364C159.035 9.41248 159.88 9.4035 160.698 9.56728L164.988 10.4251C167.792 10.986 169.811 13.4485 169.811 16.3086V27.0984C169.811 29.8599 167.572 32.0984 164.811 32.0984H155.173C152.964 32.0984 151.173 30.3076 151.173 28.0984V22.6378C151.173 20.4287 152.964 18.6378 155.173 18.6378H159.527C160.632 18.6378 161.527 19.5332 161.527 20.6378V24.8858C161.527 25.4381 161.08 25.8858 160.527 25.8858H158.386C157.833 25.8858 157.386 25.4381 157.386 24.8858V22.7441Z" fill="url(#paint20_radial_692_1898)"/>
<path d="M131.666 33.0631C139.604 29.9513 147.754 12.4066 157.386 13.4606C144.412 19.2326 143.16 31.4785 131.666 33.0631Z" fill="url(#paint21_radial_692_1898)"/>
<path d="M124.252 30.0276C129.594 21.6827 129.718 16.9143 125.287 8.28346C130.716 9.71409 138.453 19.5114 124.252 30.0276Z" fill="url(#paint22_radial_692_1898)"/>
<path d="M118.039 10.3543C122.976 14.0549 125.673 23.2793 118.039 32.0984C129.749 25.6888 126.286 12.7713 118.039 0V10.3543Z" fill="url(#paint23_radial_692_1898)"/>
<defs>
<radialGradient id="paint0_radial_692_1898" cx="0" cy="0" r="1" gradientUnits="userSpaceOnUse" gradientTransform="translate(79.7285 111.309) scale(38.311 20.1909)">
<stop stop-color="#E1E1E1"/>
<stop offset="1" stop-color="#FFF4DA"/>
</radialGradient>
<radialGradient id="paint1_radial_692_1898" cx="0" cy="0" r="1" gradientUnits="userSpaceOnUse" gradientTransform="translate(79.7285 111.309) scale(38.311 20.1909)">
<stop stop-color="#E1E1E1"/>
<stop offset="1" stop-color="#FFF4DA"/>
</radialGradient>
<radialGradient id="paint2_radial_692_1898" cx="0" cy="0" r="1" gradientUnits="userSpaceOnUse" gradientTransform="translate(79.7285 111.309) scale(38.311 20.1909)">
<stop stop-color="#E1E1E1"/>
<stop offset="1" stop-color="#FFF4DA"/>
</radialGradient>
<radialGradient id="paint3_radial_692_1898" cx="0" cy="0" r="1" gradientUnits="userSpaceOnUse" gradientTransform="translate(79.7285 111.309) scale(38.311 20.1909)">
<stop stop-color="#E1E1E1"/>
<stop offset="1" stop-color="#FFF4DA"/>
</radialGradient>
<radialGradient id="paint4_radial_692_1898" cx="0" cy="0" r="1" gradientUnits="userSpaceOnUse" gradientTransform="translate(156.351 111.309) rotate(180) scale(38.311 20.1909)">
<stop stop-color="#E1E1E1"/>
<stop offset="1" stop-color="#FFF4DA"/>
</radialGradient>
<radialGradient id="paint5_radial_692_1898" cx="0" cy="0" r="1" gradientUnits="userSpaceOnUse" gradientTransform="translate(156.351 111.309) rotate(180) scale(38.311 20.1909)">
<stop stop-color="#E1E1E1"/>
<stop offset="1" stop-color="#FFF4DA"/>
</radialGradient>
<radialGradient id="paint6_radial_692_1898" cx="0" cy="0" r="1" gradientUnits="userSpaceOnUse" gradientTransform="translate(156.351 111.309) rotate(180) scale(38.311 20.1909)">
<stop stop-color="#E1E1E1"/>
<stop offset="1" stop-color="#FFF4DA"/>
</radialGradient>
<radialGradient id="paint7_radial_692_1898" cx="0" cy="0" r="1" gradientUnits="userSpaceOnUse" gradientTransform="translate(156.351 111.309) rotate(180) scale(38.311 20.1909)">
<stop stop-color="#E1E1E1"/>
<stop offset="1" stop-color="#FFF4DA"/>
</radialGradient>
<radialGradient id="paint8_radial_692_1898" cx="0" cy="0" r="1" gradientUnits="userSpaceOnUse" gradientTransform="translate(59.0197 17.6024) scale(59.0197 17.6024)">
<stop stop-color="#E1E1E1"/>
<stop offset="1" stop-color="#FFF4DA"/>
</radialGradient>
<radialGradient id="paint9_radial_692_1898" cx="0" cy="0" r="1" gradientUnits="userSpaceOnUse" gradientTransform="translate(59.0197 17.6024) scale(59.0197 17.6024)">
<stop stop-color="#E1E1E1"/>
<stop offset="1" stop-color="#FFF4DA"/>
</radialGradient>
<radialGradient id="paint10_radial_692_1898" cx="0" cy="0" r="1" gradientUnits="userSpaceOnUse" gradientTransform="translate(59.0197 17.6024) scale(59.0197 17.6024)">
<stop stop-color="#E1E1E1"/>
<stop offset="1" stop-color="#FFF4DA"/>
</radialGradient>
<radialGradient id="paint11_radial_692_1898" cx="0" cy="0" r="1" gradientUnits="userSpaceOnUse" gradientTransform="translate(59.0197 17.6024) scale(59.0197 17.6024)">
<stop stop-color="#E1E1E1"/>
<stop offset="1" stop-color="#FFF4DA"/>
</radialGradient>
<radialGradient id="paint12_radial_692_1898" cx="0" cy="0" r="1" gradientUnits="userSpaceOnUse" gradientTransform="translate(59.0197 17.6024) scale(59.0197 17.6024)">
<stop stop-color="#E1E1E1"/>
<stop offset="1" stop-color="#FFF4DA"/>
</radialGradient>
<radialGradient id="paint13_radial_692_1898" cx="0" cy="0" r="1" gradientUnits="userSpaceOnUse" gradientTransform="translate(59.0197 17.6024) scale(59.0197 17.6024)">
<stop stop-color="#E1E1E1"/>
<stop offset="1" stop-color="#FFF4DA"/>
</radialGradient>
<radialGradient id="paint14_radial_692_1898" cx="0" cy="0" r="1" gradientUnits="userSpaceOnUse" gradientTransform="translate(59.0197 17.6024) scale(59.0197 17.6024)">
<stop stop-color="#E1E1E1"/>
<stop offset="1" stop-color="#FFF4DA"/>
</radialGradient>
<radialGradient id="paint15_radial_692_1898" cx="0" cy="0" r="1" gradientUnits="userSpaceOnUse" gradientTransform="translate(59.0197 17.6024) scale(59.0197 17.6024)">
<stop stop-color="#E1E1E1"/>
<stop offset="1" stop-color="#FFF4DA"/>
</radialGradient>
<radialGradient id="paint16_radial_692_1898" cx="0" cy="0" r="1" gradientUnits="userSpaceOnUse" gradientTransform="translate(177.059 17.6024) rotate(180) scale(59.0197 17.6024)">
<stop stop-color="#E1E1E1"/>
<stop offset="1" stop-color="#FFF4DA"/>
</radialGradient>
<radialGradient id="paint17_radial_692_1898" cx="0" cy="0" r="1" gradientUnits="userSpaceOnUse" gradientTransform="translate(177.059 17.6024) rotate(180) scale(59.0197 17.6024)">
<stop stop-color="#E1E1E1"/>
<stop offset="1" stop-color="#FFF4DA"/>
</radialGradient>
<radialGradient id="paint18_radial_692_1898" cx="0" cy="0" r="1" gradientUnits="userSpaceOnUse" gradientTransform="translate(177.059 17.6024) rotate(180) scale(59.0197 17.6024)">
<stop stop-color="#E1E1E1"/>
<stop offset="1" stop-color="#FFF4DA"/>
</radialGradient>
<radialGradient id="paint19_radial_692_1898" cx="0" cy="0" r="1" gradientUnits="userSpaceOnUse" gradientTransform="translate(177.059 17.6024) rotate(180) scale(59.0197 17.6024)">
<stop stop-color="#E1E1E1"/>
<stop offset="1" stop-color="#FFF4DA"/>
</radialGradient>
<radialGradient id="paint20_radial_692_1898" cx="0" cy="0" r="1" gradientUnits="userSpaceOnUse" gradientTransform="translate(177.059 17.6024) rotate(180) scale(59.0197 17.6024)">
<stop stop-color="#E1E1E1"/>
<stop offset="1" stop-color="#FFF4DA"/>
</radialGradient>
<radialGradient id="paint21_radial_692_1898" cx="0" cy="0" r="1" gradientUnits="userSpaceOnUse" gradientTransform="translate(177.059 17.6024) rotate(180) scale(59.0197 17.6024)">
<stop stop-color="#E1E1E1"/>
<stop offset="1" stop-color="#FFF4DA"/>
</radialGradient>
<radialGradient id="paint22_radial_692_1898" cx="0" cy="0" r="1" gradientUnits="userSpaceOnUse" gradientTransform="translate(177.059 17.6024) rotate(180) scale(59.0197 17.6024)">
<stop stop-color="#E1E1E1"/>
<stop offset="1" stop-color="#FFF4DA"/>
</radialGradient>
<radialGradient id="paint23_radial_692_1898" cx="0" cy="0" r="1" gradientUnits="userSpaceOnUse" gradientTransform="translate(177.059 17.6024) rotate(180) scale(59.0197 17.6024)">
<stop stop-color="#E1E1E1"/>
<stop offset="1" stop-color="#FFF4DA"/>
</radialGradient>
</defs>
</svg>
