<svg width="237" height="132" viewBox="0 0 237 132" fill="none" xmlns="http://www.w3.org/2000/svg">
<path d="M50.7125 108.06C49.3889 108.487 47.9214 108.504 46.7169 107.809C44.5794 106.575 44.1412 105.154 44.5234 102.508V102.508C42.8798 103.056 42.063 104.953 43.0339 106.388C43.9977 107.812 45.0937 108.974 46.6267 110.246C47.9171 111.316 49.5696 111.855 51.2458 111.812C56.4406 111.679 59.0349 110.851 62.1257 108.72C61.1051 110.641 61.1618 111.76 61.9885 113.6C62.0605 113.76 62.2568 113.822 62.4077 113.731C64.0825 112.73 65.0039 111.892 66.2674 109.756C66.2154 114.032 66.9843 113.977 70.4091 114.933C67.5194 110.86 68.0525 109.221 70.1981 106.254C70.9958 105.151 72.1259 104.331 73.4053 103.866L78.5776 101.985C81.3342 100.982 84.3487 100.942 87.1313 101.869L104.173 107.55C104.307 107.435 104.442 107.326 104.578 107.223V104.508C104.578 103.403 105.474 102.508 106.578 102.508H108.791C109.896 102.508 110.791 103.403 110.791 104.508V105.614H111.826V103.472C111.826 102.368 110.931 101.472 109.826 101.472H105.543C104.438 101.472 103.543 102.368 103.543 103.472V106.65C98.7736 103.748 93.5321 101.584 86.7257 99.7769C82.8456 98.747 78.7534 99.0145 74.9328 100.247L50.7125 108.06Z" fill="url(#paint0_radial_692_2146)"/>
<path fill-rule="evenodd" clip-rule="evenodd" d="M118.039 111.827V108.721C115.458 105.74 114.163 105.799 111.826 105.614H110.791C108.063 105.589 106.222 105.979 104.578 107.223V107.685L104.173 107.55C103.27 108.327 102.409 109.382 101.472 110.791C94.4225 108.167 92.2419 105.859 84.6304 104.117C82.7927 103.696 80.8379 103.854 79.1733 104.739C77.1406 105.82 75.7478 107.075 74.4004 109.235C73.7976 110.201 73.7049 111.42 74.2146 112.438C75.0495 114.107 76.2498 115.417 79.1376 117.128C80.1186 117.709 81.3505 117.62 82.2784 116.957L86.28 114.099C87.2184 113.429 87.4128 112.09 86.6211 111.251C84.8302 109.354 83.7227 109.09 81.7989 109.756C83.0242 110.067 83.7473 110.456 84.396 111.688C84.7596 112.378 84.5518 113.216 84 113.767L82.2754 115.492C81.3706 116.397 79.9663 116.664 78.9055 115.948C77.3915 114.927 76.4781 113.802 75.4876 112.283C74.8937 111.372 74.8539 110.185 75.48 109.296C77.188 106.871 79.0763 106.022 82.8343 105.614C87.5138 105.758 93.9734 109.592 101.472 112.862C101.61 115.305 101.827 117.608 105.43 119.531C106.15 119.915 107.027 119.733 107.604 119.156L110.252 116.508C110.55 116.21 110.55 115.727 110.252 115.429V115.429C109.971 115.149 109.521 115.134 109.21 115.381C104.882 118.812 103.349 117.017 102.508 112.862C108.784 113.743 111.6 112.063 112.862 106.65H114.933L118.039 111.827ZM102.508 111.827C105.324 107.593 107.416 106.549 111.826 106.65C109.581 111.782 107.623 113.001 102.508 111.827Z" fill="url(#paint1_radial_692_2146)"/>
<path d="M118.039 114.933V111.827C116.112 115.763 116.189 118.074 110.791 119.075C111.96 121.038 112.806 121.636 114.933 121.146C115.324 125.201 115.717 127.472 118.039 131.5V125.287C116.703 121.107 116.952 118.865 118.039 114.933Z" fill="url(#paint2_radial_692_2146)"/>
<path d="M115.968 98.3662C116.06 94.792 116.696 93.3936 118.039 91.1182V105.614C115.722 100.811 114.342 99.4138 111.826 99.4015C113.364 97.8121 114.276 97.3638 115.968 98.3662Z" fill="url(#paint3_radial_692_2146)"/>
<path d="M185.366 108.06C186.689 108.487 188.157 108.504 189.361 107.809C191.499 106.575 191.937 105.154 191.555 102.508V102.508C193.198 103.056 194.015 104.953 193.044 106.388C192.08 107.812 190.984 108.974 189.451 110.246C188.161 111.316 186.509 111.855 184.832 111.812C179.637 111.679 177.043 110.851 173.952 108.72C174.973 110.641 174.916 111.76 174.09 113.6C174.018 113.76 173.821 113.822 173.67 113.731C171.996 112.73 171.074 111.892 169.811 109.756C169.863 114.032 169.094 113.977 165.669 114.933C168.559 110.86 168.026 109.221 165.88 106.254C165.082 105.151 163.952 104.331 162.673 103.866L157.5 101.985C154.744 100.982 151.729 100.942 148.947 101.869L131.905 107.55C131.771 107.435 131.636 107.326 131.5 107.223V104.508C131.5 103.403 130.604 102.508 129.5 102.508H127.287C126.183 102.508 125.287 103.403 125.287 104.508V105.614H124.252V103.472C124.252 102.368 125.147 101.472 126.252 101.472H130.535C131.64 101.472 132.535 102.368 132.535 103.472V106.65C137.304 103.748 142.546 101.584 149.352 99.7769C153.232 98.747 157.325 99.0145 161.145 100.247L185.366 108.06Z" fill="url(#paint4_radial_692_2146)"/>
<path fill-rule="evenodd" clip-rule="evenodd" d="M118.039 111.827V108.721C120.62 105.74 121.915 105.799 124.252 105.614H125.287C128.015 105.589 129.856 105.979 131.5 107.223V107.685L131.905 107.55C132.808 108.327 133.669 109.382 134.606 110.791C141.656 108.167 143.836 105.859 151.448 104.117C153.285 103.696 155.24 103.854 156.905 104.739C158.938 105.82 160.33 107.075 161.678 109.235C162.281 110.201 162.373 111.42 161.863 112.438C161.029 114.107 159.828 115.417 156.941 117.128C155.96 117.709 154.728 117.62 153.8 116.957L149.798 114.099C148.86 113.429 148.665 112.09 149.457 111.251C151.248 109.354 152.355 109.09 154.279 109.756C153.054 110.067 152.331 110.456 151.682 111.688C151.319 112.378 151.526 113.216 152.078 113.767L153.803 115.492C154.708 116.397 156.112 116.664 157.173 115.948C158.687 114.927 159.6 113.802 160.591 112.283C161.184 111.372 161.224 110.185 160.598 109.296C158.89 106.871 157.002 106.022 153.244 105.614C148.564 105.758 142.105 109.592 134.606 112.862C134.468 115.305 134.251 117.608 130.648 119.531C129.928 119.915 129.051 119.733 128.474 119.156L125.826 116.508C125.528 116.21 125.528 115.727 125.826 115.429V115.429C126.107 115.149 126.557 115.134 126.868 115.381C131.196 118.812 132.729 117.017 133.571 112.862C127.294 113.743 124.478 112.063 123.216 106.65H121.145L118.039 111.827ZM133.571 111.827C130.754 107.593 128.662 106.549 124.252 106.65C126.497 111.782 128.455 113.001 133.571 111.827Z" fill="url(#paint5_radial_692_2146)"/>
<path d="M118.039 114.933V111.827C119.967 115.763 119.889 118.074 125.287 119.075C124.119 121.038 123.273 121.636 121.145 121.146C120.754 125.201 120.361 127.472 118.039 131.5V125.287C119.375 121.107 119.126 118.865 118.039 114.933Z" fill="url(#paint6_radial_692_2146)"/>
<path d="M120.11 98.3662C120.019 94.792 119.382 93.3936 118.039 91.1182V105.614C120.356 100.811 121.736 99.4138 124.252 99.4015C122.714 97.8121 121.802 97.3638 120.11 98.3662Z" fill="url(#paint7_radial_692_2146)"/>
<path d="M69.5625 46.3398C71.4961 46.3398 73.2292 46.8411 74.7617 47.8438C76.3086 48.832 77.5332 50.1641 78.4355 51.8398C79.3379 53.5156 79.7891 55.3776 79.7891 57.4258C79.7891 59.4023 79.4668 61.3431 78.8223 63.248C78.1777 65.1387 77.2754 66.8861 76.1152 68.4902C74.9551 70.0944 73.6016 71.4622 72.0547 72.5938C69.4193 74.5273 66.3542 75.8307 62.8594 76.5039C63.7044 76.6042 65.7096 77.3346 68.875 78.6953C72.0117 80.0417 74.5469 80.7148 76.4805 80.7148C77.1966 80.7148 77.9557 80.5645 78.7578 80.2637C79.5742 79.9772 80.3405 79.6263 81.0566 79.2109C81.7728 78.7956 82.3385 78.4089 82.7539 78.0508C83.4128 78.3659 83.7422 78.7096 83.7422 79.082C83.3984 79.5404 82.7611 80.0775 81.8301 80.6934C80.8991 81.3092 79.8177 81.8464 78.5859 82.3047C77.3685 82.763 76.1367 82.9922 74.8906 82.9922C73.0286 82.9922 71.2311 82.6986 69.498 82.1113C67.765 81.5241 65.7096 80.7148 63.332 79.6836C60.9401 78.6523 58.5911 77.8359 56.2852 77.2344C56.2852 77.1198 56.3783 76.9264 56.5645 76.6543C56.7507 76.3822 56.9154 76.2174 57.0586 76.1602C57.4596 76.1458 58.9779 75.8307 61.6133 75.2148C59.9805 74.8854 58.5625 74.1908 57.3594 73.1309C56.1562 72.071 55.2253 70.7461 54.5664 69.1562C53.9076 67.5521 53.5781 65.7904 53.5781 63.8711C53.5781 60.8919 54.3659 58.0345 55.9414 55.2988C57.0013 53.4655 58.2617 51.8828 59.7227 50.5508C61.1836 49.2044 62.7591 48.166 64.4492 47.4355C66.1393 46.7051 67.8438 46.3398 69.5625 46.3398ZM68.5742 48.1445C67.0273 48.1445 65.5807 48.5814 64.2344 49.4551C62.9023 50.3145 61.7279 51.4746 60.7109 52.9355C59.694 54.3965 58.8991 56.0436 58.3262 57.877C57.7676 59.7103 57.4883 61.5938 57.4883 63.5273C57.4883 65.4753 57.7747 67.2083 58.3477 68.7266C58.9206 70.2305 59.7513 71.4193 60.8398 72.293C61.9427 73.1523 63.2747 73.582 64.8359 73.582C66.3255 73.582 67.7292 73.1452 69.0469 72.2715C70.3789 71.3835 71.5534 70.1947 72.5703 68.7051C73.5872 67.2155 74.3822 65.5469 74.9551 63.6992C75.5423 61.8516 75.8359 59.9609 75.8359 58.0273C75.8359 56.1081 75.5495 54.4108 74.9766 52.9355C74.418 51.446 73.5944 50.2786 72.5059 49.4336C71.4316 48.5742 70.1211 48.1445 68.5742 48.1445ZM85.9766 56.3086C86.4349 56.3086 86.793 56.5163 87.0508 56.9316C87.3086 57.347 87.4375 57.8841 87.4375 58.543C87.4375 59.3021 87.3516 60.0612 87.1797 60.8203L85.6758 67.9102C85.4753 68.7839 85.375 69.5573 85.375 70.2305C85.375 71.4622 85.6471 72.0781 86.1914 72.0781C86.5065 72.0781 86.8932 71.8991 87.3516 71.541C87.8242 71.1829 88.3112 70.7246 88.8125 70.166C89.3281 69.6074 89.8079 69.0345 90.252 68.4473C91.0684 67.373 91.8418 66.0625 92.5723 64.5156C93.3027 62.9688 93.8112 61.4362 94.0977 59.918L94.8281 56.5664C95.2148 56.4518 95.6589 56.3945 96.1602 56.3945C96.6471 56.3945 97.1341 56.4518 97.6211 56.5664L94.957 70.4453C94.8711 70.7891 94.8281 71.1471 94.8281 71.5195C94.8281 72.2357 94.9714 72.5938 95.2578 72.5938C95.6159 72.5938 96.0456 72.3431 96.5469 71.8418C97.0482 71.3262 97.4779 70.8893 97.8359 70.5312L98.0938 70.2305C98.151 70.2305 98.2585 70.3665 98.416 70.6387C98.5736 70.9108 98.6523 71.1042 98.6523 71.2188C98.4089 71.6341 97.9648 72.1641 97.3203 72.8086C96.6901 73.4531 96.0026 74.026 95.2578 74.5273C94.513 75.0143 93.8398 75.2578 93.2383 75.2578C92.7799 75.2578 92.4219 75.0501 92.1641 74.6348C91.9062 74.2194 91.7773 73.6823 91.7773 73.0234C91.7773 72.5938 91.8776 71.8346 92.0781 70.7461L92.8516 66.793C92.5794 67.3086 91.9922 68.1966 91.0898 69.457C90.5026 70.2734 89.7936 71.1328 88.9629 72.0352C88.1465 72.9375 87.3301 73.7038 86.5137 74.334C85.6973 74.9499 85.0026 75.2578 84.4297 75.2578C82.9974 75.2578 82.2812 74.3125 82.2812 72.4219C82.2812 71.0755 82.4818 69.5143 82.8828 67.7383L84.1719 61.7656C84.3151 60.7773 84.3867 60.2044 84.3867 60.0469C84.3867 59.3307 84.2435 58.9727 83.957 58.9727C83.7135 58.9727 83.3483 59.2018 82.8613 59.6602C82.6322 59.8893 82.3815 60.14 82.1094 60.4121C81.8516 60.6842 81.6797 60.8776 81.5938 60.9922C81.5365 60.9922 81.429 60.8561 81.2715 60.584C81.1139 60.3118 81.0352 60.1185 81.0352 60.0039C81.2643 59.6172 81.6797 59.1374 82.2812 58.5645C82.8828 57.9772 83.5273 57.4544 84.2148 56.9961C84.9023 56.5378 85.4896 56.3086 85.9766 56.3086ZM106.988 56.3086C107.447 56.3086 107.805 56.5163 108.062 56.9316C108.32 57.347 108.449 57.8841 108.449 58.543C108.449 59.1732 108.363 59.9323 108.191 60.8203L107.504 64.4297C107.862 63.5846 108.32 62.6966 108.879 61.7656C109.452 60.8203 110.061 59.9323 110.705 59.1016C111.35 58.2708 111.987 57.5977 112.617 57.082C113.247 56.5664 113.806 56.3086 114.293 56.3086C115.267 56.3086 116.055 56.7669 116.656 57.6836C116.656 59.6029 116.126 60.5625 115.066 60.5625C114.837 60.5625 114.565 60.3835 114.25 60.0254C113.935 59.6673 113.605 59.4883 113.262 59.4883C112.846 59.4883 112.302 59.832 111.629 60.5195C110.956 61.207 110.261 62.1094 109.545 63.2266C108.829 64.3294 108.184 65.5254 107.611 66.8145C107.038 68.0892 106.645 69.3138 106.43 70.4883L105.613 75C105.126 75.0859 104.654 75.1289 104.195 75.1289C103.651 75.1289 103.121 75.0859 102.605 75L105.184 61.7656C105.327 60.7773 105.398 60.2044 105.398 60.0469C105.398 59.3307 105.255 58.9727 104.969 58.9727C104.725 58.9727 104.36 59.2018 103.873 59.6602C103.644 59.8893 103.393 60.14 103.121 60.4121C102.863 60.6842 102.691 60.8776 102.605 60.9922C102.548 60.9922 102.441 60.8561 102.283 60.584C102.126 60.3118 102.047 60.1185 102.047 60.0039C102.276 59.6172 102.691 59.1374 103.293 58.5645C103.895 57.9772 104.539 57.4544 105.227 56.9961C105.914 56.5378 106.501 56.3086 106.988 56.3086ZM128.258 56.3086C129.318 56.3086 130.363 56.4948 131.395 56.8672L128.773 70.4453C128.688 70.7891 128.645 71.1471 128.645 71.5195C128.645 72.2357 128.788 72.5938 129.074 72.5938C129.432 72.5938 129.862 72.3431 130.363 71.8418C130.865 71.3262 131.294 70.8893 131.652 70.5312L131.91 70.2305C131.967 70.2305 132.075 70.3665 132.232 70.6387C132.39 70.9108 132.469 71.1042 132.469 71.2188C132.225 71.6341 131.781 72.1641 131.137 72.8086C130.507 73.4531 129.819 74.026 129.074 74.5273C128.329 75.0143 127.656 75.2578 127.055 75.2578C126.596 75.2578 126.238 75.0501 125.98 74.6348C125.723 74.2194 125.594 73.6823 125.594 73.0234C125.594 72.5794 125.694 71.8203 125.895 70.7461L126.045 69.9941C126.088 69.7936 126.109 69.6719 126.109 69.6289C125.88 70.0586 125.551 70.5885 125.121 71.2188C124.691 71.8346 124.197 72.4505 123.639 73.0664C123.08 73.6823 122.493 74.1979 121.877 74.6133C121.261 75.0143 120.652 75.2148 120.051 75.2148C118.79 75.2148 117.795 74.6491 117.064 73.5176C116.334 72.3861 115.969 71.0182 115.969 69.4141C115.969 67.3659 116.577 65.3249 117.795 63.291C118.611 61.916 119.585 60.7057 120.717 59.6602C121.863 58.6146 123.087 57.7982 124.391 57.2109C125.694 56.6094 126.983 56.3086 128.258 56.3086ZM126.453 58.2852C125.608 58.2852 124.756 58.5859 123.896 59.1875C123.037 59.7747 122.249 60.5697 121.533 61.5723C120.817 62.5605 120.237 63.6634 119.793 64.8809C119.363 66.084 119.148 67.2943 119.148 68.5117C119.148 71.319 119.879 72.7227 121.34 72.7227C121.855 72.7227 122.414 72.4362 123.016 71.8633C123.617 71.2904 124.212 70.5312 124.799 69.5859C125.386 68.6406 125.902 67.6165 126.346 66.5137C126.804 65.3965 127.141 64.3008 127.355 63.2266L128.215 58.8438C127.871 58.4714 127.284 58.2852 126.453 58.2852ZM140.461 56.3086C141.32 56.3086 142.029 57.0391 142.588 58.5C143.161 59.9896 143.54 61.9017 143.727 64.2363C143.87 65.8118 143.97 67.1439 144.027 68.2324C144.099 69.321 144.142 70.2949 144.156 71.1543C144.185 72.0137 144.199 72.8945 144.199 73.7969C144.944 72.8802 145.703 71.7773 146.477 70.4883C147.25 69.1992 147.902 67.8743 148.432 66.5137C148.962 65.153 149.227 63.8997 149.227 62.7539C149.227 61.0781 148.868 59.5456 148.152 58.1562C148.525 56.9245 149.241 56.3086 150.301 56.3086C151.561 56.3086 152.191 57.4401 152.191 59.7031C152.191 62.8685 150.96 66.485 148.496 70.5527C147.264 72.5866 145.925 74.4772 144.479 76.2246C143.046 77.9863 141.6 79.526 140.139 80.8438C138.678 82.1615 137.296 83.1855 135.992 83.916C134.689 84.6465 133.557 85.0117 132.598 85.0117C131.853 85.0117 131.237 84.8398 130.75 84.4961C130.263 84.1523 130.02 83.737 130.02 83.25C130.02 82.3333 130.349 81.7031 131.008 81.3594C131.638 81.7318 132.598 81.918 133.887 81.918C136.279 81.918 138.341 80.6432 140.074 78.0938C140.733 77.1341 141.062 75.2148 141.062 72.3359C141.062 70.9323 141.027 69.5358 140.955 68.1465C140.883 66.7572 140.755 65.332 140.568 63.8711C140.468 63.0404 140.318 62.2526 140.117 61.5078C139.931 60.763 139.702 60.1543 139.43 59.6816C139.158 59.209 138.842 58.9727 138.484 58.9727C138.227 58.9727 137.84 59.2161 137.324 59.7031C136.809 60.1901 136.408 60.6198 136.121 60.9922C136.064 60.9922 135.956 60.8561 135.799 60.584C135.641 60.3118 135.562 60.1185 135.562 60.0039C135.648 59.7891 135.878 59.4811 136.25 59.0801C136.637 58.679 137.088 58.2637 137.604 57.834C138.119 57.4043 138.635 57.0462 139.15 56.7598C139.666 56.459 140.103 56.3086 140.461 56.3086ZM162.977 56.1797C164.609 56.1797 165.898 56.724 166.844 57.8125C166.987 58.1419 167.059 58.4427 167.059 58.7148C167.059 59.2305 166.923 59.6745 166.65 60.0469C166.378 60.4193 166.027 60.6055 165.598 60.6055C165.211 60.6055 164.853 60.3978 164.523 59.9824C164.208 59.5671 163.814 59.1445 163.342 58.7148C162.869 58.2852 162.246 58.0703 161.473 58.0703C160.871 58.0703 160.398 58.2708 160.055 58.6719C159.711 59.0729 159.539 59.5312 159.539 60.0469C159.539 60.7917 159.818 61.5866 160.377 62.4316C160.936 63.2767 161.544 64.0286 162.203 64.6875C162.862 65.3464 163.471 66.1484 164.029 67.0938C164.588 68.0391 164.867 68.9987 164.867 69.9727C164.867 71.5482 164.294 72.8229 163.148 73.7969C162.003 74.7708 160.527 75.2578 158.723 75.2578C157.09 75.2578 155.801 74.7135 154.855 73.625C154.712 73.3958 154.641 73.1237 154.641 72.8086C154.641 72.293 154.777 71.8346 155.049 71.4336C155.321 71.0326 155.672 70.832 156.102 70.832C156.488 70.832 156.846 71.0397 157.176 71.4551C157.491 71.8704 157.885 72.293 158.357 72.7227C158.83 73.1523 159.453 73.3672 160.227 73.3672C160.857 73.3672 161.365 73.1595 161.752 72.7441C162.139 72.3288 162.332 71.8776 162.332 71.3906C162.332 70.6458 162.053 69.8509 161.494 69.0059C160.936 68.1608 160.327 67.4089 159.668 66.75C159.009 66.0911 158.4 65.2891 157.842 64.3438C157.283 63.3984 157.004 62.4388 157.004 61.4648C157.004 60.6628 157.269 59.8535 157.799 59.0371C158.329 58.2207 159.045 57.5404 159.947 56.9961C160.85 56.4518 161.859 56.1797 162.977 56.1797ZM181.883 56.3086C183.315 56.3086 184.031 57.2539 184.031 59.1445C184.031 60.4766 183.831 62.0378 183.43 63.8281L182.012 70.4453C181.926 70.7891 181.883 71.1471 181.883 71.5195C181.883 72.2357 182.026 72.5938 182.312 72.5938C182.671 72.5938 183.1 72.3431 183.602 71.8418C184.103 71.3262 184.533 70.8893 184.891 70.5312L185.148 70.2305C185.206 70.2305 185.313 70.3665 185.471 70.6387C185.628 70.9108 185.707 71.1042 185.707 71.2188C185.464 71.6341 185.02 72.1641 184.375 72.8086C183.745 73.4531 183.057 74.026 182.312 74.5273C181.568 75.0143 180.895 75.2578 180.293 75.2578C179.835 75.2578 179.477 75.0501 179.219 74.6348C178.961 74.2194 178.832 73.6823 178.832 73.0234C178.832 72.5938 178.932 71.8346 179.133 70.7461L180.637 63.6562C180.837 62.6823 180.938 61.9089 180.938 61.3359C180.938 60.1042 180.665 59.4883 180.121 59.4883C179.648 59.4883 179.011 59.8464 178.209 60.5625C177.407 61.2643 176.569 62.2025 175.695 63.377C174.836 64.5514 174.055 65.862 173.354 67.3086C172.652 68.7409 172.158 70.1875 171.871 71.6484L171.141 75C170.754 75.1146 170.31 75.1719 169.809 75.1719C169.322 75.1719 168.835 75.1146 168.348 75L172.988 50.9805C173.246 49.7057 173.375 48.9466 173.375 48.7031C173.375 48.1589 172.501 47.8867 170.754 47.8867C170.668 47.8867 170.625 47.8008 170.625 47.6289C170.625 47.2852 170.74 46.9987 170.969 46.7695C172.831 46.5977 174.635 46.1966 176.383 45.5664C176.555 45.6523 176.641 45.9245 176.641 46.3828C176.641 46.5833 176.454 47.6576 176.082 49.6055L173.117 64.7734C173.389 64.2865 174.012 63.3984 174.986 62.1094C175.631 61.2643 176.376 60.3978 177.221 59.5098C178.08 58.6074 178.925 57.8483 179.756 57.2324C180.601 56.6165 181.31 56.3086 181.883 56.3086Z" fill="white"/>
<path d="M0 14.4961C6.30012 20.0984 15.0791 19.1979 30.687 15.1421C32.2497 14.736 33.9168 14.9601 35.3059 15.7832L61.0905 31.063L35.3304 19.6141C33.9205 18.9874 32.3183 18.9353 30.8588 19.4358C12.5496 25.7159 4.73674 24.7283 0 14.4961Z" fill="url(#paint8_radial_692_2146)"/>
<path d="M16.5669 25.8858C22.7094 27.5488 34.4861 19.1752 43.5027 24.2129C35.7991 20.3448 24.9274 34.7378 16.5669 25.8858Z" fill="url(#paint9_radial_692_2146)"/>
<path d="M42.4528 34.1693C40.4746 32.9379 39.8039 31.791 39.5364 30.2054C39.314 28.8871 40.2138 27.6374 41.514 27.3262C46.4064 26.1551 49.6595 27.3172 54.8779 31.063C50.3759 26.3362 46.8249 25.2844 39.6469 25.78C38.7972 25.8387 38.0191 26.2751 37.5081 26.9564L36.1669 28.7446C35.6047 29.4943 35.6307 30.5432 36.2784 31.2205C38.4425 33.4837 39.9798 34.1156 42.4528 34.1693Z" fill="url(#paint10_radial_692_2146)"/>
<path d="M61.0905 28.9921C48.8725 19.5072 53.131 18.6378 60.0551 10.3543C56.6285 8.93238 54.8937 8.83857 52.8071 12.4252C51.2879 8.29387 49.7783 6.42726 45.559 4.14173C43.8524 8.52031 44.6321 10.6991 46.5945 14.4961C42.9378 12.0347 40.7471 11.3823 36.2402 13.4606C46.3046 17.727 45.2926 18.8748 61.0905 28.9921Z" fill="url(#paint11_radial_692_2146)"/>
<path d="M78.6929 22.7441C78.6929 22.1918 79.1406 21.7441 79.6929 21.7441H79.7638C80.3161 21.7441 80.7638 22.1918 80.7638 22.7441V25.9213C80.7638 26.4735 80.3161 26.9213 79.7638 26.9213H74.4803C73.3757 26.9213 72.4803 26.0258 72.4803 24.9213V19.6024C72.4803 18.4978 73.3757 17.6024 74.4803 17.6024H78.7281C80.6137 17.6024 82.4755 18.023 84.178 18.8337V18.8337C85.2965 19.3663 86.1249 20.3629 86.4441 21.5599L88.3399 28.6695C89.2063 31.9182 86.6836 35.0788 83.3237 34.9544L68.0679 34.3894C64.7776 34.2675 62.2002 31.5169 62.2923 28.2256L62.6948 13.8426C62.7856 10.5955 65.4441 8.01038 68.6924 8.01038H83.0387C86.0229 8.01038 88.8896 9.21712 90.915 11.4088C101.807 23.194 109.097 33.3225 115.395 32.2299C115.685 32.1796 115.968 32.3916 115.968 32.686V32.686C115.968 32.9325 115.766 33.1318 115.519 33.1285C109.37 33.045 105.37 32.4313 87.653 13.254C86.5367 12.0456 85.0793 11.1983 83.4735 10.8414L77.8584 9.59364C77.0431 9.41248 76.199 9.4035 75.3801 9.56728L71.091 10.4251C68.2865 10.986 66.2677 13.4485 66.2677 16.3086V27.0984C66.2677 29.8599 68.5063 32.0984 71.2677 32.0984H80.9055C83.1146 32.0984 84.9055 30.3076 84.9055 28.0984V22.6378C84.9055 20.4287 83.1146 18.6378 80.9055 18.6378H76.5512C75.4466 18.6378 74.5512 19.5332 74.5512 20.6378V24.8858C74.5512 25.4381 74.9989 25.8858 75.5512 25.8858H77.6929C78.2452 25.8858 78.6929 25.4381 78.6929 24.8858V22.7441Z" fill="url(#paint12_radial_692_2146)"/>
<path d="M104.412 33.0631C96.4743 29.9513 88.3242 12.4066 78.6929 13.4606C91.6665 19.2326 92.9183 31.4785 104.412 33.0631Z" fill="url(#paint13_radial_692_2146)"/>
<path d="M111.827 30.0276C106.485 21.6827 106.361 16.9143 110.791 8.28346C105.363 9.71409 97.6256 19.5114 111.827 30.0276Z" fill="url(#paint14_radial_692_2146)"/>
<path d="M118.039 10.3543C113.102 14.0549 110.405 23.2793 118.039 32.0984C106.33 25.6888 109.793 12.7713 118.039 0V10.3543Z" fill="url(#paint15_radial_692_2146)"/>
<path d="M236.079 14.4961C229.779 20.0984 221 19.1979 205.392 15.1421C203.829 14.736 202.162 14.9601 200.773 15.7832L174.989 31.063L200.749 19.6141C202.159 18.9874 203.761 18.9353 205.22 19.4358C223.529 25.7159 231.342 24.7283 236.079 14.4961Z" fill="url(#paint16_radial_692_2146)"/>
<path d="M219.512 25.8858C213.37 27.5488 201.593 19.1752 192.576 24.2129C200.28 20.3448 211.152 34.7378 219.512 25.8858Z" fill="url(#paint17_radial_692_2146)"/>
<path d="M193.626 34.1693C195.605 32.9379 196.275 31.791 196.543 30.2054C196.765 28.8871 195.865 27.6374 194.565 27.3262C189.673 26.1551 186.42 27.3172 181.201 31.063C185.703 26.3362 189.254 25.2844 196.432 25.78C197.282 25.8387 198.06 26.2751 198.571 26.9564L199.912 28.7446C200.474 29.4943 200.448 30.5432 199.801 31.2205C197.637 33.4837 196.099 34.1156 193.626 34.1693Z" fill="url(#paint18_radial_692_2146)"/>
<path d="M174.989 28.9921C187.207 19.5072 182.948 18.6378 176.024 10.3543C179.451 8.93238 181.185 8.83857 183.272 12.4252C184.791 8.29387 186.301 6.42726 190.52 4.14173C192.227 8.52031 191.447 10.6991 189.485 14.4961C193.141 12.0347 195.332 11.3823 199.839 13.4606C189.775 17.727 190.787 18.8748 174.989 28.9921Z" fill="url(#paint19_radial_692_2146)"/>
<path d="M157.386 22.7441C157.386 22.1918 156.938 21.7441 156.386 21.7441H156.315C155.763 21.7441 155.315 22.1918 155.315 22.7441V25.9213C155.315 26.4735 155.763 26.9213 156.315 26.9213H161.599C162.703 26.9213 163.599 26.0258 163.599 24.9213V19.6024C163.599 18.4978 162.703 17.6024 161.599 17.6024H157.351C155.465 17.6024 153.604 18.023 151.901 18.8337V18.8337C150.783 19.3663 149.954 20.3629 149.635 21.5599L147.739 28.6695C146.873 31.9182 149.396 35.0788 152.755 34.9544L168.011 34.3894C171.301 34.2675 173.879 31.5169 173.787 28.2256L173.384 13.8426C173.293 10.5955 170.635 8.01038 167.387 8.01038H153.04C150.056 8.01038 147.19 9.21712 145.164 11.4088C134.273 23.194 126.982 33.3225 120.684 32.2299C120.394 32.1796 120.111 32.3916 120.111 32.686V32.686C120.111 32.9325 120.313 33.1318 120.56 33.1285C126.709 33.045 130.709 32.4313 148.426 13.254C149.542 12.0456 151 11.1983 152.606 10.8414L158.221 9.59364C159.036 9.41248 159.88 9.4035 160.699 9.56728L164.988 10.4251C167.793 10.986 169.811 13.4485 169.811 16.3086V27.0984C169.811 29.8599 167.573 32.0984 164.811 32.0984H155.174C152.964 32.0984 151.174 30.3076 151.174 28.0984V22.6378C151.174 20.4287 152.964 18.6378 155.174 18.6378H159.528C160.633 18.6378 161.528 19.5332 161.528 20.6378V24.8858C161.528 25.4381 161.08 25.8858 160.528 25.8858H158.386C157.834 25.8858 157.386 25.4381 157.386 24.8858V22.7441Z" fill="url(#paint20_radial_692_2146)"/>
<path d="M131.667 33.0631C139.605 29.9513 147.755 12.4066 157.386 13.4606C144.413 19.2326 143.161 31.4785 131.667 33.0631Z" fill="url(#paint21_radial_692_2146)"/>
<path d="M124.252 30.0276C129.594 21.6827 129.718 16.9143 125.288 8.28346C130.716 9.71409 138.454 19.5114 124.252 30.0276Z" fill="url(#paint22_radial_692_2146)"/>
<path d="M118.04 10.3543C122.977 14.0549 125.674 23.2793 118.04 32.0984C129.75 25.6888 126.286 12.7713 118.04 0V10.3543Z" fill="url(#paint23_radial_692_2146)"/>
<defs>
<radialGradient id="paint0_radial_692_2146" cx="0" cy="0" r="1" gradientUnits="userSpaceOnUse" gradientTransform="translate(79.728 111.309) scale(38.311 20.1909)">
<stop stop-color="#E1E1E1"/>
<stop offset="1" stop-color="#FFF4DA"/>
</radialGradient>
<radialGradient id="paint1_radial_692_2146" cx="0" cy="0" r="1" gradientUnits="userSpaceOnUse" gradientTransform="translate(79.728 111.309) scale(38.311 20.1909)">
<stop stop-color="#E1E1E1"/>
<stop offset="1" stop-color="#FFF4DA"/>
</radialGradient>
<radialGradient id="paint2_radial_692_2146" cx="0" cy="0" r="1" gradientUnits="userSpaceOnUse" gradientTransform="translate(79.728 111.309) scale(38.311 20.1909)">
<stop stop-color="#E1E1E1"/>
<stop offset="1" stop-color="#FFF4DA"/>
</radialGradient>
<radialGradient id="paint3_radial_692_2146" cx="0" cy="0" r="1" gradientUnits="userSpaceOnUse" gradientTransform="translate(79.728 111.309) scale(38.311 20.1909)">
<stop stop-color="#E1E1E1"/>
<stop offset="1" stop-color="#FFF4DA"/>
</radialGradient>
<radialGradient id="paint4_radial_692_2146" cx="0" cy="0" r="1" gradientUnits="userSpaceOnUse" gradientTransform="translate(156.35 111.309) rotate(180) scale(38.311 20.1909)">
<stop stop-color="#E1E1E1"/>
<stop offset="1" stop-color="#FFF4DA"/>
</radialGradient>
<radialGradient id="paint5_radial_692_2146" cx="0" cy="0" r="1" gradientUnits="userSpaceOnUse" gradientTransform="translate(156.35 111.309) rotate(180) scale(38.311 20.1909)">
<stop stop-color="#E1E1E1"/>
<stop offset="1" stop-color="#FFF4DA"/>
</radialGradient>
<radialGradient id="paint6_radial_692_2146" cx="0" cy="0" r="1" gradientUnits="userSpaceOnUse" gradientTransform="translate(156.35 111.309) rotate(180) scale(38.311 20.1909)">
<stop stop-color="#E1E1E1"/>
<stop offset="1" stop-color="#FFF4DA"/>
</radialGradient>
<radialGradient id="paint7_radial_692_2146" cx="0" cy="0" r="1" gradientUnits="userSpaceOnUse" gradientTransform="translate(156.35 111.309) rotate(180) scale(38.311 20.1909)">
<stop stop-color="#E1E1E1"/>
<stop offset="1" stop-color="#FFF4DA"/>
</radialGradient>
<radialGradient id="paint8_radial_692_2146" cx="0" cy="0" r="1" gradientUnits="userSpaceOnUse" gradientTransform="translate(59.0197 17.6024) scale(59.0197 17.6024)">
<stop stop-color="#E1E1E1"/>
<stop offset="1" stop-color="#FFF4DA"/>
</radialGradient>
<radialGradient id="paint9_radial_692_2146" cx="0" cy="0" r="1" gradientUnits="userSpaceOnUse" gradientTransform="translate(59.0197 17.6024) scale(59.0197 17.6024)">
<stop stop-color="#E1E1E1"/>
<stop offset="1" stop-color="#FFF4DA"/>
</radialGradient>
<radialGradient id="paint10_radial_692_2146" cx="0" cy="0" r="1" gradientUnits="userSpaceOnUse" gradientTransform="translate(59.0197 17.6024) scale(59.0197 17.6024)">
<stop stop-color="#E1E1E1"/>
<stop offset="1" stop-color="#FFF4DA"/>
</radialGradient>
<radialGradient id="paint11_radial_692_2146" cx="0" cy="0" r="1" gradientUnits="userSpaceOnUse" gradientTransform="translate(59.0197 17.6024) scale(59.0197 17.6024)">
<stop stop-color="#E1E1E1"/>
<stop offset="1" stop-color="#FFF4DA"/>
</radialGradient>
<radialGradient id="paint12_radial_692_2146" cx="0" cy="0" r="1" gradientUnits="userSpaceOnUse" gradientTransform="translate(59.0197 17.6024) scale(59.0197 17.6024)">
<stop stop-color="#E1E1E1"/>
<stop offset="1" stop-color="#FFF4DA"/>
</radialGradient>
<radialGradient id="paint13_radial_692_2146" cx="0" cy="0" r="1" gradientUnits="userSpaceOnUse" gradientTransform="translate(59.0197 17.6024) scale(59.0197 17.6024)">
<stop stop-color="#E1E1E1"/>
<stop offset="1" stop-color="#FFF4DA"/>
</radialGradient>
<radialGradient id="paint14_radial_692_2146" cx="0" cy="0" r="1" gradientUnits="userSpaceOnUse" gradientTransform="translate(59.0197 17.6024) scale(59.0197 17.6024)">
<stop stop-color="#E1E1E1"/>
<stop offset="1" stop-color="#FFF4DA"/>
</radialGradient>
<radialGradient id="paint15_radial_692_2146" cx="0" cy="0" r="1" gradientUnits="userSpaceOnUse" gradientTransform="translate(59.0197 17.6024) scale(59.0197 17.6024)">
<stop stop-color="#E1E1E1"/>
<stop offset="1" stop-color="#FFF4DA"/>
</radialGradient>
<radialGradient id="paint16_radial_692_2146" cx="0" cy="0" r="1" gradientUnits="userSpaceOnUse" gradientTransform="translate(177.059 17.6024) rotate(180) scale(59.0197 17.6024)">
<stop stop-color="#E1E1E1"/>
<stop offset="1" stop-color="#FFF4DA"/>
</radialGradient>
<radialGradient id="paint17_radial_692_2146" cx="0" cy="0" r="1" gradientUnits="userSpaceOnUse" gradientTransform="translate(177.059 17.6024) rotate(180) scale(59.0197 17.6024)">
<stop stop-color="#E1E1E1"/>
<stop offset="1" stop-color="#FFF4DA"/>
</radialGradient>
<radialGradient id="paint18_radial_692_2146" cx="0" cy="0" r="1" gradientUnits="userSpaceOnUse" gradientTransform="translate(177.059 17.6024) rotate(180) scale(59.0197 17.6024)">
<stop stop-color="#E1E1E1"/>
<stop offset="1" stop-color="#FFF4DA"/>
</radialGradient>
<radialGradient id="paint19_radial_692_2146" cx="0" cy="0" r="1" gradientUnits="userSpaceOnUse" gradientTransform="translate(177.059 17.6024) rotate(180) scale(59.0197 17.6024)">
<stop stop-color="#E1E1E1"/>
<stop offset="1" stop-color="#FFF4DA"/>
</radialGradient>
<radialGradient id="paint20_radial_692_2146" cx="0" cy="0" r="1" gradientUnits="userSpaceOnUse" gradientTransform="translate(177.059 17.6024) rotate(180) scale(59.0197 17.6024)">
<stop stop-color="#E1E1E1"/>
<stop offset="1" stop-color="#FFF4DA"/>
</radialGradient>
<radialGradient id="paint21_radial_692_2146" cx="0" cy="0" r="1" gradientUnits="userSpaceOnUse" gradientTransform="translate(177.059 17.6024) rotate(180) scale(59.0197 17.6024)">
<stop stop-color="#E1E1E1"/>
<stop offset="1" stop-color="#FFF4DA"/>
</radialGradient>
<radialGradient id="paint22_radial_692_2146" cx="0" cy="0" r="1" gradientUnits="userSpaceOnUse" gradientTransform="translate(177.059 17.6024) rotate(180) scale(59.0197 17.6024)">
<stop stop-color="#E1E1E1"/>
<stop offset="1" stop-color="#FFF4DA"/>
</radialGradient>
<radialGradient id="paint23_radial_692_2146" cx="0" cy="0" r="1" gradientUnits="userSpaceOnUse" gradientTransform="translate(177.059 17.6024) rotate(180) scale(59.0197 17.6024)">
<stop stop-color="#E1E1E1"/>
<stop offset="1" stop-color="#FFF4DA"/>
</radialGradient>
</defs>
</svg>
