<svg width="237" height="132" viewBox="0 0 237 132" fill="none" xmlns="http://www.w3.org/2000/svg">
<path d="M50.7125 108.06C49.3889 108.487 47.9214 108.504 46.7169 107.809C44.5794 106.575 44.1412 105.154 44.5234 102.508V102.508C42.8798 103.056 42.063 104.953 43.0339 106.388C43.9977 107.812 45.0937 108.974 46.6267 110.246C47.9171 111.316 49.5696 111.855 51.2458 111.812C56.4406 111.679 59.0349 110.851 62.1257 108.72C61.1051 110.641 61.1618 111.76 61.9885 113.6C62.0605 113.76 62.2568 113.822 62.4077 113.731C64.0825 112.73 65.0039 111.892 66.2674 109.756C66.2154 114.032 66.9843 113.977 70.4091 114.933C67.5194 110.86 68.0525 109.221 70.1981 106.254C70.9958 105.151 72.1259 104.331 73.4053 103.866L78.5776 101.985C81.3342 100.982 84.3487 100.942 87.1313 101.869L104.173 107.55C104.307 107.435 104.442 107.326 104.578 107.223V104.508C104.578 103.403 105.474 102.508 106.578 102.508H108.791C109.896 102.508 110.791 103.403 110.791 104.508V105.614H111.826V103.472C111.826 102.368 110.931 101.472 109.826 101.472H105.543C104.438 101.472 103.543 102.368 103.543 103.472V106.65C98.7736 103.748 93.5321 101.584 86.7257 99.7769C82.8456 98.747 78.7534 99.0145 74.9328 100.247L50.7125 108.06Z" fill="url(#paint0_radial_692_1560)"/>
<path fill-rule="evenodd" clip-rule="evenodd" d="M118.039 111.827V108.721C115.458 105.74 114.163 105.799 111.826 105.614H110.791C108.063 105.589 106.222 105.979 104.578 107.223V107.685L104.173 107.55C103.27 108.327 102.409 109.382 101.472 110.791C94.4225 108.167 92.2419 105.859 84.6304 104.117C82.7927 103.696 80.8379 103.854 79.1733 104.739C77.1406 105.82 75.7478 107.075 74.4004 109.235C73.7976 110.201 73.7049 111.42 74.2146 112.438C75.0495 114.107 76.2498 115.417 79.1376 117.128C80.1186 117.709 81.3505 117.62 82.2784 116.957L86.28 114.099C87.2184 113.429 87.4128 112.09 86.6211 111.251C84.8302 109.354 83.7227 109.09 81.7989 109.756C83.0242 110.067 83.7473 110.456 84.396 111.688C84.7596 112.378 84.5518 113.216 84 113.767L82.2754 115.492C81.3706 116.397 79.9663 116.664 78.9055 115.948C77.3915 114.927 76.4781 113.802 75.4876 112.283C74.8937 111.372 74.8539 110.185 75.48 109.296C77.188 106.871 79.0763 106.022 82.8343 105.614C87.5138 105.758 93.9734 109.592 101.472 112.862C101.61 115.305 101.827 117.608 105.43 119.531C106.15 119.915 107.027 119.733 107.604 119.156L110.252 116.508C110.55 116.21 110.55 115.727 110.252 115.429V115.429C109.971 115.149 109.521 115.134 109.21 115.381C104.882 118.812 103.349 117.017 102.508 112.862C108.784 113.743 111.6 112.063 112.862 106.65H114.933L118.039 111.827ZM102.508 111.827C105.324 107.593 107.416 106.549 111.826 106.65C109.581 111.782 107.623 113.001 102.508 111.827Z" fill="url(#paint1_radial_692_1560)"/>
<path d="M118.039 114.933V111.827C116.112 115.763 116.189 118.074 110.791 119.075C111.96 121.038 112.806 121.636 114.933 121.146C115.324 125.201 115.717 127.472 118.039 131.5V125.287C116.703 121.107 116.952 118.865 118.039 114.933Z" fill="url(#paint2_radial_692_1560)"/>
<path d="M115.968 98.3662C116.06 94.792 116.696 93.3936 118.039 91.1182V105.614C115.722 100.811 114.342 99.4138 111.826 99.4015C113.364 97.8121 114.276 97.3638 115.968 98.3662Z" fill="url(#paint3_radial_692_1560)"/>
<path d="M185.366 108.06C186.689 108.487 188.157 108.504 189.361 107.809C191.499 106.575 191.937 105.154 191.555 102.508V102.508C193.198 103.056 194.015 104.953 193.044 106.388C192.08 107.812 190.984 108.974 189.451 110.246C188.161 111.316 186.509 111.855 184.832 111.812C179.637 111.679 177.043 110.851 173.952 108.72C174.973 110.641 174.916 111.76 174.09 113.6C174.018 113.76 173.821 113.822 173.67 113.731C171.996 112.73 171.074 111.892 169.811 109.756C169.863 114.032 169.094 113.977 165.669 114.933C168.559 110.86 168.026 109.221 165.88 106.254C165.082 105.151 163.952 104.331 162.673 103.866L157.5 101.985C154.744 100.982 151.729 100.942 148.947 101.869L131.905 107.55C131.771 107.435 131.636 107.326 131.5 107.223V104.508C131.5 103.403 130.604 102.508 129.5 102.508H127.287C126.183 102.508 125.287 103.403 125.287 104.508V105.614H124.252V103.472C124.252 102.368 125.147 101.472 126.252 101.472H130.535C131.64 101.472 132.535 102.368 132.535 103.472V106.65C137.304 103.748 142.546 101.584 149.352 99.7769C153.232 98.747 157.325 99.0145 161.145 100.247L185.366 108.06Z" fill="url(#paint4_radial_692_1560)"/>
<path fill-rule="evenodd" clip-rule="evenodd" d="M118.039 111.827V108.721C120.62 105.74 121.915 105.799 124.252 105.614H125.287C128.015 105.589 129.856 105.979 131.5 107.223V107.685L131.905 107.55C132.808 108.327 133.669 109.382 134.606 110.791C141.656 108.167 143.836 105.859 151.448 104.117C153.285 103.696 155.24 103.854 156.905 104.739C158.938 105.82 160.33 107.075 161.678 109.235C162.281 110.201 162.373 111.42 161.863 112.438C161.029 114.107 159.828 115.417 156.941 117.128C155.96 117.709 154.728 117.62 153.8 116.957L149.798 114.099C148.86 113.429 148.665 112.09 149.457 111.251C151.248 109.354 152.355 109.09 154.279 109.756C153.054 110.067 152.331 110.456 151.682 111.688C151.319 112.378 151.526 113.216 152.078 113.767L153.803 115.492C154.708 116.397 156.112 116.664 157.173 115.948C158.687 114.927 159.6 113.802 160.591 112.283C161.184 111.372 161.224 110.185 160.598 109.296C158.89 106.871 157.002 106.022 153.244 105.614C148.564 105.758 142.105 109.592 134.606 112.862C134.468 115.305 134.251 117.608 130.648 119.531C129.928 119.915 129.051 119.733 128.474 119.156L125.826 116.508C125.528 116.21 125.528 115.727 125.826 115.429V115.429C126.107 115.149 126.557 115.134 126.868 115.381C131.196 118.812 132.729 117.017 133.571 112.862C127.294 113.743 124.478 112.063 123.216 106.65H121.145L118.039 111.827ZM133.571 111.827C130.754 107.593 128.662 106.549 124.252 106.65C126.497 111.782 128.455 113.001 133.571 111.827Z" fill="url(#paint5_radial_692_1560)"/>
<path d="M118.039 114.933V111.827C119.967 115.763 119.889 118.074 125.287 119.075C124.119 121.038 123.273 121.636 121.145 121.146C120.754 125.201 120.361 127.472 118.039 131.5V125.287C119.375 121.107 119.126 118.865 118.039 114.933Z" fill="url(#paint6_radial_692_1560)"/>
<path d="M120.11 98.3662C120.019 94.792 119.382 93.3936 118.039 91.1182V105.614C120.356 100.811 121.736 99.4138 124.252 99.4015C122.714 97.8121 121.802 97.3638 120.11 98.3662Z" fill="url(#paint7_radial_692_1560)"/>
<path d="M87.2539 67.6094C87.2539 66.75 86.9102 65.9121 86.2227 65.0957C85.5352 64.2793 84.7044 63.5345 83.7305 62.8613C83.2435 62.5319 82.7565 62.1953 82.2695 61.8516C81.7826 61.5078 81.2884 61.1569 80.7871 60.7988C79.7988 60.097 78.9609 59.2734 78.2734 58.3281C77.5859 57.3828 77.2422 56.3802 77.2422 55.3203C77.2422 53.6016 77.6719 52.069 78.5312 50.7227C79.4049 49.3763 80.5651 48.3164 82.0117 47.543C83.4727 46.7695 85.0911 46.3828 86.8672 46.3828C87.6263 46.3828 88.5859 46.5404 89.7461 46.8555C90.3333 47.013 90.849 47.1419 91.293 47.2422C91.737 47.3281 92.1094 47.3854 92.4102 47.4141C92.3099 48.2018 92.2096 48.9967 92.1094 49.7988C92.0234 50.5866 91.9375 51.3815 91.8516 52.1836C91.7656 53 91.7012 53.487 91.6582 53.6445C91.6152 53.7878 91.5508 53.8594 91.4648 53.8594C91.0495 53.8594 90.7201 53.7734 90.4766 53.6016C90.4193 53.5872 90.3906 53.4154 90.3906 53.0859C90.3906 52.1836 90.1901 51.3672 89.7891 50.6367C89.388 49.9062 88.8581 49.3262 88.1992 48.8965C87.5404 48.4525 86.8242 48.2305 86.0508 48.2305C84.418 48.2305 83.1003 48.7246 82.0977 49.7129C81.0951 50.7012 80.5938 51.9401 80.5938 53.4297C80.5938 54.9479 81.2956 56.2656 82.6992 57.3828C83.5013 58.013 84.4395 58.6934 85.5137 59.4238C86.6022 60.14 87.5475 60.8346 88.3496 61.5078C88.9368 61.9948 89.5169 62.6895 90.0898 63.5918C90.6628 64.4941 90.9492 65.4466 90.9492 66.4492C90.9492 67.3372 90.7344 68.2826 90.3047 69.2852C89.875 70.2878 89.2591 71.2402 88.457 72.1426C87.6549 73.0449 86.5951 73.7897 85.2773 74.377C83.9596 74.9642 82.513 75.2578 80.9375 75.2578C79.3906 75.2578 77.1133 74.9141 74.1055 74.2266C74.1628 73.3099 74.2057 72.5651 74.2344 71.9922C74.263 71.4049 74.2773 70.9896 74.2773 70.7461C74.2773 70.1159 74.263 69.4857 74.2344 68.8555C74.2057 68.2253 74.1914 67.7526 74.1914 67.4375C74.1914 67.237 74.4635 67.1367 75.0078 67.1367C75.2799 67.1367 75.5521 67.2513 75.8242 67.4805C75.8242 68.082 75.8887 68.6836 76.0176 69.2852C76.1465 69.8867 76.39 70.5312 76.748 71.2188C77.1061 71.9062 77.679 72.4577 78.4668 72.873C79.2546 73.2884 80.207 73.4961 81.3242 73.4961C82.3411 73.4961 83.3008 73.2598 84.2031 72.7871C85.1055 72.3145 85.8359 71.6413 86.3945 70.7676C86.9674 69.8796 87.2539 68.8268 87.2539 67.6094ZM103.066 56.3086C104.757 56.3086 106.067 56.8958 106.998 58.0703C107.929 59.2448 108.395 60.8633 108.395 62.9258C108.395 64.401 108.108 65.8691 107.535 67.3301C106.962 68.7767 106.21 70.0944 105.279 71.2832C104.348 72.472 103.324 73.4245 102.207 74.1406C101.09 74.8568 99.987 75.2148 98.8984 75.2148C97.1797 75.2148 95.8691 74.6562 94.9668 73.5391C94.0645 72.4219 93.6133 70.832 93.6133 68.7695C93.6133 67.2799 93.8926 65.8047 94.4512 64.3438C95.0241 62.8685 95.776 61.5293 96.707 60.3262C97.638 59.1087 98.6549 58.1348 99.7578 57.4043C100.875 56.6738 101.978 56.3086 103.066 56.3086ZM102.551 58.0703C101.835 58.0703 101.14 58.3854 100.467 59.0156C99.7936 59.6315 99.1849 60.4408 98.6406 61.4434C98.0964 62.446 97.6667 63.5417 97.3516 64.7305C97.0365 65.9193 96.8789 67.0794 96.8789 68.2109C96.8789 69.8724 97.1439 71.1615 97.6738 72.0781C98.2038 72.9948 98.8698 73.4531 99.6719 73.4531C100.388 73.4531 101.068 73.1452 101.713 72.5293C102.372 71.8991 102.959 71.0827 103.475 70.0801C103.99 69.0632 104.391 67.9603 104.678 66.7715C104.979 65.5827 105.129 64.4154 105.129 63.2695C105.129 61.5794 104.9 60.2904 104.441 59.4023C103.983 58.5143 103.353 58.0703 102.551 58.0703ZM125.797 44.9648C127.63 44.9648 128.805 45.4518 129.32 46.4258C129.32 48.2878 128.805 49.2188 127.773 49.2188C127.315 49.2188 126.907 49.0039 126.549 48.5742C126.205 48.1302 125.854 47.6934 125.496 47.2637C125.152 46.8197 124.737 46.5977 124.25 46.5977C123.333 46.5977 122.359 47.5358 121.328 49.4121C120.311 51.2598 119.509 53.8737 118.922 57.2539V57.3398C118.922 57.4544 118.965 57.5117 119.051 57.5117H123.992C124.135 57.5117 124.207 57.6836 124.207 58.0273C124.207 58.5 124.049 58.987 123.734 59.4883H118.707C118.549 59.4883 118.464 59.6029 118.449 59.832L116.086 72.6797C115.398 76.6615 114.188 79.6979 112.455 81.7891C110.722 83.8802 108.839 84.9258 106.805 84.9258C105.802 84.9258 105.014 84.7467 104.441 84.3887C103.868 84.0306 103.496 83.6224 103.324 83.1641C103.296 82.5052 103.453 81.918 103.797 81.4023C104.141 80.8867 104.57 80.6289 105.086 80.6289C105.487 80.6289 105.838 80.8438 106.139 81.2734C106.425 81.7174 106.733 82.1543 107.062 82.584C107.378 83.028 107.779 83.25 108.266 83.25C108.839 83.25 109.376 82.9134 109.877 82.2402C110.393 81.5814 110.858 80.7578 111.273 79.7695C111.689 78.7812 112.033 77.793 112.305 76.8047C112.577 75.8164 112.763 75 112.863 74.3555L115.441 59.7891V59.7031C115.441 59.5599 115.398 59.4883 115.312 59.4883H112.52C112.462 59.4883 112.434 59.4453 112.434 59.3594C112.434 59.1875 112.541 58.9583 112.756 58.6719C112.971 58.3711 113.236 58.1061 113.551 57.877C113.88 57.6335 114.195 57.5117 114.496 57.5117H115.742C115.857 57.5117 115.943 57.3828 116 57.125C116.387 54.776 117.074 52.6849 118.062 50.8516C119.065 49.0182 120.24 47.5788 121.586 46.5332C122.947 45.4876 124.35 44.9648 125.797 44.9648ZM138.859 44.9648C140.693 44.9648 141.867 45.4518 142.383 46.4258C142.383 48.2878 141.867 49.2188 140.836 49.2188C140.378 49.2188 139.969 49.0039 139.611 48.5742C139.268 48.1302 138.917 47.6934 138.559 47.2637C138.215 46.8197 137.799 46.5977 137.312 46.5977C136.396 46.5977 135.422 47.5358 134.391 49.4121C133.374 51.2598 132.572 53.8737 131.984 57.2539V57.3398C131.984 57.4544 132.027 57.5117 132.113 57.5117H137.055C137.198 57.5117 137.27 57.6836 137.27 58.0273C137.27 58.5 137.112 58.987 136.797 59.4883H131.77C131.612 59.4883 131.526 59.6029 131.512 59.832L129.148 72.6797C128.461 76.6615 127.251 79.6979 125.518 81.7891C123.785 83.8802 121.901 84.9258 119.867 84.9258C118.865 84.9258 118.077 84.7467 117.504 84.3887C116.931 84.0306 116.559 83.6224 116.387 83.1641C116.358 82.5052 116.516 81.918 116.859 81.4023C117.203 80.8867 117.633 80.6289 118.148 80.6289C118.549 80.6289 118.9 80.8438 119.201 81.2734C119.488 81.7174 119.796 82.1543 120.125 82.584C120.44 83.028 120.841 83.25 121.328 83.25C121.901 83.25 122.438 82.9134 122.939 82.2402C123.455 81.5814 123.921 80.7578 124.336 79.7695C124.751 78.7812 125.095 77.793 125.367 76.8047C125.639 75.8164 125.826 75 125.926 74.3555L128.504 59.7891V59.7031C128.504 59.5599 128.461 59.4883 128.375 59.4883H125.582C125.525 59.4883 125.496 59.4453 125.496 59.3594C125.496 59.1875 125.604 58.9583 125.818 58.6719C126.033 58.3711 126.298 58.1061 126.613 57.877C126.943 57.6335 127.258 57.5117 127.559 57.5117H128.805C128.919 57.5117 129.005 57.3828 129.062 57.125C129.449 54.776 130.137 52.6849 131.125 50.8516C132.128 49.0182 133.302 47.5788 134.648 46.5332C136.009 45.4876 137.413 44.9648 138.859 44.9648ZM149.602 56.3086C150.661 56.3086 151.707 56.4948 152.738 56.8672L150.117 70.4453C150.031 70.7891 149.988 71.1471 149.988 71.5195C149.988 72.2357 150.132 72.5938 150.418 72.5938C150.776 72.5938 151.206 72.3431 151.707 71.8418C152.208 71.3262 152.638 70.8893 152.996 70.5312L153.254 70.2305C153.311 70.2305 153.419 70.3665 153.576 70.6387C153.734 70.9108 153.812 71.1042 153.812 71.2188C153.569 71.6341 153.125 72.1641 152.48 72.8086C151.85 73.4531 151.163 74.026 150.418 74.5273C149.673 75.0143 149 75.2578 148.398 75.2578C147.94 75.2578 147.582 75.0501 147.324 74.6348C147.066 74.2194 146.938 73.6823 146.938 73.0234C146.938 72.5794 147.038 71.8203 147.238 70.7461L147.389 69.9941C147.432 69.7936 147.453 69.6719 147.453 69.6289C147.224 70.0586 146.895 70.5885 146.465 71.2188C146.035 71.8346 145.541 72.4505 144.982 73.0664C144.424 73.6823 143.837 74.1979 143.221 74.6133C142.605 75.0143 141.996 75.2148 141.395 75.2148C140.134 75.2148 139.139 74.6491 138.408 73.5176C137.678 72.3861 137.312 71.0182 137.312 69.4141C137.312 67.3659 137.921 65.3249 139.139 63.291C139.955 61.916 140.929 60.7057 142.061 59.6602C143.206 58.6146 144.431 57.7982 145.734 57.2109C147.038 56.6094 148.327 56.3086 149.602 56.3086ZM147.797 58.2852C146.952 58.2852 146.1 58.5859 145.24 59.1875C144.381 59.7747 143.593 60.5697 142.877 61.5723C142.161 62.5605 141.581 63.6634 141.137 64.8809C140.707 66.084 140.492 67.2943 140.492 68.5117C140.492 71.319 141.223 72.7227 142.684 72.7227C143.199 72.7227 143.758 72.4362 144.359 71.8633C144.961 71.2904 145.555 70.5312 146.143 69.5859C146.73 68.6406 147.245 67.6165 147.689 66.5137C148.148 65.3965 148.484 64.3008 148.699 63.2266L149.559 58.8438C149.215 58.4714 148.628 58.2852 147.797 58.2852ZM157.809 56.9531H160.816L161.848 51.7109C161.934 51.4245 162.635 51.2812 163.953 51.2812C164.24 51.2812 164.497 51.2956 164.727 51.3242L163.652 56.9531H167.562C167.706 56.9531 167.777 57.1393 167.777 57.5117C167.777 57.8411 167.648 58.2565 167.391 58.7578H163.309L161.031 70.4453C160.945 70.7891 160.902 71.1471 160.902 71.5195C160.902 72.2357 161.046 72.5938 161.332 72.5938C161.69 72.5938 162.12 72.3431 162.621 71.8418C163.122 71.3262 163.552 70.8893 163.91 70.5312L164.168 70.2305C164.225 70.2305 164.333 70.3665 164.49 70.6387C164.648 70.9108 164.727 71.1042 164.727 71.2188C164.483 71.6341 164.039 72.1641 163.395 72.8086C162.764 73.4531 162.077 74.026 161.332 74.5273C160.587 75.0143 159.914 75.2578 159.312 75.2578C158.854 75.2578 158.496 75.0501 158.238 74.6348C157.98 74.2194 157.852 73.6823 157.852 73.0234C157.852 72.5938 157.952 71.8346 158.152 70.7461L160.473 58.7578H157.422C157.336 58.7578 157.293 58.6003 157.293 58.2852C157.293 57.9128 157.465 57.4688 157.809 56.9531Z" fill="white"/>
<path d="M0 14.4961C6.30012 20.0984 15.0791 19.1979 30.687 15.1421C32.2497 14.736 33.9168 14.9601 35.3059 15.7832L61.0905 31.063L35.3304 19.6141C33.9205 18.9874 32.3183 18.9353 30.8588 19.4358C12.5496 25.7159 4.73674 24.7283 0 14.4961Z" fill="url(#paint8_radial_692_1560)"/>
<path d="M16.5669 25.8858C22.7094 27.5488 34.4861 19.1752 43.5027 24.2129C35.7991 20.3448 24.9274 34.7378 16.5669 25.8858Z" fill="url(#paint9_radial_692_1560)"/>
<path d="M42.4528 34.1693C40.4746 32.9379 39.8039 31.791 39.5364 30.2054C39.314 28.8871 40.2138 27.6374 41.514 27.3262C46.4064 26.1551 49.6595 27.3172 54.8779 31.063C50.3759 26.3362 46.8249 25.2844 39.6469 25.78C38.7972 25.8387 38.0191 26.2751 37.5081 26.9564L36.1669 28.7446C35.6047 29.4943 35.6307 30.5432 36.2784 31.2205C38.4425 33.4837 39.9798 34.1156 42.4528 34.1693Z" fill="url(#paint10_radial_692_1560)"/>
<path d="M61.0905 28.9921C48.8725 19.5072 53.131 18.6378 60.0551 10.3543C56.6285 8.93238 54.8937 8.83857 52.8071 12.4252C51.2879 8.29387 49.7783 6.42726 45.559 4.14173C43.8524 8.52031 44.6321 10.6991 46.5945 14.4961C42.9378 12.0347 40.7471 11.3823 36.2402 13.4606C46.3046 17.727 45.2926 18.8748 61.0905 28.9921Z" fill="url(#paint11_radial_692_1560)"/>
<path d="M78.6929 22.7441C78.6929 22.1918 79.1406 21.7441 79.6929 21.7441H79.7638C80.3161 21.7441 80.7638 22.1918 80.7638 22.7441V25.9213C80.7638 26.4735 80.3161 26.9213 79.7638 26.9213H74.4803C73.3757 26.9213 72.4803 26.0258 72.4803 24.9213V19.6024C72.4803 18.4978 73.3757 17.6024 74.4803 17.6024H78.7281C80.6137 17.6024 82.4755 18.023 84.178 18.8337V18.8337C85.2965 19.3663 86.1249 20.3629 86.4441 21.5599L88.3399 28.6695C89.2063 31.9182 86.6836 35.0788 83.3237 34.9544L68.0679 34.3894C64.7776 34.2675 62.2002 31.5169 62.2923 28.2256L62.6948 13.8426C62.7856 10.5955 65.4441 8.01038 68.6924 8.01038H83.0387C86.0229 8.01038 88.8896 9.21712 90.915 11.4088C101.807 23.194 109.097 33.3225 115.395 32.2299C115.685 32.1796 115.968 32.3916 115.968 32.686V32.686C115.968 32.9325 115.766 33.1318 115.519 33.1285C109.37 33.045 105.37 32.4313 87.653 13.254C86.5367 12.0456 85.0793 11.1983 83.4735 10.8414L77.8584 9.59364C77.0431 9.41248 76.199 9.4035 75.3801 9.56728L71.091 10.4251C68.2865 10.986 66.2677 13.4485 66.2677 16.3086V27.0984C66.2677 29.8599 68.5063 32.0984 71.2677 32.0984H80.9055C83.1146 32.0984 84.9055 30.3076 84.9055 28.0984V22.6378C84.9055 20.4287 83.1146 18.6378 80.9055 18.6378H76.5512C75.4466 18.6378 74.5512 19.5332 74.5512 20.6378V24.8858C74.5512 25.4381 74.9989 25.8858 75.5512 25.8858H77.6929C78.2452 25.8858 78.6929 25.4381 78.6929 24.8858V22.7441Z" fill="url(#paint12_radial_692_1560)"/>
<path d="M104.412 33.0631C96.4743 29.9513 88.3242 12.4066 78.6929 13.4606C91.6665 19.2326 92.9183 31.4785 104.412 33.0631Z" fill="url(#paint13_radial_692_1560)"/>
<path d="M111.827 30.0276C106.485 21.6827 106.361 16.9143 110.791 8.28346C105.363 9.71409 97.6256 19.5114 111.827 30.0276Z" fill="url(#paint14_radial_692_1560)"/>
<path d="M118.039 10.3543C113.102 14.0549 110.405 23.2793 118.039 32.0984C106.33 25.6888 109.793 12.7713 118.039 0V10.3543Z" fill="url(#paint15_radial_692_1560)"/>
<path d="M236.079 14.4961C229.778 20.0984 221 19.1979 205.392 15.1421C203.829 14.736 202.162 14.9601 200.773 15.7832L174.988 31.063L200.748 19.6141C202.158 18.9874 203.76 18.9353 205.22 19.4358C223.529 25.7159 231.342 24.7283 236.079 14.4961Z" fill="url(#paint16_radial_692_1560)"/>
<path d="M219.512 25.8858C213.369 27.5488 201.593 19.1752 192.576 24.2129C200.279 20.3448 211.151 34.7378 219.512 25.8858Z" fill="url(#paint17_radial_692_1560)"/>
<path d="M193.626 34.1693C195.604 32.9379 196.275 31.791 196.542 30.2054C196.765 28.8871 195.865 27.6374 194.565 27.3262C189.672 26.1551 186.419 27.3172 181.201 31.063C185.703 26.3362 189.254 25.2844 196.432 25.78C197.281 25.8387 198.06 26.2751 198.571 26.9564L199.912 28.7446C200.474 29.4943 200.448 30.5432 199.8 31.2205C197.636 33.4837 196.099 34.1156 193.626 34.1693Z" fill="url(#paint18_radial_692_1560)"/>
<path d="M174.988 28.9921C187.206 19.5072 182.948 18.6378 176.024 10.3543C179.45 8.93238 181.185 8.83857 183.272 12.4252C184.791 8.29387 186.3 6.42726 190.52 4.14173C192.226 8.52031 191.446 10.6991 189.484 14.4961C193.141 12.0347 195.331 11.3823 199.838 13.4606C189.774 17.727 190.786 18.8748 174.988 28.9921Z" fill="url(#paint19_radial_692_1560)"/>
<path d="M157.386 22.7441C157.386 22.1918 156.938 21.7441 156.386 21.7441H156.315C155.763 21.7441 155.315 22.1918 155.315 22.7441V25.9213C155.315 26.4735 155.763 26.9213 156.315 26.9213H161.598C162.703 26.9213 163.598 26.0258 163.598 24.9213V19.6024C163.598 18.4978 162.703 17.6024 161.598 17.6024H157.351C155.465 17.6024 153.603 18.023 151.901 18.8337V18.8337C150.782 19.3663 149.954 20.3629 149.635 21.5599L147.739 28.6695C146.872 31.9182 149.395 35.0788 152.755 34.9544L168.011 34.3894C171.301 34.2675 173.878 31.5169 173.786 28.2256L173.384 13.8426C173.293 10.5955 170.635 8.01038 167.386 8.01038H153.04C150.056 8.01038 147.189 9.21712 145.164 11.4088C134.272 23.194 126.982 33.3225 120.683 32.2299C120.393 32.1796 120.11 32.3916 120.11 32.686V32.686C120.11 32.9325 120.313 33.1318 120.559 33.1285C126.708 33.045 130.709 32.4313 148.426 13.254C149.542 12.0456 150.999 11.1983 152.605 10.8414L158.22 9.59364C159.035 9.41248 159.88 9.4035 160.698 9.56728L164.988 10.4251C167.792 10.986 169.811 13.4485 169.811 16.3086V27.0984C169.811 29.8599 167.572 32.0984 164.811 32.0984H155.173C152.964 32.0984 151.173 30.3076 151.173 28.0984V22.6378C151.173 20.4287 152.964 18.6378 155.173 18.6378H159.527C160.632 18.6378 161.527 19.5332 161.527 20.6378V24.8858C161.527 25.4381 161.08 25.8858 160.527 25.8858H158.386C157.833 25.8858 157.386 25.4381 157.386 24.8858V22.7441Z" fill="url(#paint20_radial_692_1560)"/>
<path d="M131.666 33.0631C139.604 29.9513 147.754 12.4066 157.386 13.4606C144.412 19.2326 143.16 31.4785 131.666 33.0631Z" fill="url(#paint21_radial_692_1560)"/>
<path d="M124.252 30.0276C129.594 21.6827 129.718 16.9143 125.287 8.28346C130.716 9.71409 138.453 19.5114 124.252 30.0276Z" fill="url(#paint22_radial_692_1560)"/>
<path d="M118.039 10.3543C122.976 14.0549 125.673 23.2793 118.039 32.0984C129.749 25.6888 126.286 12.7713 118.039 0V10.3543Z" fill="url(#paint23_radial_692_1560)"/>
<defs>
<radialGradient id="paint0_radial_692_1560" cx="0" cy="0" r="1" gradientUnits="userSpaceOnUse" gradientTransform="translate(79.728 111.309) scale(38.311 20.1909)">
<stop stop-color="#E1E1E1"/>
<stop offset="1" stop-color="#FFF4DA"/>
</radialGradient>
<radialGradient id="paint1_radial_692_1560" cx="0" cy="0" r="1" gradientUnits="userSpaceOnUse" gradientTransform="translate(79.728 111.309) scale(38.311 20.1909)">
<stop stop-color="#E1E1E1"/>
<stop offset="1" stop-color="#FFF4DA"/>
</radialGradient>
<radialGradient id="paint2_radial_692_1560" cx="0" cy="0" r="1" gradientUnits="userSpaceOnUse" gradientTransform="translate(79.728 111.309) scale(38.311 20.1909)">
<stop stop-color="#E1E1E1"/>
<stop offset="1" stop-color="#FFF4DA"/>
</radialGradient>
<radialGradient id="paint3_radial_692_1560" cx="0" cy="0" r="1" gradientUnits="userSpaceOnUse" gradientTransform="translate(79.728 111.309) scale(38.311 20.1909)">
<stop stop-color="#E1E1E1"/>
<stop offset="1" stop-color="#FFF4DA"/>
</radialGradient>
<radialGradient id="paint4_radial_692_1560" cx="0" cy="0" r="1" gradientUnits="userSpaceOnUse" gradientTransform="translate(156.35 111.309) rotate(180) scale(38.311 20.1909)">
<stop stop-color="#E1E1E1"/>
<stop offset="1" stop-color="#FFF4DA"/>
</radialGradient>
<radialGradient id="paint5_radial_692_1560" cx="0" cy="0" r="1" gradientUnits="userSpaceOnUse" gradientTransform="translate(156.35 111.309) rotate(180) scale(38.311 20.1909)">
<stop stop-color="#E1E1E1"/>
<stop offset="1" stop-color="#FFF4DA"/>
</radialGradient>
<radialGradient id="paint6_radial_692_1560" cx="0" cy="0" r="1" gradientUnits="userSpaceOnUse" gradientTransform="translate(156.35 111.309) rotate(180) scale(38.311 20.1909)">
<stop stop-color="#E1E1E1"/>
<stop offset="1" stop-color="#FFF4DA"/>
</radialGradient>
<radialGradient id="paint7_radial_692_1560" cx="0" cy="0" r="1" gradientUnits="userSpaceOnUse" gradientTransform="translate(156.35 111.309) rotate(180) scale(38.311 20.1909)">
<stop stop-color="#E1E1E1"/>
<stop offset="1" stop-color="#FFF4DA"/>
</radialGradient>
<radialGradient id="paint8_radial_692_1560" cx="0" cy="0" r="1" gradientUnits="userSpaceOnUse" gradientTransform="translate(59.0197 17.6024) scale(59.0197 17.6024)">
<stop stop-color="#E1E1E1"/>
<stop offset="1" stop-color="#FFF4DA"/>
</radialGradient>
<radialGradient id="paint9_radial_692_1560" cx="0" cy="0" r="1" gradientUnits="userSpaceOnUse" gradientTransform="translate(59.0197 17.6024) scale(59.0197 17.6024)">
<stop stop-color="#E1E1E1"/>
<stop offset="1" stop-color="#FFF4DA"/>
</radialGradient>
<radialGradient id="paint10_radial_692_1560" cx="0" cy="0" r="1" gradientUnits="userSpaceOnUse" gradientTransform="translate(59.0197 17.6024) scale(59.0197 17.6024)">
<stop stop-color="#E1E1E1"/>
<stop offset="1" stop-color="#FFF4DA"/>
</radialGradient>
<radialGradient id="paint11_radial_692_1560" cx="0" cy="0" r="1" gradientUnits="userSpaceOnUse" gradientTransform="translate(59.0197 17.6024) scale(59.0197 17.6024)">
<stop stop-color="#E1E1E1"/>
<stop offset="1" stop-color="#FFF4DA"/>
</radialGradient>
<radialGradient id="paint12_radial_692_1560" cx="0" cy="0" r="1" gradientUnits="userSpaceOnUse" gradientTransform="translate(59.0197 17.6024) scale(59.0197 17.6024)">
<stop stop-color="#E1E1E1"/>
<stop offset="1" stop-color="#FFF4DA"/>
</radialGradient>
<radialGradient id="paint13_radial_692_1560" cx="0" cy="0" r="1" gradientUnits="userSpaceOnUse" gradientTransform="translate(59.0197 17.6024) scale(59.0197 17.6024)">
<stop stop-color="#E1E1E1"/>
<stop offset="1" stop-color="#FFF4DA"/>
</radialGradient>
<radialGradient id="paint14_radial_692_1560" cx="0" cy="0" r="1" gradientUnits="userSpaceOnUse" gradientTransform="translate(59.0197 17.6024) scale(59.0197 17.6024)">
<stop stop-color="#E1E1E1"/>
<stop offset="1" stop-color="#FFF4DA"/>
</radialGradient>
<radialGradient id="paint15_radial_692_1560" cx="0" cy="0" r="1" gradientUnits="userSpaceOnUse" gradientTransform="translate(59.0197 17.6024) scale(59.0197 17.6024)">
<stop stop-color="#E1E1E1"/>
<stop offset="1" stop-color="#FFF4DA"/>
</radialGradient>
<radialGradient id="paint16_radial_692_1560" cx="0" cy="0" r="1" gradientUnits="userSpaceOnUse" gradientTransform="translate(177.059 17.6024) rotate(180) scale(59.0197 17.6024)">
<stop stop-color="#E1E1E1"/>
<stop offset="1" stop-color="#FFF4DA"/>
</radialGradient>
<radialGradient id="paint17_radial_692_1560" cx="0" cy="0" r="1" gradientUnits="userSpaceOnUse" gradientTransform="translate(177.059 17.6024) rotate(180) scale(59.0197 17.6024)">
<stop stop-color="#E1E1E1"/>
<stop offset="1" stop-color="#FFF4DA"/>
</radialGradient>
<radialGradient id="paint18_radial_692_1560" cx="0" cy="0" r="1" gradientUnits="userSpaceOnUse" gradientTransform="translate(177.059 17.6024) rotate(180) scale(59.0197 17.6024)">
<stop stop-color="#E1E1E1"/>
<stop offset="1" stop-color="#FFF4DA"/>
</radialGradient>
<radialGradient id="paint19_radial_692_1560" cx="0" cy="0" r="1" gradientUnits="userSpaceOnUse" gradientTransform="translate(177.059 17.6024) rotate(180) scale(59.0197 17.6024)">
<stop stop-color="#E1E1E1"/>
<stop offset="1" stop-color="#FFF4DA"/>
</radialGradient>
<radialGradient id="paint20_radial_692_1560" cx="0" cy="0" r="1" gradientUnits="userSpaceOnUse" gradientTransform="translate(177.059 17.6024) rotate(180) scale(59.0197 17.6024)">
<stop stop-color="#E1E1E1"/>
<stop offset="1" stop-color="#FFF4DA"/>
</radialGradient>
<radialGradient id="paint21_radial_692_1560" cx="0" cy="0" r="1" gradientUnits="userSpaceOnUse" gradientTransform="translate(177.059 17.6024) rotate(180) scale(59.0197 17.6024)">
<stop stop-color="#E1E1E1"/>
<stop offset="1" stop-color="#FFF4DA"/>
</radialGradient>
<radialGradient id="paint22_radial_692_1560" cx="0" cy="0" r="1" gradientUnits="userSpaceOnUse" gradientTransform="translate(177.059 17.6024) rotate(180) scale(59.0197 17.6024)">
<stop stop-color="#E1E1E1"/>
<stop offset="1" stop-color="#FFF4DA"/>
</radialGradient>
<radialGradient id="paint23_radial_692_1560" cx="0" cy="0" r="1" gradientUnits="userSpaceOnUse" gradientTransform="translate(177.059 17.6024) rotate(180) scale(59.0197 17.6024)">
<stop stop-color="#E1E1E1"/>
<stop offset="1" stop-color="#FFF4DA"/>
</radialGradient>
</defs>
</svg>
