<svg width="237" height="132" viewBox="0 0 237 132" fill="none" xmlns="http://www.w3.org/2000/svg">
<path d="M50.7125 108.06C49.3889 108.487 47.9214 108.504 46.7169 107.809C44.5794 106.575 44.1412 105.154 44.5234 102.508V102.508C42.8798 103.056 42.063 104.953 43.0339 106.388C43.9977 107.812 45.0937 108.974 46.6267 110.246C47.9171 111.316 49.5696 111.855 51.2458 111.812C56.4406 111.679 59.0349 110.851 62.1257 108.72C61.1051 110.641 61.1618 111.76 61.9885 113.6C62.0605 113.76 62.2568 113.822 62.4077 113.731C64.0825 112.73 65.0039 111.892 66.2674 109.756C66.2154 114.032 66.9843 113.977 70.4091 114.933C67.5194 110.86 68.0525 109.221 70.1981 106.254C70.9958 105.151 72.1259 104.331 73.4053 103.866L78.5776 101.985C81.3342 100.982 84.3487 100.942 87.1313 101.869L104.173 107.55C104.307 107.435 104.442 107.326 104.578 107.223V104.508C104.578 103.403 105.474 102.508 106.578 102.508H108.791C109.896 102.508 110.791 103.403 110.791 104.508V105.614H111.826V103.472C111.826 102.368 110.931 101.472 109.826 101.472H105.543C104.438 101.472 103.543 102.368 103.543 103.472V106.65C98.7736 103.748 93.5321 101.584 86.7257 99.7769C82.8456 98.747 78.7534 99.0145 74.9328 100.247L50.7125 108.06Z" fill="url(#paint0_radial_692_1472)"/>
<path fill-rule="evenodd" clip-rule="evenodd" d="M118.039 111.827V108.721C115.458 105.74 114.163 105.799 111.826 105.614H110.791C108.063 105.589 106.222 105.979 104.578 107.223V107.685L104.173 107.55C103.27 108.327 102.409 109.382 101.472 110.791C94.4225 108.167 92.2419 105.859 84.6304 104.117C82.7927 103.696 80.8379 103.854 79.1733 104.739C77.1406 105.82 75.7478 107.075 74.4004 109.235C73.7976 110.201 73.7049 111.42 74.2146 112.438C75.0495 114.107 76.2498 115.417 79.1376 117.128C80.1186 117.709 81.3505 117.62 82.2784 116.957L86.28 114.099C87.2184 113.429 87.4128 112.09 86.6211 111.251C84.8302 109.354 83.7227 109.09 81.7989 109.756C83.0242 110.067 83.7473 110.456 84.396 111.688C84.7596 112.378 84.5518 113.216 84 113.767L82.2754 115.492C81.3706 116.397 79.9663 116.664 78.9055 115.948C77.3915 114.927 76.4781 113.802 75.4876 112.283C74.8937 111.372 74.8539 110.185 75.48 109.296C77.188 106.871 79.0763 106.022 82.8343 105.614C87.5138 105.758 93.9734 109.592 101.472 112.862C101.61 115.305 101.827 117.608 105.43 119.531C106.15 119.915 107.027 119.733 107.604 119.156L110.252 116.508C110.55 116.21 110.55 115.727 110.252 115.429V115.429C109.971 115.149 109.521 115.134 109.21 115.381C104.882 118.812 103.349 117.017 102.508 112.862C108.784 113.743 111.6 112.063 112.862 106.65H114.933L118.039 111.827ZM102.508 111.827C105.324 107.593 107.416 106.549 111.826 106.65C109.581 111.782 107.623 113.001 102.508 111.827Z" fill="url(#paint1_radial_692_1472)"/>
<path d="M118.039 114.933V111.827C116.112 115.763 116.189 118.074 110.791 119.075C111.96 121.038 112.806 121.636 114.933 121.146C115.324 125.201 115.717 127.472 118.039 131.5V125.287C116.703 121.107 116.952 118.865 118.039 114.933Z" fill="url(#paint2_radial_692_1472)"/>
<path d="M115.968 98.3662C116.06 94.792 116.696 93.3936 118.039 91.1182V105.614C115.722 100.811 114.342 99.4138 111.826 99.4015C113.364 97.8121 114.276 97.3638 115.968 98.3662Z" fill="url(#paint3_radial_692_1472)"/>
<path d="M185.366 108.06C186.689 108.487 188.157 108.504 189.361 107.809C191.499 106.575 191.937 105.154 191.555 102.508V102.508C193.198 103.056 194.015 104.953 193.044 106.388C192.08 107.812 190.984 108.974 189.451 110.246C188.161 111.316 186.509 111.855 184.832 111.812C179.637 111.679 177.043 110.851 173.952 108.72C174.973 110.641 174.916 111.76 174.09 113.6C174.018 113.76 173.821 113.822 173.67 113.731C171.996 112.73 171.074 111.892 169.811 109.756C169.863 114.032 169.094 113.977 165.669 114.933C168.559 110.86 168.026 109.221 165.88 106.254C165.082 105.151 163.952 104.331 162.673 103.866L157.5 101.985C154.744 100.982 151.729 100.942 148.947 101.869L131.905 107.55C131.771 107.435 131.636 107.326 131.5 107.223V104.508C131.5 103.403 130.604 102.508 129.5 102.508H127.287C126.183 102.508 125.287 103.403 125.287 104.508V105.614H124.252V103.472C124.252 102.368 125.147 101.472 126.252 101.472H130.535C131.64 101.472 132.535 102.368 132.535 103.472V106.65C137.304 103.748 142.546 101.584 149.352 99.7769C153.232 98.747 157.325 99.0145 161.145 100.247L185.366 108.06Z" fill="url(#paint4_radial_692_1472)"/>
<path fill-rule="evenodd" clip-rule="evenodd" d="M118.039 111.827V108.721C120.62 105.74 121.915 105.799 124.252 105.614H125.287C128.015 105.589 129.856 105.979 131.5 107.223V107.685L131.905 107.55C132.808 108.327 133.669 109.382 134.606 110.791C141.656 108.167 143.836 105.859 151.448 104.117C153.285 103.696 155.24 103.854 156.905 104.739C158.938 105.82 160.33 107.075 161.678 109.235C162.281 110.201 162.373 111.42 161.863 112.438C161.029 114.107 159.828 115.417 156.941 117.128C155.96 117.709 154.728 117.62 153.8 116.957L149.798 114.099C148.86 113.429 148.665 112.09 149.457 111.251C151.248 109.354 152.355 109.09 154.279 109.756C153.054 110.067 152.331 110.456 151.682 111.688C151.319 112.378 151.526 113.216 152.078 113.767L153.803 115.492C154.708 116.397 156.112 116.664 157.173 115.948C158.687 114.927 159.6 113.802 160.591 112.283C161.184 111.372 161.224 110.185 160.598 109.296C158.89 106.871 157.002 106.022 153.244 105.614C148.564 105.758 142.105 109.592 134.606 112.862C134.468 115.305 134.251 117.608 130.648 119.531C129.928 119.915 129.051 119.733 128.474 119.156L125.826 116.508C125.528 116.21 125.528 115.727 125.826 115.429V115.429C126.107 115.149 126.557 115.134 126.868 115.381C131.196 118.812 132.729 117.017 133.571 112.862C127.294 113.743 124.478 112.063 123.216 106.65H121.145L118.039 111.827ZM133.571 111.827C130.754 107.593 128.662 106.549 124.252 106.65C126.497 111.782 128.455 113.001 133.571 111.827Z" fill="url(#paint5_radial_692_1472)"/>
<path d="M118.039 114.933V111.827C119.967 115.763 119.889 118.074 125.287 119.075C124.119 121.038 123.273 121.636 121.145 121.146C120.754 125.201 120.361 127.472 118.039 131.5V125.287C119.375 121.107 119.126 118.865 118.039 114.933Z" fill="url(#paint6_radial_692_1472)"/>
<path d="M120.11 98.3662C120.019 94.792 119.382 93.3936 118.039 91.1182V105.614C120.356 100.811 121.736 99.4138 124.252 99.4015C122.714 97.8121 121.802 97.3638 120.11 98.3662Z" fill="url(#paint7_radial_692_1472)"/>
<path d="M73.2539 67.6094C73.2539 66.75 72.9102 65.9121 72.2227 65.0957C71.5352 64.2793 70.7044 63.5345 69.7305 62.8613C69.2435 62.5319 68.7565 62.1953 68.2695 61.8516C67.7826 61.5078 67.2884 61.1569 66.7871 60.7988C65.7988 60.097 64.9609 59.2734 64.2734 58.3281C63.5859 57.3828 63.2422 56.3802 63.2422 55.3203C63.2422 53.6016 63.6719 52.069 64.5312 50.7227C65.4049 49.3763 66.5651 48.3164 68.0117 47.543C69.4727 46.7695 71.0911 46.3828 72.8672 46.3828C73.6263 46.3828 74.5859 46.5404 75.7461 46.8555C76.3333 47.013 76.849 47.1419 77.293 47.2422C77.737 47.3281 78.1094 47.3854 78.4102 47.4141C78.3099 48.2018 78.2096 48.9967 78.1094 49.7988C78.0234 50.5866 77.9375 51.3815 77.8516 52.1836C77.7656 53 77.7012 53.487 77.6582 53.6445C77.6152 53.7878 77.5508 53.8594 77.4648 53.8594C77.0495 53.8594 76.7201 53.7734 76.4766 53.6016C76.4193 53.5872 76.3906 53.4154 76.3906 53.0859C76.3906 52.1836 76.1901 51.3672 75.7891 50.6367C75.388 49.9062 74.8581 49.3262 74.1992 48.8965C73.5404 48.4525 72.8242 48.2305 72.0508 48.2305C70.418 48.2305 69.1003 48.7246 68.0977 49.7129C67.0951 50.7012 66.5938 51.9401 66.5938 53.4297C66.5938 54.9479 67.2956 56.2656 68.6992 57.3828C69.5013 58.013 70.4395 58.6934 71.5137 59.4238C72.6022 60.14 73.5475 60.8346 74.3496 61.5078C74.9368 61.9948 75.5169 62.6895 76.0898 63.5918C76.6628 64.4941 76.9492 65.4466 76.9492 66.4492C76.9492 67.3372 76.7344 68.2826 76.3047 69.2852C75.875 70.2878 75.2591 71.2402 74.457 72.1426C73.6549 73.0449 72.5951 73.7897 71.2773 74.377C69.9596 74.9642 68.513 75.2578 66.9375 75.2578C65.3906 75.2578 63.1133 74.9141 60.1055 74.2266C60.1628 73.3099 60.2057 72.5651 60.2344 71.9922C60.263 71.4049 60.2773 70.9896 60.2773 70.7461C60.2773 70.1159 60.263 69.4857 60.2344 68.8555C60.2057 68.2253 60.1914 67.7526 60.1914 67.4375C60.1914 67.237 60.4635 67.1367 61.0078 67.1367C61.2799 67.1367 61.5521 67.2513 61.8242 67.4805C61.8242 68.082 61.8887 68.6836 62.0176 69.2852C62.1465 69.8867 62.39 70.5312 62.748 71.2188C63.1061 71.9062 63.679 72.4577 64.4668 72.873C65.2546 73.2884 66.207 73.4961 67.3242 73.4961C68.3411 73.4961 69.3008 73.2598 70.2031 72.7871C71.1055 72.3145 71.8359 71.6413 72.3945 70.7676C72.9674 69.8796 73.2539 68.8268 73.2539 67.6094ZM93.0625 56.3086C94.4948 56.3086 95.2109 57.2539 95.2109 59.1445C95.2109 60.4766 95.0104 62.0378 94.6094 63.8281L93.1914 70.4453C93.1055 70.7891 93.0625 71.1471 93.0625 71.5195C93.0625 72.2357 93.2057 72.5938 93.4922 72.5938C93.8503 72.5938 94.2799 72.3431 94.7812 71.8418C95.2826 71.3262 95.7122 70.8893 96.0703 70.5312L96.3281 70.2305C96.3854 70.2305 96.4928 70.3665 96.6504 70.6387C96.8079 70.9108 96.8867 71.1042 96.8867 71.2188C96.6432 71.6341 96.1992 72.1641 95.5547 72.8086C94.9245 73.4531 94.237 74.026 93.4922 74.5273C92.7474 75.0143 92.0742 75.2578 91.4727 75.2578C91.0143 75.2578 90.6562 75.0501 90.3984 74.6348C90.1406 74.2194 90.0117 73.6823 90.0117 73.0234C90.0117 72.5938 90.112 71.8346 90.3125 70.7461L91.8164 63.6562C92.0169 62.6823 92.1172 61.9089 92.1172 61.3359C92.1172 60.1042 91.8451 59.4883 91.3008 59.4883C90.8281 59.4883 90.1908 59.8464 89.3887 60.5625C88.5866 61.2643 87.7487 62.2025 86.875 63.377C86.0156 64.5514 85.235 65.862 84.5332 67.3086C83.8314 68.7409 83.3372 70.1875 83.0508 71.6484L82.3203 75C81.9336 75.1146 81.4896 75.1719 80.9883 75.1719C80.5013 75.1719 80.0143 75.1146 79.5273 75L84.168 50.9805C84.4258 49.7057 84.5547 48.9466 84.5547 48.7031C84.5547 48.1589 83.681 47.8867 81.9336 47.8867C81.8477 47.8867 81.8047 47.8008 81.8047 47.6289C81.8047 47.2852 81.9193 46.9987 82.1484 46.7695C84.0104 46.5977 85.8151 46.1966 87.5625 45.5664C87.7344 45.6523 87.8203 45.9245 87.8203 46.3828C87.8203 46.5833 87.6341 47.6576 87.2617 49.6055L84.2969 64.7734C84.569 64.2865 85.1921 63.3984 86.166 62.1094C86.8105 61.2643 87.5553 60.3978 88.4004 59.5098C89.2598 58.6074 90.1048 57.8483 90.9355 57.2324C91.7806 56.6165 92.4896 56.3086 93.0625 56.3086ZM104.664 56.3086C105.122 56.3086 105.48 56.5163 105.738 56.9316C105.996 57.347 106.125 57.8841 106.125 58.543C106.125 59.3021 106.039 60.0612 105.867 60.8203L104.363 67.9102C104.163 68.7839 104.062 69.5573 104.062 70.2305C104.062 71.4622 104.335 72.0781 104.879 72.0781C105.194 72.0781 105.581 71.8991 106.039 71.541C106.512 71.1829 106.999 70.7246 107.5 70.166C108.016 69.6074 108.495 69.0345 108.939 68.4473C109.756 67.373 110.529 66.0625 111.26 64.5156C111.99 62.9688 112.499 61.4362 112.785 59.918L113.516 56.5664C113.902 56.4518 114.346 56.3945 114.848 56.3945C115.335 56.3945 115.822 56.4518 116.309 56.5664L113.645 70.4453C113.559 70.7891 113.516 71.1471 113.516 71.5195C113.516 72.2357 113.659 72.5938 113.945 72.5938C114.303 72.5938 114.733 72.3431 115.234 71.8418C115.736 71.3262 116.165 70.8893 116.523 70.5312L116.781 70.2305C116.839 70.2305 116.946 70.3665 117.104 70.6387C117.261 70.9108 117.34 71.1042 117.34 71.2188C117.096 71.6341 116.652 72.1641 116.008 72.8086C115.378 73.4531 114.69 74.026 113.945 74.5273C113.201 75.0143 112.527 75.2578 111.926 75.2578C111.467 75.2578 111.109 75.0501 110.852 74.6348C110.594 74.2194 110.465 73.6823 110.465 73.0234C110.465 72.5938 110.565 71.8346 110.766 70.7461L111.539 66.793C111.267 67.3086 110.68 68.1966 109.777 69.457C109.19 70.2734 108.481 71.1328 107.65 72.0352C106.834 72.9375 106.018 73.7038 105.201 74.334C104.385 74.9499 103.69 75.2578 103.117 75.2578C101.685 75.2578 100.969 74.3125 100.969 72.4219C100.969 71.0755 101.169 69.5143 101.57 67.7383L102.859 61.7656C103.003 60.7773 103.074 60.2044 103.074 60.0469C103.074 59.3307 102.931 58.9727 102.645 58.9727C102.401 58.9727 102.036 59.2018 101.549 59.6602C101.32 59.8893 101.069 60.14 100.797 60.4121C100.539 60.6842 100.367 60.8776 100.281 60.9922C100.224 60.9922 100.117 60.8561 99.959 60.584C99.8014 60.3118 99.7227 60.1185 99.7227 60.0039C99.9518 59.6172 100.367 59.1374 100.969 58.5645C101.57 57.9772 102.215 57.4544 102.902 56.9961C103.59 56.5378 104.177 56.3086 104.664 56.3086ZM123.953 44.068C123.689 45.0947 123.352 46.2093 122.941 47.412C122.531 48.6147 122.076 49.8173 121.577 51.02C121.108 52.1933 120.639 53.308 120.169 54.364H117.309C117.515 53.5427 117.72 52.6627 117.925 51.724C118.16 50.7853 118.365 49.8467 118.541 48.908C118.747 47.94 118.923 47.0013 119.069 46.092C119.245 45.1827 119.392 44.3467 119.509 43.584H123.645L123.953 44.068ZM139.555 56.3086C140.615 56.3086 141.66 56.4948 142.691 56.8672L140.07 70.4453C139.984 70.7891 139.941 71.1471 139.941 71.5195C139.941 72.2357 140.085 72.5938 140.371 72.5938C140.729 72.5938 141.159 72.3431 141.66 71.8418C142.161 71.3262 142.591 70.8893 142.949 70.5312L143.207 70.2305C143.264 70.2305 143.372 70.3665 143.529 70.6387C143.687 70.9108 143.766 71.1042 143.766 71.2188C143.522 71.6341 143.078 72.1641 142.434 72.8086C141.803 73.4531 141.116 74.026 140.371 74.5273C139.626 75.0143 138.953 75.2578 138.352 75.2578C137.893 75.2578 137.535 75.0501 137.277 74.6348C137.02 74.2194 136.891 73.6823 136.891 73.0234C136.891 72.5794 136.991 71.8203 137.191 70.7461L137.342 69.9941C137.385 69.7936 137.406 69.6719 137.406 69.6289C137.177 70.0586 136.848 70.5885 136.418 71.2188C135.988 71.8346 135.494 72.4505 134.936 73.0664C134.377 73.6823 133.79 74.1979 133.174 74.6133C132.558 75.0143 131.949 75.2148 131.348 75.2148C130.087 75.2148 129.092 74.6491 128.361 73.5176C127.631 72.3861 127.266 71.0182 127.266 69.4141C127.266 67.3659 127.874 65.3249 129.092 63.291C129.908 61.916 130.882 60.7057 132.014 59.6602C133.16 58.6146 134.384 57.7982 135.688 57.2109C136.991 56.6094 138.28 56.3086 139.555 56.3086ZM137.75 58.2852C136.905 58.2852 136.053 58.5859 135.193 59.1875C134.334 59.7747 133.546 60.5697 132.83 61.5723C132.114 62.5605 131.534 63.6634 131.09 64.8809C130.66 66.084 130.445 67.2943 130.445 68.5117C130.445 71.319 131.176 72.7227 132.637 72.7227C133.152 72.7227 133.711 72.4362 134.312 71.8633C134.914 71.2904 135.508 70.5312 136.096 69.5859C136.683 68.6406 137.199 67.6165 137.643 66.5137C138.101 65.3965 138.438 64.3008 138.652 63.2266L139.512 58.8438C139.168 58.4714 138.581 58.2852 137.75 58.2852ZM152.273 56.3086C152.732 56.3086 153.09 56.5163 153.348 56.9316C153.605 57.347 153.734 57.8841 153.734 58.543C153.734 59.1732 153.648 59.9323 153.477 60.8203L152.789 64.4297C153.147 63.5846 153.605 62.6966 154.164 61.7656C154.737 60.8203 155.346 59.9323 155.99 59.1016C156.635 58.2708 157.272 57.5977 157.902 57.082C158.533 56.5664 159.091 56.3086 159.578 56.3086C160.552 56.3086 161.34 56.7669 161.941 57.6836C161.941 59.6029 161.411 60.5625 160.352 60.5625C160.122 60.5625 159.85 60.3835 159.535 60.0254C159.22 59.6673 158.891 59.4883 158.547 59.4883C158.132 59.4883 157.587 59.832 156.914 60.5195C156.241 61.207 155.546 62.1094 154.83 63.2266C154.114 64.3294 153.469 65.5254 152.896 66.8145C152.324 68.0892 151.93 69.3138 151.715 70.4883L150.898 75C150.411 75.0859 149.939 75.1289 149.48 75.1289C148.936 75.1289 148.406 75.0859 147.891 75L150.469 61.7656C150.612 60.7773 150.684 60.2044 150.684 60.0469C150.684 59.3307 150.54 58.9727 150.254 58.9727C150.01 58.9727 149.645 59.2018 149.158 59.6602C148.929 59.8893 148.678 60.14 148.406 60.4121C148.148 60.6842 147.977 60.8776 147.891 60.9922C147.833 60.9922 147.726 60.8561 147.568 60.584C147.411 60.3118 147.332 60.1185 147.332 60.0039C147.561 59.6172 147.977 59.1374 148.578 58.5645C149.18 57.9772 149.824 57.4544 150.512 56.9961C151.199 56.5378 151.786 56.3086 152.273 56.3086ZM171.738 56.3086C173.428 56.3086 174.739 56.8958 175.67 58.0703C176.601 59.2448 177.066 60.8633 177.066 62.9258C177.066 64.401 176.78 65.8691 176.207 67.3301C175.634 68.7767 174.882 70.0944 173.951 71.2832C173.02 72.472 171.996 73.4245 170.879 74.1406C169.762 74.8568 168.659 75.2148 167.57 75.2148C165.852 75.2148 164.541 74.6562 163.639 73.5391C162.736 72.4219 162.285 70.832 162.285 68.7695C162.285 67.2799 162.564 65.8047 163.123 64.3438C163.696 62.8685 164.448 61.5293 165.379 60.3262C166.31 59.1087 167.327 58.1348 168.43 57.4043C169.547 56.6738 170.65 56.3086 171.738 56.3086ZM171.223 58.0703C170.507 58.0703 169.812 58.3854 169.139 59.0156C168.465 59.6315 167.857 60.4408 167.312 61.4434C166.768 62.446 166.339 63.5417 166.023 64.7305C165.708 65.9193 165.551 67.0794 165.551 68.2109C165.551 69.8724 165.816 71.1615 166.346 72.0781C166.876 72.9948 167.542 73.4531 168.344 73.4531C169.06 73.4531 169.74 73.1452 170.385 72.5293C171.044 71.8991 171.631 71.0827 172.146 70.0801C172.662 69.0632 173.063 67.9603 173.35 66.7715C173.65 65.5827 173.801 64.4154 173.801 63.2695C173.801 61.5794 173.572 60.2904 173.113 59.4023C172.655 58.5143 172.025 58.0703 171.223 58.0703Z" fill="white"/>
<path d="M0 14.4961C6.30012 20.0984 15.0791 19.1979 30.687 15.1421C32.2497 14.736 33.9168 14.9601 35.3059 15.7832L61.0905 31.063L35.3304 19.6141C33.9205 18.9874 32.3183 18.9353 30.8588 19.4358C12.5496 25.7159 4.73674 24.7283 0 14.4961Z" fill="url(#paint8_radial_692_1472)"/>
<path d="M16.5669 25.8858C22.7094 27.5488 34.4861 19.1752 43.5027 24.2129C35.7991 20.3448 24.9274 34.7378 16.5669 25.8858Z" fill="url(#paint9_radial_692_1472)"/>
<path d="M42.4528 34.1693C40.4746 32.9379 39.8039 31.791 39.5364 30.2054C39.314 28.8871 40.2138 27.6374 41.514 27.3262C46.4064 26.1551 49.6595 27.3172 54.8779 31.063C50.3759 26.3362 46.8249 25.2844 39.6469 25.78C38.7972 25.8387 38.0191 26.2751 37.5081 26.9564L36.1669 28.7446C35.6047 29.4943 35.6307 30.5432 36.2784 31.2205C38.4425 33.4837 39.9798 34.1156 42.4528 34.1693Z" fill="url(#paint10_radial_692_1472)"/>
<path d="M61.0905 28.9921C48.8725 19.5072 53.131 18.6378 60.0551 10.3543C56.6285 8.93238 54.8937 8.83857 52.8071 12.4252C51.2879 8.29387 49.7783 6.42726 45.559 4.14173C43.8524 8.52031 44.6321 10.6991 46.5945 14.4961C42.9378 12.0347 40.7471 11.3823 36.2402 13.4606C46.3046 17.727 45.2926 18.8748 61.0905 28.9921Z" fill="url(#paint11_radial_692_1472)"/>
<path d="M78.6929 22.7441C78.6929 22.1918 79.1406 21.7441 79.6929 21.7441H79.7638C80.3161 21.7441 80.7638 22.1918 80.7638 22.7441V25.9213C80.7638 26.4735 80.3161 26.9213 79.7638 26.9213H74.4803C73.3757 26.9213 72.4803 26.0258 72.4803 24.9213V19.6024C72.4803 18.4978 73.3757 17.6024 74.4803 17.6024H78.7281C80.6137 17.6024 82.4755 18.023 84.178 18.8337V18.8337C85.2965 19.3663 86.1249 20.3629 86.4441 21.5599L88.3399 28.6695C89.2063 31.9182 86.6836 35.0788 83.3237 34.9544L68.0679 34.3894C64.7776 34.2675 62.2002 31.5169 62.2923 28.2256L62.6948 13.8426C62.7856 10.5955 65.4441 8.01038 68.6924 8.01038H83.0387C86.0229 8.01038 88.8896 9.21712 90.915 11.4088C101.807 23.194 109.097 33.3225 115.395 32.2299C115.685 32.1796 115.968 32.3916 115.968 32.686V32.686C115.968 32.9325 115.766 33.1318 115.519 33.1285C109.37 33.045 105.37 32.4313 87.653 13.254C86.5367 12.0456 85.0793 11.1983 83.4735 10.8414L77.8584 9.59364C77.0431 9.41248 76.199 9.4035 75.3801 9.56728L71.091 10.4251C68.2865 10.986 66.2677 13.4485 66.2677 16.3086V27.0984C66.2677 29.8599 68.5063 32.0984 71.2677 32.0984H80.9055C83.1146 32.0984 84.9055 30.3076 84.9055 28.0984V22.6378C84.9055 20.4287 83.1146 18.6378 80.9055 18.6378H76.5512C75.4466 18.6378 74.5512 19.5332 74.5512 20.6378V24.8858C74.5512 25.4381 74.9989 25.8858 75.5512 25.8858H77.6929C78.2452 25.8858 78.6929 25.4381 78.6929 24.8858V22.7441Z" fill="url(#paint12_radial_692_1472)"/>
<path d="M104.412 33.0631C96.4743 29.9513 88.3242 12.4066 78.6929 13.4606C91.6665 19.2326 92.9183 31.4785 104.412 33.0631Z" fill="url(#paint13_radial_692_1472)"/>
<path d="M111.827 30.0276C106.485 21.6827 106.361 16.9143 110.791 8.28346C105.363 9.71409 97.6256 19.5114 111.827 30.0276Z" fill="url(#paint14_radial_692_1472)"/>
<path d="M118.039 10.3543C113.102 14.0549 110.405 23.2793 118.039 32.0984C106.33 25.6888 109.793 12.7713 118.039 0V10.3543Z" fill="url(#paint15_radial_692_1472)"/>
<path d="M236.079 14.4961C229.779 20.0984 221 19.1979 205.392 15.1421C203.829 14.736 202.162 14.9601 200.773 15.7832L174.989 31.063L200.749 19.6141C202.159 18.9874 203.761 18.9353 205.22 19.4358C223.529 25.7159 231.342 24.7283 236.079 14.4961Z" fill="url(#paint16_radial_692_1472)"/>
<path d="M219.512 25.8858C213.37 27.5488 201.593 19.1752 192.576 24.2129C200.28 20.3448 211.152 34.7378 219.512 25.8858Z" fill="url(#paint17_radial_692_1472)"/>
<path d="M193.626 34.1693C195.605 32.9379 196.275 31.791 196.543 30.2054C196.765 28.8871 195.865 27.6374 194.565 27.3262C189.673 26.1551 186.42 27.3172 181.201 31.063C185.703 26.3362 189.254 25.2844 196.432 25.78C197.282 25.8387 198.06 26.2751 198.571 26.9564L199.912 28.7446C200.474 29.4943 200.448 30.5432 199.801 31.2205C197.637 33.4837 196.099 34.1156 193.626 34.1693Z" fill="url(#paint18_radial_692_1472)"/>
<path d="M174.989 28.9921C187.207 19.5072 182.948 18.6378 176.024 10.3543C179.451 8.93238 181.185 8.83857 183.272 12.4252C184.791 8.29387 186.301 6.42726 190.52 4.14173C192.227 8.52031 191.447 10.6991 189.485 14.4961C193.141 12.0347 195.332 11.3823 199.839 13.4606C189.775 17.727 190.787 18.8748 174.989 28.9921Z" fill="url(#paint19_radial_692_1472)"/>
<path d="M157.386 22.7441C157.386 22.1918 156.938 21.7441 156.386 21.7441H156.315C155.763 21.7441 155.315 22.1918 155.315 22.7441V25.9213C155.315 26.4735 155.763 26.9213 156.315 26.9213H161.599C162.703 26.9213 163.599 26.0258 163.599 24.9213V19.6024C163.599 18.4978 162.703 17.6024 161.599 17.6024H157.351C155.465 17.6024 153.604 18.023 151.901 18.8337V18.8337C150.783 19.3663 149.954 20.3629 149.635 21.5599L147.739 28.6695C146.873 31.9182 149.396 35.0788 152.755 34.9544L168.011 34.3894C171.301 34.2675 173.879 31.5169 173.787 28.2256L173.384 13.8426C173.293 10.5955 170.635 8.01038 167.387 8.01038H153.04C150.056 8.01038 147.19 9.21712 145.164 11.4088C134.273 23.194 126.982 33.3225 120.684 32.2299C120.394 32.1796 120.111 32.3916 120.111 32.686V32.686C120.111 32.9325 120.313 33.1318 120.56 33.1285C126.709 33.045 130.709 32.4313 148.426 13.254C149.542 12.0456 151 11.1983 152.606 10.8414L158.221 9.59364C159.036 9.41248 159.88 9.4035 160.699 9.56728L164.988 10.4251C167.793 10.986 169.811 13.4485 169.811 16.3086V27.0984C169.811 29.8599 167.573 32.0984 164.811 32.0984H155.174C152.964 32.0984 151.174 30.3076 151.174 28.0984V22.6378C151.174 20.4287 152.964 18.6378 155.174 18.6378H159.528C160.633 18.6378 161.528 19.5332 161.528 20.6378V24.8858C161.528 25.4381 161.08 25.8858 160.528 25.8858H158.386C157.834 25.8858 157.386 25.4381 157.386 24.8858V22.7441Z" fill="url(#paint20_radial_692_1472)"/>
<path d="M131.667 33.0631C139.605 29.9513 147.755 12.4066 157.386 13.4606C144.413 19.2326 143.161 31.4785 131.667 33.0631Z" fill="url(#paint21_radial_692_1472)"/>
<path d="M124.252 30.0276C129.594 21.6827 129.718 16.9143 125.288 8.28346C130.716 9.71409 138.454 19.5114 124.252 30.0276Z" fill="url(#paint22_radial_692_1472)"/>
<path d="M118.04 10.3543C122.977 14.0549 125.674 23.2793 118.04 32.0984C129.75 25.6888 126.286 12.7713 118.04 0V10.3543Z" fill="url(#paint23_radial_692_1472)"/>
<defs>
<radialGradient id="paint0_radial_692_1472" cx="0" cy="0" r="1" gradientUnits="userSpaceOnUse" gradientTransform="translate(79.728 111.309) scale(38.311 20.1909)">
<stop stop-color="#E1E1E1"/>
<stop offset="1" stop-color="#FFF4DA"/>
</radialGradient>
<radialGradient id="paint1_radial_692_1472" cx="0" cy="0" r="1" gradientUnits="userSpaceOnUse" gradientTransform="translate(79.728 111.309) scale(38.311 20.1909)">
<stop stop-color="#E1E1E1"/>
<stop offset="1" stop-color="#FFF4DA"/>
</radialGradient>
<radialGradient id="paint2_radial_692_1472" cx="0" cy="0" r="1" gradientUnits="userSpaceOnUse" gradientTransform="translate(79.728 111.309) scale(38.311 20.1909)">
<stop stop-color="#E1E1E1"/>
<stop offset="1" stop-color="#FFF4DA"/>
</radialGradient>
<radialGradient id="paint3_radial_692_1472" cx="0" cy="0" r="1" gradientUnits="userSpaceOnUse" gradientTransform="translate(79.728 111.309) scale(38.311 20.1909)">
<stop stop-color="#E1E1E1"/>
<stop offset="1" stop-color="#FFF4DA"/>
</radialGradient>
<radialGradient id="paint4_radial_692_1472" cx="0" cy="0" r="1" gradientUnits="userSpaceOnUse" gradientTransform="translate(156.35 111.309) rotate(180) scale(38.311 20.1909)">
<stop stop-color="#E1E1E1"/>
<stop offset="1" stop-color="#FFF4DA"/>
</radialGradient>
<radialGradient id="paint5_radial_692_1472" cx="0" cy="0" r="1" gradientUnits="userSpaceOnUse" gradientTransform="translate(156.35 111.309) rotate(180) scale(38.311 20.1909)">
<stop stop-color="#E1E1E1"/>
<stop offset="1" stop-color="#FFF4DA"/>
</radialGradient>
<radialGradient id="paint6_radial_692_1472" cx="0" cy="0" r="1" gradientUnits="userSpaceOnUse" gradientTransform="translate(156.35 111.309) rotate(180) scale(38.311 20.1909)">
<stop stop-color="#E1E1E1"/>
<stop offset="1" stop-color="#FFF4DA"/>
</radialGradient>
<radialGradient id="paint7_radial_692_1472" cx="0" cy="0" r="1" gradientUnits="userSpaceOnUse" gradientTransform="translate(156.35 111.309) rotate(180) scale(38.311 20.1909)">
<stop stop-color="#E1E1E1"/>
<stop offset="1" stop-color="#FFF4DA"/>
</radialGradient>
<radialGradient id="paint8_radial_692_1472" cx="0" cy="0" r="1" gradientUnits="userSpaceOnUse" gradientTransform="translate(59.0197 17.6024) scale(59.0197 17.6024)">
<stop stop-color="#E1E1E1"/>
<stop offset="1" stop-color="#FFF4DA"/>
</radialGradient>
<radialGradient id="paint9_radial_692_1472" cx="0" cy="0" r="1" gradientUnits="userSpaceOnUse" gradientTransform="translate(59.0197 17.6024) scale(59.0197 17.6024)">
<stop stop-color="#E1E1E1"/>
<stop offset="1" stop-color="#FFF4DA"/>
</radialGradient>
<radialGradient id="paint10_radial_692_1472" cx="0" cy="0" r="1" gradientUnits="userSpaceOnUse" gradientTransform="translate(59.0197 17.6024) scale(59.0197 17.6024)">
<stop stop-color="#E1E1E1"/>
<stop offset="1" stop-color="#FFF4DA"/>
</radialGradient>
<radialGradient id="paint11_radial_692_1472" cx="0" cy="0" r="1" gradientUnits="userSpaceOnUse" gradientTransform="translate(59.0197 17.6024) scale(59.0197 17.6024)">
<stop stop-color="#E1E1E1"/>
<stop offset="1" stop-color="#FFF4DA"/>
</radialGradient>
<radialGradient id="paint12_radial_692_1472" cx="0" cy="0" r="1" gradientUnits="userSpaceOnUse" gradientTransform="translate(59.0197 17.6024) scale(59.0197 17.6024)">
<stop stop-color="#E1E1E1"/>
<stop offset="1" stop-color="#FFF4DA"/>
</radialGradient>
<radialGradient id="paint13_radial_692_1472" cx="0" cy="0" r="1" gradientUnits="userSpaceOnUse" gradientTransform="translate(59.0197 17.6024) scale(59.0197 17.6024)">
<stop stop-color="#E1E1E1"/>
<stop offset="1" stop-color="#FFF4DA"/>
</radialGradient>
<radialGradient id="paint14_radial_692_1472" cx="0" cy="0" r="1" gradientUnits="userSpaceOnUse" gradientTransform="translate(59.0197 17.6024) scale(59.0197 17.6024)">
<stop stop-color="#E1E1E1"/>
<stop offset="1" stop-color="#FFF4DA"/>
</radialGradient>
<radialGradient id="paint15_radial_692_1472" cx="0" cy="0" r="1" gradientUnits="userSpaceOnUse" gradientTransform="translate(59.0197 17.6024) scale(59.0197 17.6024)">
<stop stop-color="#E1E1E1"/>
<stop offset="1" stop-color="#FFF4DA"/>
</radialGradient>
<radialGradient id="paint16_radial_692_1472" cx="0" cy="0" r="1" gradientUnits="userSpaceOnUse" gradientTransform="translate(177.059 17.6024) rotate(180) scale(59.0197 17.6024)">
<stop stop-color="#E1E1E1"/>
<stop offset="1" stop-color="#FFF4DA"/>
</radialGradient>
<radialGradient id="paint17_radial_692_1472" cx="0" cy="0" r="1" gradientUnits="userSpaceOnUse" gradientTransform="translate(177.059 17.6024) rotate(180) scale(59.0197 17.6024)">
<stop stop-color="#E1E1E1"/>
<stop offset="1" stop-color="#FFF4DA"/>
</radialGradient>
<radialGradient id="paint18_radial_692_1472" cx="0" cy="0" r="1" gradientUnits="userSpaceOnUse" gradientTransform="translate(177.059 17.6024) rotate(180) scale(59.0197 17.6024)">
<stop stop-color="#E1E1E1"/>
<stop offset="1" stop-color="#FFF4DA"/>
</radialGradient>
<radialGradient id="paint19_radial_692_1472" cx="0" cy="0" r="1" gradientUnits="userSpaceOnUse" gradientTransform="translate(177.059 17.6024) rotate(180) scale(59.0197 17.6024)">
<stop stop-color="#E1E1E1"/>
<stop offset="1" stop-color="#FFF4DA"/>
</radialGradient>
<radialGradient id="paint20_radial_692_1472" cx="0" cy="0" r="1" gradientUnits="userSpaceOnUse" gradientTransform="translate(177.059 17.6024) rotate(180) scale(59.0197 17.6024)">
<stop stop-color="#E1E1E1"/>
<stop offset="1" stop-color="#FFF4DA"/>
</radialGradient>
<radialGradient id="paint21_radial_692_1472" cx="0" cy="0" r="1" gradientUnits="userSpaceOnUse" gradientTransform="translate(177.059 17.6024) rotate(180) scale(59.0197 17.6024)">
<stop stop-color="#E1E1E1"/>
<stop offset="1" stop-color="#FFF4DA"/>
</radialGradient>
<radialGradient id="paint22_radial_692_1472" cx="0" cy="0" r="1" gradientUnits="userSpaceOnUse" gradientTransform="translate(177.059 17.6024) rotate(180) scale(59.0197 17.6024)">
<stop stop-color="#E1E1E1"/>
<stop offset="1" stop-color="#FFF4DA"/>
</radialGradient>
<radialGradient id="paint23_radial_692_1472" cx="0" cy="0" r="1" gradientUnits="userSpaceOnUse" gradientTransform="translate(177.059 17.6024) rotate(180) scale(59.0197 17.6024)">
<stop stop-color="#E1E1E1"/>
<stop offset="1" stop-color="#FFF4DA"/>
</radialGradient>
</defs>
</svg>
