<svg width="237" height="132" viewBox="0 0 237 132" fill="none" xmlns="http://www.w3.org/2000/svg">
<path d="M50.7125 108.06C49.3889 108.487 47.9214 108.504 46.7169 107.809C44.5794 106.575 44.1412 105.154 44.5234 102.508V102.508C42.8798 103.056 42.063 104.953 43.0339 106.388C43.9977 107.812 45.0937 108.974 46.6267 110.246C47.9171 111.316 49.5696 111.855 51.2458 111.812C56.4406 111.679 59.0349 110.851 62.1257 108.72C61.1051 110.641 61.1618 111.76 61.9885 113.6C62.0605 113.76 62.2568 113.822 62.4077 113.731C64.0825 112.73 65.0039 111.892 66.2674 109.756C66.2154 114.032 66.9843 113.977 70.4091 114.933C67.5194 110.86 68.0525 109.221 70.1981 106.254C70.9958 105.151 72.1259 104.331 73.4053 103.866L78.5776 101.985C81.3342 100.982 84.3487 100.942 87.1313 101.869L104.173 107.55C104.307 107.435 104.442 107.326 104.578 107.223V104.508C104.578 103.403 105.474 102.508 106.578 102.508H108.791C109.896 102.508 110.791 103.403 110.791 104.508V105.614H111.826V103.472C111.826 102.368 110.931 101.472 109.826 101.472H105.543C104.438 101.472 103.543 102.368 103.543 103.472V106.65C98.7736 103.748 93.5321 101.584 86.7257 99.7769C82.8456 98.747 78.7534 99.0145 74.9328 100.247L50.7125 108.06Z" fill="url(#paint0_radial_692_1826)"/>
<path fill-rule="evenodd" clip-rule="evenodd" d="M118.039 111.827V108.721C115.458 105.74 114.163 105.799 111.826 105.614H110.791C108.063 105.589 106.222 105.979 104.578 107.223V107.685L104.173 107.55C103.27 108.327 102.409 109.382 101.472 110.791C94.4225 108.167 92.2419 105.859 84.6304 104.117C82.7927 103.696 80.8379 103.854 79.1733 104.739C77.1406 105.82 75.7478 107.075 74.4004 109.235C73.7976 110.201 73.7049 111.42 74.2146 112.438C75.0495 114.107 76.2498 115.417 79.1376 117.128C80.1186 117.709 81.3505 117.62 82.2784 116.957L86.28 114.099C87.2184 113.429 87.4128 112.09 86.6211 111.251C84.8302 109.354 83.7227 109.09 81.7989 109.756C83.0242 110.067 83.7473 110.456 84.396 111.688C84.7596 112.378 84.5518 113.216 84 113.767L82.2754 115.492C81.3706 116.397 79.9663 116.664 78.9055 115.948C77.3915 114.927 76.4781 113.802 75.4876 112.283C74.8937 111.372 74.8539 110.185 75.48 109.296C77.188 106.871 79.0763 106.022 82.8343 105.614C87.5138 105.758 93.9734 109.592 101.472 112.862C101.61 115.305 101.827 117.608 105.43 119.531C106.15 119.915 107.027 119.733 107.604 119.156L110.252 116.508C110.55 116.21 110.55 115.727 110.252 115.429V115.429C109.971 115.149 109.521 115.134 109.21 115.381C104.882 118.812 103.349 117.017 102.508 112.862C108.784 113.743 111.6 112.063 112.862 106.65H114.933L118.039 111.827ZM102.508 111.827C105.324 107.593 107.416 106.549 111.826 106.65C109.581 111.782 107.623 113.001 102.508 111.827Z" fill="url(#paint1_radial_692_1826)"/>
<path d="M118.039 114.933V111.827C116.112 115.763 116.189 118.074 110.791 119.075C111.96 121.038 112.806 121.636 114.933 121.146C115.324 125.201 115.717 127.472 118.039 131.5V125.287C116.703 121.107 116.952 118.865 118.039 114.933Z" fill="url(#paint2_radial_692_1826)"/>
<path d="M115.968 98.3662C116.06 94.792 116.696 93.3936 118.039 91.1182V105.614C115.722 100.811 114.342 99.4138 111.826 99.4015C113.364 97.8121 114.276 97.3638 115.968 98.3662Z" fill="url(#paint3_radial_692_1826)"/>
<path d="M185.366 108.06C186.689 108.487 188.157 108.504 189.361 107.809C191.499 106.575 191.937 105.154 191.555 102.508V102.508C193.198 103.056 194.015 104.953 193.044 106.388C192.08 107.812 190.984 108.974 189.451 110.246C188.161 111.316 186.509 111.855 184.832 111.812C179.637 111.679 177.043 110.851 173.952 108.72C174.973 110.641 174.916 111.76 174.09 113.6C174.018 113.76 173.821 113.822 173.67 113.731C171.996 112.73 171.074 111.892 169.811 109.756C169.863 114.032 169.094 113.977 165.669 114.933C168.559 110.86 168.026 109.221 165.88 106.254C165.082 105.151 163.952 104.331 162.673 103.866L157.5 101.985C154.744 100.982 151.729 100.942 148.947 101.869L131.905 107.55C131.771 107.435 131.636 107.326 131.5 107.223V104.508C131.5 103.403 130.604 102.508 129.5 102.508H127.287C126.183 102.508 125.287 103.403 125.287 104.508V105.614H124.252V103.472C124.252 102.368 125.147 101.472 126.252 101.472H130.535C131.64 101.472 132.535 102.368 132.535 103.472V106.65C137.304 103.748 142.546 101.584 149.352 99.7769C153.232 98.747 157.325 99.0145 161.145 100.247L185.366 108.06Z" fill="url(#paint4_radial_692_1826)"/>
<path fill-rule="evenodd" clip-rule="evenodd" d="M118.039 111.827V108.721C120.62 105.74 121.915 105.799 124.252 105.614H125.287C128.015 105.589 129.856 105.979 131.5 107.223V107.685L131.905 107.55C132.808 108.327 133.669 109.382 134.606 110.791C141.656 108.167 143.836 105.859 151.448 104.117C153.285 103.696 155.24 103.854 156.905 104.739C158.938 105.82 160.33 107.075 161.678 109.235C162.281 110.201 162.373 111.42 161.863 112.438C161.029 114.107 159.828 115.417 156.941 117.128C155.96 117.709 154.728 117.62 153.8 116.957L149.798 114.099C148.86 113.429 148.665 112.09 149.457 111.251C151.248 109.354 152.355 109.09 154.279 109.756C153.054 110.067 152.331 110.456 151.682 111.688C151.319 112.378 151.526 113.216 152.078 113.767L153.803 115.492C154.708 116.397 156.112 116.664 157.173 115.948C158.687 114.927 159.6 113.802 160.591 112.283C161.184 111.372 161.224 110.185 160.598 109.296C158.89 106.871 157.002 106.022 153.244 105.614C148.564 105.758 142.105 109.592 134.606 112.862C134.468 115.305 134.251 117.608 130.648 119.531C129.928 119.915 129.051 119.733 128.474 119.156L125.826 116.508C125.528 116.21 125.528 115.727 125.826 115.429V115.429C126.107 115.149 126.557 115.134 126.868 115.381C131.196 118.812 132.729 117.017 133.571 112.862C127.294 113.743 124.478 112.063 123.216 106.65H121.145L118.039 111.827ZM133.571 111.827C130.754 107.593 128.662 106.549 124.252 106.65C126.497 111.782 128.455 113.001 133.571 111.827Z" fill="url(#paint5_radial_692_1826)"/>
<path d="M118.039 114.933V111.827C119.967 115.763 119.889 118.074 125.287 119.075C124.119 121.038 123.273 121.636 121.145 121.146C120.754 125.201 120.361 127.472 118.039 131.5V125.287C119.375 121.107 119.126 118.865 118.039 114.933Z" fill="url(#paint6_radial_692_1826)"/>
<path d="M120.11 98.3662C120.019 94.792 119.382 93.3936 118.039 91.1182V105.614C120.356 100.811 121.736 99.4138 124.252 99.4015C122.714 97.8121 121.802 97.3638 120.11 98.3662Z" fill="url(#paint7_radial_692_1826)"/>
<path d="M69.2461 68.8984L72.2109 53.6445C72.5833 51.625 72.7695 50.2357 72.7695 49.4766C72.7695 49.2904 72.7337 49.14 72.6621 49.0254C72.5618 48.8965 72.0964 48.7891 71.2656 48.7031C70.4349 48.6172 69.5182 48.5742 68.5156 48.5742C67.513 48.5742 66.7109 48.6745 66.1094 48.875C65.5221 49.0612 65.0208 49.4264 64.6055 49.9707C64.2044 50.515 63.7604 51.3242 63.2734 52.3984C63.2161 52.5417 63.0729 52.6133 62.8438 52.6133C62.4714 52.6133 62.1849 52.513 61.9844 52.3125L63.875 46.168C64.9492 46.4831 65.8516 46.6406 66.582 46.6406C67.4128 46.6406 68.3438 46.6621 69.375 46.7051C70.4062 46.748 71.4375 46.791 72.4688 46.834C73.5143 46.877 74.4453 46.8984 75.2617 46.8984C76.1068 46.8984 77.0521 46.877 78.0977 46.834C79.1576 46.791 80.2103 46.748 81.2559 46.7051C82.3158 46.6621 83.2682 46.6406 84.1133 46.6406C84.7578 46.6406 85.7031 46.4831 86.9492 46.168L86.5195 52.3125C86.2474 52.513 85.918 52.6133 85.5312 52.6133C85.2734 52.6133 85.1445 52.5417 85.1445 52.3984C85.1445 50.8516 84.8652 49.8275 84.3066 49.3262C83.748 48.8249 82.7956 48.5742 81.4492 48.5742C78.6133 48.5742 77.0951 48.7891 76.8945 49.2188C76.694 49.6484 76.4935 50.2214 76.293 50.9375C76.0924 51.6536 75.8919 52.513 75.6914 53.5156L72.6836 69.0273C72.3685 70.5599 72.2109 71.849 72.2109 72.8945C72.2109 73.1237 72.4043 73.3314 72.791 73.5176C73.1777 73.7038 73.5573 73.8255 73.9297 73.8828L74.5312 73.9688C74.5885 73.9688 74.6172 74.026 74.6172 74.1406C74.6172 74.4557 74.5312 74.7852 74.3594 75.1289C73.0417 75.0573 72.0104 75.0072 71.2656 74.9785C70.5208 74.9355 70.0625 74.9141 69.8906 74.9141C69.862 74.9141 69.4538 74.9355 68.666 74.9785C67.8783 75.0072 66.7109 75.0573 65.1641 75.1289C65.1068 75.0716 65.0781 74.957 65.0781 74.7852C65.0781 74.2409 65.1784 73.9688 65.3789 73.9688C65.6081 73.9688 65.9232 73.9258 66.3242 73.8398C66.7396 73.7539 67.1263 73.6393 67.4844 73.4961C67.8424 73.3529 68.0573 73.1953 68.1289 73.0234C68.5443 72.0781 68.9167 70.7031 69.2461 68.8984ZM96.5742 56.3086C97.6341 56.3086 98.6797 56.4948 99.7109 56.8672L97.0898 70.4453C97.0039 70.7891 96.9609 71.1471 96.9609 71.5195C96.9609 72.2357 97.1042 72.5938 97.3906 72.5938C97.7487 72.5938 98.1784 72.3431 98.6797 71.8418C99.181 71.3262 99.6107 70.8893 99.9688 70.5312L100.227 70.2305C100.284 70.2305 100.391 70.3665 100.549 70.6387C100.706 70.9108 100.785 71.1042 100.785 71.2188C100.542 71.6341 100.098 72.1641 99.4531 72.8086C98.8229 73.4531 98.1354 74.026 97.3906 74.5273C96.6458 75.0143 95.9727 75.2578 95.3711 75.2578C94.9128 75.2578 94.5547 75.0501 94.2969 74.6348C94.0391 74.2194 93.9102 73.6823 93.9102 73.0234C93.9102 72.5794 94.0104 71.8203 94.2109 70.7461L94.3613 69.9941C94.4043 69.7936 94.4258 69.6719 94.4258 69.6289C94.1966 70.0586 93.8672 70.5885 93.4375 71.2188C93.0078 71.8346 92.5137 72.4505 91.9551 73.0664C91.3965 73.6823 90.8092 74.1979 90.1934 74.6133C89.5775 75.0143 88.9688 75.2148 88.3672 75.2148C87.1068 75.2148 86.1113 74.6491 85.3809 73.5176C84.6504 72.3861 84.2852 71.0182 84.2852 69.4141C84.2852 67.3659 84.8939 65.3249 86.1113 63.291C86.9277 61.916 87.9017 60.7057 89.0332 59.6602C90.179 58.6146 91.4036 57.7982 92.707 57.2109C94.0104 56.6094 95.2995 56.3086 96.5742 56.3086ZM94.7695 58.2852C93.9245 58.2852 93.0723 58.5859 92.2129 59.1875C91.3535 59.7747 90.5658 60.5697 89.8496 61.5723C89.1335 62.5605 88.5534 63.6634 88.1094 64.8809C87.6797 66.084 87.4648 67.2943 87.4648 68.5117C87.4648 71.319 88.1953 72.7227 89.6562 72.7227C90.1719 72.7227 90.7305 72.4362 91.332 71.8633C91.9336 71.2904 92.528 70.5312 93.1152 69.5859C93.7025 68.6406 94.2181 67.6165 94.6621 66.5137C95.1204 65.3965 95.457 64.3008 95.6719 63.2266L96.5312 58.8438C96.1875 58.4714 95.6003 58.2852 94.7695 58.2852ZM116.77 56.3086C118.202 56.3086 118.918 57.2539 118.918 59.1445C118.918 60.4766 118.717 62.0378 118.316 63.8281L116.898 70.4453C116.812 70.7891 116.77 71.1471 116.77 71.5195C116.77 72.2357 116.913 72.5938 117.199 72.5938C117.557 72.5938 117.987 72.3431 118.488 71.8418C118.99 71.3262 119.419 70.8893 119.777 70.5312L120.035 70.2305C120.092 70.2305 120.2 70.3665 120.357 70.6387C120.515 70.9108 120.594 71.1042 120.594 71.2188C120.35 71.6341 119.906 72.1641 119.262 72.8086C118.632 73.4531 117.944 74.026 117.199 74.5273C116.454 75.0143 115.781 75.2578 115.18 75.2578C114.721 75.2578 114.363 75.0501 114.105 74.6348C113.848 74.2194 113.719 73.6823 113.719 73.0234C113.719 72.5938 113.819 71.8346 114.02 70.7461L115.523 63.6562C115.724 62.6823 115.824 61.9089 115.824 61.3359C115.824 60.1042 115.552 59.4883 115.008 59.4883C114.535 59.4883 113.898 59.8464 113.096 60.5625C112.294 61.2643 111.456 62.2025 110.582 63.377C109.723 64.5514 108.942 65.862 108.24 67.3086C107.538 68.7409 107.044 70.1875 106.758 71.6484L106.027 75C105.641 75.1146 105.197 75.1719 104.695 75.1719C104.208 75.1719 103.721 75.1146 103.234 75L107.875 50.9805C108.133 49.7057 108.262 48.9466 108.262 48.7031C108.262 48.1589 107.388 47.8867 105.641 47.8867C105.555 47.8867 105.512 47.8008 105.512 47.6289C105.512 47.2852 105.626 46.9987 105.855 46.7695C107.717 46.5977 109.522 46.1966 111.27 45.5664C111.441 45.6523 111.527 45.9245 111.527 46.3828C111.527 46.5833 111.341 47.6576 110.969 49.6055L108.004 64.7734C108.276 64.2865 108.899 63.3984 109.873 62.1094C110.518 61.2643 111.262 60.3978 112.107 59.5098C112.967 58.6074 113.812 57.8483 114.643 57.2324C115.488 56.6165 116.197 56.3086 116.77 56.3086ZM129.102 56.3086C129.56 56.3086 129.918 56.5163 130.176 56.9316C130.434 57.347 130.562 57.8841 130.562 58.543C130.562 59.1732 130.477 59.9323 130.305 60.8203L129.617 64.4297C129.975 63.5846 130.434 62.6966 130.992 61.7656C131.565 60.8203 132.174 59.9323 132.818 59.1016C133.463 58.2708 134.1 57.5977 134.73 57.082C135.361 56.5664 135.919 56.3086 136.406 56.3086C137.38 56.3086 138.168 56.7669 138.77 57.6836C138.77 59.6029 138.24 60.5625 137.18 60.5625C136.951 60.5625 136.678 60.3835 136.363 60.0254C136.048 59.6673 135.719 59.4883 135.375 59.4883C134.96 59.4883 134.415 59.832 133.742 60.5195C133.069 61.207 132.374 62.1094 131.658 63.2266C130.942 64.3294 130.298 65.5254 129.725 66.8145C129.152 68.0892 128.758 69.3138 128.543 70.4883L127.727 75C127.24 75.0859 126.767 75.1289 126.309 75.1289C125.764 75.1289 125.234 75.0859 124.719 75L127.297 61.7656C127.44 60.7773 127.512 60.2044 127.512 60.0469C127.512 59.3307 127.368 58.9727 127.082 58.9727C126.839 58.9727 126.473 59.2018 125.986 59.6602C125.757 59.8893 125.507 60.14 125.234 60.4121C124.977 60.6842 124.805 60.8776 124.719 60.9922C124.661 60.9922 124.554 60.8561 124.396 60.584C124.239 60.3118 124.16 60.1185 124.16 60.0039C124.389 59.6172 124.805 59.1374 125.406 58.5645C126.008 57.9772 126.652 57.4544 127.34 56.9961C128.027 56.5378 128.615 56.3086 129.102 56.3086ZM146.375 47.2422C146.805 47.2422 147.17 47.4141 147.471 47.7578C147.771 48.1016 147.922 48.5026 147.922 48.9609C147.922 49.6484 147.7 50.25 147.256 50.7656C146.812 51.2812 146.26 51.5391 145.602 51.5391C145.143 51.5391 144.785 51.36 144.527 51.002C144.27 50.6439 144.141 50.207 144.141 49.6914C144.141 49.0326 144.355 48.4596 144.785 47.9727C145.215 47.4857 145.745 47.2422 146.375 47.2422ZM145.129 56.3086C145.587 56.3086 145.945 56.5163 146.203 56.9316C146.461 57.347 146.59 57.8841 146.59 58.543C146.59 59.1302 146.504 59.8893 146.332 60.8203L144.441 70.4453C144.355 70.7891 144.312 71.1471 144.312 71.5195C144.312 72.2357 144.456 72.5938 144.742 72.5938C145.1 72.5938 145.53 72.3431 146.031 71.8418C146.533 71.3262 146.962 70.8893 147.32 70.5312L147.578 70.2305C147.635 70.2305 147.743 70.3665 147.9 70.6387C148.058 70.9108 148.137 71.1042 148.137 71.2188C147.893 71.6341 147.449 72.1641 146.805 72.8086C146.174 73.4531 145.487 74.026 144.742 74.5273C143.997 75.0143 143.324 75.2578 142.723 75.2578C142.264 75.2578 141.906 75.0501 141.648 74.6348C141.391 74.2194 141.262 73.6823 141.262 73.0234C141.262 72.5938 141.362 71.8346 141.562 70.7461L143.324 61.7656C143.467 60.9206 143.539 60.3477 143.539 60.0469C143.539 59.3307 143.396 58.9727 143.109 58.9727C142.938 58.9727 142.701 59.0872 142.4 59.3164C142.114 59.5456 141.835 59.8034 141.562 60.0898C141.29 60.362 141.09 60.5768 140.961 60.7344L140.746 60.9922C140.689 60.9922 140.581 60.8561 140.424 60.584C140.266 60.3118 140.188 60.1185 140.188 60.0039C140.417 59.6172 140.832 59.1374 141.434 58.5645C142.035 57.9772 142.68 57.4544 143.367 56.9961C144.055 56.5378 144.642 56.3086 145.129 56.3086ZM164.938 56.3086C165.711 56.3086 166.305 56.5378 166.721 56.9961C167.136 57.4544 167.387 57.9342 167.473 58.4355C167.559 58.9368 167.602 59.5885 167.602 60.3906C167.602 60.9206 167.401 62.1953 167 64.2148C167.473 63.3984 168.06 62.5319 168.762 61.6152C169.464 60.6986 170.201 59.8392 170.975 59.0371C171.748 58.235 172.493 57.5833 173.209 57.082C173.925 56.5664 174.534 56.3086 175.035 56.3086C175.98 56.3086 176.625 56.5449 176.969 57.0176C177.312 57.4902 177.484 58.1992 177.484 59.1445C177.484 60.4766 177.284 62.0378 176.883 63.8281L175.465 70.4453C175.379 70.7891 175.336 71.1471 175.336 71.5195C175.336 72.2357 175.479 72.5938 175.766 72.5938C176.124 72.5938 176.553 72.3431 177.055 71.8418C177.556 71.3262 177.986 70.8893 178.344 70.5312L178.602 70.2305C178.659 70.2305 178.766 70.3665 178.924 70.6387C179.081 70.9108 179.16 71.1042 179.16 71.2188C178.917 71.6341 178.473 72.1641 177.828 72.8086C177.198 73.4531 176.51 74.026 175.766 74.5273C175.021 75.0143 174.348 75.2578 173.746 75.2578C173.288 75.2578 172.93 75.0501 172.672 74.6348C172.414 74.2194 172.285 73.6823 172.285 73.0234C172.285 72.5938 172.385 71.8346 172.586 70.7461L174.09 63.6562C174.29 62.6823 174.391 61.9089 174.391 61.3359C174.391 60.8346 174.348 60.4049 174.262 60.0469C174.19 59.6745 173.961 59.4883 173.574 59.4883C173.087 59.4883 172.45 59.832 171.662 60.5195C170.889 61.207 170.087 62.1165 169.256 63.248C168.425 64.3652 167.68 65.597 167.021 66.9434C166.363 68.2754 165.911 69.6003 165.668 70.918L164.895 75H162.016L164.422 62.7969C164.536 62.1523 164.594 61.6081 164.594 61.1641C164.594 60.0469 164.307 59.4883 163.734 59.4883C163.233 59.4883 162.596 59.8678 161.822 60.627C161.049 61.3861 160.254 62.3672 159.438 63.5703C158.621 64.7734 157.891 66.0553 157.246 67.416C156.602 68.7624 156.158 70.0299 155.914 71.2188L155.141 75C154.339 75.1146 153.852 75.1719 153.68 75.1719C153.536 75.1719 153.064 75.1146 152.262 75L154.84 61.7656C154.983 60.7773 155.055 60.2044 155.055 60.0469C155.055 59.3307 154.911 58.9727 154.625 58.9727C154.382 58.9727 154.016 59.2018 153.529 59.6602C153.3 59.8893 153.049 60.14 152.777 60.4121C152.52 60.6842 152.348 60.8776 152.262 60.9922C152.204 60.9922 152.097 60.8561 151.939 60.584C151.782 60.3118 151.703 60.1185 151.703 60.0039C151.932 59.6172 152.348 59.1374 152.949 58.5645C153.551 57.9772 154.195 57.4544 154.883 56.9961C155.57 56.5378 156.158 56.3086 156.645 56.3086C157.103 56.3086 157.461 56.5163 157.719 56.9316C157.977 57.347 158.105 57.8841 158.105 58.543C158.105 59.1732 158.02 59.9323 157.848 60.8203L157.074 64.8164C157.604 63.8997 158.213 62.9473 158.9 61.959C159.602 60.9707 160.318 60.0469 161.049 59.1875C161.794 58.3281 162.503 57.6335 163.176 57.1035C163.849 56.5736 164.436 56.3086 164.938 56.3086Z" fill="white"/>
<path d="M0 14.4961C6.30012 20.0984 15.0791 19.1979 30.687 15.1421C32.2497 14.736 33.9168 14.9601 35.3059 15.7832L61.0905 31.063L35.3304 19.6141C33.9205 18.9874 32.3183 18.9353 30.8588 19.4358C12.5496 25.7159 4.73674 24.7283 0 14.4961Z" fill="url(#paint8_radial_692_1826)"/>
<path d="M16.5669 25.8858C22.7094 27.5488 34.4861 19.1752 43.5027 24.2129C35.7991 20.3448 24.9274 34.7378 16.5669 25.8858Z" fill="url(#paint9_radial_692_1826)"/>
<path d="M42.4528 34.1693C40.4746 32.9379 39.8039 31.791 39.5364 30.2054C39.314 28.8871 40.2138 27.6374 41.514 27.3262C46.4064 26.1551 49.6595 27.3172 54.8779 31.063C50.3759 26.3362 46.8249 25.2844 39.6469 25.78C38.7972 25.8387 38.0191 26.2751 37.5081 26.9564L36.1669 28.7446C35.6047 29.4943 35.6307 30.5432 36.2784 31.2205C38.4425 33.4837 39.9798 34.1156 42.4528 34.1693Z" fill="url(#paint10_radial_692_1826)"/>
<path d="M61.0905 28.9921C48.8725 19.5072 53.131 18.6378 60.0551 10.3543C56.6285 8.93238 54.8937 8.83857 52.8071 12.4252C51.2879 8.29387 49.7783 6.42726 45.559 4.14173C43.8524 8.52031 44.6321 10.6991 46.5945 14.4961C42.9378 12.0347 40.7471 11.3823 36.2402 13.4606C46.3046 17.727 45.2926 18.8748 61.0905 28.9921Z" fill="url(#paint11_radial_692_1826)"/>
<path d="M78.6929 22.7441C78.6929 22.1918 79.1406 21.7441 79.6929 21.7441H79.7638C80.3161 21.7441 80.7638 22.1918 80.7638 22.7441V25.9213C80.7638 26.4735 80.3161 26.9213 79.7638 26.9213H74.4803C73.3757 26.9213 72.4803 26.0258 72.4803 24.9213V19.6024C72.4803 18.4978 73.3757 17.6024 74.4803 17.6024H78.7281C80.6137 17.6024 82.4755 18.023 84.178 18.8337V18.8337C85.2965 19.3663 86.1249 20.3629 86.4441 21.5599L88.3399 28.6695C89.2063 31.9182 86.6836 35.0788 83.3237 34.9544L68.0679 34.3894C64.7776 34.2675 62.2002 31.5169 62.2923 28.2256L62.6948 13.8426C62.7856 10.5955 65.4441 8.01038 68.6924 8.01038H83.0387C86.0229 8.01038 88.8896 9.21712 90.915 11.4088C101.807 23.194 109.097 33.3225 115.395 32.2299C115.685 32.1796 115.968 32.3916 115.968 32.686V32.686C115.968 32.9325 115.766 33.1318 115.519 33.1285C109.37 33.045 105.37 32.4313 87.653 13.254C86.5367 12.0456 85.0793 11.1983 83.4735 10.8414L77.8584 9.59364C77.0431 9.41248 76.199 9.4035 75.3801 9.56728L71.091 10.4251C68.2865 10.986 66.2677 13.4485 66.2677 16.3086V27.0984C66.2677 29.8599 68.5063 32.0984 71.2677 32.0984H80.9055C83.1146 32.0984 84.9055 30.3076 84.9055 28.0984V22.6378C84.9055 20.4287 83.1146 18.6378 80.9055 18.6378H76.5512C75.4466 18.6378 74.5512 19.5332 74.5512 20.6378V24.8858C74.5512 25.4381 74.9989 25.8858 75.5512 25.8858H77.6929C78.2452 25.8858 78.6929 25.4381 78.6929 24.8858V22.7441Z" fill="url(#paint12_radial_692_1826)"/>
<path d="M104.412 33.0631C96.4743 29.9513 88.3242 12.4066 78.6929 13.4606C91.6665 19.2326 92.9183 31.4785 104.412 33.0631Z" fill="url(#paint13_radial_692_1826)"/>
<path d="M111.827 30.0276C106.485 21.6827 106.361 16.9143 110.791 8.28346C105.363 9.71409 97.6256 19.5114 111.827 30.0276Z" fill="url(#paint14_radial_692_1826)"/>
<path d="M118.039 10.3543C113.102 14.0549 110.405 23.2793 118.039 32.0984C106.33 25.6888 109.793 12.7713 118.039 0V10.3543Z" fill="url(#paint15_radial_692_1826)"/>
<path d="M236.079 14.4961C229.779 20.0984 221 19.1979 205.392 15.1421C203.829 14.736 202.162 14.9601 200.773 15.7832L174.989 31.063L200.749 19.6141C202.159 18.9874 203.761 18.9353 205.22 19.4358C223.529 25.7159 231.342 24.7283 236.079 14.4961Z" fill="url(#paint16_radial_692_1826)"/>
<path d="M219.512 25.8858C213.37 27.5488 201.593 19.1752 192.576 24.2129C200.28 20.3448 211.152 34.7378 219.512 25.8858Z" fill="url(#paint17_radial_692_1826)"/>
<path d="M193.626 34.1693C195.605 32.9379 196.275 31.791 196.543 30.2054C196.765 28.8871 195.865 27.6374 194.565 27.3262C189.673 26.1551 186.42 27.3172 181.201 31.063C185.703 26.3362 189.254 25.2844 196.432 25.78C197.282 25.8387 198.06 26.2751 198.571 26.9564L199.912 28.7446C200.474 29.4943 200.448 30.5432 199.801 31.2205C197.637 33.4837 196.099 34.1156 193.626 34.1693Z" fill="url(#paint18_radial_692_1826)"/>
<path d="M174.989 28.9921C187.207 19.5072 182.948 18.6378 176.024 10.3543C179.451 8.93238 181.185 8.83857 183.272 12.4252C184.791 8.29387 186.301 6.42726 190.52 4.14173C192.227 8.52031 191.447 10.6991 189.485 14.4961C193.141 12.0347 195.332 11.3823 199.839 13.4606C189.775 17.727 190.787 18.8748 174.989 28.9921Z" fill="url(#paint19_radial_692_1826)"/>
<path d="M157.386 22.7441C157.386 22.1918 156.938 21.7441 156.386 21.7441H156.315C155.763 21.7441 155.315 22.1918 155.315 22.7441V25.9213C155.315 26.4735 155.763 26.9213 156.315 26.9213H161.599C162.703 26.9213 163.599 26.0258 163.599 24.9213V19.6024C163.599 18.4978 162.703 17.6024 161.599 17.6024H157.351C155.465 17.6024 153.604 18.023 151.901 18.8337V18.8337C150.783 19.3663 149.954 20.3629 149.635 21.5599L147.739 28.6695C146.873 31.9182 149.396 35.0788 152.755 34.9544L168.011 34.3894C171.301 34.2675 173.879 31.5169 173.787 28.2256L173.384 13.8426C173.293 10.5955 170.635 8.01038 167.387 8.01038H153.04C150.056 8.01038 147.19 9.21712 145.164 11.4088C134.273 23.194 126.982 33.3225 120.684 32.2299C120.394 32.1796 120.111 32.3916 120.111 32.686V32.686C120.111 32.9325 120.313 33.1318 120.56 33.1285C126.709 33.045 130.709 32.4313 148.426 13.254C149.542 12.0456 151 11.1983 152.606 10.8414L158.221 9.59364C159.036 9.41248 159.88 9.4035 160.699 9.56728L164.988 10.4251C167.793 10.986 169.811 13.4485 169.811 16.3086V27.0984C169.811 29.8599 167.573 32.0984 164.811 32.0984H155.174C152.964 32.0984 151.174 30.3076 151.174 28.0984V22.6378C151.174 20.4287 152.964 18.6378 155.174 18.6378H159.528C160.633 18.6378 161.528 19.5332 161.528 20.6378V24.8858C161.528 25.4381 161.08 25.8858 160.528 25.8858H158.386C157.834 25.8858 157.386 25.4381 157.386 24.8858V22.7441Z" fill="url(#paint20_radial_692_1826)"/>
<path d="M131.667 33.0631C139.605 29.9513 147.755 12.4066 157.386 13.4606C144.413 19.2326 143.161 31.4785 131.667 33.0631Z" fill="url(#paint21_radial_692_1826)"/>
<path d="M124.252 30.0276C129.594 21.6827 129.718 16.9143 125.288 8.28346C130.716 9.71409 138.454 19.5114 124.252 30.0276Z" fill="url(#paint22_radial_692_1826)"/>
<path d="M118.04 10.3543C122.977 14.0549 125.674 23.2793 118.04 32.0984C129.75 25.6888 126.286 12.7713 118.04 0V10.3543Z" fill="url(#paint23_radial_692_1826)"/>
<defs>
<radialGradient id="paint0_radial_692_1826" cx="0" cy="0" r="1" gradientUnits="userSpaceOnUse" gradientTransform="translate(79.728 111.309) scale(38.311 20.1909)">
<stop stop-color="#E1E1E1"/>
<stop offset="1" stop-color="#FFF4DA"/>
</radialGradient>
<radialGradient id="paint1_radial_692_1826" cx="0" cy="0" r="1" gradientUnits="userSpaceOnUse" gradientTransform="translate(79.728 111.309) scale(38.311 20.1909)">
<stop stop-color="#E1E1E1"/>
<stop offset="1" stop-color="#FFF4DA"/>
</radialGradient>
<radialGradient id="paint2_radial_692_1826" cx="0" cy="0" r="1" gradientUnits="userSpaceOnUse" gradientTransform="translate(79.728 111.309) scale(38.311 20.1909)">
<stop stop-color="#E1E1E1"/>
<stop offset="1" stop-color="#FFF4DA"/>
</radialGradient>
<radialGradient id="paint3_radial_692_1826" cx="0" cy="0" r="1" gradientUnits="userSpaceOnUse" gradientTransform="translate(79.728 111.309) scale(38.311 20.1909)">
<stop stop-color="#E1E1E1"/>
<stop offset="1" stop-color="#FFF4DA"/>
</radialGradient>
<radialGradient id="paint4_radial_692_1826" cx="0" cy="0" r="1" gradientUnits="userSpaceOnUse" gradientTransform="translate(156.35 111.309) rotate(180) scale(38.311 20.1909)">
<stop stop-color="#E1E1E1"/>
<stop offset="1" stop-color="#FFF4DA"/>
</radialGradient>
<radialGradient id="paint5_radial_692_1826" cx="0" cy="0" r="1" gradientUnits="userSpaceOnUse" gradientTransform="translate(156.35 111.309) rotate(180) scale(38.311 20.1909)">
<stop stop-color="#E1E1E1"/>
<stop offset="1" stop-color="#FFF4DA"/>
</radialGradient>
<radialGradient id="paint6_radial_692_1826" cx="0" cy="0" r="1" gradientUnits="userSpaceOnUse" gradientTransform="translate(156.35 111.309) rotate(180) scale(38.311 20.1909)">
<stop stop-color="#E1E1E1"/>
<stop offset="1" stop-color="#FFF4DA"/>
</radialGradient>
<radialGradient id="paint7_radial_692_1826" cx="0" cy="0" r="1" gradientUnits="userSpaceOnUse" gradientTransform="translate(156.35 111.309) rotate(180) scale(38.311 20.1909)">
<stop stop-color="#E1E1E1"/>
<stop offset="1" stop-color="#FFF4DA"/>
</radialGradient>
<radialGradient id="paint8_radial_692_1826" cx="0" cy="0" r="1" gradientUnits="userSpaceOnUse" gradientTransform="translate(59.0197 17.6024) scale(59.0197 17.6024)">
<stop stop-color="#E1E1E1"/>
<stop offset="1" stop-color="#FFF4DA"/>
</radialGradient>
<radialGradient id="paint9_radial_692_1826" cx="0" cy="0" r="1" gradientUnits="userSpaceOnUse" gradientTransform="translate(59.0197 17.6024) scale(59.0197 17.6024)">
<stop stop-color="#E1E1E1"/>
<stop offset="1" stop-color="#FFF4DA"/>
</radialGradient>
<radialGradient id="paint10_radial_692_1826" cx="0" cy="0" r="1" gradientUnits="userSpaceOnUse" gradientTransform="translate(59.0197 17.6024) scale(59.0197 17.6024)">
<stop stop-color="#E1E1E1"/>
<stop offset="1" stop-color="#FFF4DA"/>
</radialGradient>
<radialGradient id="paint11_radial_692_1826" cx="0" cy="0" r="1" gradientUnits="userSpaceOnUse" gradientTransform="translate(59.0197 17.6024) scale(59.0197 17.6024)">
<stop stop-color="#E1E1E1"/>
<stop offset="1" stop-color="#FFF4DA"/>
</radialGradient>
<radialGradient id="paint12_radial_692_1826" cx="0" cy="0" r="1" gradientUnits="userSpaceOnUse" gradientTransform="translate(59.0197 17.6024) scale(59.0197 17.6024)">
<stop stop-color="#E1E1E1"/>
<stop offset="1" stop-color="#FFF4DA"/>
</radialGradient>
<radialGradient id="paint13_radial_692_1826" cx="0" cy="0" r="1" gradientUnits="userSpaceOnUse" gradientTransform="translate(59.0197 17.6024) scale(59.0197 17.6024)">
<stop stop-color="#E1E1E1"/>
<stop offset="1" stop-color="#FFF4DA"/>
</radialGradient>
<radialGradient id="paint14_radial_692_1826" cx="0" cy="0" r="1" gradientUnits="userSpaceOnUse" gradientTransform="translate(59.0197 17.6024) scale(59.0197 17.6024)">
<stop stop-color="#E1E1E1"/>
<stop offset="1" stop-color="#FFF4DA"/>
</radialGradient>
<radialGradient id="paint15_radial_692_1826" cx="0" cy="0" r="1" gradientUnits="userSpaceOnUse" gradientTransform="translate(59.0197 17.6024) scale(59.0197 17.6024)">
<stop stop-color="#E1E1E1"/>
<stop offset="1" stop-color="#FFF4DA"/>
</radialGradient>
<radialGradient id="paint16_radial_692_1826" cx="0" cy="0" r="1" gradientUnits="userSpaceOnUse" gradientTransform="translate(177.059 17.6024) rotate(180) scale(59.0197 17.6024)">
<stop stop-color="#E1E1E1"/>
<stop offset="1" stop-color="#FFF4DA"/>
</radialGradient>
<radialGradient id="paint17_radial_692_1826" cx="0" cy="0" r="1" gradientUnits="userSpaceOnUse" gradientTransform="translate(177.059 17.6024) rotate(180) scale(59.0197 17.6024)">
<stop stop-color="#E1E1E1"/>
<stop offset="1" stop-color="#FFF4DA"/>
</radialGradient>
<radialGradient id="paint18_radial_692_1826" cx="0" cy="0" r="1" gradientUnits="userSpaceOnUse" gradientTransform="translate(177.059 17.6024) rotate(180) scale(59.0197 17.6024)">
<stop stop-color="#E1E1E1"/>
<stop offset="1" stop-color="#FFF4DA"/>
</radialGradient>
<radialGradient id="paint19_radial_692_1826" cx="0" cy="0" r="1" gradientUnits="userSpaceOnUse" gradientTransform="translate(177.059 17.6024) rotate(180) scale(59.0197 17.6024)">
<stop stop-color="#E1E1E1"/>
<stop offset="1" stop-color="#FFF4DA"/>
</radialGradient>
<radialGradient id="paint20_radial_692_1826" cx="0" cy="0" r="1" gradientUnits="userSpaceOnUse" gradientTransform="translate(177.059 17.6024) rotate(180) scale(59.0197 17.6024)">
<stop stop-color="#E1E1E1"/>
<stop offset="1" stop-color="#FFF4DA"/>
</radialGradient>
<radialGradient id="paint21_radial_692_1826" cx="0" cy="0" r="1" gradientUnits="userSpaceOnUse" gradientTransform="translate(177.059 17.6024) rotate(180) scale(59.0197 17.6024)">
<stop stop-color="#E1E1E1"/>
<stop offset="1" stop-color="#FFF4DA"/>
</radialGradient>
<radialGradient id="paint22_radial_692_1826" cx="0" cy="0" r="1" gradientUnits="userSpaceOnUse" gradientTransform="translate(177.059 17.6024) rotate(180) scale(59.0197 17.6024)">
<stop stop-color="#E1E1E1"/>
<stop offset="1" stop-color="#FFF4DA"/>
</radialGradient>
<radialGradient id="paint23_radial_692_1826" cx="0" cy="0" r="1" gradientUnits="userSpaceOnUse" gradientTransform="translate(177.059 17.6024) rotate(180) scale(59.0197 17.6024)">
<stop stop-color="#E1E1E1"/>
<stop offset="1" stop-color="#FFF4DA"/>
</radialGradient>
</defs>
</svg>
