<svg width="237" height="132" viewBox="0 0 237 132" fill="none" xmlns="http://www.w3.org/2000/svg">
<path d="M50.7125 108.06C49.3889 108.487 47.9214 108.504 46.7169 107.809C44.5794 106.575 44.1412 105.154 44.5234 102.508V102.508C42.8798 103.056 42.063 104.953 43.0339 106.388C43.9977 107.812 45.0937 108.974 46.6267 110.246C47.9171 111.316 49.5696 111.855 51.2458 111.812C56.4406 111.679 59.0349 110.851 62.1257 108.72C61.1051 110.641 61.1618 111.76 61.9885 113.6C62.0605 113.76 62.2568 113.822 62.4077 113.731C64.0825 112.73 65.0039 111.892 66.2674 109.756C66.2154 114.032 66.9843 113.977 70.4091 114.933C67.5194 110.86 68.0525 109.221 70.1981 106.254C70.9958 105.151 72.1259 104.331 73.4053 103.866L78.5776 101.985C81.3342 100.982 84.3487 100.942 87.1313 101.869L104.173 107.55C104.307 107.435 104.442 107.326 104.578 107.223V104.508C104.578 103.403 105.474 102.508 106.578 102.508H108.791C109.896 102.508 110.791 103.403 110.791 104.508V105.614H111.826V103.472C111.826 102.368 110.931 101.472 109.826 101.472H105.543C104.438 101.472 103.543 102.368 103.543 103.472V106.65C98.7736 103.748 93.5321 101.584 86.7257 99.7769C82.8456 98.747 78.7534 99.0145 74.9328 100.247L50.7125 108.06Z" fill="url(#paint0_radial_692_1746)"/>
<path fill-rule="evenodd" clip-rule="evenodd" d="M118.039 111.827V108.721C115.458 105.74 114.163 105.799 111.826 105.614H110.791C108.063 105.589 106.222 105.979 104.578 107.223V107.685L104.173 107.55C103.27 108.327 102.409 109.382 101.472 110.791C94.4225 108.167 92.2419 105.859 84.6304 104.117C82.7927 103.696 80.8379 103.854 79.1733 104.739C77.1406 105.82 75.7478 107.075 74.4004 109.235C73.7976 110.201 73.7049 111.42 74.2146 112.438C75.0495 114.107 76.2498 115.417 79.1376 117.128C80.1186 117.709 81.3505 117.62 82.2784 116.957L86.28 114.099C87.2184 113.429 87.4128 112.09 86.6211 111.251C84.8302 109.354 83.7227 109.09 81.7989 109.756C83.0242 110.067 83.7473 110.456 84.396 111.688C84.7596 112.378 84.5518 113.216 84 113.767L82.2754 115.492C81.3706 116.397 79.9663 116.664 78.9055 115.948C77.3915 114.927 76.4781 113.802 75.4876 112.283C74.8937 111.372 74.8539 110.185 75.48 109.296C77.188 106.871 79.0763 106.022 82.8343 105.614C87.5138 105.758 93.9734 109.592 101.472 112.862C101.61 115.305 101.827 117.608 105.43 119.531C106.15 119.915 107.027 119.733 107.604 119.156L110.252 116.508C110.55 116.21 110.55 115.727 110.252 115.429V115.429C109.971 115.149 109.521 115.134 109.21 115.381C104.882 118.812 103.349 117.017 102.508 112.862C108.784 113.743 111.6 112.063 112.862 106.65H114.933L118.039 111.827ZM102.508 111.827C105.324 107.593 107.416 106.549 111.826 106.65C109.581 111.782 107.623 113.001 102.508 111.827Z" fill="url(#paint1_radial_692_1746)"/>
<path d="M118.039 114.933V111.827C116.112 115.763 116.189 118.074 110.791 119.075C111.96 121.038 112.806 121.636 114.933 121.146C115.324 125.201 115.717 127.472 118.039 131.5V125.287C116.703 121.107 116.952 118.865 118.039 114.933Z" fill="url(#paint2_radial_692_1746)"/>
<path d="M115.968 98.3662C116.06 94.792 116.696 93.3936 118.039 91.1182V105.614C115.722 100.811 114.342 99.4138 111.826 99.4015C113.364 97.8121 114.276 97.3638 115.968 98.3662Z" fill="url(#paint3_radial_692_1746)"/>
<path d="M185.366 108.06C186.689 108.487 188.157 108.504 189.361 107.809C191.499 106.575 191.937 105.154 191.555 102.508V102.508C193.198 103.056 194.015 104.953 193.044 106.388C192.08 107.812 190.984 108.974 189.451 110.246C188.161 111.316 186.509 111.855 184.832 111.812C179.637 111.679 177.043 110.851 173.952 108.72C174.973 110.641 174.916 111.76 174.09 113.6C174.018 113.76 173.821 113.822 173.67 113.731C171.996 112.73 171.074 111.892 169.811 109.756C169.863 114.032 169.094 113.977 165.669 114.933C168.559 110.86 168.026 109.221 165.88 106.254C165.082 105.151 163.952 104.331 162.673 103.866L157.5 101.985C154.744 100.982 151.729 100.942 148.947 101.869L131.905 107.55C131.771 107.435 131.636 107.326 131.5 107.223V104.508C131.5 103.403 130.604 102.508 129.5 102.508H127.287C126.183 102.508 125.287 103.403 125.287 104.508V105.614H124.252V103.472C124.252 102.368 125.147 101.472 126.252 101.472H130.535C131.64 101.472 132.535 102.368 132.535 103.472V106.65C137.304 103.748 142.546 101.584 149.352 99.7769C153.232 98.747 157.325 99.0145 161.145 100.247L185.366 108.06Z" fill="url(#paint4_radial_692_1746)"/>
<path fill-rule="evenodd" clip-rule="evenodd" d="M118.039 111.827V108.721C120.62 105.74 121.915 105.799 124.252 105.614H125.287C128.015 105.589 129.856 105.979 131.5 107.223V107.685L131.905 107.55C132.808 108.327 133.669 109.382 134.606 110.791C141.656 108.167 143.836 105.859 151.448 104.117C153.285 103.696 155.24 103.854 156.905 104.739C158.938 105.82 160.33 107.075 161.678 109.235C162.281 110.201 162.373 111.42 161.863 112.438C161.029 114.107 159.828 115.417 156.941 117.128C155.96 117.709 154.728 117.62 153.8 116.957L149.798 114.099C148.86 113.429 148.665 112.09 149.457 111.251C151.248 109.354 152.355 109.09 154.279 109.756C153.054 110.067 152.331 110.456 151.682 111.688C151.319 112.378 151.526 113.216 152.078 113.767L153.803 115.492C154.708 116.397 156.112 116.664 157.173 115.948C158.687 114.927 159.6 113.802 160.591 112.283C161.184 111.372 161.224 110.185 160.598 109.296C158.89 106.871 157.002 106.022 153.244 105.614C148.564 105.758 142.105 109.592 134.606 112.862C134.468 115.305 134.251 117.608 130.648 119.531C129.928 119.915 129.051 119.733 128.474 119.156L125.826 116.508C125.528 116.21 125.528 115.727 125.826 115.429V115.429C126.107 115.149 126.557 115.134 126.868 115.381C131.196 118.812 132.729 117.017 133.571 112.862C127.294 113.743 124.478 112.063 123.216 106.65H121.145L118.039 111.827ZM133.571 111.827C130.754 107.593 128.662 106.549 124.252 106.65C126.497 111.782 128.455 113.001 133.571 111.827Z" fill="url(#paint5_radial_692_1746)"/>
<path d="M118.039 114.933V111.827C119.967 115.763 119.889 118.074 125.287 119.075C124.119 121.038 123.273 121.636 121.145 121.146C120.754 125.201 120.361 127.472 118.039 131.5V125.287C119.375 121.107 119.126 118.865 118.039 114.933Z" fill="url(#paint6_radial_692_1746)"/>
<path d="M120.11 98.3662C120.019 94.792 119.382 93.3936 118.039 91.1182V105.614C120.356 100.811 121.736 99.4138 124.252 99.4015C122.714 97.8121 121.802 97.3638 120.11 98.3662Z" fill="url(#paint7_radial_692_1746)"/>
<path d="M80.9688 46.8984C81.4414 46.8984 82.0645 46.8841 82.8379 46.8555C83.6257 46.8268 84.5638 46.7839 85.6523 46.7266V46.8555C85.6523 47.543 85.5521 47.8867 85.3516 47.8867C84.349 47.8867 83.6686 48.0085 83.3105 48.252C82.9525 48.4954 82.7734 48.9036 82.7734 49.4766C82.7734 49.8203 82.8307 50.2786 82.9453 50.8516L86.2539 68.8555L96.5664 51.1953C96.9102 50.5938 97.082 49.9062 97.082 49.1328C97.082 48.7604 96.8385 48.4596 96.3516 48.2305C95.8646 48.0013 95.3346 47.8867 94.7617 47.8867C94.7044 47.8867 94.6758 47.8151 94.6758 47.6719C94.6758 47.1992 94.776 46.8841 94.9766 46.7266C96.0078 46.7839 96.8529 46.8268 97.5117 46.8555C98.1849 46.8841 98.6719 46.8984 98.9727 46.8984C99.3021 46.8984 99.8177 46.8841 100.52 46.8555C101.236 46.8268 102.138 46.7839 103.227 46.7266V46.9844C103.169 47.5859 103.055 47.8867 102.883 47.8867C102.339 47.8867 101.723 48.0729 101.035 48.4453C100.348 48.8177 99.7891 49.3763 99.3594 50.1211L85.3516 74.1836C84.8216 75.1289 84.2773 75.6016 83.7188 75.6016C83.5755 75.6016 83.4466 75.5156 83.332 75.3438L79.0781 51.3242C78.9062 50.3503 78.6914 49.5625 78.4336 48.9609C78.2904 48.6458 77.9681 48.388 77.4668 48.1875C76.9655 47.987 76.5573 47.8867 76.2422 47.8867C76.1849 47.8867 76.1562 47.8151 76.1562 47.6719C76.1562 47.1992 76.2565 46.8841 76.457 46.7266C77.6315 46.7839 78.5911 46.8268 79.3359 46.8555C80.0951 46.8841 80.6393 46.8984 80.9688 46.8984ZM108.211 56.3086C109.901 56.3086 111.212 56.8958 112.143 58.0703C113.074 59.2448 113.539 60.8633 113.539 62.9258C113.539 64.401 113.253 65.8691 112.68 67.3301C112.107 68.7767 111.355 70.0944 110.424 71.2832C109.493 72.472 108.469 73.4245 107.352 74.1406C106.234 74.8568 105.132 75.2148 104.043 75.2148C102.324 75.2148 101.014 74.6562 100.111 73.5391C99.209 72.4219 98.7578 70.832 98.7578 68.7695C98.7578 67.2799 99.0371 65.8047 99.5957 64.3438C100.169 62.8685 100.921 61.5293 101.852 60.3262C102.783 59.1087 103.799 58.1348 104.902 57.4043C106.02 56.6738 107.122 56.3086 108.211 56.3086ZM107.695 58.0703C106.979 58.0703 106.285 58.3854 105.611 59.0156C104.938 59.6315 104.329 60.4408 103.785 61.4434C103.241 62.446 102.811 63.5417 102.496 64.7305C102.181 65.9193 102.023 67.0794 102.023 68.2109C102.023 69.8724 102.288 71.1615 102.818 72.0781C103.348 72.9948 104.014 73.4531 104.816 73.4531C105.533 73.4531 106.213 73.1452 106.857 72.5293C107.516 71.8991 108.104 71.0827 108.619 70.0801C109.135 69.0632 109.536 67.9603 109.822 66.7715C110.123 65.5827 110.273 64.4154 110.273 63.2695C110.273 61.5794 110.044 60.2904 109.586 59.4023C109.128 58.5143 108.497 58.0703 107.695 58.0703ZM129.223 56.3086C130.483 56.3086 131.629 56.4948 132.66 56.8672L130.039 70.4453L128.105 81.3164C128.048 81.7174 128.02 82.0182 128.02 82.2188C128.02 82.6914 128.17 83.0208 128.471 83.207C128.786 83.4076 129.294 83.5078 129.996 83.5078C130.053 83.5078 130.082 83.5938 130.082 83.7656C130.082 84.224 130.01 84.5677 129.867 84.7969C129.767 84.7969 129.645 84.7969 129.502 84.7969C129.359 84.7969 129.187 84.7897 128.986 84.7754C128.8 84.7611 128.635 84.7539 128.492 84.7539C128.349 84.7539 128.234 84.7539 128.148 84.7539C126.057 84.7539 123.98 84.8685 121.918 85.0977C121.918 85.026 121.911 84.9473 121.896 84.8613C121.882 84.7754 121.875 84.6823 121.875 84.582C121.875 84.0664 121.947 83.8086 122.09 83.8086C122.348 83.8086 122.627 83.7871 122.928 83.7441C123.229 83.7012 123.644 83.472 124.174 83.0566C124.704 82.6413 125.04 82.0612 125.184 81.3164L127.375 69.6289C127.174 69.9727 126.945 70.3307 126.688 70.7031C126.444 71.0612 126.172 71.4264 125.871 71.7988C125.47 72.3001 124.983 72.8158 124.41 73.3457C123.837 73.8757 123.25 74.3197 122.648 74.6777C122.061 75.0358 121.517 75.2148 121.016 75.2148C119.755 75.2148 118.753 74.6491 118.008 73.5176C117.263 72.3861 116.891 71.0182 116.891 69.4141C116.891 67.3802 117.507 65.3392 118.738 63.291C119.569 61.916 120.55 60.7057 121.682 59.6602C122.827 58.6146 124.052 57.7982 125.355 57.2109C126.659 56.6094 127.948 56.3086 129.223 56.3086ZM127.375 58.2852C126.444 58.2852 125.542 58.5788 124.668 59.166C123.794 59.7533 123.014 60.5267 122.326 61.4863C121.639 62.446 121.087 63.513 120.672 64.6875C120.271 65.8477 120.07 67.0078 120.07 68.168C120.07 71.2044 120.815 72.7227 122.305 72.7227C122.835 72.7227 123.415 72.4362 124.045 71.8633C124.689 71.276 125.32 70.5098 125.936 69.5645C126.551 68.6191 127.096 67.5951 127.568 66.4922C128.055 65.375 128.406 64.2865 128.621 63.2266L129.48 58.8438C129.137 58.4714 128.435 58.2852 127.375 58.2852ZM143.918 56.3086C145.236 56.3086 146.188 56.6452 146.775 57.3184C147.363 57.9915 147.656 58.7292 147.656 59.5312C147.656 60.7917 147.012 62.0378 145.723 63.2695C144.863 64.0859 143.939 64.7878 142.951 65.375C141.963 65.9479 141.01 66.3848 140.094 66.6855C139.177 66.9863 138.404 67.1367 137.773 67.1367C137.659 67.1367 137.602 67.638 137.602 68.6406C137.602 69.9297 137.852 70.9108 138.354 71.584C138.855 72.2572 139.535 72.5938 140.395 72.5938C140.753 72.5938 141.182 72.4935 141.684 72.293C142.185 72.0924 142.572 71.8776 142.844 71.6484C143.13 71.4049 143.288 71.276 143.316 71.2617C143.345 71.2474 143.402 71.2044 143.488 71.1328C143.574 71.0469 143.832 70.7891 144.262 70.3594L144.391 70.2305C144.448 70.2305 144.555 70.3665 144.713 70.6387C144.87 70.9108 144.949 71.1042 144.949 71.2188C144.691 71.6771 144.233 72.2285 143.574 72.873C142.93 73.5033 142.199 74.0618 141.383 74.5488C140.566 75.0215 139.764 75.2578 138.977 75.2578C137.487 75.2578 136.348 74.6777 135.561 73.5176C134.773 72.3574 134.379 70.7604 134.379 68.7266C134.379 67.3516 134.665 65.9408 135.238 64.4941C135.811 63.0332 136.57 61.6868 137.516 60.4551C138.461 59.2233 139.492 58.2279 140.609 57.4688C141.727 56.6953 142.829 56.3086 143.918 56.3086ZM143.488 58.0703C142.815 58.0703 142.149 58.3496 141.49 58.9082C140.831 59.4668 140.23 60.1543 139.686 60.9707C139.141 61.7871 138.704 62.6107 138.375 63.4414C138.06 64.2578 137.902 64.931 137.902 65.4609C137.902 65.5755 137.96 65.6328 138.074 65.6328C138.59 65.6328 139.213 65.4466 139.943 65.0742C140.674 64.6875 141.39 64.1862 142.092 63.5703C142.794 62.9544 143.381 62.2812 143.854 61.5508C144.326 60.806 144.562 60.0755 144.562 59.3594C144.562 58.5 144.204 58.0703 143.488 58.0703ZM161.879 56.3086C162.939 56.3086 163.984 56.4948 165.016 56.8672L162.395 70.4453C162.309 70.7891 162.266 71.1471 162.266 71.5195C162.266 72.2357 162.409 72.5938 162.695 72.5938C163.053 72.5938 163.483 72.3431 163.984 71.8418C164.486 71.3262 164.915 70.8893 165.273 70.5312L165.531 70.2305C165.589 70.2305 165.696 70.3665 165.854 70.6387C166.011 70.9108 166.09 71.1042 166.09 71.2188C165.846 71.6341 165.402 72.1641 164.758 72.8086C164.128 73.4531 163.44 74.026 162.695 74.5273C161.951 75.0143 161.277 75.2578 160.676 75.2578C160.217 75.2578 159.859 75.0501 159.602 74.6348C159.344 74.2194 159.215 73.6823 159.215 73.0234C159.215 72.5794 159.315 71.8203 159.516 70.7461L159.666 69.9941C159.709 69.7936 159.73 69.6719 159.73 69.6289C159.501 70.0586 159.172 70.5885 158.742 71.2188C158.312 71.8346 157.818 72.4505 157.26 73.0664C156.701 73.6823 156.114 74.1979 155.498 74.6133C154.882 75.0143 154.273 75.2148 153.672 75.2148C152.411 75.2148 151.416 74.6491 150.686 73.5176C149.955 72.3861 149.59 71.0182 149.59 69.4141C149.59 67.3659 150.199 65.3249 151.416 63.291C152.232 61.916 153.206 60.7057 154.338 59.6602C155.484 58.6146 156.708 57.7982 158.012 57.2109C159.315 56.6094 160.604 56.3086 161.879 56.3086ZM160.074 58.2852C159.229 58.2852 158.377 58.5859 157.518 59.1875C156.658 59.7747 155.87 60.5697 155.154 61.5723C154.438 62.5605 153.858 63.6634 153.414 64.8809C152.984 66.084 152.77 67.2943 152.77 68.5117C152.77 71.319 153.5 72.7227 154.961 72.7227C155.477 72.7227 156.035 72.4362 156.637 71.8633C157.238 71.2904 157.833 70.5312 158.42 69.5859C159.007 68.6406 159.523 67.6165 159.967 66.5137C160.425 65.3965 160.762 64.3008 160.977 63.2266L161.836 58.8438C161.492 58.4714 160.905 58.2852 160.074 58.2852Z" fill="white"/>
<path d="M0 14.4961C6.30012 20.0984 15.0791 19.1979 30.687 15.1421C32.2497 14.736 33.9168 14.9601 35.3059 15.7832L61.0905 31.063L35.3304 19.6141C33.9205 18.9874 32.3183 18.9353 30.8588 19.4358C12.5496 25.7159 4.73674 24.7283 0 14.4961Z" fill="url(#paint8_radial_692_1746)"/>
<path d="M16.5669 25.8858C22.7094 27.5488 34.4861 19.1752 43.5027 24.2129C35.7991 20.3448 24.9274 34.7378 16.5669 25.8858Z" fill="url(#paint9_radial_692_1746)"/>
<path d="M42.4528 34.1693C40.4746 32.9379 39.8039 31.791 39.5364 30.2054C39.314 28.8871 40.2138 27.6374 41.514 27.3262C46.4064 26.1551 49.6595 27.3172 54.8779 31.063C50.3759 26.3362 46.8249 25.2844 39.6469 25.78C38.7972 25.8387 38.0191 26.2751 37.5081 26.9564L36.1669 28.7446C35.6047 29.4943 35.6307 30.5432 36.2784 31.2205C38.4425 33.4837 39.9798 34.1156 42.4528 34.1693Z" fill="url(#paint10_radial_692_1746)"/>
<path d="M61.0905 28.9921C48.8725 19.5072 53.131 18.6378 60.0551 10.3543C56.6285 8.93238 54.8937 8.83857 52.8071 12.4252C51.2879 8.29387 49.7783 6.42726 45.559 4.14173C43.8524 8.52031 44.6321 10.6991 46.5945 14.4961C42.9378 12.0347 40.7471 11.3823 36.2402 13.4606C46.3046 17.727 45.2926 18.8748 61.0905 28.9921Z" fill="url(#paint11_radial_692_1746)"/>
<path d="M78.6929 22.7441C78.6929 22.1918 79.1406 21.7441 79.6929 21.7441H79.7638C80.3161 21.7441 80.7638 22.1918 80.7638 22.7441V25.9213C80.7638 26.4735 80.3161 26.9213 79.7638 26.9213H74.4803C73.3757 26.9213 72.4803 26.0258 72.4803 24.9213V19.6024C72.4803 18.4978 73.3757 17.6024 74.4803 17.6024H78.7281C80.6137 17.6024 82.4755 18.023 84.178 18.8337V18.8337C85.2965 19.3663 86.1249 20.3629 86.4441 21.5599L88.3399 28.6695C89.2063 31.9182 86.6836 35.0788 83.3237 34.9544L68.0679 34.3894C64.7776 34.2675 62.2002 31.5169 62.2923 28.2256L62.6948 13.8426C62.7856 10.5955 65.4441 8.01038 68.6924 8.01038H83.0387C86.0229 8.01038 88.8896 9.21712 90.915 11.4088C101.807 23.194 109.097 33.3225 115.395 32.2299C115.685 32.1796 115.968 32.3916 115.968 32.686V32.686C115.968 32.9325 115.766 33.1318 115.519 33.1285C109.37 33.045 105.37 32.4313 87.653 13.254C86.5367 12.0456 85.0793 11.1983 83.4735 10.8414L77.8584 9.59364C77.0431 9.41248 76.199 9.4035 75.3801 9.56728L71.091 10.4251C68.2865 10.986 66.2677 13.4485 66.2677 16.3086V27.0984C66.2677 29.8599 68.5063 32.0984 71.2677 32.0984H80.9055C83.1146 32.0984 84.9055 30.3076 84.9055 28.0984V22.6378C84.9055 20.4287 83.1146 18.6378 80.9055 18.6378H76.5512C75.4466 18.6378 74.5512 19.5332 74.5512 20.6378V24.8858C74.5512 25.4381 74.9989 25.8858 75.5512 25.8858H77.6929C78.2452 25.8858 78.6929 25.4381 78.6929 24.8858V22.7441Z" fill="url(#paint12_radial_692_1746)"/>
<path d="M104.412 33.0631C96.4743 29.9513 88.3242 12.4066 78.6929 13.4606C91.6665 19.2326 92.9183 31.4785 104.412 33.0631Z" fill="url(#paint13_radial_692_1746)"/>
<path d="M111.827 30.0276C106.485 21.6827 106.361 16.9143 110.791 8.28346C105.363 9.71409 97.6256 19.5114 111.827 30.0276Z" fill="url(#paint14_radial_692_1746)"/>
<path d="M118.039 10.3543C113.102 14.0549 110.405 23.2793 118.039 32.0984C106.33 25.6888 109.793 12.7713 118.039 0V10.3543Z" fill="url(#paint15_radial_692_1746)"/>
<path d="M236.079 14.4961C229.779 20.0984 221 19.1979 205.392 15.1421C203.829 14.736 202.162 14.9601 200.773 15.7832L174.989 31.063L200.749 19.6141C202.159 18.9874 203.761 18.9353 205.22 19.4358C223.529 25.7159 231.342 24.7283 236.079 14.4961Z" fill="url(#paint16_radial_692_1746)"/>
<path d="M219.512 25.8858C213.37 27.5488 201.593 19.1752 192.576 24.2129C200.28 20.3448 211.152 34.7378 219.512 25.8858Z" fill="url(#paint17_radial_692_1746)"/>
<path d="M193.626 34.1693C195.605 32.9379 196.275 31.791 196.543 30.2054C196.765 28.8871 195.865 27.6374 194.565 27.3262C189.673 26.1551 186.42 27.3172 181.201 31.063C185.703 26.3362 189.254 25.2844 196.432 25.78C197.282 25.8387 198.06 26.2751 198.571 26.9564L199.912 28.7446C200.474 29.4943 200.448 30.5432 199.801 31.2205C197.637 33.4837 196.099 34.1156 193.626 34.1693Z" fill="url(#paint18_radial_692_1746)"/>
<path d="M174.989 28.9921C187.207 19.5072 182.948 18.6378 176.024 10.3543C179.451 8.93238 181.185 8.83857 183.272 12.4252C184.791 8.29387 186.301 6.42726 190.52 4.14173C192.227 8.52031 191.447 10.6991 189.485 14.4961C193.141 12.0347 195.332 11.3823 199.839 13.4606C189.775 17.727 190.787 18.8748 174.989 28.9921Z" fill="url(#paint19_radial_692_1746)"/>
<path d="M157.386 22.7441C157.386 22.1918 156.938 21.7441 156.386 21.7441H156.315C155.763 21.7441 155.315 22.1918 155.315 22.7441V25.9213C155.315 26.4735 155.763 26.9213 156.315 26.9213H161.599C162.703 26.9213 163.599 26.0258 163.599 24.9213V19.6024C163.599 18.4978 162.703 17.6024 161.599 17.6024H157.351C155.465 17.6024 153.604 18.023 151.901 18.8337V18.8337C150.783 19.3663 149.954 20.3629 149.635 21.5599L147.739 28.6695C146.873 31.9182 149.396 35.0788 152.755 34.9544L168.011 34.3894C171.301 34.2675 173.879 31.5169 173.787 28.2256L173.384 13.8426C173.293 10.5955 170.635 8.01038 167.387 8.01038H153.04C150.056 8.01038 147.19 9.21712 145.164 11.4088C134.273 23.194 126.982 33.3225 120.684 32.2299C120.394 32.1796 120.111 32.3916 120.111 32.686V32.686C120.111 32.9325 120.313 33.1318 120.56 33.1285C126.709 33.045 130.709 32.4313 148.426 13.254C149.542 12.0456 151 11.1983 152.606 10.8414L158.221 9.59364C159.036 9.41248 159.88 9.4035 160.699 9.56728L164.988 10.4251C167.793 10.986 169.811 13.4485 169.811 16.3086V27.0984C169.811 29.8599 167.573 32.0984 164.811 32.0984H155.174C152.964 32.0984 151.174 30.3076 151.174 28.0984V22.6378C151.174 20.4287 152.964 18.6378 155.174 18.6378H159.528C160.633 18.6378 161.528 19.5332 161.528 20.6378V24.8858C161.528 25.4381 161.08 25.8858 160.528 25.8858H158.386C157.834 25.8858 157.386 25.4381 157.386 24.8858V22.7441Z" fill="url(#paint20_radial_692_1746)"/>
<path d="M131.667 33.0631C139.605 29.9513 147.755 12.4066 157.386 13.4606C144.413 19.2326 143.161 31.4785 131.667 33.0631Z" fill="url(#paint21_radial_692_1746)"/>
<path d="M124.252 30.0276C129.594 21.6827 129.718 16.9143 125.288 8.28346C130.716 9.71409 138.454 19.5114 124.252 30.0276Z" fill="url(#paint22_radial_692_1746)"/>
<path d="M118.04 10.3543C122.977 14.0549 125.674 23.2793 118.04 32.0984C129.75 25.6888 126.286 12.7713 118.04 0V10.3543Z" fill="url(#paint23_radial_692_1746)"/>
<defs>
<radialGradient id="paint0_radial_692_1746" cx="0" cy="0" r="1" gradientUnits="userSpaceOnUse" gradientTransform="translate(79.728 111.309) scale(38.311 20.1909)">
<stop stop-color="#E1E1E1"/>
<stop offset="1" stop-color="#FFF4DA"/>
</radialGradient>
<radialGradient id="paint1_radial_692_1746" cx="0" cy="0" r="1" gradientUnits="userSpaceOnUse" gradientTransform="translate(79.728 111.309) scale(38.311 20.1909)">
<stop stop-color="#E1E1E1"/>
<stop offset="1" stop-color="#FFF4DA"/>
</radialGradient>
<radialGradient id="paint2_radial_692_1746" cx="0" cy="0" r="1" gradientUnits="userSpaceOnUse" gradientTransform="translate(79.728 111.309) scale(38.311 20.1909)">
<stop stop-color="#E1E1E1"/>
<stop offset="1" stop-color="#FFF4DA"/>
</radialGradient>
<radialGradient id="paint3_radial_692_1746" cx="0" cy="0" r="1" gradientUnits="userSpaceOnUse" gradientTransform="translate(79.728 111.309) scale(38.311 20.1909)">
<stop stop-color="#E1E1E1"/>
<stop offset="1" stop-color="#FFF4DA"/>
</radialGradient>
<radialGradient id="paint4_radial_692_1746" cx="0" cy="0" r="1" gradientUnits="userSpaceOnUse" gradientTransform="translate(156.35 111.309) rotate(180) scale(38.311 20.1909)">
<stop stop-color="#E1E1E1"/>
<stop offset="1" stop-color="#FFF4DA"/>
</radialGradient>
<radialGradient id="paint5_radial_692_1746" cx="0" cy="0" r="1" gradientUnits="userSpaceOnUse" gradientTransform="translate(156.35 111.309) rotate(180) scale(38.311 20.1909)">
<stop stop-color="#E1E1E1"/>
<stop offset="1" stop-color="#FFF4DA"/>
</radialGradient>
<radialGradient id="paint6_radial_692_1746" cx="0" cy="0" r="1" gradientUnits="userSpaceOnUse" gradientTransform="translate(156.35 111.309) rotate(180) scale(38.311 20.1909)">
<stop stop-color="#E1E1E1"/>
<stop offset="1" stop-color="#FFF4DA"/>
</radialGradient>
<radialGradient id="paint7_radial_692_1746" cx="0" cy="0" r="1" gradientUnits="userSpaceOnUse" gradientTransform="translate(156.35 111.309) rotate(180) scale(38.311 20.1909)">
<stop stop-color="#E1E1E1"/>
<stop offset="1" stop-color="#FFF4DA"/>
</radialGradient>
<radialGradient id="paint8_radial_692_1746" cx="0" cy="0" r="1" gradientUnits="userSpaceOnUse" gradientTransform="translate(59.0197 17.6024) scale(59.0197 17.6024)">
<stop stop-color="#E1E1E1"/>
<stop offset="1" stop-color="#FFF4DA"/>
</radialGradient>
<radialGradient id="paint9_radial_692_1746" cx="0" cy="0" r="1" gradientUnits="userSpaceOnUse" gradientTransform="translate(59.0197 17.6024) scale(59.0197 17.6024)">
<stop stop-color="#E1E1E1"/>
<stop offset="1" stop-color="#FFF4DA"/>
</radialGradient>
<radialGradient id="paint10_radial_692_1746" cx="0" cy="0" r="1" gradientUnits="userSpaceOnUse" gradientTransform="translate(59.0197 17.6024) scale(59.0197 17.6024)">
<stop stop-color="#E1E1E1"/>
<stop offset="1" stop-color="#FFF4DA"/>
</radialGradient>
<radialGradient id="paint11_radial_692_1746" cx="0" cy="0" r="1" gradientUnits="userSpaceOnUse" gradientTransform="translate(59.0197 17.6024) scale(59.0197 17.6024)">
<stop stop-color="#E1E1E1"/>
<stop offset="1" stop-color="#FFF4DA"/>
</radialGradient>
<radialGradient id="paint12_radial_692_1746" cx="0" cy="0" r="1" gradientUnits="userSpaceOnUse" gradientTransform="translate(59.0197 17.6024) scale(59.0197 17.6024)">
<stop stop-color="#E1E1E1"/>
<stop offset="1" stop-color="#FFF4DA"/>
</radialGradient>
<radialGradient id="paint13_radial_692_1746" cx="0" cy="0" r="1" gradientUnits="userSpaceOnUse" gradientTransform="translate(59.0197 17.6024) scale(59.0197 17.6024)">
<stop stop-color="#E1E1E1"/>
<stop offset="1" stop-color="#FFF4DA"/>
</radialGradient>
<radialGradient id="paint14_radial_692_1746" cx="0" cy="0" r="1" gradientUnits="userSpaceOnUse" gradientTransform="translate(59.0197 17.6024) scale(59.0197 17.6024)">
<stop stop-color="#E1E1E1"/>
<stop offset="1" stop-color="#FFF4DA"/>
</radialGradient>
<radialGradient id="paint15_radial_692_1746" cx="0" cy="0" r="1" gradientUnits="userSpaceOnUse" gradientTransform="translate(59.0197 17.6024) scale(59.0197 17.6024)">
<stop stop-color="#E1E1E1"/>
<stop offset="1" stop-color="#FFF4DA"/>
</radialGradient>
<radialGradient id="paint16_radial_692_1746" cx="0" cy="0" r="1" gradientUnits="userSpaceOnUse" gradientTransform="translate(177.059 17.6024) rotate(180) scale(59.0197 17.6024)">
<stop stop-color="#E1E1E1"/>
<stop offset="1" stop-color="#FFF4DA"/>
</radialGradient>
<radialGradient id="paint17_radial_692_1746" cx="0" cy="0" r="1" gradientUnits="userSpaceOnUse" gradientTransform="translate(177.059 17.6024) rotate(180) scale(59.0197 17.6024)">
<stop stop-color="#E1E1E1"/>
<stop offset="1" stop-color="#FFF4DA"/>
</radialGradient>
<radialGradient id="paint18_radial_692_1746" cx="0" cy="0" r="1" gradientUnits="userSpaceOnUse" gradientTransform="translate(177.059 17.6024) rotate(180) scale(59.0197 17.6024)">
<stop stop-color="#E1E1E1"/>
<stop offset="1" stop-color="#FFF4DA"/>
</radialGradient>
<radialGradient id="paint19_radial_692_1746" cx="0" cy="0" r="1" gradientUnits="userSpaceOnUse" gradientTransform="translate(177.059 17.6024) rotate(180) scale(59.0197 17.6024)">
<stop stop-color="#E1E1E1"/>
<stop offset="1" stop-color="#FFF4DA"/>
</radialGradient>
<radialGradient id="paint20_radial_692_1746" cx="0" cy="0" r="1" gradientUnits="userSpaceOnUse" gradientTransform="translate(177.059 17.6024) rotate(180) scale(59.0197 17.6024)">
<stop stop-color="#E1E1E1"/>
<stop offset="1" stop-color="#FFF4DA"/>
</radialGradient>
<radialGradient id="paint21_radial_692_1746" cx="0" cy="0" r="1" gradientUnits="userSpaceOnUse" gradientTransform="translate(177.059 17.6024) rotate(180) scale(59.0197 17.6024)">
<stop stop-color="#E1E1E1"/>
<stop offset="1" stop-color="#FFF4DA"/>
</radialGradient>
<radialGradient id="paint22_radial_692_1746" cx="0" cy="0" r="1" gradientUnits="userSpaceOnUse" gradientTransform="translate(177.059 17.6024) rotate(180) scale(59.0197 17.6024)">
<stop stop-color="#E1E1E1"/>
<stop offset="1" stop-color="#FFF4DA"/>
</radialGradient>
<radialGradient id="paint23_radial_692_1746" cx="0" cy="0" r="1" gradientUnits="userSpaceOnUse" gradientTransform="translate(177.059 17.6024) rotate(180) scale(59.0197 17.6024)">
<stop stop-color="#E1E1E1"/>
<stop offset="1" stop-color="#FFF4DA"/>
</radialGradient>
</defs>
</svg>
