<svg width="237" height="132" viewBox="0 0 237 132" fill="none" xmlns="http://www.w3.org/2000/svg">
<path d="M50.713 108.06C49.3894 108.487 47.9219 108.504 46.7174 107.809C44.5799 106.575 44.1417 105.154 44.5239 102.508V102.508C42.8803 103.056 42.0634 104.953 43.0344 106.388C43.9981 107.812 45.0942 108.974 46.6272 110.246C47.9176 111.316 49.57 111.855 51.2463 111.812C56.4411 111.679 59.0354 110.851 62.1261 108.72C61.1055 110.641 61.1623 111.76 61.9889 113.6C62.061 113.76 62.2573 113.822 62.4081 113.731C64.083 112.73 65.0044 111.892 66.2679 109.756C66.2159 114.032 66.9848 113.977 70.4096 114.933C67.5199 110.86 68.053 109.221 70.1985 106.254C70.9963 105.151 72.1264 104.331 73.4058 103.866L78.5781 101.985C81.3347 100.982 84.3491 100.942 87.1317 101.869L104.174 107.55C104.308 107.435 104.443 107.326 104.579 107.223V104.508C104.579 103.403 105.474 102.508 106.579 102.508H108.791C109.896 102.508 110.791 103.403 110.791 104.508V105.614H111.827V103.472C111.827 102.368 110.931 101.472 109.827 101.472H105.543C104.439 101.472 103.543 102.368 103.543 103.472V106.65C98.7741 103.748 93.5326 101.584 86.7262 99.7769C82.8461 98.747 78.7539 99.0145 74.9333 100.247L50.713 108.06Z" fill="url(#paint0_radial_692_254)"/>
<path fill-rule="evenodd" clip-rule="evenodd" d="M118.04 111.827V108.721C115.458 105.74 114.164 105.799 111.827 105.614H110.791C108.063 105.589 106.223 105.979 104.579 107.223V107.685L104.174 107.55C103.27 108.327 102.41 109.382 101.473 110.791C94.423 108.167 92.2423 105.859 84.6309 104.117C82.7932 103.696 80.8384 103.854 79.1738 104.739C77.1411 105.82 75.7483 107.075 74.4009 109.235C73.7981 110.201 73.7054 111.42 74.2151 112.438C75.05 114.107 76.2503 115.417 79.1381 117.128C80.1191 117.709 81.351 117.62 82.2789 116.957L86.2804 114.099C87.2189 113.429 87.4133 112.09 86.6216 111.251C84.8307 109.354 83.7232 109.09 81.7994 109.756C83.0247 110.067 83.7478 110.456 84.3965 111.688C84.7601 112.378 84.5523 113.216 84.0005 113.767L82.2759 115.492C81.3711 116.397 79.9668 116.664 78.906 115.948C77.392 114.927 76.4786 113.802 75.488 112.283C74.8942 111.372 74.8544 110.185 75.4804 109.296C77.1885 106.871 79.0768 106.022 82.8348 105.614C87.5143 105.758 93.9739 109.592 101.473 112.862C101.611 115.305 101.827 117.608 105.431 119.531C106.15 119.915 107.027 119.733 107.604 119.156L110.252 116.508C110.55 116.21 110.55 115.727 110.252 115.429V115.429C109.972 115.149 109.522 115.134 109.211 115.381C104.883 118.812 103.35 117.017 102.508 112.862C108.785 113.743 111.601 112.063 112.862 106.65H114.933L118.04 111.827ZM102.508 111.827C105.324 107.593 107.417 106.549 111.827 106.65C109.582 111.782 107.624 113.001 102.508 111.827Z" fill="url(#paint1_radial_692_254)"/>
<path d="M118.04 114.933V111.827C116.112 115.763 116.189 118.074 110.791 119.075C111.96 121.038 112.806 121.636 114.933 121.146C115.325 125.201 115.718 127.472 118.04 131.5V125.287C116.703 121.107 116.953 118.865 118.04 114.933Z" fill="url(#paint2_radial_692_254)"/>
<path d="M115.969 98.3662C116.06 94.792 116.696 93.3936 118.04 91.1182V105.614C115.723 100.811 114.342 99.4138 111.827 99.4015C113.365 97.8121 114.277 97.3638 115.969 98.3662Z" fill="url(#paint3_radial_692_254)"/>
<path d="M185.366 108.06C186.69 108.487 188.157 108.504 189.362 107.809C191.499 106.575 191.937 105.154 191.555 102.508V102.508C193.199 103.056 194.016 104.953 193.045 106.388C192.081 107.812 190.985 108.974 189.452 110.246C188.161 111.316 186.509 111.855 184.833 111.812C179.638 111.679 177.044 110.851 173.953 108.72C174.974 110.641 174.917 111.76 174.09 113.6C174.018 113.76 173.822 113.822 173.671 113.731C171.996 112.73 171.075 111.892 169.811 109.756C169.863 114.032 169.094 113.977 165.669 114.933C168.559 110.86 168.026 109.221 165.881 106.254C165.083 105.151 163.953 104.331 162.673 103.866L157.501 101.985C154.744 100.982 151.73 100.942 148.947 101.869L131.905 107.55C131.771 107.435 131.636 107.326 131.5 107.223V104.508C131.5 103.403 130.605 102.508 129.5 102.508H127.288C126.183 102.508 125.288 103.403 125.288 104.508V105.614H124.252V103.472C124.252 102.368 125.148 101.472 126.252 101.472H130.536C131.64 101.472 132.536 102.368 132.536 103.472V106.65C137.305 103.748 142.547 101.584 149.353 99.7769C153.233 98.747 157.325 99.0145 161.146 100.247L185.366 108.06Z" fill="url(#paint4_radial_692_254)"/>
<path fill-rule="evenodd" clip-rule="evenodd" d="M118.04 111.827V108.721C120.621 105.74 121.915 105.799 124.252 105.614H125.288C128.016 105.589 129.856 105.979 131.5 107.223V107.685L131.905 107.55C132.809 108.327 133.669 109.382 134.607 110.791C141.656 108.167 143.837 105.859 151.448 104.117C153.286 103.696 155.241 103.854 156.905 104.739C158.938 105.82 160.331 107.075 161.678 109.235C162.281 110.201 162.374 111.42 161.864 112.438C161.029 114.107 159.829 115.417 156.941 117.128C155.96 117.709 154.728 117.62 153.8 116.957L149.799 114.099C148.86 113.429 148.666 112.09 149.457 111.251C151.248 109.354 152.356 109.09 154.28 109.756C153.054 110.067 152.331 110.456 151.683 111.688C151.319 112.378 151.527 113.216 152.079 113.767L153.803 115.492C154.708 116.397 156.112 116.664 157.173 115.948C158.687 114.927 159.601 113.802 160.591 112.283C161.185 111.372 161.225 110.185 160.599 109.296C158.891 106.871 157.002 106.022 153.244 105.614C148.565 105.758 142.105 109.592 134.607 112.862C134.468 115.305 134.252 117.608 130.648 119.531C129.929 119.915 129.052 119.733 128.475 119.156L125.827 116.508C125.529 116.21 125.529 115.727 125.827 115.429V115.429C126.107 115.149 126.557 115.134 126.868 115.381C131.196 118.812 132.729 117.017 133.571 112.862C127.294 113.743 124.479 112.063 123.217 106.65H121.146L118.04 111.827ZM133.571 111.827C130.755 107.593 128.662 106.549 124.252 106.65C126.497 111.782 128.455 113.001 133.571 111.827Z" fill="url(#paint5_radial_692_254)"/>
<path d="M118.04 114.933V111.827C119.967 115.763 119.89 118.074 125.288 119.075C124.119 121.038 123.273 121.636 121.146 121.146C120.755 125.201 120.362 127.472 118.04 131.5V125.287C119.376 121.107 119.126 118.865 118.04 114.933Z" fill="url(#paint6_radial_692_254)"/>
<path d="M120.11 98.3662C120.019 94.792 119.383 93.3936 118.04 91.1182V105.614C120.356 100.811 121.737 99.4138 124.252 99.4015C122.714 97.8121 121.802 97.3638 120.11 98.3662Z" fill="url(#paint7_radial_692_254)"/>
<path d="M78.4844 46.9844C78.7708 46.9844 80.5469 46.8984 83.8125 46.7266V46.9414C83.8125 47.5716 83.7122 47.8867 83.5117 47.8867C83.2253 47.8867 82.8672 47.9583 82.4375 48.1016C82.0078 48.2305 81.6283 48.431 81.2988 48.7031C80.9694 48.9609 80.8047 49.2904 80.8047 49.6914C80.8047 49.9492 80.862 50.2643 80.9766 50.6367L83.9414 59.7461C84.1276 59.5026 84.3854 59.1732 84.7148 58.7578C85.0443 58.3281 85.4382 57.8125 85.8965 57.2109C86.3548 56.6094 86.763 56.0723 87.1211 55.5996C87.4935 55.127 87.8014 54.7259 88.0449 54.3965C88.2884 54.0671 88.5534 53.709 88.8398 53.3223C89.1263 52.9355 89.4271 52.5273 89.7422 52.0977C90.2005 51.4674 90.6159 50.8659 90.9883 50.293C91.3607 49.7201 91.5469 49.362 91.5469 49.2188C91.5182 48.8464 91.2103 48.5312 90.623 48.2734C90.0358 48.0156 89.4557 47.8867 88.8828 47.8867C88.8255 47.8867 88.7969 47.8008 88.7969 47.6289C88.7969 47.1849 88.8971 46.8841 89.0977 46.7266C89.3268 46.7266 89.8997 46.7695 90.8164 46.8555C91.7474 46.9414 92.4922 46.9844 93.0508 46.9844C93.194 46.9844 94.8984 46.8984 98.1641 46.7266C98.1927 46.8125 98.207 46.8841 98.207 46.9414C98.207 47.5716 98.1068 47.8867 97.9062 47.8867C97.7201 47.8867 97.3906 47.9512 96.918 48.0801C96.4453 48.209 95.9655 48.3737 95.4785 48.5742C95.0059 48.7747 94.6549 48.9896 94.4258 49.2188C94.3112 49.3333 93.9961 49.7272 93.4805 50.4004C92.9648 51.0736 92.3275 51.9043 91.5684 52.8926C90.8236 53.8809 90.043 54.9264 89.2266 56.0293C88.4245 57.1178 87.6654 58.1562 86.9492 59.1445C86.2474 60.1328 85.6673 60.9564 85.209 61.6152C84.7507 62.2741 84.5143 62.6536 84.5 62.7539L83.2969 69.0273C82.9818 70.5599 82.8242 71.849 82.8242 72.8945C82.8242 73.1237 83.0176 73.3314 83.4043 73.5176C83.791 73.7038 84.1849 73.8255 84.5859 73.8828L85.1445 73.9688C85.2018 73.9688 85.2305 74.026 85.2305 74.1406C85.2305 74.4557 85.1445 74.7852 84.9727 75.1289C83.6406 75.0573 82.6022 75.0072 81.8574 74.9785C81.1126 74.9355 80.6615 74.9141 80.5039 74.9141C80.4609 74.9141 80.0384 74.9355 79.2363 74.9785C78.4486 75.0072 77.2812 75.0573 75.7344 75.1289C75.7057 75.1003 75.6914 75 75.6914 74.8281C75.6914 74.2552 75.7917 73.9688 75.9922 73.9688C76.207 73.9688 76.515 73.9258 76.916 73.8398C77.3171 73.7396 77.6966 73.6178 78.0547 73.4746C78.4271 73.3171 78.6562 73.1667 78.7422 73.0234C79.1003 72.4076 79.4583 71.1185 79.8164 69.1562L80.9336 63.0547C80.9622 62.9401 80.6758 61.9303 80.0742 60.0254C79.7734 59.0658 79.4655 58.1204 79.1504 57.1895C78.8496 56.2441 78.5417 55.306 78.2266 54.375L77.3242 51.582C76.8945 50.2643 76.3359 49.3477 75.6484 48.832C75.362 48.6315 74.9466 48.4238 74.4023 48.209C73.8581 47.9941 73.4714 47.8867 73.2422 47.8867C73.1849 47.8867 73.1562 47.8151 73.1562 47.6719C73.1562 47.1992 73.2565 46.8841 73.457 46.7266C73.6862 46.7409 74.1016 46.7695 74.7031 46.8125C75.3047 46.8555 75.9564 46.8984 76.6582 46.9414C77.36 46.9701 77.9688 46.9844 78.4844 46.9844ZM101.645 56.3086C102.103 56.3086 102.461 56.5163 102.719 56.9316C102.977 57.347 103.105 57.8841 103.105 58.543C103.105 59.3021 103.02 60.0612 102.848 60.8203L101.344 67.9102C101.143 68.7839 101.043 69.5573 101.043 70.2305C101.043 71.4622 101.315 72.0781 101.859 72.0781C102.174 72.0781 102.561 71.8991 103.02 71.541C103.492 71.1829 103.979 70.7246 104.48 70.166C104.996 69.6074 105.476 69.0345 105.92 68.4473C106.736 67.373 107.51 66.0625 108.24 64.5156C108.971 62.9688 109.479 61.4362 109.766 59.918L110.496 56.5664C110.883 56.4518 111.327 56.3945 111.828 56.3945C112.315 56.3945 112.802 56.4518 113.289 56.5664L110.625 70.4453C110.539 70.7891 110.496 71.1471 110.496 71.5195C110.496 72.2357 110.639 72.5938 110.926 72.5938C111.284 72.5938 111.714 72.3431 112.215 71.8418C112.716 71.3262 113.146 70.8893 113.504 70.5312L113.762 70.2305C113.819 70.2305 113.926 70.3665 114.084 70.6387C114.242 70.9108 114.32 71.1042 114.32 71.2188C114.077 71.6341 113.633 72.1641 112.988 72.8086C112.358 73.4531 111.671 74.026 110.926 74.5273C110.181 75.0143 109.508 75.2578 108.906 75.2578C108.448 75.2578 108.09 75.0501 107.832 74.6348C107.574 74.2194 107.445 73.6823 107.445 73.0234C107.445 72.5938 107.546 71.8346 107.746 70.7461L108.52 66.793C108.247 67.3086 107.66 68.1966 106.758 69.457C106.171 70.2734 105.462 71.1328 104.631 72.0352C103.814 72.9375 102.998 73.7038 102.182 74.334C101.365 74.9499 100.671 75.2578 100.098 75.2578C98.6654 75.2578 97.9492 74.3125 97.9492 72.4219C97.9492 71.0755 98.1497 69.5143 98.5508 67.7383L99.8398 61.7656C99.9831 60.7773 100.055 60.2044 100.055 60.0469C100.055 59.3307 99.9115 58.9727 99.625 58.9727C99.3815 58.9727 99.0163 59.2018 98.5293 59.6602C98.3001 59.8893 98.0495 60.14 97.7773 60.4121C97.5195 60.6842 97.3477 60.8776 97.2617 60.9922C97.2044 60.9922 97.097 60.8561 96.9395 60.584C96.7819 60.3118 96.7031 60.1185 96.7031 60.0039C96.9323 59.6172 97.3477 59.1374 97.9492 58.5645C98.5508 57.9772 99.1953 57.4544 99.8828 56.9961C100.57 56.5378 101.158 56.3086 101.645 56.3086ZM122.355 56.3086C122.814 56.3086 123.172 56.5163 123.43 56.9316C123.688 57.347 123.816 57.8841 123.816 58.543C123.816 59.1732 123.73 59.9323 123.559 60.8203L122.785 64.7734C123.057 64.2865 123.68 63.3984 124.654 62.1094C125.299 61.2643 126.044 60.3978 126.889 59.5098C127.748 58.6074 128.593 57.8483 129.424 57.2324C130.269 56.6165 130.978 56.3086 131.551 56.3086C132.983 56.3086 133.699 57.2539 133.699 59.1445C133.699 60.4766 133.499 62.0378 133.098 63.8281L131.68 70.4453C131.594 70.7891 131.551 71.1471 131.551 71.5195C131.551 72.2357 131.694 72.5938 131.98 72.5938C132.339 72.5938 132.768 72.3431 133.27 71.8418C133.771 71.3262 134.201 70.8893 134.559 70.5312L134.816 70.2305C134.874 70.2305 134.981 70.3665 135.139 70.6387C135.296 70.9108 135.375 71.1042 135.375 71.2188C135.132 71.6341 134.688 72.1641 134.043 72.8086C133.413 73.4531 132.725 74.026 131.98 74.5273C131.236 75.0143 130.562 75.2578 129.961 75.2578C129.503 75.2578 129.145 75.0501 128.887 74.6348C128.629 74.2194 128.5 73.6823 128.5 73.0234C128.5 72.5938 128.6 71.8346 128.801 70.7461L130.305 63.6562C130.505 62.6823 130.605 61.9089 130.605 61.3359C130.605 60.1042 130.333 59.4883 129.789 59.4883C129.316 59.4883 128.679 59.8464 127.877 60.5625C127.075 61.2643 126.237 62.2025 125.363 63.377C124.504 64.5514 123.723 65.862 123.021 67.3086C122.32 68.7409 121.826 70.1875 121.539 71.6484L120.809 75C120.422 75.1146 119.978 75.1719 119.477 75.1719C118.99 75.1719 118.503 75.1146 118.016 75L120.551 61.7656C120.694 60.7773 120.766 60.2044 120.766 60.0469C120.766 59.3307 120.622 58.9727 120.336 58.9727C120.092 58.9727 119.727 59.2018 119.24 59.6602C119.011 59.8893 118.76 60.14 118.488 60.4121C118.23 60.6842 118.059 60.8776 117.973 60.9922C117.915 60.9922 117.808 60.8561 117.65 60.584C117.493 60.3118 117.414 60.1185 117.414 60.0039C117.643 59.6172 118.059 59.1374 118.66 58.5645C119.262 57.9772 119.906 57.4544 120.594 56.9961C121.281 56.5378 121.868 56.3086 122.355 56.3086ZM143.066 56.3086C143.525 56.3086 143.883 56.5163 144.141 56.9316C144.398 57.347 144.527 57.8841 144.527 58.543C144.527 59.3021 144.441 60.0612 144.27 60.8203L142.766 67.9102C142.565 68.7839 142.465 69.5573 142.465 70.2305C142.465 71.4622 142.737 72.0781 143.281 72.0781C143.596 72.0781 143.983 71.8991 144.441 71.541C144.914 71.1829 145.401 70.7246 145.902 70.166C146.418 69.6074 146.898 69.0345 147.342 68.4473C148.158 67.373 148.932 66.0625 149.662 64.5156C150.393 62.9688 150.901 61.4362 151.188 59.918L151.918 56.5664C152.305 56.4518 152.749 56.3945 153.25 56.3945C153.737 56.3945 154.224 56.4518 154.711 56.5664L152.047 70.4453C151.961 70.7891 151.918 71.1471 151.918 71.5195C151.918 72.2357 152.061 72.5938 152.348 72.5938C152.706 72.5938 153.135 72.3431 153.637 71.8418C154.138 71.3262 154.568 70.8893 154.926 70.5312L155.184 70.2305C155.241 70.2305 155.348 70.3665 155.506 70.6387C155.663 70.9108 155.742 71.1042 155.742 71.2188C155.499 71.6341 155.055 72.1641 154.41 72.8086C153.78 73.4531 153.092 74.026 152.348 74.5273C151.603 75.0143 150.93 75.2578 150.328 75.2578C149.87 75.2578 149.512 75.0501 149.254 74.6348C148.996 74.2194 148.867 73.6823 148.867 73.0234C148.867 72.5938 148.967 71.8346 149.168 70.7461L149.941 66.793C149.669 67.3086 149.082 68.1966 148.18 69.457C147.592 70.2734 146.883 71.1328 146.053 72.0352C145.236 72.9375 144.42 73.7038 143.604 74.334C142.787 74.9499 142.092 75.2578 141.52 75.2578C140.087 75.2578 139.371 74.3125 139.371 72.4219C139.371 71.0755 139.572 69.5143 139.973 67.7383L141.262 61.7656C141.405 60.7773 141.477 60.2044 141.477 60.0469C141.477 59.3307 141.333 58.9727 141.047 58.9727C140.803 58.9727 140.438 59.2018 139.951 59.6602C139.722 59.8893 139.471 60.14 139.199 60.4121C138.941 60.6842 138.77 60.8776 138.684 60.9922C138.626 60.9922 138.519 60.8561 138.361 60.584C138.204 60.3118 138.125 60.1185 138.125 60.0039C138.354 59.6172 138.77 59.1374 139.371 58.5645C139.973 57.9772 140.617 57.4544 141.305 56.9961C141.992 56.5378 142.579 56.3086 143.066 56.3086ZM166.398 56.1797C168.031 56.1797 169.32 56.724 170.266 57.8125C170.409 58.1419 170.48 58.4427 170.48 58.7148C170.48 59.2305 170.344 59.6745 170.072 60.0469C169.8 60.4193 169.449 60.6055 169.02 60.6055C168.633 60.6055 168.275 60.3978 167.945 59.9824C167.63 59.5671 167.236 59.1445 166.764 58.7148C166.291 58.2852 165.668 58.0703 164.895 58.0703C164.293 58.0703 163.82 58.2708 163.477 58.6719C163.133 59.0729 162.961 59.5312 162.961 60.0469C162.961 60.7917 163.24 61.5866 163.799 62.4316C164.357 63.2767 164.966 64.0286 165.625 64.6875C166.284 65.3464 166.893 66.1484 167.451 67.0938C168.01 68.0391 168.289 68.9987 168.289 69.9727C168.289 71.5482 167.716 72.8229 166.57 73.7969C165.424 74.7708 163.949 75.2578 162.145 75.2578C160.512 75.2578 159.223 74.7135 158.277 73.625C158.134 73.3958 158.062 73.1237 158.062 72.8086C158.062 72.293 158.199 71.8346 158.471 71.4336C158.743 71.0326 159.094 70.832 159.523 70.832C159.91 70.832 160.268 71.0397 160.598 71.4551C160.913 71.8704 161.307 72.293 161.779 72.7227C162.252 73.1523 162.875 73.3672 163.648 73.3672C164.279 73.3672 164.787 73.1595 165.174 72.7441C165.561 72.3288 165.754 71.8776 165.754 71.3906C165.754 70.6458 165.475 69.8509 164.916 69.0059C164.357 68.1608 163.749 67.4089 163.09 66.75C162.431 66.0911 161.822 65.2891 161.264 64.3438C160.705 63.3984 160.426 62.4388 160.426 61.4648C160.426 60.6628 160.691 59.8535 161.221 59.0371C161.751 58.2207 162.467 57.5404 163.369 56.9961C164.271 56.4518 165.281 56.1797 166.398 56.1797Z" fill="white"/>
<path d="M0 14.4961C6.30012 20.0984 15.0791 19.1979 30.687 15.1421C32.2497 14.736 33.9168 14.9601 35.3059 15.7832L61.0905 31.063L35.3304 19.6141C33.9205 18.9874 32.3183 18.9353 30.8588 19.4358C12.5496 25.7159 4.73674 24.7283 0 14.4961Z" fill="url(#paint8_radial_692_254)"/>
<path d="M16.5669 25.8858C22.7094 27.5488 34.4861 19.1752 43.5027 24.2129C35.7991 20.3448 24.9274 34.7378 16.5669 25.8858Z" fill="url(#paint9_radial_692_254)"/>
<path d="M42.4528 34.1693C40.4746 32.9379 39.8039 31.791 39.5364 30.2054C39.314 28.8871 40.2138 27.6374 41.514 27.3262C46.4064 26.1551 49.6595 27.3172 54.8779 31.063C50.3759 26.3362 46.8249 25.2844 39.6469 25.78C38.7972 25.8387 38.0191 26.2751 37.5081 26.9564L36.1669 28.7446C35.6047 29.4943 35.6307 30.5432 36.2784 31.2205C38.4425 33.4837 39.9798 34.1156 42.4528 34.1693Z" fill="url(#paint10_radial_692_254)"/>
<path d="M61.0905 28.9921C48.8725 19.5072 53.131 18.6378 60.0551 10.3543C56.6285 8.93238 54.8937 8.83857 52.8071 12.4252C51.2879 8.29387 49.7783 6.42726 45.559 4.14173C43.8524 8.52031 44.6321 10.6991 46.5945 14.4961C42.9378 12.0347 40.7471 11.3823 36.2402 13.4606C46.3046 17.727 45.2926 18.8748 61.0905 28.9921Z" fill="url(#paint11_radial_692_254)"/>
<path d="M78.6929 22.7441C78.6929 22.1918 79.1406 21.7441 79.6929 21.7441H79.7638C80.3161 21.7441 80.7638 22.1918 80.7638 22.7441V25.9213C80.7638 26.4735 80.3161 26.9213 79.7638 26.9213H74.4803C73.3757 26.9213 72.4803 26.0258 72.4803 24.9213V19.6024C72.4803 18.4978 73.3757 17.6024 74.4803 17.6024H78.7281C80.6137 17.6024 82.4755 18.023 84.178 18.8337V18.8337C85.2965 19.3663 86.1249 20.3629 86.4441 21.5599L88.3399 28.6695C89.2063 31.9182 86.6836 35.0788 83.3237 34.9544L68.0679 34.3894C64.7776 34.2675 62.2002 31.5169 62.2923 28.2256L62.6948 13.8426C62.7856 10.5955 65.4441 8.01038 68.6924 8.01038H83.0387C86.0229 8.01038 88.8896 9.21712 90.915 11.4088C101.807 23.194 109.097 33.3225 115.395 32.2299C115.685 32.1796 115.968 32.3916 115.968 32.686V32.686C115.968 32.9325 115.766 33.1318 115.519 33.1285C109.37 33.045 105.37 32.4313 87.653 13.254C86.5367 12.0456 85.0793 11.1983 83.4735 10.8414L77.8584 9.59364C77.0431 9.41248 76.199 9.4035 75.3801 9.56728L71.091 10.4251C68.2865 10.986 66.2677 13.4485 66.2677 16.3086V27.0984C66.2677 29.8599 68.5063 32.0984 71.2677 32.0984H80.9055C83.1146 32.0984 84.9055 30.3076 84.9055 28.0984V22.6378C84.9055 20.4287 83.1146 18.6378 80.9055 18.6378H76.5512C75.4466 18.6378 74.5512 19.5332 74.5512 20.6378V24.8858C74.5512 25.4381 74.9989 25.8858 75.5512 25.8858H77.6929C78.2452 25.8858 78.6929 25.4381 78.6929 24.8858V22.7441Z" fill="url(#paint12_radial_692_254)"/>
<path d="M104.412 33.0631C96.4743 29.9513 88.3242 12.4066 78.6929 13.4606C91.6665 19.2326 92.9183 31.4785 104.412 33.0631Z" fill="url(#paint13_radial_692_254)"/>
<path d="M111.827 30.0276C106.485 21.6827 106.361 16.9143 110.791 8.28346C105.363 9.71409 97.6256 19.5114 111.827 30.0276Z" fill="url(#paint14_radial_692_254)"/>
<path d="M118.039 10.3543C113.102 14.0549 110.405 23.2793 118.039 32.0984C106.33 25.6888 109.793 12.7713 118.039 0V10.3543Z" fill="url(#paint15_radial_692_254)"/>
<path d="M236.079 14.4961C229.778 20.0984 221 19.1979 205.392 15.1421C203.829 14.736 202.162 14.9601 200.773 15.7832L174.988 31.063L200.748 19.6141C202.158 18.9874 203.76 18.9353 205.22 19.4358C223.529 25.7159 231.342 24.7283 236.079 14.4961Z" fill="url(#paint16_radial_692_254)"/>
<path d="M219.512 25.8858C213.369 27.5488 201.593 19.1752 192.576 24.2129C200.279 20.3448 211.151 34.7378 219.512 25.8858Z" fill="url(#paint17_radial_692_254)"/>
<path d="M193.626 34.1693C195.604 32.9379 196.275 31.791 196.542 30.2054C196.765 28.8871 195.865 27.6374 194.565 27.3262C189.672 26.1551 186.419 27.3172 181.201 31.063C185.703 26.3362 189.254 25.2844 196.432 25.78C197.281 25.8387 198.06 26.2751 198.571 26.9564L199.912 28.7446C200.474 29.4943 200.448 30.5432 199.8 31.2205C197.636 33.4837 196.099 34.1156 193.626 34.1693Z" fill="url(#paint18_radial_692_254)"/>
<path d="M174.988 28.9921C187.206 19.5072 182.948 18.6378 176.024 10.3543C179.45 8.93238 181.185 8.83857 183.272 12.4252C184.791 8.29387 186.3 6.42726 190.52 4.14173C192.226 8.52031 191.446 10.6991 189.484 14.4961C193.141 12.0347 195.331 11.3823 199.838 13.4606C189.774 17.727 190.786 18.8748 174.988 28.9921Z" fill="url(#paint19_radial_692_254)"/>
<path d="M157.386 22.7441C157.386 22.1918 156.938 21.7441 156.386 21.7441H156.315C155.763 21.7441 155.315 22.1918 155.315 22.7441V25.9213C155.315 26.4735 155.763 26.9213 156.315 26.9213H161.598C162.703 26.9213 163.598 26.0258 163.598 24.9213V19.6024C163.598 18.4978 162.703 17.6024 161.598 17.6024H157.351C155.465 17.6024 153.603 18.023 151.901 18.8337V18.8337C150.782 19.3663 149.954 20.3629 149.635 21.5599L147.739 28.6695C146.872 31.9182 149.395 35.0788 152.755 34.9544L168.011 34.3894C171.301 34.2675 173.878 31.5169 173.786 28.2256L173.384 13.8426C173.293 10.5955 170.635 8.01038 167.386 8.01038H153.04C150.056 8.01038 147.189 9.21712 145.164 11.4088C134.272 23.194 126.982 33.3225 120.683 32.2299C120.393 32.1796 120.11 32.3916 120.11 32.686V32.686C120.11 32.9325 120.313 33.1318 120.559 33.1285C126.708 33.045 130.709 32.4313 148.426 13.254C149.542 12.0456 150.999 11.1983 152.605 10.8414L158.22 9.59364C159.035 9.41248 159.88 9.4035 160.698 9.56728L164.988 10.4251C167.792 10.986 169.811 13.4485 169.811 16.3086V27.0984C169.811 29.8599 167.572 32.0984 164.811 32.0984H155.173C152.964 32.0984 151.173 30.3076 151.173 28.0984V22.6378C151.173 20.4287 152.964 18.6378 155.173 18.6378H159.527C160.632 18.6378 161.527 19.5332 161.527 20.6378V24.8858C161.527 25.4381 161.08 25.8858 160.527 25.8858H158.386C157.833 25.8858 157.386 25.4381 157.386 24.8858V22.7441Z" fill="url(#paint20_radial_692_254)"/>
<path d="M131.666 33.0631C139.604 29.9513 147.754 12.4066 157.386 13.4606C144.412 19.2326 143.16 31.4785 131.666 33.0631Z" fill="url(#paint21_radial_692_254)"/>
<path d="M124.252 30.0276C129.594 21.6827 129.718 16.9143 125.287 8.28346C130.716 9.71409 138.453 19.5114 124.252 30.0276Z" fill="url(#paint22_radial_692_254)"/>
<path d="M118.039 10.3543C122.976 14.0549 125.673 23.2793 118.039 32.0984C129.749 25.6888 126.286 12.7713 118.039 0V10.3543Z" fill="url(#paint23_radial_692_254)"/>
<defs>
<radialGradient id="paint0_radial_692_254" cx="0" cy="0" r="1" gradientUnits="userSpaceOnUse" gradientTransform="translate(79.7285 111.309) scale(38.311 20.1909)">
<stop stop-color="#E1E1E1"/>
<stop offset="1" stop-color="#FFF4DA"/>
</radialGradient>
<radialGradient id="paint1_radial_692_254" cx="0" cy="0" r="1" gradientUnits="userSpaceOnUse" gradientTransform="translate(79.7285 111.309) scale(38.311 20.1909)">
<stop stop-color="#E1E1E1"/>
<stop offset="1" stop-color="#FFF4DA"/>
</radialGradient>
<radialGradient id="paint2_radial_692_254" cx="0" cy="0" r="1" gradientUnits="userSpaceOnUse" gradientTransform="translate(79.7285 111.309) scale(38.311 20.1909)">
<stop stop-color="#E1E1E1"/>
<stop offset="1" stop-color="#FFF4DA"/>
</radialGradient>
<radialGradient id="paint3_radial_692_254" cx="0" cy="0" r="1" gradientUnits="userSpaceOnUse" gradientTransform="translate(79.7285 111.309) scale(38.311 20.1909)">
<stop stop-color="#E1E1E1"/>
<stop offset="1" stop-color="#FFF4DA"/>
</radialGradient>
<radialGradient id="paint4_radial_692_254" cx="0" cy="0" r="1" gradientUnits="userSpaceOnUse" gradientTransform="translate(156.351 111.309) rotate(180) scale(38.311 20.1909)">
<stop stop-color="#E1E1E1"/>
<stop offset="1" stop-color="#FFF4DA"/>
</radialGradient>
<radialGradient id="paint5_radial_692_254" cx="0" cy="0" r="1" gradientUnits="userSpaceOnUse" gradientTransform="translate(156.351 111.309) rotate(180) scale(38.311 20.1909)">
<stop stop-color="#E1E1E1"/>
<stop offset="1" stop-color="#FFF4DA"/>
</radialGradient>
<radialGradient id="paint6_radial_692_254" cx="0" cy="0" r="1" gradientUnits="userSpaceOnUse" gradientTransform="translate(156.351 111.309) rotate(180) scale(38.311 20.1909)">
<stop stop-color="#E1E1E1"/>
<stop offset="1" stop-color="#FFF4DA"/>
</radialGradient>
<radialGradient id="paint7_radial_692_254" cx="0" cy="0" r="1" gradientUnits="userSpaceOnUse" gradientTransform="translate(156.351 111.309) rotate(180) scale(38.311 20.1909)">
<stop stop-color="#E1E1E1"/>
<stop offset="1" stop-color="#FFF4DA"/>
</radialGradient>
<radialGradient id="paint8_radial_692_254" cx="0" cy="0" r="1" gradientUnits="userSpaceOnUse" gradientTransform="translate(59.0197 17.6024) scale(59.0197 17.6024)">
<stop stop-color="#E1E1E1"/>
<stop offset="1" stop-color="#FFF4DA"/>
</radialGradient>
<radialGradient id="paint9_radial_692_254" cx="0" cy="0" r="1" gradientUnits="userSpaceOnUse" gradientTransform="translate(59.0197 17.6024) scale(59.0197 17.6024)">
<stop stop-color="#E1E1E1"/>
<stop offset="1" stop-color="#FFF4DA"/>
</radialGradient>
<radialGradient id="paint10_radial_692_254" cx="0" cy="0" r="1" gradientUnits="userSpaceOnUse" gradientTransform="translate(59.0197 17.6024) scale(59.0197 17.6024)">
<stop stop-color="#E1E1E1"/>
<stop offset="1" stop-color="#FFF4DA"/>
</radialGradient>
<radialGradient id="paint11_radial_692_254" cx="0" cy="0" r="1" gradientUnits="userSpaceOnUse" gradientTransform="translate(59.0197 17.6024) scale(59.0197 17.6024)">
<stop stop-color="#E1E1E1"/>
<stop offset="1" stop-color="#FFF4DA"/>
</radialGradient>
<radialGradient id="paint12_radial_692_254" cx="0" cy="0" r="1" gradientUnits="userSpaceOnUse" gradientTransform="translate(59.0197 17.6024) scale(59.0197 17.6024)">
<stop stop-color="#E1E1E1"/>
<stop offset="1" stop-color="#FFF4DA"/>
</radialGradient>
<radialGradient id="paint13_radial_692_254" cx="0" cy="0" r="1" gradientUnits="userSpaceOnUse" gradientTransform="translate(59.0197 17.6024) scale(59.0197 17.6024)">
<stop stop-color="#E1E1E1"/>
<stop offset="1" stop-color="#FFF4DA"/>
</radialGradient>
<radialGradient id="paint14_radial_692_254" cx="0" cy="0" r="1" gradientUnits="userSpaceOnUse" gradientTransform="translate(59.0197 17.6024) scale(59.0197 17.6024)">
<stop stop-color="#E1E1E1"/>
<stop offset="1" stop-color="#FFF4DA"/>
</radialGradient>
<radialGradient id="paint15_radial_692_254" cx="0" cy="0" r="1" gradientUnits="userSpaceOnUse" gradientTransform="translate(59.0197 17.6024) scale(59.0197 17.6024)">
<stop stop-color="#E1E1E1"/>
<stop offset="1" stop-color="#FFF4DA"/>
</radialGradient>
<radialGradient id="paint16_radial_692_254" cx="0" cy="0" r="1" gradientUnits="userSpaceOnUse" gradientTransform="translate(177.059 17.6024) rotate(180) scale(59.0197 17.6024)">
<stop stop-color="#E1E1E1"/>
<stop offset="1" stop-color="#FFF4DA"/>
</radialGradient>
<radialGradient id="paint17_radial_692_254" cx="0" cy="0" r="1" gradientUnits="userSpaceOnUse" gradientTransform="translate(177.059 17.6024) rotate(180) scale(59.0197 17.6024)">
<stop stop-color="#E1E1E1"/>
<stop offset="1" stop-color="#FFF4DA"/>
</radialGradient>
<radialGradient id="paint18_radial_692_254" cx="0" cy="0" r="1" gradientUnits="userSpaceOnUse" gradientTransform="translate(177.059 17.6024) rotate(180) scale(59.0197 17.6024)">
<stop stop-color="#E1E1E1"/>
<stop offset="1" stop-color="#FFF4DA"/>
</radialGradient>
<radialGradient id="paint19_radial_692_254" cx="0" cy="0" r="1" gradientUnits="userSpaceOnUse" gradientTransform="translate(177.059 17.6024) rotate(180) scale(59.0197 17.6024)">
<stop stop-color="#E1E1E1"/>
<stop offset="1" stop-color="#FFF4DA"/>
</radialGradient>
<radialGradient id="paint20_radial_692_254" cx="0" cy="0" r="1" gradientUnits="userSpaceOnUse" gradientTransform="translate(177.059 17.6024) rotate(180) scale(59.0197 17.6024)">
<stop stop-color="#E1E1E1"/>
<stop offset="1" stop-color="#FFF4DA"/>
</radialGradient>
<radialGradient id="paint21_radial_692_254" cx="0" cy="0" r="1" gradientUnits="userSpaceOnUse" gradientTransform="translate(177.059 17.6024) rotate(180) scale(59.0197 17.6024)">
<stop stop-color="#E1E1E1"/>
<stop offset="1" stop-color="#FFF4DA"/>
</radialGradient>
<radialGradient id="paint22_radial_692_254" cx="0" cy="0" r="1" gradientUnits="userSpaceOnUse" gradientTransform="translate(177.059 17.6024) rotate(180) scale(59.0197 17.6024)">
<stop stop-color="#E1E1E1"/>
<stop offset="1" stop-color="#FFF4DA"/>
</radialGradient>
<radialGradient id="paint23_radial_692_254" cx="0" cy="0" r="1" gradientUnits="userSpaceOnUse" gradientTransform="translate(177.059 17.6024) rotate(180) scale(59.0197 17.6024)">
<stop stop-color="#E1E1E1"/>
<stop offset="1" stop-color="#FFF4DA"/>
</radialGradient>
</defs>
</svg>
